%TF.GenerationSoftware,KiCad,Pcbnew,9.0.7-9.0.7~ubuntu22.04.1*%
%TF.CreationDate,2026-02-10T02:54:02+01:00*%
%TF.ProjectId,Bucky++,4275636b-792b-42b2-9e6b-696361645f70,1.1*%
%TF.SameCoordinates,Original*%
%TF.FileFunction,Paste,Top*%
%TF.FilePolarity,Positive*%
%FSLAX46Y46*%
G04 Gerber Fmt 4.6, Leading zero omitted, Abs format (unit mm)*
G04 Created by KiCad (PCBNEW 9.0.7-9.0.7~ubuntu22.04.1) date 2026-02-10 02:54:02*
%MOMM*%
%LPD*%
G01*
G04 APERTURE LIST*
G04 Aperture macros list*
%AMRoundRect*
0 Rectangle with rounded corners*
0 $1 Rounding radius*
0 $2 $3 $4 $5 $6 $7 $8 $9 X,Y pos of 4 corners*
0 Add a 4 corners polygon primitive as box body*
4,1,4,$2,$3,$4,$5,$6,$7,$8,$9,$2,$3,0*
0 Add four circle primitives for the rounded corners*
1,1,$1+$1,$2,$3*
1,1,$1+$1,$4,$5*
1,1,$1+$1,$6,$7*
1,1,$1+$1,$8,$9*
0 Add four rect primitives between the rounded corners*
20,1,$1+$1,$2,$3,$4,$5,0*
20,1,$1+$1,$4,$5,$6,$7,0*
20,1,$1+$1,$6,$7,$8,$9,0*
20,1,$1+$1,$8,$9,$2,$3,0*%
G04 Aperture macros list end*
%ADD10RoundRect,0.250000X-1.450000X0.537500X-1.450000X-0.537500X1.450000X-0.537500X1.450000X0.537500X0*%
%ADD11RoundRect,0.150000X0.150000X-0.350000X0.150000X0.350000X-0.150000X0.350000X-0.150000X-0.350000X0*%
%ADD12RoundRect,0.137500X-0.137500X-0.137500X0.137500X-0.137500X0.137500X0.137500X-0.137500X0.137500X0*%
%ADD13R,2.200000X2.150000*%
%ADD14RoundRect,0.130000X0.130000X-0.130000X0.130000X0.130000X-0.130000X0.130000X-0.130000X-0.130000X0*%
%ADD15R,2.200000X3.100000*%
%ADD16RoundRect,0.250000X1.000000X0.650000X-1.000000X0.650000X-1.000000X-0.650000X1.000000X-0.650000X0*%
%ADD17R,3.150000X2.200000*%
%ADD18RoundRect,0.250000X1.500000X-0.250000X1.500000X0.250000X-1.500000X0.250000X-1.500000X-0.250000X0*%
%ADD19RoundRect,0.250001X1.449999X-0.499999X1.449999X0.499999X-1.449999X0.499999X-1.449999X-0.499999X0*%
%ADD20RoundRect,0.150000X0.512500X0.150000X-0.512500X0.150000X-0.512500X-0.150000X0.512500X-0.150000X0*%
%ADD21R,0.250000X0.600000*%
%ADD22RoundRect,0.137500X0.137500X0.137500X-0.137500X0.137500X-0.137500X-0.137500X0.137500X-0.137500X0*%
%ADD23RoundRect,0.150000X0.425000X-0.150000X0.425000X0.150000X-0.425000X0.150000X-0.425000X-0.150000X0*%
%ADD24RoundRect,0.075000X0.500000X-0.075000X0.500000X0.075000X-0.500000X0.075000X-0.500000X-0.075000X0*%
%ADD25O,2.100000X1.000000*%
%ADD26O,1.800000X1.000000*%
%ADD27R,2.700000X6.200000*%
%ADD28RoundRect,0.130000X-0.130000X0.130000X-0.130000X-0.130000X0.130000X-0.130000X0.130000X0.130000X0*%
%ADD29RoundRect,0.187500X0.262500X-0.187500X0.262500X0.187500X-0.262500X0.187500X-0.262500X-0.187500X0*%
%ADD30R,2.900000X0.800000*%
%ADD31R,3.800000X1.800000*%
%ADD32RoundRect,0.130000X0.130000X0.130000X-0.130000X0.130000X-0.130000X-0.130000X0.130000X-0.130000X0*%
%ADD33R,3.429000X1.257000*%
%ADD34R,9.017000X10.668000*%
%ADD35R,3.200000X2.600000*%
%ADD36RoundRect,0.175000X0.325000X-0.175000X0.325000X0.175000X-0.325000X0.175000X-0.325000X-0.175000X0*%
%ADD37RoundRect,0.150000X0.150000X-0.200000X0.150000X0.200000X-0.150000X0.200000X-0.150000X-0.200000X0*%
%ADD38R,1.000000X0.300000*%
%ADD39R,1.300000X2.000000*%
G04 APERTURE END LIST*
D10*
%TO.C,C39*%
X127500000Y-66362500D03*
X127500000Y-70637500D03*
%TD*%
D11*
%TO.C,Q1401*%
X151150000Y-88550000D03*
X153050000Y-88550000D03*
X152100000Y-86550000D03*
%TD*%
D12*
%TO.C,R402*%
X153970000Y-105950000D03*
X154770000Y-105950000D03*
%TD*%
D13*
%TO.C,D7*%
X148100000Y-103650000D03*
X143700000Y-103650000D03*
%TD*%
D14*
%TO.C,C417*%
X155860000Y-100860000D03*
X155860000Y-100060000D03*
%TD*%
D10*
%TO.C,C26*%
X74000000Y-66362500D03*
X74000000Y-70637500D03*
%TD*%
D15*
%TO.C,D10*%
X88300000Y-68400000D03*
X81300000Y-68400000D03*
%TD*%
D14*
%TO.C,C1709*%
X157565000Y-47170000D03*
X157565000Y-46370000D03*
%TD*%
%TO.C,C16*%
X71000000Y-111400000D03*
X71000000Y-110600000D03*
%TD*%
D16*
%TO.C,D704*%
X105200000Y-61000000D03*
X101200000Y-61000000D03*
%TD*%
%TO.C,D11*%
X123200000Y-61000000D03*
X119200000Y-61000000D03*
%TD*%
D10*
%TO.C,C25*%
X78000000Y-66362500D03*
X78000000Y-70637500D03*
%TD*%
D17*
%TO.C,D4*%
X86200000Y-73300000D03*
X86200000Y-80300000D03*
%TD*%
D18*
%TO.C,J1801*%
X156650000Y-89050000D03*
X156650000Y-87050000D03*
D19*
X162400000Y-91400000D03*
X162400000Y-84700000D03*
%TD*%
D20*
%TO.C,U1801*%
X153275000Y-92100000D03*
X153275000Y-91150000D03*
X153275000Y-90200000D03*
X151000000Y-90200000D03*
X151000000Y-92100000D03*
%TD*%
D16*
%TO.C,D702*%
X87600000Y-61000000D03*
X83600000Y-61000000D03*
%TD*%
D14*
%TO.C,C1801*%
X148150000Y-91600000D03*
X148150000Y-90800000D03*
%TD*%
D15*
%TO.C,D12*%
X124100000Y-68400000D03*
X117100000Y-68400000D03*
%TD*%
D21*
%TO.C,D402*%
X147775000Y-107250000D03*
X147275000Y-107250000D03*
X146775000Y-107250000D03*
X146275000Y-107250000D03*
X145775000Y-107250000D03*
X145775000Y-108100000D03*
X146275000Y-108100000D03*
X146775000Y-108100000D03*
X147275000Y-108100000D03*
X147775000Y-108100000D03*
%TD*%
D22*
%TO.C,R407*%
X152400000Y-104400000D03*
X151600000Y-104400000D03*
%TD*%
D23*
%TO.C,J403*%
X157710000Y-107000000D03*
X157710000Y-106200000D03*
D24*
X157710000Y-105050000D03*
X157710000Y-104050000D03*
X157710000Y-103550000D03*
X157710000Y-102550000D03*
D23*
X157710000Y-101400000D03*
X157710000Y-100600000D03*
X157710000Y-100600000D03*
X157710000Y-101400000D03*
D24*
X157710000Y-102050000D03*
X157710000Y-103050000D03*
X157710000Y-104550000D03*
X157710000Y-105550000D03*
D23*
X157710000Y-106200000D03*
X157710000Y-107000000D03*
D25*
X158285000Y-108120000D03*
D26*
X162465000Y-108120000D03*
D25*
X158285000Y-99480000D03*
D26*
X162465000Y-99480000D03*
%TD*%
D10*
%TO.C,C36*%
X113500000Y-66362500D03*
X113500000Y-70637500D03*
%TD*%
D27*
%TO.C,R39*%
X124950000Y-101000000D03*
X133250000Y-101000000D03*
%TD*%
D14*
%TO.C,C17*%
X153500000Y-111400000D03*
X153500000Y-110600000D03*
%TD*%
D28*
%TO.C,C403*%
X155880000Y-106870000D03*
X155880000Y-107670000D03*
%TD*%
D15*
%TO.C,D9*%
X106200000Y-68400000D03*
X99200000Y-68400000D03*
%TD*%
D10*
%TO.C,C37*%
X109500000Y-66362500D03*
X109500000Y-70637500D03*
%TD*%
D17*
%TO.C,D8*%
X140200000Y-73300000D03*
X140200000Y-80300000D03*
%TD*%
D10*
%TO.C,C35*%
X92000000Y-66362500D03*
X92000000Y-70637500D03*
%TD*%
D16*
%TO.C,D13*%
X141000000Y-61000000D03*
X137000000Y-61000000D03*
%TD*%
D15*
%TO.C,D14*%
X142100000Y-68400000D03*
X135100000Y-68400000D03*
%TD*%
D28*
%TO.C,C21*%
X71000000Y-47600000D03*
X71000000Y-48400000D03*
%TD*%
D22*
%TO.C,R403*%
X155190000Y-101770000D03*
X154390000Y-101770000D03*
%TD*%
D29*
%TO.C,C1802*%
X149300000Y-91800000D03*
X149300000Y-90600000D03*
%TD*%
D30*
%TO.C,J15*%
X156570000Y-73480000D03*
X156570000Y-71980000D03*
X156570000Y-70480000D03*
X156570000Y-68980000D03*
D31*
X161270000Y-76080000D03*
X161270000Y-66380000D03*
%TD*%
D17*
%TO.C,D5*%
X122200000Y-73300000D03*
X122200000Y-80300000D03*
%TD*%
D10*
%TO.C,C38*%
X131500000Y-66362500D03*
X131500000Y-70637500D03*
%TD*%
D32*
%TO.C,C404*%
X143450000Y-106300000D03*
X142650000Y-106300000D03*
%TD*%
D33*
%TO.C,Q9*%
X120094000Y-108960000D03*
D34*
X130000000Y-111500000D03*
D33*
X120094000Y-114040000D03*
%TD*%
D35*
%TO.C,D3*%
X103600000Y-74200000D03*
X103600000Y-81400000D03*
%TD*%
D36*
%TO.C,D203*%
X154010000Y-104840000D03*
D37*
X155710000Y-104840000D03*
X155710000Y-102840000D03*
X153810000Y-102840000D03*
%TD*%
D22*
%TO.C,R408*%
X152400000Y-103300000D03*
X151600000Y-103300000D03*
%TD*%
D10*
%TO.C,C34*%
X95900000Y-66362500D03*
X95900000Y-70637500D03*
%TD*%
D28*
%TO.C,C9*%
X153500000Y-47600000D03*
X153500000Y-48400000D03*
%TD*%
D38*
%TO.C,J1702*%
X159015000Y-60570000D03*
X159015000Y-60070000D03*
X159015000Y-59570000D03*
X159015000Y-59070000D03*
X159015000Y-58570000D03*
X159015000Y-58070000D03*
X159015000Y-57570000D03*
X159015000Y-57070000D03*
X159015000Y-56570000D03*
X159015000Y-56070000D03*
X159015000Y-55570000D03*
X159015000Y-55070000D03*
X159015000Y-54570000D03*
X159015000Y-54070000D03*
X159015000Y-53570000D03*
X159015000Y-53070000D03*
X159015000Y-52570000D03*
X159015000Y-52070000D03*
X159015000Y-51570000D03*
X159015000Y-51070000D03*
X159015000Y-50570000D03*
X159015000Y-50070000D03*
X159015000Y-49570000D03*
X159015000Y-49070000D03*
X159015000Y-48570000D03*
X159015000Y-48070000D03*
X159015000Y-47570000D03*
X159015000Y-47070000D03*
X159015000Y-46570000D03*
X159015000Y-46070000D03*
D39*
X161715000Y-62870000D03*
X161715000Y-43770000D03*
%TD*%
M02*
