G04*
G04 #@! TF.GenerationSoftware,Altium Limited,Altium Designer,22.9.1 (49)*
G04*
G04 Layer_Color=8388736*
%FSLAX25Y25*%
%MOIN*%
G70*
G04*
G04 #@! TF.SameCoordinates,31D07EA8-2EF4-44A7-A807-3D2BB65C9B75*
G04*
G04*
G04 #@! TF.FilePolarity,Negative*
G04*
G01*
G75*
%ADD43R,0.09843X0.10080*%
%ADD47R,0.21181X0.25394*%
%ADD48R,0.22402X0.21378*%
%ADD49R,0.03465X0.04252*%
%ADD50R,0.01732X0.02362*%
%ADD51R,0.01732X0.04331*%
%ADD52R,0.01732X0.03543*%
%ADD53R,0.09409X0.07126*%
%ADD54R,0.06850X0.02362*%
%ADD55R,0.07559X0.04409*%
%ADD56R,0.01968X0.04331*%
%ADD57R,0.06004X0.02165*%
%ADD58R,0.04331X0.04134*%
%ADD59R,0.04252X0.03465*%
%ADD60R,0.04016X0.11496*%
%ADD61R,0.02165X0.06201*%
%ADD62R,0.04331X0.03740*%
%ADD63R,0.02953X0.05315*%
%ADD64R,0.14370X0.14370*%
%ADD65R,0.01496X0.03661*%
%ADD66R,0.01575X0.03740*%
%ADD67R,0.03661X0.01496*%
%ADD68R,0.03740X0.01575*%
%ADD69R,0.08110X0.05433*%
%ADD70R,0.03740X0.04331*%
%ADD71R,0.06299X0.02106*%
%ADD72R,0.21693X0.03583*%
%ADD73R,0.13780X0.06890*%
%ADD74R,0.06398X0.02953*%
%ADD75C,0.03543*%
%ADD76C,0.06713*%
%ADD77C,0.06791*%
%ADD78C,0.05413*%
%ADD79R,0.05413X0.05413*%
%ADD80C,0.03150*%
%ADD81C,0.24016*%
G36*
X76595Y214735D02*
X59232D01*
Y232648D01*
X61594D01*
Y229498D01*
X64232D01*
Y232648D01*
X66594D01*
Y229498D01*
X69232D01*
Y232648D01*
X71595D01*
Y229498D01*
X74232D01*
Y232648D01*
X76595D01*
Y214735D01*
D02*
G37*
G36*
X318898Y226378D02*
X318898Y216535D01*
X314936Y212574D01*
X275255Y212624D01*
X270556Y217323D01*
X265859D01*
X251361Y231821D01*
X251552Y232283D01*
X312992D01*
X318898Y226378D01*
D02*
G37*
G36*
X71398Y206467D02*
X69429D01*
Y208435D01*
X66398D01*
Y206467D01*
X64429D01*
Y208435D01*
X61398D01*
Y206467D01*
X59429D01*
Y208435D01*
X58799D01*
Y210798D01*
X71398D01*
Y206467D01*
D02*
G37*
G36*
X76535Y200984D02*
X77165D01*
Y198622D01*
X64567D01*
Y202953D01*
X66535D01*
Y200984D01*
X69567D01*
Y202953D01*
X71535D01*
Y200984D01*
X74567D01*
Y202953D01*
X76535D01*
Y200984D01*
D02*
G37*
G36*
X257874Y222441D02*
Y209674D01*
X295276Y209674D01*
Y197967D01*
X264067Y197967D01*
X264067Y197967D01*
X263666Y198310D01*
X262725Y198780D01*
X261683Y198923D01*
X260650Y198724D01*
X259736Y198205D01*
X259037Y197419D01*
X258626Y196451D01*
X258548Y195402D01*
X258572Y195264D01*
X258249Y194882D01*
X234252Y194882D01*
X230315Y198819D01*
X220472D01*
X216535Y202756D01*
X216535Y228346D01*
X220472Y232283D01*
X248031D01*
X257874Y222441D01*
D02*
G37*
G36*
X76732Y176772D02*
X74370D01*
Y179921D01*
X71732D01*
Y176772D01*
X69370D01*
Y179921D01*
X66732D01*
Y176772D01*
X64370D01*
Y179921D01*
X61732D01*
Y176772D01*
X59370D01*
Y194685D01*
X76732D01*
Y176772D01*
D02*
G37*
G36*
X313780Y192126D02*
X318898Y187008D01*
X318898Y171260D01*
X312992Y165354D01*
X242126Y165354D01*
X237008Y170472D01*
Y187795D01*
X241339Y192126D01*
X313780Y192126D01*
D02*
G37*
G36*
X77579Y110335D02*
X60216D01*
Y128248D01*
X62579D01*
Y125098D01*
X65216D01*
Y128248D01*
X67579D01*
Y125098D01*
X70217D01*
Y128248D01*
X72579D01*
Y125098D01*
X75217D01*
Y128248D01*
X77579D01*
Y110335D01*
D02*
G37*
G36*
X72382Y102067D02*
X70413D01*
Y104035D01*
X67382D01*
Y102067D01*
X65413D01*
Y104035D01*
X62382D01*
Y102067D01*
X60413D01*
Y104035D01*
X59784D01*
Y106398D01*
X72382D01*
Y102067D01*
D02*
G37*
G36*
X77520Y96653D02*
X78150D01*
Y94291D01*
X65551D01*
Y98622D01*
X67520D01*
Y96653D01*
X70551D01*
Y98622D01*
X72520D01*
Y96653D01*
X75551D01*
Y98622D01*
X77520D01*
Y96653D01*
D02*
G37*
G36*
X77716Y72441D02*
X75354D01*
Y75590D01*
X72716D01*
Y72441D01*
X70354D01*
Y75590D01*
X67716D01*
Y72441D01*
X65354D01*
Y75590D01*
X62717D01*
Y72441D01*
X60354D01*
Y90354D01*
X77716D01*
Y72441D01*
D02*
G37*
G36*
X312992Y70866D02*
X318898Y64961D01*
Y49213D01*
X313779Y44094D01*
X243307D01*
X237795Y49606D01*
Y64567D01*
X244094Y70866D01*
X312992Y70866D01*
D02*
G37*
G36*
X268110Y42126D02*
Y36256D01*
X272499D01*
Y36278D01*
X278166Y41945D01*
X295276D01*
Y26630D01*
X268110D01*
Y24803D01*
X259547D01*
X254823Y20079D01*
X222047D01*
X218504Y23622D01*
Y37402D01*
X222441Y41339D01*
X237090D01*
X238160Y42408D01*
X268110Y42126D01*
D02*
G37*
G36*
X318898Y19685D02*
X318898Y9843D01*
X312992Y3937D01*
X222441Y3937D01*
X218504Y7874D01*
Y13780D01*
X222441Y17717D01*
X257874D01*
X260630Y20472D01*
X267323D01*
Y19016D01*
X268032Y18307D01*
X271732D01*
X273859Y20434D01*
Y24623D01*
X313960D01*
X318898Y19685D01*
D02*
G37*
G36*
X142099Y122436D02*
X142154Y122415D01*
X142165Y122404D01*
X142209Y122393D01*
X142252Y122360D01*
X142296Y122316D01*
X142307Y122305D01*
X142340Y122283D01*
X142373Y122229D01*
X142405Y122174D01*
X142416Y122163D01*
X142427Y122119D01*
X142438Y122043D01*
X142449Y121955D01*
Y114457D01*
Y114446D01*
Y114425D01*
X142438Y114392D01*
X142416Y114359D01*
X142394Y114337D01*
X142373Y114326D01*
X142329Y114304D01*
X142318D01*
X142285Y114294D01*
X142230D01*
X142165Y114283D01*
X142143D01*
X142099Y114272D01*
X142012Y114261D01*
X141815D01*
X141728Y114272D01*
X141640Y114283D01*
X141629D01*
X141586Y114294D01*
X141531D01*
X141476Y114304D01*
X141465D01*
X141444Y114315D01*
X141411Y114337D01*
X141389Y114359D01*
Y114370D01*
X141378Y114392D01*
X141367Y114457D01*
Y121551D01*
X141345D01*
X138471Y114425D01*
Y114414D01*
X138460Y114403D01*
X138449Y114370D01*
X138416Y114348D01*
X138405D01*
X138394Y114326D01*
X138361Y114315D01*
X138318Y114294D01*
X138307D01*
X138274Y114283D01*
X138230D01*
X138165Y114272D01*
X138110D01*
X138033Y114261D01*
X137870D01*
X137793Y114272D01*
X137716Y114283D01*
X137706D01*
X137662Y114294D01*
X137618D01*
X137563Y114304D01*
X137552D01*
X137531Y114315D01*
X137498Y114337D01*
X137465Y114359D01*
Y114370D01*
X137443Y114381D01*
X137421Y114425D01*
X134667Y121551D01*
Y114457D01*
Y114446D01*
Y114425D01*
X134656Y114392D01*
X134634Y114359D01*
X134612Y114337D01*
X134590Y114326D01*
X134547Y114304D01*
X134536D01*
X134503Y114294D01*
X134448D01*
X134372Y114283D01*
X134350D01*
X134306Y114272D01*
X134219Y114261D01*
X134022D01*
X133935Y114272D01*
X133847Y114283D01*
X133836D01*
X133793Y114294D01*
X133738D01*
X133683Y114304D01*
X133672D01*
X133651Y114315D01*
X133629Y114337D01*
X133607Y114359D01*
Y114370D01*
X133596Y114392D01*
X133585Y114457D01*
Y121955D01*
Y121966D01*
Y121999D01*
X133596Y122043D01*
X133607Y122098D01*
X133640Y122229D01*
X133672Y122283D01*
X133716Y122327D01*
X133727Y122338D01*
X133738Y122349D01*
X133814Y122393D01*
X133913Y122425D01*
X133967Y122447D01*
X134820D01*
X134940Y122425D01*
X135061Y122404D01*
X135071D01*
X135082Y122393D01*
X135148Y122382D01*
X135235Y122338D01*
X135323Y122283D01*
X135334D01*
X135345Y122272D01*
X135388Y122229D01*
X135454Y122163D01*
X135520Y122076D01*
X135530Y122054D01*
X135563Y121999D01*
X135607Y121901D01*
X135651Y121781D01*
X137990Y115878D01*
X138012D01*
X140438Y121759D01*
Y121770D01*
X140449Y121791D01*
X140471Y121824D01*
X140482Y121879D01*
X140536Y121977D01*
X140591Y122087D01*
Y122098D01*
X140602Y122108D01*
X140646Y122163D01*
X140711Y122229D01*
X140777Y122294D01*
X140799Y122305D01*
X140842Y122338D01*
X140908Y122371D01*
X140996Y122404D01*
X141006D01*
X141017Y122415D01*
X141072Y122425D01*
X141170Y122436D01*
X141280Y122447D01*
X142034D01*
X142099Y122436D01*
D02*
G37*
G36*
X153248Y122469D02*
X153346Y122458D01*
X153368D01*
X153412Y122447D01*
X153467Y122436D01*
X153499Y122404D01*
X153510Y122393D01*
X153521Y122371D01*
X153532Y122327D01*
Y122272D01*
Y122261D01*
X153521Y122207D01*
X153510Y122141D01*
X153478Y122043D01*
X150821Y114479D01*
Y114468D01*
X150811Y114446D01*
X150756Y114370D01*
X150745Y114359D01*
X150723Y114348D01*
X150679Y114326D01*
X150625Y114304D01*
X150614D01*
X150570Y114294D01*
X150505Y114283D01*
X150428Y114272D01*
X150352D01*
X150253Y114261D01*
X149969D01*
X149881Y114272D01*
X149761D01*
X149707Y114283D01*
X149696D01*
X149663Y114294D01*
X149575Y114304D01*
X149565D01*
X149543Y114315D01*
X149477Y114337D01*
Y114348D01*
X149455Y114359D01*
X149423Y114403D01*
Y114414D01*
X149412Y114425D01*
X149390Y114490D01*
X146723Y122054D01*
Y122065D01*
X146712Y122076D01*
X146701Y122130D01*
X146679Y122207D01*
X146668Y122272D01*
Y122283D01*
X146679Y122327D01*
X146690Y122360D01*
X146723Y122404D01*
X146734Y122415D01*
X146766Y122425D01*
X146821Y122447D01*
X146898Y122458D01*
X146920D01*
X146952Y122469D01*
X146996D01*
X147105Y122480D01*
X147433D01*
X147521Y122469D01*
X147543D01*
X147586Y122458D01*
X147641Y122447D01*
X147685Y122425D01*
X147696D01*
X147717Y122415D01*
X147739Y122393D01*
X147761Y122360D01*
X147772Y122349D01*
X147783Y122338D01*
X147805Y122305D01*
X147827Y122261D01*
X150166Y115408D01*
X152439Y122250D01*
Y122261D01*
X152450Y122294D01*
X152472Y122360D01*
X152483Y122371D01*
X152494Y122382D01*
X152559Y122425D01*
X152570Y122436D01*
X152603Y122447D01*
X152658Y122458D01*
X152734Y122469D01*
X152756D01*
X152822Y122480D01*
X153150D01*
X153248Y122469D01*
D02*
G37*
G36*
X125311D02*
X125409Y122458D01*
X125431D01*
X125475Y122447D01*
X125530Y122436D01*
X125562Y122404D01*
X125573Y122393D01*
X125584Y122371D01*
X125595Y122327D01*
Y122272D01*
Y122261D01*
X125584Y122207D01*
X125573Y122141D01*
X125540Y122043D01*
X122884Y114479D01*
Y114468D01*
X122873Y114446D01*
X122819Y114370D01*
X122808Y114359D01*
X122786Y114348D01*
X122742Y114326D01*
X122688Y114304D01*
X122677D01*
X122633Y114294D01*
X122567Y114283D01*
X122491Y114272D01*
X122415D01*
X122316Y114261D01*
X122032D01*
X121944Y114272D01*
X121824D01*
X121770Y114283D01*
X121759D01*
X121726Y114294D01*
X121638Y114304D01*
X121627D01*
X121606Y114315D01*
X121540Y114337D01*
Y114348D01*
X121518Y114359D01*
X121485Y114403D01*
Y114414D01*
X121475Y114425D01*
X121453Y114490D01*
X118786Y122054D01*
Y122065D01*
X118775Y122076D01*
X118764Y122130D01*
X118742Y122207D01*
X118731Y122272D01*
Y122283D01*
X118742Y122327D01*
X118753Y122360D01*
X118786Y122404D01*
X118797Y122415D01*
X118829Y122425D01*
X118884Y122447D01*
X118961Y122458D01*
X118982D01*
X119015Y122469D01*
X119059D01*
X119168Y122480D01*
X119496D01*
X119584Y122469D01*
X119605D01*
X119649Y122458D01*
X119704Y122447D01*
X119747Y122425D01*
X119758D01*
X119780Y122415D01*
X119802Y122393D01*
X119824Y122360D01*
X119835Y122349D01*
X119846Y122338D01*
X119868Y122305D01*
X119890Y122261D01*
X122229Y115408D01*
X124502Y122250D01*
Y122261D01*
X124513Y122294D01*
X124535Y122360D01*
X124546Y122371D01*
X124557Y122382D01*
X124622Y122425D01*
X124633Y122436D01*
X124666Y122447D01*
X124721Y122458D01*
X124797Y122469D01*
X124819D01*
X124885Y122480D01*
X125213D01*
X125311Y122469D01*
D02*
G37*
G36*
X157063Y122556D02*
X157194Y122546D01*
X157347Y122535D01*
X157511Y122502D01*
X157686Y122469D01*
X157850Y122415D01*
X157871Y122404D01*
X157926Y122393D01*
X158002Y122360D01*
X158101Y122305D01*
X158210Y122250D01*
X158330Y122185D01*
X158451Y122098D01*
X158560Y121999D01*
X158571Y121988D01*
X158604Y121955D01*
X158658Y121901D01*
X158724Y121824D01*
X158800Y121726D01*
X158866Y121617D01*
X158942Y121496D01*
X158997Y121365D01*
X159008Y121354D01*
X159019Y121300D01*
X159041Y121223D01*
X159074Y121125D01*
X159096Y121004D01*
X159117Y120873D01*
X159128Y120720D01*
X159139Y120556D01*
Y120535D01*
Y120491D01*
Y120414D01*
X159128Y120327D01*
X159117Y120218D01*
X159096Y120086D01*
X159030Y119835D01*
Y119824D01*
X159008Y119780D01*
X158986Y119715D01*
X158953Y119638D01*
X158910Y119551D01*
X158866Y119452D01*
X158735Y119245D01*
X158724Y119234D01*
X158702Y119201D01*
X158658Y119157D01*
X158604Y119103D01*
X158527Y119026D01*
X158451Y118961D01*
X158254Y118818D01*
X158243Y118807D01*
X158210Y118786D01*
X158145Y118764D01*
X158068Y118720D01*
X157981Y118676D01*
X157871Y118644D01*
X157740Y118600D01*
X157609Y118567D01*
Y118556D01*
X157631D01*
X157675Y118545D01*
X157762Y118534D01*
X157860Y118512D01*
X157981Y118491D01*
X158112Y118447D01*
X158243Y118403D01*
X158374Y118349D01*
X158385Y118338D01*
X158429Y118316D01*
X158494Y118283D01*
X158582Y118239D01*
X158680Y118174D01*
X158779Y118097D01*
X158975Y117922D01*
X158986Y117911D01*
X159019Y117878D01*
X159063Y117824D01*
X159128Y117758D01*
X159194Y117671D01*
X159259Y117572D01*
X159325Y117452D01*
X159380Y117332D01*
X159391Y117321D01*
X159402Y117277D01*
X159423Y117212D01*
X159456Y117124D01*
X159478Y117015D01*
X159500Y116895D01*
X159511Y116764D01*
X159522Y116622D01*
Y116611D01*
Y116600D01*
Y116567D01*
Y116523D01*
X159511Y116414D01*
X159500Y116283D01*
X159478Y116119D01*
X159434Y115955D01*
X159391Y115780D01*
X159325Y115605D01*
X159314Y115583D01*
X159292Y115529D01*
X159249Y115441D01*
X159183Y115343D01*
X159096Y115223D01*
X159008Y115091D01*
X158888Y114960D01*
X158757Y114829D01*
X158746Y114818D01*
X158691Y114774D01*
X158615Y114720D01*
X158505Y114654D01*
X158385Y114567D01*
X158232Y114490D01*
X158057Y114414D01*
X157860Y114337D01*
X157850D01*
X157839Y114326D01*
X157806D01*
X157762Y114315D01*
X157653Y114283D01*
X157511Y114261D01*
X157336Y114228D01*
X157128Y114195D01*
X156899Y114184D01*
X156658Y114173D01*
X156505D01*
X156407Y114184D01*
X156287D01*
X156155Y114206D01*
X155882Y114239D01*
X155871D01*
X155827Y114250D01*
X155762Y114261D01*
X155674Y114283D01*
X155576Y114304D01*
X155467Y114326D01*
X155248Y114392D01*
X155237D01*
X155204Y114403D01*
X155150Y114425D01*
X155084Y114446D01*
X154942Y114512D01*
X154789Y114578D01*
X154778D01*
X154756Y114600D01*
X154691Y114632D01*
X154614Y114676D01*
X154581Y114698D01*
X154560Y114720D01*
X154549Y114731D01*
X154538Y114752D01*
X154494Y114807D01*
Y114818D01*
X154483Y114840D01*
X154472Y114873D01*
X154450Y114917D01*
Y114927D01*
X154439Y114960D01*
X154428Y115004D01*
X154418Y115069D01*
Y115091D01*
Y115135D01*
Y115212D01*
Y115299D01*
Y115310D01*
Y115332D01*
Y115375D01*
X154428Y115419D01*
X154439Y115518D01*
X154450Y115572D01*
X154461Y115605D01*
X154472Y115616D01*
X154494Y115660D01*
X154527Y115692D01*
X154581Y115703D01*
X154592D01*
X154636Y115692D01*
X154702Y115660D01*
X154811Y115594D01*
X154822D01*
X154844Y115572D01*
X154876Y115561D01*
X154931Y115529D01*
X154997Y115496D01*
X155073Y115463D01*
X155248Y115375D01*
X155259D01*
X155292Y115354D01*
X155358Y115332D01*
X155434Y115310D01*
X155521Y115277D01*
X155631Y115244D01*
X155751Y115201D01*
X155882Y115168D01*
X155904D01*
X155948Y115157D01*
X156024Y115135D01*
X156123Y115124D01*
X156232Y115102D01*
X156374Y115080D01*
X156516Y115069D01*
X156756D01*
X156833Y115080D01*
X156931D01*
X157052Y115091D01*
X157172Y115113D01*
X157423Y115168D01*
X157434D01*
X157478Y115190D01*
X157544Y115212D01*
X157620Y115244D01*
X157795Y115343D01*
X157970Y115474D01*
X157981Y115485D01*
X158002Y115507D01*
X158046Y115550D01*
X158090Y115605D01*
X158145Y115671D01*
X158199Y115747D01*
X158298Y115933D01*
X158309Y115944D01*
X158319Y115977D01*
X158341Y116031D01*
X158363Y116108D01*
X158385Y116195D01*
X158396Y116294D01*
X158418Y116403D01*
Y116523D01*
Y116534D01*
Y116578D01*
X158407Y116643D01*
X158396Y116731D01*
X158385Y116818D01*
X158363Y116928D01*
X158319Y117026D01*
X158276Y117135D01*
X158265Y117146D01*
X158254Y117179D01*
X158221Y117234D01*
X158167Y117299D01*
X158112Y117376D01*
X158046Y117463D01*
X157959Y117540D01*
X157860Y117616D01*
X157850Y117627D01*
X157817Y117649D01*
X157751Y117693D01*
X157675Y117736D01*
X157576Y117780D01*
X157467Y117835D01*
X157336Y117889D01*
X157194Y117933D01*
X157172D01*
X157128Y117955D01*
X157041Y117966D01*
X156931Y117988D01*
X156800Y118010D01*
X156647Y118021D01*
X156483Y118043D01*
X155467D01*
X155390Y118064D01*
X155379D01*
X155368Y118086D01*
X155314Y118130D01*
Y118141D01*
X155292Y118163D01*
X155281Y118206D01*
X155259Y118261D01*
Y118272D01*
X155248Y118327D01*
X155237Y118392D01*
Y118480D01*
Y118491D01*
Y118501D01*
Y118545D01*
Y118611D01*
X155248Y118676D01*
Y118687D01*
X155259Y118720D01*
X155281Y118764D01*
X155303Y118797D01*
X155314Y118807D01*
X155325Y118818D01*
X155379Y118862D01*
X155390Y118873D01*
X155412Y118884D01*
X155445Y118895D01*
X156265D01*
X156352Y118906D01*
X156450D01*
X156560Y118917D01*
X156691Y118939D01*
X156942Y118993D01*
X156953D01*
X156997Y119015D01*
X157063Y119037D01*
X157139Y119070D01*
X157314Y119168D01*
X157500Y119299D01*
X157511Y119310D01*
X157533Y119332D01*
X157576Y119376D01*
X157631Y119441D01*
X157686Y119507D01*
X157740Y119595D01*
X157850Y119780D01*
X157860Y119791D01*
X157871Y119835D01*
X157893Y119890D01*
X157915Y119966D01*
X157937Y120064D01*
X157959Y120163D01*
X157981Y120283D01*
Y120414D01*
Y120425D01*
Y120458D01*
Y120502D01*
X157970Y120567D01*
X157948Y120720D01*
X157893Y120895D01*
Y120906D01*
X157882Y120939D01*
X157860Y120983D01*
X157839Y121037D01*
X157762Y121168D01*
X157653Y121300D01*
X157642Y121310D01*
X157620Y121332D01*
X157587Y121365D01*
X157544Y121398D01*
X157478Y121442D01*
X157401Y121485D01*
X157227Y121573D01*
X157216D01*
X157183Y121584D01*
X157128Y121606D01*
X157063Y121627D01*
X156975Y121638D01*
X156877Y121660D01*
X156767Y121671D01*
X156582D01*
X156516Y121660D01*
X156429D01*
X156319Y121638D01*
X156210Y121617D01*
X156090Y121595D01*
X155970Y121551D01*
X155959D01*
X155915Y121529D01*
X155860Y121507D01*
X155795Y121485D01*
X155707Y121453D01*
X155620Y121409D01*
X155434Y121321D01*
X155423D01*
X155390Y121300D01*
X155347Y121278D01*
X155292Y121245D01*
X155161Y121179D01*
X155030Y121092D01*
X155019D01*
X155008Y121070D01*
X154942Y121037D01*
X154876Y121004D01*
X154822Y120983D01*
X154800D01*
X154735Y120994D01*
X154713Y121004D01*
X154702Y121026D01*
X154680Y121048D01*
Y121059D01*
X154669Y121092D01*
X154658Y121136D01*
X154647Y121190D01*
Y121201D01*
Y121256D01*
Y121321D01*
Y121409D01*
Y121431D01*
Y121464D01*
Y121518D01*
Y121573D01*
Y121584D01*
X154658Y121617D01*
X154669Y121704D01*
Y121715D01*
X154680Y121737D01*
X154713Y121802D01*
X154724Y121813D01*
X154735Y121835D01*
X154800Y121901D01*
X154811Y121912D01*
X154855Y121944D01*
X154931Y121999D01*
X155041Y122076D01*
X155051Y122087D01*
X155073Y122098D01*
X155117Y122119D01*
X155172Y122152D01*
X155237Y122185D01*
X155314Y122229D01*
X155489Y122305D01*
X155500D01*
X155532Y122327D01*
X155598Y122349D01*
X155674Y122371D01*
X155762Y122404D01*
X155871Y122425D01*
X155981Y122458D01*
X156112Y122491D01*
X156123D01*
X156177Y122502D01*
X156243Y122513D01*
X156341Y122535D01*
X156450Y122546D01*
X156571Y122556D01*
X156713Y122567D01*
X156953D01*
X157063Y122556D01*
D02*
G37*
G36*
X167359Y122491D02*
X167435Y122480D01*
X167457D01*
X167501Y122469D01*
X167555Y122458D01*
X167599Y122447D01*
X167610D01*
X167632Y122436D01*
X167654Y122415D01*
X167676Y122393D01*
X167686Y122371D01*
X167697Y122316D01*
Y115168D01*
X169206D01*
X169228Y115157D01*
X169260Y115135D01*
X169271Y115124D01*
X169282Y115113D01*
X169337Y115048D01*
X169348Y115037D01*
X169359Y115015D01*
X169370Y114960D01*
X169381Y114906D01*
Y114895D01*
X169392Y114851D01*
X169403Y114796D01*
Y114720D01*
Y114698D01*
Y114654D01*
X169392Y114578D01*
X169381Y114512D01*
Y114501D01*
X169370Y114468D01*
X169326Y114381D01*
Y114370D01*
X169304Y114359D01*
X169249Y114315D01*
X169228Y114304D01*
X169173Y114294D01*
X164888D01*
X164823Y114315D01*
X164801Y114337D01*
X164757Y114381D01*
Y114392D01*
X164735Y114414D01*
X164725Y114457D01*
X164703Y114512D01*
Y114523D01*
Y114567D01*
X164692Y114632D01*
Y114720D01*
Y114742D01*
Y114785D01*
Y114840D01*
X164703Y114906D01*
Y114917D01*
X164714Y114960D01*
X164735Y115004D01*
X164746Y115048D01*
X164757Y115059D01*
X164768Y115080D01*
X164823Y115135D01*
X164834Y115146D01*
X164856Y115157D01*
X164877Y115168D01*
X166615D01*
Y121365D01*
X165041Y120425D01*
X165020Y120414D01*
X164976Y120392D01*
X164910Y120360D01*
X164845Y120338D01*
X164801D01*
X164757Y120349D01*
X164725Y120370D01*
X164714Y120381D01*
X164703Y120403D01*
X164681Y120447D01*
X164670Y120502D01*
Y120524D01*
Y120567D01*
X164659Y120644D01*
Y120742D01*
Y120764D01*
Y120808D01*
Y120862D01*
Y120928D01*
Y120939D01*
X164670Y120972D01*
X164681Y121015D01*
X164692Y121048D01*
Y121059D01*
X164703Y121081D01*
X164746Y121136D01*
X164757Y121147D01*
X164768Y121168D01*
X164834Y121223D01*
X166714Y122425D01*
X166725Y122436D01*
X166768Y122447D01*
X166779D01*
X166801Y122458D01*
X166867Y122480D01*
X166878D01*
X166900Y122491D01*
X167009D01*
X167053Y122502D01*
X167271D01*
X167359Y122491D01*
D02*
G37*
G36*
X114884Y122469D02*
X114960Y122458D01*
X114982D01*
X115026Y122447D01*
X115080Y122436D01*
X115135Y122425D01*
X115146D01*
X115168Y122415D01*
X115201Y122393D01*
X115223Y122360D01*
X115233Y122349D01*
X115244Y122338D01*
X115255Y122305D01*
Y122272D01*
Y115233D01*
X118206D01*
X118239Y115223D01*
X118272Y115201D01*
X118283Y115190D01*
X118294Y115179D01*
X118338Y115113D01*
X118349Y115102D01*
X118359Y115080D01*
X118370Y115037D01*
X118381Y114971D01*
Y114960D01*
X118392Y114917D01*
X118403Y114851D01*
Y114763D01*
Y114742D01*
Y114687D01*
X118392Y114621D01*
X118381Y114545D01*
Y114534D01*
X118370Y114501D01*
X118359Y114457D01*
X118338Y114403D01*
Y114392D01*
X118327Y114370D01*
X118272Y114315D01*
X118261D01*
X118250Y114304D01*
X118217Y114294D01*
X114545D01*
X114479Y114304D01*
X114392Y114326D01*
X114294Y114381D01*
X114272Y114403D01*
X114261Y114425D01*
X114239Y114457D01*
X114217Y114512D01*
X114195Y114567D01*
X114184Y114643D01*
X114173Y114731D01*
Y122272D01*
Y122283D01*
Y122305D01*
X114195Y122360D01*
Y122371D01*
X114217Y122382D01*
X114239Y122404D01*
X114283Y122425D01*
X114294D01*
X114326Y122436D01*
X114381Y122447D01*
X114446Y122458D01*
X114468D01*
X114523Y122469D01*
X114600Y122480D01*
X114796D01*
X114884Y122469D01*
D02*
G37*
G36*
X129322Y122436D02*
X129410D01*
X129585Y122415D01*
X129628D01*
X129683Y122404D01*
X129748Y122393D01*
X129836Y122382D01*
X129934Y122360D01*
X130044Y122338D01*
X130164Y122316D01*
X130175D01*
X130219Y122305D01*
X130284Y122283D01*
X130371Y122261D01*
X130470Y122229D01*
X130579Y122174D01*
X130710Y122119D01*
X130831Y122054D01*
X130842Y122043D01*
X130885Y122021D01*
X130951Y121977D01*
X131038Y121923D01*
X131126Y121846D01*
X131224Y121759D01*
X131322Y121671D01*
X131421Y121562D01*
X131432Y121551D01*
X131465Y121507D01*
X131508Y121453D01*
X131563Y121376D01*
X131617Y121278D01*
X131683Y121158D01*
X131738Y121037D01*
X131792Y120895D01*
X131803Y120873D01*
X131814Y120830D01*
X131836Y120753D01*
X131858Y120644D01*
X131880Y120524D01*
X131902Y120381D01*
X131924Y120218D01*
Y120054D01*
Y120043D01*
Y120032D01*
Y119999D01*
Y119955D01*
X131913Y119835D01*
X131902Y119682D01*
X131869Y119518D01*
X131836Y119332D01*
X131781Y119135D01*
X131716Y118950D01*
X131705Y118928D01*
X131683Y118873D01*
X131628Y118775D01*
X131574Y118666D01*
X131486Y118523D01*
X131388Y118392D01*
X131268Y118250D01*
X131137Y118108D01*
X131115Y118097D01*
X131071Y118053D01*
X130994Y117988D01*
X130885Y117911D01*
X130754Y117835D01*
X130590Y117747D01*
X130415Y117660D01*
X130219Y117583D01*
X130208D01*
X130197Y117572D01*
X130164Y117561D01*
X130120Y117551D01*
X130011Y117529D01*
X129847Y117496D01*
X129661Y117452D01*
X129442Y117430D01*
X129191Y117409D01*
X128918Y117398D01*
X128000D01*
Y114457D01*
Y114446D01*
Y114425D01*
X127989Y114392D01*
X127967Y114359D01*
X127956D01*
X127945Y114337D01*
X127912Y114326D01*
X127868Y114304D01*
X127858D01*
X127825Y114294D01*
X127781D01*
X127705Y114283D01*
X127683D01*
X127639Y114272D01*
X127562Y114261D01*
X127366D01*
X127278Y114272D01*
X127191Y114283D01*
X127180D01*
X127136Y114294D01*
X127082D01*
X127027Y114304D01*
X127016D01*
X126994Y114315D01*
X126961Y114337D01*
X126939Y114359D01*
Y114370D01*
X126928Y114392D01*
X126918Y114457D01*
Y121977D01*
Y121988D01*
Y122021D01*
X126928Y122065D01*
X126939Y122119D01*
X126972Y122240D01*
X127005Y122294D01*
X127049Y122338D01*
X127060D01*
X127071Y122360D01*
X127136Y122393D01*
X127224Y122425D01*
X127344Y122447D01*
X129246D01*
X129322Y122436D01*
D02*
G37*
G36*
X162068Y115692D02*
X162145Y115682D01*
X162320Y115638D01*
X162396Y115605D01*
X162462Y115550D01*
X162473Y115540D01*
X162484Y115518D01*
X162506Y115485D01*
X162539Y115430D01*
X162560Y115343D01*
X162582Y115244D01*
X162593Y115124D01*
X162604Y114971D01*
Y114949D01*
Y114906D01*
X162593Y114829D01*
X162582Y114731D01*
X162539Y114534D01*
X162506Y114446D01*
X162451Y114381D01*
X162440Y114370D01*
X162418Y114359D01*
X162385Y114337D01*
X162331Y114315D01*
X162265Y114283D01*
X162167Y114261D01*
X162058Y114250D01*
X161926Y114239D01*
X161861D01*
X161795Y114250D01*
X161719Y114261D01*
X161544Y114304D01*
X161467Y114337D01*
X161402Y114381D01*
X161391Y114392D01*
X161380Y114414D01*
X161358Y114446D01*
X161336Y114512D01*
X161303Y114589D01*
X161282Y114687D01*
X161271Y114807D01*
X161260Y114960D01*
Y114982D01*
Y115037D01*
X161271Y115102D01*
X161282Y115201D01*
X161325Y115397D01*
X161358Y115485D01*
X161402Y115550D01*
X161413Y115561D01*
X161434Y115572D01*
X161467Y115594D01*
X161522Y115627D01*
X161599Y115660D01*
X161697Y115682D01*
X161806Y115692D01*
X161937Y115703D01*
X162003D01*
X162068Y115692D01*
D02*
G37*
%LPC*%
G36*
X128994Y121551D02*
X128000D01*
Y118283D01*
X129060D01*
X129147Y118294D01*
X129257D01*
X129388Y118316D01*
X129519Y118338D01*
X129661Y118359D01*
X129781Y118403D01*
X129792Y118414D01*
X129836Y118425D01*
X129902Y118458D01*
X129978Y118501D01*
X130153Y118611D01*
X130328Y118753D01*
X130339Y118764D01*
X130361Y118797D01*
X130404Y118840D01*
X130459Y118906D01*
X130514Y118982D01*
X130568Y119070D01*
X130623Y119168D01*
X130667Y119278D01*
X130677Y119289D01*
X130689Y119332D01*
X130710Y119398D01*
X130732Y119485D01*
X130754Y119584D01*
X130765Y119704D01*
X130787Y119835D01*
Y119966D01*
Y119977D01*
Y119988D01*
Y120054D01*
X130776Y120141D01*
X130765Y120250D01*
X130743Y120381D01*
X130699Y120524D01*
X130656Y120655D01*
X130590Y120786D01*
X130579Y120797D01*
X130557Y120841D01*
X130514Y120906D01*
X130459Y120972D01*
X130393Y121059D01*
X130317Y121147D01*
X130229Y121223D01*
X130131Y121289D01*
X130120Y121300D01*
X130087Y121310D01*
X130033Y121343D01*
X129956Y121376D01*
X129869Y121409D01*
X129781Y121442D01*
X129672Y121475D01*
X129563Y121496D01*
X129552D01*
X129519Y121507D01*
X129453Y121518D01*
X129388Y121529D01*
X129300D01*
X129202Y121540D01*
X128994Y121551D01*
D02*
G37*
%LPD*%
D43*
X306102Y213276D02*
D03*
Y192236D02*
D03*
Y23928D02*
D03*
Y44969D02*
D03*
D47*
X116457Y53150D02*
D03*
Y183465D02*
D03*
D48*
X203366Y33169D02*
D03*
Y73150D02*
D03*
Y163484D02*
D03*
Y203465D02*
D03*
D49*
X68110Y48819D02*
D03*
X73622D02*
D03*
X350197Y132874D02*
D03*
X344685D02*
D03*
X323622Y106299D02*
D03*
X318110D02*
D03*
X323622Y129921D02*
D03*
X318110D02*
D03*
X350197Y103347D02*
D03*
X344685D02*
D03*
X85827Y48819D02*
D03*
X91339D02*
D03*
D50*
X270079Y196457D02*
D03*
X267520D02*
D03*
X264961D02*
D03*
X267323Y20472D02*
D03*
X264764D02*
D03*
X262205D02*
D03*
X270079Y215158D02*
D03*
X267520D02*
D03*
X264961D02*
D03*
X262184Y39209D02*
D03*
X264743D02*
D03*
X267302D02*
D03*
D51*
X262402Y195472D02*
D03*
X269882Y21457D02*
D03*
X262402Y214173D02*
D03*
X269861Y40193D02*
D03*
D52*
X262402Y183661D02*
D03*
X264961D02*
D03*
X267520D02*
D03*
X270079D02*
D03*
X262205Y33268D02*
D03*
X264764D02*
D03*
X267323D02*
D03*
X269882D02*
D03*
X262402Y202362D02*
D03*
X264961D02*
D03*
X267520D02*
D03*
X270079D02*
D03*
X269861Y52004D02*
D03*
X267302D02*
D03*
X264743D02*
D03*
X262184D02*
D03*
D53*
X266240Y188602D02*
D03*
X266043Y28327D02*
D03*
X266240Y207303D02*
D03*
X266022Y47063D02*
D03*
D54*
X267520Y194488D02*
D03*
X264764Y22441D02*
D03*
X267520Y213189D02*
D03*
X264743Y41177D02*
D03*
D55*
X380315Y140945D02*
D03*
Y151969D02*
D03*
X364173D02*
D03*
Y140945D02*
D03*
D56*
X60551Y200787D02*
D03*
X75413Y208632D02*
D03*
X76398Y104232D02*
D03*
X61535Y96457D02*
D03*
D57*
X82571Y209429D02*
D03*
Y206870D02*
D03*
Y204311D02*
D03*
Y201752D02*
D03*
X99988D02*
D03*
Y204311D02*
D03*
Y206870D02*
D03*
Y209429D02*
D03*
X100697Y105512D02*
D03*
Y102953D02*
D03*
Y100394D02*
D03*
Y97835D02*
D03*
X83280D02*
D03*
Y100394D02*
D03*
Y102953D02*
D03*
Y105512D02*
D03*
D58*
X86949Y189646D02*
D03*
Y195945D02*
D03*
X97047Y196063D02*
D03*
Y189764D02*
D03*
X350394Y138583D02*
D03*
Y144882D02*
D03*
X350394Y91339D02*
D03*
Y97638D02*
D03*
X87008Y92716D02*
D03*
Y86417D02*
D03*
X96850D02*
D03*
Y92716D02*
D03*
D59*
X91870Y195551D02*
D03*
Y190039D02*
D03*
X101969Y195669D02*
D03*
Y190157D02*
D03*
X363189Y105315D02*
D03*
Y99803D02*
D03*
X332677Y144488D02*
D03*
Y138976D02*
D03*
X338583Y144488D02*
D03*
Y138976D02*
D03*
X317913Y112402D02*
D03*
Y117913D02*
D03*
X320866Y97244D02*
D03*
Y91732D02*
D03*
X338583D02*
D03*
Y97244D02*
D03*
X357283Y115354D02*
D03*
Y120866D02*
D03*
X332677Y91732D02*
D03*
Y97244D02*
D03*
X320866Y138976D02*
D03*
Y144488D02*
D03*
X61024Y4134D02*
D03*
Y9646D02*
D03*
X98425D02*
D03*
Y4134D02*
D03*
X91929Y86811D02*
D03*
Y92323D02*
D03*
X101772Y86811D02*
D03*
Y92323D02*
D03*
D60*
X85216Y222323D02*
D03*
X97342D02*
D03*
X98051Y118405D02*
D03*
X85925D02*
D03*
D61*
X375886Y92764D02*
D03*
X373327D02*
D03*
X370768D02*
D03*
X368209D02*
D03*
Y115898D02*
D03*
X370768D02*
D03*
X373327D02*
D03*
X375886D02*
D03*
D62*
X363189Y130905D02*
D03*
Y125000D02*
D03*
X356299Y138779D02*
D03*
Y144685D02*
D03*
X344488Y138779D02*
D03*
Y144685D02*
D03*
X357283Y130905D02*
D03*
Y125000D02*
D03*
X326772Y91535D02*
D03*
Y97441D02*
D03*
X344488Y91535D02*
D03*
Y97441D02*
D03*
X357283Y105315D02*
D03*
Y111221D02*
D03*
X356299Y97441D02*
D03*
Y91535D02*
D03*
X326772Y144685D02*
D03*
Y138779D02*
D03*
D63*
X372047Y131890D02*
D03*
X375787Y123622D02*
D03*
X368307D02*
D03*
D64*
X338583Y118110D02*
D03*
D65*
X345472Y108465D02*
D03*
X331693D02*
D03*
Y127756D02*
D03*
X345472D02*
D03*
D66*
X343504Y108465D02*
D03*
X341535D02*
D03*
X339567D02*
D03*
X337598D02*
D03*
X335630D02*
D03*
X333661D02*
D03*
Y127756D02*
D03*
X335630D02*
D03*
X337598D02*
D03*
X339567D02*
D03*
X341535D02*
D03*
X343504D02*
D03*
D67*
X328937Y111221D02*
D03*
Y125000D02*
D03*
X348228D02*
D03*
Y111221D02*
D03*
D68*
X328937Y113189D02*
D03*
Y115157D02*
D03*
Y117126D02*
D03*
Y119095D02*
D03*
Y121063D02*
D03*
Y123031D02*
D03*
X348228D02*
D03*
Y121063D02*
D03*
Y119095D02*
D03*
Y117126D02*
D03*
Y115157D02*
D03*
Y113189D02*
D03*
D69*
X310039Y112520D02*
D03*
Y123701D02*
D03*
D70*
X381890Y86614D02*
D03*
X375984D02*
D03*
X365158D02*
D03*
X371063D02*
D03*
D71*
X90354Y21543D02*
D03*
Y19047D02*
D03*
Y16543D02*
D03*
Y14047D02*
D03*
Y11543D02*
D03*
Y9047D02*
D03*
Y6543D02*
D03*
Y4047D02*
D03*
X69095D02*
D03*
Y6543D02*
D03*
Y9047D02*
D03*
Y11543D02*
D03*
Y14047D02*
D03*
Y16543D02*
D03*
Y19047D02*
D03*
Y21543D02*
D03*
D72*
X284842Y190748D02*
D03*
Y213189D02*
D03*
X284625Y23067D02*
D03*
Y45508D02*
D03*
D73*
X228543Y50098D02*
D03*
Y72539D02*
D03*
X228346Y163976D02*
D03*
Y186417D02*
D03*
D74*
X69047Y42933D02*
D03*
Y37933D02*
D03*
Y32933D02*
D03*
Y27933D02*
D03*
X90402D02*
D03*
Y32933D02*
D03*
Y37933D02*
D03*
Y42933D02*
D03*
D75*
X362205Y169291D02*
D03*
X381890D02*
D03*
D76*
X51181Y137894D02*
D03*
X41339D02*
D03*
X31496D02*
D03*
X21654D02*
D03*
X11811D02*
D03*
X51181Y126083D02*
D03*
X41339D02*
D03*
X31496D02*
D03*
X21654D02*
D03*
X11811D02*
D03*
X31496Y202854D02*
D03*
X21654D02*
D03*
X11811D02*
D03*
X21654Y191043D02*
D03*
X11811D02*
D03*
X21654Y181201D02*
D03*
X11811D02*
D03*
X21654Y169390D02*
D03*
X11811D02*
D03*
X21654Y159547D02*
D03*
X11811D02*
D03*
X21654Y147736D02*
D03*
X11811D02*
D03*
X51181Y169390D02*
D03*
Y202854D02*
D03*
X41339D02*
D03*
X51181Y191043D02*
D03*
X41339D02*
D03*
X51181Y181201D02*
D03*
X41339D02*
D03*
Y169390D02*
D03*
X51181Y159547D02*
D03*
X41339D02*
D03*
X51181Y147736D02*
D03*
X41339D02*
D03*
X31496D02*
D03*
Y191043D02*
D03*
Y181201D02*
D03*
Y169390D02*
D03*
Y159547D02*
D03*
X37716Y105728D02*
D03*
X17717Y85728D02*
D03*
X27716Y105728D02*
D03*
X17717Y75728D02*
D03*
X27716D02*
D03*
X37716Y95728D02*
D03*
X27716Y85728D02*
D03*
X17717Y95728D02*
D03*
X27716D02*
D03*
X17717Y105728D02*
D03*
Y55728D02*
D03*
X27716Y35728D02*
D03*
X17717D02*
D03*
X27716Y45728D02*
D03*
X17717D02*
D03*
X27716Y55728D02*
D03*
Y65728D02*
D03*
X17717D02*
D03*
X37716Y85728D02*
D03*
Y75728D02*
D03*
Y65728D02*
D03*
Y55728D02*
D03*
Y45728D02*
D03*
Y35728D02*
D03*
D77*
X31496Y12808D02*
D03*
Y224508D02*
D03*
D78*
X276575Y128937D02*
D03*
Y107283D02*
D03*
X235236D02*
D03*
Y128937D02*
D03*
X77756Y162402D02*
D03*
D79*
X276575Y148622D02*
D03*
Y87598D02*
D03*
X235236D02*
D03*
Y148622D02*
D03*
X77756Y142717D02*
D03*
D80*
X342520Y82677D02*
D03*
X333071Y101181D02*
D03*
X328740Y104724D02*
D03*
X323686Y111827D02*
D03*
X372047Y125236D02*
D03*
X353150Y125189D02*
D03*
X353051Y121268D02*
D03*
X352859Y116921D02*
D03*
X94488Y32933D02*
D03*
X102772Y25814D02*
D03*
Y21772D02*
D03*
X274803Y10433D02*
D03*
X303150Y11811D02*
D03*
X212598D02*
D03*
X149606D02*
D03*
X263780Y10433D02*
D03*
X228346Y11811D02*
D03*
X280315Y10433D02*
D03*
X318898Y11811D02*
D03*
X165354D02*
D03*
X181102D02*
D03*
X252756Y10433D02*
D03*
X125984Y11811D02*
D03*
X188976D02*
D03*
X241732Y10433D02*
D03*
X295276Y11811D02*
D03*
X204724D02*
D03*
X326772Y11811D02*
D03*
X141732Y11811D02*
D03*
X196850D02*
D03*
X247244Y10433D02*
D03*
X133858Y11811D02*
D03*
X269291Y10433D02*
D03*
X285827Y10433D02*
D03*
X311024Y11811D02*
D03*
X220472D02*
D03*
X157480D02*
D03*
X258268Y10433D02*
D03*
X173228Y11811D02*
D03*
X102362Y53150D02*
D03*
Y45276D02*
D03*
Y61024D02*
D03*
X330709Y82677D02*
D03*
X346457D02*
D03*
X322835Y153543D02*
D03*
X326772D02*
D03*
X349699Y134257D02*
D03*
X345276Y134252D02*
D03*
X41339Y29528D02*
D03*
X62992Y27559D02*
D03*
X59055Y31496D02*
D03*
X55118Y35433D02*
D03*
Y43307D02*
D03*
Y51181D02*
D03*
X51181Y55118D02*
D03*
X366142Y59055D02*
D03*
Y51181D02*
D03*
X111843Y21291D02*
D03*
X334646Y19685D02*
D03*
X330709Y15748D02*
D03*
X94488Y55118D02*
D03*
X90551Y59055D02*
D03*
X82677D02*
D03*
X74803D02*
D03*
X66929D02*
D03*
X45276Y25591D02*
D03*
X53150Y17717D02*
D03*
X49213Y21654D02*
D03*
X102756Y13780D02*
D03*
X94488Y37933D02*
D03*
X70472Y24409D02*
D03*
X55935Y13882D02*
D03*
X321260Y101969D02*
D03*
X260630Y195669D02*
D03*
X257480Y200803D02*
D03*
X251969Y200787D02*
D03*
X265748Y188976D02*
D03*
X320472Y134646D02*
D03*
X268504Y190551D02*
D03*
X265748Y208661D02*
D03*
Y199213D02*
D03*
X262992Y200787D02*
D03*
X257480Y210236D02*
D03*
X260236Y208661D02*
D03*
X251969Y210236D02*
D03*
X254724Y202362D02*
D03*
X260236D02*
D03*
X257480Y203937D02*
D03*
X300394Y146850D02*
D03*
X343110Y116339D02*
D03*
X343110Y112795D02*
D03*
X343110Y123425D02*
D03*
X333957Y118110D02*
D03*
X343110Y119882D02*
D03*
X340059Y114567D02*
D03*
X333957Y121653D02*
D03*
X333957Y114567D02*
D03*
X340059Y118110D02*
D03*
X337008Y116339D02*
D03*
X337008Y123425D02*
D03*
X340059Y121653D02*
D03*
X337008Y112795D02*
D03*
X337008Y119882D02*
D03*
X353051Y113287D02*
D03*
X362205Y137795D02*
D03*
X104331Y232283D02*
D03*
X244488Y15157D02*
D03*
X241732Y13583D02*
D03*
X238976Y15157D02*
D03*
X236221Y13583D02*
D03*
X235827Y40157D02*
D03*
X97823Y109875D02*
D03*
X95854Y113812D02*
D03*
X93886Y117749D02*
D03*
X97823D02*
D03*
X95854Y121686D02*
D03*
X91917D02*
D03*
Y113812D02*
D03*
X93886Y109875D02*
D03*
X385827Y59055D02*
D03*
Y43307D02*
D03*
X350394Y5906D02*
D03*
X354331Y153543D02*
D03*
X358268Y82677D02*
D03*
X350394Y153543D02*
D03*
X346457D02*
D03*
X354331Y82677D02*
D03*
X350394D02*
D03*
X311024Y90551D02*
D03*
X314961Y86614D02*
D03*
X318898Y82677D02*
D03*
X322835D02*
D03*
X311024Y141732D02*
D03*
Y145669D02*
D03*
X314961Y149606D02*
D03*
X318898Y153543D02*
D03*
X342520D02*
D03*
X326772Y82677D02*
D03*
X357283Y113228D02*
D03*
X300394Y118110D02*
D03*
Y137795D02*
D03*
Y89370D02*
D03*
Y128740D02*
D03*
Y107480D02*
D03*
Y98425D02*
D03*
X356299Y11811D02*
D03*
X379921Y35433D02*
D03*
X47244Y59055D02*
D03*
X68110Y226378D02*
D03*
X73622Y220079D02*
D03*
Y226378D02*
D03*
X70866Y218504D02*
D03*
Y221654D02*
D03*
Y227953D02*
D03*
X68110Y220079D02*
D03*
X65354Y218504D02*
D03*
X73622Y216929D02*
D03*
X68110Y223228D02*
D03*
Y216929D02*
D03*
X65354Y227953D02*
D03*
X62599Y223228D02*
D03*
X65354Y221654D02*
D03*
X70866Y224803D02*
D03*
X65354D02*
D03*
X73622Y223228D02*
D03*
X62599Y216929D02*
D03*
Y220079D02*
D03*
Y226378D02*
D03*
X73622Y189764D02*
D03*
X70866Y181890D02*
D03*
X62598Y186614D02*
D03*
X65354Y181890D02*
D03*
X68110Y189764D02*
D03*
X65354Y188189D02*
D03*
X70866Y191339D02*
D03*
X65354Y185039D02*
D03*
X68110Y192913D02*
D03*
Y186614D02*
D03*
Y183465D02*
D03*
X62598D02*
D03*
X70866Y185039D02*
D03*
Y188189D02*
D03*
X73622Y186614D02*
D03*
Y183465D02*
D03*
X62598Y189764D02*
D03*
X65354Y191339D02*
D03*
X62598Y192913D02*
D03*
X73622D02*
D03*
X71653Y112205D02*
D03*
X74409Y113779D02*
D03*
Y116929D02*
D03*
Y120079D02*
D03*
Y123228D02*
D03*
X63382Y123350D02*
D03*
Y120201D02*
D03*
Y113902D02*
D03*
Y117051D02*
D03*
X66142Y112205D02*
D03*
Y115354D02*
D03*
X71653D02*
D03*
X68898Y113779D02*
D03*
X63386Y87008D02*
D03*
X74409D02*
D03*
X69035Y86713D02*
D03*
X71653Y88583D02*
D03*
Y85433D02*
D03*
X66142Y88583D02*
D03*
Y85433D02*
D03*
X63386Y83858D02*
D03*
Y80709D02*
D03*
Y77559D02*
D03*
X74409D02*
D03*
Y83858D02*
D03*
Y80709D02*
D03*
X68898Y123228D02*
D03*
X71653Y121653D02*
D03*
X66142D02*
D03*
X68898Y120079D02*
D03*
X71653Y118504D02*
D03*
X66142D02*
D03*
X68898Y116929D02*
D03*
Y83858D02*
D03*
X71653Y82284D02*
D03*
X66142D02*
D03*
X68898Y80709D02*
D03*
X71653Y79134D02*
D03*
X66142D02*
D03*
X68898Y77559D02*
D03*
X385827Y51181D02*
D03*
X369685Y100394D02*
D03*
X287795Y220473D02*
D03*
X287795Y217323D02*
D03*
X287795Y214173D02*
D03*
X285039Y222047D02*
D03*
X285039Y218898D02*
D03*
X285039Y215748D02*
D03*
X282283Y214173D02*
D03*
X282283Y223622D02*
D03*
X282283Y220473D02*
D03*
X282283Y217323D02*
D03*
X279528Y215748D02*
D03*
X276772Y214173D02*
D03*
X274016Y215748D02*
D03*
X283071Y39567D02*
D03*
X285827Y37992D02*
D03*
Y34843D02*
D03*
Y31693D02*
D03*
X247244Y34843D02*
D03*
Y31693D02*
D03*
Y28543D02*
D03*
X250000Y26969D02*
D03*
X291339Y16732D02*
D03*
X285750Y23092D02*
D03*
X288583Y21457D02*
D03*
X288583Y18307D02*
D03*
X280315Y23031D02*
D03*
X277559Y21457D02*
D03*
X285827Y19882D02*
D03*
X283071Y21457D02*
D03*
X288583Y15157D02*
D03*
X288583Y12008D02*
D03*
X285827Y13583D02*
D03*
X283071Y12008D02*
D03*
X285827Y16732D02*
D03*
X283071Y18307D02*
D03*
X280315Y19882D02*
D03*
X277559Y18307D02*
D03*
X238976Y12008D02*
D03*
X244488Y12008D02*
D03*
X250000Y12008D02*
D03*
X255512Y12008D02*
D03*
X261024D02*
D03*
X266535Y12008D02*
D03*
X272047Y12008D02*
D03*
X277559Y12008D02*
D03*
X280315Y13583D02*
D03*
X274803Y13583D02*
D03*
X269291Y13583D02*
D03*
X263779Y13583D02*
D03*
X258268D02*
D03*
X252756Y13583D02*
D03*
X247244Y13583D02*
D03*
X110762Y2716D02*
D03*
X283071Y15157D02*
D03*
X280315Y16732D02*
D03*
X277559Y15157D02*
D03*
X274803Y16732D02*
D03*
X272047Y15157D02*
D03*
X269291Y16732D02*
D03*
X250000Y15157D02*
D03*
X255512Y30118D02*
D03*
X266535Y21457D02*
D03*
X274803Y28543D02*
D03*
X272047Y46654D02*
D03*
X277559D02*
D03*
X283071Y56102D02*
D03*
X249213Y179528D02*
D03*
X277559Y39567D02*
D03*
X283071Y36417D02*
D03*
X280315Y37992D02*
D03*
X277559Y36417D02*
D03*
X261024Y18307D02*
D03*
Y21457D02*
D03*
X263779Y19882D02*
D03*
X266535Y18307D02*
D03*
X263779Y16732D02*
D03*
X266535Y15157D02*
D03*
X261024D02*
D03*
X258268Y16732D02*
D03*
X255512Y15157D02*
D03*
X252756Y16732D02*
D03*
X261024Y30118D02*
D03*
X258268Y31693D02*
D03*
X255512Y33268D02*
D03*
X252756Y34843D02*
D03*
X263779Y28543D02*
D03*
X269291D02*
D03*
X266535Y30118D02*
D03*
X263779Y31693D02*
D03*
X261024Y33268D02*
D03*
X258268Y34843D02*
D03*
X255512Y36417D02*
D03*
X272047Y30118D02*
D03*
X269291Y31693D02*
D03*
X266535Y33268D02*
D03*
X263779Y34843D02*
D03*
X261024Y36417D02*
D03*
X272047Y33268D02*
D03*
X269291Y34843D02*
D03*
X266535Y36417D02*
D03*
X263779Y37992D02*
D03*
X258268Y28543D02*
D03*
X252756D02*
D03*
Y31693D02*
D03*
X250000Y33268D02*
D03*
Y30118D02*
D03*
X274803Y34843D02*
D03*
Y31693D02*
D03*
X277559Y30118D02*
D03*
Y33268D02*
D03*
X280315Y28543D02*
D03*
Y31693D02*
D03*
Y34843D02*
D03*
X283071Y30118D02*
D03*
Y33268D02*
D03*
X263779Y51378D02*
D03*
X266535Y49803D02*
D03*
X261024D02*
D03*
X263779Y48228D02*
D03*
X261024Y39961D02*
D03*
X272047Y52953D02*
D03*
X274803Y51378D02*
D03*
X269291D02*
D03*
X272047Y49803D02*
D03*
X274803Y48228D02*
D03*
X269291D02*
D03*
X258268D02*
D03*
X266535Y52953D02*
D03*
X269291Y54527D02*
D03*
X272047Y56102D02*
D03*
X274803Y54527D02*
D03*
X266535Y56102D02*
D03*
X263779Y54527D02*
D03*
X261024Y52953D02*
D03*
X258268Y51378D02*
D03*
Y54527D02*
D03*
X261024Y56102D02*
D03*
X277559Y49803D02*
D03*
Y52953D02*
D03*
X280315Y51378D02*
D03*
Y48228D02*
D03*
X255512Y49803D02*
D03*
X252756Y48228D02*
D03*
X255512Y52953D02*
D03*
X252756Y51378D02*
D03*
Y54527D02*
D03*
X255512Y56102D02*
D03*
X277559D02*
D03*
X280315Y54527D02*
D03*
X283071Y49803D02*
D03*
Y52953D02*
D03*
X250000Y49803D02*
D03*
Y52953D02*
D03*
X274803Y57677D02*
D03*
X272047Y59252D02*
D03*
X269291Y57677D02*
D03*
X266535Y59252D02*
D03*
X263779Y57677D02*
D03*
X261024Y59252D02*
D03*
X258268Y57677D02*
D03*
X255512Y59252D02*
D03*
X252756Y57677D02*
D03*
X250000Y56102D02*
D03*
X277559Y59252D02*
D03*
X280315Y57677D02*
D03*
X269291Y60827D02*
D03*
X263779D02*
D03*
X258268D02*
D03*
X274803D02*
D03*
X266535Y62401D02*
D03*
X272047D02*
D03*
X261024D02*
D03*
X271260Y173228D02*
D03*
X260236D02*
D03*
X265748D02*
D03*
X257480Y174803D02*
D03*
X274016D02*
D03*
X268504D02*
D03*
X262992D02*
D03*
X322328Y124192D02*
D03*
X231233Y59346D02*
D03*
X251969Y177953D02*
D03*
X254724Y176378D02*
D03*
X282283Y179528D02*
D03*
X279527Y177953D02*
D03*
X276772Y176378D02*
D03*
X274016Y177953D02*
D03*
X271260Y176378D02*
D03*
X268504Y177953D02*
D03*
X265748Y176378D02*
D03*
X262992Y177953D02*
D03*
X260236Y176378D02*
D03*
X257480Y177953D02*
D03*
X282283Y182677D02*
D03*
Y185827D02*
D03*
Y188976D02*
D03*
X249213Y182677D02*
D03*
Y185827D02*
D03*
X251969Y181102D02*
D03*
X254724Y179528D02*
D03*
X276772D02*
D03*
X279527Y181102D02*
D03*
Y184252D02*
D03*
X276772Y182677D02*
D03*
X279527Y187402D02*
D03*
X276772Y185827D02*
D03*
X279527Y190551D02*
D03*
X276772Y188976D02*
D03*
X251969Y184252D02*
D03*
X254724Y182677D02*
D03*
Y185827D02*
D03*
X271260Y179528D02*
D03*
X274016Y181102D02*
D03*
Y184252D02*
D03*
X271260Y182677D02*
D03*
X268504Y181102D02*
D03*
X265748Y179528D02*
D03*
X257480Y181102D02*
D03*
X260236Y179528D02*
D03*
X262992Y181102D02*
D03*
X265748Y182677D02*
D03*
X274016Y187402D02*
D03*
Y190551D02*
D03*
X260236Y185827D02*
D03*
X262992Y184252D02*
D03*
X257480D02*
D03*
X260236Y182677D02*
D03*
X271260Y188976D02*
D03*
X268504Y187402D02*
D03*
X271260Y185827D02*
D03*
X265748D02*
D03*
X268504Y184252D02*
D03*
X257480Y228346D02*
D03*
X249213Y202362D02*
D03*
Y205512D02*
D03*
Y208661D02*
D03*
X251969Y203937D02*
D03*
Y207087D02*
D03*
X254724Y205512D02*
D03*
Y208661D02*
D03*
X257480Y207087D02*
D03*
X282283Y205512D02*
D03*
Y202362D02*
D03*
X279527Y203937D02*
D03*
Y207087D02*
D03*
X271260Y208661D02*
D03*
X274016Y207087D02*
D03*
X276772Y205512D02*
D03*
X274016Y197638D02*
D03*
X268504Y200787D02*
D03*
X265748Y202362D02*
D03*
X262992Y203937D02*
D03*
X260236Y205512D02*
D03*
X279527Y197638D02*
D03*
X276772Y199213D02*
D03*
X274016Y200787D02*
D03*
X271260Y202362D02*
D03*
X268504Y203937D02*
D03*
X265748Y205512D02*
D03*
X262992Y207087D02*
D03*
X268504D02*
D03*
X282283Y199213D02*
D03*
X279527Y200787D02*
D03*
X276772Y202362D02*
D03*
X274016Y203937D02*
D03*
X271260Y205512D02*
D03*
X260236Y226772D02*
D03*
X279528Y218898D02*
D03*
X279527Y222047D02*
D03*
X279527Y225197D02*
D03*
X274016Y228346D02*
D03*
X276772Y226772D02*
D03*
X276772Y223622D02*
D03*
X276772Y220472D02*
D03*
X276772Y217323D02*
D03*
X274016Y225197D02*
D03*
X274016Y222047D02*
D03*
X274016Y218898D02*
D03*
X271260Y226772D02*
D03*
X268504Y228346D02*
D03*
X262949Y228336D02*
D03*
X265748Y226772D02*
D03*
X268504Y225197D02*
D03*
X271260Y223622D02*
D03*
X271260Y220472D02*
D03*
X268504Y222047D02*
D03*
X265748Y223622D02*
D03*
X262992Y225197D02*
D03*
X262992Y222047D02*
D03*
X265748Y220472D02*
D03*
X268504Y218898D02*
D03*
X336228Y132874D02*
D03*
X51181Y102362D02*
D03*
X62992Y62992D02*
D03*
X55118Y70866D02*
D03*
Y78740D02*
D03*
Y86614D02*
D03*
X102756Y17323D02*
D03*
X118110Y15748D02*
D03*
X270866Y40157D02*
D03*
X231299Y173228D02*
D03*
X349441Y97638D02*
D03*
X374803Y100394D02*
D03*
X261396Y214209D02*
D03*
X270887Y21421D02*
D03*
X372208Y106692D02*
D03*
X379921Y118504D02*
D03*
X94488Y218504D02*
D03*
X92520Y222441D02*
D03*
Y230315D02*
D03*
X96457D02*
D03*
X98425Y226378D02*
D03*
X94488D02*
D03*
X96457Y222441D02*
D03*
X98425Y218504D02*
D03*
X55118Y196850D02*
D03*
X82677Y190945D02*
D03*
X345473Y102362D02*
D03*
X327756Y130905D02*
D03*
X82677Y87598D02*
D03*
X93504Y103347D02*
D03*
X56102Y94488D02*
D03*
X231384Y63279D02*
D03*
X231299Y177165D02*
D03*
D81*
X196850Y118110D02*
D03*
X374016Y19685D02*
D03*
Y216535D02*
D03*
M02*
