G04*
G04 #@! TF.GenerationSoftware,Altium Limited,Altium Designer,21.3.1 (25)*
G04*
G04 Layer_Physical_Order=2*
G04 Layer_Color=36540*
%FSLAX25Y25*%
%MOIN*%
G70*
G04*
G04 #@! TF.SameCoordinates,F328FC2A-BCEF-4A3E-AF1C-DEE79B57D37C*
G04*
G04*
G04 #@! TF.FilePolarity,Positive*
G04*
G01*
G75*
G36*
X379708Y230528D02*
X379439Y230090D01*
X377427Y230744D01*
X375162Y231102D01*
X372869D01*
X370605Y230744D01*
X368424Y230035D01*
X366381Y228994D01*
X364526Y227646D01*
X362905Y226025D01*
X361557Y224170D01*
X360516Y222127D01*
X359807Y219947D01*
X359449Y217682D01*
Y215389D01*
X359807Y213124D01*
X360516Y210944D01*
X361557Y208901D01*
X362905Y207046D01*
X364526Y205424D01*
X366381Y204077D01*
X368424Y203036D01*
X370605Y202327D01*
X372869Y201969D01*
X375162D01*
X377427Y202327D01*
X379608Y203036D01*
X381650Y204077D01*
X383506Y205424D01*
X385127Y207046D01*
X386474Y208901D01*
X387515Y210944D01*
X388224Y213124D01*
X388583Y215389D01*
Y217682D01*
X388224Y219947D01*
X387570Y221959D01*
X388008Y222228D01*
X389764Y220472D01*
Y61504D01*
X389264Y61370D01*
X389135Y61593D01*
X388365Y62363D01*
X387422Y62907D01*
X386371Y63189D01*
X385282D01*
X384231Y62907D01*
X383289Y62363D01*
X382519Y61593D01*
X381975Y60651D01*
X381693Y59599D01*
Y58511D01*
X381975Y57459D01*
X382519Y56517D01*
X383289Y55747D01*
X383878Y55407D01*
Y54829D01*
X383289Y54489D01*
X382519Y53719D01*
X381975Y52777D01*
X381693Y51725D01*
Y50637D01*
X381975Y49586D01*
X382519Y48643D01*
X383289Y47873D01*
X383878Y47533D01*
Y46955D01*
X383289Y46615D01*
X382519Y45845D01*
X381975Y44903D01*
X381693Y43851D01*
Y42763D01*
X381975Y41712D01*
X382519Y40769D01*
X383289Y39999D01*
X384231Y39455D01*
X385282Y39173D01*
X386371D01*
X387422Y39455D01*
X388365Y39999D01*
X389135Y40769D01*
X389264Y40992D01*
X389764Y40859D01*
Y15748D01*
X388008Y13993D01*
X387570Y14261D01*
X388224Y16274D01*
X388583Y18539D01*
Y20831D01*
X388224Y23096D01*
X387515Y25277D01*
X386474Y27320D01*
X385127Y29175D01*
X383506Y30796D01*
X382394Y31603D01*
X382417Y32029D01*
X382488Y32153D01*
X383229Y32895D01*
X383773Y33838D01*
X384055Y34889D01*
Y35977D01*
X383773Y37029D01*
X383229Y37971D01*
X382459Y38741D01*
X381517Y39285D01*
X380466Y39567D01*
X379377D01*
X378326Y39285D01*
X377383Y38741D01*
X376613Y37971D01*
X376069Y37029D01*
X375787Y35977D01*
Y34889D01*
X375874Y34564D01*
X375540Y34192D01*
X375162Y34252D01*
X372869D01*
X370605Y33893D01*
X368424Y33185D01*
X366381Y32144D01*
X364526Y30796D01*
X362905Y29175D01*
X361557Y27320D01*
X360516Y25277D01*
X359807Y23096D01*
X359449Y20831D01*
Y18539D01*
X359807Y16274D01*
X360516Y14093D01*
X361557Y12050D01*
X362905Y10195D01*
X364526Y8574D01*
X366381Y7226D01*
X368424Y6185D01*
X370605Y5477D01*
X372869Y5118D01*
X375162D01*
X377427Y5477D01*
X379439Y6131D01*
X379708Y5692D01*
X377953Y3937D01*
X354542D01*
X354280Y4437D01*
X354528Y5361D01*
Y6450D01*
X354246Y7501D01*
X354120Y7718D01*
X354487Y8084D01*
X354704Y7959D01*
X355755Y7677D01*
X356843D01*
X357895Y7959D01*
X358838Y8503D01*
X359607Y9273D01*
X360151Y10215D01*
X360433Y11267D01*
Y12355D01*
X360151Y13407D01*
X359607Y14349D01*
X358838Y15119D01*
X357895Y15663D01*
X356843Y15945D01*
X355755D01*
X354704Y15663D01*
X353761Y15119D01*
X352991Y14349D01*
X352447Y13407D01*
X352165Y12355D01*
Y11267D01*
X352447Y10215D01*
X352572Y9998D01*
X352206Y9632D01*
X351989Y9758D01*
X350938Y10039D01*
X349850D01*
X348798Y9758D01*
X347855Y9213D01*
X347086Y8444D01*
X346542Y7501D01*
X346260Y6450D01*
Y5361D01*
X346508Y4437D01*
X346245Y3937D01*
X114715D01*
X114614Y4312D01*
X114070Y5255D01*
X113300Y6024D01*
X112358Y6569D01*
X111306Y6850D01*
X110218D01*
X109166Y6569D01*
X108224Y6024D01*
X107454Y5255D01*
X106910Y4312D01*
X106809Y3937D01*
X35306D01*
X35206Y4437D01*
X35832Y4696D01*
X37331Y5698D01*
X38606Y6973D01*
X39608Y8472D01*
X40298Y10138D01*
X40650Y11906D01*
Y13709D01*
X40298Y15478D01*
X39608Y17144D01*
X38606Y18643D01*
X37331Y19918D01*
X35832Y20920D01*
X34166Y21610D01*
X32398Y21961D01*
X30595D01*
X28826Y21610D01*
X27160Y20920D01*
X25661Y19918D01*
X24386Y18643D01*
X23384Y17144D01*
X22694Y15478D01*
X22343Y13709D01*
Y11906D01*
X22694Y10138D01*
X23384Y8472D01*
X24386Y6973D01*
X25661Y5698D01*
X27160Y4696D01*
X27786Y4437D01*
X27686Y3937D01*
X15748D01*
X3937Y15748D01*
Y220472D01*
X15748Y232283D01*
X25796D01*
X25941Y231805D01*
X25661Y231618D01*
X24386Y230343D01*
X23384Y228844D01*
X22694Y227178D01*
X22343Y225409D01*
Y223606D01*
X22694Y221838D01*
X23384Y220172D01*
X24386Y218673D01*
X25661Y217398D01*
X27160Y216396D01*
X28826Y215706D01*
X30595Y215354D01*
X32398D01*
X34166Y215706D01*
X35832Y216396D01*
X37331Y217398D01*
X38606Y218673D01*
X39608Y220172D01*
X40298Y221838D01*
X40650Y223606D01*
Y225409D01*
X40298Y227178D01*
X39608Y228844D01*
X38606Y230343D01*
X37331Y231618D01*
X37051Y231805D01*
X37196Y232283D01*
X63483D01*
X63734Y231829D01*
X63722Y231784D01*
X62816Y231261D01*
X62067Y230512D01*
X62054D01*
X61003Y230230D01*
X60060Y229686D01*
X59290Y228916D01*
X58746Y227974D01*
X58465Y226922D01*
Y225834D01*
X58741Y224803D01*
X58465Y223773D01*
Y222684D01*
X58741Y221654D01*
X58465Y220623D01*
Y219534D01*
X58741Y218504D01*
X58465Y217473D01*
Y216385D01*
X58746Y215334D01*
X59290Y214391D01*
X60060Y213621D01*
X61003Y213077D01*
X62054Y212795D01*
X63143D01*
X64194Y213077D01*
X65137Y213621D01*
X65354Y213839D01*
X65572Y213621D01*
X66515Y213077D01*
X67566Y212795D01*
X68655D01*
X69706Y213077D01*
X70648Y213621D01*
X70866Y213839D01*
X71084Y213621D01*
X72026Y213077D01*
X73078Y212795D01*
X74166D01*
X75218Y213077D01*
X76160Y213621D01*
X76930Y214391D01*
X77474Y215334D01*
X77756Y216385D01*
Y217473D01*
X77480Y218504D01*
X77756Y219534D01*
Y220623D01*
X77480Y221654D01*
X77756Y222684D01*
Y223773D01*
X77480Y224803D01*
X77756Y225834D01*
Y226922D01*
X77474Y227974D01*
X76930Y228916D01*
X76160Y229686D01*
X75218Y230230D01*
X74166Y230512D01*
X74153D01*
X73404Y231261D01*
X72499Y231784D01*
X72487Y231829D01*
X72737Y232283D01*
X88371D01*
X88634Y231783D01*
X88386Y230859D01*
Y229771D01*
X88668Y228719D01*
X89212Y227777D01*
X89981Y227007D01*
X90354Y226792D01*
Y225964D01*
X89981Y225749D01*
X89212Y224979D01*
X88668Y224037D01*
X88386Y222985D01*
Y221897D01*
X88668Y220845D01*
X89212Y219903D01*
X89981Y219133D01*
X90354Y218918D01*
Y217960D01*
X90636Y216908D01*
X91180Y215966D01*
X91950Y215196D01*
X92893Y214652D01*
X93944Y214370D01*
X95032D01*
X96084Y214652D01*
X96457Y214867D01*
X96830Y214652D01*
X97881Y214370D01*
X98969D01*
X100021Y214652D01*
X100963Y215196D01*
X101733Y215966D01*
X102277Y216908D01*
X102559Y217960D01*
Y219048D01*
X102277Y220099D01*
X101733Y221042D01*
X100963Y221812D01*
X100591Y222027D01*
Y222855D01*
X100963Y223070D01*
X101733Y223840D01*
X102277Y224782D01*
X102559Y225834D01*
Y226922D01*
X102277Y227974D01*
X102152Y228191D01*
X102518Y228557D01*
X102735Y228431D01*
X103787Y228150D01*
X104875D01*
X105926Y228431D01*
X106869Y228976D01*
X107639Y229745D01*
X108183Y230688D01*
X108465Y231739D01*
Y232283D01*
X255032D01*
X255166Y231784D01*
X254942Y231654D01*
X254172Y230885D01*
X253628Y229942D01*
X253346Y228891D01*
Y227802D01*
X253628Y226751D01*
X254172Y225808D01*
X254942Y225039D01*
X255885Y224494D01*
X256936Y224213D01*
X256949D01*
X257698Y223464D01*
X258641Y222920D01*
X258926Y222843D01*
X258858Y222591D01*
Y221503D01*
X259140Y220452D01*
X259684Y219509D01*
X260454Y218739D01*
X260366Y218213D01*
X259801Y218061D01*
X258858Y217517D01*
X258088Y216747D01*
X257544Y215805D01*
X257263Y214753D01*
Y214370D01*
X256936D01*
X255885Y214088D01*
X254942Y213544D01*
X254724Y213327D01*
X254507Y213544D01*
X253564Y214088D01*
X252513Y214370D01*
X251424D01*
X250373Y214088D01*
X249430Y213544D01*
X248681Y212795D01*
X248668D01*
X247617Y212514D01*
X246674Y211969D01*
X245905Y211200D01*
X245360Y210257D01*
X245079Y209206D01*
Y208117D01*
X245355Y207087D01*
X245079Y206056D01*
Y204968D01*
X245355Y203937D01*
X245079Y202906D01*
Y201818D01*
X245360Y200767D01*
X245905Y199824D01*
X246674Y199054D01*
X247617Y198510D01*
X248668Y198228D01*
X248681D01*
X249430Y197479D01*
X250373Y196935D01*
X251424Y196654D01*
X252513D01*
X253564Y196935D01*
X254507Y197479D01*
X254732Y197705D01*
X254942Y197495D01*
X255885Y196951D01*
X256640Y196749D01*
X256496Y196213D01*
Y195125D01*
X256778Y194074D01*
X257322Y193131D01*
X258092Y192361D01*
X259034Y191817D01*
X260086Y191535D01*
X261174D01*
X262226Y191817D01*
X263168Y192361D01*
X263938Y193131D01*
X264482Y194074D01*
X264652Y194709D01*
X265204Y195079D01*
X266292D01*
X267344Y195361D01*
X268286Y195905D01*
X269035Y196654D01*
X269048D01*
X269936Y196891D01*
X270164Y196042D01*
X270708Y195100D01*
X271478Y194330D01*
X272420Y193786D01*
X273471Y193504D01*
X274560D01*
X275611Y193786D01*
X276554Y194330D01*
X276772Y194548D01*
X276989Y194330D01*
X277932Y193786D01*
X278983Y193504D01*
X280072D01*
X281123Y193786D01*
X282066Y194330D01*
X282815Y195079D01*
X282828D01*
X283879Y195361D01*
X284822Y195905D01*
X285591Y196674D01*
X286136Y197617D01*
X286417Y198668D01*
Y199757D01*
X286141Y200787D01*
X286417Y201818D01*
Y202906D01*
X286141Y203937D01*
X286417Y204968D01*
Y206056D01*
X286136Y207107D01*
X285591Y208050D01*
X284822Y208820D01*
X283879Y209364D01*
X283059Y209584D01*
Y210093D01*
X283065Y210103D01*
X283879Y210321D01*
X284822Y210865D01*
X285039Y211083D01*
X285257Y210865D01*
X286200Y210321D01*
X287251Y210039D01*
X288339D01*
X289391Y210321D01*
X290334Y210865D01*
X291103Y211635D01*
X291647Y212578D01*
X291929Y213629D01*
Y214718D01*
X291653Y215748D01*
X291929Y216779D01*
Y217867D01*
X291653Y218898D01*
X291929Y219928D01*
Y221017D01*
X291647Y222068D01*
X291103Y223011D01*
X290334Y223780D01*
X289391Y224325D01*
X288339Y224606D01*
X288327D01*
X287578Y225355D01*
X286635Y225899D01*
X285584Y226181D01*
X285571D01*
X284822Y226930D01*
X283879Y227474D01*
X282828Y227756D01*
X282815D01*
X282066Y228505D01*
X281123Y229049D01*
X280072Y229331D01*
X280059D01*
X279310Y230080D01*
X278367Y230624D01*
X277316Y230906D01*
X277303D01*
X276554Y231654D01*
X276330Y231784D01*
X276464Y232283D01*
X377953D01*
X379708Y230528D01*
D02*
G37*
%LPC*%
G36*
X51764Y208770D02*
X50599D01*
X49456Y208542D01*
X48379Y208097D01*
X47410Y207449D01*
X46586Y206625D01*
X46510Y206511D01*
X46010D01*
X45933Y206625D01*
X45109Y207449D01*
X44141Y208097D01*
X43064Y208542D01*
X41921Y208770D01*
X40756D01*
X39613Y208542D01*
X38537Y208097D01*
X37568Y207449D01*
X36744Y206625D01*
X36667Y206511D01*
X36167D01*
X36091Y206625D01*
X35267Y207449D01*
X34298Y208097D01*
X33222Y208542D01*
X32079Y208770D01*
X30913D01*
X29771Y208542D01*
X28694Y208097D01*
X27725Y207449D01*
X26901Y206625D01*
X26825Y206511D01*
X26325D01*
X26248Y206625D01*
X25424Y207449D01*
X24455Y208097D01*
X23379Y208542D01*
X22236Y208770D01*
X21071D01*
X19928Y208542D01*
X18852Y208097D01*
X17883Y207449D01*
X17059Y206625D01*
X16982Y206511D01*
X16482D01*
X16406Y206625D01*
X15582Y207449D01*
X14613Y208097D01*
X13536Y208542D01*
X12394Y208770D01*
X11228D01*
X10086Y208542D01*
X9009Y208097D01*
X8040Y207449D01*
X7216Y206625D01*
X6569Y205656D01*
X6123Y204580D01*
X5896Y203437D01*
Y202272D01*
X6123Y201129D01*
X6569Y200052D01*
X7216Y199083D01*
X8040Y198260D01*
X9009Y197612D01*
X9974Y197212D01*
X10020Y197012D01*
Y196885D01*
X9974Y196685D01*
X9009Y196285D01*
X8040Y195638D01*
X7216Y194814D01*
X6569Y193845D01*
X6123Y192769D01*
X5896Y191626D01*
Y190461D01*
X6123Y189318D01*
X6569Y188241D01*
X7216Y187273D01*
X8040Y186449D01*
X8155Y186372D01*
Y185872D01*
X8040Y185795D01*
X7216Y184972D01*
X6569Y184003D01*
X6123Y182926D01*
X5896Y181783D01*
Y180618D01*
X6123Y179475D01*
X6569Y178399D01*
X7216Y177430D01*
X8040Y176606D01*
X9009Y175959D01*
X9974Y175559D01*
X10020Y175359D01*
Y175232D01*
X9974Y175032D01*
X9009Y174632D01*
X8040Y173985D01*
X7216Y173161D01*
X6569Y172192D01*
X6123Y171115D01*
X5896Y169972D01*
Y168807D01*
X6123Y167664D01*
X6569Y166588D01*
X7216Y165619D01*
X8040Y164795D01*
X9009Y164148D01*
X10086Y163702D01*
X11228Y163474D01*
X12394D01*
X13536Y163702D01*
X14613Y164148D01*
X15582Y164795D01*
X16406Y165619D01*
X16482Y165733D01*
X16982D01*
X17059Y165619D01*
X17883Y164795D01*
X18852Y164148D01*
X19928Y163702D01*
X21071Y163474D01*
X22236D01*
X23379Y163702D01*
X24455Y164148D01*
X25424Y164795D01*
X26248Y165619D01*
X26325Y165733D01*
X26825D01*
X26901Y165619D01*
X27725Y164795D01*
X28694Y164148D01*
X29771Y163702D01*
X30913Y163474D01*
X32079D01*
X33222Y163702D01*
X34298Y164148D01*
X35267Y164795D01*
X36091Y165619D01*
X36167Y165733D01*
X36667D01*
X36744Y165619D01*
X37568Y164795D01*
X38537Y164148D01*
X39613Y163702D01*
X40756Y163474D01*
X41921D01*
X43064Y163702D01*
X44141Y164148D01*
X45109Y164795D01*
X45933Y165619D01*
X46010Y165733D01*
X46510D01*
X46586Y165619D01*
X47410Y164795D01*
X48379Y164148D01*
X49456Y163702D01*
X50599Y163474D01*
X51764D01*
X52907Y163702D01*
X53983Y164148D01*
X54952Y164795D01*
X55776Y165619D01*
X56423Y166588D01*
X56869Y167664D01*
X57096Y168807D01*
Y169972D01*
X56869Y171115D01*
X56423Y172192D01*
X55776Y173161D01*
X54952Y173985D01*
X53983Y174632D01*
X53018Y175032D01*
X52972Y175232D01*
Y175359D01*
X53018Y175559D01*
X53983Y175959D01*
X54952Y176606D01*
X55776Y177430D01*
X56423Y178399D01*
X56869Y179475D01*
X57096Y180618D01*
Y181783D01*
X56869Y182926D01*
X56423Y184003D01*
X55776Y184972D01*
X54952Y185795D01*
X54837Y185872D01*
Y186372D01*
X54952Y186449D01*
X55776Y187273D01*
X56423Y188241D01*
X56869Y189318D01*
X57096Y190461D01*
Y191626D01*
X56869Y192769D01*
X56762Y193026D01*
X57656Y193543D01*
X58084Y193971D01*
X58533Y193712D01*
X58465Y193458D01*
Y192369D01*
X58741Y191339D01*
X58465Y190308D01*
Y189220D01*
X58741Y188189D01*
X58465Y187158D01*
Y186070D01*
X58741Y185039D01*
X58465Y184009D01*
Y182920D01*
X58746Y181869D01*
X59290Y180926D01*
X60060Y180157D01*
X61003Y179612D01*
X62054Y179331D01*
X62067D01*
X62816Y178582D01*
X63759Y178038D01*
X64810Y177756D01*
X65899D01*
X66950Y178038D01*
X67893Y178582D01*
X68110Y178799D01*
X68328Y178582D01*
X69270Y178038D01*
X70322Y177756D01*
X71410D01*
X72462Y178038D01*
X73404Y178582D01*
X74153Y179331D01*
X74166D01*
X75218Y179612D01*
X76160Y180157D01*
X76930Y180926D01*
X77474Y181869D01*
X77756Y182920D01*
Y184009D01*
X77480Y185039D01*
X77756Y186070D01*
Y187158D01*
X77480Y188189D01*
X77756Y189220D01*
Y190308D01*
X77480Y191339D01*
X77756Y192369D01*
Y193458D01*
X77474Y194509D01*
X76930Y195452D01*
X76160Y196221D01*
X75218Y196765D01*
X74166Y197047D01*
X73078D01*
X72026Y196765D01*
X71084Y196221D01*
X70866Y196004D01*
X70648Y196221D01*
X69706Y196765D01*
X68655Y197047D01*
X67566D01*
X66515Y196765D01*
X65572Y196221D01*
X65354Y196004D01*
X65137Y196221D01*
X64194Y196765D01*
X63143Y197047D01*
X62054D01*
X61003Y196765D01*
X60060Y196221D01*
X59632Y195793D01*
X59184Y196052D01*
X59252Y196306D01*
Y197395D01*
X58970Y198446D01*
X58426Y199389D01*
X57656Y200158D01*
X56714Y200703D01*
X56702Y200726D01*
X56869Y201129D01*
X57096Y202272D01*
Y203437D01*
X56869Y204580D01*
X56423Y205656D01*
X55776Y206625D01*
X54952Y207449D01*
X53983Y208097D01*
X52907Y208542D01*
X51764Y208770D01*
D02*
G37*
G36*
X83221Y195079D02*
X82133D01*
X81082Y194797D01*
X80139Y194253D01*
X79369Y193483D01*
X78825Y192541D01*
X78543Y191489D01*
Y190401D01*
X78825Y189349D01*
X79369Y188407D01*
X80139Y187637D01*
X81082Y187093D01*
X82133Y186811D01*
X83221D01*
X84273Y187093D01*
X85215Y187637D01*
X85985Y188407D01*
X86529Y189349D01*
X86811Y190401D01*
Y191489D01*
X86529Y192541D01*
X85985Y193483D01*
X85215Y194253D01*
X84273Y194797D01*
X83221Y195079D01*
D02*
G37*
G36*
X231843Y181299D02*
X230755D01*
X229704Y181017D01*
X228761Y180473D01*
X227991Y179704D01*
X227447Y178761D01*
X227165Y177710D01*
Y176621D01*
X227447Y175570D01*
X227662Y175197D01*
X227447Y174824D01*
X227165Y173773D01*
Y172684D01*
X227447Y171633D01*
X227991Y170690D01*
X228761Y169920D01*
X229704Y169376D01*
X230755Y169095D01*
X231843D01*
X232895Y169376D01*
X233838Y169920D01*
X234607Y170690D01*
X235151Y171633D01*
X235433Y172684D01*
Y173773D01*
X235151Y174824D01*
X234936Y175197D01*
X235151Y175570D01*
X235433Y176621D01*
Y177710D01*
X235151Y178761D01*
X234607Y179704D01*
X233838Y180473D01*
X232895Y181017D01*
X231843Y181299D01*
D02*
G37*
G36*
X382471Y175197D02*
X381308D01*
X380167Y174970D01*
X379092Y174525D01*
X378125Y173879D01*
X377302Y173056D01*
X376656Y172089D01*
X376211Y171014D01*
X375984Y169873D01*
Y168710D01*
X376211Y167569D01*
X376656Y166494D01*
X377302Y165526D01*
X378125Y164704D01*
X379092Y164058D01*
X380167Y163612D01*
X381308Y163385D01*
X382471D01*
X383612Y163612D01*
X384687Y164058D01*
X385655Y164704D01*
X386477Y165526D01*
X387123Y166494D01*
X387569Y167569D01*
X387796Y168710D01*
Y169873D01*
X387569Y171014D01*
X387123Y172089D01*
X386477Y173056D01*
X385655Y173879D01*
X384687Y174525D01*
X383612Y174970D01*
X382471Y175197D01*
D02*
G37*
G36*
X362786D02*
X361623D01*
X360482Y174970D01*
X359407Y174525D01*
X358440Y173879D01*
X357617Y173056D01*
X356971Y172089D01*
X356526Y171014D01*
X356299Y169873D01*
Y168710D01*
X356526Y167569D01*
X356971Y166494D01*
X357617Y165526D01*
X358440Y164704D01*
X359407Y164058D01*
X360482Y163612D01*
X361623Y163385D01*
X362786D01*
X363927Y163612D01*
X365002Y164058D01*
X365969Y164704D01*
X366792Y165526D01*
X367439Y166494D01*
X367884Y167569D01*
X368111Y168710D01*
Y169873D01*
X367884Y171014D01*
X367439Y172089D01*
X366792Y173056D01*
X365969Y173879D01*
X365002Y174525D01*
X363927Y174970D01*
X362786Y175197D01*
D02*
G37*
G36*
X327316Y157677D02*
X326227D01*
X325176Y157396D01*
X324803Y157180D01*
X324430Y157396D01*
X323379Y157677D01*
X322290D01*
X321239Y157396D01*
X320866Y157180D01*
X320493Y157396D01*
X319442Y157677D01*
X318353D01*
X317302Y157396D01*
X316359Y156851D01*
X315590Y156082D01*
X315045Y155139D01*
X314764Y154087D01*
Y153740D01*
X314416D01*
X313365Y153458D01*
X312422Y152914D01*
X311653Y152145D01*
X311108Y151202D01*
X310827Y150151D01*
Y149803D01*
X310479D01*
X309428Y149521D01*
X308485Y148977D01*
X307716Y148207D01*
X307172Y147265D01*
X306890Y146213D01*
Y145125D01*
X307172Y144074D01*
X307387Y143701D01*
X307172Y143328D01*
X306890Y142277D01*
Y141188D01*
X307172Y140137D01*
X307716Y139194D01*
X308485Y138424D01*
X309428Y137880D01*
X310479Y137598D01*
X311568D01*
X312619Y137880D01*
X313562Y138424D01*
X314332Y139194D01*
X314876Y140137D01*
X315158Y141188D01*
Y142277D01*
X314876Y143328D01*
X314661Y143701D01*
X314876Y144074D01*
X315158Y145125D01*
Y145472D01*
X315505D01*
X316556Y145754D01*
X317499Y146298D01*
X318268Y147068D01*
X318813Y148011D01*
X319094Y149062D01*
Y149409D01*
X319442D01*
X320493Y149691D01*
X320866Y149907D01*
X321239Y149691D01*
X322290Y149409D01*
X323379D01*
X324430Y149691D01*
X324803Y149907D01*
X325176Y149691D01*
X326227Y149409D01*
X327316D01*
X328367Y149691D01*
X329310Y150235D01*
X330080Y151005D01*
X330624Y151948D01*
X330906Y152999D01*
Y154087D01*
X330624Y155139D01*
X330080Y156082D01*
X329310Y156851D01*
X328367Y157396D01*
X327316Y157677D01*
D02*
G37*
G36*
X354875D02*
X353786D01*
X352735Y157396D01*
X352362Y157180D01*
X351989Y157396D01*
X350938Y157677D01*
X349850D01*
X348798Y157396D01*
X348425Y157180D01*
X348052Y157396D01*
X347001Y157677D01*
X345913D01*
X344861Y157396D01*
X344488Y157180D01*
X344115Y157396D01*
X343064Y157677D01*
X341975D01*
X340924Y157396D01*
X339981Y156851D01*
X339212Y156082D01*
X338667Y155139D01*
X338386Y154087D01*
Y152999D01*
X338667Y151948D01*
X339212Y151005D01*
X339981Y150235D01*
X340924Y149691D01*
X341975Y149409D01*
X343064D01*
X344115Y149691D01*
X344488Y149907D01*
X344861Y149691D01*
X345913Y149409D01*
X347001D01*
X348052Y149691D01*
X348425Y149907D01*
X348798Y149691D01*
X349850Y149409D01*
X350938D01*
X351989Y149691D01*
X352362Y149907D01*
X352735Y149691D01*
X353786Y149409D01*
X354875D01*
X355926Y149691D01*
X356869Y150235D01*
X357639Y151005D01*
X358183Y151948D01*
X358465Y152999D01*
Y154087D01*
X358183Y155139D01*
X357639Y156082D01*
X356869Y156851D01*
X355926Y157396D01*
X354875Y157677D01*
D02*
G37*
G36*
X78449Y167667D02*
X77063D01*
X75723Y167308D01*
X74523Y166615D01*
X73542Y165635D01*
X72849Y164434D01*
X72490Y163095D01*
Y161708D01*
X72849Y160369D01*
X73542Y159168D01*
X74523Y158188D01*
X75723Y157495D01*
X77063Y157136D01*
X78449D01*
X79788Y157495D01*
X80989Y158188D01*
X81970Y159168D01*
X82663Y160369D01*
X83022Y161708D01*
Y163095D01*
X82663Y164434D01*
X81970Y165635D01*
X80989Y166615D01*
X79788Y167308D01*
X78449Y167667D01*
D02*
G37*
G36*
X281840Y153888D02*
X271309D01*
Y143356D01*
X281840D01*
Y153888D01*
D02*
G37*
G36*
X240502D02*
X229971D01*
Y143356D01*
X240502D01*
Y153888D01*
D02*
G37*
G36*
X300938Y150984D02*
X299850D01*
X298798Y150703D01*
X297855Y150158D01*
X297086Y149389D01*
X296542Y148446D01*
X296260Y147395D01*
Y146306D01*
X296542Y145255D01*
X297086Y144312D01*
X297855Y143543D01*
X298798Y142998D01*
X299850Y142717D01*
X300938D01*
X301989Y142998D01*
X302932Y143543D01*
X303702Y144312D01*
X304246Y145255D01*
X304528Y146306D01*
Y147395D01*
X304246Y148446D01*
X303702Y149389D01*
X302932Y150158D01*
X301989Y150703D01*
X300938Y150984D01*
D02*
G37*
G36*
X51764Y143809D02*
X50599D01*
X49456Y143582D01*
X48379Y143136D01*
X47410Y142489D01*
X46586Y141665D01*
X46510Y141550D01*
X46010D01*
X45933Y141665D01*
X45109Y142489D01*
X44141Y143136D01*
X43064Y143582D01*
X41921Y143809D01*
X40756D01*
X39613Y143582D01*
X38537Y143136D01*
X37568Y142489D01*
X36744Y141665D01*
X36667Y141550D01*
X36167D01*
X36091Y141665D01*
X35267Y142489D01*
X34298Y143136D01*
X33222Y143582D01*
X32079Y143809D01*
X30913D01*
X29771Y143582D01*
X28694Y143136D01*
X27725Y142489D01*
X26901Y141665D01*
X26825Y141550D01*
X26325D01*
X26248Y141665D01*
X25424Y142489D01*
X24455Y143136D01*
X23379Y143582D01*
X22236Y143809D01*
X21071D01*
X19928Y143582D01*
X18852Y143136D01*
X17883Y142489D01*
X17059Y141665D01*
X16982Y141550D01*
X16482D01*
X16406Y141665D01*
X15582Y142489D01*
X14613Y143136D01*
X13536Y143582D01*
X12394Y143809D01*
X11228D01*
X10086Y143582D01*
X9009Y143136D01*
X8040Y142489D01*
X7216Y141665D01*
X6569Y140696D01*
X6123Y139619D01*
X5896Y138476D01*
Y137311D01*
X6123Y136168D01*
X6569Y135092D01*
X7216Y134123D01*
X8040Y133299D01*
X9009Y132652D01*
X9974Y132252D01*
X10020Y132052D01*
Y131924D01*
X9974Y131725D01*
X9009Y131325D01*
X8040Y130677D01*
X7216Y129853D01*
X6569Y128885D01*
X6123Y127808D01*
X5896Y126665D01*
Y125500D01*
X6123Y124357D01*
X6569Y123281D01*
X7216Y122312D01*
X8040Y121488D01*
X9009Y120841D01*
X10086Y120395D01*
X11228Y120167D01*
X12394D01*
X13536Y120395D01*
X14613Y120841D01*
X15582Y121488D01*
X16406Y122312D01*
X16482Y122426D01*
X16982D01*
X17059Y122312D01*
X17883Y121488D01*
X18852Y120841D01*
X19928Y120395D01*
X21071Y120167D01*
X22236D01*
X23379Y120395D01*
X24455Y120841D01*
X25424Y121488D01*
X26248Y122312D01*
X26325Y122426D01*
X26825D01*
X26901Y122312D01*
X27725Y121488D01*
X28694Y120841D01*
X29771Y120395D01*
X30913Y120167D01*
X32079D01*
X33222Y120395D01*
X34298Y120841D01*
X35267Y121488D01*
X36091Y122312D01*
X36167Y122426D01*
X36667D01*
X36744Y122312D01*
X37568Y121488D01*
X38537Y120841D01*
X39613Y120395D01*
X40756Y120167D01*
X41921D01*
X43064Y120395D01*
X44141Y120841D01*
X45109Y121488D01*
X45933Y122312D01*
X46010Y122426D01*
X46510D01*
X46586Y122312D01*
X47410Y121488D01*
X48379Y120841D01*
X49456Y120395D01*
X50599Y120167D01*
X51764D01*
X52907Y120395D01*
X53983Y120841D01*
X54952Y121488D01*
X55776Y122312D01*
X56423Y123281D01*
X56869Y124357D01*
X57096Y125500D01*
Y126665D01*
X56869Y127808D01*
X56423Y128885D01*
X55776Y129853D01*
X54952Y130677D01*
X53983Y131325D01*
X53018Y131725D01*
X52972Y131924D01*
Y132052D01*
X53018Y132252D01*
X53983Y132652D01*
X54952Y133299D01*
X55776Y134123D01*
X56423Y135092D01*
X56869Y136168D01*
X57096Y137311D01*
Y138476D01*
X56869Y139619D01*
X56423Y140696D01*
X55776Y141665D01*
X54952Y142489D01*
X53983Y143136D01*
X52907Y143582D01*
X51764Y143809D01*
D02*
G37*
G36*
X350244Y138391D02*
X349155D01*
X348104Y138109D01*
X347483Y137751D01*
X346871Y138104D01*
X345820Y138386D01*
X344731D01*
X343680Y138104D01*
X342737Y137560D01*
X341968Y136790D01*
X341424Y135848D01*
X341142Y134796D01*
Y133708D01*
X341424Y132656D01*
X341968Y131714D01*
X342737Y130944D01*
X343680Y130400D01*
X344731Y130118D01*
X345820D01*
X346871Y130400D01*
X347492Y130758D01*
X348104Y130405D01*
X349155Y130123D01*
X350244D01*
X351295Y130405D01*
X352238Y130949D01*
X353007Y131719D01*
X353552Y132661D01*
X353833Y133713D01*
Y134801D01*
X353552Y135853D01*
X353007Y136795D01*
X352238Y137565D01*
X351295Y138109D01*
X350244Y138391D01*
D02*
G37*
G36*
X300938Y141929D02*
X299850D01*
X298798Y141647D01*
X297855Y141103D01*
X297086Y140333D01*
X296542Y139391D01*
X296260Y138339D01*
Y137251D01*
X296542Y136200D01*
X297086Y135257D01*
X297855Y134487D01*
X298798Y133943D01*
X299850Y133661D01*
X300938D01*
X301989Y133943D01*
X302932Y134487D01*
X303702Y135257D01*
X304246Y136200D01*
X304528Y137251D01*
Y138339D01*
X304246Y139391D01*
X303702Y140333D01*
X302932Y141103D01*
X301989Y141647D01*
X300938Y141929D01*
D02*
G37*
G36*
X321017Y138779D02*
X319928D01*
X318877Y138498D01*
X317934Y137954D01*
X317164Y137184D01*
X316620Y136241D01*
X316339Y135190D01*
Y134101D01*
X316620Y133050D01*
X317164Y132107D01*
X317934Y131338D01*
X318877Y130793D01*
X319928Y130512D01*
X321017D01*
X322068Y130793D01*
X323011Y131338D01*
X323122Y131449D01*
X323622Y131242D01*
Y130361D01*
X323904Y129310D01*
X324448Y128367D01*
X324562Y128253D01*
X324255Y127853D01*
X323924Y128044D01*
X322872Y128326D01*
X321784D01*
X320733Y128044D01*
X319790Y127500D01*
X319020Y126730D01*
X318476Y125788D01*
X318194Y124736D01*
Y123648D01*
X318476Y122597D01*
X319020Y121654D01*
X319790Y120884D01*
X320733Y120340D01*
X321784Y120058D01*
X322872D01*
X323924Y120340D01*
X324867Y120884D01*
X325636Y121654D01*
X326180Y122597D01*
X326462Y123648D01*
Y124736D01*
X326180Y125788D01*
X325636Y126730D01*
X325522Y126845D01*
X325829Y127245D01*
X326160Y127053D01*
X327212Y126772D01*
X328300D01*
X329351Y127053D01*
X330294Y127598D01*
X331064Y128367D01*
X331608Y129310D01*
X331890Y130361D01*
Y131162D01*
X332376Y131278D01*
X332920Y130336D01*
X333690Y129566D01*
X334633Y129022D01*
X335684Y128740D01*
X336773D01*
X337824Y129022D01*
X338767Y129566D01*
X339536Y130336D01*
X340080Y131278D01*
X340362Y132330D01*
Y133418D01*
X340080Y134470D01*
X339536Y135412D01*
X338767Y136182D01*
X337824Y136726D01*
X336773Y137008D01*
X335684D01*
X334633Y136726D01*
X333690Y136182D01*
X332920Y135412D01*
X332376Y134470D01*
X332095Y133418D01*
Y132618D01*
X331608Y132501D01*
X331064Y133444D01*
X330294Y134213D01*
X329351Y134758D01*
X328300Y135039D01*
X327212D01*
X326160Y134758D01*
X325218Y134213D01*
X325106Y134102D01*
X324606Y134309D01*
Y135190D01*
X324325Y136241D01*
X323780Y137184D01*
X323011Y137954D01*
X322068Y138498D01*
X321017Y138779D01*
D02*
G37*
G36*
X96399Y125820D02*
X95310D01*
X94259Y125538D01*
X93886Y125323D01*
X93513Y125538D01*
X92462Y125820D01*
X91373D01*
X90322Y125538D01*
X89379Y124994D01*
X88609Y124224D01*
X88065Y123282D01*
X87783Y122230D01*
Y121142D01*
X88065Y120090D01*
X88609Y119148D01*
X89379Y118378D01*
X89752Y118163D01*
Y117335D01*
X89379Y117120D01*
X88609Y116350D01*
X88065Y115408D01*
X87783Y114356D01*
Y113268D01*
X88065Y112216D01*
X88609Y111274D01*
X89379Y110504D01*
X89752Y110289D01*
Y109331D01*
X90034Y108279D01*
X90578Y107337D01*
X91000Y106915D01*
X90966Y106654D01*
X90196Y105885D01*
X89652Y104942D01*
X89370Y103891D01*
Y102802D01*
X89652Y101751D01*
X90196Y100808D01*
X90966Y100039D01*
X91908Y99494D01*
X92960Y99213D01*
X94048D01*
X95100Y99494D01*
X96042Y100039D01*
X96812Y100808D01*
X97356Y101751D01*
X97638Y102802D01*
Y103891D01*
X97356Y104942D01*
X97154Y105293D01*
X97472Y105741D01*
X98367D01*
X99418Y106023D01*
X100361Y106567D01*
X101131Y107337D01*
X101675Y108279D01*
X101957Y109331D01*
Y110419D01*
X101675Y111471D01*
X101131Y112413D01*
X100361Y113183D01*
X99988Y113398D01*
Y114226D01*
X100361Y114441D01*
X101131Y115211D01*
X101675Y116153D01*
X101957Y117205D01*
Y118293D01*
X101675Y119345D01*
X101131Y120287D01*
X100361Y121057D01*
X99988Y121272D01*
Y122230D01*
X99707Y123282D01*
X99162Y124224D01*
X98393Y124994D01*
X97450Y125538D01*
X96399Y125820D01*
D02*
G37*
G36*
X300938Y132874D02*
X299850D01*
X298798Y132592D01*
X297855Y132048D01*
X297086Y131278D01*
X296542Y130336D01*
X296260Y129284D01*
Y128196D01*
X296542Y127145D01*
X297086Y126202D01*
X297855Y125432D01*
X298798Y124888D01*
X299850Y124606D01*
X300938D01*
X301989Y124888D01*
X302932Y125432D01*
X303702Y126202D01*
X304246Y127145D01*
X304528Y128196D01*
Y129284D01*
X304246Y130336D01*
X303702Y131278D01*
X302932Y132048D01*
X301989Y132592D01*
X300938Y132874D01*
D02*
G37*
G36*
X277268Y134203D02*
X275882D01*
X274542Y133844D01*
X273342Y133151D01*
X272361Y132170D01*
X271668Y130970D01*
X271309Y129630D01*
Y128244D01*
X271668Y126904D01*
X272361Y125704D01*
X273342Y124723D01*
X274542Y124030D01*
X275882Y123671D01*
X277268D01*
X278607Y124030D01*
X279808Y124723D01*
X280788Y125704D01*
X281482Y126904D01*
X281840Y128244D01*
Y129630D01*
X281482Y130970D01*
X280788Y132170D01*
X279808Y133151D01*
X278607Y133844D01*
X277268Y134203D01*
D02*
G37*
G36*
X235929D02*
X234543D01*
X233204Y133844D01*
X232003Y133151D01*
X231023Y132170D01*
X230329Y130970D01*
X229971Y129630D01*
Y128244D01*
X230329Y126904D01*
X231023Y125704D01*
X232003Y124723D01*
X233204Y124030D01*
X234543Y123671D01*
X235929D01*
X237269Y124030D01*
X238470Y124723D01*
X239450Y125704D01*
X240143Y126904D01*
X240502Y128244D01*
Y129630D01*
X240143Y130970D01*
X239450Y132170D01*
X238470Y133151D01*
X237269Y133844D01*
X235929Y134203D01*
D02*
G37*
G36*
X372591Y129370D02*
X371503D01*
X370452Y129088D01*
X369509Y128544D01*
X368739Y127775D01*
X368195Y126832D01*
X367913Y125780D01*
Y124692D01*
X368195Y123641D01*
X368739Y122698D01*
X369509Y121928D01*
X370452Y121384D01*
X371503Y121102D01*
X372591D01*
X373643Y121384D01*
X374586Y121928D01*
X375355Y122698D01*
X375899Y123641D01*
X376181Y124692D01*
Y125780D01*
X375899Y126832D01*
X375355Y127775D01*
X374586Y128544D01*
X373643Y129088D01*
X372591Y129370D01*
D02*
G37*
G36*
X380466Y122638D02*
X379377D01*
X378326Y122356D01*
X377383Y121812D01*
X376613Y121042D01*
X376069Y120099D01*
X375787Y119048D01*
Y117960D01*
X376069Y116908D01*
X376613Y115966D01*
X377383Y115196D01*
X378326Y114652D01*
X379377Y114370D01*
X380466D01*
X381517Y114652D01*
X382459Y115196D01*
X383229Y115966D01*
X383773Y116908D01*
X384055Y117960D01*
Y119048D01*
X383773Y120099D01*
X383229Y121042D01*
X382459Y121812D01*
X381517Y122356D01*
X380466Y122638D01*
D02*
G37*
G36*
X38299Y111644D02*
X37134D01*
X35991Y111416D01*
X34915Y110970D01*
X33946Y110323D01*
X33122Y109499D01*
X32967Y109267D01*
X32467D01*
X32311Y109499D01*
X31487Y110323D01*
X30518Y110970D01*
X29442Y111416D01*
X28299Y111644D01*
X27134D01*
X25991Y111416D01*
X24915Y110970D01*
X23946Y110323D01*
X23122Y109499D01*
X22966Y109267D01*
X22467D01*
X22311Y109499D01*
X21487Y110323D01*
X20518Y110970D01*
X19442Y111416D01*
X18299Y111644D01*
X17134D01*
X15991Y111416D01*
X14915Y110970D01*
X13946Y110323D01*
X13122Y109499D01*
X12474Y108530D01*
X12028Y107454D01*
X11801Y106311D01*
Y105146D01*
X12028Y104003D01*
X12474Y102926D01*
X13122Y101957D01*
X13946Y101134D01*
X14178Y100978D01*
Y100478D01*
X13946Y100323D01*
X13122Y99499D01*
X12474Y98530D01*
X12028Y97454D01*
X11801Y96311D01*
Y95146D01*
X12028Y94003D01*
X12474Y92926D01*
X13122Y91957D01*
X13946Y91134D01*
X14178Y90978D01*
Y90478D01*
X13946Y90323D01*
X13122Y89499D01*
X12474Y88530D01*
X12028Y87454D01*
X11801Y86311D01*
Y85146D01*
X12028Y84003D01*
X12474Y82926D01*
X13122Y81958D01*
X13946Y81134D01*
X14178Y80978D01*
Y80478D01*
X13946Y80323D01*
X13122Y79499D01*
X12474Y78530D01*
X12028Y77454D01*
X11801Y76311D01*
Y75146D01*
X12028Y74003D01*
X12474Y72926D01*
X13122Y71957D01*
X13946Y71134D01*
X14178Y70978D01*
Y70478D01*
X13946Y70323D01*
X13122Y69499D01*
X12474Y68530D01*
X12028Y67454D01*
X11801Y66311D01*
Y65146D01*
X12028Y64003D01*
X12474Y62926D01*
X13122Y61958D01*
X13946Y61134D01*
X14178Y60978D01*
Y60478D01*
X13946Y60323D01*
X13122Y59499D01*
X12474Y58530D01*
X12028Y57454D01*
X11801Y56311D01*
Y55146D01*
X12028Y54003D01*
X12474Y52926D01*
X13122Y51957D01*
X13946Y51134D01*
X14178Y50978D01*
Y50478D01*
X13946Y50323D01*
X13122Y49499D01*
X12474Y48530D01*
X12028Y47454D01*
X11801Y46311D01*
Y45146D01*
X12028Y44003D01*
X12474Y42926D01*
X13122Y41958D01*
X13946Y41134D01*
X14178Y40978D01*
Y40478D01*
X13946Y40323D01*
X13122Y39499D01*
X12474Y38530D01*
X12028Y37454D01*
X11801Y36311D01*
Y35146D01*
X12028Y34003D01*
X12474Y32926D01*
X13122Y31958D01*
X13946Y31134D01*
X14915Y30486D01*
X15991Y30040D01*
X17134Y29813D01*
X18299D01*
X19442Y30040D01*
X20518Y30486D01*
X21487Y31134D01*
X22311Y31958D01*
X22467Y32190D01*
X22966D01*
X23122Y31958D01*
X23946Y31134D01*
X24915Y30486D01*
X25991Y30040D01*
X27134Y29813D01*
X28299D01*
X29442Y30040D01*
X30518Y30486D01*
X31487Y31134D01*
X32311Y31958D01*
X32467Y32190D01*
X32967D01*
X33122Y31958D01*
X33946Y31134D01*
X34915Y30486D01*
X35991Y30040D01*
X37134Y29813D01*
X37205D01*
Y28983D01*
X37486Y27932D01*
X38031Y26989D01*
X38800Y26220D01*
X39743Y25675D01*
X40794Y25394D01*
X41142D01*
Y25046D01*
X41423Y23995D01*
X41968Y23052D01*
X42737Y22283D01*
X43680Y21738D01*
X44731Y21457D01*
X45079D01*
Y21109D01*
X45360Y20058D01*
X45905Y19115D01*
X46674Y18346D01*
X47617Y17801D01*
X48668Y17520D01*
X49016D01*
Y17172D01*
X49297Y16121D01*
X49842Y15178D01*
X50611Y14409D01*
X51554Y13864D01*
X51801Y13798D01*
Y13338D01*
X52082Y12286D01*
X52627Y11344D01*
X53396Y10574D01*
X54339Y10030D01*
X55390Y9748D01*
X56479D01*
X57530Y10030D01*
X58473Y10574D01*
X59242Y11344D01*
X59787Y12286D01*
X60068Y13338D01*
Y14426D01*
X59787Y15478D01*
X59242Y16420D01*
X58473Y17190D01*
X57530Y17734D01*
X57284Y17800D01*
Y18261D01*
X57002Y19312D01*
X56458Y20255D01*
X55688Y21024D01*
X54745Y21569D01*
X53694Y21850D01*
X53347D01*
Y22198D01*
X53065Y23249D01*
X52521Y24192D01*
X51751Y24961D01*
X50808Y25506D01*
X49757Y25787D01*
X49409D01*
Y26135D01*
X49128Y27186D01*
X48583Y28129D01*
X47814Y28899D01*
X46871Y29443D01*
X45820Y29724D01*
X45472D01*
Y30072D01*
X45191Y31123D01*
X44646Y32066D01*
X43877Y32836D01*
X43106Y33281D01*
X43405Y34003D01*
X43632Y35146D01*
Y36311D01*
X43405Y37454D01*
X42959Y38530D01*
X42311Y39499D01*
X41487Y40323D01*
X41255Y40478D01*
Y40978D01*
X41487Y41134D01*
X42311Y41958D01*
X42959Y42926D01*
X43405Y44003D01*
X43632Y45146D01*
Y46311D01*
X43405Y47454D01*
X42959Y48530D01*
X42311Y49499D01*
X41487Y50323D01*
X41255Y50478D01*
Y50978D01*
X41487Y51134D01*
X42311Y51957D01*
X42959Y52926D01*
X43405Y54003D01*
X43632Y55146D01*
Y56114D01*
X44125Y56328D01*
X44706Y55747D01*
X45649Y55203D01*
X46700Y54921D01*
X47047D01*
Y54574D01*
X47329Y53522D01*
X47873Y52580D01*
X48643Y51810D01*
X49586Y51266D01*
X50637Y50984D01*
X50984D01*
Y50637D01*
X51266Y49586D01*
X51810Y48643D01*
X52580Y47873D01*
X53170Y47533D01*
Y46955D01*
X52580Y46615D01*
X51810Y45845D01*
X51266Y44903D01*
X50984Y43851D01*
Y42763D01*
X51266Y41712D01*
X51810Y40769D01*
X52580Y39999D01*
X53170Y39659D01*
Y39081D01*
X52580Y38741D01*
X51810Y37971D01*
X51266Y37029D01*
X50984Y35977D01*
Y34889D01*
X51266Y33838D01*
X51810Y32895D01*
X52580Y32125D01*
X53522Y31581D01*
X54574Y31299D01*
X54921D01*
Y30952D01*
X55203Y29901D01*
X55747Y28958D01*
X56517Y28188D01*
X57459Y27644D01*
X58511Y27362D01*
X58858D01*
Y27015D01*
X59140Y25964D01*
X59684Y25021D01*
X60454Y24251D01*
X61396Y23707D01*
X62448Y23425D01*
X63536D01*
X64588Y23707D01*
X65530Y24251D01*
X65839Y24559D01*
X66339Y24352D01*
Y23865D01*
X66620Y22814D01*
X67164Y21871D01*
X67934Y21102D01*
X68877Y20557D01*
X69928Y20276D01*
X71017D01*
X72068Y20557D01*
X73011Y21102D01*
X73780Y21871D01*
X74325Y22814D01*
X74606Y23865D01*
Y24954D01*
X74325Y26005D01*
X73780Y26948D01*
X73011Y27717D01*
X72068Y28262D01*
X71017Y28543D01*
X69928D01*
X68877Y28262D01*
X67934Y27717D01*
X67626Y27409D01*
X67126Y27616D01*
Y28103D01*
X66844Y29155D01*
X66300Y30097D01*
X65530Y30867D01*
X64588Y31411D01*
X63536Y31693D01*
X63189D01*
Y32040D01*
X62907Y33092D01*
X62363Y34034D01*
X61593Y34804D01*
X60651Y35348D01*
X59599Y35630D01*
X59252D01*
Y35977D01*
X58970Y37029D01*
X58426Y37971D01*
X57656Y38741D01*
X57067Y39081D01*
Y39659D01*
X57656Y39999D01*
X58426Y40769D01*
X58970Y41712D01*
X59252Y42763D01*
Y43851D01*
X58970Y44903D01*
X58426Y45845D01*
X57656Y46615D01*
X57067Y46955D01*
Y47533D01*
X57656Y47873D01*
X58426Y48643D01*
X58970Y49586D01*
X59252Y50637D01*
Y51725D01*
X58970Y52777D01*
X58426Y53719D01*
X57656Y54489D01*
X56714Y55033D01*
X55662Y55315D01*
X55315D01*
Y55662D01*
X55033Y56714D01*
X54489Y57656D01*
X53719Y58426D01*
X52777Y58970D01*
X51725Y59252D01*
X51378D01*
Y59599D01*
X51096Y60651D01*
X50552Y61593D01*
X49782Y62363D01*
X48840Y62907D01*
X47788Y63189D01*
X46700D01*
X45649Y62907D01*
X44706Y62363D01*
X43936Y61593D01*
X43392Y60651D01*
X43110Y59599D01*
Y59203D01*
X42610Y59052D01*
X42311Y59499D01*
X41487Y60323D01*
X41255Y60478D01*
Y60978D01*
X41487Y61134D01*
X42311Y61958D01*
X42959Y62926D01*
X43405Y64003D01*
X43632Y65146D01*
Y66311D01*
X43405Y67454D01*
X42959Y68530D01*
X42311Y69499D01*
X41487Y70323D01*
X41255Y70478D01*
Y70978D01*
X41487Y71134D01*
X42311Y71957D01*
X42959Y72926D01*
X43405Y74003D01*
X43632Y75146D01*
Y76311D01*
X43405Y77454D01*
X42959Y78530D01*
X42311Y79499D01*
X41487Y80323D01*
X41255Y80478D01*
Y80978D01*
X41487Y81134D01*
X42311Y81958D01*
X42959Y82926D01*
X43405Y84003D01*
X43632Y85146D01*
Y86311D01*
X43405Y87454D01*
X42959Y88530D01*
X42311Y89499D01*
X41487Y90323D01*
X41255Y90478D01*
Y90978D01*
X41487Y91134D01*
X42311Y91957D01*
X42959Y92926D01*
X43405Y94003D01*
X43632Y95146D01*
Y96311D01*
X43405Y97454D01*
X42959Y98530D01*
X42311Y99499D01*
X41487Y100323D01*
X41255Y100478D01*
Y100978D01*
X41487Y101134D01*
X42311Y101957D01*
X42959Y102926D01*
X43405Y104003D01*
X43632Y105146D01*
Y106311D01*
X43405Y107454D01*
X42959Y108530D01*
X42311Y109499D01*
X41487Y110323D01*
X40519Y110970D01*
X39442Y111416D01*
X38299Y111644D01*
D02*
G37*
G36*
X353694Y129331D02*
X352605D01*
X351554Y129049D01*
X350611Y128505D01*
X349842Y127735D01*
X349297Y126793D01*
X349016Y125741D01*
Y124653D01*
X349297Y123601D01*
X349464Y123314D01*
X349199Y122855D01*
X348917Y121804D01*
Y120716D01*
X349199Y119664D01*
X349436Y119254D01*
X349015Y118525D01*
X348733Y117473D01*
Y116385D01*
X349015Y115333D01*
X349237Y114949D01*
X349199Y114883D01*
X348917Y113832D01*
Y112743D01*
X349199Y111692D01*
X349743Y110749D01*
X350513Y109979D01*
X351456Y109435D01*
X352507Y109153D01*
X353595D01*
X354647Y109435D01*
X355116Y109706D01*
X355688Y109376D01*
X356739Y109095D01*
X357828D01*
X358879Y109376D01*
X359822Y109920D01*
X360591Y110690D01*
X361136Y111633D01*
X361417Y112684D01*
Y113773D01*
X361136Y114824D01*
X360591Y115767D01*
X359822Y116536D01*
X358879Y117080D01*
X357828Y117362D01*
X357001D01*
Y117473D01*
X356719Y118525D01*
X356482Y118935D01*
X356903Y119664D01*
X357185Y120716D01*
Y121804D01*
X356903Y122855D01*
X356737Y123143D01*
X357002Y123601D01*
X357283Y124653D01*
Y125741D01*
X357002Y126793D01*
X356457Y127735D01*
X355688Y128505D01*
X354745Y129049D01*
X353694Y129331D01*
D02*
G37*
G36*
X337552Y127559D02*
X336464D01*
X335412Y127277D01*
X334470Y126733D01*
X333700Y125963D01*
X333598Y125787D01*
X333413D01*
X332361Y125505D01*
X331419Y124961D01*
X330649Y124192D01*
X330105Y123249D01*
X329823Y122198D01*
Y121109D01*
X330105Y120058D01*
X330206Y119882D01*
X330105Y119706D01*
X329823Y118654D01*
Y117566D01*
X330105Y116515D01*
X330206Y116339D01*
X330105Y116163D01*
X329823Y115111D01*
Y114023D01*
X330105Y112971D01*
X330649Y112029D01*
X331418Y111259D01*
X332361Y110715D01*
X333413Y110433D01*
X333598D01*
X333700Y110257D01*
X334470Y109487D01*
X335412Y108943D01*
X336464Y108661D01*
X337552D01*
X338603Y108943D01*
X339546Y109487D01*
X340059Y110000D01*
X340572Y109487D01*
X341515Y108943D01*
X342566Y108661D01*
X343654D01*
X344706Y108943D01*
X345648Y109487D01*
X346418Y110257D01*
X346962Y111200D01*
X347244Y112251D01*
Y113340D01*
X346962Y114391D01*
X346861Y114567D01*
X346962Y114743D01*
X347244Y115794D01*
Y116883D01*
X346962Y117934D01*
X346861Y118110D01*
X346962Y118286D01*
X347244Y119338D01*
Y120426D01*
X346962Y121477D01*
X346861Y121653D01*
X346963Y121829D01*
X347244Y122881D01*
Y123969D01*
X346963Y125021D01*
X346418Y125963D01*
X345649Y126733D01*
X344706Y127277D01*
X343655Y127559D01*
X342566D01*
X341515Y127277D01*
X340572Y126733D01*
X340059Y126220D01*
X339546Y126733D01*
X338604Y127277D01*
X337552Y127559D01*
D02*
G37*
G36*
X63926Y127484D02*
X62837D01*
X61786Y127202D01*
X60843Y126658D01*
X60074Y125889D01*
X59530Y124946D01*
X59248Y123895D01*
Y122806D01*
X59524Y121776D01*
X59248Y120745D01*
Y119657D01*
X59524Y118626D01*
X59248Y117595D01*
Y116507D01*
X59524Y115476D01*
X59248Y114446D01*
Y113357D01*
X59530Y112306D01*
X60074Y111363D01*
X60843Y110594D01*
X61786Y110049D01*
X62764Y109787D01*
X62834Y109667D01*
X63604Y108897D01*
X64546Y108353D01*
X65597Y108071D01*
X66686D01*
X67737Y108353D01*
X68680Y108897D01*
X68898Y109115D01*
X69115Y108897D01*
X70058Y108353D01*
X71109Y108071D01*
X72198D01*
X73249Y108353D01*
X74192Y108897D01*
X74941Y109646D01*
X74954D01*
X76005Y109927D01*
X76948Y110472D01*
X77717Y111241D01*
X78262Y112184D01*
X78543Y113235D01*
Y114324D01*
X78267Y115354D01*
X78543Y116385D01*
Y117473D01*
X78267Y118504D01*
X78543Y119535D01*
Y120623D01*
X78267Y121653D01*
X78543Y122684D01*
Y123773D01*
X78262Y124824D01*
X77717Y125767D01*
X76948Y126536D01*
X76005Y127081D01*
X74954Y127362D01*
X73865D01*
X72814Y127081D01*
X71871Y126536D01*
X71653Y126319D01*
X71436Y126536D01*
X70493Y127081D01*
X69442Y127362D01*
X68353D01*
X67302Y127081D01*
X66359Y126536D01*
X66201Y126377D01*
X65920Y126658D01*
X64977Y127202D01*
X63926Y127484D01*
D02*
G37*
G36*
X324230Y115921D02*
X323142D01*
X322090Y115640D01*
X321148Y115095D01*
X320378Y114326D01*
X319834Y113383D01*
X319552Y112332D01*
Y111243D01*
X319834Y110192D01*
X320378Y109249D01*
X321148Y108479D01*
X322090Y107935D01*
X323142Y107653D01*
X324230D01*
X325282Y107935D01*
X325557Y108094D01*
X325864Y107694D01*
X325432Y107263D01*
X324888Y106320D01*
X324606Y105269D01*
Y105175D01*
X324106Y104968D01*
X323798Y105276D01*
X322855Y105821D01*
X321804Y106102D01*
X320716D01*
X319664Y105821D01*
X318722Y105276D01*
X317952Y104507D01*
X317408Y103564D01*
X317126Y102513D01*
Y101424D01*
X317408Y100373D01*
X317952Y99430D01*
X318722Y98661D01*
X319664Y98116D01*
X320716Y97835D01*
X321804D01*
X322855Y98116D01*
X323798Y98661D01*
X324568Y99430D01*
X325112Y100373D01*
X325394Y101424D01*
Y101518D01*
X325894Y101725D01*
X326202Y101417D01*
X327145Y100872D01*
X328196Y100591D01*
X328949D01*
X329219Y99585D01*
X329763Y98643D01*
X330533Y97873D01*
X331475Y97329D01*
X332527Y97047D01*
X333615D01*
X334666Y97329D01*
X335609Y97873D01*
X336379Y98643D01*
X336923Y99585D01*
X337205Y100637D01*
Y101725D01*
X336923Y102777D01*
X336379Y103719D01*
X335609Y104489D01*
X334666Y105033D01*
X333615Y105315D01*
X332862D01*
X332592Y106320D01*
X332048Y107263D01*
X331278Y108032D01*
X330336Y108577D01*
X329284Y108858D01*
X328196D01*
X327145Y108577D01*
X326870Y108418D01*
X326562Y108818D01*
X326994Y109249D01*
X327538Y110192D01*
X327820Y111243D01*
Y112332D01*
X327538Y113383D01*
X326994Y114326D01*
X326224Y115095D01*
X325282Y115640D01*
X324230Y115921D01*
D02*
G37*
G36*
X300938Y111614D02*
X299850D01*
X298798Y111332D01*
X297855Y110788D01*
X297086Y110019D01*
X296542Y109076D01*
X296260Y108025D01*
Y106936D01*
X296542Y105885D01*
X297086Y104942D01*
X297855Y104172D01*
X298798Y103628D01*
X299850Y103347D01*
X300938D01*
X301989Y103628D01*
X302932Y104172D01*
X303702Y104942D01*
X304246Y105885D01*
X304528Y106936D01*
Y108025D01*
X304246Y109076D01*
X303702Y110019D01*
X302932Y110788D01*
X301989Y111332D01*
X300938Y111614D01*
D02*
G37*
G36*
X277268Y112549D02*
X275882D01*
X274542Y112190D01*
X273342Y111497D01*
X272361Y110517D01*
X271668Y109316D01*
X271309Y107977D01*
Y106590D01*
X271668Y105251D01*
X272361Y104050D01*
X273342Y103070D01*
X274542Y102377D01*
X275882Y102018D01*
X277268D01*
X278607Y102377D01*
X279808Y103070D01*
X280788Y104050D01*
X281482Y105251D01*
X281840Y106590D01*
Y107977D01*
X281482Y109316D01*
X280788Y110517D01*
X279808Y111497D01*
X278607Y112190D01*
X277268Y112549D01*
D02*
G37*
G36*
X235929D02*
X234543D01*
X233204Y112190D01*
X232003Y111497D01*
X231023Y110517D01*
X230329Y109316D01*
X229971Y107977D01*
Y106590D01*
X230329Y105251D01*
X231023Y104050D01*
X232003Y103070D01*
X233204Y102377D01*
X234543Y102018D01*
X235929D01*
X237269Y102377D01*
X238470Y103070D01*
X239450Y104050D01*
X240143Y105251D01*
X240502Y106590D01*
Y107977D01*
X240143Y109316D01*
X239450Y110517D01*
X238470Y111497D01*
X237269Y112190D01*
X235929Y112549D01*
D02*
G37*
G36*
X51725Y106496D02*
X50637D01*
X49586Y106214D01*
X48643Y105670D01*
X47873Y104901D01*
X47329Y103958D01*
X47047Y102906D01*
Y101818D01*
X47329Y100767D01*
X47873Y99824D01*
X48643Y99054D01*
X49586Y98510D01*
X50637Y98228D01*
X51725D01*
X52777Y98510D01*
X53719Y99054D01*
X54489Y99824D01*
X55033Y100767D01*
X55315Y101818D01*
Y102906D01*
X55033Y103958D01*
X54489Y104901D01*
X53719Y105670D01*
X52777Y106214D01*
X51725Y106496D01*
D02*
G37*
G36*
X372752Y110826D02*
X371664D01*
X370613Y110544D01*
X369670Y110000D01*
X368900Y109230D01*
X368356Y108287D01*
X368074Y107236D01*
Y106148D01*
X368356Y105096D01*
X368540Y104777D01*
X368349Y104315D01*
X368089Y104246D01*
X367147Y103702D01*
X366377Y102932D01*
X365833Y101989D01*
X365551Y100938D01*
Y99849D01*
X365833Y98798D01*
X366377Y97855D01*
X367147Y97086D01*
X368089Y96542D01*
X369141Y96260D01*
X370229D01*
X371281Y96542D01*
X372223Y97086D01*
X372244Y97107D01*
X372265Y97086D01*
X373207Y96542D01*
X374259Y96260D01*
X375347D01*
X376399Y96542D01*
X377341Y97086D01*
X378111Y97855D01*
X378655Y98798D01*
X378937Y99849D01*
Y100938D01*
X378655Y101989D01*
X378111Y102932D01*
X377341Y103702D01*
X376399Y104246D01*
X376077Y104332D01*
X375886Y104794D01*
X376060Y105096D01*
X376342Y106148D01*
Y107236D01*
X376060Y108287D01*
X375516Y109230D01*
X374746Y110000D01*
X373804Y110544D01*
X372752Y110826D01*
D02*
G37*
G36*
X300938Y102559D02*
X299850D01*
X298798Y102277D01*
X297855Y101733D01*
X297086Y100963D01*
X296542Y100021D01*
X296260Y98969D01*
Y97881D01*
X296542Y96830D01*
X297086Y95887D01*
X297855Y95117D01*
X298798Y94573D01*
X299850Y94291D01*
X300938D01*
X301989Y94573D01*
X302932Y95117D01*
X303702Y95887D01*
X304246Y96830D01*
X304528Y97881D01*
Y98969D01*
X304246Y100021D01*
X303702Y100963D01*
X302932Y101733D01*
X301989Y102277D01*
X300938Y102559D01*
D02*
G37*
G36*
X346017Y106496D02*
X344928D01*
X343877Y106214D01*
X342934Y105670D01*
X342165Y104901D01*
X341620Y103958D01*
X341339Y102906D01*
Y101818D01*
X341620Y100767D01*
X342165Y99824D01*
X342934Y99054D01*
X343877Y98510D01*
X344928Y98228D01*
X345271D01*
X345307Y98182D01*
Y97094D01*
X345589Y96042D01*
X346133Y95100D01*
X346902Y94330D01*
X347845Y93786D01*
X348897Y93504D01*
X349985D01*
X351036Y93786D01*
X351979Y94330D01*
X352749Y95100D01*
X353293Y96042D01*
X353575Y97094D01*
Y98182D01*
X353293Y99233D01*
X352749Y100176D01*
X351979Y100946D01*
X351036Y101490D01*
X349985Y101772D01*
X349642D01*
X349606Y101818D01*
Y102906D01*
X349325Y103958D01*
X348780Y104901D01*
X348011Y105670D01*
X347068Y106214D01*
X346017Y106496D01*
D02*
G37*
G36*
X358812Y86811D02*
X357723D01*
X356672Y86529D01*
X356299Y86314D01*
X355926Y86529D01*
X354875Y86811D01*
X353786D01*
X352735Y86529D01*
X352362Y86314D01*
X351989Y86529D01*
X350938Y86811D01*
X349850D01*
X348798Y86529D01*
X348425Y86314D01*
X348052Y86529D01*
X347001Y86811D01*
X345913D01*
X344861Y86529D01*
X344488Y86314D01*
X344115Y86529D01*
X343064Y86811D01*
X341975D01*
X340924Y86529D01*
X339981Y85985D01*
X339212Y85215D01*
X338667Y84273D01*
X338386Y83221D01*
Y82133D01*
X338667Y81082D01*
X339212Y80139D01*
X339981Y79369D01*
X340924Y78825D01*
X341975Y78543D01*
X343064D01*
X344115Y78825D01*
X344488Y79040D01*
X344861Y78825D01*
X345913Y78543D01*
X347001D01*
X348052Y78825D01*
X348425Y79040D01*
X348798Y78825D01*
X349850Y78543D01*
X350938D01*
X351989Y78825D01*
X352362Y79040D01*
X352735Y78825D01*
X353786Y78543D01*
X354875D01*
X355926Y78825D01*
X356299Y79040D01*
X356672Y78825D01*
X357723Y78543D01*
X358812D01*
X359863Y78825D01*
X360806Y79369D01*
X361576Y80139D01*
X362120Y81082D01*
X362402Y82133D01*
Y83221D01*
X362120Y84273D01*
X361576Y85215D01*
X360806Y85985D01*
X359863Y86529D01*
X358812Y86811D01*
D02*
G37*
G36*
X300938Y93504D02*
X299850D01*
X298798Y93222D01*
X297855Y92678D01*
X297086Y91908D01*
X296542Y90966D01*
X296260Y89914D01*
Y88826D01*
X296542Y87774D01*
X297086Y86832D01*
X297855Y86062D01*
X298798Y85518D01*
X299850Y85236D01*
X300938D01*
X301989Y85518D01*
X302932Y86062D01*
X303702Y86832D01*
X304246Y87774D01*
X304528Y88826D01*
Y89914D01*
X304246Y90966D01*
X303702Y91908D01*
X302932Y92678D01*
X301989Y93222D01*
X300938Y93504D01*
D02*
G37*
G36*
X56647Y98622D02*
X55558D01*
X54507Y98340D01*
X53564Y97796D01*
X52794Y97026D01*
X52250Y96084D01*
X51968Y95032D01*
Y93944D01*
X52250Y92893D01*
X52794Y91950D01*
X53564Y91180D01*
X53830Y91027D01*
X53764Y90531D01*
X53522Y90466D01*
X52580Y89922D01*
X51810Y89152D01*
X51266Y88210D01*
X50984Y87158D01*
Y86070D01*
X51266Y85019D01*
X51810Y84076D01*
X52580Y83306D01*
X53170Y82966D01*
Y82389D01*
X52580Y82048D01*
X51810Y81278D01*
X51266Y80336D01*
X50984Y79284D01*
Y78196D01*
X51266Y77145D01*
X51810Y76202D01*
X52580Y75432D01*
X53170Y75092D01*
Y74515D01*
X52580Y74174D01*
X51810Y73404D01*
X51266Y72462D01*
X50984Y71410D01*
Y70322D01*
X51266Y69270D01*
X51810Y68328D01*
X52580Y67558D01*
X53522Y67014D01*
X54574Y66732D01*
X55662D01*
X56714Y67014D01*
X57656Y67558D01*
X58426Y68328D01*
X58970Y69270D01*
X59252Y70322D01*
Y71410D01*
X58970Y72462D01*
X58426Y73404D01*
X57656Y74174D01*
X57067Y74515D01*
Y75092D01*
X57656Y75432D01*
X58426Y76202D01*
X58785Y76824D01*
X59322Y76754D01*
X59534Y75963D01*
X60078Y75021D01*
X60848Y74251D01*
X61790Y73707D01*
X62842Y73425D01*
X63930D01*
X64981Y73707D01*
X65924Y74251D01*
X66142Y74469D01*
X66359Y74251D01*
X67302Y73707D01*
X68353Y73425D01*
X69442D01*
X70493Y73707D01*
X71436Y74251D01*
X71653Y74469D01*
X71871Y74251D01*
X72814Y73707D01*
X73865Y73425D01*
X74954D01*
X76005Y73707D01*
X76948Y74251D01*
X77717Y75021D01*
X78262Y75963D01*
X78543Y77015D01*
Y78103D01*
X78267Y79134D01*
X78543Y80164D01*
Y81253D01*
X78267Y82284D01*
X78543Y83314D01*
Y84403D01*
X78271Y85419D01*
X78454Y85734D01*
X78976Y85742D01*
X79369Y85060D01*
X80139Y84290D01*
X81082Y83746D01*
X82133Y83465D01*
X83221D01*
X84273Y83746D01*
X85215Y84290D01*
X85985Y85060D01*
X86529Y86003D01*
X86811Y87054D01*
Y88143D01*
X86529Y89194D01*
X85985Y90137D01*
X85215Y90906D01*
X84273Y91451D01*
X83221Y91732D01*
X82133D01*
X81082Y91451D01*
X80139Y90906D01*
X79369Y90137D01*
X78825Y89194D01*
X78713Y88775D01*
X78658Y88754D01*
X78185Y88736D01*
X77717Y89546D01*
X76948Y90316D01*
X76005Y90860D01*
X74954Y91142D01*
X74941D01*
X74192Y91891D01*
X73249Y92435D01*
X72198Y92716D01*
X71109D01*
X70058Y92435D01*
X69115Y91891D01*
X68898Y91673D01*
X68680Y91891D01*
X67737Y92435D01*
X66686Y92716D01*
X65597D01*
X64546Y92435D01*
X63604Y91891D01*
X62855Y91142D01*
X62842D01*
X61790Y90860D01*
X60848Y90316D01*
X60078Y89546D01*
X59534Y88604D01*
X59458Y88321D01*
X59172Y88256D01*
X58930Y88280D01*
X58426Y89152D01*
X57656Y89922D01*
X57391Y90075D01*
X57456Y90571D01*
X57698Y90636D01*
X58641Y91180D01*
X59410Y91950D01*
X59955Y92893D01*
X60236Y93944D01*
Y95032D01*
X59955Y96084D01*
X59410Y97026D01*
X58641Y97796D01*
X57698Y98340D01*
X56647Y98622D01*
D02*
G37*
G36*
X281840Y92864D02*
X271309D01*
Y82333D01*
X281840D01*
Y92864D01*
D02*
G37*
G36*
X240502D02*
X229971D01*
Y82333D01*
X240502D01*
Y92864D01*
D02*
G37*
G36*
X311568Y94685D02*
X310479D01*
X309428Y94403D01*
X308485Y93859D01*
X307716Y93089D01*
X307172Y92147D01*
X306890Y91095D01*
Y90007D01*
X307172Y88956D01*
X307716Y88013D01*
X308485Y87243D01*
X309428Y86699D01*
X310479Y86417D01*
X310827D01*
Y86070D01*
X311108Y85019D01*
X311653Y84076D01*
X312422Y83306D01*
X313365Y82762D01*
X314416Y82480D01*
X314764D01*
Y82133D01*
X315045Y81082D01*
X315590Y80139D01*
X316359Y79369D01*
X317302Y78825D01*
X318353Y78543D01*
X319442D01*
X320493Y78825D01*
X320866Y79040D01*
X321239Y78825D01*
X322290Y78543D01*
X323379D01*
X324430Y78825D01*
X324803Y79040D01*
X325176Y78825D01*
X326227Y78543D01*
X327316D01*
X328367Y78825D01*
X328740Y79040D01*
X329113Y78825D01*
X330164Y78543D01*
X331253D01*
X332304Y78825D01*
X333247Y79369D01*
X334017Y80139D01*
X334561Y81082D01*
X334842Y82133D01*
Y83221D01*
X334561Y84273D01*
X334017Y85215D01*
X333247Y85985D01*
X332304Y86529D01*
X331253Y86811D01*
X330164D01*
X329113Y86529D01*
X328740Y86314D01*
X328367Y86529D01*
X327316Y86811D01*
X326227D01*
X325176Y86529D01*
X324803Y86314D01*
X324430Y86529D01*
X323379Y86811D01*
X322290D01*
X321239Y86529D01*
X320866Y86314D01*
X320493Y86529D01*
X319442Y86811D01*
X319094D01*
Y87158D01*
X318813Y88210D01*
X318268Y89152D01*
X317499Y89922D01*
X316556Y90466D01*
X315505Y90748D01*
X315158D01*
Y91095D01*
X314876Y92147D01*
X314332Y93089D01*
X313562Y93859D01*
X312619Y94403D01*
X311568Y94685D01*
D02*
G37*
G36*
X231928Y67413D02*
X230839D01*
X229788Y67131D01*
X228846Y66587D01*
X228076Y65817D01*
X227532Y64875D01*
X227250Y63823D01*
Y62735D01*
X227532Y61684D01*
X227671Y61443D01*
X227381Y60942D01*
X227099Y59890D01*
Y58802D01*
X227381Y57750D01*
X227925Y56808D01*
X228695Y56038D01*
X229638Y55494D01*
X230689Y55212D01*
X231778D01*
X232829Y55494D01*
X233772Y56038D01*
X234541Y56808D01*
X235086Y57750D01*
X235367Y58802D01*
Y59890D01*
X235086Y60942D01*
X234946Y61182D01*
X235236Y61684D01*
X235518Y62735D01*
Y63823D01*
X235236Y64875D01*
X234692Y65817D01*
X233922Y66587D01*
X232979Y67131D01*
X231928Y67413D01*
D02*
G37*
G36*
X366686Y63189D02*
X365598D01*
X364546Y62907D01*
X363603Y62363D01*
X362834Y61593D01*
X362290Y60651D01*
X362008Y59599D01*
Y58511D01*
X362290Y57459D01*
X362834Y56517D01*
X363603Y55747D01*
X364193Y55407D01*
Y54829D01*
X363603Y54489D01*
X362834Y53719D01*
X362290Y52777D01*
X362008Y51725D01*
Y50637D01*
X362290Y49586D01*
X362834Y48643D01*
X363603Y47873D01*
X364546Y47329D01*
X365598Y47047D01*
X366686D01*
X367737Y47329D01*
X368680Y47873D01*
X369450Y48643D01*
X369994Y49586D01*
X370276Y50637D01*
Y51725D01*
X369994Y52777D01*
X369450Y53719D01*
X368680Y54489D01*
X368090Y54829D01*
Y55407D01*
X368680Y55747D01*
X369450Y56517D01*
X369994Y57459D01*
X370276Y58511D01*
Y59599D01*
X369994Y60651D01*
X369450Y61593D01*
X368680Y62363D01*
X367737Y62907D01*
X366686Y63189D01*
D02*
G37*
G36*
X271410Y44291D02*
X270322D01*
X269270Y44010D01*
X268328Y43465D01*
X267558Y42696D01*
X267014Y41753D01*
X266900Y41330D01*
X266418Y41200D01*
X266318Y41300D01*
X265375Y41844D01*
X264588Y42055D01*
X264332Y42499D01*
X263562Y43268D01*
X262619Y43813D01*
X261568Y44094D01*
X260479D01*
X259428Y43813D01*
X258485Y43268D01*
X257716Y42499D01*
X257172Y41556D01*
X256890Y40505D01*
X256719Y40374D01*
X256056Y40551D01*
X254968D01*
X253916Y40269D01*
X252974Y39725D01*
X252225Y38976D01*
X252212D01*
X251160Y38695D01*
X250218Y38150D01*
X250000Y37933D01*
X249782Y38150D01*
X248840Y38695D01*
X247788Y38976D01*
X246700D01*
X245649Y38695D01*
X244706Y38150D01*
X243936Y37381D01*
X243392Y36438D01*
X243110Y35387D01*
Y34298D01*
X243386Y33268D01*
X243110Y32237D01*
Y31149D01*
X243386Y30118D01*
X243110Y29087D01*
Y27999D01*
X243392Y26948D01*
X243936Y26005D01*
X244706Y25235D01*
X245649Y24691D01*
X246700Y24409D01*
X246713D01*
X247462Y23661D01*
X248404Y23116D01*
X249456Y22835D01*
X250544D01*
X251596Y23116D01*
X252538Y23661D01*
X253287Y24409D01*
X253300D01*
X254351Y24691D01*
X255294Y25235D01*
X255512Y25453D01*
X255730Y25235D01*
X256672Y24691D01*
X257487Y24473D01*
X257619Y24196D01*
X257680Y23952D01*
X257677Y23929D01*
X257172Y23052D01*
X256890Y22001D01*
Y20912D01*
X256957Y20661D01*
X256672Y20584D01*
X255730Y20040D01*
X255512Y19823D01*
X255294Y20040D01*
X254351Y20584D01*
X253300Y20866D01*
X252212D01*
X251160Y20584D01*
X250218Y20040D01*
X249469Y19291D01*
X249456D01*
X248404Y19010D01*
X247462Y18465D01*
X247244Y18248D01*
X247026Y18465D01*
X246084Y19010D01*
X245032Y19291D01*
X243944D01*
X242893Y19010D01*
X241950Y18465D01*
X241732Y18248D01*
X241515Y18465D01*
X240572Y19010D01*
X239521Y19291D01*
X238432D01*
X237381Y19010D01*
X236438Y18465D01*
X235689Y17717D01*
X235676D01*
X234625Y17435D01*
X233682Y16891D01*
X232913Y16121D01*
X232368Y15178D01*
X232173Y14450D01*
X231749Y14368D01*
X231634Y14370D01*
X230885Y15119D01*
X229942Y15663D01*
X228891Y15945D01*
X227802D01*
X226751Y15663D01*
X225808Y15119D01*
X225039Y14349D01*
X224698Y13760D01*
X224121D01*
X223780Y14349D01*
X223011Y15119D01*
X222068Y15663D01*
X221017Y15945D01*
X219928D01*
X218877Y15663D01*
X217934Y15119D01*
X217164Y14349D01*
X216824Y13760D01*
X216247D01*
X215906Y14349D01*
X215137Y15119D01*
X214194Y15663D01*
X213143Y15945D01*
X212054D01*
X211003Y15663D01*
X210060Y15119D01*
X209291Y14349D01*
X208950Y13760D01*
X208373D01*
X208032Y14349D01*
X207263Y15119D01*
X206320Y15663D01*
X205269Y15945D01*
X204180D01*
X203129Y15663D01*
X202186Y15119D01*
X201416Y14349D01*
X201076Y13760D01*
X200499D01*
X200158Y14349D01*
X199389Y15119D01*
X198446Y15663D01*
X197395Y15945D01*
X196306D01*
X195255Y15663D01*
X194312Y15119D01*
X193543Y14349D01*
X193202Y13760D01*
X192625D01*
X192284Y14349D01*
X191515Y15119D01*
X190572Y15663D01*
X189521Y15945D01*
X188432D01*
X187381Y15663D01*
X186438Y15119D01*
X185669Y14349D01*
X185328Y13760D01*
X184751D01*
X184410Y14349D01*
X183641Y15119D01*
X182698Y15663D01*
X181647Y15945D01*
X180558D01*
X179507Y15663D01*
X178564Y15119D01*
X177795Y14349D01*
X177454Y13760D01*
X176877D01*
X176536Y14349D01*
X175767Y15119D01*
X174824Y15663D01*
X173773Y15945D01*
X172684D01*
X171633Y15663D01*
X170690Y15119D01*
X169920Y14349D01*
X169580Y13760D01*
X169003D01*
X168662Y14349D01*
X167893Y15119D01*
X166950Y15663D01*
X165899Y15945D01*
X164810D01*
X163759Y15663D01*
X162816Y15119D01*
X162046Y14349D01*
X161706Y13760D01*
X161129D01*
X160788Y14349D01*
X160019Y15119D01*
X159076Y15663D01*
X158025Y15945D01*
X156936D01*
X155885Y15663D01*
X154942Y15119D01*
X154172Y14349D01*
X153832Y13760D01*
X153255D01*
X152914Y14349D01*
X152145Y15119D01*
X151202Y15663D01*
X150151Y15945D01*
X149062D01*
X148011Y15663D01*
X147068Y15119D01*
X146298Y14349D01*
X145958Y13760D01*
X145381D01*
X145040Y14349D01*
X144271Y15119D01*
X143328Y15663D01*
X142277Y15945D01*
X141188D01*
X140137Y15663D01*
X139194Y15119D01*
X138424Y14349D01*
X138084Y13760D01*
X137507D01*
X137166Y14349D01*
X136397Y15119D01*
X135454Y15663D01*
X134403Y15945D01*
X133314D01*
X132263Y15663D01*
X131320Y15119D01*
X130550Y14349D01*
X130210Y13760D01*
X129633D01*
X129292Y14349D01*
X128523Y15119D01*
X127580Y15663D01*
X126529Y15945D01*
X125440D01*
X124389Y15663D01*
X123446Y15119D01*
X122676Y14349D01*
X122132Y13407D01*
X121850Y12355D01*
Y11267D01*
X122132Y10215D01*
X122676Y9273D01*
X123446Y8503D01*
X124389Y7959D01*
X125440Y7677D01*
X126529D01*
X127580Y7959D01*
X128523Y8503D01*
X129292Y9273D01*
X129633Y9862D01*
X130210D01*
X130550Y9273D01*
X131320Y8503D01*
X132263Y7959D01*
X133314Y7677D01*
X134403D01*
X135454Y7959D01*
X136397Y8503D01*
X137166Y9273D01*
X137507Y9862D01*
X138084D01*
X138424Y9273D01*
X139194Y8503D01*
X140137Y7959D01*
X141188Y7677D01*
X142277D01*
X143328Y7959D01*
X144271Y8503D01*
X145040Y9273D01*
X145381Y9862D01*
X145958D01*
X146298Y9273D01*
X147068Y8503D01*
X148011Y7959D01*
X149062Y7677D01*
X150151D01*
X151202Y7959D01*
X152145Y8503D01*
X152914Y9273D01*
X153255Y9862D01*
X153832D01*
X154172Y9273D01*
X154942Y8503D01*
X155885Y7959D01*
X156936Y7677D01*
X158025D01*
X159076Y7959D01*
X160019Y8503D01*
X160788Y9273D01*
X161129Y9862D01*
X161706D01*
X162046Y9273D01*
X162816Y8503D01*
X163759Y7959D01*
X164810Y7677D01*
X165899D01*
X166950Y7959D01*
X167893Y8503D01*
X168662Y9273D01*
X169003Y9862D01*
X169580D01*
X169920Y9273D01*
X170690Y8503D01*
X171633Y7959D01*
X172684Y7677D01*
X173773D01*
X174824Y7959D01*
X175767Y8503D01*
X176536Y9273D01*
X176877Y9862D01*
X177454D01*
X177795Y9273D01*
X178564Y8503D01*
X179507Y7959D01*
X180558Y7677D01*
X181647D01*
X182698Y7959D01*
X183641Y8503D01*
X184410Y9273D01*
X184751Y9862D01*
X185328D01*
X185669Y9273D01*
X186438Y8503D01*
X187381Y7959D01*
X188432Y7677D01*
X189521D01*
X190572Y7959D01*
X191515Y8503D01*
X192284Y9273D01*
X192625Y9862D01*
X193202D01*
X193543Y9273D01*
X194312Y8503D01*
X195255Y7959D01*
X196306Y7677D01*
X197395D01*
X198446Y7959D01*
X199389Y8503D01*
X200158Y9273D01*
X200499Y9862D01*
X201076D01*
X201416Y9273D01*
X202186Y8503D01*
X203129Y7959D01*
X204180Y7677D01*
X205269D01*
X206320Y7959D01*
X207263Y8503D01*
X208032Y9273D01*
X208373Y9862D01*
X208950D01*
X209291Y9273D01*
X210060Y8503D01*
X211003Y7959D01*
X212054Y7677D01*
X213143D01*
X214194Y7959D01*
X215137Y8503D01*
X215906Y9273D01*
X216247Y9862D01*
X216824D01*
X217164Y9273D01*
X217934Y8503D01*
X218877Y7959D01*
X219928Y7677D01*
X221017D01*
X222068Y7959D01*
X223011Y8503D01*
X223780Y9273D01*
X224121Y9862D01*
X224698D01*
X225039Y9273D01*
X225808Y8503D01*
X226751Y7959D01*
X227802Y7677D01*
X228891D01*
X229942Y7959D01*
X230885Y8503D01*
X231654Y9273D01*
X232199Y10215D01*
X232394Y10943D01*
X232818Y11026D01*
X232933Y11024D01*
X233682Y10275D01*
X234625Y9730D01*
X235676Y9449D01*
X235689D01*
X236438Y8700D01*
X237381Y8156D01*
X238432Y7874D01*
X238445D01*
X239194Y7125D01*
X240137Y6581D01*
X241188Y6299D01*
X242277D01*
X243328Y6581D01*
X244271Y7125D01*
X244488Y7343D01*
X244706Y7125D01*
X245649Y6581D01*
X246700Y6299D01*
X247788D01*
X248840Y6581D01*
X249782Y7125D01*
X250000Y7343D01*
X250218Y7125D01*
X251160Y6581D01*
X252212Y6299D01*
X253300D01*
X254351Y6581D01*
X255294Y7125D01*
X255512Y7343D01*
X255730Y7125D01*
X256672Y6581D01*
X257723Y6299D01*
X258812D01*
X259863Y6581D01*
X260806Y7125D01*
X261024Y7343D01*
X261241Y7125D01*
X262184Y6581D01*
X263235Y6299D01*
X264324D01*
X265375Y6581D01*
X266318Y7125D01*
X266535Y7343D01*
X266753Y7125D01*
X267696Y6581D01*
X268747Y6299D01*
X269836D01*
X270887Y6581D01*
X271830Y7125D01*
X272047Y7343D01*
X272265Y7125D01*
X273208Y6581D01*
X274259Y6299D01*
X275347D01*
X276399Y6581D01*
X277341Y7125D01*
X277559Y7343D01*
X277777Y7125D01*
X278719Y6581D01*
X279771Y6299D01*
X280859D01*
X281911Y6581D01*
X282853Y7125D01*
X283071Y7343D01*
X283289Y7125D01*
X284231Y6581D01*
X285283Y6299D01*
X286371D01*
X287422Y6581D01*
X288365Y7125D01*
X289114Y7874D01*
X289127D01*
X290178Y8156D01*
X291121Y8700D01*
X291726Y9305D01*
X291968Y9273D01*
X292737Y8503D01*
X293680Y7959D01*
X294731Y7677D01*
X295820D01*
X296871Y7959D01*
X297814Y8503D01*
X298584Y9273D01*
X298924Y9862D01*
X299501D01*
X299842Y9273D01*
X300611Y8503D01*
X301554Y7959D01*
X302605Y7677D01*
X303694D01*
X304745Y7959D01*
X305688Y8503D01*
X306457Y9273D01*
X306798Y9862D01*
X307375D01*
X307716Y9273D01*
X308485Y8503D01*
X309428Y7959D01*
X310479Y7677D01*
X311568D01*
X312619Y7959D01*
X313562Y8503D01*
X314332Y9273D01*
X314672Y9862D01*
X315249D01*
X315590Y9273D01*
X316359Y8503D01*
X317302Y7959D01*
X318353Y7677D01*
X319442D01*
X320493Y7959D01*
X321436Y8503D01*
X322205Y9273D01*
X322546Y9862D01*
X323123D01*
X323464Y9273D01*
X324233Y8503D01*
X325176Y7959D01*
X326227Y7677D01*
X327316D01*
X328367Y7959D01*
X329310Y8503D01*
X330080Y9273D01*
X330624Y10215D01*
X330906Y11267D01*
Y11614D01*
X331253D01*
X332304Y11896D01*
X333247Y12440D01*
X334017Y13210D01*
X334561Y14152D01*
X334842Y15204D01*
Y15551D01*
X335190D01*
X336241Y15833D01*
X337184Y16377D01*
X337954Y17147D01*
X338498Y18089D01*
X338779Y19141D01*
Y20229D01*
X338498Y21281D01*
X337954Y22223D01*
X337184Y22993D01*
X336241Y23537D01*
X335190Y23819D01*
X334101D01*
X333050Y23537D01*
X332107Y22993D01*
X331338Y22223D01*
X330793Y21281D01*
X330512Y20229D01*
Y19882D01*
X330164D01*
X329113Y19600D01*
X328170Y19056D01*
X327401Y18286D01*
X326856Y17344D01*
X326575Y16292D01*
Y15945D01*
X326227D01*
X325176Y15663D01*
X324233Y15119D01*
X323464Y14349D01*
X323123Y13760D01*
X322546D01*
X322205Y14349D01*
X321436Y15119D01*
X320493Y15663D01*
X319442Y15945D01*
X318353D01*
X317302Y15663D01*
X316359Y15119D01*
X315590Y14349D01*
X315249Y13760D01*
X314672D01*
X314332Y14349D01*
X313562Y15119D01*
X312619Y15663D01*
X311568Y15945D01*
X310479D01*
X309428Y15663D01*
X308485Y15119D01*
X307716Y14349D01*
X307375Y13760D01*
X306798D01*
X306457Y14349D01*
X305688Y15119D01*
X304745Y15663D01*
X303694Y15945D01*
X302605D01*
X301554Y15663D01*
X300611Y15119D01*
X299842Y14349D01*
X299501Y13760D01*
X298924D01*
X298584Y14349D01*
X297814Y15119D01*
X296871Y15663D01*
X295820Y15945D01*
X295659D01*
X295472Y16188D01*
Y17277D01*
X295191Y18328D01*
X294647Y19271D01*
X293877Y20040D01*
X292934Y20584D01*
X292649Y20661D01*
X292717Y20912D01*
Y22001D01*
X292435Y23052D01*
X291891Y23995D01*
X291121Y24765D01*
X290178Y25309D01*
X289127Y25591D01*
X289081D01*
X289058Y25631D01*
X288288Y26400D01*
X287346Y26945D01*
X286678Y27124D01*
Y27641D01*
X287422Y27841D01*
X288365Y28385D01*
X289135Y29155D01*
X289679Y30097D01*
X289961Y31149D01*
Y32237D01*
X289685Y33268D01*
X289961Y34298D01*
Y35387D01*
X289685Y36417D01*
X289961Y37448D01*
Y38536D01*
X289679Y39588D01*
X289135Y40530D01*
X288365Y41300D01*
X287422Y41844D01*
X286371Y42126D01*
X286358D01*
X285609Y42875D01*
X284666Y43419D01*
X283615Y43701D01*
X282527D01*
X281475Y43419D01*
X280533Y42875D01*
X280315Y42657D01*
X280097Y42875D01*
X279155Y43419D01*
X278103Y43701D01*
X277015D01*
X275963Y43419D01*
X275021Y42875D01*
X274709Y42563D01*
X274281Y42619D01*
X274154Y42715D01*
X273404Y43465D01*
X272462Y44010D01*
X271410Y44291D01*
D02*
G37*
G36*
X63536Y67126D02*
X62448D01*
X61396Y66844D01*
X60454Y66300D01*
X59684Y65530D01*
X59140Y64588D01*
X58858Y63536D01*
Y62448D01*
X59140Y61396D01*
X59684Y60454D01*
X60454Y59684D01*
X61396Y59140D01*
X62448Y58858D01*
X62795D01*
Y58511D01*
X63077Y57459D01*
X63621Y56517D01*
X64391Y55747D01*
X65333Y55203D01*
X66385Y54921D01*
X67473D01*
X68525Y55203D01*
X69467Y55747D01*
X70237Y56517D01*
X70578Y57107D01*
X71155D01*
X71495Y56517D01*
X72265Y55747D01*
X73207Y55203D01*
X74259Y54921D01*
X75347D01*
X76399Y55203D01*
X77341Y55747D01*
X78111Y56517D01*
X78452Y57107D01*
X79029D01*
X79369Y56517D01*
X80139Y55747D01*
X81082Y55203D01*
X82133Y54921D01*
X83221D01*
X84273Y55203D01*
X85215Y55747D01*
X85985Y56517D01*
X86326Y57107D01*
X86903D01*
X87243Y56517D01*
X88013Y55747D01*
X88956Y55203D01*
X90007Y54921D01*
X90354D01*
Y54574D01*
X90636Y53522D01*
X91180Y52580D01*
X91950Y51810D01*
X92893Y51266D01*
X93944Y50984D01*
X95032D01*
X96084Y51266D01*
X97026Y51810D01*
X97753Y52537D01*
X97985Y52516D01*
X98279Y52416D01*
X98510Y51554D01*
X99054Y50611D01*
X99824Y49842D01*
X100414Y49501D01*
Y48924D01*
X99824Y48583D01*
X99054Y47814D01*
X98510Y46871D01*
X98228Y45820D01*
Y44731D01*
X98510Y43680D01*
X99054Y42737D01*
X99824Y41968D01*
X100767Y41423D01*
X101818Y41142D01*
X102906D01*
X103958Y41423D01*
X104901Y41968D01*
X105670Y42737D01*
X106214Y43680D01*
X106496Y44731D01*
Y45820D01*
X106214Y46871D01*
X105670Y47814D01*
X104901Y48583D01*
X104311Y48924D01*
Y49501D01*
X104901Y49842D01*
X105670Y50611D01*
X106214Y51554D01*
X106496Y52605D01*
Y53694D01*
X106214Y54745D01*
X105670Y55688D01*
X104901Y56458D01*
X104311Y56798D01*
Y57375D01*
X104901Y57716D01*
X105670Y58485D01*
X106214Y59428D01*
X106496Y60479D01*
Y61568D01*
X106214Y62619D01*
X105670Y63562D01*
X104901Y64332D01*
X103958Y64876D01*
X102906Y65158D01*
X101818D01*
X100767Y64876D01*
X99824Y64332D01*
X99054Y63562D01*
X98510Y62619D01*
X98228Y61568D01*
Y60479D01*
X98510Y59428D01*
X99054Y58485D01*
X99824Y57716D01*
X100414Y57375D01*
Y56798D01*
X99824Y56458D01*
X99097Y55730D01*
X98865Y55752D01*
X98571Y55851D01*
X98340Y56714D01*
X97796Y57656D01*
X97026Y58426D01*
X96084Y58970D01*
X95032Y59252D01*
X94685D01*
Y59599D01*
X94403Y60651D01*
X93859Y61593D01*
X93089Y62363D01*
X92147Y62907D01*
X91095Y63189D01*
X90007D01*
X88956Y62907D01*
X88013Y62363D01*
X87243Y61593D01*
X86903Y61004D01*
X86326D01*
X85985Y61593D01*
X85215Y62363D01*
X84273Y62907D01*
X83221Y63189D01*
X82133D01*
X81082Y62907D01*
X80139Y62363D01*
X79369Y61593D01*
X79029Y61004D01*
X78452D01*
X78111Y61593D01*
X77341Y62363D01*
X76399Y62907D01*
X75347Y63189D01*
X74259D01*
X73207Y62907D01*
X72265Y62363D01*
X71495Y61593D01*
X71155Y61004D01*
X70578D01*
X70237Y61593D01*
X69467Y62363D01*
X68525Y62907D01*
X67473Y63189D01*
X67126D01*
Y63536D01*
X66844Y64588D01*
X66300Y65530D01*
X65530Y66300D01*
X64588Y66844D01*
X63536Y67126D01*
D02*
G37*
G36*
X236371Y44291D02*
X235282D01*
X234231Y44010D01*
X233289Y43465D01*
X232519Y42696D01*
X231975Y41753D01*
X231693Y40702D01*
Y39613D01*
X231975Y38562D01*
X232519Y37619D01*
X233289Y36850D01*
X234231Y36305D01*
X235282Y36024D01*
X236371D01*
X237422Y36305D01*
X238365Y36850D01*
X239135Y37619D01*
X239679Y38562D01*
X239961Y39613D01*
Y40702D01*
X239679Y41753D01*
X239135Y42696D01*
X238365Y43465D01*
X237422Y44010D01*
X236371Y44291D01*
D02*
G37*
G36*
X95032Y42067D02*
X93944D01*
X92893Y41785D01*
X91950Y41241D01*
X91180Y40471D01*
X90636Y39529D01*
X90354Y38477D01*
Y37389D01*
X90636Y36338D01*
X91158Y35433D01*
X90636Y34529D01*
X90354Y33477D01*
Y32389D01*
X90636Y31337D01*
X91180Y30395D01*
X91950Y29625D01*
X92893Y29081D01*
X93944Y28799D01*
X95032D01*
X96084Y29081D01*
X97026Y29625D01*
X97796Y30395D01*
X98340Y31337D01*
X98622Y32389D01*
Y33477D01*
X98340Y34529D01*
X97818Y35433D01*
X98340Y36338D01*
X98622Y37389D01*
Y38477D01*
X98340Y39529D01*
X97796Y40471D01*
X97026Y41241D01*
X96084Y41785D01*
X95032Y42067D01*
D02*
G37*
G36*
X112387Y25425D02*
X111298D01*
X110247Y25144D01*
X109304Y24599D01*
X108535Y23830D01*
X107990Y22887D01*
X107709Y21836D01*
Y20747D01*
X107990Y19696D01*
X108535Y18753D01*
X109304Y17983D01*
X110247Y17439D01*
X111298Y17157D01*
X112387D01*
X113438Y17439D01*
X113885Y17697D01*
X114238Y17363D01*
X114255Y17334D01*
X113976Y16292D01*
Y15204D01*
X114258Y14152D01*
X114802Y13210D01*
X115572Y12440D01*
X116515Y11896D01*
X117566Y11614D01*
X118655D01*
X119706Y11896D01*
X120649Y12440D01*
X121418Y13210D01*
X121962Y14152D01*
X122244Y15204D01*
Y16292D01*
X121962Y17344D01*
X121418Y18286D01*
X120649Y19056D01*
X119706Y19600D01*
X118655Y19882D01*
X117566D01*
X116515Y19600D01*
X116068Y19342D01*
X115715Y19677D01*
X115697Y19706D01*
X115976Y20747D01*
Y21836D01*
X115695Y22887D01*
X115150Y23830D01*
X114381Y24599D01*
X113438Y25144D01*
X112387Y25425D01*
D02*
G37*
G36*
X103316Y29948D02*
X102227D01*
X101176Y29666D01*
X100233Y29122D01*
X99464Y28352D01*
X98919Y27410D01*
X98638Y26358D01*
Y25270D01*
X98919Y24218D01*
X99165Y23793D01*
X98919Y23368D01*
X98638Y22317D01*
Y21228D01*
X98919Y20177D01*
X99275Y19561D01*
X98904Y18918D01*
X98622Y17867D01*
Y16779D01*
X98904Y15727D01*
X99005Y15551D01*
X98904Y15375D01*
X98622Y14324D01*
Y13235D01*
X98904Y12184D01*
X99448Y11241D01*
X100218Y10472D01*
X101160Y9927D01*
X102212Y9646D01*
X103300D01*
X104351Y9927D01*
X105294Y10472D01*
X106064Y11241D01*
X106608Y12184D01*
X106890Y13235D01*
Y14324D01*
X106608Y15375D01*
X106506Y15551D01*
X106608Y15727D01*
X106890Y16779D01*
Y17867D01*
X106608Y18918D01*
X106253Y19534D01*
X106624Y20177D01*
X106905Y21228D01*
Y22317D01*
X106624Y23368D01*
X106378Y23793D01*
X106624Y24218D01*
X106905Y25270D01*
Y26358D01*
X106624Y27410D01*
X106079Y28352D01*
X105310Y29122D01*
X104367Y29666D01*
X103316Y29948D01*
D02*
G37*
%LPD*%
M02*
