G04*
G04 #@! TF.GenerationSoftware,Altium Limited,Altium Designer,21.3.1 (25)*
G04*
G04 Layer_Physical_Order=3*
G04 Layer_Color=16440176*
%FSLAX25Y25*%
%MOIN*%
G70*
G04*
G04 #@! TF.SameCoordinates,F328FC2A-BCEF-4A3E-AF1C-DEE79B57D37C*
G04*
G04*
G04 #@! TF.FilePolarity,Positive*
G04*
G01*
G75*
G36*
X389764Y220472D02*
Y178370D01*
X303150Y178370D01*
X302689Y178278D01*
X302298Y178017D01*
X302298Y178017D01*
X279483Y155201D01*
X279221Y154811D01*
X279130Y154350D01*
X278712Y153888D01*
X271309D01*
Y143356D01*
X278323D01*
X278323Y92864D01*
X271309D01*
Y82333D01*
X278712D01*
X279130Y81871D01*
X279171Y81661D01*
X279221Y81410D01*
X279482Y81019D01*
X300330Y60172D01*
X300720Y59911D01*
X301181Y59819D01*
X301181Y59819D01*
X389764D01*
Y15748D01*
X377953Y3937D01*
X112600D01*
X112598Y3943D01*
X111988Y4552D01*
X111193Y4882D01*
X110331D01*
X109535Y4552D01*
X108926Y3943D01*
X108924Y3937D01*
X15748D01*
X3937Y15748D01*
Y220472D01*
X15748Y232283D01*
X29184D01*
X29285Y231795D01*
X27906Y231224D01*
X26665Y230395D01*
X25609Y229339D01*
X24780Y228098D01*
X24209Y226718D01*
X23917Y225254D01*
Y223761D01*
X24209Y222297D01*
X24780Y220918D01*
X25609Y219677D01*
X26665Y218621D01*
X27906Y217792D01*
X29285Y217220D01*
X30750Y216929D01*
X32243D01*
X33707Y217220D01*
X35086Y217792D01*
X36327Y218621D01*
X37383Y219677D01*
X38212Y220918D01*
X38784Y222297D01*
X39075Y223761D01*
Y225254D01*
X38784Y226718D01*
X38212Y228098D01*
X37383Y229339D01*
X36327Y230395D01*
X35086Y231224D01*
X33707Y231795D01*
X33808Y232283D01*
X63483D01*
X63734Y231829D01*
X63722Y231784D01*
X62816Y231261D01*
X62067Y230512D01*
X62054D01*
X61003Y230230D01*
X60060Y229686D01*
X59290Y228916D01*
X58746Y227974D01*
X58465Y226922D01*
Y225834D01*
X58741Y224803D01*
X58465Y223773D01*
Y222684D01*
X58741Y221654D01*
X58465Y220623D01*
Y219534D01*
X58741Y218504D01*
X58465Y217473D01*
Y216385D01*
X58746Y215334D01*
X59290Y214391D01*
X60060Y213621D01*
X61003Y213077D01*
X62054Y212795D01*
X63143D01*
X64194Y213077D01*
X65137Y213621D01*
X65354Y213839D01*
X65572Y213621D01*
X66515Y213077D01*
X67566Y212795D01*
X68655D01*
X69706Y213077D01*
X70648Y213621D01*
X70866Y213839D01*
X71084Y213621D01*
X72026Y213077D01*
X73078Y212795D01*
X74166D01*
X75218Y213077D01*
X76160Y213621D01*
X76930Y214391D01*
X77474Y215334D01*
X77756Y216385D01*
Y217473D01*
X77480Y218504D01*
X77756Y219534D01*
Y220623D01*
X77480Y221654D01*
X77756Y222684D01*
Y223773D01*
X77480Y224803D01*
X77756Y225834D01*
Y226922D01*
X77474Y227974D01*
X76930Y228916D01*
X76160Y229686D01*
X75218Y230230D01*
X74166Y230512D01*
X74153D01*
X73404Y231261D01*
X72499Y231784D01*
X72487Y231829D01*
X72737Y232283D01*
X102165D01*
Y231853D01*
X102495Y231057D01*
X103104Y230448D01*
X103900Y230118D01*
X104761D01*
X105557Y230448D01*
X106166Y231057D01*
X106496Y231853D01*
Y232283D01*
X377953D01*
X389764Y220472D01*
D02*
G37*
G36*
Y61024D02*
X301181D01*
X280334Y81871D01*
X280525Y82333D01*
X281840D01*
Y92864D01*
X279528D01*
X279528Y143356D01*
X281840D01*
Y153888D01*
X280525D01*
X280334Y154350D01*
X303150Y177165D01*
X389764Y177165D01*
Y61024D01*
D02*
G37*
%LPC*%
G36*
X261827Y216374D02*
X260966D01*
X260170Y216045D01*
X259561Y215436D01*
X259231Y214640D01*
Y214552D01*
X258731Y214181D01*
X258025Y214370D01*
X256936D01*
X255885Y214088D01*
X254942Y213544D01*
X254724Y213327D01*
X254507Y213544D01*
X253564Y214088D01*
X252513Y214370D01*
X251424D01*
X250373Y214088D01*
X249430Y213544D01*
X248681Y212795D01*
X248668D01*
X247617Y212514D01*
X246674Y211969D01*
X245905Y211200D01*
X245360Y210257D01*
X245079Y209206D01*
Y208117D01*
X245355Y207087D01*
X245079Y206056D01*
Y204968D01*
X245355Y203937D01*
X245079Y202906D01*
Y201818D01*
X245360Y200767D01*
X245905Y199824D01*
X246674Y199054D01*
X247617Y198510D01*
X248668Y198228D01*
X248681D01*
X249430Y197479D01*
X250373Y196935D01*
X251424Y196654D01*
X252513D01*
X253564Y196935D01*
X254507Y197479D01*
X254732Y197705D01*
X254942Y197495D01*
X255885Y196951D01*
X256640Y196749D01*
X256496Y196213D01*
Y195125D01*
X256778Y194074D01*
X257322Y193131D01*
X258092Y192361D01*
X259034Y191817D01*
X260086Y191535D01*
X261174D01*
X262003Y191758D01*
X262333Y191328D01*
X261896Y190572D01*
X261668Y189723D01*
X260781Y189961D01*
X259692D01*
X258641Y189679D01*
X257698Y189135D01*
X257480Y188917D01*
X257263Y189135D01*
X256320Y189679D01*
X255269Y189961D01*
X254180D01*
X253129Y189679D01*
X252186Y189135D01*
X251969Y188917D01*
X251751Y189135D01*
X250808Y189679D01*
X249757Y189961D01*
X248668D01*
X247617Y189679D01*
X246674Y189135D01*
X245905Y188365D01*
X245360Y187422D01*
X245079Y186371D01*
Y185283D01*
X245355Y184252D01*
X245079Y183221D01*
Y182133D01*
X245355Y181102D01*
X245079Y180072D01*
Y178983D01*
X245360Y177932D01*
X245905Y176989D01*
X246674Y176220D01*
X247617Y175675D01*
X248668Y175394D01*
X248681D01*
X249430Y174645D01*
X250373Y174101D01*
X251424Y173819D01*
X251437D01*
X252186Y173070D01*
X253129Y172526D01*
X254180Y172244D01*
X254193D01*
X254942Y171495D01*
X255885Y170951D01*
X256936Y170669D01*
X256949D01*
X257698Y169921D01*
X258641Y169376D01*
X259692Y169095D01*
X260781D01*
X261832Y169376D01*
X262774Y169921D01*
X262992Y170138D01*
X263210Y169921D01*
X264152Y169376D01*
X265204Y169095D01*
X266292D01*
X267344Y169376D01*
X268286Y169921D01*
X268504Y170138D01*
X268722Y169921D01*
X269664Y169376D01*
X270716Y169095D01*
X271804D01*
X272855Y169376D01*
X273798Y169921D01*
X274547Y170669D01*
X274560D01*
X275611Y170951D01*
X276554Y171495D01*
X277303Y172244D01*
X277316D01*
X278367Y172526D01*
X279310Y173070D01*
X280059Y173819D01*
X280072D01*
X281123Y174101D01*
X282066Y174645D01*
X282815Y175394D01*
X282828D01*
X283879Y175675D01*
X284822Y176220D01*
X285591Y176989D01*
X286136Y177932D01*
X286417Y178983D01*
Y180072D01*
X286141Y181102D01*
X286417Y182133D01*
Y183221D01*
X286141Y184252D01*
X286417Y185283D01*
Y186371D01*
X286141Y187402D01*
X286417Y188432D01*
Y189521D01*
X286136Y190572D01*
X285591Y191515D01*
X284822Y192284D01*
X283879Y192829D01*
X282828Y193110D01*
X282815D01*
X282133Y193792D01*
X282095Y194095D01*
X282133Y194397D01*
X282815Y195079D01*
X282828D01*
X283879Y195361D01*
X284822Y195905D01*
X285591Y196674D01*
X286136Y197617D01*
X286417Y198668D01*
Y199757D01*
X286141Y200787D01*
X286417Y201818D01*
Y202906D01*
X286141Y203937D01*
X286417Y204968D01*
Y206056D01*
X286136Y207107D01*
X285591Y208050D01*
X284822Y208820D01*
X283879Y209364D01*
X282828Y209646D01*
X282815D01*
X282066Y210395D01*
X281123Y210939D01*
X280072Y211221D01*
X278983D01*
X277932Y210939D01*
X276989Y210395D01*
X276772Y210177D01*
X276554Y210395D01*
X275611Y210939D01*
X274560Y211221D01*
X274547D01*
X273798Y211969D01*
X272855Y212514D01*
X271804Y212795D01*
X270716D01*
X269664Y212514D01*
X268722Y211969D01*
X268504Y211752D01*
X268286Y211969D01*
X267344Y212514D01*
X266292Y212795D01*
X265204D01*
X264152Y212514D01*
X263283Y212012D01*
X263246Y212013D01*
X263036Y212082D01*
X262981Y212118D01*
X262938Y212689D01*
X263232Y212982D01*
X263562Y213778D01*
Y214640D01*
X263232Y215436D01*
X262623Y216045D01*
X261827Y216374D01*
D02*
G37*
G36*
X51764Y208770D02*
X50599D01*
X49456Y208542D01*
X48379Y208097D01*
X47410Y207449D01*
X46586Y206625D01*
X46510Y206511D01*
X46010D01*
X45933Y206625D01*
X45109Y207449D01*
X44141Y208097D01*
X43064Y208542D01*
X41921Y208770D01*
X40756D01*
X39613Y208542D01*
X38537Y208097D01*
X37568Y207449D01*
X36744Y206625D01*
X36667Y206511D01*
X36167D01*
X36091Y206625D01*
X35267Y207449D01*
X34298Y208097D01*
X33222Y208542D01*
X32079Y208770D01*
X30913D01*
X29771Y208542D01*
X28694Y208097D01*
X27725Y207449D01*
X26901Y206625D01*
X26825Y206511D01*
X26325D01*
X26248Y206625D01*
X25424Y207449D01*
X24455Y208097D01*
X23379Y208542D01*
X22236Y208770D01*
X21071D01*
X19928Y208542D01*
X18852Y208097D01*
X17883Y207449D01*
X17059Y206625D01*
X16982Y206511D01*
X16482D01*
X16406Y206625D01*
X15582Y207449D01*
X14613Y208097D01*
X13536Y208542D01*
X12394Y208770D01*
X11228D01*
X10086Y208542D01*
X9009Y208097D01*
X8040Y207449D01*
X7216Y206625D01*
X6569Y205656D01*
X6123Y204580D01*
X5896Y203437D01*
Y202272D01*
X6123Y201129D01*
X6569Y200052D01*
X7216Y199083D01*
X8040Y198260D01*
X9009Y197612D01*
X9974Y197212D01*
X10020Y197012D01*
Y196885D01*
X9974Y196685D01*
X9009Y196285D01*
X8040Y195638D01*
X7216Y194814D01*
X6569Y193845D01*
X6123Y192769D01*
X5896Y191626D01*
Y190461D01*
X6123Y189318D01*
X6569Y188241D01*
X7216Y187273D01*
X8040Y186449D01*
X9009Y185801D01*
X10086Y185355D01*
X11228Y185128D01*
X12394D01*
X13536Y185355D01*
X14613Y185801D01*
X15582Y186449D01*
X16406Y187273D01*
X16482Y187387D01*
X16982D01*
X17059Y187273D01*
X17883Y186449D01*
X18852Y185801D01*
X19928Y185355D01*
X21071Y185128D01*
X22236D01*
X23379Y185355D01*
X24455Y185801D01*
X25424Y186449D01*
X26248Y187273D01*
X26325Y187387D01*
X26825D01*
X26901Y187273D01*
X27725Y186449D01*
X28694Y185801D01*
X29771Y185355D01*
X30913Y185128D01*
X32079D01*
X33222Y185355D01*
X34298Y185801D01*
X35267Y186449D01*
X36091Y187273D01*
X36167Y187387D01*
X36667D01*
X36744Y187273D01*
X37568Y186449D01*
X38537Y185801D01*
X39613Y185355D01*
X40756Y185128D01*
X41921D01*
X43064Y185355D01*
X44141Y185801D01*
X45109Y186449D01*
X45933Y187273D01*
X46010Y187387D01*
X46510D01*
X46586Y187273D01*
X47410Y186449D01*
X48379Y185801D01*
X49456Y185355D01*
X50599Y185128D01*
X51764D01*
X52907Y185355D01*
X53983Y185801D01*
X54952Y186449D01*
X55776Y187273D01*
X56423Y188241D01*
X56869Y189318D01*
X57096Y190461D01*
Y191626D01*
X56869Y192769D01*
X56423Y193845D01*
X56013Y194459D01*
X56158Y194938D01*
X56345Y195015D01*
X56954Y195624D01*
X57284Y196420D01*
Y197281D01*
X56954Y198077D01*
X56345Y198686D01*
X56140Y198771D01*
X55974Y199381D01*
X56423Y200052D01*
X56869Y201129D01*
X57096Y202272D01*
Y203437D01*
X56869Y204580D01*
X56423Y205656D01*
X55776Y206625D01*
X54952Y207449D01*
X53983Y208097D01*
X52907Y208542D01*
X51764Y208770D01*
D02*
G37*
G36*
X74166Y197047D02*
X73078D01*
X72026Y196765D01*
X71084Y196221D01*
X70866Y196004D01*
X70648Y196221D01*
X69706Y196765D01*
X68655Y197047D01*
X67566D01*
X66515Y196765D01*
X65572Y196221D01*
X65354Y196004D01*
X65137Y196221D01*
X64194Y196765D01*
X63143Y197047D01*
X62054D01*
X61003Y196765D01*
X60060Y196221D01*
X59290Y195452D01*
X58746Y194509D01*
X58465Y193458D01*
Y192369D01*
X58741Y191339D01*
X58465Y190308D01*
Y189220D01*
X58741Y188189D01*
X58465Y187158D01*
Y186070D01*
X58741Y185039D01*
X58465Y184009D01*
Y182920D01*
X58746Y181869D01*
X59290Y180926D01*
X60060Y180157D01*
X61003Y179612D01*
X62054Y179331D01*
X62067D01*
X62816Y178582D01*
X63759Y178038D01*
X64810Y177756D01*
X65899D01*
X66950Y178038D01*
X67893Y178582D01*
X68110Y178799D01*
X68328Y178582D01*
X69270Y178038D01*
X70322Y177756D01*
X71410D01*
X72462Y178038D01*
X73404Y178582D01*
X74153Y179331D01*
X74166D01*
X75218Y179612D01*
X76160Y180157D01*
X76930Y180926D01*
X77474Y181869D01*
X77756Y182920D01*
Y184009D01*
X77480Y185039D01*
X77756Y186070D01*
Y187158D01*
X77480Y188189D01*
X77756Y189220D01*
Y190308D01*
X77480Y191339D01*
X77756Y192369D01*
Y193458D01*
X77474Y194509D01*
X76930Y195452D01*
X76160Y196221D01*
X75218Y196765D01*
X74166Y197047D01*
D02*
G37*
G36*
X83108Y193110D02*
X82247D01*
X81451Y192781D01*
X80841Y192172D01*
X80512Y191376D01*
Y190514D01*
X80841Y189718D01*
X81451Y189109D01*
X82247Y188779D01*
X83108D01*
X83904Y189109D01*
X84513Y189718D01*
X84842Y190514D01*
Y191376D01*
X84513Y192172D01*
X83904Y192781D01*
X83108Y193110D01*
D02*
G37*
G36*
X231843Y181299D02*
X230755D01*
X229704Y181017D01*
X228761Y180473D01*
X227991Y179704D01*
X227447Y178761D01*
X227165Y177710D01*
Y176621D01*
X227447Y175570D01*
X227662Y175197D01*
X227447Y174824D01*
X227165Y173773D01*
Y172684D01*
X227447Y171633D01*
X227991Y170690D01*
X228761Y169920D01*
X229704Y169376D01*
X230755Y169095D01*
X231843D01*
X232895Y169376D01*
X233838Y169920D01*
X234607Y170690D01*
X235151Y171633D01*
X235433Y172684D01*
Y173773D01*
X235151Y174824D01*
X234936Y175197D01*
X235151Y175570D01*
X235433Y176621D01*
Y177710D01*
X235151Y178761D01*
X234607Y179704D01*
X233838Y180473D01*
X232895Y181017D01*
X231843Y181299D01*
D02*
G37*
G36*
X51764Y165463D02*
X50599D01*
X49456Y165235D01*
X48379Y164789D01*
X47410Y164142D01*
X46586Y163318D01*
X46510Y163204D01*
X46010D01*
X45933Y163318D01*
X45109Y164142D01*
X44141Y164789D01*
X43064Y165235D01*
X41921Y165463D01*
X40756D01*
X39613Y165235D01*
X38537Y164789D01*
X37568Y164142D01*
X36744Y163318D01*
X36667Y163204D01*
X36167D01*
X36091Y163318D01*
X35267Y164142D01*
X34298Y164789D01*
X33222Y165235D01*
X32079Y165463D01*
X30913D01*
X29771Y165235D01*
X28694Y164789D01*
X27725Y164142D01*
X26901Y163318D01*
X26825Y163204D01*
X26325D01*
X26248Y163318D01*
X25424Y164142D01*
X24455Y164789D01*
X23379Y165235D01*
X22236Y165463D01*
X21071D01*
X19928Y165235D01*
X18852Y164789D01*
X17883Y164142D01*
X17059Y163318D01*
X16982Y163204D01*
X16482D01*
X16406Y163318D01*
X15582Y164142D01*
X14613Y164789D01*
X13536Y165235D01*
X12394Y165463D01*
X11228D01*
X10086Y165235D01*
X9009Y164789D01*
X8040Y164142D01*
X7216Y163318D01*
X6569Y162349D01*
X6123Y161273D01*
X5896Y160130D01*
Y158965D01*
X6123Y157822D01*
X6569Y156745D01*
X7216Y155776D01*
X8040Y154953D01*
X9009Y154305D01*
X9974Y153905D01*
X10020Y153706D01*
Y153578D01*
X9974Y153378D01*
X9009Y152978D01*
X8040Y152331D01*
X7216Y151507D01*
X6569Y150538D01*
X6123Y149462D01*
X5896Y148319D01*
Y147154D01*
X6123Y146011D01*
X6569Y144934D01*
X7216Y143965D01*
X8040Y143141D01*
X8155Y143065D01*
Y142565D01*
X8040Y142489D01*
X7216Y141665D01*
X6569Y140696D01*
X6123Y139619D01*
X5896Y138476D01*
Y137311D01*
X6123Y136168D01*
X6569Y135092D01*
X7216Y134123D01*
X8040Y133299D01*
X9009Y132652D01*
X9974Y132252D01*
X10020Y132052D01*
Y131924D01*
X9974Y131725D01*
X9009Y131325D01*
X8040Y130677D01*
X7216Y129853D01*
X6569Y128885D01*
X6123Y127808D01*
X5896Y126665D01*
Y125500D01*
X6123Y124357D01*
X6569Y123281D01*
X7216Y122312D01*
X8040Y121488D01*
X9009Y120841D01*
X10086Y120395D01*
X11228Y120167D01*
X12394D01*
X13536Y120395D01*
X14613Y120841D01*
X15582Y121488D01*
X16406Y122312D01*
X16482Y122426D01*
X16982D01*
X17059Y122312D01*
X17883Y121488D01*
X18852Y120841D01*
X19928Y120395D01*
X21071Y120167D01*
X22236D01*
X23379Y120395D01*
X24455Y120841D01*
X25424Y121488D01*
X26248Y122312D01*
X26325Y122426D01*
X26825D01*
X26901Y122312D01*
X27725Y121488D01*
X28694Y120841D01*
X29771Y120395D01*
X30913Y120167D01*
X32079D01*
X33222Y120395D01*
X34298Y120841D01*
X35267Y121488D01*
X36091Y122312D01*
X36167Y122426D01*
X36667D01*
X36744Y122312D01*
X37568Y121488D01*
X38537Y120841D01*
X39613Y120395D01*
X40756Y120167D01*
X41921D01*
X43064Y120395D01*
X44141Y120841D01*
X45109Y121488D01*
X45933Y122312D01*
X46010Y122426D01*
X46510D01*
X46586Y122312D01*
X47410Y121488D01*
X48379Y120841D01*
X49456Y120395D01*
X50599Y120167D01*
X51764D01*
X52907Y120395D01*
X53983Y120841D01*
X54952Y121488D01*
X55776Y122312D01*
X56423Y123281D01*
X56869Y124357D01*
X57096Y125500D01*
Y126665D01*
X56869Y127808D01*
X56423Y128885D01*
X55776Y129853D01*
X54952Y130677D01*
X53983Y131325D01*
X53018Y131725D01*
X52972Y131924D01*
Y132052D01*
X53018Y132252D01*
X53983Y132652D01*
X54952Y133299D01*
X55776Y134123D01*
X56423Y135092D01*
X56869Y136168D01*
X57096Y137311D01*
Y138476D01*
X56869Y139619D01*
X56423Y140696D01*
X55776Y141665D01*
X54952Y142489D01*
X54837Y142565D01*
Y143065D01*
X54952Y143141D01*
X55776Y143965D01*
X56423Y144934D01*
X56869Y146011D01*
X57096Y147154D01*
Y148319D01*
X56869Y149462D01*
X56423Y150538D01*
X55776Y151507D01*
X54952Y152331D01*
X53983Y152978D01*
X53018Y153378D01*
X52972Y153578D01*
Y153706D01*
X53018Y153905D01*
X53983Y154305D01*
X54952Y154953D01*
X55776Y155776D01*
X56423Y156745D01*
X56869Y157822D01*
X57096Y158965D01*
Y160130D01*
X56869Y161273D01*
X56423Y162349D01*
X55776Y163318D01*
X54952Y164142D01*
X53983Y164789D01*
X52907Y165235D01*
X51764Y165463D01*
D02*
G37*
G36*
X240502Y153888D02*
X229971D01*
Y143356D01*
X240502D01*
Y153888D01*
D02*
G37*
G36*
X83022Y147982D02*
X72490D01*
Y137451D01*
X83022D01*
Y147982D01*
D02*
G37*
G36*
X63926Y127484D02*
X62837D01*
X61786Y127202D01*
X60843Y126658D01*
X60074Y125889D01*
X59530Y124946D01*
X59248Y123895D01*
Y122806D01*
X59524Y121776D01*
X59248Y120745D01*
Y119657D01*
X59524Y118626D01*
X59248Y117595D01*
Y116507D01*
X59524Y115476D01*
X59248Y114446D01*
Y113357D01*
X59530Y112306D01*
X60074Y111363D01*
X60843Y110594D01*
X61786Y110049D01*
X62764Y109787D01*
X62834Y109667D01*
X63604Y108897D01*
X64546Y108353D01*
X65597Y108071D01*
X66686D01*
X67737Y108353D01*
X68680Y108897D01*
X68898Y109115D01*
X69115Y108897D01*
X70058Y108353D01*
X71109Y108071D01*
X72198D01*
X73249Y108353D01*
X74192Y108897D01*
X74941Y109646D01*
X74954D01*
X76005Y109927D01*
X76948Y110472D01*
X77717Y111241D01*
X78262Y112184D01*
X78543Y113235D01*
Y114324D01*
X78267Y115354D01*
X78543Y116385D01*
Y117473D01*
X78267Y118504D01*
X78543Y119535D01*
Y120623D01*
X78267Y121653D01*
X78543Y122684D01*
Y123773D01*
X78262Y124824D01*
X77717Y125767D01*
X76948Y126536D01*
X76005Y127081D01*
X74954Y127362D01*
X73865D01*
X72814Y127081D01*
X71871Y126536D01*
X71653Y126319D01*
X71436Y126536D01*
X70493Y127081D01*
X69442Y127362D01*
X68353D01*
X67302Y127081D01*
X66359Y126536D01*
X66201Y126377D01*
X65920Y126658D01*
X64977Y127202D01*
X63926Y127484D01*
D02*
G37*
G36*
X197997Y132677D02*
X195704D01*
X193439Y132318D01*
X191259Y131610D01*
X189216Y130569D01*
X187361Y129221D01*
X185739Y127600D01*
X184392Y125745D01*
X183351Y123702D01*
X182642Y121521D01*
X182283Y119257D01*
Y116964D01*
X182642Y114699D01*
X183351Y112519D01*
X184392Y110476D01*
X185739Y108621D01*
X187361Y106999D01*
X189216Y105651D01*
X191259Y104611D01*
X193439Y103902D01*
X195704Y103543D01*
X197997D01*
X200261Y103902D01*
X202442Y104611D01*
X204485Y105651D01*
X206340Y106999D01*
X207961Y108621D01*
X209309Y110476D01*
X210350Y112519D01*
X211059Y114699D01*
X211417Y116964D01*
Y119257D01*
X211059Y121521D01*
X210350Y123702D01*
X209309Y125745D01*
X207961Y127600D01*
X206340Y129221D01*
X204485Y130569D01*
X202442Y131610D01*
X200261Y132318D01*
X197997Y132677D01*
D02*
G37*
G36*
X38288Y110069D02*
X37145D01*
X36041Y109773D01*
X35051Y109202D01*
X34243Y108394D01*
X33672Y107404D01*
X33376Y106300D01*
Y105157D01*
X33672Y104053D01*
X34243Y103063D01*
X35051Y102255D01*
X36041Y101684D01*
X37145Y101388D01*
X38288D01*
X39392Y101684D01*
X40382Y102255D01*
X41190Y103063D01*
X41761Y104053D01*
X42057Y105157D01*
Y106300D01*
X41761Y107404D01*
X41190Y108394D01*
X40382Y109202D01*
X39392Y109773D01*
X38288Y110069D01*
D02*
G37*
G36*
X28288D02*
X27145D01*
X26041Y109773D01*
X25051Y109202D01*
X24243Y108394D01*
X23672Y107404D01*
X23376Y106300D01*
Y105157D01*
X23672Y104053D01*
X24243Y103063D01*
X25051Y102255D01*
X26041Y101684D01*
X27145Y101388D01*
X28288D01*
X29392Y101684D01*
X30382Y102255D01*
X31190Y103063D01*
X31761Y104053D01*
X32057Y105157D01*
Y106300D01*
X31761Y107404D01*
X31190Y108394D01*
X30382Y109202D01*
X29392Y109773D01*
X28288Y110069D01*
D02*
G37*
G36*
X18288D02*
X17145D01*
X16041Y109773D01*
X15051Y109202D01*
X14243Y108394D01*
X13672Y107404D01*
X13376Y106300D01*
Y105157D01*
X13672Y104053D01*
X14243Y103063D01*
X15051Y102255D01*
X16041Y101684D01*
X17145Y101388D01*
X18288D01*
X19392Y101684D01*
X20382Y102255D01*
X21190Y103063D01*
X21761Y104053D01*
X22057Y105157D01*
Y106300D01*
X21761Y107404D01*
X21190Y108394D01*
X20382Y109202D01*
X19392Y109773D01*
X18288Y110069D01*
D02*
G37*
G36*
X93935Y105512D02*
X93073D01*
X92277Y105182D01*
X91668Y104573D01*
X91339Y103777D01*
Y102916D01*
X91668Y102120D01*
X92277Y101511D01*
X93073Y101181D01*
X93935D01*
X94731Y101511D01*
X95340Y102120D01*
X95669Y102916D01*
Y103777D01*
X95340Y104573D01*
X94731Y105182D01*
X93935Y105512D01*
D02*
G37*
G36*
X56533Y96653D02*
X55672D01*
X54876Y96324D01*
X54267Y95715D01*
X53937Y94919D01*
Y94058D01*
X54267Y93262D01*
X54876Y92652D01*
X55672Y92323D01*
X56533D01*
X57329Y92652D01*
X57938Y93262D01*
X58268Y94058D01*
Y94919D01*
X57938Y95715D01*
X57329Y96324D01*
X56533Y96653D01*
D02*
G37*
G36*
X72198Y92716D02*
X71109D01*
X70058Y92435D01*
X69115Y91891D01*
X68898Y91673D01*
X68680Y91891D01*
X67737Y92435D01*
X66686Y92716D01*
X65597D01*
X64546Y92435D01*
X63604Y91891D01*
X62855Y91142D01*
X62842D01*
X61790Y90860D01*
X60848Y90316D01*
X60078Y89546D01*
X59534Y88604D01*
X59252Y87552D01*
Y86464D01*
X59528Y85433D01*
X59252Y84403D01*
Y83314D01*
X59528Y82284D01*
X59252Y81253D01*
Y80164D01*
X59528Y79134D01*
X59252Y78103D01*
Y77015D01*
X59534Y75963D01*
X60078Y75021D01*
X60848Y74251D01*
X61790Y73707D01*
X62842Y73425D01*
X63930D01*
X64981Y73707D01*
X65924Y74251D01*
X66142Y74469D01*
X66359Y74251D01*
X67302Y73707D01*
X68353Y73425D01*
X69442D01*
X70493Y73707D01*
X71436Y74251D01*
X71653Y74469D01*
X71871Y74251D01*
X72814Y73707D01*
X73865Y73425D01*
X74954D01*
X76005Y73707D01*
X76948Y74251D01*
X77717Y75021D01*
X78262Y75963D01*
X78543Y77015D01*
Y78103D01*
X78267Y79134D01*
X78543Y80164D01*
Y81253D01*
X78267Y82284D01*
X78543Y83314D01*
Y84403D01*
X78267Y85433D01*
X78543Y86464D01*
Y87552D01*
X78262Y88604D01*
X77717Y89546D01*
X76948Y90316D01*
X76005Y90860D01*
X74954Y91142D01*
X74941D01*
X74192Y91891D01*
X73249Y92435D01*
X72198Y92716D01*
D02*
G37*
G36*
X38288Y100069D02*
X37145D01*
X36041Y99773D01*
X35051Y99202D01*
X34243Y98393D01*
X33672Y97404D01*
X33376Y96300D01*
Y95157D01*
X33672Y94053D01*
X34243Y93063D01*
X35051Y92255D01*
X36041Y91684D01*
X37145Y91388D01*
X38288D01*
X39392Y91684D01*
X40382Y92255D01*
X41190Y93063D01*
X41761Y94053D01*
X42057Y95157D01*
Y96300D01*
X41761Y97404D01*
X41190Y98393D01*
X40382Y99202D01*
X39392Y99773D01*
X38288Y100069D01*
D02*
G37*
G36*
X28288D02*
X27145D01*
X26041Y99773D01*
X25051Y99202D01*
X24243Y98393D01*
X23672Y97404D01*
X23376Y96300D01*
Y95157D01*
X23672Y94053D01*
X24243Y93063D01*
X25051Y92255D01*
X26041Y91684D01*
X27145Y91388D01*
X28288D01*
X29392Y91684D01*
X30382Y92255D01*
X31190Y93063D01*
X31761Y94053D01*
X32057Y95157D01*
Y96300D01*
X31761Y97404D01*
X31190Y98393D01*
X30382Y99202D01*
X29392Y99773D01*
X28288Y100069D01*
D02*
G37*
G36*
X18288D02*
X17145D01*
X16041Y99773D01*
X15051Y99202D01*
X14243Y98393D01*
X13672Y97404D01*
X13376Y96300D01*
Y95157D01*
X13672Y94053D01*
X14243Y93063D01*
X15051Y92255D01*
X16041Y91684D01*
X17145Y91388D01*
X18288D01*
X19392Y91684D01*
X20382Y92255D01*
X21190Y93063D01*
X21761Y94053D01*
X22057Y95157D01*
Y96300D01*
X21761Y97404D01*
X21190Y98393D01*
X20382Y99202D01*
X19392Y99773D01*
X18288Y100069D01*
D02*
G37*
G36*
X83108Y89764D02*
X82247D01*
X81451Y89434D01*
X80841Y88825D01*
X80512Y88029D01*
Y87168D01*
X80841Y86372D01*
X81451Y85763D01*
X82247Y85433D01*
X83108D01*
X83904Y85763D01*
X84513Y86372D01*
X84842Y87168D01*
Y88029D01*
X84513Y88825D01*
X83904Y89434D01*
X83108Y89764D01*
D02*
G37*
G36*
X240502Y92864D02*
X229971D01*
Y82333D01*
X240502D01*
Y92864D01*
D02*
G37*
G36*
X38288Y90069D02*
X37145D01*
X36041Y89773D01*
X35051Y89202D01*
X34243Y88393D01*
X33672Y87404D01*
X33376Y86300D01*
Y85157D01*
X33672Y84053D01*
X34243Y83063D01*
X35051Y82255D01*
X36041Y81684D01*
X37145Y81388D01*
X38288D01*
X39392Y81684D01*
X40382Y82255D01*
X41190Y83063D01*
X41761Y84053D01*
X42057Y85157D01*
Y86300D01*
X41761Y87404D01*
X41190Y88393D01*
X40382Y89202D01*
X39392Y89773D01*
X38288Y90069D01*
D02*
G37*
G36*
X28288D02*
X27145D01*
X26041Y89773D01*
X25051Y89202D01*
X24243Y88393D01*
X23672Y87404D01*
X23376Y86300D01*
Y85157D01*
X23672Y84053D01*
X24243Y83063D01*
X25051Y82255D01*
X26041Y81684D01*
X27145Y81388D01*
X28288D01*
X29392Y81684D01*
X30382Y82255D01*
X31190Y83063D01*
X31761Y84053D01*
X32057Y85157D01*
Y86300D01*
X31761Y87404D01*
X31190Y88393D01*
X30382Y89202D01*
X29392Y89773D01*
X28288Y90069D01*
D02*
G37*
G36*
X18288D02*
X17145D01*
X16041Y89773D01*
X15051Y89202D01*
X14243Y88393D01*
X13672Y87404D01*
X13376Y86300D01*
Y85157D01*
X13672Y84053D01*
X14243Y83063D01*
X15051Y82255D01*
X16041Y81684D01*
X17145Y81388D01*
X18288D01*
X19392Y81684D01*
X20382Y82255D01*
X21190Y83063D01*
X21761Y84053D01*
X22057Y85157D01*
Y86300D01*
X21761Y87404D01*
X21190Y88393D01*
X20382Y89202D01*
X19392Y89773D01*
X18288Y90069D01*
D02*
G37*
G36*
X38288Y80069D02*
X37145D01*
X36041Y79773D01*
X35051Y79202D01*
X34243Y78394D01*
X33672Y77404D01*
X33376Y76300D01*
Y75157D01*
X33672Y74053D01*
X34243Y73063D01*
X35051Y72255D01*
X36041Y71684D01*
X37145Y71388D01*
X38288D01*
X39392Y71684D01*
X40382Y72255D01*
X41190Y73063D01*
X41761Y74053D01*
X42057Y75157D01*
Y76300D01*
X41761Y77404D01*
X41190Y78394D01*
X40382Y79202D01*
X39392Y79773D01*
X38288Y80069D01*
D02*
G37*
G36*
X28288D02*
X27145D01*
X26041Y79773D01*
X25051Y79202D01*
X24243Y78394D01*
X23672Y77404D01*
X23376Y76300D01*
Y75157D01*
X23672Y74053D01*
X24243Y73063D01*
X25051Y72255D01*
X26041Y71684D01*
X27145Y71388D01*
X28288D01*
X29392Y71684D01*
X30382Y72255D01*
X31190Y73063D01*
X31761Y74053D01*
X32057Y75157D01*
Y76300D01*
X31761Y77404D01*
X31190Y78394D01*
X30382Y79202D01*
X29392Y79773D01*
X28288Y80069D01*
D02*
G37*
G36*
X18288D02*
X17145D01*
X16041Y79773D01*
X15051Y79202D01*
X14243Y78394D01*
X13672Y77404D01*
X13376Y76300D01*
Y75157D01*
X13672Y74053D01*
X14243Y73063D01*
X15051Y72255D01*
X16041Y71684D01*
X17145Y71388D01*
X18288D01*
X19392Y71684D01*
X20382Y72255D01*
X21190Y73063D01*
X21761Y74053D01*
X22057Y75157D01*
Y76300D01*
X21761Y77404D01*
X21190Y78394D01*
X20382Y79202D01*
X19392Y79773D01*
X18288Y80069D01*
D02*
G37*
G36*
X272591Y66535D02*
X271503D01*
X270452Y66254D01*
X269509Y65710D01*
X269291Y65492D01*
X269074Y65710D01*
X268131Y66254D01*
X267080Y66535D01*
X265991D01*
X264940Y66254D01*
X263997Y65710D01*
X263779Y65492D01*
X263562Y65710D01*
X262619Y66254D01*
X261568Y66535D01*
X260479D01*
X259428Y66254D01*
X258485Y65710D01*
X257736Y64961D01*
X257723D01*
X256672Y64679D01*
X255730Y64135D01*
X254981Y63386D01*
X254968D01*
X253916Y63104D01*
X252974Y62560D01*
X252225Y61811D01*
X252212D01*
X251160Y61529D01*
X250218Y60985D01*
X249469Y60236D01*
X249456D01*
X248404Y59955D01*
X247462Y59410D01*
X246692Y58641D01*
X246148Y57698D01*
X245866Y56647D01*
Y55558D01*
X246142Y54527D01*
X245866Y53497D01*
Y52408D01*
X246142Y51378D01*
X245866Y50347D01*
Y49259D01*
X246148Y48208D01*
X246692Y47265D01*
X247462Y46495D01*
X248404Y45951D01*
X249456Y45669D01*
X249469D01*
X250218Y44920D01*
X251160Y44376D01*
X252212Y44094D01*
X253300D01*
X254351Y44376D01*
X255294Y44920D01*
X255512Y45138D01*
X255730Y44920D01*
X256672Y44376D01*
X257723Y44094D01*
X258812D01*
X259006Y44146D01*
X259199Y43681D01*
X258485Y43268D01*
X257716Y42499D01*
X257172Y41556D01*
X256890Y40505D01*
X256719Y40374D01*
X256056Y40551D01*
X254968D01*
X253916Y40269D01*
X252974Y39725D01*
X252225Y38976D01*
X252212D01*
X251160Y38695D01*
X250218Y38150D01*
X250000Y37933D01*
X249782Y38150D01*
X248840Y38695D01*
X247788Y38976D01*
X246700D01*
X245649Y38695D01*
X244706Y38150D01*
X243936Y37381D01*
X243392Y36438D01*
X243110Y35387D01*
Y34298D01*
X243386Y33268D01*
X243110Y32237D01*
Y31149D01*
X243386Y30118D01*
X243110Y29087D01*
Y27999D01*
X243392Y26948D01*
X243936Y26005D01*
X244706Y25235D01*
X245649Y24691D01*
X246700Y24409D01*
X246713D01*
X247462Y23661D01*
X248404Y23116D01*
X249456Y22835D01*
X250544D01*
X251596Y23116D01*
X252538Y23661D01*
X253287Y24409D01*
X253300D01*
X254351Y24691D01*
X255294Y25235D01*
X255512Y25453D01*
X255730Y25235D01*
X256672Y24691D01*
X257723Y24409D01*
X258812D01*
X259863Y24691D01*
X260806Y25235D01*
X261024Y25453D01*
X261241Y25235D01*
X262184Y24691D01*
X263235Y24409D01*
X264324D01*
X265375Y24691D01*
X266318Y25235D01*
X266535Y25453D01*
X266753Y25235D01*
X267696Y24691D01*
X268747Y24409D01*
X269836D01*
X270887Y24691D01*
X271830Y25235D01*
X272047Y25453D01*
X272265Y25235D01*
X273207Y24691D01*
X274259Y24409D01*
X275347D01*
X276399Y24691D01*
X277341Y25235D01*
X277559Y25453D01*
X277777Y25235D01*
X278719Y24691D01*
X279771Y24409D01*
X280859D01*
X281911Y24691D01*
X282853Y25235D01*
X283602Y25984D01*
X283615D01*
X284666Y26266D01*
X285609Y26810D01*
X286358Y27559D01*
X286371D01*
X287422Y27841D01*
X288365Y28385D01*
X289135Y29155D01*
X289679Y30097D01*
X289961Y31149D01*
Y32237D01*
X289685Y33268D01*
X289961Y34298D01*
Y35387D01*
X289685Y36417D01*
X289961Y37448D01*
Y38536D01*
X289679Y39588D01*
X289135Y40530D01*
X288365Y41300D01*
X287422Y41844D01*
X286371Y42126D01*
X286358D01*
X285609Y42875D01*
X284666Y43419D01*
X283615Y43701D01*
X282527D01*
X281475Y43419D01*
X280652Y42944D01*
X280415Y43017D01*
X280320Y43351D01*
X280352Y43600D01*
X280846Y44094D01*
X280859D01*
X281911Y44376D01*
X282853Y44920D01*
X283602Y45669D01*
X283615D01*
X284666Y45951D01*
X285609Y46495D01*
X286379Y47265D01*
X286923Y48208D01*
X287205Y49259D01*
Y50347D01*
X286929Y51378D01*
X287205Y52408D01*
Y53497D01*
X286929Y54527D01*
X287205Y55558D01*
Y56647D01*
X286923Y57698D01*
X286379Y58641D01*
X285609Y59410D01*
X284666Y59955D01*
X283615Y60236D01*
X283602D01*
X282853Y60985D01*
X281911Y61529D01*
X280859Y61811D01*
X280846D01*
X280097Y62560D01*
X279155Y63104D01*
X278103Y63386D01*
X278090D01*
X277341Y64135D01*
X276399Y64679D01*
X275347Y64961D01*
X275334D01*
X274586Y65710D01*
X273643Y66254D01*
X272591Y66535D01*
D02*
G37*
G36*
X38288Y70069D02*
X37145D01*
X36041Y69773D01*
X35051Y69202D01*
X34243Y68393D01*
X33672Y67404D01*
X33376Y66300D01*
Y65157D01*
X33672Y64053D01*
X34243Y63063D01*
X35051Y62255D01*
X36041Y61684D01*
X37145Y61388D01*
X38288D01*
X39392Y61684D01*
X40382Y62255D01*
X41190Y63063D01*
X41761Y64053D01*
X42057Y65157D01*
Y66300D01*
X41761Y67404D01*
X41190Y68393D01*
X40382Y69202D01*
X39392Y69773D01*
X38288Y70069D01*
D02*
G37*
G36*
X28288D02*
X27145D01*
X26041Y69773D01*
X25051Y69202D01*
X24243Y68393D01*
X23672Y67404D01*
X23376Y66300D01*
Y65157D01*
X23672Y64053D01*
X24243Y63063D01*
X25051Y62255D01*
X26041Y61684D01*
X27145Y61388D01*
X28288D01*
X29392Y61684D01*
X30382Y62255D01*
X31190Y63063D01*
X31761Y64053D01*
X32057Y65157D01*
Y66300D01*
X31761Y67404D01*
X31190Y68393D01*
X30382Y69202D01*
X29392Y69773D01*
X28288Y70069D01*
D02*
G37*
G36*
X18288D02*
X17145D01*
X16041Y69773D01*
X15051Y69202D01*
X14243Y68393D01*
X13672Y67404D01*
X13376Y66300D01*
Y65157D01*
X13672Y64053D01*
X14243Y63063D01*
X15051Y62255D01*
X16041Y61684D01*
X17145Y61388D01*
X18288D01*
X19392Y61684D01*
X20382Y62255D01*
X21190Y63063D01*
X21761Y64053D01*
X22057Y65157D01*
Y66300D01*
X21761Y67404D01*
X21190Y68393D01*
X20382Y69202D01*
X19392Y69773D01*
X18288Y70069D01*
D02*
G37*
G36*
X231928Y67413D02*
X230839D01*
X229788Y67131D01*
X228846Y66587D01*
X228076Y65817D01*
X227532Y64875D01*
X227250Y63823D01*
Y62735D01*
X227532Y61684D01*
X227671Y61443D01*
X227381Y60942D01*
X227099Y59890D01*
Y58802D01*
X227381Y57750D01*
X227925Y56808D01*
X228695Y56038D01*
X229638Y55494D01*
X230689Y55212D01*
X231778D01*
X232829Y55494D01*
X233772Y56038D01*
X234541Y56808D01*
X235086Y57750D01*
X235367Y58802D01*
Y59890D01*
X235086Y60942D01*
X234946Y61182D01*
X235236Y61684D01*
X235518Y62735D01*
Y63823D01*
X235236Y64875D01*
X234692Y65817D01*
X233922Y66587D01*
X232979Y67131D01*
X231928Y67413D01*
D02*
G37*
G36*
X38288Y60069D02*
X37145D01*
X36041Y59773D01*
X35051Y59202D01*
X34243Y58394D01*
X33672Y57404D01*
X33376Y56300D01*
Y55157D01*
X33672Y54053D01*
X34243Y53063D01*
X35051Y52255D01*
X36041Y51684D01*
X37145Y51388D01*
X38288D01*
X39392Y51684D01*
X40382Y52255D01*
X41190Y53063D01*
X41761Y54053D01*
X42057Y55157D01*
Y56300D01*
X41761Y57404D01*
X41190Y58394D01*
X40382Y59202D01*
X39392Y59773D01*
X38288Y60069D01*
D02*
G37*
G36*
X28288D02*
X27145D01*
X26041Y59773D01*
X25051Y59202D01*
X24243Y58394D01*
X23672Y57404D01*
X23376Y56300D01*
Y55157D01*
X23672Y54053D01*
X24243Y53063D01*
X25051Y52255D01*
X26041Y51684D01*
X27145Y51388D01*
X28288D01*
X29392Y51684D01*
X30382Y52255D01*
X31190Y53063D01*
X31761Y54053D01*
X32057Y55157D01*
Y56300D01*
X31761Y57404D01*
X31190Y58394D01*
X30382Y59202D01*
X29392Y59773D01*
X28288Y60069D01*
D02*
G37*
G36*
X18288D02*
X17145D01*
X16041Y59773D01*
X15051Y59202D01*
X14243Y58394D01*
X13672Y57404D01*
X13376Y56300D01*
Y55157D01*
X13672Y54053D01*
X14243Y53063D01*
X15051Y52255D01*
X16041Y51684D01*
X17145Y51388D01*
X18288D01*
X19392Y51684D01*
X20382Y52255D01*
X21190Y53063D01*
X21761Y54053D01*
X22057Y55157D01*
Y56300D01*
X21761Y57404D01*
X21190Y58394D01*
X20382Y59202D01*
X19392Y59773D01*
X18288Y60069D01*
D02*
G37*
G36*
X38288Y50069D02*
X37145D01*
X36041Y49773D01*
X35051Y49202D01*
X34243Y48393D01*
X33672Y47404D01*
X33376Y46300D01*
Y45157D01*
X33672Y44053D01*
X34243Y43063D01*
X35051Y42255D01*
X36041Y41684D01*
X37145Y41388D01*
X38288D01*
X39392Y41684D01*
X40382Y42255D01*
X41190Y43063D01*
X41761Y44053D01*
X42057Y45157D01*
Y46300D01*
X41761Y47404D01*
X41190Y48393D01*
X40382Y49202D01*
X39392Y49773D01*
X38288Y50069D01*
D02*
G37*
G36*
X28288D02*
X27145D01*
X26041Y49773D01*
X25051Y49202D01*
X24243Y48393D01*
X23672Y47404D01*
X23376Y46300D01*
Y45157D01*
X23672Y44053D01*
X24243Y43063D01*
X25051Y42255D01*
X26041Y41684D01*
X27145Y41388D01*
X28288D01*
X29392Y41684D01*
X30382Y42255D01*
X31190Y43063D01*
X31761Y44053D01*
X32057Y45157D01*
Y46300D01*
X31761Y47404D01*
X31190Y48393D01*
X30382Y49202D01*
X29392Y49773D01*
X28288Y50069D01*
D02*
G37*
G36*
X18288D02*
X17145D01*
X16041Y49773D01*
X15051Y49202D01*
X14243Y48393D01*
X13672Y47404D01*
X13376Y46300D01*
Y45157D01*
X13672Y44053D01*
X14243Y43063D01*
X15051Y42255D01*
X16041Y41684D01*
X17145Y41388D01*
X18288D01*
X19392Y41684D01*
X20382Y42255D01*
X21190Y43063D01*
X21761Y44053D01*
X22057Y45157D01*
Y46300D01*
X21761Y47404D01*
X21190Y48393D01*
X20382Y49202D01*
X19392Y49773D01*
X18288Y50069D01*
D02*
G37*
G36*
X236371Y44291D02*
X235282D01*
X234231Y44010D01*
X233289Y43465D01*
X232519Y42696D01*
X231975Y41753D01*
X231693Y40702D01*
Y39613D01*
X231975Y38562D01*
X232519Y37619D01*
X233289Y36850D01*
X234231Y36305D01*
X235282Y36024D01*
X236371D01*
X237422Y36305D01*
X238365Y36850D01*
X239135Y37619D01*
X239679Y38562D01*
X239961Y39613D01*
Y40702D01*
X239679Y41753D01*
X239135Y42696D01*
X238365Y43465D01*
X237422Y44010D01*
X236371Y44291D01*
D02*
G37*
G36*
X94919Y40098D02*
X94058D01*
X93262Y39769D01*
X92652Y39160D01*
X92323Y38364D01*
Y37502D01*
X92652Y36707D01*
X93262Y36097D01*
X94058Y35768D01*
X94919D01*
X95715Y36097D01*
X96324Y36707D01*
X96653Y37502D01*
Y38364D01*
X96324Y39160D01*
X95715Y39769D01*
X94919Y40098D01*
D02*
G37*
G36*
X38288Y40069D02*
X37145D01*
X36041Y39773D01*
X35051Y39202D01*
X34243Y38394D01*
X33672Y37404D01*
X33376Y36300D01*
Y35157D01*
X33672Y34053D01*
X34243Y33063D01*
X35051Y32255D01*
X36041Y31684D01*
X37145Y31388D01*
X38288D01*
X39392Y31684D01*
X40382Y32255D01*
X41190Y33063D01*
X41761Y34053D01*
X42057Y35157D01*
Y36300D01*
X41761Y37404D01*
X41190Y38394D01*
X40382Y39202D01*
X39392Y39773D01*
X38288Y40069D01*
D02*
G37*
G36*
X28288D02*
X27145D01*
X26041Y39773D01*
X25051Y39202D01*
X24243Y38394D01*
X23672Y37404D01*
X23376Y36300D01*
Y35157D01*
X23672Y34053D01*
X24243Y33063D01*
X25051Y32255D01*
X26041Y31684D01*
X27145Y31388D01*
X28288D01*
X29392Y31684D01*
X30382Y32255D01*
X31190Y33063D01*
X31761Y34053D01*
X32057Y35157D01*
Y36300D01*
X31761Y37404D01*
X31190Y38394D01*
X30382Y39202D01*
X29392Y39773D01*
X28288Y40069D01*
D02*
G37*
G36*
X18288D02*
X17145D01*
X16041Y39773D01*
X15051Y39202D01*
X14243Y38394D01*
X13672Y37404D01*
X13376Y36300D01*
Y35157D01*
X13672Y34053D01*
X14243Y33063D01*
X15051Y32255D01*
X16041Y31684D01*
X17145Y31388D01*
X18288D01*
X19392Y31684D01*
X20382Y32255D01*
X21190Y33063D01*
X21761Y34053D01*
X22057Y35157D01*
Y36300D01*
X21761Y37404D01*
X21190Y38394D01*
X20382Y39202D01*
X19392Y39773D01*
X18288Y40069D01*
D02*
G37*
G36*
X94919Y35098D02*
X94058D01*
X93262Y34769D01*
X92652Y34160D01*
X92323Y33364D01*
Y32502D01*
X92652Y31707D01*
X93262Y31097D01*
X94058Y30768D01*
X94919D01*
X95715Y31097D01*
X96324Y31707D01*
X96653Y32502D01*
Y33364D01*
X96324Y34160D01*
X95715Y34769D01*
X94919Y35098D01*
D02*
G37*
G36*
X70903Y26575D02*
X70042D01*
X69246Y26245D01*
X68637Y25636D01*
X68307Y24840D01*
Y23979D01*
X68637Y23183D01*
X69246Y22574D01*
X70042Y22244D01*
X70903D01*
X71699Y22574D01*
X72308Y23183D01*
X72638Y23979D01*
Y24840D01*
X72308Y25636D01*
X71699Y26245D01*
X70903Y26575D01*
D02*
G37*
G36*
X271318Y23586D02*
X270456D01*
X269660Y23257D01*
X269051Y22648D01*
X268722Y21852D01*
Y20990D01*
X269051Y20194D01*
X269660Y19585D01*
X270456Y19256D01*
X271318D01*
X272114Y19585D01*
X272723Y20194D01*
X273052Y20990D01*
Y21852D01*
X272723Y22648D01*
X272114Y23257D01*
X271318Y23586D01*
D02*
G37*
G36*
X56365Y16047D02*
X55504D01*
X54708Y15718D01*
X54099Y15109D01*
X53769Y14313D01*
Y13451D01*
X54099Y12655D01*
X54708Y12046D01*
X55504Y11717D01*
X56365D01*
X57161Y12046D01*
X57770Y12655D01*
X58100Y13451D01*
Y14313D01*
X57770Y15109D01*
X57161Y15718D01*
X56365Y16047D01*
D02*
G37*
G36*
X103202Y27979D02*
X102341D01*
X101545Y27650D01*
X100936Y27041D01*
X100606Y26245D01*
Y25383D01*
X100936Y24588D01*
X101424Y24099D01*
X101499Y23793D01*
X101424Y23487D01*
X100936Y22999D01*
X100606Y22203D01*
Y21342D01*
X100936Y20546D01*
X101545Y19937D01*
X101823Y19821D01*
Y19280D01*
X101529Y19159D01*
X100920Y18549D01*
X100591Y17753D01*
Y16892D01*
X100920Y16096D01*
X101465Y15551D01*
X100920Y15006D01*
X100591Y14210D01*
Y13349D01*
X100920Y12553D01*
X101529Y11944D01*
X102325Y11614D01*
X103187D01*
X103982Y11944D01*
X104592Y12553D01*
X104921Y13349D01*
Y14210D01*
X104592Y15006D01*
X104046Y15551D01*
X104592Y16096D01*
X104921Y16892D01*
Y17753D01*
X104592Y18549D01*
X103982Y19159D01*
X103704Y19274D01*
Y19815D01*
X103998Y19937D01*
X104607Y20546D01*
X104937Y21342D01*
Y22203D01*
X104607Y22999D01*
X104119Y23487D01*
X104044Y23793D01*
X104119Y24099D01*
X104607Y24588D01*
X104937Y25383D01*
Y26245D01*
X104607Y27041D01*
X103998Y27650D01*
X103202Y27979D01*
D02*
G37*
G36*
X32243Y20387D02*
X30750D01*
X29285Y20095D01*
X27906Y19524D01*
X26665Y18695D01*
X25609Y17639D01*
X24780Y16398D01*
X24209Y15019D01*
X23917Y13554D01*
Y12061D01*
X24209Y10597D01*
X24780Y9218D01*
X25609Y7977D01*
X26665Y6921D01*
X27906Y6092D01*
X29285Y5520D01*
X30750Y5229D01*
X32243D01*
X33707Y5520D01*
X35086Y6092D01*
X36327Y6921D01*
X37383Y7977D01*
X38212Y9218D01*
X38784Y10597D01*
X39075Y12061D01*
Y13554D01*
X38784Y15019D01*
X38212Y16398D01*
X37383Y17639D01*
X36327Y18695D01*
X35086Y19524D01*
X33707Y20095D01*
X32243Y20387D01*
D02*
G37*
G36*
X382460Y173622D02*
X381320D01*
X380218Y173327D01*
X379230Y172757D01*
X378424Y171951D01*
X377854Y170963D01*
X377559Y169861D01*
Y168721D01*
X377854Y167620D01*
X378424Y166632D01*
X379230Y165826D01*
X380218Y165255D01*
X381320Y164960D01*
X382460D01*
X383561Y165255D01*
X384549Y165826D01*
X385355Y166632D01*
X385926Y167620D01*
X386221Y168721D01*
Y169861D01*
X385926Y170963D01*
X385355Y171951D01*
X384549Y172757D01*
X383561Y173327D01*
X382460Y173622D01*
D02*
G37*
G36*
X362775D02*
X361634D01*
X360533Y173327D01*
X359545Y172757D01*
X358739Y171951D01*
X358169Y170963D01*
X357874Y169861D01*
Y168721D01*
X358169Y167620D01*
X358739Y166632D01*
X359545Y165826D01*
X360533Y165255D01*
X361634Y164960D01*
X362775D01*
X363877Y165255D01*
X364864Y165826D01*
X365670Y166632D01*
X366241Y167620D01*
X366536Y168721D01*
Y169861D01*
X366241Y170963D01*
X365670Y171951D01*
X364864Y172757D01*
X363877Y173327D01*
X362775Y173622D01*
D02*
G37*
G36*
X300938Y150984D02*
X299850D01*
X298798Y150703D01*
X297855Y150158D01*
X297086Y149389D01*
X296542Y148446D01*
X296260Y147395D01*
Y146306D01*
X296542Y145255D01*
X297086Y144312D01*
X297855Y143543D01*
X298798Y142998D01*
X299850Y142717D01*
X300938D01*
X301989Y142998D01*
X302932Y143543D01*
X303702Y144312D01*
X304246Y145255D01*
X304528Y146306D01*
Y147395D01*
X304246Y148446D01*
X303702Y149389D01*
X302932Y150158D01*
X301989Y150703D01*
X300938Y150984D01*
D02*
G37*
G36*
X350244Y138391D02*
X349155D01*
X348104Y138109D01*
X347483Y137751D01*
X346871Y138104D01*
X345820Y138386D01*
X344731D01*
X343680Y138104D01*
X342737Y137560D01*
X341968Y136790D01*
X341424Y135848D01*
X341142Y134796D01*
Y133708D01*
X341424Y132656D01*
X341968Y131714D01*
X342737Y130944D01*
X343680Y130400D01*
X344731Y130118D01*
X345820D01*
X346871Y130400D01*
X347492Y130758D01*
X348104Y130405D01*
X349155Y130123D01*
X350244D01*
X351295Y130405D01*
X352238Y130949D01*
X353007Y131719D01*
X353552Y132661D01*
X353833Y133713D01*
Y134801D01*
X353552Y135853D01*
X353007Y136795D01*
X352238Y137565D01*
X351295Y138109D01*
X350244Y138391D01*
D02*
G37*
G36*
X362749Y141929D02*
X361661D01*
X360609Y141647D01*
X359666Y141103D01*
X358897Y140333D01*
X358353Y139391D01*
X358071Y138339D01*
Y137251D01*
X358353Y136200D01*
X358897Y135257D01*
X359666Y134487D01*
X360609Y133943D01*
X361661Y133661D01*
X362749D01*
X363800Y133943D01*
X364743Y134487D01*
X365513Y135257D01*
X366057Y136200D01*
X366339Y137251D01*
Y138339D01*
X366057Y139391D01*
X365513Y140333D01*
X364743Y141103D01*
X363800Y141647D01*
X362749Y141929D01*
D02*
G37*
G36*
X300938D02*
X299850D01*
X298798Y141647D01*
X297855Y141103D01*
X297086Y140333D01*
X296542Y139391D01*
X296260Y138339D01*
Y137251D01*
X296542Y136200D01*
X297086Y135257D01*
X297855Y134487D01*
X298798Y133943D01*
X299850Y133661D01*
X300938D01*
X301989Y133943D01*
X302932Y134487D01*
X303702Y135257D01*
X304246Y136200D01*
X304528Y137251D01*
Y138339D01*
X304246Y139391D01*
X303702Y140333D01*
X302932Y141103D01*
X301989Y141647D01*
X300938Y141929D01*
D02*
G37*
G36*
X336659Y135039D02*
X335798D01*
X335002Y134710D01*
X334393Y134101D01*
X334063Y133305D01*
Y132443D01*
X334393Y131647D01*
X335002Y131038D01*
X335798Y130709D01*
X336659D01*
X337455Y131038D01*
X338064Y131647D01*
X338394Y132443D01*
Y133305D01*
X338064Y134101D01*
X337455Y134710D01*
X336659Y135039D01*
D02*
G37*
G36*
X321017Y138779D02*
X319928D01*
X318877Y138498D01*
X317934Y137954D01*
X317164Y137184D01*
X316620Y136241D01*
X316339Y135190D01*
Y134101D01*
X316620Y133050D01*
X317164Y132107D01*
X317934Y131338D01*
X318877Y130793D01*
X319928Y130512D01*
X321017D01*
X322068Y130793D01*
X323011Y131338D01*
X323780Y132107D01*
X324325Y133050D01*
X324606Y134101D01*
Y135190D01*
X324325Y136241D01*
X323780Y137184D01*
X323011Y137954D01*
X322068Y138498D01*
X321017Y138779D01*
D02*
G37*
G36*
X328187Y133071D02*
X327325D01*
X326529Y132741D01*
X325920Y132132D01*
X325591Y131336D01*
Y130475D01*
X325920Y129679D01*
X326529Y129070D01*
X327325Y128740D01*
X328187D01*
X328982Y129070D01*
X329592Y129679D01*
X329921Y130475D01*
Y131336D01*
X329592Y132132D01*
X328982Y132741D01*
X328187Y133071D01*
D02*
G37*
G36*
X300824Y130905D02*
X299963D01*
X299167Y130576D01*
X298558Y129967D01*
X298228Y129171D01*
Y128309D01*
X298558Y127514D01*
X299167Y126904D01*
X299963Y126575D01*
X300824D01*
X301620Y126904D01*
X302229Y127514D01*
X302559Y128309D01*
Y129171D01*
X302229Y129967D01*
X301620Y130576D01*
X300824Y130905D01*
D02*
G37*
G36*
X322759Y126357D02*
X321898D01*
X321102Y126028D01*
X320493Y125419D01*
X320163Y124623D01*
Y123761D01*
X320493Y122966D01*
X321102Y122356D01*
X321898Y122027D01*
X322759D01*
X323555Y122356D01*
X324164Y122966D01*
X324494Y123761D01*
Y124623D01*
X324164Y125419D01*
X323555Y126028D01*
X322759Y126357D01*
D02*
G37*
G36*
X380352Y120669D02*
X379490D01*
X378695Y120340D01*
X378086Y119730D01*
X377756Y118935D01*
Y118073D01*
X378086Y117277D01*
X378695Y116668D01*
X379490Y116339D01*
X380352D01*
X381148Y116668D01*
X381757Y117277D01*
X382087Y118073D01*
Y118935D01*
X381757Y119730D01*
X381148Y120340D01*
X380352Y120669D01*
D02*
G37*
G36*
X300938Y122244D02*
X299850D01*
X298798Y121962D01*
X297855Y121418D01*
X297086Y120649D01*
X296542Y119706D01*
X296260Y118655D01*
Y117566D01*
X296542Y116515D01*
X297086Y115572D01*
X297855Y114802D01*
X298798Y114258D01*
X299850Y113976D01*
X300938D01*
X301989Y114258D01*
X302932Y114802D01*
X303702Y115572D01*
X304246Y116515D01*
X304528Y117566D01*
Y118655D01*
X304246Y119706D01*
X303702Y120649D01*
X302932Y121418D01*
X301989Y121962D01*
X300938Y122244D01*
D02*
G37*
G36*
X353580Y127362D02*
X352719D01*
X351923Y127032D01*
X351314Y126423D01*
X350984Y125628D01*
Y124766D01*
X351314Y123970D01*
X351699Y123585D01*
X351807Y123165D01*
X351680Y122951D01*
X351216Y122486D01*
X350886Y121691D01*
Y120829D01*
X351216Y120033D01*
X351825Y119424D01*
X351875Y119403D01*
Y118862D01*
X351640Y118765D01*
X351031Y118156D01*
X350702Y117360D01*
Y116498D01*
X351031Y115702D01*
X351640Y115093D01*
X351666Y114964D01*
X351216Y114514D01*
X350886Y113718D01*
Y112857D01*
X351216Y112061D01*
X351825Y111452D01*
X352621Y111122D01*
X353482D01*
X354278Y111452D01*
X354887Y112061D01*
X355217Y112857D01*
Y113718D01*
X354887Y114514D01*
X354278Y115123D01*
X354252Y115252D01*
X354703Y115702D01*
X355032Y116498D01*
Y117360D01*
X354703Y118156D01*
X354094Y118765D01*
X354043Y118786D01*
Y119327D01*
X354278Y119424D01*
X354887Y120033D01*
X355217Y120829D01*
Y121691D01*
X354887Y122486D01*
X354502Y122872D01*
X354394Y123292D01*
X354521Y123506D01*
X354985Y123970D01*
X355315Y124766D01*
Y125628D01*
X354985Y126423D01*
X354376Y127032D01*
X353580Y127362D01*
D02*
G37*
G36*
X324117Y113953D02*
X323255D01*
X322459Y113623D01*
X321850Y113014D01*
X321520Y112218D01*
Y111357D01*
X321850Y110561D01*
X322459Y109952D01*
X323255Y109622D01*
X324117D01*
X324912Y109952D01*
X325522Y110561D01*
X325851Y111357D01*
Y112218D01*
X325522Y113014D01*
X324912Y113623D01*
X324117Y113953D01*
D02*
G37*
G36*
X300824Y109646D02*
X299963D01*
X299167Y109316D01*
X298558Y108707D01*
X298228Y107911D01*
Y107050D01*
X298558Y106254D01*
X299167Y105645D01*
X299963Y105315D01*
X300824D01*
X301620Y105645D01*
X302229Y106254D01*
X302559Y107050D01*
Y107911D01*
X302229Y108707D01*
X301620Y109316D01*
X300824Y109646D01*
D02*
G37*
G36*
X329171Y106890D02*
X328309D01*
X327514Y106560D01*
X326905Y105951D01*
X326575Y105155D01*
Y104294D01*
X326905Y103498D01*
X327514Y102889D01*
X328309Y102559D01*
X329171D01*
X329967Y102889D01*
X330576Y103498D01*
X330906Y104294D01*
Y105155D01*
X330576Y105951D01*
X329967Y106560D01*
X329171Y106890D01*
D02*
G37*
G36*
X333502Y103347D02*
X332640D01*
X331844Y103017D01*
X331235Y102408D01*
X330906Y101612D01*
Y100750D01*
X331235Y99954D01*
X331844Y99345D01*
X332640Y99016D01*
X333502D01*
X334297Y99345D01*
X334907Y99954D01*
X335236Y100750D01*
Y101612D01*
X334907Y102408D01*
X334297Y103017D01*
X333502Y103347D01*
D02*
G37*
G36*
X375234Y102559D02*
X374372D01*
X373577Y102229D01*
X372968Y101620D01*
X372638Y100824D01*
Y99963D01*
X372968Y99167D01*
X373577Y98558D01*
X374372Y98228D01*
X375234D01*
X376030Y98558D01*
X376639Y99167D01*
X376969Y99963D01*
Y100824D01*
X376639Y101620D01*
X376030Y102229D01*
X375234Y102559D01*
D02*
G37*
G36*
X370116D02*
X369254D01*
X368459Y102229D01*
X367849Y101620D01*
X367520Y100824D01*
Y99963D01*
X367849Y99167D01*
X368459Y98558D01*
X369254Y98228D01*
X370116D01*
X370912Y98558D01*
X371521Y99167D01*
X371850Y99963D01*
Y100824D01*
X371521Y101620D01*
X370912Y102229D01*
X370116Y102559D01*
D02*
G37*
G36*
X321804Y106102D02*
X320716D01*
X319664Y105821D01*
X318722Y105276D01*
X317952Y104507D01*
X317408Y103564D01*
X317126Y102513D01*
Y101424D01*
X317408Y100373D01*
X317952Y99430D01*
X318722Y98661D01*
X319664Y98116D01*
X320716Y97835D01*
X321804D01*
X322855Y98116D01*
X323798Y98661D01*
X324568Y99430D01*
X325112Y100373D01*
X325394Y101424D01*
Y102513D01*
X325112Y103564D01*
X324568Y104507D01*
X323798Y105276D01*
X322855Y105821D01*
X321804Y106102D01*
D02*
G37*
G36*
X300938Y102559D02*
X299850D01*
X298798Y102277D01*
X297855Y101733D01*
X297086Y100963D01*
X296542Y100021D01*
X296260Y98969D01*
Y97881D01*
X296542Y96830D01*
X297086Y95887D01*
X297855Y95117D01*
X298798Y94573D01*
X299850Y94291D01*
X300938D01*
X301989Y94573D01*
X302932Y95117D01*
X303702Y95887D01*
X304246Y96830D01*
X304528Y97881D01*
Y98969D01*
X304246Y100021D01*
X303702Y100963D01*
X302932Y101733D01*
X301989Y102277D01*
X300938Y102559D01*
D02*
G37*
G36*
X346017Y106496D02*
X344928D01*
X343877Y106214D01*
X342934Y105670D01*
X342165Y104901D01*
X341620Y103958D01*
X341339Y102906D01*
Y101818D01*
X341620Y100767D01*
X342165Y99824D01*
X342934Y99054D01*
X343877Y98510D01*
X344928Y98228D01*
X345271D01*
X345307Y98182D01*
Y97094D01*
X345589Y96042D01*
X346133Y95100D01*
X346902Y94330D01*
X347845Y93786D01*
X348897Y93504D01*
X349985D01*
X351036Y93786D01*
X351979Y94330D01*
X352749Y95100D01*
X353293Y96042D01*
X353575Y97094D01*
Y98182D01*
X353293Y99233D01*
X352749Y100176D01*
X351979Y100946D01*
X351036Y101490D01*
X349985Y101772D01*
X349642D01*
X349606Y101818D01*
Y102906D01*
X349325Y103958D01*
X348780Y104901D01*
X348011Y105670D01*
X347068Y106214D01*
X346017Y106496D01*
D02*
G37*
G36*
X300938Y93504D02*
X299850D01*
X298798Y93222D01*
X297855Y92678D01*
X297086Y91908D01*
X296542Y90966D01*
X296260Y89914D01*
Y88826D01*
X296542Y87774D01*
X297086Y86832D01*
X297855Y86062D01*
X298798Y85518D01*
X299850Y85236D01*
X300938D01*
X301989Y85518D01*
X302932Y86062D01*
X303702Y86832D01*
X304246Y87774D01*
X304528Y88826D01*
Y89914D01*
X304246Y90966D01*
X303702Y91908D01*
X302932Y92678D01*
X301989Y93222D01*
X300938Y93504D01*
D02*
G37*
%LPD*%
M02*
