G04*
G04 #@! TF.GenerationSoftware,Altium Limited,Altium Designer,22.9.1 (49)*
G04*
G04 Layer_Color=32896*
%FSLAX25Y25*%
%MOIN*%
G70*
G04*
G04 #@! TF.SameCoordinates,31D07EA8-2EF4-44A7-A807-3D2BB65C9B75*
G04*
G04*
G04 #@! TF.FilePolarity,Positive*
G04*
G01*
G75*
%ADD10C,0.00787*%
G36*
X63560Y190380D02*
X61510D01*
Y190603D01*
X63560D01*
Y190380D01*
D02*
G37*
G36*
X64565Y189943D02*
X64595Y189940D01*
X64628Y189935D01*
X64666Y189929D01*
X64707Y189921D01*
X64751Y189913D01*
X64797Y189899D01*
X64843Y189883D01*
X64890Y189864D01*
X64936Y189842D01*
X64983Y189817D01*
X65026Y189787D01*
X65070Y189754D01*
X65073Y189752D01*
X65078Y189746D01*
X65089Y189735D01*
X65103Y189719D01*
X65122Y189700D01*
X65141Y189678D01*
X65160Y189650D01*
X65182Y189618D01*
X65204Y189585D01*
X65226Y189547D01*
X65245Y189503D01*
X65264Y189459D01*
X65283Y189410D01*
X65297Y189358D01*
X65307Y189301D01*
X65316Y189244D01*
X64991Y189219D01*
Y189222D01*
X64988Y189230D01*
X64985Y189241D01*
X64983Y189257D01*
X64980Y189277D01*
X64972Y189301D01*
X64958Y189353D01*
X64936Y189410D01*
X64906Y189470D01*
X64871Y189525D01*
X64849Y189550D01*
X64827Y189574D01*
X64824D01*
X64822Y189580D01*
X64813Y189585D01*
X64802Y189593D01*
X64775Y189612D01*
X64737Y189631D01*
X64691Y189653D01*
X64636Y189672D01*
X64576Y189686D01*
X64543Y189689D01*
X64508Y189691D01*
X64486D01*
X64469Y189689D01*
X64450Y189686D01*
X64429Y189683D01*
X64377Y189670D01*
X64316Y189650D01*
X64287Y189637D01*
X64254Y189620D01*
X64221Y189601D01*
X64191Y189580D01*
X64161Y189555D01*
X64131Y189525D01*
X64128Y189522D01*
X64125Y189517D01*
X64117Y189509D01*
X64106Y189495D01*
X64095Y189476D01*
X64082Y189457D01*
X64068Y189432D01*
X64052Y189405D01*
X64038Y189375D01*
X64024Y189342D01*
X64011Y189304D01*
X64000Y189266D01*
X63989Y189222D01*
X63981Y189175D01*
X63978Y189129D01*
X63975Y189077D01*
Y189075D01*
Y189066D01*
Y189053D01*
X63978Y189034D01*
X63981Y189012D01*
X63984Y188984D01*
X63989Y188957D01*
X63994Y188924D01*
X64011Y188859D01*
X64038Y188788D01*
X64055Y188755D01*
X64076Y188722D01*
X64098Y188690D01*
X64125Y188660D01*
X64128Y188657D01*
X64131Y188654D01*
X64142Y188646D01*
X64153Y188635D01*
X64166Y188624D01*
X64186Y188610D01*
X64205Y188597D01*
X64229Y188580D01*
X64257Y188567D01*
X64284Y188553D01*
X64352Y188529D01*
X64388Y188518D01*
X64429Y188509D01*
X64469Y188507D01*
X64513Y188504D01*
X64538D01*
X64568Y188507D01*
X64603Y188512D01*
X64647Y188520D01*
X64693Y188534D01*
X64740Y188550D01*
X64786Y188575D01*
X64792Y188578D01*
X64805Y188586D01*
X64827Y188602D01*
X64854Y188621D01*
X64882Y188649D01*
X64914Y188679D01*
X64944Y188714D01*
X64972Y188752D01*
X65261Y188711D01*
X65018Y187417D01*
X63765D01*
Y187712D01*
X64772D01*
X64906Y188389D01*
X64903Y188387D01*
X64895Y188381D01*
X64884Y188376D01*
X64868Y188365D01*
X64846Y188354D01*
X64822Y188340D01*
X64794Y188324D01*
X64762Y188310D01*
X64729Y188296D01*
X64691Y188280D01*
X64611Y188256D01*
X64568Y188245D01*
X64524Y188236D01*
X64478Y188234D01*
X64431Y188231D01*
X64418D01*
X64398Y188234D01*
X64377D01*
X64349Y188239D01*
X64316Y188242D01*
X64278Y188250D01*
X64240Y188258D01*
X64196Y188272D01*
X64153Y188286D01*
X64106Y188305D01*
X64060Y188327D01*
X64013Y188354D01*
X63967Y188384D01*
X63921Y188419D01*
X63877Y188460D01*
X63874Y188463D01*
X63866Y188471D01*
X63855Y188485D01*
X63841Y188501D01*
X63822Y188523D01*
X63803Y188553D01*
X63784Y188583D01*
X63762Y188619D01*
X63740Y188660D01*
X63721Y188706D01*
X63700Y188752D01*
X63683Y188807D01*
X63670Y188862D01*
X63659Y188922D01*
X63650Y188984D01*
X63648Y189050D01*
Y189053D01*
Y189066D01*
Y189083D01*
X63650Y189107D01*
X63653Y189137D01*
X63659Y189170D01*
X63664Y189208D01*
X63672Y189252D01*
X63683Y189296D01*
X63697Y189345D01*
X63713Y189394D01*
X63732Y189443D01*
X63754Y189492D01*
X63781Y189544D01*
X63811Y189593D01*
X63847Y189640D01*
X63850Y189642D01*
X63858Y189653D01*
X63872Y189667D01*
X63891Y189686D01*
X63915Y189711D01*
X63945Y189735D01*
X63981Y189765D01*
X64022Y189793D01*
X64065Y189820D01*
X64114Y189850D01*
X64169Y189874D01*
X64229Y189896D01*
X64292Y189918D01*
X64360Y189932D01*
X64431Y189943D01*
X64508Y189945D01*
X64540D01*
X64565Y189943D01*
D02*
G37*
G36*
X61278Y187385D02*
X60339D01*
X60312Y187387D01*
X60279D01*
X60246Y187390D01*
X60172Y187393D01*
X60099Y187401D01*
X60025Y187409D01*
X59992Y187417D01*
X59962Y187423D01*
X59960D01*
X59951Y187426D01*
X59940Y187428D01*
X59927Y187434D01*
X59908Y187439D01*
X59886Y187445D01*
X59834Y187464D01*
X59777Y187488D01*
X59716Y187518D01*
X59654Y187557D01*
X59594Y187603D01*
X59591Y187606D01*
X59585Y187611D01*
X59575Y187619D01*
X59561Y187633D01*
X59544Y187650D01*
X59525Y187671D01*
X59504Y187693D01*
X59482Y187720D01*
X59457Y187750D01*
X59433Y187783D01*
X59408Y187819D01*
X59383Y187857D01*
X59337Y187942D01*
X59296Y188034D01*
Y188037D01*
X59291Y188045D01*
X59288Y188062D01*
X59280Y188081D01*
X59272Y188105D01*
X59263Y188135D01*
X59255Y188168D01*
X59244Y188206D01*
X59236Y188250D01*
X59228Y188296D01*
X59220Y188346D01*
X59211Y188398D01*
X59203Y188452D01*
X59201Y188509D01*
X59195Y188632D01*
Y188635D01*
Y188646D01*
Y188660D01*
Y188681D01*
X59198Y188706D01*
Y188736D01*
X59201Y188769D01*
X59203Y188804D01*
X59211Y188883D01*
X59225Y188968D01*
X59241Y189055D01*
X59263Y189143D01*
Y189146D01*
X59266Y189154D01*
X59272Y189165D01*
X59274Y189178D01*
X59282Y189197D01*
X59291Y189219D01*
X59310Y189271D01*
X59334Y189328D01*
X59364Y189391D01*
X59397Y189451D01*
X59435Y189509D01*
Y189511D01*
X59441Y189514D01*
X59446Y189522D01*
X59454Y189533D01*
X59474Y189558D01*
X59504Y189591D01*
X59536Y189629D01*
X59575Y189667D01*
X59618Y189702D01*
X59665Y189738D01*
X59667D01*
X59670Y189741D01*
X59686Y189752D01*
X59714Y189765D01*
X59749Y189784D01*
X59793Y189803D01*
X59845Y189825D01*
X59905Y189844D01*
X59968Y189864D01*
X59970D01*
X59976Y189866D01*
X59984D01*
X59998Y189869D01*
X60014Y189872D01*
X60036Y189877D01*
X60058Y189880D01*
X60082Y189883D01*
X60142Y189891D01*
X60211Y189899D01*
X60287Y189902D01*
X60369Y189904D01*
X61278D01*
Y187385D01*
D02*
G37*
G36*
X58903Y189899D02*
Y189885D01*
Y189864D01*
X58900Y189836D01*
X58898Y189803D01*
X58889Y189768D01*
X58881Y189730D01*
X58868Y189691D01*
Y189689D01*
X58865Y189683D01*
X58862Y189675D01*
X58856Y189662D01*
X58848Y189648D01*
X58840Y189629D01*
X58818Y189585D01*
X58791Y189533D01*
X58755Y189476D01*
X58715Y189416D01*
X58665Y189356D01*
X58663Y189353D01*
X58660Y189348D01*
X58652Y189339D01*
X58638Y189326D01*
X58625Y189312D01*
X58605Y189293D01*
X58586Y189271D01*
X58562Y189246D01*
X58534Y189219D01*
X58504Y189192D01*
X58472Y189159D01*
X58433Y189126D01*
X58395Y189091D01*
X58351Y189055D01*
X58308Y189017D01*
X58259Y188976D01*
X58253Y188973D01*
X58240Y188960D01*
X58220Y188944D01*
X58193Y188919D01*
X58160Y188892D01*
X58122Y188859D01*
X58078Y188823D01*
X58035Y188782D01*
X57942Y188698D01*
X57852Y188608D01*
X57808Y188564D01*
X57767Y188520D01*
X57732Y188479D01*
X57702Y188441D01*
X57699Y188438D01*
X57696Y188433D01*
X57688Y188422D01*
X57680Y188408D01*
X57666Y188389D01*
X57655Y188370D01*
X57628Y188321D01*
X57601Y188264D01*
X57576Y188201D01*
X57560Y188135D01*
X57557Y188103D01*
X57554Y188070D01*
Y188067D01*
Y188062D01*
Y188051D01*
X57557Y188040D01*
Y188023D01*
X57563Y188004D01*
X57571Y187963D01*
X57587Y187914D01*
X57612Y187862D01*
X57625Y187835D01*
X57644Y187811D01*
X57664Y187786D01*
X57688Y187761D01*
X57691Y187759D01*
X57694Y187756D01*
X57702Y187750D01*
X57713Y187742D01*
X57726Y187731D01*
X57743Y187720D01*
X57781Y187696D01*
X57833Y187674D01*
X57890Y187652D01*
X57958Y187638D01*
X57997Y187633D01*
X58057D01*
X58073Y187636D01*
X58092D01*
X58114Y187641D01*
X58163Y187650D01*
X58220Y187666D01*
X58280Y187690D01*
X58311Y187707D01*
X58341Y187723D01*
X58368Y187745D01*
X58395Y187770D01*
X58398Y187772D01*
X58401Y187775D01*
X58406Y187783D01*
X58417Y187794D01*
X58425Y187808D01*
X58436Y187824D01*
X58450Y187843D01*
X58461Y187865D01*
X58474Y187890D01*
X58485Y187917D01*
X58507Y187982D01*
X58523Y188054D01*
X58526Y188094D01*
X58529Y188138D01*
X58846Y188105D01*
Y188100D01*
X58843Y188089D01*
X58840Y188073D01*
X58837Y188048D01*
X58832Y188018D01*
X58824Y187982D01*
X58816Y187944D01*
X58802Y187903D01*
X58788Y187862D01*
X58772Y187816D01*
X58750Y187772D01*
X58728Y187729D01*
X58701Y187682D01*
X58671Y187641D01*
X58638Y187600D01*
X58600Y187565D01*
X58597Y187562D01*
X58589Y187557D01*
X58578Y187548D01*
X58562Y187535D01*
X58540Y187521D01*
X58513Y187505D01*
X58482Y187488D01*
X58447Y187469D01*
X58409Y187453D01*
X58365Y187436D01*
X58319Y187420D01*
X58267Y187407D01*
X58212Y187393D01*
X58155Y187385D01*
X58092Y187379D01*
X58027Y187376D01*
X57991D01*
X57967Y187379D01*
X57937Y187382D01*
X57901Y187387D01*
X57860Y187393D01*
X57819Y187401D01*
X57773Y187412D01*
X57726Y187426D01*
X57677Y187442D01*
X57631Y187461D01*
X57582Y187486D01*
X57535Y187513D01*
X57491Y187543D01*
X57451Y187578D01*
X57448Y187581D01*
X57442Y187587D01*
X57432Y187600D01*
X57418Y187614D01*
X57401Y187633D01*
X57382Y187658D01*
X57363Y187685D01*
X57344Y187718D01*
X57325Y187750D01*
X57306Y187789D01*
X57287Y187830D01*
X57270Y187873D01*
X57257Y187923D01*
X57246Y187972D01*
X57240Y188023D01*
X57238Y188078D01*
Y188081D01*
Y188084D01*
Y188092D01*
Y188103D01*
X57240Y188133D01*
X57246Y188171D01*
X57254Y188217D01*
X57265Y188266D01*
X57279Y188321D01*
X57300Y188376D01*
Y188378D01*
X57303Y188381D01*
X57306Y188389D01*
X57311Y188400D01*
X57328Y188430D01*
X57350Y188469D01*
X57380Y188515D01*
X57415Y188567D01*
X57456Y188621D01*
X57508Y188681D01*
X57511Y188684D01*
X57513Y188690D01*
X57524Y188698D01*
X57535Y188711D01*
X57552Y188728D01*
X57571Y188747D01*
X57593Y188771D01*
X57620Y188796D01*
X57653Y188826D01*
X57688Y188859D01*
X57726Y188897D01*
X57770Y188935D01*
X57816Y188979D01*
X57868Y189023D01*
X57926Y189072D01*
X57986Y189124D01*
X57988Y189126D01*
X57997Y189135D01*
X58013Y189146D01*
X58029Y189162D01*
X58054Y189181D01*
X58078Y189203D01*
X58136Y189252D01*
X58196Y189304D01*
X58253Y189358D01*
X58280Y189383D01*
X58305Y189405D01*
X58327Y189427D01*
X58343Y189443D01*
X58346Y189446D01*
X58357Y189457D01*
X58371Y189473D01*
X58390Y189495D01*
X58412Y189520D01*
X58433Y189547D01*
X58477Y189607D01*
X57235D01*
Y189904D01*
X58903D01*
Y189899D01*
D02*
G37*
G36*
X65703Y190093D02*
X65720Y190087D01*
X65739Y190079D01*
X65763Y190068D01*
X65794Y190057D01*
X65826Y190041D01*
X65862Y190022D01*
X65900Y190003D01*
X65944Y189981D01*
X66034Y189929D01*
X66132Y189866D01*
X66233Y189793D01*
X66236Y189795D01*
X66247Y189798D01*
X66260Y189806D01*
X66282Y189817D01*
X66309Y189828D01*
X66339Y189842D01*
X66375Y189855D01*
X66416Y189869D01*
X66460Y189883D01*
X66509Y189896D01*
X66558Y189910D01*
X66612Y189921D01*
X66730Y189940D01*
X66790Y189943D01*
X66853Y189945D01*
X66886D01*
X66910Y189943D01*
X66940Y189940D01*
X66976Y189937D01*
X67014Y189932D01*
X67058Y189924D01*
X67104Y189915D01*
X67153Y189904D01*
X67205Y189891D01*
X67257Y189877D01*
X67311Y189858D01*
X67366Y189836D01*
X67421Y189812D01*
X67472Y189782D01*
X67475Y189779D01*
X67483Y189773D01*
X67500Y189765D01*
X67519Y189752D01*
X67541Y189735D01*
X67568Y189713D01*
X67598Y189689D01*
X67631Y189662D01*
X67664Y189631D01*
X67699Y189596D01*
X67734Y189558D01*
X67770Y189517D01*
X67805Y189473D01*
X67838Y189427D01*
X67871Y189375D01*
X67901Y189320D01*
X67904Y189318D01*
X67906Y189307D01*
X67915Y189290D01*
X67926Y189268D01*
X67936Y189238D01*
X67947Y189206D01*
X67961Y189167D01*
X67975Y189124D01*
X67991Y189075D01*
X68005Y189023D01*
X68016Y188968D01*
X68027Y188908D01*
X68037Y188848D01*
X68046Y188782D01*
X68049Y188714D01*
X68051Y188646D01*
Y188640D01*
Y188629D01*
Y188610D01*
X68049Y188583D01*
X68046Y188550D01*
X68043Y188512D01*
X68037Y188469D01*
X68032Y188419D01*
X68024Y188370D01*
X68016Y188316D01*
X67988Y188201D01*
X67969Y188144D01*
X67950Y188084D01*
X67928Y188023D01*
X67901Y187966D01*
X67898Y187963D01*
X67893Y187952D01*
X67885Y187936D01*
X67874Y187917D01*
X67857Y187890D01*
X67838Y187860D01*
X67816Y187830D01*
X67792Y187794D01*
X67762Y187756D01*
X67729Y187718D01*
X67696Y187680D01*
X67658Y187641D01*
X67614Y187603D01*
X67571Y187568D01*
X67524Y187532D01*
X67472Y187502D01*
X67470Y187499D01*
X67459Y187494D01*
X67445Y187488D01*
X67423Y187478D01*
X67396Y187464D01*
X67366Y187450D01*
X67328Y187436D01*
X67290Y187420D01*
X67243Y187407D01*
X67197Y187393D01*
X67145Y187379D01*
X67088Y187365D01*
X67030Y187355D01*
X66970Y187349D01*
X66907Y187344D01*
X66844Y187341D01*
X66812D01*
X66787Y187344D01*
X66754Y187346D01*
X66719Y187349D01*
X66681Y187355D01*
X66637Y187363D01*
X66588Y187371D01*
X66539Y187382D01*
X66487Y187396D01*
X66432Y187412D01*
X66378Y187431D01*
X66323Y187453D01*
X66271Y187478D01*
X66217Y187507D01*
X66214Y187510D01*
X66203Y187516D01*
X66189Y187524D01*
X66170Y187538D01*
X66146Y187554D01*
X66121Y187576D01*
X66091Y187600D01*
X66058Y187628D01*
X66023Y187660D01*
X65987Y187693D01*
X65952Y187731D01*
X65916Y187772D01*
X65884Y187819D01*
X65848Y187865D01*
X65818Y187917D01*
X65788Y187972D01*
X65785Y187974D01*
X65783Y187985D01*
X65774Y188002D01*
X65766Y188023D01*
X65753Y188051D01*
X65742Y188086D01*
X65728Y188125D01*
X65714Y188168D01*
X65701Y188215D01*
X65687Y188266D01*
X65673Y188321D01*
X65662Y188381D01*
X65654Y188441D01*
X65646Y188507D01*
X65643Y188575D01*
X65641Y188643D01*
Y188646D01*
Y188657D01*
Y188673D01*
X65643Y188695D01*
Y188722D01*
X65646Y188755D01*
X65649Y188791D01*
X65652Y188829D01*
X65657Y188873D01*
X65665Y188916D01*
X65681Y189012D01*
X65703Y189107D01*
X65736Y189203D01*
Y189206D01*
X65742Y189214D01*
X65747Y189227D01*
X65755Y189244D01*
X65763Y189266D01*
X65777Y189290D01*
X65791Y189320D01*
X65807Y189350D01*
X65848Y189418D01*
X65897Y189489D01*
X65955Y189563D01*
X66023Y189634D01*
X66020Y189637D01*
X66012Y189642D01*
X66001Y189650D01*
X65982Y189662D01*
X65963Y189672D01*
X65938Y189689D01*
X65911Y189705D01*
X65881Y189724D01*
X65815Y189762D01*
X65742Y189801D01*
X65665Y189839D01*
X65591Y189869D01*
X65693Y190098D01*
X65695D01*
X65703Y190093D01*
D02*
G37*
G36*
X71588Y222041D02*
X71613Y222038D01*
X71643Y222035D01*
X71675Y222029D01*
X71711Y222021D01*
X71790Y222002D01*
X71828Y221989D01*
X71872Y221972D01*
X71913Y221953D01*
X71951Y221929D01*
X71989Y221904D01*
X72027Y221874D01*
X72030Y221871D01*
X72036Y221866D01*
X72047Y221858D01*
X72057Y221844D01*
X72074Y221828D01*
X72090Y221806D01*
X72109Y221781D01*
X72128Y221754D01*
X72148Y221724D01*
X72167Y221688D01*
X72186Y221650D01*
X72205Y221609D01*
X72221Y221565D01*
X72235Y221519D01*
X72249Y221470D01*
X72257Y221415D01*
X71948Y221391D01*
Y221393D01*
X71946Y221399D01*
X71943Y221407D01*
X71940Y221421D01*
X71932Y221453D01*
X71918Y221492D01*
X71902Y221535D01*
X71880Y221579D01*
X71858Y221620D01*
X71831Y221656D01*
X71828Y221658D01*
X71825Y221661D01*
X71817Y221669D01*
X71809Y221677D01*
X71782Y221699D01*
X71744Y221724D01*
X71700Y221748D01*
X71645Y221767D01*
X71585Y221784D01*
X71552Y221787D01*
X71520Y221789D01*
X71495D01*
X71465Y221784D01*
X71430Y221778D01*
X71389Y221767D01*
X71345Y221754D01*
X71301Y221732D01*
X71258Y221705D01*
X71255D01*
X71252Y221699D01*
X71244Y221694D01*
X71233Y221686D01*
X71209Y221661D01*
X71176Y221625D01*
X71137Y221582D01*
X71099Y221527D01*
X71064Y221464D01*
X71028Y221393D01*
Y221391D01*
X71026Y221385D01*
X71020Y221372D01*
X71015Y221355D01*
X71009Y221336D01*
X71001Y221309D01*
X70993Y221279D01*
X70985Y221246D01*
X70976Y221208D01*
X70971Y221164D01*
X70963Y221115D01*
X70955Y221063D01*
X70949Y221008D01*
X70946Y220949D01*
X70944Y220883D01*
X70941Y220817D01*
X70941Y220817D01*
Y220815D01*
X70941Y220817D01*
X70946Y220823D01*
X70952Y220831D01*
X70960Y220842D01*
X70985Y220872D01*
X71015Y220910D01*
X71056Y220951D01*
X71102Y220992D01*
X71154Y221030D01*
X71211Y221066D01*
X71214D01*
X71219Y221069D01*
X71228Y221074D01*
X71238Y221079D01*
X71255Y221085D01*
X71271Y221093D01*
X71315Y221110D01*
X71367Y221123D01*
X71424Y221137D01*
X71487Y221148D01*
X71552Y221150D01*
X71566D01*
X71583Y221148D01*
X71604D01*
X71632Y221142D01*
X71662Y221140D01*
X71697Y221131D01*
X71735Y221123D01*
X71774Y221110D01*
X71817Y221096D01*
X71861Y221077D01*
X71905Y221055D01*
X71951Y221028D01*
X71995Y220998D01*
X72038Y220962D01*
X72079Y220921D01*
X72082Y220918D01*
X72088Y220910D01*
X72098Y220899D01*
X72115Y220880D01*
X72131Y220858D01*
X72148Y220831D01*
X72170Y220798D01*
X72189Y220763D01*
X72208Y220722D01*
X72229Y220678D01*
X72246Y220629D01*
X72265Y220577D01*
X72279Y220523D01*
X72290Y220462D01*
X72295Y220400D01*
X72298Y220334D01*
Y220332D01*
Y220323D01*
Y220312D01*
X72295Y220293D01*
Y220274D01*
X72292Y220250D01*
X72290Y220219D01*
X72284Y220189D01*
X72273Y220121D01*
X72254Y220048D01*
X72229Y219971D01*
X72194Y219892D01*
Y219889D01*
X72189Y219884D01*
X72183Y219873D01*
X72175Y219859D01*
X72164Y219843D01*
X72153Y219824D01*
X72120Y219777D01*
X72082Y219728D01*
X72033Y219676D01*
X71976Y219624D01*
X71913Y219581D01*
X71910D01*
X71905Y219575D01*
X71894Y219570D01*
X71880Y219564D01*
X71864Y219556D01*
X71845Y219548D01*
X71820Y219537D01*
X71795Y219529D01*
X71735Y219507D01*
X71664Y219491D01*
X71588Y219480D01*
X71506Y219474D01*
X71490D01*
X71468Y219477D01*
X71441Y219480D01*
X71408Y219482D01*
X71370Y219491D01*
X71329Y219499D01*
X71282Y219510D01*
X71233Y219526D01*
X71181Y219543D01*
X71129Y219567D01*
X71078Y219594D01*
X71023Y219627D01*
X70974Y219665D01*
X70922Y219709D01*
X70875Y219758D01*
X70873Y219761D01*
X70864Y219772D01*
X70854Y219788D01*
X70837Y219813D01*
X70818Y219843D01*
X70799Y219881D01*
X70777Y219927D01*
X70755Y219982D01*
X70731Y220042D01*
X70709Y220110D01*
X70690Y220187D01*
X70671Y220271D01*
X70654Y220364D01*
X70643Y220465D01*
X70635Y220574D01*
X70632Y220692D01*
Y220695D01*
Y220700D01*
Y220711D01*
Y220725D01*
Y220741D01*
X70635Y220763D01*
Y220785D01*
X70638Y220812D01*
X70641Y220872D01*
X70646Y220940D01*
X70654Y221017D01*
X70665Y221099D01*
X70682Y221186D01*
X70698Y221273D01*
X70720Y221361D01*
X70747Y221448D01*
X70777Y221533D01*
X70813Y221615D01*
X70856Y221688D01*
X70903Y221754D01*
X70906Y221757D01*
X70914Y221767D01*
X70927Y221781D01*
X70946Y221800D01*
X70968Y221822D01*
X70998Y221847D01*
X71031Y221871D01*
X71069Y221899D01*
X71113Y221926D01*
X71162Y221950D01*
X71214Y221975D01*
X71271Y221997D01*
X71331Y222016D01*
X71397Y222029D01*
X71465Y222041D01*
X71539Y222043D01*
X71569D01*
X71588Y222041D01*
D02*
G37*
G36*
X77998D02*
X78028Y222038D01*
X78063Y222032D01*
X78105Y222027D01*
X78145Y222019D01*
X78192Y222008D01*
X78238Y221994D01*
X78287Y221978D01*
X78334Y221959D01*
X78383Y221934D01*
X78429Y221907D01*
X78473Y221877D01*
X78514Y221841D01*
X78517Y221838D01*
X78522Y221833D01*
X78533Y221819D01*
X78547Y221806D01*
X78563Y221787D01*
X78582Y221762D01*
X78601Y221735D01*
X78620Y221702D01*
X78640Y221669D01*
X78659Y221631D01*
X78678Y221590D01*
X78694Y221546D01*
X78708Y221497D01*
X78719Y221448D01*
X78724Y221396D01*
X78727Y221342D01*
Y221339D01*
Y221336D01*
Y221328D01*
Y221317D01*
X78724Y221287D01*
X78719Y221249D01*
X78711Y221202D01*
X78700Y221153D01*
X78686Y221099D01*
X78664Y221044D01*
Y221041D01*
X78661Y221039D01*
X78659Y221030D01*
X78653Y221019D01*
X78637Y220989D01*
X78615Y220951D01*
X78585Y220905D01*
X78549Y220853D01*
X78509Y220798D01*
X78457Y220738D01*
X78454Y220736D01*
X78451Y220730D01*
X78440Y220722D01*
X78429Y220708D01*
X78413Y220692D01*
X78394Y220673D01*
X78372Y220648D01*
X78345Y220624D01*
X78312Y220594D01*
X78276Y220561D01*
X78238Y220523D01*
X78195Y220484D01*
X78148Y220441D01*
X78096Y220397D01*
X78039Y220348D01*
X77979Y220296D01*
X77976Y220293D01*
X77968Y220285D01*
X77952Y220274D01*
X77935Y220258D01*
X77911Y220239D01*
X77886Y220217D01*
X77829Y220168D01*
X77769Y220116D01*
X77711Y220061D01*
X77684Y220037D01*
X77659Y220015D01*
X77638Y219993D01*
X77621Y219977D01*
X77618Y219974D01*
X77608Y219963D01*
X77594Y219947D01*
X77575Y219925D01*
X77553Y219900D01*
X77531Y219873D01*
X77487Y219813D01*
X78730D01*
Y219515D01*
X77062D01*
Y219521D01*
Y219534D01*
Y219556D01*
X77064Y219584D01*
X77067Y219616D01*
X77075Y219652D01*
X77083Y219690D01*
X77097Y219728D01*
Y219731D01*
X77100Y219736D01*
X77103Y219744D01*
X77108Y219758D01*
X77116Y219772D01*
X77124Y219791D01*
X77146Y219835D01*
X77174Y219886D01*
X77209Y219944D01*
X77250Y220004D01*
X77299Y220064D01*
X77302Y220067D01*
X77305Y220072D01*
X77313Y220080D01*
X77326Y220094D01*
X77340Y220108D01*
X77359Y220127D01*
X77378Y220149D01*
X77403Y220173D01*
X77430Y220200D01*
X77460Y220228D01*
X77493Y220261D01*
X77531Y220293D01*
X77569Y220329D01*
X77613Y220364D01*
X77657Y220403D01*
X77706Y220443D01*
X77711Y220446D01*
X77725Y220460D01*
X77744Y220476D01*
X77771Y220501D01*
X77804Y220528D01*
X77842Y220561D01*
X77886Y220596D01*
X77930Y220637D01*
X78023Y220722D01*
X78113Y220812D01*
X78156Y220856D01*
X78197Y220899D01*
X78233Y220940D01*
X78263Y220978D01*
X78266Y220981D01*
X78268Y220987D01*
X78276Y220998D01*
X78285Y221011D01*
X78298Y221030D01*
X78309Y221049D01*
X78337Y221099D01*
X78364Y221156D01*
X78388Y221219D01*
X78405Y221284D01*
X78408Y221317D01*
X78410Y221350D01*
Y221353D01*
Y221358D01*
Y221369D01*
X78408Y221380D01*
Y221396D01*
X78402Y221415D01*
X78394Y221456D01*
X78377Y221505D01*
X78353Y221557D01*
X78339Y221585D01*
X78320Y221609D01*
X78301Y221634D01*
X78276Y221658D01*
X78274Y221661D01*
X78271Y221664D01*
X78263Y221669D01*
X78252Y221677D01*
X78238Y221688D01*
X78222Y221699D01*
X78184Y221724D01*
X78132Y221746D01*
X78075Y221767D01*
X78006Y221781D01*
X77968Y221787D01*
X77908D01*
X77891Y221784D01*
X77872D01*
X77851Y221778D01*
X77801Y221770D01*
X77744Y221754D01*
X77684Y221729D01*
X77654Y221713D01*
X77624Y221696D01*
X77597Y221675D01*
X77569Y221650D01*
X77567Y221647D01*
X77564Y221645D01*
X77558Y221636D01*
X77548Y221625D01*
X77539Y221612D01*
X77528Y221596D01*
X77515Y221576D01*
X77504Y221554D01*
X77490Y221530D01*
X77479Y221503D01*
X77457Y221437D01*
X77441Y221366D01*
X77438Y221325D01*
X77436Y221282D01*
X77119Y221314D01*
Y221320D01*
X77122Y221331D01*
X77124Y221347D01*
X77127Y221372D01*
X77133Y221402D01*
X77141Y221437D01*
X77149Y221475D01*
X77163Y221516D01*
X77176Y221557D01*
X77193Y221604D01*
X77214Y221647D01*
X77236Y221691D01*
X77264Y221737D01*
X77294Y221778D01*
X77326Y221819D01*
X77365Y221855D01*
X77367Y221858D01*
X77376Y221863D01*
X77386Y221871D01*
X77403Y221885D01*
X77425Y221899D01*
X77452Y221915D01*
X77482Y221931D01*
X77517Y221950D01*
X77556Y221967D01*
X77599Y221983D01*
X77646Y222000D01*
X77698Y222013D01*
X77752Y222027D01*
X77810Y222035D01*
X77872Y222041D01*
X77938Y222043D01*
X77973D01*
X77998Y222041D01*
D02*
G37*
G36*
X75653Y222032D02*
X75686D01*
X75718Y222029D01*
X75792Y222027D01*
X75866Y222019D01*
X75940Y222010D01*
X75972Y222002D01*
X76002Y221997D01*
X76005D01*
X76013Y221994D01*
X76024Y221991D01*
X76038Y221986D01*
X76057Y221980D01*
X76079Y221975D01*
X76131Y221956D01*
X76188Y221931D01*
X76248Y221901D01*
X76311Y221863D01*
X76371Y221817D01*
X76374Y221814D01*
X76379Y221808D01*
X76390Y221800D01*
X76404Y221787D01*
X76420Y221770D01*
X76439Y221748D01*
X76461Y221726D01*
X76483Y221699D01*
X76507Y221669D01*
X76532Y221636D01*
X76557Y221601D01*
X76581Y221563D01*
X76627Y221478D01*
X76669Y221385D01*
Y221382D01*
X76674Y221374D01*
X76677Y221358D01*
X76685Y221339D01*
X76693Y221314D01*
X76701Y221284D01*
X76710Y221252D01*
X76720Y221213D01*
X76729Y221170D01*
X76737Y221123D01*
X76745Y221074D01*
X76753Y221022D01*
X76761Y220968D01*
X76764Y220910D01*
X76770Y220787D01*
Y220785D01*
Y220774D01*
Y220760D01*
Y220738D01*
X76767Y220714D01*
Y220684D01*
X76764Y220651D01*
X76761Y220615D01*
X76753Y220536D01*
X76740Y220452D01*
X76723Y220364D01*
X76701Y220277D01*
Y220274D01*
X76698Y220266D01*
X76693Y220255D01*
X76690Y220241D01*
X76682Y220222D01*
X76674Y220200D01*
X76655Y220149D01*
X76630Y220091D01*
X76600Y220028D01*
X76568Y219968D01*
X76529Y219911D01*
Y219908D01*
X76524Y219906D01*
X76518Y219897D01*
X76510Y219886D01*
X76491Y219862D01*
X76461Y219829D01*
X76428Y219791D01*
X76390Y219753D01*
X76346Y219717D01*
X76300Y219682D01*
X76297D01*
X76294Y219679D01*
X76278Y219668D01*
X76251Y219654D01*
X76215Y219635D01*
X76172Y219616D01*
X76120Y219594D01*
X76060Y219575D01*
X75997Y219556D01*
X75994D01*
X75989Y219553D01*
X75981D01*
X75967Y219551D01*
X75950Y219548D01*
X75929Y219543D01*
X75907Y219540D01*
X75882Y219537D01*
X75822Y219529D01*
X75754Y219521D01*
X75678Y219518D01*
X75596Y219515D01*
X74686D01*
Y222035D01*
X75626D01*
X75653Y222032D01*
D02*
G37*
G36*
X69177Y222076D02*
X69210Y222073D01*
X69246Y222071D01*
X69284Y222065D01*
X69327Y222057D01*
X69377Y222049D01*
X69426Y222038D01*
X69478Y222024D01*
X69532Y222008D01*
X69587Y221989D01*
X69642Y221967D01*
X69693Y221942D01*
X69748Y221912D01*
X69751Y221909D01*
X69762Y221904D01*
X69775Y221896D01*
X69794Y221882D01*
X69819Y221866D01*
X69844Y221844D01*
X69873Y221819D01*
X69906Y221792D01*
X69942Y221759D01*
X69977Y221726D01*
X70013Y221688D01*
X70048Y221647D01*
X70081Y221601D01*
X70117Y221554D01*
X70147Y221503D01*
X70177Y221448D01*
X70179Y221445D01*
X70182Y221434D01*
X70190Y221418D01*
X70198Y221396D01*
X70212Y221369D01*
X70223Y221333D01*
X70237Y221295D01*
X70250Y221252D01*
X70264Y221205D01*
X70278Y221153D01*
X70291Y221099D01*
X70302Y221039D01*
X70310Y220978D01*
X70319Y220913D01*
X70321Y220845D01*
X70324Y220777D01*
Y220774D01*
Y220763D01*
Y220746D01*
X70321Y220725D01*
Y220697D01*
X70319Y220665D01*
X70316Y220629D01*
X70313Y220591D01*
X70308Y220547D01*
X70299Y220503D01*
X70283Y220408D01*
X70261Y220312D01*
X70228Y220217D01*
Y220214D01*
X70223Y220206D01*
X70218Y220192D01*
X70209Y220176D01*
X70201Y220154D01*
X70187Y220129D01*
X70174Y220099D01*
X70157Y220069D01*
X70117Y220001D01*
X70067Y219930D01*
X70010Y219857D01*
X69942Y219785D01*
X69945Y219783D01*
X69953Y219777D01*
X69964Y219769D01*
X69983Y219758D01*
X70002Y219747D01*
X70026Y219731D01*
X70054Y219714D01*
X70084Y219695D01*
X70149Y219657D01*
X70223Y219619D01*
X70299Y219581D01*
X70373Y219551D01*
X70272Y219321D01*
X70269D01*
X70261Y219327D01*
X70245Y219332D01*
X70226Y219340D01*
X70201Y219351D01*
X70171Y219362D01*
X70138Y219379D01*
X70103Y219398D01*
X70065Y219417D01*
X70021Y219439D01*
X69931Y219491D01*
X69833Y219553D01*
X69732Y219627D01*
X69729Y219624D01*
X69718Y219622D01*
X69704Y219614D01*
X69682Y219603D01*
X69655Y219592D01*
X69625Y219578D01*
X69590Y219564D01*
X69549Y219551D01*
X69505Y219537D01*
X69456Y219523D01*
X69407Y219510D01*
X69352Y219499D01*
X69235Y219480D01*
X69175Y219477D01*
X69112Y219474D01*
X69079D01*
X69055Y219477D01*
X69024Y219480D01*
X68989Y219482D01*
X68951Y219488D01*
X68907Y219496D01*
X68861Y219504D01*
X68812Y219515D01*
X68760Y219529D01*
X68708Y219543D01*
X68653Y219562D01*
X68599Y219584D01*
X68544Y219608D01*
X68492Y219638D01*
X68489Y219641D01*
X68481Y219646D01*
X68465Y219654D01*
X68446Y219668D01*
X68424Y219685D01*
X68397Y219706D01*
X68367Y219731D01*
X68334Y219758D01*
X68301Y219788D01*
X68266Y219824D01*
X68230Y219862D01*
X68195Y219903D01*
X68159Y219947D01*
X68126Y219993D01*
X68094Y220045D01*
X68063Y220099D01*
X68061Y220102D01*
X68058Y220113D01*
X68050Y220129D01*
X68039Y220151D01*
X68028Y220181D01*
X68017Y220214D01*
X68003Y220252D01*
X67990Y220296D01*
X67974Y220345D01*
X67960Y220397D01*
X67949Y220452D01*
X67938Y220512D01*
X67927Y220572D01*
X67919Y220637D01*
X67916Y220706D01*
X67913Y220774D01*
Y220779D01*
Y220790D01*
Y220809D01*
X67916Y220836D01*
X67919Y220869D01*
X67922Y220907D01*
X67927Y220951D01*
X67932Y221000D01*
X67941Y221049D01*
X67949Y221104D01*
X67976Y221219D01*
X67995Y221276D01*
X68014Y221336D01*
X68036Y221396D01*
X68063Y221453D01*
X68066Y221456D01*
X68072Y221467D01*
X68080Y221483D01*
X68091Y221503D01*
X68107Y221530D01*
X68126Y221560D01*
X68148Y221590D01*
X68173Y221625D01*
X68203Y221664D01*
X68235Y221702D01*
X68268Y221740D01*
X68306Y221778D01*
X68350Y221817D01*
X68394Y221852D01*
X68440Y221888D01*
X68492Y221918D01*
X68495Y221920D01*
X68506Y221926D01*
X68519Y221931D01*
X68541Y221942D01*
X68569Y221956D01*
X68599Y221970D01*
X68637Y221983D01*
X68675Y222000D01*
X68721Y222013D01*
X68768Y222027D01*
X68820Y222041D01*
X68877Y222054D01*
X68934Y222065D01*
X68994Y222071D01*
X69057Y222076D01*
X69120Y222079D01*
X69153D01*
X69177Y222076D01*
D02*
G37*
G36*
X74454Y218816D02*
X72404D01*
Y219040D01*
X74454D01*
Y218816D01*
D02*
G37*
G36*
X72572Y117640D02*
X72597Y117638D01*
X72627Y117635D01*
X72660Y117630D01*
X72695Y117621D01*
X72774Y117602D01*
X72812Y117589D01*
X72856Y117572D01*
X72897Y117553D01*
X72935Y117529D01*
X72974Y117504D01*
X73012Y117474D01*
X73014Y117471D01*
X73020Y117466D01*
X73031Y117458D01*
X73042Y117444D01*
X73058Y117428D01*
X73075Y117406D01*
X73094Y117381D01*
X73113Y117354D01*
X73132Y117324D01*
X73151Y117288D01*
X73170Y117250D01*
X73189Y117209D01*
X73206Y117166D01*
X73219Y117119D01*
X73233Y117070D01*
X73241Y117015D01*
X72933Y116991D01*
Y116993D01*
X72930Y116999D01*
X72927Y117007D01*
X72924Y117021D01*
X72916Y117053D01*
X72903Y117092D01*
X72886Y117135D01*
X72864Y117179D01*
X72843Y117220D01*
X72815Y117256D01*
X72812Y117258D01*
X72810Y117261D01*
X72802Y117269D01*
X72793Y117277D01*
X72766Y117299D01*
X72728Y117324D01*
X72684Y117348D01*
X72629Y117367D01*
X72570Y117384D01*
X72537Y117387D01*
X72504Y117389D01*
X72479D01*
X72449Y117384D01*
X72414Y117378D01*
X72373Y117367D01*
X72329Y117354D01*
X72286Y117332D01*
X72242Y117305D01*
X72239D01*
X72236Y117299D01*
X72228Y117294D01*
X72217Y117286D01*
X72193Y117261D01*
X72160Y117226D01*
X72122Y117182D01*
X72084Y117127D01*
X72048Y117064D01*
X72013Y116993D01*
Y116991D01*
X72010Y116985D01*
X72004Y116972D01*
X71999Y116955D01*
X71993Y116936D01*
X71985Y116909D01*
X71977Y116879D01*
X71969Y116846D01*
X71961Y116808D01*
X71955Y116764D01*
X71947Y116715D01*
X71939Y116663D01*
X71933Y116609D01*
X71931Y116549D01*
X71928Y116483D01*
X71925Y116418D01*
X71931Y116423D01*
X71936Y116431D01*
X71944Y116442D01*
X71969Y116472D01*
X71999Y116510D01*
X72040Y116551D01*
X72086Y116592D01*
X72138Y116630D01*
X72196Y116666D01*
X72198D01*
X72204Y116669D01*
X72212Y116674D01*
X72223Y116680D01*
X72239Y116685D01*
X72255Y116693D01*
X72299Y116710D01*
X72351Y116723D01*
X72408Y116737D01*
X72471Y116748D01*
X72537Y116751D01*
X72550D01*
X72567Y116748D01*
X72589D01*
X72616Y116742D01*
X72646Y116740D01*
X72681Y116731D01*
X72720Y116723D01*
X72758Y116710D01*
X72802Y116696D01*
X72845Y116677D01*
X72889Y116655D01*
X72935Y116628D01*
X72979Y116598D01*
X73023Y116562D01*
X73064Y116521D01*
X73066Y116518D01*
X73072Y116510D01*
X73083Y116499D01*
X73099Y116480D01*
X73115Y116458D01*
X73132Y116431D01*
X73154Y116398D01*
X73173Y116363D01*
X73192Y116322D01*
X73214Y116278D01*
X73230Y116229D01*
X73249Y116177D01*
X73263Y116123D01*
X73274Y116063D01*
X73279Y116000D01*
X73282Y115934D01*
Y115931D01*
Y115923D01*
Y115912D01*
X73279Y115893D01*
Y115874D01*
X73277Y115850D01*
X73274Y115820D01*
X73268Y115790D01*
X73257Y115721D01*
X73238Y115648D01*
X73214Y115571D01*
X73178Y115492D01*
Y115489D01*
X73173Y115484D01*
X73167Y115473D01*
X73159Y115459D01*
X73148Y115443D01*
X73137Y115424D01*
X73105Y115377D01*
X73066Y115328D01*
X73017Y115276D01*
X72960Y115224D01*
X72897Y115181D01*
X72894D01*
X72889Y115175D01*
X72878Y115170D01*
X72864Y115164D01*
X72848Y115156D01*
X72829Y115148D01*
X72804Y115137D01*
X72780Y115129D01*
X72720Y115107D01*
X72649Y115091D01*
X72572Y115080D01*
X72490Y115074D01*
X72474D01*
X72452Y115077D01*
X72425Y115080D01*
X72392Y115083D01*
X72354Y115091D01*
X72313Y115099D01*
X72267Y115110D01*
X72217Y115126D01*
X72165Y115143D01*
X72114Y115167D01*
X72062Y115194D01*
X72007Y115227D01*
X71958Y115265D01*
X71906Y115309D01*
X71860Y115358D01*
X71857Y115361D01*
X71849Y115372D01*
X71838Y115388D01*
X71821Y115413D01*
X71802Y115443D01*
X71783Y115481D01*
X71761Y115527D01*
X71740Y115582D01*
X71715Y115642D01*
X71693Y115710D01*
X71674Y115787D01*
X71655Y115872D01*
X71639Y115964D01*
X71628Y116065D01*
X71619Y116174D01*
X71617Y116292D01*
Y116295D01*
Y116300D01*
Y116311D01*
Y116325D01*
Y116341D01*
X71619Y116363D01*
Y116385D01*
X71622Y116412D01*
X71625Y116472D01*
X71630Y116540D01*
X71639Y116617D01*
X71649Y116699D01*
X71666Y116786D01*
X71682Y116873D01*
X71704Y116961D01*
X71731Y117048D01*
X71761Y117133D01*
X71797Y117215D01*
X71841Y117288D01*
X71887Y117354D01*
X71890Y117357D01*
X71898Y117367D01*
X71912Y117381D01*
X71931Y117400D01*
X71952Y117422D01*
X71983Y117447D01*
X72015Y117471D01*
X72053Y117499D01*
X72097Y117526D01*
X72146Y117550D01*
X72198Y117575D01*
X72255Y117597D01*
X72316Y117616D01*
X72381Y117630D01*
X72449Y117640D01*
X72523Y117643D01*
X72553D01*
X72572Y117640D01*
D02*
G37*
G36*
X79252Y115115D02*
X78944D01*
Y117084D01*
X78939Y117078D01*
X78925Y117064D01*
X78900Y117045D01*
X78865Y117018D01*
X78824Y116985D01*
X78772Y116950D01*
X78715Y116912D01*
X78649Y116871D01*
X78646D01*
X78641Y116865D01*
X78633Y116860D01*
X78619Y116854D01*
X78603Y116843D01*
X78584Y116835D01*
X78540Y116811D01*
X78491Y116786D01*
X78436Y116759D01*
X78379Y116734D01*
X78324Y116712D01*
Y117010D01*
X78327Y117013D01*
X78335Y117015D01*
X78349Y117024D01*
X78368Y117032D01*
X78390Y117043D01*
X78417Y117059D01*
X78447Y117075D01*
X78477Y117092D01*
X78548Y117135D01*
X78625Y117187D01*
X78704Y117242D01*
X78777Y117305D01*
X78780Y117307D01*
X78786Y117313D01*
X78797Y117321D01*
X78810Y117335D01*
X78824Y117351D01*
X78843Y117367D01*
X78884Y117414D01*
X78930Y117463D01*
X78977Y117520D01*
X79018Y117580D01*
X79053Y117643D01*
X79252D01*
Y115115D01*
D02*
G37*
G36*
X76637Y117632D02*
X76670D01*
X76703Y117630D01*
X76776Y117627D01*
X76850Y117619D01*
X76924Y117611D01*
X76957Y117602D01*
X76987Y117597D01*
X76989D01*
X76998Y117594D01*
X77008Y117591D01*
X77022Y117586D01*
X77041Y117580D01*
X77063Y117575D01*
X77115Y117556D01*
X77172Y117531D01*
X77232Y117501D01*
X77295Y117463D01*
X77355Y117417D01*
X77358Y117414D01*
X77363Y117408D01*
X77374Y117400D01*
X77388Y117387D01*
X77404Y117370D01*
X77423Y117348D01*
X77445Y117326D01*
X77467Y117299D01*
X77492Y117269D01*
X77516Y117236D01*
X77541Y117201D01*
X77565Y117163D01*
X77612Y117078D01*
X77653Y116985D01*
Y116983D01*
X77658Y116974D01*
X77661Y116958D01*
X77669Y116939D01*
X77677Y116914D01*
X77685Y116884D01*
X77694Y116851D01*
X77705Y116813D01*
X77713Y116770D01*
X77721Y116723D01*
X77729Y116674D01*
X77737Y116622D01*
X77746Y116568D01*
X77748Y116510D01*
X77754Y116387D01*
Y116385D01*
Y116374D01*
Y116360D01*
Y116338D01*
X77751Y116314D01*
Y116284D01*
X77748Y116251D01*
X77746Y116215D01*
X77737Y116136D01*
X77724Y116052D01*
X77707Y115964D01*
X77685Y115877D01*
Y115874D01*
X77683Y115866D01*
X77677Y115855D01*
X77675Y115841D01*
X77666Y115822D01*
X77658Y115800D01*
X77639Y115749D01*
X77614Y115691D01*
X77584Y115629D01*
X77552Y115568D01*
X77513Y115511D01*
Y115508D01*
X77508Y115506D01*
X77503Y115497D01*
X77494Y115487D01*
X77475Y115462D01*
X77445Y115429D01*
X77412Y115391D01*
X77374Y115353D01*
X77331Y115317D01*
X77284Y115282D01*
X77281D01*
X77279Y115279D01*
X77262Y115268D01*
X77235Y115254D01*
X77200Y115235D01*
X77156Y115216D01*
X77104Y115194D01*
X77044Y115175D01*
X76981Y115156D01*
X76978D01*
X76973Y115154D01*
X76965D01*
X76951Y115151D01*
X76935Y115148D01*
X76913Y115143D01*
X76891Y115140D01*
X76867Y115137D01*
X76806Y115129D01*
X76738Y115121D01*
X76662Y115118D01*
X76580Y115115D01*
X75671D01*
Y117635D01*
X76610D01*
X76637Y117632D01*
D02*
G37*
G36*
X70162Y117676D02*
X70194Y117673D01*
X70230Y117671D01*
X70268Y117665D01*
X70312Y117657D01*
X70361Y117649D01*
X70410Y117638D01*
X70462Y117624D01*
X70517Y117608D01*
X70571Y117589D01*
X70626Y117567D01*
X70678Y117542D01*
X70732Y117512D01*
X70735Y117509D01*
X70746Y117504D01*
X70759Y117496D01*
X70779Y117482D01*
X70803Y117466D01*
X70828Y117444D01*
X70858Y117419D01*
X70890Y117392D01*
X70926Y117359D01*
X70961Y117326D01*
X70997Y117288D01*
X71033Y117247D01*
X71065Y117201D01*
X71101Y117155D01*
X71131Y117103D01*
X71161Y117048D01*
X71163Y117045D01*
X71166Y117034D01*
X71175Y117018D01*
X71183Y116996D01*
X71196Y116969D01*
X71207Y116933D01*
X71221Y116895D01*
X71235Y116851D01*
X71248Y116805D01*
X71262Y116753D01*
X71276Y116699D01*
X71286Y116639D01*
X71295Y116578D01*
X71303Y116513D01*
X71306Y116445D01*
X71308Y116376D01*
Y116374D01*
Y116363D01*
Y116347D01*
X71306Y116325D01*
Y116297D01*
X71303Y116265D01*
X71300Y116229D01*
X71297Y116191D01*
X71292Y116147D01*
X71284Y116103D01*
X71267Y116008D01*
X71245Y115912D01*
X71213Y115817D01*
Y115814D01*
X71207Y115806D01*
X71202Y115792D01*
X71194Y115776D01*
X71185Y115754D01*
X71172Y115729D01*
X71158Y115700D01*
X71142Y115669D01*
X71101Y115601D01*
X71052Y115530D01*
X70994Y115456D01*
X70926Y115385D01*
X70929Y115383D01*
X70937Y115377D01*
X70948Y115369D01*
X70967Y115358D01*
X70986Y115347D01*
X71011Y115331D01*
X71038Y115314D01*
X71068Y115295D01*
X71134Y115257D01*
X71207Y115219D01*
X71284Y115181D01*
X71357Y115151D01*
X71256Y114921D01*
X71254D01*
X71245Y114927D01*
X71229Y114932D01*
X71210Y114941D01*
X71185Y114951D01*
X71155Y114962D01*
X71123Y114979D01*
X71087Y114998D01*
X71049Y115017D01*
X71005Y115039D01*
X70915Y115091D01*
X70817Y115154D01*
X70716Y115227D01*
X70713Y115224D01*
X70702Y115222D01*
X70688Y115214D01*
X70667Y115203D01*
X70639Y115192D01*
X70609Y115178D01*
X70574Y115164D01*
X70533Y115151D01*
X70489Y115137D01*
X70440Y115123D01*
X70391Y115110D01*
X70336Y115099D01*
X70219Y115080D01*
X70159Y115077D01*
X70096Y115074D01*
X70063D01*
X70039Y115077D01*
X70009Y115080D01*
X69973Y115083D01*
X69935Y115088D01*
X69891Y115096D01*
X69845Y115104D01*
X69796Y115115D01*
X69744Y115129D01*
X69692Y115143D01*
X69638Y115162D01*
X69583Y115183D01*
X69528Y115208D01*
X69476Y115238D01*
X69474Y115241D01*
X69466Y115246D01*
X69449Y115254D01*
X69430Y115268D01*
X69408Y115285D01*
X69381Y115306D01*
X69351Y115331D01*
X69318Y115358D01*
X69285Y115388D01*
X69250Y115424D01*
X69214Y115462D01*
X69179Y115503D01*
X69143Y115547D01*
X69111Y115593D01*
X69078Y115645D01*
X69048Y115700D01*
X69045Y115702D01*
X69042Y115713D01*
X69034Y115729D01*
X69023Y115751D01*
X69012Y115781D01*
X69001Y115814D01*
X68988Y115852D01*
X68974Y115896D01*
X68958Y115945D01*
X68944Y115997D01*
X68933Y116052D01*
X68922Y116112D01*
X68911Y116172D01*
X68903Y116237D01*
X68900Y116305D01*
X68898Y116374D01*
Y116379D01*
Y116390D01*
Y116409D01*
X68900Y116437D01*
X68903Y116469D01*
X68906Y116507D01*
X68911Y116551D01*
X68917Y116600D01*
X68925Y116649D01*
X68933Y116704D01*
X68960Y116819D01*
X68980Y116876D01*
X68999Y116936D01*
X69020Y116996D01*
X69048Y117053D01*
X69051Y117056D01*
X69056Y117067D01*
X69064Y117084D01*
X69075Y117103D01*
X69091Y117130D01*
X69111Y117160D01*
X69132Y117190D01*
X69157Y117226D01*
X69187Y117264D01*
X69220Y117302D01*
X69253Y117340D01*
X69291Y117378D01*
X69334Y117417D01*
X69378Y117452D01*
X69424Y117488D01*
X69476Y117518D01*
X69479Y117520D01*
X69490Y117526D01*
X69504Y117531D01*
X69525Y117542D01*
X69553Y117556D01*
X69583Y117569D01*
X69621Y117583D01*
X69659Y117599D01*
X69706Y117613D01*
X69752Y117627D01*
X69804Y117640D01*
X69861Y117654D01*
X69919Y117665D01*
X69979Y117671D01*
X70042Y117676D01*
X70104Y117679D01*
X70137D01*
X70162Y117676D01*
D02*
G37*
G36*
X75439Y114416D02*
X73388D01*
Y114640D01*
X75439D01*
Y114416D01*
D02*
G37*
G36*
X64545Y86049D02*
X62494D01*
Y86273D01*
X64545D01*
Y86049D01*
D02*
G37*
G36*
X65549Y85612D02*
X65579Y85609D01*
X65612Y85604D01*
X65650Y85598D01*
X65691Y85590D01*
X65735Y85582D01*
X65781Y85568D01*
X65828Y85552D01*
X65874Y85533D01*
X65921Y85511D01*
X65967Y85486D01*
X66011Y85456D01*
X66054Y85424D01*
X66057Y85421D01*
X66062Y85415D01*
X66073Y85404D01*
X66087Y85388D01*
X66106Y85369D01*
X66125Y85347D01*
X66144Y85320D01*
X66166Y85287D01*
X66188Y85254D01*
X66210Y85216D01*
X66229Y85172D01*
X66248Y85129D01*
X66267Y85080D01*
X66281Y85028D01*
X66292Y84970D01*
X66300Y84913D01*
X65975Y84888D01*
Y84891D01*
X65972Y84899D01*
X65970Y84910D01*
X65967Y84927D01*
X65964Y84946D01*
X65956Y84970D01*
X65942Y85022D01*
X65921Y85080D01*
X65891Y85140D01*
X65855Y85194D01*
X65833Y85219D01*
X65811Y85243D01*
X65809D01*
X65806Y85249D01*
X65798Y85254D01*
X65787Y85263D01*
X65759Y85282D01*
X65721Y85301D01*
X65675Y85323D01*
X65620Y85342D01*
X65560Y85355D01*
X65527Y85358D01*
X65492Y85361D01*
X65470D01*
X65454Y85358D01*
X65435Y85355D01*
X65413Y85353D01*
X65361Y85339D01*
X65301Y85320D01*
X65271Y85306D01*
X65238Y85290D01*
X65205Y85271D01*
X65175Y85249D01*
X65145Y85224D01*
X65115Y85194D01*
X65112Y85192D01*
X65110Y85186D01*
X65101Y85178D01*
X65091Y85164D01*
X65080Y85145D01*
X65066Y85126D01*
X65052Y85101D01*
X65036Y85074D01*
X65022Y85044D01*
X65009Y85011D01*
X64995Y84973D01*
X64984Y84935D01*
X64973Y84891D01*
X64965Y84845D01*
X64962Y84798D01*
X64960Y84746D01*
Y84744D01*
Y84736D01*
Y84722D01*
X64962Y84703D01*
X64965Y84681D01*
X64968Y84654D01*
X64973Y84626D01*
X64979Y84594D01*
X64995Y84528D01*
X65022Y84457D01*
X65039Y84424D01*
X65061Y84392D01*
X65082Y84359D01*
X65110Y84329D01*
X65112Y84326D01*
X65115Y84323D01*
X65126Y84315D01*
X65137Y84304D01*
X65151Y84293D01*
X65170Y84280D01*
X65189Y84266D01*
X65213Y84250D01*
X65241Y84236D01*
X65268Y84222D01*
X65336Y84198D01*
X65372Y84187D01*
X65413Y84179D01*
X65454Y84176D01*
X65497Y84173D01*
X65522D01*
X65552Y84176D01*
X65587Y84181D01*
X65631Y84190D01*
X65677Y84203D01*
X65724Y84220D01*
X65770Y84244D01*
X65776Y84247D01*
X65790Y84255D01*
X65811Y84272D01*
X65839Y84291D01*
X65866Y84318D01*
X65899Y84348D01*
X65929Y84383D01*
X65956Y84422D01*
X66245Y84381D01*
X66002Y83087D01*
X64749D01*
Y83381D01*
X65757D01*
X65891Y84059D01*
X65888Y84056D01*
X65879Y84050D01*
X65869Y84045D01*
X65852Y84034D01*
X65830Y84023D01*
X65806Y84009D01*
X65778Y83993D01*
X65746Y83979D01*
X65713Y83966D01*
X65675Y83949D01*
X65596Y83925D01*
X65552Y83914D01*
X65508Y83906D01*
X65462Y83903D01*
X65415Y83900D01*
X65402D01*
X65383Y83903D01*
X65361D01*
X65334Y83908D01*
X65301Y83911D01*
X65263Y83919D01*
X65224Y83928D01*
X65181Y83941D01*
X65137Y83955D01*
X65091Y83974D01*
X65044Y83996D01*
X64998Y84023D01*
X64951Y84053D01*
X64905Y84089D01*
X64861Y84130D01*
X64859Y84132D01*
X64850Y84140D01*
X64839Y84154D01*
X64826Y84171D01*
X64807Y84192D01*
X64788Y84222D01*
X64768Y84252D01*
X64747Y84288D01*
X64725Y84329D01*
X64706Y84375D01*
X64684Y84422D01*
X64667Y84476D01*
X64654Y84531D01*
X64643Y84591D01*
X64635Y84654D01*
X64632Y84719D01*
Y84722D01*
Y84736D01*
Y84752D01*
X64635Y84777D01*
X64637Y84807D01*
X64643Y84839D01*
X64648Y84878D01*
X64657Y84921D01*
X64667Y84965D01*
X64681Y85014D01*
X64697Y85063D01*
X64717Y85112D01*
X64738Y85162D01*
X64766Y85213D01*
X64796Y85263D01*
X64831Y85309D01*
X64834Y85312D01*
X64842Y85323D01*
X64856Y85336D01*
X64875Y85355D01*
X64899Y85380D01*
X64929Y85404D01*
X64965Y85435D01*
X65006Y85462D01*
X65050Y85489D01*
X65099Y85519D01*
X65153Y85544D01*
X65213Y85566D01*
X65276Y85587D01*
X65345Y85601D01*
X65415Y85612D01*
X65492Y85615D01*
X65525D01*
X65549Y85612D01*
D02*
G37*
G36*
X62262Y83054D02*
X61323D01*
X61296Y83057D01*
X61263D01*
X61230Y83059D01*
X61157Y83062D01*
X61083Y83070D01*
X61009Y83078D01*
X60976Y83087D01*
X60946Y83092D01*
X60944D01*
X60935Y83095D01*
X60925Y83098D01*
X60911Y83103D01*
X60892Y83109D01*
X60870Y83114D01*
X60818Y83133D01*
X60761Y83158D01*
X60701Y83188D01*
X60638Y83226D01*
X60578Y83272D01*
X60575Y83275D01*
X60570Y83280D01*
X60559Y83289D01*
X60545Y83302D01*
X60529Y83319D01*
X60510Y83341D01*
X60488Y83362D01*
X60466Y83390D01*
X60441Y83420D01*
X60417Y83452D01*
X60392Y83488D01*
X60368Y83526D01*
X60321Y83611D01*
X60280Y83704D01*
Y83706D01*
X60275Y83715D01*
X60272Y83731D01*
X60264Y83750D01*
X60256Y83775D01*
X60248Y83805D01*
X60239Y83837D01*
X60228Y83876D01*
X60220Y83919D01*
X60212Y83966D01*
X60204Y84015D01*
X60196Y84067D01*
X60188Y84121D01*
X60185Y84179D01*
X60179Y84302D01*
Y84304D01*
Y84315D01*
Y84329D01*
Y84351D01*
X60182Y84375D01*
Y84405D01*
X60185Y84438D01*
X60188Y84474D01*
X60196Y84553D01*
X60209Y84637D01*
X60226Y84725D01*
X60248Y84812D01*
Y84815D01*
X60250Y84823D01*
X60256Y84834D01*
X60259Y84848D01*
X60267Y84867D01*
X60275Y84888D01*
X60294Y84940D01*
X60318Y84998D01*
X60349Y85061D01*
X60381Y85121D01*
X60420Y85178D01*
Y85181D01*
X60425Y85183D01*
X60431Y85192D01*
X60439Y85202D01*
X60458Y85227D01*
X60488Y85260D01*
X60521Y85298D01*
X60559Y85336D01*
X60602Y85372D01*
X60649Y85407D01*
X60652D01*
X60654Y85410D01*
X60671Y85421D01*
X60698Y85435D01*
X60733Y85454D01*
X60777Y85473D01*
X60829Y85495D01*
X60889Y85514D01*
X60952Y85533D01*
X60955D01*
X60960Y85536D01*
X60968D01*
X60982Y85538D01*
X60998Y85541D01*
X61020Y85546D01*
X61042Y85549D01*
X61067Y85552D01*
X61127Y85560D01*
X61195Y85568D01*
X61271Y85571D01*
X61353Y85574D01*
X62262D01*
Y83054D01*
D02*
G37*
G36*
X58989Y83605D02*
X58995Y83611D01*
X59008Y83625D01*
X59033Y83644D01*
X59068Y83671D01*
X59109Y83704D01*
X59161Y83739D01*
X59218Y83777D01*
X59284Y83818D01*
X59287D01*
X59292Y83824D01*
X59300Y83829D01*
X59314Y83835D01*
X59330Y83846D01*
X59349Y83854D01*
X59393Y83878D01*
X59442Y83903D01*
X59497Y83930D01*
X59554Y83955D01*
X59609Y83977D01*
Y83679D01*
X59606Y83676D01*
X59598Y83674D01*
X59584Y83666D01*
X59565Y83657D01*
X59543Y83646D01*
X59516Y83630D01*
X59486Y83614D01*
X59456Y83597D01*
X59385Y83553D01*
X59308Y83502D01*
X59229Y83447D01*
X59156Y83384D01*
X59153Y83381D01*
X59147Y83376D01*
X59136Y83368D01*
X59123Y83354D01*
X59109Y83338D01*
X59090Y83321D01*
X59049Y83275D01*
X59003Y83226D01*
X58956Y83169D01*
X58915Y83109D01*
X58880Y83046D01*
X58680D01*
Y85574D01*
X58989D01*
Y83605D01*
D02*
G37*
G36*
X66688Y85762D02*
X66704Y85757D01*
X66723Y85748D01*
X66748Y85738D01*
X66778Y85727D01*
X66811Y85710D01*
X66846Y85691D01*
X66884Y85672D01*
X66928Y85650D01*
X67018Y85598D01*
X67116Y85536D01*
X67217Y85462D01*
X67220Y85465D01*
X67231Y85467D01*
X67245Y85475D01*
X67266Y85486D01*
X67294Y85497D01*
X67324Y85511D01*
X67359Y85525D01*
X67400Y85538D01*
X67444Y85552D01*
X67493Y85566D01*
X67542Y85579D01*
X67597Y85590D01*
X67714Y85609D01*
X67774Y85612D01*
X67837Y85615D01*
X67870D01*
X67894Y85612D01*
X67924Y85609D01*
X67960Y85606D01*
X67998Y85601D01*
X68042Y85593D01*
X68088Y85585D01*
X68137Y85574D01*
X68189Y85560D01*
X68241Y85546D01*
X68296Y85527D01*
X68350Y85505D01*
X68405Y85481D01*
X68457Y85451D01*
X68459Y85448D01*
X68468Y85443D01*
X68484Y85435D01*
X68503Y85421D01*
X68525Y85404D01*
X68552Y85383D01*
X68582Y85358D01*
X68615Y85331D01*
X68648Y85301D01*
X68683Y85265D01*
X68719Y85227D01*
X68754Y85186D01*
X68790Y85142D01*
X68822Y85096D01*
X68855Y85044D01*
X68885Y84990D01*
X68888Y84987D01*
X68891Y84976D01*
X68899Y84960D01*
X68910Y84938D01*
X68921Y84908D01*
X68932Y84875D01*
X68945Y84837D01*
X68959Y84793D01*
X68975Y84744D01*
X68989Y84692D01*
X69000Y84637D01*
X69011Y84577D01*
X69022Y84517D01*
X69030Y84452D01*
X69033Y84383D01*
X69035Y84315D01*
Y84310D01*
Y84299D01*
Y84280D01*
X69033Y84252D01*
X69030Y84220D01*
X69027Y84181D01*
X69022Y84138D01*
X69016Y84089D01*
X69008Y84039D01*
X69000Y83985D01*
X68973Y83870D01*
X68954Y83813D01*
X68934Y83753D01*
X68913Y83693D01*
X68885Y83635D01*
X68883Y83633D01*
X68877Y83622D01*
X68869Y83605D01*
X68858Y83586D01*
X68842Y83559D01*
X68822Y83529D01*
X68801Y83499D01*
X68776Y83463D01*
X68746Y83425D01*
X68713Y83387D01*
X68681Y83349D01*
X68642Y83311D01*
X68599Y83272D01*
X68555Y83237D01*
X68508Y83201D01*
X68457Y83171D01*
X68454Y83169D01*
X68443Y83163D01*
X68429Y83158D01*
X68407Y83147D01*
X68380Y83133D01*
X68350Y83119D01*
X68312Y83106D01*
X68274Y83089D01*
X68227Y83076D01*
X68181Y83062D01*
X68129Y83048D01*
X68072Y83035D01*
X68014Y83024D01*
X67954Y83018D01*
X67892Y83013D01*
X67829Y83010D01*
X67796D01*
X67771Y83013D01*
X67739Y83016D01*
X67703Y83018D01*
X67665Y83024D01*
X67621Y83032D01*
X67572Y83040D01*
X67523Y83051D01*
X67471Y83065D01*
X67417Y83081D01*
X67362Y83100D01*
X67307Y83122D01*
X67256Y83147D01*
X67201Y83177D01*
X67198Y83179D01*
X67187Y83185D01*
X67174Y83193D01*
X67155Y83207D01*
X67130Y83223D01*
X67105Y83245D01*
X67075Y83270D01*
X67042Y83297D01*
X67007Y83330D01*
X66972Y83362D01*
X66936Y83401D01*
X66901Y83442D01*
X66868Y83488D01*
X66832Y83534D01*
X66802Y83586D01*
X66772Y83641D01*
X66769Y83644D01*
X66767Y83654D01*
X66759Y83671D01*
X66750Y83693D01*
X66737Y83720D01*
X66726Y83756D01*
X66712Y83794D01*
X66699Y83837D01*
X66685Y83884D01*
X66671Y83936D01*
X66658Y83990D01*
X66647Y84050D01*
X66638Y84110D01*
X66630Y84176D01*
X66628Y84244D01*
X66625Y84312D01*
Y84315D01*
Y84326D01*
Y84342D01*
X66628Y84364D01*
Y84392D01*
X66630Y84424D01*
X66633Y84460D01*
X66636Y84498D01*
X66641Y84542D01*
X66649Y84585D01*
X66666Y84681D01*
X66688Y84777D01*
X66720Y84872D01*
Y84875D01*
X66726Y84883D01*
X66731Y84897D01*
X66739Y84913D01*
X66748Y84935D01*
X66761Y84960D01*
X66775Y84990D01*
X66791Y85019D01*
X66832Y85088D01*
X66882Y85159D01*
X66939Y85233D01*
X67007Y85303D01*
X67004Y85306D01*
X66996Y85312D01*
X66985Y85320D01*
X66966Y85331D01*
X66947Y85342D01*
X66922Y85358D01*
X66895Y85374D01*
X66865Y85394D01*
X66800Y85432D01*
X66726Y85470D01*
X66649Y85508D01*
X66576Y85538D01*
X66677Y85768D01*
X66679D01*
X66688Y85762D01*
D02*
G37*
%LPC*%
G36*
X60945Y189607D02*
X60366D01*
X60344Y189604D01*
X60320D01*
X60265Y189601D01*
X60202Y189596D01*
X60137Y189588D01*
X60074Y189577D01*
X60017Y189563D01*
X60014D01*
X60011Y189560D01*
X60003Y189558D01*
X59992Y189555D01*
X59968Y189544D01*
X59935Y189530D01*
X59899Y189511D01*
X59861Y189489D01*
X59823Y189462D01*
X59790Y189432D01*
X59787Y189429D01*
X59785Y189427D01*
X59771Y189410D01*
X59749Y189383D01*
X59722Y189348D01*
X59695Y189301D01*
X59665Y189246D01*
X59635Y189184D01*
X59607Y189113D01*
Y189110D01*
X59605Y189104D01*
X59602Y189094D01*
X59596Y189077D01*
X59591Y189058D01*
X59585Y189034D01*
X59580Y189006D01*
X59572Y188976D01*
X59566Y188944D01*
X59561Y188905D01*
X59555Y188867D01*
X59550Y188823D01*
X59542Y188731D01*
X59539Y188627D01*
Y188621D01*
Y188610D01*
Y188589D01*
X59542Y188561D01*
Y188529D01*
X59544Y188490D01*
X59550Y188449D01*
X59555Y188403D01*
X59572Y188305D01*
X59594Y188204D01*
X59626Y188108D01*
X59648Y188062D01*
X59670Y188021D01*
X59673Y188018D01*
X59676Y188013D01*
X59684Y188002D01*
X59695Y187985D01*
X59706Y187969D01*
X59722Y187950D01*
X59757Y187906D01*
X59804Y187857D01*
X59859Y187811D01*
X59918Y187767D01*
X59951Y187750D01*
X59987Y187734D01*
X59990D01*
X59992Y187731D01*
X60000Y187729D01*
X60011Y187726D01*
X60028Y187723D01*
X60044Y187718D01*
X60066Y187712D01*
X60091Y187707D01*
X60118Y187704D01*
X60151Y187699D01*
X60186Y187693D01*
X60224Y187690D01*
X60268Y187688D01*
X60314Y187685D01*
X60364Y187682D01*
X60945D01*
Y189607D01*
D02*
G37*
G36*
X66844Y189662D02*
X66815D01*
X66798Y189659D01*
X66779D01*
X66735Y189653D01*
X66684Y189645D01*
X66626Y189634D01*
X66566Y189618D01*
X66506Y189596D01*
X66509D01*
X66514Y189591D01*
X66522Y189585D01*
X66533Y189580D01*
X66547Y189571D01*
X66566Y189560D01*
X66607Y189539D01*
X66656Y189517D01*
X66711Y189492D01*
X66773Y189470D01*
X66836Y189451D01*
X66757Y189208D01*
X66754D01*
X66743Y189211D01*
X66730Y189216D01*
X66708Y189225D01*
X66684Y189233D01*
X66656Y189244D01*
X66623Y189255D01*
X66588Y189268D01*
X66514Y189304D01*
X66432Y189345D01*
X66353Y189394D01*
X66279Y189448D01*
X66277Y189446D01*
X66266Y189435D01*
X66252Y189421D01*
X66233Y189399D01*
X66211Y189369D01*
X66187Y189337D01*
X66159Y189296D01*
X66132Y189246D01*
X66105Y189195D01*
X66077Y189135D01*
X66053Y189069D01*
X66031Y188995D01*
X66012Y188916D01*
X65998Y188831D01*
X65987Y188742D01*
X65985Y188643D01*
Y188640D01*
Y188629D01*
Y188613D01*
X65987Y188591D01*
Y188564D01*
X65990Y188534D01*
X65993Y188498D01*
X65998Y188463D01*
X66009Y188378D01*
X66028Y188288D01*
X66056Y188198D01*
X66091Y188111D01*
Y188108D01*
X66097Y188100D01*
X66102Y188089D01*
X66110Y188073D01*
X66121Y188054D01*
X66135Y188032D01*
X66167Y187980D01*
X66211Y187923D01*
X66263Y187865D01*
X66323Y187808D01*
X66394Y187756D01*
X66397Y187753D01*
X66402Y187750D01*
X66413Y187745D01*
X66430Y187737D01*
X66449Y187726D01*
X66470Y187715D01*
X66495Y187704D01*
X66525Y187690D01*
X66558Y187680D01*
X66591Y187669D01*
X66667Y187647D01*
X66752Y187633D01*
X66798Y187628D01*
X66861D01*
X66880Y187630D01*
X66907D01*
X66937Y187636D01*
X66976Y187641D01*
X67017Y187650D01*
X67060Y187660D01*
X67109Y187674D01*
X67159Y187690D01*
X67210Y187712D01*
X67262Y187737D01*
X67314Y187764D01*
X67363Y187800D01*
X67415Y187838D01*
X67462Y187884D01*
X67464Y187887D01*
X67472Y187895D01*
X67483Y187911D01*
X67500Y187931D01*
X67519Y187958D01*
X67538Y187991D01*
X67563Y188029D01*
X67584Y188075D01*
X67606Y188125D01*
X67628Y188182D01*
X67650Y188245D01*
X67669Y188313D01*
X67685Y188387D01*
X67696Y188469D01*
X67704Y188553D01*
X67707Y188646D01*
Y188651D01*
Y188668D01*
X67704Y188692D01*
Y188728D01*
X67699Y188769D01*
X67694Y188815D01*
X67688Y188867D01*
X67677Y188924D01*
X67664Y188984D01*
X67647Y189044D01*
X67628Y189107D01*
X67603Y189170D01*
X67576Y189233D01*
X67543Y189293D01*
X67508Y189348D01*
X67464Y189399D01*
X67462Y189402D01*
X67453Y189410D01*
X67440Y189424D01*
X67421Y189440D01*
X67396Y189459D01*
X67369Y189481D01*
X67333Y189506D01*
X67295Y189530D01*
X67254Y189555D01*
X67205Y189580D01*
X67156Y189601D01*
X67101Y189620D01*
X67041Y189637D01*
X66978Y189650D01*
X66913Y189659D01*
X66844Y189662D01*
D02*
G37*
G36*
X71490Y220878D02*
X71471D01*
X71454Y220875D01*
X71438Y220872D01*
X71416Y220869D01*
X71367Y220858D01*
X71310Y220839D01*
X71250Y220812D01*
X71219Y220796D01*
X71189Y220777D01*
X71159Y220752D01*
X71132Y220725D01*
X71129Y220722D01*
X71127Y220716D01*
X71118Y220708D01*
X71110Y220697D01*
X71099Y220684D01*
X71086Y220665D01*
X71072Y220643D01*
X71061Y220618D01*
X71047Y220594D01*
X71034Y220564D01*
X71009Y220495D01*
X70993Y220419D01*
X70990Y220375D01*
X70987Y220332D01*
Y220329D01*
Y220323D01*
Y220315D01*
Y220304D01*
X70990Y220290D01*
Y220274D01*
X70996Y220233D01*
X71004Y220187D01*
X71015Y220135D01*
X71031Y220080D01*
X71053Y220026D01*
Y220023D01*
X71056Y220020D01*
X71061Y220012D01*
X71066Y220001D01*
X71080Y219977D01*
X71102Y219944D01*
X71129Y219908D01*
X71162Y219873D01*
X71198Y219837D01*
X71241Y219805D01*
X71244D01*
X71247Y219802D01*
X71263Y219794D01*
X71288Y219780D01*
X71320Y219766D01*
X71359Y219753D01*
X71402Y219739D01*
X71451Y219731D01*
X71501Y219728D01*
X71520D01*
X71533Y219731D01*
X71552Y219734D01*
X71572Y219736D01*
X71618Y219747D01*
X71670Y219766D01*
X71700Y219780D01*
X71727Y219794D01*
X71757Y219813D01*
X71785Y219832D01*
X71812Y219857D01*
X71839Y219884D01*
X71842Y219886D01*
X71845Y219892D01*
X71853Y219900D01*
X71861Y219914D01*
X71872Y219930D01*
X71883Y219949D01*
X71896Y219971D01*
X71910Y219998D01*
X71924Y220026D01*
X71937Y220058D01*
X71948Y220094D01*
X71959Y220132D01*
X71967Y220173D01*
X71976Y220219D01*
X71978Y220266D01*
X71981Y220315D01*
Y220318D01*
Y220326D01*
Y220340D01*
X71978Y220359D01*
X71976Y220381D01*
X71973Y220405D01*
X71970Y220432D01*
X71965Y220462D01*
X71948Y220528D01*
X71924Y220596D01*
X71907Y220632D01*
X71888Y220665D01*
X71866Y220695D01*
X71842Y220725D01*
X71839Y220727D01*
X71836Y220730D01*
X71828Y220738D01*
X71817Y220749D01*
X71804Y220760D01*
X71787Y220774D01*
X71746Y220801D01*
X71694Y220828D01*
X71634Y220853D01*
X71566Y220872D01*
X71528Y220875D01*
X71490Y220878D01*
D02*
G37*
G36*
X75601Y221737D02*
X75020D01*
Y219813D01*
X75598D01*
X75620Y219815D01*
X75645D01*
X75699Y219818D01*
X75762Y219824D01*
X75828Y219832D01*
X75890Y219843D01*
X75948Y219857D01*
X75950D01*
X75953Y219859D01*
X75961Y219862D01*
X75972Y219865D01*
X75997Y219876D01*
X76030Y219889D01*
X76065Y219908D01*
X76103Y219930D01*
X76142Y219957D01*
X76174Y219988D01*
X76177Y219990D01*
X76180Y219993D01*
X76193Y220009D01*
X76215Y220037D01*
X76243Y220072D01*
X76270Y220118D01*
X76300Y220173D01*
X76330Y220236D01*
X76357Y220307D01*
Y220310D01*
X76360Y220315D01*
X76363Y220326D01*
X76368Y220342D01*
X76374Y220361D01*
X76379Y220386D01*
X76385Y220413D01*
X76393Y220443D01*
X76398Y220476D01*
X76404Y220514D01*
X76409Y220553D01*
X76415Y220596D01*
X76423Y220689D01*
X76425Y220793D01*
Y220798D01*
Y220809D01*
Y220831D01*
X76423Y220858D01*
Y220891D01*
X76420Y220929D01*
X76415Y220970D01*
X76409Y221017D01*
X76393Y221115D01*
X76371Y221216D01*
X76338Y221311D01*
X76316Y221358D01*
X76294Y221399D01*
X76292Y221402D01*
X76289Y221407D01*
X76281Y221418D01*
X76270Y221434D01*
X76259Y221451D01*
X76243Y221470D01*
X76207Y221514D01*
X76161Y221563D01*
X76106Y221609D01*
X76046Y221653D01*
X76013Y221669D01*
X75978Y221686D01*
X75975D01*
X75972Y221688D01*
X75964Y221691D01*
X75953Y221694D01*
X75937Y221696D01*
X75920Y221702D01*
X75899Y221707D01*
X75874Y221713D01*
X75847Y221716D01*
X75814Y221721D01*
X75779Y221726D01*
X75740Y221729D01*
X75697Y221732D01*
X75650Y221735D01*
X75601Y221737D01*
D02*
G37*
G36*
X69166Y221792D02*
X69104D01*
X69085Y221789D01*
X69057D01*
X69027Y221784D01*
X68989Y221778D01*
X68948Y221770D01*
X68904Y221759D01*
X68855Y221746D01*
X68806Y221729D01*
X68754Y221707D01*
X68702Y221683D01*
X68651Y221656D01*
X68601Y221620D01*
X68550Y221582D01*
X68503Y221535D01*
X68500Y221533D01*
X68492Y221525D01*
X68481Y221508D01*
X68465Y221489D01*
X68446Y221462D01*
X68427Y221429D01*
X68402Y221391D01*
X68380Y221344D01*
X68358Y221295D01*
X68336Y221238D01*
X68315Y221175D01*
X68296Y221107D01*
X68279Y221033D01*
X68268Y220951D01*
X68260Y220867D01*
X68257Y220774D01*
Y220768D01*
Y220752D01*
X68260Y220727D01*
Y220692D01*
X68266Y220651D01*
X68271Y220604D01*
X68277Y220553D01*
X68287Y220495D01*
X68301Y220435D01*
X68317Y220375D01*
X68336Y220312D01*
X68361Y220250D01*
X68388Y220187D01*
X68421Y220127D01*
X68457Y220072D01*
X68500Y220020D01*
X68503Y220018D01*
X68511Y220009D01*
X68525Y219996D01*
X68544Y219979D01*
X68569Y219960D01*
X68596Y219938D01*
X68631Y219914D01*
X68670Y219889D01*
X68711Y219865D01*
X68760Y219840D01*
X68809Y219818D01*
X68863Y219799D01*
X68923Y219783D01*
X68986Y219769D01*
X69052Y219761D01*
X69120Y219758D01*
X69150D01*
X69166Y219761D01*
X69186D01*
X69229Y219766D01*
X69281Y219775D01*
X69339Y219785D01*
X69398Y219802D01*
X69459Y219824D01*
X69456D01*
X69450Y219829D01*
X69442Y219835D01*
X69431Y219840D01*
X69418Y219848D01*
X69398Y219859D01*
X69358Y219881D01*
X69308Y219903D01*
X69254Y219927D01*
X69191Y219949D01*
X69128Y219968D01*
X69207Y220211D01*
X69210D01*
X69221Y220209D01*
X69235Y220203D01*
X69257Y220195D01*
X69281Y220187D01*
X69308Y220176D01*
X69341Y220165D01*
X69377Y220151D01*
X69450Y220116D01*
X69532Y220075D01*
X69612Y220026D01*
X69685Y219971D01*
X69688Y219974D01*
X69699Y219985D01*
X69713Y219998D01*
X69732Y220020D01*
X69753Y220050D01*
X69778Y220083D01*
X69805Y220124D01*
X69833Y220173D01*
X69860Y220225D01*
X69887Y220285D01*
X69912Y220351D01*
X69934Y220424D01*
X69953Y220503D01*
X69966Y220588D01*
X69977Y220678D01*
X69980Y220777D01*
Y220779D01*
Y220790D01*
Y220807D01*
X69977Y220828D01*
Y220856D01*
X69974Y220886D01*
X69972Y220921D01*
X69966Y220957D01*
X69955Y221041D01*
X69936Y221131D01*
X69909Y221221D01*
X69873Y221309D01*
Y221311D01*
X69868Y221320D01*
X69863Y221331D01*
X69854Y221347D01*
X69844Y221366D01*
X69830Y221388D01*
X69797Y221440D01*
X69753Y221497D01*
X69701Y221554D01*
X69642Y221612D01*
X69570Y221664D01*
X69568Y221666D01*
X69562Y221669D01*
X69551Y221675D01*
X69535Y221683D01*
X69516Y221694D01*
X69494Y221705D01*
X69469Y221716D01*
X69440Y221729D01*
X69407Y221740D01*
X69374Y221751D01*
X69297Y221773D01*
X69213Y221787D01*
X69166Y221792D01*
D02*
G37*
G36*
X71925Y116418D02*
X71925Y116418D01*
Y116415D01*
X71925Y116418D01*
D02*
G37*
G36*
X72474Y116478D02*
X72455D01*
X72439Y116475D01*
X72422Y116472D01*
X72400Y116469D01*
X72351Y116458D01*
X72294Y116439D01*
X72234Y116412D01*
X72204Y116396D01*
X72174Y116376D01*
X72144Y116352D01*
X72116Y116325D01*
X72114Y116322D01*
X72111Y116316D01*
X72103Y116308D01*
X72095Y116297D01*
X72084Y116284D01*
X72070Y116265D01*
X72056Y116243D01*
X72045Y116218D01*
X72032Y116194D01*
X72018Y116164D01*
X71993Y116095D01*
X71977Y116019D01*
X71974Y115975D01*
X71972Y115931D01*
Y115929D01*
Y115923D01*
Y115915D01*
Y115904D01*
X71974Y115891D01*
Y115874D01*
X71980Y115833D01*
X71988Y115787D01*
X71999Y115735D01*
X72015Y115680D01*
X72037Y115626D01*
Y115623D01*
X72040Y115620D01*
X72045Y115612D01*
X72051Y115601D01*
X72064Y115577D01*
X72086Y115544D01*
X72114Y115508D01*
X72146Y115473D01*
X72182Y115437D01*
X72225Y115405D01*
X72228D01*
X72231Y115402D01*
X72247Y115394D01*
X72272Y115380D01*
X72305Y115366D01*
X72343Y115353D01*
X72387Y115339D01*
X72436Y115331D01*
X72485Y115328D01*
X72504D01*
X72518Y115331D01*
X72537Y115334D01*
X72556Y115336D01*
X72602Y115347D01*
X72654Y115366D01*
X72684Y115380D01*
X72711Y115394D01*
X72742Y115413D01*
X72769Y115432D01*
X72796Y115456D01*
X72823Y115484D01*
X72826Y115487D01*
X72829Y115492D01*
X72837Y115500D01*
X72845Y115514D01*
X72856Y115530D01*
X72867Y115549D01*
X72881Y115571D01*
X72894Y115598D01*
X72908Y115626D01*
X72922Y115658D01*
X72933Y115694D01*
X72944Y115732D01*
X72952Y115773D01*
X72960Y115820D01*
X72963Y115866D01*
X72965Y115915D01*
Y115918D01*
Y115926D01*
Y115940D01*
X72963Y115959D01*
X72960Y115981D01*
X72957Y116005D01*
X72954Y116033D01*
X72949Y116063D01*
X72933Y116128D01*
X72908Y116196D01*
X72892Y116232D01*
X72873Y116265D01*
X72851Y116295D01*
X72826Y116325D01*
X72823Y116327D01*
X72821Y116330D01*
X72812Y116338D01*
X72802Y116349D01*
X72788Y116360D01*
X72772Y116374D01*
X72731Y116401D01*
X72679Y116428D01*
X72619Y116453D01*
X72550Y116472D01*
X72512Y116475D01*
X72474Y116478D01*
D02*
G37*
G36*
X76585Y117338D02*
X76004D01*
Y115413D01*
X76583D01*
X76604Y115416D01*
X76629D01*
X76684Y115418D01*
X76746Y115424D01*
X76812Y115432D01*
X76875Y115443D01*
X76932Y115456D01*
X76935D01*
X76938Y115459D01*
X76946Y115462D01*
X76957Y115465D01*
X76981Y115476D01*
X77014Y115489D01*
X77049Y115508D01*
X77088Y115530D01*
X77126Y115558D01*
X77159Y115587D01*
X77161Y115590D01*
X77164Y115593D01*
X77178Y115609D01*
X77200Y115637D01*
X77227Y115672D01*
X77254Y115719D01*
X77284Y115773D01*
X77314Y115836D01*
X77342Y115907D01*
Y115910D01*
X77344Y115915D01*
X77347Y115926D01*
X77352Y115942D01*
X77358Y115962D01*
X77363Y115986D01*
X77369Y116013D01*
X77377Y116043D01*
X77382Y116076D01*
X77388Y116114D01*
X77393Y116153D01*
X77399Y116196D01*
X77407Y116289D01*
X77410Y116393D01*
Y116398D01*
Y116409D01*
Y116431D01*
X77407Y116458D01*
Y116491D01*
X77404Y116529D01*
X77399Y116570D01*
X77393Y116617D01*
X77377Y116715D01*
X77355Y116816D01*
X77322Y116912D01*
X77301Y116958D01*
X77279Y116999D01*
X77276Y117002D01*
X77273Y117007D01*
X77265Y117018D01*
X77254Y117034D01*
X77243Y117051D01*
X77227Y117070D01*
X77191Y117114D01*
X77145Y117163D01*
X77090Y117209D01*
X77030Y117253D01*
X76998Y117269D01*
X76962Y117286D01*
X76959D01*
X76957Y117288D01*
X76948Y117291D01*
X76938Y117294D01*
X76921Y117297D01*
X76905Y117302D01*
X76883Y117307D01*
X76858Y117313D01*
X76831Y117316D01*
X76798Y117321D01*
X76763Y117326D01*
X76724Y117329D01*
X76681Y117332D01*
X76635Y117335D01*
X76585Y117338D01*
D02*
G37*
G36*
X70151Y117392D02*
X70088D01*
X70069Y117389D01*
X70042D01*
X70012Y117384D01*
X69973Y117378D01*
X69932Y117370D01*
X69889Y117359D01*
X69840Y117346D01*
X69790Y117329D01*
X69739Y117307D01*
X69687Y117283D01*
X69635Y117256D01*
X69586Y117220D01*
X69534Y117182D01*
X69487Y117135D01*
X69485Y117133D01*
X69476Y117124D01*
X69466Y117108D01*
X69449Y117089D01*
X69430Y117062D01*
X69411Y117029D01*
X69386Y116991D01*
X69365Y116944D01*
X69343Y116895D01*
X69321Y116838D01*
X69299Y116775D01*
X69280Y116707D01*
X69263Y116633D01*
X69253Y116551D01*
X69244Y116467D01*
X69242Y116374D01*
Y116368D01*
Y116352D01*
X69244Y116327D01*
Y116292D01*
X69250Y116251D01*
X69255Y116205D01*
X69261Y116153D01*
X69272Y116095D01*
X69285Y116035D01*
X69302Y115975D01*
X69321Y115912D01*
X69345Y115850D01*
X69373Y115787D01*
X69405Y115727D01*
X69441Y115672D01*
X69485Y115620D01*
X69487Y115618D01*
X69495Y115609D01*
X69509Y115596D01*
X69528Y115579D01*
X69553Y115560D01*
X69580Y115538D01*
X69616Y115514D01*
X69654Y115489D01*
X69695Y115465D01*
X69744Y115440D01*
X69793Y115418D01*
X69848Y115399D01*
X69908Y115383D01*
X69971Y115369D01*
X70036Y115361D01*
X70104Y115358D01*
X70134D01*
X70151Y115361D01*
X70170D01*
X70214Y115366D01*
X70265Y115375D01*
X70323Y115385D01*
X70383Y115402D01*
X70443Y115424D01*
X70440D01*
X70435Y115429D01*
X70426Y115435D01*
X70416Y115440D01*
X70402Y115448D01*
X70383Y115459D01*
X70342Y115481D01*
X70293Y115503D01*
X70238Y115527D01*
X70175Y115549D01*
X70113Y115568D01*
X70192Y115811D01*
X70194D01*
X70205Y115809D01*
X70219Y115803D01*
X70241Y115795D01*
X70265Y115787D01*
X70293Y115776D01*
X70325Y115765D01*
X70361Y115751D01*
X70435Y115716D01*
X70517Y115675D01*
X70596Y115626D01*
X70669Y115571D01*
X70672Y115574D01*
X70683Y115585D01*
X70697Y115598D01*
X70716Y115620D01*
X70738Y115650D01*
X70762Y115683D01*
X70789Y115724D01*
X70817Y115773D01*
X70844Y115825D01*
X70871Y115885D01*
X70896Y115951D01*
X70918Y116024D01*
X70937Y116103D01*
X70951Y116188D01*
X70961Y116278D01*
X70964Y116376D01*
Y116379D01*
Y116390D01*
Y116407D01*
X70961Y116428D01*
Y116456D01*
X70959Y116486D01*
X70956Y116521D01*
X70951Y116557D01*
X70940Y116641D01*
X70921Y116731D01*
X70893Y116822D01*
X70858Y116909D01*
Y116912D01*
X70852Y116920D01*
X70847Y116931D01*
X70839Y116947D01*
X70828Y116966D01*
X70814Y116988D01*
X70781Y117040D01*
X70738Y117097D01*
X70686Y117155D01*
X70626Y117212D01*
X70555Y117264D01*
X70552Y117266D01*
X70547Y117269D01*
X70536Y117275D01*
X70519Y117283D01*
X70500Y117294D01*
X70478Y117305D01*
X70454Y117316D01*
X70424Y117329D01*
X70391Y117340D01*
X70358Y117351D01*
X70282Y117373D01*
X70197Y117387D01*
X70151Y117392D01*
D02*
G37*
G36*
X61929Y85276D02*
X61351D01*
X61329Y85273D01*
X61304D01*
X61250Y85271D01*
X61187Y85265D01*
X61121Y85257D01*
X61058Y85246D01*
X61001Y85233D01*
X60998D01*
X60996Y85230D01*
X60987Y85227D01*
X60976Y85224D01*
X60952Y85213D01*
X60919Y85200D01*
X60884Y85181D01*
X60845Y85159D01*
X60807Y85132D01*
X60774Y85101D01*
X60772Y85099D01*
X60769Y85096D01*
X60755Y85080D01*
X60733Y85052D01*
X60706Y85017D01*
X60679Y84970D01*
X60649Y84916D01*
X60619Y84853D01*
X60592Y84782D01*
Y84779D01*
X60589Y84774D01*
X60586Y84763D01*
X60581Y84746D01*
X60575Y84727D01*
X60570Y84703D01*
X60564Y84676D01*
X60556Y84645D01*
X60551Y84613D01*
X60545Y84575D01*
X60540Y84536D01*
X60534Y84493D01*
X60526Y84400D01*
X60523Y84296D01*
Y84291D01*
Y84280D01*
Y84258D01*
X60526Y84231D01*
Y84198D01*
X60529Y84160D01*
X60534Y84119D01*
X60540Y84072D01*
X60556Y83974D01*
X60578Y83873D01*
X60611Y83777D01*
X60632Y83731D01*
X60654Y83690D01*
X60657Y83687D01*
X60660Y83682D01*
X60668Y83671D01*
X60679Y83654D01*
X60690Y83638D01*
X60706Y83619D01*
X60742Y83575D01*
X60788Y83526D01*
X60843Y83480D01*
X60903Y83436D01*
X60935Y83420D01*
X60971Y83403D01*
X60974D01*
X60976Y83401D01*
X60985Y83398D01*
X60996Y83395D01*
X61012Y83393D01*
X61028Y83387D01*
X61050Y83381D01*
X61075Y83376D01*
X61102Y83373D01*
X61135Y83368D01*
X61170Y83362D01*
X61208Y83360D01*
X61252Y83357D01*
X61299Y83354D01*
X61348Y83351D01*
X61929D01*
Y85276D01*
D02*
G37*
G36*
X67829Y85331D02*
X67799D01*
X67782Y85328D01*
X67763D01*
X67720Y85323D01*
X67668Y85314D01*
X67610Y85303D01*
X67550Y85287D01*
X67490Y85265D01*
X67493D01*
X67498Y85260D01*
X67507Y85254D01*
X67518Y85249D01*
X67531Y85241D01*
X67550Y85230D01*
X67591Y85208D01*
X67640Y85186D01*
X67695Y85162D01*
X67758Y85140D01*
X67821Y85121D01*
X67741Y84878D01*
X67739D01*
X67728Y84880D01*
X67714Y84886D01*
X67692Y84894D01*
X67668Y84902D01*
X67640Y84913D01*
X67608Y84924D01*
X67572Y84938D01*
X67498Y84973D01*
X67417Y85014D01*
X67337Y85063D01*
X67264Y85118D01*
X67261Y85115D01*
X67250Y85104D01*
X67236Y85091D01*
X67217Y85069D01*
X67195Y85039D01*
X67171Y85006D01*
X67143Y84965D01*
X67116Y84916D01*
X67089Y84864D01*
X67062Y84804D01*
X67037Y84738D01*
X67015Y84665D01*
X66996Y84585D01*
X66983Y84501D01*
X66972Y84411D01*
X66969Y84312D01*
Y84310D01*
Y84299D01*
Y84282D01*
X66972Y84261D01*
Y84233D01*
X66974Y84203D01*
X66977Y84168D01*
X66983Y84132D01*
X66993Y84048D01*
X67013Y83958D01*
X67040Y83868D01*
X67075Y83780D01*
Y83777D01*
X67081Y83769D01*
X67086Y83758D01*
X67094Y83742D01*
X67105Y83723D01*
X67119Y83701D01*
X67152Y83649D01*
X67195Y83592D01*
X67247Y83534D01*
X67307Y83477D01*
X67378Y83425D01*
X67381Y83422D01*
X67387Y83420D01*
X67397Y83414D01*
X67414Y83406D01*
X67433Y83395D01*
X67455Y83384D01*
X67479Y83373D01*
X67509Y83360D01*
X67542Y83349D01*
X67575Y83338D01*
X67651Y83316D01*
X67736Y83302D01*
X67782Y83297D01*
X67845D01*
X67864Y83300D01*
X67892D01*
X67922Y83305D01*
X67960Y83311D01*
X68001Y83319D01*
X68044Y83330D01*
X68094Y83343D01*
X68143Y83360D01*
X68195Y83381D01*
X68247Y83406D01*
X68298Y83433D01*
X68348Y83469D01*
X68399Y83507D01*
X68446Y83553D01*
X68449Y83556D01*
X68457Y83564D01*
X68468Y83581D01*
X68484Y83600D01*
X68503Y83627D01*
X68522Y83660D01*
X68547Y83698D01*
X68569Y83745D01*
X68590Y83794D01*
X68612Y83851D01*
X68634Y83914D01*
X68653Y83982D01*
X68670Y84056D01*
X68681Y84138D01*
X68689Y84222D01*
X68691Y84315D01*
Y84321D01*
Y84337D01*
X68689Y84362D01*
Y84397D01*
X68683Y84438D01*
X68678Y84484D01*
X68672Y84536D01*
X68661Y84594D01*
X68648Y84654D01*
X68631Y84714D01*
X68612Y84777D01*
X68588Y84839D01*
X68560Y84902D01*
X68528Y84962D01*
X68492Y85017D01*
X68449Y85069D01*
X68446Y85071D01*
X68438Y85080D01*
X68424Y85093D01*
X68405Y85110D01*
X68380Y85129D01*
X68353Y85151D01*
X68317Y85175D01*
X68279Y85200D01*
X68238Y85224D01*
X68189Y85249D01*
X68140Y85271D01*
X68085Y85290D01*
X68025Y85306D01*
X67962Y85320D01*
X67897Y85328D01*
X67829Y85331D01*
D02*
G37*
%LPD*%
D10*
X78583Y176378D02*
Y203346D01*
X57520D02*
X78583D01*
X57520Y176378D02*
Y203346D01*
Y176378D02*
X78583D01*
X57382Y233042D02*
X78445D01*
Y206073D02*
Y233042D01*
X57382Y206073D02*
X78445D01*
X57382D02*
Y233042D01*
X58366Y128642D02*
X79429D01*
Y101673D02*
Y128642D01*
X58366Y101673D02*
X79429D01*
X58366D02*
Y128642D01*
X79567Y72047D02*
Y99016D01*
X58504D02*
X79567D01*
X58504Y72047D02*
Y99016D01*
Y72047D02*
X79567D01*
M02*
