M48
;Layer_Color=9474304
;FILE_FORMAT=2:5
INCH,TZ
;TYPE=PLATED
T1F00S00C0.01181
T2F00S00C0.03346
T3F00S00C0.04213
T4F00S00C0.13386
;TYPE=NON_PLATED
T5F00S00C0.06300
T6F00S00C0.12795
%
T01
X55935Y13882
X53150Y17717
X49213Y21654
X45276Y25591
X41339Y29528
X55118Y35433
Y43307
X59055Y31496
X62992Y27559
X70472Y24409
X94488Y32933
Y37933
X102362Y45276
X102772Y25814
Y21772
X102756Y17323
Y13780
X111843Y21291
X118110Y15748
X125984Y11811
X133858
X141732
X149606
X157480
X165354
X173228
X181102
X188976
X196850
X204724
X110762Y2716
X212598Y11811
X220472
X228346
X236221Y13583
X238976Y15157
X238976Y12008
X241732Y10433
X241732Y13583
X244488Y15157
X244488Y12008
X247244Y10433
X247244Y13583
X250000Y12008
X250000Y15157
X252756Y13583
X252756Y10433
X255512Y12008
X255512Y15157
X258268Y13583
Y10433
X261024Y12008
Y15157
X261024Y18307
Y21457
X263779Y19882
Y16732
X263779Y13583
X263780Y10433
X266535Y12008
X266535Y15157
X266535Y18307
Y21457
X270887Y21421
X269291Y16732
X269291Y13583
X269291Y10433
X272047Y12008
X272047Y15157
X274803Y13583
X274803Y10433
X277559Y12008
X277559Y15157
X277559Y18307
X277559Y21457
X280315Y23031
X280315Y19882
X280315Y16732
X280315Y13583
X280315Y10433
X283071Y12008
X283071Y15157
X283071Y18307
X283071Y21457
X285750Y23092
X285827Y19882
X285827Y16732
X285827Y13583
X285827Y10433
X288583Y12008
X288583Y15157
X288583Y18307
X288583Y21457
X291339Y16732
X295276Y11811
X303150
X311024
X318898
X326772Y11811
X330709Y15748
X334646Y19685
X350394Y5906
X356299Y11811
X274803Y16732
X274803Y28543
Y31693
Y34843
X277559Y36417
Y39567
X280315Y37992
Y34843
Y31693
Y28543
X277559Y30118
Y33268
X272047
Y30118
X269291Y28543
Y31693
Y34843
X266535Y33268
Y30118
X263779Y28543
Y31693
Y34843
Y37992
X261024Y36417
Y33268
Y30118
X258268Y31693
Y34843
X255512Y33268
Y30118
X258268Y28543
X252756
Y31693
Y34843
X255512Y36417
X250000Y33268
Y30118
Y26969
X247244Y28543
Y31693
Y34843
X235827Y40157
X261024Y39961
X266535Y36417
X270866Y40157
X283071Y39567
Y36417
Y33268
Y30118
X285827Y31693
Y34843
Y37992
X258268Y16732
X252756Y16732
X379921Y35433
X385827Y43307
Y51181
Y59055
X374803Y100394
X369685
X372208Y106692
X372047Y125236
X379921Y118504
X357283Y113228
X353051Y113287
X352859Y116921
X353051Y121268
X353150Y125189
X343110Y123425
X343110Y119882
X343110Y116339
X343110Y112795
X340059Y114567
X340059Y118110
X340059Y121653
X337008Y123425
X337008Y119882
X337008Y116339
X337008Y112795
X333957Y114567
X333957Y118110
X333957Y121653
X336228Y132874
X345276Y134252
X349699Y134257
X362205Y137795
X354331Y153543
X350394
X346457
X342520
X326772
X322835
X318898
X314961Y149606
X311024Y145669
Y141732
X300394Y137795
Y146850
Y128740
Y118110
Y107480
Y98425
Y89370
X311024Y90551
X314961Y86614
X318898Y82677
X322835
X326772
X330709
X342520
X346457
X350394
X354331
X358268
X349441Y97638
X345473Y102362
X333071Y101181
X328740Y104724
X321260Y101969
X323686Y111827
X322328Y124192
X327756Y130905
X320472Y134646
X282283Y179528
Y182677
Y185827
Y188976
X279527Y187402
Y184252
Y181102
Y177953
X276772Y176378
Y179528
Y182677
Y185827
Y188976
X279527Y190551
X274016
Y187402
Y184252
Y181102
Y177953
Y174803
X271260Y173228
Y176378
Y179528
Y182677
Y185827
Y188976
X268504Y190551
Y187402
Y184252
Y181102
Y177953
Y174803
X265748Y173228
Y176378
Y179528
Y182677
Y185827
Y188976
X262992Y184252
Y181102
Y177953
Y174803
X260236Y173228
Y176378
Y179528
Y182677
Y185827
X257480Y184252
Y181102
Y177953
Y174803
X254724Y176378
Y179528
Y182677
Y185827
X251969Y184252
Y181102
Y177953
X249213Y179528
Y182677
Y185827
X249213Y202362
X251969Y200787
X254724Y202362
X257480Y200803
X260236Y202362
X262992Y200787
X265748Y199213
Y202362
X268504Y200787
X271260Y202362
X274016Y200787
Y197638
X276772Y199213
Y202362
X279527Y200787
Y197638
X282283Y199213
Y202362
X260630Y195669
X231299Y177165
Y173228
X231384Y63279
X231233Y59346
X250000Y56102
Y52953
Y49803
X252756Y48228
Y51378
Y54527
Y57677
X255512Y56102
Y52953
Y49803
X258268Y48228
Y51378
Y54527
Y57677
Y60827
X261024Y59252
Y56102
Y52953
Y49803
X263779Y51378
Y48228
X266535Y49803
Y52953
Y56102
Y59252
Y62401
X263779Y60827
Y57677
Y54527
X269291
Y51378
Y48228
X272047Y46654
Y49803
Y52953
Y56102
Y59252
Y62401
X269291Y60827
Y57677
X274803
Y54527
Y51378
Y48228
X277559Y46654
Y49803
Y52953
Y56102
Y59252
X280315Y57677
Y54527
Y51378
Y48228
X283071Y49803
Y52953
Y56102
X274803Y60827
X261024Y62401
X255512Y59252
X366142Y59055
Y51181
X102362Y53150
Y61024
X94488Y55118
X90551Y59055
X82677
X74803
X66929
X62992Y62992
X63386Y77559
Y80709
Y83858
Y87008
X66142Y88583
Y85433
Y82284
Y79134
X68898Y80709
Y83858
X69035Y86713
X71653Y85433
Y88583
X74409Y87008
Y83858
Y80709
Y77559
X71653Y79134
Y82284
X68898Y77559
X82677Y87598
X93504Y103347
X93886Y109875
X97823
X95854Y113812
X91917
X93886Y117749
X97823
X95854Y121686
X91917
X74409Y123228
Y120079
Y116929
Y113779
X71653Y112205
Y115354
Y118504
Y121653
X68898Y123228
Y120079
Y116929
Y113779
X66142Y112205
Y115354
Y118504
Y121653
X63382Y120201
Y123350
Y117051
Y113902
X65354Y181890
Y185039
Y188189
Y191339
X68110Y189764
Y192913
X70866Y191339
Y188189
Y185039
Y181890
X68110Y183465
Y186614
X62598
Y183465
Y189764
Y192913
X73622
Y189764
Y186614
Y183465
X82677Y190945
X55118Y196850
X51181Y102362
X56102Y94488
X55118Y86614
Y78740
Y70866
X51181Y55118
X55118Y51181
X47244Y59055
X62599Y216929
Y220079
Y223228
Y226378
X65354Y227953
Y224803
Y221654
Y218504
X68110Y220079
Y223228
Y226378
X70866Y227953
Y224803
Y221654
Y218504
X73622Y220079
Y216929
X68110
X73622Y223228
Y226378
X94488Y226378
X98425
X96457Y230315
X92520
Y222441
X96457
X94488Y218504
X98425
X104331Y232283
X257480Y228346
X260236Y226772
X262949Y228336
X262992Y225197
X262992Y222047
X265748Y223622
X265748Y226772
X268504Y228346
X268504Y225197
X268504Y222047
X268504Y218898
X271260Y220472
X271260Y223622
X271260Y226772
X274016Y228346
X274016Y225197
X274016Y222047
X274016Y218898
X274016Y215748
X276772Y214173
X276772Y217323
X276772Y220472
X276772Y223622
X276772Y226772
X279527Y225197
X279527Y222047
X279528Y218898
X279528Y215748
X282283Y214173
X282283Y217323
X282283Y220473
X282283Y223622
X285039Y222047
X285039Y218898
X285039Y215748
X287795Y217323
X287795Y220473
X287795Y214173
X282283Y205512
X279527Y203937
Y207087
X276772Y205512
X274016Y207087
Y203937
X271260Y205512
Y208661
X268504Y207087
Y203937
X265748Y205512
Y208661
X262992Y207087
Y203937
X260236Y205512
Y208661
X257480Y210236
Y207087
Y203937
X254724Y205512
Y208661
X251969Y210236
Y207087
Y203937
X249213Y205512
Y208661
X261396Y214209
X265748Y220472
T02
X235236Y87598
Y107283
Y128937
Y148622
X276575
Y128937
Y107283
Y87598
X77756Y142717
Y162402
T03
X17717Y35728
X27716
Y45728
X17717
X37716
Y35728
Y55728
X27716
X17717
Y65728
Y75728
Y85728
X27716
Y75728
Y65728
X37716
Y75728
Y85728
Y95728
Y105728
X27716
Y95728
X17717
Y105728
X21654Y126083
X31496
X41339
X51181
Y137894
X41339
X31496
X21654
X11811
Y147736
X21654
X31496
X41339
X51181
Y159547
Y169390
X41339
Y159547
X31496
X21654
Y169390
X11811
Y159547
Y181201
Y191043
X21654
Y181201
X31496
X41339
Y191043
X51181
Y181201
X31496Y191043
Y169390
X11811Y126083
Y202854
X21654
X31496
X41339
X51181
T04
X374016Y19685
X196850Y118110
X374016Y216535
T05
X381890Y169291
X362205
T06
X31496Y12808
Y224508
M30
