G04*
G04 #@! TF.GenerationSoftware,Altium Limited,Altium Designer,22.9.1 (49)*
G04*
G04 Layer_Physical_Order=2*
G04 Layer_Color=16711680*
%FSLAX25Y25*%
%MOIN*%
G70*
G04*
G04 #@! TF.SameCoordinates,31D07EA8-2EF4-44A7-A807-3D2BB65C9B75*
G04*
G04*
G04 #@! TF.FilePolarity,Positive*
G04*
G01*
G75*
%ADD10C,0.00787*%
%ADD41R,0.03347X0.03937*%
%ADD80C,0.03150*%
%ADD84C,0.01000*%
%ADD85C,0.06319*%
%ADD86C,0.06398*%
%ADD87C,0.05020*%
%ADD88R,0.05020X0.05020*%
%ADD89C,0.02756*%
%ADD90C,0.23622*%
%ADD91R,0.08819X0.11890*%
%ADD92R,0.06693X0.11890*%
%ADD93R,0.07913X0.11890*%
G36*
X389764Y220472D02*
Y15748D01*
X377953Y3937D01*
X340895D01*
X340704Y4399D01*
X380849Y44544D01*
X381134Y44970D01*
X381234Y45472D01*
Y116754D01*
X381757Y117277D01*
X382087Y118073D01*
Y118935D01*
X381757Y119730D01*
X381148Y120340D01*
X380352Y120669D01*
X379490D01*
X378695Y120340D01*
X378086Y119730D01*
X377756Y118935D01*
Y118073D01*
X378086Y117277D01*
X378609Y116754D01*
Y94033D01*
X378109Y93826D01*
X374160Y97775D01*
X374321Y98119D01*
X374414Y98228D01*
X375234D01*
X376030Y98558D01*
X376639Y99167D01*
X376969Y99963D01*
Y100824D01*
X376639Y101620D01*
X376030Y102229D01*
X375262Y102547D01*
X375219Y102582D01*
X375094Y102780D01*
X375014Y103059D01*
X375128Y103230D01*
X375220Y103691D01*
Y141732D01*
X383465D01*
Y155512D01*
X375220D01*
Y165354D01*
X375170Y165607D01*
X375182Y165611D01*
X375289Y165678D01*
X375406Y165727D01*
X375594Y165872D01*
X375795Y165999D01*
X375795Y165999D01*
X375881Y166092D01*
X375981Y166168D01*
X376126Y166357D01*
X376287Y166532D01*
X376346Y166644D01*
X376423Y166744D01*
X376514Y166964D01*
X376625Y167174D01*
X376652Y167298D01*
X376701Y167415D01*
X376732Y167650D01*
X376784Y167882D01*
X376779Y168009D01*
X376795Y168134D01*
Y181240D01*
X376701Y181960D01*
X376551Y182321D01*
X376535Y182815D01*
X376535Y182815D01*
X376535Y182815D01*
Y197067D01*
X376535Y197067D01*
X376535D01*
X376551Y197561D01*
X376701Y197922D01*
X376795Y198642D01*
Y201969D01*
X376701Y202688D01*
X376423Y203358D01*
X375981Y203934D01*
X375406Y204376D01*
X374735Y204654D01*
X374016Y204748D01*
X373088D01*
X371255Y205038D01*
X369491Y205612D01*
X367838Y206454D01*
X366337Y207545D01*
X365025Y208857D01*
X363934Y210357D01*
X363092Y212011D01*
X362936Y212492D01*
X362811Y212754D01*
X362699Y213023D01*
X362655Y213081D01*
X362623Y213147D01*
X362435Y213368D01*
X362258Y213599D01*
X362199Y213643D01*
X362152Y213699D01*
X361912Y213863D01*
X361682Y214040D01*
X361614Y214068D01*
X361554Y214110D01*
X361280Y214207D01*
X361012Y214318D01*
X360939Y214328D01*
X360870Y214352D01*
X360580Y214375D01*
X360292Y214413D01*
X291101Y214413D01*
X291101Y214413D01*
X290382Y214318D01*
X289711Y214040D01*
X289136Y213599D01*
X289136Y213598D01*
X288627Y213090D01*
X288318Y212911D01*
X287974Y212819D01*
X287617D01*
X287273Y212911D01*
X286913Y213119D01*
X286429Y213490D01*
X285759Y213768D01*
X285039Y213863D01*
X284320Y213768D01*
X283649Y213490D01*
X283165Y213119D01*
X282806Y212911D01*
X282462Y212819D01*
X282105D01*
X281761Y212911D01*
X281402Y213119D01*
X280917Y213490D01*
X280247Y213768D01*
X279528Y213863D01*
X278808Y213768D01*
X278138Y213490D01*
X277654Y213119D01*
X277294Y212911D01*
X276950Y212819D01*
X276593D01*
X276249Y212911D01*
X275940Y213090D01*
X275450Y213580D01*
X274874Y214021D01*
X274204Y214299D01*
X274178Y214302D01*
X274121Y214318D01*
X274120Y214318D01*
X274120Y214318D01*
X273401Y214413D01*
X273401Y214413D01*
X273401Y214413D01*
X264667D01*
X264667Y214413D01*
X264062Y214333D01*
X263562Y214629D01*
Y214640D01*
X263232Y215436D01*
X262623Y216045D01*
X261827Y216374D01*
X260966D01*
X260170Y216045D01*
X259647Y215522D01*
X258876D01*
X258382Y215535D01*
X258382Y216022D01*
Y217191D01*
X259449D01*
X259951Y217291D01*
X260377Y217576D01*
X263920Y221119D01*
X264205Y221545D01*
X264305Y222047D01*
X264205Y222550D01*
X263920Y222975D01*
X263494Y223260D01*
X262992Y223360D01*
X262490Y223260D01*
X262064Y222975D01*
X258905Y219817D01*
X258382D01*
Y221472D01*
X256209D01*
Y218504D01*
X255209D01*
Y221472D01*
X253082Y221472D01*
X252658Y221654D01*
X252610Y221654D01*
X246949D01*
Y215522D01*
X222083D01*
X221581Y215422D01*
X221155Y215137D01*
X215607Y209590D01*
X215323Y209164D01*
X215223Y208661D01*
Y141732D01*
X215323Y141230D01*
X215607Y140804D01*
X223481Y132930D01*
X223907Y132646D01*
X224409Y132546D01*
X294071D01*
Y103675D01*
X224410D01*
X223907Y103575D01*
X223481Y103290D01*
X215607Y95416D01*
X215323Y94990D01*
X215223Y94488D01*
Y27559D01*
X215323Y27057D01*
X215607Y26631D01*
X221513Y20725D01*
X221939Y20441D01*
X222441Y20341D01*
X246949D01*
Y17717D01*
X252658D01*
Y17717D01*
X253035Y17898D01*
X255209D01*
Y20866D01*
X255709D01*
Y21366D01*
X258382D01*
Y23491D01*
X266961D01*
X268722Y21730D01*
Y20990D01*
X269051Y20194D01*
X269660Y19585D01*
X270456Y19256D01*
X271318D01*
X272114Y19585D01*
X272723Y20194D01*
X273052Y20990D01*
X273074Y21023D01*
X273162Y21100D01*
X273552Y21323D01*
X273668Y21304D01*
X273893Y21245D01*
X274025Y21246D01*
X274155Y21224D01*
X274386Y21247D01*
X274619Y21249D01*
X274746Y21283D01*
X274877Y21297D01*
X275095Y21379D01*
X275318Y21440D01*
X275432Y21507D01*
X275556Y21554D01*
X275745Y21689D01*
X275945Y21806D01*
X276038Y21900D01*
X276145Y21977D01*
X276440Y22255D01*
X276467Y22288D01*
X276501Y22314D01*
X276728Y22540D01*
X277036Y22719D01*
X277722Y22902D01*
X277747Y22906D01*
X278418Y23183D01*
X278993Y23625D01*
X279484Y24115D01*
X279792Y24293D01*
X280137Y24386D01*
X280493D01*
X280838Y24293D01*
X281281Y24037D01*
X281612Y23783D01*
X281612Y23783D01*
X282283Y23506D01*
X283002Y23411D01*
X283002D01*
X283721Y23506D01*
X284134Y23676D01*
X284392Y23783D01*
X284392Y23783D01*
X284859Y24141D01*
X285227Y24354D01*
X285572Y24447D01*
X285929D01*
X286273Y24354D01*
X286582Y24176D01*
X287060Y23698D01*
X287116Y23625D01*
X287116Y23625D01*
X287116Y23625D01*
X287468Y23355D01*
X287691Y23183D01*
X287691Y23183D01*
X287691Y23183D01*
X287973Y23066D01*
X288362Y22906D01*
X288362Y22906D01*
X288452Y22894D01*
X289105Y22719D01*
X289414Y22540D01*
X289666Y22288D01*
X289699Y22232D01*
X290140Y21656D01*
X290716Y21215D01*
X291386Y20937D01*
X292106Y20842D01*
X333367D01*
X334086Y20937D01*
X334467Y21039D01*
X334824D01*
X335205Y20937D01*
X335925Y20842D01*
X340720D01*
X340927Y20342D01*
X329476Y8891D01*
X118654D01*
X107612Y19933D01*
Y22286D01*
X107512Y22789D01*
X107227Y23215D01*
X104937Y25505D01*
Y26245D01*
X104607Y27041D01*
X103998Y27650D01*
X103285Y27945D01*
X103296Y28056D01*
X103330Y28229D01*
Y64922D01*
X103239Y65383D01*
X102978Y65774D01*
X102587Y66035D01*
X102126Y66126D01*
X101383D01*
Y96780D01*
X101284Y97282D01*
X100999Y97708D01*
X95669Y103037D01*
Y103777D01*
X95340Y104573D01*
X94731Y105182D01*
X93935Y105512D01*
X93747Y105791D01*
X93661Y106012D01*
X93674Y106115D01*
X93722Y106291D01*
X93756Y106552D01*
Y106734D01*
X93780Y106915D01*
X93756Y107095D01*
Y107278D01*
X93709Y107454D01*
X93685Y107634D01*
X93615Y107802D01*
X93568Y107978D01*
X93477Y108136D01*
X93407Y108305D01*
X93296Y108449D01*
X93205Y108607D01*
X93076Y108736D01*
X92966Y108880D01*
X92802Y109044D01*
X92732Y109165D01*
X92290Y109741D01*
X91714Y110183D01*
X91044Y110461D01*
X90325Y110555D01*
X89394D01*
Y125984D01*
X89299Y126704D01*
X89021Y127374D01*
X88580Y127950D01*
X79541Y136989D01*
X79732Y137451D01*
X83022D01*
Y147982D01*
X72490D01*
Y144559D01*
X71990Y144250D01*
X71586Y144417D01*
X70866Y144512D01*
X56654D01*
X56455Y145012D01*
X56869Y146011D01*
X57096Y147154D01*
Y148319D01*
X56869Y149462D01*
X56423Y150538D01*
X55776Y151507D01*
X54952Y152331D01*
X53983Y152978D01*
X53018Y153378D01*
X52972Y153578D01*
Y153706D01*
X53018Y153905D01*
X53983Y154305D01*
X54952Y154953D01*
X55776Y155776D01*
X56423Y156745D01*
X56869Y157822D01*
X57096Y158965D01*
Y160130D01*
X56869Y161273D01*
X56423Y162349D01*
X55776Y163318D01*
X54952Y164142D01*
X53983Y164789D01*
X52907Y165235D01*
X51764Y165463D01*
X50599D01*
X49456Y165235D01*
X48379Y164789D01*
X47410Y164142D01*
X46586Y163318D01*
X46510Y163204D01*
X46010D01*
X45933Y163318D01*
X45109Y164142D01*
X44141Y164789D01*
X43064Y165235D01*
X41921Y165463D01*
X40756D01*
X39613Y165235D01*
X38537Y164789D01*
X37568Y164142D01*
X36744Y163318D01*
X36667Y163204D01*
X36167D01*
X36091Y163318D01*
X35267Y164142D01*
X34298Y164789D01*
X33222Y165235D01*
X32079Y165463D01*
X30913D01*
X29771Y165235D01*
X28694Y164789D01*
X27725Y164142D01*
X26901Y163318D01*
X26825Y163204D01*
X26325D01*
X26248Y163318D01*
X25424Y164142D01*
X24455Y164789D01*
X23379Y165235D01*
X22236Y165463D01*
X21071D01*
X19928Y165235D01*
X18852Y164789D01*
X17883Y164142D01*
X17059Y163318D01*
X16982Y163204D01*
X16482D01*
X16406Y163318D01*
X15582Y164142D01*
X14613Y164789D01*
X13536Y165235D01*
X12394Y165463D01*
X11228D01*
X10086Y165235D01*
X9009Y164789D01*
X8040Y164142D01*
X7216Y163318D01*
X6569Y162349D01*
X6123Y161273D01*
X5643Y161386D01*
Y189204D01*
X6123Y189318D01*
X6569Y188241D01*
X7216Y187273D01*
X8040Y186449D01*
X9009Y185801D01*
X10086Y185355D01*
X11228Y185128D01*
X12394D01*
X13536Y185355D01*
X14613Y185801D01*
X15582Y186449D01*
X16406Y187273D01*
X16482Y187387D01*
X16982D01*
X17059Y187273D01*
X17883Y186449D01*
X18852Y185801D01*
X19928Y185355D01*
X21071Y185128D01*
X22236D01*
X23379Y185355D01*
X24455Y185801D01*
X25424Y186449D01*
X26248Y187273D01*
X26325Y187387D01*
X26825D01*
X26901Y187273D01*
X27725Y186449D01*
X28694Y185801D01*
X29771Y185355D01*
X30913Y185128D01*
X32079D01*
X33222Y185355D01*
X34298Y185801D01*
X35267Y186449D01*
X36091Y187273D01*
X36167Y187387D01*
X36667D01*
X36744Y187273D01*
X37568Y186449D01*
X38537Y185801D01*
X39613Y185355D01*
X40756Y185128D01*
X41921D01*
X43064Y185355D01*
X44141Y185801D01*
X45109Y186449D01*
X45933Y187273D01*
X46010Y187387D01*
X46510D01*
X46586Y187273D01*
X47410Y186449D01*
X48379Y185801D01*
X49456Y185355D01*
X50599Y185128D01*
X51764D01*
X52907Y185355D01*
X53983Y185801D01*
X54299Y186012D01*
X54740Y185777D01*
Y177379D01*
X54740Y177375D01*
X54740Y177372D01*
X54788Y177015D01*
X54835Y176659D01*
X54836Y176656D01*
X54836Y176653D01*
X54975Y176320D01*
X55112Y175989D01*
X55115Y175986D01*
X55116Y175983D01*
X55335Y175698D01*
X55554Y175413D01*
X55557Y175411D01*
X55559Y175409D01*
X55913Y175056D01*
X55916Y175054D01*
X55918Y175051D01*
X56206Y174833D01*
X56490Y174616D01*
X56493Y174614D01*
X56496Y174612D01*
X56827Y174477D01*
X57161Y174339D01*
X57165Y174339D01*
X57168Y174338D01*
X57521Y174293D01*
X57881Y174247D01*
X57884Y174247D01*
X57888Y174247D01*
X112218Y174510D01*
X112571Y174558D01*
X112924Y174604D01*
X112930Y174607D01*
X112937Y174608D01*
X113265Y174745D01*
X113595Y174882D01*
X113600Y174886D01*
X113606Y174889D01*
X113888Y175107D01*
X114170Y175324D01*
X114174Y175329D01*
X114180Y175333D01*
X114396Y175618D01*
X114612Y175899D01*
X114615Y175906D01*
X114619Y175911D01*
X114753Y176241D01*
X114890Y176570D01*
X114891Y176577D01*
X114893Y176583D01*
X114938Y176936D01*
X114984Y177289D01*
X114984Y214567D01*
X114890Y215286D01*
X114612Y215957D01*
X114170Y216532D01*
X113595Y216974D01*
X112924Y217252D01*
X112205Y217347D01*
X99704D01*
X98985Y217252D01*
X98603Y217150D01*
X98247D01*
X97866Y217252D01*
X97146Y217347D01*
X95767D01*
X95048Y217252D01*
X94666Y217150D01*
X94310D01*
X93929Y217252D01*
X93209Y217347D01*
X77756D01*
Y217473D01*
X77480Y218504D01*
X77756Y219534D01*
Y220623D01*
X77480Y221654D01*
X77756Y222684D01*
Y223773D01*
X77480Y224803D01*
X77756Y225834D01*
Y226922D01*
X77474Y227974D01*
X76930Y228916D01*
X76160Y229686D01*
X75218Y230230D01*
X74166Y230512D01*
X74153D01*
X73404Y231261D01*
X72499Y231784D01*
X72487Y231829D01*
X72737Y232283D01*
X102165D01*
Y231853D01*
X102495Y231057D01*
X103104Y230448D01*
X103900Y230118D01*
X104761D01*
X105557Y230448D01*
X106166Y231057D01*
X106496Y231853D01*
Y232283D01*
X377953D01*
X389764Y220472D01*
D02*
G37*
G36*
X63734Y231829D02*
X63722Y231784D01*
X62816Y231261D01*
X62067Y230512D01*
X62054D01*
X61003Y230230D01*
X60060Y229686D01*
X59290Y228916D01*
X58746Y227974D01*
X58465Y226922D01*
Y225834D01*
X58741Y224803D01*
X58465Y223773D01*
Y222684D01*
X58741Y221654D01*
X58465Y220623D01*
Y219534D01*
X58741Y218504D01*
X58465Y217473D01*
Y217347D01*
X57520D01*
X56800Y217252D01*
X56130Y216974D01*
X55554Y216532D01*
X55112Y215957D01*
X54835Y215286D01*
X54740Y214567D01*
Y208121D01*
X54299Y207885D01*
X53983Y208097D01*
X52907Y208542D01*
X51764Y208770D01*
X50599D01*
X49456Y208542D01*
X48379Y208097D01*
X47410Y207449D01*
X46586Y206625D01*
X46510Y206511D01*
X46010D01*
X45933Y206625D01*
X45109Y207449D01*
X44141Y208097D01*
X43064Y208542D01*
X41921Y208770D01*
X40756D01*
X39613Y208542D01*
X38537Y208097D01*
X37568Y207449D01*
X36744Y206625D01*
X36667Y206511D01*
X36167D01*
X36091Y206625D01*
X35267Y207449D01*
X34298Y208097D01*
X33222Y208542D01*
X32079Y208770D01*
X30913D01*
X29771Y208542D01*
X28694Y208097D01*
X27725Y207449D01*
X26901Y206625D01*
X26825Y206511D01*
X26325D01*
X26248Y206625D01*
X25424Y207449D01*
X24455Y208097D01*
X23379Y208542D01*
X22236Y208770D01*
X21071D01*
X19928Y208542D01*
X18852Y208097D01*
X17883Y207449D01*
X17059Y206625D01*
X16982Y206511D01*
X16482D01*
X16406Y206625D01*
X15582Y207449D01*
X14613Y208097D01*
X13536Y208542D01*
X12394Y208770D01*
X11228D01*
X10086Y208542D01*
X9009Y208097D01*
X8040Y207449D01*
X7216Y206625D01*
X6569Y205656D01*
X6123Y204580D01*
X5643Y204693D01*
Y220322D01*
X17604Y232283D01*
X29184D01*
X29285Y231795D01*
X27906Y231224D01*
X26665Y230395D01*
X25609Y229339D01*
X24780Y228098D01*
X24209Y226718D01*
X23917Y225254D01*
Y223761D01*
X24209Y222297D01*
X24780Y220918D01*
X25609Y219677D01*
X26665Y218621D01*
X27906Y217792D01*
X29285Y217220D01*
X30750Y216929D01*
X32243D01*
X33707Y217220D01*
X35086Y217792D01*
X36327Y218621D01*
X37383Y219677D01*
X38212Y220918D01*
X38784Y222297D01*
X39075Y223761D01*
Y225254D01*
X38784Y226718D01*
X38212Y228098D01*
X37383Y229339D01*
X36327Y230395D01*
X35086Y231224D01*
X33707Y231795D01*
X33808Y232283D01*
X63483D01*
X63734Y231829D01*
D02*
G37*
G36*
X69953Y230728D02*
X70090Y230397D01*
X70091Y230395D01*
X70092Y230394D01*
X70311Y230108D01*
X70531Y229820D01*
X70532Y229819D01*
X70533Y229818D01*
X70818Y229599D01*
X71106Y229378D01*
X71108Y229377D01*
X71109Y229376D01*
X71698Y229036D01*
X72188Y228546D01*
X72763Y228104D01*
X73434Y227827D01*
X73460Y227823D01*
X74145Y227640D01*
X74454Y227462D01*
X74706Y227209D01*
X74884Y226901D01*
X74976Y226556D01*
Y226200D01*
X74795Y225523D01*
X74700Y224803D01*
X74795Y224084D01*
X74976Y223407D01*
Y223050D01*
X74795Y222373D01*
X74700Y221654D01*
X74795Y220934D01*
X74976Y220257D01*
Y219900D01*
X74795Y219223D01*
X74700Y218504D01*
X74795Y217785D01*
X75010Y216983D01*
X74882Y216729D01*
X74627Y216488D01*
X74609Y216483D01*
X71684D01*
X71586Y216524D01*
X70866Y216619D01*
X70147Y216524D01*
X70048Y216483D01*
X66173D01*
X66074Y216524D01*
X65354Y216619D01*
X64635Y216524D01*
X64536Y216483D01*
X61611D01*
X61594Y216488D01*
X61339Y216729D01*
X61211Y216983D01*
X61426Y217785D01*
X61520Y218504D01*
X61426Y219223D01*
X61244Y219900D01*
Y220257D01*
X61426Y220934D01*
X61520Y221654D01*
X61426Y222373D01*
X61244Y223050D01*
Y223407D01*
X61426Y224084D01*
X61520Y224803D01*
X61426Y225523D01*
X61244Y226200D01*
Y226556D01*
X61337Y226901D01*
X61515Y227209D01*
X61767Y227462D01*
X62076Y227640D01*
X62761Y227823D01*
X62787Y227827D01*
X63457Y228104D01*
X64033Y228546D01*
X64033Y228546D01*
X64523Y229036D01*
X65112Y229376D01*
X65113Y229377D01*
X65114Y229378D01*
X65402Y229599D01*
X65687Y229818D01*
X65688Y229819D01*
X65690Y229820D01*
X65908Y230105D01*
X66129Y230394D01*
X66130Y230395D01*
X66131Y230397D01*
X66265Y230723D01*
X66367Y230968D01*
X69854D01*
X69953Y230728D01*
D02*
G37*
G36*
X112205Y177289D02*
X57874Y177026D01*
X57520Y177379D01*
Y193464D01*
X57656Y193543D01*
X57680Y193566D01*
X75411D01*
X78543Y190434D01*
Y190401D01*
X78825Y189349D01*
X79369Y188407D01*
X80139Y187637D01*
X81082Y187093D01*
X82133Y186811D01*
X83221D01*
X84273Y187093D01*
X85215Y187637D01*
X85985Y188407D01*
X86529Y189349D01*
X86811Y190401D01*
Y191489D01*
X86529Y192541D01*
X85985Y193483D01*
X85215Y194253D01*
X84273Y194797D01*
X83221Y195079D01*
X83188D01*
X79094Y199172D01*
X78414Y199694D01*
X77622Y200023D01*
X76772Y200134D01*
X76772Y200134D01*
X57680D01*
X57656Y200158D01*
X57520Y200237D01*
Y214567D01*
X59189D01*
X59290Y214391D01*
X60060Y213621D01*
X61003Y213077D01*
X62054Y212795D01*
X63143D01*
X64194Y213077D01*
X65137Y213621D01*
X65354Y213839D01*
X65572Y213621D01*
X66515Y213077D01*
X67566Y212795D01*
X68655D01*
X69706Y213077D01*
X70648Y213621D01*
X70866Y213839D01*
X71084Y213621D01*
X72026Y213077D01*
X73078Y212795D01*
X74166D01*
X75218Y213077D01*
X76160Y213621D01*
X76930Y214391D01*
X77032Y214567D01*
X93209D01*
X93944Y214370D01*
X95032D01*
X95767Y214567D01*
X97146D01*
X97881Y214370D01*
X98969D01*
X99704Y214567D01*
X112205D01*
X112205Y177289D01*
D02*
G37*
G36*
X273401Y211633D02*
X273471Y211614D01*
X273485D01*
X274233Y210865D01*
X275176Y210321D01*
X276227Y210039D01*
X277316D01*
X278367Y210321D01*
X279310Y210865D01*
X279528Y211083D01*
X279745Y210865D01*
X280688Y210321D01*
X281739Y210039D01*
X282828D01*
X283879Y210321D01*
X284822Y210865D01*
X285039Y211083D01*
X285257Y210865D01*
X286200Y210321D01*
X287251Y210039D01*
X288339D01*
X289391Y210321D01*
X290334Y210865D01*
X291101Y211633D01*
X360292Y211633D01*
X360516Y210944D01*
X361557Y208901D01*
X362905Y207046D01*
X364526Y205424D01*
X366381Y204077D01*
X368424Y203036D01*
X370605Y202327D01*
X372869Y201969D01*
X374016D01*
Y198642D01*
X356575D01*
Y197662D01*
X282618D01*
X281898Y197567D01*
X281228Y197289D01*
X280652Y196847D01*
X280359Y196554D01*
X280050Y196376D01*
X279706Y196284D01*
X279349D01*
X279005Y196376D01*
X278646Y196583D01*
X278162Y196955D01*
X277491Y197232D01*
X276772Y197327D01*
X276052Y197232D01*
X275382Y196955D01*
X274898Y196583D01*
X274538Y196376D01*
X274194Y196284D01*
X273837D01*
X273493Y196376D01*
X273184Y196554D01*
X272891Y196847D01*
X272315Y197289D01*
X271772Y197514D01*
X271788Y197638D01*
X271788Y197638D01*
Y200787D01*
X271676Y201637D01*
X271348Y202429D01*
X270826Y203110D01*
X270146Y203631D01*
X269354Y203959D01*
X268504Y204071D01*
X267654Y203959D01*
X266862Y203631D01*
X266182Y203110D01*
X265660Y202429D01*
X265332Y201637D01*
X265220Y200787D01*
Y198998D01*
X264372Y198150D01*
X263938Y198207D01*
X263168Y198977D01*
X262226Y199521D01*
X261174Y199803D01*
X260626D01*
X260116Y200194D01*
X259324Y200522D01*
X258474Y200634D01*
X258474Y200634D01*
X252764D01*
X251914Y200522D01*
X251122Y200194D01*
X250442Y199673D01*
X250442Y199672D01*
X249588Y198819D01*
X245374D01*
Y197379D01*
X225591D01*
X225590Y197379D01*
X224741Y197267D01*
X223949Y196939D01*
X223268Y196417D01*
X221734Y194882D01*
X219819D01*
Y207301D01*
X223443Y210925D01*
X258834D01*
X258858Y210901D01*
X259801Y210357D01*
X260852Y210075D01*
X261941D01*
X262992Y210357D01*
X263935Y210901D01*
X264667Y211633D01*
X273401D01*
D02*
G37*
G36*
X52096Y205870D02*
X52666Y205633D01*
X52755Y205574D01*
X52796Y205554D01*
X52831Y205525D01*
X53121Y205394D01*
X53405Y205253D01*
X53450Y205244D01*
X53492Y205225D01*
X53806Y205173D01*
X54117Y205112D01*
X54163Y205115D01*
X54208Y205107D01*
X54240Y205110D01*
X54740Y204730D01*
Y200984D01*
X54574D01*
X53522Y200703D01*
X52580Y200158D01*
X51810Y199389D01*
X51266Y198446D01*
X50984Y197395D01*
Y196306D01*
X51266Y195255D01*
X51810Y194312D01*
X52580Y193543D01*
X53522Y192998D01*
X54574Y192717D01*
X54740D01*
Y189168D01*
X54240Y188787D01*
X54208Y188791D01*
X54163Y188783D01*
X54117Y188786D01*
X53806Y188724D01*
X53492Y188672D01*
X53450Y188653D01*
X53405Y188645D01*
X53121Y188504D01*
X52831Y188373D01*
X52796Y188344D01*
X52755Y188323D01*
X52666Y188265D01*
X52096Y188028D01*
X51490Y187908D01*
X50872D01*
X50266Y188028D01*
X49696Y188265D01*
X49182Y188608D01*
X48601Y189189D01*
X48475Y189353D01*
X48403Y189408D01*
X48343Y189477D01*
X48116Y189628D01*
X47900Y189794D01*
X47815Y189829D01*
X47739Y189880D01*
X47481Y189968D01*
X47229Y190072D01*
X47139Y190084D01*
X47052Y190113D01*
X46780Y190131D01*
X46510Y190167D01*
X46010D01*
X45740Y190131D01*
X45467Y190113D01*
X45381Y190084D01*
X45290Y190072D01*
X45039Y189968D01*
X44780Y189880D01*
X44704Y189829D01*
X44620Y189794D01*
X44404Y189628D01*
X44177Y189477D01*
X44117Y189408D01*
X44044Y189353D01*
X43919Y189189D01*
X43337Y188608D01*
X42824Y188265D01*
X42253Y188028D01*
X41647Y187908D01*
X41030D01*
X40424Y188028D01*
X39853Y188265D01*
X39340Y188608D01*
X38758Y189189D01*
X38633Y189353D01*
X38560Y189408D01*
X38500Y189477D01*
X38274Y189628D01*
X38057Y189794D01*
X37973Y189829D01*
X37897Y189880D01*
X37639Y189968D01*
X37387Y190072D01*
X37296Y190084D01*
X37210Y190113D01*
X36937Y190131D01*
X36667Y190167D01*
X36167D01*
X35897Y190131D01*
X35625Y190113D01*
X35538Y190084D01*
X35448Y190072D01*
X35196Y189968D01*
X34938Y189880D01*
X34862Y189829D01*
X34778Y189794D01*
X34561Y189628D01*
X34335Y189477D01*
X34274Y189408D01*
X34202Y189353D01*
X34076Y189189D01*
X33495Y188608D01*
X32981Y188265D01*
X32411Y188028D01*
X31805Y187908D01*
X31187D01*
X30581Y188028D01*
X30011Y188265D01*
X29497Y188608D01*
X28916Y189189D01*
X28790Y189353D01*
X28718Y189408D01*
X28658Y189477D01*
X28431Y189628D01*
X28215Y189794D01*
X28130Y189829D01*
X28054Y189880D01*
X27796Y189968D01*
X27544Y190072D01*
X27454Y190084D01*
X27367Y190113D01*
X27095Y190131D01*
X26825Y190167D01*
X26325D01*
X26055Y190131D01*
X25782Y190113D01*
X25696Y190084D01*
X25605Y190072D01*
X25354Y189968D01*
X25095Y189880D01*
X25019Y189829D01*
X24935Y189794D01*
X24719Y189628D01*
X24492Y189477D01*
X24432Y189408D01*
X24359Y189353D01*
X24234Y189189D01*
X23652Y188608D01*
X23139Y188265D01*
X22568Y188028D01*
X21962Y187908D01*
X21345D01*
X20739Y188028D01*
X20168Y188265D01*
X19655Y188608D01*
X19073Y189189D01*
X18948Y189353D01*
X18875Y189408D01*
X18815Y189477D01*
X18588Y189628D01*
X18372Y189794D01*
X18288Y189829D01*
X18212Y189880D01*
X17954Y189968D01*
X17702Y190072D01*
X17611Y190084D01*
X17525Y190113D01*
X17253Y190131D01*
X16982Y190167D01*
X16482D01*
X16212Y190131D01*
X15940Y190113D01*
X15853Y190084D01*
X15763Y190072D01*
X15511Y189968D01*
X15253Y189880D01*
X15177Y189829D01*
X15092Y189794D01*
X14876Y189628D01*
X14649Y189477D01*
X14589Y189408D01*
X14517Y189353D01*
X14391Y189189D01*
X13810Y188608D01*
X13296Y188265D01*
X12726Y188028D01*
X12120Y187908D01*
X11502D01*
X10896Y188028D01*
X10326Y188265D01*
X9812Y188608D01*
X9375Y189044D01*
X9032Y189558D01*
X8691Y190382D01*
X8620Y190504D01*
X8570Y190637D01*
X8439Y190817D01*
X8328Y191010D01*
X8228Y191110D01*
X8145Y191225D01*
X7972Y191366D01*
X7815Y191523D01*
X7692Y191594D01*
X7615Y191657D01*
Y202240D01*
X7693Y202304D01*
X7815Y202375D01*
X7972Y202532D01*
X8145Y202673D01*
X8228Y202787D01*
X8328Y202888D01*
X8439Y203080D01*
X8570Y203261D01*
X8620Y203393D01*
X8691Y203516D01*
X9032Y204340D01*
X9375Y204853D01*
X9812Y205290D01*
X10326Y205633D01*
X10896Y205870D01*
X11502Y205990D01*
X12120D01*
X12726Y205870D01*
X13296Y205633D01*
X13810Y205290D01*
X14391Y204708D01*
X14517Y204545D01*
X14589Y204489D01*
X14649Y204421D01*
X14876Y204269D01*
X15092Y204103D01*
X15177Y204068D01*
X15253Y204018D01*
X15511Y203930D01*
X15763Y203826D01*
X15853Y203814D01*
X15940Y203784D01*
X16212Y203767D01*
X16482Y203731D01*
X16982D01*
X17252Y203766D01*
X17525Y203784D01*
X17611Y203814D01*
X17702Y203826D01*
X17954Y203930D01*
X18212Y204018D01*
X18288Y204068D01*
X18372Y204103D01*
X18588Y204269D01*
X18815Y204421D01*
X18875Y204489D01*
X18948Y204545D01*
X19073Y204708D01*
X19655Y205290D01*
X20168Y205633D01*
X20739Y205870D01*
X21345Y205990D01*
X21962D01*
X22568Y205870D01*
X23139Y205633D01*
X23652Y205290D01*
X24234Y204708D01*
X24359Y204545D01*
X24432Y204489D01*
X24492Y204421D01*
X24719Y204269D01*
X24935Y204103D01*
X25019Y204068D01*
X25095Y204018D01*
X25354Y203930D01*
X25605Y203826D01*
X25696Y203814D01*
X25782Y203784D01*
X26054Y203767D01*
X26325Y203731D01*
X26825D01*
X27095Y203766D01*
X27367Y203784D01*
X27454Y203814D01*
X27544Y203826D01*
X27796Y203930D01*
X28054Y204018D01*
X28130Y204068D01*
X28215Y204103D01*
X28431Y204269D01*
X28658Y204421D01*
X28718Y204489D01*
X28790Y204545D01*
X28916Y204708D01*
X29497Y205290D01*
X30011Y205633D01*
X30581Y205870D01*
X31187Y205990D01*
X31805D01*
X32411Y205870D01*
X32981Y205633D01*
X33495Y205290D01*
X34076Y204708D01*
X34202Y204545D01*
X34274Y204489D01*
X34335Y204421D01*
X34561Y204269D01*
X34778Y204103D01*
X34862Y204068D01*
X34938Y204018D01*
X35196Y203930D01*
X35448Y203826D01*
X35539Y203814D01*
X35625Y203784D01*
X35897Y203767D01*
X36167Y203731D01*
X36667D01*
X36937Y203766D01*
X37210Y203784D01*
X37296Y203814D01*
X37387Y203826D01*
X37639Y203930D01*
X37897Y204018D01*
X37973Y204068D01*
X38057Y204103D01*
X38273Y204269D01*
X38500Y204421D01*
X38560Y204489D01*
X38633Y204545D01*
X38758Y204708D01*
X39340Y205290D01*
X39853Y205633D01*
X40424Y205870D01*
X41030Y205990D01*
X41647D01*
X42253Y205870D01*
X42824Y205633D01*
X43337Y205290D01*
X43919Y204708D01*
X44044Y204545D01*
X44117Y204489D01*
X44177Y204421D01*
X44404Y204269D01*
X44620Y204103D01*
X44704Y204068D01*
X44780Y204018D01*
X45039Y203930D01*
X45290Y203826D01*
X45381Y203814D01*
X45467Y203784D01*
X45740Y203767D01*
X46010Y203731D01*
X46510D01*
X46780Y203766D01*
X47052Y203784D01*
X47139Y203814D01*
X47229Y203826D01*
X47481Y203930D01*
X47739Y204018D01*
X47815Y204068D01*
X47900Y204103D01*
X48116Y204269D01*
X48343Y204421D01*
X48403Y204489D01*
X48475Y204545D01*
X48601Y204708D01*
X49182Y205290D01*
X49696Y205633D01*
X50266Y205870D01*
X50872Y205990D01*
X51490D01*
X52096Y205870D01*
D02*
G37*
G36*
X356575Y181240D02*
X374016D01*
Y168134D01*
X374016Y168134D01*
X368390D01*
X368073Y168520D01*
X368111Y168710D01*
Y169873D01*
X367884Y171014D01*
X367439Y172089D01*
X366792Y173056D01*
X365969Y173879D01*
X365002Y174525D01*
X363927Y174970D01*
X362786Y175197D01*
X361623D01*
X360482Y174970D01*
X359407Y174525D01*
X358440Y173879D01*
X357617Y173056D01*
X356971Y172089D01*
X356526Y171014D01*
X356299Y169873D01*
Y168710D01*
X356336Y168520D01*
X356019Y168134D01*
X328343D01*
X328162Y168110D01*
X327980D01*
X327804Y168063D01*
X327623Y168039D01*
X327455Y167970D01*
X327279Y167922D01*
X327121Y167831D01*
X326953Y167762D01*
X326808Y167651D01*
X326651Y167560D01*
X326522Y167431D01*
X326381Y167323D01*
X325721D01*
X325367Y167676D01*
X324687Y168198D01*
X323895Y168526D01*
X323045Y168638D01*
X323045Y168638D01*
X246847D01*
X237070Y178415D01*
X236390Y178937D01*
X235598Y179265D01*
X234800Y179370D01*
X234607Y179704D01*
X233838Y180473D01*
X232895Y181017D01*
X232283Y181181D01*
Y187555D01*
X255807D01*
X255807Y187555D01*
X255807Y187555D01*
X261705D01*
X261705Y187555D01*
X262555Y187666D01*
X263347Y187995D01*
X264027Y188516D01*
X270392Y194882D01*
X270925D01*
X271478Y194330D01*
X272420Y193786D01*
X273471Y193504D01*
X274560D01*
X275611Y193786D01*
X276554Y194330D01*
X276772Y194548D01*
X276989Y194330D01*
X277932Y193786D01*
X278983Y193504D01*
X280072D01*
X281123Y193786D01*
X282066Y194330D01*
X282618Y194882D01*
X356575D01*
Y181240D01*
D02*
G37*
G36*
X374016Y103691D02*
X373554Y103499D01*
X372152Y104901D01*
X371727Y105185D01*
X371224Y105285D01*
X368311D01*
X367809Y105185D01*
X367383Y104901D01*
X365395Y102913D01*
X364895Y103120D01*
Y121457D01*
X364795Y121959D01*
X364511Y122385D01*
X360771Y126125D01*
X360345Y126409D01*
X359903Y126497D01*
X359820Y126662D01*
X359769Y127009D01*
X359907Y127101D01*
X366993Y134188D01*
X366993Y134188D01*
X367254Y134579D01*
X367346Y135039D01*
Y141516D01*
X369803D01*
Y155768D01*
X358622D01*
Y141516D01*
X359455D01*
X359579Y141016D01*
X358897Y140333D01*
X358353Y139391D01*
X358071Y138339D01*
Y137251D01*
X358264Y136530D01*
X356111Y134377D01*
X355649Y134568D01*
Y136035D01*
X355649Y136035D01*
X355537Y136885D01*
X355209Y137677D01*
X354687Y138357D01*
X354687Y138357D01*
X328151Y164892D01*
X328343Y165354D01*
X360362D01*
X360533Y165255D01*
X361634Y164960D01*
X362775D01*
X363877Y165255D01*
X364048Y165354D01*
X374016D01*
Y103691D01*
D02*
G37*
G36*
X228761Y169920D02*
X229704Y169376D01*
X230755Y169095D01*
X231843D01*
X232895Y169376D01*
X233838Y169920D01*
X234022Y170105D01*
X242496Y161631D01*
X242496Y161631D01*
X243177Y161109D01*
X243969Y160781D01*
X244819Y160669D01*
X244819Y160669D01*
X294071D01*
Y145016D01*
X281840D01*
Y153888D01*
X271309D01*
Y145016D01*
X240502D01*
Y153888D01*
X229971D01*
Y149343D01*
X229508Y149152D01*
X227694Y150967D01*
Y170281D01*
X228193Y170488D01*
X228761Y169920D01*
D02*
G37*
G36*
X343383Y138391D02*
X343317Y137895D01*
X342737Y137560D01*
X342155Y136977D01*
X339907Y139225D01*
X339227Y139747D01*
X338435Y140076D01*
X337585Y140187D01*
X337585Y140187D01*
X333754D01*
X333754Y140187D01*
X332904Y140076D01*
X332112Y139747D01*
X331432Y139225D01*
X329671Y137465D01*
X329149Y136785D01*
X328821Y135993D01*
X328709Y135143D01*
X328709Y135143D01*
Y133304D01*
X328293Y133027D01*
X328187Y133071D01*
X327325D01*
X326529Y132741D01*
X326006Y132218D01*
X324344D01*
X324094Y132651D01*
X324325Y133050D01*
X324606Y134101D01*
Y135190D01*
X324325Y136241D01*
X323780Y137184D01*
X323011Y137954D01*
X322068Y138498D01*
X321017Y138779D01*
X319928D01*
X319535Y138674D01*
X319210Y138717D01*
X319210Y138717D01*
X313171D01*
X304528Y147361D01*
Y147395D01*
X304246Y148446D01*
X303702Y149389D01*
X302932Y150158D01*
X301989Y150703D01*
X300938Y150984D01*
X299850D01*
X298798Y150703D01*
X297855Y150158D01*
X297086Y149389D01*
X296542Y148446D01*
X296260Y147395D01*
Y146306D01*
X296472Y145516D01*
X296142Y145016D01*
X295276D01*
Y160669D01*
X321104D01*
X343383Y138391D01*
D02*
G37*
G36*
X299081Y130490D02*
X298558Y129967D01*
X298228Y129171D01*
Y128309D01*
X298558Y127514D01*
X299167Y126904D01*
X299963Y126575D01*
X300824D01*
X301620Y126904D01*
X302143Y127427D01*
X306594D01*
Y126181D01*
X307986D01*
X308169Y125998D01*
Y121850D01*
X313878D01*
Y121850D01*
X314075D01*
Y121850D01*
X319295D01*
X319566Y121350D01*
X319456Y121183D01*
X303167D01*
X302932Y121418D01*
X301989Y121962D01*
X300938Y122244D01*
X299850D01*
X298798Y121962D01*
X297855Y121418D01*
X297086Y120649D01*
X296542Y119706D01*
X296260Y118655D01*
Y117566D01*
X296542Y116515D01*
X297086Y115572D01*
X297855Y114802D01*
X298798Y114258D01*
X299850Y113976D01*
X300938D01*
X301989Y114258D01*
X302607Y114615D01*
X321048D01*
X321048Y114615D01*
X321898Y114727D01*
X322690Y115055D01*
X323371Y115577D01*
X324505Y116711D01*
X324967Y116520D01*
Y114181D01*
X324467Y113847D01*
X324117Y113992D01*
X323255D01*
X322459Y113663D01*
X321850Y113053D01*
X321520Y112258D01*
Y111953D01*
X321116Y111549D01*
X319783D01*
Y113386D01*
X314075D01*
Y113386D01*
X313878D01*
Y113386D01*
X308169D01*
Y109238D01*
X307986Y109055D01*
X306594D01*
Y108793D01*
X302143D01*
X301620Y109316D01*
X300824Y109646D01*
X299963D01*
X299167Y109316D01*
X298558Y108707D01*
X298228Y107911D01*
Y107050D01*
X298558Y106254D01*
X299081Y105731D01*
Y103675D01*
X295276D01*
Y132546D01*
X299081D01*
Y130490D01*
D02*
G37*
G36*
X72490Y140108D02*
Y137451D01*
X75148D01*
X86614Y125984D01*
Y110236D01*
X60148D01*
X54245Y116139D01*
X54245Y116139D01*
X53670Y116580D01*
X52999Y116858D01*
X52347Y116944D01*
X51181Y118110D01*
X9369D01*
X7615Y119864D01*
Y141732D01*
X70866D01*
X72490Y140108D01*
D02*
G37*
G36*
X59055Y107398D02*
Y95801D01*
X57852D01*
X57329Y96324D01*
X56533Y96653D01*
X55672D01*
X54876Y96324D01*
X54267Y95715D01*
X53937Y94919D01*
Y94058D01*
X54267Y93262D01*
X54876Y92652D01*
X55672Y92323D01*
X56533D01*
X57329Y92652D01*
X57852Y93176D01*
X59055D01*
Y64922D01*
X98758D01*
Y40358D01*
X98296Y40166D01*
X91275Y47188D01*
X90849Y47473D01*
X90346Y47572D01*
X72394D01*
X49132Y70835D01*
Y106905D01*
X49032Y107408D01*
X48747Y107834D01*
X42869Y113711D01*
X43061Y114173D01*
X52280D01*
X59055Y107398D01*
D02*
G37*
G36*
X90578Y107337D02*
X91000Y106915D01*
X90966Y106654D01*
X90196Y105885D01*
X89652Y104942D01*
X89370Y103891D01*
Y102802D01*
X89652Y101751D01*
X90196Y100808D01*
X90966Y100039D01*
X91908Y99494D01*
X92960Y99213D01*
X92993D01*
X96787Y95419D01*
Y67702D01*
X61835D01*
Y91204D01*
X74427D01*
X78543Y87088D01*
Y87054D01*
X78825Y86003D01*
X79369Y85060D01*
X80139Y84290D01*
X81082Y83746D01*
X82133Y83465D01*
X83221D01*
X84273Y83746D01*
X85215Y84290D01*
X85985Y85060D01*
X86529Y86003D01*
X86811Y87054D01*
Y88143D01*
X86529Y89194D01*
X85985Y90137D01*
X85215Y90906D01*
X84273Y91451D01*
X83221Y91732D01*
X83188D01*
X78110Y96810D01*
X77429Y97332D01*
X76637Y97660D01*
X75787Y97772D01*
X75787Y97772D01*
X61835D01*
Y107398D01*
X61886Y107457D01*
X86614D01*
X87334Y107551D01*
X87875Y107776D01*
X90325D01*
X90578Y107337D01*
D02*
G37*
G36*
X294071Y76217D02*
X246161D01*
X245311Y76105D01*
X244519Y75777D01*
X243839Y75255D01*
X243839Y75255D01*
X234547Y65962D01*
X233922Y66587D01*
X232979Y67131D01*
X231928Y67413D01*
X230839D01*
X229788Y67131D01*
X228846Y66587D01*
X228193Y65935D01*
X227694Y66101D01*
Y85254D01*
X229508Y87069D01*
X229971Y86878D01*
Y82333D01*
X240502D01*
Y91204D01*
X271309D01*
Y82333D01*
X281840D01*
Y91204D01*
X294071D01*
Y76217D01*
D02*
G37*
G36*
X342292Y125450D02*
X342718Y125165D01*
X343220Y125065D01*
X347900D01*
Y118701D01*
X348000Y118199D01*
X348284Y117773D01*
X349962Y116095D01*
X350388Y115810D01*
X350891Y115710D01*
X351017D01*
X351023Y115695D01*
X351632Y115086D01*
X351658Y114957D01*
X351216Y114514D01*
X350886Y113718D01*
Y112857D01*
X351216Y112061D01*
X351825Y111452D01*
X352621Y111122D01*
X353482D01*
X354278Y111452D01*
X354887Y112061D01*
X355217Y112857D01*
Y113718D01*
X355207Y113740D01*
X355884Y114417D01*
X356145Y114808D01*
X356237Y115269D01*
X356237Y115269D01*
Y118472D01*
X356145Y118932D01*
X356048Y119078D01*
X356055Y119109D01*
X356348Y119528D01*
X356429Y119512D01*
X358553D01*
X360869Y117197D01*
Y95350D01*
X360968Y94848D01*
X361253Y94422D01*
X369160Y86515D01*
Y73457D01*
X368660Y73211D01*
X368578Y73273D01*
X367908Y73551D01*
X367188Y73646D01*
X334357D01*
X334166Y74108D01*
X354291Y94233D01*
X354291Y94233D01*
X354813Y94913D01*
X355141Y95705D01*
X355253Y96555D01*
X355253Y96555D01*
Y98879D01*
X355141Y99729D01*
X354813Y100522D01*
X354291Y101202D01*
X354291Y101202D01*
X352867Y102625D01*
X352187Y103147D01*
X351395Y103475D01*
X350545Y103587D01*
X350545Y103587D01*
X349424D01*
X349325Y103958D01*
X348780Y104901D01*
X348011Y105670D01*
X347068Y106214D01*
X346017Y106496D01*
X344928D01*
X343877Y106214D01*
X342934Y105670D01*
X342165Y104901D01*
X341620Y103958D01*
X341339Y102906D01*
Y101818D01*
X341620Y100767D01*
X342165Y99824D01*
X342934Y99054D01*
X343877Y98510D01*
X344928Y98228D01*
X344962D01*
X345209Y97981D01*
X345209Y97981D01*
X345307Y97906D01*
Y97094D01*
X345428Y96641D01*
X325004Y76217D01*
X295276D01*
Y91204D01*
X296142D01*
X296472Y90704D01*
X296260Y89914D01*
Y88826D01*
X296542Y87774D01*
X297086Y86832D01*
X297855Y86062D01*
X298798Y85518D01*
X299850Y85236D01*
X300938D01*
X301989Y85518D01*
X302932Y86062D01*
X303702Y86832D01*
X304246Y87774D01*
X304528Y88826D01*
Y88860D01*
X308053Y92385D01*
X314961D01*
X314961Y92385D01*
X315811Y92497D01*
X316603Y92825D01*
X317283Y93347D01*
X321770Y97835D01*
X321804D01*
X322855Y98116D01*
X323798Y98661D01*
X324568Y99430D01*
X325112Y100373D01*
X325394Y101424D01*
Y102513D01*
X325205Y103215D01*
X325578Y103715D01*
X326815D01*
X326905Y103498D01*
X327514Y102889D01*
X328309Y102559D01*
X329171D01*
X329967Y102889D01*
X330576Y103498D01*
X330801Y104041D01*
X331367Y104182D01*
X331758Y103791D01*
Y102931D01*
X331235Y102408D01*
X330906Y101612D01*
Y100750D01*
X331235Y99954D01*
X331844Y99345D01*
X332640Y99016D01*
X333502D01*
X334297Y99345D01*
X334907Y99954D01*
X335236Y100750D01*
Y101612D01*
X334907Y102408D01*
X334384Y102931D01*
Y104335D01*
X334284Y104837D01*
X333999Y105263D01*
X327592Y111670D01*
Y119043D01*
X335574Y127025D01*
X335858Y127450D01*
X335958Y127953D01*
Y130709D01*
X336659D01*
X336923Y130818D01*
X342292Y125450D01*
D02*
G37*
G36*
X367188Y63465D02*
X366792Y63161D01*
X366686Y63189D01*
X365598D01*
X364546Y62907D01*
X363603Y62363D01*
X362834Y61593D01*
X362290Y60651D01*
X362008Y59599D01*
Y58511D01*
X362290Y57459D01*
X362834Y56517D01*
X363603Y55747D01*
X364193Y55407D01*
Y54829D01*
X363603Y54489D01*
X362834Y53719D01*
X362290Y52777D01*
X362008Y51725D01*
Y50637D01*
X362290Y49586D01*
X362834Y48643D01*
X363603Y47873D01*
X364465Y47376D01*
X364647Y46850D01*
X361104Y43307D01*
X284860D01*
X284666Y43419D01*
X283615Y43701D01*
X282527D01*
X281475Y43419D01*
X281281Y43307D01*
X279348D01*
X279155Y43419D01*
X278103Y43701D01*
X277015D01*
X275963Y43419D01*
X275769Y43307D01*
X273563D01*
X273404Y43465D01*
X272462Y44010D01*
X271410Y44291D01*
X270954D01*
X269116Y46129D01*
X268436Y46651D01*
X267644Y46979D01*
X266794Y47091D01*
X266793Y47091D01*
X252764D01*
X251914Y46979D01*
X251122Y46651D01*
X250442Y46129D01*
X250442Y46129D01*
X249588Y45276D01*
X245374D01*
Y43835D01*
X241732D01*
X240882Y43723D01*
X240090Y43395D01*
X239975Y43307D01*
X238523D01*
X238365Y43465D01*
X237422Y44010D01*
X236371Y44291D01*
X235944D01*
X228346Y51888D01*
Y55734D01*
X228847Y55951D01*
X229638Y55494D01*
X230689Y55212D01*
X231778D01*
X232829Y55494D01*
X233772Y56038D01*
X234541Y56808D01*
X234732Y57138D01*
X235633D01*
X235633Y57138D01*
X236483Y57250D01*
X237275Y57578D01*
X237955Y58100D01*
X248027Y68173D01*
X326870D01*
X326870Y68173D01*
X327720Y68285D01*
X328512Y68613D01*
X329192Y69134D01*
X330924Y70866D01*
X367188D01*
Y63465D01*
D02*
G37*
G36*
X369160Y60844D02*
Y48575D01*
X367879Y47294D01*
X367710Y47298D01*
X367345Y47467D01*
X367332Y47569D01*
X367294Y47660D01*
X367274Y47756D01*
X367093Y48281D01*
X366974Y48520D01*
X366873Y48766D01*
X366813Y48843D01*
X366769Y48931D01*
X366593Y49130D01*
X366431Y49341D01*
X366353Y49401D01*
X366288Y49474D01*
X366066Y49621D01*
X365855Y49783D01*
X365310Y50098D01*
X365058Y50350D01*
X364880Y50658D01*
X364788Y51003D01*
Y51359D01*
X364880Y51704D01*
X365058Y52013D01*
X365310Y52265D01*
X365583Y52422D01*
X366159Y52864D01*
X366600Y53440D01*
X366878Y54110D01*
X366973Y54829D01*
Y55407D01*
X366878Y56126D01*
X366600Y56797D01*
X366159Y57372D01*
X365583Y57814D01*
X365310Y57972D01*
X365058Y58224D01*
X364880Y58532D01*
X364788Y58877D01*
Y59233D01*
X364880Y59578D01*
X365058Y59887D01*
X365310Y60139D01*
X365619Y60317D01*
X365964Y60409D01*
X366412D01*
X366429Y60405D01*
X366611D01*
X366792Y60381D01*
X366972Y60405D01*
X367155D01*
X367331Y60452D01*
X367511Y60476D01*
X367680Y60545D01*
X367856Y60593D01*
X368013Y60684D01*
X368182Y60753D01*
X368326Y60864D01*
X368484Y60955D01*
X368660Y61090D01*
X369160Y60844D01*
D02*
G37*
G36*
X102126Y28229D02*
X101871Y28093D01*
X101383Y28395D01*
Y64922D01*
X102126D01*
Y28229D01*
D02*
G37*
G36*
X231142Y34292D02*
X231142Y34292D01*
X231823Y33770D01*
X232615Y33442D01*
X233465Y33330D01*
X233465Y33330D01*
X237795D01*
X237795Y33330D01*
X238645Y33442D01*
X239437Y33770D01*
X240117Y34292D01*
X243093Y37267D01*
X245374D01*
Y35827D01*
X252306D01*
X252340Y35567D01*
X252668Y34775D01*
X253190Y34095D01*
X253870Y33573D01*
X254662Y33245D01*
X255512Y33133D01*
X256362Y33245D01*
X257154Y33573D01*
X257834Y34095D01*
X258356Y34775D01*
X258684Y35567D01*
X258796Y36417D01*
Y39496D01*
X258881Y39701D01*
X258989Y40523D01*
X265433D01*
X266875Y39082D01*
X267014Y38562D01*
X267558Y37619D01*
X268328Y36850D01*
X269270Y36305D01*
X270322Y36024D01*
X271410D01*
X272462Y36305D01*
X273404Y36850D01*
X274174Y37619D01*
X274718Y38562D01*
X275000Y39613D01*
Y40527D01*
X275769D01*
X276489Y40622D01*
X276899Y40792D01*
X277381Y40921D01*
X277737D01*
X278219Y40792D01*
X278629Y40622D01*
X279348Y40527D01*
X281281D01*
X282001Y40622D01*
X282411Y40792D01*
X282893Y40921D01*
X283249D01*
X283731Y40792D01*
X284141Y40622D01*
X284860Y40527D01*
X357671D01*
X357862Y40066D01*
X341419Y23622D01*
X335925D01*
X335190Y23819D01*
X334101D01*
X333367Y23622D01*
X292106D01*
X291891Y23995D01*
X291121Y24765D01*
X290178Y25309D01*
X289127Y25591D01*
X289081D01*
X289058Y25631D01*
X288288Y26400D01*
X287346Y26945D01*
X286294Y27226D01*
X285206D01*
X284155Y26945D01*
X283212Y26400D01*
X283002Y26191D01*
X282853Y26339D01*
X281911Y26884D01*
X280859Y27165D01*
X279771D01*
X278719Y26884D01*
X277777Y26339D01*
X277028Y25591D01*
X277015D01*
X275963Y25309D01*
X275021Y24765D01*
X274536Y24280D01*
X274241Y24003D01*
X273870Y24284D01*
X273425Y24729D01*
X272483Y25273D01*
X271431Y25555D01*
X271397D01*
X269827Y27125D01*
X269147Y27647D01*
X268355Y27975D01*
X267505Y28087D01*
X267505Y28087D01*
X252658D01*
X251807Y27975D01*
X251015Y27647D01*
X250335Y27125D01*
X250335Y27125D01*
X248801Y25591D01*
X245374D01*
Y24938D01*
X223801D01*
X219819Y28919D01*
Y41339D01*
X224096D01*
X231142Y34292D01*
D02*
G37*
G36*
X113119Y8688D02*
X112927Y8226D01*
X102292D01*
X98580Y11937D01*
Y15052D01*
X99042Y15243D01*
X100591Y13695D01*
Y13349D01*
X100920Y12553D01*
X101529Y11944D01*
X102325Y11614D01*
X103187D01*
X103982Y11944D01*
X104592Y12553D01*
X104921Y13349D01*
Y14210D01*
X104592Y15006D01*
X104046Y15551D01*
X104592Y16096D01*
X104747Y16472D01*
X105237Y16569D01*
X113119Y8688D01*
D02*
G37*
G36*
X8127Y112851D02*
X8553Y112567D01*
X9055Y112467D01*
X40401D01*
X46506Y106362D01*
Y70291D01*
X46606Y69789D01*
X46891Y69363D01*
X70922Y45332D01*
X71348Y45047D01*
X71850Y44947D01*
X89803D01*
X94190Y40560D01*
X93978Y40065D01*
X93262Y39769D01*
X92652Y39160D01*
X92323Y38364D01*
Y37502D01*
X92652Y36707D01*
X93262Y36097D01*
X94058Y35768D01*
X94542D01*
X94656Y35598D01*
X94389Y35098D01*
X94058D01*
X93262Y34769D01*
X92652Y34160D01*
X92323Y33364D01*
Y32502D01*
X92652Y31707D01*
X93262Y31097D01*
X94058Y30768D01*
X94554D01*
Y10039D01*
X94653Y9537D01*
X94938Y9111D01*
X96611Y7438D01*
X93110Y3937D01*
X15748D01*
X3937Y15748D01*
Y114173D01*
X6805D01*
X8127Y112851D01*
D02*
G37*
%LPC*%
G36*
X382460Y173622D02*
X381320D01*
X380218Y173327D01*
X379230Y172757D01*
X378424Y171951D01*
X377854Y170963D01*
X377559Y169861D01*
Y168721D01*
X377854Y167620D01*
X378424Y166632D01*
X379230Y165826D01*
X380218Y165255D01*
X381320Y164960D01*
X382460D01*
X383561Y165255D01*
X384549Y165826D01*
X385355Y166632D01*
X385926Y167620D01*
X386221Y168721D01*
Y169861D01*
X385926Y170963D01*
X385355Y171951D01*
X384549Y172757D01*
X383561Y173327D01*
X382460Y173622D01*
D02*
G37*
G36*
X197997Y132677D02*
X195704D01*
X193439Y132318D01*
X191259Y131610D01*
X189216Y130569D01*
X187361Y129221D01*
X185739Y127600D01*
X184392Y125745D01*
X183351Y123702D01*
X182642Y121521D01*
X182283Y119257D01*
Y116964D01*
X182642Y114699D01*
X183351Y112519D01*
X184392Y110476D01*
X185739Y108621D01*
X187361Y106999D01*
X189216Y105651D01*
X191259Y104611D01*
X193439Y103902D01*
X195704Y103543D01*
X197997D01*
X200261Y103902D01*
X202442Y104611D01*
X204485Y105651D01*
X206340Y106999D01*
X207961Y108621D01*
X209309Y110476D01*
X210350Y112519D01*
X211059Y114699D01*
X211417Y116964D01*
Y119257D01*
X211059Y121521D01*
X210350Y123702D01*
X209309Y125745D01*
X207961Y127600D01*
X206340Y129221D01*
X204485Y130569D01*
X202442Y131610D01*
X200261Y132318D01*
X197997Y132677D01*
D02*
G37*
G36*
X258382Y20366D02*
X256209D01*
Y17898D01*
X258382D01*
Y20366D01*
D02*
G37*
G36*
X38288Y110069D02*
X37145D01*
X36041Y109773D01*
X35051Y109202D01*
X34243Y108394D01*
X33672Y107404D01*
X33376Y106300D01*
Y105157D01*
X33672Y104053D01*
X34243Y103063D01*
X35051Y102255D01*
X36041Y101684D01*
X37145Y101388D01*
X38288D01*
X39392Y101684D01*
X40382Y102255D01*
X41190Y103063D01*
X41761Y104053D01*
X42057Y105157D01*
Y106300D01*
X41761Y107404D01*
X41190Y108394D01*
X40382Y109202D01*
X39392Y109773D01*
X38288Y110069D01*
D02*
G37*
G36*
X28288D02*
X27145D01*
X26041Y109773D01*
X25051Y109202D01*
X24243Y108394D01*
X23672Y107404D01*
X23376Y106300D01*
Y105157D01*
X23672Y104053D01*
X24243Y103063D01*
X25051Y102255D01*
X26041Y101684D01*
X27145Y101388D01*
X28288D01*
X29392Y101684D01*
X30382Y102255D01*
X31190Y103063D01*
X31761Y104053D01*
X32057Y105157D01*
Y106300D01*
X31761Y107404D01*
X31190Y108394D01*
X30382Y109202D01*
X29392Y109773D01*
X28288Y110069D01*
D02*
G37*
G36*
X18288D02*
X17145D01*
X16041Y109773D01*
X15051Y109202D01*
X14243Y108394D01*
X13672Y107404D01*
X13376Y106300D01*
Y105157D01*
X13672Y104053D01*
X14243Y103063D01*
X15051Y102255D01*
X16041Y101684D01*
X17145Y101388D01*
X18288D01*
X19392Y101684D01*
X20382Y102255D01*
X21190Y103063D01*
X21761Y104053D01*
X22057Y105157D01*
Y106300D01*
X21761Y107404D01*
X21190Y108394D01*
X20382Y109202D01*
X19392Y109773D01*
X18288Y110069D01*
D02*
G37*
G36*
X38288Y100069D02*
X37145D01*
X36041Y99773D01*
X35051Y99202D01*
X34243Y98393D01*
X33672Y97404D01*
X33376Y96300D01*
Y95157D01*
X33672Y94053D01*
X34243Y93063D01*
X35051Y92255D01*
X36041Y91684D01*
X37145Y91388D01*
X38288D01*
X39392Y91684D01*
X40382Y92255D01*
X41190Y93063D01*
X41761Y94053D01*
X42057Y95157D01*
Y96300D01*
X41761Y97404D01*
X41190Y98393D01*
X40382Y99202D01*
X39392Y99773D01*
X38288Y100069D01*
D02*
G37*
G36*
X28288D02*
X27145D01*
X26041Y99773D01*
X25051Y99202D01*
X24243Y98393D01*
X23672Y97404D01*
X23376Y96300D01*
Y95157D01*
X23672Y94053D01*
X24243Y93063D01*
X25051Y92255D01*
X26041Y91684D01*
X27145Y91388D01*
X28288D01*
X29392Y91684D01*
X30382Y92255D01*
X31190Y93063D01*
X31761Y94053D01*
X32057Y95157D01*
Y96300D01*
X31761Y97404D01*
X31190Y98393D01*
X30382Y99202D01*
X29392Y99773D01*
X28288Y100069D01*
D02*
G37*
G36*
X18288D02*
X17145D01*
X16041Y99773D01*
X15051Y99202D01*
X14243Y98393D01*
X13672Y97404D01*
X13376Y96300D01*
Y95157D01*
X13672Y94053D01*
X14243Y93063D01*
X15051Y92255D01*
X16041Y91684D01*
X17145Y91388D01*
X18288D01*
X19392Y91684D01*
X20382Y92255D01*
X21190Y93063D01*
X21761Y94053D01*
X22057Y95157D01*
Y96300D01*
X21761Y97404D01*
X21190Y98393D01*
X20382Y99202D01*
X19392Y99773D01*
X18288Y100069D01*
D02*
G37*
G36*
X38288Y90069D02*
X37145D01*
X36041Y89773D01*
X35051Y89202D01*
X34243Y88393D01*
X33672Y87404D01*
X33376Y86300D01*
Y85157D01*
X33672Y84053D01*
X34243Y83063D01*
X35051Y82255D01*
X36041Y81684D01*
X37145Y81388D01*
X38288D01*
X39392Y81684D01*
X40382Y82255D01*
X41190Y83063D01*
X41761Y84053D01*
X42057Y85157D01*
Y86300D01*
X41761Y87404D01*
X41190Y88393D01*
X40382Y89202D01*
X39392Y89773D01*
X38288Y90069D01*
D02*
G37*
G36*
X28288D02*
X27145D01*
X26041Y89773D01*
X25051Y89202D01*
X24243Y88393D01*
X23672Y87404D01*
X23376Y86300D01*
Y85157D01*
X23672Y84053D01*
X24243Y83063D01*
X25051Y82255D01*
X26041Y81684D01*
X27145Y81388D01*
X28288D01*
X29392Y81684D01*
X30382Y82255D01*
X31190Y83063D01*
X31761Y84053D01*
X32057Y85157D01*
Y86300D01*
X31761Y87404D01*
X31190Y88393D01*
X30382Y89202D01*
X29392Y89773D01*
X28288Y90069D01*
D02*
G37*
G36*
X18288D02*
X17145D01*
X16041Y89773D01*
X15051Y89202D01*
X14243Y88393D01*
X13672Y87404D01*
X13376Y86300D01*
Y85157D01*
X13672Y84053D01*
X14243Y83063D01*
X15051Y82255D01*
X16041Y81684D01*
X17145Y81388D01*
X18288D01*
X19392Y81684D01*
X20382Y82255D01*
X21190Y83063D01*
X21761Y84053D01*
X22057Y85157D01*
Y86300D01*
X21761Y87404D01*
X21190Y88393D01*
X20382Y89202D01*
X19392Y89773D01*
X18288Y90069D01*
D02*
G37*
G36*
X38288Y80069D02*
X37145D01*
X36041Y79773D01*
X35051Y79202D01*
X34243Y78394D01*
X33672Y77404D01*
X33376Y76300D01*
Y75157D01*
X33672Y74053D01*
X34243Y73063D01*
X35051Y72255D01*
X36041Y71684D01*
X37145Y71388D01*
X38288D01*
X39392Y71684D01*
X40382Y72255D01*
X41190Y73063D01*
X41761Y74053D01*
X42057Y75157D01*
Y76300D01*
X41761Y77404D01*
X41190Y78394D01*
X40382Y79202D01*
X39392Y79773D01*
X38288Y80069D01*
D02*
G37*
G36*
X28288D02*
X27145D01*
X26041Y79773D01*
X25051Y79202D01*
X24243Y78394D01*
X23672Y77404D01*
X23376Y76300D01*
Y75157D01*
X23672Y74053D01*
X24243Y73063D01*
X25051Y72255D01*
X26041Y71684D01*
X27145Y71388D01*
X28288D01*
X29392Y71684D01*
X30382Y72255D01*
X31190Y73063D01*
X31761Y74053D01*
X32057Y75157D01*
Y76300D01*
X31761Y77404D01*
X31190Y78394D01*
X30382Y79202D01*
X29392Y79773D01*
X28288Y80069D01*
D02*
G37*
G36*
X18288D02*
X17145D01*
X16041Y79773D01*
X15051Y79202D01*
X14243Y78394D01*
X13672Y77404D01*
X13376Y76300D01*
Y75157D01*
X13672Y74053D01*
X14243Y73063D01*
X15051Y72255D01*
X16041Y71684D01*
X17145Y71388D01*
X18288D01*
X19392Y71684D01*
X20382Y72255D01*
X21190Y73063D01*
X21761Y74053D01*
X22057Y75157D01*
Y76300D01*
X21761Y77404D01*
X21190Y78394D01*
X20382Y79202D01*
X19392Y79773D01*
X18288Y80069D01*
D02*
G37*
G36*
X38288Y70069D02*
X37145D01*
X36041Y69773D01*
X35051Y69202D01*
X34243Y68393D01*
X33672Y67404D01*
X33376Y66300D01*
Y65157D01*
X33672Y64053D01*
X34243Y63063D01*
X35051Y62255D01*
X36041Y61684D01*
X37145Y61388D01*
X38288D01*
X39392Y61684D01*
X40382Y62255D01*
X41190Y63063D01*
X41761Y64053D01*
X42057Y65157D01*
Y66300D01*
X41761Y67404D01*
X41190Y68393D01*
X40382Y69202D01*
X39392Y69773D01*
X38288Y70069D01*
D02*
G37*
G36*
X28288D02*
X27145D01*
X26041Y69773D01*
X25051Y69202D01*
X24243Y68393D01*
X23672Y67404D01*
X23376Y66300D01*
Y65157D01*
X23672Y64053D01*
X24243Y63063D01*
X25051Y62255D01*
X26041Y61684D01*
X27145Y61388D01*
X28288D01*
X29392Y61684D01*
X30382Y62255D01*
X31190Y63063D01*
X31761Y64053D01*
X32057Y65157D01*
Y66300D01*
X31761Y67404D01*
X31190Y68393D01*
X30382Y69202D01*
X29392Y69773D01*
X28288Y70069D01*
D02*
G37*
G36*
X18288D02*
X17145D01*
X16041Y69773D01*
X15051Y69202D01*
X14243Y68393D01*
X13672Y67404D01*
X13376Y66300D01*
Y65157D01*
X13672Y64053D01*
X14243Y63063D01*
X15051Y62255D01*
X16041Y61684D01*
X17145Y61388D01*
X18288D01*
X19392Y61684D01*
X20382Y62255D01*
X21190Y63063D01*
X21761Y64053D01*
X22057Y65157D01*
Y66300D01*
X21761Y67404D01*
X21190Y68393D01*
X20382Y69202D01*
X19392Y69773D01*
X18288Y70069D01*
D02*
G37*
G36*
X38288Y60069D02*
X37145D01*
X36041Y59773D01*
X35051Y59202D01*
X34243Y58394D01*
X33672Y57404D01*
X33376Y56300D01*
Y55157D01*
X33672Y54053D01*
X34243Y53063D01*
X35051Y52255D01*
X36041Y51684D01*
X37145Y51388D01*
X38288D01*
X39392Y51684D01*
X40382Y52255D01*
X41190Y53063D01*
X41761Y54053D01*
X42057Y55157D01*
Y56300D01*
X41761Y57404D01*
X41190Y58394D01*
X40382Y59202D01*
X39392Y59773D01*
X38288Y60069D01*
D02*
G37*
G36*
X28288D02*
X27145D01*
X26041Y59773D01*
X25051Y59202D01*
X24243Y58394D01*
X23672Y57404D01*
X23376Y56300D01*
Y55157D01*
X23672Y54053D01*
X24243Y53063D01*
X25051Y52255D01*
X26041Y51684D01*
X27145Y51388D01*
X28288D01*
X29392Y51684D01*
X30382Y52255D01*
X31190Y53063D01*
X31761Y54053D01*
X32057Y55157D01*
Y56300D01*
X31761Y57404D01*
X31190Y58394D01*
X30382Y59202D01*
X29392Y59773D01*
X28288Y60069D01*
D02*
G37*
G36*
X18288D02*
X17145D01*
X16041Y59773D01*
X15051Y59202D01*
X14243Y58394D01*
X13672Y57404D01*
X13376Y56300D01*
Y55157D01*
X13672Y54053D01*
X14243Y53063D01*
X15051Y52255D01*
X16041Y51684D01*
X17145Y51388D01*
X18288D01*
X19392Y51684D01*
X20382Y52255D01*
X21190Y53063D01*
X21761Y54053D01*
X22057Y55157D01*
Y56300D01*
X21761Y57404D01*
X21190Y58394D01*
X20382Y59202D01*
X19392Y59773D01*
X18288Y60069D01*
D02*
G37*
G36*
X38288Y50069D02*
X37145D01*
X36041Y49773D01*
X35051Y49202D01*
X34243Y48393D01*
X33672Y47404D01*
X33376Y46300D01*
Y45157D01*
X33672Y44053D01*
X34243Y43063D01*
X35051Y42255D01*
X36041Y41684D01*
X37145Y41388D01*
X38288D01*
X39392Y41684D01*
X40382Y42255D01*
X41190Y43063D01*
X41761Y44053D01*
X42057Y45157D01*
Y46300D01*
X41761Y47404D01*
X41190Y48393D01*
X40382Y49202D01*
X39392Y49773D01*
X38288Y50069D01*
D02*
G37*
G36*
X28288D02*
X27145D01*
X26041Y49773D01*
X25051Y49202D01*
X24243Y48393D01*
X23672Y47404D01*
X23376Y46300D01*
Y45157D01*
X23672Y44053D01*
X24243Y43063D01*
X25051Y42255D01*
X26041Y41684D01*
X27145Y41388D01*
X28288D01*
X29392Y41684D01*
X30382Y42255D01*
X31190Y43063D01*
X31761Y44053D01*
X32057Y45157D01*
Y46300D01*
X31761Y47404D01*
X31190Y48393D01*
X30382Y49202D01*
X29392Y49773D01*
X28288Y50069D01*
D02*
G37*
G36*
X18288D02*
X17145D01*
X16041Y49773D01*
X15051Y49202D01*
X14243Y48393D01*
X13672Y47404D01*
X13376Y46300D01*
Y45157D01*
X13672Y44053D01*
X14243Y43063D01*
X15051Y42255D01*
X16041Y41684D01*
X17145Y41388D01*
X18288D01*
X19392Y41684D01*
X20382Y42255D01*
X21190Y43063D01*
X21761Y44053D01*
X22057Y45157D01*
Y46300D01*
X21761Y47404D01*
X21190Y48393D01*
X20382Y49202D01*
X19392Y49773D01*
X18288Y50069D01*
D02*
G37*
G36*
X38288Y40069D02*
X37145D01*
X36041Y39773D01*
X35051Y39202D01*
X34243Y38394D01*
X33672Y37404D01*
X33376Y36300D01*
Y35157D01*
X33672Y34053D01*
X34243Y33063D01*
X35051Y32255D01*
X36041Y31684D01*
X37145Y31388D01*
X38288D01*
X39392Y31684D01*
X40382Y32255D01*
X41190Y33063D01*
X41761Y34053D01*
X42057Y35157D01*
Y36300D01*
X41761Y37404D01*
X41190Y38394D01*
X40382Y39202D01*
X39392Y39773D01*
X38288Y40069D01*
D02*
G37*
G36*
X28288D02*
X27145D01*
X26041Y39773D01*
X25051Y39202D01*
X24243Y38394D01*
X23672Y37404D01*
X23376Y36300D01*
Y35157D01*
X23672Y34053D01*
X24243Y33063D01*
X25051Y32255D01*
X26041Y31684D01*
X27145Y31388D01*
X28288D01*
X29392Y31684D01*
X30382Y32255D01*
X31190Y33063D01*
X31761Y34053D01*
X32057Y35157D01*
Y36300D01*
X31761Y37404D01*
X31190Y38394D01*
X30382Y39202D01*
X29392Y39773D01*
X28288Y40069D01*
D02*
G37*
G36*
X18288D02*
X17145D01*
X16041Y39773D01*
X15051Y39202D01*
X14243Y38394D01*
X13672Y37404D01*
X13376Y36300D01*
Y35157D01*
X13672Y34053D01*
X14243Y33063D01*
X15051Y32255D01*
X16041Y31684D01*
X17145Y31388D01*
X18288D01*
X19392Y31684D01*
X20382Y32255D01*
X21190Y33063D01*
X21761Y34053D01*
X22057Y35157D01*
Y36300D01*
X21761Y37404D01*
X21190Y38394D01*
X20382Y39202D01*
X19392Y39773D01*
X18288Y40069D01*
D02*
G37*
G36*
X70903Y26575D02*
X70042D01*
X69246Y26245D01*
X68637Y25636D01*
X68307Y24840D01*
Y24100D01*
X59401Y15195D01*
X57684D01*
X57161Y15718D01*
X56365Y16047D01*
X55504D01*
X54708Y15718D01*
X54099Y15109D01*
X53769Y14313D01*
Y13451D01*
X54099Y12655D01*
X54708Y12046D01*
X55504Y11717D01*
X56365D01*
X57161Y12046D01*
X57684Y12569D01*
X59945D01*
X60447Y12669D01*
X60873Y12954D01*
X70163Y22244D01*
X70903D01*
X71699Y22574D01*
X72308Y23183D01*
X72638Y23979D01*
Y24840D01*
X72308Y25636D01*
X71699Y26245D01*
X70903Y26575D01*
D02*
G37*
G36*
X32243Y20387D02*
X30750D01*
X29285Y20095D01*
X27906Y19524D01*
X26665Y18695D01*
X25609Y17639D01*
X24780Y16398D01*
X24209Y15019D01*
X23917Y13554D01*
Y12061D01*
X24209Y10597D01*
X24780Y9218D01*
X25609Y7977D01*
X26665Y6921D01*
X27906Y6092D01*
X29285Y5520D01*
X30750Y5229D01*
X32243D01*
X33707Y5520D01*
X35086Y6092D01*
X36327Y6921D01*
X37383Y7977D01*
X38212Y9218D01*
X38784Y10597D01*
X39075Y12061D01*
Y13554D01*
X38784Y15019D01*
X38212Y16398D01*
X37383Y17639D01*
X36327Y18695D01*
X35086Y19524D01*
X33707Y20095D01*
X32243Y20387D01*
D02*
G37*
%LPD*%
D10*
X359055Y127953D02*
X366142Y135039D01*
X352658Y127953D02*
X359055D01*
X350638Y125933D02*
X352658Y127953D01*
X350638Y119804D02*
Y125933D01*
X354410Y119095D02*
X355032Y118472D01*
X350638Y119804D02*
X351347Y119095D01*
X354410D01*
X355032Y115269D02*
Y118472D01*
X364213Y148642D02*
X366142Y146713D01*
Y135039D02*
Y146713D01*
X353051Y113287D02*
X355032Y115269D01*
D41*
X255709Y218504D02*
D03*
X249803D02*
D03*
Y194095D02*
D03*
X255709D02*
D03*
X316929Y110236D02*
D03*
X311024D02*
D03*
X316929Y125000D02*
D03*
X311024D02*
D03*
X316929Y104331D02*
D03*
X311024D02*
D03*
X316929Y130905D02*
D03*
X311024D02*
D03*
X255709Y40551D02*
D03*
X249803D02*
D03*
Y20866D02*
D03*
X255709D02*
D03*
D80*
X362205Y169291D02*
D03*
X381890D02*
D03*
D84*
X349220Y97417D02*
X349441Y97638D01*
X326364Y72933D02*
X349220Y95789D01*
Y97417D01*
X246161Y72933D02*
X326364D01*
X246667Y71457D02*
X326870D01*
X351969Y96555D01*
Y98879D01*
X235439Y62211D02*
X246161Y72933D01*
X235633Y60422D02*
X246667Y71457D01*
X350545Y100303D02*
X351969Y98879D01*
X232734Y60422D02*
X235633D01*
X232928Y62211D02*
X235439D01*
X333071Y101181D02*
Y104335D01*
X317626Y105028D02*
X328437D01*
X328740Y104724D01*
X321659Y110236D02*
X323250Y111827D01*
X323686D01*
X349363Y134593D02*
Y137054D01*
X245486Y165354D02*
X323045D01*
X352365Y133153D02*
Y136035D01*
X322465Y163953D02*
X349363Y137054D01*
X244819Y163953D02*
X322465D01*
X323045Y165354D02*
X352365Y136035D01*
X234748Y176093D02*
X245486Y165354D01*
X234468Y174303D02*
X244819Y163953D01*
X349363Y134593D02*
X349699Y134257D01*
X344854Y129634D02*
X356012D01*
X362154Y135776D01*
X337585Y136903D02*
X344854Y129634D01*
X353157Y125197D02*
X359842D01*
X353150Y125189D02*
X353157Y125197D01*
X349213Y118701D02*
Y125786D01*
X350891Y117023D02*
X352758D01*
X352859Y116921D01*
X349213Y118701D02*
X350891Y117023D01*
X348621Y126378D02*
X349213Y125786D01*
X343220Y126378D02*
X348621D01*
X353051Y121268D02*
X353059Y121260D01*
X355994D01*
X359842Y125197D02*
X363583Y121457D01*
X362181Y95350D02*
Y117740D01*
X363583Y97441D02*
X372835Y88189D01*
X363583Y97441D02*
Y121457D01*
X362181Y95350D02*
X370472Y87059D01*
X359097Y120825D02*
X362181Y117740D01*
X100394Y5512D02*
X114187D01*
X110762Y2716D02*
X115000D01*
X114187Y5512D02*
X116392Y3307D01*
X101748Y6913D02*
X114767D01*
X104898Y18765D02*
Y19646D01*
X114767Y6913D02*
X116905Y4776D01*
X115811Y1905D02*
X336354D01*
X117486Y6177D02*
X331768D01*
X116905Y4776D02*
X333516D01*
X115000Y2716D02*
X115811Y1905D01*
X116392Y3307D02*
X334902D01*
X104898Y18765D02*
X117486Y6177D01*
X106299Y19390D02*
X118110Y7579D01*
X330020D01*
X106299Y19390D02*
Y22286D01*
X331768Y6177D02*
X372835Y47244D01*
X333516Y4776D02*
X375197Y46457D01*
X330020Y7579D02*
X370472Y48031D01*
X334902Y3307D02*
X377559Y45965D01*
X336354Y1905D02*
X379921Y45472D01*
X102772Y21772D02*
X104898Y19646D01*
X97268Y11394D02*
X101748Y6913D01*
X94488Y32847D02*
Y32933D01*
X95866Y10039D02*
Y31469D01*
X97268Y11394D02*
Y35154D01*
X98669Y17472D02*
Y37937D01*
X94488Y37933D02*
X97268Y35154D01*
X100071Y20230D02*
Y96780D01*
Y20230D02*
X102756Y17545D01*
X98669Y17472D02*
X102362Y13780D01*
X95866Y10039D02*
X100394Y5512D01*
X90346Y46260D02*
X98669Y37937D01*
X93504Y103347D02*
X100071Y96780D01*
X94488Y32847D02*
X95866Y31469D01*
X102772Y25814D02*
X102772D01*
X106299Y22286D01*
X232847Y176093D02*
X234748D01*
X231774Y173228D02*
X232849Y174303D01*
X234468D01*
X231299Y173228D02*
X231774D01*
Y177165D02*
X232847Y176093D01*
X231299Y177165D02*
X231774D01*
X350803Y131591D02*
X352365Y133153D01*
X347936Y131591D02*
X350803D01*
X345276Y134252D02*
X347936Y131591D01*
X102756Y17323D02*
Y17545D01*
X102362Y13780D02*
X102756D01*
X94488Y37933D02*
X95461D01*
X71850Y46260D02*
X90346D01*
X379921Y45472D02*
Y118504D01*
X59945Y13882D02*
X70472Y24409D01*
X55935Y13882D02*
X59945D01*
X268504Y197638D02*
Y200787D01*
X314961Y95669D02*
X321260Y101969D01*
X306693Y95669D02*
X314961D01*
X300394Y89370D02*
X306693Y95669D01*
X316929Y104331D02*
X317626Y105028D01*
X233465Y36614D02*
X237795D01*
X241732Y40551D01*
X220472Y49606D02*
X233465Y36614D01*
X261705Y190839D02*
X268504Y197638D01*
X255807Y190839D02*
X261705D01*
X260155Y195669D02*
X260630D01*
X252764Y197350D02*
X258474D01*
X260155Y195669D01*
X303150Y137795D02*
X304134D01*
X300394D02*
X303625D01*
X249803Y194390D02*
X252764Y197350D01*
X319210Y135433D02*
X319997Y134646D01*
X300394Y146850D02*
X311811Y135433D01*
X319997Y134646D02*
X320472D01*
X311811Y135433D02*
X319210D01*
X300394Y146850D02*
X300394D01*
X309850Y126469D02*
X311024Y125295D01*
X309555Y126469D02*
X309850D01*
X307283Y128740D02*
X309555Y126469D01*
X311024Y125000D02*
Y125295D01*
X300394Y128740D02*
X307283D01*
X309555Y108768D02*
X309850D01*
X311024Y109941D02*
Y110236D01*
X300394Y107480D02*
X308268D01*
X309850Y108768D02*
X311024Y109941D01*
X308268Y107480D02*
X309555Y108768D01*
X326279Y111126D02*
Y119587D01*
X334646Y127953D01*
Y131291D01*
X321048Y117899D02*
X323650Y120500D01*
X331993Y135143D02*
X333754Y136903D01*
X323650Y120500D02*
X323650D01*
X331993Y128843D02*
Y135143D01*
X323650Y120500D02*
X331993Y128843D01*
X355994Y121260D02*
X356429Y120825D01*
X359097D01*
X362154Y137744D02*
X362205Y137795D01*
X362154Y135776D02*
Y137744D01*
X224410Y149606D02*
Y185039D01*
X230209Y190839D01*
X255807D01*
X225590Y194095D02*
X249803D01*
X220472Y188976D02*
X225590Y194095D01*
X220472Y145669D02*
Y188976D01*
X104198Y232283D02*
X104331D01*
X102229Y234252D02*
X104198Y232283D01*
X17717Y234252D02*
X102229D01*
X4331Y118504D02*
Y220866D01*
X17717Y234252D01*
X216535Y27559D02*
X222441Y21654D01*
X249654D01*
X216535Y208661D02*
X222083Y214209D01*
X250394D01*
X216535Y141732D02*
Y208661D01*
Y27559D02*
Y94488D01*
X224410Y102362D01*
X241732Y40551D02*
X249803D01*
X224410Y51181D02*
X235433Y40157D01*
X235827D01*
X220472Y49606D02*
Y90551D01*
X228346Y98425D01*
X224410Y51181D02*
Y86614D01*
X232283Y94488D01*
X216535Y141732D02*
X224409Y133858D01*
X224410Y149606D02*
X232283Y141732D01*
X220472Y145669D02*
X228346Y137795D01*
X250534Y217175D02*
X250837D01*
X255512Y40354D02*
X255709Y40551D01*
X255512Y36417D02*
Y40354D01*
X228346Y98425D02*
X300394D01*
X305118D01*
X249803Y40846D02*
X252764Y43807D01*
X266794D01*
X249803Y40551D02*
Y40846D01*
X266794Y43807D02*
X270443Y40157D01*
X231384Y63279D02*
X231859D01*
X232928Y62211D01*
X232283Y94488D02*
X299803D01*
X300394Y93898D01*
Y89370D02*
Y93898D01*
X224410Y102362D02*
X299803D01*
X300394Y102953D02*
Y107480D01*
X299803Y102362D02*
X300394Y102953D01*
X224409Y133858D02*
X299774D01*
X300394Y133239D01*
Y128740D02*
Y133239D01*
X232283Y141732D02*
X299774D01*
X300394Y142352D01*
Y146850D01*
X228346Y137795D02*
X300394D01*
X309850Y132374D02*
X311024Y131201D01*
X309555Y132374D02*
X309850D01*
X311024Y130905D02*
Y131201D01*
X304134Y137795D02*
X309555Y132374D01*
X300605Y117899D02*
X321048D01*
X300394Y118110D02*
X300605Y117899D01*
X377559Y45965D02*
Y92520D01*
X366118Y99303D02*
Y101779D01*
X369685Y100394D02*
X377559Y92520D01*
X368311Y103973D02*
X371224D01*
X366118Y99303D02*
X375197Y90224D01*
X366118Y101779D02*
X368311Y103973D01*
X326279Y111126D02*
X333071Y104335D01*
X334646Y131291D02*
X336228Y132874D01*
X336703D02*
X337491Y132087D01*
X337511D02*
X343220Y126378D01*
X336228Y132874D02*
X336703D01*
X337491Y132087D02*
X337511D01*
X333754Y136903D02*
X337585D01*
X249803Y21949D02*
X252658Y24803D01*
X267505D01*
X270887Y21421D01*
X249803Y21654D02*
Y21949D01*
X270443Y40157D02*
X270866D01*
X250394Y217035D02*
X250534Y217175D01*
X250394Y214209D02*
X261396D01*
X250394D02*
Y217035D01*
X255709Y218504D02*
X259449D01*
X262992Y222047D01*
X316929Y110236D02*
X321659D01*
X321045Y125000D02*
X321853Y124192D01*
X231233Y59346D02*
X231658D01*
X321853Y124192D02*
X322328D01*
X231658Y59346D02*
X232734Y60422D01*
X316929Y125000D02*
X321045D01*
X255709Y190937D02*
X255807Y190839D01*
X255709Y190937D02*
Y194095D01*
X249803D02*
Y194390D01*
X316929Y130905D02*
X327756D01*
X47819Y70291D02*
Y106905D01*
Y70291D02*
X71850Y46260D01*
X40945Y113779D02*
X47819Y106905D01*
X305118Y98425D02*
X309555Y102862D01*
X370472Y48031D02*
Y87059D01*
X372835Y47244D02*
Y88189D01*
X375197Y46457D02*
Y90224D01*
X309555Y102862D02*
X309850D01*
X311024Y104035D01*
Y104331D01*
X345473Y102362D02*
X347532Y100303D01*
X350545D01*
X371224Y103973D02*
X374803Y100394D01*
X4331Y118504D02*
X9055Y113779D01*
X40945D01*
X55118Y196850D02*
X76772D01*
X82677Y190945D01*
X56102Y94488D02*
X75787D01*
X82677Y87598D01*
D85*
X51181Y137894D02*
D03*
X41339D02*
D03*
X31496D02*
D03*
X21654D02*
D03*
X11811D02*
D03*
X51181Y126083D02*
D03*
X41339D02*
D03*
X31496D02*
D03*
X21654D02*
D03*
X11811D02*
D03*
X31496Y202854D02*
D03*
X21654D02*
D03*
X11811D02*
D03*
X21654Y191043D02*
D03*
X11811D02*
D03*
X21654Y181201D02*
D03*
X11811D02*
D03*
X21654Y169390D02*
D03*
X11811D02*
D03*
X21654Y159547D02*
D03*
X11811D02*
D03*
X21654Y147736D02*
D03*
X11811D02*
D03*
X51181Y169390D02*
D03*
Y202854D02*
D03*
X41339D02*
D03*
X51181Y191043D02*
D03*
X41339D02*
D03*
X51181Y181201D02*
D03*
X41339D02*
D03*
Y169390D02*
D03*
X51181Y159547D02*
D03*
X41339D02*
D03*
X51181Y147736D02*
D03*
X41339D02*
D03*
X31496D02*
D03*
Y191043D02*
D03*
Y181201D02*
D03*
Y169390D02*
D03*
Y159547D02*
D03*
X37716Y105728D02*
D03*
X17717Y85728D02*
D03*
X27716Y105728D02*
D03*
X17717Y75728D02*
D03*
X27716D02*
D03*
X37716Y95728D02*
D03*
X27716Y85728D02*
D03*
X17717Y95728D02*
D03*
X27716D02*
D03*
X17717Y105728D02*
D03*
Y55728D02*
D03*
X27716Y35728D02*
D03*
X17717D02*
D03*
X27716Y45728D02*
D03*
X17717D02*
D03*
X27716Y55728D02*
D03*
Y65728D02*
D03*
X17717D02*
D03*
X37716Y85728D02*
D03*
Y75728D02*
D03*
Y65728D02*
D03*
Y55728D02*
D03*
Y45728D02*
D03*
Y35728D02*
D03*
D86*
X31496Y12808D02*
D03*
Y224508D02*
D03*
D87*
X276575Y128937D02*
D03*
Y107283D02*
D03*
X235236D02*
D03*
Y128937D02*
D03*
X77756Y162402D02*
D03*
D88*
X276575Y148622D02*
D03*
Y87598D02*
D03*
X235236D02*
D03*
Y148622D02*
D03*
X77756Y142717D02*
D03*
D89*
X342520Y82677D02*
D03*
X333071Y101181D02*
D03*
X328740Y104724D02*
D03*
X323686Y111827D02*
D03*
X372047Y125236D02*
D03*
X353150Y125189D02*
D03*
X353051Y121268D02*
D03*
X352859Y116921D02*
D03*
X94488Y32933D02*
D03*
X102772Y25814D02*
D03*
Y21772D02*
D03*
X274803Y10433D02*
D03*
X303150Y11811D02*
D03*
X212598D02*
D03*
X149606D02*
D03*
X263780Y10433D02*
D03*
X228346Y11811D02*
D03*
X280315Y10433D02*
D03*
X318898Y11811D02*
D03*
X165354D02*
D03*
X181102D02*
D03*
X252756Y10433D02*
D03*
X125984Y11811D02*
D03*
X188976D02*
D03*
X241732Y10433D02*
D03*
X295276Y11811D02*
D03*
X204724D02*
D03*
X326772Y11811D02*
D03*
X141732Y11811D02*
D03*
X196850D02*
D03*
X247244Y10433D02*
D03*
X133858Y11811D02*
D03*
X269291Y10433D02*
D03*
X285827Y10433D02*
D03*
X311024Y11811D02*
D03*
X220472D02*
D03*
X157480D02*
D03*
X258268Y10433D02*
D03*
X173228Y11811D02*
D03*
X102362Y53150D02*
D03*
Y45276D02*
D03*
Y61024D02*
D03*
X330709Y82677D02*
D03*
X346457D02*
D03*
X322835Y153543D02*
D03*
X326772D02*
D03*
X349699Y134257D02*
D03*
X345276Y134252D02*
D03*
X41339Y29528D02*
D03*
X62992Y27559D02*
D03*
X59055Y31496D02*
D03*
X55118Y35433D02*
D03*
Y43307D02*
D03*
Y51181D02*
D03*
X51181Y55118D02*
D03*
X366142Y59055D02*
D03*
Y51181D02*
D03*
X111843Y21291D02*
D03*
X334646Y19685D02*
D03*
X330709Y15748D02*
D03*
X94488Y55118D02*
D03*
X90551Y59055D02*
D03*
X82677D02*
D03*
X74803D02*
D03*
X66929D02*
D03*
X45276Y25591D02*
D03*
X53150Y17717D02*
D03*
X49213Y21654D02*
D03*
X102756Y13780D02*
D03*
X94488Y37933D02*
D03*
X70472Y24409D02*
D03*
X55935Y13882D02*
D03*
X321260Y101969D02*
D03*
X260630Y195669D02*
D03*
X257480Y200803D02*
D03*
X251969Y200787D02*
D03*
X265748Y188976D02*
D03*
X320472Y134646D02*
D03*
X268504Y190551D02*
D03*
X265748Y208661D02*
D03*
Y199213D02*
D03*
X262992Y200787D02*
D03*
X257480Y210236D02*
D03*
X260236Y208661D02*
D03*
X251969Y210236D02*
D03*
X254724Y202362D02*
D03*
X260236D02*
D03*
X257480Y203937D02*
D03*
X300394Y146850D02*
D03*
X343110Y116339D02*
D03*
X343110Y112795D02*
D03*
X343110Y123425D02*
D03*
X333957Y118110D02*
D03*
X343110Y119882D02*
D03*
X340059Y114567D02*
D03*
X333957Y121653D02*
D03*
X333957Y114567D02*
D03*
X340059Y118110D02*
D03*
X337008Y116339D02*
D03*
X337008Y123425D02*
D03*
X340059Y121653D02*
D03*
X337008Y112795D02*
D03*
X337008Y119882D02*
D03*
X353051Y113287D02*
D03*
X362205Y137795D02*
D03*
X104331Y232283D02*
D03*
X244488Y15157D02*
D03*
X241732Y13583D02*
D03*
X238976Y15157D02*
D03*
X236221Y13583D02*
D03*
X235827Y40157D02*
D03*
X97823Y109875D02*
D03*
X95854Y113812D02*
D03*
X93886Y117749D02*
D03*
X97823D02*
D03*
X95854Y121686D02*
D03*
X91917D02*
D03*
Y113812D02*
D03*
X93886Y109875D02*
D03*
X385827Y59055D02*
D03*
Y43307D02*
D03*
X350394Y5906D02*
D03*
X354331Y153543D02*
D03*
X358268Y82677D02*
D03*
X350394Y153543D02*
D03*
X346457D02*
D03*
X354331Y82677D02*
D03*
X350394D02*
D03*
X311024Y90551D02*
D03*
X314961Y86614D02*
D03*
X318898Y82677D02*
D03*
X322835D02*
D03*
X311024Y141732D02*
D03*
Y145669D02*
D03*
X314961Y149606D02*
D03*
X318898Y153543D02*
D03*
X342520D02*
D03*
X326772Y82677D02*
D03*
X357283Y113228D02*
D03*
X300394Y118110D02*
D03*
Y137795D02*
D03*
Y89370D02*
D03*
Y128740D02*
D03*
Y107480D02*
D03*
Y98425D02*
D03*
X356299Y11811D02*
D03*
X379921Y35433D02*
D03*
X47244Y59055D02*
D03*
X68110Y226378D02*
D03*
X73622Y220079D02*
D03*
Y226378D02*
D03*
X70866Y218504D02*
D03*
Y221654D02*
D03*
Y227953D02*
D03*
X68110Y220079D02*
D03*
X65354Y218504D02*
D03*
X73622Y216929D02*
D03*
X68110Y223228D02*
D03*
Y216929D02*
D03*
X65354Y227953D02*
D03*
X62599Y223228D02*
D03*
X65354Y221654D02*
D03*
X70866Y224803D02*
D03*
X65354D02*
D03*
X73622Y223228D02*
D03*
X62599Y216929D02*
D03*
Y220079D02*
D03*
Y226378D02*
D03*
X73622Y189764D02*
D03*
X70866Y181890D02*
D03*
X62598Y186614D02*
D03*
X65354Y181890D02*
D03*
X68110Y189764D02*
D03*
X65354Y188189D02*
D03*
X70866Y191339D02*
D03*
X65354Y185039D02*
D03*
X68110Y192913D02*
D03*
Y186614D02*
D03*
Y183465D02*
D03*
X62598D02*
D03*
X70866Y185039D02*
D03*
Y188189D02*
D03*
X73622Y186614D02*
D03*
Y183465D02*
D03*
X62598Y189764D02*
D03*
X65354Y191339D02*
D03*
X62598Y192913D02*
D03*
X73622D02*
D03*
X71653Y112205D02*
D03*
X74409Y113779D02*
D03*
Y116929D02*
D03*
Y120079D02*
D03*
Y123228D02*
D03*
X63382Y123350D02*
D03*
Y120201D02*
D03*
Y113902D02*
D03*
Y117051D02*
D03*
X66142Y112205D02*
D03*
Y115354D02*
D03*
X71653D02*
D03*
X68898Y113779D02*
D03*
X63386Y87008D02*
D03*
X74409D02*
D03*
X69035Y86713D02*
D03*
X71653Y88583D02*
D03*
Y85433D02*
D03*
X66142Y88583D02*
D03*
Y85433D02*
D03*
X63386Y83858D02*
D03*
Y80709D02*
D03*
Y77559D02*
D03*
X74409D02*
D03*
Y83858D02*
D03*
Y80709D02*
D03*
X68898Y123228D02*
D03*
X71653Y121653D02*
D03*
X66142D02*
D03*
X68898Y120079D02*
D03*
X71653Y118504D02*
D03*
X66142D02*
D03*
X68898Y116929D02*
D03*
Y83858D02*
D03*
X71653Y82284D02*
D03*
X66142D02*
D03*
X68898Y80709D02*
D03*
X71653Y79134D02*
D03*
X66142D02*
D03*
X68898Y77559D02*
D03*
X385827Y51181D02*
D03*
X369685Y100394D02*
D03*
X287795Y220473D02*
D03*
X287795Y217323D02*
D03*
X287795Y214173D02*
D03*
X285039Y222047D02*
D03*
X285039Y218898D02*
D03*
X285039Y215748D02*
D03*
X282283Y214173D02*
D03*
X282283Y223622D02*
D03*
X282283Y220473D02*
D03*
X282283Y217323D02*
D03*
X279528Y215748D02*
D03*
X276772Y214173D02*
D03*
X274016Y215748D02*
D03*
X283071Y39567D02*
D03*
X285827Y37992D02*
D03*
Y34843D02*
D03*
Y31693D02*
D03*
X247244Y34843D02*
D03*
Y31693D02*
D03*
Y28543D02*
D03*
X250000Y26969D02*
D03*
X291339Y16732D02*
D03*
X285750Y23092D02*
D03*
X288583Y21457D02*
D03*
X288583Y18307D02*
D03*
X280315Y23031D02*
D03*
X277559Y21457D02*
D03*
X285827Y19882D02*
D03*
X283071Y21457D02*
D03*
X288583Y15157D02*
D03*
X288583Y12008D02*
D03*
X285827Y13583D02*
D03*
X283071Y12008D02*
D03*
X285827Y16732D02*
D03*
X283071Y18307D02*
D03*
X280315Y19882D02*
D03*
X277559Y18307D02*
D03*
X238976Y12008D02*
D03*
X244488Y12008D02*
D03*
X250000Y12008D02*
D03*
X255512Y12008D02*
D03*
X261024D02*
D03*
X266535Y12008D02*
D03*
X272047Y12008D02*
D03*
X277559Y12008D02*
D03*
X280315Y13583D02*
D03*
X274803Y13583D02*
D03*
X269291Y13583D02*
D03*
X263779Y13583D02*
D03*
X258268D02*
D03*
X252756Y13583D02*
D03*
X247244Y13583D02*
D03*
X110762Y2716D02*
D03*
X283071Y15157D02*
D03*
X280315Y16732D02*
D03*
X277559Y15157D02*
D03*
X274803Y16732D02*
D03*
X272047Y15157D02*
D03*
X269291Y16732D02*
D03*
X250000Y15157D02*
D03*
X255512Y30118D02*
D03*
X266535Y21457D02*
D03*
X274803Y28543D02*
D03*
X272047Y46654D02*
D03*
X277559D02*
D03*
X283071Y56102D02*
D03*
X249213Y179528D02*
D03*
X277559Y39567D02*
D03*
X283071Y36417D02*
D03*
X280315Y37992D02*
D03*
X277559Y36417D02*
D03*
X261024Y18307D02*
D03*
Y21457D02*
D03*
X263779Y19882D02*
D03*
X266535Y18307D02*
D03*
X263779Y16732D02*
D03*
X266535Y15157D02*
D03*
X261024D02*
D03*
X258268Y16732D02*
D03*
X255512Y15157D02*
D03*
X252756Y16732D02*
D03*
X261024Y30118D02*
D03*
X258268Y31693D02*
D03*
X255512Y33268D02*
D03*
X252756Y34843D02*
D03*
X263779Y28543D02*
D03*
X269291D02*
D03*
X266535Y30118D02*
D03*
X263779Y31693D02*
D03*
X261024Y33268D02*
D03*
X258268Y34843D02*
D03*
X255512Y36417D02*
D03*
X272047Y30118D02*
D03*
X269291Y31693D02*
D03*
X266535Y33268D02*
D03*
X263779Y34843D02*
D03*
X261024Y36417D02*
D03*
X272047Y33268D02*
D03*
X269291Y34843D02*
D03*
X266535Y36417D02*
D03*
X263779Y37992D02*
D03*
X258268Y28543D02*
D03*
X252756D02*
D03*
Y31693D02*
D03*
X250000Y33268D02*
D03*
Y30118D02*
D03*
X274803Y34843D02*
D03*
Y31693D02*
D03*
X277559Y30118D02*
D03*
Y33268D02*
D03*
X280315Y28543D02*
D03*
Y31693D02*
D03*
Y34843D02*
D03*
X283071Y30118D02*
D03*
Y33268D02*
D03*
X263779Y51378D02*
D03*
X266535Y49803D02*
D03*
X261024D02*
D03*
X263779Y48228D02*
D03*
X261024Y39961D02*
D03*
X272047Y52953D02*
D03*
X274803Y51378D02*
D03*
X269291D02*
D03*
X272047Y49803D02*
D03*
X274803Y48228D02*
D03*
X269291D02*
D03*
X258268D02*
D03*
X266535Y52953D02*
D03*
X269291Y54527D02*
D03*
X272047Y56102D02*
D03*
X274803Y54527D02*
D03*
X266535Y56102D02*
D03*
X263779Y54527D02*
D03*
X261024Y52953D02*
D03*
X258268Y51378D02*
D03*
Y54527D02*
D03*
X261024Y56102D02*
D03*
X277559Y49803D02*
D03*
Y52953D02*
D03*
X280315Y51378D02*
D03*
Y48228D02*
D03*
X255512Y49803D02*
D03*
X252756Y48228D02*
D03*
X255512Y52953D02*
D03*
X252756Y51378D02*
D03*
Y54527D02*
D03*
X255512Y56102D02*
D03*
X277559D02*
D03*
X280315Y54527D02*
D03*
X283071Y49803D02*
D03*
Y52953D02*
D03*
X250000Y49803D02*
D03*
Y52953D02*
D03*
X274803Y57677D02*
D03*
X272047Y59252D02*
D03*
X269291Y57677D02*
D03*
X266535Y59252D02*
D03*
X263779Y57677D02*
D03*
X261024Y59252D02*
D03*
X258268Y57677D02*
D03*
X255512Y59252D02*
D03*
X252756Y57677D02*
D03*
X250000Y56102D02*
D03*
X277559Y59252D02*
D03*
X280315Y57677D02*
D03*
X269291Y60827D02*
D03*
X263779D02*
D03*
X258268D02*
D03*
X274803D02*
D03*
X266535Y62401D02*
D03*
X272047D02*
D03*
X261024D02*
D03*
X271260Y173228D02*
D03*
X260236D02*
D03*
X265748D02*
D03*
X257480Y174803D02*
D03*
X274016D02*
D03*
X268504D02*
D03*
X262992D02*
D03*
X322328Y124192D02*
D03*
X231233Y59346D02*
D03*
X251969Y177953D02*
D03*
X254724Y176378D02*
D03*
X282283Y179528D02*
D03*
X279527Y177953D02*
D03*
X276772Y176378D02*
D03*
X274016Y177953D02*
D03*
X271260Y176378D02*
D03*
X268504Y177953D02*
D03*
X265748Y176378D02*
D03*
X262992Y177953D02*
D03*
X260236Y176378D02*
D03*
X257480Y177953D02*
D03*
X282283Y182677D02*
D03*
Y185827D02*
D03*
Y188976D02*
D03*
X249213Y182677D02*
D03*
Y185827D02*
D03*
X251969Y181102D02*
D03*
X254724Y179528D02*
D03*
X276772D02*
D03*
X279527Y181102D02*
D03*
Y184252D02*
D03*
X276772Y182677D02*
D03*
X279527Y187402D02*
D03*
X276772Y185827D02*
D03*
X279527Y190551D02*
D03*
X276772Y188976D02*
D03*
X251969Y184252D02*
D03*
X254724Y182677D02*
D03*
Y185827D02*
D03*
X271260Y179528D02*
D03*
X274016Y181102D02*
D03*
Y184252D02*
D03*
X271260Y182677D02*
D03*
X268504Y181102D02*
D03*
X265748Y179528D02*
D03*
X257480Y181102D02*
D03*
X260236Y179528D02*
D03*
X262992Y181102D02*
D03*
X265748Y182677D02*
D03*
X274016Y187402D02*
D03*
Y190551D02*
D03*
X260236Y185827D02*
D03*
X262992Y184252D02*
D03*
X257480D02*
D03*
X260236Y182677D02*
D03*
X271260Y188976D02*
D03*
X268504Y187402D02*
D03*
X271260Y185827D02*
D03*
X265748D02*
D03*
X268504Y184252D02*
D03*
X257480Y228346D02*
D03*
X249213Y202362D02*
D03*
Y205512D02*
D03*
Y208661D02*
D03*
X251969Y203937D02*
D03*
Y207087D02*
D03*
X254724Y205512D02*
D03*
Y208661D02*
D03*
X257480Y207087D02*
D03*
X282283Y205512D02*
D03*
Y202362D02*
D03*
X279527Y203937D02*
D03*
Y207087D02*
D03*
X271260Y208661D02*
D03*
X274016Y207087D02*
D03*
X276772Y205512D02*
D03*
X274016Y197638D02*
D03*
X268504Y200787D02*
D03*
X265748Y202362D02*
D03*
X262992Y203937D02*
D03*
X260236Y205512D02*
D03*
X279527Y197638D02*
D03*
X276772Y199213D02*
D03*
X274016Y200787D02*
D03*
X271260Y202362D02*
D03*
X268504Y203937D02*
D03*
X265748Y205512D02*
D03*
X262992Y207087D02*
D03*
X268504D02*
D03*
X282283Y199213D02*
D03*
X279527Y200787D02*
D03*
X276772Y202362D02*
D03*
X274016Y203937D02*
D03*
X271260Y205512D02*
D03*
X260236Y226772D02*
D03*
X279528Y218898D02*
D03*
X279527Y222047D02*
D03*
X279527Y225197D02*
D03*
X274016Y228346D02*
D03*
X276772Y226772D02*
D03*
X276772Y223622D02*
D03*
X276772Y220472D02*
D03*
X276772Y217323D02*
D03*
X274016Y225197D02*
D03*
X274016Y222047D02*
D03*
X274016Y218898D02*
D03*
X271260Y226772D02*
D03*
X268504Y228346D02*
D03*
X262949Y228336D02*
D03*
X265748Y226772D02*
D03*
X268504Y225197D02*
D03*
X271260Y223622D02*
D03*
X271260Y220472D02*
D03*
X268504Y222047D02*
D03*
X265748Y223622D02*
D03*
X262992Y225197D02*
D03*
X262992Y222047D02*
D03*
X265748Y220472D02*
D03*
X268504Y218898D02*
D03*
X336228Y132874D02*
D03*
X51181Y102362D02*
D03*
X62992Y62992D02*
D03*
X55118Y70866D02*
D03*
Y78740D02*
D03*
Y86614D02*
D03*
X102756Y17323D02*
D03*
X118110Y15748D02*
D03*
X270866Y40157D02*
D03*
X231299Y173228D02*
D03*
X349441Y97638D02*
D03*
X374803Y100394D02*
D03*
X261396Y214209D02*
D03*
X270887Y21421D02*
D03*
X372208Y106692D02*
D03*
X379921Y118504D02*
D03*
X94488Y218504D02*
D03*
X92520Y222441D02*
D03*
Y230315D02*
D03*
X96457D02*
D03*
X98425Y226378D02*
D03*
X94488D02*
D03*
X96457Y222441D02*
D03*
X98425Y218504D02*
D03*
X55118Y196850D02*
D03*
X82677Y190945D02*
D03*
X345473Y102362D02*
D03*
X327756Y130905D02*
D03*
X82677Y87598D02*
D03*
X93504Y103347D02*
D03*
X56102Y94488D02*
D03*
X231384Y63279D02*
D03*
X231299Y177165D02*
D03*
D90*
X196850Y118110D02*
D03*
X374016Y19685D02*
D03*
Y216535D02*
D03*
D91*
X364213Y148642D02*
D03*
X377992D02*
D03*
X382716Y189941D02*
D03*
D92*
X372008D02*
D03*
D93*
X363287D02*
D03*
M02*
