G04*
G04 #@! TF.GenerationSoftware,Altium Limited,Altium Designer,22.9.1 (49)*
G04*
G04 Layer_Color=65535*
%FSLAX25Y25*%
%MOIN*%
G70*
G04*
G04 #@! TF.SameCoordinates,31D07EA8-2EF4-44A7-A807-3D2BB65C9B75*
G04*
G04*
G04 #@! TF.FilePolarity,Positive*
G04*
G01*
G75*
%ADD10C,0.00787*%
%ADD11C,0.00984*%
%ADD12C,0.00394*%
%ADD13C,0.00600*%
%ADD14C,0.00500*%
G36*
X305363Y90025D02*
X305374D01*
X305386Y90024D01*
X305412Y90020D01*
X305413D01*
X305419Y90018D01*
X305426Y90017D01*
X305434Y90015D01*
X305445Y90014D01*
X305457Y90011D01*
X305480Y90004D01*
X305481D01*
X305485Y90003D01*
X305491Y90000D01*
X305499Y89998D01*
X305517Y89991D01*
X305536Y89983D01*
X305537D01*
X305540Y89981D01*
X305549Y89976D01*
X305559Y89970D01*
X305564Y89966D01*
X305567Y89964D01*
X305568Y89962D01*
X305571Y89960D01*
X305575Y89956D01*
X305578Y89950D01*
Y89949D01*
X305579Y89946D01*
X305581Y89942D01*
X305582Y89935D01*
Y89934D01*
X305583Y89930D01*
X305585Y89923D01*
X305586Y89913D01*
Y89911D01*
X305587Y89904D01*
Y89893D01*
Y89879D01*
Y89878D01*
Y89875D01*
Y89871D01*
Y89866D01*
Y89854D01*
X305586Y89840D01*
Y89837D01*
X305585Y89832D01*
X305583Y89822D01*
X305582Y89814D01*
Y89813D01*
X305581Y89809D01*
X305578Y89805D01*
X305574Y89801D01*
X305573D01*
X305570Y89799D01*
X305566Y89798D01*
X305560Y89797D01*
X305559D01*
X305553Y89798D01*
X305545Y89801D01*
X305533Y89807D01*
X305532D01*
X305530Y89809D01*
X305526Y89811D01*
X305521Y89814D01*
X305506Y89822D01*
X305487Y89830D01*
X305485D01*
X305481Y89833D01*
X305476Y89836D01*
X305469Y89839D01*
X305460Y89843D01*
X305449Y89847D01*
X305423Y89855D01*
X305421D01*
X305416Y89856D01*
X305409Y89859D01*
X305400Y89860D01*
X305387Y89863D01*
X305375Y89864D01*
X305360Y89866D01*
X305332D01*
X305324Y89864D01*
X305305Y89862D01*
X305284Y89856D01*
X305283D01*
X305280Y89855D01*
X305276Y89854D01*
X305271Y89851D01*
X305257Y89843D01*
X305243Y89833D01*
X305241Y89830D01*
X305234Y89824D01*
X305226Y89813D01*
X305219Y89799D01*
Y89798D01*
X305218Y89795D01*
X305216Y89791D01*
X305215Y89786D01*
X305212Y89772D01*
X305211Y89756D01*
Y89754D01*
Y89750D01*
X305212Y89743D01*
X305213Y89737D01*
X305219Y89718D01*
X305223Y89707D01*
X305228Y89697D01*
X305230Y89696D01*
X305233Y89693D01*
X305237Y89689D01*
X305242Y89682D01*
X305249Y89675D01*
X305257Y89669D01*
X305277Y89654D01*
X305279Y89652D01*
X305283Y89651D01*
X305290Y89647D01*
X305298Y89641D01*
X305309Y89636D01*
X305321Y89631D01*
X305348Y89617D01*
X305349Y89616D01*
X305355Y89614D01*
X305363Y89610D01*
X305373Y89606D01*
X305385Y89601D01*
X305398Y89595D01*
X305427Y89582D01*
X305428Y89580D01*
X305434Y89579D01*
X305442Y89575D01*
X305453Y89569D01*
X305465Y89564D01*
X305479Y89556D01*
X305507Y89539D01*
X305509Y89538D01*
X305514Y89535D01*
X305521Y89530D01*
X305530Y89523D01*
X305541Y89515D01*
X305553Y89504D01*
X305576Y89481D01*
X305578Y89480D01*
X305582Y89476D01*
X305587Y89469D01*
X305594Y89459D01*
X305602Y89448D01*
X305611Y89435D01*
X305619Y89420D01*
X305627Y89403D01*
X305628Y89402D01*
X305630Y89395D01*
X305632Y89386D01*
X305636Y89373D01*
X305641Y89357D01*
X305643Y89340D01*
X305644Y89319D01*
X305646Y89297D01*
Y89296D01*
Y89293D01*
Y89289D01*
Y89284D01*
X305644Y89269D01*
X305642Y89250D01*
X305639Y89228D01*
X305634Y89205D01*
X305626Y89180D01*
X305616Y89157D01*
X305615Y89154D01*
X305611Y89148D01*
X305604Y89137D01*
X305594Y89122D01*
X305583Y89107D01*
X305568Y89089D01*
X305553Y89073D01*
X305534Y89057D01*
X305532Y89055D01*
X305525Y89050D01*
X305515Y89043D01*
X305500Y89034D01*
X305484Y89024D01*
X305464Y89013D01*
X305440Y89004D01*
X305416Y88995D01*
X305415D01*
X305413Y88994D01*
X305409D01*
X305404Y88993D01*
X305390Y88990D01*
X305373Y88986D01*
X305351Y88982D01*
X305325Y88979D01*
X305298Y88978D01*
X305269Y88976D01*
X305250D01*
X305238Y88978D01*
X305223Y88979D01*
X305207Y88981D01*
X305173Y88986D01*
X305171D01*
X305165Y88987D01*
X305156Y88989D01*
X305145Y88991D01*
X305133Y88994D01*
X305120Y88997D01*
X305092Y89005D01*
X305091D01*
X305087Y89008D01*
X305080Y89009D01*
X305072Y89013D01*
X305054Y89021D01*
X305035Y89031D01*
X305034D01*
X305031Y89034D01*
X305023Y89039D01*
X305011Y89046D01*
X305001Y89054D01*
X305000Y89057D01*
X304996Y89062D01*
X304992Y89072D01*
X304988Y89084D01*
Y89085D01*
Y89088D01*
X304986Y89092D01*
Y89097D01*
X304985Y89106D01*
Y89115D01*
X304984Y89126D01*
Y89138D01*
Y89140D01*
Y89142D01*
Y89146D01*
Y89153D01*
Y89165D01*
X304985Y89179D01*
Y89180D01*
Y89182D01*
X304986Y89188D01*
X304988Y89197D01*
X304989Y89205D01*
X304990Y89206D01*
X304992Y89210D01*
X304995Y89216D01*
X304998Y89220D01*
X305000Y89221D01*
X305003Y89223D01*
X305007Y89224D01*
X305012Y89225D01*
X305015D01*
X305020Y89224D01*
X305031Y89220D01*
X305043Y89212D01*
X305045D01*
X305047Y89209D01*
X305052Y89208D01*
X305057Y89204D01*
X305065Y89199D01*
X305073Y89194D01*
X305095Y89183D01*
X305097Y89182D01*
X305101Y89180D01*
X305107Y89178D01*
X305117Y89174D01*
X305128Y89170D01*
X305140Y89164D01*
X305154Y89160D01*
X305170Y89154D01*
X305171D01*
X305178Y89153D01*
X305186Y89151D01*
X305199Y89149D01*
X305213Y89146D01*
X305231Y89144D01*
X305250Y89142D01*
X305284D01*
X305294Y89144D01*
X305305D01*
X305315Y89146D01*
X305339Y89151D01*
X305340D01*
X305344Y89152D01*
X305349Y89154D01*
X305356Y89157D01*
X305373Y89165D01*
X305389Y89176D01*
X305390Y89178D01*
X305393Y89179D01*
X305401Y89187D01*
X305411Y89201D01*
X305420Y89217D01*
Y89218D01*
X305421Y89221D01*
X305424Y89227D01*
X305427Y89233D01*
X305428Y89242D01*
X305431Y89251D01*
X305432Y89271D01*
Y89273D01*
Y89277D01*
X305431Y89284D01*
X305430Y89292D01*
X305424Y89311D01*
X305420Y89320D01*
X305413Y89330D01*
X305412Y89331D01*
X305409Y89334D01*
X305405Y89338D01*
X305400Y89345D01*
X305393Y89352D01*
X305385Y89359D01*
X305363Y89373D01*
X305362Y89375D01*
X305358Y89378D01*
X305352Y89380D01*
X305344Y89386D01*
X305333Y89391D01*
X305322Y89398D01*
X305295Y89410D01*
X305294Y89412D01*
X305288Y89413D01*
X305281Y89417D01*
X305271Y89421D01*
X305260Y89426D01*
X305246Y89432D01*
X305216Y89446D01*
X305215Y89447D01*
X305209Y89448D01*
X305201Y89452D01*
X305192Y89458D01*
X305179Y89465D01*
X305166Y89471D01*
X305137Y89488D01*
X305136Y89489D01*
X305131Y89492D01*
X305124Y89497D01*
X305114Y89504D01*
X305103Y89512D01*
X305092Y89522D01*
X305068Y89545D01*
X305067Y89546D01*
X305063Y89550D01*
X305057Y89559D01*
X305050Y89568D01*
X305043Y89579D01*
X305035Y89592D01*
X305027Y89607D01*
X305019Y89624D01*
X305018Y89626D01*
X305016Y89632D01*
X305013Y89641D01*
X305011Y89655D01*
X305007Y89671D01*
X305004Y89690D01*
X305003Y89711D01*
X305001Y89734D01*
Y89735D01*
Y89737D01*
Y89741D01*
Y89746D01*
X305003Y89760D01*
X305004Y89777D01*
X305008Y89797D01*
X305012Y89818D01*
X305019Y89840D01*
X305027Y89860D01*
X305029Y89863D01*
X305032Y89870D01*
X305038Y89879D01*
X305046Y89893D01*
X305057Y89908D01*
X305069Y89923D01*
X305084Y89938D01*
X305101Y89953D01*
X305103Y89954D01*
X305109Y89958D01*
X305118Y89965D01*
X305132Y89973D01*
X305147Y89983D01*
X305166Y89991D01*
X305186Y90000D01*
X305208Y90007D01*
X305209D01*
X305211Y90009D01*
X305219Y90010D01*
X305231Y90013D01*
X305249Y90017D01*
X305268Y90021D01*
X305291Y90024D01*
X305315Y90025D01*
X305341Y90026D01*
X305355D01*
X305363Y90025D01*
D02*
G37*
G36*
X304863Y89467D02*
X304868Y89465D01*
X304869Y89463D01*
X304872Y89462D01*
X304876Y89458D01*
X304879Y89451D01*
X304880Y89450D01*
X304882Y89444D01*
X304884Y89436D01*
X304886Y89425D01*
Y89423D01*
X304887Y89416D01*
X304888Y89403D01*
Y89389D01*
Y89387D01*
Y89382D01*
Y89373D01*
X304887Y89363D01*
X304884Y89342D01*
X304882Y89333D01*
X304879Y89324D01*
Y89323D01*
X304877Y89322D01*
X304872Y89316D01*
X304864Y89310D01*
X304858Y89308D01*
X304852Y89307D01*
X304524D01*
X304516Y89310D01*
X304506Y89315D01*
X304502Y89319D01*
X304498Y89324D01*
Y89326D01*
X304497Y89329D01*
X304495Y89333D01*
X304494Y89340D01*
X304493Y89349D01*
X304491Y89360D01*
X304490Y89373D01*
Y89389D01*
Y89390D01*
Y89395D01*
Y89403D01*
X304491Y89413D01*
X304494Y89433D01*
X304495Y89442D01*
X304498Y89450D01*
Y89451D01*
X304499Y89452D01*
X304505Y89459D01*
X304513Y89466D01*
X304520Y89467D01*
X304527Y89469D01*
X304857D01*
X304863Y89467D01*
D02*
G37*
G36*
X307060Y90011D02*
X307068D01*
X307077Y90010D01*
X307079D01*
X307087Y90009D01*
X307096Y90004D01*
X307104Y89999D01*
X307105Y89998D01*
X307108Y89992D01*
X307112Y89984D01*
Y89973D01*
Y89972D01*
Y89970D01*
X307111Y89966D01*
Y89961D01*
X307108Y89947D01*
X307104Y89928D01*
X306871Y89047D01*
Y89046D01*
X306870Y89044D01*
X306867Y89036D01*
X306863Y89025D01*
X306858Y89016D01*
X306856Y89015D01*
X306852Y89010D01*
X306844Y89005D01*
X306833Y88999D01*
X306832D01*
X306831Y88998D01*
X306826D01*
X306822Y88997D01*
X306809Y88994D01*
X306791Y88993D01*
X306787D01*
X306780Y88991D01*
X306764D01*
X306753Y88990D01*
X306700D01*
X306677Y88991D01*
X306665D01*
X306654Y88993D01*
X306650D01*
X306644Y88994D01*
X306639D01*
X306624Y88997D01*
X306610Y88999D01*
X306607Y89001D01*
X306602Y89004D01*
X306594Y89009D01*
X306587Y89016D01*
X306586Y89018D01*
X306583Y89024D01*
X306580Y89035D01*
X306577Y89047D01*
X306414Y89689D01*
X306413D01*
X306259Y89047D01*
Y89046D01*
X306258Y89044D01*
X306257Y89036D01*
X306253Y89027D01*
X306248Y89017D01*
X306247Y89016D01*
X306243Y89010D01*
X306236Y89005D01*
X306225Y88999D01*
X306223Y88998D01*
X306214Y88997D01*
X306202Y88994D01*
X306185Y88993D01*
X306180D01*
X306174Y88991D01*
X306156D01*
X306145Y88990D01*
X306089D01*
X306066Y88991D01*
X306054D01*
X306043Y88993D01*
X306039D01*
X306033Y88994D01*
X306028D01*
X306013Y88997D01*
X305999Y88999D01*
X305997Y89001D01*
X305991Y89004D01*
X305984Y89009D01*
X305978Y89016D01*
X305976Y89018D01*
X305974Y89024D01*
X305970Y89035D01*
X305965Y89047D01*
X305736Y89931D01*
Y89933D01*
X305734Y89935D01*
X305733Y89941D01*
X305732Y89947D01*
X305729Y89961D01*
X305728Y89975D01*
Y89976D01*
Y89977D01*
X305729Y89984D01*
X305732Y89992D01*
X305737Y89999D01*
X305738Y90000D01*
X305745Y90004D01*
X305755Y90007D01*
X305768Y90010D01*
X305772D01*
X305778Y90011D01*
X305794D01*
X305805Y90013D01*
X305872D01*
X305881Y90011D01*
X305893D01*
X305902Y90010D01*
X305912Y90009D01*
X305922Y90004D01*
X305923Y90003D01*
X305929Y90002D01*
X305933Y89998D01*
X305937Y89992D01*
X305938Y89991D01*
X305940Y89987D01*
X305941Y89979D01*
X305944Y89969D01*
X306121Y89194D01*
X306122D01*
X306307Y89964D01*
Y89965D01*
Y89966D01*
X306308Y89972D01*
X306311Y89980D01*
X306314Y89988D01*
X306315Y89990D01*
X306318Y89994D01*
X306323Y89999D01*
X306331Y90003D01*
X306334Y90004D01*
X306340Y90006D01*
X306350Y90009D01*
X306364Y90010D01*
X306368D01*
X306372Y90011D01*
X306387D01*
X306398Y90013D01*
X306443D01*
X306462Y90011D01*
X306473D01*
X306481Y90010D01*
X306489D01*
X306494Y90009D01*
X306505Y90007D01*
X306516Y90003D01*
X306519Y90002D01*
X306523Y90000D01*
X306528Y89996D01*
X306534Y89990D01*
X306535Y89988D01*
X306537Y89983D01*
X306539Y89975D01*
X306542Y89964D01*
X306734Y89194D01*
X306735D01*
X306913Y89968D01*
Y89970D01*
X306915Y89975D01*
X306918Y89981D01*
X306919Y89988D01*
X306920Y89990D01*
X306923Y89994D01*
X306927Y89999D01*
X306934Y90003D01*
X306937Y90004D01*
X306942Y90006D01*
X306953Y90009D01*
X306966Y90010D01*
X306971D01*
X306975Y90011D01*
X306990D01*
X306999Y90013D01*
X307043D01*
X307060Y90011D01*
D02*
G37*
G36*
X304374D02*
X304382D01*
X304391Y90010D01*
X304393D01*
X304401Y90007D01*
X304411Y90003D01*
X304418Y89998D01*
X304419Y89996D01*
X304422Y89992D01*
X304423Y89984D01*
Y89973D01*
Y89972D01*
Y89970D01*
X304422Y89966D01*
X304421Y89961D01*
X304416Y89947D01*
X304411Y89928D01*
X304109Y89029D01*
X304108Y89028D01*
X304106Y89023D01*
X304102Y89016D01*
X304098Y89009D01*
X304097Y89008D01*
X304094Y89005D01*
X304087Y89001D01*
X304078Y88997D01*
X304075D01*
X304068Y88994D01*
X304056Y88993D01*
X304040Y88991D01*
X304022D01*
X304014Y88990D01*
X303939D01*
X303921Y88991D01*
X303896D01*
X303883Y88993D01*
X303881D01*
X303875Y88994D01*
X303867Y88995D01*
X303859Y88997D01*
X303857D01*
X303853Y88998D01*
X303842Y89004D01*
X303841Y89005D01*
X303838Y89008D01*
X303832Y89016D01*
Y89017D01*
X303830Y89020D01*
X303829Y89025D01*
X303826Y89032D01*
X303524Y89931D01*
Y89933D01*
X303523Y89935D01*
X303522Y89941D01*
X303519Y89947D01*
X303515Y89961D01*
X303512Y89975D01*
Y89976D01*
Y89977D01*
Y89984D01*
X303515Y89994D01*
X303520Y90000D01*
X303523Y90002D01*
X303528Y90004D01*
X303539Y90009D01*
X303554Y90010D01*
X303558D01*
X303564Y90011D01*
X303580D01*
X303591Y90013D01*
X303640D01*
X303659Y90011D01*
X303668D01*
X303677Y90010D01*
X303681D01*
X303689Y90009D01*
X303698Y90007D01*
X303708Y90004D01*
X303709Y90003D01*
X303713Y90002D01*
X303719Y89998D01*
X303723Y89992D01*
X303724Y89991D01*
X303726Y89987D01*
X303728Y89981D01*
X303731Y89973D01*
X303977Y89193D01*
X303978D01*
X304221Y89969D01*
Y89972D01*
X304222Y89977D01*
X304225Y89984D01*
X304227Y89991D01*
X304229Y89992D01*
X304232Y89995D01*
X304237Y89999D01*
X304244Y90003D01*
X304246Y90004D01*
X304252Y90006D01*
X304263Y90009D01*
X304276Y90010D01*
X304280D01*
X304286Y90011D01*
X304301D01*
X304310Y90013D01*
X304355D01*
X304374Y90011D01*
D02*
G37*
G36*
X303335Y90006D02*
X303339Y90003D01*
X303341Y90002D01*
X303343Y90000D01*
X303347Y89995D01*
X303350Y89988D01*
X303352Y89987D01*
X303353Y89981D01*
X303356Y89973D01*
X303357Y89961D01*
Y89960D01*
Y89958D01*
X303358Y89950D01*
X303360Y89937D01*
Y89920D01*
Y89919D01*
Y89912D01*
Y89904D01*
X303358Y89894D01*
X303356Y89873D01*
X303353Y89862D01*
X303350Y89852D01*
Y89851D01*
X303349Y89850D01*
X303345Y89843D01*
X303337Y89834D01*
X303332Y89833D01*
X303327Y89832D01*
X302967D01*
Y89616D01*
X302971D01*
X302976Y89617D01*
X302984D01*
X303001Y89618D01*
X303021Y89620D01*
X303031D01*
X303039Y89621D01*
X303091D01*
X303107Y89620D01*
X303126Y89618D01*
X303149Y89616D01*
X303173Y89613D01*
X303199Y89607D01*
X303224Y89601D01*
X303225D01*
X303226Y89599D01*
X303235Y89596D01*
X303247Y89592D01*
X303262Y89587D01*
X303278Y89579D01*
X303296Y89568D01*
X303313Y89557D01*
X303331Y89543D01*
X303332Y89542D01*
X303338Y89537D01*
X303346Y89529D01*
X303356Y89518D01*
X303367Y89505D01*
X303377Y89489D01*
X303388Y89471D01*
X303398Y89451D01*
X303399Y89448D01*
X303402Y89442D01*
X303405Y89431D01*
X303410Y89414D01*
X303414Y89397D01*
X303417Y89375D01*
X303420Y89350D01*
X303421Y89323D01*
Y89322D01*
Y89319D01*
Y89315D01*
Y89310D01*
X303420Y89295D01*
X303417Y89274D01*
X303414Y89251D01*
X303409Y89227D01*
X303401Y89201D01*
X303391Y89176D01*
Y89175D01*
X303390Y89174D01*
X303386Y89165D01*
X303379Y89153D01*
X303371Y89138D01*
X303358Y89121D01*
X303345Y89103D01*
X303328Y89084D01*
X303311Y89066D01*
X303308Y89065D01*
X303301Y89059D01*
X303290Y89051D01*
X303275Y89042D01*
X303258Y89031D01*
X303236Y89020D01*
X303211Y89009D01*
X303186Y88999D01*
X303184D01*
X303183Y88998D01*
X303179Y88997D01*
X303173Y88995D01*
X303165Y88994D01*
X303157Y88993D01*
X303138Y88989D01*
X303114Y88983D01*
X303086Y88981D01*
X303055Y88978D01*
X303023Y88976D01*
X303006D01*
X302994Y88978D01*
X302980D01*
X302965Y88979D01*
X302933Y88983D01*
X302931D01*
X302926Y88985D01*
X302918Y88986D01*
X302907Y88987D01*
X302896Y88989D01*
X302882Y88991D01*
X302857Y88997D01*
X302855D01*
X302851Y88998D01*
X302846Y89001D01*
X302837Y89002D01*
X302820Y89009D01*
X302802Y89016D01*
X302801D01*
X302798Y89017D01*
X302790Y89021D01*
X302780Y89027D01*
X302776Y89028D01*
X302774Y89031D01*
X302772Y89032D01*
X302769Y89035D01*
X302767Y89039D01*
X302764Y89043D01*
Y89044D01*
X302763Y89047D01*
X302761Y89052D01*
X302759Y89059D01*
Y89061D01*
X302757Y89066D01*
Y89074D01*
X302756Y89085D01*
Y89087D01*
Y89088D01*
Y89095D01*
Y89107D01*
Y89121D01*
Y89122D01*
Y89125D01*
Y89129D01*
Y89133D01*
Y89145D01*
X302757Y89157D01*
Y89159D01*
Y89160D01*
X302759Y89165D01*
X302760Y89174D01*
X302761Y89182D01*
X302763Y89183D01*
X302764Y89187D01*
X302767Y89191D01*
X302769Y89195D01*
X302771Y89197D01*
X302774Y89198D01*
X302778Y89199D01*
X302783D01*
X302787Y89198D01*
X302794Y89195D01*
X302805Y89190D01*
X302806D01*
X302808Y89188D01*
X302812Y89186D01*
X302816Y89184D01*
X302829Y89178D01*
X302847Y89170D01*
X302848D01*
X302853Y89168D01*
X302858Y89165D01*
X302865Y89163D01*
X302874Y89160D01*
X302885Y89156D01*
X302911Y89149D01*
X302912D01*
X302918Y89148D01*
X302926Y89146D01*
X302937Y89145D01*
X302950Y89144D01*
X302965Y89142D01*
X302983Y89141D01*
X303018D01*
X303029Y89142D01*
X303042D01*
X303055Y89145D01*
X303084Y89149D01*
X303085D01*
X303091Y89151D01*
X303097Y89153D01*
X303105Y89156D01*
X303127Y89165D01*
X303148Y89179D01*
X303149Y89180D01*
X303152Y89183D01*
X303157Y89187D01*
X303163Y89194D01*
X303168Y89202D01*
X303175Y89210D01*
X303187Y89232D01*
X303188Y89233D01*
X303190Y89237D01*
X303192Y89244D01*
X303195Y89254D01*
X303198Y89265D01*
X303199Y89277D01*
X303202Y89290D01*
Y89307D01*
Y89308D01*
Y89314D01*
Y89320D01*
X303201Y89330D01*
X303197Y89352D01*
X303190Y89373D01*
Y89375D01*
X303187Y89379D01*
X303184Y89384D01*
X303180Y89391D01*
X303168Y89407D01*
X303152Y89424D01*
X303150Y89425D01*
X303148Y89428D01*
X303142Y89431D01*
X303134Y89436D01*
X303124Y89440D01*
X303114Y89446D01*
X303101Y89451D01*
X303086Y89455D01*
X303085D01*
X303080Y89456D01*
X303071Y89459D01*
X303059Y89460D01*
X303046Y89463D01*
X303029Y89465D01*
X303010Y89466D01*
X302963D01*
X302950Y89465D01*
X302935Y89463D01*
X302907Y89460D01*
X302900D01*
X302893Y89459D01*
X302885D01*
X302874Y89458D01*
X302862D01*
X302837Y89456D01*
X302833D01*
X302825Y89458D01*
X302814Y89460D01*
X302805Y89467D01*
X302803Y89470D01*
X302802Y89473D01*
X302801Y89477D01*
X302798Y89482D01*
X302797Y89489D01*
X302795Y89499D01*
Y89509D01*
Y89949D01*
Y89950D01*
Y89954D01*
Y89960D01*
X302797Y89966D01*
X302799Y89981D01*
X302802Y89988D01*
X302806Y89994D01*
Y89995D01*
X302809Y89996D01*
X302816Y90002D01*
X302828Y90006D01*
X302836Y90009D01*
X303331D01*
X303335Y90006D01*
D02*
G37*
G36*
X308082Y99067D02*
X308097Y99065D01*
X308101D01*
X308109Y99064D01*
X308118Y99061D01*
X308128Y99058D01*
X308131Y99057D01*
X308135Y99056D01*
X308140Y99051D01*
X308146Y99047D01*
X308147Y99046D01*
X308148Y99043D01*
X308150Y99039D01*
X308151Y99034D01*
Y98078D01*
Y98076D01*
Y98072D01*
X308148Y98068D01*
X308146Y98063D01*
X308144Y98061D01*
X308141Y98060D01*
X308136Y98056D01*
X308128Y98053D01*
X308126D01*
X308120Y98050D01*
X308110Y98049D01*
X308097Y98048D01*
X308094D01*
X308088Y98046D01*
X308076D01*
X308068Y98045D01*
X308030D01*
X308012Y98046D01*
X307996Y98048D01*
X307993D01*
X307985Y98049D01*
X307974Y98050D01*
X307965Y98053D01*
X307963Y98055D01*
X307959Y98056D01*
X307954Y98059D01*
X307948Y98063D01*
Y98064D01*
X307947Y98067D01*
X307946Y98072D01*
X307944Y98078D01*
Y98487D01*
X307566D01*
Y98078D01*
Y98076D01*
Y98072D01*
X307563Y98068D01*
X307561Y98063D01*
X307559Y98061D01*
X307557Y98060D01*
X307553Y98056D01*
X307544Y98053D01*
X307542D01*
X307536Y98050D01*
X307525Y98049D01*
X307512Y98048D01*
X307509D01*
X307504Y98046D01*
X307491D01*
X307483Y98045D01*
X307445D01*
X307429Y98046D01*
X307413Y98048D01*
X307410D01*
X307400Y98049D01*
X307391Y98050D01*
X307380Y98053D01*
X307379Y98055D01*
X307375Y98056D01*
X307369Y98059D01*
X307364Y98063D01*
Y98064D01*
X307362Y98067D01*
X307361Y98072D01*
X307360Y98078D01*
Y99034D01*
Y99035D01*
Y99039D01*
X307361Y99043D01*
X307364Y99047D01*
X307365Y99049D01*
X307368Y99051D01*
X307373Y99056D01*
X307380Y99058D01*
X307383Y99060D01*
X307388Y99061D01*
X307399Y99062D01*
X307413Y99065D01*
X307417D01*
X307421Y99067D01*
X307434D01*
X307442Y99068D01*
X307481D01*
X307497Y99067D01*
X307512Y99065D01*
X307516D01*
X307524Y99064D01*
X307534Y99061D01*
X307544Y99058D01*
X307546Y99057D01*
X307551Y99056D01*
X307557Y99051D01*
X307561Y99047D01*
X307562Y99046D01*
X307563Y99043D01*
X307565Y99039D01*
X307566Y99034D01*
Y98663D01*
X307944D01*
Y99034D01*
Y99035D01*
Y99039D01*
X307946Y99043D01*
X307948Y99047D01*
X307950Y99049D01*
X307952Y99051D01*
X307958Y99056D01*
X307965Y99058D01*
X307967Y99060D01*
X307973Y99061D01*
X307984Y99062D01*
X307996Y99065D01*
X308000D01*
X308004Y99067D01*
X308018D01*
X308026Y99068D01*
X308065D01*
X308082Y99067D01*
D02*
G37*
G36*
X304863Y98523D02*
X304868Y98520D01*
X304869Y98518D01*
X304872Y98517D01*
X304876Y98513D01*
X304879Y98506D01*
X304880Y98505D01*
X304882Y98499D01*
X304884Y98491D01*
X304886Y98480D01*
Y98478D01*
X304887Y98471D01*
X304888Y98458D01*
Y98444D01*
Y98442D01*
Y98437D01*
Y98429D01*
X304887Y98418D01*
X304884Y98397D01*
X304882Y98388D01*
X304879Y98380D01*
Y98378D01*
X304877Y98377D01*
X304872Y98371D01*
X304864Y98365D01*
X304858Y98363D01*
X304852Y98362D01*
X304524D01*
X304516Y98365D01*
X304506Y98370D01*
X304502Y98374D01*
X304498Y98380D01*
Y98381D01*
X304497Y98384D01*
X304495Y98388D01*
X304494Y98395D01*
X304493Y98404D01*
X304491Y98415D01*
X304490Y98429D01*
Y98444D01*
Y98445D01*
Y98450D01*
Y98458D01*
X304491Y98468D01*
X304494Y98488D01*
X304495Y98497D01*
X304498Y98505D01*
Y98506D01*
X304499Y98507D01*
X304505Y98514D01*
X304513Y98521D01*
X304520Y98523D01*
X304527Y98524D01*
X304857D01*
X304863Y98523D01*
D02*
G37*
G36*
X304374Y99067D02*
X304382D01*
X304391Y99065D01*
X304393D01*
X304401Y99062D01*
X304411Y99058D01*
X304418Y99053D01*
X304419Y99051D01*
X304422Y99047D01*
X304423Y99039D01*
Y99028D01*
Y99027D01*
Y99026D01*
X304422Y99022D01*
X304421Y99016D01*
X304416Y99002D01*
X304411Y98984D01*
X304109Y98084D01*
X304108Y98083D01*
X304106Y98078D01*
X304102Y98071D01*
X304098Y98064D01*
X304097Y98063D01*
X304094Y98060D01*
X304087Y98056D01*
X304078Y98052D01*
X304075D01*
X304068Y98049D01*
X304056Y98048D01*
X304040Y98046D01*
X304022D01*
X304014Y98045D01*
X303939D01*
X303921Y98046D01*
X303896D01*
X303883Y98048D01*
X303881D01*
X303875Y98049D01*
X303867Y98050D01*
X303859Y98052D01*
X303857D01*
X303853Y98053D01*
X303842Y98059D01*
X303841Y98060D01*
X303838Y98063D01*
X303832Y98071D01*
Y98072D01*
X303830Y98075D01*
X303829Y98080D01*
X303826Y98087D01*
X303524Y98986D01*
Y98988D01*
X303523Y98990D01*
X303522Y98996D01*
X303519Y99002D01*
X303515Y99016D01*
X303512Y99030D01*
Y99031D01*
Y99032D01*
Y99039D01*
X303515Y99049D01*
X303520Y99056D01*
X303523Y99057D01*
X303528Y99060D01*
X303539Y99064D01*
X303554Y99065D01*
X303558D01*
X303564Y99067D01*
X303580D01*
X303591Y99068D01*
X303640D01*
X303659Y99067D01*
X303668D01*
X303677Y99065D01*
X303681D01*
X303689Y99064D01*
X303698Y99062D01*
X303708Y99060D01*
X303709Y99058D01*
X303713Y99057D01*
X303719Y99053D01*
X303723Y99047D01*
X303724Y99046D01*
X303726Y99042D01*
X303728Y99037D01*
X303731Y99028D01*
X303977Y98248D01*
X303978D01*
X304221Y99024D01*
Y99027D01*
X304222Y99032D01*
X304225Y99039D01*
X304227Y99046D01*
X304229Y99047D01*
X304232Y99050D01*
X304237Y99054D01*
X304244Y99058D01*
X304246Y99060D01*
X304252Y99061D01*
X304263Y99064D01*
X304276Y99065D01*
X304280D01*
X304286Y99067D01*
X304301D01*
X304310Y99068D01*
X304355D01*
X304374Y99067D01*
D02*
G37*
G36*
X303335Y99061D02*
X303339Y99058D01*
X303341Y99057D01*
X303343Y99056D01*
X303347Y99050D01*
X303350Y99043D01*
X303352Y99042D01*
X303353Y99037D01*
X303356Y99028D01*
X303357Y99016D01*
Y99015D01*
Y99013D01*
X303358Y99005D01*
X303360Y98992D01*
Y98975D01*
Y98974D01*
Y98967D01*
Y98959D01*
X303358Y98949D01*
X303356Y98928D01*
X303353Y98917D01*
X303350Y98907D01*
Y98906D01*
X303349Y98905D01*
X303345Y98898D01*
X303337Y98890D01*
X303332Y98888D01*
X303327Y98887D01*
X302967D01*
Y98671D01*
X302971D01*
X302976Y98672D01*
X302984D01*
X303001Y98673D01*
X303021Y98675D01*
X303031D01*
X303039Y98676D01*
X303091D01*
X303107Y98675D01*
X303126Y98673D01*
X303149Y98671D01*
X303173Y98668D01*
X303199Y98663D01*
X303224Y98656D01*
X303225D01*
X303226Y98654D01*
X303235Y98652D01*
X303247Y98648D01*
X303262Y98642D01*
X303278Y98634D01*
X303296Y98623D01*
X303313Y98612D01*
X303331Y98599D01*
X303332Y98597D01*
X303338Y98592D01*
X303346Y98584D01*
X303356Y98573D01*
X303367Y98561D01*
X303377Y98544D01*
X303388Y98527D01*
X303398Y98506D01*
X303399Y98503D01*
X303402Y98497D01*
X303405Y98486D01*
X303410Y98469D01*
X303414Y98452D01*
X303417Y98430D01*
X303420Y98405D01*
X303421Y98378D01*
Y98377D01*
Y98374D01*
Y98370D01*
Y98365D01*
X303420Y98350D01*
X303417Y98329D01*
X303414Y98306D01*
X303409Y98282D01*
X303401Y98256D01*
X303391Y98231D01*
Y98230D01*
X303390Y98229D01*
X303386Y98220D01*
X303379Y98208D01*
X303371Y98193D01*
X303358Y98176D01*
X303345Y98158D01*
X303328Y98139D01*
X303311Y98121D01*
X303308Y98120D01*
X303301Y98115D01*
X303290Y98106D01*
X303275Y98097D01*
X303258Y98086D01*
X303236Y98075D01*
X303211Y98064D01*
X303186Y98055D01*
X303184D01*
X303183Y98053D01*
X303179Y98052D01*
X303173Y98050D01*
X303165Y98049D01*
X303157Y98048D01*
X303138Y98044D01*
X303114Y98038D01*
X303086Y98036D01*
X303055Y98033D01*
X303023Y98032D01*
X303006D01*
X302994Y98033D01*
X302980D01*
X302965Y98034D01*
X302933Y98038D01*
X302931D01*
X302926Y98040D01*
X302918Y98041D01*
X302907Y98042D01*
X302896Y98044D01*
X302882Y98046D01*
X302857Y98052D01*
X302855D01*
X302851Y98053D01*
X302846Y98056D01*
X302837Y98057D01*
X302820Y98064D01*
X302802Y98071D01*
X302801D01*
X302798Y98072D01*
X302790Y98076D01*
X302780Y98082D01*
X302776Y98083D01*
X302774Y98086D01*
X302772Y98087D01*
X302769Y98090D01*
X302767Y98094D01*
X302764Y98098D01*
Y98099D01*
X302763Y98102D01*
X302761Y98108D01*
X302759Y98115D01*
Y98116D01*
X302757Y98121D01*
Y98129D01*
X302756Y98140D01*
Y98142D01*
Y98143D01*
Y98150D01*
Y98162D01*
Y98176D01*
Y98177D01*
Y98180D01*
Y98184D01*
Y98188D01*
Y98200D01*
X302757Y98212D01*
Y98214D01*
Y98215D01*
X302759Y98220D01*
X302760Y98229D01*
X302761Y98237D01*
X302763Y98238D01*
X302764Y98242D01*
X302767Y98246D01*
X302769Y98251D01*
X302771Y98252D01*
X302774Y98253D01*
X302778Y98255D01*
X302783D01*
X302787Y98253D01*
X302794Y98251D01*
X302805Y98245D01*
X302806D01*
X302808Y98244D01*
X302812Y98241D01*
X302816Y98240D01*
X302829Y98233D01*
X302847Y98225D01*
X302848D01*
X302853Y98223D01*
X302858Y98220D01*
X302865Y98218D01*
X302874Y98215D01*
X302885Y98211D01*
X302911Y98204D01*
X302912D01*
X302918Y98203D01*
X302926Y98202D01*
X302937Y98200D01*
X302950Y98199D01*
X302965Y98197D01*
X302983Y98196D01*
X303018D01*
X303029Y98197D01*
X303042D01*
X303055Y98200D01*
X303084Y98204D01*
X303085D01*
X303091Y98206D01*
X303097Y98208D01*
X303105Y98211D01*
X303127Y98220D01*
X303148Y98234D01*
X303149Y98235D01*
X303152Y98238D01*
X303157Y98242D01*
X303163Y98249D01*
X303168Y98257D01*
X303175Y98265D01*
X303187Y98287D01*
X303188Y98289D01*
X303190Y98293D01*
X303192Y98299D01*
X303195Y98309D01*
X303198Y98320D01*
X303199Y98332D01*
X303202Y98346D01*
Y98362D01*
Y98363D01*
Y98369D01*
Y98376D01*
X303201Y98385D01*
X303197Y98407D01*
X303190Y98429D01*
Y98430D01*
X303187Y98434D01*
X303184Y98440D01*
X303180Y98446D01*
X303168Y98463D01*
X303152Y98479D01*
X303150Y98480D01*
X303148Y98483D01*
X303142Y98486D01*
X303134Y98491D01*
X303124Y98495D01*
X303114Y98501D01*
X303101Y98506D01*
X303086Y98510D01*
X303085D01*
X303080Y98512D01*
X303071Y98514D01*
X303059Y98516D01*
X303046Y98518D01*
X303029Y98520D01*
X303010Y98521D01*
X302963D01*
X302950Y98520D01*
X302935Y98518D01*
X302907Y98516D01*
X302900D01*
X302893Y98514D01*
X302885D01*
X302874Y98513D01*
X302862D01*
X302837Y98512D01*
X302833D01*
X302825Y98513D01*
X302814Y98516D01*
X302805Y98523D01*
X302803Y98525D01*
X302802Y98528D01*
X302801Y98532D01*
X302798Y98537D01*
X302797Y98544D01*
X302795Y98554D01*
Y98565D01*
Y99004D01*
Y99005D01*
Y99009D01*
Y99015D01*
X302797Y99022D01*
X302799Y99037D01*
X302802Y99043D01*
X302806Y99049D01*
Y99050D01*
X302809Y99051D01*
X302816Y99057D01*
X302828Y99061D01*
X302836Y99064D01*
X303331D01*
X303335Y99061D01*
D02*
G37*
G36*
X306357Y99062D02*
X306361Y99060D01*
X306363Y99058D01*
X306364Y99057D01*
X306368Y99051D01*
X306371Y99045D01*
X306372Y99043D01*
X306374Y99038D01*
X306375Y99030D01*
X306376Y99020D01*
Y99018D01*
X306378Y99009D01*
X306379Y98997D01*
Y98981D01*
Y98979D01*
Y98977D01*
Y98973D01*
Y98968D01*
X306378Y98956D01*
X306376Y98944D01*
Y98941D01*
X306375Y98936D01*
X306374Y98928D01*
X306371Y98920D01*
Y98918D01*
X306368Y98914D01*
X306365Y98910D01*
X306361Y98906D01*
X306360D01*
X306357Y98905D01*
X306354Y98903D01*
X306349Y98902D01*
X305987D01*
Y98654D01*
X306297D01*
X306301Y98652D01*
X306306Y98649D01*
X306307Y98648D01*
X306310Y98646D01*
X306314Y98642D01*
X306316Y98635D01*
X306318Y98634D01*
X306319Y98630D01*
X306321Y98622D01*
X306322Y98611D01*
Y98608D01*
X306323Y98601D01*
X306325Y98589D01*
Y98574D01*
Y98573D01*
Y98570D01*
Y98566D01*
Y98561D01*
X306323Y98548D01*
X306322Y98536D01*
Y98533D01*
X306321Y98528D01*
X306319Y98521D01*
X306316Y98513D01*
X306315Y98512D01*
X306314Y98507D01*
X306310Y98503D01*
X306306Y98499D01*
X306304D01*
X306301Y98498D01*
X306293Y98497D01*
X305987D01*
Y98211D01*
X306356D01*
X306360Y98208D01*
X306364Y98206D01*
X306365Y98204D01*
X306368Y98203D01*
X306372Y98199D01*
X306375Y98192D01*
X306376Y98191D01*
X306378Y98185D01*
X306379Y98177D01*
X306380Y98168D01*
Y98165D01*
X306382Y98157D01*
X306383Y98146D01*
Y98129D01*
Y98128D01*
Y98125D01*
Y98121D01*
Y98116D01*
X306382Y98104D01*
X306380Y98091D01*
Y98089D01*
X306379Y98083D01*
X306378Y98075D01*
X306375Y98067D01*
X306374Y98066D01*
X306372Y98061D01*
X306368Y98057D01*
X306364Y98053D01*
X306363D01*
X306360Y98052D01*
X306357Y98050D01*
X306352Y98049D01*
X305838D01*
X305832Y98050D01*
X305827D01*
X305813Y98056D01*
X305805Y98059D01*
X305798Y98064D01*
Y98066D01*
X305796Y98067D01*
X305793Y98071D01*
X305790Y98076D01*
X305787Y98083D01*
X305785Y98091D01*
X305783Y98101D01*
X305782Y98113D01*
Y98998D01*
Y99000D01*
Y99004D01*
X305783Y99011D01*
X305785Y99018D01*
X305789Y99034D01*
X305793Y99041D01*
X305798Y99047D01*
X305800Y99049D01*
X305801Y99050D01*
X305805Y99053D01*
X305810Y99056D01*
X305824Y99061D01*
X305832Y99064D01*
X306353D01*
X306357Y99062D01*
D02*
G37*
G36*
X307217Y99061D02*
X307221Y99058D01*
X307222Y99057D01*
X307225Y99056D01*
X307229Y99051D01*
X307232Y99045D01*
X307233Y99043D01*
X307234Y99038D01*
X307236Y99030D01*
X307237Y99019D01*
Y99018D01*
Y99016D01*
X307239Y99008D01*
X307240Y98994D01*
Y98978D01*
Y98977D01*
Y98974D01*
Y98970D01*
Y98965D01*
X307239Y98952D01*
X307237Y98939D01*
Y98936D01*
X307236Y98931D01*
X307234Y98921D01*
X307232Y98913D01*
X307230Y98911D01*
X307229Y98907D01*
X307225Y98903D01*
X307221Y98899D01*
X307219D01*
X307217Y98898D01*
X307214Y98896D01*
X307209Y98895D01*
X306956D01*
Y98078D01*
Y98076D01*
Y98072D01*
X306953Y98068D01*
X306950Y98063D01*
X306949Y98061D01*
X306946Y98060D01*
X306941Y98056D01*
X306932Y98053D01*
X306931D01*
X306924Y98050D01*
X306915Y98049D01*
X306901Y98048D01*
X306897D01*
X306893Y98046D01*
X306888D01*
X306873Y98045D01*
X306835D01*
X306818Y98046D01*
X306802Y98048D01*
X306799D01*
X306790Y98049D01*
X306780Y98050D01*
X306769Y98053D01*
X306768Y98055D01*
X306764Y98056D01*
X306758Y98059D01*
X306753Y98063D01*
Y98064D01*
X306752Y98067D01*
X306750Y98072D01*
X306749Y98078D01*
Y98895D01*
X306490D01*
X306485Y98896D01*
X306481Y98899D01*
X306480Y98901D01*
X306478Y98902D01*
X306474Y98907D01*
X306471Y98913D01*
Y98914D01*
X306469Y98920D01*
X306467Y98928D01*
X306466Y98939D01*
Y98940D01*
Y98941D01*
Y98949D01*
X306465Y98962D01*
Y98978D01*
Y98979D01*
Y98982D01*
Y98986D01*
Y98993D01*
Y99005D01*
X306466Y99019D01*
Y99020D01*
Y99022D01*
X306467Y99028D01*
X306469Y99037D01*
X306471Y99045D01*
X306473Y99046D01*
X306474Y99050D01*
X306477Y99054D01*
X306481Y99058D01*
X306482Y99060D01*
X306485Y99061D01*
X306489Y99062D01*
X306494Y99064D01*
X307213D01*
X307217Y99061D01*
D02*
G37*
G36*
X305590D02*
X305594Y99058D01*
X305596Y99057D01*
X305597Y99056D01*
X305601Y99051D01*
X305604Y99045D01*
X305605Y99043D01*
X305607Y99038D01*
X305609Y99030D01*
X305611Y99019D01*
Y99018D01*
Y99016D01*
X305612Y99008D01*
X305613Y98994D01*
Y98978D01*
Y98977D01*
Y98974D01*
Y98970D01*
Y98965D01*
X305612Y98952D01*
X305611Y98939D01*
Y98936D01*
X305609Y98929D01*
X305608Y98921D01*
X305604Y98913D01*
Y98911D01*
X305601Y98907D01*
X305598Y98903D01*
X305594Y98899D01*
X305593D01*
X305590Y98898D01*
X305587Y98896D01*
X305582Y98895D01*
X305252D01*
Y98623D01*
X305566D01*
X305570Y98622D01*
X305574Y98619D01*
X305575Y98618D01*
X305576Y98616D01*
X305581Y98612D01*
X305583Y98605D01*
X305585Y98604D01*
X305586Y98599D01*
X305589Y98590D01*
X305590Y98580D01*
Y98577D01*
X305592Y98569D01*
X305593Y98557D01*
Y98540D01*
Y98539D01*
Y98536D01*
Y98532D01*
Y98527D01*
X305592Y98514D01*
X305590Y98501D01*
Y98498D01*
X305589Y98492D01*
X305587Y98483D01*
X305583Y98475D01*
Y98474D01*
X305581Y98469D01*
X305578Y98465D01*
X305574Y98461D01*
X305573D01*
X305570Y98460D01*
X305567Y98458D01*
X305562Y98457D01*
X305252D01*
Y98079D01*
Y98078D01*
Y98074D01*
X305249Y98070D01*
X305246Y98064D01*
X305245Y98063D01*
X305242Y98060D01*
X305238Y98057D01*
X305230Y98053D01*
X305227D01*
X305222Y98050D01*
X305211Y98049D01*
X305197Y98048D01*
X305194D01*
X305189Y98046D01*
X305177D01*
X305169Y98045D01*
X305131D01*
X305114Y98046D01*
X305098Y98048D01*
X305095D01*
X305086Y98049D01*
X305076Y98050D01*
X305065Y98053D01*
X305064Y98055D01*
X305060Y98056D01*
X305054Y98060D01*
X305049Y98064D01*
Y98066D01*
X305047Y98068D01*
X305046Y98074D01*
X305045Y98079D01*
Y98998D01*
Y99000D01*
Y99004D01*
X305046Y99011D01*
X305047Y99018D01*
X305052Y99034D01*
X305056Y99041D01*
X305061Y99047D01*
X305063Y99049D01*
X305064Y99050D01*
X305068Y99053D01*
X305073Y99056D01*
X305087Y99061D01*
X305095Y99064D01*
X305586D01*
X305590Y99061D01*
D02*
G37*
G36*
X304863Y107578D02*
X304868Y107575D01*
X304869Y107573D01*
X304872Y107572D01*
X304876Y107568D01*
X304879Y107561D01*
X304880Y107560D01*
X304882Y107554D01*
X304884Y107546D01*
X304886Y107535D01*
Y107533D01*
X304887Y107526D01*
X304888Y107514D01*
Y107499D01*
Y107497D01*
Y107492D01*
Y107484D01*
X304887Y107473D01*
X304884Y107452D01*
X304882Y107443D01*
X304879Y107435D01*
Y107433D01*
X304877Y107432D01*
X304872Y107427D01*
X304864Y107420D01*
X304858Y107419D01*
X304852Y107417D01*
X304524D01*
X304516Y107420D01*
X304506Y107425D01*
X304502Y107429D01*
X304498Y107435D01*
Y107436D01*
X304497Y107439D01*
X304495Y107443D01*
X304494Y107450D01*
X304493Y107459D01*
X304491Y107470D01*
X304490Y107484D01*
Y107499D01*
Y107500D01*
Y107506D01*
Y107514D01*
X304491Y107523D01*
X304494Y107544D01*
X304495Y107552D01*
X304498Y107560D01*
Y107561D01*
X304499Y107563D01*
X304505Y107569D01*
X304513Y107576D01*
X304520Y107578D01*
X304527Y107579D01*
X304857D01*
X304863Y107578D01*
D02*
G37*
G36*
X304374Y108122D02*
X304382D01*
X304391Y108120D01*
X304393D01*
X304401Y108117D01*
X304411Y108113D01*
X304418Y108108D01*
X304419Y108107D01*
X304422Y108103D01*
X304423Y108094D01*
Y108083D01*
Y108082D01*
Y108081D01*
X304422Y108077D01*
X304421Y108071D01*
X304416Y108058D01*
X304411Y108039D01*
X304109Y107140D01*
X304108Y107138D01*
X304106Y107133D01*
X304102Y107126D01*
X304098Y107119D01*
X304097Y107118D01*
X304094Y107115D01*
X304087Y107111D01*
X304078Y107107D01*
X304075D01*
X304068Y107104D01*
X304056Y107103D01*
X304040Y107102D01*
X304022D01*
X304014Y107100D01*
X303939D01*
X303921Y107102D01*
X303896D01*
X303883Y107103D01*
X303881D01*
X303875Y107104D01*
X303867Y107106D01*
X303859Y107107D01*
X303857D01*
X303853Y107108D01*
X303842Y107114D01*
X303841Y107115D01*
X303838Y107118D01*
X303832Y107126D01*
Y107127D01*
X303830Y107130D01*
X303829Y107136D01*
X303826Y107142D01*
X303524Y108041D01*
Y108043D01*
X303523Y108045D01*
X303522Y108051D01*
X303519Y108058D01*
X303515Y108071D01*
X303512Y108085D01*
Y108086D01*
Y108088D01*
Y108094D01*
X303515Y108104D01*
X303520Y108111D01*
X303523Y108112D01*
X303528Y108115D01*
X303539Y108119D01*
X303554Y108120D01*
X303558D01*
X303564Y108122D01*
X303580D01*
X303591Y108123D01*
X303640D01*
X303659Y108122D01*
X303668D01*
X303677Y108120D01*
X303681D01*
X303689Y108119D01*
X303698Y108117D01*
X303708Y108115D01*
X303709Y108113D01*
X303713Y108112D01*
X303719Y108108D01*
X303723Y108103D01*
X303724Y108101D01*
X303726Y108097D01*
X303728Y108092D01*
X303731Y108083D01*
X303977Y107303D01*
X303978D01*
X304221Y108079D01*
Y108082D01*
X304222Y108088D01*
X304225Y108094D01*
X304227Y108101D01*
X304229Y108103D01*
X304232Y108105D01*
X304237Y108109D01*
X304244Y108113D01*
X304246Y108115D01*
X304252Y108116D01*
X304263Y108119D01*
X304276Y108120D01*
X304280D01*
X304286Y108122D01*
X304301D01*
X304310Y108123D01*
X304355D01*
X304374Y108122D01*
D02*
G37*
G36*
X303335Y108116D02*
X303339Y108113D01*
X303341Y108112D01*
X303343Y108111D01*
X303347Y108105D01*
X303350Y108098D01*
X303352Y108097D01*
X303353Y108092D01*
X303356Y108083D01*
X303357Y108071D01*
Y108070D01*
Y108069D01*
X303358Y108060D01*
X303360Y108047D01*
Y108030D01*
Y108029D01*
Y108022D01*
Y108014D01*
X303358Y108005D01*
X303356Y107983D01*
X303353Y107972D01*
X303350Y107962D01*
Y107961D01*
X303349Y107960D01*
X303345Y107953D01*
X303337Y107945D01*
X303332Y107943D01*
X303327Y107942D01*
X302967D01*
Y107726D01*
X302971D01*
X302976Y107727D01*
X302984D01*
X303001Y107729D01*
X303021Y107730D01*
X303031D01*
X303039Y107731D01*
X303091D01*
X303107Y107730D01*
X303126Y107729D01*
X303149Y107726D01*
X303173Y107723D01*
X303199Y107718D01*
X303224Y107711D01*
X303225D01*
X303226Y107710D01*
X303235Y107707D01*
X303247Y107703D01*
X303262Y107697D01*
X303278Y107689D01*
X303296Y107678D01*
X303313Y107667D01*
X303331Y107654D01*
X303332Y107652D01*
X303338Y107647D01*
X303346Y107639D01*
X303356Y107628D01*
X303367Y107616D01*
X303377Y107599D01*
X303388Y107582D01*
X303398Y107561D01*
X303399Y107559D01*
X303402Y107552D01*
X303405Y107541D01*
X303410Y107525D01*
X303414Y107507D01*
X303417Y107485D01*
X303420Y107461D01*
X303421Y107433D01*
Y107432D01*
Y107429D01*
Y107425D01*
Y107420D01*
X303420Y107405D01*
X303417Y107384D01*
X303414Y107361D01*
X303409Y107337D01*
X303401Y107311D01*
X303391Y107287D01*
Y107285D01*
X303390Y107284D01*
X303386Y107276D01*
X303379Y107263D01*
X303371Y107248D01*
X303358Y107231D01*
X303345Y107213D01*
X303328Y107194D01*
X303311Y107176D01*
X303308Y107175D01*
X303301Y107170D01*
X303290Y107161D01*
X303275Y107152D01*
X303258Y107141D01*
X303236Y107130D01*
X303211Y107119D01*
X303186Y107110D01*
X303184D01*
X303183Y107108D01*
X303179Y107107D01*
X303173Y107106D01*
X303165Y107104D01*
X303157Y107103D01*
X303138Y107099D01*
X303114Y107093D01*
X303086Y107091D01*
X303055Y107088D01*
X303023Y107087D01*
X303006D01*
X302994Y107088D01*
X302980D01*
X302965Y107089D01*
X302933Y107093D01*
X302931D01*
X302926Y107095D01*
X302918Y107096D01*
X302907Y107097D01*
X302896Y107099D01*
X302882Y107102D01*
X302857Y107107D01*
X302855D01*
X302851Y107108D01*
X302846Y107111D01*
X302837Y107112D01*
X302820Y107119D01*
X302802Y107126D01*
X302801D01*
X302798Y107127D01*
X302790Y107132D01*
X302780Y107137D01*
X302776Y107138D01*
X302774Y107141D01*
X302772Y107142D01*
X302769Y107145D01*
X302767Y107149D01*
X302764Y107153D01*
Y107155D01*
X302763Y107157D01*
X302761Y107163D01*
X302759Y107170D01*
Y107171D01*
X302757Y107176D01*
Y107185D01*
X302756Y107195D01*
Y107197D01*
Y107198D01*
Y107205D01*
Y107217D01*
Y107231D01*
Y107232D01*
Y107235D01*
Y107239D01*
Y107243D01*
Y107255D01*
X302757Y107267D01*
Y107269D01*
Y107270D01*
X302759Y107276D01*
X302760Y107284D01*
X302761Y107292D01*
X302763Y107293D01*
X302764Y107297D01*
X302767Y107301D01*
X302769Y107306D01*
X302771Y107307D01*
X302774Y107308D01*
X302778Y107310D01*
X302783D01*
X302787Y107308D01*
X302794Y107306D01*
X302805Y107300D01*
X302806D01*
X302808Y107299D01*
X302812Y107296D01*
X302816Y107295D01*
X302829Y107288D01*
X302847Y107280D01*
X302848D01*
X302853Y107278D01*
X302858Y107276D01*
X302865Y107273D01*
X302874Y107270D01*
X302885Y107266D01*
X302911Y107259D01*
X302912D01*
X302918Y107258D01*
X302926Y107257D01*
X302937Y107255D01*
X302950Y107254D01*
X302965Y107253D01*
X302983Y107251D01*
X303018D01*
X303029Y107253D01*
X303042D01*
X303055Y107255D01*
X303084Y107259D01*
X303085D01*
X303091Y107261D01*
X303097Y107263D01*
X303105Y107266D01*
X303127Y107276D01*
X303148Y107289D01*
X303149Y107291D01*
X303152Y107293D01*
X303157Y107297D01*
X303163Y107304D01*
X303168Y107312D01*
X303175Y107320D01*
X303187Y107342D01*
X303188Y107344D01*
X303190Y107348D01*
X303192Y107354D01*
X303195Y107364D01*
X303198Y107375D01*
X303199Y107387D01*
X303202Y107401D01*
Y107417D01*
Y107419D01*
Y107424D01*
Y107431D01*
X303201Y107440D01*
X303197Y107462D01*
X303190Y107484D01*
Y107485D01*
X303187Y107489D01*
X303184Y107495D01*
X303180Y107501D01*
X303168Y107518D01*
X303152Y107534D01*
X303150Y107535D01*
X303148Y107538D01*
X303142Y107541D01*
X303134Y107546D01*
X303124Y107550D01*
X303114Y107556D01*
X303101Y107561D01*
X303086Y107565D01*
X303085D01*
X303080Y107567D01*
X303071Y107569D01*
X303059Y107571D01*
X303046Y107573D01*
X303029Y107575D01*
X303010Y107576D01*
X302963D01*
X302950Y107575D01*
X302935Y107573D01*
X302907Y107571D01*
X302900D01*
X302893Y107569D01*
X302885D01*
X302874Y107568D01*
X302862D01*
X302837Y107567D01*
X302833D01*
X302825Y107568D01*
X302814Y107571D01*
X302805Y107578D01*
X302803Y107580D01*
X302802Y107583D01*
X302801Y107587D01*
X302798Y107592D01*
X302797Y107599D01*
X302795Y107609D01*
Y107620D01*
Y108059D01*
Y108060D01*
Y108064D01*
Y108070D01*
X302797Y108077D01*
X302799Y108092D01*
X302802Y108098D01*
X302806Y108104D01*
Y108105D01*
X302809Y108107D01*
X302816Y108112D01*
X302828Y108116D01*
X302836Y108119D01*
X303331D01*
X303335Y108116D01*
D02*
G37*
G36*
X307497Y108122D02*
X307512Y108120D01*
X307516D01*
X307524Y108119D01*
X307534Y108116D01*
X307543Y108113D01*
X307546Y108112D01*
X307550Y108111D01*
X307555Y108107D01*
X307561Y108103D01*
X307562Y108101D01*
X307563Y108098D01*
X307565Y108094D01*
X307566Y108089D01*
Y107274D01*
X307890D01*
X307894Y107272D01*
X307898Y107269D01*
X307899Y107267D01*
X307902Y107266D01*
X307906Y107262D01*
X307909Y107255D01*
X307910Y107254D01*
X307912Y107248D01*
X307913Y107240D01*
X307914Y107229D01*
Y107228D01*
Y107227D01*
X307916Y107219D01*
X307917Y107206D01*
Y107190D01*
Y107189D01*
Y107186D01*
Y107182D01*
Y107176D01*
X307916Y107164D01*
X307914Y107150D01*
Y107148D01*
X307913Y107141D01*
X307912Y107133D01*
X307909Y107123D01*
X307908Y107122D01*
X307906Y107118D01*
X307902Y107112D01*
X307898Y107108D01*
X307897D01*
X307894Y107107D01*
X307890Y107106D01*
X307885Y107104D01*
X307415D01*
X307410Y107106D01*
X307404D01*
X307391Y107111D01*
X307383Y107114D01*
X307376Y107119D01*
Y107121D01*
X307373Y107122D01*
X307370Y107126D01*
X307368Y107132D01*
X307365Y107138D01*
X307362Y107147D01*
X307361Y107156D01*
X307360Y107168D01*
Y108089D01*
Y108090D01*
Y108094D01*
X307361Y108098D01*
X307364Y108103D01*
X307365Y108104D01*
X307368Y108107D01*
X307373Y108111D01*
X307380Y108113D01*
X307383Y108115D01*
X307388Y108116D01*
X307399Y108117D01*
X307413Y108120D01*
X307417D01*
X307421Y108122D01*
X307434D01*
X307442Y108123D01*
X307481D01*
X307497Y108122D01*
D02*
G37*
G36*
X306357Y108117D02*
X306361Y108115D01*
X306363Y108113D01*
X306364Y108112D01*
X306368Y108107D01*
X306371Y108100D01*
X306372Y108098D01*
X306374Y108093D01*
X306375Y108085D01*
X306376Y108075D01*
Y108073D01*
X306378Y108064D01*
X306379Y108052D01*
Y108036D01*
Y108035D01*
Y108032D01*
Y108028D01*
Y108024D01*
X306378Y108011D01*
X306376Y107999D01*
Y107996D01*
X306375Y107991D01*
X306374Y107983D01*
X306371Y107975D01*
Y107973D01*
X306368Y107969D01*
X306365Y107965D01*
X306361Y107961D01*
X306360D01*
X306357Y107960D01*
X306354Y107958D01*
X306349Y107957D01*
X305987D01*
Y107710D01*
X306297D01*
X306301Y107707D01*
X306306Y107704D01*
X306307Y107703D01*
X306310Y107701D01*
X306314Y107697D01*
X306316Y107691D01*
X306318Y107689D01*
X306319Y107685D01*
X306321Y107677D01*
X306322Y107666D01*
Y107663D01*
X306323Y107656D01*
X306325Y107644D01*
Y107629D01*
Y107628D01*
Y107625D01*
Y107621D01*
Y107616D01*
X306323Y107603D01*
X306322Y107591D01*
Y107588D01*
X306321Y107583D01*
X306319Y107576D01*
X306316Y107568D01*
X306315Y107567D01*
X306314Y107563D01*
X306310Y107559D01*
X306306Y107554D01*
X306304D01*
X306301Y107553D01*
X306293Y107552D01*
X305987D01*
Y107266D01*
X306356D01*
X306360Y107263D01*
X306364Y107261D01*
X306365Y107259D01*
X306368Y107258D01*
X306372Y107254D01*
X306375Y107247D01*
X306376Y107246D01*
X306378Y107240D01*
X306379Y107232D01*
X306380Y107223D01*
Y107220D01*
X306382Y107212D01*
X306383Y107201D01*
Y107185D01*
Y107183D01*
Y107180D01*
Y107176D01*
Y107171D01*
X306382Y107159D01*
X306380Y107147D01*
Y107144D01*
X306379Y107138D01*
X306378Y107130D01*
X306375Y107122D01*
X306374Y107121D01*
X306372Y107116D01*
X306368Y107112D01*
X306364Y107108D01*
X306363D01*
X306360Y107107D01*
X306357Y107106D01*
X306352Y107104D01*
X305838D01*
X305832Y107106D01*
X305827D01*
X305813Y107111D01*
X305805Y107114D01*
X305798Y107119D01*
Y107121D01*
X305796Y107122D01*
X305793Y107126D01*
X305790Y107132D01*
X305787Y107138D01*
X305785Y107147D01*
X305783Y107156D01*
X305782Y107168D01*
Y108054D01*
Y108055D01*
Y108059D01*
X305783Y108066D01*
X305785Y108073D01*
X305789Y108089D01*
X305793Y108096D01*
X305798Y108103D01*
X305800Y108104D01*
X305801Y108105D01*
X305805Y108108D01*
X305810Y108111D01*
X305824Y108116D01*
X305832Y108119D01*
X306353D01*
X306357Y108117D01*
D02*
G37*
G36*
X307217Y108116D02*
X307221Y108113D01*
X307222Y108112D01*
X307225Y108111D01*
X307229Y108107D01*
X307232Y108100D01*
X307233Y108098D01*
X307234Y108093D01*
X307236Y108085D01*
X307237Y108074D01*
Y108073D01*
Y108071D01*
X307239Y108063D01*
X307240Y108049D01*
Y108033D01*
Y108032D01*
Y108029D01*
Y108025D01*
Y108020D01*
X307239Y108007D01*
X307237Y107994D01*
Y107991D01*
X307236Y107986D01*
X307234Y107976D01*
X307232Y107968D01*
X307230Y107966D01*
X307229Y107962D01*
X307225Y107958D01*
X307221Y107954D01*
X307219D01*
X307217Y107953D01*
X307214Y107952D01*
X307209Y107950D01*
X306956D01*
Y107133D01*
Y107132D01*
Y107127D01*
X306953Y107123D01*
X306950Y107118D01*
X306949Y107116D01*
X306946Y107115D01*
X306941Y107111D01*
X306932Y107108D01*
X306931D01*
X306924Y107106D01*
X306915Y107104D01*
X306901Y107103D01*
X306897D01*
X306893Y107102D01*
X306888D01*
X306873Y107100D01*
X306835D01*
X306818Y107102D01*
X306802Y107103D01*
X306799D01*
X306790Y107104D01*
X306780Y107106D01*
X306769Y107108D01*
X306768Y107110D01*
X306764Y107111D01*
X306758Y107114D01*
X306753Y107118D01*
Y107119D01*
X306752Y107122D01*
X306750Y107127D01*
X306749Y107133D01*
Y107950D01*
X306490D01*
X306485Y107952D01*
X306481Y107954D01*
X306480Y107956D01*
X306478Y107957D01*
X306474Y107962D01*
X306471Y107968D01*
Y107969D01*
X306469Y107975D01*
X306467Y107983D01*
X306466Y107994D01*
Y107995D01*
Y107996D01*
Y108005D01*
X306465Y108017D01*
Y108033D01*
Y108035D01*
Y108037D01*
Y108041D01*
Y108048D01*
Y108060D01*
X306466Y108074D01*
Y108075D01*
Y108077D01*
X306467Y108083D01*
X306469Y108092D01*
X306471Y108100D01*
X306473Y108101D01*
X306474Y108105D01*
X306477Y108109D01*
X306481Y108113D01*
X306482Y108115D01*
X306485Y108116D01*
X306489Y108117D01*
X306494Y108119D01*
X307213D01*
X307217Y108116D01*
D02*
G37*
G36*
X305590D02*
X305594Y108113D01*
X305596Y108112D01*
X305597Y108111D01*
X305601Y108107D01*
X305604Y108100D01*
X305605Y108098D01*
X305607Y108093D01*
X305609Y108085D01*
X305611Y108074D01*
Y108073D01*
Y108071D01*
X305612Y108063D01*
X305613Y108049D01*
Y108033D01*
Y108032D01*
Y108029D01*
Y108025D01*
Y108020D01*
X305612Y108007D01*
X305611Y107994D01*
Y107991D01*
X305609Y107984D01*
X305608Y107976D01*
X305604Y107968D01*
Y107966D01*
X305601Y107962D01*
X305598Y107958D01*
X305594Y107954D01*
X305593D01*
X305590Y107953D01*
X305587Y107952D01*
X305582Y107950D01*
X305252D01*
Y107678D01*
X305566D01*
X305570Y107677D01*
X305574Y107674D01*
X305575Y107673D01*
X305576Y107671D01*
X305581Y107667D01*
X305583Y107660D01*
X305585Y107659D01*
X305586Y107654D01*
X305589Y107646D01*
X305590Y107635D01*
Y107632D01*
X305592Y107624D01*
X305593Y107612D01*
Y107595D01*
Y107594D01*
Y107591D01*
Y107587D01*
Y107582D01*
X305592Y107569D01*
X305590Y107556D01*
Y107553D01*
X305589Y107548D01*
X305587Y107538D01*
X305583Y107530D01*
Y107529D01*
X305581Y107525D01*
X305578Y107520D01*
X305574Y107516D01*
X305573D01*
X305570Y107515D01*
X305567Y107514D01*
X305562Y107512D01*
X305252D01*
Y107134D01*
Y107133D01*
Y107129D01*
X305249Y107125D01*
X305246Y107119D01*
X305245Y107118D01*
X305242Y107115D01*
X305238Y107112D01*
X305230Y107108D01*
X305227D01*
X305222Y107106D01*
X305211Y107104D01*
X305197Y107103D01*
X305194D01*
X305189Y107102D01*
X305177D01*
X305169Y107100D01*
X305131D01*
X305114Y107102D01*
X305098Y107103D01*
X305095D01*
X305086Y107104D01*
X305076Y107106D01*
X305065Y107108D01*
X305064Y107110D01*
X305060Y107111D01*
X305054Y107115D01*
X305049Y107119D01*
Y107121D01*
X305047Y107123D01*
X305046Y107129D01*
X305045Y107134D01*
Y108054D01*
Y108055D01*
Y108059D01*
X305046Y108066D01*
X305047Y108073D01*
X305052Y108089D01*
X305056Y108096D01*
X305061Y108103D01*
X305063Y108104D01*
X305064Y108105D01*
X305068Y108108D01*
X305073Y108111D01*
X305087Y108116D01*
X305095Y108119D01*
X305586D01*
X305590Y108116D01*
D02*
G37*
G36*
X294563Y118626D02*
X294571D01*
X294579Y118624D01*
X294582D01*
X294590Y118622D01*
X294600Y118618D01*
X294607Y118612D01*
X294608Y118611D01*
X294611Y118607D01*
X294612Y118598D01*
Y118588D01*
Y118586D01*
Y118585D01*
X294611Y118581D01*
X294609Y118575D01*
X294605Y118562D01*
X294600Y118543D01*
X294298Y117644D01*
X294297Y117642D01*
X294295Y117637D01*
X294291Y117630D01*
X294287Y117623D01*
X294286Y117622D01*
X294283Y117619D01*
X294276Y117615D01*
X294267Y117611D01*
X294264D01*
X294257Y117608D01*
X294245Y117607D01*
X294229Y117606D01*
X294211D01*
X294203Y117604D01*
X294128D01*
X294110Y117606D01*
X294084D01*
X294072Y117607D01*
X294069D01*
X294064Y117608D01*
X294056Y117610D01*
X294048Y117611D01*
X294046D01*
X294042Y117613D01*
X294031Y117618D01*
X294030Y117619D01*
X294027Y117622D01*
X294020Y117630D01*
Y117631D01*
X294019Y117634D01*
X294018Y117640D01*
X294015Y117647D01*
X293713Y118545D01*
Y118547D01*
X293712Y118550D01*
X293710Y118555D01*
X293708Y118562D01*
X293704Y118575D01*
X293701Y118589D01*
Y118590D01*
Y118592D01*
Y118598D01*
X293704Y118608D01*
X293709Y118615D01*
X293712Y118616D01*
X293717Y118619D01*
X293728Y118623D01*
X293743Y118624D01*
X293747D01*
X293753Y118626D01*
X293769D01*
X293780Y118627D01*
X293829D01*
X293848Y118626D01*
X293857D01*
X293865Y118624D01*
X293869D01*
X293878Y118623D01*
X293887Y118622D01*
X293897Y118619D01*
X293898Y118618D01*
X293902Y118616D01*
X293907Y118612D01*
X293912Y118607D01*
X293913Y118605D01*
X293914Y118601D01*
X293917Y118596D01*
X293920Y118588D01*
X294166Y117807D01*
X294167D01*
X294409Y118584D01*
Y118586D01*
X294411Y118592D01*
X294413Y118598D01*
X294416Y118605D01*
X294418Y118607D01*
X294420Y118609D01*
X294426Y118614D01*
X294432Y118618D01*
X294435Y118619D01*
X294441Y118620D01*
X294451Y118623D01*
X294465Y118624D01*
X294469D01*
X294475Y118626D01*
X294490D01*
X294499Y118627D01*
X294544D01*
X294563Y118626D01*
D02*
G37*
G36*
X295890Y118622D02*
X295912D01*
X295938Y118619D01*
X295964Y118616D01*
X295991Y118612D01*
X296016Y118607D01*
X296017D01*
X296018Y118605D01*
X296026Y118604D01*
X296039Y118600D01*
X296054Y118594D01*
X296071Y118588D01*
X296089Y118579D01*
X296107Y118570D01*
X296124Y118559D01*
X296126Y118558D01*
X296131Y118554D01*
X296139Y118547D01*
X296150Y118537D01*
X296161Y118526D01*
X296172Y118511D01*
X296183Y118497D01*
X296192Y118479D01*
X296194Y118476D01*
X296196Y118471D01*
X296200Y118460D01*
X296205Y118446D01*
X296209Y118430D01*
X296213Y118410D01*
X296215Y118388D01*
X296217Y118365D01*
Y118363D01*
Y118358D01*
Y118351D01*
X296215Y118343D01*
X296214Y118332D01*
X296213Y118320D01*
X296207Y118295D01*
Y118294D01*
X296206Y118290D01*
X296203Y118283D01*
X296200Y118276D01*
X296191Y118256D01*
X296179Y118235D01*
X296177Y118234D01*
X296176Y118231D01*
X296172Y118226D01*
X296166Y118220D01*
X296153Y118205D01*
X296134Y118189D01*
X296132Y118188D01*
X296130Y118186D01*
X296124Y118182D01*
X296117Y118177D01*
X296108Y118173D01*
X296098Y118167D01*
X296075Y118157D01*
X296077D01*
X296082Y118155D01*
X296090Y118152D01*
X296101Y118150D01*
X296113Y118146D01*
X296127Y118142D01*
X296154Y118128D01*
X296156Y118127D01*
X296161Y118124D01*
X296168Y118120D01*
X296176Y118114D01*
X296185Y118107D01*
X296196Y118099D01*
X296218Y118078D01*
X296219Y118076D01*
X296222Y118072D01*
X296228Y118065D01*
X296233Y118057D01*
X296240Y118046D01*
X296248Y118034D01*
X296255Y118019D01*
X296260Y118004D01*
X296262Y118003D01*
X296263Y117997D01*
X296266Y117989D01*
X296269Y117977D01*
X296271Y117963D01*
X296274Y117948D01*
X296277Y117931D01*
Y117912D01*
Y117909D01*
Y117902D01*
X296275Y117893D01*
Y117879D01*
X296273Y117864D01*
X296270Y117848D01*
X296267Y117830D01*
X296262Y117814D01*
Y117812D01*
X296259Y117807D01*
X296255Y117799D01*
X296251Y117788D01*
X296245Y117776D01*
X296237Y117762D01*
X296219Y117736D01*
X296218Y117735D01*
X296215Y117731D01*
X296210Y117724D01*
X296202Y117716D01*
X296192Y117708D01*
X296183Y117697D01*
X296171Y117687D01*
X296157Y117678D01*
X296156Y117676D01*
X296150Y117674D01*
X296143Y117670D01*
X296134Y117664D01*
X296122Y117657D01*
X296108Y117652D01*
X296077Y117638D01*
X296075D01*
X296069Y117636D01*
X296060Y117633D01*
X296048Y117629D01*
X296035Y117626D01*
X296018Y117622D01*
X296002Y117618D01*
X295983Y117615D01*
X295980D01*
X295975Y117614D01*
X295964Y117613D01*
X295950D01*
X295934Y117611D01*
X295916Y117610D01*
X295895Y117608D01*
X295598D01*
X295592Y117610D01*
X295587D01*
X295573Y117615D01*
X295565Y117618D01*
X295559Y117623D01*
Y117625D01*
X295556Y117626D01*
X295553Y117630D01*
X295550Y117636D01*
X295548Y117642D01*
X295545Y117651D01*
X295544Y117660D01*
X295542Y117672D01*
Y118558D01*
Y118559D01*
Y118563D01*
X295544Y118570D01*
X295545Y118577D01*
X295549Y118593D01*
X295553Y118600D01*
X295559Y118607D01*
X295560Y118608D01*
X295561Y118609D01*
X295565Y118612D01*
X295571Y118615D01*
X295584Y118620D01*
X295592Y118623D01*
X295881D01*
X295890Y118622D01*
D02*
G37*
G36*
X298065Y118620D02*
X298069Y118618D01*
X298071Y118616D01*
X298073Y118615D01*
X298077Y118611D01*
X298080Y118604D01*
X298081Y118603D01*
X298083Y118597D01*
X298084Y118589D01*
X298085Y118578D01*
Y118577D01*
Y118575D01*
X298087Y118567D01*
X298088Y118554D01*
Y118537D01*
Y118536D01*
Y118533D01*
Y118529D01*
Y118524D01*
X298087Y118511D01*
X298085Y118498D01*
Y118495D01*
X298084Y118490D01*
X298083Y118480D01*
X298080Y118472D01*
X298079Y118471D01*
X298077Y118467D01*
X298073Y118463D01*
X298069Y118458D01*
X298068D01*
X298065Y118457D01*
X298062Y118456D01*
X298057Y118454D01*
X297804D01*
Y117637D01*
Y117636D01*
Y117631D01*
X297801Y117628D01*
X297798Y117622D01*
X297797Y117621D01*
X297794Y117619D01*
X297789Y117615D01*
X297781Y117613D01*
X297779D01*
X297773Y117610D01*
X297763Y117608D01*
X297749Y117607D01*
X297745D01*
X297741Y117606D01*
X297736D01*
X297721Y117604D01*
X297683D01*
X297667Y117606D01*
X297650Y117607D01*
X297648D01*
X297638Y117608D01*
X297628Y117610D01*
X297618Y117613D01*
X297616Y117614D01*
X297612Y117615D01*
X297607Y117618D01*
X297601Y117622D01*
Y117623D01*
X297600Y117626D01*
X297599Y117631D01*
X297597Y117637D01*
Y118454D01*
X297339D01*
X297333Y118456D01*
X297329Y118458D01*
X297328Y118460D01*
X297326Y118461D01*
X297323Y118467D01*
X297320Y118472D01*
Y118473D01*
X297317Y118479D01*
X297316Y118487D01*
X297314Y118498D01*
Y118499D01*
Y118501D01*
Y118509D01*
X297313Y118521D01*
Y118537D01*
Y118539D01*
Y118541D01*
Y118545D01*
Y118552D01*
Y118564D01*
X297314Y118578D01*
Y118579D01*
Y118581D01*
X297316Y118588D01*
X297317Y118596D01*
X297320Y118604D01*
X297321Y118605D01*
X297323Y118609D01*
X297325Y118614D01*
X297329Y118618D01*
X297331Y118619D01*
X297333Y118620D01*
X297337Y118622D01*
X297343Y118623D01*
X298061D01*
X298065Y118620D01*
D02*
G37*
G36*
X296871Y118626D02*
X296891D01*
X296897Y118624D01*
X296912Y118623D01*
X296924Y118619D01*
X296925D01*
X296927Y118618D01*
X296934Y118616D01*
X296940Y118612D01*
X296946Y118607D01*
X296947Y118605D01*
X296950Y118601D01*
X296954Y118593D01*
X296958Y118584D01*
X297271Y117685D01*
Y117683D01*
X297272Y117681D01*
X297273Y117675D01*
X297276Y117668D01*
X297279Y117655D01*
X297282Y117640D01*
Y117637D01*
Y117630D01*
X297280Y117622D01*
X297276Y117615D01*
X297275Y117614D01*
X297269Y117611D01*
X297260Y117608D01*
X297253D01*
X297245Y117607D01*
X297241D01*
X297235Y117606D01*
X297220D01*
X297211Y117604D01*
X297142D01*
X297132Y117606D01*
X297118D01*
X297110Y117607D01*
X297099Y117608D01*
X297089Y117610D01*
X297087D01*
X297083Y117613D01*
X297078Y117615D01*
X297072Y117619D01*
Y117621D01*
X297070Y117623D01*
X297067Y117629D01*
X297064Y117636D01*
X296997Y117840D01*
X296615D01*
X296551Y117641D01*
Y117640D01*
X296550Y117634D01*
X296547Y117629D01*
X296543Y117622D01*
X296542Y117621D01*
X296539Y117618D01*
X296535Y117615D01*
X296527Y117611D01*
X296526D01*
X296519Y117610D01*
X296509Y117608D01*
X296494Y117607D01*
X296490D01*
X296486Y117606D01*
X296473D01*
X296463Y117604D01*
X296421D01*
X296402Y117606D01*
X296392D01*
X296384Y117607D01*
X296381D01*
X296373Y117608D01*
X296364Y117611D01*
X296356Y117617D01*
X296354Y117618D01*
X296353Y117623D01*
X296350Y117631D01*
Y117642D01*
Y117644D01*
Y117645D01*
X296351Y117649D01*
X296353Y117655D01*
X296357Y117668D01*
X296362Y117687D01*
X296675Y118586D01*
X296676Y118589D01*
X296678Y118593D01*
X296680Y118600D01*
X296685Y118607D01*
X296686Y118608D01*
X296690Y118611D01*
X296695Y118615D01*
X296705Y118619D01*
X296706D01*
X296708Y118620D01*
X296716Y118622D01*
X296727Y118624D01*
X296743Y118626D01*
X296753D01*
X296761Y118627D01*
X296859D01*
X296871Y118626D01*
D02*
G37*
G36*
X295413Y117467D02*
X295421Y117462D01*
X295425Y117457D01*
X295428Y117452D01*
Y117451D01*
X295429Y117449D01*
X295431Y117445D01*
X295432Y117438D01*
X295433Y117432D01*
X295435Y117422D01*
X295436Y117410D01*
Y117396D01*
Y117395D01*
Y117390D01*
Y117383D01*
X295435Y117375D01*
X295433Y117357D01*
X295431Y117347D01*
X295428Y117341D01*
Y117339D01*
X295427Y117338D01*
X295423Y117332D01*
X295414Y117325D01*
X295410Y117324D01*
X295404Y117323D01*
X294657D01*
X294649Y117325D01*
X294640Y117331D01*
X294637Y117335D01*
X294634Y117341D01*
Y117342D01*
X294632Y117343D01*
X294631Y117347D01*
Y117354D01*
X294630Y117361D01*
X294628Y117370D01*
X294627Y117381D01*
Y117395D01*
Y117396D01*
Y117402D01*
Y117409D01*
X294628Y117417D01*
X294630Y117436D01*
X294631Y117444D01*
X294634Y117452D01*
Y117453D01*
X294635Y117455D01*
X294639Y117460D01*
X294647Y117466D01*
X294653Y117468D01*
X295406D01*
X295413Y117467D01*
D02*
G37*
G36*
X305635Y128837D02*
X305641Y128835D01*
X305642Y128833D01*
X305644Y128832D01*
X305649Y128828D01*
X305651Y128821D01*
X305653Y128820D01*
X305654Y128814D01*
X305657Y128806D01*
X305658Y128795D01*
Y128793D01*
X305660Y128786D01*
X305661Y128773D01*
Y128759D01*
Y128757D01*
Y128752D01*
Y128744D01*
X305660Y128733D01*
X305657Y128712D01*
X305654Y128703D01*
X305651Y128695D01*
Y128693D01*
X305650Y128692D01*
X305644Y128686D01*
X305636Y128680D01*
X305631Y128678D01*
X305624Y128677D01*
X305296D01*
X305288Y128680D01*
X305279Y128685D01*
X305275Y128689D01*
X305271Y128695D01*
Y128696D01*
X305269Y128699D01*
X305268Y128703D01*
X305266Y128710D01*
X305265Y128719D01*
X305264Y128730D01*
X305262Y128744D01*
Y128759D01*
Y128760D01*
Y128765D01*
Y128773D01*
X305264Y128783D01*
X305266Y128803D01*
X305268Y128812D01*
X305271Y128820D01*
Y128821D01*
X305272Y128823D01*
X305277Y128829D01*
X305286Y128836D01*
X305292Y128837D01*
X305299Y128839D01*
X305630D01*
X305635Y128837D01*
D02*
G37*
G36*
X305147Y129381D02*
X305155D01*
X305163Y129380D01*
X305166D01*
X305174Y129377D01*
X305184Y129373D01*
X305190Y129368D01*
X305192Y129367D01*
X305194Y129362D01*
X305196Y129354D01*
Y129343D01*
Y129342D01*
Y129341D01*
X305194Y129337D01*
X305193Y129331D01*
X305189Y129317D01*
X305184Y129298D01*
X304882Y128400D01*
X304880Y128398D01*
X304879Y128393D01*
X304875Y128386D01*
X304871Y128379D01*
X304869Y128378D01*
X304867Y128375D01*
X304860Y128371D01*
X304850Y128367D01*
X304848D01*
X304841Y128364D01*
X304829Y128363D01*
X304812Y128361D01*
X304795D01*
X304786Y128360D01*
X304712D01*
X304694Y128361D01*
X304668D01*
X304656Y128363D01*
X304653D01*
X304648Y128364D01*
X304640Y128366D01*
X304631Y128367D01*
X304630D01*
X304626Y128368D01*
X304615Y128374D01*
X304614Y128375D01*
X304611Y128378D01*
X304604Y128386D01*
Y128387D01*
X304603Y128390D01*
X304601Y128395D01*
X304599Y128402D01*
X304297Y129301D01*
Y129303D01*
X304295Y129305D01*
X304294Y129311D01*
X304291Y129317D01*
X304287Y129331D01*
X304285Y129345D01*
Y129346D01*
Y129347D01*
Y129354D01*
X304287Y129364D01*
X304293Y129370D01*
X304295Y129372D01*
X304301Y129375D01*
X304312Y129379D01*
X304327Y129380D01*
X304331D01*
X304336Y129381D01*
X304353D01*
X304363Y129383D01*
X304412D01*
X304431Y129381D01*
X304441D01*
X304449Y129380D01*
X304453D01*
X304461Y129379D01*
X304471Y129377D01*
X304480Y129375D01*
X304482Y129373D01*
X304486Y129372D01*
X304491Y129368D01*
X304495Y129362D01*
X304497Y129361D01*
X304498Y129357D01*
X304501Y129351D01*
X304503Y129343D01*
X304750Y128563D01*
X304751D01*
X304993Y129339D01*
Y129342D01*
X304995Y129347D01*
X304997Y129354D01*
X305000Y129361D01*
X305001Y129362D01*
X305004Y129365D01*
X305009Y129369D01*
X305016Y129373D01*
X305019Y129375D01*
X305024Y129376D01*
X305035Y129379D01*
X305049Y129380D01*
X305053D01*
X305058Y129381D01*
X305073D01*
X305083Y129383D01*
X305128D01*
X305147Y129381D01*
D02*
G37*
G36*
X304108Y129376D02*
X304112Y129373D01*
X304113Y129372D01*
X304116Y129370D01*
X304120Y129365D01*
X304123Y129358D01*
X304124Y129357D01*
X304125Y129351D01*
X304128Y129343D01*
X304130Y129331D01*
Y129330D01*
Y129328D01*
X304131Y129320D01*
X304132Y129307D01*
Y129290D01*
Y129289D01*
Y129282D01*
Y129274D01*
X304131Y129264D01*
X304128Y129243D01*
X304125Y129232D01*
X304123Y129222D01*
Y129221D01*
X304121Y129220D01*
X304117Y129213D01*
X304109Y129205D01*
X304105Y129203D01*
X304100Y129202D01*
X303739D01*
Y128986D01*
X303743D01*
X303749Y128987D01*
X303757D01*
X303773Y128988D01*
X303794Y128990D01*
X303803D01*
X303811Y128991D01*
X303863D01*
X303879Y128990D01*
X303898Y128988D01*
X303921Y128986D01*
X303946Y128983D01*
X303972Y128978D01*
X303996Y128971D01*
X303998D01*
X303999Y128969D01*
X304007Y128967D01*
X304019Y128963D01*
X304034Y128957D01*
X304051Y128949D01*
X304068Y128938D01*
X304086Y128927D01*
X304104Y128914D01*
X304105Y128912D01*
X304111Y128907D01*
X304119Y128899D01*
X304128Y128888D01*
X304139Y128876D01*
X304150Y128859D01*
X304161Y128841D01*
X304170Y128821D01*
X304172Y128818D01*
X304174Y128812D01*
X304177Y128801D01*
X304183Y128784D01*
X304187Y128767D01*
X304189Y128745D01*
X304192Y128720D01*
X304193Y128693D01*
Y128692D01*
Y128689D01*
Y128685D01*
Y128680D01*
X304192Y128665D01*
X304189Y128644D01*
X304187Y128621D01*
X304181Y128597D01*
X304173Y128571D01*
X304164Y128546D01*
Y128545D01*
X304162Y128544D01*
X304158Y128535D01*
X304151Y128523D01*
X304143Y128508D01*
X304131Y128491D01*
X304117Y128473D01*
X304101Y128454D01*
X304083Y128436D01*
X304081Y128435D01*
X304074Y128429D01*
X304063Y128421D01*
X304048Y128412D01*
X304030Y128401D01*
X304009Y128390D01*
X303984Y128379D01*
X303958Y128370D01*
X303957D01*
X303955Y128368D01*
X303951Y128367D01*
X303946Y128366D01*
X303938Y128364D01*
X303930Y128363D01*
X303911Y128359D01*
X303886Y128353D01*
X303859Y128350D01*
X303828Y128348D01*
X303795Y128347D01*
X303779D01*
X303766Y128348D01*
X303753D01*
X303738Y128349D01*
X303705Y128353D01*
X303704D01*
X303698Y128355D01*
X303690Y128356D01*
X303679Y128357D01*
X303668Y128359D01*
X303655Y128361D01*
X303629Y128367D01*
X303628D01*
X303624Y128368D01*
X303618Y128371D01*
X303610Y128372D01*
X303592Y128379D01*
X303575Y128386D01*
X303573D01*
X303571Y128387D01*
X303562Y128391D01*
X303553Y128397D01*
X303549Y128398D01*
X303546Y128401D01*
X303545Y128402D01*
X303542Y128405D01*
X303539Y128409D01*
X303537Y128413D01*
Y128414D01*
X303535Y128417D01*
X303534Y128423D01*
X303531Y128429D01*
Y128431D01*
X303530Y128436D01*
Y128444D01*
X303528Y128455D01*
Y128457D01*
Y128458D01*
Y128465D01*
Y128477D01*
Y128491D01*
Y128492D01*
Y128495D01*
Y128499D01*
Y128503D01*
Y128515D01*
X303530Y128527D01*
Y128529D01*
Y128530D01*
X303531Y128535D01*
X303533Y128544D01*
X303534Y128552D01*
X303535Y128553D01*
X303537Y128557D01*
X303539Y128561D01*
X303542Y128565D01*
X303543Y128567D01*
X303546Y128568D01*
X303550Y128569D01*
X303556D01*
X303560Y128568D01*
X303567Y128565D01*
X303577Y128560D01*
X303579D01*
X303580Y128559D01*
X303584Y128556D01*
X303588Y128554D01*
X303602Y128548D01*
X303620Y128540D01*
X303621D01*
X303625Y128538D01*
X303630Y128535D01*
X303637Y128533D01*
X303647Y128530D01*
X303658Y128526D01*
X303683Y128519D01*
X303685D01*
X303690Y128518D01*
X303698Y128516D01*
X303709Y128515D01*
X303723Y128514D01*
X303738Y128512D01*
X303755Y128511D01*
X303791D01*
X303802Y128512D01*
X303814D01*
X303828Y128515D01*
X303856Y128519D01*
X303857D01*
X303863Y128521D01*
X303870Y128523D01*
X303878Y128526D01*
X303900Y128535D01*
X303920Y128549D01*
X303921Y128551D01*
X303924Y128553D01*
X303930Y128557D01*
X303935Y128564D01*
X303941Y128572D01*
X303947Y128580D01*
X303959Y128602D01*
X303961Y128603D01*
X303962Y128608D01*
X303965Y128614D01*
X303968Y128624D01*
X303970Y128635D01*
X303972Y128647D01*
X303975Y128661D01*
Y128677D01*
Y128678D01*
Y128684D01*
Y128691D01*
X303973Y128700D01*
X303969Y128722D01*
X303962Y128744D01*
Y128745D01*
X303959Y128749D01*
X303957Y128754D01*
X303953Y128761D01*
X303941Y128778D01*
X303924Y128794D01*
X303923Y128795D01*
X303920Y128798D01*
X303915Y128801D01*
X303906Y128806D01*
X303897Y128810D01*
X303886Y128816D01*
X303874Y128821D01*
X303859Y128825D01*
X303857D01*
X303852Y128826D01*
X303844Y128829D01*
X303832Y128831D01*
X303818Y128833D01*
X303802Y128835D01*
X303783Y128836D01*
X303735D01*
X303723Y128835D01*
X303708Y128833D01*
X303679Y128831D01*
X303673D01*
X303666Y128829D01*
X303658D01*
X303647Y128828D01*
X303635D01*
X303610Y128826D01*
X303606D01*
X303598Y128828D01*
X303587Y128831D01*
X303577Y128837D01*
X303576Y128840D01*
X303575Y128843D01*
X303573Y128847D01*
X303571Y128852D01*
X303569Y128859D01*
X303568Y128869D01*
Y128880D01*
Y129319D01*
Y129320D01*
Y129324D01*
Y129330D01*
X303569Y129337D01*
X303572Y129351D01*
X303575Y129358D01*
X303579Y129364D01*
Y129365D01*
X303581Y129367D01*
X303588Y129372D01*
X303601Y129376D01*
X303609Y129379D01*
X304104D01*
X304108Y129376D01*
D02*
G37*
G36*
X308269Y129381D02*
X308284Y129380D01*
X308288D01*
X308296Y129379D01*
X308306Y129376D01*
X308316Y129373D01*
X308318Y129372D01*
X308322Y129370D01*
X308328Y129367D01*
X308333Y129362D01*
X308335Y129361D01*
X308336Y129358D01*
X308337Y129354D01*
X308339Y129349D01*
Y128534D01*
X308662D01*
X308666Y128531D01*
X308671Y128529D01*
X308672Y128527D01*
X308675Y128526D01*
X308679Y128522D01*
X308681Y128515D01*
X308683Y128514D01*
X308684Y128508D01*
X308685Y128500D01*
X308687Y128489D01*
Y128488D01*
Y128487D01*
X308688Y128478D01*
X308690Y128466D01*
Y128450D01*
Y128448D01*
Y128446D01*
Y128442D01*
Y128436D01*
X308688Y128424D01*
X308687Y128410D01*
Y128408D01*
X308685Y128401D01*
X308684Y128393D01*
X308681Y128383D01*
X308680Y128382D01*
X308679Y128378D01*
X308675Y128372D01*
X308671Y128368D01*
X308669D01*
X308666Y128367D01*
X308662Y128366D01*
X308657Y128364D01*
X308188D01*
X308182Y128366D01*
X308177D01*
X308163Y128371D01*
X308155Y128374D01*
X308148Y128379D01*
Y128381D01*
X308146Y128382D01*
X308143Y128386D01*
X308140Y128391D01*
X308137Y128398D01*
X308135Y128406D01*
X308133Y128416D01*
X308132Y128428D01*
Y129349D01*
Y129350D01*
Y129354D01*
X308133Y129358D01*
X308136Y129362D01*
X308137Y129364D01*
X308140Y129367D01*
X308146Y129370D01*
X308152Y129373D01*
X308155Y129375D01*
X308161Y129376D01*
X308171Y129377D01*
X308185Y129380D01*
X308189D01*
X308193Y129381D01*
X308207D01*
X308215Y129383D01*
X308253D01*
X308269Y129381D01*
D02*
G37*
G36*
X307130Y129377D02*
X307134Y129375D01*
X307135Y129373D01*
X307137Y129372D01*
X307140Y129367D01*
X307143Y129360D01*
X307145Y129358D01*
X307146Y129353D01*
X307147Y129345D01*
X307149Y129335D01*
Y129332D01*
X307150Y129324D01*
X307151Y129312D01*
Y129296D01*
Y129294D01*
Y129292D01*
Y129288D01*
Y129283D01*
X307150Y129271D01*
X307149Y129259D01*
Y129256D01*
X307147Y129251D01*
X307146Y129243D01*
X307143Y129235D01*
Y129233D01*
X307140Y129229D01*
X307138Y129225D01*
X307134Y129221D01*
X307132D01*
X307130Y129220D01*
X307127Y129218D01*
X307121Y129217D01*
X306760D01*
Y128969D01*
X307070D01*
X307074Y128967D01*
X307078Y128964D01*
X307079Y128963D01*
X307082Y128961D01*
X307086Y128957D01*
X307089Y128950D01*
X307090Y128949D01*
X307092Y128945D01*
X307093Y128937D01*
X307094Y128926D01*
Y128923D01*
X307096Y128916D01*
X307097Y128904D01*
Y128889D01*
Y128888D01*
Y128885D01*
Y128881D01*
Y128876D01*
X307096Y128863D01*
X307094Y128851D01*
Y128848D01*
X307093Y128843D01*
X307092Y128836D01*
X307089Y128828D01*
X307087Y128826D01*
X307086Y128823D01*
X307082Y128818D01*
X307078Y128814D01*
X307077D01*
X307074Y128813D01*
X307066Y128812D01*
X306760D01*
Y128526D01*
X307128D01*
X307132Y128523D01*
X307137Y128521D01*
X307138Y128519D01*
X307140Y128518D01*
X307145Y128514D01*
X307147Y128507D01*
X307149Y128506D01*
X307150Y128500D01*
X307151Y128492D01*
X307153Y128482D01*
Y128480D01*
X307154Y128472D01*
X307155Y128461D01*
Y128444D01*
Y128443D01*
Y128440D01*
Y128436D01*
Y128431D01*
X307154Y128419D01*
X307153Y128406D01*
Y128404D01*
X307151Y128398D01*
X307150Y128390D01*
X307147Y128382D01*
X307146Y128381D01*
X307145Y128376D01*
X307140Y128372D01*
X307137Y128368D01*
X307135D01*
X307132Y128367D01*
X307130Y128366D01*
X307124Y128364D01*
X306610D01*
X306605Y128366D01*
X306599D01*
X306586Y128371D01*
X306577Y128374D01*
X306571Y128379D01*
Y128381D01*
X306568Y128382D01*
X306565Y128386D01*
X306563Y128391D01*
X306560Y128398D01*
X306557Y128406D01*
X306556Y128416D01*
X306554Y128428D01*
Y129313D01*
Y129315D01*
Y129319D01*
X306556Y129326D01*
X306557Y129332D01*
X306561Y129349D01*
X306565Y129356D01*
X306571Y129362D01*
X306572Y129364D01*
X306573Y129365D01*
X306577Y129368D01*
X306583Y129370D01*
X306596Y129376D01*
X306605Y129379D01*
X307126D01*
X307130Y129377D01*
D02*
G37*
G36*
X303138Y129384D02*
X303141D01*
X303149Y129383D01*
X303158Y129381D01*
X303167Y129380D01*
X303168D01*
X303172Y129379D01*
X303176Y129376D01*
X303179Y129372D01*
X303180Y129370D01*
X303182Y129369D01*
X303183Y129365D01*
Y129361D01*
Y128523D01*
X303353D01*
X303357Y128521D01*
X303361Y128518D01*
X303362Y128516D01*
X303364Y128515D01*
X303368Y128511D01*
X303371Y128504D01*
X303372Y128503D01*
X303373Y128497D01*
X303376Y128489D01*
X303377Y128480D01*
Y128477D01*
X303379Y128469D01*
X303380Y128458D01*
Y128442D01*
Y128440D01*
Y128438D01*
Y128434D01*
Y128429D01*
X303379Y128417D01*
X303377Y128405D01*
Y128402D01*
X303376Y128397D01*
X303373Y128389D01*
X303371Y128381D01*
Y128379D01*
X303368Y128375D01*
X303365Y128371D01*
X303361Y128367D01*
X303360D01*
X303357Y128366D01*
X303353Y128364D01*
X302784D01*
X302776Y128367D01*
X302775Y128368D01*
X302774Y128370D01*
X302769Y128375D01*
X302767Y128381D01*
Y128382D01*
X302764Y128387D01*
X302763Y128395D01*
X302760Y128405D01*
Y128406D01*
Y128408D01*
Y128416D01*
X302759Y128427D01*
Y128442D01*
Y128443D01*
Y128446D01*
Y128450D01*
Y128455D01*
Y128468D01*
X302760Y128480D01*
Y128481D01*
Y128482D01*
X302761Y128488D01*
X302763Y128496D01*
X302765Y128504D01*
X302767Y128506D01*
X302769Y128510D01*
X302772Y128514D01*
X302776Y128518D01*
X302778Y128519D01*
X302780Y128521D01*
X302784Y128522D01*
X302788Y128523D01*
X302978D01*
Y129183D01*
X302814Y129093D01*
X302813D01*
X302812Y129092D01*
X302803Y129088D01*
X302794Y129084D01*
X302784Y129081D01*
X302778D01*
X302772Y129082D01*
X302767Y129086D01*
X302765Y129088D01*
X302763Y129092D01*
X302760Y129098D01*
X302757Y129109D01*
Y129111D01*
Y129112D01*
Y129116D01*
Y129122D01*
X302756Y129129D01*
Y129135D01*
Y129156D01*
Y129157D01*
Y129158D01*
Y129166D01*
Y129177D01*
Y129187D01*
Y129190D01*
X302757Y129194D01*
X302759Y129200D01*
X302760Y129207D01*
Y129209D01*
X302763Y129213D01*
X302764Y129218D01*
X302768Y129222D01*
X302769Y129224D01*
X302772Y129226D01*
X302776Y129229D01*
X302783Y129233D01*
X303001Y129375D01*
X303002D01*
X303003Y129376D01*
X303010Y129379D01*
X303012D01*
X303014Y129380D01*
X303020Y129381D01*
X303027Y129383D01*
X303028D01*
X303033Y129384D01*
X303054D01*
X303062Y129385D01*
X303123D01*
X303138Y129384D01*
D02*
G37*
G36*
X307989Y129376D02*
X307993Y129373D01*
X307995Y129372D01*
X307997Y129370D01*
X308001Y129367D01*
X308004Y129360D01*
X308005Y129358D01*
X308007Y129353D01*
X308008Y129345D01*
X308010Y129334D01*
Y129332D01*
Y129331D01*
X308011Y129323D01*
X308012Y129309D01*
Y129293D01*
Y129292D01*
Y129289D01*
Y129285D01*
Y129279D01*
X308011Y129267D01*
X308010Y129254D01*
Y129251D01*
X308008Y129245D01*
X308007Y129236D01*
X308004Y129228D01*
X308003Y129226D01*
X308001Y129222D01*
X307997Y129218D01*
X307993Y129214D01*
X307992D01*
X307989Y129213D01*
X307986Y129211D01*
X307981Y129210D01*
X307728D01*
Y128393D01*
Y128391D01*
Y128387D01*
X307725Y128383D01*
X307723Y128378D01*
X307721Y128376D01*
X307719Y128375D01*
X307713Y128371D01*
X307705Y128368D01*
X307704D01*
X307697Y128366D01*
X307687Y128364D01*
X307674Y128363D01*
X307670D01*
X307665Y128361D01*
X307660D01*
X307645Y128360D01*
X307607D01*
X307591Y128361D01*
X307574Y128363D01*
X307572D01*
X307562Y128364D01*
X307553Y128366D01*
X307542Y128368D01*
X307540Y128370D01*
X307536Y128371D01*
X307531Y128374D01*
X307525Y128378D01*
Y128379D01*
X307524Y128382D01*
X307523Y128387D01*
X307521Y128393D01*
Y129210D01*
X307263D01*
X307258Y129211D01*
X307253Y129214D01*
X307252Y129216D01*
X307251Y129217D01*
X307247Y129222D01*
X307244Y129228D01*
Y129229D01*
X307241Y129235D01*
X307240Y129243D01*
X307239Y129254D01*
Y129255D01*
Y129256D01*
Y129264D01*
X307237Y129277D01*
Y129293D01*
Y129294D01*
Y129297D01*
Y129301D01*
Y129308D01*
Y129320D01*
X307239Y129334D01*
Y129335D01*
Y129337D01*
X307240Y129343D01*
X307241Y129351D01*
X307244Y129360D01*
X307245Y129361D01*
X307247Y129365D01*
X307249Y129369D01*
X307253Y129373D01*
X307255Y129375D01*
X307258Y129376D01*
X307262Y129377D01*
X307267Y129379D01*
X307985D01*
X307989Y129376D01*
D02*
G37*
G36*
X306363D02*
X306367Y129373D01*
X306368Y129372D01*
X306369Y129370D01*
X306374Y129367D01*
X306376Y129360D01*
X306378Y129358D01*
X306379Y129353D01*
X306382Y129345D01*
X306383Y129334D01*
Y129332D01*
Y129331D01*
X306384Y129323D01*
X306386Y129309D01*
Y129293D01*
Y129292D01*
Y129289D01*
Y129285D01*
Y129279D01*
X306384Y129267D01*
X306383Y129254D01*
Y129251D01*
X306382Y129244D01*
X306380Y129236D01*
X306376Y129228D01*
Y129226D01*
X306374Y129222D01*
X306371Y129218D01*
X306367Y129214D01*
X306365D01*
X306363Y129213D01*
X306360Y129211D01*
X306354Y129210D01*
X306024D01*
Y128938D01*
X306338D01*
X306342Y128937D01*
X306346Y128934D01*
X306348Y128933D01*
X306349Y128931D01*
X306353Y128927D01*
X306356Y128920D01*
X306357Y128919D01*
X306359Y128914D01*
X306361Y128905D01*
X306363Y128894D01*
Y128892D01*
X306364Y128884D01*
X306365Y128871D01*
Y128855D01*
Y128854D01*
Y128851D01*
Y128847D01*
Y128841D01*
X306364Y128829D01*
X306363Y128816D01*
Y128813D01*
X306361Y128807D01*
X306360Y128798D01*
X306356Y128790D01*
Y128788D01*
X306353Y128784D01*
X306350Y128780D01*
X306346Y128776D01*
X306345D01*
X306342Y128775D01*
X306340Y128773D01*
X306334Y128772D01*
X306024D01*
Y128394D01*
Y128393D01*
Y128389D01*
X306021Y128384D01*
X306019Y128379D01*
X306017Y128378D01*
X306014Y128375D01*
X306010Y128372D01*
X306002Y128368D01*
X305999D01*
X305994Y128366D01*
X305983Y128364D01*
X305970Y128363D01*
X305967D01*
X305961Y128361D01*
X305949D01*
X305941Y128360D01*
X305903D01*
X305887Y128361D01*
X305870Y128363D01*
X305868D01*
X305858Y128364D01*
X305849Y128366D01*
X305838Y128368D01*
X305836Y128370D01*
X305832Y128371D01*
X305827Y128375D01*
X305821Y128379D01*
Y128381D01*
X305820Y128383D01*
X305819Y128389D01*
X305817Y128394D01*
Y129313D01*
Y129315D01*
Y129319D01*
X305819Y129326D01*
X305820Y129332D01*
X305824Y129349D01*
X305828Y129356D01*
X305834Y129362D01*
X305835Y129364D01*
X305836Y129365D01*
X305840Y129368D01*
X305846Y129370D01*
X305859Y129376D01*
X305868Y129379D01*
X306359D01*
X306363Y129376D01*
D02*
G37*
G36*
X308854Y138436D02*
X308869Y138435D01*
X308873D01*
X308881Y138434D01*
X308891Y138431D01*
X308900Y138428D01*
X308903Y138427D01*
X308907Y138426D01*
X308913Y138422D01*
X308918Y138417D01*
X308919Y138416D01*
X308921Y138413D01*
X308922Y138409D01*
X308924Y138404D01*
Y137448D01*
Y137446D01*
Y137442D01*
X308921Y137438D01*
X308918Y137433D01*
X308917Y137432D01*
X308914Y137430D01*
X308909Y137426D01*
X308900Y137423D01*
X308899D01*
X308892Y137421D01*
X308883Y137419D01*
X308869Y137418D01*
X308866D01*
X308861Y137417D01*
X308849D01*
X308840Y137415D01*
X308803D01*
X308785Y137417D01*
X308769Y137418D01*
X308766D01*
X308758Y137419D01*
X308747Y137421D01*
X308737Y137423D01*
X308736Y137425D01*
X308732Y137426D01*
X308726Y137429D01*
X308721Y137433D01*
Y137434D01*
X308719Y137437D01*
X308718Y137442D01*
X308717Y137448D01*
Y137857D01*
X308339D01*
Y137448D01*
Y137446D01*
Y137442D01*
X308336Y137438D01*
X308333Y137433D01*
X308332Y137432D01*
X308329Y137430D01*
X308325Y137426D01*
X308317Y137423D01*
X308314D01*
X308309Y137421D01*
X308298Y137419D01*
X308284Y137418D01*
X308282D01*
X308276Y137417D01*
X308264D01*
X308256Y137415D01*
X308218D01*
X308201Y137417D01*
X308185Y137418D01*
X308182D01*
X308173Y137419D01*
X308163Y137421D01*
X308152Y137423D01*
X308151Y137425D01*
X308147Y137426D01*
X308141Y137429D01*
X308136Y137433D01*
Y137434D01*
X308135Y137437D01*
X308133Y137442D01*
X308132Y137448D01*
Y138404D01*
Y138405D01*
Y138409D01*
X308133Y138413D01*
X308136Y138417D01*
X308137Y138419D01*
X308140Y138422D01*
X308146Y138426D01*
X308152Y138428D01*
X308155Y138430D01*
X308161Y138431D01*
X308171Y138433D01*
X308185Y138435D01*
X308189D01*
X308193Y138436D01*
X308207D01*
X308215Y138438D01*
X308253D01*
X308269Y138436D01*
X308284Y138435D01*
X308288D01*
X308296Y138434D01*
X308306Y138431D01*
X308317Y138428D01*
X308318Y138427D01*
X308324Y138426D01*
X308329Y138422D01*
X308333Y138417D01*
X308335Y138416D01*
X308336Y138413D01*
X308337Y138409D01*
X308339Y138404D01*
Y138033D01*
X308717D01*
Y138404D01*
Y138405D01*
Y138409D01*
X308718Y138413D01*
X308721Y138417D01*
X308722Y138419D01*
X308725Y138422D01*
X308730Y138426D01*
X308737Y138428D01*
X308740Y138430D01*
X308745Y138431D01*
X308756Y138433D01*
X308769Y138435D01*
X308773D01*
X308777Y138436D01*
X308790D01*
X308798Y138438D01*
X308838D01*
X308854Y138436D01*
D02*
G37*
G36*
X305635Y137892D02*
X305641Y137890D01*
X305642Y137889D01*
X305644Y137887D01*
X305649Y137883D01*
X305651Y137876D01*
X305653Y137875D01*
X305654Y137869D01*
X305657Y137861D01*
X305658Y137850D01*
Y137848D01*
X305660Y137841D01*
X305661Y137829D01*
Y137814D01*
Y137812D01*
Y137807D01*
Y137799D01*
X305660Y137788D01*
X305657Y137767D01*
X305654Y137758D01*
X305651Y137750D01*
Y137748D01*
X305650Y137747D01*
X305644Y137742D01*
X305636Y137735D01*
X305631Y137733D01*
X305624Y137732D01*
X305296D01*
X305288Y137735D01*
X305279Y137740D01*
X305275Y137744D01*
X305271Y137750D01*
Y137751D01*
X305269Y137754D01*
X305268Y137758D01*
X305266Y137765D01*
X305265Y137774D01*
X305264Y137785D01*
X305262Y137799D01*
Y137814D01*
Y137815D01*
Y137820D01*
Y137829D01*
X305264Y137838D01*
X305266Y137858D01*
X305268Y137867D01*
X305271Y137875D01*
Y137876D01*
X305272Y137878D01*
X305277Y137884D01*
X305286Y137891D01*
X305292Y137892D01*
X305299Y137894D01*
X305630D01*
X305635Y137892D01*
D02*
G37*
G36*
X305147Y138436D02*
X305155D01*
X305163Y138435D01*
X305166D01*
X305174Y138433D01*
X305184Y138428D01*
X305190Y138423D01*
X305192Y138422D01*
X305194Y138417D01*
X305196Y138409D01*
Y138399D01*
Y138397D01*
Y138396D01*
X305194Y138392D01*
X305193Y138386D01*
X305189Y138373D01*
X305184Y138354D01*
X304882Y137455D01*
X304880Y137453D01*
X304879Y137448D01*
X304875Y137441D01*
X304871Y137434D01*
X304869Y137433D01*
X304867Y137430D01*
X304860Y137426D01*
X304850Y137422D01*
X304848D01*
X304841Y137419D01*
X304829Y137418D01*
X304812Y137417D01*
X304795D01*
X304786Y137415D01*
X304712D01*
X304694Y137417D01*
X304668D01*
X304656Y137418D01*
X304653D01*
X304648Y137419D01*
X304640Y137421D01*
X304631Y137422D01*
X304630D01*
X304626Y137423D01*
X304615Y137429D01*
X304614Y137430D01*
X304611Y137433D01*
X304604Y137441D01*
Y137442D01*
X304603Y137445D01*
X304601Y137451D01*
X304599Y137457D01*
X304297Y138356D01*
Y138358D01*
X304295Y138360D01*
X304294Y138366D01*
X304291Y138373D01*
X304287Y138386D01*
X304285Y138400D01*
Y138401D01*
Y138402D01*
Y138409D01*
X304287Y138419D01*
X304293Y138426D01*
X304295Y138427D01*
X304301Y138430D01*
X304312Y138434D01*
X304327Y138435D01*
X304331D01*
X304336Y138436D01*
X304353D01*
X304363Y138438D01*
X304412D01*
X304431Y138436D01*
X304441D01*
X304449Y138435D01*
X304453D01*
X304461Y138434D01*
X304471Y138433D01*
X304480Y138430D01*
X304482Y138428D01*
X304486Y138427D01*
X304491Y138423D01*
X304495Y138417D01*
X304497Y138416D01*
X304498Y138412D01*
X304501Y138407D01*
X304503Y138399D01*
X304750Y137618D01*
X304751D01*
X304993Y138394D01*
Y138397D01*
X304995Y138402D01*
X304997Y138409D01*
X305000Y138416D01*
X305001Y138417D01*
X305004Y138420D01*
X305009Y138424D01*
X305016Y138428D01*
X305019Y138430D01*
X305024Y138431D01*
X305035Y138434D01*
X305049Y138435D01*
X305053D01*
X305058Y138436D01*
X305073D01*
X305083Y138438D01*
X305128D01*
X305147Y138436D01*
D02*
G37*
G36*
X304108Y138431D02*
X304112Y138428D01*
X304113Y138427D01*
X304116Y138426D01*
X304120Y138420D01*
X304123Y138413D01*
X304124Y138412D01*
X304125Y138407D01*
X304128Y138399D01*
X304130Y138386D01*
Y138385D01*
Y138383D01*
X304131Y138375D01*
X304132Y138362D01*
Y138345D01*
Y138344D01*
Y138337D01*
Y138329D01*
X304131Y138320D01*
X304128Y138298D01*
X304125Y138287D01*
X304123Y138277D01*
Y138276D01*
X304121Y138275D01*
X304117Y138268D01*
X304109Y138260D01*
X304105Y138258D01*
X304100Y138257D01*
X303739D01*
Y138041D01*
X303743D01*
X303749Y138042D01*
X303757D01*
X303773Y138043D01*
X303794Y138045D01*
X303803D01*
X303811Y138046D01*
X303863D01*
X303879Y138045D01*
X303898Y138043D01*
X303921Y138041D01*
X303946Y138038D01*
X303972Y138033D01*
X303996Y138026D01*
X303998D01*
X303999Y138024D01*
X304007Y138022D01*
X304019Y138018D01*
X304034Y138012D01*
X304051Y138004D01*
X304068Y137993D01*
X304086Y137982D01*
X304104Y137969D01*
X304105Y137967D01*
X304111Y137962D01*
X304119Y137954D01*
X304128Y137943D01*
X304139Y137931D01*
X304150Y137914D01*
X304161Y137897D01*
X304170Y137876D01*
X304172Y137873D01*
X304174Y137867D01*
X304177Y137856D01*
X304183Y137839D01*
X304187Y137822D01*
X304189Y137800D01*
X304192Y137776D01*
X304193Y137748D01*
Y137747D01*
Y137744D01*
Y137740D01*
Y137735D01*
X304192Y137720D01*
X304189Y137699D01*
X304187Y137676D01*
X304181Y137652D01*
X304173Y137626D01*
X304164Y137601D01*
Y137600D01*
X304162Y137599D01*
X304158Y137591D01*
X304151Y137578D01*
X304143Y137563D01*
X304131Y137546D01*
X304117Y137528D01*
X304101Y137509D01*
X304083Y137491D01*
X304081Y137490D01*
X304074Y137485D01*
X304063Y137476D01*
X304048Y137467D01*
X304030Y137456D01*
X304009Y137445D01*
X303984Y137434D01*
X303958Y137425D01*
X303957D01*
X303955Y137423D01*
X303951Y137422D01*
X303946Y137421D01*
X303938Y137419D01*
X303930Y137418D01*
X303911Y137414D01*
X303886Y137408D01*
X303859Y137406D01*
X303828Y137403D01*
X303795Y137402D01*
X303779D01*
X303766Y137403D01*
X303753D01*
X303738Y137404D01*
X303705Y137408D01*
X303704D01*
X303698Y137410D01*
X303690Y137411D01*
X303679Y137413D01*
X303668Y137414D01*
X303655Y137417D01*
X303629Y137422D01*
X303628D01*
X303624Y137423D01*
X303618Y137426D01*
X303610Y137427D01*
X303592Y137434D01*
X303575Y137441D01*
X303573D01*
X303571Y137442D01*
X303562Y137446D01*
X303553Y137452D01*
X303549Y137453D01*
X303546Y137456D01*
X303545Y137457D01*
X303542Y137460D01*
X303539Y137464D01*
X303537Y137468D01*
Y137470D01*
X303535Y137472D01*
X303534Y137478D01*
X303531Y137485D01*
Y137486D01*
X303530Y137491D01*
Y137499D01*
X303528Y137510D01*
Y137512D01*
Y137513D01*
Y137520D01*
Y137532D01*
Y137546D01*
Y137547D01*
Y137550D01*
Y137554D01*
Y137558D01*
Y137570D01*
X303530Y137583D01*
Y137584D01*
Y137585D01*
X303531Y137591D01*
X303533Y137599D01*
X303534Y137607D01*
X303535Y137608D01*
X303537Y137612D01*
X303539Y137617D01*
X303542Y137620D01*
X303543Y137622D01*
X303546Y137623D01*
X303550Y137625D01*
X303556D01*
X303560Y137623D01*
X303567Y137620D01*
X303577Y137615D01*
X303579D01*
X303580Y137614D01*
X303584Y137611D01*
X303588Y137610D01*
X303602Y137603D01*
X303620Y137595D01*
X303621D01*
X303625Y137593D01*
X303630Y137591D01*
X303637Y137588D01*
X303647Y137585D01*
X303658Y137581D01*
X303683Y137574D01*
X303685D01*
X303690Y137573D01*
X303698Y137572D01*
X303709Y137570D01*
X303723Y137569D01*
X303738Y137567D01*
X303755Y137566D01*
X303791D01*
X303802Y137567D01*
X303814D01*
X303828Y137570D01*
X303856Y137574D01*
X303857D01*
X303863Y137576D01*
X303870Y137578D01*
X303878Y137581D01*
X303900Y137591D01*
X303920Y137604D01*
X303921Y137606D01*
X303924Y137608D01*
X303930Y137612D01*
X303935Y137619D01*
X303941Y137627D01*
X303947Y137636D01*
X303959Y137657D01*
X303961Y137659D01*
X303962Y137663D01*
X303965Y137670D01*
X303968Y137679D01*
X303970Y137690D01*
X303972Y137702D01*
X303975Y137716D01*
Y137732D01*
Y137733D01*
Y137739D01*
Y137746D01*
X303973Y137755D01*
X303969Y137777D01*
X303962Y137799D01*
Y137800D01*
X303959Y137804D01*
X303957Y137810D01*
X303953Y137816D01*
X303941Y137833D01*
X303924Y137849D01*
X303923Y137850D01*
X303920Y137853D01*
X303915Y137856D01*
X303906Y137861D01*
X303897Y137865D01*
X303886Y137871D01*
X303874Y137876D01*
X303859Y137880D01*
X303857D01*
X303852Y137882D01*
X303844Y137884D01*
X303832Y137886D01*
X303818Y137889D01*
X303802Y137890D01*
X303783Y137891D01*
X303735D01*
X303723Y137890D01*
X303708Y137889D01*
X303679Y137886D01*
X303673D01*
X303666Y137884D01*
X303658D01*
X303647Y137883D01*
X303635D01*
X303610Y137882D01*
X303606D01*
X303598Y137883D01*
X303587Y137886D01*
X303577Y137892D01*
X303576Y137895D01*
X303575Y137898D01*
X303573Y137902D01*
X303571Y137908D01*
X303569Y137914D01*
X303568Y137924D01*
Y137935D01*
Y138374D01*
Y138375D01*
Y138379D01*
Y138385D01*
X303569Y138392D01*
X303572Y138407D01*
X303575Y138413D01*
X303579Y138419D01*
Y138420D01*
X303581Y138422D01*
X303588Y138427D01*
X303601Y138431D01*
X303609Y138434D01*
X304104D01*
X304108Y138431D01*
D02*
G37*
G36*
X307130Y138433D02*
X307134Y138430D01*
X307135Y138428D01*
X307137Y138427D01*
X307140Y138422D01*
X307143Y138415D01*
X307145Y138413D01*
X307146Y138408D01*
X307147Y138400D01*
X307149Y138390D01*
Y138388D01*
X307150Y138379D01*
X307151Y138367D01*
Y138351D01*
Y138349D01*
Y138347D01*
Y138343D01*
Y138339D01*
X307150Y138326D01*
X307149Y138314D01*
Y138311D01*
X307147Y138306D01*
X307146Y138298D01*
X307143Y138290D01*
Y138288D01*
X307140Y138284D01*
X307138Y138280D01*
X307134Y138276D01*
X307132D01*
X307130Y138275D01*
X307127Y138273D01*
X307121Y138272D01*
X306760D01*
Y138024D01*
X307070D01*
X307074Y138022D01*
X307078Y138019D01*
X307079Y138018D01*
X307082Y138016D01*
X307086Y138012D01*
X307089Y138005D01*
X307090Y138004D01*
X307092Y138000D01*
X307093Y137992D01*
X307094Y137981D01*
Y137978D01*
X307096Y137971D01*
X307097Y137959D01*
Y137944D01*
Y137943D01*
Y137940D01*
Y137936D01*
Y137931D01*
X307096Y137918D01*
X307094Y137906D01*
Y137903D01*
X307093Y137898D01*
X307092Y137891D01*
X307089Y137883D01*
X307087Y137882D01*
X307086Y137878D01*
X307082Y137873D01*
X307078Y137869D01*
X307077D01*
X307074Y137868D01*
X307066Y137867D01*
X306760D01*
Y137581D01*
X307128D01*
X307132Y137578D01*
X307137Y137576D01*
X307138Y137574D01*
X307140Y137573D01*
X307145Y137569D01*
X307147Y137562D01*
X307149Y137561D01*
X307150Y137555D01*
X307151Y137547D01*
X307153Y137538D01*
Y137535D01*
X307154Y137527D01*
X307155Y137516D01*
Y137499D01*
Y137498D01*
Y137495D01*
Y137491D01*
Y137486D01*
X307154Y137474D01*
X307153Y137461D01*
Y137459D01*
X307151Y137453D01*
X307150Y137445D01*
X307147Y137437D01*
X307146Y137436D01*
X307145Y137432D01*
X307140Y137427D01*
X307137Y137423D01*
X307135D01*
X307132Y137422D01*
X307130Y137421D01*
X307124Y137419D01*
X306610D01*
X306605Y137421D01*
X306599D01*
X306586Y137426D01*
X306577Y137429D01*
X306571Y137434D01*
Y137436D01*
X306568Y137437D01*
X306565Y137441D01*
X306563Y137446D01*
X306560Y137453D01*
X306557Y137461D01*
X306556Y137471D01*
X306554Y137483D01*
Y138368D01*
Y138370D01*
Y138374D01*
X306556Y138381D01*
X306557Y138388D01*
X306561Y138404D01*
X306565Y138411D01*
X306571Y138417D01*
X306572Y138419D01*
X306573Y138420D01*
X306577Y138423D01*
X306583Y138426D01*
X306596Y138431D01*
X306605Y138434D01*
X307126D01*
X307130Y138433D01*
D02*
G37*
G36*
X303138Y138439D02*
X303141D01*
X303149Y138438D01*
X303158Y138436D01*
X303167Y138435D01*
X303168D01*
X303172Y138434D01*
X303176Y138431D01*
X303179Y138427D01*
X303180Y138426D01*
X303182Y138424D01*
X303183Y138420D01*
Y138416D01*
Y137578D01*
X303353D01*
X303357Y137576D01*
X303361Y137573D01*
X303362Y137572D01*
X303364Y137570D01*
X303368Y137566D01*
X303371Y137559D01*
X303372Y137558D01*
X303373Y137552D01*
X303376Y137544D01*
X303377Y137535D01*
Y137532D01*
X303379Y137524D01*
X303380Y137513D01*
Y137497D01*
Y137495D01*
Y137493D01*
Y137489D01*
Y137485D01*
X303379Y137472D01*
X303377Y137460D01*
Y137457D01*
X303376Y137452D01*
X303373Y137444D01*
X303371Y137436D01*
Y137434D01*
X303368Y137430D01*
X303365Y137426D01*
X303361Y137422D01*
X303360D01*
X303357Y137421D01*
X303353Y137419D01*
X302784D01*
X302776Y137422D01*
X302775Y137423D01*
X302774Y137425D01*
X302769Y137430D01*
X302767Y137436D01*
Y137437D01*
X302764Y137442D01*
X302763Y137451D01*
X302760Y137460D01*
Y137461D01*
Y137463D01*
Y137471D01*
X302759Y137482D01*
Y137497D01*
Y137498D01*
Y137501D01*
Y137505D01*
Y137510D01*
Y137523D01*
X302760Y137535D01*
Y137536D01*
Y137538D01*
X302761Y137543D01*
X302763Y137551D01*
X302765Y137559D01*
X302767Y137561D01*
X302769Y137565D01*
X302772Y137569D01*
X302776Y137573D01*
X302778Y137574D01*
X302780Y137576D01*
X302784Y137577D01*
X302788Y137578D01*
X302978D01*
Y138238D01*
X302814Y138148D01*
X302813D01*
X302812Y138147D01*
X302803Y138143D01*
X302794Y138139D01*
X302784Y138136D01*
X302778D01*
X302772Y138137D01*
X302767Y138141D01*
X302765Y138143D01*
X302763Y138147D01*
X302760Y138154D01*
X302757Y138164D01*
Y138166D01*
Y138167D01*
Y138171D01*
Y138177D01*
X302756Y138184D01*
Y138190D01*
Y138211D01*
Y138212D01*
Y138214D01*
Y138222D01*
Y138233D01*
Y138242D01*
Y138245D01*
X302757Y138249D01*
X302759Y138256D01*
X302760Y138262D01*
Y138264D01*
X302763Y138268D01*
X302764Y138273D01*
X302768Y138277D01*
X302769Y138279D01*
X302772Y138282D01*
X302776Y138284D01*
X302783Y138288D01*
X303001Y138430D01*
X303002D01*
X303003Y138431D01*
X303010Y138434D01*
X303012D01*
X303014Y138435D01*
X303020Y138436D01*
X303027Y138438D01*
X303028D01*
X303033Y138439D01*
X303054D01*
X303062Y138441D01*
X303123D01*
X303138Y138439D01*
D02*
G37*
G36*
X307989Y138431D02*
X307993Y138428D01*
X307995Y138427D01*
X307997Y138426D01*
X308001Y138422D01*
X308004Y138415D01*
X308005Y138413D01*
X308007Y138408D01*
X308008Y138400D01*
X308010Y138389D01*
Y138388D01*
Y138386D01*
X308011Y138378D01*
X308012Y138365D01*
Y138348D01*
Y138347D01*
Y138344D01*
Y138340D01*
Y138335D01*
X308011Y138322D01*
X308010Y138309D01*
Y138306D01*
X308008Y138301D01*
X308007Y138291D01*
X308004Y138283D01*
X308003Y138282D01*
X308001Y138277D01*
X307997Y138273D01*
X307993Y138269D01*
X307992D01*
X307989Y138268D01*
X307986Y138267D01*
X307981Y138265D01*
X307728D01*
Y137448D01*
Y137446D01*
Y137442D01*
X307725Y137438D01*
X307723Y137433D01*
X307721Y137432D01*
X307719Y137430D01*
X307713Y137426D01*
X307705Y137423D01*
X307704D01*
X307697Y137421D01*
X307687Y137419D01*
X307674Y137418D01*
X307670D01*
X307665Y137417D01*
X307660D01*
X307645Y137415D01*
X307607D01*
X307591Y137417D01*
X307574Y137418D01*
X307572D01*
X307562Y137419D01*
X307553Y137421D01*
X307542Y137423D01*
X307540Y137425D01*
X307536Y137426D01*
X307531Y137429D01*
X307525Y137433D01*
Y137434D01*
X307524Y137437D01*
X307523Y137442D01*
X307521Y137448D01*
Y138265D01*
X307263D01*
X307258Y138267D01*
X307253Y138269D01*
X307252Y138271D01*
X307251Y138272D01*
X307247Y138277D01*
X307244Y138283D01*
Y138284D01*
X307241Y138290D01*
X307240Y138298D01*
X307239Y138309D01*
Y138310D01*
Y138311D01*
Y138320D01*
X307237Y138332D01*
Y138348D01*
Y138349D01*
Y138352D01*
Y138356D01*
Y138363D01*
Y138375D01*
X307239Y138389D01*
Y138390D01*
Y138392D01*
X307240Y138399D01*
X307241Y138407D01*
X307244Y138415D01*
X307245Y138416D01*
X307247Y138420D01*
X307249Y138424D01*
X307253Y138428D01*
X307255Y138430D01*
X307258Y138431D01*
X307262Y138433D01*
X307267Y138434D01*
X307985D01*
X307989Y138431D01*
D02*
G37*
G36*
X306363D02*
X306367Y138428D01*
X306368Y138427D01*
X306369Y138426D01*
X306374Y138422D01*
X306376Y138415D01*
X306378Y138413D01*
X306379Y138408D01*
X306382Y138400D01*
X306383Y138389D01*
Y138388D01*
Y138386D01*
X306384Y138378D01*
X306386Y138365D01*
Y138348D01*
Y138347D01*
Y138344D01*
Y138340D01*
Y138335D01*
X306384Y138322D01*
X306383Y138309D01*
Y138306D01*
X306382Y138299D01*
X306380Y138291D01*
X306376Y138283D01*
Y138282D01*
X306374Y138277D01*
X306371Y138273D01*
X306367Y138269D01*
X306365D01*
X306363Y138268D01*
X306360Y138267D01*
X306354Y138265D01*
X306024D01*
Y137993D01*
X306338D01*
X306342Y137992D01*
X306346Y137989D01*
X306348Y137988D01*
X306349Y137986D01*
X306353Y137982D01*
X306356Y137976D01*
X306357Y137974D01*
X306359Y137969D01*
X306361Y137961D01*
X306363Y137950D01*
Y137947D01*
X306364Y137939D01*
X306365Y137926D01*
Y137910D01*
Y137909D01*
Y137906D01*
Y137902D01*
Y137897D01*
X306364Y137884D01*
X306363Y137871D01*
Y137868D01*
X306361Y137863D01*
X306360Y137853D01*
X306356Y137845D01*
Y137844D01*
X306353Y137839D01*
X306350Y137835D01*
X306346Y137831D01*
X306345D01*
X306342Y137830D01*
X306340Y137829D01*
X306334Y137827D01*
X306024D01*
Y137449D01*
Y137448D01*
Y137444D01*
X306021Y137440D01*
X306019Y137434D01*
X306017Y137433D01*
X306014Y137430D01*
X306010Y137427D01*
X306002Y137423D01*
X305999D01*
X305994Y137421D01*
X305983Y137419D01*
X305970Y137418D01*
X305967D01*
X305961Y137417D01*
X305949D01*
X305941Y137415D01*
X305903D01*
X305887Y137417D01*
X305870Y137418D01*
X305868D01*
X305858Y137419D01*
X305849Y137421D01*
X305838Y137423D01*
X305836Y137425D01*
X305832Y137426D01*
X305827Y137430D01*
X305821Y137434D01*
Y137436D01*
X305820Y137438D01*
X305819Y137444D01*
X305817Y137449D01*
Y138368D01*
Y138370D01*
Y138374D01*
X305819Y138381D01*
X305820Y138388D01*
X305824Y138404D01*
X305828Y138411D01*
X305834Y138417D01*
X305835Y138419D01*
X305836Y138420D01*
X305840Y138423D01*
X305846Y138426D01*
X305859Y138431D01*
X305868Y138434D01*
X306359D01*
X306363Y138431D01*
D02*
G37*
G36*
X306136Y147505D02*
X306146D01*
X306159Y147504D01*
X306185Y147500D01*
X306186D01*
X306191Y147499D01*
X306198Y147497D01*
X306206Y147496D01*
X306217Y147494D01*
X306229Y147492D01*
X306253Y147485D01*
X306254D01*
X306258Y147484D01*
X306263Y147481D01*
X306272Y147478D01*
X306289Y147471D01*
X306308Y147463D01*
X306310D01*
X306312Y147462D01*
X306322Y147456D01*
X306331Y147451D01*
X306337Y147447D01*
X306340Y147444D01*
X306341Y147443D01*
X306344Y147440D01*
X306348Y147436D01*
X306350Y147430D01*
Y147429D01*
X306352Y147426D01*
X306353Y147422D01*
X306354Y147415D01*
Y147414D01*
X306356Y147410D01*
X306357Y147403D01*
X306359Y147394D01*
Y147391D01*
X306360Y147384D01*
Y147373D01*
Y147360D01*
Y147358D01*
Y147356D01*
Y147352D01*
Y147346D01*
Y147334D01*
X306359Y147320D01*
Y147318D01*
X306357Y147312D01*
X306356Y147303D01*
X306354Y147294D01*
Y147293D01*
X306353Y147289D01*
X306350Y147285D01*
X306346Y147281D01*
X306345D01*
X306342Y147280D01*
X306338Y147278D01*
X306333Y147277D01*
X306331D01*
X306326Y147278D01*
X306318Y147281D01*
X306306Y147288D01*
X306304D01*
X306303Y147289D01*
X306299Y147292D01*
X306293Y147294D01*
X306278Y147303D01*
X306259Y147311D01*
X306258D01*
X306254Y147313D01*
X306248Y147316D01*
X306242Y147319D01*
X306232Y147323D01*
X306221Y147327D01*
X306195Y147335D01*
X306194D01*
X306189Y147337D01*
X306182Y147339D01*
X306172Y147341D01*
X306160Y147343D01*
X306148Y147345D01*
X306133Y147346D01*
X306104D01*
X306096Y147345D01*
X306077Y147342D01*
X306057Y147337D01*
X306055D01*
X306053Y147335D01*
X306048Y147334D01*
X306043Y147331D01*
X306029Y147323D01*
X306016Y147313D01*
X306013Y147311D01*
X306006Y147304D01*
X305998Y147293D01*
X305991Y147280D01*
Y147278D01*
X305990Y147275D01*
X305989Y147271D01*
X305987Y147266D01*
X305984Y147252D01*
X305983Y147236D01*
Y147235D01*
Y147231D01*
X305984Y147224D01*
X305986Y147217D01*
X305991Y147198D01*
X305995Y147187D01*
X306001Y147178D01*
X306002Y147176D01*
X306005Y147173D01*
X306009Y147169D01*
X306014Y147162D01*
X306021Y147156D01*
X306029Y147149D01*
X306050Y147134D01*
X306051Y147133D01*
X306055Y147131D01*
X306062Y147127D01*
X306070Y147122D01*
X306081Y147116D01*
X306093Y147111D01*
X306121Y147097D01*
X306122Y147096D01*
X306127Y147095D01*
X306136Y147090D01*
X306145Y147086D01*
X306157Y147081D01*
X306171Y147075D01*
X306199Y147062D01*
X306201Y147061D01*
X306206Y147059D01*
X306214Y147055D01*
X306225Y147050D01*
X306238Y147044D01*
X306251Y147036D01*
X306280Y147020D01*
X306281Y147018D01*
X306287Y147016D01*
X306293Y147010D01*
X306303Y147003D01*
X306314Y146995D01*
X306326Y146984D01*
X306349Y146961D01*
X306350Y146960D01*
X306354Y146956D01*
X306360Y146949D01*
X306367Y146940D01*
X306375Y146929D01*
X306383Y146915D01*
X306391Y146900D01*
X306399Y146884D01*
X306401Y146882D01*
X306402Y146876D01*
X306405Y146866D01*
X306409Y146854D01*
X306413Y146837D01*
X306416Y146820D01*
X306417Y146799D01*
X306418Y146778D01*
Y146776D01*
Y146774D01*
Y146769D01*
Y146764D01*
X306417Y146749D01*
X306414Y146730D01*
X306412Y146708D01*
X306406Y146685D01*
X306398Y146661D01*
X306388Y146638D01*
X306387Y146635D01*
X306383Y146628D01*
X306376Y146617D01*
X306367Y146602D01*
X306356Y146587D01*
X306341Y146570D01*
X306326Y146553D01*
X306307Y146537D01*
X306304Y146536D01*
X306297Y146530D01*
X306288Y146523D01*
X306273Y146514D01*
X306257Y146504D01*
X306236Y146493D01*
X306213Y146484D01*
X306189Y146476D01*
X306187D01*
X306186Y146474D01*
X306182D01*
X306176Y146473D01*
X306163Y146470D01*
X306145Y146466D01*
X306123Y146462D01*
X306097Y146459D01*
X306070Y146458D01*
X306042Y146457D01*
X306023D01*
X306010Y146458D01*
X305995Y146459D01*
X305979Y146461D01*
X305945Y146466D01*
X305944D01*
X305937Y146468D01*
X305929Y146469D01*
X305918Y146472D01*
X305906Y146474D01*
X305892Y146477D01*
X305865Y146485D01*
X305863D01*
X305859Y146488D01*
X305853Y146489D01*
X305844Y146493D01*
X305827Y146502D01*
X305808Y146511D01*
X305806D01*
X305804Y146514D01*
X305796Y146519D01*
X305783Y146526D01*
X305774Y146534D01*
X305772Y146537D01*
X305768Y146542D01*
X305764Y146552D01*
X305760Y146564D01*
Y146565D01*
Y146568D01*
X305759Y146572D01*
Y146578D01*
X305757Y146586D01*
Y146595D01*
X305756Y146606D01*
Y146618D01*
Y146620D01*
Y146623D01*
Y146627D01*
Y146634D01*
Y146646D01*
X305757Y146659D01*
Y146661D01*
Y146662D01*
X305759Y146669D01*
X305760Y146677D01*
X305762Y146685D01*
X305763Y146686D01*
X305764Y146691D01*
X305767Y146696D01*
X305771Y146700D01*
X305772Y146702D01*
X305775Y146703D01*
X305779Y146704D01*
X305785Y146706D01*
X305787D01*
X305793Y146704D01*
X305804Y146700D01*
X305816Y146692D01*
X305817D01*
X305820Y146689D01*
X305824Y146688D01*
X305830Y146684D01*
X305838Y146680D01*
X305846Y146674D01*
X305868Y146663D01*
X305869Y146662D01*
X305873Y146661D01*
X305880Y146658D01*
X305889Y146654D01*
X305900Y146650D01*
X305912Y146644D01*
X305926Y146640D01*
X305942Y146635D01*
X305944D01*
X305951Y146634D01*
X305959Y146631D01*
X305971Y146629D01*
X305986Y146627D01*
X306004Y146624D01*
X306023Y146623D01*
X306057D01*
X306066Y146624D01*
X306077D01*
X306088Y146627D01*
X306111Y146631D01*
X306112D01*
X306117Y146632D01*
X306122Y146635D01*
X306129Y146638D01*
X306145Y146646D01*
X306161Y146657D01*
X306163Y146658D01*
X306165Y146659D01*
X306174Y146668D01*
X306183Y146681D01*
X306193Y146697D01*
Y146699D01*
X306194Y146702D01*
X306197Y146707D01*
X306199Y146714D01*
X306201Y146722D01*
X306204Y146731D01*
X306205Y146752D01*
Y146753D01*
Y146757D01*
X306204Y146764D01*
X306202Y146772D01*
X306197Y146791D01*
X306193Y146801D01*
X306186Y146810D01*
X306185Y146812D01*
X306182Y146814D01*
X306178Y146818D01*
X306172Y146825D01*
X306165Y146832D01*
X306157Y146839D01*
X306136Y146854D01*
X306134Y146855D01*
X306130Y146858D01*
X306125Y146861D01*
X306117Y146866D01*
X306106Y146871D01*
X306095Y146878D01*
X306067Y146890D01*
X306066Y146892D01*
X306061Y146893D01*
X306054Y146897D01*
X306043Y146901D01*
X306032Y146907D01*
X306019Y146912D01*
X305989Y146926D01*
X305987Y146927D01*
X305982Y146929D01*
X305974Y146933D01*
X305964Y146938D01*
X305952Y146945D01*
X305938Y146952D01*
X305910Y146968D01*
X305908Y146969D01*
X305903Y146972D01*
X305896Y146978D01*
X305887Y146984D01*
X305876Y146993D01*
X305865Y147002D01*
X305840Y147025D01*
X305839Y147027D01*
X305835Y147031D01*
X305830Y147039D01*
X305823Y147048D01*
X305816Y147059D01*
X305808Y147073D01*
X305800Y147088D01*
X305791Y147104D01*
X305790Y147107D01*
X305789Y147112D01*
X305786Y147122D01*
X305783Y147135D01*
X305779Y147152D01*
X305777Y147171D01*
X305775Y147191D01*
X305774Y147214D01*
Y147216D01*
Y147217D01*
Y147221D01*
Y147226D01*
X305775Y147240D01*
X305777Y147258D01*
X305781Y147277D01*
X305785Y147299D01*
X305791Y147320D01*
X305800Y147341D01*
X305801Y147343D01*
X305805Y147350D01*
X305810Y147360D01*
X305819Y147373D01*
X305830Y147388D01*
X305842Y147403D01*
X305857Y147418D01*
X305873Y147433D01*
X305876Y147434D01*
X305881Y147439D01*
X305891Y147445D01*
X305904Y147454D01*
X305919Y147463D01*
X305938Y147471D01*
X305959Y147481D01*
X305980Y147488D01*
X305982D01*
X305983Y147489D01*
X305991Y147490D01*
X306004Y147493D01*
X306021Y147497D01*
X306040Y147501D01*
X306063Y147504D01*
X306088Y147505D01*
X306114Y147507D01*
X306127D01*
X306136Y147505D01*
D02*
G37*
G36*
X305635Y146948D02*
X305641Y146945D01*
X305642Y146944D01*
X305644Y146942D01*
X305649Y146938D01*
X305651Y146931D01*
X305653Y146930D01*
X305654Y146924D01*
X305657Y146916D01*
X305658Y146906D01*
Y146903D01*
X305660Y146896D01*
X305661Y146884D01*
Y146869D01*
Y146867D01*
Y146862D01*
Y146854D01*
X305660Y146843D01*
X305657Y146823D01*
X305654Y146813D01*
X305651Y146805D01*
Y146803D01*
X305650Y146802D01*
X305644Y146797D01*
X305636Y146790D01*
X305631Y146789D01*
X305624Y146787D01*
X305296D01*
X305288Y146790D01*
X305279Y146795D01*
X305275Y146799D01*
X305271Y146805D01*
Y146806D01*
X305269Y146809D01*
X305268Y146813D01*
X305266Y146820D01*
X305265Y146829D01*
X305264Y146840D01*
X305262Y146854D01*
Y146869D01*
Y146870D01*
Y146876D01*
Y146884D01*
X305264Y146893D01*
X305266Y146914D01*
X305268Y146922D01*
X305271Y146930D01*
Y146931D01*
X305272Y146933D01*
X305277Y146940D01*
X305286Y146946D01*
X305292Y146948D01*
X305299Y146949D01*
X305630D01*
X305635Y146948D01*
D02*
G37*
G36*
X307833Y147492D02*
X307841D01*
X307849Y147490D01*
X307852D01*
X307860Y147489D01*
X307868Y147485D01*
X307876Y147479D01*
X307878Y147478D01*
X307880Y147473D01*
X307885Y147465D01*
Y147454D01*
Y147452D01*
Y147451D01*
X307883Y147447D01*
Y147441D01*
X307880Y147428D01*
X307876Y147409D01*
X307644Y146527D01*
Y146526D01*
X307642Y146525D01*
X307640Y146517D01*
X307636Y146506D01*
X307630Y146496D01*
X307629Y146495D01*
X307625Y146491D01*
X307617Y146485D01*
X307606Y146480D01*
X307604D01*
X307603Y146478D01*
X307599D01*
X307595Y146477D01*
X307581Y146474D01*
X307563Y146473D01*
X307559D01*
X307553Y146472D01*
X307536D01*
X307525Y146470D01*
X307472D01*
X307449Y146472D01*
X307437D01*
X307426Y146473D01*
X307422D01*
X307417Y146474D01*
X307411D01*
X307396Y146477D01*
X307383Y146480D01*
X307380Y146481D01*
X307375Y146484D01*
X307366Y146489D01*
X307360Y146496D01*
X307358Y146499D01*
X307355Y146504D01*
X307353Y146515D01*
X307350Y146527D01*
X307187Y147169D01*
X307185D01*
X307032Y146527D01*
Y146526D01*
X307030Y146525D01*
X307029Y146517D01*
X307025Y146507D01*
X307021Y146497D01*
X307019Y146496D01*
X307015Y146491D01*
X307009Y146485D01*
X306998Y146480D01*
X306995Y146478D01*
X306987Y146477D01*
X306975Y146474D01*
X306957Y146473D01*
X306953D01*
X306946Y146472D01*
X306928D01*
X306918Y146470D01*
X306862D01*
X306839Y146472D01*
X306826D01*
X306816Y146473D01*
X306811D01*
X306806Y146474D01*
X306801D01*
X306786Y146477D01*
X306772Y146480D01*
X306769Y146481D01*
X306764Y146484D01*
X306757Y146489D01*
X306750Y146496D01*
X306749Y146499D01*
X306746Y146504D01*
X306742Y146515D01*
X306738Y146527D01*
X306508Y147411D01*
Y147413D01*
X306507Y147415D01*
X306505Y147421D01*
X306504Y147428D01*
X306501Y147441D01*
X306500Y147455D01*
Y147456D01*
Y147458D01*
X306501Y147465D01*
X306504Y147473D01*
X306509Y147479D01*
X306511Y147481D01*
X306518Y147485D01*
X306527Y147488D01*
X306541Y147490D01*
X306545D01*
X306550Y147492D01*
X306567D01*
X306577Y147493D01*
X306644D01*
X306654Y147492D01*
X306666D01*
X306674Y147490D01*
X306685Y147489D01*
X306695Y147485D01*
X306696Y147484D01*
X306701Y147482D01*
X306705Y147478D01*
X306709Y147473D01*
X306711Y147471D01*
X306712Y147467D01*
X306714Y147459D01*
X306716Y147450D01*
X306893Y146674D01*
X306894D01*
X307079Y147444D01*
Y147445D01*
Y147447D01*
X307081Y147452D01*
X307083Y147460D01*
X307086Y147468D01*
X307087Y147470D01*
X307090Y147474D01*
X307096Y147479D01*
X307104Y147484D01*
X307107Y147485D01*
X307112Y147486D01*
X307123Y147489D01*
X307137Y147490D01*
X307140D01*
X307145Y147492D01*
X307160D01*
X307171Y147493D01*
X307215D01*
X307234Y147492D01*
X307245D01*
X307253Y147490D01*
X307262D01*
X307267Y147489D01*
X307278Y147488D01*
X307289Y147484D01*
X307292Y147482D01*
X307296Y147481D01*
X307301Y147477D01*
X307307Y147470D01*
X307308Y147468D01*
X307309Y147463D01*
X307312Y147455D01*
X307315Y147444D01*
X307506Y146674D01*
X307508D01*
X307686Y147448D01*
Y147451D01*
X307687Y147455D01*
X307690Y147462D01*
X307691Y147468D01*
X307693Y147470D01*
X307695Y147474D01*
X307699Y147479D01*
X307706Y147484D01*
X307709Y147485D01*
X307715Y147486D01*
X307725Y147489D01*
X307739Y147490D01*
X307743D01*
X307747Y147492D01*
X307762D01*
X307772Y147493D01*
X307815D01*
X307833Y147492D01*
D02*
G37*
G36*
X305147D02*
X305155D01*
X305163Y147490D01*
X305166D01*
X305174Y147488D01*
X305184Y147484D01*
X305190Y147478D01*
X305192Y147477D01*
X305194Y147473D01*
X305196Y147465D01*
Y147454D01*
Y147452D01*
Y147451D01*
X305194Y147447D01*
X305193Y147441D01*
X305189Y147428D01*
X305184Y147409D01*
X304882Y146510D01*
X304880Y146508D01*
X304879Y146503D01*
X304875Y146496D01*
X304871Y146489D01*
X304869Y146488D01*
X304867Y146485D01*
X304860Y146481D01*
X304850Y146477D01*
X304848D01*
X304841Y146474D01*
X304829Y146473D01*
X304812Y146472D01*
X304795D01*
X304786Y146470D01*
X304712D01*
X304694Y146472D01*
X304668D01*
X304656Y146473D01*
X304653D01*
X304648Y146474D01*
X304640Y146476D01*
X304631Y146477D01*
X304630D01*
X304626Y146478D01*
X304615Y146484D01*
X304614Y146485D01*
X304611Y146488D01*
X304604Y146496D01*
Y146497D01*
X304603Y146500D01*
X304601Y146506D01*
X304599Y146512D01*
X304297Y147411D01*
Y147413D01*
X304295Y147415D01*
X304294Y147421D01*
X304291Y147428D01*
X304287Y147441D01*
X304285Y147455D01*
Y147456D01*
Y147458D01*
Y147465D01*
X304287Y147474D01*
X304293Y147481D01*
X304295Y147482D01*
X304301Y147485D01*
X304312Y147489D01*
X304327Y147490D01*
X304331D01*
X304336Y147492D01*
X304353D01*
X304363Y147493D01*
X304412D01*
X304431Y147492D01*
X304441D01*
X304449Y147490D01*
X304453D01*
X304461Y147489D01*
X304471Y147488D01*
X304480Y147485D01*
X304482Y147484D01*
X304486Y147482D01*
X304491Y147478D01*
X304495Y147473D01*
X304497Y147471D01*
X304498Y147467D01*
X304501Y147462D01*
X304503Y147454D01*
X304750Y146673D01*
X304751D01*
X304993Y147450D01*
Y147452D01*
X304995Y147458D01*
X304997Y147465D01*
X305000Y147471D01*
X305001Y147473D01*
X305004Y147475D01*
X305009Y147479D01*
X305016Y147484D01*
X305019Y147485D01*
X305024Y147486D01*
X305035Y147489D01*
X305049Y147490D01*
X305053D01*
X305058Y147492D01*
X305073D01*
X305083Y147493D01*
X305128D01*
X305147Y147492D01*
D02*
G37*
G36*
X304108Y147486D02*
X304112Y147484D01*
X304113Y147482D01*
X304116Y147481D01*
X304120Y147475D01*
X304123Y147468D01*
X304124Y147467D01*
X304125Y147462D01*
X304128Y147454D01*
X304130Y147441D01*
Y147440D01*
Y147439D01*
X304131Y147430D01*
X304132Y147417D01*
Y147400D01*
Y147399D01*
Y147392D01*
Y147384D01*
X304131Y147375D01*
X304128Y147353D01*
X304125Y147342D01*
X304123Y147333D01*
Y147331D01*
X304121Y147330D01*
X304117Y147323D01*
X304109Y147315D01*
X304105Y147313D01*
X304100Y147312D01*
X303739D01*
Y147096D01*
X303743D01*
X303749Y147097D01*
X303757D01*
X303773Y147099D01*
X303794Y147100D01*
X303803D01*
X303811Y147101D01*
X303863D01*
X303879Y147100D01*
X303898Y147099D01*
X303921Y147096D01*
X303946Y147093D01*
X303972Y147088D01*
X303996Y147081D01*
X303998D01*
X303999Y147080D01*
X304007Y147077D01*
X304019Y147073D01*
X304034Y147067D01*
X304051Y147059D01*
X304068Y147048D01*
X304086Y147037D01*
X304104Y147024D01*
X304105Y147022D01*
X304111Y147017D01*
X304119Y147009D01*
X304128Y146998D01*
X304139Y146986D01*
X304150Y146969D01*
X304161Y146952D01*
X304170Y146931D01*
X304172Y146929D01*
X304174Y146922D01*
X304177Y146911D01*
X304183Y146895D01*
X304187Y146877D01*
X304189Y146855D01*
X304192Y146831D01*
X304193Y146803D01*
Y146802D01*
Y146799D01*
Y146795D01*
Y146790D01*
X304192Y146775D01*
X304189Y146755D01*
X304187Y146731D01*
X304181Y146707D01*
X304173Y146681D01*
X304164Y146657D01*
Y146655D01*
X304162Y146654D01*
X304158Y146646D01*
X304151Y146634D01*
X304143Y146618D01*
X304131Y146601D01*
X304117Y146583D01*
X304101Y146564D01*
X304083Y146546D01*
X304081Y146545D01*
X304074Y146540D01*
X304063Y146531D01*
X304048Y146522D01*
X304030Y146511D01*
X304009Y146500D01*
X303984Y146489D01*
X303958Y146480D01*
X303957D01*
X303955Y146478D01*
X303951Y146477D01*
X303946Y146476D01*
X303938Y146474D01*
X303930Y146473D01*
X303911Y146469D01*
X303886Y146464D01*
X303859Y146461D01*
X303828Y146458D01*
X303795Y146457D01*
X303779D01*
X303766Y146458D01*
X303753D01*
X303738Y146459D01*
X303705Y146464D01*
X303704D01*
X303698Y146465D01*
X303690Y146466D01*
X303679Y146468D01*
X303668Y146469D01*
X303655Y146472D01*
X303629Y146477D01*
X303628D01*
X303624Y146478D01*
X303618Y146481D01*
X303610Y146483D01*
X303592Y146489D01*
X303575Y146496D01*
X303573D01*
X303571Y146497D01*
X303562Y146502D01*
X303553Y146507D01*
X303549Y146508D01*
X303546Y146511D01*
X303545Y146512D01*
X303542Y146515D01*
X303539Y146519D01*
X303537Y146523D01*
Y146525D01*
X303535Y146527D01*
X303534Y146533D01*
X303531Y146540D01*
Y146541D01*
X303530Y146546D01*
Y146555D01*
X303528Y146565D01*
Y146567D01*
Y146568D01*
Y146575D01*
Y146587D01*
Y146601D01*
Y146602D01*
Y146605D01*
Y146609D01*
Y146613D01*
Y146625D01*
X303530Y146638D01*
Y146639D01*
Y146640D01*
X303531Y146646D01*
X303533Y146654D01*
X303534Y146662D01*
X303535Y146663D01*
X303537Y146668D01*
X303539Y146672D01*
X303542Y146676D01*
X303543Y146677D01*
X303546Y146678D01*
X303550Y146680D01*
X303556D01*
X303560Y146678D01*
X303567Y146676D01*
X303577Y146670D01*
X303579D01*
X303580Y146669D01*
X303584Y146666D01*
X303588Y146665D01*
X303602Y146658D01*
X303620Y146650D01*
X303621D01*
X303625Y146649D01*
X303630Y146646D01*
X303637Y146643D01*
X303647Y146640D01*
X303658Y146636D01*
X303683Y146629D01*
X303685D01*
X303690Y146628D01*
X303698Y146627D01*
X303709Y146625D01*
X303723Y146624D01*
X303738Y146623D01*
X303755Y146621D01*
X303791D01*
X303802Y146623D01*
X303814D01*
X303828Y146625D01*
X303856Y146629D01*
X303857D01*
X303863Y146631D01*
X303870Y146634D01*
X303878Y146636D01*
X303900Y146646D01*
X303920Y146659D01*
X303921Y146661D01*
X303924Y146663D01*
X303930Y146668D01*
X303935Y146674D01*
X303941Y146682D01*
X303947Y146691D01*
X303959Y146712D01*
X303961Y146714D01*
X303962Y146718D01*
X303965Y146725D01*
X303968Y146734D01*
X303970Y146745D01*
X303972Y146757D01*
X303975Y146771D01*
Y146787D01*
Y146789D01*
Y146794D01*
Y146801D01*
X303973Y146810D01*
X303969Y146832D01*
X303962Y146854D01*
Y146855D01*
X303959Y146859D01*
X303957Y146865D01*
X303953Y146871D01*
X303941Y146888D01*
X303924Y146904D01*
X303923Y146906D01*
X303920Y146908D01*
X303915Y146911D01*
X303906Y146916D01*
X303897Y146921D01*
X303886Y146926D01*
X303874Y146931D01*
X303859Y146935D01*
X303857D01*
X303852Y146937D01*
X303844Y146940D01*
X303832Y146941D01*
X303818Y146944D01*
X303802Y146945D01*
X303783Y146946D01*
X303735D01*
X303723Y146945D01*
X303708Y146944D01*
X303679Y146941D01*
X303673D01*
X303666Y146940D01*
X303658D01*
X303647Y146938D01*
X303635D01*
X303610Y146937D01*
X303606D01*
X303598Y146938D01*
X303587Y146941D01*
X303577Y146948D01*
X303576Y146950D01*
X303575Y146953D01*
X303573Y146957D01*
X303571Y146963D01*
X303569Y146969D01*
X303568Y146979D01*
Y146990D01*
Y147429D01*
Y147430D01*
Y147434D01*
Y147440D01*
X303569Y147447D01*
X303572Y147462D01*
X303575Y147468D01*
X303579Y147474D01*
Y147475D01*
X303581Y147477D01*
X303588Y147482D01*
X303601Y147486D01*
X303609Y147489D01*
X304104D01*
X304108Y147486D01*
D02*
G37*
G36*
X303138Y147494D02*
X303141D01*
X303149Y147493D01*
X303158Y147492D01*
X303167Y147490D01*
X303168D01*
X303172Y147489D01*
X303176Y147486D01*
X303179Y147482D01*
X303180Y147481D01*
X303182Y147479D01*
X303183Y147475D01*
Y147471D01*
Y146634D01*
X303353D01*
X303357Y146631D01*
X303361Y146628D01*
X303362Y146627D01*
X303364Y146625D01*
X303368Y146621D01*
X303371Y146615D01*
X303372Y146613D01*
X303373Y146608D01*
X303376Y146599D01*
X303377Y146590D01*
Y146587D01*
X303379Y146579D01*
X303380Y146568D01*
Y146552D01*
Y146551D01*
Y146548D01*
Y146544D01*
Y146540D01*
X303379Y146527D01*
X303377Y146515D01*
Y146512D01*
X303376Y146507D01*
X303373Y146499D01*
X303371Y146491D01*
Y146489D01*
X303368Y146485D01*
X303365Y146481D01*
X303361Y146477D01*
X303360D01*
X303357Y146476D01*
X303353Y146474D01*
X302784D01*
X302776Y146477D01*
X302775Y146478D01*
X302774Y146480D01*
X302769Y146485D01*
X302767Y146491D01*
Y146492D01*
X302764Y146497D01*
X302763Y146506D01*
X302760Y146515D01*
Y146517D01*
Y146518D01*
Y146526D01*
X302759Y146537D01*
Y146552D01*
Y146553D01*
Y146556D01*
Y146560D01*
Y146565D01*
Y146578D01*
X302760Y146590D01*
Y146591D01*
Y146593D01*
X302761Y146598D01*
X302763Y146606D01*
X302765Y146615D01*
X302767Y146616D01*
X302769Y146620D01*
X302772Y146624D01*
X302776Y146628D01*
X302778Y146629D01*
X302780Y146631D01*
X302784Y146632D01*
X302788Y146634D01*
X302978D01*
Y147293D01*
X302814Y147203D01*
X302813D01*
X302812Y147202D01*
X302803Y147198D01*
X302794Y147194D01*
X302784Y147191D01*
X302778D01*
X302772Y147193D01*
X302767Y147196D01*
X302765Y147198D01*
X302763Y147202D01*
X302760Y147209D01*
X302757Y147220D01*
Y147221D01*
Y147222D01*
Y147226D01*
Y147232D01*
X302756Y147239D01*
Y147246D01*
Y147266D01*
Y147267D01*
Y147269D01*
Y147277D01*
Y147288D01*
Y147297D01*
Y147300D01*
X302757Y147304D01*
X302759Y147311D01*
X302760Y147318D01*
Y147319D01*
X302763Y147323D01*
X302764Y147328D01*
X302768Y147333D01*
X302769Y147334D01*
X302772Y147337D01*
X302776Y147339D01*
X302783Y147343D01*
X303001Y147485D01*
X303002D01*
X303003Y147486D01*
X303010Y147489D01*
X303012D01*
X303014Y147490D01*
X303020Y147492D01*
X303027Y147493D01*
X303028D01*
X303033Y147494D01*
X303054D01*
X303062Y147496D01*
X303123D01*
X303138Y147494D01*
D02*
G37*
%LPC*%
G36*
X295865Y118468D02*
X295745D01*
Y118205D01*
X295874D01*
X295885Y118207D01*
X295908Y118210D01*
X295919Y118212D01*
X295930Y118215D01*
X295931D01*
X295934Y118216D01*
X295939Y118219D01*
X295946Y118223D01*
X295960Y118231D01*
X295975Y118244D01*
X295976Y118245D01*
X295977Y118248D01*
X295980Y118250D01*
X295984Y118256D01*
X295994Y118269D01*
X296001Y118287D01*
Y118288D01*
X296002Y118291D01*
X296003Y118297D01*
X296006Y118303D01*
X296009Y118320D01*
X296010Y118339D01*
Y118340D01*
Y118344D01*
Y118350D01*
X296009Y118358D01*
X296006Y118376D01*
X296001Y118393D01*
Y118394D01*
X295999Y118397D01*
X295996Y118401D01*
X295994Y118408D01*
X295984Y118420D01*
X295972Y118434D01*
X295971Y118435D01*
X295969Y118437D01*
X295964Y118439D01*
X295958Y118444D01*
X295943Y118452D01*
X295924Y118458D01*
X295923D01*
X295919Y118460D01*
X295914Y118461D01*
X295904Y118464D01*
X295893Y118465D01*
X295881Y118467D01*
X295865Y118468D01*
D02*
G37*
G36*
X295886Y118054D02*
X295745D01*
Y117766D01*
X295908D01*
X295919Y117768D01*
X295942Y117770D01*
X295954Y117772D01*
X295965Y117774D01*
X295967D01*
X295971Y117776D01*
X295976Y117778D01*
X295983Y117781D01*
X295999Y117789D01*
X296017Y117801D01*
X296018Y117803D01*
X296021Y117804D01*
X296025Y117808D01*
X296029Y117814D01*
X296040Y117827D01*
X296051Y117845D01*
Y117846D01*
X296052Y117849D01*
X296055Y117855D01*
X296058Y117863D01*
X296059Y117871D01*
X296062Y117882D01*
X296063Y117905D01*
Y117906D01*
Y117910D01*
Y117917D01*
X296062Y117927D01*
X296058Y117946D01*
X296051Y117967D01*
Y117969D01*
X296048Y117973D01*
X296045Y117977D01*
X296041Y117984D01*
X296030Y118000D01*
X296016Y118015D01*
X296014Y118016D01*
X296011Y118018D01*
X296007Y118022D01*
X296001Y118026D01*
X295992Y118030D01*
X295983Y118035D01*
X295971Y118040D01*
X295958Y118044D01*
X295957D01*
X295952Y118045D01*
X295945Y118048D01*
X295934Y118049D01*
X295920Y118052D01*
X295904Y118053D01*
X295886Y118054D01*
D02*
G37*
G36*
X296806Y118429D02*
X296804D01*
X296661Y117997D01*
X296949D01*
X296806Y118429D01*
D02*
G37*
%LPD*%
D10*
X216378Y33071D02*
Y33858D01*
Y33071D01*
X296260Y138779D02*
X296235Y139777D01*
X296159Y140771D01*
X296033Y141760D01*
X295857Y142742D01*
X295631Y143714D01*
X295357Y144673D01*
X295035Y145616D01*
X294665Y146542D01*
X294248Y147449D01*
X293786Y148333D01*
X293280Y149192D01*
X292732Y150025D01*
X292141Y150829D01*
X291511Y151602D01*
X290842Y152342D01*
X290137Y153047D01*
X289397Y153716D01*
X288624Y154346D01*
X287820Y154936D01*
X286987Y155485D01*
X286128Y155991D01*
X285244Y156453D01*
X284338Y156869D01*
X283412Y157239D01*
X282468Y157562D01*
X281509Y157836D01*
X280537Y158062D01*
X279556Y158238D01*
X278566Y158364D01*
X277572Y158439D01*
X276575Y158465D01*
X275578Y158439D01*
X274583Y158364D01*
X273594Y158238D01*
X272612Y158062D01*
X271641Y157836D01*
X270682Y157562D01*
X269738Y157239D01*
X268812Y156869D01*
X267906Y156453D01*
X267022Y155991D01*
X266162Y155485D01*
X265329Y154936D01*
X264526Y154346D01*
X263753Y153716D01*
X263012Y153047D01*
X262307Y152342D01*
X261639Y151602D01*
X261008Y150829D01*
X260418Y150025D01*
X259869Y149192D01*
X259363Y148333D01*
X258902Y147449D01*
X258485Y146542D01*
X258115Y145616D01*
X257792Y144673D01*
X257518Y143714D01*
X257293Y142742D01*
X257117Y141760D01*
X256991Y140771D01*
X256915Y139777D01*
X256890Y138779D01*
X256915Y137783D01*
X256991Y136788D01*
X257117Y135799D01*
X257293Y134817D01*
X257518Y133845D01*
X257792Y132887D01*
X258115Y131943D01*
X258485Y131017D01*
X258902Y130110D01*
X259363Y129226D01*
X259869Y128367D01*
X260418Y127534D01*
X261008Y126730D01*
X261639Y125957D01*
X262307Y125217D01*
X263013Y124512D01*
X263753Y123843D01*
X264526Y123213D01*
X265329Y122623D01*
X266162Y122074D01*
X267022Y121568D01*
X267906Y121106D01*
X268812Y120690D01*
X269738Y120320D01*
X270682Y119997D01*
X271641Y119723D01*
X272612Y119497D01*
X273594Y119322D01*
X274583Y119195D01*
X275578Y119120D01*
X276575Y119095D01*
X277572Y119120D01*
X278566Y119195D01*
X279556Y119322D01*
X280537Y119498D01*
X281509Y119723D01*
X282468Y119997D01*
X283412Y120320D01*
X284338Y120690D01*
X285244Y121106D01*
X286128Y121568D01*
X286987Y122074D01*
X287820Y122623D01*
X288624Y123213D01*
X289397Y123843D01*
X290137Y124512D01*
X290842Y125217D01*
X291511Y125957D01*
X292141Y126730D01*
X292732Y127534D01*
X293280Y128367D01*
X293786Y129226D01*
X294248Y130110D01*
X294665Y131017D01*
X295035Y131943D01*
X295357Y132887D01*
X295632Y133845D01*
X295857Y134817D01*
X296033Y135799D01*
X296159Y136788D01*
X296235Y137783D01*
X296260Y138779D01*
X216378Y163386D02*
Y164173D01*
Y163386D01*
X296260Y97441D02*
X296235Y98438D01*
X296159Y99432D01*
X296033Y100422D01*
X295857Y101403D01*
X295631Y102375D01*
X295357Y103334D01*
X295035Y104278D01*
X294665Y105204D01*
X294248Y106110D01*
X293786Y106994D01*
X293280Y107854D01*
X292732Y108686D01*
X292141Y109490D01*
X291511Y110263D01*
X290842Y111003D01*
X290137Y111708D01*
X289397Y112377D01*
X288624Y113007D01*
X287820Y113598D01*
X286987Y114146D01*
X286128Y114653D01*
X285244Y115114D01*
X284338Y115531D01*
X283412Y115901D01*
X282468Y116223D01*
X281509Y116498D01*
X280537Y116723D01*
X279556Y116899D01*
X278566Y117025D01*
X277572Y117101D01*
X276575Y117126D01*
X275578Y117101D01*
X274583Y117025D01*
X273594Y116899D01*
X272612Y116723D01*
X271641Y116498D01*
X270682Y116223D01*
X269738Y115901D01*
X268812Y115531D01*
X267906Y115114D01*
X267022Y114653D01*
X266162Y114146D01*
X265329Y113598D01*
X264526Y113007D01*
X263753Y112377D01*
X263012Y111708D01*
X262307Y111003D01*
X261639Y110263D01*
X261008Y109490D01*
X260418Y108686D01*
X259869Y107854D01*
X259363Y106994D01*
X258902Y106110D01*
X258485Y105204D01*
X258115Y104278D01*
X257792Y103334D01*
X257518Y102375D01*
X257293Y101403D01*
X257117Y100422D01*
X256991Y99432D01*
X256915Y98438D01*
X256890Y97441D01*
X256915Y96444D01*
X256991Y95449D01*
X257117Y94460D01*
X257293Y93478D01*
X257518Y92507D01*
X257792Y91548D01*
X258115Y90604D01*
X258485Y89678D01*
X258902Y88772D01*
X259363Y87888D01*
X259869Y87028D01*
X260418Y86195D01*
X261008Y85392D01*
X261639Y84619D01*
X262307Y83879D01*
X263013Y83173D01*
X263753Y82505D01*
X264526Y81875D01*
X265329Y81284D01*
X266162Y80735D01*
X267022Y80229D01*
X267906Y79768D01*
X268812Y79351D01*
X269738Y78981D01*
X270682Y78659D01*
X271641Y78384D01*
X272612Y78159D01*
X273594Y77983D01*
X274583Y77857D01*
X275578Y77781D01*
X276575Y77756D01*
X277572Y77781D01*
X278566Y77857D01*
X279556Y77983D01*
X280537Y78159D01*
X281509Y78384D01*
X282468Y78659D01*
X283412Y78981D01*
X284338Y79351D01*
X285244Y79768D01*
X286128Y80229D01*
X286987Y80735D01*
X287820Y81284D01*
X288624Y81875D01*
X289397Y82505D01*
X290137Y83173D01*
X290842Y83879D01*
X291511Y84619D01*
X292141Y85392D01*
X292732Y86196D01*
X293280Y87028D01*
X293786Y87888D01*
X294248Y88772D01*
X294665Y89678D01*
X295035Y90604D01*
X295357Y91548D01*
X295632Y92507D01*
X295857Y93479D01*
X296033Y94460D01*
X296159Y95450D01*
X296235Y96444D01*
X296260Y97441D01*
X254921D02*
X254896Y98438D01*
X254820Y99432D01*
X254694Y100422D01*
X254518Y101403D01*
X254293Y102375D01*
X254018Y103334D01*
X253696Y104278D01*
X253326Y105204D01*
X252909Y106110D01*
X252448Y106994D01*
X251942Y107854D01*
X251393Y108686D01*
X250803Y109490D01*
X250172Y110263D01*
X249504Y111003D01*
X248799Y111708D01*
X248059Y112377D01*
X247286Y113007D01*
X246482Y113598D01*
X245649Y114146D01*
X244789Y114653D01*
X243905Y115114D01*
X242999Y115531D01*
X242073Y115901D01*
X241129Y116223D01*
X240170Y116498D01*
X239199Y116723D01*
X238217Y116899D01*
X237228Y117025D01*
X236233Y117101D01*
X235236Y117126D01*
X234239Y117101D01*
X233245Y117025D01*
X232255Y116899D01*
X231274Y116723D01*
X230302Y116498D01*
X229343Y116223D01*
X228399Y115901D01*
X227473Y115531D01*
X226567Y115114D01*
X225683Y114653D01*
X224823Y114146D01*
X223991Y113598D01*
X223187Y113007D01*
X222414Y112377D01*
X221674Y111708D01*
X220969Y111003D01*
X220300Y110263D01*
X219670Y109490D01*
X219079Y108686D01*
X218531Y107854D01*
X218025Y106994D01*
X217563Y106110D01*
X217146Y105204D01*
X216776Y104278D01*
X216454Y103334D01*
X216180Y102375D01*
X215954Y101403D01*
X215778Y100422D01*
X215652Y99432D01*
X215576Y98438D01*
X215551Y97441D01*
X215577Y96444D01*
X215652Y95449D01*
X215778Y94460D01*
X215954Y93478D01*
X216180Y92507D01*
X216454Y91548D01*
X216776Y90604D01*
X217146Y89678D01*
X217563Y88772D01*
X218025Y87888D01*
X218531Y87028D01*
X219079Y86195D01*
X219670Y85392D01*
X220300Y84619D01*
X220969Y83879D01*
X221674Y83173D01*
X222414Y82505D01*
X223187Y81875D01*
X223991Y81284D01*
X224824Y80735D01*
X225683Y80229D01*
X226567Y79768D01*
X227473Y79351D01*
X228400Y78981D01*
X229343Y78659D01*
X230302Y78384D01*
X231274Y78159D01*
X232255Y77983D01*
X233245Y77857D01*
X234239Y77781D01*
X235236Y77756D01*
X236233Y77781D01*
X237228Y77857D01*
X238217Y77983D01*
X239199Y78159D01*
X240170Y78384D01*
X241129Y78659D01*
X242073Y78981D01*
X242999Y79351D01*
X243905Y79768D01*
X244790Y80229D01*
X245649Y80735D01*
X246482Y81284D01*
X247286Y81875D01*
X248059Y82505D01*
X248799Y83173D01*
X249504Y83879D01*
X250172Y84619D01*
X250803Y85392D01*
X251393Y86196D01*
X251942Y87028D01*
X252448Y87888D01*
X252910Y88772D01*
X253326Y89678D01*
X253696Y90604D01*
X254018Y91548D01*
X254293Y92507D01*
X254518Y93479D01*
X254694Y94460D01*
X254820Y95450D01*
X254896Y96444D01*
X254921Y97441D01*
Y138779D02*
X254896Y139777D01*
X254820Y140771D01*
X254694Y141760D01*
X254518Y142742D01*
X254293Y143714D01*
X254018Y144673D01*
X253696Y145616D01*
X253326Y146542D01*
X252909Y147449D01*
X252448Y148333D01*
X251942Y149192D01*
X251393Y150025D01*
X250803Y150829D01*
X250172Y151602D01*
X249504Y152342D01*
X248799Y153047D01*
X248059Y153716D01*
X247286Y154346D01*
X246482Y154936D01*
X245649Y155485D01*
X244789Y155991D01*
X243905Y156453D01*
X242999Y156869D01*
X242073Y157239D01*
X241129Y157562D01*
X240170Y157836D01*
X239199Y158062D01*
X238217Y158238D01*
X237228Y158364D01*
X236233Y158439D01*
X235236Y158465D01*
X234239Y158439D01*
X233245Y158364D01*
X232255Y158238D01*
X231274Y158062D01*
X230302Y157836D01*
X229343Y157562D01*
X228399Y157239D01*
X227473Y156869D01*
X226567Y156453D01*
X225683Y155991D01*
X224823Y155485D01*
X223991Y154936D01*
X223187Y154346D01*
X222414Y153716D01*
X221674Y153047D01*
X220969Y152342D01*
X220300Y151602D01*
X219670Y150829D01*
X219079Y150025D01*
X218531Y149192D01*
X218025Y148333D01*
X217563Y147449D01*
X217146Y146542D01*
X216776Y145616D01*
X216454Y144673D01*
X216180Y143714D01*
X215954Y142742D01*
X215778Y141760D01*
X215652Y140771D01*
X215576Y139777D01*
X215551Y138779D01*
X215577Y137783D01*
X215652Y136788D01*
X215778Y135799D01*
X215954Y134817D01*
X216180Y133845D01*
X216454Y132887D01*
X216776Y131943D01*
X217146Y131017D01*
X217563Y130110D01*
X218025Y129226D01*
X218531Y128367D01*
X219079Y127534D01*
X219670Y126730D01*
X220300Y125957D01*
X220969Y125217D01*
X221674Y124512D01*
X222414Y123843D01*
X223187Y123213D01*
X223991Y122623D01*
X224824Y122074D01*
X225683Y121568D01*
X226567Y121106D01*
X227473Y120690D01*
X228400Y120320D01*
X229343Y119997D01*
X230302Y119723D01*
X231274Y119497D01*
X232255Y119322D01*
X233245Y119195D01*
X234239Y119120D01*
X235236Y119095D01*
X236233Y119120D01*
X237228Y119195D01*
X238217Y119322D01*
X239199Y119498D01*
X240170Y119723D01*
X241129Y119997D01*
X242073Y120320D01*
X242999Y120690D01*
X243905Y121106D01*
X244790Y121568D01*
X245649Y122074D01*
X246482Y122623D01*
X247286Y123213D01*
X248059Y123843D01*
X248799Y124512D01*
X249504Y125217D01*
X250172Y125957D01*
X250803Y126730D01*
X251393Y127534D01*
X251942Y128367D01*
X252448Y129226D01*
X252910Y130110D01*
X253326Y131017D01*
X253696Y131943D01*
X254018Y132887D01*
X254293Y133845D01*
X254518Y134817D01*
X254694Y135799D01*
X254820Y136788D01*
X254896Y137783D01*
X254921Y138779D01*
X97441Y152559D02*
X97416Y153556D01*
X97340Y154551D01*
X97214Y155540D01*
X97038Y156522D01*
X96812Y157493D01*
X96538Y158452D01*
X96216Y159396D01*
X95846Y160322D01*
X95429Y161228D01*
X94968Y162112D01*
X94462Y162972D01*
X93913Y163804D01*
X93322Y164608D01*
X92692Y165381D01*
X92023Y166121D01*
X91318Y166827D01*
X90578Y167495D01*
X89805Y168125D01*
X89001Y168716D01*
X88169Y169265D01*
X87309Y169771D01*
X86425Y170232D01*
X85519Y170649D01*
X84593Y171019D01*
X83649Y171341D01*
X82690Y171616D01*
X81718Y171841D01*
X80737Y172017D01*
X79747Y172143D01*
X78753Y172219D01*
X77756Y172244D01*
X76759Y172219D01*
X75764Y172143D01*
X74775Y172017D01*
X73793Y171841D01*
X72822Y171616D01*
X71863Y171341D01*
X70919Y171019D01*
X69993Y170649D01*
X69087Y170232D01*
X68203Y169771D01*
X67343Y169265D01*
X66510Y168716D01*
X65707Y168125D01*
X64934Y167495D01*
X64194Y166827D01*
X63488Y166121D01*
X62820Y165381D01*
X62189Y164608D01*
X61599Y163804D01*
X61050Y162972D01*
X60544Y162112D01*
X60083Y161228D01*
X59666Y160322D01*
X59296Y159396D01*
X58974Y158452D01*
X58699Y157493D01*
X58474Y156522D01*
X58298Y155540D01*
X58172Y154551D01*
X58096Y153556D01*
X58071Y152559D01*
X58096Y151562D01*
X58172Y150567D01*
X58298Y149578D01*
X58474Y148596D01*
X58699Y147625D01*
X58974Y146666D01*
X59296Y145722D01*
X59666Y144796D01*
X60083Y143890D01*
X60544Y143006D01*
X61050Y142146D01*
X61599Y141314D01*
X62190Y140510D01*
X62820Y139737D01*
X63488Y138997D01*
X64194Y138291D01*
X64934Y137623D01*
X65707Y136993D01*
X66510Y136402D01*
X67343Y135853D01*
X68203Y135347D01*
X69087Y134886D01*
X69993Y134469D01*
X70919Y134099D01*
X71863Y133777D01*
X72822Y133502D01*
X73793Y133277D01*
X74775Y133101D01*
X75765Y132975D01*
X76759Y132899D01*
X77756Y132874D01*
X78753Y132899D01*
X79747Y132975D01*
X80737Y133101D01*
X81719Y133277D01*
X82690Y133502D01*
X83649Y133777D01*
X84593Y134099D01*
X85519Y134469D01*
X86425Y134886D01*
X87309Y135347D01*
X88169Y135854D01*
X89001Y136402D01*
X89805Y136993D01*
X90578Y137623D01*
X91318Y138292D01*
X92023Y138997D01*
X92692Y139737D01*
X93322Y140510D01*
X93913Y141314D01*
X94462Y142146D01*
X94968Y143006D01*
X95429Y143890D01*
X95846Y144796D01*
X96216Y145722D01*
X96538Y146666D01*
X96813Y147625D01*
X97038Y148597D01*
X97214Y149578D01*
X97340Y150568D01*
X97416Y151562D01*
X97441Y152559D01*
X377559Y146457D02*
X383071D01*
X77894Y196161D02*
Y197146D01*
X63012Y201673D02*
X63090D01*
X58209Y196161D02*
Y197146D01*
X86752Y211496D02*
X95807D01*
Y199685D02*
Y211496D01*
X86752Y199685D02*
X95807D01*
X86752D02*
Y211496D01*
X79764Y211693D02*
X85374D01*
X77756Y212274D02*
Y213258D01*
X72874Y207746D02*
X72953D01*
X58071Y212274D02*
Y213258D01*
X91280Y217795D02*
Y226850D01*
X378150Y112992D02*
Y118799D01*
X366142Y111614D02*
X377953D01*
X366142Y97047D02*
Y111614D01*
Y97047D02*
X377953D01*
Y111614D01*
X366043Y121161D02*
Y126083D01*
X366417Y127461D02*
X377677D01*
Y128051D01*
X366417D02*
X377677D01*
X366417Y127461D02*
Y128051D01*
X361417Y146457D02*
X366929D01*
X307283Y118110D02*
X312795D01*
X78740Y107874D02*
Y108858D01*
X73858Y103347D02*
X73937D01*
X59055Y107874D02*
Y108858D01*
X66142Y23779D02*
X72047D01*
X73425Y3169D02*
Y22421D01*
Y3169D02*
X86024D01*
Y22421D01*
X73425D02*
X86024D01*
X78878Y91831D02*
Y92815D01*
X63996Y97342D02*
X64075D01*
X59193Y91831D02*
Y92815D01*
X275394Y201969D02*
X294291D01*
X222638Y61319D02*
X234449D01*
X222441Y175197D02*
X234252D01*
X80472Y107776D02*
X86083D01*
X87461Y95768D02*
Y107579D01*
Y95768D02*
X96516D01*
Y107579D01*
X87461D02*
X96516D01*
X91988Y113878D02*
Y122933D01*
X73425Y45079D02*
X86024D01*
Y25787D02*
Y45079D01*
X73425Y25787D02*
X86024D01*
X73425D02*
Y45079D01*
X66043Y45591D02*
X72047D01*
X275176Y34288D02*
X294074D01*
D11*
X81929Y200689D02*
X81191Y201115D01*
Y200263D01*
X81929Y200689D01*
X55020Y208731D02*
X54282Y209157D01*
Y208305D01*
X55020Y208731D01*
X350394Y108268D02*
X349656Y108694D01*
Y107842D01*
X350394Y108268D01*
X56004Y104331D02*
X55266Y104757D01*
Y103904D01*
X56004Y104331D01*
X82913Y96358D02*
X82175Y96785D01*
Y95932D01*
X82913Y96358D01*
D12*
X192362Y93150D02*
Y108071D01*
X114409D02*
X192362D01*
X114409Y73130D02*
Y108071D01*
Y-1772D02*
Y33150D01*
Y-1772D02*
X192382D01*
X192362Y13150D02*
X192382Y-1772D01*
X259744Y183268D02*
Y196260D01*
Y183268D02*
Y196260D01*
X272736Y183268D02*
X272840Y197864D01*
X272736Y183268D02*
X272840Y197864D01*
X259443Y19065D02*
X259547Y33661D01*
X259443Y19065D02*
X259547Y33661D01*
X272539Y20669D02*
Y33661D01*
Y20669D02*
Y33661D01*
X192362Y223465D02*
Y238386D01*
X114409D02*
X192362D01*
X114409Y203445D02*
Y238386D01*
Y128543D02*
Y163465D01*
Y128543D02*
X192382D01*
X192362Y143465D02*
X192382Y128543D01*
X259744Y201969D02*
Y214961D01*
Y201969D02*
Y214961D01*
X272736Y201969D02*
X272840Y216565D01*
X272736Y201969D02*
X272840Y216565D01*
X272518Y39406D02*
Y52398D01*
Y39406D02*
Y52398D01*
X259422Y37802D02*
X259526Y52398D01*
X259422Y37802D02*
X259526Y52398D01*
D13*
X312334Y187295D02*
X315067D01*
X297138D02*
X299871D01*
X297138D02*
Y218216D01*
X312334D02*
X315067D01*
Y187295D02*
Y218216D01*
X304602Y180827D02*
X307602D01*
X306102Y179327D02*
Y182327D01*
X297138Y218216D02*
X299871D01*
X297138Y49909D02*
X299871D01*
X312334D02*
X315067D01*
Y18988D02*
Y49909D01*
X297138Y18988D02*
X299871D01*
X297138D02*
Y49909D01*
X304602Y56378D02*
X307602D01*
X306102Y54878D02*
Y57878D01*
X312334Y18988D02*
X315067D01*
D14*
X70374Y53901D02*
X70046Y54229D01*
X69390D01*
X69062Y53901D01*
Y52589D01*
X69390Y52261D01*
X70046D01*
X70374Y52589D01*
X72342Y54229D02*
X71686Y53901D01*
X71030Y53245D01*
Y52589D01*
X71358Y52261D01*
X72014D01*
X72342Y52589D01*
Y52917D01*
X72014Y53245D01*
X71030D01*
X251837Y120735D02*
X251509Y121063D01*
X250853D01*
X250525Y120735D01*
Y119423D01*
X250853Y119095D01*
X251509D01*
X251837Y119423D01*
X253805Y121063D02*
X252493D01*
Y120079D01*
X253149Y120407D01*
X253477D01*
X253805Y120079D01*
Y119423D01*
X253477Y119095D01*
X252821D01*
X252493Y119423D01*
X251837Y116798D02*
X251509Y117126D01*
X250853D01*
X250525Y116798D01*
Y115486D01*
X250853Y115158D01*
X251509D01*
X251837Y115486D01*
X253477Y115158D02*
Y117126D01*
X252493Y116142D01*
X253805D01*
X258530Y116798D02*
X258202Y117126D01*
X257546D01*
X257218Y116798D01*
Y115486D01*
X257546Y115158D01*
X258202D01*
X258530Y115486D01*
X259186Y116798D02*
X259514Y117126D01*
X260170D01*
X260498Y116798D01*
Y116470D01*
X260170Y116142D01*
X259842D01*
X260170D01*
X260498Y115814D01*
Y115486D01*
X260170Y115158D01*
X259514D01*
X259186Y115486D01*
X58728Y133530D02*
X58399Y133858D01*
X57744D01*
X57416Y133530D01*
Y132218D01*
X57744Y131890D01*
X58399D01*
X58728Y132218D01*
X59383Y133530D02*
X59711Y133858D01*
X60367D01*
X60695Y133530D01*
Y133202D01*
X60367Y132874D01*
X60039D01*
X60367D01*
X60695Y132546D01*
Y132218D01*
X60367Y131890D01*
X59711D01*
X59383Y132218D01*
X61351Y133530D02*
X61679Y133858D01*
X62335D01*
X62663Y133530D01*
Y133202D01*
X62335Y132874D01*
X62007D01*
X62335D01*
X62663Y132546D01*
Y132218D01*
X62335Y131890D01*
X61679D01*
X61351Y132218D01*
X55250Y5381D02*
X54922Y5053D01*
Y4397D01*
X55250Y4069D01*
X56561D01*
X56889Y4397D01*
Y5053D01*
X56561Y5381D01*
X55250Y6037D02*
X54922Y6365D01*
Y7021D01*
X55250Y7349D01*
X55577D01*
X55905Y7021D01*
Y6693D01*
Y7021D01*
X56234Y7349D01*
X56561D01*
X56889Y7021D01*
Y6365D01*
X56561Y6037D01*
X56889Y9317D02*
Y8005D01*
X55577Y9317D01*
X55250D01*
X54922Y8989D01*
Y8333D01*
X55250Y8005D01*
X102887Y5775D02*
X102559Y5447D01*
Y4791D01*
X102887Y4463D01*
X104199D01*
X104527Y4791D01*
Y5447D01*
X104199Y5775D01*
X102887Y6431D02*
X102559Y6759D01*
Y7415D01*
X102887Y7743D01*
X103215D01*
X103543Y7415D01*
Y7087D01*
Y7415D01*
X103871Y7743D01*
X104199D01*
X104527Y7415D01*
Y6759D01*
X104199Y6431D01*
X102887Y8399D02*
X102559Y8726D01*
Y9382D01*
X102887Y9710D01*
X104199D01*
X104527Y9382D01*
Y8726D01*
X104199Y8399D01*
X102887D01*
X58170Y20669D02*
X58826D01*
X58498D01*
Y18701D01*
X58170D01*
X58826D01*
X61122Y20341D02*
X60794Y20669D01*
X60138D01*
X59810Y20341D01*
Y19029D01*
X60138Y18701D01*
X60794D01*
X61122Y19029D01*
X63090Y20669D02*
X61778D01*
Y19685D01*
X62434Y20013D01*
X62762D01*
X63090Y19685D01*
Y19029D01*
X62762Y18701D01*
X62106D01*
X61778Y19029D01*
X96227Y186678D02*
X98195D01*
Y185694D01*
X97867Y185366D01*
X97211D01*
X96883Y185694D01*
Y186678D01*
Y186022D02*
X96227Y185366D01*
Y183398D02*
Y184710D01*
X97539Y183398D01*
X97867D01*
X98195Y183726D01*
Y184382D01*
X97867Y184710D01*
X98195Y181430D02*
Y182742D01*
X97211D01*
X97539Y182086D01*
Y181758D01*
X97211Y181430D01*
X96555D01*
X96227Y181758D01*
Y182414D01*
X96555Y182742D01*
X95899Y180774D02*
Y179463D01*
X98195Y178806D02*
X96227D01*
Y177823D01*
X96555Y177495D01*
X97867D01*
X98195Y177823D01*
Y178806D01*
X96227Y175527D02*
Y176839D01*
X97539Y175527D01*
X97867D01*
X98195Y175855D01*
Y176511D01*
X97867Y176839D01*
X96030Y83003D02*
X97998D01*
Y82020D01*
X97670Y81692D01*
X97014D01*
X96686Y82020D01*
Y83003D01*
Y82348D02*
X96030Y81692D01*
Y79724D02*
Y81036D01*
X97342Y79724D01*
X97670D01*
X97998Y80052D01*
Y80708D01*
X97670Y81036D01*
X97998Y77756D02*
Y79068D01*
X97014D01*
X97342Y78412D01*
Y78084D01*
X97014Y77756D01*
X96358D01*
X96030Y78084D01*
Y78740D01*
X96358Y79068D01*
X95702Y77100D02*
Y75788D01*
X97998Y75132D02*
X96030D01*
Y74148D01*
X96358Y73820D01*
X97670D01*
X97998Y74148D01*
Y75132D01*
X96030Y73164D02*
Y72508D01*
Y72836D01*
X97998D01*
X97670Y73164D01*
X86129Y186757D02*
X88097D01*
Y185773D01*
X87769Y185445D01*
X87113D01*
X86785Y185773D01*
Y186757D01*
Y186101D02*
X86129Y185445D01*
Y183477D02*
Y184789D01*
X87441Y183477D01*
X87769D01*
X88097Y183805D01*
Y184461D01*
X87769Y184789D01*
X86129Y181837D02*
X88097D01*
X87113Y182821D01*
Y181509D01*
X85801Y180853D02*
Y179541D01*
X88097Y178885D02*
X86129D01*
Y177901D01*
X86457Y177573D01*
X87769D01*
X88097Y177901D01*
Y178885D01*
X86129Y175605D02*
Y176917D01*
X87441Y175605D01*
X87769D01*
X88097Y175934D01*
Y176589D01*
X87769Y176917D01*
X86188Y83003D02*
X88156D01*
Y82020D01*
X87828Y81692D01*
X87172D01*
X86844Y82020D01*
Y83003D01*
Y82348D02*
X86188Y81692D01*
Y79724D02*
Y81036D01*
X87500Y79724D01*
X87828D01*
X88156Y80052D01*
Y80708D01*
X87828Y81036D01*
X86188Y78084D02*
X88156D01*
X87172Y79068D01*
Y77756D01*
X85860Y77100D02*
Y75788D01*
X88156Y75132D02*
X86188D01*
Y74148D01*
X86516Y73820D01*
X87828D01*
X88156Y74148D01*
Y75132D01*
X86188Y73164D02*
Y72508D01*
Y72836D01*
X88156D01*
X87828Y73164D01*
X80807Y219949D02*
X79495D01*
X79167Y219621D01*
Y218965D01*
X79495Y218637D01*
X80807D01*
X81135Y218965D01*
Y219621D01*
X80479Y219293D02*
X81135Y219949D01*
Y219621D02*
X80807Y219949D01*
X79167Y221916D02*
X79495Y221260D01*
X80151Y220604D01*
X80807D01*
X81135Y220933D01*
Y221588D01*
X80807Y221916D01*
X80479D01*
X80151Y221588D01*
Y220604D01*
X81463Y222572D02*
Y223884D01*
X79167Y224540D02*
X81135D01*
Y225524D01*
X80807Y225852D01*
X79495D01*
X79167Y225524D01*
Y224540D01*
X81135Y227820D02*
Y226508D01*
X79823Y227820D01*
X79495D01*
X79167Y227492D01*
Y226836D01*
X79495Y226508D01*
X81547Y116847D02*
X80235D01*
X79907Y116519D01*
Y115863D01*
X80235Y115535D01*
X81547D01*
X81875Y115863D01*
Y116519D01*
X81219Y116191D02*
X81875Y116847D01*
Y116519D02*
X81547Y116847D01*
X79907Y118815D02*
X80235Y118159D01*
X80891Y117503D01*
X81547D01*
X81875Y117831D01*
Y118487D01*
X81547Y118815D01*
X81219D01*
X80891Y118487D01*
Y117503D01*
X82203Y119471D02*
Y120783D01*
X79907Y121439D02*
X81875D01*
Y122423D01*
X81547Y122751D01*
X80235D01*
X79907Y122423D01*
Y121439D01*
X81875Y123407D02*
Y124063D01*
Y123735D01*
X79907D01*
X80235Y123407D01*
X79232Y184382D02*
X80544D01*
X80872Y184710D01*
Y185366D01*
X80544Y185694D01*
X79232D01*
X78904Y185366D01*
Y184710D01*
X79560Y185038D02*
X78904Y184382D01*
Y184710D02*
X79232Y184382D01*
X80872Y182414D02*
Y183726D01*
X79888D01*
X80216Y183070D01*
Y182742D01*
X79888Y182414D01*
X79232D01*
X78904Y182742D01*
Y183398D01*
X79232Y183726D01*
X78576Y181758D02*
Y180446D01*
X80872Y179790D02*
X78904D01*
Y178806D01*
X79232Y178479D01*
X80544D01*
X80872Y178806D01*
Y179790D01*
X78904Y176511D02*
Y177823D01*
X80216Y176511D01*
X80544D01*
X80872Y176839D01*
Y177495D01*
X80544Y177823D01*
X79232Y77755D02*
X80544D01*
X80872Y78083D01*
Y78739D01*
X80544Y79067D01*
X79232D01*
X78904Y78739D01*
Y78083D01*
X79560Y78411D02*
X78904Y77755D01*
Y78083D02*
X79232Y77755D01*
X80872Y75787D02*
Y77099D01*
X79888D01*
X80216Y76443D01*
Y76115D01*
X79888Y75787D01*
X79232D01*
X78904Y76115D01*
Y76771D01*
X79232Y77099D01*
X78576Y75131D02*
Y73819D01*
X80872Y73163D02*
X78904D01*
Y72179D01*
X79232Y71851D01*
X80544D01*
X80872Y72179D01*
Y73163D01*
X78904Y71195D02*
Y70539D01*
Y70867D01*
X80872D01*
X80544Y71195D01*
X81990Y215715D02*
X82646D01*
X82318D01*
Y213747D01*
X81990D01*
X82646D01*
X84942Y215387D02*
X84614Y215715D01*
X83958D01*
X83630Y215387D01*
Y214075D01*
X83958Y213747D01*
X84614D01*
X84942Y214075D01*
X86582Y213747D02*
Y215715D01*
X85598Y214731D01*
X86910D01*
X87566Y213419D02*
X88877D01*
X89533Y215715D02*
Y213747D01*
X90517D01*
X90845Y214075D01*
Y215387D01*
X90517Y215715D01*
X89533D01*
X92813Y213747D02*
X91501D01*
X92813Y215059D01*
Y215387D01*
X92485Y215715D01*
X91829D01*
X91501Y215387D01*
X80349Y111778D02*
X81005D01*
X80677D01*
Y109810D01*
X80349D01*
X81005D01*
X83301Y111450D02*
X82973Y111778D01*
X82317D01*
X81989Y111450D01*
Y110138D01*
X82317Y109810D01*
X82973D01*
X83301Y110138D01*
X84941Y109810D02*
Y111778D01*
X83957Y110794D01*
X85269D01*
X85925Y109482D02*
X87237D01*
X87893Y111778D02*
Y109810D01*
X88877D01*
X89205Y110138D01*
Y111450D01*
X88877Y111778D01*
X87893D01*
X89861Y109810D02*
X90517D01*
X90189D01*
Y111778D01*
X89861Y111450D01*
X76445Y233103D02*
X76117Y233431D01*
X75461D01*
X75133Y233103D01*
Y231791D01*
X75461Y231464D01*
X76117D01*
X76445Y231791D01*
X78413Y231464D02*
X77101D01*
X78413Y232775D01*
Y233103D01*
X78085Y233431D01*
X77429D01*
X77101Y233103D01*
X79069Y231791D02*
X79397Y231464D01*
X80053D01*
X80381Y231791D01*
Y233103D01*
X80053Y233431D01*
X79397D01*
X79069Y233103D01*
Y232775D01*
X79397Y232447D01*
X80381D01*
X81037Y231136D02*
X82349D01*
X83004Y233431D02*
Y231464D01*
X83988D01*
X84316Y231791D01*
Y233103D01*
X83988Y233431D01*
X83004D01*
X86284Y231464D02*
X84972D01*
X86284Y232775D01*
Y233103D01*
X85956Y233431D01*
X85300D01*
X84972Y233103D01*
X88052Y127100D02*
X87725Y127427D01*
X87069D01*
X86741Y127100D01*
Y125788D01*
X87069Y125460D01*
X87725D01*
X88052Y125788D01*
X90020Y125460D02*
X88708D01*
X90020Y126771D01*
Y127100D01*
X89692Y127427D01*
X89036D01*
X88708Y127100D01*
X90676Y125788D02*
X91004Y125460D01*
X91660D01*
X91988Y125788D01*
Y127100D01*
X91660Y127427D01*
X91004D01*
X90676Y127100D01*
Y126771D01*
X91004Y126444D01*
X91988D01*
X92644Y125132D02*
X93956D01*
X94612Y127427D02*
Y125460D01*
X95596D01*
X95924Y125788D01*
Y127100D01*
X95596Y127427D01*
X94612D01*
X96580Y125460D02*
X97236D01*
X96908D01*
Y127427D01*
X96580Y127100D01*
X92690Y185248D02*
X93018Y185576D01*
Y186232D01*
X92690Y186560D01*
X91378D01*
X91050Y186232D01*
Y185576D01*
X91378Y185248D01*
X91050Y183280D02*
Y184592D01*
X92362Y183280D01*
X92690D01*
X93018Y183608D01*
Y184264D01*
X92690Y184592D01*
Y182624D02*
X93018Y182296D01*
Y181640D01*
X92690Y181312D01*
X92362D01*
X92034Y181640D01*
X91706Y181312D01*
X91378D01*
X91050Y181640D01*
Y182296D01*
X91378Y182624D01*
X91706D01*
X92034Y182296D01*
X92362Y182624D01*
X92690D01*
X92034Y182296D02*
Y181640D01*
X90722Y180656D02*
Y179344D01*
X93018Y178688D02*
X91050D01*
Y177705D01*
X91378Y177376D01*
X92690D01*
X93018Y177705D01*
Y178688D01*
X91050Y175409D02*
Y176721D01*
X92362Y175409D01*
X92690D01*
X93018Y175737D01*
Y176393D01*
X92690Y176721D01*
X92749Y81692D02*
X93077Y82020D01*
Y82675D01*
X92749Y83003D01*
X91437D01*
X91109Y82675D01*
Y82020D01*
X91437Y81692D01*
X91109Y79724D02*
Y81036D01*
X92421Y79724D01*
X92749D01*
X93077Y80052D01*
Y80708D01*
X92749Y81036D01*
Y79068D02*
X93077Y78740D01*
Y78084D01*
X92749Y77756D01*
X92421D01*
X92093Y78084D01*
X91765Y77756D01*
X91437D01*
X91109Y78084D01*
Y78740D01*
X91437Y79068D01*
X91765D01*
X92093Y78740D01*
X92421Y79068D01*
X92749D01*
X92093Y78740D02*
Y78084D01*
X90781Y77100D02*
Y75788D01*
X93077Y75132D02*
X91109D01*
Y74148D01*
X91437Y73820D01*
X92749D01*
X93077Y74148D01*
Y75132D01*
X91109Y73164D02*
Y72508D01*
Y72836D01*
X93077D01*
X92749Y73164D01*
X103182Y185366D02*
X103510Y185694D01*
Y186350D01*
X103182Y186678D01*
X101870D01*
X101542Y186350D01*
Y185694D01*
X101870Y185366D01*
X101542Y183398D02*
Y184710D01*
X102854Y183398D01*
X103182D01*
X103510Y183726D01*
Y184382D01*
X103182Y184710D01*
X103510Y182742D02*
Y181430D01*
X103182D01*
X101870Y182742D01*
X101542D01*
X101214Y180774D02*
Y179463D01*
X103510Y178806D02*
X101542D01*
Y177823D01*
X101870Y177495D01*
X103182D01*
X103510Y177823D01*
Y178806D01*
X101542Y175527D02*
Y176839D01*
X102854Y175527D01*
X103182D01*
X103510Y175855D01*
Y176511D01*
X103182Y176839D01*
X102592Y81692D02*
X102920Y82020D01*
Y82675D01*
X102592Y83003D01*
X101280D01*
X100952Y82675D01*
Y82020D01*
X101280Y81692D01*
X100952Y79724D02*
Y81036D01*
X102264Y79724D01*
X102592D01*
X102920Y80052D01*
Y80708D01*
X102592Y81036D01*
X102920Y79068D02*
Y77756D01*
X102592D01*
X101280Y79068D01*
X100952D01*
X100624Y77100D02*
Y75788D01*
X102920Y75132D02*
X100952D01*
Y74148D01*
X101280Y73820D01*
X102592D01*
X102920Y74148D01*
Y75132D01*
X100952Y73164D02*
Y72508D01*
Y72836D01*
X102920D01*
X102592Y73164D01*
X379003Y156562D02*
X378675Y156889D01*
X378019D01*
X377691Y156562D01*
Y155250D01*
X378019Y154922D01*
X378675D01*
X379003Y155250D01*
X380971Y154922D02*
X379659D01*
X380971Y156234D01*
Y156562D01*
X380643Y156889D01*
X379987D01*
X379659Y156562D01*
X382611Y154922D02*
Y156889D01*
X381627Y155905D01*
X382939D01*
X362861Y156562D02*
X362533Y156889D01*
X361877D01*
X361549Y156562D01*
Y155250D01*
X361877Y154922D01*
X362533D01*
X362861Y155250D01*
X364829Y154922D02*
X363517D01*
X364829Y156234D01*
Y156562D01*
X364501Y156889D01*
X363845D01*
X363517Y156562D01*
X365485D02*
X365813Y156889D01*
X366469D01*
X366797Y156562D01*
Y156234D01*
X366469Y155905D01*
X366141D01*
X366469D01*
X366797Y155578D01*
Y155250D01*
X366469Y154922D01*
X365813D01*
X365485Y155250D01*
X340880Y147638D02*
Y149606D01*
X341864D01*
X342192Y149278D01*
Y148622D01*
X341864Y148294D01*
X340880D01*
X341536D02*
X342192Y147638D01*
X344160D02*
X342848D01*
X344160Y148950D01*
Y149278D01*
X343832Y149606D01*
X343176D01*
X342848Y149278D01*
X344816D02*
X345144Y149606D01*
X345800D01*
X346128Y149278D01*
Y148950D01*
X345800Y148622D01*
X345472D01*
X345800D01*
X346128Y148294D01*
Y147966D01*
X345800Y147638D01*
X345144D01*
X344816Y147966D01*
X347770Y147638D02*
Y149606D01*
X348754D01*
X349082Y149278D01*
Y148622D01*
X348754Y148294D01*
X347770D01*
X348426D02*
X349082Y147638D01*
X351050D02*
X349738D01*
X351050Y148950D01*
Y149278D01*
X350722Y149606D01*
X350066D01*
X349738Y149278D01*
X353017Y147638D02*
X351706D01*
X353017Y148950D01*
Y149278D01*
X352690Y149606D01*
X352034D01*
X351706Y149278D01*
X354988Y147638D02*
Y149606D01*
X355972D01*
X356300Y149278D01*
Y148622D01*
X355972Y148294D01*
X354988D01*
X355644D02*
X356300Y147638D01*
X358267D02*
X356956D01*
X358267Y148950D01*
Y149278D01*
X357939Y149606D01*
X357283D01*
X356956Y149278D01*
X358923Y147638D02*
X359579D01*
X359251D01*
Y149606D01*
X358923Y149278D01*
X354660Y86615D02*
Y88582D01*
X355644D01*
X355972Y88254D01*
Y87598D01*
X355644Y87270D01*
X354660D01*
X355316D02*
X355972Y86615D01*
X357939D02*
X356627D01*
X357939Y87926D01*
Y88254D01*
X357611Y88582D01*
X356956D01*
X356627Y88254D01*
X358595D02*
X358923Y88582D01*
X359579D01*
X359907Y88254D01*
Y86942D01*
X359579Y86615D01*
X358923D01*
X358595Y86942D01*
Y88254D01*
X365650Y81693D02*
Y83661D01*
X366634D01*
X366962Y83333D01*
Y82677D01*
X366634Y82349D01*
X365650D01*
X366306D02*
X366962Y81693D01*
X367618D02*
X368274D01*
X367946D01*
Y83661D01*
X367618Y83333D01*
X369258Y82021D02*
X369586Y81693D01*
X370242D01*
X370570Y82021D01*
Y83333D01*
X370242Y83661D01*
X369586D01*
X369258Y83333D01*
Y83005D01*
X369586Y82677D01*
X370570D01*
X376477Y81693D02*
Y83661D01*
X377461D01*
X377789Y83333D01*
Y82677D01*
X377461Y82349D01*
X376477D01*
X377133D02*
X377789Y81693D01*
X378445D02*
X379101D01*
X378773D01*
Y83661D01*
X378445Y83333D01*
X380085D02*
X380413Y83661D01*
X381069D01*
X381397Y83333D01*
Y83005D01*
X381069Y82677D01*
X381397Y82349D01*
Y82021D01*
X381069Y81693D01*
X380413D01*
X380085Y82021D01*
Y82349D01*
X380413Y82677D01*
X380085Y83005D01*
Y83333D01*
X380413Y82677D02*
X381069D01*
X379922Y130249D02*
X381889D01*
Y129265D01*
X381561Y128937D01*
X380906D01*
X380577Y129265D01*
Y130249D01*
X381561Y126969D02*
X381889Y127297D01*
Y127953D01*
X381561Y128281D01*
X381234D01*
X380906Y127953D01*
Y127297D01*
X380577Y126969D01*
X380250D01*
X379922Y127297D01*
Y127953D01*
X380250Y128281D01*
X379922Y126313D02*
Y125657D01*
Y125985D01*
X381889D01*
X381561Y126313D01*
X364173Y95964D02*
Y95308D01*
Y95636D01*
X362205D01*
Y95964D01*
Y95308D01*
X363845Y93012D02*
X364173Y93340D01*
Y93996D01*
X363845Y94324D01*
X362533D01*
X362205Y93996D01*
Y93340D01*
X362533Y93012D01*
X362205Y91044D02*
Y92356D01*
X363517Y91044D01*
X363845D01*
X364173Y91372D01*
Y92028D01*
X363845Y92356D01*
X87271Y53806D02*
X86943Y54133D01*
X86287D01*
X85959Y53806D01*
Y52494D01*
X86287Y52166D01*
X86943D01*
X87271Y52494D01*
X89239Y52166D02*
X87927D01*
X89239Y53478D01*
Y53806D01*
X88911Y54133D01*
X88255D01*
X87927Y53806D01*
X91207Y54133D02*
X90551Y53806D01*
X89895Y53150D01*
Y52494D01*
X90223Y52166D01*
X90878D01*
X91207Y52494D01*
Y52822D01*
X90878Y53150D01*
X89895D01*
X363845Y112532D02*
X364173Y112860D01*
Y113516D01*
X363845Y113844D01*
X362533D01*
X362205Y113516D01*
Y112860D01*
X362533Y112532D01*
X362205Y110564D02*
Y111876D01*
X363517Y110564D01*
X363845D01*
X364173Y110892D01*
Y111548D01*
X363845Y111876D01*
X364173Y108597D02*
Y109908D01*
X363189D01*
X363517Y109253D01*
Y108925D01*
X363189Y108597D01*
X362533D01*
X362205Y108925D01*
Y109581D01*
X362533Y109908D01*
X77265Y49212D02*
X77921D01*
X77593D01*
Y47244D01*
X77265D01*
X77921D01*
X80216Y48884D02*
X79888Y49212D01*
X79232D01*
X78904Y48884D01*
Y47572D01*
X79232Y47244D01*
X79888D01*
X80216Y47572D01*
X80872Y48884D02*
X81200Y49212D01*
X81856D01*
X82184Y48884D01*
Y48556D01*
X81856Y48228D01*
X81528D01*
X81856D01*
X82184Y47900D01*
Y47572D01*
X81856Y47244D01*
X81200D01*
X80872Y47572D01*
X297901Y229002D02*
X297573Y229330D01*
X296917D01*
X296589Y229002D01*
Y227691D01*
X296917Y227362D01*
X297573D01*
X297901Y227691D01*
X299869Y227362D02*
X298557D01*
X299869Y228674D01*
Y229002D01*
X299541Y229330D01*
X298885D01*
X298557Y229002D01*
X301836Y227362D02*
X300524D01*
X301836Y228674D01*
Y229002D01*
X301508Y229330D01*
X300852D01*
X300524Y229002D01*
X302166Y8530D02*
X301838Y8858D01*
X301182D01*
X300854Y8530D01*
Y7218D01*
X301182Y6890D01*
X301838D01*
X302166Y7218D01*
X304134Y6890D02*
X302822D01*
X304134Y8202D01*
Y8530D01*
X303806Y8858D01*
X303150D01*
X302822Y8530D01*
X304789Y6890D02*
X305445D01*
X305118D01*
Y8858D01*
X304789Y8530D01*
X258530Y120735D02*
X258202Y121063D01*
X257546D01*
X257218Y120735D01*
Y119423D01*
X257546Y119095D01*
X258202D01*
X258530Y119423D01*
X259186Y121063D02*
X260498D01*
Y120735D01*
X259186Y119423D01*
Y119095D01*
X362533Y133859D02*
Y135826D01*
X363517D01*
X363845Y135498D01*
Y134843D01*
X363517Y134514D01*
X362533D01*
X363189D02*
X363845Y133859D01*
X364501Y134187D02*
X364829Y133859D01*
X365485D01*
X365813Y134187D01*
Y135498D01*
X365485Y135826D01*
X364829D01*
X364501Y135498D01*
Y135170D01*
X364829Y134843D01*
X365813D01*
X357612Y133859D02*
Y135826D01*
X358596D01*
X358924Y135498D01*
Y134843D01*
X358596Y134514D01*
X357612D01*
X358268D02*
X358924Y133859D01*
X359580Y135498D02*
X359908Y135826D01*
X360564D01*
X360892Y135498D01*
Y135170D01*
X360564Y134843D01*
X360892Y134514D01*
Y134187D01*
X360564Y133859D01*
X359908D01*
X359580Y134187D01*
Y134514D01*
X359908Y134843D01*
X359580Y135170D01*
Y135498D01*
X359908Y134843D02*
X360564D01*
X340880Y86615D02*
Y88582D01*
X341864D01*
X342192Y88254D01*
Y87598D01*
X341864Y87270D01*
X340880D01*
X341536D02*
X342192Y86615D01*
X342848Y88582D02*
X344160D01*
Y88254D01*
X342848Y86942D01*
Y86615D01*
X322179Y147638D02*
Y149606D01*
X323163D01*
X323491Y149278D01*
Y148622D01*
X323163Y148294D01*
X322179D01*
X322835D02*
X323491Y147638D01*
X325459Y149606D02*
X324803Y149278D01*
X324147Y148622D01*
Y147966D01*
X324475Y147638D01*
X325131D01*
X325459Y147966D01*
Y148294D01*
X325131Y148622D01*
X324147D01*
X322179Y86615D02*
Y88582D01*
X323163D01*
X323491Y88254D01*
Y87598D01*
X323163Y87270D01*
X322179D01*
X322835D02*
X323491Y86615D01*
X325459Y88582D02*
X324147D01*
Y87598D01*
X324803Y87926D01*
X325131D01*
X325459Y87598D01*
Y86942D01*
X325131Y86615D01*
X324475D01*
X324147Y86942D01*
X354527Y100329D02*
X352559D01*
Y101312D01*
X352887Y101640D01*
X353543D01*
X353871Y101312D01*
Y100329D01*
Y100985D02*
X354527Y101640D01*
Y103280D02*
X352559D01*
X353543Y102296D01*
Y103608D01*
X347770Y86615D02*
Y88582D01*
X348753D01*
X349081Y88254D01*
Y87598D01*
X348753Y87270D01*
X347770D01*
X348426D02*
X349081Y86615D01*
X349737Y88254D02*
X350065Y88582D01*
X350721D01*
X351049Y88254D01*
Y87926D01*
X350721Y87598D01*
X350393D01*
X350721D01*
X351049Y87270D01*
Y86942D01*
X350721Y86615D01*
X350065D01*
X349737Y86942D01*
X221785Y191929D02*
Y193897D01*
X222769D01*
X223097Y193569D01*
Y192913D01*
X222769Y192585D01*
X221785D01*
X222441D02*
X223097Y191929D01*
X225065D02*
X223753D01*
X225065Y193241D01*
Y193569D01*
X224737Y193897D01*
X224081D01*
X223753Y193569D01*
X222113Y43307D02*
Y45275D01*
X223097D01*
X223425Y44947D01*
Y44291D01*
X223097Y43963D01*
X222113D01*
X222769D02*
X223425Y43307D01*
X224081D02*
X224737D01*
X224409D01*
Y45275D01*
X224081Y44947D01*
X255567Y213553D02*
Y214865D01*
X255239Y215193D01*
X254583D01*
X254255Y214865D01*
Y213553D01*
X254583Y213225D01*
X255239D01*
X254911Y213881D02*
X255567Y213225D01*
X255239D02*
X255567Y213553D01*
X257207Y213225D02*
Y215193D01*
X256223Y214209D01*
X257535D01*
X240223Y25722D02*
Y27034D01*
X239895Y27362D01*
X239239D01*
X238911Y27034D01*
Y25722D01*
X239239Y25394D01*
X239895D01*
X239567Y26050D02*
X240223Y25394D01*
X239895D02*
X240223Y25722D01*
X240879Y27034D02*
X241207Y27362D01*
X241863D01*
X242191Y27034D01*
Y26706D01*
X241863Y26378D01*
X241535D01*
X241863D01*
X242191Y26050D01*
Y25722D01*
X241863Y25394D01*
X241207D01*
X240879Y25722D01*
X276050Y193832D02*
Y195144D01*
X275722Y195472D01*
X275066D01*
X274738Y195144D01*
Y193832D01*
X275066Y193504D01*
X275722D01*
X275394Y194160D02*
X276050Y193504D01*
X275722D02*
X276050Y193832D01*
X278018Y193504D02*
X276706D01*
X278018Y194816D01*
Y195144D01*
X277690Y195472D01*
X277034D01*
X276706Y195144D01*
X261101Y55089D02*
Y56400D01*
X260773Y56728D01*
X260117D01*
X259789Y56400D01*
Y55089D01*
X260117Y54760D01*
X260773D01*
X260445Y55416D02*
X261101Y54760D01*
X260773D02*
X261101Y55089D01*
X261757Y54760D02*
X262413D01*
X262085D01*
Y56728D01*
X261757Y56400D01*
X108596Y130905D02*
Y128937D01*
X109908D01*
X111876D02*
X110564D01*
X111876Y130249D01*
Y130577D01*
X111548Y130905D01*
X110892D01*
X110564Y130577D01*
X108924Y107283D02*
Y105315D01*
X110236D01*
X110892D02*
X111548D01*
X111220D01*
Y107283D01*
X110892Y106955D01*
X59055Y172244D02*
X58399D01*
X58727D01*
Y170604D01*
X58399Y170276D01*
X58071D01*
X57743Y170604D01*
X59711Y170276D02*
X60367D01*
X60039D01*
Y172244D01*
X59711Y171916D01*
X328577Y134842D02*
X329233D01*
X328905D01*
Y132874D01*
X328577D01*
X329233D01*
X331529Y134514D02*
X331201Y134842D01*
X330545D01*
X330217Y134514D01*
Y133202D01*
X330545Y132874D01*
X331201D01*
X331529Y133202D01*
X332185Y132874D02*
X332840D01*
X332513D01*
Y134842D01*
X332185Y134514D01*
X316273Y140420D02*
X315945Y140092D01*
Y139436D01*
X316273Y139109D01*
X317585D01*
X317913Y139436D01*
Y140092D01*
X317585Y140420D01*
X317913Y142388D02*
Y141076D01*
X316601Y142388D01*
X316273D01*
X315945Y142060D01*
Y141404D01*
X316273Y141076D01*
Y143044D02*
X315945Y143372D01*
Y144028D01*
X316273Y144356D01*
X317585D01*
X317913Y144028D01*
Y143372D01*
X317585Y143044D01*
X316273D01*
X316273Y93340D02*
X315945Y93012D01*
Y92356D01*
X316273Y92028D01*
X317585D01*
X317913Y92356D01*
Y93012D01*
X317585Y93340D01*
X317913Y93996D02*
Y94652D01*
Y94324D01*
X315945D01*
X316273Y93996D01*
X317585Y95636D02*
X317913Y95964D01*
Y96620D01*
X317585Y96948D01*
X316273D01*
X315945Y96620D01*
Y95964D01*
X316273Y95636D01*
X316601D01*
X316929Y95964D01*
Y96948D01*
X316765Y126640D02*
X316438Y126968D01*
X315782D01*
X315454Y126640D01*
Y125328D01*
X315782Y125000D01*
X316438D01*
X316765Y125328D01*
X317421Y125000D02*
X318077D01*
X317749D01*
Y126968D01*
X317421Y126640D01*
X319061D02*
X319389Y126968D01*
X320045D01*
X320373Y126640D01*
Y126312D01*
X320045Y125984D01*
X320373Y125656D01*
Y125328D01*
X320045Y125000D01*
X319389D01*
X319061Y125328D01*
Y125656D01*
X319389Y125984D01*
X319061Y126312D01*
Y126640D01*
X319389Y125984D02*
X320045D01*
X352887Y106332D02*
X352559Y106004D01*
Y105349D01*
X352887Y105020D01*
X354199D01*
X354527Y105349D01*
Y106004D01*
X354199Y106332D01*
X354527Y106988D02*
Y107644D01*
Y107316D01*
X352559D01*
X352887Y106988D01*
X352559Y108628D02*
Y109940D01*
X352887D01*
X354199Y108628D01*
X354527D01*
X316765Y122703D02*
X316438Y123031D01*
X315782D01*
X315454Y122703D01*
Y121391D01*
X315782Y121063D01*
X316438D01*
X316765Y121391D01*
X317421Y121063D02*
X318077D01*
X317749D01*
Y123031D01*
X317421Y122703D01*
X320373Y123031D02*
X319717Y122703D01*
X319061Y122047D01*
Y121391D01*
X319389Y121063D01*
X320045D01*
X320373Y121391D01*
Y121719D01*
X320045Y122047D01*
X319061D01*
X335466Y149278D02*
X335138Y149606D01*
X334482D01*
X334154Y149278D01*
Y147966D01*
X334482Y147638D01*
X335138D01*
X335466Y147966D01*
X336122Y147638D02*
X336778D01*
X336450D01*
Y149606D01*
X336122Y149278D01*
X339074Y149606D02*
X337762D01*
Y148622D01*
X338418Y148950D01*
X338746D01*
X339074Y148622D01*
Y147966D01*
X338746Y147638D01*
X338090D01*
X337762Y147966D01*
X335466Y88254D02*
X335138Y88582D01*
X334482D01*
X334154Y88254D01*
Y86942D01*
X334482Y86615D01*
X335138D01*
X335466Y86942D01*
X336122Y86615D02*
X336778D01*
X336450D01*
Y88582D01*
X336122Y88254D01*
X338746Y86615D02*
Y88582D01*
X337762Y87598D01*
X339074D01*
X314446Y135667D02*
X314118Y135995D01*
X313462D01*
X313134Y135667D01*
Y134355D01*
X313462Y134028D01*
X314118D01*
X314446Y134355D01*
X315102Y134028D02*
X315758D01*
X315430D01*
Y135995D01*
X315102Y135667D01*
X316742D02*
X317070Y135995D01*
X317726D01*
X318054Y135667D01*
Y135339D01*
X317726Y135011D01*
X317398D01*
X317726D01*
X318054Y134683D01*
Y134355D01*
X317726Y134028D01*
X317070D01*
X316742Y134355D01*
X328576Y149278D02*
X328249Y149606D01*
X327593D01*
X327265Y149278D01*
Y147966D01*
X327593Y147638D01*
X328249D01*
X328576Y147966D01*
X329232Y147638D02*
X329888D01*
X329560D01*
Y149606D01*
X329232Y149278D01*
X332184Y147638D02*
X330872D01*
X332184Y148950D01*
Y149278D01*
X331856Y149606D01*
X331200D01*
X330872Y149278D01*
X328905Y88254D02*
X328576Y88582D01*
X327921D01*
X327593Y88254D01*
Y86942D01*
X327921Y86615D01*
X328576D01*
X328905Y86942D01*
X329560Y86615D02*
X330216D01*
X329888D01*
Y88582D01*
X329560Y88254D01*
X331200Y86615D02*
X331856D01*
X331528D01*
Y88582D01*
X331200Y88254D01*
X311844Y106955D02*
X311516Y107283D01*
X310860D01*
X310532Y106955D01*
Y105643D01*
X310860Y105315D01*
X311516D01*
X311844Y105643D01*
X312500Y105315D02*
X313156D01*
X312828D01*
Y107283D01*
X312500Y106955D01*
X314140D02*
X314468Y107283D01*
X315124D01*
X315452Y106955D01*
Y105643D01*
X315124Y105315D01*
X314468D01*
X314140Y105643D01*
Y106955D01*
X287074Y229002D02*
X286746Y229330D01*
X286090D01*
X285762Y229002D01*
Y227691D01*
X286090Y227362D01*
X286746D01*
X287074Y227691D01*
X287730D02*
X288057Y227362D01*
X288714D01*
X289041Y227691D01*
Y229002D01*
X288714Y229330D01*
X288057D01*
X287730Y229002D01*
Y228674D01*
X288057Y228346D01*
X289041D01*
X291011Y8530D02*
X290683Y8858D01*
X290027D01*
X289699Y8530D01*
Y7218D01*
X290027Y6890D01*
X290683D01*
X291011Y7218D01*
X291667Y8530D02*
X291995Y8858D01*
X292651D01*
X292979Y8530D01*
Y8202D01*
X292651Y7874D01*
X292979Y7546D01*
Y7218D01*
X292651Y6890D01*
X291995D01*
X291667Y7218D01*
Y7546D01*
X291995Y7874D01*
X291667Y8202D01*
Y8530D01*
X291995Y7874D02*
X292651D01*
X340223Y134514D02*
X339895Y134842D01*
X339239D01*
X338911Y134514D01*
Y133202D01*
X339239Y132874D01*
X339895D01*
X340223Y133202D01*
X342191Y132874D02*
X340879D01*
X342191Y134186D01*
Y134514D01*
X341863Y134842D01*
X341207D01*
X340879Y134514D01*
X340551Y104002D02*
X340223Y104330D01*
X339567D01*
X339239Y104002D01*
Y102690D01*
X339567Y102363D01*
X340223D01*
X340551Y102690D01*
X341207Y102363D02*
X341863D01*
X341535D01*
Y104330D01*
X341207Y104002D01*
M02*
