G04*
G04 #@! TF.GenerationSoftware,Altium Limited,Altium Designer,22.9.1 (49)*
G04*
G04 Layer_Color=16711935*
%FSLAX25Y25*%
%MOIN*%
G70*
G04*
G04 #@! TF.SameCoordinates,31D07EA8-2EF4-44A7-A807-3D2BB65C9B75*
G04*
G04*
G04 #@! TF.FilePolarity,Positive*
G04*
G01*
G75*
%ADD84C,0.01000*%
D84*
X393701Y216483D02*
X393675Y217483D01*
X393600Y218480D01*
X393473Y219472D01*
X393297Y220456D01*
X393071Y221430D01*
X392796Y222392D01*
X392472Y223338D01*
X392101Y224267D01*
X391684Y225175D01*
X391221Y226062D01*
X390714Y226923D01*
X390163Y227758D01*
X389571Y228564D01*
X388939Y229339D01*
X388269Y230081D01*
X387562Y230788D01*
X386820Y231459D01*
X386045Y232091D01*
X385239Y232683D01*
X384404Y233233D01*
X383542Y233740D01*
X382656Y234203D01*
X381747Y234621D01*
X380818Y234992D01*
X379872Y235315D01*
X378910Y235590D01*
X377936Y235816D01*
X376952Y235993D01*
X375960Y236119D01*
X374963Y236195D01*
X373963Y236221D01*
X374016Y0D02*
X375013Y25D01*
X376007Y101D01*
X376997Y227D01*
X377978Y403D01*
X378950Y628D01*
X379909Y903D01*
X380852Y1225D01*
X381779Y1595D01*
X382685Y2012D01*
X383569Y2473D01*
X384428Y2980D01*
X385261Y3528D01*
X386065Y4119D01*
X386838Y4749D01*
X387578Y5418D01*
X388283Y6123D01*
X388952Y6863D01*
X389582Y7636D01*
X390173Y8440D01*
X390721Y9272D01*
X391227Y10132D01*
X391689Y11016D01*
X392105Y11922D01*
X392475Y12848D01*
X392798Y13792D01*
X393072Y14751D01*
X393298Y15722D01*
X393474Y16704D01*
X393600Y17694D01*
X393675Y18688D01*
X393701Y19685D01*
X393701Y216483D01*
X0Y0D02*
X374016D01*
X0Y236221D02*
X373963D01*
X0Y0D02*
Y236221D01*
M02*
