%TF.GenerationSoftware,KiCad,Pcbnew,10.0.4-10.0.4~ubuntu22.04.1*%
%TF.CreationDate,2026-06-25T17:26:30+02:00*%
%TF.ProjectId,5V_Buck_Board,35565f42-7563-46b5-9f42-6f6172642e6b,rev?*%
%TF.SameCoordinates,Original*%
%TF.FileFunction,Copper,L1,Top*%
%TF.FilePolarity,Positive*%
%FSLAX46Y46*%
G04 Gerber Fmt 4.6, Leading zero omitted, Abs format (unit mm)*
G04 Created by KiCad (PCBNEW 10.0.4-10.0.4~ubuntu22.04.1) date 2026-06-25 17:26:30*
%MOMM*%
%LPD*%
G01*
G04 APERTURE LIST*
G04 Aperture macros list*
%AMRoundRect*
0 Rectangle with rounded corners*
0 $1 Rounding radius*
0 $2 $3 $4 $5 $6 $7 $8 $9 X,Y pos of 4 corners*
0 Add a 4 corners polygon primitive as box body*
4,1,4,$2,$3,$4,$5,$6,$7,$8,$9,$2,$3,0*
0 Add four circle primitives for the rounded corners*
1,1,$1+$1,$2,$3*
1,1,$1+$1,$4,$5*
1,1,$1+$1,$6,$7*
1,1,$1+$1,$8,$9*
0 Add four rect primitives between the rounded corners*
20,1,$1+$1,$2,$3,$4,$5,0*
20,1,$1+$1,$4,$5,$6,$7,0*
20,1,$1+$1,$6,$7,$8,$9,0*
20,1,$1+$1,$8,$9,$2,$3,0*%
G04 Aperture macros list end*
%TA.AperFunction,ComponentPad*%
%ADD10C,5.500000*%
%TD*%
%TA.AperFunction,ComponentPad*%
%ADD11RoundRect,1.025000X1.025000X-1.025000X1.025000X1.025000X-1.025000X1.025000X-1.025000X-1.025000X0*%
%TD*%
%TA.AperFunction,ComponentPad*%
%ADD12C,4.100000*%
%TD*%
%TA.AperFunction,ComponentPad*%
%ADD13R,2.000000X0.900000*%
%TD*%
%TA.AperFunction,ComponentPad*%
%ADD14C,1.500000*%
%TD*%
%TA.AperFunction,ComponentPad*%
%ADD15C,3.000000*%
%TD*%
%TA.AperFunction,ComponentPad*%
%ADD16C,4.800000*%
%TD*%
%TA.AperFunction,ViaPad*%
%ADD17C,0.900000*%
%TD*%
%TA.AperFunction,Conductor*%
%ADD18C,3.000000*%
%TD*%
G04 APERTURE END LIST*
D10*
%TO.P,H3,1,1*%
%TO.N,GND*%
X192000000Y-64280000D03*
%TD*%
%TO.P,H4,1,1*%
%TO.N,GND*%
X191990000Y-123240000D03*
%TD*%
%TO.P,H2,1,1*%
%TO.N,GND*%
X105870000Y-123290000D03*
%TD*%
%TO.P,H1,1,1*%
%TO.N,GND*%
X105870000Y-64290000D03*
%TD*%
D11*
%TO.P,J2,1,1*%
%TO.N,Net-(PS1-+SENSE)*%
X119200000Y-109090000D03*
D12*
%TO.P,J2,2,2*%
%TO.N,GND*%
X119200000Y-101890000D03*
D13*
%TO.P,J2,MH1*%
X113200000Y-112240000D03*
%TO.P,J2,MH2*%
X113200000Y-98740000D03*
%TD*%
D11*
%TO.P,J1,1,1*%
%TO.N,Net-(PS1-+VIN(VCC))*%
X119150000Y-80320000D03*
D12*
%TO.P,J1,2,2*%
%TO.N,GND*%
X119150000Y-87520000D03*
D13*
%TO.P,J1,MH1*%
X113150000Y-90670000D03*
%TO.P,J1,MH2*%
X113150000Y-77170000D03*
%TD*%
D14*
%TO.P,PS1,1,-VIN(GND)*%
%TO.N,GND*%
X137755000Y-69965000D03*
%TO.P,PS1,2,CASE*%
X147915000Y-69965000D03*
%TO.P,PS1,3,REMOTE*%
%TO.N,unconnected-(PS1-REMOTE-Pad3)*%
X163155000Y-69965000D03*
%TO.P,PS1,4,+VIN(VCC)*%
%TO.N,Net-(PS1-+VIN(VCC))*%
X173315000Y-69965000D03*
D15*
%TO.P,PS1,5,-VOUT*%
%TO.N,GND*%
X137755000Y-118225000D03*
D14*
%TO.P,PS1,6,-SENSE*%
X147915000Y-118225000D03*
%TO.P,PS1,7,TRIM*%
%TO.N,Net-(PS1-TRIM)*%
X155535000Y-118225000D03*
%TO.P,PS1,8,+SENSE*%
%TO.N,Net-(PS1-+SENSE)*%
X163155000Y-118225000D03*
D15*
%TO.P,PS1,9,+VOUT*%
X173315000Y-118225000D03*
D16*
%TO.P,PS1,MH1,MH1*%
%TO.N,GND*%
X130135000Y-69965000D03*
%TO.P,PS1,MH2,MH2*%
X180935000Y-69965000D03*
%TO.P,PS1,MH3,MH3*%
X130135000Y-118225000D03*
%TO.P,PS1,MH4,MH4*%
X180935000Y-118225000D03*
%TD*%
D17*
%TO.N,GND*%
X156300000Y-87450000D03*
X176300000Y-92450000D03*
X126300000Y-87450000D03*
X161300000Y-92450000D03*
X151750000Y-61750000D03*
X131300000Y-87450000D03*
X171300000Y-92450000D03*
X136300000Y-102450000D03*
X181950000Y-99950000D03*
X171750000Y-61750000D03*
X151300000Y-97450000D03*
X181950000Y-89950000D03*
X146300000Y-87450000D03*
X136300000Y-87450000D03*
X141300000Y-102450000D03*
X110000000Y-104550000D03*
X136300000Y-92450000D03*
X171300000Y-97450000D03*
X156300000Y-97450000D03*
X146750000Y-61750000D03*
X113000000Y-81750000D03*
X126300000Y-102450000D03*
X141300000Y-87450000D03*
X146300000Y-102450000D03*
X161300000Y-126400000D03*
X161750000Y-61750000D03*
X141750000Y-61750000D03*
X113000000Y-86750000D03*
X110000000Y-74550000D03*
X141300000Y-92450000D03*
X181950000Y-104950000D03*
X156750000Y-61750000D03*
X110000000Y-119550000D03*
X176300000Y-97450000D03*
X110000000Y-84550000D03*
X151300000Y-87450000D03*
X161300000Y-97450000D03*
X166300000Y-102450000D03*
X110000000Y-99550000D03*
X113300000Y-108100000D03*
X131300000Y-97450000D03*
X166300000Y-92450000D03*
X110000000Y-69550000D03*
X181950000Y-84950000D03*
X141300000Y-97450000D03*
X181950000Y-94950000D03*
X182000000Y-75150000D03*
X136750000Y-61750000D03*
X181950000Y-79950000D03*
X182000000Y-113600000D03*
X126300000Y-97450000D03*
X166300000Y-87450000D03*
X141300000Y-126400000D03*
X171300000Y-102450000D03*
X146300000Y-97450000D03*
X131750000Y-61750000D03*
X110000000Y-89550000D03*
X166300000Y-97450000D03*
X131300000Y-92450000D03*
X171300000Y-126400000D03*
X151300000Y-92450000D03*
X126300000Y-92450000D03*
X131300000Y-126400000D03*
X176750000Y-61750000D03*
X110000000Y-79550000D03*
X136300000Y-97450000D03*
X181950000Y-109650000D03*
X126300000Y-126400000D03*
X113300000Y-103100000D03*
X171300000Y-87450000D03*
X110000000Y-94550000D03*
X151300000Y-102450000D03*
X131300000Y-102450000D03*
X110000000Y-109550000D03*
X156300000Y-102450000D03*
X146300000Y-92450000D03*
X176300000Y-102450000D03*
X166300000Y-126400000D03*
X176300000Y-126400000D03*
X166750000Y-61750000D03*
X151300000Y-126400000D03*
X136300000Y-126400000D03*
X126750000Y-61750000D03*
X161300000Y-87450000D03*
X176300000Y-87450000D03*
X161300000Y-102450000D03*
X156300000Y-126400000D03*
X110000000Y-114550000D03*
X156300000Y-92450000D03*
X146300000Y-126400000D03*
%TD*%
%TO.N,Net-(PS1-+SENSE)*%
D18*
X173315000Y-118225000D02*
X173265000Y-118225000D01*
%TD*%
%TA.AperFunction,Conductor*%
%TO.N,GND*%
G36*
X193978418Y-59280066D02*
G01*
X193984863Y-59280235D01*
X194245317Y-59293886D01*
X194258224Y-59295242D01*
X194561818Y-59343328D01*
X194574482Y-59346019D01*
X194871404Y-59425579D01*
X194883731Y-59429584D01*
X195170704Y-59539743D01*
X195182540Y-59545012D01*
X195456436Y-59684569D01*
X195467651Y-59691045D01*
X195700093Y-59841994D01*
X195725436Y-59858452D01*
X195735937Y-59866081D01*
X195974814Y-60059520D01*
X195984459Y-60068205D01*
X196201794Y-60285540D01*
X196210479Y-60295185D01*
X196403918Y-60534062D01*
X196411547Y-60544563D01*
X196578951Y-60802343D01*
X196585433Y-60813570D01*
X196720833Y-61079306D01*
X196724982Y-61087449D01*
X196730261Y-61099306D01*
X196840412Y-61386259D01*
X196844423Y-61398604D01*
X196923976Y-61695501D01*
X196926674Y-61708196D01*
X196974757Y-62011775D01*
X196976114Y-62024684D01*
X196992540Y-62338123D01*
X196992540Y-62404015D01*
X196997103Y-62421047D01*
X196997810Y-62433908D01*
X196997354Y-62435845D01*
X196997997Y-62440726D01*
X196989508Y-125106875D01*
X196989500Y-125107031D01*
X196989500Y-125176754D01*
X196989330Y-125183243D01*
X196973074Y-125493438D01*
X196971717Y-125506347D01*
X196923634Y-125809926D01*
X196920936Y-125822621D01*
X196841383Y-126119518D01*
X196837372Y-126131863D01*
X196727221Y-126418816D01*
X196721942Y-126430673D01*
X196582397Y-126704546D01*
X196575907Y-126715786D01*
X196408507Y-126973559D01*
X196400878Y-126984060D01*
X196207439Y-127222937D01*
X196198754Y-127232582D01*
X195981419Y-127449917D01*
X195971774Y-127458602D01*
X195732897Y-127652041D01*
X195722396Y-127659670D01*
X195464623Y-127827070D01*
X195453383Y-127833560D01*
X195179510Y-127973105D01*
X195167653Y-127978384D01*
X194880700Y-128088535D01*
X194868355Y-128092546D01*
X194571458Y-128172099D01*
X194558763Y-128174797D01*
X194255184Y-128222880D01*
X194242275Y-128224237D01*
X193932081Y-128240493D01*
X193925726Y-128240663D01*
X193862945Y-128240663D01*
X193862687Y-128240731D01*
X193854453Y-128240740D01*
X193854441Y-128240736D01*
X193854390Y-128240740D01*
X103941399Y-128292537D01*
X103934839Y-128292367D01*
X103624683Y-128276113D01*
X103611774Y-128274756D01*
X103308196Y-128226674D01*
X103295501Y-128223976D01*
X103295206Y-128223897D01*
X103108166Y-128173780D01*
X102998604Y-128144423D01*
X102986259Y-128140412D01*
X102699306Y-128030261D01*
X102687449Y-128024982D01*
X102413570Y-127885433D01*
X102402343Y-127878951D01*
X102144563Y-127711547D01*
X102134062Y-127703918D01*
X101895185Y-127510479D01*
X101885540Y-127501794D01*
X101668205Y-127284459D01*
X101659520Y-127274814D01*
X101466081Y-127035937D01*
X101458452Y-127025436D01*
X101360252Y-126874221D01*
X101291045Y-126767651D01*
X101284569Y-126756436D01*
X101145012Y-126482540D01*
X101139743Y-126470704D01*
X101029584Y-126183731D01*
X101025579Y-126171404D01*
X100946019Y-125874482D01*
X100943328Y-125861818D01*
X100895242Y-125558224D01*
X100893886Y-125545317D01*
X100877630Y-125235130D01*
X100877460Y-125228661D01*
X100877460Y-125228485D01*
X100877460Y-125165985D01*
X100877450Y-125165947D01*
X100876321Y-118062135D01*
X127235000Y-118062135D01*
X127235000Y-118387864D01*
X127271468Y-118711520D01*
X127271470Y-118711536D01*
X127343948Y-119029087D01*
X127343952Y-119029099D01*
X127451525Y-119336523D01*
X127451534Y-119336545D01*
X127592849Y-119629989D01*
X127766146Y-119905789D01*
X127914555Y-120091890D01*
X128840747Y-119165697D01*
X128914588Y-119267330D01*
X129092670Y-119445412D01*
X129194300Y-119519251D01*
X128268108Y-120445443D01*
X128454210Y-120593853D01*
X128730010Y-120767150D01*
X129023454Y-120908465D01*
X129023476Y-120908474D01*
X129330900Y-121016047D01*
X129330912Y-121016051D01*
X129648463Y-121088529D01*
X129648479Y-121088531D01*
X129972135Y-121124999D01*
X129972136Y-121125000D01*
X130297864Y-121125000D01*
X130297864Y-121124999D01*
X130584511Y-121092701D01*
X136867195Y-121092701D01*
X136867195Y-121092702D01*
X136923187Y-121112294D01*
X136923186Y-121112294D01*
X137251686Y-121187272D01*
X137251702Y-121187274D01*
X137586519Y-121224999D01*
X137586521Y-121225000D01*
X137923479Y-121225000D01*
X137923480Y-121224999D01*
X138258297Y-121187274D01*
X138258313Y-121187272D01*
X138586810Y-121112295D01*
X138642803Y-121092701D01*
X138034781Y-120484678D01*
X137755001Y-120204898D01*
X137755000Y-120204898D01*
X136867195Y-121092701D01*
X130584511Y-121092701D01*
X130621520Y-121088531D01*
X130621536Y-121088529D01*
X130939087Y-121016051D01*
X130939099Y-121016047D01*
X131166606Y-120936439D01*
X131246523Y-120908474D01*
X131246545Y-120908465D01*
X131539989Y-120767150D01*
X131815789Y-120593853D01*
X132001890Y-120445443D01*
X131075698Y-119519251D01*
X131177330Y-119445412D01*
X131355412Y-119267330D01*
X131429251Y-119165698D01*
X132355443Y-120091890D01*
X132503853Y-119905789D01*
X132677150Y-119629989D01*
X132818465Y-119336545D01*
X132818474Y-119336523D01*
X132926047Y-119029099D01*
X132926051Y-119029087D01*
X132998529Y-118711536D01*
X132998531Y-118711520D01*
X133034999Y-118387864D01*
X133035000Y-118387864D01*
X133035000Y-118062135D01*
X133034367Y-118056519D01*
X134755000Y-118056519D01*
X134755000Y-118393480D01*
X134792725Y-118728297D01*
X134792727Y-118728313D01*
X134867705Y-119056814D01*
X134867709Y-119056826D01*
X134887296Y-119112802D01*
X134887297Y-119112803D01*
X135775101Y-118225000D01*
X135676610Y-118126509D01*
X136755000Y-118126509D01*
X136755000Y-118323491D01*
X136793429Y-118516689D01*
X136868811Y-118698678D01*
X136978249Y-118862463D01*
X137117537Y-119001751D01*
X137281322Y-119111189D01*
X137463311Y-119186571D01*
X137656509Y-119225000D01*
X137853491Y-119225000D01*
X138046689Y-119186571D01*
X138228678Y-119111189D01*
X138392463Y-119001751D01*
X138531751Y-118862463D01*
X138641189Y-118698678D01*
X138716571Y-118516689D01*
X138755000Y-118323491D01*
X138755000Y-118224999D01*
X139734898Y-118224999D01*
X139734898Y-118225000D01*
X140622701Y-119112803D01*
X140642295Y-119056810D01*
X140717272Y-118728313D01*
X140717274Y-118728297D01*
X140754999Y-118393480D01*
X140755000Y-118393478D01*
X140755000Y-118126617D01*
X146665000Y-118126617D01*
X146665000Y-118323382D01*
X146695778Y-118517705D01*
X146756581Y-118704835D01*
X146845905Y-118880145D01*
X146871319Y-118915125D01*
X146871320Y-118915125D01*
X147432037Y-118354408D01*
X147449075Y-118417993D01*
X147514901Y-118532007D01*
X147607993Y-118625099D01*
X147722007Y-118690925D01*
X147785590Y-118707962D01*
X147224873Y-119268677D01*
X147224873Y-119268678D01*
X147259858Y-119294096D01*
X147435164Y-119383418D01*
X147622294Y-119444221D01*
X147816618Y-119475000D01*
X148013382Y-119475000D01*
X148207705Y-119444221D01*
X148394835Y-119383418D01*
X148570143Y-119294095D01*
X148605125Y-119268678D01*
X148605126Y-119268678D01*
X148044410Y-118707962D01*
X148107993Y-118690925D01*
X148222007Y-118625099D01*
X148315099Y-118532007D01*
X148380925Y-118417993D01*
X148397962Y-118354409D01*
X148958678Y-118915126D01*
X148958678Y-118915125D01*
X148984095Y-118880143D01*
X149073418Y-118704835D01*
X149134221Y-118517705D01*
X149165000Y-118323382D01*
X149165000Y-118126617D01*
X149164994Y-118126577D01*
X154284500Y-118126577D01*
X154284500Y-118323422D01*
X154315290Y-118517826D01*
X154376117Y-118705029D01*
X154456334Y-118862463D01*
X154465476Y-118880405D01*
X154581172Y-119039646D01*
X154720354Y-119178828D01*
X154879595Y-119294524D01*
X154962023Y-119336523D01*
X155054970Y-119383882D01*
X155054972Y-119383882D01*
X155054975Y-119383884D01*
X155155317Y-119416487D01*
X155242173Y-119444709D01*
X155436578Y-119475500D01*
X155436583Y-119475500D01*
X155633422Y-119475500D01*
X155827826Y-119444709D01*
X155829328Y-119444221D01*
X156015025Y-119383884D01*
X156190405Y-119294524D01*
X156349646Y-119178828D01*
X156488828Y-119039646D01*
X156604524Y-118880405D01*
X156693884Y-118705025D01*
X156754709Y-118517826D01*
X156770521Y-118417993D01*
X156785500Y-118323422D01*
X156785500Y-118126577D01*
X161904500Y-118126577D01*
X161904500Y-118323422D01*
X161935290Y-118517826D01*
X161996117Y-118705029D01*
X162076334Y-118862463D01*
X162085476Y-118880405D01*
X162201172Y-119039646D01*
X162340354Y-119178828D01*
X162499595Y-119294524D01*
X162582023Y-119336523D01*
X162674970Y-119383882D01*
X162674972Y-119383882D01*
X162674975Y-119383884D01*
X162775317Y-119416487D01*
X162862173Y-119444709D01*
X163056578Y-119475500D01*
X163056583Y-119475500D01*
X163253422Y-119475500D01*
X163447826Y-119444709D01*
X163449328Y-119444221D01*
X163635025Y-119383884D01*
X163810405Y-119294524D01*
X163969646Y-119178828D01*
X164108828Y-119039646D01*
X164224524Y-118880405D01*
X164313884Y-118705025D01*
X164374709Y-118517826D01*
X164390521Y-118417993D01*
X164405500Y-118323422D01*
X164405500Y-118126581D01*
X164402750Y-118109217D01*
X164402750Y-118109214D01*
X164400320Y-118093872D01*
X171264500Y-118093872D01*
X171264500Y-118356127D01*
X171291123Y-118558339D01*
X171298730Y-118616116D01*
X171364738Y-118862463D01*
X171366602Y-118869418D01*
X171366605Y-118869428D01*
X171466953Y-119111690D01*
X171466958Y-119111700D01*
X171598075Y-119338803D01*
X171757718Y-119546851D01*
X171757726Y-119546860D01*
X171943140Y-119732274D01*
X171943148Y-119732281D01*
X172151196Y-119891924D01*
X172378299Y-120023041D01*
X172378309Y-120023046D01*
X172620571Y-120123394D01*
X172620581Y-120123398D01*
X172873884Y-120191270D01*
X173133880Y-120225500D01*
X173133887Y-120225500D01*
X173446113Y-120225500D01*
X173446120Y-120225500D01*
X173706116Y-120191270D01*
X173959419Y-120123398D01*
X174201697Y-120023043D01*
X174428803Y-119891924D01*
X174636851Y-119732282D01*
X174636855Y-119732277D01*
X174636860Y-119732274D01*
X174822274Y-119546860D01*
X174822277Y-119546855D01*
X174822282Y-119546851D01*
X174981924Y-119338803D01*
X175113043Y-119111697D01*
X175113254Y-119111189D01*
X175158584Y-119001751D01*
X175213398Y-118869419D01*
X175281270Y-118616116D01*
X175315500Y-118356120D01*
X175315500Y-118093880D01*
X175311321Y-118062135D01*
X178035000Y-118062135D01*
X178035000Y-118387864D01*
X178071468Y-118711520D01*
X178071470Y-118711536D01*
X178143948Y-119029087D01*
X178143952Y-119029099D01*
X178251525Y-119336523D01*
X178251534Y-119336545D01*
X178392849Y-119629989D01*
X178566146Y-119905789D01*
X178714555Y-120091890D01*
X179640747Y-119165697D01*
X179714588Y-119267330D01*
X179892670Y-119445412D01*
X179994300Y-119519251D01*
X179068108Y-120445443D01*
X179254210Y-120593853D01*
X179530010Y-120767150D01*
X179823454Y-120908465D01*
X179823476Y-120908474D01*
X180130900Y-121016047D01*
X180130912Y-121016051D01*
X180448463Y-121088529D01*
X180448479Y-121088531D01*
X180772135Y-121124999D01*
X180772136Y-121125000D01*
X181097864Y-121125000D01*
X181097864Y-121124999D01*
X181421520Y-121088531D01*
X181421536Y-121088529D01*
X181739087Y-121016051D01*
X181739099Y-121016047D01*
X182046523Y-120908474D01*
X182046545Y-120908465D01*
X182339989Y-120767150D01*
X182615789Y-120593853D01*
X182801890Y-120445443D01*
X181875698Y-119519251D01*
X181977330Y-119445412D01*
X182155412Y-119267330D01*
X182229251Y-119165698D01*
X183155443Y-120091890D01*
X183303853Y-119905789D01*
X183477150Y-119629989D01*
X183618465Y-119336545D01*
X183618474Y-119336523D01*
X183726047Y-119029099D01*
X183726051Y-119029087D01*
X183798529Y-118711536D01*
X183798531Y-118711520D01*
X183834999Y-118387864D01*
X183835000Y-118387864D01*
X183835000Y-118062136D01*
X183834999Y-118062135D01*
X183798531Y-117738479D01*
X183798529Y-117738463D01*
X183726051Y-117420912D01*
X183726047Y-117420900D01*
X183618474Y-117113476D01*
X183618465Y-117113454D01*
X183477150Y-116820010D01*
X183303853Y-116544210D01*
X183155443Y-116358108D01*
X182229250Y-117284300D01*
X182155412Y-117182670D01*
X181977330Y-117004588D01*
X181875697Y-116930747D01*
X182801890Y-116004555D01*
X182615789Y-115856146D01*
X182339989Y-115682849D01*
X182046545Y-115541534D01*
X182046523Y-115541525D01*
X181739099Y-115433952D01*
X181739087Y-115433948D01*
X181421536Y-115361470D01*
X181421520Y-115361468D01*
X181097864Y-115325000D01*
X180772136Y-115325000D01*
X180448479Y-115361468D01*
X180448463Y-115361470D01*
X180130912Y-115433948D01*
X180130900Y-115433952D01*
X179823476Y-115541525D01*
X179823454Y-115541534D01*
X179530010Y-115682849D01*
X179254210Y-115856146D01*
X179068108Y-116004555D01*
X179994301Y-116930748D01*
X179892670Y-117004588D01*
X179714588Y-117182670D01*
X179640748Y-117284301D01*
X178714555Y-116358108D01*
X178566146Y-116544210D01*
X178392849Y-116820010D01*
X178251534Y-117113454D01*
X178251525Y-117113476D01*
X178143952Y-117420900D01*
X178143948Y-117420912D01*
X178071470Y-117738463D01*
X178071468Y-117738479D01*
X178035000Y-118062135D01*
X175311321Y-118062135D01*
X175281270Y-117833884D01*
X175213398Y-117580581D01*
X175213394Y-117580571D01*
X175113046Y-117338309D01*
X175113041Y-117338299D01*
X174981924Y-117111196D01*
X174822281Y-116903148D01*
X174822274Y-116903140D01*
X174636860Y-116717726D01*
X174636851Y-116717718D01*
X174428803Y-116558075D01*
X174201700Y-116426958D01*
X174201690Y-116426953D01*
X173959428Y-116326605D01*
X173959421Y-116326603D01*
X173959419Y-116326602D01*
X173706116Y-116258730D01*
X173648339Y-116251123D01*
X173446127Y-116224500D01*
X173446120Y-116224500D01*
X173133880Y-116224500D01*
X173133872Y-116224500D01*
X172902772Y-116254926D01*
X172873884Y-116258730D01*
X172620581Y-116326602D01*
X172620571Y-116326605D01*
X172378309Y-116426953D01*
X172378299Y-116426958D01*
X172151196Y-116558075D01*
X171943148Y-116717718D01*
X171757718Y-116903148D01*
X171598075Y-117111196D01*
X171466958Y-117338299D01*
X171466953Y-117338309D01*
X171366605Y-117580571D01*
X171366602Y-117580581D01*
X171322503Y-117745164D01*
X171298730Y-117833885D01*
X171264500Y-118093872D01*
X164400320Y-118093872D01*
X164374709Y-117932173D01*
X164313882Y-117744970D01*
X164245525Y-117610813D01*
X164224524Y-117569595D01*
X164108828Y-117410354D01*
X163969646Y-117271172D01*
X163810405Y-117155476D01*
X163635029Y-117066117D01*
X163447826Y-117005290D01*
X163253422Y-116974500D01*
X163253417Y-116974500D01*
X163056583Y-116974500D01*
X163056578Y-116974500D01*
X162862173Y-117005290D01*
X162674970Y-117066117D01*
X162499594Y-117155476D01*
X162408741Y-117221485D01*
X162340354Y-117271172D01*
X162340352Y-117271174D01*
X162340351Y-117271174D01*
X162201174Y-117410351D01*
X162201174Y-117410352D01*
X162201172Y-117410354D01*
X162173640Y-117448249D01*
X162085476Y-117569594D01*
X161996117Y-117744970D01*
X161935290Y-117932173D01*
X161904500Y-118126577D01*
X156785500Y-118126577D01*
X156754709Y-117932173D01*
X156693882Y-117744970D01*
X156625525Y-117610813D01*
X156604524Y-117569595D01*
X156488828Y-117410354D01*
X156349646Y-117271172D01*
X156190405Y-117155476D01*
X156015029Y-117066117D01*
X155827826Y-117005290D01*
X155633422Y-116974500D01*
X155633417Y-116974500D01*
X155436583Y-116974500D01*
X155436578Y-116974500D01*
X155242173Y-117005290D01*
X155054970Y-117066117D01*
X154879594Y-117155476D01*
X154788741Y-117221485D01*
X154720354Y-117271172D01*
X154720352Y-117271174D01*
X154720351Y-117271174D01*
X154581174Y-117410351D01*
X154581174Y-117410352D01*
X154581172Y-117410354D01*
X154553640Y-117448249D01*
X154465476Y-117569594D01*
X154376117Y-117744970D01*
X154315290Y-117932173D01*
X154284500Y-118126577D01*
X149164994Y-118126577D01*
X149134221Y-117932294D01*
X149073418Y-117745164D01*
X148984096Y-117569858D01*
X148958678Y-117534873D01*
X148958677Y-117534873D01*
X148397962Y-118095589D01*
X148380925Y-118032007D01*
X148315099Y-117917993D01*
X148222007Y-117824901D01*
X148107993Y-117759075D01*
X148044409Y-117742037D01*
X148605125Y-117181320D01*
X148605125Y-117181319D01*
X148570145Y-117155905D01*
X148394835Y-117066581D01*
X148207705Y-117005778D01*
X148013382Y-116975000D01*
X147816618Y-116975000D01*
X147622294Y-117005778D01*
X147435161Y-117066582D01*
X147259863Y-117155899D01*
X147259859Y-117155902D01*
X147224873Y-117181320D01*
X147224872Y-117181320D01*
X147785590Y-117742037D01*
X147722007Y-117759075D01*
X147607993Y-117824901D01*
X147514901Y-117917993D01*
X147449075Y-118032007D01*
X147432037Y-118095590D01*
X146871320Y-117534872D01*
X146871320Y-117534873D01*
X146845902Y-117569859D01*
X146845899Y-117569863D01*
X146756582Y-117745161D01*
X146695778Y-117932294D01*
X146665000Y-118126617D01*
X140755000Y-118126617D01*
X140755000Y-118056521D01*
X140754999Y-118056519D01*
X140717274Y-117721702D01*
X140717272Y-117721686D01*
X140642294Y-117393186D01*
X140622702Y-117337195D01*
X140622701Y-117337195D01*
X139734898Y-118224999D01*
X138755000Y-118224999D01*
X138755000Y-118126509D01*
X138716571Y-117933311D01*
X138641189Y-117751322D01*
X138531751Y-117587537D01*
X138392463Y-117448249D01*
X138228678Y-117338811D01*
X138046689Y-117263429D01*
X137853491Y-117225000D01*
X137656509Y-117225000D01*
X137463311Y-117263429D01*
X137281322Y-117338811D01*
X137117537Y-117448249D01*
X136978249Y-117587537D01*
X136868811Y-117751322D01*
X136793429Y-117933311D01*
X136755000Y-118126509D01*
X135676610Y-118126509D01*
X134887297Y-117337196D01*
X134867706Y-117393184D01*
X134867704Y-117393190D01*
X134792727Y-117721686D01*
X134792725Y-117721702D01*
X134755000Y-118056519D01*
X133034367Y-118056519D01*
X132998531Y-117738479D01*
X132998529Y-117738463D01*
X132926051Y-117420912D01*
X132926047Y-117420900D01*
X132818474Y-117113476D01*
X132818465Y-117113454D01*
X132677150Y-116820010D01*
X132503853Y-116544210D01*
X132355443Y-116358108D01*
X131429250Y-117284300D01*
X131355412Y-117182670D01*
X131177330Y-117004588D01*
X131075697Y-116930747D01*
X132001890Y-116004555D01*
X131815789Y-115856146D01*
X131539989Y-115682849D01*
X131246545Y-115541534D01*
X131246523Y-115541525D01*
X131166600Y-115513559D01*
X130939099Y-115433952D01*
X130939087Y-115433948D01*
X130621536Y-115361470D01*
X130621520Y-115361468D01*
X130584502Y-115357297D01*
X136867196Y-115357297D01*
X137755000Y-116245101D01*
X137755001Y-116245101D01*
X138034780Y-115965321D01*
X138642803Y-115357297D01*
X138642802Y-115357296D01*
X138586826Y-115337709D01*
X138586814Y-115337705D01*
X138258313Y-115262727D01*
X138258297Y-115262725D01*
X137923480Y-115225000D01*
X137586519Y-115225000D01*
X137251702Y-115262725D01*
X137251686Y-115262727D01*
X136923190Y-115337704D01*
X136923184Y-115337706D01*
X136867196Y-115357297D01*
X130584502Y-115357297D01*
X130297864Y-115325000D01*
X129972136Y-115325000D01*
X129648479Y-115361468D01*
X129648463Y-115361470D01*
X129330912Y-115433948D01*
X129330900Y-115433952D01*
X129023476Y-115541525D01*
X129023454Y-115541534D01*
X128730010Y-115682849D01*
X128454210Y-115856146D01*
X128268108Y-116004555D01*
X129194301Y-116930748D01*
X129092670Y-117004588D01*
X128914588Y-117182670D01*
X128840748Y-117284301D01*
X127914555Y-116358108D01*
X127766146Y-116544210D01*
X127592849Y-116820010D01*
X127451534Y-117113454D01*
X127451525Y-117113476D01*
X127343952Y-117420900D01*
X127343948Y-117420912D01*
X127271470Y-117738463D01*
X127271468Y-117738479D01*
X127235000Y-118062135D01*
X100876321Y-118062135D01*
X100875546Y-113189999D01*
X112603552Y-113189999D01*
X112603553Y-113190000D01*
X113796447Y-113190000D01*
X113796447Y-113189999D01*
X113200000Y-112593553D01*
X112603552Y-113189999D01*
X100875546Y-113189999D01*
X100875316Y-111742155D01*
X111700000Y-111742155D01*
X111700000Y-112737844D01*
X111706401Y-112797372D01*
X111706403Y-112797379D01*
X111756645Y-112932086D01*
X111756647Y-112932088D01*
X111842809Y-113047186D01*
X111842810Y-113047187D01*
X111955157Y-113131289D01*
X112013223Y-113073224D01*
X112559983Y-112526463D01*
X112610504Y-112540000D01*
X113789496Y-112540000D01*
X113840016Y-112526463D01*
X114444842Y-113131290D01*
X114444843Y-113131290D01*
X114557187Y-113047191D01*
X114643352Y-112932088D01*
X114643354Y-112932086D01*
X114693596Y-112797379D01*
X114693598Y-112797372D01*
X114699999Y-112737844D01*
X114700000Y-112737827D01*
X114700000Y-111742172D01*
X114699999Y-111742155D01*
X114693598Y-111682627D01*
X114693596Y-111682620D01*
X114643354Y-111547913D01*
X114643352Y-111547911D01*
X114557190Y-111432813D01*
X114557189Y-111432812D01*
X114444842Y-111348709D01*
X113840015Y-111953536D01*
X113789496Y-111940000D01*
X112610504Y-111940000D01*
X112559984Y-111953536D01*
X111955156Y-111348708D01*
X111842813Y-111432809D01*
X111842808Y-111432814D01*
X111756649Y-111547906D01*
X111756645Y-111547913D01*
X111706403Y-111682620D01*
X111706401Y-111682627D01*
X111700000Y-111742155D01*
X100875316Y-111742155D01*
X100875244Y-111290000D01*
X112603552Y-111290000D01*
X113200000Y-111886447D01*
X113796447Y-111290000D01*
X112603552Y-111290000D01*
X100875244Y-111290000D01*
X100874720Y-107994702D01*
X116649500Y-107994702D01*
X116649500Y-110185292D01*
X116649501Y-110185298D01*
X116659718Y-110330027D01*
X116659718Y-110330031D01*
X116659719Y-110330034D01*
X116659720Y-110330038D01*
X116713834Y-110570314D01*
X116713835Y-110570319D01*
X116805795Y-110798809D01*
X116933216Y-111009589D01*
X116933219Y-111009592D01*
X117092798Y-111197201D01*
X117201897Y-111290000D01*
X117280411Y-111356784D01*
X117491191Y-111484205D01*
X117719683Y-111576165D01*
X117959966Y-111630281D01*
X118104705Y-111640500D01*
X120295294Y-111640499D01*
X120440034Y-111630281D01*
X120680317Y-111576165D01*
X120908809Y-111484205D01*
X121119589Y-111356784D01*
X121307201Y-111197201D01*
X121466784Y-111009589D01*
X121594205Y-110798809D01*
X121686165Y-110570317D01*
X121740281Y-110330034D01*
X121750500Y-110185295D01*
X121750499Y-107994706D01*
X121740281Y-107849966D01*
X121686165Y-107609683D01*
X121594205Y-107381191D01*
X121466784Y-107170411D01*
X121400930Y-107092990D01*
X121307201Y-106982798D01*
X121177654Y-106872606D01*
X121119589Y-106823216D01*
X120908809Y-106695795D01*
X120680318Y-106603835D01*
X120440036Y-106549719D01*
X120440029Y-106549718D01*
X120295296Y-106539500D01*
X118104707Y-106539500D01*
X118104701Y-106539501D01*
X117959972Y-106549718D01*
X117959966Y-106549718D01*
X117959966Y-106549719D01*
X117959963Y-106549719D01*
X117959961Y-106549720D01*
X117719685Y-106603834D01*
X117719680Y-106603835D01*
X117491190Y-106695795D01*
X117491185Y-106695798D01*
X117280417Y-106823212D01*
X117280407Y-106823219D01*
X117092798Y-106982798D01*
X116933219Y-107170407D01*
X116933212Y-107170417D01*
X116805798Y-107381185D01*
X116805795Y-107381190D01*
X116713835Y-107609680D01*
X116713835Y-107609682D01*
X116659719Y-107849963D01*
X116659718Y-107849970D01*
X116649500Y-107994702D01*
X100874720Y-107994702D01*
X100874147Y-104387449D01*
X118682448Y-104387449D01*
X118682448Y-104387450D01*
X118772182Y-104407931D01*
X118772198Y-104407933D01*
X119056790Y-104439999D01*
X119056792Y-104440000D01*
X119343208Y-104440000D01*
X119343209Y-104439999D01*
X119627801Y-104407933D01*
X119627817Y-104407931D01*
X119717550Y-104387450D01*
X119717550Y-104387449D01*
X119200001Y-103869898D01*
X119200000Y-103869898D01*
X118682448Y-104387449D01*
X100874147Y-104387449D01*
X100873733Y-101783753D01*
X100873728Y-101746790D01*
X116650000Y-101746790D01*
X116650000Y-102033209D01*
X116682066Y-102317808D01*
X116682067Y-102317811D01*
X116702548Y-102407550D01*
X116702549Y-102407550D01*
X117220101Y-101890000D01*
X117113854Y-101783753D01*
X117850000Y-101783753D01*
X117850000Y-101996247D01*
X117883242Y-102206126D01*
X117948906Y-102408220D01*
X118045377Y-102597554D01*
X118170278Y-102769466D01*
X118320534Y-102919722D01*
X118492446Y-103044623D01*
X118681780Y-103141094D01*
X118883874Y-103206758D01*
X119093753Y-103240000D01*
X119306247Y-103240000D01*
X119516126Y-103206758D01*
X119718220Y-103141094D01*
X119907554Y-103044623D01*
X120079466Y-102919722D01*
X120229722Y-102769466D01*
X120354623Y-102597554D01*
X120451094Y-102408220D01*
X120516758Y-102206126D01*
X120550000Y-101996247D01*
X120550000Y-101890000D01*
X121179898Y-101890000D01*
X121697449Y-102407550D01*
X121697450Y-102407550D01*
X121717931Y-102317817D01*
X121717933Y-102317801D01*
X121749999Y-102033209D01*
X121750000Y-102033207D01*
X121750000Y-101746792D01*
X121749999Y-101746790D01*
X121717933Y-101462198D01*
X121717931Y-101462182D01*
X121697450Y-101372448D01*
X121697449Y-101372448D01*
X121179898Y-101890000D01*
X120550000Y-101890000D01*
X120550000Y-101783753D01*
X120516758Y-101573874D01*
X120451094Y-101371780D01*
X120354623Y-101182446D01*
X120229722Y-101010534D01*
X120079466Y-100860278D01*
X119907554Y-100735377D01*
X119718220Y-100638906D01*
X119516126Y-100573242D01*
X119306247Y-100540000D01*
X119093753Y-100540000D01*
X118883874Y-100573242D01*
X118681780Y-100638906D01*
X118492446Y-100735377D01*
X118320534Y-100860278D01*
X118170278Y-101010534D01*
X118045377Y-101182446D01*
X117948906Y-101371780D01*
X117883242Y-101573874D01*
X117850000Y-101783753D01*
X117113854Y-101783753D01*
X116702549Y-101372448D01*
X116682066Y-101462198D01*
X116650000Y-101746790D01*
X100873728Y-101746790D01*
X100873727Y-101743336D01*
X100873401Y-99689999D01*
X112603552Y-99689999D01*
X112603553Y-99690000D01*
X113796447Y-99690000D01*
X113796447Y-99689999D01*
X113200000Y-99093553D01*
X112603552Y-99689999D01*
X100873401Y-99689999D01*
X100873171Y-98242155D01*
X111700000Y-98242155D01*
X111700000Y-99237844D01*
X111706401Y-99297372D01*
X111706403Y-99297379D01*
X111756645Y-99432086D01*
X111756647Y-99432088D01*
X111842809Y-99547186D01*
X111842810Y-99547187D01*
X111955157Y-99631289D01*
X112013223Y-99573224D01*
X112559983Y-99026463D01*
X112610504Y-99040000D01*
X113789496Y-99040000D01*
X113840016Y-99026463D01*
X114444842Y-99631290D01*
X114444843Y-99631290D01*
X114557187Y-99547191D01*
X114643352Y-99432088D01*
X114643354Y-99432086D01*
X114658101Y-99392549D01*
X118682448Y-99392549D01*
X119200000Y-99910101D01*
X119200001Y-99910101D01*
X119717550Y-99392549D01*
X119717550Y-99392548D01*
X119627811Y-99372067D01*
X119627808Y-99372066D01*
X119343209Y-99340000D01*
X119056790Y-99340000D01*
X118772198Y-99372066D01*
X118682448Y-99392549D01*
X114658101Y-99392549D01*
X114660851Y-99385175D01*
X114693596Y-99297379D01*
X114693598Y-99297372D01*
X114699999Y-99237844D01*
X114700000Y-99237827D01*
X114700000Y-98242172D01*
X114699999Y-98242155D01*
X114693598Y-98182627D01*
X114693596Y-98182620D01*
X114643354Y-98047913D01*
X114643352Y-98047911D01*
X114557190Y-97932813D01*
X114557189Y-97932812D01*
X114444842Y-97848709D01*
X113840015Y-98453536D01*
X113789496Y-98440000D01*
X112610504Y-98440000D01*
X112559984Y-98453536D01*
X111955156Y-97848708D01*
X111842813Y-97932809D01*
X111842808Y-97932814D01*
X111756649Y-98047906D01*
X111756645Y-98047913D01*
X111706403Y-98182620D01*
X111706401Y-98182627D01*
X111700000Y-98242155D01*
X100873171Y-98242155D01*
X100873170Y-98238871D01*
X100873099Y-97790000D01*
X112603552Y-97790000D01*
X113200000Y-98386447D01*
X113796447Y-97790000D01*
X112603552Y-97790000D01*
X100873099Y-97790000D01*
X100872118Y-91619999D01*
X112553552Y-91619999D01*
X112553553Y-91620000D01*
X113746447Y-91620000D01*
X113746447Y-91619999D01*
X113150000Y-91023553D01*
X112553552Y-91619999D01*
X100872118Y-91619999D01*
X100871888Y-90172155D01*
X111650000Y-90172155D01*
X111650000Y-91167844D01*
X111656401Y-91227372D01*
X111656403Y-91227379D01*
X111706645Y-91362086D01*
X111706647Y-91362088D01*
X111792809Y-91477186D01*
X111792810Y-91477187D01*
X111905157Y-91561289D01*
X111963223Y-91503224D01*
X112509983Y-90956463D01*
X112560504Y-90970000D01*
X113739496Y-90970000D01*
X113790015Y-90956463D01*
X114394842Y-91561290D01*
X114394843Y-91561290D01*
X114507187Y-91477191D01*
X114593352Y-91362088D01*
X114593354Y-91362086D01*
X114643596Y-91227379D01*
X114643598Y-91227372D01*
X114649999Y-91167844D01*
X114650000Y-91167827D01*
X114650000Y-90172172D01*
X114649999Y-90172155D01*
X114643598Y-90112627D01*
X114643596Y-90112620D01*
X114610851Y-90024824D01*
X114608100Y-90017449D01*
X118632448Y-90017449D01*
X118632448Y-90017450D01*
X118722182Y-90037931D01*
X118722198Y-90037933D01*
X119006790Y-90069999D01*
X119006792Y-90070000D01*
X119293208Y-90070000D01*
X119293209Y-90069999D01*
X119577801Y-90037933D01*
X119577817Y-90037931D01*
X119667550Y-90017450D01*
X119667550Y-90017449D01*
X119150001Y-89499898D01*
X119150000Y-89499898D01*
X118632448Y-90017449D01*
X114608100Y-90017449D01*
X114593354Y-89977913D01*
X114593352Y-89977911D01*
X114507190Y-89862813D01*
X114507189Y-89862812D01*
X114394842Y-89778709D01*
X113790015Y-90383536D01*
X113739496Y-90370000D01*
X112560504Y-90370000D01*
X112509984Y-90383536D01*
X111905156Y-89778708D01*
X111792813Y-89862809D01*
X111792808Y-89862814D01*
X111706649Y-89977906D01*
X111706645Y-89977913D01*
X111656403Y-90112620D01*
X111656401Y-90112627D01*
X111650000Y-90172155D01*
X100871888Y-90172155D01*
X100871887Y-90168871D01*
X100871816Y-89720000D01*
X112553552Y-89720000D01*
X113150000Y-90316447D01*
X113746447Y-89720000D01*
X112553552Y-89720000D01*
X100871816Y-89720000D01*
X100871444Y-87376790D01*
X116600000Y-87376790D01*
X116600000Y-87663209D01*
X116632066Y-87947808D01*
X116632067Y-87947811D01*
X116652548Y-88037550D01*
X116652549Y-88037550D01*
X117170101Y-87520000D01*
X117063854Y-87413753D01*
X117800000Y-87413753D01*
X117800000Y-87626247D01*
X117833242Y-87836126D01*
X117898906Y-88038220D01*
X117995377Y-88227554D01*
X118120278Y-88399466D01*
X118270534Y-88549722D01*
X118442446Y-88674623D01*
X118631780Y-88771094D01*
X118833874Y-88836758D01*
X119043753Y-88870000D01*
X119256247Y-88870000D01*
X119466126Y-88836758D01*
X119668220Y-88771094D01*
X119857554Y-88674623D01*
X120029466Y-88549722D01*
X120179722Y-88399466D01*
X120304623Y-88227554D01*
X120401094Y-88038220D01*
X120466758Y-87836126D01*
X120500000Y-87626247D01*
X120500000Y-87520000D01*
X121129898Y-87520000D01*
X121647449Y-88037550D01*
X121647450Y-88037550D01*
X121667931Y-87947817D01*
X121667933Y-87947801D01*
X121699999Y-87663209D01*
X121700000Y-87663207D01*
X121700000Y-87376792D01*
X121699999Y-87376790D01*
X121667933Y-87092198D01*
X121667931Y-87092182D01*
X121647450Y-87002448D01*
X121647449Y-87002448D01*
X121129898Y-87520000D01*
X120500000Y-87520000D01*
X120500000Y-87413753D01*
X120466758Y-87203874D01*
X120401094Y-87001780D01*
X120304623Y-86812446D01*
X120179722Y-86640534D01*
X120029466Y-86490278D01*
X119857554Y-86365377D01*
X119668220Y-86268906D01*
X119466126Y-86203242D01*
X119256247Y-86170000D01*
X119043753Y-86170000D01*
X118833874Y-86203242D01*
X118631780Y-86268906D01*
X118442446Y-86365377D01*
X118270534Y-86490278D01*
X118120278Y-86640534D01*
X117995377Y-86812446D01*
X117898906Y-87001780D01*
X117833242Y-87203874D01*
X117800000Y-87413753D01*
X117063854Y-87413753D01*
X116652549Y-87002448D01*
X116632066Y-87092198D01*
X116600000Y-87376790D01*
X100871444Y-87376790D01*
X100871443Y-87373336D01*
X100871075Y-85058528D01*
X100871069Y-85022549D01*
X118632448Y-85022549D01*
X119150000Y-85540101D01*
X119150001Y-85540101D01*
X119667550Y-85022549D01*
X119667550Y-85022548D01*
X119577811Y-85002067D01*
X119577808Y-85002066D01*
X119293209Y-84970000D01*
X119006790Y-84970000D01*
X118722198Y-85002066D01*
X118632448Y-85022549D01*
X100871069Y-85022549D01*
X100870147Y-79224702D01*
X116599500Y-79224702D01*
X116599500Y-81415292D01*
X116599501Y-81415298D01*
X116609718Y-81560027D01*
X116609718Y-81560031D01*
X116609719Y-81560034D01*
X116609720Y-81560038D01*
X116663834Y-81800314D01*
X116663835Y-81800319D01*
X116755795Y-82028809D01*
X116883216Y-82239589D01*
X116883219Y-82239592D01*
X117042798Y-82427201D01*
X117152990Y-82520930D01*
X117230411Y-82586784D01*
X117441191Y-82714205D01*
X117669683Y-82806165D01*
X117909966Y-82860281D01*
X118054705Y-82870500D01*
X120245294Y-82870499D01*
X120390034Y-82860281D01*
X120630317Y-82806165D01*
X120858809Y-82714205D01*
X121069589Y-82586784D01*
X121257201Y-82427201D01*
X121416784Y-82239589D01*
X121544205Y-82028809D01*
X121636165Y-81800317D01*
X121690281Y-81560034D01*
X121700500Y-81415295D01*
X121700499Y-79224706D01*
X121690281Y-79079966D01*
X121636165Y-78839683D01*
X121544205Y-78611191D01*
X121416784Y-78400411D01*
X121350930Y-78322990D01*
X121257201Y-78212798D01*
X121079081Y-78061290D01*
X121069589Y-78053216D01*
X120858809Y-77925795D01*
X120630318Y-77833835D01*
X120390036Y-77779719D01*
X120390029Y-77779718D01*
X120245296Y-77769500D01*
X118054707Y-77769500D01*
X118054701Y-77769501D01*
X117909972Y-77779718D01*
X117909966Y-77779718D01*
X117909966Y-77779719D01*
X117909963Y-77779719D01*
X117909961Y-77779720D01*
X117669685Y-77833834D01*
X117669680Y-77833835D01*
X117441190Y-77925795D01*
X117441185Y-77925798D01*
X117230417Y-78053212D01*
X117230407Y-78053219D01*
X117042798Y-78212798D01*
X116883219Y-78400407D01*
X116883212Y-78400417D01*
X116755798Y-78611185D01*
X116755795Y-78611190D01*
X116663835Y-78839680D01*
X116663835Y-78839682D01*
X116609719Y-79079963D01*
X116609718Y-79079970D01*
X116599500Y-79224702D01*
X100870147Y-79224702D01*
X100870147Y-79222540D01*
X100870016Y-78400407D01*
X100869971Y-78119999D01*
X112553552Y-78119999D01*
X112553553Y-78120000D01*
X113746447Y-78120000D01*
X113746447Y-78119999D01*
X113150000Y-77523553D01*
X112553552Y-78119999D01*
X100869971Y-78119999D01*
X100869741Y-76672155D01*
X111650000Y-76672155D01*
X111650000Y-77667844D01*
X111656401Y-77727372D01*
X111656403Y-77727379D01*
X111706645Y-77862086D01*
X111706647Y-77862088D01*
X111792809Y-77977186D01*
X111792810Y-77977187D01*
X111905157Y-78061289D01*
X111963223Y-78003224D01*
X112509983Y-77456463D01*
X112560504Y-77470000D01*
X113739496Y-77470000D01*
X113790015Y-77456463D01*
X114394842Y-78061290D01*
X114394843Y-78061290D01*
X114507187Y-77977191D01*
X114593352Y-77862088D01*
X114593354Y-77862086D01*
X114643596Y-77727379D01*
X114643598Y-77727372D01*
X114649999Y-77667844D01*
X114650000Y-77667827D01*
X114650000Y-76672172D01*
X114649999Y-76672155D01*
X114643598Y-76612627D01*
X114643596Y-76612620D01*
X114593354Y-76477913D01*
X114593352Y-76477911D01*
X114507190Y-76362813D01*
X114507189Y-76362812D01*
X114394842Y-76278709D01*
X113790015Y-76883536D01*
X113739496Y-76870000D01*
X112560504Y-76870000D01*
X112509984Y-76883536D01*
X111905156Y-76278708D01*
X111792813Y-76362809D01*
X111792808Y-76362814D01*
X111706649Y-76477906D01*
X111706645Y-76477913D01*
X111656403Y-76612620D01*
X111656401Y-76612627D01*
X111650000Y-76672155D01*
X100869741Y-76672155D01*
X100869669Y-76220000D01*
X112553552Y-76220000D01*
X113150000Y-76816447D01*
X113746447Y-76220000D01*
X112553552Y-76220000D01*
X100869669Y-76220000D01*
X100869483Y-75044980D01*
X100869021Y-72137017D01*
X100868701Y-70127864D01*
X100868649Y-69802135D01*
X127235000Y-69802135D01*
X127235000Y-70127864D01*
X127271468Y-70451520D01*
X127271470Y-70451536D01*
X127343948Y-70769087D01*
X127343952Y-70769099D01*
X127451525Y-71076523D01*
X127451534Y-71076545D01*
X127592849Y-71369989D01*
X127766146Y-71645789D01*
X127914555Y-71831890D01*
X128840747Y-70905697D01*
X128914588Y-71007330D01*
X129092670Y-71185412D01*
X129194300Y-71259251D01*
X128268108Y-72185443D01*
X128454210Y-72333853D01*
X128730010Y-72507150D01*
X129023454Y-72648465D01*
X129023476Y-72648474D01*
X129330900Y-72756047D01*
X129330912Y-72756051D01*
X129648463Y-72828529D01*
X129648479Y-72828531D01*
X129972135Y-72864999D01*
X129972136Y-72865000D01*
X130297864Y-72865000D01*
X130297864Y-72864999D01*
X130621520Y-72828531D01*
X130621536Y-72828529D01*
X130939087Y-72756051D01*
X130939099Y-72756047D01*
X131246523Y-72648474D01*
X131246545Y-72648465D01*
X131539989Y-72507150D01*
X131815789Y-72333853D01*
X132001890Y-72185443D01*
X131075698Y-71259251D01*
X131177330Y-71185412D01*
X131355412Y-71007330D01*
X131429251Y-70905698D01*
X132355443Y-71831890D01*
X132503853Y-71645789D01*
X132677150Y-71369989D01*
X132818465Y-71076545D01*
X132818474Y-71076523D01*
X132873079Y-70920473D01*
X132873082Y-70920464D01*
X132926051Y-70769085D01*
X132998529Y-70451536D01*
X132998531Y-70451520D01*
X133034999Y-70127864D01*
X133035000Y-70127864D01*
X133035000Y-69866617D01*
X146665000Y-69866617D01*
X146665000Y-70063382D01*
X146695778Y-70257705D01*
X146756581Y-70444835D01*
X146845905Y-70620145D01*
X146871319Y-70655125D01*
X146871320Y-70655125D01*
X147432037Y-70094408D01*
X147449075Y-70157993D01*
X147514901Y-70272007D01*
X147607993Y-70365099D01*
X147722007Y-70430925D01*
X147785590Y-70447962D01*
X147224873Y-71008677D01*
X147224873Y-71008678D01*
X147259858Y-71034096D01*
X147435164Y-71123418D01*
X147622294Y-71184221D01*
X147816618Y-71215000D01*
X148013382Y-71215000D01*
X148207705Y-71184221D01*
X148394835Y-71123418D01*
X148570143Y-71034095D01*
X148605125Y-71008678D01*
X148605126Y-71008678D01*
X148044410Y-70447962D01*
X148107993Y-70430925D01*
X148222007Y-70365099D01*
X148315099Y-70272007D01*
X148380925Y-70157993D01*
X148397962Y-70094409D01*
X148958678Y-70655126D01*
X148958678Y-70655125D01*
X148984095Y-70620143D01*
X149073418Y-70444835D01*
X149134221Y-70257705D01*
X149165000Y-70063382D01*
X149165000Y-69866617D01*
X149164994Y-69866577D01*
X161904500Y-69866577D01*
X161904500Y-70063422D01*
X161935290Y-70257826D01*
X161996117Y-70445029D01*
X162085343Y-70620143D01*
X162085476Y-70620405D01*
X162201172Y-70779646D01*
X162340354Y-70918828D01*
X162499595Y-71034524D01*
X162582023Y-71076523D01*
X162674970Y-71123882D01*
X162674972Y-71123882D01*
X162674975Y-71123884D01*
X162775317Y-71156487D01*
X162862173Y-71184709D01*
X163056578Y-71215500D01*
X163056583Y-71215500D01*
X163253422Y-71215500D01*
X163447826Y-71184709D01*
X163449328Y-71184221D01*
X163635025Y-71123884D01*
X163810405Y-71034524D01*
X163969646Y-70918828D01*
X164108828Y-70779646D01*
X164224524Y-70620405D01*
X164313884Y-70445025D01*
X164374709Y-70257826D01*
X164401144Y-70090923D01*
X164405500Y-70063422D01*
X164405500Y-69866577D01*
X172064500Y-69866577D01*
X172064500Y-70063422D01*
X172095290Y-70257826D01*
X172156117Y-70445029D01*
X172245343Y-70620143D01*
X172245476Y-70620405D01*
X172361172Y-70779646D01*
X172500354Y-70918828D01*
X172659595Y-71034524D01*
X172742023Y-71076523D01*
X172834970Y-71123882D01*
X172834972Y-71123882D01*
X172834975Y-71123884D01*
X172935317Y-71156487D01*
X173022173Y-71184709D01*
X173216578Y-71215500D01*
X173216583Y-71215500D01*
X173413422Y-71215500D01*
X173607826Y-71184709D01*
X173609328Y-71184221D01*
X173795025Y-71123884D01*
X173970405Y-71034524D01*
X174129646Y-70918828D01*
X174268828Y-70779646D01*
X174384524Y-70620405D01*
X174473884Y-70445025D01*
X174534709Y-70257826D01*
X174561144Y-70090923D01*
X174565500Y-70063422D01*
X174565500Y-69866578D01*
X174557815Y-69818060D01*
X174557815Y-69818059D01*
X174555293Y-69802135D01*
X178035000Y-69802135D01*
X178035000Y-70127864D01*
X178071468Y-70451520D01*
X178071470Y-70451536D01*
X178143948Y-70769087D01*
X178143952Y-70769099D01*
X178251525Y-71076523D01*
X178251534Y-71076545D01*
X178392849Y-71369989D01*
X178566146Y-71645789D01*
X178714555Y-71831890D01*
X179640747Y-70905697D01*
X179714588Y-71007330D01*
X179892670Y-71185412D01*
X179994300Y-71259251D01*
X179068108Y-72185443D01*
X179254210Y-72333853D01*
X179530010Y-72507150D01*
X179823454Y-72648465D01*
X179823476Y-72648474D01*
X180130900Y-72756047D01*
X180130912Y-72756051D01*
X180448463Y-72828529D01*
X180448479Y-72828531D01*
X180772135Y-72864999D01*
X180772136Y-72865000D01*
X181097864Y-72865000D01*
X181097864Y-72864999D01*
X181421520Y-72828531D01*
X181421536Y-72828529D01*
X181739087Y-72756051D01*
X181739099Y-72756047D01*
X182046523Y-72648474D01*
X182046545Y-72648465D01*
X182339989Y-72507150D01*
X182615789Y-72333853D01*
X182801890Y-72185443D01*
X181875698Y-71259251D01*
X181977330Y-71185412D01*
X182155412Y-71007330D01*
X182229251Y-70905698D01*
X183155443Y-71831890D01*
X183303853Y-71645789D01*
X183477150Y-71369989D01*
X183618465Y-71076545D01*
X183618474Y-71076523D01*
X183726047Y-70769099D01*
X183726051Y-70769087D01*
X183798529Y-70451536D01*
X183798531Y-70451520D01*
X183834999Y-70127864D01*
X183835000Y-70127864D01*
X183835000Y-69802136D01*
X183834999Y-69802135D01*
X183798531Y-69478479D01*
X183798529Y-69478463D01*
X183726051Y-69160912D01*
X183726047Y-69160900D01*
X183618474Y-68853476D01*
X183618465Y-68853454D01*
X183477150Y-68560010D01*
X183303853Y-68284210D01*
X183155443Y-68098108D01*
X182229250Y-69024300D01*
X182155412Y-68922670D01*
X181977330Y-68744588D01*
X181875697Y-68670747D01*
X182801890Y-67744555D01*
X182615789Y-67596146D01*
X182339989Y-67422849D01*
X182046545Y-67281534D01*
X182046523Y-67281525D01*
X181739099Y-67173952D01*
X181739087Y-67173948D01*
X181421536Y-67101470D01*
X181421520Y-67101468D01*
X181097864Y-67065000D01*
X180772136Y-67065000D01*
X180448479Y-67101468D01*
X180448463Y-67101470D01*
X180130912Y-67173948D01*
X180130900Y-67173952D01*
X179823476Y-67281525D01*
X179823454Y-67281534D01*
X179530010Y-67422849D01*
X179254210Y-67596146D01*
X179068108Y-67744555D01*
X179994301Y-68670748D01*
X179892670Y-68744588D01*
X179714588Y-68922670D01*
X179640748Y-69024301D01*
X178714555Y-68098108D01*
X178566146Y-68284210D01*
X178392849Y-68560010D01*
X178251534Y-68853454D01*
X178251525Y-68853476D01*
X178143952Y-69160900D01*
X178143948Y-69160912D01*
X178071470Y-69478463D01*
X178071468Y-69478479D01*
X178035000Y-69802135D01*
X174555293Y-69802135D01*
X174534709Y-69672173D01*
X174473882Y-69484970D01*
X174405525Y-69350813D01*
X174384524Y-69309595D01*
X174268828Y-69150354D01*
X174129646Y-69011172D01*
X173970405Y-68895476D01*
X173795029Y-68806117D01*
X173607826Y-68745290D01*
X173413422Y-68714500D01*
X173413417Y-68714500D01*
X173216583Y-68714500D01*
X173216578Y-68714500D01*
X173022173Y-68745290D01*
X172834970Y-68806117D01*
X172659594Y-68895476D01*
X172568741Y-68961485D01*
X172500354Y-69011172D01*
X172500352Y-69011174D01*
X172500351Y-69011174D01*
X172361174Y-69150351D01*
X172361174Y-69150352D01*
X172361172Y-69150354D01*
X172311485Y-69218741D01*
X172245476Y-69309594D01*
X172156117Y-69484970D01*
X172095290Y-69672173D01*
X172064500Y-69866577D01*
X164405500Y-69866577D01*
X164374709Y-69672173D01*
X164313882Y-69484970D01*
X164245525Y-69350813D01*
X164224524Y-69309595D01*
X164108828Y-69150354D01*
X163969646Y-69011172D01*
X163810405Y-68895476D01*
X163635029Y-68806117D01*
X163447826Y-68745290D01*
X163253422Y-68714500D01*
X163253417Y-68714500D01*
X163056583Y-68714500D01*
X163056578Y-68714500D01*
X162862173Y-68745290D01*
X162674970Y-68806117D01*
X162499594Y-68895476D01*
X162408741Y-68961485D01*
X162340354Y-69011172D01*
X162340352Y-69011174D01*
X162340351Y-69011174D01*
X162201174Y-69150351D01*
X162201174Y-69150352D01*
X162201172Y-69150354D01*
X162151485Y-69218741D01*
X162085476Y-69309594D01*
X161996117Y-69484970D01*
X161935290Y-69672173D01*
X161904500Y-69866577D01*
X149164994Y-69866577D01*
X149134221Y-69672294D01*
X149073418Y-69485164D01*
X148984096Y-69309858D01*
X148958678Y-69274873D01*
X148958677Y-69274873D01*
X148397962Y-69835589D01*
X148380925Y-69772007D01*
X148315099Y-69657993D01*
X148222007Y-69564901D01*
X148107993Y-69499075D01*
X148044409Y-69482037D01*
X148605125Y-68921320D01*
X148605125Y-68921319D01*
X148570145Y-68895905D01*
X148394835Y-68806581D01*
X148207705Y-68745778D01*
X148013382Y-68715000D01*
X147816618Y-68715000D01*
X147622294Y-68745778D01*
X147435161Y-68806582D01*
X147259863Y-68895899D01*
X147259859Y-68895902D01*
X147224873Y-68921320D01*
X147224872Y-68921320D01*
X147785590Y-69482037D01*
X147722007Y-69499075D01*
X147607993Y-69564901D01*
X147514901Y-69657993D01*
X147449075Y-69772007D01*
X147432037Y-69835590D01*
X146871320Y-69274872D01*
X146871320Y-69274873D01*
X146845902Y-69309859D01*
X146845899Y-69309863D01*
X146756582Y-69485161D01*
X146695778Y-69672294D01*
X146665000Y-69866617D01*
X133035000Y-69866617D01*
X133035000Y-69802136D01*
X133034999Y-69802135D01*
X132998531Y-69478479D01*
X132998529Y-69478463D01*
X132926051Y-69160912D01*
X132926047Y-69160900D01*
X132873082Y-69009534D01*
X132818474Y-68853476D01*
X132818465Y-68853454D01*
X132677150Y-68560010D01*
X132503853Y-68284210D01*
X132355443Y-68098108D01*
X131429250Y-69024300D01*
X131355412Y-68922670D01*
X131177330Y-68744588D01*
X131075697Y-68670747D01*
X132001890Y-67744555D01*
X131815789Y-67596146D01*
X131539989Y-67422849D01*
X131246545Y-67281534D01*
X131246523Y-67281525D01*
X130939099Y-67173952D01*
X130939087Y-67173948D01*
X130621536Y-67101470D01*
X130621520Y-67101468D01*
X130297864Y-67065000D01*
X129972136Y-67065000D01*
X129648479Y-67101468D01*
X129648463Y-67101470D01*
X129330912Y-67173948D01*
X129330900Y-67173952D01*
X129023476Y-67281525D01*
X129023454Y-67281534D01*
X128730010Y-67422849D01*
X128454210Y-67596146D01*
X128268108Y-67744555D01*
X129194301Y-68670748D01*
X129092670Y-68744588D01*
X128914588Y-68922670D01*
X128840748Y-69024301D01*
X127914555Y-68098108D01*
X127766146Y-68284210D01*
X127592849Y-68560010D01*
X127451534Y-68853454D01*
X127451525Y-68853476D01*
X127343952Y-69160900D01*
X127343948Y-69160912D01*
X127271470Y-69478463D01*
X127271468Y-69478479D01*
X127235000Y-69802135D01*
X100868649Y-69802135D01*
X100867460Y-62321349D01*
X100867629Y-62314879D01*
X100883886Y-62004680D01*
X100885243Y-61991774D01*
X100933328Y-61688177D01*
X100936018Y-61675520D01*
X101015580Y-61378589D01*
X101019581Y-61366274D01*
X101129745Y-61079288D01*
X101135009Y-61067466D01*
X101274573Y-60793555D01*
X101281039Y-60782356D01*
X101448459Y-60524552D01*
X101456074Y-60514071D01*
X101649528Y-60275175D01*
X101658195Y-60265550D01*
X101875550Y-60048195D01*
X101885175Y-60039528D01*
X102124071Y-59846074D01*
X102134552Y-59838459D01*
X102392356Y-59671039D01*
X102403555Y-59664573D01*
X102677466Y-59525009D01*
X102689288Y-59519745D01*
X102976274Y-59409581D01*
X102988589Y-59405580D01*
X103285520Y-59326018D01*
X103298177Y-59323328D01*
X103601777Y-59275242D01*
X103614680Y-59273886D01*
X103924884Y-59257629D01*
X103931341Y-59257460D01*
X193978418Y-59280066D01*
G37*
%TD.AperFunction*%
%TD*%
M02*
