%TF.GenerationSoftware,KiCad,Pcbnew,10.0.4-10.0.4~ubuntu22.04.1*%
%TF.CreationDate,2026-06-25T17:26:52+02:00*%
%TF.ProjectId,5V_Buck_Board,35565f42-7563-46b5-9f42-6f6172642e6b,rev?*%
%TF.SameCoordinates,Original*%
%TF.FileFunction,Legend,Top*%
%TF.FilePolarity,Positive*%
%FSLAX46Y46*%
G04 Gerber Fmt 4.6, Leading zero omitted, Abs format (unit mm)*
G04 Created by KiCad (PCBNEW 10.0.4-10.0.4~ubuntu22.04.1) date 2026-06-25 17:26:52*
%MOMM*%
%LPD*%
G01*
G04 APERTURE LIST*
%ADD10C,0.500000*%
%ADD11C,0.300000*%
%ADD12C,0.125000*%
%ADD13C,0.150000*%
%ADD14C,0.000000*%
%ADD15C,0.120000*%
%ADD16C,0.100000*%
%ADD17C,0.200000*%
G04 APERTURE END LIST*
D10*
X191307518Y-95386857D02*
X192878947Y-93386857D01*
X191307518Y-93386857D02*
X192878947Y-95386857D01*
D11*
X163599400Y-115396917D02*
X163670828Y-115182632D01*
X163670828Y-115182632D02*
X163670828Y-114825489D01*
X163670828Y-114825489D02*
X163599400Y-114682632D01*
X163599400Y-114682632D02*
X163527971Y-114611203D01*
X163527971Y-114611203D02*
X163385114Y-114539774D01*
X163385114Y-114539774D02*
X163242257Y-114539774D01*
X163242257Y-114539774D02*
X163099400Y-114611203D01*
X163099400Y-114611203D02*
X163027971Y-114682632D01*
X163027971Y-114682632D02*
X162956542Y-114825489D01*
X162956542Y-114825489D02*
X162885114Y-115111203D01*
X162885114Y-115111203D02*
X162813685Y-115254060D01*
X162813685Y-115254060D02*
X162742257Y-115325489D01*
X162742257Y-115325489D02*
X162599400Y-115396917D01*
X162599400Y-115396917D02*
X162456542Y-115396917D01*
X162456542Y-115396917D02*
X162313685Y-115325489D01*
X162313685Y-115325489D02*
X162242257Y-115254060D01*
X162242257Y-115254060D02*
X162170828Y-115111203D01*
X162170828Y-115111203D02*
X162170828Y-114754060D01*
X162170828Y-114754060D02*
X162242257Y-114539774D01*
X162885114Y-113896918D02*
X162885114Y-113396918D01*
X163670828Y-113182632D02*
X163670828Y-113896918D01*
X163670828Y-113896918D02*
X162170828Y-113896918D01*
X162170828Y-113896918D02*
X162170828Y-113182632D01*
X163670828Y-112539775D02*
X162170828Y-112539775D01*
X162170828Y-112539775D02*
X163670828Y-111682632D01*
X163670828Y-111682632D02*
X162170828Y-111682632D01*
X163599400Y-111039774D02*
X163670828Y-110825489D01*
X163670828Y-110825489D02*
X163670828Y-110468346D01*
X163670828Y-110468346D02*
X163599400Y-110325489D01*
X163599400Y-110325489D02*
X163527971Y-110254060D01*
X163527971Y-110254060D02*
X163385114Y-110182631D01*
X163385114Y-110182631D02*
X163242257Y-110182631D01*
X163242257Y-110182631D02*
X163099400Y-110254060D01*
X163099400Y-110254060D02*
X163027971Y-110325489D01*
X163027971Y-110325489D02*
X162956542Y-110468346D01*
X162956542Y-110468346D02*
X162885114Y-110754060D01*
X162885114Y-110754060D02*
X162813685Y-110896917D01*
X162813685Y-110896917D02*
X162742257Y-110968346D01*
X162742257Y-110968346D02*
X162599400Y-111039774D01*
X162599400Y-111039774D02*
X162456542Y-111039774D01*
X162456542Y-111039774D02*
X162313685Y-110968346D01*
X162313685Y-110968346D02*
X162242257Y-110896917D01*
X162242257Y-110896917D02*
X162170828Y-110754060D01*
X162170828Y-110754060D02*
X162170828Y-110396917D01*
X162170828Y-110396917D02*
X162242257Y-110182631D01*
X162885114Y-109539775D02*
X162885114Y-109039775D01*
X163670828Y-108825489D02*
X163670828Y-109539775D01*
X163670828Y-109539775D02*
X162170828Y-109539775D01*
X162170828Y-109539775D02*
X162170828Y-108825489D01*
X163099400Y-108182632D02*
X163099400Y-107039775D01*
X163670828Y-107611203D02*
X162527971Y-107611203D01*
X136680828Y-77879774D02*
X138180828Y-77379774D01*
X138180828Y-77379774D02*
X136680828Y-76879774D01*
X138180828Y-76379775D02*
X136680828Y-76379775D01*
X138180828Y-75665489D02*
X136680828Y-75665489D01*
X136680828Y-75665489D02*
X138180828Y-74808346D01*
X138180828Y-74808346D02*
X136680828Y-74808346D01*
X137609400Y-74094060D02*
X137609400Y-72951203D01*
D12*
X179201283Y-103022365D02*
X179201283Y-102522365D01*
X179201283Y-102522365D02*
X179367950Y-102879508D01*
X179367950Y-102879508D02*
X179534616Y-102522365D01*
X179534616Y-102522365D02*
X179534616Y-103022365D01*
X179986998Y-103022365D02*
X179986998Y-102760460D01*
X179986998Y-102760460D02*
X179963188Y-102712841D01*
X179963188Y-102712841D02*
X179915569Y-102689032D01*
X179915569Y-102689032D02*
X179820331Y-102689032D01*
X179820331Y-102689032D02*
X179772712Y-102712841D01*
X179986998Y-102998556D02*
X179939379Y-103022365D01*
X179939379Y-103022365D02*
X179820331Y-103022365D01*
X179820331Y-103022365D02*
X179772712Y-102998556D01*
X179772712Y-102998556D02*
X179748903Y-102950936D01*
X179748903Y-102950936D02*
X179748903Y-102903317D01*
X179748903Y-102903317D02*
X179772712Y-102855698D01*
X179772712Y-102855698D02*
X179820331Y-102831889D01*
X179820331Y-102831889D02*
X179939379Y-102831889D01*
X179939379Y-102831889D02*
X179986998Y-102808079D01*
X180153665Y-102689032D02*
X180344141Y-102689032D01*
X180225093Y-102522365D02*
X180225093Y-102950936D01*
X180225093Y-102950936D02*
X180248903Y-102998556D01*
X180248903Y-102998556D02*
X180296522Y-103022365D01*
X180296522Y-103022365D02*
X180344141Y-103022365D01*
X180725093Y-103022365D02*
X180725093Y-102760460D01*
X180725093Y-102760460D02*
X180701283Y-102712841D01*
X180701283Y-102712841D02*
X180653664Y-102689032D01*
X180653664Y-102689032D02*
X180558426Y-102689032D01*
X180558426Y-102689032D02*
X180510807Y-102712841D01*
X180725093Y-102998556D02*
X180677474Y-103022365D01*
X180677474Y-103022365D02*
X180558426Y-103022365D01*
X180558426Y-103022365D02*
X180510807Y-102998556D01*
X180510807Y-102998556D02*
X180486998Y-102950936D01*
X180486998Y-102950936D02*
X180486998Y-102903317D01*
X180486998Y-102903317D02*
X180510807Y-102855698D01*
X180510807Y-102855698D02*
X180558426Y-102831889D01*
X180558426Y-102831889D02*
X180677474Y-102831889D01*
X180677474Y-102831889D02*
X180725093Y-102808079D01*
X180939379Y-102998556D02*
X180986998Y-103022365D01*
X180986998Y-103022365D02*
X181082236Y-103022365D01*
X181082236Y-103022365D02*
X181129855Y-102998556D01*
X181129855Y-102998556D02*
X181153664Y-102950936D01*
X181153664Y-102950936D02*
X181153664Y-102927127D01*
X181153664Y-102927127D02*
X181129855Y-102879508D01*
X181129855Y-102879508D02*
X181082236Y-102855698D01*
X181082236Y-102855698D02*
X181010807Y-102855698D01*
X181010807Y-102855698D02*
X180963188Y-102831889D01*
X180963188Y-102831889D02*
X180939379Y-102784270D01*
X180939379Y-102784270D02*
X180939379Y-102760460D01*
X180939379Y-102760460D02*
X180963188Y-102712841D01*
X180963188Y-102712841D02*
X181010807Y-102689032D01*
X181010807Y-102689032D02*
X181082236Y-102689032D01*
X181082236Y-102689032D02*
X181129855Y-102712841D01*
X181891759Y-102522365D02*
X181891759Y-102879508D01*
X181891759Y-102879508D02*
X181867950Y-102950936D01*
X181867950Y-102950936D02*
X181820331Y-102998556D01*
X181820331Y-102998556D02*
X181748902Y-103022365D01*
X181748902Y-103022365D02*
X181701283Y-103022365D01*
X182201283Y-103022365D02*
X182153664Y-102998556D01*
X182153664Y-102998556D02*
X182129854Y-102974746D01*
X182129854Y-102974746D02*
X182106045Y-102927127D01*
X182106045Y-102927127D02*
X182106045Y-102784270D01*
X182106045Y-102784270D02*
X182129854Y-102736651D01*
X182129854Y-102736651D02*
X182153664Y-102712841D01*
X182153664Y-102712841D02*
X182201283Y-102689032D01*
X182201283Y-102689032D02*
X182272711Y-102689032D01*
X182272711Y-102689032D02*
X182320330Y-102712841D01*
X182320330Y-102712841D02*
X182344140Y-102736651D01*
X182344140Y-102736651D02*
X182367949Y-102784270D01*
X182367949Y-102784270D02*
X182367949Y-102927127D01*
X182367949Y-102927127D02*
X182344140Y-102974746D01*
X182344140Y-102974746D02*
X182320330Y-102998556D01*
X182320330Y-102998556D02*
X182272711Y-103022365D01*
X182272711Y-103022365D02*
X182201283Y-103022365D01*
X182582235Y-102689032D02*
X182582235Y-103022365D01*
X182582235Y-102736651D02*
X182606045Y-102712841D01*
X182606045Y-102712841D02*
X182653664Y-102689032D01*
X182653664Y-102689032D02*
X182725092Y-102689032D01*
X182725092Y-102689032D02*
X182772711Y-102712841D01*
X182772711Y-102712841D02*
X182796521Y-102760460D01*
X182796521Y-102760460D02*
X182796521Y-103022365D01*
X183225092Y-102998556D02*
X183177473Y-103022365D01*
X183177473Y-103022365D02*
X183082235Y-103022365D01*
X183082235Y-103022365D02*
X183034616Y-102998556D01*
X183034616Y-102998556D02*
X183010807Y-102950936D01*
X183010807Y-102950936D02*
X183010807Y-102760460D01*
X183010807Y-102760460D02*
X183034616Y-102712841D01*
X183034616Y-102712841D02*
X183082235Y-102689032D01*
X183082235Y-102689032D02*
X183177473Y-102689032D01*
X183177473Y-102689032D02*
X183225092Y-102712841D01*
X183225092Y-102712841D02*
X183248902Y-102760460D01*
X183248902Y-102760460D02*
X183248902Y-102808079D01*
X183248902Y-102808079D02*
X183010807Y-102855698D01*
X183439378Y-102998556D02*
X183486997Y-103022365D01*
X183486997Y-103022365D02*
X183582235Y-103022365D01*
X183582235Y-103022365D02*
X183629854Y-102998556D01*
X183629854Y-102998556D02*
X183653663Y-102950936D01*
X183653663Y-102950936D02*
X183653663Y-102927127D01*
X183653663Y-102927127D02*
X183629854Y-102879508D01*
X183629854Y-102879508D02*
X183582235Y-102855698D01*
X183582235Y-102855698D02*
X183510806Y-102855698D01*
X183510806Y-102855698D02*
X183463187Y-102831889D01*
X183463187Y-102831889D02*
X183439378Y-102784270D01*
X183439378Y-102784270D02*
X183439378Y-102760460D01*
X183439378Y-102760460D02*
X183463187Y-102712841D01*
X183463187Y-102712841D02*
X183510806Y-102689032D01*
X183510806Y-102689032D02*
X183582235Y-102689032D01*
X183582235Y-102689032D02*
X183629854Y-102712841D01*
X179201283Y-103827337D02*
X179201283Y-103327337D01*
X179201283Y-103327337D02*
X179391759Y-103327337D01*
X179391759Y-103327337D02*
X179439378Y-103351147D01*
X179439378Y-103351147D02*
X179463188Y-103374956D01*
X179463188Y-103374956D02*
X179486997Y-103422575D01*
X179486997Y-103422575D02*
X179486997Y-103494004D01*
X179486997Y-103494004D02*
X179463188Y-103541623D01*
X179463188Y-103541623D02*
X179439378Y-103565432D01*
X179439378Y-103565432D02*
X179391759Y-103589242D01*
X179391759Y-103589242D02*
X179201283Y-103589242D01*
X179891759Y-103803528D02*
X179844140Y-103827337D01*
X179844140Y-103827337D02*
X179748902Y-103827337D01*
X179748902Y-103827337D02*
X179701283Y-103803528D01*
X179701283Y-103803528D02*
X179677474Y-103755908D01*
X179677474Y-103755908D02*
X179677474Y-103565432D01*
X179677474Y-103565432D02*
X179701283Y-103517813D01*
X179701283Y-103517813D02*
X179748902Y-103494004D01*
X179748902Y-103494004D02*
X179844140Y-103494004D01*
X179844140Y-103494004D02*
X179891759Y-103517813D01*
X179891759Y-103517813D02*
X179915569Y-103565432D01*
X179915569Y-103565432D02*
X179915569Y-103613051D01*
X179915569Y-103613051D02*
X179677474Y-103660670D01*
X180344140Y-103827337D02*
X180344140Y-103327337D01*
X180344140Y-103803528D02*
X180296521Y-103827337D01*
X180296521Y-103827337D02*
X180201283Y-103827337D01*
X180201283Y-103827337D02*
X180153664Y-103803528D01*
X180153664Y-103803528D02*
X180129854Y-103779718D01*
X180129854Y-103779718D02*
X180106045Y-103732099D01*
X180106045Y-103732099D02*
X180106045Y-103589242D01*
X180106045Y-103589242D02*
X180129854Y-103541623D01*
X180129854Y-103541623D02*
X180153664Y-103517813D01*
X180153664Y-103517813D02*
X180201283Y-103494004D01*
X180201283Y-103494004D02*
X180296521Y-103494004D01*
X180296521Y-103494004D02*
X180344140Y-103517813D01*
X180582235Y-103827337D02*
X180582235Y-103494004D01*
X180582235Y-103589242D02*
X180606045Y-103541623D01*
X180606045Y-103541623D02*
X180629854Y-103517813D01*
X180629854Y-103517813D02*
X180677473Y-103494004D01*
X180677473Y-103494004D02*
X180725092Y-103494004D01*
X180963188Y-103827337D02*
X180915569Y-103803528D01*
X180915569Y-103803528D02*
X180891759Y-103779718D01*
X180891759Y-103779718D02*
X180867950Y-103732099D01*
X180867950Y-103732099D02*
X180867950Y-103589242D01*
X180867950Y-103589242D02*
X180891759Y-103541623D01*
X180891759Y-103541623D02*
X180915569Y-103517813D01*
X180915569Y-103517813D02*
X180963188Y-103494004D01*
X180963188Y-103494004D02*
X181034616Y-103494004D01*
X181034616Y-103494004D02*
X181082235Y-103517813D01*
X181082235Y-103517813D02*
X181106045Y-103541623D01*
X181106045Y-103541623D02*
X181129854Y-103589242D01*
X181129854Y-103589242D02*
X181129854Y-103732099D01*
X181129854Y-103732099D02*
X181106045Y-103779718D01*
X181106045Y-103779718D02*
X181082235Y-103803528D01*
X181082235Y-103803528D02*
X181034616Y-103827337D01*
X181034616Y-103827337D02*
X180963188Y-103827337D01*
X182010806Y-103779718D02*
X181986997Y-103803528D01*
X181986997Y-103803528D02*
X181915568Y-103827337D01*
X181915568Y-103827337D02*
X181867949Y-103827337D01*
X181867949Y-103827337D02*
X181796521Y-103803528D01*
X181796521Y-103803528D02*
X181748902Y-103755908D01*
X181748902Y-103755908D02*
X181725092Y-103708289D01*
X181725092Y-103708289D02*
X181701283Y-103613051D01*
X181701283Y-103613051D02*
X181701283Y-103541623D01*
X181701283Y-103541623D02*
X181725092Y-103446385D01*
X181725092Y-103446385D02*
X181748902Y-103398766D01*
X181748902Y-103398766D02*
X181796521Y-103351147D01*
X181796521Y-103351147D02*
X181867949Y-103327337D01*
X181867949Y-103327337D02*
X181915568Y-103327337D01*
X181915568Y-103327337D02*
X181986997Y-103351147D01*
X181986997Y-103351147D02*
X182010806Y-103374956D01*
X182296521Y-103827337D02*
X182248902Y-103803528D01*
X182248902Y-103803528D02*
X182225092Y-103779718D01*
X182225092Y-103779718D02*
X182201283Y-103732099D01*
X182201283Y-103732099D02*
X182201283Y-103589242D01*
X182201283Y-103589242D02*
X182225092Y-103541623D01*
X182225092Y-103541623D02*
X182248902Y-103517813D01*
X182248902Y-103517813D02*
X182296521Y-103494004D01*
X182296521Y-103494004D02*
X182367949Y-103494004D01*
X182367949Y-103494004D02*
X182415568Y-103517813D01*
X182415568Y-103517813D02*
X182439378Y-103541623D01*
X182439378Y-103541623D02*
X182463187Y-103589242D01*
X182463187Y-103589242D02*
X182463187Y-103732099D01*
X182463187Y-103732099D02*
X182439378Y-103779718D01*
X182439378Y-103779718D02*
X182415568Y-103803528D01*
X182415568Y-103803528D02*
X182367949Y-103827337D01*
X182367949Y-103827337D02*
X182296521Y-103827337D01*
X182677473Y-103494004D02*
X182677473Y-103827337D01*
X182677473Y-103541623D02*
X182701283Y-103517813D01*
X182701283Y-103517813D02*
X182748902Y-103494004D01*
X182748902Y-103494004D02*
X182820330Y-103494004D01*
X182820330Y-103494004D02*
X182867949Y-103517813D01*
X182867949Y-103517813D02*
X182891759Y-103565432D01*
X182891759Y-103565432D02*
X182891759Y-103827337D01*
X183344140Y-103827337D02*
X183344140Y-103327337D01*
X183344140Y-103803528D02*
X183296521Y-103827337D01*
X183296521Y-103827337D02*
X183201283Y-103827337D01*
X183201283Y-103827337D02*
X183153664Y-103803528D01*
X183153664Y-103803528D02*
X183129854Y-103779718D01*
X183129854Y-103779718D02*
X183106045Y-103732099D01*
X183106045Y-103732099D02*
X183106045Y-103589242D01*
X183106045Y-103589242D02*
X183129854Y-103541623D01*
X183129854Y-103541623D02*
X183153664Y-103517813D01*
X183153664Y-103517813D02*
X183201283Y-103494004D01*
X183201283Y-103494004D02*
X183296521Y-103494004D01*
X183296521Y-103494004D02*
X183344140Y-103517813D01*
X183772711Y-103803528D02*
X183725092Y-103827337D01*
X183725092Y-103827337D02*
X183629854Y-103827337D01*
X183629854Y-103827337D02*
X183582235Y-103803528D01*
X183582235Y-103803528D02*
X183558426Y-103755908D01*
X183558426Y-103755908D02*
X183558426Y-103565432D01*
X183558426Y-103565432D02*
X183582235Y-103517813D01*
X183582235Y-103517813D02*
X183629854Y-103494004D01*
X183629854Y-103494004D02*
X183725092Y-103494004D01*
X183725092Y-103494004D02*
X183772711Y-103517813D01*
X183772711Y-103517813D02*
X183796521Y-103565432D01*
X183796521Y-103565432D02*
X183796521Y-103613051D01*
X183796521Y-103613051D02*
X183558426Y-103660670D01*
X179296521Y-104132309D02*
X179344140Y-104132309D01*
X179344140Y-104132309D02*
X179391759Y-104156119D01*
X179391759Y-104156119D02*
X179415569Y-104179928D01*
X179415569Y-104179928D02*
X179439378Y-104227547D01*
X179439378Y-104227547D02*
X179463188Y-104322785D01*
X179463188Y-104322785D02*
X179463188Y-104441833D01*
X179463188Y-104441833D02*
X179439378Y-104537071D01*
X179439378Y-104537071D02*
X179415569Y-104584690D01*
X179415569Y-104584690D02*
X179391759Y-104608500D01*
X179391759Y-104608500D02*
X179344140Y-104632309D01*
X179344140Y-104632309D02*
X179296521Y-104632309D01*
X179296521Y-104632309D02*
X179248902Y-104608500D01*
X179248902Y-104608500D02*
X179225093Y-104584690D01*
X179225093Y-104584690D02*
X179201283Y-104537071D01*
X179201283Y-104537071D02*
X179177474Y-104441833D01*
X179177474Y-104441833D02*
X179177474Y-104322785D01*
X179177474Y-104322785D02*
X179201283Y-104227547D01*
X179201283Y-104227547D02*
X179225093Y-104179928D01*
X179225093Y-104179928D02*
X179248902Y-104156119D01*
X179248902Y-104156119D02*
X179296521Y-104132309D01*
X179891759Y-104132309D02*
X179796521Y-104132309D01*
X179796521Y-104132309D02*
X179748902Y-104156119D01*
X179748902Y-104156119D02*
X179725092Y-104179928D01*
X179725092Y-104179928D02*
X179677473Y-104251357D01*
X179677473Y-104251357D02*
X179653664Y-104346595D01*
X179653664Y-104346595D02*
X179653664Y-104537071D01*
X179653664Y-104537071D02*
X179677473Y-104584690D01*
X179677473Y-104584690D02*
X179701283Y-104608500D01*
X179701283Y-104608500D02*
X179748902Y-104632309D01*
X179748902Y-104632309D02*
X179844140Y-104632309D01*
X179844140Y-104632309D02*
X179891759Y-104608500D01*
X179891759Y-104608500D02*
X179915568Y-104584690D01*
X179915568Y-104584690D02*
X179939378Y-104537071D01*
X179939378Y-104537071D02*
X179939378Y-104418023D01*
X179939378Y-104418023D02*
X179915568Y-104370404D01*
X179915568Y-104370404D02*
X179891759Y-104346595D01*
X179891759Y-104346595D02*
X179844140Y-104322785D01*
X179844140Y-104322785D02*
X179748902Y-104322785D01*
X179748902Y-104322785D02*
X179701283Y-104346595D01*
X179701283Y-104346595D02*
X179677473Y-104370404D01*
X179677473Y-104370404D02*
X179653664Y-104418023D01*
X180153663Y-104584690D02*
X180177473Y-104608500D01*
X180177473Y-104608500D02*
X180153663Y-104632309D01*
X180153663Y-104632309D02*
X180129854Y-104608500D01*
X180129854Y-104608500D02*
X180153663Y-104584690D01*
X180153663Y-104584690D02*
X180153663Y-104632309D01*
X180367949Y-104179928D02*
X180391758Y-104156119D01*
X180391758Y-104156119D02*
X180439377Y-104132309D01*
X180439377Y-104132309D02*
X180558425Y-104132309D01*
X180558425Y-104132309D02*
X180606044Y-104156119D01*
X180606044Y-104156119D02*
X180629853Y-104179928D01*
X180629853Y-104179928D02*
X180653663Y-104227547D01*
X180653663Y-104227547D02*
X180653663Y-104275166D01*
X180653663Y-104275166D02*
X180629853Y-104346595D01*
X180629853Y-104346595D02*
X180344139Y-104632309D01*
X180344139Y-104632309D02*
X180653663Y-104632309D01*
X181082234Y-104132309D02*
X180986996Y-104132309D01*
X180986996Y-104132309D02*
X180939377Y-104156119D01*
X180939377Y-104156119D02*
X180915567Y-104179928D01*
X180915567Y-104179928D02*
X180867948Y-104251357D01*
X180867948Y-104251357D02*
X180844139Y-104346595D01*
X180844139Y-104346595D02*
X180844139Y-104537071D01*
X180844139Y-104537071D02*
X180867948Y-104584690D01*
X180867948Y-104584690D02*
X180891758Y-104608500D01*
X180891758Y-104608500D02*
X180939377Y-104632309D01*
X180939377Y-104632309D02*
X181034615Y-104632309D01*
X181034615Y-104632309D02*
X181082234Y-104608500D01*
X181082234Y-104608500D02*
X181106043Y-104584690D01*
X181106043Y-104584690D02*
X181129853Y-104537071D01*
X181129853Y-104537071D02*
X181129853Y-104418023D01*
X181129853Y-104418023D02*
X181106043Y-104370404D01*
X181106043Y-104370404D02*
X181082234Y-104346595D01*
X181082234Y-104346595D02*
X181034615Y-104322785D01*
X181034615Y-104322785D02*
X180939377Y-104322785D01*
X180939377Y-104322785D02*
X180891758Y-104346595D01*
X180891758Y-104346595D02*
X180867948Y-104370404D01*
X180867948Y-104370404D02*
X180844139Y-104418023D01*
D11*
X163687971Y-76978346D02*
X163759400Y-77049774D01*
X163759400Y-77049774D02*
X163830828Y-77264060D01*
X163830828Y-77264060D02*
X163830828Y-77406917D01*
X163830828Y-77406917D02*
X163759400Y-77621203D01*
X163759400Y-77621203D02*
X163616542Y-77764060D01*
X163616542Y-77764060D02*
X163473685Y-77835489D01*
X163473685Y-77835489D02*
X163187971Y-77906917D01*
X163187971Y-77906917D02*
X162973685Y-77906917D01*
X162973685Y-77906917D02*
X162687971Y-77835489D01*
X162687971Y-77835489D02*
X162545114Y-77764060D01*
X162545114Y-77764060D02*
X162402257Y-77621203D01*
X162402257Y-77621203D02*
X162330828Y-77406917D01*
X162330828Y-77406917D02*
X162330828Y-77264060D01*
X162330828Y-77264060D02*
X162402257Y-77049774D01*
X162402257Y-77049774D02*
X162473685Y-76978346D01*
X162330828Y-76549774D02*
X162330828Y-75692632D01*
X163830828Y-76121203D02*
X162330828Y-76121203D01*
X163830828Y-74335489D02*
X163116542Y-74835489D01*
X163830828Y-75192632D02*
X162330828Y-75192632D01*
X162330828Y-75192632D02*
X162330828Y-74621203D01*
X162330828Y-74621203D02*
X162402257Y-74478346D01*
X162402257Y-74478346D02*
X162473685Y-74406917D01*
X162473685Y-74406917D02*
X162616542Y-74335489D01*
X162616542Y-74335489D02*
X162830828Y-74335489D01*
X162830828Y-74335489D02*
X162973685Y-74406917D01*
X162973685Y-74406917D02*
X163045114Y-74478346D01*
X163045114Y-74478346D02*
X163116542Y-74621203D01*
X163116542Y-74621203D02*
X163116542Y-75192632D01*
X163830828Y-72978346D02*
X163830828Y-73692632D01*
X163830828Y-73692632D02*
X162330828Y-73692632D01*
X154700828Y-115539774D02*
X154700828Y-114682632D01*
X156200828Y-115111203D02*
X154700828Y-115111203D01*
X156200828Y-113325489D02*
X155486542Y-113825489D01*
X156200828Y-114182632D02*
X154700828Y-114182632D01*
X154700828Y-114182632D02*
X154700828Y-113611203D01*
X154700828Y-113611203D02*
X154772257Y-113468346D01*
X154772257Y-113468346D02*
X154843685Y-113396917D01*
X154843685Y-113396917D02*
X154986542Y-113325489D01*
X154986542Y-113325489D02*
X155200828Y-113325489D01*
X155200828Y-113325489D02*
X155343685Y-113396917D01*
X155343685Y-113396917D02*
X155415114Y-113468346D01*
X155415114Y-113468346D02*
X155486542Y-113611203D01*
X155486542Y-113611203D02*
X155486542Y-114182632D01*
X156200828Y-112682632D02*
X154700828Y-112682632D01*
X156200828Y-111968346D02*
X154700828Y-111968346D01*
X154700828Y-111968346D02*
X155772257Y-111468346D01*
X155772257Y-111468346D02*
X154700828Y-110968346D01*
X154700828Y-110968346D02*
X156200828Y-110968346D01*
X172410828Y-115539774D02*
X173910828Y-115039774D01*
X173910828Y-115039774D02*
X172410828Y-114539774D01*
X172410828Y-113754060D02*
X172410828Y-113468346D01*
X172410828Y-113468346D02*
X172482257Y-113325489D01*
X172482257Y-113325489D02*
X172625114Y-113182632D01*
X172625114Y-113182632D02*
X172910828Y-113111203D01*
X172910828Y-113111203D02*
X173410828Y-113111203D01*
X173410828Y-113111203D02*
X173696542Y-113182632D01*
X173696542Y-113182632D02*
X173839400Y-113325489D01*
X173839400Y-113325489D02*
X173910828Y-113468346D01*
X173910828Y-113468346D02*
X173910828Y-113754060D01*
X173910828Y-113754060D02*
X173839400Y-113896918D01*
X173839400Y-113896918D02*
X173696542Y-114039775D01*
X173696542Y-114039775D02*
X173410828Y-114111203D01*
X173410828Y-114111203D02*
X172910828Y-114111203D01*
X172910828Y-114111203D02*
X172625114Y-114039775D01*
X172625114Y-114039775D02*
X172482257Y-113896918D01*
X172482257Y-113896918D02*
X172410828Y-113754060D01*
X173339400Y-112468346D02*
X173339400Y-111325489D01*
X173910828Y-111896917D02*
X172767971Y-111896917D01*
X148499400Y-115496917D02*
X148570828Y-115282632D01*
X148570828Y-115282632D02*
X148570828Y-114925489D01*
X148570828Y-114925489D02*
X148499400Y-114782632D01*
X148499400Y-114782632D02*
X148427971Y-114711203D01*
X148427971Y-114711203D02*
X148285114Y-114639774D01*
X148285114Y-114639774D02*
X148142257Y-114639774D01*
X148142257Y-114639774D02*
X147999400Y-114711203D01*
X147999400Y-114711203D02*
X147927971Y-114782632D01*
X147927971Y-114782632D02*
X147856542Y-114925489D01*
X147856542Y-114925489D02*
X147785114Y-115211203D01*
X147785114Y-115211203D02*
X147713685Y-115354060D01*
X147713685Y-115354060D02*
X147642257Y-115425489D01*
X147642257Y-115425489D02*
X147499400Y-115496917D01*
X147499400Y-115496917D02*
X147356542Y-115496917D01*
X147356542Y-115496917D02*
X147213685Y-115425489D01*
X147213685Y-115425489D02*
X147142257Y-115354060D01*
X147142257Y-115354060D02*
X147070828Y-115211203D01*
X147070828Y-115211203D02*
X147070828Y-114854060D01*
X147070828Y-114854060D02*
X147142257Y-114639774D01*
X147785114Y-113996918D02*
X147785114Y-113496918D01*
X148570828Y-113282632D02*
X148570828Y-113996918D01*
X148570828Y-113996918D02*
X147070828Y-113996918D01*
X147070828Y-113996918D02*
X147070828Y-113282632D01*
X148570828Y-112639775D02*
X147070828Y-112639775D01*
X147070828Y-112639775D02*
X148570828Y-111782632D01*
X148570828Y-111782632D02*
X147070828Y-111782632D01*
X148499400Y-111139774D02*
X148570828Y-110925489D01*
X148570828Y-110925489D02*
X148570828Y-110568346D01*
X148570828Y-110568346D02*
X148499400Y-110425489D01*
X148499400Y-110425489D02*
X148427971Y-110354060D01*
X148427971Y-110354060D02*
X148285114Y-110282631D01*
X148285114Y-110282631D02*
X148142257Y-110282631D01*
X148142257Y-110282631D02*
X147999400Y-110354060D01*
X147999400Y-110354060D02*
X147927971Y-110425489D01*
X147927971Y-110425489D02*
X147856542Y-110568346D01*
X147856542Y-110568346D02*
X147785114Y-110854060D01*
X147785114Y-110854060D02*
X147713685Y-110996917D01*
X147713685Y-110996917D02*
X147642257Y-111068346D01*
X147642257Y-111068346D02*
X147499400Y-111139774D01*
X147499400Y-111139774D02*
X147356542Y-111139774D01*
X147356542Y-111139774D02*
X147213685Y-111068346D01*
X147213685Y-111068346D02*
X147142257Y-110996917D01*
X147142257Y-110996917D02*
X147070828Y-110854060D01*
X147070828Y-110854060D02*
X147070828Y-110496917D01*
X147070828Y-110496917D02*
X147142257Y-110282631D01*
X147785114Y-109639775D02*
X147785114Y-109139775D01*
X148570828Y-108925489D02*
X148570828Y-109639775D01*
X148570828Y-109639775D02*
X147070828Y-109639775D01*
X147070828Y-109639775D02*
X147070828Y-108925489D01*
X147999400Y-108282632D02*
X147999400Y-107139775D01*
X122530249Y-116049999D02*
X122530249Y-116430952D01*
X122530249Y-116430952D02*
X122435011Y-116621428D01*
X122435011Y-116621428D02*
X122244535Y-116811904D01*
X122244535Y-116811904D02*
X121863583Y-116907142D01*
X121863583Y-116907142D02*
X121196916Y-116907142D01*
X121196916Y-116907142D02*
X120815964Y-116811904D01*
X120815964Y-116811904D02*
X120625488Y-116621428D01*
X120625488Y-116621428D02*
X120530249Y-116430952D01*
X120530249Y-116430952D02*
X120530249Y-116049999D01*
X120530249Y-116049999D02*
X120625488Y-115859523D01*
X120625488Y-115859523D02*
X120815964Y-115669047D01*
X120815964Y-115669047D02*
X121196916Y-115573809D01*
X121196916Y-115573809D02*
X121863583Y-115573809D01*
X121863583Y-115573809D02*
X122244535Y-115669047D01*
X122244535Y-115669047D02*
X122435011Y-115859523D01*
X122435011Y-115859523D02*
X122530249Y-116049999D01*
X122530249Y-117764285D02*
X120911202Y-117764285D01*
X120911202Y-117764285D02*
X120720726Y-117859523D01*
X120720726Y-117859523D02*
X120625488Y-117954761D01*
X120625488Y-117954761D02*
X120530249Y-118145237D01*
X120530249Y-118145237D02*
X120530249Y-118526190D01*
X120530249Y-118526190D02*
X120625488Y-118716666D01*
X120625488Y-118716666D02*
X120720726Y-118811904D01*
X120720726Y-118811904D02*
X120911202Y-118907142D01*
X120911202Y-118907142D02*
X122530249Y-118907142D01*
X122530249Y-119573809D02*
X122530249Y-120716666D01*
X120530249Y-120145237D02*
X122530249Y-120145237D01*
X119310361Y-117669047D02*
X119310361Y-116716666D01*
X119310361Y-116716666D02*
X118357980Y-116621428D01*
X118357980Y-116621428D02*
X118453219Y-116716666D01*
X118453219Y-116716666D02*
X118548457Y-116907142D01*
X118548457Y-116907142D02*
X118548457Y-117383333D01*
X118548457Y-117383333D02*
X118453219Y-117573809D01*
X118453219Y-117573809D02*
X118357980Y-117669047D01*
X118357980Y-117669047D02*
X118167504Y-117764285D01*
X118167504Y-117764285D02*
X117691314Y-117764285D01*
X117691314Y-117764285D02*
X117500838Y-117669047D01*
X117500838Y-117669047D02*
X117405600Y-117573809D01*
X117405600Y-117573809D02*
X117310361Y-117383333D01*
X117310361Y-117383333D02*
X117310361Y-116907142D01*
X117310361Y-116907142D02*
X117405600Y-116716666D01*
X117405600Y-116716666D02*
X117500838Y-116621428D01*
X119310361Y-118335714D02*
X117310361Y-119002380D01*
X117310361Y-119002380D02*
X119310361Y-119669047D01*
X119830249Y-70002381D02*
X121830249Y-70002381D01*
X119830249Y-70954762D02*
X121830249Y-70954762D01*
X121830249Y-70954762D02*
X119830249Y-72097619D01*
X119830249Y-72097619D02*
X121830249Y-72097619D01*
X118610361Y-67764285D02*
X116610361Y-68430951D01*
X116610361Y-68430951D02*
X118610361Y-69097618D01*
X117657980Y-70430952D02*
X117562742Y-70716666D01*
X117562742Y-70716666D02*
X117467504Y-70811904D01*
X117467504Y-70811904D02*
X117277028Y-70907142D01*
X117277028Y-70907142D02*
X116991314Y-70907142D01*
X116991314Y-70907142D02*
X116800838Y-70811904D01*
X116800838Y-70811904D02*
X116705600Y-70716666D01*
X116705600Y-70716666D02*
X116610361Y-70526190D01*
X116610361Y-70526190D02*
X116610361Y-69764285D01*
X116610361Y-69764285D02*
X118610361Y-69764285D01*
X118610361Y-69764285D02*
X118610361Y-70430952D01*
X118610361Y-70430952D02*
X118515123Y-70621428D01*
X118515123Y-70621428D02*
X118419885Y-70716666D01*
X118419885Y-70716666D02*
X118229409Y-70811904D01*
X118229409Y-70811904D02*
X118038933Y-70811904D01*
X118038933Y-70811904D02*
X117848457Y-70716666D01*
X117848457Y-70716666D02*
X117753219Y-70621428D01*
X117753219Y-70621428D02*
X117657980Y-70430952D01*
X117657980Y-70430952D02*
X117657980Y-69764285D01*
X117181790Y-71669047D02*
X117181790Y-72621428D01*
X116610361Y-71478571D02*
X118610361Y-72145237D01*
X118610361Y-72145237D02*
X116610361Y-72811904D01*
X118610361Y-73192857D02*
X118610361Y-74335714D01*
X116610361Y-73764285D02*
X118610361Y-73764285D01*
X148587971Y-77018346D02*
X148659400Y-77089774D01*
X148659400Y-77089774D02*
X148730828Y-77304060D01*
X148730828Y-77304060D02*
X148730828Y-77446917D01*
X148730828Y-77446917D02*
X148659400Y-77661203D01*
X148659400Y-77661203D02*
X148516542Y-77804060D01*
X148516542Y-77804060D02*
X148373685Y-77875489D01*
X148373685Y-77875489D02*
X148087971Y-77946917D01*
X148087971Y-77946917D02*
X147873685Y-77946917D01*
X147873685Y-77946917D02*
X147587971Y-77875489D01*
X147587971Y-77875489D02*
X147445114Y-77804060D01*
X147445114Y-77804060D02*
X147302257Y-77661203D01*
X147302257Y-77661203D02*
X147230828Y-77446917D01*
X147230828Y-77446917D02*
X147230828Y-77304060D01*
X147230828Y-77304060D02*
X147302257Y-77089774D01*
X147302257Y-77089774D02*
X147373685Y-77018346D01*
X148302257Y-76446917D02*
X148302257Y-75732632D01*
X148730828Y-76589774D02*
X147230828Y-76089774D01*
X147230828Y-76089774D02*
X148730828Y-75589774D01*
X148659400Y-75161203D02*
X148730828Y-74946918D01*
X148730828Y-74946918D02*
X148730828Y-74589775D01*
X148730828Y-74589775D02*
X148659400Y-74446918D01*
X148659400Y-74446918D02*
X148587971Y-74375489D01*
X148587971Y-74375489D02*
X148445114Y-74304060D01*
X148445114Y-74304060D02*
X148302257Y-74304060D01*
X148302257Y-74304060D02*
X148159400Y-74375489D01*
X148159400Y-74375489D02*
X148087971Y-74446918D01*
X148087971Y-74446918D02*
X148016542Y-74589775D01*
X148016542Y-74589775D02*
X147945114Y-74875489D01*
X147945114Y-74875489D02*
X147873685Y-75018346D01*
X147873685Y-75018346D02*
X147802257Y-75089775D01*
X147802257Y-75089775D02*
X147659400Y-75161203D01*
X147659400Y-75161203D02*
X147516542Y-75161203D01*
X147516542Y-75161203D02*
X147373685Y-75089775D01*
X147373685Y-75089775D02*
X147302257Y-75018346D01*
X147302257Y-75018346D02*
X147230828Y-74875489D01*
X147230828Y-74875489D02*
X147230828Y-74518346D01*
X147230828Y-74518346D02*
X147302257Y-74304060D01*
X147945114Y-73661204D02*
X147945114Y-73161204D01*
X148730828Y-72946918D02*
X148730828Y-73661204D01*
X148730828Y-73661204D02*
X147230828Y-73661204D01*
X147230828Y-73661204D02*
X147230828Y-72946918D01*
X136940828Y-115429774D02*
X138440828Y-114929774D01*
X138440828Y-114929774D02*
X136940828Y-114429774D01*
X136940828Y-113644060D02*
X136940828Y-113358346D01*
X136940828Y-113358346D02*
X137012257Y-113215489D01*
X137012257Y-113215489D02*
X137155114Y-113072632D01*
X137155114Y-113072632D02*
X137440828Y-113001203D01*
X137440828Y-113001203D02*
X137940828Y-113001203D01*
X137940828Y-113001203D02*
X138226542Y-113072632D01*
X138226542Y-113072632D02*
X138369400Y-113215489D01*
X138369400Y-113215489D02*
X138440828Y-113358346D01*
X138440828Y-113358346D02*
X138440828Y-113644060D01*
X138440828Y-113644060D02*
X138369400Y-113786918D01*
X138369400Y-113786918D02*
X138226542Y-113929775D01*
X138226542Y-113929775D02*
X137940828Y-114001203D01*
X137940828Y-114001203D02*
X137440828Y-114001203D01*
X137440828Y-114001203D02*
X137155114Y-113929775D01*
X137155114Y-113929775D02*
X137012257Y-113786918D01*
X137012257Y-113786918D02*
X136940828Y-113644060D01*
X137869400Y-112358346D02*
X137869400Y-111215489D01*
X172370828Y-77879774D02*
X173870828Y-77379774D01*
X173870828Y-77379774D02*
X172370828Y-76879774D01*
X173870828Y-76379775D02*
X172370828Y-76379775D01*
X173870828Y-75665489D02*
X172370828Y-75665489D01*
X172370828Y-75665489D02*
X173870828Y-74808346D01*
X173870828Y-74808346D02*
X172370828Y-74808346D01*
X173299400Y-74094060D02*
X173299400Y-72951203D01*
X173870828Y-73522631D02*
X172727971Y-73522631D01*
D13*
X121824700Y-112051428D02*
X121824700Y-110908571D01*
X122396128Y-111479999D02*
X121253271Y-111479999D01*
X121783866Y-99610951D02*
X121783866Y-98849047D01*
X121764700Y-78091428D02*
X121764700Y-76948571D01*
X122336128Y-77519999D02*
X121193271Y-77519999D01*
X121764700Y-90391428D02*
X121764700Y-89248571D01*
D14*
%TO.C,G\u002A\u002A\u002A*%
G36*
X191730334Y-117679592D02*
G01*
X191730334Y-118198922D01*
X190479219Y-118198922D01*
X189228103Y-118198922D01*
X189228103Y-117679592D01*
X189228103Y-117160261D01*
X190479219Y-117160261D01*
X191730334Y-117160261D01*
X191730334Y-117679592D01*
G37*
G36*
X190467416Y-115707711D02*
G01*
X191706728Y-115720298D01*
X191720033Y-116218455D01*
X191722568Y-116426761D01*
X191718981Y-116598944D01*
X191710056Y-116713817D01*
X191700361Y-116749589D01*
X191646057Y-116758488D01*
X191510218Y-116766478D01*
X191305733Y-116773218D01*
X191045490Y-116778369D01*
X190742375Y-116781593D01*
X190447744Y-116782566D01*
X189228103Y-116782566D01*
X189228103Y-116238845D01*
X189228103Y-115695124D01*
X190467416Y-115707711D01*
G37*
G36*
X189700222Y-112297436D02*
G01*
X189700222Y-112863978D01*
X190715278Y-112863978D01*
X191730334Y-112863978D01*
X191730334Y-113162987D01*
X191725703Y-113323254D01*
X191713636Y-113443465D01*
X191698859Y-113493470D01*
X191644223Y-113502892D01*
X191509622Y-113511187D01*
X191309512Y-113517907D01*
X191058350Y-113522603D01*
X190770593Y-113524827D01*
X190685302Y-113524945D01*
X189703219Y-113524945D01*
X189689918Y-114079685D01*
X189676616Y-114634424D01*
X189452360Y-114648814D01*
X189228103Y-114663204D01*
X189228103Y-113197048D01*
X189228103Y-111730893D01*
X189464163Y-111730893D01*
X189700222Y-111730893D01*
X189700222Y-112297436D01*
G37*
G36*
X194751895Y-102758165D02*
G01*
X194751895Y-104129778D01*
X193500780Y-104129778D01*
X192249665Y-104129778D01*
X192249665Y-102807844D01*
X192249665Y-101485911D01*
X192509330Y-101485911D01*
X192768996Y-101485911D01*
X192768996Y-102477361D01*
X192768996Y-103468811D01*
X193028661Y-103468811D01*
X193288326Y-103468811D01*
X193288326Y-102689815D01*
X193288326Y-101910818D01*
X193524386Y-101910818D01*
X193760445Y-101910818D01*
X193760445Y-102689815D01*
X193760445Y-103468811D01*
X193995584Y-103468811D01*
X194230723Y-103468811D01*
X194243447Y-102441952D01*
X194256170Y-101415094D01*
X194504033Y-101400823D01*
X194751895Y-101386553D01*
X194751895Y-102758165D01*
G37*
G36*
X190859972Y-116877585D02*
G01*
X191156397Y-116879753D01*
X191378582Y-116884064D01*
X191536618Y-116891090D01*
X191640594Y-116901402D01*
X191700599Y-116915570D01*
X191726724Y-116934165D01*
X191730334Y-116947807D01*
X191719809Y-116969359D01*
X191681508Y-116986138D01*
X191605341Y-116998715D01*
X191481219Y-117007660D01*
X191299052Y-117013545D01*
X191048751Y-117016942D01*
X190720225Y-117018421D01*
X190479219Y-117018625D01*
X190098465Y-117018029D01*
X189802041Y-117015861D01*
X189579855Y-117011550D01*
X189421819Y-117004524D01*
X189317843Y-116994213D01*
X189257838Y-116980045D01*
X189231713Y-116961449D01*
X189228103Y-116947807D01*
X189238628Y-116926255D01*
X189276929Y-116909476D01*
X189353096Y-116896900D01*
X189477218Y-116887954D01*
X189659385Y-116882069D01*
X189909686Y-116878673D01*
X190238212Y-116877194D01*
X190479219Y-116876989D01*
X190859972Y-116877585D01*
G37*
G36*
X189707645Y-102628484D02*
G01*
X189714304Y-102951155D01*
X189722283Y-103194589D01*
X189733158Y-103373974D01*
X189748503Y-103504496D01*
X189769895Y-103601343D01*
X189798910Y-103679701D01*
X189821492Y-103725800D01*
X189963517Y-103930118D01*
X190142348Y-104055263D01*
X190377792Y-104114261D01*
X190418246Y-104118133D01*
X190671225Y-104098695D01*
X190882994Y-103995098D01*
X191056809Y-103805568D01*
X191090421Y-103751922D01*
X191124222Y-103686460D01*
X191149692Y-103611301D01*
X191168337Y-103511840D01*
X191181661Y-103373471D01*
X191191168Y-103181587D01*
X191198362Y-102921584D01*
X191203469Y-102654406D01*
X191219542Y-101721971D01*
X191474938Y-101721971D01*
X191730334Y-101721971D01*
X191725591Y-102654406D01*
X191722010Y-102954312D01*
X191714871Y-103233036D01*
X191704932Y-103472506D01*
X191692952Y-103654654D01*
X191679690Y-103761408D01*
X191678965Y-103764619D01*
X191567127Y-104074664D01*
X191394774Y-104335837D01*
X191274032Y-104454377D01*
X190995521Y-104627242D01*
X190687322Y-104721686D01*
X190367740Y-104738411D01*
X190055080Y-104678114D01*
X189767645Y-104541497D01*
X189579875Y-104389611D01*
X189474588Y-104275646D01*
X189392513Y-104160459D01*
X189330749Y-104030523D01*
X189286392Y-103872312D01*
X189256540Y-103672299D01*
X189238289Y-103416957D01*
X189228736Y-103092761D01*
X189225206Y-102737027D01*
X189220321Y-101745577D01*
X189455892Y-101731458D01*
X189691462Y-101717340D01*
X189707645Y-102628484D01*
G37*
G36*
X193147172Y-111979107D02*
G01*
X193263789Y-112017530D01*
X193363307Y-112064869D01*
X193497279Y-112137816D01*
X193599562Y-112215216D01*
X193674703Y-112310682D01*
X193727245Y-112437827D01*
X193761736Y-112610263D01*
X193782720Y-112841604D01*
X193794742Y-113145462D01*
X193799604Y-113371506D01*
X193815156Y-114233123D01*
X194283526Y-114233123D01*
X194751895Y-114233123D01*
X194751895Y-114564390D01*
X194751895Y-114895658D01*
X193512583Y-114883071D01*
X193032898Y-114878199D01*
X192273271Y-114870484D01*
X192273324Y-114233123D01*
X192721784Y-114233123D01*
X193032898Y-114233123D01*
X193344013Y-114233123D01*
X193327973Y-113508488D01*
X193318576Y-113200960D01*
X193305238Y-112976596D01*
X193286805Y-112824176D01*
X193262122Y-112732483D01*
X193245155Y-112703498D01*
X193137849Y-112642516D01*
X193010182Y-112637335D01*
X192909539Y-112655366D01*
X192835220Y-112698338D01*
X192783344Y-112778695D01*
X192750033Y-112908883D01*
X192731408Y-113101347D01*
X192723589Y-113368533D01*
X192722480Y-113560354D01*
X192721784Y-114233123D01*
X192273324Y-114233123D01*
X192273370Y-113690186D01*
X192274184Y-113315019D01*
X192277023Y-113022317D01*
X192282590Y-112800129D01*
X192291589Y-112636506D01*
X192304722Y-112519498D01*
X192322693Y-112437155D01*
X192346205Y-112377527D01*
X192351158Y-112368142D01*
X192468675Y-112198557D01*
X192614864Y-112088287D01*
X192818914Y-112017021D01*
X192873237Y-112004817D01*
X193032503Y-111976770D01*
X193147172Y-111979107D01*
G37*
G36*
X191729430Y-104917901D02*
G01*
X191728525Y-105286469D01*
X191422552Y-105465392D01*
X191116579Y-105644316D01*
X191116579Y-106440575D01*
X191116579Y-107236834D01*
X191423457Y-107416349D01*
X191730334Y-107595865D01*
X191730334Y-107967648D01*
X191730334Y-108339430D01*
X191503700Y-108205701D01*
X191399938Y-108144073D01*
X191229426Y-108042334D01*
X191006367Y-107908978D01*
X190744962Y-107752500D01*
X190615227Y-107674761D01*
X190459414Y-107581396D01*
X190254017Y-107458216D01*
X189230967Y-106844462D01*
X189230834Y-106457850D01*
X189836038Y-106457850D01*
X189874096Y-106489386D01*
X189894296Y-106502045D01*
X190092561Y-106622722D01*
X190281319Y-106734460D01*
X190442987Y-106827181D01*
X190559983Y-106890805D01*
X190614724Y-106915256D01*
X190615227Y-106915279D01*
X190627499Y-106871403D01*
X190637233Y-106753097D01*
X190643194Y-106580346D01*
X190644460Y-106443160D01*
X190641171Y-106245119D01*
X190632302Y-106088177D01*
X190619352Y-105992263D01*
X190609051Y-105972065D01*
X190555397Y-105994810D01*
X190440023Y-106055133D01*
X190282500Y-106142570D01*
X190177567Y-106202726D01*
X189996503Y-106308697D01*
X189886433Y-106378927D01*
X189836547Y-106424838D01*
X189836038Y-106457850D01*
X189230834Y-106457850D01*
X189230829Y-106443160D01*
X189230690Y-106041859D01*
X190299564Y-105404499D01*
X190596537Y-105227379D01*
X190875950Y-105060660D01*
X191124706Y-104912164D01*
X191329707Y-104789711D01*
X191477855Y-104701123D01*
X191549386Y-104658235D01*
X191730334Y-104549333D01*
X191729430Y-104917901D01*
G37*
G36*
X191720782Y-108835046D02*
G01*
X191706728Y-109157844D01*
X191305427Y-109170477D01*
X191108653Y-109178755D01*
X190963703Y-109197916D01*
X190862657Y-109240728D01*
X190797594Y-109319957D01*
X190760593Y-109448370D01*
X190743733Y-109638736D01*
X190739095Y-109903822D01*
X190738884Y-110083707D01*
X190738884Y-110786655D01*
X191234609Y-110786655D01*
X191730334Y-110786655D01*
X191730334Y-111093532D01*
X191730334Y-111400409D01*
X190479219Y-111400409D01*
X189983494Y-111400409D01*
X189228103Y-111400409D01*
X189228280Y-110208309D01*
X189228524Y-110040707D01*
X189700222Y-110040707D01*
X189700222Y-110786655D01*
X189983494Y-110786655D01*
X190266765Y-110786655D01*
X190266765Y-110088981D01*
X190264723Y-109799700D01*
X190257678Y-109589751D01*
X190244256Y-109444112D01*
X190223082Y-109347763D01*
X190193270Y-109286379D01*
X190091446Y-109210114D01*
X189951551Y-109179715D01*
X189816864Y-109199970D01*
X189756877Y-109238105D01*
X189732258Y-109303299D01*
X189714875Y-109445745D01*
X189704347Y-109670823D01*
X189700295Y-109983916D01*
X189700222Y-110040707D01*
X189228524Y-110040707D01*
X189228819Y-109838607D01*
X189230875Y-109551038D01*
X189235293Y-109333315D01*
X189242914Y-109173149D01*
X189254583Y-109058253D01*
X189271143Y-108976338D01*
X189293437Y-108915117D01*
X189320450Y-108865335D01*
X189462471Y-108692538D01*
X189646001Y-108587498D01*
X189871295Y-108539290D01*
X190062995Y-108535785D01*
X190226164Y-108581466D01*
X190287337Y-108611006D01*
X190405631Y-108668548D01*
X190476054Y-108681784D01*
X190533091Y-108652599D01*
X190563618Y-108626092D01*
X190624365Y-108588064D01*
X190719775Y-108561495D01*
X190867433Y-108543653D01*
X191084926Y-108531810D01*
X191194461Y-108528169D01*
X191734836Y-108512248D01*
X191720782Y-108835046D01*
G37*
G36*
X194751895Y-98506339D02*
G01*
X194751895Y-98842045D01*
X194353271Y-98842045D01*
X194164863Y-98844155D01*
X194025747Y-98858773D01*
X193928449Y-98898333D01*
X193865492Y-98975270D01*
X193829402Y-99102018D01*
X193812702Y-99291011D01*
X193807918Y-99554683D01*
X193807657Y-99749576D01*
X193807657Y-100447250D01*
X194279776Y-100447250D01*
X194751895Y-100447250D01*
X194751895Y-100778517D01*
X194751895Y-101109784D01*
X193512583Y-101097197D01*
X193005055Y-101092042D01*
X192273271Y-101084610D01*
X192264270Y-100447250D01*
X192721784Y-100447250D01*
X193005055Y-100447250D01*
X193288326Y-100447250D01*
X193288326Y-99697640D01*
X193286583Y-99400441D01*
X193280631Y-99184726D01*
X193269388Y-99037608D01*
X193251769Y-98946197D01*
X193226691Y-98897608D01*
X193220593Y-98891817D01*
X193128447Y-98856781D01*
X193000283Y-98850360D01*
X192997413Y-98850627D01*
X192900909Y-98870463D01*
X192829644Y-98916897D01*
X192779934Y-99002314D01*
X192748091Y-99139099D01*
X192730431Y-99339637D01*
X192723267Y-99616314D01*
X192722480Y-99774480D01*
X192721784Y-100447250D01*
X192264270Y-100447250D01*
X192258603Y-100045949D01*
X192255043Y-99625397D01*
X192258546Y-99287765D01*
X192270650Y-99021709D01*
X192292893Y-98815886D01*
X192326815Y-98658955D01*
X192373954Y-98539570D01*
X192435848Y-98446391D01*
X192482317Y-98396797D01*
X192680040Y-98268214D01*
X192917064Y-98206114D01*
X193163000Y-98213264D01*
X193387462Y-98292431D01*
X193418676Y-98311522D01*
X193505827Y-98355813D01*
X193573652Y-98336237D01*
X193624310Y-98294131D01*
X193686524Y-98252791D01*
X193777910Y-98224281D01*
X193917527Y-98205305D01*
X194124434Y-98192571D01*
X194236855Y-98188262D01*
X194751895Y-98170633D01*
X194751895Y-98506339D01*
G37*
G36*
X192336101Y-104379591D02*
G01*
X192467187Y-104418376D01*
X192664098Y-104478479D01*
X192914775Y-104556188D01*
X193207160Y-104647788D01*
X193529194Y-104749565D01*
X193536081Y-104751752D01*
X194751895Y-105137666D01*
X194751895Y-105499536D01*
X194751895Y-105861407D01*
X193890278Y-106111091D01*
X193620911Y-106189478D01*
X193384688Y-106258844D01*
X193195808Y-106314969D01*
X193068472Y-106353631D01*
X193016880Y-106370609D01*
X193016520Y-106370832D01*
X193055688Y-106386491D01*
X193171985Y-106424180D01*
X193351826Y-106479711D01*
X193581629Y-106548897D01*
X193847810Y-106627550D01*
X193877636Y-106636281D01*
X194750894Y-106891673D01*
X194751395Y-107253716D01*
X194751895Y-107615759D01*
X194456821Y-107711081D01*
X194058646Y-107839121D01*
X193676560Y-107960879D01*
X193320973Y-108073127D01*
X193002296Y-108172638D01*
X192730938Y-108256184D01*
X192517309Y-108320536D01*
X192371819Y-108362468D01*
X192304879Y-108378750D01*
X192303192Y-108378848D01*
X192271457Y-108332926D01*
X192253543Y-108198517D01*
X192249665Y-108050185D01*
X192249665Y-107721521D01*
X192426709Y-107674411D01*
X192906832Y-107546200D01*
X193303616Y-107439266D01*
X193615418Y-107354062D01*
X193840598Y-107291041D01*
X193977513Y-107250656D01*
X194024266Y-107233739D01*
X193985868Y-107215453D01*
X193860329Y-107174581D01*
X193651878Y-107112348D01*
X193364746Y-107029983D01*
X193003161Y-106928713D01*
X192571354Y-106809764D01*
X192426709Y-106770259D01*
X192249665Y-106721994D01*
X192249665Y-106378152D01*
X192249665Y-106034311D01*
X193156889Y-105781819D01*
X193427879Y-105704382D01*
X193659768Y-105634215D01*
X193840226Y-105575381D01*
X193956924Y-105531943D01*
X193997533Y-105507963D01*
X193994900Y-105505657D01*
X193928624Y-105486283D01*
X193787095Y-105447021D01*
X193586317Y-105392240D01*
X193342292Y-105326309D01*
X193099479Y-105261198D01*
X192273271Y-105040409D01*
X192259399Y-104703123D01*
X192257414Y-104538512D01*
X192265086Y-104418411D01*
X192280775Y-104366391D01*
X192282898Y-104365837D01*
X192336101Y-104379591D01*
G37*
G36*
X190678651Y-98219692D02*
G01*
X190966721Y-98301549D01*
X191227858Y-98446300D01*
X191446977Y-98650617D01*
X191608995Y-98911175D01*
X191660872Y-99051265D01*
X191686834Y-99189544D01*
X191706782Y-99395079D01*
X191720345Y-99643967D01*
X191727152Y-99912306D01*
X191726832Y-100176193D01*
X191719013Y-100411725D01*
X191703324Y-100595000D01*
X191686222Y-100683615D01*
X191545396Y-100994733D01*
X191335590Y-101247613D01*
X191067746Y-101434301D01*
X190752805Y-101546841D01*
X190455613Y-101578261D01*
X190386793Y-101569693D01*
X190104673Y-101534569D01*
X189792764Y-101406767D01*
X189528159Y-101199770D01*
X189319133Y-100918494D01*
X189306587Y-100895763D01*
X189268304Y-100817326D01*
X189240933Y-100734674D01*
X189222674Y-100630741D01*
X189211725Y-100488459D01*
X189206288Y-100290762D01*
X189204561Y-100020583D01*
X189204500Y-99931777D01*
X189700222Y-99931777D01*
X189703570Y-100167885D01*
X189716064Y-100334231D01*
X189741381Y-100455321D01*
X189783197Y-100555659D01*
X189797842Y-100582457D01*
X189949013Y-100782687D01*
X190137851Y-100903274D01*
X190383933Y-100956665D01*
X190386793Y-100956905D01*
X190663815Y-100938564D01*
X190899797Y-100839476D01*
X191084110Y-100666691D01*
X191206129Y-100427258D01*
X191211550Y-100409888D01*
X191237231Y-100262926D01*
X191250480Y-100056995D01*
X191251414Y-99826714D01*
X191240147Y-99606699D01*
X191216796Y-99431570D01*
X191208164Y-99395494D01*
X191099624Y-99153754D01*
X190935055Y-98972010D01*
X190731176Y-98855772D01*
X190504707Y-98810550D01*
X190272367Y-98841853D01*
X190050876Y-98955190D01*
X189999058Y-98997075D01*
X189873342Y-99124250D01*
X189787381Y-99260280D01*
X189734394Y-99426372D01*
X189707601Y-99643733D01*
X189700222Y-99931777D01*
X189204500Y-99931777D01*
X189204497Y-99927919D01*
X189206854Y-99596485D01*
X189217043Y-99341712D01*
X189239747Y-99145891D01*
X189279645Y-98991312D01*
X189341418Y-98860266D01*
X189429747Y-98735041D01*
X189549313Y-98597930D01*
X189558711Y-98587713D01*
X189803677Y-98384737D01*
X190082045Y-98257959D01*
X190378731Y-98204053D01*
X190678651Y-98219692D01*
G37*
G36*
X193862095Y-108446292D02*
G01*
X194148238Y-108562987D01*
X194400500Y-108747940D01*
X194603499Y-108997994D01*
X194675963Y-109133709D01*
X194716957Y-109237442D01*
X194745694Y-109352835D01*
X194764651Y-109499977D01*
X194776305Y-109698961D01*
X194783134Y-109969876D01*
X194783739Y-110007659D01*
X194784341Y-110264827D01*
X194778843Y-110503282D01*
X194768200Y-110699499D01*
X194753364Y-110829948D01*
X194749702Y-110847204D01*
X194660319Y-111105995D01*
X194522275Y-111316415D01*
X194384508Y-111456298D01*
X194138779Y-111635253D01*
X193872256Y-111738405D01*
X193563080Y-111772764D01*
X193476584Y-111770125D01*
X193411807Y-111768148D01*
X193066046Y-111709768D01*
X192780533Y-111581088D01*
X192549217Y-111379045D01*
X192486339Y-111299342D01*
X192391837Y-111143415D01*
X192324113Y-110965356D01*
X192280435Y-110749154D01*
X192258073Y-110478798D01*
X192254292Y-110138279D01*
X192254544Y-110125688D01*
X192745390Y-110125688D01*
X192754687Y-110420671D01*
X192787557Y-110642216D01*
X192851465Y-110809927D01*
X192953877Y-110943405D01*
X193102031Y-111062099D01*
X193211840Y-111125127D01*
X193324201Y-111154792D01*
X193476584Y-111158621D01*
X193561344Y-111154347D01*
X193734767Y-111137995D01*
X193851248Y-111105287D01*
X193948261Y-111041113D01*
X194027693Y-110966346D01*
X194177376Y-110770456D01*
X194269091Y-110533073D01*
X194306789Y-110239678D01*
X194301134Y-109961127D01*
X194276110Y-109723194D01*
X194232976Y-109544981D01*
X194163161Y-109392267D01*
X194155182Y-109378444D01*
X194003805Y-109197922D01*
X193802600Y-109064549D01*
X193583526Y-108997766D01*
X193522587Y-108993640D01*
X193327702Y-109032352D01*
X193127745Y-109138318D01*
X192953784Y-109291559D01*
X192863419Y-109417510D01*
X192809065Y-109525520D01*
X192774368Y-109630467D01*
X192755051Y-109758006D01*
X192746838Y-109933794D01*
X192745390Y-110125688D01*
X192254544Y-110125688D01*
X192257856Y-109960447D01*
X192271171Y-109639509D01*
X192295942Y-109393278D01*
X192338968Y-109202149D01*
X192407051Y-109046519D01*
X192506990Y-108906785D01*
X192645588Y-108763343D01*
X192686368Y-108725258D01*
X192954208Y-108537339D01*
X193249697Y-108430310D01*
X193557454Y-108401014D01*
X193862095Y-108446292D01*
G37*
G36*
X193234593Y-78003994D02*
G01*
X193234200Y-78118242D01*
X193233087Y-78222904D01*
X193231350Y-78314429D01*
X193229086Y-78389265D01*
X193226392Y-78443860D01*
X193223366Y-78474663D01*
X193221582Y-78480184D01*
X193205328Y-78481370D01*
X193161852Y-78482515D01*
X193093245Y-78483605D01*
X193001600Y-78484626D01*
X192889006Y-78485565D01*
X192757556Y-78486410D01*
X192609341Y-78487146D01*
X192446452Y-78487760D01*
X192270980Y-78488238D01*
X192085018Y-78488568D01*
X191890656Y-78488736D01*
X191884161Y-78488739D01*
X190559752Y-78489253D01*
X190555388Y-78400951D01*
X190551025Y-78312649D01*
X191775556Y-78312649D01*
X193000086Y-78312649D01*
X193000086Y-77924248D01*
X193000086Y-77535846D01*
X193117340Y-77535846D01*
X193234593Y-77535846D01*
X193234593Y-78003994D01*
G37*
G36*
X190864777Y-83460722D02*
G01*
X190904745Y-83494319D01*
X190960487Y-83540958D01*
X191025214Y-83594967D01*
X191092135Y-83650676D01*
X191105713Y-83661962D01*
X191163977Y-83711102D01*
X191213203Y-83754008D01*
X191249401Y-83787091D01*
X191268579Y-83806765D01*
X191270600Y-83810198D01*
X191260191Y-83826057D01*
X191234867Y-83849509D01*
X191232236Y-83851605D01*
X191201567Y-83869509D01*
X191178545Y-83872481D01*
X191177273Y-83871854D01*
X191155023Y-83855771D01*
X191116941Y-83825401D01*
X191067202Y-83784337D01*
X191009982Y-83736170D01*
X190949456Y-83684493D01*
X190889799Y-83632899D01*
X190835187Y-83584978D01*
X190789795Y-83544325D01*
X190757797Y-83514529D01*
X190743370Y-83499185D01*
X190742960Y-83498193D01*
X190749178Y-83477148D01*
X190764303Y-83443754D01*
X190765845Y-83440742D01*
X190788729Y-83396488D01*
X190864777Y-83460722D01*
G37*
G36*
X190082334Y-82307475D02*
G01*
X190197712Y-82336590D01*
X190304168Y-82388400D01*
X190398113Y-82460718D01*
X190475961Y-82551357D01*
X190534124Y-82658131D01*
X190567414Y-82770035D01*
X190578781Y-82850525D01*
X190577895Y-82919917D01*
X190564217Y-82993982D01*
X190559090Y-83013765D01*
X190512047Y-83136470D01*
X190442929Y-83241971D01*
X190354299Y-83327971D01*
X190248716Y-83392174D01*
X190128743Y-83432283D01*
X190083374Y-83440265D01*
X189954970Y-83444340D01*
X189834174Y-83422402D01*
X189723796Y-83377062D01*
X189626648Y-83310933D01*
X189545542Y-83226626D01*
X189483288Y-83126754D01*
X189442697Y-83013929D01*
X189426581Y-82890763D01*
X189428154Y-82831441D01*
X189451570Y-82703789D01*
X189500365Y-82589182D01*
X189572619Y-82489978D01*
X189666416Y-82408535D01*
X189779836Y-82347212D01*
X189839159Y-82326078D01*
X189961621Y-82303242D01*
X190082334Y-82307475D01*
G37*
G36*
X189976008Y-85540830D02*
G01*
X190004769Y-85570476D01*
X190021793Y-85591459D01*
X190023862Y-85596223D01*
X190014950Y-85610226D01*
X189991345Y-85642409D01*
X189956616Y-85688015D01*
X189914329Y-85742291D01*
X189913316Y-85743578D01*
X189779208Y-85923628D01*
X189647646Y-86118667D01*
X189523477Y-86320741D01*
X189411544Y-86521892D01*
X189316693Y-86714165D01*
X189300888Y-86749296D01*
X189225073Y-86930130D01*
X189147470Y-87132665D01*
X189070536Y-87349600D01*
X188996729Y-87573633D01*
X188928507Y-87797461D01*
X188868329Y-88013782D01*
X188846221Y-88099936D01*
X188769999Y-88435630D01*
X188710550Y-88763601D01*
X188668214Y-89080773D01*
X188643332Y-89384072D01*
X188636246Y-89670425D01*
X188645343Y-89910794D01*
X188651767Y-89996634D01*
X188658187Y-90074810D01*
X188664083Y-90139541D01*
X188668938Y-90185048D01*
X188671538Y-90202869D01*
X188679788Y-90243174D01*
X188354968Y-90243174D01*
X188030149Y-90243174D01*
X188038155Y-90195540D01*
X188042788Y-90165708D01*
X188050656Y-90112609D01*
X188060920Y-90042006D01*
X188072741Y-89959661D01*
X188083113Y-89886677D01*
X188163068Y-89395006D01*
X188261257Y-88924605D01*
X188378667Y-88473043D01*
X188516281Y-88037887D01*
X188675085Y-87616706D01*
X188856065Y-87207070D01*
X189060204Y-86806546D01*
X189288489Y-86412704D01*
X189541904Y-86023111D01*
X189787226Y-85680858D01*
X189927233Y-85493555D01*
X189976008Y-85540830D01*
G37*
G36*
X191021547Y-73061899D02*
G01*
X191034449Y-73213878D01*
X191070852Y-73366377D01*
X191128013Y-73509239D01*
X191156840Y-73562715D01*
X191207283Y-73635018D01*
X191275655Y-73714194D01*
X191354737Y-73793305D01*
X191437310Y-73865414D01*
X191516158Y-73923582D01*
X191558548Y-73948838D01*
X191606767Y-73973705D01*
X191651118Y-73994648D01*
X191694581Y-74012002D01*
X191740135Y-74026104D01*
X191790759Y-74037291D01*
X191849432Y-74045898D01*
X191919135Y-74052262D01*
X192002846Y-74056720D01*
X192103544Y-74059608D01*
X192224210Y-74061262D01*
X192367823Y-74062019D01*
X192537361Y-74062215D01*
X192562731Y-74062217D01*
X193234593Y-74062217D01*
X193234593Y-74150617D01*
X193232002Y-74206594D01*
X193223640Y-74237745D01*
X193213661Y-74247049D01*
X193195102Y-74248562D01*
X193150252Y-74249715D01*
X193082132Y-74250500D01*
X192993760Y-74250909D01*
X192888158Y-74250934D01*
X192768345Y-74250567D01*
X192637343Y-74249801D01*
X192521133Y-74248846D01*
X192352238Y-74247221D01*
X192209550Y-74245485D01*
X192089968Y-74243247D01*
X191990388Y-74240117D01*
X191907706Y-74235701D01*
X191838818Y-74229611D01*
X191780623Y-74221455D01*
X191730015Y-74210841D01*
X191683891Y-74197379D01*
X191639149Y-74180677D01*
X191592685Y-74160346D01*
X191541395Y-74135993D01*
X191511953Y-74121691D01*
X191362208Y-74032895D01*
X191228247Y-73921284D01*
X191112053Y-73789904D01*
X191015612Y-73641801D01*
X190940907Y-73480024D01*
X190889923Y-73307617D01*
X190864659Y-73127854D01*
X190855907Y-72992280D01*
X190938672Y-72992280D01*
X191021437Y-72992280D01*
X191021547Y-73061899D01*
G37*
G36*
X196459059Y-82563082D02*
G01*
X196458814Y-82757944D01*
X196458089Y-82929114D01*
X196456896Y-83075777D01*
X196455251Y-83197121D01*
X196453165Y-83292334D01*
X196450654Y-83360602D01*
X196447731Y-83401112D01*
X196444721Y-83413169D01*
X196425446Y-83410951D01*
X196383334Y-83404904D01*
X196324473Y-83395934D01*
X196254956Y-83384949D01*
X196250520Y-83384236D01*
X196163827Y-83371132D01*
X196060873Y-83356863D01*
X195954568Y-83343154D01*
X195858136Y-83331767D01*
X195758318Y-83322822D01*
X195634826Y-83315117D01*
X195493280Y-83308742D01*
X195339295Y-83303786D01*
X195178491Y-83300338D01*
X195016485Y-83298487D01*
X194858895Y-83298323D01*
X194711338Y-83299934D01*
X194579432Y-83303409D01*
X194468795Y-83308838D01*
X194458150Y-83309559D01*
X194022079Y-83352004D01*
X193601601Y-83417076D01*
X193197492Y-83504564D01*
X192810526Y-83614256D01*
X192441477Y-83745941D01*
X192091119Y-83899407D01*
X191856321Y-84020275D01*
X191742846Y-84085893D01*
X191616237Y-84164754D01*
X191483775Y-84251904D01*
X191352741Y-84342389D01*
X191230417Y-84431255D01*
X191124084Y-84513547D01*
X191089149Y-84542262D01*
X190929683Y-84676111D01*
X190858741Y-84606236D01*
X190821090Y-84567220D01*
X190802645Y-84541692D01*
X190800243Y-84524198D01*
X190805685Y-84514672D01*
X190821912Y-84497950D01*
X190855813Y-84465036D01*
X190903518Y-84419618D01*
X190961161Y-84365383D01*
X191014301Y-84315829D01*
X191419031Y-83959833D01*
X191842177Y-83626315D01*
X192282675Y-83315844D01*
X192739462Y-83028993D01*
X193211477Y-82766331D01*
X193697655Y-82528430D01*
X194196935Y-82315861D01*
X194708253Y-82129195D01*
X195230547Y-81969002D01*
X195528361Y-81890841D01*
X195650436Y-81861531D01*
X195776650Y-81832694D01*
X195902864Y-81805150D01*
X196024938Y-81779722D01*
X196138730Y-81757230D01*
X196240101Y-81738495D01*
X196324911Y-81724339D01*
X196389019Y-81715582D01*
X196424981Y-81712996D01*
X196459059Y-81712996D01*
X196459059Y-82563082D01*
G37*
G36*
X192253046Y-74818136D02*
G01*
X192413906Y-74858082D01*
X192569756Y-74918713D01*
X192715078Y-74997942D01*
X192844353Y-75093683D01*
X192937375Y-75186345D01*
X193042151Y-75323116D01*
X193121805Y-75460937D01*
X193175154Y-75597380D01*
X193200846Y-75728142D01*
X193209519Y-75821016D01*
X193127067Y-75821016D01*
X193079903Y-75819999D01*
X193054104Y-75814612D01*
X193041735Y-75801354D01*
X193035728Y-75780711D01*
X193005998Y-75665666D01*
X192971324Y-75571493D01*
X192929860Y-75491823D01*
X192839858Y-75368901D01*
X192730581Y-75262285D01*
X192605981Y-75173533D01*
X192470006Y-75104208D01*
X192326607Y-75055869D01*
X192179733Y-75030076D01*
X192033335Y-75028390D01*
X191891361Y-75052372D01*
X191849538Y-75065035D01*
X191688980Y-75132754D01*
X191549740Y-75220467D01*
X191432032Y-75327966D01*
X191336069Y-75455042D01*
X191262064Y-75601486D01*
X191240541Y-75659793D01*
X191206788Y-75804197D01*
X191199222Y-75953164D01*
X191216488Y-76102234D01*
X191257230Y-76246947D01*
X191320090Y-76382844D01*
X191403712Y-76505466D01*
X191506740Y-76610351D01*
X191537013Y-76634525D01*
X191684411Y-76729998D01*
X191836295Y-76796565D01*
X191993298Y-76834381D01*
X192156052Y-76843600D01*
X192320926Y-76825191D01*
X192471667Y-76782323D01*
X192608590Y-76714271D01*
X192730273Y-76622414D01*
X192835294Y-76508131D01*
X192922232Y-76372802D01*
X192989663Y-76217805D01*
X193008697Y-76158120D01*
X193040659Y-76048195D01*
X193122970Y-76043799D01*
X193205280Y-76039404D01*
X193204494Y-76095097D01*
X193199795Y-76136842D01*
X193188162Y-76194452D01*
X193172030Y-76256015D01*
X193170629Y-76260716D01*
X193105461Y-76429136D01*
X193017412Y-76580331D01*
X192908257Y-76712935D01*
X192779771Y-76825580D01*
X192633726Y-76916898D01*
X192471898Y-76985524D01*
X192296059Y-77030089D01*
X192150000Y-77047288D01*
X191965701Y-77045800D01*
X191793208Y-77017590D01*
X191631441Y-76962267D01*
X191479321Y-76879437D01*
X191335766Y-76768710D01*
X191305010Y-76740361D01*
X191184150Y-76609538D01*
X191090746Y-76472168D01*
X191023242Y-76325883D01*
X191013037Y-76296342D01*
X190996959Y-76245596D01*
X190985500Y-76202644D01*
X190977893Y-76160762D01*
X190973372Y-76113225D01*
X190971169Y-76053309D01*
X190970519Y-75974291D01*
X190970539Y-75923613D01*
X190970999Y-75831979D01*
X190972527Y-75763182D01*
X190975871Y-75710748D01*
X190981776Y-75668202D01*
X190990989Y-75629070D01*
X191004256Y-75586877D01*
X191011924Y-75564665D01*
X191062268Y-75442738D01*
X191125436Y-75332681D01*
X191206921Y-75225792D01*
X191268836Y-75157517D01*
X191404151Y-75033414D01*
X191547663Y-74936718D01*
X191702010Y-74866053D01*
X191869834Y-74820043D01*
X191938370Y-74808642D01*
X192092694Y-74800960D01*
X192253046Y-74818136D01*
G37*
G36*
X192164657Y-71082502D02*
G01*
X192164826Y-71241912D01*
X192165314Y-71396955D01*
X192166088Y-71544344D01*
X192167118Y-71680791D01*
X192168370Y-71803008D01*
X192169814Y-71907706D01*
X192171417Y-71991598D01*
X192173149Y-72051395D01*
X192174212Y-72073959D01*
X192183768Y-72230134D01*
X192110635Y-72230134D01*
X192037502Y-72230134D01*
X192027818Y-71691501D01*
X192025459Y-71550562D01*
X192023307Y-71403178D01*
X192021433Y-71255784D01*
X192019910Y-71114815D01*
X192018810Y-70986708D01*
X192018206Y-70877896D01*
X192018112Y-70828153D01*
X192018090Y-70503436D01*
X191955799Y-70510653D01*
X191791565Y-70544087D01*
X191636904Y-70604274D01*
X191494490Y-70689479D01*
X191366998Y-70797966D01*
X191257101Y-70927997D01*
X191214975Y-70991645D01*
X191158280Y-71105111D01*
X191116269Y-71232405D01*
X191090095Y-71366006D01*
X191080913Y-71498388D01*
X191089876Y-71622028D01*
X191106817Y-71696920D01*
X191141924Y-71786434D01*
X191193565Y-71885388D01*
X191255930Y-71984249D01*
X191323207Y-72073484D01*
X191364219Y-72119164D01*
X191489852Y-72227545D01*
X191630108Y-72312361D01*
X191781371Y-72372994D01*
X191940024Y-72408825D01*
X192102452Y-72419240D01*
X192265039Y-72403619D01*
X192424169Y-72361345D01*
X192527232Y-72317716D01*
X192677271Y-72230733D01*
X192804835Y-72129314D01*
X192908367Y-72015038D01*
X192986308Y-71889483D01*
X193015109Y-71823199D01*
X193053334Y-71696571D01*
X193077256Y-71562178D01*
X193086628Y-71427065D01*
X193081204Y-71298280D01*
X193060737Y-71182870D01*
X193039723Y-71119509D01*
X192966528Y-70974775D01*
X192874144Y-70846750D01*
X192765617Y-70738910D01*
X192643989Y-70654730D01*
X192622732Y-70643283D01*
X192531182Y-70595915D01*
X192531127Y-70481339D01*
X192531493Y-70424149D01*
X192533810Y-70390748D01*
X192539812Y-70375612D01*
X192551231Y-70373217D01*
X192564051Y-70376359D01*
X192602680Y-70392679D01*
X192657481Y-70422257D01*
X192721294Y-70460605D01*
X192786958Y-70503236D01*
X192847314Y-70545661D01*
X192895202Y-70583392D01*
X192897422Y-70585321D01*
X193003340Y-70696369D01*
X193093408Y-70827947D01*
X193165724Y-70974804D01*
X193218384Y-71131686D01*
X193249485Y-71293342D01*
X193257124Y-71454519D01*
X193248814Y-71555039D01*
X193209637Y-71736728D01*
X193145250Y-71905358D01*
X193057539Y-72059056D01*
X192948388Y-72195949D01*
X192819684Y-72314164D01*
X192673311Y-72411828D01*
X192511156Y-72487068D01*
X192335103Y-72538010D01*
X192243687Y-72553621D01*
X192082955Y-72561235D01*
X191917344Y-72543735D01*
X191752827Y-72503009D01*
X191595380Y-72440942D01*
X191450974Y-72359422D01*
X191330884Y-72265286D01*
X191199022Y-72124815D01*
X191092467Y-71970372D01*
X191009776Y-71799670D01*
X190975181Y-71701977D01*
X190955010Y-71612466D01*
X190943012Y-71504835D01*
X190939332Y-71389157D01*
X190944115Y-71275504D01*
X190957505Y-71173949D01*
X190966978Y-71132657D01*
X191022514Y-70964628D01*
X191092067Y-70819139D01*
X191177993Y-70691838D01*
X191249357Y-70611002D01*
X191390810Y-70485726D01*
X191543680Y-70387442D01*
X191708144Y-70316068D01*
X191884383Y-70271520D01*
X192021754Y-70255821D01*
X192164657Y-70247221D01*
X192164657Y-71082502D01*
G37*
G36*
X188082170Y-81634441D02*
G01*
X188187529Y-81646539D01*
X188311083Y-81678253D01*
X188450353Y-81728420D01*
X188602857Y-81795877D01*
X188766115Y-81879462D01*
X188937646Y-81978012D01*
X189114970Y-82090365D01*
X189245922Y-82179917D01*
X189408423Y-82294506D01*
X189328255Y-82391697D01*
X189248087Y-82488888D01*
X189105131Y-82421909D01*
X188974852Y-82361833D01*
X188867028Y-82314452D01*
X188778301Y-82278571D01*
X188705316Y-82252991D01*
X188644715Y-82236516D01*
X188593140Y-82227946D01*
X188555884Y-82225979D01*
X188504432Y-82229937D01*
X188468983Y-82244622D01*
X188448526Y-82261954D01*
X188424626Y-82292772D01*
X188414613Y-82328012D01*
X188418006Y-82374858D01*
X188434325Y-82440499D01*
X188436184Y-82446808D01*
X188473527Y-82546546D01*
X188531407Y-82664791D01*
X188608809Y-82800178D01*
X188704717Y-82951346D01*
X188818118Y-83116931D01*
X188947996Y-83295571D01*
X189093336Y-83485901D01*
X189253123Y-83686560D01*
X189426343Y-83896184D01*
X189611980Y-84113411D01*
X189809020Y-84336876D01*
X190001570Y-84549060D01*
X190033451Y-84583354D01*
X190084630Y-84637916D01*
X190154193Y-84711781D01*
X190241225Y-84803988D01*
X190344812Y-84913572D01*
X190464040Y-85039571D01*
X190597994Y-85181022D01*
X190745760Y-85336961D01*
X190906424Y-85506425D01*
X191079071Y-85688451D01*
X191262787Y-85882075D01*
X191456659Y-86086336D01*
X191659770Y-86300269D01*
X191871208Y-86522911D01*
X192090057Y-86753299D01*
X192315404Y-86990471D01*
X192546334Y-87233462D01*
X192781932Y-87481310D01*
X193021286Y-87733051D01*
X193263479Y-87987723D01*
X193507598Y-88244362D01*
X193752729Y-88502005D01*
X193997957Y-88759688D01*
X194242367Y-89016449D01*
X194259076Y-89034000D01*
X194403937Y-89186162D01*
X194543854Y-89333135D01*
X194677407Y-89473429D01*
X194803178Y-89605552D01*
X194919746Y-89728014D01*
X195025692Y-89839322D01*
X195119598Y-89937986D01*
X195200043Y-90022514D01*
X195265609Y-90091417D01*
X195314877Y-90143202D01*
X195346426Y-90176378D01*
X195357666Y-90188212D01*
X195409729Y-90243174D01*
X194882778Y-90242364D01*
X194355828Y-90241553D01*
X194325442Y-90202058D01*
X194291849Y-90159343D01*
X194240298Y-90095135D01*
X194171622Y-90010440D01*
X194086655Y-89906265D01*
X193986227Y-89783614D01*
X193871172Y-89643495D01*
X193742323Y-89486913D01*
X193600512Y-89314875D01*
X193446572Y-89128387D01*
X193281335Y-88928453D01*
X193105633Y-88716082D01*
X192920300Y-88492278D01*
X192726169Y-88258049D01*
X192524070Y-88014399D01*
X192314838Y-87762335D01*
X192099304Y-87502863D01*
X191878302Y-87236989D01*
X191652664Y-86965719D01*
X191423222Y-86690060D01*
X191190810Y-86411017D01*
X190956259Y-86129596D01*
X190823802Y-85970757D01*
X190597534Y-85699399D01*
X190389134Y-85449299D01*
X190197629Y-85219265D01*
X190022041Y-85008100D01*
X189861397Y-84814610D01*
X189714722Y-84637600D01*
X189581039Y-84475877D01*
X189459373Y-84328244D01*
X189348750Y-84193508D01*
X189248194Y-84070474D01*
X189156730Y-83957947D01*
X189073383Y-83854732D01*
X188997178Y-83759636D01*
X188927138Y-83671462D01*
X188862290Y-83589017D01*
X188801658Y-83511107D01*
X188744266Y-83436535D01*
X188689140Y-83364108D01*
X188635304Y-83292631D01*
X188610354Y-83259274D01*
X188448454Y-83038207D01*
X188307269Y-82836408D01*
X188186284Y-82652928D01*
X188084985Y-82486822D01*
X188002856Y-82337144D01*
X187939382Y-82202948D01*
X187894049Y-82083286D01*
X187866342Y-81977213D01*
X187855745Y-81883782D01*
X187855597Y-81872204D01*
X187862772Y-81781187D01*
X187885633Y-81713992D01*
X187926183Y-81668518D01*
X187986425Y-81642661D01*
X188068361Y-81634321D01*
X188082170Y-81634441D01*
G37*
G36*
X192196324Y-79111389D02*
G01*
X192370055Y-79140596D01*
X192535135Y-79196705D01*
X192673164Y-79267464D01*
X192767442Y-79334243D01*
X192864921Y-79422077D01*
X192959703Y-79524158D01*
X193045890Y-79633674D01*
X193117583Y-79743817D01*
X193162534Y-79832411D01*
X193199380Y-79937770D01*
X193227881Y-80057620D01*
X193245109Y-80177647D01*
X193248893Y-80254657D01*
X193241921Y-80368305D01*
X193222549Y-80488526D01*
X193192674Y-80610138D01*
X193154191Y-80727961D01*
X193108995Y-80836815D01*
X193058981Y-80931519D01*
X193006045Y-81006892D01*
X192956116Y-81054908D01*
X192932967Y-81068184D01*
X192904601Y-81075004D01*
X192863129Y-81076261D01*
X192800665Y-81072848D01*
X192798819Y-81072714D01*
X192678164Y-81063950D01*
X192772895Y-80970146D01*
X192826050Y-80913260D01*
X192869782Y-80855114D01*
X192910952Y-80785787D01*
X192941217Y-80726723D01*
X192990647Y-80619915D01*
X193024862Y-80528395D01*
X193045804Y-80443685D01*
X193055415Y-80357308D01*
X193055637Y-80260784D01*
X193054381Y-80232672D01*
X193041737Y-80102965D01*
X193018616Y-79999542D01*
X193014013Y-79985590D01*
X192961837Y-79870613D01*
X192886862Y-79754465D01*
X192794572Y-79643676D01*
X192690452Y-79544773D01*
X192579988Y-79464286D01*
X192571914Y-79459362D01*
X192430644Y-79391027D01*
X192278020Y-79347361D01*
X192118765Y-79328525D01*
X191957606Y-79334677D01*
X191799266Y-79365978D01*
X191648470Y-79422587D01*
X191637722Y-79427795D01*
X191574723Y-79461213D01*
X191520273Y-79496598D01*
X191466243Y-79540084D01*
X191404504Y-79597806D01*
X191379152Y-79622926D01*
X191281222Y-79730999D01*
X191208034Y-79836895D01*
X191157002Y-79946928D01*
X191125539Y-80067410D01*
X191111058Y-80204653D01*
X191109377Y-80281270D01*
X191115348Y-80417802D01*
X191135116Y-80536585D01*
X191171464Y-80646294D01*
X191227177Y-80755599D01*
X191294733Y-80858762D01*
X191394974Y-80975372D01*
X191518265Y-81074718D01*
X191665044Y-81157099D01*
X191808036Y-81213823D01*
X191853003Y-81228637D01*
X191890924Y-81239763D01*
X191927058Y-81247731D01*
X191966664Y-81253068D01*
X192015001Y-81256301D01*
X192077327Y-81257958D01*
X192158902Y-81258568D01*
X192254759Y-81258656D01*
X192337977Y-81258889D01*
X192445491Y-81259544D01*
X192572287Y-81260573D01*
X192713353Y-81261927D01*
X192863673Y-81263555D01*
X193018234Y-81265409D01*
X193172023Y-81267438D01*
X193238257Y-81268375D01*
X193908800Y-81278076D01*
X193908800Y-81363626D01*
X193908800Y-81449176D01*
X192935421Y-81449176D01*
X192729334Y-81449101D01*
X192550258Y-81448787D01*
X192395892Y-81448098D01*
X192263932Y-81446899D01*
X192152077Y-81445056D01*
X192058024Y-81442432D01*
X191979472Y-81438892D01*
X191914119Y-81434301D01*
X191859662Y-81428525D01*
X191813799Y-81421427D01*
X191774228Y-81412873D01*
X191738647Y-81402728D01*
X191704755Y-81390855D01*
X191670248Y-81377121D01*
X191663917Y-81374491D01*
X191551028Y-81317224D01*
X191434937Y-81240192D01*
X191322103Y-81149038D01*
X191218984Y-81049403D01*
X191132041Y-80946931D01*
X191074411Y-80859551D01*
X190999628Y-80697566D01*
X190948943Y-80524712D01*
X190923796Y-80347414D01*
X190924142Y-80190025D01*
X190939517Y-80055394D01*
X190966094Y-79936417D01*
X191007261Y-79820496D01*
X191046609Y-79734346D01*
X191078294Y-79672749D01*
X191108823Y-79621986D01*
X191143658Y-79574807D01*
X191188260Y-79523964D01*
X191248088Y-79462206D01*
X191262399Y-79447869D01*
X191334283Y-79378298D01*
X191394369Y-79325930D01*
X191449533Y-79285373D01*
X191506656Y-79251239D01*
X191527092Y-79240474D01*
X191652647Y-79182411D01*
X191770178Y-79143015D01*
X191891236Y-79119135D01*
X192011049Y-79108389D01*
X192196324Y-79111389D01*
G37*
%TO.C,J2*%
D15*
X103740000Y-98480000D02*
X103740000Y-112500000D01*
X103740000Y-98480000D02*
X111440000Y-98480000D01*
X103740000Y-112500000D02*
X111440000Y-112500000D01*
X111440000Y-97630000D02*
X111440000Y-98480000D01*
X111440000Y-97630000D02*
X117050000Y-97630000D01*
X111440000Y-112500000D02*
X111440000Y-113350000D01*
X111440000Y-113350000D02*
X117050000Y-113350000D01*
X121160000Y-103040000D02*
X121160000Y-106780000D01*
X117050000Y-97630000D02*
G75*
G02*
X121008718Y-100500100I40002J-4109998D01*
G01*
X120572958Y-111356806D02*
G75*
G02*
X117050000Y-113350000I-3522957J2116805D01*
G01*
D14*
%TO.C,G\u002A\u002A\u002A*%
G36*
X166796068Y-101674917D02*
G01*
X166782004Y-101688981D01*
X166767940Y-101674917D01*
X166782004Y-101660853D01*
X166796068Y-101674917D01*
G37*
G36*
X166964839Y-100437265D02*
G01*
X166950775Y-100451329D01*
X166936711Y-100437265D01*
X166950775Y-100423200D01*
X166964839Y-100437265D01*
G37*
G36*
X166992967Y-100381008D02*
G01*
X166978903Y-100395072D01*
X166964839Y-100381008D01*
X166978903Y-100366944D01*
X166992967Y-100381008D01*
G37*
G36*
X167049224Y-100352879D02*
G01*
X167035160Y-100366944D01*
X167021096Y-100352879D01*
X167035160Y-100338815D01*
X167049224Y-100352879D01*
G37*
G36*
X167274252Y-101421761D02*
G01*
X167260188Y-101435825D01*
X167246124Y-101421761D01*
X167260188Y-101407697D01*
X167274252Y-101421761D01*
G37*
G36*
X167302381Y-101112348D02*
G01*
X167288316Y-101126412D01*
X167274252Y-101112348D01*
X167288316Y-101098283D01*
X167302381Y-101112348D01*
G37*
G36*
X167358637Y-101337375D02*
G01*
X167344573Y-101351440D01*
X167330509Y-101337375D01*
X167344573Y-101323311D01*
X167358637Y-101337375D01*
G37*
G36*
X167555537Y-101956202D02*
G01*
X167541472Y-101970266D01*
X167527408Y-101956202D01*
X167541472Y-101942137D01*
X167555537Y-101956202D01*
G37*
G36*
X167864950Y-100662292D02*
G01*
X167850886Y-100676357D01*
X167836821Y-100662292D01*
X167850886Y-100648228D01*
X167864950Y-100662292D01*
G37*
G36*
X167977464Y-99959081D02*
G01*
X167963399Y-99973145D01*
X167949335Y-99959081D01*
X167963399Y-99945017D01*
X167977464Y-99959081D01*
G37*
G36*
X168146234Y-99902824D02*
G01*
X168132170Y-99916888D01*
X168118106Y-99902824D01*
X168132170Y-99888760D01*
X168146234Y-99902824D01*
G37*
G36*
X168849446Y-100802935D02*
G01*
X168835382Y-100816999D01*
X168821317Y-100802935D01*
X168835382Y-100788870D01*
X168849446Y-100802935D01*
G37*
G36*
X168905703Y-100774806D02*
G01*
X168891639Y-100788870D01*
X168877574Y-100774806D01*
X168891639Y-100760742D01*
X168905703Y-100774806D01*
G37*
G36*
X169496400Y-104150221D02*
G01*
X169482336Y-104164286D01*
X169468272Y-104150221D01*
X169482336Y-104136157D01*
X169496400Y-104150221D01*
G37*
G36*
X169580786Y-104206478D02*
G01*
X169566722Y-104220543D01*
X169552657Y-104206478D01*
X169566722Y-104192414D01*
X169580786Y-104206478D01*
G37*
G36*
X170396511Y-102321872D02*
G01*
X170382447Y-102335936D01*
X170368383Y-102321872D01*
X170382447Y-102307807D01*
X170396511Y-102321872D01*
G37*
G36*
X170424640Y-102068715D02*
G01*
X170410575Y-102082780D01*
X170396511Y-102068715D01*
X170410575Y-102054651D01*
X170424640Y-102068715D01*
G37*
G36*
X171184108Y-98890199D02*
G01*
X171170044Y-98904264D01*
X171155980Y-98890199D01*
X171170044Y-98876135D01*
X171184108Y-98890199D01*
G37*
G36*
X171690420Y-98046346D02*
G01*
X171676356Y-98060410D01*
X171662292Y-98046346D01*
X171676356Y-98032281D01*
X171690420Y-98046346D01*
G37*
G36*
X171774806Y-97933832D02*
G01*
X171760742Y-97947896D01*
X171746677Y-97933832D01*
X171760742Y-97919767D01*
X171774806Y-97933832D01*
G37*
G36*
X172815559Y-97005592D02*
G01*
X172801495Y-97019657D01*
X172787430Y-97005592D01*
X172801495Y-96991528D01*
X172815559Y-97005592D01*
G37*
G36*
X172871816Y-96977464D02*
G01*
X172857752Y-96991528D01*
X172843687Y-96977464D01*
X172857752Y-96963400D01*
X172871816Y-96977464D01*
G37*
G36*
X172928073Y-96949336D02*
G01*
X172914008Y-96963400D01*
X172899944Y-96949336D01*
X172914008Y-96935271D01*
X172928073Y-96949336D01*
G37*
G36*
X172984330Y-96921207D02*
G01*
X172970265Y-96935271D01*
X172956201Y-96921207D01*
X172970265Y-96907143D01*
X172984330Y-96921207D01*
G37*
G36*
X173040587Y-96893079D02*
G01*
X173026522Y-96907143D01*
X173012458Y-96893079D01*
X173026522Y-96879014D01*
X173040587Y-96893079D01*
G37*
G36*
X173096843Y-96864950D02*
G01*
X173082779Y-96879014D01*
X173068715Y-96864950D01*
X173082779Y-96850886D01*
X173096843Y-96864950D01*
G37*
G36*
X173181229Y-96836822D02*
G01*
X173167165Y-96850886D01*
X173153100Y-96836822D01*
X173167165Y-96822757D01*
X173181229Y-96836822D01*
G37*
G36*
X173237486Y-96808693D02*
G01*
X173223422Y-96822757D01*
X173209357Y-96808693D01*
X173223422Y-96794629D01*
X173237486Y-96808693D01*
G37*
G36*
X173321871Y-96780565D02*
G01*
X173307807Y-96794629D01*
X173293743Y-96780565D01*
X173307807Y-96766501D01*
X173321871Y-96780565D01*
G37*
G36*
X173406257Y-96752436D02*
G01*
X173392192Y-96766501D01*
X173378128Y-96752436D01*
X173392192Y-96738372D01*
X173406257Y-96752436D01*
G37*
G36*
X173518770Y-96724308D02*
G01*
X173504706Y-96738372D01*
X173490642Y-96724308D01*
X173504706Y-96710244D01*
X173518770Y-96724308D01*
G37*
G36*
X173603156Y-96696179D02*
G01*
X173589091Y-96710244D01*
X173575027Y-96696179D01*
X173589091Y-96682115D01*
X173603156Y-96696179D01*
G37*
G36*
X175122093Y-95880454D02*
G01*
X175108028Y-95894518D01*
X175093964Y-95880454D01*
X175108028Y-95866390D01*
X175122093Y-95880454D01*
G37*
G36*
X176359745Y-98130731D02*
G01*
X176345681Y-98144795D01*
X176331616Y-98130731D01*
X176345681Y-98116667D01*
X176359745Y-98130731D01*
G37*
G36*
X176556644Y-98186988D02*
G01*
X176542580Y-98201052D01*
X176528516Y-98186988D01*
X176542580Y-98172924D01*
X176556644Y-98186988D01*
G37*
G36*
X176837929Y-97961960D02*
G01*
X176823864Y-97976024D01*
X176809800Y-97961960D01*
X176823864Y-97947896D01*
X176837929Y-97961960D01*
G37*
G36*
X176894186Y-97736932D02*
G01*
X176880121Y-97750997D01*
X176866057Y-97736932D01*
X176880121Y-97722868D01*
X176894186Y-97736932D01*
G37*
G36*
X176922314Y-97961960D02*
G01*
X176908250Y-97976024D01*
X176894186Y-97961960D01*
X176908250Y-97947896D01*
X176922314Y-97961960D01*
G37*
G36*
X176978571Y-96752436D02*
G01*
X176964507Y-96766501D01*
X176950443Y-96752436D01*
X176964507Y-96738372D01*
X176978571Y-96752436D01*
G37*
G36*
X176978571Y-102603156D02*
G01*
X176964507Y-102617220D01*
X176950443Y-102603156D01*
X176964507Y-102589092D01*
X176978571Y-102603156D01*
G37*
G36*
X177034828Y-96780565D02*
G01*
X177020764Y-96794629D01*
X177006699Y-96780565D01*
X177020764Y-96766501D01*
X177034828Y-96780565D01*
G37*
G36*
X177062956Y-102546899D02*
G01*
X177048892Y-102560963D01*
X177034828Y-102546899D01*
X177048892Y-102532835D01*
X177062956Y-102546899D01*
G37*
G36*
X177119213Y-102518771D02*
G01*
X177105149Y-102532835D01*
X177091085Y-102518771D01*
X177105149Y-102504707D01*
X177119213Y-102518771D01*
G37*
G36*
X177175470Y-96836822D02*
G01*
X177161406Y-96850886D01*
X177147342Y-96836822D01*
X177161406Y-96822757D01*
X177175470Y-96836822D01*
G37*
G36*
X177175470Y-102490642D02*
G01*
X177161406Y-102504707D01*
X177147342Y-102490642D01*
X177161406Y-102476578D01*
X177175470Y-102490642D01*
G37*
G36*
X177231727Y-102462514D02*
G01*
X177217663Y-102476578D01*
X177203599Y-102462514D01*
X177217663Y-102448450D01*
X177231727Y-102462514D01*
G37*
G36*
X177259856Y-96864950D02*
G01*
X177245791Y-96879014D01*
X177231727Y-96864950D01*
X177245791Y-96850886D01*
X177259856Y-96864950D01*
G37*
G36*
X177316113Y-96893079D02*
G01*
X177302048Y-96907143D01*
X177287984Y-96893079D01*
X177302048Y-96879014D01*
X177316113Y-96893079D01*
G37*
G36*
X177456755Y-96949336D02*
G01*
X177442691Y-96963400D01*
X177428626Y-96949336D01*
X177442691Y-96935271D01*
X177456755Y-96949336D01*
G37*
G36*
X178328737Y-98215116D02*
G01*
X178314673Y-98229181D01*
X178300609Y-98215116D01*
X178314673Y-98201052D01*
X178328737Y-98215116D01*
G37*
G36*
X180494629Y-99509025D02*
G01*
X180480564Y-99523090D01*
X180466500Y-99509025D01*
X180480564Y-99494961D01*
X180494629Y-99509025D01*
G37*
G36*
X166927211Y-100500554D02*
G01*
X166930926Y-100558142D01*
X166927211Y-100570875D01*
X166916944Y-100574408D01*
X166913023Y-100535714D01*
X166917444Y-100495782D01*
X166927211Y-100500554D01*
G37*
G36*
X169993337Y-105551956D02*
G01*
X169996703Y-105585338D01*
X169993337Y-105589461D01*
X169976614Y-105585600D01*
X169974584Y-105570709D01*
X169984876Y-105547556D01*
X169993337Y-105551956D01*
G37*
G36*
X170359007Y-102542211D02*
G01*
X170362373Y-102575593D01*
X170359007Y-102579716D01*
X170342284Y-102575855D01*
X170340254Y-102560963D01*
X170350546Y-102537811D01*
X170359007Y-102542211D01*
G37*
G36*
X173706293Y-96663363D02*
G01*
X173702432Y-96680085D01*
X173687541Y-96682115D01*
X173664388Y-96671823D01*
X173668789Y-96663363D01*
X173702171Y-96659996D01*
X173706293Y-96663363D01*
G37*
G36*
X173818807Y-96635234D02*
G01*
X173814946Y-96651957D01*
X173800055Y-96653987D01*
X173776902Y-96643695D01*
X173781303Y-96635234D01*
X173814685Y-96631868D01*
X173818807Y-96635234D01*
G37*
G36*
X173961208Y-96608864D02*
G01*
X173952819Y-96621649D01*
X173924289Y-96623638D01*
X173894275Y-96616768D01*
X173907295Y-96606643D01*
X173951256Y-96603290D01*
X173961208Y-96608864D01*
G37*
G36*
X174747046Y-97957272D02*
G01*
X174743185Y-97973994D01*
X174728294Y-97976024D01*
X174705141Y-97965733D01*
X174709542Y-97957272D01*
X174742924Y-97953906D01*
X174747046Y-97957272D01*
G37*
G36*
X176322240Y-98182300D02*
G01*
X176318379Y-98199022D01*
X176303488Y-98201052D01*
X176280335Y-98190760D01*
X176284736Y-98182300D01*
X176318118Y-98178933D01*
X176322240Y-98182300D01*
G37*
G36*
X176462883Y-98154171D02*
G01*
X176459021Y-98170894D01*
X176444130Y-98172924D01*
X176420977Y-98162632D01*
X176425378Y-98154171D01*
X176458760Y-98150805D01*
X176462883Y-98154171D01*
G37*
G36*
X176744630Y-106465545D02*
G01*
X176747983Y-106509507D01*
X176742409Y-106519458D01*
X176729624Y-106511069D01*
X176727636Y-106482540D01*
X176734505Y-106452526D01*
X176744630Y-106465545D01*
G37*
G36*
X176772172Y-106126246D02*
G01*
X176775887Y-106183835D01*
X176772172Y-106196567D01*
X176761906Y-106200101D01*
X176757985Y-106161406D01*
X176762405Y-106121474D01*
X176772172Y-106126246D01*
G37*
G36*
X177306736Y-102429697D02*
G01*
X177302875Y-102446420D01*
X177287984Y-102448450D01*
X177264831Y-102438158D01*
X177269232Y-102429697D01*
X177302614Y-102426331D01*
X177306736Y-102429697D01*
G37*
G36*
X177391122Y-102401569D02*
G01*
X177387261Y-102418291D01*
X177372369Y-102420321D01*
X177349217Y-102410029D01*
X177353617Y-102401569D01*
X177386999Y-102398202D01*
X177391122Y-102401569D01*
G37*
G36*
X178518018Y-97424589D02*
G01*
X178509629Y-97437374D01*
X178481100Y-97439363D01*
X178451086Y-97432493D01*
X178464105Y-97422369D01*
X178508067Y-97419015D01*
X178518018Y-97424589D01*
G37*
G36*
X169688954Y-104288178D02*
G01*
X169718914Y-104314325D01*
X169721428Y-104320652D01*
X169708079Y-104332213D01*
X169680286Y-104306308D01*
X169676549Y-104300582D01*
X169673234Y-104281334D01*
X169688954Y-104288178D01*
G37*
G36*
X168024896Y-99878801D02*
G01*
X168019656Y-99888760D01*
X167993153Y-99915622D01*
X167988208Y-99916888D01*
X167986289Y-99898719D01*
X167991528Y-99888760D01*
X168018031Y-99861897D01*
X168022976Y-99860631D01*
X168024896Y-99878801D01*
G37*
G36*
X171878495Y-97797295D02*
G01*
X171873255Y-97807254D01*
X171846752Y-97834116D01*
X171841807Y-97835382D01*
X171839888Y-97817213D01*
X171845127Y-97807254D01*
X171871630Y-97780391D01*
X171876576Y-97779125D01*
X171878495Y-97797295D01*
G37*
G36*
X172441061Y-97231336D02*
G01*
X172425348Y-97251716D01*
X172384292Y-97295447D01*
X172365965Y-97295257D01*
X172365503Y-97290321D01*
X172384726Y-97266841D01*
X172414728Y-97241096D01*
X172448046Y-97216770D01*
X172441061Y-97231336D01*
G37*
G36*
X172525449Y-97178469D02*
G01*
X172520210Y-97188427D01*
X172493707Y-97215290D01*
X172488761Y-97216556D01*
X172486842Y-97198386D01*
X172492082Y-97188427D01*
X172518585Y-97161565D01*
X172523530Y-97160299D01*
X172525449Y-97178469D01*
G37*
G36*
X172674917Y-97087999D02*
G01*
X172653354Y-97110590D01*
X172618660Y-97132171D01*
X172575169Y-97150278D01*
X172562403Y-97148214D01*
X172583965Y-97125623D01*
X172618660Y-97104042D01*
X172662150Y-97085935D01*
X172674917Y-97087999D01*
G37*
G36*
X172750477Y-97037826D02*
G01*
X172745238Y-97047785D01*
X172718735Y-97074648D01*
X172713789Y-97075914D01*
X172711870Y-97057744D01*
X172717109Y-97047785D01*
X172743612Y-97020922D01*
X172748558Y-97019657D01*
X172750477Y-97037826D01*
G37*
G36*
X174297540Y-96443739D02*
G01*
X174281827Y-96464120D01*
X174240770Y-96507850D01*
X174222444Y-96507660D01*
X174221982Y-96502724D01*
X174241204Y-96479244D01*
X174271207Y-96453500D01*
X174304525Y-96429173D01*
X174297540Y-96443739D01*
G37*
G36*
X174410056Y-96306486D02*
G01*
X174404817Y-96316445D01*
X174378314Y-96343308D01*
X174373368Y-96344574D01*
X174371449Y-96326404D01*
X174376688Y-96316445D01*
X174403191Y-96289582D01*
X174408137Y-96288317D01*
X174410056Y-96306486D01*
G37*
G36*
X169897231Y-104472185D02*
G01*
X169965948Y-104537023D01*
X169997870Y-104572457D01*
X169999017Y-104585571D01*
X169994166Y-104586213D01*
X169972012Y-104567391D01*
X169924654Y-104519226D01*
X169888685Y-104480731D01*
X169791749Y-104375249D01*
X169897231Y-104472185D01*
G37*
G36*
X177000580Y-107791498D02*
G01*
X177003776Y-107851724D01*
X177003896Y-107856146D01*
X177002173Y-107934093D01*
X176992147Y-107960519D01*
X176974750Y-107933359D01*
X176972234Y-107926467D01*
X176970182Y-107874141D01*
X176980485Y-107820986D01*
X176993823Y-107782765D01*
X177000580Y-107791498D01*
G37*
G36*
X172141180Y-97504873D02*
G01*
X172043625Y-97605531D01*
X171978511Y-97671146D01*
X171939603Y-97707524D01*
X171920664Y-97720475D01*
X171915460Y-97715807D01*
X171915448Y-97715132D01*
X171934389Y-97693718D01*
X171985672Y-97641725D01*
X172060988Y-97567463D01*
X172133444Y-97497137D01*
X172351439Y-97286877D01*
X172141180Y-97504873D01*
G37*
G36*
X174175987Y-96572972D02*
G01*
X174153593Y-96623355D01*
X174146647Y-96637066D01*
X174115122Y-96697641D01*
X174096226Y-96731250D01*
X174095210Y-96732644D01*
X174086757Y-96714644D01*
X174076173Y-96659647D01*
X174075866Y-96657575D01*
X174074654Y-96596050D01*
X174102752Y-96568395D01*
X174127302Y-96561996D01*
X174168356Y-96556913D01*
X174175987Y-96572972D01*
G37*
G36*
X167213307Y-101449889D02*
G01*
X167197957Y-101463471D01*
X167145193Y-101480451D01*
X167143961Y-101480751D01*
X167060096Y-101512199D01*
X166988401Y-101552601D01*
X166937795Y-101585343D01*
X166919584Y-101584928D01*
X166920585Y-101556730D01*
X166954934Y-101515121D01*
X167044386Y-101479049D01*
X167064819Y-101473554D01*
X167145354Y-101455584D01*
X167200231Y-101448162D01*
X167213307Y-101449889D01*
G37*
G36*
X176797780Y-106349675D02*
G01*
X176809987Y-106400498D01*
X176822113Y-106488692D01*
X176822492Y-106581403D01*
X176812710Y-106661959D01*
X176794353Y-106713689D01*
X176779199Y-106723976D01*
X176756176Y-106701274D01*
X176753543Y-106683443D01*
X176771784Y-106634833D01*
X176783358Y-106624484D01*
X176799153Y-106585328D01*
X176802217Y-106502259D01*
X176798612Y-106447021D01*
X176791449Y-106363135D01*
X176790895Y-106331817D01*
X176797780Y-106349675D01*
G37*
G36*
X167203032Y-101588004D02*
G01*
X167217995Y-101604596D01*
X167240239Y-101630674D01*
X167253518Y-101632724D01*
X167276368Y-101637914D01*
X167299574Y-101660537D01*
X167330722Y-101711174D01*
X167377401Y-101800406D01*
X167386193Y-101817737D01*
X167423590Y-101881239D01*
X167455978Y-101920215D01*
X167456515Y-101920610D01*
X167457658Y-101935267D01*
X167428959Y-101937296D01*
X167377851Y-101933868D01*
X167285622Y-101927849D01*
X167167293Y-101920216D01*
X167085513Y-101914979D01*
X166941618Y-101903376D01*
X166843019Y-101888812D01*
X166778763Y-101869052D01*
X166740940Y-101844709D01*
X166699347Y-101784284D01*
X166683920Y-101715004D01*
X166698042Y-101659476D01*
X166711361Y-101646988D01*
X166727345Y-101651515D01*
X166722415Y-101673456D01*
X166717328Y-101736896D01*
X166724049Y-101765021D01*
X166740923Y-101790793D01*
X166764788Y-101775545D01*
X166793723Y-101734749D01*
X166855338Y-101665286D01*
X166922205Y-101616516D01*
X166990350Y-101592800D01*
X167071893Y-101579659D01*
X167148799Y-101577818D01*
X167203032Y-101588004D01*
G37*
G36*
X167267245Y-100359624D02*
G01*
X167384005Y-100436494D01*
X167485216Y-100521167D01*
X167591017Y-100610352D01*
X167671990Y-100660534D01*
X167737419Y-100677447D01*
X167738372Y-100677478D01*
X167791318Y-100681201D01*
X167792801Y-100690655D01*
X167766026Y-100702936D01*
X167719098Y-100743104D01*
X167675759Y-100812831D01*
X167668964Y-100828735D01*
X167639474Y-100893082D01*
X167604763Y-100921530D01*
X167543620Y-100926778D01*
X167507700Y-100925261D01*
X167434157Y-100917626D01*
X167391271Y-100905770D01*
X167386766Y-100900558D01*
X167364450Y-100876734D01*
X167309046Y-100840588D01*
X167291082Y-100830585D01*
X167233083Y-100789974D01*
X167207635Y-100752961D01*
X167208313Y-100745400D01*
X167197968Y-100708252D01*
X167177476Y-100694955D01*
X167149159Y-100667457D01*
X167144977Y-100607206D01*
X167149165Y-100571779D01*
X167161919Y-100483142D01*
X167172522Y-100408200D01*
X167173369Y-100402104D01*
X167170817Y-100381008D01*
X167217995Y-100381008D01*
X167232059Y-100395072D01*
X167246124Y-100381008D01*
X167232059Y-100366944D01*
X167217995Y-100381008D01*
X167170817Y-100381008D01*
X167167294Y-100351881D01*
X167122710Y-100336594D01*
X167089737Y-100329842D01*
X167098204Y-100320268D01*
X167169445Y-100319567D01*
X167267245Y-100359624D01*
G37*
G36*
X168189519Y-99815027D02*
G01*
X168266589Y-99851222D01*
X168336365Y-99909231D01*
X168362189Y-99942320D01*
X168384437Y-99991098D01*
X168401434Y-100066385D01*
X168414506Y-100177202D01*
X168424980Y-100332572D01*
X168427782Y-100388542D01*
X168438544Y-100561195D01*
X168452217Y-100690364D01*
X168468192Y-100771294D01*
X168480117Y-100796405D01*
X168527613Y-100816236D01*
X168609937Y-100827286D01*
X168661043Y-100828294D01*
X168807253Y-100825524D01*
X168705444Y-100856422D01*
X168639929Y-100881231D01*
X168618096Y-100909132D01*
X168625898Y-100947133D01*
X168663616Y-101003888D01*
X168725673Y-101062007D01*
X168732229Y-101066806D01*
X168816296Y-101126667D01*
X168973685Y-100964801D01*
X169047682Y-100885706D01*
X169103688Y-100820164D01*
X169131978Y-100779728D01*
X169133589Y-100774806D01*
X169156156Y-100734137D01*
X169168577Y-100723213D01*
X169167773Y-100712253D01*
X169126344Y-100713238D01*
X169058269Y-100724578D01*
X168977526Y-100744683D01*
X168976024Y-100745121D01*
X168962101Y-100745717D01*
X168993348Y-100727840D01*
X169017448Y-100716326D01*
X169144390Y-100675546D01*
X169263339Y-100669280D01*
X169363821Y-100694558D01*
X169435361Y-100748406D01*
X169467484Y-100827854D01*
X169468272Y-100844224D01*
X169451235Y-100911068D01*
X169396840Y-100983022D01*
X169300160Y-101065039D01*
X169156268Y-101162066D01*
X169144795Y-101169241D01*
X168980095Y-101280767D01*
X168863842Y-101383718D01*
X168790956Y-101486825D01*
X168756356Y-101598821D01*
X168754960Y-101728435D01*
X168767746Y-101817209D01*
X168820166Y-101995296D01*
X168912956Y-102195171D01*
X169040242Y-102406587D01*
X169196150Y-102619297D01*
X169294481Y-102735962D01*
X169452759Y-102904551D01*
X169592374Y-103029098D01*
X169721912Y-103114781D01*
X169849953Y-103166778D01*
X169985081Y-103190268D01*
X170051903Y-103192926D01*
X170161206Y-103197286D01*
X170217146Y-103209621D01*
X170222188Y-103230978D01*
X170194234Y-103253434D01*
X170198037Y-103272160D01*
X170246590Y-103298914D01*
X170329538Y-103330401D01*
X170436528Y-103363324D01*
X170557204Y-103394386D01*
X170681212Y-103420291D01*
X170756767Y-103432532D01*
X170886675Y-103449387D01*
X171044872Y-103467964D01*
X171203610Y-103485051D01*
X171254429Y-103490111D01*
X171386994Y-103503642D01*
X171509695Y-103517367D01*
X171604298Y-103529194D01*
X171636888Y-103533990D01*
X171697782Y-103540736D01*
X171736079Y-103527872D01*
X171768043Y-103483987D01*
X171799502Y-103419900D01*
X171833710Y-103338628D01*
X171853105Y-103275677D01*
X171854900Y-103255587D01*
X171853807Y-103197876D01*
X171860989Y-103100103D01*
X171874557Y-102977536D01*
X171892623Y-102845442D01*
X171913297Y-102719090D01*
X171933878Y-102617220D01*
X171979051Y-102462790D01*
X172039844Y-102309714D01*
X172107789Y-102177199D01*
X172163328Y-102096844D01*
X172307487Y-101967670D01*
X172494893Y-101865529D01*
X172717841Y-101793607D01*
X172968627Y-101755088D01*
X172994788Y-101753205D01*
X173113879Y-101750122D01*
X173253783Y-101753633D01*
X173402169Y-101762566D01*
X173546707Y-101775746D01*
X173675065Y-101792001D01*
X173774913Y-101810156D01*
X173833920Y-101829038D01*
X173840841Y-101833731D01*
X173887811Y-101852485D01*
X173936819Y-101857752D01*
X174017518Y-101867932D01*
X174130962Y-101894857D01*
X174258192Y-101933106D01*
X174380248Y-101977255D01*
X174432945Y-101999636D01*
X174533768Y-102038261D01*
X174672928Y-102082053D01*
X174833379Y-102126311D01*
X174998075Y-102166334D01*
X175149970Y-102197420D01*
X175150221Y-102197465D01*
X175255626Y-102220944D01*
X175352417Y-102250014D01*
X175391697Y-102265602D01*
X175447305Y-102286629D01*
X175530699Y-102309874D01*
X175647595Y-102336561D01*
X175803708Y-102367916D01*
X176004755Y-102405162D01*
X176222331Y-102443603D01*
X176343075Y-102467254D01*
X176445177Y-102492131D01*
X176514206Y-102514476D01*
X176533085Y-102524524D01*
X176583263Y-102545592D01*
X176666532Y-102561741D01*
X176719604Y-102566717D01*
X176811819Y-102574249D01*
X176855374Y-102586820D01*
X176857868Y-102609696D01*
X176830897Y-102643863D01*
X176811641Y-102670690D01*
X176838458Y-102666739D01*
X176843410Y-102665031D01*
X176855377Y-102674463D01*
X176831509Y-102721506D01*
X176779635Y-102794501D01*
X176687565Y-102940540D01*
X176615100Y-103113361D01*
X176562133Y-103316066D01*
X176528556Y-103551757D01*
X176514262Y-103823534D01*
X176519143Y-104134499D01*
X176543091Y-104487753D01*
X176585998Y-104886398D01*
X176647757Y-105333536D01*
X176683501Y-105562792D01*
X176700866Y-105692185D01*
X176710962Y-105812409D01*
X176712454Y-105904751D01*
X176709861Y-105932864D01*
X176702589Y-105994576D01*
X176710503Y-106006811D01*
X176722880Y-105992636D01*
X176745305Y-105969786D01*
X176752722Y-105996328D01*
X176753113Y-106013732D01*
X176742154Y-106063105D01*
X176723519Y-106077021D01*
X176706221Y-106098825D01*
X176710792Y-106131519D01*
X176712559Y-106201579D01*
X176700653Y-106237000D01*
X176680378Y-106297492D01*
X176659101Y-106397469D01*
X176639328Y-106520270D01*
X176623562Y-106649234D01*
X176614309Y-106767697D01*
X176612901Y-106820811D01*
X176619129Y-106907296D01*
X176639210Y-106945620D01*
X176652084Y-106949003D01*
X176696418Y-106925316D01*
X176713300Y-106862279D01*
X176706987Y-106804042D01*
X176700716Y-106761848D01*
X176714048Y-106768876D01*
X176722544Y-106780233D01*
X176746777Y-106805724D01*
X176753113Y-106784255D01*
X176773112Y-106758904D01*
X176795736Y-106762276D01*
X176829719Y-106758030D01*
X176837929Y-106718405D01*
X176843587Y-106677154D01*
X176852926Y-106673340D01*
X176858114Y-106707886D01*
X176853238Y-106776684D01*
X176848966Y-106806890D01*
X176833114Y-106878561D01*
X176815497Y-106898590D01*
X176803187Y-106887999D01*
X176786139Y-106870598D01*
X176793083Y-106902079D01*
X176807678Y-106954412D01*
X176810797Y-106972400D01*
X176823150Y-106965217D01*
X176851520Y-106921701D01*
X176851993Y-106920875D01*
X176892192Y-106850554D01*
X176893189Y-106915692D01*
X176880347Y-106995335D01*
X176863451Y-107038258D01*
X176847187Y-107095998D01*
X176863451Y-107126420D01*
X176887436Y-107134883D01*
X176897371Y-107092661D01*
X176897616Y-107088239D01*
X176902767Y-107076341D01*
X176912896Y-107112406D01*
X176925145Y-107184362D01*
X176935060Y-107312576D01*
X176929333Y-107431450D01*
X176923473Y-107465647D01*
X176909463Y-107534940D01*
X176910868Y-107556922D01*
X176929412Y-107538848D01*
X176938137Y-107527293D01*
X176964864Y-107495884D01*
X176976142Y-107505479D01*
X176978562Y-107563340D01*
X176978571Y-107571829D01*
X176973059Y-107644009D01*
X176959577Y-107689544D01*
X176957475Y-107692146D01*
X176943977Y-107729817D01*
X176937230Y-107796640D01*
X176936821Y-107874569D01*
X176942336Y-107945555D01*
X176953362Y-107991551D01*
X176964500Y-107999053D01*
X176967729Y-108003237D01*
X176938034Y-108029863D01*
X176924719Y-108037235D01*
X176901886Y-108043726D01*
X176866247Y-108049382D01*
X176814514Y-108054248D01*
X176743401Y-108058370D01*
X176649618Y-108061792D01*
X176529880Y-108064560D01*
X176380898Y-108066718D01*
X176199385Y-108068313D01*
X175982053Y-108069389D01*
X175725614Y-108069992D01*
X175426782Y-108070167D01*
X175082269Y-108069958D01*
X174688786Y-108069412D01*
X174243047Y-108068573D01*
X174139252Y-108068358D01*
X173757769Y-108067456D01*
X173396877Y-108066412D01*
X173059942Y-108065246D01*
X172750333Y-108063979D01*
X172471418Y-108062631D01*
X172226565Y-108061222D01*
X172019140Y-108059773D01*
X171852513Y-108058304D01*
X171730050Y-108056837D01*
X171655120Y-108055390D01*
X171631091Y-108053986D01*
X171642170Y-108053184D01*
X171760417Y-108045799D01*
X171839831Y-108034713D01*
X171872831Y-108021124D01*
X171872570Y-108016775D01*
X171880776Y-107994410D01*
X171906756Y-107989326D01*
X171925111Y-107983995D01*
X176459562Y-107983995D01*
X176464651Y-108027468D01*
X176486878Y-108042532D01*
X176525613Y-108043209D01*
X176598837Y-108040406D01*
X176572430Y-108031949D01*
X176809800Y-108031949D01*
X176823864Y-108046013D01*
X176837929Y-108031949D01*
X176866057Y-108031949D01*
X176880121Y-108046013D01*
X176894186Y-108031949D01*
X176880121Y-108017885D01*
X176866057Y-108031949D01*
X176837929Y-108031949D01*
X176823864Y-108017885D01*
X176809800Y-108031949D01*
X176572430Y-108031949D01*
X176528516Y-108017885D01*
X176481261Y-108001368D01*
X176485969Y-107994800D01*
X176521311Y-107992560D01*
X176562170Y-107984035D01*
X176576030Y-107952575D01*
X176571186Y-107886331D01*
X176553557Y-107808190D01*
X176527373Y-107752477D01*
X176500124Y-107732899D01*
X176490406Y-107738475D01*
X176481898Y-107771100D01*
X176471874Y-107841603D01*
X176465937Y-107898339D01*
X176459562Y-107983995D01*
X171925111Y-107983995D01*
X171936563Y-107980669D01*
X171928975Y-107968229D01*
X171913172Y-107931137D01*
X171906321Y-107847388D01*
X171908414Y-107714412D01*
X171912966Y-107638151D01*
X176922314Y-107638151D01*
X176936378Y-107652215D01*
X176950443Y-107638151D01*
X176936378Y-107624086D01*
X176922314Y-107638151D01*
X171912966Y-107638151D01*
X171919444Y-107529637D01*
X171927464Y-107427187D01*
X171937925Y-107253039D01*
X171938315Y-107238009D01*
X176540518Y-107238009D01*
X176556108Y-107258416D01*
X176583522Y-107236701D01*
X176584773Y-107227765D01*
X176604660Y-107188888D01*
X176605447Y-107188095D01*
X176866057Y-107188095D01*
X176880121Y-107202159D01*
X176894186Y-107188095D01*
X176880121Y-107174031D01*
X176866057Y-107188095D01*
X176605447Y-107188095D01*
X176644603Y-107148665D01*
X176687599Y-107093382D01*
X176684900Y-107038675D01*
X176653600Y-106991196D01*
X176697286Y-106991196D01*
X176711351Y-107005260D01*
X176725415Y-106991196D01*
X176711351Y-106977132D01*
X176697286Y-106991196D01*
X176653600Y-106991196D01*
X176650995Y-106987244D01*
X176608961Y-106983130D01*
X176576733Y-107026053D01*
X176573009Y-107040421D01*
X176556986Y-107118190D01*
X176543809Y-107181063D01*
X176540518Y-107238009D01*
X171938315Y-107238009D01*
X171942962Y-107058835D01*
X171942995Y-106854137D01*
X171938443Y-106648505D01*
X171929728Y-106451500D01*
X171917270Y-106272684D01*
X171901490Y-106121616D01*
X171882808Y-106007859D01*
X171862139Y-105941883D01*
X171843059Y-105886732D01*
X171823575Y-105800833D01*
X171815541Y-105753641D01*
X171802718Y-105689267D01*
X171781426Y-105628226D01*
X171746750Y-105563997D01*
X171693772Y-105490060D01*
X171617575Y-105399897D01*
X171513242Y-105286986D01*
X171375857Y-105144809D01*
X171292117Y-105059575D01*
X171164936Y-104933922D01*
X171056888Y-104833877D01*
X170973479Y-104764223D01*
X170920214Y-104729741D01*
X170909145Y-104726855D01*
X170846388Y-104710659D01*
X170787071Y-104677630D01*
X170715944Y-104630310D01*
X170631101Y-104579958D01*
X170621539Y-104574684D01*
X170541513Y-104528637D01*
X170436314Y-104464792D01*
X170316615Y-104390020D01*
X170193095Y-104311195D01*
X170076429Y-104235187D01*
X169977293Y-104168870D01*
X169906363Y-104119114D01*
X169876135Y-104094883D01*
X169839390Y-104065462D01*
X169770310Y-104016453D01*
X169685396Y-103959488D01*
X169578645Y-103882763D01*
X169471496Y-103794827D01*
X169407041Y-103734460D01*
X169341334Y-103672038D01*
X169289596Y-103631820D01*
X169267271Y-103622813D01*
X169246276Y-103606763D01*
X169243244Y-103586769D01*
X169220488Y-103539835D01*
X169201052Y-103527503D01*
X169163701Y-103493892D01*
X169158859Y-103475364D01*
X169137436Y-103434973D01*
X169092259Y-103395778D01*
X169045552Y-103351581D01*
X168982379Y-103274212D01*
X168914969Y-103178885D01*
X168902392Y-103159530D01*
X168839529Y-103061367D01*
X168784617Y-102975730D01*
X168747795Y-102918431D01*
X168743399Y-102911616D01*
X168706682Y-102847244D01*
X168666850Y-102767353D01*
X168665194Y-102763761D01*
X168631012Y-102707699D01*
X168600421Y-102686559D01*
X168595438Y-102688068D01*
X168575137Y-102677730D01*
X168568161Y-102636389D01*
X168551769Y-102568650D01*
X168525969Y-102532835D01*
X168490326Y-102486947D01*
X168483776Y-102462863D01*
X168467553Y-102417741D01*
X168428439Y-102357563D01*
X168427519Y-102356389D01*
X168386052Y-102272894D01*
X168371262Y-102187060D01*
X168356938Y-102102802D01*
X168307117Y-102047267D01*
X168303499Y-102044850D01*
X168171515Y-101942495D01*
X168076907Y-101829127D01*
X168018386Y-101698271D01*
X167994660Y-101543452D01*
X168004439Y-101358192D01*
X168046430Y-101136018D01*
X168089544Y-100971705D01*
X168114259Y-100880756D01*
X168134308Y-100800542D01*
X168136955Y-100788870D01*
X168144913Y-100722723D01*
X168148490Y-100628398D01*
X168148100Y-100521849D01*
X168144152Y-100419030D01*
X168137059Y-100335894D01*
X168127230Y-100288396D01*
X168123930Y-100283567D01*
X168108806Y-100244117D01*
X168103646Y-100169886D01*
X168107409Y-100081263D01*
X168119055Y-99998638D01*
X168137546Y-99942400D01*
X168141624Y-99936528D01*
X168163437Y-99885160D01*
X168148170Y-99847653D01*
X168104323Y-99842716D01*
X168099736Y-99844327D01*
X168073109Y-99844672D01*
X168076112Y-99832181D01*
X168120809Y-99806671D01*
X168189519Y-99815027D01*
G37*
G36*
X175889520Y-95808324D02*
G01*
X176130923Y-95898740D01*
X176351106Y-96040888D01*
X176467793Y-96145469D01*
X176558642Y-96243769D01*
X176644252Y-96349455D01*
X176706995Y-96440671D01*
X176709943Y-96445719D01*
X176765686Y-96536001D01*
X176821098Y-96615381D01*
X176847206Y-96647560D01*
X176890461Y-96703991D01*
X176910596Y-96746009D01*
X176918452Y-96790845D01*
X176933183Y-96871453D01*
X176947317Y-96947469D01*
X176964694Y-97056122D01*
X176976042Y-97157489D01*
X176978571Y-97207658D01*
X176988801Y-97278400D01*
X177020764Y-97300941D01*
X177052218Y-97322681D01*
X177062920Y-97391669D01*
X177062956Y-97397731D01*
X177070592Y-97467929D01*
X177089227Y-97510386D01*
X177091748Y-97512315D01*
X177108363Y-97500734D01*
X177109259Y-97437601D01*
X177106351Y-97408493D01*
X177099476Y-97341789D01*
X177101303Y-97327848D01*
X177112582Y-97363740D01*
X177115263Y-97373718D01*
X177137749Y-97445298D01*
X177158577Y-97493264D01*
X177160625Y-97522361D01*
X177149540Y-97525969D01*
X177133457Y-97551776D01*
X177134305Y-97624741D01*
X177137639Y-97652547D01*
X177145670Y-97730410D01*
X177138499Y-97767607D01*
X177111605Y-97778706D01*
X177098352Y-97779125D01*
X177033253Y-97758576D01*
X177005594Y-97735601D01*
X176971629Y-97707995D01*
X176944128Y-97728498D01*
X176944079Y-97728569D01*
X176931023Y-97730440D01*
X176930909Y-97693080D01*
X177062956Y-97693080D01*
X177074433Y-97739681D01*
X177091085Y-97750997D01*
X177116314Y-97728334D01*
X177119213Y-97710464D01*
X177102070Y-97662574D01*
X177091085Y-97652547D01*
X177068945Y-97661160D01*
X177062956Y-97693080D01*
X176930909Y-97693080D01*
X176930879Y-97683308D01*
X176943197Y-97592815D01*
X176963585Y-97483776D01*
X176965751Y-97454775D01*
X176950690Y-97477063D01*
X176925503Y-97534619D01*
X176826583Y-97722808D01*
X176697168Y-97871850D01*
X176532255Y-97985241D01*
X176326838Y-98066479D01*
X176092524Y-98116624D01*
X176016896Y-98128911D01*
X175993753Y-98136113D01*
X176019771Y-98140209D01*
X176050332Y-98141717D01*
X176110847Y-98147836D01*
X176120811Y-98161233D01*
X176106589Y-98172924D01*
X176078509Y-98196036D01*
X176092101Y-98199035D01*
X176137248Y-98183785D01*
X176195467Y-98156536D01*
X176246469Y-98135311D01*
X176264045Y-98138968D01*
X176261970Y-98143704D01*
X176258740Y-98190742D01*
X176299613Y-98230854D01*
X176372479Y-98254847D01*
X176412414Y-98257934D01*
X176477857Y-98259902D01*
X176494268Y-98270079D01*
X176468874Y-98296571D01*
X176456283Y-98307159D01*
X176421354Y-98348102D01*
X176404884Y-98406584D01*
X176402125Y-98500735D01*
X176402420Y-98512820D01*
X176409325Y-98610262D01*
X176429671Y-98675421D01*
X176472899Y-98732130D01*
X176499921Y-98758945D01*
X176567446Y-98813133D01*
X176627728Y-98844708D01*
X176645201Y-98848007D01*
X176688599Y-98860313D01*
X176697286Y-98875432D01*
X176721019Y-98890079D01*
X176779037Y-98886506D01*
X176779627Y-98886389D01*
X176858642Y-98885585D01*
X176955102Y-98903885D01*
X176983559Y-98912852D01*
X177065632Y-98934822D01*
X177184025Y-98957844D01*
X177318994Y-98978309D01*
X177386434Y-98986447D01*
X177537599Y-99003143D01*
X177697030Y-99021102D01*
X177837564Y-99037254D01*
X177878682Y-99042080D01*
X177987548Y-99053736D01*
X178056590Y-99055355D01*
X178101722Y-99044521D01*
X178138859Y-99018820D01*
X178159607Y-98999440D01*
X178217456Y-98912902D01*
X178225735Y-98879505D01*
X180163274Y-98879505D01*
X180180264Y-98995606D01*
X180216976Y-99092314D01*
X180270733Y-99162046D01*
X180338859Y-99197218D01*
X180418678Y-99190245D01*
X180489652Y-99148827D01*
X180551163Y-99071442D01*
X180602112Y-98955539D01*
X180639684Y-98817110D01*
X180661067Y-98672148D01*
X180663447Y-98536644D01*
X180644009Y-98426591D01*
X180624142Y-98384419D01*
X180557183Y-98322665D01*
X180476001Y-98310098D01*
X180388840Y-98344327D01*
X180303946Y-98422964D01*
X180257397Y-98490689D01*
X180199164Y-98619463D01*
X180168682Y-98751596D01*
X180163274Y-98879505D01*
X178225735Y-98879505D01*
X178235356Y-98840695D01*
X178246610Y-98728136D01*
X178263841Y-98627418D01*
X178283846Y-98553975D01*
X178301039Y-98524263D01*
X178311744Y-98490307D01*
X178311042Y-98422577D01*
X178309754Y-98410990D01*
X178342916Y-98410990D01*
X178360278Y-98405770D01*
X178361604Y-98404464D01*
X178381432Y-98355838D01*
X178379024Y-98337849D01*
X178364531Y-98331319D01*
X178349305Y-98367568D01*
X178342916Y-98410990D01*
X178309754Y-98410990D01*
X178308361Y-98398458D01*
X178303595Y-98321243D01*
X178319338Y-98281337D01*
X178342005Y-98267786D01*
X178397291Y-98270315D01*
X178417804Y-98288371D01*
X178433486Y-98302328D01*
X178427642Y-98266101D01*
X178425238Y-98257309D01*
X178402037Y-98198537D01*
X178382149Y-98171848D01*
X178366317Y-98137658D01*
X178349961Y-98065282D01*
X178340152Y-97998405D01*
X178332354Y-97900011D01*
X178340601Y-97832870D01*
X178369355Y-97773182D01*
X178387415Y-97746324D01*
X178434068Y-97684914D01*
X178469331Y-97647194D01*
X178475395Y-97643171D01*
X178496343Y-97610807D01*
X178497508Y-97599286D01*
X178515835Y-97559559D01*
X178561977Y-97500125D01*
X178585854Y-97474415D01*
X178628375Y-97425458D01*
X178638483Y-97401189D01*
X178628046Y-97401763D01*
X178589151Y-97410324D01*
X178581893Y-97405738D01*
X178606779Y-97384104D01*
X178673317Y-97350704D01*
X178769324Y-97310110D01*
X178882619Y-97266893D01*
X179001020Y-97225623D01*
X179112345Y-97190870D01*
X179204413Y-97167207D01*
X179230928Y-97162213D01*
X179471240Y-97150785D01*
X179713776Y-97188587D01*
X179948771Y-97270672D01*
X180166454Y-97392094D01*
X180357058Y-97547905D01*
X180510815Y-97733161D01*
X180574536Y-97842607D01*
X180673204Y-98072954D01*
X180727312Y-98289717D01*
X180737540Y-98505843D01*
X180704565Y-98734278D01*
X180633803Y-98974585D01*
X180594162Y-99096009D01*
X180563129Y-99207421D01*
X180545310Y-99291519D01*
X180542817Y-99316342D01*
X180532900Y-99376761D01*
X180510031Y-99393120D01*
X180509419Y-99392898D01*
X180471527Y-99403794D01*
X180421121Y-99446463D01*
X180416009Y-99452186D01*
X180367275Y-99512840D01*
X180358392Y-99539243D01*
X180388483Y-99535955D01*
X180400793Y-99531491D01*
X180432528Y-99527485D01*
X180427139Y-99546637D01*
X180431251Y-99581692D01*
X180457685Y-99597885D01*
X180521394Y-99631398D01*
X180557918Y-99658303D01*
X180595150Y-99685270D01*
X180606654Y-99672511D01*
X180607142Y-99659653D01*
X180588582Y-99603454D01*
X180576632Y-99588217D01*
X180556780Y-99538683D01*
X180556899Y-99491173D01*
X180567739Y-99474631D01*
X180588648Y-99504929D01*
X180621163Y-99584952D01*
X180648820Y-99663732D01*
X180687543Y-99786627D01*
X180712013Y-99892962D01*
X180725443Y-100003964D01*
X180731045Y-100140861D01*
X180731843Y-100212237D01*
X180731571Y-100352515D01*
X180726988Y-100452243D01*
X180715462Y-100527099D01*
X180694363Y-100592765D01*
X180661059Y-100664921D01*
X180653286Y-100680361D01*
X180551251Y-100838661D01*
X180403094Y-100999716D01*
X180205462Y-101166848D01*
X180045650Y-101282541D01*
X179931692Y-101362571D01*
X179789955Y-101464606D01*
X179637288Y-101576394D01*
X179490535Y-101685683D01*
X179469016Y-101701902D01*
X179306576Y-101820942D01*
X179159384Y-101918848D01*
X179017781Y-101999365D01*
X178872106Y-102066241D01*
X178712699Y-102123222D01*
X178529900Y-102174055D01*
X178314049Y-102222486D01*
X178055484Y-102272262D01*
X177949003Y-102291425D01*
X177800952Y-102317967D01*
X177667740Y-102342291D01*
X177561689Y-102362116D01*
X177495119Y-102375160D01*
X177484883Y-102377366D01*
X177441578Y-102385794D01*
X177450058Y-102378204D01*
X177470717Y-102368875D01*
X177493969Y-102353097D01*
X177475181Y-102340258D01*
X177408026Y-102326968D01*
X177386332Y-102323676D01*
X177279573Y-102301581D01*
X177138763Y-102263769D01*
X176981890Y-102215902D01*
X176826938Y-102163643D01*
X176691893Y-102112656D01*
X176626965Y-102084592D01*
X176335294Y-101946072D01*
X176088279Y-101822688D01*
X175877893Y-101709842D01*
X175696110Y-101602936D01*
X175534903Y-101497370D01*
X175470043Y-101449889D01*
X177597397Y-101449889D01*
X177611461Y-101463953D01*
X177625526Y-101449889D01*
X177611461Y-101435825D01*
X177597397Y-101449889D01*
X175470043Y-101449889D01*
X175425215Y-101417073D01*
X177466131Y-101417073D01*
X177469992Y-101433795D01*
X177484883Y-101435825D01*
X177508036Y-101425533D01*
X177503636Y-101417073D01*
X177470254Y-101413706D01*
X177466131Y-101417073D01*
X175425215Y-101417073D01*
X175386247Y-101388547D01*
X175318245Y-101334816D01*
X175161332Y-101196218D01*
X175011631Y-101042598D01*
X174885157Y-100891077D01*
X174830072Y-100812945D01*
X174796001Y-100717849D01*
X174800227Y-100665885D01*
X174812974Y-100626976D01*
X174835705Y-100606550D01*
X174882441Y-100600487D01*
X174967206Y-100604671D01*
X175000206Y-100607160D01*
X175175251Y-100637335D01*
X175376302Y-100700973D01*
X175426269Y-100720596D01*
X175816822Y-100877526D01*
X176162774Y-101011943D01*
X176470096Y-101125983D01*
X176744755Y-101221785D01*
X176992721Y-101301485D01*
X177219963Y-101367220D01*
X177267694Y-101380001D01*
X177363357Y-101401477D01*
X177407795Y-101403432D01*
X177401585Y-101388283D01*
X177345306Y-101358450D01*
X177253739Y-101321568D01*
X177128078Y-101271643D01*
X176993762Y-101213298D01*
X176916860Y-101177153D01*
X176829186Y-101135997D01*
X176760565Y-101107461D01*
X176729002Y-101098283D01*
X176686655Y-101080835D01*
X176664135Y-101063123D01*
X176614238Y-101031270D01*
X176537921Y-100997031D01*
X176519745Y-100990352D01*
X176474563Y-100973664D01*
X176430703Y-100954509D01*
X176380449Y-100928300D01*
X176358592Y-100915448D01*
X176387873Y-100915448D01*
X176401938Y-100929513D01*
X176416002Y-100915448D01*
X176401938Y-100901384D01*
X176387873Y-100915448D01*
X176358592Y-100915448D01*
X176316086Y-100890455D01*
X176229899Y-100836387D01*
X176114171Y-100761513D01*
X175961188Y-100661246D01*
X175916841Y-100632086D01*
X175728022Y-100504902D01*
X175579120Y-100397028D01*
X175460690Y-100300787D01*
X175363291Y-100208497D01*
X175277477Y-100112482D01*
X175276728Y-100111577D01*
X175268662Y-100101778D01*
X178395264Y-100101778D01*
X178414505Y-100157646D01*
X178472281Y-100195152D01*
X178529179Y-100184777D01*
X178568647Y-100132671D01*
X178576280Y-100097560D01*
X178568604Y-100025877D01*
X178539156Y-99957727D01*
X178498276Y-99908951D01*
X178456305Y-99895392D01*
X178446896Y-99899335D01*
X178414487Y-99946316D01*
X178396188Y-100022472D01*
X178395264Y-100101778D01*
X175268662Y-100101778D01*
X175163882Y-99974482D01*
X175081386Y-99872395D01*
X175023201Y-99797419D01*
X175011684Y-99781329D01*
X177768206Y-99781329D01*
X177772978Y-99837225D01*
X177799384Y-99958365D01*
X177851671Y-100030978D01*
X177931573Y-100057347D01*
X177940315Y-100057530D01*
X177974529Y-100045397D01*
X177989159Y-99999898D01*
X177991196Y-99948810D01*
X177973850Y-99848235D01*
X177928789Y-99761986D01*
X177866473Y-99705477D01*
X177816804Y-99691860D01*
X177783441Y-99697184D01*
X177768634Y-99722389D01*
X177768206Y-99781329D01*
X175011684Y-99781329D01*
X174983287Y-99741658D01*
X174955607Y-99697215D01*
X174945003Y-99677796D01*
X174834094Y-99457005D01*
X174754890Y-99275580D01*
X174706333Y-99127159D01*
X174687359Y-99005380D01*
X174696909Y-98903880D01*
X174733921Y-98816297D01*
X174789372Y-98744607D01*
X174824307Y-98691764D01*
X174827269Y-98651958D01*
X174824557Y-98606034D01*
X174859533Y-98568634D01*
X174914252Y-98556643D01*
X174926228Y-98558842D01*
X174971014Y-98555757D01*
X174979285Y-98524331D01*
X174949425Y-98480344D01*
X174935422Y-98468946D01*
X174899989Y-98409539D01*
X174890200Y-98322942D01*
X174906441Y-98322942D01*
X174910302Y-98339664D01*
X174925193Y-98341694D01*
X174948346Y-98331403D01*
X174943946Y-98322942D01*
X174910564Y-98319576D01*
X174906441Y-98322942D01*
X174890200Y-98322942D01*
X174889394Y-98315816D01*
X174881601Y-98234924D01*
X174861313Y-98187611D01*
X174854354Y-98182897D01*
X174827838Y-98148786D01*
X174805733Y-98080885D01*
X174801846Y-98060207D01*
X174775463Y-97975534D01*
X174733644Y-97915809D01*
X174728386Y-97911746D01*
X174693051Y-97875187D01*
X174692455Y-97852469D01*
X174688726Y-97843916D01*
X174664148Y-97850969D01*
X174623331Y-97851516D01*
X174615780Y-97828435D01*
X174597831Y-97781715D01*
X174553790Y-97720740D01*
X174545459Y-97711462D01*
X174497883Y-97648326D01*
X174473781Y-97593417D01*
X174473156Y-97587809D01*
X174470016Y-97535644D01*
X174463836Y-97447862D01*
X174457158Y-97359186D01*
X174443143Y-97178338D01*
X174526161Y-97267210D01*
X174649628Y-97364214D01*
X174784471Y-97410760D01*
X174921788Y-97408866D01*
X175052672Y-97360547D01*
X175168219Y-97267821D01*
X175259524Y-97132703D01*
X175275457Y-97097530D01*
X175314948Y-96948511D01*
X175301747Y-96807514D01*
X175263609Y-96711958D01*
X175171785Y-96586998D01*
X175051660Y-96506278D01*
X174912950Y-96473316D01*
X174765372Y-96491634D01*
X174711151Y-96511808D01*
X174574645Y-96572191D01*
X174651470Y-96492004D01*
X174700557Y-96435209D01*
X174726881Y-96393924D01*
X174728294Y-96387882D01*
X174744010Y-96352239D01*
X174783235Y-96292497D01*
X174798615Y-96271752D01*
X174842759Y-96208858D01*
X174867207Y-96164274D01*
X174868936Y-96157052D01*
X174888088Y-96128376D01*
X174938784Y-96072872D01*
X175010889Y-96001492D01*
X175026850Y-95986404D01*
X175107808Y-95905900D01*
X175144791Y-95857184D01*
X175139028Y-95838563D01*
X175134675Y-95838261D01*
X175091151Y-95834769D01*
X175097088Y-95825461D01*
X175118943Y-95819509D01*
X175215854Y-95819509D01*
X175219715Y-95836231D01*
X175234606Y-95838261D01*
X175257759Y-95827970D01*
X175253359Y-95819509D01*
X175219977Y-95816143D01*
X175215854Y-95819509D01*
X175118943Y-95819509D01*
X175146204Y-95812085D01*
X175232215Y-95796393D01*
X175338950Y-95781363D01*
X175625871Y-95769309D01*
X175889520Y-95808324D01*
G37*
%TO.C,J1*%
D15*
X102690000Y-76060000D02*
X102690000Y-91780000D01*
X102690000Y-76060000D02*
X117000000Y-76060000D01*
X102690000Y-91780000D02*
X117000000Y-91780000D01*
X121110000Y-82630000D02*
X121110000Y-86370000D01*
X117000000Y-76060000D02*
G75*
G02*
X120522958Y-78053194I0J-4110000D01*
G01*
X120930413Y-88871648D02*
G75*
G02*
X117000000Y-91780000I-3930412J1201647D01*
G01*
%TO.C,PS1*%
D16*
X125035000Y-65145000D02*
X125035000Y-123045000D01*
X125035000Y-123045000D02*
X186035000Y-123045000D01*
D17*
X137635000Y-64595000D02*
X137635000Y-64595000D01*
X137835000Y-64595000D02*
X137835000Y-64595000D01*
D16*
X186035000Y-65145000D02*
X125035000Y-65145000D01*
X186035000Y-123045000D02*
X186035000Y-65145000D01*
D17*
X137635000Y-64595000D02*
G75*
G02*
X137835000Y-64595000I100000J0D01*
G01*
X137835000Y-64595000D02*
G75*
G02*
X137635000Y-64595000I-100000J0D01*
G01*
%TD*%
M02*
