M48
; DRILL file KiCad 10.0.4-10.0.4~ubuntu22.04.1 date 2026-06-25T17:26:24
; FORMAT={-:-/ absolute / metric / decimal}
; #@! TF.CreationDate,2026-06-25T17:26:24+02:00
; #@! TF.GenerationSoftware,Kicad,Pcbnew,10.0.4-10.0.4~ubuntu22.04.1
; #@! TF.FileFunction,Plated,1,2,PTH
FMAT,2
METRIC
; #@! TA.AperFunction,Plated,PTH,ViaDrill
T1C0.500
; #@! TA.AperFunction,Plated,PTH,ComponentDrill
T2C0.600
; #@! TA.AperFunction,Plated,PTH,ComponentDrill
T3C1.000
; #@! TA.AperFunction,Plated,PTH,ComponentDrill
T4C2.000
; #@! TA.AperFunction,Plated,PTH,ComponentDrill
T5C2.700
; #@! TA.AperFunction,Plated,PTH,ComponentDrill
T6C3.200
%
G90
G05
T1
X110.0Y-69.55
X110.0Y-74.55
X110.0Y-79.55
X110.0Y-84.55
X110.0Y-89.55
X110.0Y-94.55
X110.0Y-99.55
X110.0Y-104.55
X110.0Y-109.55
X110.0Y-114.55
X110.0Y-119.55
X113.0Y-81.75
X113.0Y-86.75
X113.3Y-103.1
X113.3Y-108.1
X126.3Y-87.45
X126.3Y-92.45
X126.3Y-97.45
X126.3Y-102.45
X126.3Y-126.4
X126.75Y-61.75
X131.3Y-87.45
X131.3Y-92.45
X131.3Y-97.45
X131.3Y-102.45
X131.3Y-126.4
X131.75Y-61.75
X136.3Y-87.45
X136.3Y-92.45
X136.3Y-97.45
X136.3Y-102.45
X136.3Y-126.4
X136.75Y-61.75
X141.3Y-87.45
X141.3Y-92.45
X141.3Y-97.45
X141.3Y-102.45
X141.3Y-126.4
X141.75Y-61.75
X146.3Y-87.45
X146.3Y-92.45
X146.3Y-97.45
X146.3Y-102.45
X146.3Y-126.4
X146.75Y-61.75
X151.3Y-87.45
X151.3Y-92.45
X151.3Y-97.45
X151.3Y-102.45
X151.3Y-126.4
X151.75Y-61.75
X156.3Y-87.45
X156.3Y-92.45
X156.3Y-97.45
X156.3Y-102.45
X156.3Y-126.4
X156.75Y-61.75
X161.3Y-87.45
X161.3Y-92.45
X161.3Y-97.45
X161.3Y-102.45
X161.3Y-126.4
X161.75Y-61.75
X166.3Y-87.45
X166.3Y-92.45
X166.3Y-97.45
X166.3Y-102.45
X166.3Y-126.4
X166.75Y-61.75
X171.3Y-87.45
X171.3Y-92.45
X171.3Y-97.45
X171.3Y-102.45
X171.3Y-126.4
X171.75Y-61.75
X176.3Y-87.45
X176.3Y-92.45
X176.3Y-97.45
X176.3Y-102.45
X176.3Y-126.4
X176.75Y-61.75
X181.95Y-79.95
X181.95Y-84.95
X181.95Y-89.95
X181.95Y-94.95
X181.95Y-99.95
X181.95Y-104.95
X181.95Y-109.65
X182.0Y-75.15
X182.0Y-113.6
T3
X137.755Y-69.965
X147.915Y-69.965
X147.915Y-118.225
X155.535Y-118.225
X163.155Y-69.965
X163.155Y-118.225
X173.315Y-69.965
T4
X137.755Y-118.225
X173.315Y-118.225
T5
X119.15Y-80.32
X119.15Y-87.52
X119.2Y-101.89
X119.2Y-109.09
T6
X105.87Y-64.29
X105.87Y-123.29
X130.135Y-69.965
X130.135Y-118.225
X180.935Y-69.965
X180.935Y-118.225
X191.99Y-123.24
X192.0Y-64.28
T2
G00X112.6Y-77.17
M15
G01X113.7Y-77.17
M16
G05
G00X112.6Y-90.67
M15
G01X113.7Y-90.67
M16
G05
G00X112.65Y-98.74
M15
G01X113.75Y-98.74
M16
G05
G00X112.65Y-112.24
M15
G01X113.75Y-112.24
M16
G05
M30
