%TF.GenerationSoftware,KiCad,Pcbnew,9.0.7-9.0.7~ubuntu22.04.1*%
%TF.CreationDate,2026-02-15T13:05:46+01:00*%
%TF.ProjectId,Bucky++,4275636b-792b-42b2-9e6b-696361645f70,1.1*%
%TF.SameCoordinates,Original*%
%TF.FileFunction,Soldermask,Top*%
%TF.FilePolarity,Negative*%
%FSLAX46Y46*%
G04 Gerber Fmt 4.6, Leading zero omitted, Abs format (unit mm)*
G04 Created by KiCad (PCBNEW 9.0.7-9.0.7~ubuntu22.04.1) date 2026-02-15 13:05:46*
%MOMM*%
%LPD*%
G01*
G04 APERTURE LIST*
G04 Aperture macros list*
%AMRoundRect*
0 Rectangle with rounded corners*
0 $1 Rounding radius*
0 $2 $3 $4 $5 $6 $7 $8 $9 X,Y pos of 4 corners*
0 Add a 4 corners polygon primitive as box body*
4,1,4,$2,$3,$4,$5,$6,$7,$8,$9,$2,$3,0*
0 Add four circle primitives for the rounded corners*
1,1,$1+$1,$2,$3*
1,1,$1+$1,$4,$5*
1,1,$1+$1,$6,$7*
1,1,$1+$1,$8,$9*
0 Add four rect primitives between the rounded corners*
20,1,$1+$1,$2,$3,$4,$5,0*
20,1,$1+$1,$4,$5,$6,$7,0*
20,1,$1+$1,$6,$7,$8,$9,0*
20,1,$1+$1,$8,$9,$2,$3,0*%
G04 Aperture macros list end*
%ADD10C,0.700000*%
%ADD11C,4.400000*%
%ADD12RoundRect,0.250000X-1.450000X0.537500X-1.450000X-0.537500X1.450000X-0.537500X1.450000X0.537500X0*%
%ADD13RoundRect,0.150000X0.150000X-0.350000X0.150000X0.350000X-0.150000X0.350000X-0.150000X-0.350000X0*%
%ADD14RoundRect,0.137500X-0.137500X-0.137500X0.137500X-0.137500X0.137500X0.137500X-0.137500X0.137500X0*%
%ADD15R,2.200000X2.150000*%
%ADD16RoundRect,0.130000X0.130000X-0.130000X0.130000X0.130000X-0.130000X0.130000X-0.130000X-0.130000X0*%
%ADD17R,2.700000X2.700000*%
%ADD18C,2.700000*%
%ADD19R,2.200000X3.100000*%
%ADD20RoundRect,0.250000X1.000000X0.650000X-1.000000X0.650000X-1.000000X-0.650000X1.000000X-0.650000X0*%
%ADD21R,3.150000X2.200000*%
%ADD22RoundRect,0.250000X1.500000X-0.250000X1.500000X0.250000X-1.500000X0.250000X-1.500000X-0.250000X0*%
%ADD23RoundRect,0.250001X1.449999X-0.499999X1.449999X0.499999X-1.449999X0.499999X-1.449999X-0.499999X0*%
%ADD24RoundRect,0.150000X0.512500X0.150000X-0.512500X0.150000X-0.512500X-0.150000X0.512500X-0.150000X0*%
%ADD25R,0.250000X0.600000*%
%ADD26RoundRect,0.137500X0.137500X0.137500X-0.137500X0.137500X-0.137500X-0.137500X0.137500X-0.137500X0*%
%ADD27R,4.050000X4.050000*%
%ADD28C,4.050000*%
%ADD29C,0.650000*%
%ADD30RoundRect,0.150000X0.425000X-0.150000X0.425000X0.150000X-0.425000X0.150000X-0.425000X-0.150000X0*%
%ADD31RoundRect,0.075000X0.500000X-0.075000X0.500000X0.075000X-0.500000X0.075000X-0.500000X-0.075000X0*%
%ADD32O,2.100000X1.000000*%
%ADD33O,1.800000X1.000000*%
%ADD34R,2.700000X6.200000*%
%ADD35RoundRect,0.130000X-0.130000X0.130000X-0.130000X-0.130000X0.130000X-0.130000X0.130000X0.130000X0*%
%ADD36C,2.550000*%
%ADD37C,1.500000*%
%ADD38RoundRect,0.187500X0.262500X-0.187500X0.262500X0.187500X-0.262500X0.187500X-0.262500X-0.187500X0*%
%ADD39R,2.900000X0.800000*%
%ADD40R,3.800000X1.800000*%
%ADD41RoundRect,0.130000X0.130000X0.130000X-0.130000X0.130000X-0.130000X-0.130000X0.130000X-0.130000X0*%
%ADD42C,1.100000*%
%ADD43R,3.429000X1.257000*%
%ADD44R,9.017000X10.668000*%
%ADD45R,3.200000X2.600000*%
%ADD46RoundRect,0.175000X0.325000X-0.175000X0.325000X0.175000X-0.325000X0.175000X-0.325000X-0.175000X0*%
%ADD47RoundRect,0.150000X0.150000X-0.200000X0.150000X0.200000X-0.150000X0.200000X-0.150000X-0.200000X0*%
%ADD48R,1.000000X0.300000*%
%ADD49R,1.300000X2.000000*%
G04 APERTURE END LIST*
D10*
%TO.C,H2*%
X154183000Y-114666726D03*
X154666274Y-113500000D03*
X154666274Y-115833452D03*
X155833000Y-113016726D03*
D11*
X155833000Y-114666726D03*
D10*
X155833000Y-116316726D03*
X156999726Y-113500000D03*
X156999726Y-115833452D03*
X157483000Y-114666726D03*
%TD*%
D12*
%TO.C,C39*%
X127500000Y-66362500D03*
X127500000Y-70637500D03*
%TD*%
D13*
%TO.C,Q1401*%
X151150000Y-88550000D03*
X153050000Y-88550000D03*
X152100000Y-86550000D03*
%TD*%
D14*
%TO.C,R402*%
X153970000Y-105950000D03*
X154770000Y-105950000D03*
%TD*%
D15*
%TO.C,D7*%
X148100000Y-103650000D03*
X143700000Y-103650000D03*
%TD*%
D16*
%TO.C,C417*%
X155860000Y-100860000D03*
X155860000Y-100060000D03*
%TD*%
D17*
%TO.C,J18*%
X137500000Y-89950000D03*
D18*
X132500000Y-89950000D03*
%TD*%
D12*
%TO.C,C26*%
X74000000Y-66362500D03*
X74000000Y-70637500D03*
%TD*%
D19*
%TO.C,D10*%
X88300000Y-68400000D03*
X81300000Y-68400000D03*
%TD*%
D16*
%TO.C,C1709*%
X157785000Y-47900000D03*
X157785000Y-47100000D03*
%TD*%
%TO.C,C16*%
X71000000Y-111400000D03*
X71000000Y-110600000D03*
%TD*%
D20*
%TO.C,D704*%
X105200000Y-61000000D03*
X101200000Y-61000000D03*
%TD*%
%TO.C,D11*%
X123200000Y-61000000D03*
X119200000Y-61000000D03*
%TD*%
D12*
%TO.C,C25*%
X78000000Y-66362500D03*
X78000000Y-70637500D03*
%TD*%
D21*
%TO.C,D4*%
X86200000Y-73300000D03*
X86200000Y-80300000D03*
%TD*%
D22*
%TO.C,J1801*%
X156650000Y-89050000D03*
X156650000Y-87050000D03*
D23*
X162400000Y-91400000D03*
X162400000Y-84700000D03*
%TD*%
D24*
%TO.C,U1801*%
X153275000Y-92100000D03*
X153275000Y-91150000D03*
X153275000Y-90200000D03*
X151000000Y-90200000D03*
X151000000Y-92100000D03*
%TD*%
D20*
%TO.C,D702*%
X87600000Y-61000000D03*
X83600000Y-61000000D03*
%TD*%
D17*
%TO.C,J11*%
X75600000Y-80500000D03*
D18*
X75600000Y-75500000D03*
%TD*%
D16*
%TO.C,C1801*%
X148150000Y-91600000D03*
X148150000Y-90800000D03*
%TD*%
D19*
%TO.C,D12*%
X124100000Y-68400000D03*
X117100000Y-68400000D03*
%TD*%
D25*
%TO.C,D402*%
X147775000Y-107250000D03*
X147275000Y-107250000D03*
X146775000Y-107250000D03*
X146275000Y-107250000D03*
X145775000Y-107250000D03*
X145775000Y-108100000D03*
X146275000Y-108100000D03*
X146775000Y-108100000D03*
X147275000Y-108100000D03*
X147775000Y-108100000D03*
%TD*%
D26*
%TO.C,R407*%
X152400000Y-104400000D03*
X151600000Y-104400000D03*
%TD*%
D10*
%TO.C,H3*%
X69183274Y-44666726D03*
X69666548Y-43500000D03*
X69666548Y-45833452D03*
X70833274Y-43016726D03*
D11*
X70833274Y-44666726D03*
D10*
X70833274Y-46316726D03*
X72000000Y-43500000D03*
X72000000Y-45833452D03*
X72483274Y-44666726D03*
%TD*%
D27*
%TO.C,J1*%
X87750000Y-100700000D03*
D28*
X80550000Y-100700000D03*
D18*
X90900000Y-106700000D03*
X77400000Y-106700000D03*
%TD*%
D29*
%TO.C,J403*%
X158785000Y-106690000D03*
X158785000Y-100910000D03*
D30*
X157710000Y-107000000D03*
X157710000Y-106200000D03*
D31*
X157710000Y-105050000D03*
X157710000Y-104050000D03*
X157710000Y-103550000D03*
X157710000Y-102550000D03*
D30*
X157710000Y-101400000D03*
X157710000Y-100600000D03*
X157710000Y-100600000D03*
X157710000Y-101400000D03*
D31*
X157710000Y-102050000D03*
X157710000Y-103050000D03*
X157710000Y-104550000D03*
X157710000Y-105550000D03*
D30*
X157710000Y-106200000D03*
X157710000Y-107000000D03*
D32*
X158285000Y-108120000D03*
D33*
X162465000Y-108120000D03*
D32*
X158285000Y-99480000D03*
D33*
X162465000Y-99480000D03*
%TD*%
D12*
%TO.C,C36*%
X113500000Y-66362500D03*
X113500000Y-70637500D03*
%TD*%
D10*
%TO.C,H1*%
X154183000Y-44666726D03*
X154666274Y-43500000D03*
X154666274Y-45833452D03*
X155833000Y-43016726D03*
D11*
X155833000Y-44666726D03*
D10*
X155833000Y-46316726D03*
X156999726Y-43500000D03*
X156999726Y-45833452D03*
X157483000Y-44666726D03*
%TD*%
D34*
%TO.C,R39*%
X124950000Y-101000000D03*
X133250000Y-101000000D03*
%TD*%
D17*
%TO.C,J12*%
X93600000Y-80500000D03*
D18*
X93600000Y-75500000D03*
%TD*%
D17*
%TO.C,J17*%
X119500000Y-89950000D03*
D18*
X114500000Y-89950000D03*
%TD*%
D16*
%TO.C,C17*%
X155800000Y-111700000D03*
X155800000Y-110900000D03*
%TD*%
D35*
%TO.C,C403*%
X155880000Y-106870000D03*
X155880000Y-107670000D03*
%TD*%
D36*
%TO.C,J3*%
X78450000Y-56812500D03*
X83450000Y-56812500D03*
D37*
X75450000Y-51812500D03*
X86450000Y-51812500D03*
%TD*%
D19*
%TO.C,D9*%
X106200000Y-68400000D03*
X99200000Y-68400000D03*
%TD*%
D12*
%TO.C,C37*%
X109500000Y-66362500D03*
X109500000Y-70637500D03*
%TD*%
D21*
%TO.C,D8*%
X140200000Y-73300000D03*
X140200000Y-80300000D03*
%TD*%
D12*
%TO.C,C35*%
X92000000Y-66362500D03*
X92000000Y-70637500D03*
%TD*%
D36*
%TO.C,J5*%
X114450000Y-56812500D03*
X119450000Y-56812500D03*
D37*
X111450000Y-51812500D03*
X122450000Y-51812500D03*
%TD*%
D20*
%TO.C,D13*%
X141000000Y-61000000D03*
X137000000Y-61000000D03*
%TD*%
D19*
%TO.C,D14*%
X142100000Y-68400000D03*
X135100000Y-68400000D03*
%TD*%
D35*
%TO.C,C21*%
X71000000Y-47600000D03*
X71000000Y-48400000D03*
%TD*%
D17*
%TO.C,J7*%
X83500000Y-89950000D03*
D18*
X78500000Y-89950000D03*
%TD*%
D26*
%TO.C,R403*%
X155190000Y-101770000D03*
X154390000Y-101770000D03*
%TD*%
D38*
%TO.C,C1802*%
X149300000Y-91800000D03*
X149300000Y-90600000D03*
%TD*%
D39*
%TO.C,J15*%
X156570000Y-73480000D03*
X156570000Y-71980000D03*
X156570000Y-70480000D03*
X156570000Y-68980000D03*
D40*
X161270000Y-76080000D03*
X161270000Y-66380000D03*
%TD*%
D21*
%TO.C,D5*%
X122200000Y-73300000D03*
X122200000Y-80300000D03*
%TD*%
D27*
%TO.C,J2*%
X110900000Y-101287500D03*
D28*
X103700000Y-101287500D03*
D18*
X114050000Y-107287500D03*
X100550000Y-107287500D03*
%TD*%
D12*
%TO.C,C38*%
X131500000Y-66362500D03*
X131500000Y-70637500D03*
%TD*%
D41*
%TO.C,C404*%
X143450000Y-106300000D03*
X142650000Y-106300000D03*
%TD*%
D42*
%TO.C,J16*%
X142930000Y-111850000D03*
X142930000Y-110580000D03*
X144200000Y-111850000D03*
X144200000Y-110580000D03*
X145470000Y-111850000D03*
X145470000Y-110580000D03*
X146740000Y-111850000D03*
X146740000Y-110580000D03*
X148010000Y-111850000D03*
X148010000Y-110580000D03*
%TD*%
D43*
%TO.C,Q9*%
X120094000Y-108960000D03*
D44*
X130000000Y-111500000D03*
D43*
X120094000Y-114040000D03*
%TD*%
D45*
%TO.C,D3*%
X103600000Y-74200000D03*
X103600000Y-81400000D03*
%TD*%
D17*
%TO.C,J13*%
X111600000Y-80500000D03*
D18*
X111600000Y-75500000D03*
%TD*%
D46*
%TO.C,D203*%
X154010000Y-104840000D03*
D47*
X155710000Y-104840000D03*
X155710000Y-102840000D03*
X153810000Y-102840000D03*
%TD*%
D26*
%TO.C,R408*%
X152400000Y-103300000D03*
X151600000Y-103300000D03*
%TD*%
D17*
%TO.C,J14*%
X129600000Y-80500000D03*
D18*
X129600000Y-75500000D03*
%TD*%
D17*
%TO.C,J8*%
X101500000Y-89950000D03*
D18*
X96500000Y-89950000D03*
%TD*%
D12*
%TO.C,C34*%
X95900000Y-66362500D03*
X95900000Y-70637500D03*
%TD*%
D10*
%TO.C,H501*%
X69183274Y-114666726D03*
X69666548Y-113500000D03*
X69666548Y-115833452D03*
X70833274Y-113016726D03*
D11*
X70833274Y-114666726D03*
D10*
X70833274Y-116316726D03*
X72000000Y-113500000D03*
X72000000Y-115833452D03*
X72483274Y-114666726D03*
%TD*%
D36*
%TO.C,J6*%
X132450000Y-56812500D03*
X137450000Y-56812500D03*
D37*
X129450000Y-51812500D03*
X140450000Y-51812500D03*
%TD*%
D36*
%TO.C,J4*%
X96450000Y-56812500D03*
X101450000Y-56812500D03*
D37*
X93450000Y-51812500D03*
X104450000Y-51812500D03*
%TD*%
D35*
%TO.C,C9*%
X155800000Y-47600000D03*
X155800000Y-48400000D03*
%TD*%
D48*
%TO.C,J1702*%
X159300000Y-60570000D03*
X159300000Y-60070000D03*
X159300000Y-59570000D03*
X159300000Y-59070000D03*
X159300000Y-58570000D03*
X159300000Y-58070000D03*
X159300000Y-57570000D03*
X159300000Y-57070000D03*
X159300000Y-56570000D03*
X159300000Y-56070000D03*
X159300000Y-55570000D03*
X159300000Y-55070000D03*
X159300000Y-54570000D03*
X159300000Y-54070000D03*
X159300000Y-53570000D03*
X159300000Y-53070000D03*
X159300000Y-52570000D03*
X159300000Y-52070000D03*
X159300000Y-51570000D03*
X159300000Y-51070000D03*
X159300000Y-50570000D03*
X159300000Y-50070000D03*
X159300000Y-49570000D03*
X159300000Y-49070000D03*
X159300000Y-48570000D03*
X159300000Y-48070000D03*
X159300000Y-47570000D03*
X159300000Y-47070000D03*
X159300000Y-46570000D03*
X159300000Y-46070000D03*
D49*
X162000000Y-62870000D03*
X162000000Y-43770000D03*
%TD*%
M02*
