M48
; DRILL file KiCad 10.0.0 date 2026-04-17T00:09:02
; FORMAT={-:-/ absolute / metric / decimal}
; #@! TF.CreationDate,2026-04-17T00:09:02+02:00
; #@! TF.GenerationSoftware,Kicad,Pcbnew,10.0.0
; #@! TF.FileFunction,Plated,1,4,PTH
FMAT,2
METRIC
; #@! TA.AperFunction,Plated,PTH,ViaDrill
T1C0.300
; #@! TA.AperFunction,Plated,PTH,ComponentDrill
T2C0.400
; #@! TA.AperFunction,Plated,PTH,ComponentDrill
T3C0.600
; #@! TA.AperFunction,Plated,PTH,ComponentDrill
T4C1.000
; #@! TA.AperFunction,Plated,PTH,ComponentDrill
T5C1.900
; #@! TA.AperFunction,Plated,PTH,ComponentDrill
T6C2.200
; #@! TA.AperFunction,Plated,PTH,ComponentDrill
T7C2.700
%
G90
G05
T1
X94.466Y-65.425
X94.859Y-67.498
X95.166Y-65.42
X97.279Y-70.51
X97.279Y-72.51
X97.509Y-64.72
X97.559Y-65.86
X97.608Y-68.24
X98.118Y-57.917
X98.169Y-59.873
X98.333Y-65.267
X98.911Y-68.255
X98.949Y-64.74
X99.039Y-65.76
X99.279Y-70.51
X99.279Y-72.51
X99.349Y-55.94
X99.489Y-52.304
X100.042Y-57.87
X100.042Y-59.93
X100.582Y-62.337
X100.89Y-68.471
X100.89Y-70.471
X100.89Y-72.471
X101.242Y-52.481
X101.392Y-60.025
X101.709Y-58.032
X101.734Y-56.707
X102.104Y-60.887
X102.279Y-45.51
X102.279Y-68.51
X102.279Y-70.51
X102.279Y-72.51
X102.727Y-59.173
X103.001Y-58.032
X103.026Y-56.707
X103.289Y-71.668
X103.334Y-69.412
X104.279Y-68.51
X104.279Y-70.51
X104.279Y-72.51
X104.292Y-58.032
X104.317Y-56.707
X104.609Y-42.87
X104.629Y-41.29
X104.921Y-52.514
X105.267Y-54.105
X105.269Y-60.79
X105.279Y-29.51
X105.279Y-45.51
X105.284Y-69.529
X105.299Y-32.407
X105.338Y-71.623
X105.392Y-42.053
X105.584Y-58.032
X105.609Y-56.707
X106.159Y-42.9
X106.189Y-41.21
X106.279Y-62.51
X106.279Y-64.51
X106.279Y-66.51
X106.279Y-68.51
X106.279Y-70.51
X106.279Y-72.51
X106.749Y-50.55
X106.874Y-52.514
X107.0Y-36.0
X107.279Y-57.51
X107.699Y-60.372
X107.859Y-66.37
X107.874Y-68.273
X107.879Y-64.02
X107.899Y-62.28
X107.939Y-69.5
X107.939Y-72.14
X107.969Y-70.84
X108.202Y-40.503
X108.202Y-43.503
X108.202Y-46.503
X108.202Y-49.503
X108.849Y-65.23
X108.909Y-63.17
X108.999Y-70.8
X109.0Y-53.0
X109.012Y-60.383
X109.749Y-66.35
X109.769Y-64.0
X109.789Y-62.26
X109.829Y-69.48
X109.829Y-72.12
X110.159Y-51.63
X110.178Y-60.44
X110.202Y-40.503
X110.202Y-43.503
X110.202Y-46.503
X110.202Y-49.503
X110.279Y-57.51
X110.5Y-53.0
X111.299Y-29.58
X111.469Y-62.05
X111.529Y-63.5
X111.559Y-67.9
X111.569Y-66.64
X111.675Y-42.034
X112.0Y-51.5
X112.0Y-54.5
X112.139Y-69.48
X112.202Y-40.503
X112.202Y-43.503
X112.202Y-46.503
X112.202Y-49.503
X112.209Y-62.82
X112.249Y-67.22
X112.279Y-72.51
X112.417Y-47.987
X112.519Y-28.54
X112.519Y-30.55
X112.849Y-66.63
X112.879Y-67.85
X112.949Y-62.04
X112.949Y-63.57
X113.279Y-53.51
X113.279Y-57.51
X113.499Y-51.61
X113.782Y-59.94
X113.891Y-55.563
X114.059Y-69.35
X114.079Y-67.23
X114.202Y-31.503
X114.202Y-34.503
X114.202Y-37.503
X114.202Y-40.503
X114.202Y-43.503
X114.202Y-46.503
X114.202Y-49.503
X114.969Y-65.33
X115.069Y-63.22
X115.279Y-53.51
X115.279Y-57.51
X115.279Y-61.51
X115.499Y-67.22
X115.609Y-69.34
X115.799Y-65.32
X115.819Y-63.61
X115.859Y-62.81
X116.279Y-42.51
X116.279Y-45.51
X116.279Y-49.51
X116.279Y-72.51
X116.466Y-55.427
X116.615Y-59.723
X116.789Y-51.837
X117.159Y-69.4
X117.179Y-67.28
X117.219Y-43.984
X117.279Y-49.51
X117.279Y-53.51
X117.279Y-57.51
X117.279Y-61.51
X118.109Y-65.06
X118.129Y-38.13
X118.129Y-66.28
X118.149Y-62.14
X118.169Y-40.57
X118.179Y-63.33
X118.209Y-28.51
X118.259Y-30.74
X118.279Y-42.51
X118.279Y-45.51
X118.469Y-48.74
X118.868Y-29.73
X118.909Y-62.7
X118.909Y-65.62
X118.959Y-52.3
X118.979Y-67.15
X118.979Y-69.5
X119.439Y-28.65
X119.509Y-30.75
X119.601Y-60.164
X119.619Y-62.13
X119.619Y-65.09
X119.639Y-63.27
X119.669Y-57.578
X119.729Y-66.19
X119.959Y-44.06
X119.989Y-55.58
X119.999Y-42.43
X120.009Y-52.45
X120.029Y-51.4
X120.069Y-50.32
X120.099Y-54.52
X120.481Y-48.74
X120.774Y-43.205
X120.879Y-64.79
X120.879Y-67.14
X120.879Y-69.49
X120.899Y-38.13
X120.939Y-40.57
X121.279Y-72.51
X121.489Y-42.36
X121.489Y-44.02
X121.554Y-58.2
X121.589Y-57.3
X121.599Y-59.08
X121.792Y-48.849
X122.419Y-64.93
X122.419Y-67.28
X122.419Y-69.63
X122.762Y-49.884
X122.809Y-48.275
X123.082Y-43.368
X123.169Y-54.37
X123.279Y-31.51
X123.279Y-34.51
X123.279Y-37.51
X123.279Y-40.51
X124.059Y-64.92
X124.059Y-67.27
X124.059Y-69.62
X124.149Y-51.52
X124.156Y-52.493
X124.169Y-53.51
X124.326Y-62.659
X124.347Y-42.205
X124.437Y-44.622
X124.465Y-48.661
X124.529Y-50.61
X125.279Y-53.65
X125.279Y-72.51
X125.289Y-51.37
X125.589Y-64.87
X125.589Y-67.22
X125.589Y-69.57
X125.596Y-62.659
X125.779Y-52.5
X126.199Y-51.35
X126.219Y-57.33
X126.219Y-60.33
X126.255Y-53.668
X126.279Y-31.51
X126.279Y-34.51
X126.279Y-37.51
X126.279Y-40.51
X126.279Y-43.51
X126.279Y-46.51
X126.279Y-49.51
X126.866Y-62.659
X126.993Y-51.243
X126.993Y-52.243
X126.993Y-53.243
X127.339Y-55.63
X127.489Y-64.85
X127.489Y-67.2
X127.489Y-69.55
X127.616Y-43.202
X127.919Y-57.34
X127.919Y-60.34
X127.919Y-63.34
X128.209Y-52.97
X128.279Y-29.51
X129.129Y-64.81
X129.129Y-67.16
X129.129Y-69.51
X129.279Y-31.51
X129.279Y-34.51
X129.279Y-37.51
X129.279Y-40.51
X129.279Y-43.51
X129.279Y-46.51
X129.279Y-49.51
X129.279Y-72.51
X129.329Y-51.36
X129.329Y-54.36
X129.329Y-57.36
X129.329Y-60.36
X129.329Y-63.36
T2
X92.42Y-34.61
X92.42Y-154.41
X92.903Y-33.443
X92.903Y-35.777
X92.903Y-153.243
X92.903Y-155.577
X94.07Y-32.96
X94.07Y-36.26
X94.07Y-152.76
X94.07Y-156.06
X95.237Y-33.443
X95.237Y-35.777
X95.237Y-153.243
X95.237Y-155.577
X95.72Y-34.61
X95.72Y-154.41
X132.69Y-34.47
X132.69Y-154.27
X133.173Y-33.303
X133.173Y-35.637
X133.173Y-153.103
X133.173Y-155.437
X134.34Y-32.82
X134.34Y-36.12
X134.34Y-152.62
X134.34Y-155.92
X135.507Y-33.303
X135.507Y-35.637
X135.507Y-153.103
X135.507Y-155.437
X135.99Y-34.47
X135.99Y-154.27
T4
X100.389Y-90.635
X100.389Y-101.635
X100.834Y-75.815
X100.834Y-86.815
X100.834Y-105.455
X100.834Y-116.455
X100.834Y-120.025
X100.834Y-131.025
X100.834Y-134.595
X100.834Y-145.595
X127.485Y-75.815
X127.485Y-86.815
X127.485Y-90.51
X127.485Y-101.51
X127.485Y-105.205
X127.485Y-116.205
X127.485Y-119.9
X127.485Y-130.9
X127.485Y-134.595
X127.485Y-145.595
T5
X110.389Y-93.635
X110.389Y-98.635
X110.834Y-78.815
X110.834Y-83.815
X110.834Y-108.455
X110.834Y-113.455
X110.834Y-123.025
X110.834Y-128.025
X110.834Y-137.595
X110.834Y-142.595
X117.485Y-78.815
X117.485Y-83.815
X117.485Y-93.51
X117.485Y-98.51
X117.485Y-108.205
X117.485Y-113.205
X117.485Y-122.9
X117.485Y-127.9
X117.485Y-137.595
X117.485Y-142.595
T6
X94.07Y-34.61
X94.07Y-154.41
X134.34Y-34.47
X134.34Y-154.27
T7
X110.504Y-150.905
X111.446Y-35.174
X117.704Y-150.905
X118.646Y-35.174
T3
G00X107.354Y-157.455
M15
G01X107.354Y-156.355
M16
G05
G00X108.296Y-28.624
M15
G01X108.296Y-29.724
M16
G05
G00X120.854Y-157.455
M15
G01X120.854Y-156.355
M16
G05
G00X121.796Y-28.624
M15
G01X121.796Y-29.724
M16
G05
M30
