%TF.GenerationSoftware,KiCad,Pcbnew,10.0.0*%
%TF.CreationDate,2026-04-17T00:09:05+02:00*%
%TF.ProjectId,power_hat,706f7765-725f-4686-9174-2e6b69636164,rev?*%
%TF.SameCoordinates,Original*%
%TF.FileFunction,Soldermask,Bot*%
%TF.FilePolarity,Negative*%
%FSLAX46Y46*%
G04 Gerber Fmt 4.6, Leading zero omitted, Abs format (unit mm)*
G04 Created by KiCad (PCBNEW 10.0.0) date 2026-04-17 00:09:05*
%MOMM*%
%LPD*%
G01*
G04 APERTURE LIST*
G04 Aperture macros list*
%AMRoundRect*
0 Rectangle with rounded corners*
0 $1 Rounding radius*
0 $2 $3 $4 $5 $6 $7 $8 $9 X,Y pos of 4 corners*
0 Add a 4 corners polygon primitive as box body*
4,1,4,$2,$3,$4,$5,$6,$7,$8,$9,$2,$3,0*
0 Add four circle primitives for the rounded corners*
1,1,$1+$1,$2,$3*
1,1,$1+$1,$4,$5*
1,1,$1+$1,$6,$7*
1,1,$1+$1,$8,$9*
0 Add four rect primitives between the rounded corners*
20,1,$1+$1,$2,$3,$4,$5,0*
20,1,$1+$1,$4,$5,$6,$7,0*
20,1,$1+$1,$6,$7,$8,$9,0*
20,1,$1+$1,$8,$9,$2,$3,0*%
%AMFreePoly0*
4,1,23,0.500000,-0.750000,0.000000,-0.750000,0.000000,-0.745722,-0.065263,-0.745722,-0.191342,-0.711940,-0.304381,-0.646677,-0.396677,-0.554381,-0.461940,-0.441342,-0.495722,-0.315263,-0.495722,-0.250000,-0.500000,-0.250000,-0.500000,0.250000,-0.495722,0.250000,-0.495722,0.315263,-0.461940,0.441342,-0.396677,0.554381,-0.304381,0.646677,-0.191342,0.711940,-0.065263,0.745722,0.000000,0.745722,
0.000000,0.750000,0.500000,0.750000,0.500000,-0.750000,0.500000,-0.750000,$1*%
%AMFreePoly1*
4,1,23,0.000000,0.745722,0.065263,0.745722,0.191342,0.711940,0.304381,0.646677,0.396677,0.554381,0.461940,0.441342,0.495722,0.315263,0.495722,0.250000,0.500000,0.250000,0.500000,-0.250000,0.495722,-0.250000,0.495722,-0.315263,0.461940,-0.441342,0.396677,-0.554381,0.304381,-0.646677,0.191342,-0.711940,0.065263,-0.745722,0.000000,-0.745722,0.000000,-0.750000,-0.500000,-0.750000,
-0.500000,0.750000,0.000000,0.750000,0.000000,0.745722,0.000000,0.745722,$1*%
G04 Aperture macros list end*
%ADD10R,2.200000X3.150000*%
%ADD11C,3.500000*%
%ADD12R,3.500000X3.500000*%
%ADD13C,1.400000*%
%ADD14C,4.100000*%
%ADD15RoundRect,1.025000X-1.025000X-1.025000X1.025000X-1.025000X1.025000X1.025000X-1.025000X1.025000X0*%
%ADD16R,0.900000X2.000000*%
%ADD17RoundRect,1.025000X1.025000X1.025000X-1.025000X1.025000X-1.025000X-1.025000X1.025000X-1.025000X0*%
%ADD18C,0.700000*%
%ADD19C,4.400000*%
%ADD20FreePoly0,270.000000*%
%ADD21FreePoly1,270.000000*%
G04 APERTURE END LIST*
%TO.C,JP1*%
G36*
X125989284Y-64030000D02*
G01*
X127489284Y-64030000D01*
X127489284Y-64330000D01*
X125989284Y-64330000D01*
X125989284Y-64030000D01*
G37*
%TD*%
D10*
%TO.C,D1*%
X111867634Y-29664352D03*
X118867634Y-29664352D03*
%TD*%
D11*
%TO.C,J1*%
X110833629Y-83815000D03*
D12*
X110833629Y-78815000D03*
D13*
X100833629Y-75815000D03*
X100833629Y-86815000D03*
%TD*%
D11*
%TO.C,J2*%
X117484879Y-78815000D03*
D12*
X117484879Y-83815000D03*
D13*
X127484879Y-86815000D03*
X127484879Y-75815000D03*
%TD*%
D11*
%TO.C,J3*%
X110388750Y-98635000D03*
D12*
X110388750Y-93635000D03*
D13*
X100388750Y-90635000D03*
X100388750Y-101635000D03*
%TD*%
D11*
%TO.C,J4*%
X117484879Y-93510000D03*
D12*
X117484879Y-98510000D03*
D13*
X127484879Y-101510000D03*
X127484879Y-90510000D03*
%TD*%
D14*
%TO.C,J5*%
X111446384Y-35174352D03*
D15*
X118646384Y-35174352D03*
D16*
X121796384Y-29174352D03*
X108296384Y-29174352D03*
%TD*%
D11*
%TO.C,J6*%
X110833629Y-113455001D03*
D12*
X110833629Y-108455001D03*
D13*
X100833629Y-105455001D03*
X100833629Y-116455001D03*
%TD*%
D14*
%TO.C,J7*%
X117703629Y-150905001D03*
D17*
X110503629Y-150905001D03*
D16*
X107353629Y-156905001D03*
X120853629Y-156905001D03*
%TD*%
D11*
%TO.C,J8*%
X117484879Y-108205001D03*
D12*
X117484879Y-113205001D03*
D13*
X127484879Y-116205001D03*
X127484879Y-105205001D03*
%TD*%
D11*
%TO.C,J9*%
X117484879Y-137595001D03*
D12*
X117484879Y-142595001D03*
D13*
X127484879Y-145595001D03*
X127484879Y-134595001D03*
%TD*%
D11*
%TO.C,J10*%
X110833629Y-142595001D03*
D12*
X110833629Y-137595001D03*
D13*
X100833629Y-134595001D03*
X100833629Y-145595001D03*
%TD*%
D11*
%TO.C,J11*%
X117484879Y-122900001D03*
D12*
X117484879Y-127900001D03*
D13*
X127484879Y-130900001D03*
X127484879Y-119900001D03*
%TD*%
D11*
%TO.C,J12*%
X110833629Y-128025001D03*
D12*
X110833629Y-123025001D03*
D13*
X100833629Y-120025001D03*
X100833629Y-131025001D03*
%TD*%
D18*
%TO.C,H4*%
X92420000Y-34610000D03*
X92903274Y-33443274D03*
X92903274Y-35776726D03*
X94070000Y-32960000D03*
D19*
X94070000Y-34610000D03*
D18*
X94070000Y-36260000D03*
X95236726Y-33443274D03*
X95236726Y-35776726D03*
X95720000Y-34610000D03*
%TD*%
%TO.C,H4*%
X92420000Y-154410000D03*
X92903274Y-153243274D03*
X92903274Y-155576726D03*
X94070000Y-152760000D03*
D19*
X94070000Y-154410000D03*
D18*
X94070000Y-156060000D03*
X95236726Y-153243274D03*
X95236726Y-155576726D03*
X95720000Y-154410000D03*
%TD*%
%TO.C,H3*%
X132690000Y-34470000D03*
X133173274Y-33303274D03*
X133173274Y-35636726D03*
X134340000Y-32820000D03*
D19*
X134340000Y-34470000D03*
D18*
X134340000Y-36120000D03*
X135506726Y-33303274D03*
X135506726Y-35636726D03*
X135990000Y-34470000D03*
%TD*%
%TO.C,H3*%
X132690000Y-154270000D03*
X133173274Y-153103274D03*
X133173274Y-155436726D03*
X134340000Y-152620000D03*
D19*
X134340000Y-154270000D03*
D18*
X134340000Y-155920000D03*
X135506726Y-153103274D03*
X135506726Y-155436726D03*
X135990000Y-154270000D03*
%TD*%
D20*
%TO.C,JP1*%
X126739284Y-63530000D03*
D21*
X126739284Y-64830000D03*
%TD*%
M02*
