%TF.GenerationSoftware,KiCad,Pcbnew,10.0.0*%
%TF.CreationDate,2026-04-17T00:09:05+02:00*%
%TF.ProjectId,power_hat,706f7765-725f-4686-9174-2e6b69636164,rev?*%
%TF.SameCoordinates,Original*%
%TF.FileFunction,Soldermask,Top*%
%TF.FilePolarity,Negative*%
%FSLAX46Y46*%
G04 Gerber Fmt 4.6, Leading zero omitted, Abs format (unit mm)*
G04 Created by KiCad (PCBNEW 10.0.0) date 2026-04-17 00:09:05*
%MOMM*%
%LPD*%
G01*
G04 APERTURE LIST*
G04 Aperture macros list*
%AMRoundRect*
0 Rectangle with rounded corners*
0 $1 Rounding radius*
0 $2 $3 $4 $5 $6 $7 $8 $9 X,Y pos of 4 corners*
0 Add a 4 corners polygon primitive as box body*
4,1,4,$2,$3,$4,$5,$6,$7,$8,$9,$2,$3,0*
0 Add four circle primitives for the rounded corners*
1,1,$1+$1,$2,$3*
1,1,$1+$1,$4,$5*
1,1,$1+$1,$6,$7*
1,1,$1+$1,$8,$9*
0 Add four rect primitives between the rounded corners*
20,1,$1+$1,$2,$3,$4,$5,0*
20,1,$1+$1,$4,$5,$6,$7,0*
20,1,$1+$1,$6,$7,$8,$9,0*
20,1,$1+$1,$8,$9,$2,$3,0*%
G04 Aperture macros list end*
%ADD10C,0.200000*%
%ADD11R,2.370000X2.430000*%
%ADD12C,3.500000*%
%ADD13R,3.500000X3.500000*%
%ADD14C,1.400000*%
%ADD15C,4.100000*%
%ADD16RoundRect,1.025000X-1.025000X-1.025000X1.025000X-1.025000X1.025000X1.025000X-1.025000X1.025000X0*%
%ADD17R,0.900000X2.000000*%
%ADD18RoundRect,1.025000X1.025000X1.025000X-1.025000X1.025000X-1.025000X-1.025000X1.025000X-1.025000X0*%
%ADD19R,0.400000X1.200000*%
%ADD20RoundRect,0.250000X0.475000X-0.337500X0.475000X0.337500X-0.475000X0.337500X-0.475000X-0.337500X0*%
%ADD21RoundRect,0.250000X0.350000X0.450000X-0.350000X0.450000X-0.350000X-0.450000X0.350000X-0.450000X0*%
%ADD22R,0.710000X1.372000*%
%ADD23R,0.710000X0.590000*%
%ADD24R,4.520000X3.850000*%
%ADD25R,0.410000X0.820000*%
%ADD26R,4.061000X3.630000*%
%ADD27R,5.000000X0.510000*%
%ADD28R,0.595000X0.610000*%
%ADD29RoundRect,0.160000X0.197500X0.160000X-0.197500X0.160000X-0.197500X-0.160000X0.197500X-0.160000X0*%
%ADD30RoundRect,0.250000X0.250000X0.475000X-0.250000X0.475000X-0.250000X-0.475000X0.250000X-0.475000X0*%
%ADD31RoundRect,0.250000X0.262500X0.450000X-0.262500X0.450000X-0.262500X-0.450000X0.262500X-0.450000X0*%
%ADD32RoundRect,0.155000X0.155000X-0.212500X0.155000X0.212500X-0.155000X0.212500X-0.155000X-0.212500X0*%
%ADD33C,0.700000*%
%ADD34C,4.400000*%
%ADD35R,0.820000X0.410000*%
%ADD36R,3.630000X4.061000*%
%ADD37R,0.510000X5.000000*%
%ADD38R,0.610000X0.595000*%
%ADD39RoundRect,0.250000X-0.262500X-0.450000X0.262500X-0.450000X0.262500X0.450000X-0.262500X0.450000X0*%
%ADD40RoundRect,0.135000X-0.135000X-0.185000X0.135000X-0.185000X0.135000X0.185000X-0.135000X0.185000X0*%
%ADD41RoundRect,0.155000X0.212500X0.155000X-0.212500X0.155000X-0.212500X-0.155000X0.212500X-0.155000X0*%
%ADD42R,0.240000X0.575000*%
%ADD43R,0.575000X0.240000*%
%ADD44R,1.450000X2.700000*%
%ADD45R,0.850000X2.700000*%
%ADD46R,2.150000X2.150000*%
%ADD47RoundRect,0.250000X-0.250000X-0.475000X0.250000X-0.475000X0.250000X0.475000X-0.250000X0.475000X0*%
%ADD48RoundRect,0.250000X0.412500X1.100000X-0.412500X1.100000X-0.412500X-1.100000X0.412500X-1.100000X0*%
%ADD49RoundRect,0.250000X-1.425000X0.362500X-1.425000X-0.362500X1.425000X-0.362500X1.425000X0.362500X0*%
%ADD50R,2.230000X1.870000*%
%ADD51RoundRect,0.250000X0.450000X-0.262500X0.450000X0.262500X-0.450000X0.262500X-0.450000X-0.262500X0*%
%ADD52RoundRect,0.250000X-0.450000X0.262500X-0.450000X-0.262500X0.450000X-0.262500X0.450000X0.262500X0*%
G04 APERTURE END LIST*
D10*
X101342584Y-56012000D02*
X106042584Y-56012000D01*
X106042584Y-58562000D01*
X101342584Y-58562000D01*
X101342584Y-56012000D01*
G36*
X101342584Y-56012000D02*
G01*
X106042584Y-56012000D01*
X106042584Y-58562000D01*
X101342584Y-58562000D01*
X101342584Y-56012000D01*
G37*
D11*
%TO.C,Cin3*%
X112035605Y-41298869D03*
X105795605Y-41298869D03*
%TD*%
%TO.C,Cin2*%
X127062651Y-42455347D03*
X120822651Y-42455347D03*
%TD*%
D12*
%TO.C,J1*%
X110833629Y-83815000D03*
D13*
X110833629Y-78815000D03*
D14*
X100833629Y-75815000D03*
X100833629Y-86815000D03*
%TD*%
D12*
%TO.C,J2*%
X117484879Y-78815000D03*
D13*
X117484879Y-83815000D03*
D14*
X127484879Y-86815000D03*
X127484879Y-75815000D03*
%TD*%
D12*
%TO.C,J3*%
X110388750Y-98635000D03*
D13*
X110388750Y-93635000D03*
D14*
X100388750Y-90635000D03*
X100388750Y-101635000D03*
%TD*%
D12*
%TO.C,J4*%
X117484879Y-93510000D03*
D13*
X117484879Y-98510000D03*
D14*
X127484879Y-101510000D03*
X127484879Y-90510000D03*
%TD*%
D15*
%TO.C,J5*%
X111446384Y-35174352D03*
D16*
X118646384Y-35174352D03*
D17*
X121796384Y-29174352D03*
X108296384Y-29174352D03*
%TD*%
D12*
%TO.C,J6*%
X110833629Y-113455001D03*
D13*
X110833629Y-108455001D03*
D14*
X100833629Y-105455001D03*
X100833629Y-116455001D03*
%TD*%
D15*
%TO.C,J7*%
X117703629Y-150905001D03*
D18*
X110503629Y-150905001D03*
D17*
X107353629Y-156905001D03*
X120853629Y-156905001D03*
%TD*%
D12*
%TO.C,J8*%
X117484879Y-108205001D03*
D13*
X117484879Y-113205001D03*
D14*
X127484879Y-116205001D03*
X127484879Y-105205001D03*
%TD*%
D12*
%TO.C,J9*%
X117484879Y-137595001D03*
D13*
X117484879Y-142595001D03*
D14*
X127484879Y-145595001D03*
X127484879Y-134595001D03*
%TD*%
D12*
%TO.C,J10*%
X110833629Y-142595001D03*
D13*
X110833629Y-137595001D03*
D14*
X100833629Y-134595001D03*
X100833629Y-145595001D03*
%TD*%
D12*
%TO.C,J11*%
X117484879Y-122900001D03*
D13*
X117484879Y-127900001D03*
D14*
X127484879Y-130900001D03*
X127484879Y-119900001D03*
%TD*%
D12*
%TO.C,J12*%
X110833629Y-128025001D03*
D13*
X110833629Y-123025001D03*
D14*
X100833629Y-120025001D03*
X100833629Y-131025001D03*
%TD*%
D19*
%TO.C,U17*%
X105901784Y-54820000D03*
X105266784Y-54820000D03*
X104631784Y-54820000D03*
X103996784Y-54820000D03*
X103361784Y-54820000D03*
X102726784Y-54820000D03*
X102091784Y-54820000D03*
X101456784Y-54820000D03*
X101456784Y-60020000D03*
X102091784Y-60020000D03*
X102726784Y-60020000D03*
X103361784Y-60020000D03*
X103996784Y-60020000D03*
X104631784Y-60020000D03*
X105266784Y-60020000D03*
X105901784Y-60020000D03*
%TD*%
D20*
%TO.C,C2*%
X94789284Y-67577500D03*
X94789284Y-65502500D03*
%TD*%
D21*
%TO.C,R3*%
X120480670Y-48739777D03*
X118480670Y-48739777D03*
%TD*%
D22*
%TO.C,Q1*%
X126865670Y-62658777D03*
X125595670Y-62658777D03*
X124325670Y-62658777D03*
X123055670Y-62658777D03*
D23*
X123055670Y-68589777D03*
X124325670Y-68589777D03*
X125595670Y-68589777D03*
X126865670Y-68589777D03*
D24*
X124960670Y-66369777D03*
%TD*%
D20*
%TO.C,C1*%
X115429284Y-65317500D03*
X115429284Y-63242500D03*
%TD*%
D25*
%TO.C,Q4*%
X109479470Y-51593167D03*
X110749470Y-51593167D03*
X112019470Y-51593167D03*
X113289470Y-51593167D03*
D26*
X111384470Y-48077167D03*
D27*
X111384470Y-46009167D03*
D28*
X109056470Y-48877167D03*
X113712470Y-48877167D03*
%TD*%
D29*
%TO.C,R4*%
X121226784Y-55550000D03*
X120031784Y-55550000D03*
%TD*%
D30*
%TO.C,C40*%
X100041784Y-59930000D03*
X98141784Y-59930000D03*
%TD*%
D31*
%TO.C,R28*%
X103161784Y-50460000D03*
X101336784Y-50460000D03*
%TD*%
D32*
%TO.C,C_{imon_filter}1*%
X118969284Y-53427500D03*
X118969284Y-52292500D03*
%TD*%
D33*
%TO.C,H4*%
X92420000Y-34610000D03*
X92903274Y-33443274D03*
X92903274Y-35776726D03*
X94070000Y-32960000D03*
D34*
X94070000Y-34610000D03*
D33*
X94070000Y-36260000D03*
X95236726Y-33443274D03*
X95236726Y-35776726D03*
X95720000Y-34610000D03*
%TD*%
D21*
%TO.C,R1*%
X126250670Y-46719777D03*
X124250670Y-46719777D03*
%TD*%
D30*
%TO.C,C39*%
X103181784Y-52501600D03*
X101281784Y-52501600D03*
%TD*%
D35*
%TO.C,Q5*%
X107887018Y-72092174D03*
X107887018Y-70822174D03*
X107887018Y-69552174D03*
X107887018Y-68282174D03*
D36*
X104371018Y-70187174D03*
D37*
X102303018Y-70187174D03*
D38*
X105171018Y-72515174D03*
X105171018Y-67859174D03*
%TD*%
D29*
%TO.C,Rimon1*%
X121220670Y-52439808D03*
X120025670Y-52439808D03*
%TD*%
D39*
%TO.C,R27*%
X104938040Y-50483792D03*
X106763040Y-50483792D03*
%TD*%
D40*
%TO.C,RG1*%
X123788170Y-60369777D03*
X124808170Y-60369777D03*
%TD*%
D41*
%TO.C,Cretry_dly1*%
X121216784Y-54490000D03*
X120081784Y-54490000D03*
%TD*%
D29*
%TO.C,Rillim1*%
X121220670Y-51376474D03*
X120025670Y-51376474D03*
%TD*%
D33*
%TO.C,H4*%
X92420000Y-154410000D03*
X92903274Y-153243274D03*
X92903274Y-155576726D03*
X94070000Y-152760000D03*
D34*
X94070000Y-154410000D03*
D33*
X94070000Y-156060000D03*
X95236726Y-153243274D03*
X95236726Y-155576726D03*
X95720000Y-154410000D03*
%TD*%
D42*
%TO.C,IC1*%
X126330670Y-50579777D03*
X125830670Y-50579777D03*
X125330670Y-50579777D03*
X124830670Y-50579777D03*
X124330670Y-50579777D03*
X123830670Y-50579777D03*
D43*
X123168670Y-51242777D03*
X123168670Y-51742777D03*
X123168670Y-52242777D03*
X123168670Y-52742777D03*
X123168670Y-53242777D03*
X123168670Y-53742777D03*
D42*
X123830670Y-54405777D03*
X124330670Y-54405777D03*
X124830670Y-54405777D03*
X125330670Y-54405777D03*
X125830670Y-54405777D03*
X126330670Y-54405777D03*
D43*
X126992670Y-53742777D03*
X126992670Y-53242777D03*
X126992670Y-52742777D03*
X126992670Y-52242777D03*
X126992670Y-51742777D03*
X126992670Y-51242777D03*
D44*
X125705670Y-52492777D03*
D45*
X124155670Y-52492777D03*
%TD*%
D33*
%TO.C,H3*%
X132690000Y-34470000D03*
X133173274Y-33303274D03*
X133173274Y-35636726D03*
X134340000Y-32820000D03*
D34*
X134340000Y-34470000D03*
D33*
X134340000Y-36120000D03*
X135506726Y-33303274D03*
X135506726Y-35636726D03*
X135990000Y-34470000D03*
%TD*%
D30*
%TO.C,C41*%
X100041784Y-57870000D03*
X98141784Y-57870000D03*
%TD*%
D29*
%TO.C,R_{imon_filter}1*%
X121226784Y-53470000D03*
X120031784Y-53470000D03*
%TD*%
D46*
%TO.C,D2*%
X112189015Y-67177358D03*
X112189015Y-62877358D03*
%TD*%
D41*
%TO.C,Citimer1*%
X121190670Y-50323141D03*
X120055670Y-50323141D03*
%TD*%
D47*
%TO.C,C38*%
X104920540Y-52513792D03*
X106820540Y-52513792D03*
%TD*%
D31*
%TO.C,R36*%
X102394284Y-62330000D03*
X100569284Y-62330000D03*
%TD*%
D48*
%TO.C,CdVdt1*%
X124679284Y-58200000D03*
X121554284Y-58200000D03*
%TD*%
D49*
%TO.C,R33*%
X109011784Y-54457500D03*
X109011784Y-60382500D03*
%TD*%
D31*
%TO.C,R35*%
X104314284Y-64320000D03*
X102489284Y-64320000D03*
%TD*%
D50*
%TO.C,Cin1*%
X118909284Y-65620000D03*
X118909284Y-62700000D03*
%TD*%
D33*
%TO.C,H3*%
X132690000Y-154270000D03*
X133173274Y-153103274D03*
X133173274Y-155436726D03*
X134340000Y-152620000D03*
D34*
X134340000Y-154270000D03*
D33*
X134340000Y-155920000D03*
X135506726Y-153103274D03*
X135506726Y-155436726D03*
X135990000Y-154270000D03*
%TD*%
D51*
%TO.C,R29*%
X99471784Y-52282500D03*
X99471784Y-50457500D03*
%TD*%
D50*
%TO.C,Cin4*%
X98333018Y-68187174D03*
X98333018Y-65267174D03*
%TD*%
D31*
%TO.C,R34*%
X106134284Y-62320000D03*
X104309284Y-62320000D03*
%TD*%
D21*
%TO.C,R2*%
X122450670Y-46719777D03*
X120450670Y-46719777D03*
%TD*%
D52*
%TO.C,R32*%
X99441784Y-54117500D03*
X99441784Y-55942500D03*
%TD*%
M02*
