G04*
G04 #@! TF.GenerationSoftware,Altium Limited,Altium Designer,22.9.1 (49)*
G04*
G04 Layer_Color=16711935*
%FSLAX25Y25*%
%MOIN*%
G70*
G04*
G04 #@! TF.SameCoordinates,58640E65-FB78-4378-B78F-6D08F657F38D*
G04*
G04*
G04 #@! TF.FilePolarity,Negative*
G04*
G01*
G75*
%ADD47R,0.04252X0.03465*%
%ADD73R,0.05413X0.05413*%
%ADD74C,0.05413*%
%ADD75C,0.06713*%
%ADD76C,0.06791*%
%ADD77R,0.05413X0.05413*%
%ADD78C,0.03543*%
%ADD79C,0.03150*%
%ADD80C,0.24016*%
%ADD98R,0.09213X0.12284*%
%ADD99R,0.08307X0.12284*%
%ADD100R,0.07087X0.12284*%
D47*
X357480Y95669D02*
D03*
Y90158D02*
D03*
X314567Y140945D02*
D03*
Y146457D02*
D03*
D73*
X259842Y97441D02*
D03*
Y138779D02*
D03*
D74*
X279528Y97441D02*
D03*
Y138779D02*
D03*
X232283Y26575D02*
D03*
Y209646D02*
D03*
X344488Y26575D02*
D03*
Y209646D02*
D03*
D75*
X51181Y137894D02*
D03*
X41339D02*
D03*
X31496D02*
D03*
X21654D02*
D03*
X11811D02*
D03*
X51181Y126083D02*
D03*
X41339D02*
D03*
X31496D02*
D03*
X21654D02*
D03*
X11811D02*
D03*
X31496Y202854D02*
D03*
X21654D02*
D03*
X11811D02*
D03*
X21654Y191043D02*
D03*
X11811D02*
D03*
X21654Y181201D02*
D03*
X11811D02*
D03*
X21654Y169390D02*
D03*
X11811D02*
D03*
X21654Y159547D02*
D03*
X11811D02*
D03*
X21654Y147736D02*
D03*
X11811D02*
D03*
X51181Y169390D02*
D03*
Y202854D02*
D03*
X41339D02*
D03*
X51181Y191043D02*
D03*
X41339D02*
D03*
X51181Y181201D02*
D03*
X41339D02*
D03*
Y169390D02*
D03*
X51181Y159547D02*
D03*
X41339D02*
D03*
X51181Y147736D02*
D03*
X41339D02*
D03*
X31496D02*
D03*
Y191043D02*
D03*
Y181201D02*
D03*
Y169390D02*
D03*
Y159547D02*
D03*
X37716Y105728D02*
D03*
X17717Y85728D02*
D03*
X27716Y105728D02*
D03*
X17717Y75728D02*
D03*
X27716D02*
D03*
X37716Y95728D02*
D03*
X27716Y85728D02*
D03*
X17717Y95728D02*
D03*
X27716D02*
D03*
X17717Y105728D02*
D03*
Y55728D02*
D03*
X27716Y35728D02*
D03*
X17717D02*
D03*
X27716Y45728D02*
D03*
X17717D02*
D03*
X27716Y55728D02*
D03*
Y65728D02*
D03*
X17717D02*
D03*
X37716Y85728D02*
D03*
Y75728D02*
D03*
Y65728D02*
D03*
Y55728D02*
D03*
Y45728D02*
D03*
Y35728D02*
D03*
D76*
X31496Y12808D02*
D03*
Y224508D02*
D03*
D77*
X232283Y12795D02*
D03*
Y223425D02*
D03*
X344488Y12795D02*
D03*
Y223425D02*
D03*
D78*
X381890Y169291D02*
D03*
X362205D02*
D03*
D79*
X318898Y142035D02*
D03*
X239490Y118201D02*
D03*
X318087Y145328D02*
D03*
X353328Y94367D02*
D03*
X354191Y90812D02*
D03*
X300787Y68898D02*
D03*
X293701Y76933D02*
D03*
X288189D02*
D03*
X266142D02*
D03*
X255118D02*
D03*
X271654D02*
D03*
X277165D02*
D03*
X260630D02*
D03*
X373948Y99977D02*
D03*
X308925Y84646D02*
D03*
X364244Y158257D02*
D03*
X358661Y158268D02*
D03*
X298345Y112992D02*
D03*
X298031Y86614D02*
D03*
X282677Y69161D02*
D03*
X277165D02*
D03*
X266142D02*
D03*
X255118D02*
D03*
X271654D02*
D03*
X260630D02*
D03*
X59055Y66929D02*
D03*
X55118Y70866D02*
D03*
X62992Y62992D02*
D03*
X94153Y32933D02*
D03*
X103213Y25814D02*
D03*
X102362Y31496D02*
D03*
X102772Y21772D02*
D03*
X379921Y137795D02*
D03*
X368898Y124713D02*
D03*
X366142Y74803D02*
D03*
X295276Y68898D02*
D03*
X372047D02*
D03*
X377953Y62992D02*
D03*
X383858Y57087D02*
D03*
Y49213D02*
D03*
Y41339D02*
D03*
Y33465D02*
D03*
X350394Y9843D02*
D03*
X334646D02*
D03*
X326772D02*
D03*
X318898D02*
D03*
X311024D02*
D03*
X303150D02*
D03*
X295276D02*
D03*
X287402D02*
D03*
X279528D02*
D03*
X222441D02*
D03*
X214567D02*
D03*
X206693D02*
D03*
X198819D02*
D03*
X190945D02*
D03*
X183071D02*
D03*
X175197D02*
D03*
X167323D02*
D03*
X159449D02*
D03*
X151575D02*
D03*
X143701D02*
D03*
X135827D02*
D03*
X138976Y22835D02*
D03*
X102362Y62992D02*
D03*
X102126Y55118D02*
D03*
X102362Y39370D02*
D03*
Y47244D02*
D03*
X94488Y37933D02*
D03*
X102756Y17323D02*
D03*
Y13780D02*
D03*
X110762Y2453D02*
D03*
X47244Y59055D02*
D03*
X56328Y13488D02*
D03*
X70472Y24409D02*
D03*
X49213Y21654D02*
D03*
X53150Y17717D02*
D03*
X45276Y25591D02*
D03*
X66929Y59055D02*
D03*
X74803D02*
D03*
X82677D02*
D03*
X90551D02*
D03*
X94488Y55118D02*
D03*
X51181D02*
D03*
X55118Y51181D02*
D03*
Y43307D02*
D03*
Y35433D02*
D03*
X59055Y31496D02*
D03*
X62992Y27559D02*
D03*
X41339Y29528D02*
D03*
X27559Y23622D02*
D03*
X55118Y78740D02*
D03*
X63386Y77559D02*
D03*
Y80709D02*
D03*
X66142Y79134D02*
D03*
Y82284D02*
D03*
X68898Y77559D02*
D03*
Y80709D02*
D03*
X51181Y102362D02*
D03*
X55118Y86614D02*
D03*
X56102Y94488D02*
D03*
X63382Y123350D02*
D03*
Y120201D02*
D03*
Y117051D02*
D03*
Y113902D02*
D03*
X63386Y83858D02*
D03*
Y87008D02*
D03*
X66142Y85433D02*
D03*
Y121653D02*
D03*
Y88583D02*
D03*
Y112205D02*
D03*
Y118504D02*
D03*
Y115354D02*
D03*
X68898Y123228D02*
D03*
Y120079D02*
D03*
X219291Y54724D02*
D03*
X224754Y46801D02*
D03*
X231693Y62795D02*
D03*
X231715Y58993D02*
D03*
X238583Y35827D02*
D03*
X238583Y32677D02*
D03*
X238583Y29528D02*
D03*
X241339Y37402D02*
D03*
X241339Y34252D02*
D03*
X241339Y31102D02*
D03*
X241339Y27953D02*
D03*
X68898Y83858D02*
D03*
Y113779D02*
D03*
Y116929D02*
D03*
X69035Y86713D02*
D03*
X71653Y79134D02*
D03*
Y82284D02*
D03*
Y85433D02*
D03*
Y88583D02*
D03*
Y112205D02*
D03*
Y115354D02*
D03*
Y118504D02*
D03*
Y121653D02*
D03*
X74409Y77559D02*
D03*
Y80709D02*
D03*
Y83858D02*
D03*
Y87008D02*
D03*
Y113779D02*
D03*
Y116929D02*
D03*
Y120079D02*
D03*
Y123228D02*
D03*
X82677Y87598D02*
D03*
X91917Y113812D02*
D03*
Y121686D02*
D03*
X93504Y103347D02*
D03*
X93886Y109875D02*
D03*
Y117749D02*
D03*
X95854Y113812D02*
D03*
Y121686D02*
D03*
X97823Y109875D02*
D03*
Y117749D02*
D03*
X62598Y183465D02*
D03*
Y186614D02*
D03*
X65354Y181890D02*
D03*
Y185039D02*
D03*
X68110Y183465D02*
D03*
Y186614D02*
D03*
X70866Y181890D02*
D03*
Y185039D02*
D03*
X55118Y196850D02*
D03*
X62598Y189764D02*
D03*
Y192913D02*
D03*
X62599Y220079D02*
D03*
Y216929D02*
D03*
Y226378D02*
D03*
Y223228D02*
D03*
X65354Y188189D02*
D03*
Y191339D02*
D03*
X65354Y227953D02*
D03*
Y221654D02*
D03*
Y224803D02*
D03*
Y218504D02*
D03*
X68110Y189764D02*
D03*
Y192913D02*
D03*
X68110Y220079D02*
D03*
Y226378D02*
D03*
Y216929D02*
D03*
Y223228D02*
D03*
X70866Y188189D02*
D03*
Y191339D02*
D03*
X73622Y186614D02*
D03*
Y189764D02*
D03*
Y192913D02*
D03*
Y183465D02*
D03*
X73622Y216929D02*
D03*
X82677Y190945D02*
D03*
X180315Y218110D02*
D03*
X183071Y216142D02*
D03*
X185827Y218110D02*
D03*
X188583Y216142D02*
D03*
X194095Y216142D02*
D03*
X199606D02*
D03*
X205118Y216142D02*
D03*
X210630D02*
D03*
X216142D02*
D03*
X221654D02*
D03*
X231693Y188878D02*
D03*
X231715Y185076D02*
D03*
X236035Y182890D02*
D03*
X236035Y179740D02*
D03*
X236035Y176591D02*
D03*
X238791Y184465D02*
D03*
X238791Y181315D02*
D03*
X238791Y178165D02*
D03*
X238791Y175016D02*
D03*
X241339Y208661D02*
D03*
Y211811D02*
D03*
Y214961D02*
D03*
X241547Y182890D02*
D03*
X241547Y179740D02*
D03*
X241547Y176591D02*
D03*
X70866Y218504D02*
D03*
Y221654D02*
D03*
Y227953D02*
D03*
Y224803D02*
D03*
X73622Y220079D02*
D03*
Y226378D02*
D03*
Y223228D02*
D03*
X92520Y222441D02*
D03*
Y230315D02*
D03*
X94488Y218504D02*
D03*
Y226378D02*
D03*
X96457Y230315D02*
D03*
Y222441D02*
D03*
X98425Y218504D02*
D03*
Y226378D02*
D03*
X104331Y232283D02*
D03*
X183071Y220079D02*
D03*
X188583D02*
D03*
X191339Y218110D02*
D03*
X194095Y220079D02*
D03*
X196850Y218110D02*
D03*
X199606Y220079D02*
D03*
X202362Y218110D02*
D03*
X205118Y220079D02*
D03*
X207874Y218110D02*
D03*
X210630Y220079D02*
D03*
X213386Y218110D02*
D03*
X216142Y220079D02*
D03*
X218898Y218110D02*
D03*
X221654Y220079D02*
D03*
X224410Y218110D02*
D03*
X250000Y9843D02*
D03*
X244488D02*
D03*
X255512D02*
D03*
X252756Y11417D02*
D03*
X247244D02*
D03*
X244488Y12992D02*
D03*
X250000D02*
D03*
X255512D02*
D03*
X252756Y14567D02*
D03*
X247244D02*
D03*
X251060Y25571D02*
D03*
X244094Y29528D02*
D03*
X246850Y31102D02*
D03*
X244094Y32677D02*
D03*
X249606D02*
D03*
X255118D02*
D03*
X246850Y34252D02*
D03*
X244094Y35827D02*
D03*
X246850Y37402D02*
D03*
X252362Y38583D02*
D03*
X244094Y38976D02*
D03*
X257874Y51575D02*
D03*
X249606Y53150D02*
D03*
X244094D02*
D03*
X255118D02*
D03*
X252362Y54724D02*
D03*
X246850D02*
D03*
X257874D02*
D03*
X244094Y56299D02*
D03*
X249606D02*
D03*
X255118D02*
D03*
X252362Y57874D02*
D03*
X261024Y9843D02*
D03*
X266535D02*
D03*
X272047D02*
D03*
X258268Y11417D02*
D03*
X263779D02*
D03*
X269291D02*
D03*
X261024Y12992D02*
D03*
X266535D02*
D03*
X272047D02*
D03*
X258268Y14567D02*
D03*
X263779D02*
D03*
X269291D02*
D03*
X260630Y32677D02*
D03*
X266535Y33465D02*
D03*
X272047D02*
D03*
X269291Y35039D02*
D03*
X274803D02*
D03*
X272047Y36614D02*
D03*
X266535Y36614D02*
D03*
X269291Y38189D02*
D03*
X266535Y39764D02*
D03*
X272047D02*
D03*
X269291Y41339D02*
D03*
X272047Y42913D02*
D03*
X269291Y44488D02*
D03*
X263779Y45276D02*
D03*
X272047Y46063D02*
D03*
Y49213D02*
D03*
X274803Y50787D02*
D03*
X260630Y53150D02*
D03*
X265740Y55810D02*
D03*
X260630Y56299D02*
D03*
X257874Y57874D02*
D03*
X246850D02*
D03*
X249606Y59449D02*
D03*
X255118D02*
D03*
X258268Y170473D02*
D03*
X255512Y168898D02*
D03*
X258268Y161024D02*
D03*
Y164173D02*
D03*
X255512Y165748D02*
D03*
X258268Y167323D02*
D03*
X247059Y173441D02*
D03*
X241547Y173441D02*
D03*
X244303Y175016D02*
D03*
X252571Y176197D02*
D03*
X247059Y176591D02*
D03*
X244303Y178165D02*
D03*
X247059Y179740D02*
D03*
X249815Y181315D02*
D03*
X244303Y181315D02*
D03*
X252571Y182890D02*
D03*
X247059Y182890D02*
D03*
X257874Y183071D02*
D03*
X249815Y184465D02*
D03*
X244303Y184465D02*
D03*
X260630Y184646D02*
D03*
X255118Y184646D02*
D03*
X273622Y93898D02*
D03*
X271654Y97441D02*
D03*
X273622Y100984D02*
D03*
X273622Y135236D02*
D03*
X271654Y138779D02*
D03*
X273622Y142323D02*
D03*
X263779Y161024D02*
D03*
X269291D02*
D03*
X274803D02*
D03*
X261024Y162598D02*
D03*
X266535D02*
D03*
X272047D02*
D03*
X263779Y164173D02*
D03*
X269291D02*
D03*
X261024Y165748D02*
D03*
X266535D02*
D03*
X272047Y165748D02*
D03*
X263779Y167323D02*
D03*
X269291D02*
D03*
X274803D02*
D03*
X261024Y168898D02*
D03*
X266535D02*
D03*
X272047Y168898D02*
D03*
X269291Y170473D02*
D03*
X274803Y170473D02*
D03*
X266535Y172047D02*
D03*
X272047Y172047D02*
D03*
X269291Y173622D02*
D03*
X277559Y33465D02*
D03*
X277559Y36614D02*
D03*
X274803Y38189D02*
D03*
X280315D02*
D03*
X277559Y39764D02*
D03*
X280315Y41339D02*
D03*
X274803D02*
D03*
X277559Y42913D02*
D03*
X274803Y44488D02*
D03*
X280315D02*
D03*
X277559Y46063D02*
D03*
X274803Y47638D02*
D03*
X277559Y49213D02*
D03*
X327370Y77256D02*
D03*
X323043Y77435D02*
D03*
X318504Y87756D02*
D03*
X332095Y90248D02*
D03*
X279528Y90354D02*
D03*
X283465D02*
D03*
X275591D02*
D03*
X285433Y93898D02*
D03*
X275590Y104528D02*
D03*
X287402Y97441D02*
D03*
X285433Y100984D02*
D03*
X332095Y104421D02*
D03*
X283465Y104528D02*
D03*
X344693Y77256D02*
D03*
X349020Y77436D02*
D03*
X380315Y78740D02*
D03*
X334063Y79618D02*
D03*
X338000D02*
D03*
X332095Y83161D02*
D03*
X339968D02*
D03*
X336032D02*
D03*
X362598Y83377D02*
D03*
X353543Y86575D02*
D03*
X334063Y86705D02*
D03*
X338000D02*
D03*
X378740Y87402D02*
D03*
X339968Y90248D02*
D03*
X336032D02*
D03*
X334063Y93791D02*
D03*
X338000D02*
D03*
X332095Y97335D02*
D03*
X339968D02*
D03*
X336032D02*
D03*
X378740Y100000D02*
D03*
X334063Y100878D02*
D03*
X338000D02*
D03*
X353543Y103150D02*
D03*
X339968Y104421D02*
D03*
X336032D02*
D03*
X279528Y104528D02*
D03*
X334063Y107965D02*
D03*
X303683Y112402D02*
D03*
X283465Y131693D02*
D03*
X275591D02*
D03*
X279528D02*
D03*
X332283Y131890D02*
D03*
X285433Y135236D02*
D03*
X287402Y138779D02*
D03*
X332095Y138870D02*
D03*
X304724Y138976D02*
D03*
X285433Y142323D02*
D03*
X275590Y145866D02*
D03*
X283465D02*
D03*
X279528D02*
D03*
X332095Y145957D02*
D03*
X309842Y147638D02*
D03*
X318898Y149539D02*
D03*
X332095Y153043D02*
D03*
X334027Y156867D02*
D03*
X327370Y158949D02*
D03*
X322638Y159092D02*
D03*
X277559Y162598D02*
D03*
X274803Y164173D02*
D03*
X277559Y165748D02*
D03*
X277559Y168898D02*
D03*
X277559Y172047D02*
D03*
X274803Y173622D02*
D03*
X338000Y107965D02*
D03*
X362992Y112992D02*
D03*
X357874D02*
D03*
X334252Y128347D02*
D03*
X338189D02*
D03*
X379134Y129724D02*
D03*
X336221Y131890D02*
D03*
X340158D02*
D03*
X334063Y135327D02*
D03*
X338000D02*
D03*
X336032Y138870D02*
D03*
X339968D02*
D03*
X334063Y142413D02*
D03*
X338000D02*
D03*
X387520Y144646D02*
D03*
X336032Y145957D02*
D03*
X339968D02*
D03*
X353543Y149213D02*
D03*
X334063Y149500D02*
D03*
X338000D02*
D03*
X336032Y153043D02*
D03*
X339968D02*
D03*
X337964Y156867D02*
D03*
X375984Y157480D02*
D03*
X379528D02*
D03*
X344679Y158949D02*
D03*
X349008Y159092D02*
D03*
X252384Y190874D02*
D03*
X252362Y208661D02*
D03*
X246850Y211811D02*
D03*
X257874Y186221D02*
D03*
X263611Y198308D02*
D03*
X255118Y203937D02*
D03*
X265846Y208268D02*
D03*
X246850Y205512D02*
D03*
X249606Y207087D02*
D03*
X244094Y210236D02*
D03*
X255118Y207087D02*
D03*
X246850Y208661D02*
D03*
X244094Y207087D02*
D03*
X249606Y210236D02*
D03*
X252362Y205512D02*
D03*
X252362Y211811D02*
D03*
X244094Y213386D02*
D03*
Y216535D02*
D03*
X246850Y218110D02*
D03*
Y214961D02*
D03*
X247244Y228346D02*
D03*
Y231496D02*
D03*
X249606Y213386D02*
D03*
Y216535D02*
D03*
X250000Y226772D02*
D03*
Y229921D02*
D03*
Y233071D02*
D03*
X252756Y228346D02*
D03*
Y231496D02*
D03*
X255512Y226772D02*
D03*
Y229921D02*
D03*
X255512Y220472D02*
D03*
Y223622D02*
D03*
Y233071D02*
D03*
X258268Y218898D02*
D03*
Y222047D02*
D03*
Y225197D02*
D03*
Y228346D02*
D03*
Y231496D02*
D03*
X261024Y226772D02*
D03*
Y220472D02*
D03*
Y223622D02*
D03*
Y229921D02*
D03*
Y233071D02*
D03*
X263779Y228346D02*
D03*
Y231496D02*
D03*
X263779Y225197D02*
D03*
Y222047D02*
D03*
X267323Y185039D02*
D03*
X272835D02*
D03*
X278346D02*
D03*
X270079Y186614D02*
D03*
X275591D02*
D03*
X281102D02*
D03*
X267323Y188189D02*
D03*
X272835D02*
D03*
X283858D02*
D03*
X278346D02*
D03*
X270079Y189764D02*
D03*
X281102D02*
D03*
X275590D02*
D03*
X272835Y191339D02*
D03*
X267323D02*
D03*
X283858D02*
D03*
X266535Y226772D02*
D03*
Y223622D02*
D03*
Y220472D02*
D03*
X267323Y194488D02*
D03*
Y200787D02*
D03*
Y197638D02*
D03*
X269291Y225197D02*
D03*
Y222047D02*
D03*
X270079Y196063D02*
D03*
Y202362D02*
D03*
Y199213D02*
D03*
X270079Y192913D02*
D03*
X272835Y194488D02*
D03*
Y200787D02*
D03*
Y197638D02*
D03*
X275590Y192913D02*
D03*
X275591Y196063D02*
D03*
Y199213D02*
D03*
Y202362D02*
D03*
X278346Y191339D02*
D03*
Y194488D02*
D03*
Y197638D02*
D03*
Y200787D02*
D03*
X281102Y192913D02*
D03*
Y196063D02*
D03*
Y199213D02*
D03*
X283858Y194488D02*
D03*
X283858Y197638D02*
D03*
D80*
X374016Y19685D02*
D03*
X196850Y118110D02*
D03*
X374016Y216535D02*
D03*
D98*
X382716Y189941D02*
D03*
X377992Y148642D02*
D03*
X364213D02*
D03*
D99*
X363287Y189941D02*
D03*
D100*
X372008D02*
D03*
M02*
