G04*
G04 #@! TF.GenerationSoftware,Altium Limited,Altium Designer,22.9.1 (49)*
G04*
G04 Layer_Color=65535*
%FSLAX25Y25*%
%MOIN*%
G70*
G04*
G04 #@! TF.SameCoordinates,58640E65-FB78-4378-B78F-6D08F657F38D*
G04*
G04*
G04 #@! TF.FilePolarity,Positive*
G04*
G01*
G75*
%ADD10C,0.00787*%
%ADD11C,0.00984*%
%ADD12C,0.00394*%
%ADD13C,0.00600*%
%ADD14C,0.00500*%
D10*
X216378Y161024D02*
Y161811D01*
Y161024D01*
Y35039D02*
Y35827D01*
Y35039D01*
X248031Y20028D02*
X248000Y21026D01*
X247905Y22021D01*
X247747Y23008D01*
X247527Y23983D01*
X247245Y24941D01*
X246903Y25881D01*
X246503Y26796D01*
X246045Y27684D01*
X245532Y28542D01*
X244965Y29365D01*
X244347Y30150D01*
X243681Y30895D01*
X242969Y31596D01*
X242213Y32250D01*
X241418Y32855D01*
X240586Y33409D01*
X239721Y33909D01*
X238825Y34352D01*
X237904Y34738D01*
X236959Y35065D01*
X235996Y35332D01*
X235018Y35536D01*
X234029Y35679D01*
X233033Y35758D01*
X232034Y35774D01*
X231035Y35726D01*
X230042Y35615D01*
X229058Y35442D01*
X228087Y35206D01*
X227133Y34909D01*
X226199Y34553D01*
X225290Y34138D01*
X224410Y33666D01*
X223560Y33139D01*
X222746Y32559D01*
X221971Y31929D01*
X221237Y31251D01*
X220547Y30528D01*
X219905Y29762D01*
X219312Y28958D01*
X218772Y28117D01*
X218286Y27244D01*
X217857Y26341D01*
X217485Y25414D01*
X217173Y24464D01*
X216922Y23497D01*
X216733Y22516D01*
X216607Y21524D01*
X216543Y20527D01*
Y19528D01*
X216607Y18531D01*
X216733Y17539D01*
X216922Y16558D01*
X217173Y15591D01*
X217485Y14641D01*
X217857Y13714D01*
X218286Y12811D01*
X218772Y11938D01*
X219312Y11097D01*
X219905Y10293D01*
X220547Y9527D01*
X221237Y8804D01*
X221971Y8126D01*
X222746Y7496D01*
X223560Y6916D01*
X224410Y6389D01*
X225290Y5917D01*
X226199Y5502D01*
X227133Y5146D01*
X228087Y4849D01*
X229058Y4613D01*
X230042Y4440D01*
X231035Y4329D01*
X232034Y4281D01*
X233033Y4297D01*
X234029Y4377D01*
X235018Y4519D01*
X235996Y4723D01*
X236959Y4990D01*
X237904Y5317D01*
X238825Y5703D01*
X239721Y6146D01*
X240586Y6646D01*
X241418Y7200D01*
X242213Y7805D01*
X242969Y8459D01*
X243681Y9160D01*
X244347Y9905D01*
X244965Y10690D01*
X245532Y11513D01*
X246045Y12371D01*
X246503Y13259D01*
X246903Y14175D01*
X247245Y15114D01*
X247527Y16072D01*
X247747Y17047D01*
X247905Y18034D01*
X248000Y19029D01*
X248031Y20028D01*
Y216193D02*
X248000Y217192D01*
X247905Y218186D01*
X247747Y219173D01*
X247527Y220148D01*
X247245Y221107D01*
X246903Y222046D01*
X246503Y222961D01*
X246045Y223850D01*
X245532Y224707D01*
X244965Y225530D01*
X244347Y226315D01*
X243681Y227060D01*
X242969Y227761D01*
X242213Y228416D01*
X241418Y229021D01*
X240586Y229574D01*
X239721Y230074D01*
X238825Y230518D01*
X237904Y230904D01*
X236959Y231231D01*
X235996Y231497D01*
X235018Y231702D01*
X234029Y231844D01*
X233033Y231923D01*
X232034Y231939D01*
X231035Y231891D01*
X230042Y231781D01*
X229058Y231607D01*
X228087Y231371D01*
X227133Y231075D01*
X226199Y230718D01*
X225290Y230303D01*
X224410Y229831D01*
X223560Y229304D01*
X222746Y228725D01*
X221971Y228095D01*
X221237Y227416D01*
X220547Y226693D01*
X219905Y225928D01*
X219312Y225123D01*
X218772Y224282D01*
X218286Y223409D01*
X217857Y222507D01*
X217485Y221579D01*
X217173Y220630D01*
X216922Y219662D01*
X216733Y218681D01*
X216607Y217690D01*
X216543Y216693D01*
Y215693D01*
X216607Y214696D01*
X216733Y213705D01*
X216922Y212723D01*
X217173Y211756D01*
X217485Y210807D01*
X217857Y209879D01*
X218286Y208977D01*
X218772Y208103D01*
X219312Y207263D01*
X219905Y206458D01*
X220547Y205693D01*
X221237Y204969D01*
X221971Y204291D01*
X222746Y203661D01*
X223560Y203082D01*
X224410Y202555D01*
X225290Y202083D01*
X226199Y201668D01*
X227133Y201311D01*
X228087Y201014D01*
X229058Y200779D01*
X230042Y200605D01*
X231035Y200494D01*
X232034Y200447D01*
X233033Y200463D01*
X234029Y200542D01*
X235018Y200684D01*
X235996Y200889D01*
X236959Y201155D01*
X237904Y201482D01*
X238825Y201868D01*
X239721Y202312D01*
X240586Y202811D01*
X241418Y203365D01*
X242213Y203970D01*
X242969Y204625D01*
X243681Y205326D01*
X244347Y206070D01*
X244965Y206856D01*
X245532Y207679D01*
X246045Y208536D01*
X246503Y209424D01*
X246903Y210340D01*
X247245Y211279D01*
X247527Y212238D01*
X247747Y213212D01*
X247905Y214199D01*
X248000Y215194D01*
X248031Y216193D01*
X289370Y138779D02*
X289345Y139777D01*
X289269Y140771D01*
X289143Y141760D01*
X288967Y142742D01*
X288742Y143714D01*
X288467Y144673D01*
X288145Y145616D01*
X287775Y146542D01*
X287358Y147449D01*
X286897Y148333D01*
X286391Y149192D01*
X285842Y150025D01*
X285251Y150829D01*
X284621Y151602D01*
X283953Y152342D01*
X283247Y153047D01*
X282507Y153716D01*
X281734Y154346D01*
X280930Y154936D01*
X280098Y155485D01*
X279238Y155991D01*
X278354Y156453D01*
X277448Y156869D01*
X276522Y157239D01*
X275578Y157562D01*
X274619Y157836D01*
X273648Y158062D01*
X272666Y158238D01*
X271676Y158364D01*
X270682Y158439D01*
X269685Y158465D01*
X268688Y158439D01*
X267693Y158364D01*
X266704Y158238D01*
X265722Y158062D01*
X264751Y157836D01*
X263792Y157562D01*
X262848Y157239D01*
X261922Y156869D01*
X261016Y156453D01*
X260132Y155991D01*
X259272Y155485D01*
X258440Y154936D01*
X257636Y154346D01*
X256863Y153716D01*
X256123Y153047D01*
X255417Y152342D01*
X254749Y151602D01*
X254119Y150829D01*
X253528Y150025D01*
X252979Y149192D01*
X252473Y148333D01*
X252012Y147449D01*
X251595Y146542D01*
X251225Y145616D01*
X250903Y144673D01*
X250628Y143714D01*
X250403Y142742D01*
X250227Y141760D01*
X250101Y140771D01*
X250025Y139777D01*
X250000Y138779D01*
X250025Y137783D01*
X250101Y136788D01*
X250227Y135799D01*
X250403Y134817D01*
X250628Y133845D01*
X250903Y132887D01*
X251225Y131943D01*
X251595Y131017D01*
X252012Y130110D01*
X252473Y129226D01*
X252979Y128367D01*
X253528Y127534D01*
X254119Y126730D01*
X254749Y125957D01*
X255417Y125217D01*
X256123Y124512D01*
X256863Y123843D01*
X257636Y123213D01*
X258440Y122623D01*
X259272Y122074D01*
X260132Y121568D01*
X261016Y121106D01*
X261922Y120690D01*
X262848Y120320D01*
X263792Y119997D01*
X264751Y119723D01*
X265722Y119497D01*
X266704Y119322D01*
X267694Y119195D01*
X268688Y119120D01*
X269685Y119095D01*
X270682Y119120D01*
X271677Y119195D01*
X272666Y119322D01*
X273648Y119498D01*
X274619Y119723D01*
X275578Y119997D01*
X276522Y120320D01*
X277448Y120690D01*
X278354Y121106D01*
X279238Y121568D01*
X280098Y122074D01*
X280930Y122623D01*
X281734Y123213D01*
X282507Y123843D01*
X283247Y124512D01*
X283953Y125217D01*
X284621Y125957D01*
X285251Y126730D01*
X285842Y127534D01*
X286391Y128367D01*
X286897Y129226D01*
X287358Y130110D01*
X287775Y131017D01*
X288145Y131943D01*
X288467Y132887D01*
X288742Y133845D01*
X288967Y134817D01*
X289143Y135799D01*
X289269Y136788D01*
X289345Y137783D01*
X289370Y138779D01*
Y97441D02*
X289345Y98438D01*
X289269Y99432D01*
X289143Y100422D01*
X288967Y101403D01*
X288742Y102375D01*
X288467Y103334D01*
X288145Y104278D01*
X287775Y105204D01*
X287358Y106110D01*
X286897Y106994D01*
X286391Y107854D01*
X285842Y108686D01*
X285251Y109490D01*
X284621Y110263D01*
X283953Y111003D01*
X283247Y111708D01*
X282507Y112377D01*
X281734Y113007D01*
X280930Y113598D01*
X280098Y114146D01*
X279238Y114653D01*
X278354Y115114D01*
X277448Y115531D01*
X276522Y115901D01*
X275578Y116223D01*
X274619Y116498D01*
X273648Y116723D01*
X272666Y116899D01*
X271676Y117025D01*
X270682Y117101D01*
X269685Y117126D01*
X268688Y117101D01*
X267693Y117025D01*
X266704Y116899D01*
X265722Y116723D01*
X264751Y116498D01*
X263792Y116223D01*
X262848Y115901D01*
X261922Y115531D01*
X261016Y115114D01*
X260132Y114653D01*
X259272Y114146D01*
X258440Y113598D01*
X257636Y113007D01*
X256863Y112377D01*
X256123Y111708D01*
X255417Y111003D01*
X254749Y110263D01*
X254119Y109490D01*
X253528Y108686D01*
X252979Y107854D01*
X252473Y106994D01*
X252012Y106110D01*
X251595Y105204D01*
X251225Y104278D01*
X250903Y103334D01*
X250628Y102375D01*
X250403Y101403D01*
X250227Y100422D01*
X250101Y99432D01*
X250025Y98438D01*
X250000Y97441D01*
X250025Y96444D01*
X250101Y95449D01*
X250227Y94460D01*
X250403Y93478D01*
X250628Y92507D01*
X250903Y91548D01*
X251225Y90604D01*
X251595Y89678D01*
X252012Y88772D01*
X252473Y87888D01*
X252979Y87028D01*
X253528Y86195D01*
X254119Y85392D01*
X254749Y84619D01*
X255417Y83879D01*
X256123Y83173D01*
X256863Y82505D01*
X257636Y81875D01*
X258440Y81284D01*
X259272Y80735D01*
X260132Y80229D01*
X261016Y79768D01*
X261922Y79351D01*
X262848Y78981D01*
X263792Y78659D01*
X264751Y78384D01*
X265722Y78159D01*
X266704Y77983D01*
X267694Y77857D01*
X268688Y77781D01*
X269685Y77756D01*
X270682Y77781D01*
X271677Y77857D01*
X272666Y77983D01*
X273648Y78159D01*
X274619Y78384D01*
X275578Y78659D01*
X276522Y78981D01*
X277448Y79351D01*
X278354Y79768D01*
X279238Y80229D01*
X280098Y80735D01*
X280930Y81284D01*
X281734Y81875D01*
X282507Y82505D01*
X283247Y83173D01*
X283953Y83879D01*
X284621Y84619D01*
X285251Y85392D01*
X285842Y86196D01*
X286391Y87028D01*
X286897Y87888D01*
X287358Y88772D01*
X287775Y89678D01*
X288145Y90604D01*
X288467Y91548D01*
X288742Y92507D01*
X288967Y93479D01*
X289143Y94460D01*
X289269Y95450D01*
X289345Y96444D01*
X289370Y97441D01*
X360236Y20028D02*
X360205Y21026D01*
X360109Y22021D01*
X359952Y23008D01*
X359732Y23983D01*
X359450Y24941D01*
X359108Y25881D01*
X358707Y26796D01*
X358250Y27684D01*
X357736Y28542D01*
X357170Y29365D01*
X356552Y30150D01*
X355886Y30895D01*
X355173Y31596D01*
X354418Y32250D01*
X353623Y32855D01*
X352791Y33409D01*
X351925Y33909D01*
X351030Y34352D01*
X350108Y34738D01*
X349164Y35065D01*
X348201Y35332D01*
X347223Y35536D01*
X346234Y35679D01*
X345237Y35758D01*
X344238Y35774D01*
X343240Y35726D01*
X342247Y35615D01*
X341263Y35442D01*
X340292Y35206D01*
X339337Y34909D01*
X338404Y34553D01*
X337495Y34138D01*
X336614Y33666D01*
X335765Y33139D01*
X334951Y32559D01*
X334175Y31929D01*
X333441Y31251D01*
X332752Y30528D01*
X332109Y29762D01*
X331517Y28958D01*
X330977Y28117D01*
X330491Y27244D01*
X330061Y26341D01*
X329690Y25414D01*
X329378Y24464D01*
X329127Y23497D01*
X328938Y22516D01*
X328812Y21524D01*
X328748Y20527D01*
Y19528D01*
X328812Y18531D01*
X328938Y17539D01*
X329127Y16558D01*
X329378Y15591D01*
X329690Y14641D01*
X330061Y13714D01*
X330491Y12811D01*
X330977Y11938D01*
X331517Y11097D01*
X332109Y10293D01*
X332752Y9527D01*
X333441Y8804D01*
X334175Y8126D01*
X334951Y7496D01*
X335765Y6916D01*
X336614Y6389D01*
X337495Y5917D01*
X338404Y5502D01*
X339337Y5146D01*
X340292Y4849D01*
X341263Y4613D01*
X342247Y4440D01*
X343240Y4329D01*
X344238Y4281D01*
X345237Y4297D01*
X346234Y4377D01*
X347223Y4519D01*
X348201Y4723D01*
X349164Y4990D01*
X350108Y5317D01*
X351030Y5703D01*
X351925Y6146D01*
X352791Y6646D01*
X353623Y7200D01*
X354418Y7805D01*
X355173Y8459D01*
X355886Y9160D01*
X356552Y9905D01*
X357170Y10690D01*
X357736Y11513D01*
X358250Y12371D01*
X358707Y13259D01*
X359108Y14175D01*
X359450Y15114D01*
X359732Y16072D01*
X359952Y17047D01*
X360109Y18034D01*
X360205Y19029D01*
X360236Y20028D01*
Y216193D02*
X360205Y217192D01*
X360109Y218186D01*
X359952Y219173D01*
X359732Y220148D01*
X359450Y221107D01*
X359108Y222046D01*
X358707Y222961D01*
X358250Y223850D01*
X357736Y224707D01*
X357170Y225530D01*
X356552Y226315D01*
X355886Y227060D01*
X355173Y227761D01*
X354418Y228416D01*
X353623Y229021D01*
X352791Y229574D01*
X351925Y230074D01*
X351030Y230518D01*
X350108Y230904D01*
X349164Y231231D01*
X348201Y231497D01*
X347223Y231702D01*
X346234Y231844D01*
X345237Y231923D01*
X344238Y231939D01*
X343240Y231891D01*
X342247Y231781D01*
X341263Y231607D01*
X340292Y231371D01*
X339337Y231075D01*
X338404Y230718D01*
X337495Y230303D01*
X336614Y229831D01*
X335765Y229304D01*
X334951Y228725D01*
X334175Y228095D01*
X333441Y227416D01*
X332752Y226693D01*
X332109Y225928D01*
X331517Y225123D01*
X330977Y224282D01*
X330491Y223409D01*
X330061Y222507D01*
X329690Y221579D01*
X329378Y220630D01*
X329127Y219662D01*
X328938Y218681D01*
X328812Y217690D01*
X328748Y216693D01*
Y215693D01*
X328812Y214696D01*
X328938Y213705D01*
X329127Y212723D01*
X329378Y211756D01*
X329690Y210807D01*
X330061Y209879D01*
X330491Y208977D01*
X330977Y208103D01*
X331517Y207263D01*
X332109Y206458D01*
X332752Y205693D01*
X333441Y204969D01*
X334175Y204291D01*
X334951Y203661D01*
X335765Y203082D01*
X336614Y202555D01*
X337495Y202083D01*
X338404Y201668D01*
X339337Y201311D01*
X340292Y201014D01*
X341263Y200779D01*
X342247Y200605D01*
X343240Y200494D01*
X344238Y200447D01*
X345237Y200463D01*
X346234Y200542D01*
X347223Y200684D01*
X348201Y200889D01*
X349164Y201155D01*
X350108Y201482D01*
X351030Y201868D01*
X351925Y202312D01*
X352791Y202811D01*
X353623Y203365D01*
X354418Y203970D01*
X355173Y204625D01*
X355886Y205326D01*
X356552Y206070D01*
X357170Y206856D01*
X357736Y207679D01*
X358250Y208536D01*
X358707Y209424D01*
X359108Y210340D01*
X359450Y211279D01*
X359732Y212238D01*
X359952Y213212D01*
X360109Y214199D01*
X360205Y215194D01*
X360236Y216193D01*
X66043Y45591D02*
X72047D01*
X73425Y25787D02*
Y45079D01*
Y25787D02*
X86024D01*
Y45079D01*
X73425D02*
X86024D01*
X73425Y22421D02*
X86024D01*
Y3169D02*
Y22421D01*
X73425Y3169D02*
X86024D01*
X73425D02*
Y22421D01*
X66142Y23779D02*
X72047D01*
X87461Y107579D02*
X96516D01*
Y95768D02*
Y107579D01*
X87461Y95768D02*
X96516D01*
X87461D02*
Y107579D01*
X80472Y107776D02*
X86083D01*
X222638Y60925D02*
X228346D01*
X91988Y113878D02*
Y122933D01*
X86752Y211496D02*
X95807D01*
Y199685D02*
Y211496D01*
X86752Y199685D02*
X95807D01*
X86752D02*
Y211496D01*
X79764Y211693D02*
X85374D01*
X91280Y217795D02*
Y226850D01*
X382283Y97835D02*
Y112402D01*
X370472Y97835D02*
X382283D01*
X370472D02*
Y112402D01*
X382283D01*
X382480Y113779D02*
Y119587D01*
X344693Y78437D02*
X350402D01*
X357488Y88476D02*
X363000D01*
X357488Y105799D02*
X363000D01*
X384252Y106299D02*
X389764D01*
X352370Y109736D02*
X354732D01*
X265846Y208268D02*
X274902D01*
X265846Y181102D02*
X274902D01*
X222736Y187008D02*
X228445D01*
X277264Y208268D02*
X286319D01*
X288681D02*
X297736D01*
X300098D02*
X309154D01*
X300098Y181102D02*
X309154D01*
X277264D02*
X286319D01*
X288681D02*
X297736D01*
X265945Y55709D02*
X275000D01*
X277362D02*
X286417D01*
X288779Y28543D02*
X297835D01*
X265945D02*
X275000D01*
X277362D02*
X286417D01*
X300197D02*
X309252D01*
X288779Y55709D02*
X297835D01*
X300197D02*
X309252D01*
X307874Y81693D02*
Y87205D01*
X321661Y157768D02*
X327370D01*
X317331Y126469D02*
X319693D01*
X309063Y130405D02*
X314575D01*
X59193Y91831D02*
Y92815D01*
X63996Y97342D02*
X64075D01*
X78878Y91831D02*
Y92815D01*
X59055Y107874D02*
Y108858D01*
X73858Y103347D02*
X73937D01*
X78740Y107874D02*
Y108858D01*
X58209Y196161D02*
Y197146D01*
X63012Y201673D02*
X63090D01*
X77894Y196161D02*
Y197146D01*
X77756Y212274D02*
Y213258D01*
X72874Y207746D02*
X72953D01*
X58071Y212274D02*
Y213258D01*
X376260Y141831D02*
Y142421D01*
X387520D01*
Y141831D02*
Y142421D01*
X376260Y141831D02*
X387520D01*
X375886Y135531D02*
Y140453D01*
X309063Y147728D02*
X314575D01*
X380315Y148819D02*
Y154331D01*
X364181Y148909D02*
Y154421D01*
D11*
X82913Y96358D02*
X82175Y96785D01*
Y95932D01*
X82913Y96358D01*
X56004Y104331D02*
X55266Y104757D01*
Y103904D01*
X56004Y104331D01*
X81929Y200689D02*
X81191Y201115D01*
Y200263D01*
X81929Y200689D01*
X55020Y208731D02*
X54282Y209157D01*
Y208305D01*
X55020Y208731D01*
D12*
X192362Y221102D02*
Y236024D01*
X114409D02*
X192362D01*
X114409Y201083D02*
Y236024D01*
Y126181D02*
Y161102D01*
Y126181D02*
X192382D01*
X192362Y141102D02*
X192382Y126181D01*
X192362Y95118D02*
Y110039D01*
X114409D02*
X192362D01*
X114409Y75098D02*
Y110039D01*
Y197D02*
Y35118D01*
Y197D02*
X192382D01*
X192362Y15118D02*
X192382Y197D01*
X252571Y10567D02*
Y23559D01*
X263571Y10575D02*
Y23567D01*
Y27110D02*
Y40102D01*
X252571Y27102D02*
Y40095D01*
X263571Y43882D02*
Y56874D01*
X252571Y43874D02*
Y56866D01*
Y60409D02*
Y73402D01*
X263571Y60417D02*
Y73409D01*
X252571Y179740D02*
Y192732D01*
X263571Y179748D02*
Y192740D01*
X252571Y196512D02*
Y209504D01*
X263571Y196520D02*
Y209512D01*
Y163213D02*
Y176205D01*
X252571Y163205D02*
Y176197D01*
Y213047D02*
Y226039D01*
X263571Y213055D02*
Y226047D01*
D13*
X311114Y204437D02*
X313847D01*
X320079Y165547D02*
Y168547D01*
X318579Y167047D02*
X321579D01*
X329043Y173516D02*
Y204437D01*
X326310D02*
X329043D01*
X311114Y173516D02*
Y204437D01*
Y173516D02*
X313847D01*
X326310D02*
X329043D01*
X311114Y63492D02*
X313847D01*
X326310D02*
X329043D01*
Y32571D02*
Y63492D01*
X311114Y32571D02*
X313847D01*
X311114D02*
Y63492D01*
X318579Y69961D02*
X321579D01*
X320079Y68461D02*
Y71461D01*
X326310Y32571D02*
X329043D01*
D14*
X102494Y5971D02*
X102166Y5643D01*
Y4987D01*
X102494Y4659D01*
X103806D01*
X104133Y4987D01*
Y5643D01*
X103806Y5971D01*
Y6627D02*
X104133Y6955D01*
Y7611D01*
X103806Y7939D01*
X102494D01*
X102166Y7611D01*
Y6955D01*
X102494Y6627D01*
X102822D01*
X103150Y6955D01*
Y7939D01*
X54856Y6365D02*
X54528Y6037D01*
Y5381D01*
X54856Y5053D01*
X56168D01*
X56496Y5381D01*
Y6037D01*
X56168Y6365D01*
X54528Y7021D02*
Y8333D01*
X54856D01*
X56168Y7021D01*
X56496D01*
X77265Y49212D02*
X77921D01*
X77593D01*
Y47244D01*
X77265D01*
X77921D01*
X80216Y48884D02*
X79888Y49212D01*
X79232D01*
X78904Y48884D01*
Y47572D01*
X79232Y47244D01*
X79888D01*
X80216Y47572D01*
X80872Y48884D02*
X81200Y49212D01*
X81856D01*
X82184Y48884D01*
Y48556D01*
X81856Y48228D01*
X81528D01*
X81856D01*
X82184Y47900D01*
Y47572D01*
X81856Y47244D01*
X81200D01*
X80872Y47572D01*
X87271Y53806D02*
X86943Y54133D01*
X86287D01*
X85959Y53806D01*
Y52494D01*
X86287Y52166D01*
X86943D01*
X87271Y52494D01*
X89239Y52166D02*
X87927D01*
X89239Y53478D01*
Y53806D01*
X88911Y54133D01*
X88255D01*
X87927Y53806D01*
X91207Y54133D02*
X90551Y53806D01*
X89895Y53150D01*
Y52494D01*
X90223Y52166D01*
X90878D01*
X91207Y52494D01*
Y52822D01*
X90878Y53150D01*
X89895D01*
X58170Y20669D02*
X58826D01*
X58498D01*
Y18701D01*
X58170D01*
X58826D01*
X61122Y20341D02*
X60794Y20669D01*
X60138D01*
X59810Y20341D01*
Y19029D01*
X60138Y18701D01*
X60794D01*
X61122Y19029D01*
X63090Y20669D02*
X61778D01*
Y19685D01*
X62434Y20013D01*
X62762D01*
X63090Y19685D01*
Y19029D01*
X62762Y18701D01*
X62106D01*
X61778Y19029D01*
X69160Y53806D02*
X68833Y54133D01*
X68177D01*
X67849Y53806D01*
Y52494D01*
X68177Y52166D01*
X68833D01*
X69160Y52494D01*
X69816Y53806D02*
X70144Y54133D01*
X70800D01*
X71128Y53806D01*
Y53478D01*
X70800Y53150D01*
X70472D01*
X70800D01*
X71128Y52822D01*
Y52494D01*
X70800Y52166D01*
X70144D01*
X69816Y52494D01*
X73096Y52166D02*
X71784D01*
X73096Y53478D01*
Y53806D01*
X72768Y54133D01*
X72112D01*
X71784Y53806D01*
X105709Y92554D02*
X107677D01*
Y93865D01*
Y95833D02*
Y94521D01*
X106365Y95833D01*
X106037D01*
X105709Y95505D01*
Y94849D01*
X106037Y94521D01*
X107677Y96489D02*
X107349D01*
Y96817D01*
X107677D01*
Y96489D01*
Y98129D02*
Y98785D01*
Y98457D01*
X105709D01*
X106037Y98129D01*
X105630Y126478D02*
X107598D01*
Y127789D01*
Y129757D02*
Y128445D01*
X106286Y129757D01*
X105958D01*
X105630Y129429D01*
Y128773D01*
X105958Y128445D01*
X107598Y130413D02*
X107270D01*
Y130741D01*
X107598D01*
Y130413D01*
Y133365D02*
Y132053D01*
X106286Y133365D01*
X105958D01*
X105630Y133037D01*
Y132381D01*
X105958Y132053D01*
X300526Y19750D02*
X300198Y20078D01*
X299542D01*
X299214Y19750D01*
Y18439D01*
X299542Y18111D01*
X300198D01*
X300526Y18439D01*
X301182Y18111D02*
X301838D01*
X301510D01*
Y20078D01*
X301182Y19750D01*
X304134Y20078D02*
X303478Y19750D01*
X302822Y19094D01*
Y18439D01*
X303150Y18111D01*
X303806D01*
X304134Y18439D01*
Y18767D01*
X303806Y19094D01*
X302822D01*
X304789Y18111D02*
Y18439D01*
X305118D01*
Y18111D01*
X304789D01*
X306429D02*
X307085D01*
X306757D01*
Y20078D01*
X306429Y19750D01*
X289108D02*
X288780Y20078D01*
X288125D01*
X287797Y19750D01*
Y18439D01*
X288125Y18111D01*
X288780D01*
X289108Y18439D01*
X289764Y18111D02*
X290420D01*
X290092D01*
Y20078D01*
X289764Y19750D01*
X291404D02*
X291732Y20078D01*
X292388D01*
X292716Y19750D01*
Y19422D01*
X292388Y19094D01*
X292060D01*
X292388D01*
X292716Y18767D01*
Y18439D01*
X292388Y18111D01*
X291732D01*
X291404Y18439D01*
X293372Y18111D02*
Y18439D01*
X293700D01*
Y18111D01*
X293372D01*
X295012D02*
X295668D01*
X295340D01*
Y20078D01*
X295012Y19750D01*
X277691D02*
X277363Y20078D01*
X276707D01*
X276379Y19750D01*
Y18439D01*
X276707Y18111D01*
X277363D01*
X277691Y18439D01*
X278347Y18111D02*
X279003D01*
X278675D01*
Y20078D01*
X278347Y19750D01*
X281299Y18111D02*
X279987D01*
X281299Y19422D01*
Y19750D01*
X280971Y20078D01*
X280315D01*
X279987Y19750D01*
X281955Y18111D02*
Y18439D01*
X282283D01*
Y18111D01*
X281955D01*
X283595D02*
X284251D01*
X283923D01*
Y20078D01*
X283595Y19750D01*
X266274D02*
X265946Y20078D01*
X265290D01*
X264962Y19750D01*
Y18439D01*
X265290Y18111D01*
X265946D01*
X266274Y18439D01*
X266930Y18111D02*
X267586D01*
X267258D01*
Y20078D01*
X266930Y19750D01*
X268570D02*
X268898Y20078D01*
X269554D01*
X269882Y19750D01*
Y18439D01*
X269554Y18111D01*
X268898D01*
X268570Y18439D01*
Y19750D01*
X270537Y18111D02*
Y18439D01*
X270866D01*
Y18111D01*
X270537D01*
X272177D02*
X272833D01*
X272505D01*
Y20078D01*
X272177Y19750D01*
X300493Y218373D02*
X300165Y218701D01*
X299509D01*
X299181Y218373D01*
Y217061D01*
X299509Y216733D01*
X300165D01*
X300493Y217061D01*
X301149Y216733D02*
X301805D01*
X301477D01*
Y218701D01*
X301149Y218373D01*
X302789D02*
X303117Y218701D01*
X303773D01*
X304101Y218373D01*
Y217061D01*
X303773Y216733D01*
X303117D01*
X302789Y217061D01*
Y218373D01*
X304757Y216733D02*
Y217061D01*
X305085D01*
Y216733D01*
X304757D01*
X307709D02*
X306397D01*
X307709Y218044D01*
Y218373D01*
X307381Y218701D01*
X306725D01*
X306397Y218373D01*
X289076D02*
X288748Y218701D01*
X288092D01*
X287764Y218373D01*
Y217061D01*
X288092Y216733D01*
X288748D01*
X289076Y217061D01*
X289732Y216733D02*
X290388D01*
X290060D01*
Y218701D01*
X289732Y218373D01*
X292684Y216733D02*
X291372D01*
X292684Y218044D01*
Y218373D01*
X292355Y218701D01*
X291700D01*
X291372Y218373D01*
X293339Y216733D02*
Y217061D01*
X293667D01*
Y216733D01*
X293339D01*
X296291D02*
X294979D01*
X296291Y218044D01*
Y218373D01*
X295963Y218701D01*
X295307D01*
X294979Y218373D01*
X277658D02*
X277330Y218701D01*
X276675D01*
X276346Y218373D01*
Y217061D01*
X276675Y216733D01*
X277330D01*
X277658Y217061D01*
X278314Y216733D02*
X278970D01*
X278642D01*
Y218701D01*
X278314Y218373D01*
X279954D02*
X280282Y218701D01*
X280938D01*
X281266Y218373D01*
Y218044D01*
X280938Y217717D01*
X280610D01*
X280938D01*
X281266Y217389D01*
Y217061D01*
X280938Y216733D01*
X280282D01*
X279954Y217061D01*
X281922Y216733D02*
Y217061D01*
X282250D01*
Y216733D01*
X281922D01*
X284874D02*
X283562D01*
X284874Y218044D01*
Y218373D01*
X284546Y218701D01*
X283890D01*
X283562Y218373D01*
X266241D02*
X265913Y218701D01*
X265257D01*
X264929Y218373D01*
Y217061D01*
X265257Y216733D01*
X265913D01*
X266241Y217061D01*
X266897Y216733D02*
X267553D01*
X267225D01*
Y218701D01*
X266897Y218373D01*
X269849Y218701D02*
X269193Y218373D01*
X268537Y217717D01*
Y217061D01*
X268865Y216733D01*
X269521D01*
X269849Y217061D01*
Y217389D01*
X269521Y217717D01*
X268537D01*
X270505Y216733D02*
Y217061D01*
X270833D01*
Y216733D01*
X270505D01*
X273457D02*
X272145D01*
X273457Y218044D01*
Y218373D01*
X273129Y218701D01*
X272473D01*
X272145Y218373D01*
X291995Y112860D02*
X292322Y113188D01*
Y113844D01*
X291995Y114172D01*
X290683D01*
X290355Y113844D01*
Y113188D01*
X290683Y112860D01*
X290355Y112204D02*
Y111548D01*
Y111876D01*
X292322D01*
X291995Y112204D01*
X292322Y109252D02*
Y110564D01*
X291339D01*
X291667Y109908D01*
Y109580D01*
X291339Y109252D01*
X290683D01*
X290355Y109580D01*
Y110236D01*
X290683Y110564D01*
X290355Y108596D02*
X290683D01*
Y108268D01*
X290355D01*
Y108596D01*
Y106956D02*
Y106300D01*
Y106629D01*
X292322D01*
X291995Y106956D01*
X290683Y123032D02*
X290355Y122705D01*
Y122048D01*
X290683Y121721D01*
X291995D01*
X292322Y122048D01*
Y122705D01*
X291995Y123032D01*
X292322Y123688D02*
Y124344D01*
Y124016D01*
X290355D01*
X290683Y123688D01*
X290355Y126640D02*
Y125328D01*
X291339D01*
X291011Y125984D01*
Y126312D01*
X291339Y126640D01*
X291995D01*
X292322Y126312D01*
Y125656D01*
X291995Y125328D01*
X292322Y127296D02*
X291995D01*
Y127624D01*
X292322D01*
Y127296D01*
Y130248D02*
Y128936D01*
X291011Y130248D01*
X290683D01*
X290355Y129920D01*
Y129264D01*
X290683Y128936D01*
X266306Y67388D02*
X265978Y67716D01*
X265322D01*
X264995Y67388D01*
Y66076D01*
X265322Y65748D01*
X265978D01*
X266306Y66076D01*
X268274Y65748D02*
X266962D01*
X268274Y67060D01*
Y67388D01*
X267946Y67716D01*
X267290D01*
X266962Y67388D01*
X268930Y65748D02*
Y66076D01*
X269258D01*
Y65748D01*
X268930D01*
X270570D02*
X271226D01*
X270898D01*
Y67716D01*
X270570Y67388D01*
X277724D02*
X277396Y67716D01*
X276740D01*
X276412Y67388D01*
Y66076D01*
X276740Y65748D01*
X277396D01*
X277724Y66076D01*
X278380Y67388D02*
X278708Y67716D01*
X279364D01*
X279692Y67388D01*
Y67060D01*
X279364Y66732D01*
X279036D01*
X279364D01*
X279692Y66404D01*
Y66076D01*
X279364Y65748D01*
X278708D01*
X278380Y66076D01*
X280347Y65748D02*
Y66076D01*
X280676D01*
Y65748D01*
X280347D01*
X281987D02*
X282643D01*
X282315D01*
Y67716D01*
X281987Y67388D01*
X288944D02*
X288616Y67716D01*
X287960D01*
X287632Y67388D01*
Y66076D01*
X287960Y65748D01*
X288616D01*
X288944Y66076D01*
X290584Y65748D02*
Y67716D01*
X289600Y66732D01*
X290912D01*
X291568Y65748D02*
Y66076D01*
X291896D01*
Y65748D01*
X291568D01*
X293208D02*
X293864D01*
X293536D01*
Y67716D01*
X293208Y67388D01*
X300361D02*
X300033Y67716D01*
X299378D01*
X299050Y67388D01*
Y66076D01*
X299378Y65748D01*
X300033D01*
X300361Y66076D01*
X302329Y67716D02*
X301017D01*
Y66732D01*
X301673Y67060D01*
X302001D01*
X302329Y66732D01*
Y66076D01*
X302001Y65748D01*
X301345D01*
X301017Y66076D01*
X302985Y65748D02*
Y66076D01*
X303313D01*
Y65748D01*
X302985D01*
X304625D02*
X305281D01*
X304953D01*
Y67716D01*
X304625Y67388D01*
X250656Y11746D02*
X249344D01*
X249016Y11418D01*
Y10762D01*
X249344Y10434D01*
X250656D01*
X250984Y10762D01*
Y11418D01*
X250328Y11090D02*
X250984Y11746D01*
Y11418D02*
X250656Y11746D01*
X250984Y12402D02*
Y13058D01*
Y12730D01*
X249016D01*
X249344Y12402D01*
X250984Y14042D02*
X250656D01*
Y14370D01*
X250984D01*
Y14042D01*
Y15682D02*
Y16338D01*
Y16010D01*
X249016D01*
X249344Y15682D01*
X250656Y68669D02*
X249344D01*
X249016Y68341D01*
Y67685D01*
X249344Y67357D01*
X250656D01*
X250984Y67685D01*
Y68341D01*
X250328Y68013D02*
X250984Y68669D01*
Y68341D02*
X250656Y68669D01*
X250984Y70636D02*
Y69324D01*
X249672Y70636D01*
X249344D01*
X249016Y70308D01*
Y69652D01*
X249344Y69324D01*
X250984Y71292D02*
X250656D01*
Y71620D01*
X250984D01*
Y71292D01*
Y72932D02*
Y73588D01*
Y73260D01*
X249016D01*
X249344Y72932D01*
X250656Y45046D02*
X249344D01*
X249016Y44719D01*
Y44063D01*
X249344Y43735D01*
X250656D01*
X250984Y44063D01*
Y44719D01*
X250328Y44391D02*
X250984Y45046D01*
Y44719D02*
X250656Y45046D01*
X249344Y45702D02*
X249016Y46031D01*
Y46686D01*
X249344Y47014D01*
X249672D01*
X250000Y46686D01*
Y46358D01*
Y46686D01*
X250328Y47014D01*
X250656D01*
X250984Y46686D01*
Y46031D01*
X250656Y45702D01*
X250984Y47670D02*
X250656D01*
Y47998D01*
X250984D01*
Y47670D01*
Y49310D02*
Y49966D01*
Y49638D01*
X249016D01*
X249344Y49310D01*
X250656Y35204D02*
X249344D01*
X249016Y34876D01*
Y34220D01*
X249344Y33892D01*
X250656D01*
X250984Y34220D01*
Y34876D01*
X250328Y34548D02*
X250984Y35204D01*
Y34876D02*
X250656Y35204D01*
X250984Y36844D02*
X249016D01*
X250000Y35860D01*
Y37172D01*
X250984Y37828D02*
X250656D01*
Y38156D01*
X250984D01*
Y37828D01*
Y39468D02*
Y40124D01*
Y39796D01*
X249016D01*
X249344Y39468D01*
X318700Y156431D02*
X319028Y156103D01*
X319684D01*
X320012Y156431D01*
Y157743D01*
X319684Y158071D01*
X319028D01*
X318700Y157743D01*
X318044Y158071D02*
X317388D01*
X317716D01*
Y156103D01*
X318044Y156431D01*
X316404Y156103D02*
X315092D01*
Y156431D01*
X316404Y157743D01*
Y158071D01*
X314436D02*
Y157743D01*
X314108D01*
Y158071D01*
X314436D01*
X311484D02*
X312796D01*
X311484Y156759D01*
Y156431D01*
X311812Y156103D01*
X312468D01*
X312796Y156431D01*
X353282Y79593D02*
X352954Y79921D01*
X352298D01*
X351970Y79593D01*
Y78281D01*
X352298Y77953D01*
X352954D01*
X353282Y78281D01*
X353938Y77953D02*
X354594D01*
X354266D01*
Y79921D01*
X353938Y79593D01*
X355577Y79921D02*
X356889D01*
Y79593D01*
X355577Y78281D01*
Y77953D01*
X357545D02*
Y78281D01*
X357873D01*
Y77953D01*
X357545D01*
X359185D02*
X359841D01*
X359513D01*
Y79921D01*
X359185Y79593D01*
X365419Y121063D02*
Y119095D01*
X364436D01*
X364107Y119423D01*
Y120079D01*
X364436Y120407D01*
X365419D01*
X364763D02*
X364107Y121063D01*
X362140Y119095D02*
X362796Y119423D01*
X363452Y120079D01*
Y120735D01*
X363124Y121063D01*
X362468D01*
X362140Y120735D01*
Y120407D01*
X362468Y120079D01*
X363452D01*
X307809Y115158D02*
Y117126D01*
X308793D01*
X309121Y116798D01*
Y116142D01*
X308793Y115814D01*
X307809D01*
X308465D02*
X309121Y115158D01*
X309777Y116798D02*
X310105Y117126D01*
X310761D01*
X311089Y116798D01*
Y116470D01*
X310761Y116142D01*
X310433D01*
X310761D01*
X311089Y115814D01*
Y115486D01*
X310761Y115158D01*
X310105D01*
X309777Y115486D01*
X377855Y132087D02*
Y134055D01*
X378839D01*
X379167Y133727D01*
Y133071D01*
X378839Y132743D01*
X377855D01*
X378511D02*
X379167Y132087D01*
X379823D02*
X380479D01*
X380151D01*
Y134055D01*
X379823Y133727D01*
X381463D02*
X381791Y134055D01*
X382447D01*
X382775Y133727D01*
Y132415D01*
X382447Y132087D01*
X381791D01*
X381463Y132415D01*
Y133727D01*
X370144Y121063D02*
Y119095D01*
X369160D01*
X368832Y119423D01*
Y120079D01*
X369160Y120407D01*
X370144D01*
X369488D02*
X368832Y121063D01*
X368176Y119423D02*
X367848Y119095D01*
X367192D01*
X366864Y119423D01*
Y119751D01*
X367192Y120079D01*
X366864Y120407D01*
Y120735D01*
X367192Y121063D01*
X367848D01*
X368176Y120735D01*
Y120407D01*
X367848Y120079D01*
X368176Y119751D01*
Y119423D01*
X367848Y120079D02*
X367192D01*
X299803Y107612D02*
X297835D01*
Y108596D01*
X298163Y108924D01*
X298819D01*
X299147Y108596D01*
Y107612D01*
Y108268D02*
X299803Y108924D01*
X297835Y109580D02*
Y110892D01*
X298163D01*
X299475Y109580D01*
X299803D01*
X385860Y117585D02*
X385532Y117913D01*
X384876D01*
X384548Y117585D01*
Y116273D01*
X384876Y115945D01*
X385532D01*
X385860Y116273D01*
X386516Y115945D02*
X387172D01*
X386844D01*
Y117913D01*
X386516Y117585D01*
X389140Y115945D02*
Y117913D01*
X388156Y116929D01*
X389468D01*
X384613Y157743D02*
X384285Y158071D01*
X383629D01*
X383301Y157743D01*
Y156431D01*
X383629Y156103D01*
X384285D01*
X384613Y156431D01*
X385269Y156103D02*
X385925D01*
X385597D01*
Y158071D01*
X385269Y157743D01*
X386909Y156103D02*
X387565D01*
X387237D01*
Y158071D01*
X386909Y157743D01*
X384187Y132087D02*
Y134055D01*
X385171D01*
X385499Y133727D01*
Y133071D01*
X385171Y132743D01*
X384187D01*
X384843D02*
X385499Y132087D01*
X386155Y132415D02*
X386483Y132087D01*
X387139D01*
X387467Y132415D01*
Y133727D01*
X387139Y134055D01*
X386483D01*
X386155Y133727D01*
Y133399D01*
X386483Y133071D01*
X387467D01*
X388845Y128084D02*
X389173Y128411D01*
Y129068D01*
X388845Y129395D01*
X387533D01*
X387205Y129068D01*
Y128411D01*
X387533Y128084D01*
X387205Y126116D02*
Y127428D01*
X388517Y126116D01*
X388845D01*
X389173Y126444D01*
Y127100D01*
X388845Y127428D01*
X389173Y124148D02*
Y125460D01*
X388189D01*
X388517Y124804D01*
Y124476D01*
X388189Y124148D01*
X387533D01*
X387205Y124476D01*
Y125132D01*
X387533Y125460D01*
X384154Y97441D02*
X384810D01*
X384482D01*
Y95473D01*
X384154D01*
X384810D01*
X387106Y97113D02*
X386778Y97441D01*
X386122D01*
X385794Y97113D01*
Y95801D01*
X386122Y95473D01*
X386778D01*
X387106Y95801D01*
X389074Y95473D02*
X387762D01*
X389074Y96785D01*
Y97113D01*
X388746Y97441D01*
X388090D01*
X387762Y97113D01*
X388386Y140485D02*
X390354D01*
Y139501D01*
X390026Y139173D01*
X389370D01*
X389042Y139501D01*
Y140485D01*
X390026Y137205D02*
X390354Y137533D01*
Y138189D01*
X390026Y138517D01*
X389698D01*
X389370Y138189D01*
Y137533D01*
X389042Y137205D01*
X388714D01*
X388386Y137533D01*
Y138189D01*
X388714Y138517D01*
X388386Y136549D02*
Y135893D01*
Y136221D01*
X390354D01*
X390026Y136549D01*
X384154Y91930D02*
Y93897D01*
X385138D01*
X385466Y93569D01*
Y92913D01*
X385138Y92585D01*
X384154D01*
X384810D02*
X385466Y91930D01*
X386122D02*
X386778D01*
X386450D01*
Y93897D01*
X386122Y93569D01*
X387762D02*
X388090Y93897D01*
X388746D01*
X389074Y93569D01*
Y93241D01*
X388746Y92913D01*
X389074Y92585D01*
Y92257D01*
X388746Y91930D01*
X388090D01*
X387762Y92257D01*
Y92585D01*
X388090Y92913D01*
X387762Y93241D01*
Y93569D01*
X388090Y92913D02*
X388746D01*
X371261Y86811D02*
Y88779D01*
X372245D01*
X372573Y88451D01*
Y87795D01*
X372245Y87467D01*
X371261D01*
X371917D02*
X372573Y86811D01*
X373229D02*
X373885D01*
X373556D01*
Y88779D01*
X373229Y88451D01*
X374868Y87139D02*
X375196Y86811D01*
X375852D01*
X376180Y87139D01*
Y88451D01*
X375852Y88779D01*
X375196D01*
X374868Y88451D01*
Y88123D01*
X375196Y87795D01*
X376180D01*
X214404Y232939D02*
X214076Y233267D01*
X213420D01*
X213092Y232939D01*
Y231627D01*
X213420Y231299D01*
X214076D01*
X214404Y231627D01*
X216371Y233267D02*
X215716Y232939D01*
X215059Y232283D01*
Y231627D01*
X215388Y231299D01*
X216043D01*
X216371Y231627D01*
Y231956D01*
X216043Y232283D01*
X215059D01*
X217027Y231299D02*
Y231627D01*
X217355D01*
Y231299D01*
X217027D01*
X219979D02*
X218667D01*
X219979Y232611D01*
Y232939D01*
X219651Y233267D01*
X218995D01*
X218667Y232939D01*
X214732Y4593D02*
X214404Y4921D01*
X213748D01*
X213420Y4593D01*
Y3281D01*
X213748Y2953D01*
X214404D01*
X214732Y3281D01*
X216699Y4921D02*
X216043Y4593D01*
X215388Y3937D01*
Y3281D01*
X215716Y2953D01*
X216371D01*
X216699Y3281D01*
Y3609D01*
X216371Y3937D01*
X215388D01*
X217355Y2953D02*
Y3281D01*
X217683D01*
Y2953D01*
X217355D01*
X218995D02*
X219651D01*
X219323D01*
Y4921D01*
X218995Y4593D01*
X375163Y145407D02*
X375491Y145079D01*
X376147D01*
X376475Y145407D01*
Y146719D01*
X376147Y147047D01*
X375491D01*
X375163Y146719D01*
X374507Y145407D02*
X374179Y145079D01*
X373523D01*
X373195Y145407D01*
Y145735D01*
X373523Y146063D01*
X373851D01*
X373523D01*
X373195Y146391D01*
Y146719D01*
X373523Y147047D01*
X374179D01*
X374507Y146719D01*
X371227Y145079D02*
X372539D01*
Y146063D01*
X371883Y145735D01*
X371555D01*
X371227Y146063D01*
Y146719D01*
X371555Y147047D01*
X372211D01*
X372539Y146719D01*
X370571Y147047D02*
Y146719D01*
X370243D01*
Y147047D01*
X370571D01*
X367619D02*
X368931D01*
X367619Y145735D01*
Y145407D01*
X367948Y145079D01*
X368603D01*
X368931Y145407D01*
X318439Y29002D02*
X318111Y29330D01*
X317455D01*
X317127Y29002D01*
Y27691D01*
X317455Y27362D01*
X318111D01*
X318439Y27691D01*
X319095Y27362D02*
X319751D01*
X319423D01*
Y29330D01*
X319095Y29002D01*
X320735Y27362D02*
Y27691D01*
X321063D01*
Y27362D01*
X320735D01*
X322375D02*
X323030D01*
X322703D01*
Y29330D01*
X322375Y29002D01*
X299811Y131684D02*
X301779D01*
Y130700D01*
X301451Y130372D01*
X300795D01*
X300467Y130700D01*
Y131684D01*
Y131028D02*
X299811Y130372D01*
X301451Y129716D02*
X301779Y129388D01*
Y128732D01*
X301451Y128404D01*
X301123D01*
X300795Y128732D01*
Y129060D01*
Y128732D01*
X300467Y128404D01*
X300139D01*
X299811Y128732D01*
Y129388D01*
X300139Y129716D01*
X301451Y127748D02*
X301779Y127420D01*
Y126764D01*
X301451Y126436D01*
X300139D01*
X299811Y126764D01*
Y127420D01*
X300139Y127748D01*
X301451D01*
X299811Y125780D02*
X300139D01*
Y125452D01*
X299811D01*
Y125780D01*
Y122828D02*
Y124140D01*
X301123Y122828D01*
X301451D01*
X301779Y123156D01*
Y123812D01*
X301451Y124140D01*
X359415Y119423D02*
X359743Y119095D01*
X360399D01*
X360727Y119423D01*
Y120735D01*
X360399Y121063D01*
X359743D01*
X359415Y120735D01*
X357447Y121063D02*
X358759D01*
X357447Y119751D01*
Y119423D01*
X357775Y119095D01*
X358431D01*
X358759Y119423D01*
X355479Y119095D02*
X356135Y119423D01*
X356791Y120079D01*
Y120735D01*
X356463Y121063D01*
X355807D01*
X355479Y120735D01*
Y120407D01*
X355807Y120079D01*
X356791D01*
X354823Y121063D02*
Y120735D01*
X354495D01*
Y121063D01*
X354823D01*
X351871D02*
X353183D01*
X351871Y119751D01*
Y119423D01*
X352200Y119095D01*
X352855D01*
X353183Y119423D01*
X319265Y119513D02*
X319593Y119185D01*
X320249D01*
X320577Y119513D01*
Y120825D01*
X320249Y121153D01*
X319593D01*
X319265Y120825D01*
X317298Y121153D02*
X318609D01*
X317298Y119841D01*
Y119513D01*
X317625Y119185D01*
X318282D01*
X318609Y119513D01*
X315658Y121153D02*
Y119185D01*
X316642Y120169D01*
X315330D01*
X314674Y121153D02*
Y120825D01*
X314346D01*
Y121153D01*
X314674D01*
X311722D02*
X313034D01*
X311722Y119841D01*
Y119513D01*
X312050Y119185D01*
X312706D01*
X313034Y119513D01*
X309021Y119423D02*
X309349Y119095D01*
X310005D01*
X310333Y119423D01*
Y120735D01*
X310005Y121063D01*
X309349D01*
X309021Y120735D01*
X307053Y121063D02*
X308365D01*
X307053Y119751D01*
Y119423D01*
X307381Y119095D01*
X308037D01*
X308365Y119423D01*
X306398D02*
X306069Y119095D01*
X305414D01*
X305086Y119423D01*
Y119751D01*
X305414Y120079D01*
X305742D01*
X305414D01*
X305086Y120407D01*
Y120735D01*
X305414Y121063D01*
X306069D01*
X306398Y120735D01*
X304430Y121063D02*
Y120735D01*
X304102D01*
Y121063D01*
X304430D01*
X301478D02*
X302790D01*
X301478Y119751D01*
Y119423D01*
X301806Y119095D01*
X302462D01*
X302790Y119423D01*
X308234Y156431D02*
X308562Y156103D01*
X309218D01*
X309546Y156431D01*
Y157743D01*
X309218Y158071D01*
X308562D01*
X308234Y157743D01*
X306266Y158071D02*
X307578D01*
X306266Y156759D01*
Y156431D01*
X306594Y156103D01*
X307250D01*
X307578Y156431D01*
X304298Y158071D02*
X305610D01*
X304298Y156759D01*
Y156431D01*
X304626Y156103D01*
X305282D01*
X305610Y156431D01*
X303642Y158071D02*
Y157743D01*
X303314D01*
Y158071D01*
X303642D01*
X300690D02*
X302002D01*
X300690Y156759D01*
Y156431D01*
X301018Y156103D01*
X301674D01*
X302002Y156431D01*
X374025Y142397D02*
X374353Y142725D01*
Y143381D01*
X374025Y143709D01*
X372713D01*
X372385Y143381D01*
Y142725D01*
X372713Y142397D01*
X372385Y140429D02*
Y141741D01*
X373697Y140429D01*
X374025D01*
X374353Y140757D01*
Y141413D01*
X374025Y141741D01*
X372385Y139773D02*
Y139117D01*
Y139445D01*
X374353D01*
X374025Y139773D01*
X372385Y138133D02*
X372713D01*
Y137805D01*
X372385D01*
Y138133D01*
Y135181D02*
Y136493D01*
X373697Y135181D01*
X374025D01*
X374353Y135509D01*
Y136165D01*
X374025Y136493D01*
X299811Y153534D02*
X301779D01*
Y152550D01*
X301451Y152222D01*
X300795D01*
X300467Y152550D01*
Y153534D01*
Y152878D02*
X299811Y152222D01*
Y150255D02*
Y151567D01*
X301123Y150255D01*
X301451D01*
X301779Y150583D01*
Y151239D01*
X301451Y151567D01*
X299811Y149599D02*
X300139D01*
Y149271D01*
X299811D01*
Y149599D01*
Y146647D02*
Y147959D01*
X301123Y146647D01*
X301451D01*
X301779Y146975D01*
Y147631D01*
X301451Y147959D01*
X220966Y70571D02*
Y72539D01*
X221950D01*
X222277Y72211D01*
Y71555D01*
X221950Y71227D01*
X220966D01*
X221621D02*
X222277Y70571D01*
X222933D02*
X223589D01*
X223261D01*
Y72539D01*
X222933Y72211D01*
X224573Y70571D02*
Y70899D01*
X224901D01*
Y70571D01*
X224573D01*
X226213D02*
X226869D01*
X226541D01*
Y72539D01*
X226213Y72211D01*
X250656Y197474D02*
X249344D01*
X249016Y197146D01*
Y196491D01*
X249344Y196162D01*
X250656D01*
X250984Y196491D01*
Y197146D01*
X250328Y196818D02*
X250984Y197474D01*
Y197146D02*
X250656Y197474D01*
X250984Y199114D02*
X249016D01*
X250000Y198130D01*
Y199442D01*
X250984Y200098D02*
X250656D01*
Y200426D01*
X250984D01*
Y200098D01*
Y203050D02*
Y201738D01*
X249672Y203050D01*
X249344D01*
X249016Y202722D01*
Y202066D01*
X249344Y201738D01*
X250656Y187238D02*
X249344D01*
X249016Y186910D01*
Y186254D01*
X249344Y185926D01*
X250656D01*
X250984Y186254D01*
Y186910D01*
X250328Y186582D02*
X250984Y187238D01*
Y186910D02*
X250656Y187238D01*
X249344Y187894D02*
X249016Y188222D01*
Y188878D01*
X249344Y189206D01*
X249672D01*
X250000Y188878D01*
Y188550D01*
Y188878D01*
X250328Y189206D01*
X250656D01*
X250984Y188878D01*
Y188222D01*
X250656Y187894D01*
X250984Y189862D02*
X250656D01*
Y190190D01*
X250984D01*
Y189862D01*
Y192814D02*
Y191502D01*
X249672Y192814D01*
X249344D01*
X249016Y192486D01*
Y191830D01*
X249344Y191502D01*
X250656Y164010D02*
X249344D01*
X249016Y163682D01*
Y163026D01*
X249344Y162698D01*
X250656D01*
X250984Y163026D01*
Y163682D01*
X250328Y163354D02*
X250984Y164010D01*
Y163682D02*
X250656Y164010D01*
X250984Y165978D02*
Y164666D01*
X249672Y165978D01*
X249344D01*
X249016Y165650D01*
Y164994D01*
X249344Y164666D01*
X250984Y166634D02*
X250656D01*
Y166962D01*
X250984D01*
Y166634D01*
Y169586D02*
Y168274D01*
X249672Y169586D01*
X249344D01*
X249016Y169257D01*
Y168602D01*
X249344Y168274D01*
X250656Y221260D02*
X249344D01*
X249016Y220933D01*
Y220277D01*
X249344Y219949D01*
X250656D01*
X250984Y220277D01*
Y220933D01*
X250328Y220604D02*
X250984Y221260D01*
Y220933D02*
X250656Y221260D01*
X250984Y221916D02*
Y222572D01*
Y222244D01*
X249016D01*
X249344Y221916D01*
X250984Y223556D02*
X250656D01*
Y223884D01*
X250984D01*
Y223556D01*
Y226508D02*
Y225196D01*
X249672Y226508D01*
X249344D01*
X249016Y226180D01*
Y225524D01*
X249344Y225196D01*
X348202Y117217D02*
X347546D01*
X347874D01*
Y119185D01*
X348202D01*
X347546D01*
X345250Y117545D02*
X345578Y117217D01*
X346234D01*
X346562Y117545D01*
Y118857D01*
X346234Y119185D01*
X345578D01*
X345250Y118857D01*
X344594Y119185D02*
X343938D01*
X344266D01*
Y117217D01*
X344594Y117545D01*
X342954Y119185D02*
Y118857D01*
X342627D01*
Y119185D01*
X342954D01*
X340003D02*
X341315D01*
X340003Y117873D01*
Y117545D01*
X340331Y117217D01*
X340987D01*
X341315Y117545D01*
X363975Y145407D02*
X364303Y145079D01*
X364959D01*
X365287Y145407D01*
Y146719D01*
X364959Y147047D01*
X364303D01*
X363975Y146719D01*
X363319Y147047D02*
X362664D01*
X362991D01*
Y145079D01*
X363319Y145407D01*
X361680D02*
X361352Y145079D01*
X360696D01*
X360368Y145407D01*
Y145735D01*
X360696Y146063D01*
X360368Y146391D01*
Y146719D01*
X360696Y147047D01*
X361352D01*
X361680Y146719D01*
Y146391D01*
X361352Y146063D01*
X361680Y145735D01*
Y145407D01*
X361352Y146063D02*
X360696D01*
X359712Y147047D02*
Y146719D01*
X359384D01*
Y147047D01*
X359712D01*
X356760D02*
X358072D01*
X356760Y145735D01*
Y145407D01*
X357088Y145079D01*
X357744D01*
X358072Y145407D01*
X332514Y199475D02*
X332186Y199803D01*
X331530D01*
X331202Y199475D01*
Y198163D01*
X331530Y197835D01*
X332186D01*
X332514Y198163D01*
X333170Y199475D02*
X333498Y199803D01*
X334154D01*
X334482Y199475D01*
Y199147D01*
X334154Y198819D01*
X334482Y198491D01*
Y198163D01*
X334154Y197835D01*
X333498D01*
X333170Y198163D01*
Y198491D01*
X333498Y198819D01*
X333170Y199147D01*
Y199475D01*
X333498Y198819D02*
X334154D01*
X335138Y197835D02*
Y198163D01*
X335466D01*
Y197835D01*
X335138D01*
X338089D02*
X336777D01*
X338089Y199147D01*
Y199475D01*
X337761Y199803D01*
X337105D01*
X336777Y199475D01*
X266274Y172329D02*
X265946Y172657D01*
X265290D01*
X264962Y172329D01*
Y171017D01*
X265290Y170689D01*
X265946D01*
X266274Y171017D01*
X268242Y172657D02*
X266930D01*
Y171673D01*
X267586Y172001D01*
X267914D01*
X268242Y171673D01*
Y171017D01*
X267914Y170689D01*
X267258D01*
X266930Y171017D01*
X268898Y170689D02*
Y171017D01*
X269226D01*
Y170689D01*
X268898D01*
X271849D02*
X270537D01*
X271849Y172001D01*
Y172329D01*
X271521Y172657D01*
X270865D01*
X270537Y172329D01*
X277888Y172329D02*
X277560Y172657D01*
X276904D01*
X276576Y172329D01*
Y171017D01*
X276904Y170689D01*
X277560D01*
X277888Y171017D01*
X279528Y170689D02*
Y172657D01*
X278544Y171673D01*
X279856D01*
X280512Y170689D02*
Y171017D01*
X280840D01*
Y170689D01*
X280512D01*
X283464D02*
X282152D01*
X283464Y172001D01*
Y172329D01*
X283136Y172657D01*
X282480D01*
X282152Y172329D01*
X289108D02*
X288780Y172657D01*
X288124D01*
X287796Y172329D01*
Y171017D01*
X288124Y170689D01*
X288780D01*
X289108Y171017D01*
X289764Y172329D02*
X290092Y172657D01*
X290748D01*
X291076Y172329D01*
Y172001D01*
X290748Y171673D01*
X290420D01*
X290748D01*
X291076Y171345D01*
Y171017D01*
X290748Y170689D01*
X290092D01*
X289764Y171017D01*
X291732Y170689D02*
Y171017D01*
X292060D01*
Y170689D01*
X291732D01*
X294684D02*
X293372D01*
X294684Y172001D01*
Y172329D01*
X294356Y172657D01*
X293700D01*
X293372Y172329D01*
X300526D02*
X300198Y172657D01*
X299542D01*
X299214Y172329D01*
Y171017D01*
X299542Y170689D01*
X300198D01*
X300526Y171017D01*
X302494Y170689D02*
X301182D01*
X302494Y172001D01*
Y172329D01*
X302166Y172657D01*
X301510D01*
X301182Y172329D01*
X303150Y170689D02*
Y171017D01*
X303477D01*
Y170689D01*
X303150D01*
X306101D02*
X304789D01*
X306101Y172001D01*
Y172329D01*
X305773Y172657D01*
X305117D01*
X304789Y172329D01*
X332842Y38058D02*
X332514Y38385D01*
X331858D01*
X331530Y38058D01*
Y36746D01*
X331858Y36418D01*
X332514D01*
X332842Y36746D01*
X333498Y38058D02*
X333826Y38385D01*
X334482D01*
X334810Y38058D01*
Y37730D01*
X334482Y37402D01*
X334810Y37074D01*
Y36746D01*
X334482Y36418D01*
X333826D01*
X333498Y36746D01*
Y37074D01*
X333826Y37402D01*
X333498Y37730D01*
Y38058D01*
X333826Y37402D02*
X334482D01*
X335466Y36418D02*
Y36746D01*
X335794D01*
Y36418D01*
X335466D01*
X337105D02*
X337761D01*
X337434D01*
Y38385D01*
X337105Y38058D01*
X309187Y90617D02*
X308859Y90945D01*
X308203D01*
X307875Y90617D01*
Y89305D01*
X308203Y88977D01*
X308859D01*
X309187Y89305D01*
X309843Y88977D02*
X310499D01*
X310171D01*
Y90945D01*
X309843Y90617D01*
X311483D02*
X311811Y90945D01*
X312467D01*
X312795Y90617D01*
Y90289D01*
X312467Y89961D01*
X312795Y89633D01*
Y89305D01*
X312467Y88977D01*
X311811D01*
X311483Y89305D01*
Y89633D01*
X311811Y89961D01*
X311483Y90289D01*
Y90617D01*
X311811Y89961D02*
X312467D01*
X313451Y88977D02*
Y89305D01*
X313779D01*
Y88977D01*
X313451D01*
X315091D02*
X315747D01*
X315419D01*
Y90945D01*
X315091Y90617D01*
X299181Y116798D02*
X298853Y117126D01*
X298197D01*
X297869Y116798D01*
Y115486D01*
X298197Y115158D01*
X298853D01*
X299181Y115486D01*
X301149Y115158D02*
X299837D01*
X301149Y116470D01*
Y116798D01*
X300821Y117126D01*
X300165D01*
X299837Y116798D01*
X301804D02*
X302133Y117126D01*
X302788D01*
X303116Y116798D01*
Y115486D01*
X302788Y115158D01*
X302133D01*
X301804Y115486D01*
Y116798D01*
X303772Y115158D02*
Y115486D01*
X304100D01*
Y115158D01*
X303772D01*
X305412D02*
X306068D01*
X305740D01*
Y117126D01*
X305412Y116798D01*
X324189Y118988D02*
X324845D01*
X324517D01*
Y117020D01*
X324189D01*
X324845D01*
X327141Y118660D02*
X326813Y118988D01*
X326157D01*
X325829Y118660D01*
Y117348D01*
X326157Y117020D01*
X326813D01*
X327141Y117348D01*
X327797Y117020D02*
X328453D01*
X328125D01*
Y118988D01*
X327797Y118660D01*
X329436Y117020D02*
Y117348D01*
X329765D01*
Y117020D01*
X329436D01*
X331076D02*
X331732D01*
X331404D01*
Y118988D01*
X331076Y118660D01*
X221326Y196851D02*
Y198819D01*
X222310D01*
X222638Y198491D01*
Y197835D01*
X222310Y197507D01*
X221326D01*
X221983D02*
X222638Y196851D01*
X223294D02*
X223950D01*
X223622D01*
Y198819D01*
X223294Y198491D01*
X224934Y196851D02*
Y197179D01*
X225262D01*
Y196851D01*
X224934D01*
X227886D02*
X226574D01*
X227886Y198163D01*
Y198491D01*
X227558Y198819D01*
X226902D01*
X226574Y198491D01*
X370900Y77953D02*
Y79921D01*
X371884D01*
X372212Y79593D01*
Y78937D01*
X371884Y78609D01*
X370900D01*
X371556D02*
X372212Y77953D01*
X374180D02*
X372868D01*
X374180Y79265D01*
Y79593D01*
X373852Y79921D01*
X373196D01*
X372868Y79593D01*
X374836Y77953D02*
Y78281D01*
X375164D01*
Y77953D01*
X374836D01*
X376476D02*
X377132D01*
X376804D01*
Y79921D01*
X376476Y79593D01*
X298171Y94120D02*
X297843Y93792D01*
Y93136D01*
X298171Y92808D01*
X299483D01*
X299811Y93136D01*
Y93792D01*
X299483Y94120D01*
X299811Y96088D02*
Y94776D01*
X298499Y96088D01*
X298171D01*
X297843Y95760D01*
Y95104D01*
X298171Y94776D01*
X299811Y96744D02*
Y97400D01*
Y97072D01*
X297843D01*
X298171Y96744D01*
X299811Y98384D02*
X299483D01*
Y98712D01*
X299811D01*
Y98384D01*
Y100024D02*
Y100680D01*
Y100352D01*
X297843D01*
X298171Y100024D01*
X362574Y79684D02*
X362246Y80011D01*
X361591D01*
X361262Y79684D01*
Y78372D01*
X361591Y78044D01*
X362246D01*
X362574Y78372D01*
X364542Y78044D02*
X363230D01*
X364542Y79356D01*
Y79684D01*
X364214Y80011D01*
X363558D01*
X363230Y79684D01*
X366510Y78044D02*
X365198D01*
X366510Y79356D01*
Y79684D01*
X366182Y80011D01*
X365526D01*
X365198Y79684D01*
X367166Y78044D02*
Y78372D01*
X367494D01*
Y78044D01*
X367166D01*
X368806D02*
X369462D01*
X369134D01*
Y80011D01*
X368806Y79684D01*
X362960Y116601D02*
X362632Y116929D01*
X361976D01*
X361648Y116601D01*
Y115289D01*
X361976Y114961D01*
X362632D01*
X362960Y115289D01*
X364928Y114961D02*
X363616D01*
X364928Y116273D01*
Y116601D01*
X364600Y116929D01*
X363944D01*
X363616Y116601D01*
X365584D02*
X365912Y116929D01*
X366568D01*
X366896Y116601D01*
Y116273D01*
X366568Y115945D01*
X366240D01*
X366568D01*
X366896Y115617D01*
Y115289D01*
X366568Y114961D01*
X365912D01*
X365584Y115289D01*
X367552Y114961D02*
Y115289D01*
X367880D01*
Y114961D01*
X367552D01*
X369192D02*
X369848D01*
X369520D01*
Y116929D01*
X369192Y116601D01*
X353126Y116691D02*
X352798Y117019D01*
X352142D01*
X351814Y116691D01*
Y115380D01*
X352142Y115051D01*
X352798D01*
X353126Y115380D01*
X355093Y115051D02*
X353782D01*
X355093Y116363D01*
Y116691D01*
X354766Y117019D01*
X354110D01*
X353782Y116691D01*
X356733Y115051D02*
Y117019D01*
X355749Y116035D01*
X357061D01*
X357717Y115051D02*
Y115380D01*
X358045D01*
Y115051D01*
X357717D01*
X359357D02*
X360013D01*
X359685D01*
Y117019D01*
X359357Y116691D01*
X313748Y116798D02*
X313420Y117126D01*
X312764D01*
X312436Y116798D01*
Y115486D01*
X312764Y115158D01*
X313420D01*
X313748Y115486D01*
X315716Y115158D02*
X314404D01*
X315716Y116470D01*
Y116798D01*
X315388Y117126D01*
X314732D01*
X314404Y116798D01*
X317683Y117126D02*
X317027Y116798D01*
X316371Y116142D01*
Y115486D01*
X316699Y115158D01*
X317355D01*
X317683Y115486D01*
Y115814D01*
X317355Y116142D01*
X316371D01*
X318339Y115158D02*
Y115486D01*
X318667D01*
Y115158D01*
X318339D01*
X319979D02*
X320635D01*
X320307D01*
Y117126D01*
X319979Y116798D01*
X366339Y102722D02*
X368307D01*
Y101738D01*
X367979Y101410D01*
X367323D01*
X366995Y101738D01*
Y102722D01*
Y102066D02*
X366339Y101410D01*
X367979Y100754D02*
X368307Y100426D01*
Y99770D01*
X367979Y99442D01*
X367651D01*
X367323Y99770D01*
Y100098D01*
Y99770D01*
X366995Y99442D01*
X366667D01*
X366339Y99770D01*
Y100426D01*
X366667Y100754D01*
X367979Y98786D02*
X368307Y98458D01*
Y97802D01*
X367979Y97474D01*
X366667D01*
X366339Y97802D01*
Y98458D01*
X366667Y98786D01*
X367979D01*
X366339Y96818D02*
X366667D01*
Y96490D01*
X366339D01*
Y96818D01*
Y95178D02*
Y94522D01*
Y94850D01*
X368307D01*
X367979Y95178D01*
X318111Y209317D02*
X317783Y209645D01*
X317127D01*
X316799Y209317D01*
Y208005D01*
X317127Y207678D01*
X317783D01*
X318111Y208005D01*
X318767Y207678D02*
X319423D01*
X319095D01*
Y209645D01*
X318767Y209317D01*
X320407Y207678D02*
Y208005D01*
X320735D01*
Y207678D01*
X320407D01*
X323358D02*
X322047D01*
X323358Y208989D01*
Y209317D01*
X323030Y209645D01*
X322375D01*
X322047Y209317D01*
X299574Y90617D02*
X299246Y90945D01*
X298590D01*
X298263Y90617D01*
Y89305D01*
X298590Y88977D01*
X299246D01*
X299574Y89305D01*
X300230Y90617D02*
X300558Y90945D01*
X301214D01*
X301542Y90617D01*
Y90289D01*
X301214Y89961D01*
X300886D01*
X301214D01*
X301542Y89633D01*
Y89305D01*
X301214Y88977D01*
X300558D01*
X300230Y89305D01*
X303510Y90945D02*
X302198D01*
Y89961D01*
X302854Y90289D01*
X303182D01*
X303510Y89961D01*
Y89305D01*
X303182Y88977D01*
X302526D01*
X302198Y89305D01*
X304166Y88977D02*
Y89305D01*
X304494D01*
Y88977D01*
X304166D01*
X305806D02*
X306462D01*
X306134D01*
Y90945D01*
X305806Y90617D01*
X96063Y185530D02*
X98031D01*
Y184546D01*
X97703Y184218D01*
X97047D01*
X96719Y184546D01*
Y185530D01*
Y184874D02*
X96063Y184218D01*
Y182250D02*
Y183562D01*
X97375Y182250D01*
X97703D01*
X98031Y182578D01*
Y183234D01*
X97703Y183562D01*
X98031Y180282D02*
Y181594D01*
X97047D01*
X97375Y180938D01*
Y180610D01*
X97047Y180282D01*
X96391D01*
X96063Y180610D01*
Y181266D01*
X96391Y181594D01*
X96063Y179626D02*
X96391D01*
Y179298D01*
X96063D01*
Y179626D01*
Y176675D02*
Y177987D01*
X97375Y176675D01*
X97703D01*
X98031Y177003D01*
Y177659D01*
X97703Y177987D01*
X95867Y81856D02*
X97834D01*
Y80872D01*
X97506Y80544D01*
X96850D01*
X96522Y80872D01*
Y81856D01*
Y81200D02*
X95867Y80544D01*
Y78576D02*
Y79888D01*
X97178Y78576D01*
X97506D01*
X97834Y78904D01*
Y79560D01*
X97506Y79888D01*
X97834Y76608D02*
Y77920D01*
X96850D01*
X97178Y77264D01*
Y76936D01*
X96850Y76608D01*
X96194D01*
X95867Y76936D01*
Y77592D01*
X96194Y77920D01*
X95867Y75952D02*
X96194D01*
Y75624D01*
X95867D01*
Y75952D01*
Y74312D02*
Y73656D01*
Y73984D01*
X97834D01*
X97506Y74312D01*
X85965Y185609D02*
X87933D01*
Y184625D01*
X87605Y184297D01*
X86949D01*
X86621Y184625D01*
Y185609D01*
Y184953D02*
X85965Y184297D01*
Y182329D02*
Y183641D01*
X87277Y182329D01*
X87605D01*
X87933Y182657D01*
Y183313D01*
X87605Y183641D01*
X85965Y180689D02*
X87933D01*
X86949Y181673D01*
Y180361D01*
X85965Y179705D02*
X86293D01*
Y179377D01*
X85965D01*
Y179705D01*
Y176753D02*
Y178065D01*
X87277Y176753D01*
X87605D01*
X87933Y177081D01*
Y177737D01*
X87605Y178065D01*
X86024Y81856D02*
X87992D01*
Y80872D01*
X87664Y80544D01*
X87008D01*
X86680Y80872D01*
Y81856D01*
Y81200D02*
X86024Y80544D01*
Y78576D02*
Y79888D01*
X87336Y78576D01*
X87664D01*
X87992Y78904D01*
Y79560D01*
X87664Y79888D01*
X86024Y76936D02*
X87992D01*
X87008Y77920D01*
Y76608D01*
X86024Y75952D02*
X86352D01*
Y75624D01*
X86024D01*
Y75952D01*
Y74312D02*
Y73656D01*
Y73984D01*
X87992D01*
X87664Y74312D01*
X80971Y221096D02*
X79659D01*
X79331Y220768D01*
Y220113D01*
X79659Y219785D01*
X80971D01*
X81299Y220113D01*
Y220768D01*
X80643Y220441D02*
X81299Y221096D01*
Y220768D02*
X80971Y221096D01*
X79331Y223064D02*
X79659Y222408D01*
X80315Y221752D01*
X80971D01*
X81299Y222080D01*
Y222736D01*
X80971Y223064D01*
X80643D01*
X80315Y222736D01*
Y221752D01*
X81299Y223720D02*
X80971D01*
Y224048D01*
X81299D01*
Y223720D01*
Y226672D02*
Y225360D01*
X79987Y226672D01*
X79659D01*
X79331Y226344D01*
Y225688D01*
X79659Y225360D01*
X81711Y117995D02*
X80399D01*
X80071Y117667D01*
Y117011D01*
X80399Y116683D01*
X81711D01*
X82039Y117011D01*
Y117667D01*
X81383Y117339D02*
X82039Y117995D01*
Y117667D02*
X81711Y117995D01*
X80071Y119963D02*
X80399Y119307D01*
X81055Y118651D01*
X81711D01*
X82039Y118979D01*
Y119635D01*
X81711Y119963D01*
X81383D01*
X81055Y119635D01*
Y118651D01*
X82039Y120619D02*
X81711D01*
Y120947D01*
X82039D01*
Y120619D01*
Y122259D02*
Y122915D01*
Y122587D01*
X80071D01*
X80399Y122259D01*
X79068Y183234D02*
X80380D01*
X80708Y183562D01*
Y184218D01*
X80380Y184546D01*
X79068D01*
X78741Y184218D01*
Y183562D01*
X79396Y183890D02*
X78741Y183234D01*
Y183562D02*
X79068Y183234D01*
X80708Y181266D02*
Y182578D01*
X79724D01*
X80052Y181922D01*
Y181594D01*
X79724Y181266D01*
X79068D01*
X78741Y181594D01*
Y182250D01*
X79068Y182578D01*
X78741Y180610D02*
X79068D01*
Y180282D01*
X78741D01*
Y180610D01*
Y177659D02*
Y178971D01*
X80052Y177659D01*
X80380D01*
X80708Y177987D01*
Y178642D01*
X80380Y178971D01*
X79068Y76607D02*
X80380D01*
X80708Y76935D01*
Y77591D01*
X80380Y77919D01*
X79068D01*
X78741Y77591D01*
Y76935D01*
X79396Y77263D02*
X78741Y76607D01*
Y76935D02*
X79068Y76607D01*
X80708Y74639D02*
Y75951D01*
X79724D01*
X80052Y75295D01*
Y74967D01*
X79724Y74639D01*
X79068D01*
X78741Y74967D01*
Y75623D01*
X79068Y75951D01*
X78741Y73983D02*
X79068D01*
Y73655D01*
X78741D01*
Y73983D01*
Y72343D02*
Y71687D01*
Y72015D01*
X80708D01*
X80380Y72343D01*
X83138Y215551D02*
X83794D01*
X83466D01*
Y213583D01*
X83138D01*
X83794D01*
X86090Y215223D02*
X85762Y215551D01*
X85106D01*
X84778Y215223D01*
Y213911D01*
X85106Y213583D01*
X85762D01*
X86090Y213911D01*
X87730Y213583D02*
Y215551D01*
X86746Y214567D01*
X88058D01*
X88714Y213583D02*
Y213911D01*
X89042D01*
Y213583D01*
X88714D01*
X91665D02*
X90353D01*
X91665Y214895D01*
Y215223D01*
X91337Y215551D01*
X90681D01*
X90353Y215223D01*
X81497Y111614D02*
X82153D01*
X81825D01*
Y109646D01*
X81497D01*
X82153D01*
X84449Y111286D02*
X84121Y111614D01*
X83465D01*
X83137Y111286D01*
Y109974D01*
X83465Y109646D01*
X84121D01*
X84449Y109974D01*
X86089Y109646D02*
Y111614D01*
X85105Y110630D01*
X86417D01*
X87073Y109646D02*
Y109974D01*
X87401D01*
Y109646D01*
X87073D01*
X88713D02*
X89369D01*
X89041D01*
Y111614D01*
X88713Y111286D01*
X77593Y232939D02*
X77265Y233267D01*
X76609D01*
X76281Y232939D01*
Y231627D01*
X76609Y231299D01*
X77265D01*
X77593Y231627D01*
X79561Y231299D02*
X78249D01*
X79561Y232611D01*
Y232939D01*
X79233Y233267D01*
X78577D01*
X78249Y232939D01*
X80217Y231627D02*
X80545Y231299D01*
X81201D01*
X81529Y231627D01*
Y232939D01*
X81201Y233267D01*
X80545D01*
X80217Y232939D01*
Y232611D01*
X80545Y232283D01*
X81529D01*
X82185Y231299D02*
Y231627D01*
X82512D01*
Y231299D01*
X82185D01*
X85136D02*
X83824D01*
X85136Y232611D01*
Y232939D01*
X84808Y233267D01*
X84152D01*
X83824Y232939D01*
X89200Y126936D02*
X88872Y127263D01*
X88217D01*
X87888Y126936D01*
Y125624D01*
X88217Y125296D01*
X88872D01*
X89200Y125624D01*
X91168Y125296D02*
X89856D01*
X91168Y126608D01*
Y126936D01*
X90840Y127263D01*
X90184D01*
X89856Y126936D01*
X91824Y125624D02*
X92152Y125296D01*
X92808D01*
X93136Y125624D01*
Y126936D01*
X92808Y127263D01*
X92152D01*
X91824Y126936D01*
Y126608D01*
X92152Y126279D01*
X93136D01*
X93792Y125296D02*
Y125624D01*
X94120D01*
Y125296D01*
X93792D01*
X95432D02*
X96088D01*
X95760D01*
Y127263D01*
X95432Y126936D01*
X92526Y184100D02*
X92854Y184428D01*
Y185084D01*
X92526Y185412D01*
X91214D01*
X90886Y185084D01*
Y184428D01*
X91214Y184100D01*
X90886Y182132D02*
Y183444D01*
X92198Y182132D01*
X92526D01*
X92854Y182460D01*
Y183116D01*
X92526Y183444D01*
Y181476D02*
X92854Y181148D01*
Y180492D01*
X92526Y180164D01*
X92198D01*
X91870Y180492D01*
X91542Y180164D01*
X91214D01*
X90886Y180492D01*
Y181148D01*
X91214Y181476D01*
X91542D01*
X91870Y181148D01*
X92198Y181476D01*
X92526D01*
X91870Y181148D02*
Y180492D01*
X90886Y179508D02*
X91214D01*
Y179180D01*
X90886D01*
Y179508D01*
Y176557D02*
Y177868D01*
X92198Y176557D01*
X92526D01*
X92854Y176884D01*
Y177541D01*
X92526Y177868D01*
X92585Y80544D02*
X92913Y80872D01*
Y81528D01*
X92585Y81856D01*
X91273D01*
X90945Y81528D01*
Y80872D01*
X91273Y80544D01*
X90945Y78576D02*
Y79888D01*
X92257Y78576D01*
X92585D01*
X92913Y78904D01*
Y79560D01*
X92585Y79888D01*
Y77920D02*
X92913Y77592D01*
Y76936D01*
X92585Y76608D01*
X92257D01*
X91929Y76936D01*
X91601Y76608D01*
X91273D01*
X90945Y76936D01*
Y77592D01*
X91273Y77920D01*
X91601D01*
X91929Y77592D01*
X92257Y77920D01*
X92585D01*
X91929Y77592D02*
Y76936D01*
X90945Y75952D02*
X91273D01*
Y75624D01*
X90945D01*
Y75952D01*
Y74312D02*
Y73656D01*
Y73984D01*
X92913D01*
X92585Y74312D01*
X103018Y184218D02*
X103346Y184546D01*
Y185202D01*
X103018Y185530D01*
X101706D01*
X101378Y185202D01*
Y184546D01*
X101706Y184218D01*
X101378Y182250D02*
Y183562D01*
X102690Y182250D01*
X103018D01*
X103346Y182578D01*
Y183234D01*
X103018Y183562D01*
X103346Y181594D02*
Y180282D01*
X103018D01*
X101706Y181594D01*
X101378D01*
Y179627D02*
X101706D01*
Y179298D01*
X101378D01*
Y179627D01*
Y176675D02*
Y177987D01*
X102690Y176675D01*
X103018D01*
X103346Y177003D01*
Y177659D01*
X103018Y177987D01*
X102428Y80544D02*
X102756Y80872D01*
Y81528D01*
X102428Y81856D01*
X101116D01*
X100788Y81528D01*
Y80872D01*
X101116Y80544D01*
X100788Y78576D02*
Y79888D01*
X102100Y78576D01*
X102428D01*
X102756Y78904D01*
Y79560D01*
X102428Y79888D01*
X102756Y77920D02*
Y76608D01*
X102428D01*
X101116Y77920D01*
X100788D01*
Y75952D02*
X101116D01*
Y75624D01*
X100788D01*
Y75952D01*
Y74312D02*
Y73656D01*
Y73984D01*
X102756D01*
X102428Y74312D01*
X59055Y172244D02*
X58399D01*
X58727D01*
Y170604D01*
X58399Y170276D01*
X58071D01*
X57743Y170604D01*
X59711Y170276D02*
X60367D01*
X60039D01*
Y172244D01*
X59711Y171916D01*
M02*
