G04*
G04 #@! TF.GenerationSoftware,Altium Limited,Altium Designer,22.9.1 (49)*
G04*
G04 Layer_Physical_Order=1*
G04 Layer_Color=255*
%FSLAX25Y25*%
%MOIN*%
G70*
G04*
G04 #@! TF.SameCoordinates,58640E65-FB78-4378-B78F-6D08F657F38D*
G04*
G04*
G04 #@! TF.FilePolarity,Positive*
G04*
G01*
G75*
%ADD21R,0.03858X0.03071*%
%ADD22R,0.06004X0.02559*%
%ADD23R,0.03071X0.03858*%
%ADD24R,0.05906X0.01713*%
%ADD25R,0.20787X0.25000*%
%ADD26R,0.22008X0.20984*%
%ADD27R,0.10709X0.04016*%
%ADD28R,0.07480X0.04724*%
%ADD29R,0.01339X0.03150*%
%ADD30R,0.01339X0.03937*%
%ADD31R,0.09016X0.06732*%
%ADD32R,0.01339X0.01968*%
%ADD33R,0.03937X0.03740*%
%ADD34R,0.05610X0.01772*%
%ADD35R,0.03622X0.11102*%
%ADD36R,0.01772X0.05807*%
%ADD37R,0.03937X0.03347*%
%ADD38R,0.05709X0.01772*%
%ADD39R,0.12008X0.29764*%
%ADD40R,0.07165X0.04016*%
%ADD41R,0.03347X0.03937*%
%ADD42R,0.07717X0.05039*%
%ADD43R,0.03701X0.02126*%
%ADD44R,0.09843X0.10080*%
%ADD45R,0.04016X0.07165*%
%ADD46R,0.02559X0.04921*%
%ADD71R,0.01968X0.04331*%
%ADD79C,0.03150*%
%ADD81R,0.17362X0.17913*%
%ADD82R,0.12598X0.04331*%
%ADD83C,0.01000*%
%ADD84C,0.00591*%
%ADD85C,0.03937*%
%ADD86C,0.07874*%
%ADD87R,0.05020X0.05020*%
%ADD88C,0.05020*%
%ADD89C,0.06319*%
%ADD90C,0.06398*%
%ADD91R,0.05020X0.05020*%
%ADD92C,0.02756*%
%ADD93C,0.23622*%
G36*
X250807Y221130D02*
Y214429D01*
X258484D01*
Y208976D01*
X260842D01*
X260870Y208955D01*
X261624Y208643D01*
X261713Y208554D01*
Y207723D01*
X261994Y206672D01*
X262264Y206205D01*
Y202227D01*
X262015Y202160D01*
X261923Y202107D01*
X261496Y201890D01*
X261496Y201890D01*
X261496Y201890D01*
X252087D01*
Y201890D01*
X250807D01*
Y194731D01*
X250789Y194726D01*
X249846Y194182D01*
X249076Y193412D01*
X248532Y192469D01*
X248250Y191418D01*
Y190330D01*
X248479Y189476D01*
X248181Y188976D01*
X236221D01*
X235827Y189370D01*
Y189422D01*
X235545Y190474D01*
X235001Y191416D01*
X234231Y192186D01*
X233289Y192730D01*
X232237Y193012D01*
X232185D01*
X232087Y193110D01*
Y198031D01*
X227165D01*
X217126Y208071D01*
Y214350D01*
X189606D01*
Y209291D01*
X188976Y208661D01*
Y177165D01*
X192913Y173228D01*
X216535D01*
Y137795D01*
X164197Y137795D01*
X164197Y215384D01*
X170443Y221630D01*
X227018Y221630D01*
Y218159D01*
X237549D01*
Y221630D01*
X250778D01*
X250807Y221130D01*
D02*
G37*
G36*
X100394Y216535D02*
X89784D01*
Y230630D01*
X89567D01*
Y232283D01*
X100394D01*
Y216535D01*
D02*
G37*
G36*
X86614Y225718D02*
X86198Y225440D01*
X86067Y225495D01*
X85216Y225607D01*
X84367Y225495D01*
X83574Y225167D01*
X82894Y224645D01*
X82372Y223965D01*
X82044Y223173D01*
X81932Y222323D01*
Y216483D01*
X59003D01*
X56073Y213554D01*
X56043D01*
Y213524D01*
X55118Y212598D01*
Y201483D01*
X55068Y201444D01*
X55068Y201444D01*
X54608Y200984D01*
X54574D01*
X53522Y200703D01*
X52580Y200158D01*
X51810Y199389D01*
X51266Y198446D01*
X50984Y197395D01*
Y196306D01*
X51266Y195255D01*
X51810Y194312D01*
X52580Y193543D01*
X53522Y192998D01*
X54574Y192717D01*
X55118D01*
Y186286D01*
X54618Y186019D01*
X53983Y186443D01*
X52907Y186889D01*
X51764Y187116D01*
X50599D01*
X49456Y186889D01*
X48379Y186443D01*
X47410Y185795D01*
X46654Y185039D01*
X45866D01*
X45109Y185795D01*
X44141Y186443D01*
X43064Y186889D01*
X41921Y187116D01*
X40756D01*
X39613Y186889D01*
X38537Y186443D01*
X37568Y185795D01*
X36812Y185039D01*
X36023D01*
X35267Y185795D01*
X34298Y186443D01*
X33222Y186889D01*
X32079Y187116D01*
X30913D01*
X29771Y186889D01*
X28694Y186443D01*
X27725Y185795D01*
X26969Y185039D01*
X26180D01*
X25424Y185795D01*
X24455Y186443D01*
X23379Y186889D01*
X22236Y187116D01*
X21071D01*
X19928Y186889D01*
X18852Y186443D01*
X17883Y185795D01*
X17127Y185039D01*
X16338D01*
X15582Y185795D01*
X14613Y186443D01*
X13536Y186889D01*
X12394Y187116D01*
X11228D01*
X10086Y186889D01*
X9009Y186443D01*
X8040Y185795D01*
X7284Y185039D01*
X3937D01*
Y220472D01*
X15748Y232283D01*
X25796D01*
X25941Y231805D01*
X25661Y231618D01*
X24386Y230343D01*
X23384Y228844D01*
X22694Y227178D01*
X22343Y225409D01*
Y223606D01*
X22694Y221838D01*
X23384Y220172D01*
X24386Y218673D01*
X25661Y217398D01*
X27160Y216396D01*
X28826Y215706D01*
X30595Y215354D01*
X32398D01*
X34166Y215706D01*
X35832Y216396D01*
X37331Y217398D01*
X38606Y218673D01*
X39608Y220172D01*
X40298Y221838D01*
X40650Y223606D01*
Y225409D01*
X40298Y227178D01*
X39608Y228844D01*
X38606Y230343D01*
X37331Y231618D01*
X37051Y231805D01*
X37196Y232283D01*
X86614D01*
Y225718D01*
D02*
G37*
G36*
X354331Y212598D02*
X348864D01*
X348702Y212879D01*
X347721Y213859D01*
X346521Y214553D01*
X345181Y214911D01*
X343795D01*
X342456Y214553D01*
X341255Y213859D01*
X340275Y212879D01*
X340113Y212598D01*
X266957D01*
X265434Y214121D01*
X265335Y214198D01*
Y218425D01*
X261496D01*
Y218425D01*
X257953D01*
X251969Y224410D01*
X169291Y224409D01*
X161417Y216535D01*
X161417Y137795D01*
X110236Y137795D01*
X82677Y165354D01*
X70866D01*
X56833Y179388D01*
X56869Y179475D01*
X57096Y180618D01*
Y181783D01*
X56869Y182926D01*
X56480Y183867D01*
X56508Y183879D01*
X56760Y184072D01*
X57018Y184257D01*
X57047Y184292D01*
X57084Y184320D01*
X57277Y184573D01*
X57479Y184818D01*
X57498Y184860D01*
X57525Y184896D01*
X57647Y185189D01*
X57778Y185479D01*
X57786Y185524D01*
X57803Y185566D01*
X57845Y185881D01*
X57896Y186195D01*
X57892Y186240D01*
X57898Y186286D01*
Y192717D01*
X58070Y192913D01*
X68836D01*
X69028Y192451D01*
X65788Y189212D01*
X65266Y188532D01*
X64938Y187740D01*
X64826Y186890D01*
X64938Y186040D01*
X65266Y185248D01*
X65788Y184568D01*
X66468Y184046D01*
X67260Y183718D01*
X68110Y183606D01*
X68960Y183718D01*
X69752Y184046D01*
X70432Y184568D01*
X75575Y189710D01*
X75811Y189741D01*
X76603Y190069D01*
X77283Y190591D01*
X78043Y191352D01*
X78543Y191145D01*
Y190401D01*
X78825Y189349D01*
X79369Y188407D01*
X80139Y187637D01*
X81082Y187093D01*
X82133Y186811D01*
X82224D01*
Y185020D01*
X86634D01*
X103307Y168347D01*
Y165847D01*
X105807D01*
X106299Y165354D01*
X125984D01*
X126476Y165847D01*
X129606D01*
Y168976D01*
X129921Y169291D01*
Y224410D01*
X140551Y235039D01*
X354331D01*
Y212598D01*
D02*
G37*
G36*
X345448Y211962D02*
X346015Y211635D01*
X346507Y211142D01*
X346898Y210633D01*
X347474Y210191D01*
X348144Y209913D01*
X348864Y209819D01*
X354331D01*
Y159449D01*
X351145D01*
X351048Y159937D01*
X350569Y160653D01*
X349853Y161132D01*
X349008Y161300D01*
X348208Y161141D01*
X347628Y161897D01*
X346764Y162560D01*
X345759Y162976D01*
X344679Y163118D01*
X343600Y162976D01*
X342595Y162560D01*
X341731Y161897D01*
X341069Y161034D01*
X340652Y160028D01*
X340576Y159449D01*
X331474D01*
X331398Y160028D01*
X330981Y161034D01*
X330318Y161897D01*
X329455Y162560D01*
X328449Y162976D01*
X327370Y163118D01*
X326291Y162976D01*
X325285Y162560D01*
X324422Y161897D01*
X323759Y161034D01*
X323670Y161007D01*
X323483Y161132D01*
X322638Y161300D01*
X321793Y161132D01*
X321077Y160653D01*
X320598Y159937D01*
X320501Y159449D01*
X300394D01*
X288189Y147244D01*
Y88583D01*
X300394Y76378D01*
X321145D01*
X321482Y75874D01*
X322198Y75395D01*
X323043Y75227D01*
X323683Y75355D01*
X323759Y75171D01*
X324422Y74308D01*
X325285Y73645D01*
X326291Y73229D01*
X327370Y73086D01*
X328449Y73229D01*
X329455Y73645D01*
X330318Y74308D01*
X330981Y75171D01*
X331398Y76177D01*
X331424Y76378D01*
X340639D01*
X340666Y76177D01*
X341082Y75171D01*
X341745Y74308D01*
X342608Y73645D01*
X343614Y73229D01*
X344693Y73086D01*
X345772Y73229D01*
X346778Y73645D01*
X347641Y74308D01*
X348304Y75171D01*
X348380Y75356D01*
X349020Y75228D01*
X349865Y75397D01*
X350581Y75875D01*
X350917Y76378D01*
X354331D01*
Y26402D01*
X348864D01*
X348144Y26307D01*
X347474Y26029D01*
X346898Y25588D01*
X346507Y25078D01*
X346015Y24586D01*
X345448Y24258D01*
X344815Y24089D01*
X344161D01*
X343529Y24258D01*
X342962Y24586D01*
X342469Y25078D01*
X342078Y25588D01*
X341502Y26029D01*
X340832Y26307D01*
X340113Y26402D01*
X339740D01*
X338583Y27559D01*
X312835D01*
Y27795D01*
X266559D01*
Y29291D01*
X266464Y30011D01*
X266187Y30681D01*
X265745Y31257D01*
X265335Y31572D01*
Y38721D01*
X256083D01*
Y42598D01*
X253587D01*
Y45256D01*
X260059D01*
Y41378D01*
X263760D01*
Y43052D01*
X263779Y43068D01*
X264624Y43236D01*
X265341Y43714D01*
X265819Y44431D01*
X265987Y45276D01*
X265819Y46121D01*
X265341Y46837D01*
X265335Y46841D01*
Y51315D01*
X265711Y51645D01*
X265740Y51641D01*
X266819Y51783D01*
X267825Y52200D01*
X268689Y52862D01*
X269351Y53726D01*
X269768Y54731D01*
X269818Y55118D01*
X307087D01*
X308384Y56416D01*
X312402D01*
Y50756D01*
X327756D01*
Y66348D01*
X312402D01*
Y65984D01*
X304735D01*
X304724Y65986D01*
X295426D01*
X265108Y96303D01*
Y102707D01*
X258705D01*
X243608Y117804D01*
X243660Y118201D01*
X243629Y118438D01*
X258705Y133514D01*
X265108D01*
Y139917D01*
X296016Y170825D01*
X304626D01*
X304637Y170827D01*
X312402D01*
Y170660D01*
X327756D01*
Y186252D01*
X312402D01*
Y180395D01*
X307794D01*
X307087Y181102D01*
X266559D01*
Y181850D01*
X266464Y182570D01*
X266187Y183240D01*
X265745Y183816D01*
X265335Y184131D01*
Y191358D01*
X256083D01*
Y195236D01*
X253587D01*
Y197894D01*
X260059D01*
Y194016D01*
X263760D01*
Y196130D01*
X264456Y196268D01*
X265172Y196747D01*
X265651Y197463D01*
X265819Y198308D01*
X265651Y199153D01*
X265335Y199626D01*
Y203786D01*
X265711Y204116D01*
X265846Y204098D01*
X266926Y204240D01*
X267931Y204657D01*
X268795Y205319D01*
X269457Y206183D01*
X269874Y207189D01*
X270016Y208268D01*
X270014Y208285D01*
X270343Y208661D01*
X338583D01*
X339740Y209819D01*
X340113D01*
X340832Y209913D01*
X341502Y210191D01*
X342078Y210633D01*
X342469Y211142D01*
X342962Y211635D01*
X343529Y211962D01*
X344161Y212132D01*
X344815D01*
X345448Y211962D01*
D02*
G37*
G36*
X73248Y211979D02*
Y205286D01*
X76707D01*
X76884Y204786D01*
X75737Y203639D01*
X75453Y203213D01*
X75424Y203067D01*
X74456Y202100D01*
X70866D01*
X70364Y202000D01*
X69938Y201716D01*
X69653Y201290D01*
X69554Y200787D01*
X69653Y200285D01*
X69938Y199859D01*
X70364Y199575D01*
X70866Y199475D01*
X75000D01*
X75502Y199575D01*
X75928Y199859D01*
X76520Y200451D01*
X76982Y200259D01*
Y199579D01*
X74844Y197441D01*
X63217D01*
X62717Y197441D01*
Y204134D01*
X59055D01*
Y211979D01*
X72748D01*
X73248Y211979D01*
D02*
G37*
G36*
X214346Y208071D02*
X214346Y208071D01*
X214441Y207351D01*
X214719Y206681D01*
X215160Y206105D01*
X225200Y196066D01*
X225776Y195624D01*
X226446Y195346D01*
X227165Y195252D01*
X229307D01*
Y193110D01*
X229307Y193110D01*
X229402Y192391D01*
X229554Y192023D01*
X229703Y191543D01*
X229168Y191133D01*
X228820Y191242D01*
X228665Y191361D01*
X228563Y192135D01*
X228256Y192877D01*
X227767Y193515D01*
X227129Y194004D01*
X226387Y194311D01*
X225590Y194416D01*
X224794Y194311D01*
X224052Y194004D01*
X223414Y193515D01*
X222925Y192877D01*
X222618Y192135D01*
X222513Y191339D01*
Y190945D01*
X192913D01*
Y211571D01*
X214346D01*
Y208071D01*
D02*
G37*
G36*
X222584Y182928D02*
X222618Y182668D01*
X222925Y181926D01*
X223414Y181288D01*
X224052Y180799D01*
X224794Y180492D01*
X225590Y180387D01*
X226387Y180492D01*
X227129Y180799D01*
X227524Y181102D01*
X228346D01*
X229803Y182559D01*
X229995Y182411D01*
X230737Y182103D01*
X231534Y181999D01*
X231534Y181999D01*
X231715D01*
X232512Y182103D01*
X233254Y182411D01*
X233892Y182900D01*
X234381Y183537D01*
X234688Y184280D01*
X234793Y185076D01*
X234688Y185872D01*
X234568Y186161D01*
X234619Y186240D01*
X234963Y186514D01*
X235501Y186291D01*
X236221Y186197D01*
X248181D01*
X248523Y186242D01*
X248865Y186282D01*
X248882Y186289D01*
X248901Y186291D01*
X249219Y186423D01*
X249539Y186551D01*
X249554Y186562D01*
X249571Y186569D01*
X249845Y186779D01*
X250121Y186985D01*
X250132Y186999D01*
X250147Y187011D01*
X250350Y187275D01*
X250789Y187022D01*
X251840Y186740D01*
X252928D01*
X253980Y187022D01*
X254211Y187155D01*
X254646Y187362D01*
X254646Y187362D01*
X254646Y187362D01*
X262264D01*
Y181850D01*
X263779D01*
Y180354D01*
X262264D01*
Y174823D01*
X257658D01*
Y180276D01*
X253321D01*
X253115Y180331D01*
X252027D01*
X251821Y180276D01*
X250807D01*
Y179952D01*
X250033Y179505D01*
X249263Y178735D01*
X248719Y177793D01*
X248437Y176741D01*
Y175653D01*
X248719Y174601D01*
X249263Y173659D01*
X250033Y172889D01*
X250807Y172442D01*
Y170827D01*
Y162579D01*
Y159449D01*
X253284D01*
X253475Y158987D01*
X232283Y137795D01*
X219315D01*
Y173228D01*
X219220Y173948D01*
X218943Y174618D01*
X218501Y175194D01*
X217925Y175636D01*
X217255Y175913D01*
X216535Y176008D01*
X194065D01*
X192913Y177159D01*
Y188976D01*
X216535D01*
X222584Y182928D01*
D02*
G37*
G36*
X297963Y176703D02*
X239370Y118110D01*
X297963Y59517D01*
X297772Y59055D01*
X268342D01*
X268278Y59118D01*
X267336Y59663D01*
X266962Y59763D01*
X266937Y59823D01*
X266415Y60503D01*
X265335Y61583D01*
Y65787D01*
X261496D01*
Y65787D01*
X253587D01*
Y68504D01*
Y76247D01*
X253669Y76446D01*
X253750Y77059D01*
X253856Y77456D01*
X254008Y77718D01*
X254286Y78389D01*
X254380Y79108D01*
X254286Y79828D01*
X254008Y80498D01*
X253566Y81074D01*
X251969Y82671D01*
Y82677D01*
X236221Y98425D01*
X236214D01*
X234249Y100391D01*
X233673Y100832D01*
X233003Y101110D01*
X232283Y101205D01*
X149606D01*
X148887Y101110D01*
X148216Y100832D01*
X147546Y101110D01*
X146827Y101205D01*
X115331D01*
X107805Y108730D01*
X107774Y108964D01*
X107446Y109756D01*
X106924Y110436D01*
X106924Y110436D01*
X103173Y114187D01*
Y124016D01*
X103079Y124735D01*
X102801Y125406D01*
X102618Y125644D01*
Y126713D01*
X101023D01*
X100394Y126795D01*
X90492D01*
X89863Y126713D01*
X89823D01*
X74803Y141732D01*
X74797D01*
X72832Y143698D01*
X72256Y144140D01*
X71586Y144417D01*
X70866Y144512D01*
X3937D01*
Y165354D01*
X7481D01*
X8040Y164795D01*
X9009Y164148D01*
X10086Y163702D01*
X11228Y163474D01*
X12394D01*
X13536Y163702D01*
X14613Y164148D01*
X15582Y164795D01*
X16141Y165354D01*
X17323D01*
X17883Y164795D01*
X18852Y164148D01*
X19928Y163702D01*
X21071Y163474D01*
X22236D01*
X23379Y163702D01*
X24455Y164148D01*
X25424Y164795D01*
X25984Y165354D01*
X27166D01*
X27725Y164795D01*
X28694Y164148D01*
X29771Y163702D01*
X30913Y163474D01*
X32079D01*
X33222Y163702D01*
X34298Y164148D01*
X35267Y164795D01*
X35826Y165354D01*
X37008D01*
X37568Y164795D01*
X38537Y164148D01*
X39613Y163702D01*
X40756Y163474D01*
X41921D01*
X43064Y163702D01*
X44141Y164148D01*
X45109Y164795D01*
X45669Y165354D01*
X46851D01*
X47410Y164795D01*
X48379Y164148D01*
X49456Y163702D01*
X50599Y163474D01*
X51764D01*
X52907Y163702D01*
X53983Y164148D01*
X54952Y164795D01*
X55511Y165354D01*
X66935D01*
X68901Y163389D01*
X69476Y162947D01*
X70147Y162669D01*
X70866Y162575D01*
X81526D01*
X108271Y135830D01*
X108846Y135388D01*
X109517Y135110D01*
X110236Y135016D01*
X161417Y135016D01*
X162137Y135110D01*
X162807Y135388D01*
X163478Y135110D01*
X164197Y135016D01*
X216535Y135016D01*
X217255Y135110D01*
X217925Y135388D01*
X218596Y135110D01*
X219315Y135016D01*
X232283D01*
X232283Y135016D01*
X233003Y135110D01*
X233673Y135388D01*
X234249Y135830D01*
X236215Y137795D01*
X236221D01*
X251969Y153543D01*
Y153549D01*
X255441Y157021D01*
X255552Y157166D01*
X255680Y157295D01*
X255771Y157452D01*
X255882Y157597D01*
X255952Y157765D01*
X256043Y157923D01*
X256090Y158099D01*
X256160Y158267D01*
X256184Y158448D01*
X256231Y158624D01*
Y158806D01*
X256255Y158987D01*
X256231Y159168D01*
Y159350D01*
X256184Y159526D01*
X256160Y159706D01*
X256090Y159875D01*
X256043Y160051D01*
X255852Y160513D01*
X255761Y160670D01*
X255691Y160839D01*
X255580Y160983D01*
X255489Y161141D01*
X255360Y161270D01*
X255249Y161414D01*
X255105Y161525D01*
X254976Y161654D01*
X254818Y161745D01*
X254674Y161856D01*
X254505Y161926D01*
X254347Y162017D01*
X254171Y162064D01*
X254003Y162134D01*
X253823Y162158D01*
X253647Y162205D01*
X253587D01*
Y170827D01*
X254646D01*
Y170827D01*
X264055D01*
Y170827D01*
X265335D01*
Y177165D01*
X297772D01*
X297963Y176703D01*
D02*
G37*
G36*
X392520Y217664D02*
Y159449D01*
Y157480D01*
X392520D01*
X392520Y105187D01*
X392020Y104980D01*
X391403Y105597D01*
Y108622D01*
X391772D01*
Y115000D01*
X388417D01*
Y135336D01*
X388317Y135838D01*
X388090Y136178D01*
Y140519D01*
X389115Y140794D01*
X390058Y141338D01*
X390828Y142107D01*
X391372Y143050D01*
X391653Y144101D01*
Y145190D01*
X391372Y146241D01*
X390828Y147184D01*
X390591Y147421D01*
Y157480D01*
Y157913D01*
X381063D01*
Y157480D01*
Y151476D01*
X377854D01*
Y141043D01*
X383169D01*
Y134350D01*
X385792D01*
Y132063D01*
X384752D01*
Y129528D01*
X383752D01*
Y132063D01*
X382283D01*
Y132579D01*
X372047D01*
Y132972D01*
X365748D01*
Y132335D01*
X361811D01*
Y132579D01*
X357368D01*
X356882Y133065D01*
X357349Y133533D01*
X357372Y133567D01*
X357793Y133988D01*
X360638D01*
Y133654D01*
X366937D01*
Y134169D01*
X368406D01*
Y136705D01*
X368905D01*
Y137205D01*
X371835D01*
Y138485D01*
X372244Y138567D01*
X372670Y138851D01*
X373369Y139550D01*
X373654Y139976D01*
X373754Y140479D01*
Y143528D01*
X373654Y144030D01*
X373369Y144456D01*
X370047Y147778D01*
X369621Y148063D01*
X369119Y148163D01*
X367998D01*
X365486Y150675D01*
Y156436D01*
X366080Y157030D01*
X366409Y157826D01*
Y157826D01*
Y158449D01*
Y158687D01*
X366094Y159449D01*
X366052D01*
X365926Y159637D01*
X365624Y159939D01*
X365270Y160176D01*
X364876Y160339D01*
X364457Y160422D01*
X364031D01*
X363613Y160339D01*
X363218Y160176D01*
X362959Y160002D01*
X362587Y160097D01*
X362355Y160137D01*
X362106Y160569D01*
X361776Y160999D01*
X361393Y161382D01*
X360963Y161712D01*
X360494Y161983D01*
X359741Y162295D01*
X358661Y162437D01*
X358644Y162435D01*
X358268Y162765D01*
Y166486D01*
X358768Y166656D01*
X359116Y166202D01*
X360020Y165508D01*
X361074Y165072D01*
X362205Y164923D01*
X363335Y165072D01*
X364389Y165508D01*
X365294Y166202D01*
X365988Y167107D01*
X366424Y168161D01*
X366573Y169291D01*
X366424Y170422D01*
X365988Y171476D01*
X365294Y172380D01*
X364389Y173074D01*
X363335Y173511D01*
X362205Y173660D01*
X361074Y173511D01*
X360020Y173074D01*
X359116Y172380D01*
X358768Y171927D01*
X358268Y172097D01*
Y228346D01*
X364961Y235039D01*
X375144D01*
X392520Y217664D01*
D02*
G37*
G36*
X320472Y158949D02*
Y158661D01*
X320717Y158071D01*
X320480Y157571D01*
X320480D01*
Y156350D01*
X315402D01*
Y152413D01*
X313827D01*
Y150005D01*
X313327Y149871D01*
X313150Y150176D01*
X312381Y150946D01*
X311438Y151490D01*
X310387Y151772D01*
X310353D01*
X310099Y152026D01*
X309793Y152764D01*
X309457Y153202D01*
Y157866D01*
X300306D01*
X300098Y158366D01*
X300681Y158949D01*
X320472Y158949D01*
D02*
G37*
G36*
X340070D02*
X340404Y158449D01*
X340233Y158036D01*
X340122Y157186D01*
X340122Y157186D01*
Y148967D01*
X340122Y148967D01*
X340233Y148117D01*
X340562Y147325D01*
X341083Y146645D01*
X341838Y145890D01*
X341937Y145814D01*
Y141626D01*
X343512D01*
Y138083D01*
Y135524D01*
Y132965D01*
Y130405D01*
Y127847D01*
Y125287D01*
Y122728D01*
X350622D01*
Y121571D01*
X353051D01*
Y124106D01*
X354051D01*
Y121571D01*
X355693D01*
Y121146D01*
X358161D01*
Y123819D01*
X359161D01*
Y121146D01*
X361630D01*
Y121571D01*
X364173D01*
Y118996D01*
X370472D01*
Y115003D01*
X370299Y114575D01*
X369972Y114575D01*
X367831D01*
Y112402D01*
X370392D01*
X370473Y112600D01*
X370799Y112600D01*
X381854D01*
X382244Y112211D01*
Y108622D01*
X388778D01*
Y105053D01*
X388878Y104551D01*
X389162Y104125D01*
X390248Y103039D01*
Y90235D01*
X388257Y88243D01*
X387795Y88435D01*
Y91831D01*
X382283D01*
Y97636D01*
X381529D01*
Y98049D01*
X381429Y98551D01*
X381145Y98977D01*
X380802Y99319D01*
X380906Y99569D01*
Y100431D01*
X380576Y101227D01*
X379967Y101836D01*
X379171Y102165D01*
X378309D01*
X377514Y101836D01*
X376905Y101227D01*
X376589Y100466D01*
X376403Y100443D01*
X376089Y100466D01*
X375783Y101204D01*
X375174Y101813D01*
X374379Y102143D01*
X373517D01*
X372721Y101813D01*
X372112Y101204D01*
X371782Y100408D01*
Y99547D01*
X372112Y98751D01*
X372721Y98142D01*
X372861Y98084D01*
X373031Y97636D01*
X373031Y97636D01*
X373031Y97636D01*
Y89467D01*
X374752D01*
X374944Y89005D01*
X373277Y87338D01*
X372992Y86912D01*
X372894Y86417D01*
X372047D01*
Y87500D01*
X370472D01*
Y92224D01*
X367091D01*
X367069Y92279D01*
Y103142D01*
X370480D01*
Y108803D01*
X370480Y108850D01*
X370299Y109275D01*
X370299Y109350D01*
Y111402D01*
X364362D01*
X364362Y109275D01*
X364181Y108850D01*
X364181Y108803D01*
Y107309D01*
X360100D01*
X359598Y107209D01*
X359172Y106924D01*
X357812Y105564D01*
X356583D01*
Y108831D01*
X351583D01*
Y110823D01*
X353051D01*
Y112886D01*
Y114949D01*
X350701D01*
Y113476D01*
X343512D01*
Y109343D01*
Y106783D01*
Y104225D01*
X351104D01*
X351438Y103724D01*
X351378Y103580D01*
Y103316D01*
X351302Y103240D01*
X343512D01*
Y99697D01*
X341937D01*
Y92413D01*
Y90391D01*
X341838Y90314D01*
X341083Y89560D01*
X340562Y88880D01*
X340233Y88088D01*
X340122Y87238D01*
X340122Y87238D01*
Y79019D01*
X340122Y79018D01*
X340233Y78168D01*
X340486Y77559D01*
X340229Y77059D01*
X331834D01*
X331577Y77559D01*
X331830Y78168D01*
X331942Y79018D01*
X331942Y79019D01*
Y87238D01*
X331942Y87238D01*
X331830Y88088D01*
X331502Y88880D01*
X330980Y89560D01*
X330225Y90314D01*
X330126Y90391D01*
Y94579D01*
X328551D01*
Y99106D01*
Y101665D01*
Y104225D01*
Y106783D01*
Y109343D01*
Y113476D01*
X321433D01*
Y114543D01*
X319004D01*
Y112008D01*
X318004D01*
Y114543D01*
X316354D01*
Y114878D01*
X313886D01*
Y112205D01*
X312886D01*
Y114878D01*
X310417D01*
Y114543D01*
X307874D01*
Y117028D01*
X298425D01*
Y115157D01*
X297914D01*
X297118Y114828D01*
X296509Y114219D01*
X296179Y113423D01*
Y112561D01*
X296509Y111766D01*
X297118Y111156D01*
X297309Y111077D01*
Y106688D01*
X297409Y106186D01*
X297694Y105760D01*
X298280Y105174D01*
X298706Y104890D01*
X299208Y104790D01*
X300000D01*
Y103051D01*
X306299D01*
Y103779D01*
X310236D01*
Y103445D01*
X314679D01*
X315059Y103065D01*
X314210Y102217D01*
X311425D01*
Y102551D01*
X305126D01*
Y102035D01*
X303658D01*
Y99500D01*
X303157D01*
Y99000D01*
X300228D01*
Y97710D01*
X299865Y97638D01*
X299439Y97353D01*
X298853Y96768D01*
X298569Y96342D01*
X298469Y95839D01*
Y89383D01*
X297865Y88779D01*
X297601D01*
X296805Y88450D01*
X296196Y87841D01*
X295866Y87045D01*
Y86184D01*
X296196Y85388D01*
X296805Y84778D01*
X297601Y84449D01*
X298462D01*
X299258Y84778D01*
X299867Y85388D01*
X300197Y86184D01*
Y87045D01*
X300093Y87295D01*
X300710Y87911D01*
X300994Y88337D01*
X301094Y88840D01*
Y91272D01*
X305126D01*
Y90937D01*
X308184D01*
X308622Y90787D01*
Y88779D01*
X308381D01*
X307330Y88498D01*
X306387Y87954D01*
X305617Y87184D01*
X305073Y86241D01*
X304791Y85190D01*
Y84101D01*
X305073Y83050D01*
X305617Y82107D01*
X306387Y81338D01*
X307330Y80793D01*
X308381Y80512D01*
X308622D01*
Y78110D01*
X318150D01*
Y79764D01*
X320480D01*
Y78634D01*
X320746D01*
X321024Y78218D01*
X320878Y77866D01*
Y77059D01*
X300894D01*
X288976Y88976D01*
Y147244D01*
X299508Y157776D01*
X300008Y157569D01*
Y148614D01*
X301583D01*
Y143890D01*
X303412D01*
Y140726D01*
X302889Y140203D01*
X302559Y139407D01*
Y138546D01*
X302889Y137750D01*
X303412Y137227D01*
Y133063D01*
X301583D01*
Y127401D01*
X301583Y127354D01*
X301764Y126929D01*
X301764Y126854D01*
Y124803D01*
X304732D01*
X307701D01*
X307701Y126929D01*
X307882Y127354D01*
X307882Y127401D01*
Y128896D01*
X311963D01*
X312465Y128996D01*
X312891Y129280D01*
X314187Y130577D01*
X315480D01*
Y127374D01*
X320480D01*
Y125382D01*
X319012D01*
Y123319D01*
Y121256D01*
X321362D01*
Y122728D01*
X328551D01*
Y125287D01*
Y127847D01*
Y131980D01*
X320480D01*
X320436Y132008D01*
X320364Y132644D01*
X320685Y132965D01*
X328551D01*
Y136508D01*
X330126D01*
Y139067D01*
Y141626D01*
Y145814D01*
X330225Y145890D01*
X331062Y146727D01*
X331062Y146727D01*
X331584Y147407D01*
X331912Y148199D01*
X332024Y149049D01*
X332024Y149049D01*
Y157104D01*
X332024Y157104D01*
X331912Y157954D01*
X331707Y158449D01*
X331778Y158633D01*
X332034Y158949D01*
X340070D01*
D02*
G37*
G36*
X86614Y125984D02*
Y110236D01*
X75018D01*
X74952Y110264D01*
X74952Y110264D01*
X74952Y110264D01*
X74580Y110313D01*
X74232Y110358D01*
X73732Y110358D01*
X73732Y110358D01*
X73732Y110358D01*
X59842D01*
X59123Y110264D01*
X59057Y110236D01*
X59055D01*
X51181Y118110D01*
X3937D01*
Y141732D01*
X70866D01*
X86614Y125984D01*
D02*
G37*
G36*
X100394Y110467D02*
X102126Y108734D01*
Y107579D01*
X96711D01*
Y106824D01*
X95669D01*
X95167Y106725D01*
X94741Y106440D01*
X93813Y105512D01*
X93073D01*
X92277Y105182D01*
X91668Y104573D01*
X91339Y103777D01*
Y102916D01*
X91668Y102120D01*
X92277Y101511D01*
X93073Y101181D01*
X93935D01*
X94731Y101511D01*
X95340Y102120D01*
X95669Y102916D01*
Y103656D01*
X96211Y104197D01*
X96711Y104193D01*
Y100886D01*
X99088D01*
X99405Y100499D01*
X99384Y100394D01*
X99405Y100288D01*
X99088Y99902D01*
X96711D01*
Y95768D01*
X96211Y95768D01*
X93701D01*
Y95039D01*
X91864D01*
Y100394D01*
X91764Y100896D01*
X91479Y101322D01*
X89306Y103495D01*
X88880Y103780D01*
X88841Y103788D01*
Y108611D01*
X89021Y108846D01*
X89299Y109517D01*
X89376Y110098D01*
X90492D01*
Y114173D01*
Y124016D01*
X100394D01*
Y110467D01*
D02*
G37*
G36*
X74232Y107579D02*
Y100886D01*
X76957D01*
X77148Y100424D01*
X76722Y99997D01*
X76437Y99571D01*
X76337Y99069D01*
Y98666D01*
X75441Y97769D01*
X71850D01*
X71348Y97669D01*
X70922Y97385D01*
X70638Y96959D01*
X70538Y96457D01*
X70638Y95954D01*
X70922Y95529D01*
X71348Y95244D01*
X71850Y95144D01*
X75984D01*
X76487Y95244D01*
X76912Y95529D01*
X77228Y95845D01*
X77690Y95653D01*
Y93138D01*
X77217D01*
X77003Y93110D01*
X64201D01*
X63701Y93110D01*
Y99803D01*
X59842D01*
Y106339D01*
Y107579D01*
X73732D01*
X74232Y107579D01*
D02*
G37*
G36*
X146827Y51181D02*
X146921Y50462D01*
X147199Y49791D01*
X147641Y49216D01*
X148216Y48774D01*
X148887Y48496D01*
X149606Y48401D01*
Y27559D01*
X153543Y23622D01*
X175591D01*
Y23622D01*
X189606D01*
Y21890D01*
X217126D01*
Y23622D01*
X227908Y23622D01*
X228070Y23342D01*
X229050Y22361D01*
X230251Y21668D01*
X231590Y21309D01*
X232977D01*
X234316Y21668D01*
X235517Y22361D01*
X236497Y23342D01*
X236659Y23622D01*
X247412D01*
X247752Y23033D01*
X248521Y22263D01*
X249464Y21719D01*
X250516Y21437D01*
X250807D01*
Y18189D01*
X254646D01*
Y18189D01*
X264055D01*
Y18189D01*
X265335D01*
Y23347D01*
Y23622D01*
X340113D01*
X340275Y23342D01*
X341255Y22361D01*
X342456Y21668D01*
X343795Y21309D01*
X345181D01*
X346521Y21668D01*
X347721Y22361D01*
X348702Y23342D01*
X348864Y23622D01*
X354331D01*
Y1181D01*
X177165D01*
Y1181D01*
X140551D01*
X129921Y11811D01*
Y62992D01*
X129606Y63307D01*
Y70374D01*
X103307D01*
Y67429D01*
X102910Y67125D01*
X102906Y67126D01*
X101818D01*
X101083Y66929D01*
X83228D01*
X77539Y72618D01*
X77520D01*
Y85513D01*
X78244Y86238D01*
X78802Y86089D01*
X78825Y86003D01*
X79369Y85060D01*
X80139Y84290D01*
X81082Y83746D01*
X82133Y83465D01*
X82284D01*
Y81791D01*
X91732D01*
Y81791D01*
X92126D01*
Y81791D01*
X101575D01*
Y82520D01*
X106457D01*
Y86458D01*
X106924Y86926D01*
X106924Y86926D01*
X107446Y87606D01*
X107774Y88398D01*
X107886Y89248D01*
Y92138D01*
X114173Y98425D01*
X146827D01*
Y51181D01*
D02*
G37*
G36*
X251601Y79108D02*
X251266Y78529D01*
X250984Y77477D01*
Y77165D01*
X250807D01*
Y68504D01*
Y61791D01*
X258484D01*
Y56339D01*
X261229D01*
X261249Y56291D01*
X261606Y55825D01*
Y55266D01*
X261888Y54215D01*
X262362Y53394D01*
Y51181D01*
X149606D01*
Y98425D01*
X232283D01*
X251601Y79108D01*
D02*
G37*
G36*
X250807Y45256D02*
Y42446D01*
X250767Y42435D01*
X249824Y41891D01*
X249054Y41121D01*
X248510Y40178D01*
X248228Y39127D01*
Y38039D01*
X248510Y36987D01*
X249054Y36044D01*
X249824Y35275D01*
X250767Y34730D01*
X251818Y34449D01*
X252906D01*
X253935Y34724D01*
X254646D01*
Y34724D01*
X262362D01*
Y29291D01*
X263779D01*
Y27795D01*
X262362D01*
Y22185D01*
X257658D01*
Y27638D01*
X254640D01*
X254368Y28109D01*
X253598Y28879D01*
X252655Y29423D01*
X251604Y29705D01*
X250516D01*
X249464Y29423D01*
X248521Y28879D01*
X247752Y28109D01*
X247208Y27167D01*
X247003Y26402D01*
X237549D01*
Y27268D01*
X237190Y28607D01*
X236497Y29808D01*
X235517Y30788D01*
X234316Y31482D01*
X232977Y31841D01*
X231590D01*
X230251Y31482D01*
X229050Y30788D01*
X228070Y29808D01*
X227377Y28607D01*
X227018Y27268D01*
Y26402D01*
X217126Y26402D01*
X216406Y26307D01*
X215736Y26029D01*
X215160Y25588D01*
X214719Y25012D01*
X214577Y24669D01*
X192155D01*
X192014Y25012D01*
X191572Y25588D01*
X190996Y26029D01*
X190326Y26307D01*
X189606Y26402D01*
X175591D01*
X175591Y26402D01*
X154695D01*
X152386Y28710D01*
Y48401D01*
X250807D01*
Y45256D01*
D02*
G37*
G36*
X57090Y108271D02*
X57241Y108154D01*
X57364Y108031D01*
X57461Y107975D01*
Y107579D01*
X58269D01*
X58336Y107551D01*
X58519Y107527D01*
X58602Y107505D01*
Y100886D01*
X58638D01*
Y99803D01*
X58730Y99342D01*
X58991Y98952D01*
X59370Y98698D01*
Y97769D01*
X58071D01*
X57569Y97669D01*
X57143Y97385D01*
X56411Y96653D01*
X55672D01*
X54876Y96324D01*
X54267Y95715D01*
X53937Y94919D01*
Y94058D01*
X54267Y93262D01*
X54876Y92652D01*
X55672Y92323D01*
X56533D01*
X57098Y92557D01*
X57598Y92269D01*
Y69685D01*
X76541D01*
X81263Y64964D01*
X81839Y64522D01*
X82509Y64244D01*
X83228Y64149D01*
X101083D01*
X101626Y64221D01*
X102126Y63897D01*
Y27708D01*
X101986Y27650D01*
X101377Y27041D01*
X101047Y26245D01*
Y25946D01*
X99072Y23971D01*
X98787Y23545D01*
X98687Y23043D01*
Y21016D01*
X95519Y17848D01*
X94488D01*
Y18581D01*
X87813D01*
Y19506D01*
X94488D01*
Y23581D01*
X94120D01*
Y24153D01*
X98566Y28599D01*
X98851Y29025D01*
X98950Y29528D01*
Y40945D01*
X98851Y41447D01*
X98566Y41873D01*
X96578Y43861D01*
X96152Y44146D01*
X95650Y44246D01*
X94585D01*
Y45394D01*
X94425D01*
X94055Y45709D01*
Y51929D01*
X88787D01*
X88622Y51929D01*
X88197Y51748D01*
X88122Y51748D01*
X86327D01*
Y48819D01*
X85827D01*
Y48319D01*
X83291D01*
Y45890D01*
X86209D01*
X86219Y45394D01*
X86219Y45390D01*
Y40472D01*
X86219D01*
Y40394D01*
X86219D01*
Y35894D01*
X86219Y35472D01*
X86219Y34972D01*
Y30472D01*
X94585D01*
Y30768D01*
X95380Y31097D01*
X95825Y31543D01*
X96325Y31335D01*
Y30071D01*
X91879Y25625D01*
X91594Y25199D01*
X91495Y24697D01*
Y23581D01*
X86221D01*
Y21854D01*
X85572Y21205D01*
X85287Y20779D01*
X85187Y20277D01*
Y7818D01*
X85287Y7315D01*
X85572Y6889D01*
X86221Y6241D01*
Y4506D01*
X88275D01*
X88591Y4006D01*
X88559Y3937D01*
X73228D01*
Y5929D01*
X73291Y5971D01*
X73877Y6557D01*
X74161Y6983D01*
X74261Y7485D01*
Y19738D01*
X75944Y21420D01*
X76228Y21846D01*
X76328Y22348D01*
Y43157D01*
X77306Y44135D01*
X77591Y44561D01*
X77691Y45063D01*
Y50803D01*
X77591Y51305D01*
X77306Y51731D01*
X76065Y52972D01*
X76020Y53002D01*
X75731Y53290D01*
X75305Y53575D01*
X74803Y53675D01*
X71260D01*
X70758Y53575D01*
X70332Y53290D01*
X69364Y52323D01*
X65000D01*
X64698Y52698D01*
Y54724D01*
X64599Y55227D01*
X64314Y55653D01*
X46681Y73286D01*
Y98155D01*
X46581Y98658D01*
X46296Y99084D01*
X41602Y103778D01*
X41761Y104053D01*
X42057Y105157D01*
Y106300D01*
X41761Y107404D01*
X41190Y108394D01*
X40382Y109202D01*
X39392Y109773D01*
X38288Y110069D01*
X37145D01*
X36041Y109773D01*
X35051Y109202D01*
X34243Y108394D01*
X33672Y107404D01*
X33376Y106300D01*
Y105157D01*
X33672Y104053D01*
X34243Y103063D01*
X35051Y102255D01*
X36041Y101684D01*
X37145Y101388D01*
X38288D01*
X39392Y101684D01*
X39767Y101900D01*
X44056Y97612D01*
Y91899D01*
X43593Y91708D01*
X41574Y93728D01*
X41761Y94053D01*
X42057Y95157D01*
Y96300D01*
X41761Y97404D01*
X41190Y98393D01*
X40382Y99202D01*
X39392Y99773D01*
X38288Y100069D01*
X37145D01*
X36041Y99773D01*
X35051Y99202D01*
X34243Y98393D01*
X33672Y97404D01*
X33376Y96300D01*
Y95157D01*
X33672Y94053D01*
X34243Y93063D01*
X35051Y92255D01*
X36041Y91684D01*
X37145Y91388D01*
X38288D01*
X39392Y91684D01*
X39717Y91871D01*
X42654Y88935D01*
Y83301D01*
X42192Y83109D01*
X41574Y83728D01*
X41761Y84053D01*
X42057Y85157D01*
Y86300D01*
X41761Y87404D01*
X41190Y88393D01*
X40382Y89202D01*
X39392Y89773D01*
X38288Y90069D01*
X37145D01*
X36041Y89773D01*
X35051Y89202D01*
X34243Y88393D01*
X33672Y87404D01*
X33376Y86300D01*
Y85157D01*
X33672Y84053D01*
X34243Y83063D01*
X35051Y82255D01*
X36041Y81684D01*
X37145Y81388D01*
X38288D01*
X39392Y81684D01*
X39717Y81871D01*
X41252Y80336D01*
Y79038D01*
X40752Y78831D01*
X40382Y79202D01*
X39392Y79773D01*
X38288Y80069D01*
X37145D01*
X36041Y79773D01*
X35051Y79202D01*
X34243Y78394D01*
X33672Y77404D01*
X33376Y76300D01*
Y75157D01*
X33672Y74053D01*
X34243Y73063D01*
X35051Y72255D01*
X36041Y71684D01*
X37145Y71388D01*
X38288D01*
X38786Y71521D01*
X57868Y52439D01*
Y36077D01*
X57968Y35574D01*
X58253Y35149D01*
X64864Y28537D01*
Y25473D01*
X64864Y25473D01*
X64864D01*
X64853Y24977D01*
X64231Y24355D01*
X63946Y23929D01*
X63846Y23426D01*
Y20947D01*
X63384Y20756D01*
X46547Y37592D01*
Y57127D01*
X46448Y57630D01*
X46163Y58056D01*
X41173Y63046D01*
X41190Y63063D01*
X41761Y64053D01*
X42057Y65157D01*
Y66300D01*
X41761Y67404D01*
X41190Y68393D01*
X40382Y69202D01*
X39392Y69773D01*
X38288Y70069D01*
X37145D01*
X36041Y69773D01*
X35051Y69202D01*
X34243Y68393D01*
X33672Y67404D01*
X33376Y66300D01*
Y65157D01*
X33672Y64053D01*
X34243Y63063D01*
X35051Y62255D01*
X36041Y61684D01*
X37145Y61388D01*
X38288D01*
X38943Y61563D01*
X43922Y56584D01*
Y52032D01*
X43460Y51841D01*
X41574Y53728D01*
X41761Y54053D01*
X42057Y55157D01*
Y56300D01*
X41761Y57404D01*
X41190Y58394D01*
X40382Y59202D01*
X39392Y59773D01*
X38288Y60069D01*
X37145D01*
X36041Y59773D01*
X35051Y59202D01*
X34243Y58394D01*
X33672Y57404D01*
X33376Y56300D01*
Y55157D01*
X33672Y54053D01*
X34243Y53063D01*
X35051Y52255D01*
X36041Y51684D01*
X37145Y51388D01*
X38288D01*
X39392Y51684D01*
X39717Y51871D01*
X42521Y49068D01*
Y46501D01*
X42021Y46435D01*
X41761Y47404D01*
X41190Y48393D01*
X40382Y49202D01*
X39392Y49773D01*
X38288Y50069D01*
X37145D01*
X36041Y49773D01*
X35051Y49202D01*
X34243Y48393D01*
X33672Y47404D01*
X33376Y46300D01*
Y45157D01*
X33672Y44053D01*
X34243Y43063D01*
X35051Y42255D01*
X36041Y41684D01*
X37145Y41388D01*
X38288D01*
X39392Y41684D01*
X39717Y41871D01*
X41119Y40469D01*
Y39118D01*
X40657Y38926D01*
X40382Y39202D01*
X39392Y39773D01*
X38288Y40069D01*
X37145D01*
X36041Y39773D01*
X35051Y39202D01*
X34243Y38394D01*
X33672Y37404D01*
X33376Y36300D01*
Y35157D01*
X33672Y34053D01*
X34243Y33063D01*
X35051Y32255D01*
X36041Y31684D01*
X37145Y31388D01*
X38288D01*
X39392Y31684D01*
X40382Y32255D01*
X40834Y32707D01*
X57832Y15709D01*
X57555Y15324D01*
X56759Y15654D01*
X55897D01*
X55102Y15324D01*
X54493Y14715D01*
X54163Y13919D01*
Y13058D01*
X54493Y12262D01*
X54987Y11768D01*
Y8465D01*
X55086Y7962D01*
X55371Y7536D01*
X57520Y5388D01*
Y3937D01*
X15748D01*
X3937Y15748D01*
Y114173D01*
X51187D01*
X57090Y108271D01*
D02*
G37*
G36*
X360684Y86651D02*
X360684Y86651D01*
X360796Y85801D01*
X361124Y85009D01*
X361646Y84329D01*
X362598Y83377D01*
Y78248D01*
X367403D01*
X367895Y77756D01*
X369233Y76418D01*
X369233Y76418D01*
X369913Y75896D01*
X370705Y75568D01*
X371555Y75456D01*
X371555Y75456D01*
X377804D01*
X378013Y75296D01*
X378483Y75025D01*
X378983Y74817D01*
X379507Y74677D01*
X380044Y74606D01*
X380586D01*
X381123Y74677D01*
X381647Y74817D01*
X382147Y75025D01*
X382616Y75296D01*
X383047Y75625D01*
X383430Y76009D01*
X383713Y76378D01*
X383724D01*
X384167Y77145D01*
X384278Y77559D01*
D01*
X384449Y78196D01*
Y79284D01*
X384305Y79820D01*
X384610Y80216D01*
X387795D01*
Y84069D01*
X392020Y88293D01*
X392520Y88086D01*
Y77756D01*
X392520D01*
Y72638D01*
X392520D01*
Y18556D01*
X375144Y1181D01*
X364961D01*
X358268Y7874D01*
Y76378D01*
X358268D01*
Y77059D01*
X358268D01*
Y78740D01*
X354331D01*
Y77059D01*
X351185D01*
Y77867D01*
X351040Y78218D01*
X351318Y78634D01*
X351583D01*
Y79764D01*
X356653D01*
Y83701D01*
X358228D01*
Y89224D01*
X360684D01*
Y86651D01*
D02*
G37*
%LPC*%
G36*
X232977Y214911D02*
X231590D01*
X230251Y214553D01*
X229050Y213859D01*
X228070Y212879D01*
X227377Y211678D01*
X227018Y210339D01*
Y208952D01*
X227377Y207613D01*
X228070Y206412D01*
X229050Y205432D01*
X230251Y204739D01*
X231590Y204380D01*
X232977D01*
X234316Y204739D01*
X235517Y205432D01*
X236497Y206412D01*
X237190Y207613D01*
X237549Y208952D01*
Y210339D01*
X237190Y211678D01*
X236497Y212879D01*
X235517Y213859D01*
X234316Y214553D01*
X232977Y214911D01*
D02*
G37*
G36*
X381890Y173660D02*
X380759Y173511D01*
X379706Y173074D01*
X378801Y172380D01*
X378107Y171476D01*
X377670Y170422D01*
X377521Y169291D01*
X377670Y168161D01*
X378107Y167107D01*
X378801Y166202D01*
X379706Y165508D01*
X380759Y165072D01*
X381890Y164923D01*
X383020Y165072D01*
X384074Y165508D01*
X384979Y166202D01*
X385673Y167107D01*
X386109Y168161D01*
X386258Y169291D01*
X386109Y170422D01*
X385673Y171476D01*
X384979Y172380D01*
X384074Y173074D01*
X383020Y173511D01*
X381890Y173660D01*
D02*
G37*
G36*
X371835Y136205D02*
X369406D01*
Y134169D01*
X371835D01*
Y136205D01*
D02*
G37*
G36*
X318012Y125382D02*
X315661D01*
Y123819D01*
X318012D01*
Y125382D01*
D02*
G37*
G36*
X307701Y123803D02*
X305232D01*
Y121630D01*
X307701D01*
Y123803D01*
D02*
G37*
G36*
X304232D02*
X301764D01*
Y121630D01*
X304232D01*
Y123803D01*
D02*
G37*
G36*
X318012Y122819D02*
X315661D01*
Y121256D01*
X318012D01*
Y122819D01*
D02*
G37*
G36*
X356402Y114949D02*
X354051D01*
Y113386D01*
X356402D01*
Y114949D01*
D02*
G37*
G36*
X366831Y114575D02*
X364362D01*
Y112402D01*
X366831D01*
Y114575D01*
D02*
G37*
G36*
X356402Y112386D02*
X354051D01*
Y110823D01*
X356402D01*
Y112386D01*
D02*
G37*
G36*
X302658Y102035D02*
X300228D01*
Y100000D01*
X302658D01*
Y102035D01*
D02*
G37*
G36*
X215551Y86791D02*
X191181D01*
Y63445D01*
X192500D01*
X192913Y63363D01*
X220571D01*
Y63287D01*
X224388D01*
Y62846D01*
X224472Y62423D01*
X224524Y62345D01*
X223316Y61137D01*
X222827Y60499D01*
X222647Y60065D01*
X222519Y59757D01*
X222415Y58961D01*
Y55020D01*
X222519Y54223D01*
X222827Y53481D01*
X223316Y52844D01*
X223953Y52355D01*
X224696Y52047D01*
X225492Y51942D01*
X226289Y52047D01*
X227031Y52355D01*
X227668Y52844D01*
X228157Y53481D01*
X228465Y54223D01*
X228570Y55020D01*
Y56791D01*
X229070Y56998D01*
X229251Y56817D01*
X229888Y56328D01*
X230630Y56021D01*
X231427Y55916D01*
X231715D01*
X232512Y56021D01*
X233254Y56328D01*
X233891Y56817D01*
X234381Y57455D01*
X234688Y58197D01*
X234793Y58993D01*
X234688Y59790D01*
X234381Y60532D01*
X233891Y61169D01*
X233537Y61441D01*
X233529Y61569D01*
X233858Y62365D01*
Y63226D01*
X233529Y64022D01*
X232920Y64631D01*
X232124Y64961D01*
X231262D01*
X230913Y64816D01*
X230413Y65150D01*
Y70374D01*
X225030D01*
X215551Y79853D01*
Y86791D01*
D02*
G37*
%LPD*%
G36*
X225197Y68504D02*
X225018Y67976D01*
X224696Y67933D01*
X223953Y67626D01*
X223316Y67137D01*
X222827Y66499D01*
X222519Y65757D01*
X222415Y64961D01*
Y64567D01*
X192913D01*
Y82677D01*
X211024D01*
X225197Y68504D01*
D02*
G37*
%LPC*%
G36*
X28288Y110069D02*
X27145D01*
X26041Y109773D01*
X25051Y109202D01*
X24243Y108394D01*
X23672Y107404D01*
X23376Y106300D01*
Y105157D01*
X23672Y104053D01*
X24243Y103063D01*
X25051Y102255D01*
X26041Y101684D01*
X27145Y101388D01*
X28288D01*
X29392Y101684D01*
X30382Y102255D01*
X31190Y103063D01*
X31761Y104053D01*
X32057Y105157D01*
Y106300D01*
X31761Y107404D01*
X31190Y108394D01*
X30382Y109202D01*
X29392Y109773D01*
X28288Y110069D01*
D02*
G37*
G36*
X18288D02*
X17145D01*
X16041Y109773D01*
X15051Y109202D01*
X14243Y108394D01*
X13672Y107404D01*
X13376Y106300D01*
Y105157D01*
X13672Y104053D01*
X14243Y103063D01*
X15051Y102255D01*
X16041Y101684D01*
X17145Y101388D01*
X18288D01*
X19392Y101684D01*
X20382Y102255D01*
X21190Y103063D01*
X21761Y104053D01*
X22057Y105157D01*
Y106300D01*
X21761Y107404D01*
X21190Y108394D01*
X20382Y109202D01*
X19392Y109773D01*
X18288Y110069D01*
D02*
G37*
G36*
X28288Y100069D02*
X27145D01*
X26041Y99773D01*
X25051Y99202D01*
X24243Y98393D01*
X23672Y97404D01*
X23376Y96300D01*
Y95157D01*
X23672Y94053D01*
X24243Y93063D01*
X25051Y92255D01*
X26041Y91684D01*
X27145Y91388D01*
X28288D01*
X29392Y91684D01*
X30382Y92255D01*
X31190Y93063D01*
X31761Y94053D01*
X32057Y95157D01*
Y96300D01*
X31761Y97404D01*
X31190Y98393D01*
X30382Y99202D01*
X29392Y99773D01*
X28288Y100069D01*
D02*
G37*
G36*
X18288D02*
X17145D01*
X16041Y99773D01*
X15051Y99202D01*
X14243Y98393D01*
X13672Y97404D01*
X13376Y96300D01*
Y95157D01*
X13672Y94053D01*
X14243Y93063D01*
X15051Y92255D01*
X16041Y91684D01*
X17145Y91388D01*
X18288D01*
X19392Y91684D01*
X20382Y92255D01*
X21190Y93063D01*
X21761Y94053D01*
X22057Y95157D01*
Y96300D01*
X21761Y97404D01*
X21190Y98393D01*
X20382Y99202D01*
X19392Y99773D01*
X18288Y100069D01*
D02*
G37*
G36*
X28288Y90069D02*
X27145D01*
X26041Y89773D01*
X25051Y89202D01*
X24243Y88393D01*
X23672Y87404D01*
X23376Y86300D01*
Y85157D01*
X23672Y84053D01*
X24243Y83063D01*
X25051Y82255D01*
X26041Y81684D01*
X27145Y81388D01*
X28288D01*
X29392Y81684D01*
X30382Y82255D01*
X31190Y83063D01*
X31761Y84053D01*
X32057Y85157D01*
Y86300D01*
X31761Y87404D01*
X31190Y88393D01*
X30382Y89202D01*
X29392Y89773D01*
X28288Y90069D01*
D02*
G37*
G36*
X18288D02*
X17145D01*
X16041Y89773D01*
X15051Y89202D01*
X14243Y88393D01*
X13672Y87404D01*
X13376Y86300D01*
Y85157D01*
X13672Y84053D01*
X14243Y83063D01*
X15051Y82255D01*
X16041Y81684D01*
X17145Y81388D01*
X18288D01*
X19392Y81684D01*
X20382Y82255D01*
X21190Y83063D01*
X21761Y84053D01*
X22057Y85157D01*
Y86300D01*
X21761Y87404D01*
X21190Y88393D01*
X20382Y89202D01*
X19392Y89773D01*
X18288Y90069D01*
D02*
G37*
G36*
X28288Y80069D02*
X27145D01*
X26041Y79773D01*
X25051Y79202D01*
X24243Y78394D01*
X23672Y77404D01*
X23376Y76300D01*
Y75157D01*
X23672Y74053D01*
X24243Y73063D01*
X25051Y72255D01*
X26041Y71684D01*
X27145Y71388D01*
X28288D01*
X29392Y71684D01*
X30382Y72255D01*
X31190Y73063D01*
X31761Y74053D01*
X32057Y75157D01*
Y76300D01*
X31761Y77404D01*
X31190Y78394D01*
X30382Y79202D01*
X29392Y79773D01*
X28288Y80069D01*
D02*
G37*
G36*
X18288D02*
X17145D01*
X16041Y79773D01*
X15051Y79202D01*
X14243Y78394D01*
X13672Y77404D01*
X13376Y76300D01*
Y75157D01*
X13672Y74053D01*
X14243Y73063D01*
X15051Y72255D01*
X16041Y71684D01*
X17145Y71388D01*
X18288D01*
X19392Y71684D01*
X20382Y72255D01*
X21190Y73063D01*
X21761Y74053D01*
X22057Y75157D01*
Y76300D01*
X21761Y77404D01*
X21190Y78394D01*
X20382Y79202D01*
X19392Y79773D01*
X18288Y80069D01*
D02*
G37*
G36*
X28288Y70069D02*
X27145D01*
X26041Y69773D01*
X25051Y69202D01*
X24243Y68393D01*
X23672Y67404D01*
X23376Y66300D01*
Y65157D01*
X23672Y64053D01*
X24243Y63063D01*
X25051Y62255D01*
X26041Y61684D01*
X27145Y61388D01*
X28288D01*
X29392Y61684D01*
X30382Y62255D01*
X31190Y63063D01*
X31761Y64053D01*
X32057Y65157D01*
Y66300D01*
X31761Y67404D01*
X31190Y68393D01*
X30382Y69202D01*
X29392Y69773D01*
X28288Y70069D01*
D02*
G37*
G36*
X18288D02*
X17145D01*
X16041Y69773D01*
X15051Y69202D01*
X14243Y68393D01*
X13672Y67404D01*
X13376Y66300D01*
Y65157D01*
X13672Y64053D01*
X14243Y63063D01*
X15051Y62255D01*
X16041Y61684D01*
X17145Y61388D01*
X18288D01*
X19392Y61684D01*
X20382Y62255D01*
X21190Y63063D01*
X21761Y64053D01*
X22057Y65157D01*
Y66300D01*
X21761Y67404D01*
X21190Y68393D01*
X20382Y69202D01*
X19392Y69773D01*
X18288Y70069D01*
D02*
G37*
G36*
X28288Y60069D02*
X27145D01*
X26041Y59773D01*
X25051Y59202D01*
X24243Y58394D01*
X23672Y57404D01*
X23376Y56300D01*
Y55157D01*
X23672Y54053D01*
X24243Y53063D01*
X25051Y52255D01*
X26041Y51684D01*
X27145Y51388D01*
X28288D01*
X29392Y51684D01*
X30382Y52255D01*
X31190Y53063D01*
X31761Y54053D01*
X32057Y55157D01*
Y56300D01*
X31761Y57404D01*
X31190Y58394D01*
X30382Y59202D01*
X29392Y59773D01*
X28288Y60069D01*
D02*
G37*
G36*
X18288D02*
X17145D01*
X16041Y59773D01*
X15051Y59202D01*
X14243Y58394D01*
X13672Y57404D01*
X13376Y56300D01*
Y55157D01*
X13672Y54053D01*
X14243Y53063D01*
X15051Y52255D01*
X16041Y51684D01*
X17145Y51388D01*
X18288D01*
X19392Y51684D01*
X20382Y52255D01*
X21190Y53063D01*
X21761Y54053D01*
X22057Y55157D01*
Y56300D01*
X21761Y57404D01*
X21190Y58394D01*
X20382Y59202D01*
X19392Y59773D01*
X18288Y60069D01*
D02*
G37*
G36*
X85327Y51748D02*
X83291D01*
Y49319D01*
X85327D01*
Y51748D01*
D02*
G37*
G36*
X28288Y50069D02*
X27145D01*
X26041Y49773D01*
X25051Y49202D01*
X24243Y48393D01*
X23672Y47404D01*
X23376Y46300D01*
Y45157D01*
X23672Y44053D01*
X24243Y43063D01*
X25051Y42255D01*
X26041Y41684D01*
X27145Y41388D01*
X28288D01*
X29392Y41684D01*
X30382Y42255D01*
X31190Y43063D01*
X31761Y44053D01*
X32057Y45157D01*
Y46300D01*
X31761Y47404D01*
X31190Y48393D01*
X30382Y49202D01*
X29392Y49773D01*
X28288Y50069D01*
D02*
G37*
G36*
X18288D02*
X17145D01*
X16041Y49773D01*
X15051Y49202D01*
X14243Y48393D01*
X13672Y47404D01*
X13376Y46300D01*
Y45157D01*
X13672Y44053D01*
X14243Y43063D01*
X15051Y42255D01*
X16041Y41684D01*
X17145Y41388D01*
X18288D01*
X19392Y41684D01*
X20382Y42255D01*
X21190Y43063D01*
X21761Y44053D01*
X22057Y45157D01*
Y46300D01*
X21761Y47404D01*
X21190Y48393D01*
X20382Y49202D01*
X19392Y49773D01*
X18288Y50069D01*
D02*
G37*
G36*
X28288Y40069D02*
X27145D01*
X26041Y39773D01*
X25051Y39202D01*
X24243Y38394D01*
X23672Y37404D01*
X23376Y36300D01*
Y35157D01*
X23672Y34053D01*
X24243Y33063D01*
X25051Y32255D01*
X26041Y31684D01*
X27145Y31388D01*
X28288D01*
X29392Y31684D01*
X30382Y32255D01*
X31190Y33063D01*
X31761Y34053D01*
X32057Y35157D01*
Y36300D01*
X31761Y37404D01*
X31190Y38394D01*
X30382Y39202D01*
X29392Y39773D01*
X28288Y40069D01*
D02*
G37*
G36*
X18288D02*
X17145D01*
X16041Y39773D01*
X15051Y39202D01*
X14243Y38394D01*
X13672Y37404D01*
X13376Y36300D01*
Y35157D01*
X13672Y34053D01*
X14243Y33063D01*
X15051Y32255D01*
X16041Y31684D01*
X17145Y31388D01*
X18288D01*
X19392Y31684D01*
X20382Y32255D01*
X21190Y33063D01*
X21761Y34053D01*
X22057Y35157D01*
Y36300D01*
X21761Y37404D01*
X21190Y38394D01*
X20382Y39202D01*
X19392Y39773D01*
X18288Y40069D01*
D02*
G37*
G36*
X32243Y20387D02*
X30750D01*
X29285Y20095D01*
X27906Y19524D01*
X26665Y18695D01*
X25609Y17639D01*
X24780Y16398D01*
X24209Y15019D01*
X23917Y13554D01*
Y12061D01*
X24209Y10597D01*
X24780Y9218D01*
X25609Y7977D01*
X26665Y6921D01*
X27906Y6092D01*
X29285Y5520D01*
X30750Y5229D01*
X32243D01*
X33707Y5520D01*
X35086Y6092D01*
X36327Y6921D01*
X37383Y7977D01*
X38212Y9218D01*
X38784Y10597D01*
X39075Y12061D01*
Y13554D01*
X38784Y15019D01*
X38212Y16398D01*
X37383Y17639D01*
X36327Y18695D01*
X35086Y19524D01*
X33707Y20095D01*
X32243Y20387D01*
D02*
G37*
%LPD*%
D21*
X98819Y4331D02*
D03*
Y9843D02*
D03*
X60630Y4331D02*
D03*
Y9843D02*
D03*
X91929Y92323D02*
D03*
Y86811D02*
D03*
X101772Y92323D02*
D03*
Y86811D02*
D03*
X384252Y129528D02*
D03*
Y124016D02*
D03*
X353543Y87992D02*
D03*
Y82480D02*
D03*
X353551Y129618D02*
D03*
Y124106D02*
D03*
X363787D02*
D03*
Y129618D02*
D03*
X318504Y87992D02*
D03*
Y82480D02*
D03*
X303157Y99500D02*
D03*
Y93988D02*
D03*
X313394Y99500D02*
D03*
Y93988D02*
D03*
X308268Y112008D02*
D03*
Y106496D02*
D03*
X318504D02*
D03*
Y112008D02*
D03*
X91870Y190039D02*
D03*
Y195551D02*
D03*
X101969Y190157D02*
D03*
Y195669D02*
D03*
X358669Y136705D02*
D03*
Y142217D02*
D03*
X368905Y136705D02*
D03*
Y142217D02*
D03*
X318512Y148122D02*
D03*
Y153634D02*
D03*
X353543Y148425D02*
D03*
Y153937D02*
D03*
D22*
X90402Y42933D02*
D03*
Y37933D02*
D03*
Y32933D02*
D03*
Y27933D02*
D03*
X69047D02*
D03*
Y32933D02*
D03*
Y37933D02*
D03*
Y42933D02*
D03*
D23*
X91339Y48819D02*
D03*
X85827D02*
D03*
X67716Y49213D02*
D03*
X73228D02*
D03*
D24*
X69095Y21543D02*
D03*
Y19047D02*
D03*
Y16543D02*
D03*
Y14047D02*
D03*
Y11543D02*
D03*
Y9047D02*
D03*
Y6543D02*
D03*
Y4047D02*
D03*
X90354D02*
D03*
Y6543D02*
D03*
Y9047D02*
D03*
Y11543D02*
D03*
Y14047D02*
D03*
Y16543D02*
D03*
Y19047D02*
D03*
Y21543D02*
D03*
D25*
X116457Y181102D02*
D03*
Y55118D02*
D03*
D26*
X203366Y161122D02*
D03*
Y201102D02*
D03*
Y35138D02*
D03*
Y75118D02*
D03*
D27*
X304626Y213779D02*
D03*
X270472Y23031D02*
D03*
X293209Y213779D02*
D03*
X281890Y23031D02*
D03*
X281791Y213779D02*
D03*
X293307Y23031D02*
D03*
X270374Y213779D02*
D03*
X304724Y23031D02*
D03*
X270374Y202756D02*
D03*
X270374Y186614D02*
D03*
Y175591D02*
D03*
X281791Y202756D02*
D03*
X293209D02*
D03*
X304626D02*
D03*
X304626Y186614D02*
D03*
Y175591D02*
D03*
X281791Y186614D02*
D03*
Y175591D02*
D03*
X293209Y186614D02*
D03*
Y175591D02*
D03*
X270472Y61221D02*
D03*
Y50197D02*
D03*
X281890Y61221D02*
D03*
Y50197D02*
D03*
X293307Y34055D02*
D03*
X270472D02*
D03*
X281890D02*
D03*
X304724D02*
D03*
X293307Y61221D02*
D03*
Y50197D02*
D03*
X304724Y61221D02*
D03*
Y50197D02*
D03*
D28*
X225590Y181102D02*
D03*
Y192913D02*
D03*
X225492Y55020D02*
D03*
Y66831D02*
D03*
D29*
X254232Y11142D02*
D03*
X256791D02*
D03*
X259350D02*
D03*
X261910D02*
D03*
Y27677D02*
D03*
X259350D02*
D03*
X256791D02*
D03*
X254232D02*
D03*
X261910Y56299D02*
D03*
X259350D02*
D03*
X256791D02*
D03*
X254232D02*
D03*
Y72835D02*
D03*
X256791D02*
D03*
X259350D02*
D03*
X261910D02*
D03*
X254232Y180315D02*
D03*
X256791D02*
D03*
X259350D02*
D03*
X261909D02*
D03*
X254232Y208937D02*
D03*
X256791D02*
D03*
X259350D02*
D03*
X261909D02*
D03*
Y163779D02*
D03*
X259350D02*
D03*
X256791D02*
D03*
X254232D02*
D03*
Y225472D02*
D03*
X256791D02*
D03*
X259350D02*
D03*
X261909D02*
D03*
D30*
X261910Y22913D02*
D03*
X259350D02*
D03*
X256791D02*
D03*
X254232D02*
D03*
Y39449D02*
D03*
X256791D02*
D03*
X259350D02*
D03*
X261910D02*
D03*
X254232Y44528D02*
D03*
X256791D02*
D03*
X259350D02*
D03*
X261910D02*
D03*
Y61063D02*
D03*
X259350D02*
D03*
X256791D02*
D03*
X254232D02*
D03*
X261909Y192087D02*
D03*
X259350D02*
D03*
X256791D02*
D03*
X254232D02*
D03*
X261909Y197165D02*
D03*
X259350D02*
D03*
X256791D02*
D03*
X254232D02*
D03*
Y175551D02*
D03*
X256791D02*
D03*
X259350D02*
D03*
X261909D02*
D03*
Y213701D02*
D03*
X259350D02*
D03*
X256791D02*
D03*
X254232D02*
D03*
D31*
X258071Y16063D02*
D03*
Y32598D02*
D03*
Y51378D02*
D03*
Y67913D02*
D03*
X258071Y185236D02*
D03*
Y204016D02*
D03*
Y168701D02*
D03*
Y220551D02*
D03*
D32*
X258071Y21929D02*
D03*
X260630D02*
D03*
Y38465D02*
D03*
X258071D02*
D03*
Y45512D02*
D03*
X255512D02*
D03*
Y62047D02*
D03*
X258071D02*
D03*
X258071Y191102D02*
D03*
X260630D02*
D03*
X255512Y198150D02*
D03*
X258071D02*
D03*
X260630Y174567D02*
D03*
X258071D02*
D03*
X255512Y214685D02*
D03*
X258071D02*
D03*
D33*
X96850Y92716D02*
D03*
Y86417D02*
D03*
X368898Y123622D02*
D03*
Y129921D02*
D03*
X367323Y82874D02*
D03*
Y89173D02*
D03*
X303150Y112402D02*
D03*
Y106102D02*
D03*
X87008Y86417D02*
D03*
Y92716D02*
D03*
X86949Y195945D02*
D03*
Y189646D02*
D03*
X97047Y196063D02*
D03*
Y189764D02*
D03*
X304732Y153240D02*
D03*
Y146941D02*
D03*
D34*
X83280Y105512D02*
D03*
Y102953D02*
D03*
Y100394D02*
D03*
Y97835D02*
D03*
X100697D02*
D03*
Y100394D02*
D03*
Y102953D02*
D03*
Y105512D02*
D03*
X82571Y209429D02*
D03*
Y206870D02*
D03*
Y204311D02*
D03*
Y201752D02*
D03*
X99988D02*
D03*
Y204311D02*
D03*
Y206870D02*
D03*
Y209429D02*
D03*
D35*
X85925Y118405D02*
D03*
X98051D02*
D03*
X85216Y222323D02*
D03*
X97342D02*
D03*
D36*
X380217Y116685D02*
D03*
X377658D02*
D03*
X375098D02*
D03*
X372539D02*
D03*
Y93551D02*
D03*
X375098D02*
D03*
X377658D02*
D03*
X380217D02*
D03*
D37*
X374016Y129724D02*
D03*
Y123819D02*
D03*
X379134D02*
D03*
Y129724D02*
D03*
X384646Y88976D02*
D03*
Y83071D02*
D03*
X367331Y105996D02*
D03*
Y111902D02*
D03*
X358661Y129724D02*
D03*
Y123819D02*
D03*
X308276Y93791D02*
D03*
Y99697D02*
D03*
X313386Y106299D02*
D03*
Y112205D02*
D03*
X318512Y99697D02*
D03*
Y93791D02*
D03*
X304732Y130209D02*
D03*
Y124303D02*
D03*
X363787Y142413D02*
D03*
Y136508D02*
D03*
X353551D02*
D03*
Y142413D02*
D03*
D38*
X347547Y80701D02*
D03*
Y83260D02*
D03*
Y85819D02*
D03*
Y88378D02*
D03*
Y90937D02*
D03*
Y93496D02*
D03*
Y96055D02*
D03*
Y98614D02*
D03*
Y101173D02*
D03*
Y103732D02*
D03*
Y106291D02*
D03*
Y108850D02*
D03*
Y111409D02*
D03*
Y113969D02*
D03*
X324516D02*
D03*
Y111409D02*
D03*
Y108850D02*
D03*
Y106291D02*
D03*
Y103732D02*
D03*
Y101173D02*
D03*
Y98614D02*
D03*
Y96055D02*
D03*
Y93496D02*
D03*
Y90937D02*
D03*
Y88378D02*
D03*
Y85819D02*
D03*
Y83260D02*
D03*
Y80701D02*
D03*
X324516Y155504D02*
D03*
Y152945D02*
D03*
Y150386D02*
D03*
Y147827D02*
D03*
Y145268D02*
D03*
Y142709D02*
D03*
Y140150D02*
D03*
Y137591D02*
D03*
Y135031D02*
D03*
Y132473D02*
D03*
Y129913D02*
D03*
Y127354D02*
D03*
Y124795D02*
D03*
Y122236D02*
D03*
X347547D02*
D03*
Y124795D02*
D03*
Y127354D02*
D03*
Y129913D02*
D03*
Y132473D02*
D03*
Y135031D02*
D03*
Y137591D02*
D03*
Y140150D02*
D03*
Y142709D02*
D03*
Y145268D02*
D03*
Y147827D02*
D03*
Y150386D02*
D03*
Y152945D02*
D03*
Y155504D02*
D03*
D39*
X336032Y97335D02*
D03*
X336032Y138870D02*
D03*
D40*
X360244Y93988D02*
D03*
Y82965D02*
D03*
X387008Y111811D02*
D03*
Y100787D02*
D03*
X311819Y142217D02*
D03*
Y153240D02*
D03*
D41*
X373031Y83268D02*
D03*
X378937D02*
D03*
D42*
X360244Y111390D02*
D03*
Y100209D02*
D03*
X311819Y124815D02*
D03*
Y135996D02*
D03*
D43*
X353551Y112886D02*
D03*
Y106587D02*
D03*
X318512Y123319D02*
D03*
Y129618D02*
D03*
D44*
X320079Y178456D02*
D03*
Y199497D02*
D03*
X320079Y37511D02*
D03*
Y58552D02*
D03*
D45*
X313386Y84449D02*
D03*
X302362D02*
D03*
X385827Y151575D02*
D03*
X374803D02*
D03*
X358669Y151665D02*
D03*
X369693D02*
D03*
D46*
X378150Y137992D02*
D03*
X385630D02*
D03*
X381890Y146260D02*
D03*
D71*
X61535Y96457D02*
D03*
X76398Y104232D02*
D03*
X60551Y200787D02*
D03*
X75413Y208632D02*
D03*
D79*
X381890Y169291D02*
D03*
X362205D02*
D03*
D81*
X69035Y81398D02*
D03*
X68898Y119291D02*
D03*
X68051Y185728D02*
D03*
X67913Y223691D02*
D03*
D82*
X71850Y96457D02*
D03*
X66083Y104232D02*
D03*
X70866Y200787D02*
D03*
X65098Y208632D02*
D03*
D83*
X320507Y136614D02*
X321097Y137205D01*
X311819Y135996D02*
X312437Y136614D01*
X320507D01*
X318898Y142035D02*
X319373D01*
X320032Y142694D01*
X323759D01*
X320294Y138976D02*
X321082Y139764D01*
X316210Y139803D02*
X317037Y138976D01*
X320294D01*
X321082Y139764D02*
X324130D01*
X315807Y139803D02*
X316210D01*
X321097Y137205D02*
X324130D01*
X42565Y71581D02*
Y80880D01*
X37716Y95728D02*
Y95807D01*
X43966Y72162D02*
X61984Y54144D01*
X43966Y72162D02*
Y89478D01*
X37716Y95728D02*
X43966Y89478D01*
X37716Y105807D02*
X45368Y98155D01*
Y72742D02*
X63386Y54724D01*
X37716Y85728D02*
X42565Y80880D01*
X37716Y85728D02*
Y85807D01*
X42565Y71581D02*
X60583Y53563D01*
X45368Y72742D02*
Y98155D01*
X45235Y37049D02*
Y57127D01*
X43833Y36088D02*
Y49611D01*
X42432Y35127D02*
X65659Y11900D01*
X43833Y36088D02*
X65519Y14402D01*
X42432Y35127D02*
Y41013D01*
X45235Y37049D02*
X65384Y16900D01*
X37716Y64646D02*
X45235Y57127D01*
X37716Y55728D02*
X43833Y49611D01*
X37716Y45728D02*
X42432Y41013D01*
X65519Y14402D02*
X68739D01*
X65659Y11900D02*
X68738D01*
Y16900D02*
X69095Y16543D01*
X68739Y14402D02*
X69095Y14047D01*
X65384Y16900D02*
X68738D01*
X72949Y7485D02*
Y20266D01*
X69451Y6900D02*
X72363D01*
X72949Y7485D01*
X72941Y20274D02*
X72949Y20266D01*
X72941Y20274D02*
X75016Y22348D01*
X72039Y21187D02*
X72949Y20277D01*
X69095Y21543D02*
X69451Y21187D01*
X72039D01*
X92264Y190039D02*
X93299Y191075D01*
Y191469D01*
X95579Y193748D01*
Y194693D01*
X91870Y190039D02*
X92264D01*
X102362Y190157D02*
X105118Y192913D01*
X103695Y203000D02*
Y203011D01*
X103156Y203539D02*
X103167D01*
X105118Y192913D02*
Y201577D01*
X102770Y203925D02*
X103156Y203539D01*
X103167D02*
X103695Y203011D01*
Y203000D02*
X105118Y201577D01*
X323759Y142694D02*
X324130Y142323D01*
X352852Y94367D02*
X353328D01*
X347547Y93496D02*
X351981D01*
X352852Y94367D01*
X309842Y143724D02*
X311350Y142217D01*
X313394D02*
X315807Y139803D01*
X311350Y142217D02*
X313394D01*
X318117Y145298D02*
X324486D01*
X324516Y145268D01*
X318087Y145328D02*
X318117Y145298D01*
X350935Y96441D02*
X352107Y97613D01*
X354641D01*
X355853Y96402D01*
X348031Y96441D02*
X350935D01*
X353976Y91028D02*
X354191Y90812D01*
X347638Y91028D02*
X353976D01*
X355853Y96402D02*
X356162D01*
X357067Y95496D01*
X347646Y96055D02*
X348031Y96441D01*
X373948Y99977D02*
X376886Y97039D01*
Y96341D02*
Y97039D01*
X377658Y93551D02*
Y95569D01*
X376886Y96341D02*
X377658Y95569D01*
X347547Y90937D02*
X347638Y91028D01*
X355893Y133933D02*
X356421Y134461D01*
X351209Y133933D02*
X355893D01*
X358661Y129724D02*
X363787D01*
X347547Y132473D02*
X347556Y132464D01*
X355627D02*
X358366Y129724D01*
X350497Y134646D02*
X351209Y133933D01*
X347933Y134646D02*
X350497D01*
X368898Y129724D02*
X374016D01*
X363787D02*
X368898D01*
X356421Y134461D02*
Y134472D01*
X357240Y135291D01*
X347556Y132464D02*
X355627D01*
X358366Y129724D02*
X358661D01*
X385138Y83268D02*
X391561Y89691D01*
X390090Y105053D02*
X391561Y103583D01*
Y89691D02*
Y103583D01*
X308925Y84646D02*
X313189D01*
X361965Y159828D02*
X362675Y160539D01*
X361965Y145512D02*
Y159828D01*
X362675Y160539D02*
X372925D01*
X364173Y150131D02*
Y158186D01*
X364244Y158257D01*
X358661Y151673D02*
X358669Y151665D01*
X358661Y151673D02*
Y158268D01*
X347547Y142217D02*
X353551D01*
X359063D01*
X339378D02*
X347547D01*
X360099Y143646D02*
X361965Y145512D01*
X369119Y146850D02*
X372441Y143528D01*
X367454Y146850D02*
X369119D01*
X364173Y150131D02*
X367454Y146850D01*
X372441Y140479D02*
Y143528D01*
X351268Y139780D02*
X371742D01*
X347547Y140150D02*
X347804Y139893D01*
X351155D02*
X351268Y139780D01*
X371742D02*
X372441Y140479D01*
X347804Y139893D02*
X351155D01*
X387008Y111811D02*
X387105Y111908D01*
X385630Y136811D02*
X387105Y135336D01*
Y111908D02*
Y135336D01*
X377547Y93440D02*
X377658Y93551D01*
X377547Y89751D02*
Y93440D01*
X374205Y86409D02*
X377547Y89751D01*
X374205Y84441D02*
Y86409D01*
X355007Y104251D02*
X358355D01*
X353906Y103150D02*
X355007Y104251D01*
X353068Y103150D02*
X353906D01*
X358355Y104251D02*
X360100Y105996D01*
X314823Y100973D02*
X316121Y102272D01*
X314823Y100536D02*
Y100973D01*
X320854Y102272D02*
X321566Y101559D01*
X316121Y102272D02*
X320854D01*
X313787Y99500D02*
X314823Y100536D01*
X324484Y103764D02*
X324516Y103732D01*
X308268Y106299D02*
X313681D01*
X316217Y103764D01*
X303346Y106299D02*
X308268D01*
X321566Y101559D02*
X324130D01*
X316217Y103764D02*
X324484D01*
X299782Y95839D02*
X300367Y96425D01*
X320795D01*
X299782Y88840D02*
Y95839D01*
X320795Y96425D02*
X320910Y96310D01*
X324260D01*
X324516Y96055D01*
X298622Y106688D02*
Y112715D01*
X298345Y112992D02*
X298622Y112715D01*
X298031Y86614D02*
Y87089D01*
X98051Y114665D02*
X104602Y108114D01*
Y99083D02*
Y108114D01*
Y94232D02*
Y99083D01*
X98051Y114665D02*
Y118405D01*
X103864Y99622D02*
X103875D01*
X103479Y100008D02*
X103864Y99622D01*
X103875D02*
X104403Y99094D01*
X104602Y89248D02*
Y94132D01*
X104403Y99083D02*
X104502Y98984D01*
X104403Y99083D02*
Y99094D01*
X102165Y86811D02*
X104602Y89248D01*
X101772Y86811D02*
X102165D01*
X100697Y100394D02*
X101083Y100008D01*
X103479D01*
X97638Y29528D02*
Y40945D01*
X92807Y24697D02*
X97638Y29528D01*
X92807Y21900D02*
Y24697D01*
X100000Y20472D02*
Y23043D01*
X97024Y15134D02*
X102436Y20546D01*
X97984Y13732D02*
X101239Y16987D01*
X94154Y11900D02*
X95987Y13732D01*
X90362Y16535D02*
X96063D01*
X100000Y20472D01*
X94676Y14404D02*
X95406Y15134D01*
X97024D01*
X95987Y13732D02*
X97984D01*
X102436Y20546D02*
Y21436D01*
X102772Y21772D01*
X102420Y16987D02*
X102756Y17323D01*
X101239Y16987D02*
X102420D01*
X96516Y12280D02*
X98556D01*
X100056Y13780D01*
X93640Y9403D02*
X96516Y12280D01*
X90711Y9403D02*
X93640D01*
X90354Y9047D02*
X90711Y9403D01*
Y11900D02*
X94154D01*
X90711Y14404D02*
X94676D01*
X90354Y16543D02*
X90362Y16535D01*
X90354Y14047D02*
X90711Y14404D01*
X87418Y6900D02*
X89998D01*
X86500Y20277D02*
X87410Y21187D01*
X86500Y7818D02*
X87418Y6900D01*
X86500Y7818D02*
Y20277D01*
X87410Y21187D02*
X89998D01*
X65159Y23426D02*
X66142Y24409D01*
X65159Y19989D02*
Y23426D01*
X66142Y24409D02*
X70472D01*
X65745Y19404D02*
X68738D01*
X65159Y19989D02*
X65745Y19404D01*
X68110Y48819D02*
Y49213D01*
X75016Y43701D02*
X76378Y45063D01*
X75137Y52043D02*
X76378Y50803D01*
Y45063D02*
Y50803D01*
X70770Y27933D02*
X73614Y30778D01*
X71260Y52362D02*
X74803D01*
X75122Y52043D01*
X73614Y48811D02*
X73622Y48819D01*
X75122Y52043D02*
X75137D01*
X73614Y30778D02*
Y48811D01*
X61984Y43274D02*
X67325Y37933D01*
X60583Y39675D02*
Y53563D01*
X63386Y46872D02*
Y54724D01*
X59181Y36077D02*
Y52983D01*
X61984Y43274D02*
Y54144D01*
X60583Y39675D02*
X67325Y32933D01*
X63386Y46872D02*
X67325Y42933D01*
X37716Y74447D02*
X59181Y52983D01*
Y36077D02*
X67325Y27933D01*
X37716Y74447D02*
Y75728D01*
X102772Y25814D02*
X103213D01*
X100000Y23043D02*
X102772Y25814D01*
X336032Y138870D02*
X339378Y142217D01*
X332685Y93988D02*
X336032Y97335D01*
X324516Y93988D02*
X332685D01*
X313394D02*
X324516D01*
X97342Y218583D02*
X97923Y218002D01*
X359063Y142217D02*
X360099Y143252D01*
Y143646D01*
X361902Y163083D02*
X362205Y163386D01*
X311963Y130209D02*
X313644Y131890D01*
X317754D02*
X320509Y134646D01*
X313644Y131890D02*
X317754D01*
X56299Y8465D02*
X61024Y3740D01*
X98032Y9646D02*
X98819D01*
Y9843D02*
X99854Y8807D01*
X102514D01*
X110426Y2789D02*
X110762Y2453D01*
X102514Y8807D02*
X108532Y2789D01*
X110426D01*
X37716Y64646D02*
Y65728D01*
X68738Y9403D02*
X69095Y9047D01*
X65994Y9403D02*
X68738D01*
X38734Y34711D02*
X40687D01*
X65994Y9403D01*
X37716Y35728D02*
X38734Y34711D01*
X61110Y4047D02*
X69095D01*
X61024Y4134D02*
X61110Y4047D01*
X90354Y6543D02*
X94929D01*
X98032Y9646D01*
X90354Y4047D02*
X98339D01*
X98425Y4134D01*
X61024Y9646D02*
X61417D01*
X64520Y6543D01*
X56299Y8465D02*
Y13386D01*
X61024Y3740D02*
X61417D01*
X89998Y6900D02*
X90354Y6543D01*
X89998Y21187D02*
X90354Y21543D01*
X64520Y6543D02*
X69095D01*
X69451Y6900D01*
X90571Y49193D02*
X90945Y48819D01*
X67325Y32933D02*
X69047D01*
X67325Y37933D02*
X69047D01*
X67325Y42933D02*
X69047D01*
X90402Y47882D02*
X91339Y48819D01*
X90402Y42933D02*
Y47882D01*
X69047Y42933D02*
Y47882D01*
X68110Y48819D02*
X69047Y47882D01*
X67325Y27933D02*
X69047D01*
X68110Y49213D02*
X71260Y52362D01*
X75016Y22348D02*
Y43701D01*
X92451Y21543D02*
X92807Y21900D01*
X90354Y21543D02*
X92451D01*
X95650Y42933D02*
X97638Y40945D01*
X90402Y42933D02*
X95650D01*
X90354Y11543D02*
X90711Y11900D01*
X100056Y13780D02*
X102756D01*
X68738Y19404D02*
X69095Y19047D01*
X70472Y24409D02*
Y27154D01*
X69693Y27933D02*
X70472Y27154D01*
X69047Y27933D02*
X69693D01*
X70770D01*
X68738Y11900D02*
X69095Y11543D01*
X378740Y99525D02*
X380217Y98049D01*
Y93551D02*
Y98049D01*
X378740Y99525D02*
Y100000D01*
X383662Y89960D02*
X384646Y88976D01*
X380217Y91533D02*
X381790Y89960D01*
X383662D01*
X380217Y91533D02*
Y93551D01*
X373031Y83268D02*
X374205Y84441D01*
X363787Y142413D02*
X363984Y142217D01*
X358866Y136508D02*
X363787D01*
X363984Y142217D02*
X368905D01*
X381890Y146260D02*
Y147441D01*
X383850Y148221D02*
X384122Y148492D01*
X381890Y146260D02*
X385906D01*
X381890Y147441D02*
X382669Y148221D01*
X385906Y146260D02*
X387520Y144646D01*
X385630Y136811D02*
Y137992D01*
X382669Y148221D02*
X383850D01*
X384122Y148492D02*
X384319D01*
X349008Y155520D02*
X349024Y155504D01*
X349008Y155520D02*
Y159092D01*
X344160Y148213D02*
X347161D01*
X344679Y158474D02*
Y158949D01*
X343406Y157186D02*
X343889Y157669D01*
Y157683D02*
X344679Y158474D01*
X343889Y157669D02*
Y157683D01*
X343406Y148967D02*
Y157186D01*
Y148967D02*
X344160Y148213D01*
X385827Y150000D02*
Y151575D01*
X384319Y148492D02*
X385827Y150000D01*
X352362Y149213D02*
X353543D01*
X347547Y150386D02*
X347933Y150000D01*
X347547Y155504D02*
X349024D01*
X358669Y146465D02*
Y151665D01*
X347547Y145268D02*
X347654Y145374D01*
X351575Y150000D02*
X352362Y149213D01*
X352862Y152945D02*
X353551Y153634D01*
X347161Y148213D02*
X347547Y147827D01*
Y152945D02*
X352862D01*
X347933Y150000D02*
X351575D01*
X358276Y136705D02*
X358669D01*
X357240Y135669D02*
X358276Y136705D01*
X347654Y145374D02*
X357579D01*
X347547Y137591D02*
X352468D01*
X353551Y136508D01*
X357240Y135291D02*
Y135669D01*
X357579Y145374D02*
X358669Y146465D01*
X353543Y148425D02*
Y149213D01*
X358669Y136705D02*
X358866Y136508D01*
X251060Y25571D02*
X251535D01*
X252724Y24382D02*
X254063D01*
X254232Y24213D01*
X251535Y25571D02*
X252724Y24382D01*
X254232Y22913D02*
Y24213D01*
X265740Y55810D02*
Y56286D01*
X262079Y59595D02*
X262679D01*
X261910Y59764D02*
Y61063D01*
X262679Y59595D02*
X264093Y58181D01*
Y57933D02*
Y58181D01*
Y57933D02*
X265740Y56286D01*
X261910Y59764D02*
X262079Y59595D01*
X104331Y216158D02*
Y232283D01*
X99988Y211815D02*
X104331Y216158D01*
X263112Y211799D02*
X265511Y209401D01*
X262512Y211799D02*
X263112D01*
X261909Y212402D02*
X262512Y211799D01*
X261909Y212402D02*
Y213701D01*
X60551Y199606D02*
Y200787D01*
X60067Y199122D02*
X60551Y199606D01*
X76665Y202453D02*
Y202711D01*
X68110Y186890D02*
X73878Y192657D01*
X74961Y192913D02*
X80266Y198219D01*
X73622Y192913D02*
X74961D01*
X75413Y208632D02*
Y209547D01*
X78563Y206870D02*
X87421D01*
X77285Y208148D02*
X78563Y206870D01*
X75413Y208632D02*
X75898Y208148D01*
X77285D01*
X70866Y200787D02*
X75000D01*
X76665Y202453D01*
Y202711D02*
X78266Y204311D01*
X82571D01*
X324516Y124795D02*
Y127354D01*
X324368Y129766D02*
X324516Y129618D01*
X324130Y134646D02*
X324516Y135031D01*
Y127354D02*
Y129618D01*
X323429Y80701D02*
X324516D01*
X323043Y77435D02*
Y80315D01*
X327370Y77731D02*
X328658Y79018D01*
X323043Y80315D02*
X323429Y80701D01*
X327370Y77256D02*
Y77731D01*
X327903Y87992D02*
X328658Y87238D01*
X320685Y86205D02*
X324130D01*
X324516Y88378D02*
X324902Y87992D01*
X327903D01*
X324130Y86205D02*
X324516Y85819D01*
X324394Y90815D02*
X324516Y90937D01*
X349516Y98614D02*
X349902Y99000D01*
X347547Y101173D02*
X347933Y101559D01*
X347547Y85819D02*
X347736Y86008D01*
X347161Y87992D02*
X347547Y88378D01*
Y98614D02*
X349516D01*
X347547Y106587D02*
Y108850D01*
Y106587D02*
X347695Y106439D01*
X347547Y108850D02*
Y111409D01*
X347547Y135031D02*
X347933Y134646D01*
X324130Y101559D02*
X324516Y101173D01*
X349902Y99000D02*
X350966D01*
X344693Y77256D02*
Y77731D01*
X349020Y77436D02*
Y80315D01*
X343406Y79018D02*
Y87238D01*
Y79018D02*
X344693Y77731D01*
X347547Y80701D02*
X348634D01*
X349020Y80315D01*
X343406Y87238D02*
X344160Y87992D01*
X328658Y79018D02*
Y87238D01*
X344160Y87992D02*
X347161D01*
X367224Y82874D02*
X367323D01*
X353157Y88083D02*
X353543Y87697D01*
X351083Y86008D02*
X353157Y88083D01*
X351478Y101559D02*
X353068Y103150D01*
X353543Y86575D02*
Y87697D01*
X347736Y86008D02*
X351083D01*
X304724Y138976D02*
Y146933D01*
X300707Y158268D02*
X305118D01*
X306949Y150531D02*
Y151122D01*
X309842Y143724D02*
Y147638D01*
X306949Y150531D02*
X309842Y147638D01*
X304831Y153240D02*
X306949Y151122D01*
X318905Y148122D02*
X320980Y150197D01*
X304724Y130217D02*
Y138976D01*
Y146933D02*
X304732Y146941D01*
X318512Y148122D02*
Y149154D01*
X299213Y156773D02*
X300707Y158268D01*
X378740Y83465D02*
X378937Y83268D01*
X378740Y83465D02*
Y87402D01*
X323024Y155504D02*
X324516D01*
X322638Y155890D02*
X323024Y155504D01*
X328740Y149049D02*
Y157104D01*
X327903Y148213D02*
X328740Y149049D01*
X367035Y105996D02*
X367331D01*
X388583Y111811D02*
X390090Y110303D01*
Y105053D02*
Y110303D01*
X299213Y155118D02*
Y156773D01*
X367421Y82874D02*
X371555Y78740D01*
X327370Y158474D02*
X328740Y157104D01*
X322638Y155890D02*
Y159092D01*
X265511Y208604D02*
X265846Y208268D01*
X265511Y208604D02*
Y209401D01*
X327370Y158474D02*
Y158949D01*
X76398Y104232D02*
X78882D01*
X77650Y99069D02*
X78974Y100394D01*
X75984Y96457D02*
X77650Y98122D01*
X78974Y100394D02*
X83280D01*
X77650Y98122D02*
Y99069D01*
X78882Y104232D02*
X79776Y103339D01*
X95382Y91347D02*
X96752Y92716D01*
X90551Y93307D02*
X91142Y92716D01*
X87008D02*
X91142D01*
X91535Y92323D01*
X91929D01*
X96752Y92716D02*
X96850D01*
X101969Y190157D02*
X102362D01*
X101575Y189764D02*
X101969Y190157D01*
X97047Y189764D02*
X101575D01*
X86949Y195945D02*
X89902D01*
X91476D01*
X101575Y195669D02*
X101969D01*
X85216Y213714D02*
Y222323D01*
X98425Y217500D02*
Y218504D01*
X92520Y206693D02*
Y222441D01*
X98425Y217500D02*
X98446Y217521D01*
X99408D01*
X97342Y218583D02*
Y222323D01*
X84614Y110293D02*
Y117095D01*
X100539Y196705D02*
X101575Y195669D01*
X92520Y206693D02*
X94902Y204311D01*
X89902Y195945D02*
Y204390D01*
X100374Y203925D02*
X102770D01*
X99988Y204311D02*
X100374Y203925D01*
X94902Y204311D02*
X99988D01*
Y209429D02*
Y211815D01*
X80266Y201366D02*
X80652Y201752D01*
X87421Y206870D02*
X89902Y204390D01*
X82571Y209429D02*
X84490D01*
X84876Y209815D01*
Y213373D01*
X82677Y190945D02*
X83976Y189646D01*
X86949D01*
X91476Y195945D02*
X91870Y195551D01*
X95579Y194693D02*
X96949Y196063D01*
X97047D01*
X80266Y198219D02*
Y201366D01*
X84876Y213373D02*
X85216Y213714D01*
X80652Y201752D02*
X82571D01*
X100539Y196705D02*
Y197098D01*
X99988Y197650D02*
X100539Y197098D01*
X99988Y197650D02*
Y201752D01*
X80974Y91604D02*
Y97449D01*
X90551Y93307D02*
Y100394D01*
X82894Y103339D02*
X83280Y102953D01*
X80974Y97449D02*
X81360Y97835D01*
X83280D01*
X101772Y92323D02*
Y97449D01*
X95669Y105512D02*
X100697D01*
Y97835D02*
X101386D01*
X101772Y97449D01*
X79776Y103339D02*
X82894D01*
X83280Y105512D02*
Y108959D01*
X83665Y102567D02*
X88378D01*
X90551Y100394D01*
X84614Y117095D02*
X85925Y118405D01*
X83280Y108959D02*
X84614Y110293D01*
X93504Y103347D02*
X95669Y105512D01*
X83280Y102953D02*
X83665Y102567D01*
X71850Y96457D02*
X75984D01*
X58071D02*
X61535D01*
X95382Y90264D02*
Y91347D01*
X56102Y94488D02*
X58071Y96457D01*
X69035Y81673D02*
X77217Y89854D01*
X101378Y86417D02*
X101772Y86811D01*
X96850Y86417D02*
X101378D01*
X77217Y89854D02*
X79224D01*
X80974Y91604D01*
X82677Y87598D02*
X83858Y86417D01*
X87008D01*
X91929Y86811D02*
X92323D01*
X93358Y87846D01*
Y88240D02*
X95382Y90264D01*
X93358Y87846D02*
Y88240D01*
X69035Y81398D02*
Y81673D01*
X319201Y83260D02*
X324516D01*
X318955Y87935D02*
X320685Y86205D01*
X313189Y84646D02*
X313386Y84449D01*
X318504Y87756D02*
X318776D01*
X314359Y85422D02*
Y90229D01*
X313386Y84449D02*
X314359Y85422D01*
X318512Y82571D02*
X319201Y83260D01*
X314945Y90815D02*
X324394D01*
X298622Y106688D02*
X299208Y106102D01*
X308079Y93988D02*
X308276Y93791D01*
X313394Y99500D02*
X313787D01*
X303150Y106102D02*
X303346Y106299D01*
X308276Y99697D02*
X313197D01*
X313394Y99500D01*
X303157Y93988D02*
X308079D01*
X304732Y130209D02*
X311963D01*
X304724Y130217D02*
X304732Y130209D01*
X318659Y129766D02*
X324368D01*
X318512Y129618D02*
X318659Y129766D01*
X320509Y134646D02*
X324130D01*
X318512Y99697D02*
X319595Y98614D01*
X318512Y106587D02*
X318807Y106291D01*
X324516D01*
X319595Y98614D02*
X324516D01*
X299208Y106102D02*
X303150D01*
X308268Y112008D02*
X313189D01*
X313386Y112205D01*
X314359Y90229D02*
X314945Y90815D01*
X298031Y87089D02*
X299782Y88840D01*
X318776Y87756D02*
X318955Y87935D01*
X318512Y149154D02*
X318898Y149539D01*
X347547Y129913D02*
X353256D01*
X324902Y148213D02*
X327903D01*
X374705Y116685D02*
X375091Y117071D01*
X324130Y142323D02*
X324516Y142709D01*
Y147827D02*
X324902Y148213D01*
X372146Y116685D02*
X372532Y117071D01*
X373721Y123524D02*
X374016Y123819D01*
X373721Y120754D02*
Y123524D01*
X372532Y119565D02*
X373721Y120754D01*
X372532Y117071D02*
Y119565D01*
X358661Y123819D02*
X358949Y124106D01*
X363787D01*
X353256Y129913D02*
X353551Y129618D01*
X347933Y101559D02*
X351478D01*
X352175Y100209D02*
X360244D01*
X350966Y99000D02*
X352175Y100209D01*
X324130Y139764D02*
X324516Y140150D01*
X324130Y137205D02*
X324516Y137591D01*
X365862Y104343D02*
Y104823D01*
X367035Y105996D01*
X365756Y104237D02*
X365862Y104343D01*
X347547Y83260D02*
X352862D01*
X360244Y93988D02*
X361819D01*
X357067Y95496D02*
X358736D01*
X360244Y93988D01*
X365756Y91220D02*
Y104237D01*
X361819Y93988D02*
X363327Y92480D01*
Y91897D02*
X363968Y91255D01*
X363327Y91897D02*
Y92480D01*
X371555Y78740D02*
X380315D01*
X367323Y82874D02*
X367421D01*
X365114Y85460D02*
X365854Y84720D01*
X363968Y86651D02*
X365114Y85506D01*
X365854Y84244D02*
X367224Y82874D01*
X365114Y85460D02*
Y85506D01*
X365854Y84244D02*
Y84720D01*
X365756Y91220D02*
X365862Y91113D01*
Y90634D02*
X367232Y89264D01*
X363968Y86651D02*
Y91255D01*
X367232Y89264D02*
X367331D01*
X365862Y90634D02*
Y91113D01*
X383858Y124016D02*
X384252D01*
X382823Y122980D02*
X383858Y124016D01*
X382823Y121703D02*
Y122980D01*
X379823Y118703D02*
X382823Y121703D01*
X378839Y123819D02*
X379134D01*
X377665Y122646D02*
X378839Y123819D01*
X377665Y122350D02*
Y122646D01*
X375091Y119776D02*
X377665Y122350D01*
X375091Y117071D02*
Y119776D01*
X379823Y116685D02*
Y118703D01*
Y114471D02*
Y116488D01*
Y114471D02*
X380209Y114085D01*
X318512Y153634D02*
X319201Y152945D01*
X324327Y150197D02*
X324516Y150386D01*
X319201Y152945D02*
X324516D01*
X320980Y150197D02*
X324327D01*
X352862Y83260D02*
X353551Y82571D01*
X360100Y105996D02*
X367331D01*
X378937Y83268D02*
X385138D01*
X347695Y106439D02*
X353403D01*
X385106Y113122D02*
X386614Y111614D01*
X353403Y106439D02*
X353551Y106587D01*
X387008Y111811D02*
X388583D01*
X383189Y113122D02*
X385106D01*
X380209Y114085D02*
X382226D01*
X383189Y113122D01*
X55118Y196850D02*
X57390Y199122D01*
X60067D01*
D84*
X225590Y188849D02*
Y191339D01*
X230287Y186323D02*
X231534Y185076D01*
X225590Y185142D02*
X225591Y185142D01*
X226772Y186323D01*
X225590Y183465D02*
Y185142D01*
X231242Y188878D02*
X231693D01*
X230052Y187689D02*
X231242Y188878D01*
X231534Y185076D02*
X231715D01*
X226772Y186323D02*
X230287D01*
X226751Y187689D02*
X230052D01*
X225590Y188849D02*
X226751Y187689D01*
X226728Y61610D02*
X230056D01*
X231242Y62795D01*
X226773Y60241D02*
X230179D01*
X225492Y62846D02*
Y64961D01*
Y62846D02*
X226728Y61610D01*
X225492Y55020D02*
Y58961D01*
X230179Y60241D02*
X231427Y58993D01*
X231715D01*
X231242Y62795D02*
X231693D01*
X225492Y58961D02*
X226773Y60241D01*
D85*
X295276Y162205D02*
X297244D01*
X293209Y175591D02*
X304626D01*
X304665Y175630D01*
X317253D01*
X320079Y178456D01*
X304764Y61181D02*
X317450D01*
X293307Y61221D02*
X304724D01*
X304764Y61181D01*
X285039Y117717D02*
X285433Y118110D01*
X291845Y124147D02*
X292370Y124672D01*
X285827Y112598D02*
X286221Y112205D01*
X317450Y61181D02*
X320079Y58552D01*
D86*
X285433Y118110D02*
X290158D01*
D87*
X259842Y97441D02*
D03*
Y138779D02*
D03*
D88*
X279528Y97441D02*
D03*
Y138779D02*
D03*
X232283Y26575D02*
D03*
Y209646D02*
D03*
X344488Y26575D02*
D03*
Y209646D02*
D03*
D89*
X51181Y137894D02*
D03*
X41339D02*
D03*
X31496D02*
D03*
X21654D02*
D03*
X11811D02*
D03*
X51181Y126083D02*
D03*
X41339D02*
D03*
X31496D02*
D03*
X21654D02*
D03*
X11811D02*
D03*
X31496Y202854D02*
D03*
X21654D02*
D03*
X11811D02*
D03*
X21654Y191043D02*
D03*
X11811D02*
D03*
X21654Y181201D02*
D03*
X11811D02*
D03*
X21654Y169390D02*
D03*
X11811D02*
D03*
X21654Y159547D02*
D03*
X11811D02*
D03*
X21654Y147736D02*
D03*
X11811D02*
D03*
X51181Y169390D02*
D03*
Y202854D02*
D03*
X41339D02*
D03*
X51181Y191043D02*
D03*
X41339D02*
D03*
X51181Y181201D02*
D03*
X41339D02*
D03*
Y169390D02*
D03*
X51181Y159547D02*
D03*
X41339D02*
D03*
X51181Y147736D02*
D03*
X41339D02*
D03*
X31496D02*
D03*
Y191043D02*
D03*
Y181201D02*
D03*
Y169390D02*
D03*
Y159547D02*
D03*
X37716Y105728D02*
D03*
X17717Y85728D02*
D03*
X27716Y105728D02*
D03*
X17717Y75728D02*
D03*
X27716D02*
D03*
X37716Y95728D02*
D03*
X27716Y85728D02*
D03*
X17717Y95728D02*
D03*
X27716D02*
D03*
X17717Y105728D02*
D03*
Y55728D02*
D03*
X27716Y35728D02*
D03*
X17717D02*
D03*
X27716Y45728D02*
D03*
X17717D02*
D03*
X27716Y55728D02*
D03*
Y65728D02*
D03*
X17717D02*
D03*
X37716Y85728D02*
D03*
Y75728D02*
D03*
Y65728D02*
D03*
Y55728D02*
D03*
Y45728D02*
D03*
Y35728D02*
D03*
D90*
X31496Y12808D02*
D03*
Y224508D02*
D03*
D91*
X232283Y12795D02*
D03*
Y223425D02*
D03*
X344488Y12795D02*
D03*
Y223425D02*
D03*
D92*
X318898Y142035D02*
D03*
X239490Y118201D02*
D03*
X318087Y145328D02*
D03*
X353328Y94367D02*
D03*
X354191Y90812D02*
D03*
X300787Y68898D02*
D03*
X293701Y76933D02*
D03*
X288189D02*
D03*
X266142D02*
D03*
X255118D02*
D03*
X271654D02*
D03*
X277165D02*
D03*
X260630D02*
D03*
X373948Y99977D02*
D03*
X308925Y84646D02*
D03*
X364244Y158257D02*
D03*
X358661Y158268D02*
D03*
X298345Y112992D02*
D03*
X298031Y86614D02*
D03*
X282677Y69161D02*
D03*
X277165D02*
D03*
X266142D02*
D03*
X255118D02*
D03*
X271654D02*
D03*
X260630D02*
D03*
X59055Y66929D02*
D03*
X55118Y70866D02*
D03*
X62992Y62992D02*
D03*
X94153Y32933D02*
D03*
X103213Y25814D02*
D03*
X102362Y31496D02*
D03*
X102772Y21772D02*
D03*
X379921Y137795D02*
D03*
X368898Y124713D02*
D03*
X366142Y74803D02*
D03*
X295276Y68898D02*
D03*
X372047D02*
D03*
X377953Y62992D02*
D03*
X383858Y57087D02*
D03*
Y49213D02*
D03*
Y41339D02*
D03*
Y33465D02*
D03*
X350394Y9843D02*
D03*
X334646D02*
D03*
X326772D02*
D03*
X318898D02*
D03*
X311024D02*
D03*
X303150D02*
D03*
X295276D02*
D03*
X287402D02*
D03*
X279528D02*
D03*
X222441D02*
D03*
X214567D02*
D03*
X206693D02*
D03*
X198819D02*
D03*
X190945D02*
D03*
X183071D02*
D03*
X175197D02*
D03*
X167323D02*
D03*
X159449D02*
D03*
X151575D02*
D03*
X143701D02*
D03*
X135827D02*
D03*
X138976Y22835D02*
D03*
X102362Y62992D02*
D03*
X102126Y55118D02*
D03*
X102362Y39370D02*
D03*
Y47244D02*
D03*
X94488Y37933D02*
D03*
X102756Y17323D02*
D03*
Y13780D02*
D03*
X110762Y2453D02*
D03*
X47244Y59055D02*
D03*
X56328Y13488D02*
D03*
X70472Y24409D02*
D03*
X49213Y21654D02*
D03*
X53150Y17717D02*
D03*
X45276Y25591D02*
D03*
X66929Y59055D02*
D03*
X74803D02*
D03*
X82677D02*
D03*
X90551D02*
D03*
X94488Y55118D02*
D03*
X51181D02*
D03*
X55118Y51181D02*
D03*
Y43307D02*
D03*
Y35433D02*
D03*
X59055Y31496D02*
D03*
X62992Y27559D02*
D03*
X41339Y29528D02*
D03*
X27559Y23622D02*
D03*
X55118Y78740D02*
D03*
X63386Y77559D02*
D03*
Y80709D02*
D03*
X66142Y79134D02*
D03*
Y82284D02*
D03*
X68898Y77559D02*
D03*
Y80709D02*
D03*
X51181Y102362D02*
D03*
X55118Y86614D02*
D03*
X56102Y94488D02*
D03*
X63382Y123350D02*
D03*
Y120201D02*
D03*
Y117051D02*
D03*
Y113902D02*
D03*
X63386Y83858D02*
D03*
Y87008D02*
D03*
X66142Y85433D02*
D03*
Y121653D02*
D03*
Y88583D02*
D03*
Y112205D02*
D03*
Y118504D02*
D03*
Y115354D02*
D03*
X68898Y123228D02*
D03*
Y120079D02*
D03*
X219291Y54724D02*
D03*
X224754Y46801D02*
D03*
X231693Y62795D02*
D03*
X231715Y58993D02*
D03*
X238583Y35827D02*
D03*
X238583Y32677D02*
D03*
X238583Y29528D02*
D03*
X241339Y37402D02*
D03*
X241339Y34252D02*
D03*
X241339Y31102D02*
D03*
X241339Y27953D02*
D03*
X68898Y83858D02*
D03*
Y113779D02*
D03*
Y116929D02*
D03*
X69035Y86713D02*
D03*
X71653Y79134D02*
D03*
Y82284D02*
D03*
Y85433D02*
D03*
Y88583D02*
D03*
Y112205D02*
D03*
Y115354D02*
D03*
Y118504D02*
D03*
Y121653D02*
D03*
X74409Y77559D02*
D03*
Y80709D02*
D03*
Y83858D02*
D03*
Y87008D02*
D03*
Y113779D02*
D03*
Y116929D02*
D03*
Y120079D02*
D03*
Y123228D02*
D03*
X82677Y87598D02*
D03*
X91917Y113812D02*
D03*
Y121686D02*
D03*
X93504Y103347D02*
D03*
X93886Y109875D02*
D03*
Y117749D02*
D03*
X95854Y113812D02*
D03*
Y121686D02*
D03*
X97823Y109875D02*
D03*
Y117749D02*
D03*
X62598Y183465D02*
D03*
Y186614D02*
D03*
X65354Y181890D02*
D03*
Y185039D02*
D03*
X68110Y183465D02*
D03*
Y186614D02*
D03*
X70866Y181890D02*
D03*
Y185039D02*
D03*
X55118Y196850D02*
D03*
X62598Y189764D02*
D03*
Y192913D02*
D03*
X62599Y220079D02*
D03*
Y216929D02*
D03*
Y226378D02*
D03*
Y223228D02*
D03*
X65354Y188189D02*
D03*
Y191339D02*
D03*
X65354Y227953D02*
D03*
Y221654D02*
D03*
Y224803D02*
D03*
Y218504D02*
D03*
X68110Y189764D02*
D03*
Y192913D02*
D03*
X68110Y220079D02*
D03*
Y226378D02*
D03*
Y216929D02*
D03*
Y223228D02*
D03*
X70866Y188189D02*
D03*
Y191339D02*
D03*
X73622Y186614D02*
D03*
Y189764D02*
D03*
Y192913D02*
D03*
Y183465D02*
D03*
X73622Y216929D02*
D03*
X82677Y190945D02*
D03*
X180315Y218110D02*
D03*
X183071Y216142D02*
D03*
X185827Y218110D02*
D03*
X188583Y216142D02*
D03*
X194095Y216142D02*
D03*
X199606D02*
D03*
X205118Y216142D02*
D03*
X210630D02*
D03*
X216142D02*
D03*
X221654D02*
D03*
X231693Y188878D02*
D03*
X231715Y185076D02*
D03*
X236035Y182890D02*
D03*
X236035Y179740D02*
D03*
X236035Y176591D02*
D03*
X238791Y184465D02*
D03*
X238791Y181315D02*
D03*
X238791Y178165D02*
D03*
X238791Y175016D02*
D03*
X241339Y208661D02*
D03*
Y211811D02*
D03*
Y214961D02*
D03*
X241547Y182890D02*
D03*
X241547Y179740D02*
D03*
X241547Y176591D02*
D03*
X70866Y218504D02*
D03*
Y221654D02*
D03*
Y227953D02*
D03*
Y224803D02*
D03*
X73622Y220079D02*
D03*
Y226378D02*
D03*
Y223228D02*
D03*
X92520Y222441D02*
D03*
Y230315D02*
D03*
X94488Y218504D02*
D03*
Y226378D02*
D03*
X96457Y230315D02*
D03*
Y222441D02*
D03*
X98425Y218504D02*
D03*
Y226378D02*
D03*
X104331Y232283D02*
D03*
X183071Y220079D02*
D03*
X188583D02*
D03*
X191339Y218110D02*
D03*
X194095Y220079D02*
D03*
X196850Y218110D02*
D03*
X199606Y220079D02*
D03*
X202362Y218110D02*
D03*
X205118Y220079D02*
D03*
X207874Y218110D02*
D03*
X210630Y220079D02*
D03*
X213386Y218110D02*
D03*
X216142Y220079D02*
D03*
X218898Y218110D02*
D03*
X221654Y220079D02*
D03*
X224410Y218110D02*
D03*
X250000Y9843D02*
D03*
X244488D02*
D03*
X255512D02*
D03*
X252756Y11417D02*
D03*
X247244D02*
D03*
X244488Y12992D02*
D03*
X250000D02*
D03*
X255512D02*
D03*
X252756Y14567D02*
D03*
X247244D02*
D03*
X251060Y25571D02*
D03*
X244094Y29528D02*
D03*
X246850Y31102D02*
D03*
X244094Y32677D02*
D03*
X249606D02*
D03*
X255118D02*
D03*
X246850Y34252D02*
D03*
X244094Y35827D02*
D03*
X246850Y37402D02*
D03*
X252362Y38583D02*
D03*
X244094Y38976D02*
D03*
X257874Y51575D02*
D03*
X249606Y53150D02*
D03*
X244094D02*
D03*
X255118D02*
D03*
X252362Y54724D02*
D03*
X246850D02*
D03*
X257874D02*
D03*
X244094Y56299D02*
D03*
X249606D02*
D03*
X255118D02*
D03*
X252362Y57874D02*
D03*
X261024Y9843D02*
D03*
X266535D02*
D03*
X272047D02*
D03*
X258268Y11417D02*
D03*
X263779D02*
D03*
X269291D02*
D03*
X261024Y12992D02*
D03*
X266535D02*
D03*
X272047D02*
D03*
X258268Y14567D02*
D03*
X263779D02*
D03*
X269291D02*
D03*
X260630Y32677D02*
D03*
X266535Y33465D02*
D03*
X272047D02*
D03*
X269291Y35039D02*
D03*
X274803D02*
D03*
X272047Y36614D02*
D03*
X266535Y36614D02*
D03*
X269291Y38189D02*
D03*
X266535Y39764D02*
D03*
X272047D02*
D03*
X269291Y41339D02*
D03*
X272047Y42913D02*
D03*
X269291Y44488D02*
D03*
X263779Y45276D02*
D03*
X272047Y46063D02*
D03*
Y49213D02*
D03*
X274803Y50787D02*
D03*
X260630Y53150D02*
D03*
X265740Y55810D02*
D03*
X260630Y56299D02*
D03*
X257874Y57874D02*
D03*
X246850D02*
D03*
X249606Y59449D02*
D03*
X255118D02*
D03*
X258268Y170473D02*
D03*
X255512Y168898D02*
D03*
X258268Y161024D02*
D03*
Y164173D02*
D03*
X255512Y165748D02*
D03*
X258268Y167323D02*
D03*
X247059Y173441D02*
D03*
X241547Y173441D02*
D03*
X244303Y175016D02*
D03*
X252571Y176197D02*
D03*
X247059Y176591D02*
D03*
X244303Y178165D02*
D03*
X247059Y179740D02*
D03*
X249815Y181315D02*
D03*
X244303Y181315D02*
D03*
X252571Y182890D02*
D03*
X247059Y182890D02*
D03*
X257874Y183071D02*
D03*
X249815Y184465D02*
D03*
X244303Y184465D02*
D03*
X260630Y184646D02*
D03*
X255118Y184646D02*
D03*
X273622Y93898D02*
D03*
X271654Y97441D02*
D03*
X273622Y100984D02*
D03*
X273622Y135236D02*
D03*
X271654Y138779D02*
D03*
X273622Y142323D02*
D03*
X263779Y161024D02*
D03*
X269291D02*
D03*
X274803D02*
D03*
X261024Y162598D02*
D03*
X266535D02*
D03*
X272047D02*
D03*
X263779Y164173D02*
D03*
X269291D02*
D03*
X261024Y165748D02*
D03*
X266535D02*
D03*
X272047Y165748D02*
D03*
X263779Y167323D02*
D03*
X269291D02*
D03*
X274803D02*
D03*
X261024Y168898D02*
D03*
X266535D02*
D03*
X272047Y168898D02*
D03*
X269291Y170473D02*
D03*
X274803Y170473D02*
D03*
X266535Y172047D02*
D03*
X272047Y172047D02*
D03*
X269291Y173622D02*
D03*
X277559Y33465D02*
D03*
X277559Y36614D02*
D03*
X274803Y38189D02*
D03*
X280315D02*
D03*
X277559Y39764D02*
D03*
X280315Y41339D02*
D03*
X274803D02*
D03*
X277559Y42913D02*
D03*
X274803Y44488D02*
D03*
X280315D02*
D03*
X277559Y46063D02*
D03*
X274803Y47638D02*
D03*
X277559Y49213D02*
D03*
X327370Y77256D02*
D03*
X323043Y77435D02*
D03*
X318504Y87756D02*
D03*
X332095Y90248D02*
D03*
X279528Y90354D02*
D03*
X283465D02*
D03*
X275591D02*
D03*
X285433Y93898D02*
D03*
X275590Y104528D02*
D03*
X287402Y97441D02*
D03*
X285433Y100984D02*
D03*
X332095Y104421D02*
D03*
X283465Y104528D02*
D03*
X344693Y77256D02*
D03*
X349020Y77436D02*
D03*
X380315Y78740D02*
D03*
X334063Y79618D02*
D03*
X338000D02*
D03*
X332095Y83161D02*
D03*
X339968D02*
D03*
X336032D02*
D03*
X362598Y83377D02*
D03*
X353543Y86575D02*
D03*
X334063Y86705D02*
D03*
X338000D02*
D03*
X378740Y87402D02*
D03*
X339968Y90248D02*
D03*
X336032D02*
D03*
X334063Y93791D02*
D03*
X338000D02*
D03*
X332095Y97335D02*
D03*
X339968D02*
D03*
X336032D02*
D03*
X378740Y100000D02*
D03*
X334063Y100878D02*
D03*
X338000D02*
D03*
X353543Y103150D02*
D03*
X339968Y104421D02*
D03*
X336032D02*
D03*
X279528Y104528D02*
D03*
X334063Y107965D02*
D03*
X303683Y112402D02*
D03*
X283465Y131693D02*
D03*
X275591D02*
D03*
X279528D02*
D03*
X332283Y131890D02*
D03*
X285433Y135236D02*
D03*
X287402Y138779D02*
D03*
X332095Y138870D02*
D03*
X304724Y138976D02*
D03*
X285433Y142323D02*
D03*
X275590Y145866D02*
D03*
X283465D02*
D03*
X279528D02*
D03*
X332095Y145957D02*
D03*
X309842Y147638D02*
D03*
X318898Y149539D02*
D03*
X332095Y153043D02*
D03*
X334027Y156867D02*
D03*
X327370Y158949D02*
D03*
X322638Y159092D02*
D03*
X277559Y162598D02*
D03*
X274803Y164173D02*
D03*
X277559Y165748D02*
D03*
X277559Y168898D02*
D03*
X277559Y172047D02*
D03*
X274803Y173622D02*
D03*
X338000Y107965D02*
D03*
X362992Y112992D02*
D03*
X357874D02*
D03*
X334252Y128347D02*
D03*
X338189D02*
D03*
X379134Y129724D02*
D03*
X336221Y131890D02*
D03*
X340158D02*
D03*
X334063Y135327D02*
D03*
X338000D02*
D03*
X336032Y138870D02*
D03*
X339968D02*
D03*
X334063Y142413D02*
D03*
X338000D02*
D03*
X387520Y144646D02*
D03*
X336032Y145957D02*
D03*
X339968D02*
D03*
X353543Y149213D02*
D03*
X334063Y149500D02*
D03*
X338000D02*
D03*
X336032Y153043D02*
D03*
X339968D02*
D03*
X337964Y156867D02*
D03*
X375984Y157480D02*
D03*
X379528D02*
D03*
X344679Y158949D02*
D03*
X349008Y159092D02*
D03*
X252384Y190874D02*
D03*
X252362Y208661D02*
D03*
X246850Y211811D02*
D03*
X257874Y186221D02*
D03*
X263611Y198308D02*
D03*
X255118Y203937D02*
D03*
X265846Y208268D02*
D03*
X246850Y205512D02*
D03*
X249606Y207087D02*
D03*
X244094Y210236D02*
D03*
X255118Y207087D02*
D03*
X246850Y208661D02*
D03*
X244094Y207087D02*
D03*
X249606Y210236D02*
D03*
X252362Y205512D02*
D03*
X252362Y211811D02*
D03*
X244094Y213386D02*
D03*
Y216535D02*
D03*
X246850Y218110D02*
D03*
Y214961D02*
D03*
X247244Y228346D02*
D03*
Y231496D02*
D03*
X249606Y213386D02*
D03*
Y216535D02*
D03*
X250000Y226772D02*
D03*
Y229921D02*
D03*
Y233071D02*
D03*
X252756Y228346D02*
D03*
Y231496D02*
D03*
X255512Y226772D02*
D03*
Y229921D02*
D03*
X255512Y220472D02*
D03*
Y223622D02*
D03*
Y233071D02*
D03*
X258268Y218898D02*
D03*
Y222047D02*
D03*
Y225197D02*
D03*
Y228346D02*
D03*
Y231496D02*
D03*
X261024Y226772D02*
D03*
Y220472D02*
D03*
Y223622D02*
D03*
Y229921D02*
D03*
Y233071D02*
D03*
X263779Y228346D02*
D03*
Y231496D02*
D03*
X263779Y225197D02*
D03*
Y222047D02*
D03*
X267323Y185039D02*
D03*
X272835D02*
D03*
X278346D02*
D03*
X270079Y186614D02*
D03*
X275591D02*
D03*
X281102D02*
D03*
X267323Y188189D02*
D03*
X272835D02*
D03*
X283858D02*
D03*
X278346D02*
D03*
X270079Y189764D02*
D03*
X281102D02*
D03*
X275590D02*
D03*
X272835Y191339D02*
D03*
X267323D02*
D03*
X283858D02*
D03*
X266535Y226772D02*
D03*
Y223622D02*
D03*
Y220472D02*
D03*
X267323Y194488D02*
D03*
Y200787D02*
D03*
Y197638D02*
D03*
X269291Y225197D02*
D03*
Y222047D02*
D03*
X270079Y196063D02*
D03*
Y202362D02*
D03*
Y199213D02*
D03*
X270079Y192913D02*
D03*
X272835Y194488D02*
D03*
Y200787D02*
D03*
Y197638D02*
D03*
X275590Y192913D02*
D03*
X275591Y196063D02*
D03*
Y199213D02*
D03*
Y202362D02*
D03*
X278346Y191339D02*
D03*
Y194488D02*
D03*
Y197638D02*
D03*
Y200787D02*
D03*
X281102Y192913D02*
D03*
Y196063D02*
D03*
Y199213D02*
D03*
X283858Y194488D02*
D03*
X283858Y197638D02*
D03*
D93*
X374016Y19685D02*
D03*
X196850Y118110D02*
D03*
X374016Y216535D02*
D03*
M02*
