G04*
G04 #@! TF.GenerationSoftware,Altium Limited,Altium Designer,22.9.1 (49)*
G04*
G04 Layer_Color=32896*
%FSLAX25Y25*%
%MOIN*%
G70*
G04*
G04 #@! TF.SameCoordinates,58640E65-FB78-4378-B78F-6D08F657F38D*
G04*
G04*
G04 #@! TF.FilePolarity,Positive*
G04*
G01*
G75*
%ADD10C,0.00787*%
G36*
X64171Y85727D02*
X63818D01*
Y86079D01*
X64171D01*
Y85727D01*
D02*
G37*
G36*
X65549Y86117D02*
X65579Y86114D01*
X65612Y86109D01*
X65650Y86103D01*
X65691Y86095D01*
X65735Y86087D01*
X65781Y86073D01*
X65828Y86057D01*
X65874Y86038D01*
X65921Y86016D01*
X65967Y85991D01*
X66011Y85961D01*
X66054Y85929D01*
X66057Y85926D01*
X66062Y85920D01*
X66073Y85909D01*
X66087Y85893D01*
X66106Y85874D01*
X66125Y85852D01*
X66144Y85825D01*
X66166Y85792D01*
X66188Y85759D01*
X66210Y85721D01*
X66229Y85677D01*
X66248Y85634D01*
X66267Y85585D01*
X66281Y85533D01*
X66292Y85475D01*
X66300Y85418D01*
X65975Y85394D01*
Y85396D01*
X65972Y85404D01*
X65970Y85415D01*
X65967Y85432D01*
X65964Y85451D01*
X65956Y85475D01*
X65942Y85527D01*
X65921Y85585D01*
X65891Y85645D01*
X65855Y85699D01*
X65833Y85724D01*
X65811Y85748D01*
X65809D01*
X65806Y85754D01*
X65798Y85759D01*
X65787Y85768D01*
X65759Y85787D01*
X65721Y85806D01*
X65675Y85828D01*
X65620Y85847D01*
X65560Y85860D01*
X65527Y85863D01*
X65492Y85866D01*
X65470D01*
X65454Y85863D01*
X65435Y85860D01*
X65413Y85858D01*
X65361Y85844D01*
X65301Y85825D01*
X65271Y85811D01*
X65238Y85795D01*
X65205Y85776D01*
X65175Y85754D01*
X65145Y85729D01*
X65115Y85699D01*
X65112Y85697D01*
X65110Y85691D01*
X65101Y85683D01*
X65091Y85669D01*
X65080Y85650D01*
X65066Y85631D01*
X65052Y85606D01*
X65036Y85579D01*
X65022Y85549D01*
X65009Y85516D01*
X64995Y85478D01*
X64984Y85440D01*
X64973Y85396D01*
X64965Y85350D01*
X64962Y85303D01*
X64960Y85252D01*
Y85249D01*
Y85241D01*
Y85227D01*
X64962Y85208D01*
X64965Y85186D01*
X64968Y85159D01*
X64973Y85131D01*
X64979Y85099D01*
X64995Y85033D01*
X65022Y84962D01*
X65039Y84929D01*
X65061Y84897D01*
X65082Y84864D01*
X65110Y84834D01*
X65112Y84831D01*
X65115Y84828D01*
X65126Y84820D01*
X65137Y84809D01*
X65151Y84798D01*
X65170Y84785D01*
X65189Y84771D01*
X65213Y84755D01*
X65241Y84741D01*
X65268Y84727D01*
X65336Y84703D01*
X65372Y84692D01*
X65413Y84684D01*
X65454Y84681D01*
X65497Y84678D01*
X65522D01*
X65552Y84681D01*
X65587Y84686D01*
X65631Y84695D01*
X65677Y84708D01*
X65724Y84725D01*
X65770Y84749D01*
X65776Y84752D01*
X65790Y84760D01*
X65811Y84777D01*
X65839Y84796D01*
X65866Y84823D01*
X65899Y84853D01*
X65929Y84888D01*
X65956Y84927D01*
X66245Y84886D01*
X66002Y83592D01*
X64749D01*
Y83887D01*
X65757D01*
X65891Y84564D01*
X65888Y84561D01*
X65879Y84555D01*
X65869Y84550D01*
X65852Y84539D01*
X65830Y84528D01*
X65806Y84514D01*
X65778Y84498D01*
X65746Y84484D01*
X65713Y84471D01*
X65675Y84454D01*
X65596Y84430D01*
X65552Y84419D01*
X65508Y84411D01*
X65462Y84408D01*
X65415Y84405D01*
X65402D01*
X65383Y84408D01*
X65361D01*
X65334Y84413D01*
X65301Y84416D01*
X65263Y84424D01*
X65224Y84433D01*
X65181Y84446D01*
X65137Y84460D01*
X65091Y84479D01*
X65044Y84501D01*
X64998Y84528D01*
X64951Y84558D01*
X64905Y84594D01*
X64861Y84635D01*
X64859Y84637D01*
X64850Y84645D01*
X64839Y84659D01*
X64826Y84676D01*
X64807Y84697D01*
X64788Y84727D01*
X64768Y84757D01*
X64747Y84793D01*
X64725Y84834D01*
X64706Y84880D01*
X64684Y84927D01*
X64667Y84981D01*
X64654Y85036D01*
X64643Y85096D01*
X64635Y85159D01*
X64632Y85224D01*
Y85227D01*
Y85241D01*
Y85257D01*
X64635Y85282D01*
X64637Y85312D01*
X64643Y85344D01*
X64648Y85383D01*
X64657Y85426D01*
X64667Y85470D01*
X64681Y85519D01*
X64697Y85568D01*
X64717Y85617D01*
X64738Y85667D01*
X64766Y85718D01*
X64796Y85768D01*
X64831Y85814D01*
X64834Y85817D01*
X64842Y85828D01*
X64856Y85841D01*
X64875Y85860D01*
X64899Y85885D01*
X64929Y85909D01*
X64965Y85940D01*
X65006Y85967D01*
X65050Y85994D01*
X65099Y86024D01*
X65153Y86049D01*
X65213Y86071D01*
X65276Y86092D01*
X65345Y86106D01*
X65415Y86117D01*
X65492Y86120D01*
X65525D01*
X65549Y86117D01*
D02*
G37*
G36*
X62511Y84110D02*
X62516Y84116D01*
X62530Y84130D01*
X62554Y84149D01*
X62590Y84176D01*
X62631Y84209D01*
X62683Y84244D01*
X62740Y84282D01*
X62806Y84323D01*
X62808D01*
X62814Y84329D01*
X62822Y84334D01*
X62836Y84340D01*
X62852Y84351D01*
X62871Y84359D01*
X62915Y84383D01*
X62964Y84408D01*
X63019Y84435D01*
X63076Y84460D01*
X63130Y84482D01*
Y84184D01*
X63128Y84181D01*
X63120Y84179D01*
X63106Y84171D01*
X63087Y84162D01*
X63065Y84151D01*
X63038Y84135D01*
X63008Y84119D01*
X62978Y84102D01*
X62907Y84059D01*
X62830Y84007D01*
X62751Y83952D01*
X62677Y83889D01*
X62674Y83887D01*
X62669Y83881D01*
X62658Y83873D01*
X62644Y83859D01*
X62631Y83843D01*
X62612Y83827D01*
X62571Y83780D01*
X62524Y83731D01*
X62478Y83674D01*
X62437Y83614D01*
X62401Y83551D01*
X62202D01*
Y86079D01*
X62511D01*
Y84110D01*
D02*
G37*
G36*
X66688Y86267D02*
X66704Y86262D01*
X66723Y86253D01*
X66748Y86243D01*
X66778Y86232D01*
X66811Y86215D01*
X66846Y86196D01*
X66884Y86177D01*
X66928Y86155D01*
X67018Y86103D01*
X67116Y86041D01*
X67217Y85967D01*
X67220Y85970D01*
X67231Y85972D01*
X67245Y85980D01*
X67266Y85991D01*
X67294Y86002D01*
X67324Y86016D01*
X67359Y86030D01*
X67400Y86043D01*
X67444Y86057D01*
X67493Y86071D01*
X67542Y86084D01*
X67597Y86095D01*
X67714Y86114D01*
X67774Y86117D01*
X67837Y86120D01*
X67870D01*
X67894Y86117D01*
X67924Y86114D01*
X67960Y86111D01*
X67998Y86106D01*
X68042Y86098D01*
X68088Y86090D01*
X68137Y86079D01*
X68189Y86065D01*
X68241Y86051D01*
X68296Y86032D01*
X68350Y86010D01*
X68405Y85986D01*
X68457Y85956D01*
X68459Y85953D01*
X68468Y85948D01*
X68484Y85940D01*
X68503Y85926D01*
X68525Y85909D01*
X68552Y85888D01*
X68582Y85863D01*
X68615Y85836D01*
X68648Y85806D01*
X68683Y85770D01*
X68719Y85732D01*
X68754Y85691D01*
X68790Y85647D01*
X68822Y85601D01*
X68855Y85549D01*
X68885Y85495D01*
X68888Y85492D01*
X68891Y85481D01*
X68899Y85465D01*
X68910Y85443D01*
X68921Y85413D01*
X68932Y85380D01*
X68945Y85342D01*
X68959Y85298D01*
X68975Y85249D01*
X68989Y85197D01*
X69000Y85142D01*
X69011Y85082D01*
X69022Y85022D01*
X69030Y84957D01*
X69033Y84888D01*
X69035Y84820D01*
Y84815D01*
Y84804D01*
Y84785D01*
X69033Y84757D01*
X69030Y84725D01*
X69027Y84686D01*
X69022Y84643D01*
X69016Y84594D01*
X69008Y84544D01*
X69000Y84490D01*
X68973Y84375D01*
X68954Y84318D01*
X68934Y84258D01*
X68913Y84198D01*
X68885Y84140D01*
X68883Y84138D01*
X68877Y84127D01*
X68869Y84110D01*
X68858Y84091D01*
X68842Y84064D01*
X68822Y84034D01*
X68801Y84004D01*
X68776Y83969D01*
X68746Y83930D01*
X68713Y83892D01*
X68681Y83854D01*
X68642Y83816D01*
X68599Y83777D01*
X68555Y83742D01*
X68508Y83706D01*
X68457Y83676D01*
X68454Y83674D01*
X68443Y83668D01*
X68429Y83663D01*
X68407Y83652D01*
X68380Y83638D01*
X68350Y83625D01*
X68312Y83611D01*
X68274Y83595D01*
X68227Y83581D01*
X68181Y83567D01*
X68129Y83553D01*
X68072Y83540D01*
X68014Y83529D01*
X67954Y83523D01*
X67892Y83518D01*
X67829Y83515D01*
X67796D01*
X67771Y83518D01*
X67739Y83521D01*
X67703Y83523D01*
X67665Y83529D01*
X67621Y83537D01*
X67572Y83545D01*
X67523Y83556D01*
X67471Y83570D01*
X67417Y83586D01*
X67362Y83605D01*
X67307Y83627D01*
X67256Y83652D01*
X67201Y83682D01*
X67198Y83685D01*
X67187Y83690D01*
X67174Y83698D01*
X67155Y83712D01*
X67130Y83728D01*
X67105Y83750D01*
X67075Y83775D01*
X67042Y83802D01*
X67007Y83835D01*
X66972Y83868D01*
X66936Y83906D01*
X66901Y83947D01*
X66868Y83993D01*
X66832Y84039D01*
X66802Y84091D01*
X66772Y84146D01*
X66769Y84149D01*
X66767Y84160D01*
X66759Y84176D01*
X66750Y84198D01*
X66737Y84225D01*
X66726Y84261D01*
X66712Y84299D01*
X66699Y84342D01*
X66685Y84389D01*
X66671Y84441D01*
X66658Y84495D01*
X66647Y84555D01*
X66638Y84615D01*
X66630Y84681D01*
X66628Y84749D01*
X66625Y84817D01*
Y84820D01*
Y84831D01*
Y84847D01*
X66628Y84869D01*
Y84897D01*
X66630Y84929D01*
X66633Y84965D01*
X66636Y85003D01*
X66641Y85047D01*
X66649Y85091D01*
X66666Y85186D01*
X66688Y85282D01*
X66720Y85377D01*
Y85380D01*
X66726Y85388D01*
X66731Y85402D01*
X66739Y85418D01*
X66748Y85440D01*
X66761Y85465D01*
X66775Y85495D01*
X66791Y85525D01*
X66832Y85593D01*
X66882Y85664D01*
X66939Y85738D01*
X67007Y85808D01*
X67004Y85811D01*
X66996Y85817D01*
X66985Y85825D01*
X66966Y85836D01*
X66947Y85847D01*
X66922Y85863D01*
X66895Y85879D01*
X66865Y85899D01*
X66800Y85937D01*
X66726Y85975D01*
X66649Y86013D01*
X66576Y86043D01*
X66677Y86273D01*
X66679D01*
X66688Y86267D01*
D02*
G37*
G36*
X72572Y117135D02*
X72597Y117133D01*
X72627Y117130D01*
X72660Y117124D01*
X72695Y117116D01*
X72774Y117097D01*
X72812Y117084D01*
X72856Y117067D01*
X72897Y117048D01*
X72935Y117024D01*
X72974Y116999D01*
X73012Y116969D01*
X73014Y116966D01*
X73020Y116961D01*
X73031Y116953D01*
X73042Y116939D01*
X73058Y116922D01*
X73075Y116901D01*
X73094Y116876D01*
X73113Y116849D01*
X73132Y116819D01*
X73151Y116783D01*
X73170Y116745D01*
X73189Y116704D01*
X73206Y116660D01*
X73219Y116614D01*
X73233Y116565D01*
X73241Y116510D01*
X72933Y116486D01*
Y116488D01*
X72930Y116494D01*
X72927Y116502D01*
X72924Y116516D01*
X72916Y116549D01*
X72903Y116587D01*
X72886Y116630D01*
X72864Y116674D01*
X72843Y116715D01*
X72815Y116751D01*
X72812Y116753D01*
X72810Y116756D01*
X72802Y116764D01*
X72793Y116772D01*
X72766Y116794D01*
X72728Y116819D01*
X72684Y116843D01*
X72629Y116862D01*
X72570Y116879D01*
X72537Y116882D01*
X72504Y116884D01*
X72479D01*
X72449Y116879D01*
X72414Y116873D01*
X72373Y116862D01*
X72329Y116849D01*
X72286Y116827D01*
X72242Y116800D01*
X72239D01*
X72236Y116794D01*
X72228Y116789D01*
X72217Y116780D01*
X72193Y116756D01*
X72160Y116720D01*
X72122Y116677D01*
X72084Y116622D01*
X72048Y116559D01*
X72013Y116488D01*
Y116486D01*
X72010Y116480D01*
X72004Y116467D01*
X71999Y116450D01*
X71993Y116431D01*
X71985Y116404D01*
X71977Y116374D01*
X71969Y116341D01*
X71961Y116303D01*
X71955Y116259D01*
X71947Y116210D01*
X71939Y116158D01*
X71933Y116103D01*
X71931Y116043D01*
X71928Y115978D01*
X71925Y115912D01*
X71931Y115918D01*
X71936Y115926D01*
X71944Y115937D01*
X71969Y115967D01*
X71999Y116005D01*
X72040Y116046D01*
X72086Y116087D01*
X72138Y116125D01*
X72196Y116161D01*
X72198D01*
X72204Y116164D01*
X72212Y116169D01*
X72223Y116174D01*
X72239Y116180D01*
X72255Y116188D01*
X72299Y116205D01*
X72351Y116218D01*
X72408Y116232D01*
X72471Y116243D01*
X72537Y116245D01*
X72550D01*
X72567Y116243D01*
X72589D01*
X72616Y116237D01*
X72646Y116235D01*
X72681Y116226D01*
X72720Y116218D01*
X72758Y116205D01*
X72802Y116191D01*
X72845Y116172D01*
X72889Y116150D01*
X72935Y116123D01*
X72979Y116093D01*
X73023Y116057D01*
X73064Y116016D01*
X73066Y116013D01*
X73072Y116005D01*
X73083Y115994D01*
X73099Y115975D01*
X73115Y115953D01*
X73132Y115926D01*
X73154Y115893D01*
X73173Y115858D01*
X73192Y115817D01*
X73214Y115773D01*
X73230Y115724D01*
X73249Y115672D01*
X73263Y115618D01*
X73274Y115558D01*
X73279Y115495D01*
X73282Y115429D01*
Y115427D01*
Y115418D01*
Y115407D01*
X73279Y115388D01*
Y115369D01*
X73277Y115345D01*
X73274Y115314D01*
X73268Y115285D01*
X73257Y115216D01*
X73238Y115143D01*
X73214Y115066D01*
X73178Y114987D01*
Y114984D01*
X73173Y114979D01*
X73167Y114968D01*
X73159Y114954D01*
X73148Y114938D01*
X73137Y114919D01*
X73105Y114872D01*
X73066Y114823D01*
X73017Y114771D01*
X72960Y114719D01*
X72897Y114676D01*
X72894D01*
X72889Y114670D01*
X72878Y114665D01*
X72864Y114659D01*
X72848Y114651D01*
X72829Y114643D01*
X72804Y114632D01*
X72780Y114624D01*
X72720Y114602D01*
X72649Y114586D01*
X72572Y114575D01*
X72490Y114569D01*
X72474D01*
X72452Y114572D01*
X72425Y114575D01*
X72392Y114577D01*
X72354Y114586D01*
X72313Y114594D01*
X72267Y114605D01*
X72217Y114621D01*
X72165Y114637D01*
X72114Y114662D01*
X72062Y114689D01*
X72007Y114722D01*
X71958Y114760D01*
X71906Y114804D01*
X71860Y114853D01*
X71857Y114856D01*
X71849Y114867D01*
X71838Y114883D01*
X71821Y114908D01*
X71802Y114938D01*
X71783Y114976D01*
X71761Y115022D01*
X71740Y115077D01*
X71715Y115137D01*
X71693Y115205D01*
X71674Y115282D01*
X71655Y115366D01*
X71639Y115459D01*
X71628Y115560D01*
X71619Y115669D01*
X71617Y115787D01*
Y115790D01*
Y115795D01*
Y115806D01*
Y115820D01*
Y115836D01*
X71619Y115858D01*
Y115880D01*
X71622Y115907D01*
X71625Y115967D01*
X71630Y116035D01*
X71639Y116112D01*
X71649Y116194D01*
X71666Y116281D01*
X71682Y116368D01*
X71704Y116456D01*
X71731Y116543D01*
X71761Y116628D01*
X71797Y116710D01*
X71841Y116783D01*
X71887Y116849D01*
X71890Y116851D01*
X71898Y116862D01*
X71912Y116876D01*
X71931Y116895D01*
X71952Y116917D01*
X71983Y116942D01*
X72015Y116966D01*
X72053Y116993D01*
X72097Y117021D01*
X72146Y117045D01*
X72198Y117070D01*
X72255Y117092D01*
X72316Y117111D01*
X72381Y117124D01*
X72449Y117135D01*
X72523Y117138D01*
X72553D01*
X72572Y117135D01*
D02*
G37*
G36*
X75731Y114610D02*
X75422D01*
Y116578D01*
X75417Y116573D01*
X75403Y116559D01*
X75379Y116540D01*
X75343Y116513D01*
X75302Y116480D01*
X75250Y116445D01*
X75193Y116407D01*
X75128Y116366D01*
X75125D01*
X75119Y116360D01*
X75111Y116355D01*
X75098Y116349D01*
X75081Y116338D01*
X75062Y116330D01*
X75018Y116305D01*
X74969Y116281D01*
X74915Y116254D01*
X74857Y116229D01*
X74803Y116207D01*
Y116505D01*
X74805Y116507D01*
X74813Y116510D01*
X74827Y116518D01*
X74846Y116527D01*
X74868Y116538D01*
X74896Y116554D01*
X74926Y116570D01*
X74955Y116587D01*
X75027Y116630D01*
X75103Y116682D01*
X75182Y116737D01*
X75256Y116800D01*
X75258Y116802D01*
X75264Y116808D01*
X75275Y116816D01*
X75289Y116830D01*
X75302Y116846D01*
X75321Y116862D01*
X75362Y116909D01*
X75409Y116958D01*
X75455Y117015D01*
X75496Y117075D01*
X75532Y117138D01*
X75731D01*
Y114610D01*
D02*
G37*
G36*
X74115D02*
X73763D01*
Y114962D01*
X74115D01*
Y114610D01*
D02*
G37*
G36*
X70162Y117171D02*
X70194Y117168D01*
X70230Y117166D01*
X70268Y117160D01*
X70312Y117152D01*
X70361Y117144D01*
X70410Y117133D01*
X70462Y117119D01*
X70517Y117103D01*
X70571Y117084D01*
X70626Y117062D01*
X70678Y117037D01*
X70732Y117007D01*
X70735Y117004D01*
X70746Y116999D01*
X70759Y116991D01*
X70779Y116977D01*
X70803Y116961D01*
X70828Y116939D01*
X70858Y116914D01*
X70890Y116887D01*
X70926Y116854D01*
X70961Y116822D01*
X70997Y116783D01*
X71033Y116742D01*
X71065Y116696D01*
X71101Y116649D01*
X71131Y116598D01*
X71161Y116543D01*
X71163Y116540D01*
X71166Y116529D01*
X71175Y116513D01*
X71183Y116491D01*
X71196Y116464D01*
X71207Y116428D01*
X71221Y116390D01*
X71235Y116347D01*
X71248Y116300D01*
X71262Y116248D01*
X71276Y116194D01*
X71286Y116133D01*
X71295Y116074D01*
X71303Y116008D01*
X71306Y115940D01*
X71308Y115872D01*
Y115869D01*
Y115858D01*
Y115841D01*
X71306Y115820D01*
Y115792D01*
X71303Y115760D01*
X71300Y115724D01*
X71297Y115686D01*
X71292Y115642D01*
X71284Y115598D01*
X71267Y115503D01*
X71245Y115407D01*
X71213Y115312D01*
Y115309D01*
X71207Y115301D01*
X71202Y115287D01*
X71194Y115271D01*
X71185Y115249D01*
X71172Y115224D01*
X71158Y115194D01*
X71142Y115164D01*
X71101Y115096D01*
X71052Y115025D01*
X70994Y114951D01*
X70926Y114881D01*
X70929Y114878D01*
X70937Y114872D01*
X70948Y114864D01*
X70967Y114853D01*
X70986Y114842D01*
X71011Y114826D01*
X71038Y114810D01*
X71068Y114790D01*
X71134Y114752D01*
X71207Y114714D01*
X71284Y114676D01*
X71357Y114646D01*
X71256Y114416D01*
X71254D01*
X71245Y114422D01*
X71229Y114427D01*
X71210Y114436D01*
X71185Y114446D01*
X71155Y114457D01*
X71123Y114474D01*
X71087Y114493D01*
X71049Y114512D01*
X71005Y114534D01*
X70915Y114586D01*
X70817Y114648D01*
X70716Y114722D01*
X70713Y114719D01*
X70702Y114717D01*
X70688Y114708D01*
X70667Y114698D01*
X70639Y114687D01*
X70609Y114673D01*
X70574Y114659D01*
X70533Y114646D01*
X70489Y114632D01*
X70440Y114618D01*
X70391Y114605D01*
X70336Y114594D01*
X70219Y114575D01*
X70159Y114572D01*
X70096Y114569D01*
X70063D01*
X70039Y114572D01*
X70009Y114575D01*
X69973Y114577D01*
X69935Y114583D01*
X69891Y114591D01*
X69845Y114599D01*
X69796Y114610D01*
X69744Y114624D01*
X69692Y114637D01*
X69638Y114657D01*
X69583Y114678D01*
X69528Y114703D01*
X69476Y114733D01*
X69474Y114736D01*
X69466Y114741D01*
X69449Y114749D01*
X69430Y114763D01*
X69408Y114779D01*
X69381Y114801D01*
X69351Y114826D01*
X69318Y114853D01*
X69285Y114883D01*
X69250Y114919D01*
X69214Y114957D01*
X69179Y114998D01*
X69143Y115041D01*
X69111Y115088D01*
X69078Y115140D01*
X69048Y115194D01*
X69045Y115197D01*
X69042Y115208D01*
X69034Y115224D01*
X69023Y115246D01*
X69012Y115276D01*
X69001Y115309D01*
X68988Y115347D01*
X68974Y115391D01*
X68958Y115440D01*
X68944Y115492D01*
X68933Y115547D01*
X68922Y115607D01*
X68911Y115667D01*
X68903Y115732D01*
X68900Y115800D01*
X68898Y115869D01*
Y115874D01*
Y115885D01*
Y115904D01*
X68900Y115931D01*
X68903Y115964D01*
X68906Y116003D01*
X68911Y116046D01*
X68917Y116095D01*
X68925Y116145D01*
X68933Y116199D01*
X68960Y116314D01*
X68980Y116371D01*
X68999Y116431D01*
X69020Y116491D01*
X69048Y116549D01*
X69051Y116551D01*
X69056Y116562D01*
X69064Y116578D01*
X69075Y116598D01*
X69091Y116625D01*
X69111Y116655D01*
X69132Y116685D01*
X69157Y116720D01*
X69187Y116759D01*
X69220Y116797D01*
X69253Y116835D01*
X69291Y116873D01*
X69334Y116912D01*
X69378Y116947D01*
X69424Y116983D01*
X69476Y117013D01*
X69479Y117015D01*
X69490Y117021D01*
X69504Y117026D01*
X69525Y117037D01*
X69553Y117051D01*
X69583Y117064D01*
X69621Y117078D01*
X69659Y117095D01*
X69706Y117108D01*
X69752Y117122D01*
X69804Y117135D01*
X69861Y117149D01*
X69919Y117160D01*
X69979Y117166D01*
X70042Y117171D01*
X70104Y117174D01*
X70137D01*
X70162Y117171D01*
D02*
G37*
G36*
X63186Y190057D02*
X62834D01*
Y190410D01*
X63186D01*
Y190057D01*
D02*
G37*
G36*
X64565Y190448D02*
X64595Y190445D01*
X64628Y190439D01*
X64666Y190434D01*
X64707Y190426D01*
X64751Y190418D01*
X64797Y190404D01*
X64843Y190388D01*
X64890Y190368D01*
X64936Y190347D01*
X64983Y190322D01*
X65026Y190292D01*
X65070Y190259D01*
X65073Y190257D01*
X65078Y190251D01*
X65089Y190240D01*
X65103Y190224D01*
X65122Y190205D01*
X65141Y190183D01*
X65160Y190156D01*
X65182Y190123D01*
X65204Y190090D01*
X65226Y190052D01*
X65245Y190008D01*
X65264Y189964D01*
X65283Y189915D01*
X65297Y189864D01*
X65307Y189806D01*
X65316Y189749D01*
X64991Y189724D01*
Y189727D01*
X64988Y189735D01*
X64985Y189746D01*
X64983Y189762D01*
X64980Y189782D01*
X64972Y189806D01*
X64958Y189858D01*
X64936Y189915D01*
X64906Y189975D01*
X64871Y190030D01*
X64849Y190055D01*
X64827Y190079D01*
X64824D01*
X64822Y190085D01*
X64813Y190090D01*
X64802Y190098D01*
X64775Y190117D01*
X64737Y190137D01*
X64691Y190158D01*
X64636Y190177D01*
X64576Y190191D01*
X64543Y190194D01*
X64508Y190197D01*
X64486D01*
X64469Y190194D01*
X64450Y190191D01*
X64429Y190188D01*
X64377Y190175D01*
X64316Y190156D01*
X64287Y190142D01*
X64254Y190126D01*
X64221Y190106D01*
X64191Y190085D01*
X64161Y190060D01*
X64131Y190030D01*
X64128Y190027D01*
X64125Y190022D01*
X64117Y190014D01*
X64106Y190000D01*
X64095Y189981D01*
X64082Y189962D01*
X64068Y189937D01*
X64052Y189910D01*
X64038Y189880D01*
X64024Y189847D01*
X64011Y189809D01*
X64000Y189771D01*
X63989Y189727D01*
X63981Y189681D01*
X63978Y189634D01*
X63975Y189582D01*
Y189580D01*
Y189571D01*
Y189558D01*
X63978Y189539D01*
X63981Y189517D01*
X63984Y189489D01*
X63989Y189462D01*
X63994Y189429D01*
X64011Y189364D01*
X64038Y189293D01*
X64055Y189260D01*
X64076Y189227D01*
X64098Y189195D01*
X64125Y189165D01*
X64128Y189162D01*
X64131Y189159D01*
X64142Y189151D01*
X64153Y189140D01*
X64166Y189129D01*
X64186Y189116D01*
X64205Y189102D01*
X64229Y189085D01*
X64257Y189072D01*
X64284Y189058D01*
X64352Y189034D01*
X64388Y189023D01*
X64429Y189014D01*
X64469Y189012D01*
X64513Y189009D01*
X64538D01*
X64568Y189012D01*
X64603Y189017D01*
X64647Y189025D01*
X64693Y189039D01*
X64740Y189055D01*
X64786Y189080D01*
X64792Y189083D01*
X64805Y189091D01*
X64827Y189107D01*
X64854Y189126D01*
X64882Y189154D01*
X64914Y189184D01*
X64944Y189219D01*
X64972Y189257D01*
X65261Y189216D01*
X65018Y187923D01*
X63765D01*
Y188217D01*
X64772D01*
X64906Y188894D01*
X64903Y188892D01*
X64895Y188886D01*
X64884Y188881D01*
X64868Y188870D01*
X64846Y188859D01*
X64822Y188845D01*
X64794Y188829D01*
X64762Y188815D01*
X64729Y188802D01*
X64691Y188785D01*
X64611Y188761D01*
X64568Y188750D01*
X64524Y188742D01*
X64478Y188739D01*
X64431Y188736D01*
X64418D01*
X64398Y188739D01*
X64377D01*
X64349Y188744D01*
X64316Y188747D01*
X64278Y188755D01*
X64240Y188763D01*
X64196Y188777D01*
X64153Y188791D01*
X64106Y188810D01*
X64060Y188831D01*
X64013Y188859D01*
X63967Y188889D01*
X63921Y188924D01*
X63877Y188965D01*
X63874Y188968D01*
X63866Y188976D01*
X63855Y188990D01*
X63841Y189006D01*
X63822Y189028D01*
X63803Y189058D01*
X63784Y189088D01*
X63762Y189124D01*
X63740Y189165D01*
X63721Y189211D01*
X63700Y189257D01*
X63683Y189312D01*
X63670Y189367D01*
X63659Y189427D01*
X63650Y189489D01*
X63648Y189555D01*
Y189558D01*
Y189571D01*
Y189588D01*
X63650Y189612D01*
X63653Y189642D01*
X63659Y189675D01*
X63664Y189713D01*
X63672Y189757D01*
X63683Y189801D01*
X63697Y189850D01*
X63713Y189899D01*
X63732Y189948D01*
X63754Y189997D01*
X63781Y190049D01*
X63811Y190098D01*
X63847Y190145D01*
X63850Y190147D01*
X63858Y190158D01*
X63872Y190172D01*
X63891Y190191D01*
X63915Y190216D01*
X63945Y190240D01*
X63981Y190270D01*
X64022Y190298D01*
X64065Y190325D01*
X64114Y190355D01*
X64169Y190380D01*
X64229Y190401D01*
X64292Y190423D01*
X64360Y190437D01*
X64431Y190448D01*
X64508Y190450D01*
X64540D01*
X64565Y190448D01*
D02*
G37*
G36*
X62425Y190404D02*
Y190390D01*
Y190368D01*
X62422Y190341D01*
X62419Y190308D01*
X62411Y190273D01*
X62403Y190235D01*
X62389Y190197D01*
Y190194D01*
X62386Y190188D01*
X62384Y190180D01*
X62378Y190166D01*
X62370Y190153D01*
X62362Y190134D01*
X62340Y190090D01*
X62313Y190038D01*
X62277Y189981D01*
X62236Y189921D01*
X62187Y189861D01*
X62184Y189858D01*
X62182Y189853D01*
X62173Y189844D01*
X62160Y189831D01*
X62146Y189817D01*
X62127Y189798D01*
X62108Y189776D01*
X62083Y189752D01*
X62056Y189724D01*
X62026Y189697D01*
X61993Y189664D01*
X61955Y189631D01*
X61917Y189596D01*
X61873Y189560D01*
X61830Y189522D01*
X61780Y189481D01*
X61775Y189479D01*
X61761Y189465D01*
X61742Y189448D01*
X61715Y189424D01*
X61682Y189397D01*
X61644Y189364D01*
X61600Y189328D01*
X61557Y189287D01*
X61464Y189203D01*
X61374Y189113D01*
X61330Y189069D01*
X61289Y189025D01*
X61253Y188984D01*
X61224Y188946D01*
X61221Y188944D01*
X61218Y188938D01*
X61210Y188927D01*
X61202Y188913D01*
X61188Y188894D01*
X61177Y188875D01*
X61150Y188826D01*
X61122Y188769D01*
X61098Y188706D01*
X61081Y188640D01*
X61079Y188608D01*
X61076Y188575D01*
Y188572D01*
Y188567D01*
Y188556D01*
X61079Y188545D01*
Y188529D01*
X61084Y188509D01*
X61092Y188469D01*
X61109Y188419D01*
X61133Y188367D01*
X61147Y188340D01*
X61166Y188316D01*
X61185Y188291D01*
X61210Y188266D01*
X61212Y188264D01*
X61215Y188261D01*
X61224Y188256D01*
X61234Y188247D01*
X61248Y188236D01*
X61264Y188225D01*
X61303Y188201D01*
X61355Y188179D01*
X61412Y188157D01*
X61480Y188144D01*
X61518Y188138D01*
X61578D01*
X61595Y188141D01*
X61614D01*
X61636Y188146D01*
X61685Y188154D01*
X61742Y188171D01*
X61802Y188196D01*
X61832Y188212D01*
X61862Y188228D01*
X61890Y188250D01*
X61917Y188275D01*
X61920Y188277D01*
X61922Y188280D01*
X61928Y188288D01*
X61939Y188299D01*
X61947Y188313D01*
X61958Y188329D01*
X61971Y188348D01*
X61982Y188370D01*
X61996Y188395D01*
X62007Y188422D01*
X62029Y188488D01*
X62045Y188558D01*
X62048Y188600D01*
X62051Y188643D01*
X62367Y188610D01*
Y188605D01*
X62365Y188594D01*
X62362Y188578D01*
X62359Y188553D01*
X62354Y188523D01*
X62345Y188488D01*
X62337Y188449D01*
X62324Y188408D01*
X62310Y188367D01*
X62294Y188321D01*
X62272Y188277D01*
X62250Y188234D01*
X62223Y188187D01*
X62193Y188146D01*
X62160Y188105D01*
X62122Y188070D01*
X62119Y188067D01*
X62111Y188062D01*
X62100Y188054D01*
X62083Y188040D01*
X62062Y188026D01*
X62034Y188010D01*
X62004Y187993D01*
X61969Y187974D01*
X61931Y187958D01*
X61887Y187942D01*
X61840Y187925D01*
X61789Y187911D01*
X61734Y187898D01*
X61677Y187890D01*
X61614Y187884D01*
X61548Y187882D01*
X61513D01*
X61488Y187884D01*
X61458Y187887D01*
X61423Y187892D01*
X61382Y187898D01*
X61341Y187906D01*
X61294Y187917D01*
X61248Y187931D01*
X61199Y187947D01*
X61152Y187966D01*
X61103Y187991D01*
X61057Y188018D01*
X61013Y188048D01*
X60972Y188084D01*
X60970Y188086D01*
X60964Y188092D01*
X60953Y188105D01*
X60940Y188119D01*
X60923Y188138D01*
X60904Y188163D01*
X60885Y188190D01*
X60866Y188223D01*
X60847Y188256D01*
X60828Y188294D01*
X60808Y188335D01*
X60792Y188378D01*
X60778Y188427D01*
X60768Y188477D01*
X60762Y188529D01*
X60759Y188583D01*
Y188586D01*
Y188589D01*
Y188597D01*
Y188608D01*
X60762Y188638D01*
X60768Y188676D01*
X60776Y188722D01*
X60787Y188771D01*
X60800Y188826D01*
X60822Y188881D01*
Y188883D01*
X60825Y188886D01*
X60828Y188894D01*
X60833Y188905D01*
X60849Y188935D01*
X60871Y188973D01*
X60901Y189020D01*
X60937Y189072D01*
X60978Y189126D01*
X61030Y189186D01*
X61032Y189189D01*
X61035Y189195D01*
X61046Y189203D01*
X61057Y189216D01*
X61073Y189233D01*
X61092Y189252D01*
X61114Y189277D01*
X61142Y189301D01*
X61174Y189331D01*
X61210Y189364D01*
X61248Y189402D01*
X61292Y189440D01*
X61338Y189484D01*
X61390Y189528D01*
X61447Y189577D01*
X61507Y189629D01*
X61510Y189631D01*
X61518Y189640D01*
X61535Y189650D01*
X61551Y189667D01*
X61576Y189686D01*
X61600Y189708D01*
X61658Y189757D01*
X61718Y189809D01*
X61775Y189864D01*
X61802Y189888D01*
X61827Y189910D01*
X61849Y189932D01*
X61865Y189948D01*
X61868Y189951D01*
X61879Y189962D01*
X61892Y189978D01*
X61911Y190000D01*
X61933Y190025D01*
X61955Y190052D01*
X61999Y190112D01*
X60757D01*
Y190410D01*
X62425D01*
Y190404D01*
D02*
G37*
G36*
X65703Y190598D02*
X65720Y190592D01*
X65739Y190584D01*
X65763Y190573D01*
X65794Y190562D01*
X65826Y190546D01*
X65862Y190527D01*
X65900Y190508D01*
X65944Y190486D01*
X66034Y190434D01*
X66132Y190371D01*
X66233Y190298D01*
X66236Y190300D01*
X66247Y190303D01*
X66260Y190311D01*
X66282Y190322D01*
X66309Y190333D01*
X66339Y190347D01*
X66375Y190360D01*
X66416Y190374D01*
X66460Y190388D01*
X66509Y190401D01*
X66558Y190415D01*
X66612Y190426D01*
X66730Y190445D01*
X66790Y190448D01*
X66853Y190450D01*
X66886D01*
X66910Y190448D01*
X66940Y190445D01*
X66976Y190442D01*
X67014Y190437D01*
X67058Y190429D01*
X67104Y190420D01*
X67153Y190410D01*
X67205Y190396D01*
X67257Y190382D01*
X67311Y190363D01*
X67366Y190341D01*
X67421Y190317D01*
X67472Y190287D01*
X67475Y190284D01*
X67483Y190278D01*
X67500Y190270D01*
X67519Y190257D01*
X67541Y190240D01*
X67568Y190218D01*
X67598Y190194D01*
X67631Y190166D01*
X67664Y190137D01*
X67699Y190101D01*
X67734Y190063D01*
X67770Y190022D01*
X67805Y189978D01*
X67838Y189932D01*
X67871Y189880D01*
X67901Y189825D01*
X67904Y189822D01*
X67906Y189812D01*
X67915Y189795D01*
X67926Y189773D01*
X67936Y189743D01*
X67947Y189711D01*
X67961Y189672D01*
X67975Y189629D01*
X67991Y189580D01*
X68005Y189528D01*
X68016Y189473D01*
X68027Y189413D01*
X68037Y189353D01*
X68046Y189287D01*
X68049Y189219D01*
X68051Y189151D01*
Y189146D01*
Y189135D01*
Y189116D01*
X68049Y189088D01*
X68046Y189055D01*
X68043Y189017D01*
X68037Y188973D01*
X68032Y188924D01*
X68024Y188875D01*
X68016Y188821D01*
X67988Y188706D01*
X67969Y188649D01*
X67950Y188589D01*
X67928Y188529D01*
X67901Y188471D01*
X67898Y188469D01*
X67893Y188458D01*
X67885Y188441D01*
X67874Y188422D01*
X67857Y188395D01*
X67838Y188365D01*
X67816Y188335D01*
X67792Y188299D01*
X67762Y188261D01*
X67729Y188223D01*
X67696Y188184D01*
X67658Y188146D01*
X67614Y188108D01*
X67571Y188073D01*
X67524Y188037D01*
X67472Y188007D01*
X67470Y188004D01*
X67459Y187999D01*
X67445Y187993D01*
X67423Y187982D01*
X67396Y187969D01*
X67366Y187955D01*
X67328Y187942D01*
X67290Y187925D01*
X67243Y187911D01*
X67197Y187898D01*
X67145Y187884D01*
X67088Y187871D01*
X67030Y187860D01*
X66970Y187854D01*
X66907Y187849D01*
X66844Y187846D01*
X66812D01*
X66787Y187849D01*
X66754Y187852D01*
X66719Y187854D01*
X66681Y187860D01*
X66637Y187868D01*
X66588Y187876D01*
X66539Y187887D01*
X66487Y187901D01*
X66432Y187917D01*
X66378Y187936D01*
X66323Y187958D01*
X66271Y187982D01*
X66217Y188013D01*
X66214Y188015D01*
X66203Y188021D01*
X66189Y188029D01*
X66170Y188043D01*
X66146Y188059D01*
X66121Y188081D01*
X66091Y188105D01*
X66058Y188133D01*
X66023Y188165D01*
X65987Y188198D01*
X65952Y188236D01*
X65916Y188277D01*
X65884Y188324D01*
X65848Y188370D01*
X65818Y188422D01*
X65788Y188477D01*
X65785Y188479D01*
X65783Y188490D01*
X65774Y188507D01*
X65766Y188529D01*
X65753Y188556D01*
X65742Y188591D01*
X65728Y188629D01*
X65714Y188673D01*
X65701Y188720D01*
X65687Y188771D01*
X65673Y188826D01*
X65662Y188886D01*
X65654Y188946D01*
X65646Y189012D01*
X65643Y189080D01*
X65641Y189148D01*
Y189151D01*
Y189162D01*
Y189178D01*
X65643Y189200D01*
Y189227D01*
X65646Y189260D01*
X65649Y189296D01*
X65652Y189334D01*
X65657Y189377D01*
X65665Y189421D01*
X65681Y189517D01*
X65703Y189612D01*
X65736Y189708D01*
Y189711D01*
X65742Y189719D01*
X65747Y189732D01*
X65755Y189749D01*
X65763Y189771D01*
X65777Y189795D01*
X65791Y189825D01*
X65807Y189855D01*
X65848Y189924D01*
X65897Y189995D01*
X65955Y190068D01*
X66023Y190139D01*
X66020Y190142D01*
X66012Y190147D01*
X66001Y190156D01*
X65982Y190166D01*
X65963Y190177D01*
X65938Y190194D01*
X65911Y190210D01*
X65881Y190229D01*
X65815Y190268D01*
X65742Y190306D01*
X65665Y190344D01*
X65591Y190374D01*
X65693Y190603D01*
X65695D01*
X65703Y190598D01*
D02*
G37*
G36*
X71588Y221535D02*
X71613Y221533D01*
X71643Y221530D01*
X71675Y221525D01*
X71711Y221516D01*
X71790Y221497D01*
X71828Y221483D01*
X71872Y221467D01*
X71913Y221448D01*
X71951Y221424D01*
X71989Y221399D01*
X72027Y221369D01*
X72030Y221366D01*
X72036Y221361D01*
X72047Y221353D01*
X72057Y221339D01*
X72074Y221322D01*
X72090Y221301D01*
X72109Y221276D01*
X72128Y221249D01*
X72148Y221219D01*
X72167Y221183D01*
X72186Y221145D01*
X72205Y221104D01*
X72221Y221060D01*
X72235Y221014D01*
X72249Y220965D01*
X72257Y220910D01*
X71948Y220886D01*
Y220888D01*
X71946Y220894D01*
X71943Y220902D01*
X71940Y220916D01*
X71932Y220949D01*
X71918Y220987D01*
X71902Y221030D01*
X71880Y221074D01*
X71858Y221115D01*
X71831Y221150D01*
X71828Y221153D01*
X71825Y221156D01*
X71817Y221164D01*
X71809Y221172D01*
X71782Y221194D01*
X71744Y221219D01*
X71700Y221243D01*
X71645Y221262D01*
X71585Y221279D01*
X71552Y221282D01*
X71520Y221284D01*
X71495D01*
X71465Y221279D01*
X71430Y221273D01*
X71389Y221262D01*
X71345Y221249D01*
X71301Y221227D01*
X71258Y221200D01*
X71255D01*
X71252Y221194D01*
X71244Y221189D01*
X71233Y221181D01*
X71209Y221156D01*
X71176Y221120D01*
X71137Y221077D01*
X71099Y221022D01*
X71064Y220959D01*
X71028Y220888D01*
Y220886D01*
X71026Y220880D01*
X71020Y220867D01*
X71015Y220850D01*
X71009Y220831D01*
X71001Y220804D01*
X70993Y220774D01*
X70985Y220741D01*
X70976Y220703D01*
X70971Y220659D01*
X70963Y220610D01*
X70955Y220558D01*
X70949Y220503D01*
X70946Y220443D01*
X70944Y220378D01*
X70941Y220312D01*
X70941Y220312D01*
Y220310D01*
X70941Y220312D01*
X70946Y220318D01*
X70952Y220326D01*
X70960Y220337D01*
X70985Y220367D01*
X71015Y220405D01*
X71056Y220446D01*
X71102Y220487D01*
X71154Y220525D01*
X71211Y220561D01*
X71214D01*
X71219Y220564D01*
X71228Y220569D01*
X71238Y220574D01*
X71255Y220580D01*
X71271Y220588D01*
X71315Y220604D01*
X71367Y220618D01*
X71424Y220632D01*
X71487Y220643D01*
X71552Y220645D01*
X71566D01*
X71583Y220643D01*
X71604D01*
X71632Y220637D01*
X71662Y220635D01*
X71697Y220626D01*
X71735Y220618D01*
X71774Y220604D01*
X71817Y220591D01*
X71861Y220572D01*
X71905Y220550D01*
X71951Y220523D01*
X71995Y220493D01*
X72038Y220457D01*
X72079Y220416D01*
X72082Y220413D01*
X72088Y220405D01*
X72098Y220394D01*
X72115Y220375D01*
X72131Y220353D01*
X72148Y220326D01*
X72170Y220293D01*
X72189Y220258D01*
X72208Y220217D01*
X72229Y220173D01*
X72246Y220124D01*
X72265Y220072D01*
X72279Y220018D01*
X72290Y219957D01*
X72295Y219895D01*
X72298Y219829D01*
Y219826D01*
Y219818D01*
Y219807D01*
X72295Y219788D01*
Y219769D01*
X72292Y219744D01*
X72290Y219714D01*
X72284Y219685D01*
X72273Y219616D01*
X72254Y219543D01*
X72229Y219466D01*
X72194Y219387D01*
Y219384D01*
X72189Y219379D01*
X72183Y219368D01*
X72175Y219354D01*
X72164Y219338D01*
X72153Y219319D01*
X72120Y219272D01*
X72082Y219223D01*
X72033Y219171D01*
X71976Y219119D01*
X71913Y219076D01*
X71910D01*
X71905Y219070D01*
X71894Y219065D01*
X71880Y219059D01*
X71864Y219051D01*
X71845Y219043D01*
X71820Y219032D01*
X71795Y219024D01*
X71735Y219002D01*
X71664Y218986D01*
X71588Y218975D01*
X71506Y218969D01*
X71490D01*
X71468Y218972D01*
X71441Y218975D01*
X71408Y218977D01*
X71370Y218986D01*
X71329Y218994D01*
X71282Y219005D01*
X71233Y219021D01*
X71181Y219038D01*
X71129Y219062D01*
X71078Y219089D01*
X71023Y219122D01*
X70974Y219160D01*
X70922Y219204D01*
X70875Y219253D01*
X70873Y219256D01*
X70864Y219267D01*
X70854Y219283D01*
X70837Y219308D01*
X70818Y219338D01*
X70799Y219376D01*
X70777Y219422D01*
X70755Y219477D01*
X70731Y219537D01*
X70709Y219605D01*
X70690Y219682D01*
X70671Y219766D01*
X70654Y219859D01*
X70643Y219960D01*
X70635Y220069D01*
X70632Y220187D01*
Y220189D01*
Y220195D01*
Y220206D01*
Y220219D01*
Y220236D01*
X70635Y220258D01*
Y220280D01*
X70638Y220307D01*
X70641Y220367D01*
X70646Y220435D01*
X70654Y220512D01*
X70665Y220594D01*
X70682Y220681D01*
X70698Y220768D01*
X70720Y220856D01*
X70747Y220943D01*
X70777Y221028D01*
X70813Y221110D01*
X70856Y221183D01*
X70903Y221249D01*
X70906Y221252D01*
X70914Y221262D01*
X70927Y221276D01*
X70946Y221295D01*
X70968Y221317D01*
X70998Y221342D01*
X71031Y221366D01*
X71069Y221393D01*
X71113Y221421D01*
X71162Y221445D01*
X71214Y221470D01*
X71271Y221492D01*
X71331Y221511D01*
X71397Y221525D01*
X71465Y221535D01*
X71539Y221538D01*
X71569D01*
X71588Y221535D01*
D02*
G37*
G36*
X74476D02*
X74506Y221533D01*
X74542Y221527D01*
X74583Y221522D01*
X74624Y221514D01*
X74670Y221503D01*
X74717Y221489D01*
X74766Y221473D01*
X74812Y221453D01*
X74861Y221429D01*
X74908Y221402D01*
X74951Y221372D01*
X74992Y221336D01*
X74995Y221333D01*
X75001Y221328D01*
X75011Y221314D01*
X75025Y221301D01*
X75041Y221282D01*
X75060Y221257D01*
X75080Y221230D01*
X75099Y221197D01*
X75118Y221164D01*
X75137Y221126D01*
X75156Y221085D01*
X75173Y221041D01*
X75186Y220992D01*
X75197Y220943D01*
X75203Y220891D01*
X75205Y220836D01*
Y220834D01*
Y220831D01*
Y220823D01*
Y220812D01*
X75203Y220782D01*
X75197Y220744D01*
X75189Y220697D01*
X75178Y220648D01*
X75164Y220594D01*
X75142Y220539D01*
Y220536D01*
X75140Y220533D01*
X75137Y220525D01*
X75131Y220514D01*
X75115Y220484D01*
X75093Y220446D01*
X75063Y220400D01*
X75028Y220348D01*
X74987Y220293D01*
X74935Y220233D01*
X74932Y220231D01*
X74929Y220225D01*
X74919Y220217D01*
X74908Y220203D01*
X74891Y220187D01*
X74872Y220168D01*
X74850Y220143D01*
X74823Y220118D01*
X74790Y220089D01*
X74755Y220056D01*
X74717Y220018D01*
X74673Y219979D01*
X74626Y219936D01*
X74575Y219892D01*
X74517Y219843D01*
X74457Y219791D01*
X74454Y219788D01*
X74446Y219780D01*
X74430Y219769D01*
X74414Y219753D01*
X74389Y219734D01*
X74364Y219712D01*
X74307Y219663D01*
X74247Y219611D01*
X74190Y219556D01*
X74162Y219532D01*
X74138Y219510D01*
X74116Y219488D01*
X74100Y219472D01*
X74097Y219469D01*
X74086Y219458D01*
X74072Y219442D01*
X74053Y219420D01*
X74031Y219395D01*
X74010Y219368D01*
X73966Y219308D01*
X75208D01*
Y219010D01*
X73540D01*
Y219016D01*
Y219029D01*
Y219051D01*
X73543Y219078D01*
X73545Y219111D01*
X73554Y219147D01*
X73562Y219185D01*
X73575Y219223D01*
Y219226D01*
X73578Y219231D01*
X73581Y219239D01*
X73586Y219253D01*
X73594Y219267D01*
X73603Y219286D01*
X73624Y219330D01*
X73652Y219381D01*
X73687Y219439D01*
X73728Y219499D01*
X73777Y219559D01*
X73780Y219562D01*
X73783Y219567D01*
X73791Y219575D01*
X73805Y219589D01*
X73818Y219603D01*
X73838Y219622D01*
X73857Y219643D01*
X73881Y219668D01*
X73909Y219695D01*
X73939Y219723D01*
X73971Y219756D01*
X74010Y219788D01*
X74048Y219824D01*
X74091Y219859D01*
X74135Y219897D01*
X74184Y219938D01*
X74190Y219941D01*
X74203Y219955D01*
X74222Y219971D01*
X74250Y219996D01*
X74282Y220023D01*
X74321Y220056D01*
X74364Y220091D01*
X74408Y220132D01*
X74501Y220217D01*
X74591Y220307D01*
X74635Y220351D01*
X74676Y220394D01*
X74711Y220435D01*
X74741Y220473D01*
X74744Y220476D01*
X74747Y220482D01*
X74755Y220493D01*
X74763Y220506D01*
X74777Y220525D01*
X74787Y220544D01*
X74815Y220594D01*
X74842Y220651D01*
X74867Y220714D01*
X74883Y220779D01*
X74886Y220812D01*
X74888Y220845D01*
Y220847D01*
Y220853D01*
Y220864D01*
X74886Y220875D01*
Y220891D01*
X74880Y220910D01*
X74872Y220951D01*
X74856Y221000D01*
X74831Y221052D01*
X74818Y221079D01*
X74799Y221104D01*
X74779Y221129D01*
X74755Y221153D01*
X74752Y221156D01*
X74749Y221159D01*
X74741Y221164D01*
X74730Y221172D01*
X74717Y221183D01*
X74700Y221194D01*
X74662Y221219D01*
X74610Y221241D01*
X74553Y221262D01*
X74484Y221276D01*
X74446Y221282D01*
X74386D01*
X74370Y221279D01*
X74351D01*
X74329Y221273D01*
X74280Y221265D01*
X74222Y221249D01*
X74162Y221224D01*
X74132Y221208D01*
X74102Y221191D01*
X74075Y221170D01*
X74048Y221145D01*
X74045Y221142D01*
X74042Y221140D01*
X74037Y221131D01*
X74026Y221120D01*
X74018Y221107D01*
X74007Y221090D01*
X73993Y221071D01*
X73982Y221049D01*
X73968Y221025D01*
X73958Y220998D01*
X73936Y220932D01*
X73919Y220861D01*
X73917Y220820D01*
X73914Y220777D01*
X73597Y220809D01*
Y220815D01*
X73600Y220826D01*
X73603Y220842D01*
X73605Y220867D01*
X73611Y220897D01*
X73619Y220932D01*
X73627Y220970D01*
X73641Y221011D01*
X73655Y221052D01*
X73671Y221099D01*
X73693Y221142D01*
X73715Y221186D01*
X73742Y221232D01*
X73772Y221273D01*
X73805Y221314D01*
X73843Y221350D01*
X73846Y221353D01*
X73854Y221358D01*
X73865Y221366D01*
X73881Y221380D01*
X73903Y221393D01*
X73930Y221410D01*
X73960Y221426D01*
X73996Y221445D01*
X74034Y221462D01*
X74078Y221478D01*
X74124Y221495D01*
X74176Y221508D01*
X74231Y221522D01*
X74288Y221530D01*
X74351Y221535D01*
X74416Y221538D01*
X74452D01*
X74476Y221535D01*
D02*
G37*
G36*
X73130Y219010D02*
X72778D01*
Y219362D01*
X73130D01*
Y219010D01*
D02*
G37*
G36*
X69177Y221571D02*
X69210Y221568D01*
X69246Y221565D01*
X69284Y221560D01*
X69327Y221552D01*
X69377Y221544D01*
X69426Y221533D01*
X69478Y221519D01*
X69532Y221503D01*
X69587Y221483D01*
X69642Y221462D01*
X69693Y221437D01*
X69748Y221407D01*
X69751Y221404D01*
X69762Y221399D01*
X69775Y221391D01*
X69794Y221377D01*
X69819Y221361D01*
X69844Y221339D01*
X69873Y221314D01*
X69906Y221287D01*
X69942Y221254D01*
X69977Y221221D01*
X70013Y221183D01*
X70048Y221142D01*
X70081Y221096D01*
X70117Y221049D01*
X70147Y220998D01*
X70177Y220943D01*
X70179Y220940D01*
X70182Y220929D01*
X70190Y220913D01*
X70198Y220891D01*
X70212Y220864D01*
X70223Y220828D01*
X70237Y220790D01*
X70250Y220746D01*
X70264Y220700D01*
X70278Y220648D01*
X70291Y220594D01*
X70302Y220533D01*
X70310Y220473D01*
X70319Y220408D01*
X70321Y220340D01*
X70324Y220271D01*
Y220269D01*
Y220258D01*
Y220241D01*
X70321Y220219D01*
Y220192D01*
X70319Y220160D01*
X70316Y220124D01*
X70313Y220086D01*
X70308Y220042D01*
X70299Y219998D01*
X70283Y219903D01*
X70261Y219807D01*
X70228Y219712D01*
Y219709D01*
X70223Y219701D01*
X70218Y219687D01*
X70209Y219671D01*
X70201Y219649D01*
X70187Y219624D01*
X70174Y219594D01*
X70157Y219564D01*
X70117Y219496D01*
X70067Y219425D01*
X70010Y219351D01*
X69942Y219280D01*
X69945Y219278D01*
X69953Y219272D01*
X69964Y219264D01*
X69983Y219253D01*
X70002Y219242D01*
X70026Y219226D01*
X70054Y219210D01*
X70084Y219190D01*
X70149Y219152D01*
X70223Y219114D01*
X70299Y219076D01*
X70373Y219046D01*
X70272Y218816D01*
X70269D01*
X70261Y218822D01*
X70245Y218827D01*
X70226Y218835D01*
X70201Y218846D01*
X70171Y218857D01*
X70138Y218874D01*
X70103Y218893D01*
X70065Y218912D01*
X70021Y218934D01*
X69931Y218986D01*
X69833Y219048D01*
X69732Y219122D01*
X69729Y219119D01*
X69718Y219117D01*
X69704Y219108D01*
X69682Y219097D01*
X69655Y219087D01*
X69625Y219073D01*
X69590Y219059D01*
X69549Y219046D01*
X69505Y219032D01*
X69456Y219018D01*
X69407Y219005D01*
X69352Y218994D01*
X69235Y218975D01*
X69175Y218972D01*
X69112Y218969D01*
X69079D01*
X69055Y218972D01*
X69024Y218975D01*
X68989Y218977D01*
X68951Y218983D01*
X68907Y218991D01*
X68861Y218999D01*
X68812Y219010D01*
X68760Y219024D01*
X68708Y219038D01*
X68653Y219057D01*
X68599Y219078D01*
X68544Y219103D01*
X68492Y219133D01*
X68489Y219136D01*
X68481Y219141D01*
X68465Y219149D01*
X68446Y219163D01*
X68424Y219179D01*
X68397Y219201D01*
X68367Y219226D01*
X68334Y219253D01*
X68301Y219283D01*
X68266Y219319D01*
X68230Y219357D01*
X68195Y219398D01*
X68159Y219442D01*
X68126Y219488D01*
X68094Y219540D01*
X68063Y219594D01*
X68061Y219597D01*
X68058Y219608D01*
X68050Y219624D01*
X68039Y219646D01*
X68028Y219676D01*
X68017Y219709D01*
X68003Y219747D01*
X67990Y219791D01*
X67974Y219840D01*
X67960Y219892D01*
X67949Y219947D01*
X67938Y220007D01*
X67927Y220067D01*
X67919Y220132D01*
X67916Y220200D01*
X67913Y220269D01*
Y220274D01*
Y220285D01*
Y220304D01*
X67916Y220332D01*
X67919Y220364D01*
X67922Y220403D01*
X67927Y220446D01*
X67932Y220495D01*
X67941Y220544D01*
X67949Y220599D01*
X67976Y220714D01*
X67995Y220771D01*
X68014Y220831D01*
X68036Y220891D01*
X68063Y220949D01*
X68066Y220951D01*
X68072Y220962D01*
X68080Y220978D01*
X68091Y220998D01*
X68107Y221025D01*
X68126Y221055D01*
X68148Y221085D01*
X68173Y221120D01*
X68203Y221159D01*
X68235Y221197D01*
X68268Y221235D01*
X68306Y221273D01*
X68350Y221311D01*
X68394Y221347D01*
X68440Y221382D01*
X68492Y221413D01*
X68495Y221415D01*
X68506Y221421D01*
X68519Y221426D01*
X68541Y221437D01*
X68569Y221451D01*
X68599Y221464D01*
X68637Y221478D01*
X68675Y221495D01*
X68721Y221508D01*
X68768Y221522D01*
X68820Y221535D01*
X68877Y221549D01*
X68934Y221560D01*
X68994Y221565D01*
X69057Y221571D01*
X69120Y221574D01*
X69153D01*
X69177Y221571D01*
D02*
G37*
%LPC*%
G36*
X67829Y85836D02*
X67799D01*
X67782Y85833D01*
X67763D01*
X67720Y85828D01*
X67668Y85819D01*
X67610Y85808D01*
X67550Y85792D01*
X67490Y85770D01*
X67493D01*
X67498Y85765D01*
X67507Y85759D01*
X67518Y85754D01*
X67531Y85746D01*
X67550Y85735D01*
X67591Y85713D01*
X67640Y85691D01*
X67695Y85667D01*
X67758Y85645D01*
X67821Y85626D01*
X67741Y85383D01*
X67739D01*
X67728Y85385D01*
X67714Y85391D01*
X67692Y85399D01*
X67668Y85407D01*
X67640Y85418D01*
X67608Y85429D01*
X67572Y85443D01*
X67498Y85478D01*
X67417Y85519D01*
X67337Y85568D01*
X67264Y85623D01*
X67261Y85620D01*
X67250Y85609D01*
X67236Y85596D01*
X67217Y85574D01*
X67195Y85544D01*
X67171Y85511D01*
X67143Y85470D01*
X67116Y85421D01*
X67089Y85369D01*
X67062Y85309D01*
X67037Y85243D01*
X67015Y85170D01*
X66996Y85091D01*
X66983Y85006D01*
X66972Y84916D01*
X66969Y84817D01*
Y84815D01*
Y84804D01*
Y84787D01*
X66972Y84766D01*
Y84738D01*
X66974Y84708D01*
X66977Y84673D01*
X66983Y84637D01*
X66993Y84553D01*
X67013Y84463D01*
X67040Y84373D01*
X67075Y84285D01*
Y84282D01*
X67081Y84274D01*
X67086Y84263D01*
X67094Y84247D01*
X67105Y84228D01*
X67119Y84206D01*
X67152Y84154D01*
X67195Y84097D01*
X67247Y84039D01*
X67307Y83982D01*
X67378Y83930D01*
X67381Y83928D01*
X67387Y83925D01*
X67397Y83919D01*
X67414Y83911D01*
X67433Y83900D01*
X67455Y83889D01*
X67479Y83878D01*
X67509Y83865D01*
X67542Y83854D01*
X67575Y83843D01*
X67651Y83821D01*
X67736Y83807D01*
X67782Y83802D01*
X67845D01*
X67864Y83805D01*
X67892D01*
X67922Y83810D01*
X67960Y83816D01*
X68001Y83824D01*
X68044Y83835D01*
X68094Y83848D01*
X68143Y83865D01*
X68195Y83887D01*
X68247Y83911D01*
X68298Y83938D01*
X68348Y83974D01*
X68399Y84012D01*
X68446Y84059D01*
X68449Y84061D01*
X68457Y84070D01*
X68468Y84086D01*
X68484Y84105D01*
X68503Y84132D01*
X68522Y84165D01*
X68547Y84203D01*
X68569Y84250D01*
X68590Y84299D01*
X68612Y84356D01*
X68634Y84419D01*
X68653Y84487D01*
X68670Y84561D01*
X68681Y84643D01*
X68689Y84727D01*
X68691Y84820D01*
Y84826D01*
Y84842D01*
X68689Y84867D01*
Y84902D01*
X68683Y84943D01*
X68678Y84990D01*
X68672Y85041D01*
X68661Y85099D01*
X68648Y85159D01*
X68631Y85219D01*
X68612Y85282D01*
X68588Y85344D01*
X68560Y85407D01*
X68528Y85467D01*
X68492Y85522D01*
X68449Y85574D01*
X68446Y85576D01*
X68438Y85585D01*
X68424Y85598D01*
X68405Y85615D01*
X68380Y85634D01*
X68353Y85656D01*
X68317Y85680D01*
X68279Y85705D01*
X68238Y85729D01*
X68189Y85754D01*
X68140Y85776D01*
X68085Y85795D01*
X68025Y85811D01*
X67962Y85825D01*
X67897Y85833D01*
X67829Y85836D01*
D02*
G37*
G36*
X71925Y115912D02*
X71925Y115912D01*
Y115910D01*
X71925Y115912D01*
D02*
G37*
G36*
X72474Y115972D02*
X72455D01*
X72439Y115970D01*
X72422Y115967D01*
X72400Y115964D01*
X72351Y115953D01*
X72294Y115934D01*
X72234Y115907D01*
X72204Y115891D01*
X72174Y115872D01*
X72144Y115847D01*
X72116Y115820D01*
X72114Y115817D01*
X72111Y115811D01*
X72103Y115803D01*
X72095Y115792D01*
X72084Y115779D01*
X72070Y115760D01*
X72056Y115738D01*
X72045Y115713D01*
X72032Y115689D01*
X72018Y115658D01*
X71993Y115590D01*
X71977Y115514D01*
X71974Y115470D01*
X71972Y115427D01*
Y115424D01*
Y115418D01*
Y115410D01*
Y115399D01*
X71974Y115385D01*
Y115369D01*
X71980Y115328D01*
X71988Y115282D01*
X71999Y115230D01*
X72015Y115175D01*
X72037Y115121D01*
Y115118D01*
X72040Y115115D01*
X72045Y115107D01*
X72051Y115096D01*
X72064Y115072D01*
X72086Y115039D01*
X72114Y115003D01*
X72146Y114968D01*
X72182Y114932D01*
X72225Y114900D01*
X72228D01*
X72231Y114897D01*
X72247Y114889D01*
X72272Y114875D01*
X72305Y114861D01*
X72343Y114848D01*
X72387Y114834D01*
X72436Y114826D01*
X72485Y114823D01*
X72504D01*
X72518Y114826D01*
X72537Y114829D01*
X72556Y114831D01*
X72602Y114842D01*
X72654Y114861D01*
X72684Y114875D01*
X72711Y114889D01*
X72742Y114908D01*
X72769Y114927D01*
X72796Y114951D01*
X72823Y114979D01*
X72826Y114981D01*
X72829Y114987D01*
X72837Y114995D01*
X72845Y115009D01*
X72856Y115025D01*
X72867Y115044D01*
X72881Y115066D01*
X72894Y115093D01*
X72908Y115121D01*
X72922Y115154D01*
X72933Y115189D01*
X72944Y115227D01*
X72952Y115268D01*
X72960Y115314D01*
X72963Y115361D01*
X72965Y115410D01*
Y115413D01*
Y115421D01*
Y115435D01*
X72963Y115454D01*
X72960Y115476D01*
X72957Y115500D01*
X72954Y115527D01*
X72949Y115558D01*
X72933Y115623D01*
X72908Y115691D01*
X72892Y115727D01*
X72873Y115760D01*
X72851Y115790D01*
X72826Y115820D01*
X72823Y115822D01*
X72821Y115825D01*
X72812Y115833D01*
X72802Y115844D01*
X72788Y115855D01*
X72772Y115869D01*
X72731Y115896D01*
X72679Y115923D01*
X72619Y115948D01*
X72550Y115967D01*
X72512Y115970D01*
X72474Y115972D01*
D02*
G37*
G36*
X70151Y116887D02*
X70088D01*
X70069Y116884D01*
X70042D01*
X70012Y116879D01*
X69973Y116873D01*
X69932Y116865D01*
X69889Y116854D01*
X69840Y116841D01*
X69790Y116824D01*
X69739Y116802D01*
X69687Y116778D01*
X69635Y116751D01*
X69586Y116715D01*
X69534Y116677D01*
X69487Y116630D01*
X69485Y116628D01*
X69476Y116620D01*
X69466Y116603D01*
X69449Y116584D01*
X69430Y116557D01*
X69411Y116524D01*
X69386Y116486D01*
X69365Y116439D01*
X69343Y116390D01*
X69321Y116333D01*
X69299Y116270D01*
X69280Y116202D01*
X69263Y116128D01*
X69253Y116046D01*
X69244Y115962D01*
X69242Y115869D01*
Y115863D01*
Y115847D01*
X69244Y115822D01*
Y115787D01*
X69250Y115746D01*
X69255Y115700D01*
X69261Y115648D01*
X69272Y115590D01*
X69285Y115530D01*
X69302Y115470D01*
X69321Y115407D01*
X69345Y115345D01*
X69373Y115282D01*
X69405Y115222D01*
X69441Y115167D01*
X69485Y115115D01*
X69487Y115112D01*
X69495Y115104D01*
X69509Y115091D01*
X69528Y115074D01*
X69553Y115055D01*
X69580Y115033D01*
X69616Y115009D01*
X69654Y114984D01*
X69695Y114960D01*
X69744Y114935D01*
X69793Y114913D01*
X69848Y114894D01*
X69908Y114878D01*
X69971Y114864D01*
X70036Y114856D01*
X70104Y114853D01*
X70134D01*
X70151Y114856D01*
X70170D01*
X70214Y114861D01*
X70265Y114869D01*
X70323Y114881D01*
X70383Y114897D01*
X70443Y114919D01*
X70440D01*
X70435Y114924D01*
X70426Y114930D01*
X70416Y114935D01*
X70402Y114943D01*
X70383Y114954D01*
X70342Y114976D01*
X70293Y114998D01*
X70238Y115022D01*
X70175Y115044D01*
X70113Y115063D01*
X70192Y115306D01*
X70194D01*
X70205Y115304D01*
X70219Y115298D01*
X70241Y115290D01*
X70265Y115282D01*
X70293Y115271D01*
X70325Y115260D01*
X70361Y115246D01*
X70435Y115211D01*
X70517Y115170D01*
X70596Y115121D01*
X70669Y115066D01*
X70672Y115069D01*
X70683Y115080D01*
X70697Y115093D01*
X70716Y115115D01*
X70738Y115145D01*
X70762Y115178D01*
X70789Y115219D01*
X70817Y115268D01*
X70844Y115320D01*
X70871Y115380D01*
X70896Y115446D01*
X70918Y115519D01*
X70937Y115598D01*
X70951Y115683D01*
X70961Y115773D01*
X70964Y115872D01*
Y115874D01*
Y115885D01*
Y115902D01*
X70961Y115923D01*
Y115951D01*
X70959Y115981D01*
X70956Y116016D01*
X70951Y116052D01*
X70940Y116136D01*
X70921Y116226D01*
X70893Y116316D01*
X70858Y116404D01*
Y116407D01*
X70852Y116415D01*
X70847Y116426D01*
X70839Y116442D01*
X70828Y116461D01*
X70814Y116483D01*
X70781Y116535D01*
X70738Y116592D01*
X70686Y116649D01*
X70626Y116707D01*
X70555Y116759D01*
X70552Y116761D01*
X70547Y116764D01*
X70536Y116770D01*
X70519Y116778D01*
X70500Y116789D01*
X70478Y116800D01*
X70454Y116811D01*
X70424Y116824D01*
X70391Y116835D01*
X70358Y116846D01*
X70282Y116868D01*
X70197Y116882D01*
X70151Y116887D01*
D02*
G37*
G36*
X66844Y190166D02*
X66815D01*
X66798Y190164D01*
X66779D01*
X66735Y190158D01*
X66684Y190150D01*
X66626Y190139D01*
X66566Y190123D01*
X66506Y190101D01*
X66509D01*
X66514Y190095D01*
X66522Y190090D01*
X66533Y190085D01*
X66547Y190076D01*
X66566Y190066D01*
X66607Y190044D01*
X66656Y190022D01*
X66711Y189997D01*
X66773Y189975D01*
X66836Y189956D01*
X66757Y189713D01*
X66754D01*
X66743Y189716D01*
X66730Y189722D01*
X66708Y189730D01*
X66684Y189738D01*
X66656Y189749D01*
X66623Y189760D01*
X66588Y189773D01*
X66514Y189809D01*
X66432Y189850D01*
X66353Y189899D01*
X66279Y189954D01*
X66277Y189951D01*
X66266Y189940D01*
X66252Y189926D01*
X66233Y189904D01*
X66211Y189874D01*
X66187Y189842D01*
X66159Y189801D01*
X66132Y189752D01*
X66105Y189700D01*
X66077Y189640D01*
X66053Y189574D01*
X66031Y189500D01*
X66012Y189421D01*
X65998Y189337D01*
X65987Y189246D01*
X65985Y189148D01*
Y189146D01*
Y189135D01*
Y189118D01*
X65987Y189096D01*
Y189069D01*
X65990Y189039D01*
X65993Y189004D01*
X65998Y188968D01*
X66009Y188883D01*
X66028Y188793D01*
X66056Y188703D01*
X66091Y188616D01*
Y188613D01*
X66097Y188605D01*
X66102Y188594D01*
X66110Y188578D01*
X66121Y188558D01*
X66135Y188537D01*
X66167Y188485D01*
X66211Y188427D01*
X66263Y188370D01*
X66323Y188313D01*
X66394Y188261D01*
X66397Y188258D01*
X66402Y188256D01*
X66413Y188250D01*
X66430Y188242D01*
X66449Y188231D01*
X66470Y188220D01*
X66495Y188209D01*
X66525Y188196D01*
X66558Y188184D01*
X66591Y188174D01*
X66667Y188152D01*
X66752Y188138D01*
X66798Y188133D01*
X66861D01*
X66880Y188135D01*
X66907D01*
X66937Y188141D01*
X66976Y188146D01*
X67017Y188154D01*
X67060Y188165D01*
X67109Y188179D01*
X67159Y188196D01*
X67210Y188217D01*
X67262Y188242D01*
X67314Y188269D01*
X67363Y188305D01*
X67415Y188343D01*
X67462Y188389D01*
X67464Y188392D01*
X67472Y188400D01*
X67483Y188417D01*
X67500Y188436D01*
X67519Y188463D01*
X67538Y188496D01*
X67563Y188534D01*
X67584Y188580D01*
X67606Y188629D01*
X67628Y188687D01*
X67650Y188750D01*
X67669Y188818D01*
X67685Y188892D01*
X67696Y188973D01*
X67704Y189058D01*
X67707Y189151D01*
Y189156D01*
Y189173D01*
X67704Y189197D01*
Y189233D01*
X67699Y189274D01*
X67694Y189320D01*
X67688Y189372D01*
X67677Y189429D01*
X67664Y189489D01*
X67647Y189550D01*
X67628Y189612D01*
X67603Y189675D01*
X67576Y189738D01*
X67543Y189798D01*
X67508Y189853D01*
X67464Y189904D01*
X67462Y189907D01*
X67453Y189915D01*
X67440Y189929D01*
X67421Y189945D01*
X67396Y189964D01*
X67369Y189986D01*
X67333Y190011D01*
X67295Y190035D01*
X67254Y190060D01*
X67205Y190085D01*
X67156Y190106D01*
X67101Y190126D01*
X67041Y190142D01*
X66978Y190156D01*
X66913Y190164D01*
X66844Y190166D01*
D02*
G37*
G36*
X71490Y220372D02*
X71471D01*
X71454Y220370D01*
X71438Y220367D01*
X71416Y220364D01*
X71367Y220353D01*
X71310Y220334D01*
X71250Y220307D01*
X71219Y220290D01*
X71189Y220271D01*
X71159Y220247D01*
X71132Y220219D01*
X71129Y220217D01*
X71127Y220211D01*
X71118Y220203D01*
X71110Y220192D01*
X71099Y220179D01*
X71086Y220160D01*
X71072Y220138D01*
X71061Y220113D01*
X71047Y220089D01*
X71034Y220058D01*
X71009Y219990D01*
X70993Y219914D01*
X70990Y219870D01*
X70987Y219826D01*
Y219824D01*
Y219818D01*
Y219810D01*
Y219799D01*
X70990Y219785D01*
Y219769D01*
X70996Y219728D01*
X71004Y219682D01*
X71015Y219630D01*
X71031Y219575D01*
X71053Y219521D01*
Y219518D01*
X71056Y219515D01*
X71061Y219507D01*
X71066Y219496D01*
X71080Y219472D01*
X71102Y219439D01*
X71129Y219403D01*
X71162Y219368D01*
X71198Y219332D01*
X71241Y219300D01*
X71244D01*
X71247Y219297D01*
X71263Y219289D01*
X71288Y219275D01*
X71320Y219261D01*
X71359Y219248D01*
X71402Y219234D01*
X71451Y219226D01*
X71501Y219223D01*
X71520D01*
X71533Y219226D01*
X71552Y219229D01*
X71572Y219231D01*
X71618Y219242D01*
X71670Y219261D01*
X71700Y219275D01*
X71727Y219289D01*
X71757Y219308D01*
X71785Y219327D01*
X71812Y219351D01*
X71839Y219379D01*
X71842Y219381D01*
X71845Y219387D01*
X71853Y219395D01*
X71861Y219409D01*
X71872Y219425D01*
X71883Y219444D01*
X71896Y219466D01*
X71910Y219493D01*
X71924Y219521D01*
X71937Y219553D01*
X71948Y219589D01*
X71959Y219627D01*
X71967Y219668D01*
X71976Y219714D01*
X71978Y219761D01*
X71981Y219810D01*
Y219813D01*
Y219821D01*
Y219835D01*
X71978Y219854D01*
X71976Y219876D01*
X71973Y219900D01*
X71970Y219927D01*
X71965Y219957D01*
X71948Y220023D01*
X71924Y220091D01*
X71907Y220127D01*
X71888Y220160D01*
X71866Y220189D01*
X71842Y220219D01*
X71839Y220222D01*
X71836Y220225D01*
X71828Y220233D01*
X71817Y220244D01*
X71804Y220255D01*
X71787Y220269D01*
X71746Y220296D01*
X71694Y220323D01*
X71634Y220348D01*
X71566Y220367D01*
X71528Y220370D01*
X71490Y220372D01*
D02*
G37*
G36*
X69166Y221287D02*
X69104D01*
X69085Y221284D01*
X69057D01*
X69027Y221279D01*
X68989Y221273D01*
X68948Y221265D01*
X68904Y221254D01*
X68855Y221241D01*
X68806Y221224D01*
X68754Y221202D01*
X68702Y221178D01*
X68651Y221150D01*
X68601Y221115D01*
X68550Y221077D01*
X68503Y221030D01*
X68500Y221028D01*
X68492Y221019D01*
X68481Y221003D01*
X68465Y220984D01*
X68446Y220957D01*
X68427Y220924D01*
X68402Y220886D01*
X68380Y220839D01*
X68358Y220790D01*
X68336Y220733D01*
X68315Y220670D01*
X68296Y220602D01*
X68279Y220528D01*
X68268Y220446D01*
X68260Y220361D01*
X68257Y220269D01*
Y220263D01*
Y220247D01*
X68260Y220222D01*
Y220187D01*
X68266Y220146D01*
X68271Y220099D01*
X68277Y220048D01*
X68287Y219990D01*
X68301Y219930D01*
X68317Y219870D01*
X68336Y219807D01*
X68361Y219744D01*
X68388Y219682D01*
X68421Y219622D01*
X68457Y219567D01*
X68500Y219515D01*
X68503Y219513D01*
X68511Y219504D01*
X68525Y219491D01*
X68544Y219474D01*
X68569Y219455D01*
X68596Y219433D01*
X68631Y219409D01*
X68670Y219384D01*
X68711Y219360D01*
X68760Y219335D01*
X68809Y219313D01*
X68863Y219294D01*
X68923Y219278D01*
X68986Y219264D01*
X69052Y219256D01*
X69120Y219253D01*
X69150D01*
X69166Y219256D01*
X69186D01*
X69229Y219261D01*
X69281Y219269D01*
X69339Y219280D01*
X69398Y219297D01*
X69459Y219319D01*
X69456D01*
X69450Y219324D01*
X69442Y219330D01*
X69431Y219335D01*
X69418Y219343D01*
X69398Y219354D01*
X69358Y219376D01*
X69308Y219398D01*
X69254Y219422D01*
X69191Y219444D01*
X69128Y219463D01*
X69207Y219706D01*
X69210D01*
X69221Y219704D01*
X69235Y219698D01*
X69257Y219690D01*
X69281Y219682D01*
X69308Y219671D01*
X69341Y219660D01*
X69377Y219646D01*
X69450Y219611D01*
X69532Y219570D01*
X69612Y219521D01*
X69685Y219466D01*
X69688Y219469D01*
X69699Y219480D01*
X69713Y219493D01*
X69732Y219515D01*
X69753Y219545D01*
X69778Y219578D01*
X69805Y219619D01*
X69833Y219668D01*
X69860Y219720D01*
X69887Y219780D01*
X69912Y219846D01*
X69934Y219919D01*
X69953Y219998D01*
X69966Y220083D01*
X69977Y220173D01*
X69980Y220271D01*
Y220274D01*
Y220285D01*
Y220302D01*
X69977Y220323D01*
Y220351D01*
X69974Y220381D01*
X69972Y220416D01*
X69966Y220452D01*
X69955Y220536D01*
X69936Y220626D01*
X69909Y220716D01*
X69873Y220804D01*
Y220807D01*
X69868Y220815D01*
X69863Y220826D01*
X69854Y220842D01*
X69844Y220861D01*
X69830Y220883D01*
X69797Y220935D01*
X69753Y220992D01*
X69701Y221049D01*
X69642Y221107D01*
X69570Y221159D01*
X69568Y221161D01*
X69562Y221164D01*
X69551Y221170D01*
X69535Y221178D01*
X69516Y221189D01*
X69494Y221200D01*
X69469Y221211D01*
X69440Y221224D01*
X69407Y221235D01*
X69374Y221246D01*
X69297Y221268D01*
X69213Y221282D01*
X69166Y221287D01*
D02*
G37*
%LPD*%
D10*
X58504Y72047D02*
X79567D01*
X58504D02*
Y99016D01*
X79567D01*
Y72047D02*
Y99016D01*
X58366Y101673D02*
Y128642D01*
Y101673D02*
X79429D01*
Y128642D01*
X58366D02*
X79429D01*
X57520Y176378D02*
X78583D01*
X57520D02*
Y203346D01*
X78583D01*
Y176378D02*
Y203346D01*
X57382Y233042D02*
X78445D01*
Y206073D02*
Y233042D01*
X57382Y206073D02*
X78445D01*
X57382D02*
Y233042D01*
M02*
