%TF.GenerationSoftware,KiCad,Pcbnew,10.0.4-10.0.4~ubuntu22.04.1*%
%TF.CreationDate,2026-07-28T03:23:25+02:00*%
%TF.ProjectId,power_hat,706f7765-725f-4686-9174-2e6b69636164,rev?*%
%TF.SameCoordinates,Original*%
%TF.FileFunction,Soldermask,Bot*%
%TF.FilePolarity,Negative*%
%FSLAX46Y46*%
G04 Gerber Fmt 4.6, Leading zero omitted, Abs format (unit mm)*
G04 Created by KiCad (PCBNEW 10.0.4-10.0.4~ubuntu22.04.1) date 2026-07-28 03:23:25*
%MOMM*%
%LPD*%
G01*
G04 APERTURE LIST*
G04 Aperture macros list*
%AMRoundRect*
0 Rectangle with rounded corners*
0 $1 Rounding radius*
0 $2 $3 $4 $5 $6 $7 $8 $9 X,Y pos of 4 corners*
0 Add a 4 corners polygon primitive as box body*
4,1,4,$2,$3,$4,$5,$6,$7,$8,$9,$2,$3,0*
0 Add four circle primitives for the rounded corners*
1,1,$1+$1,$2,$3*
1,1,$1+$1,$4,$5*
1,1,$1+$1,$6,$7*
1,1,$1+$1,$8,$9*
0 Add four rect primitives between the rounded corners*
20,1,$1+$1,$2,$3,$4,$5,0*
20,1,$1+$1,$4,$5,$6,$7,0*
20,1,$1+$1,$6,$7,$8,$9,0*
20,1,$1+$1,$8,$9,$2,$3,0*%
%AMFreePoly0*
4,1,23,0.550000,-0.750000,0.000000,-0.750000,0.000000,-0.745722,-0.065263,-0.745722,-0.191342,-0.711940,-0.304381,-0.646677,-0.396677,-0.554381,-0.461940,-0.441342,-0.495722,-0.315263,-0.495722,-0.250000,-0.500000,-0.250000,-0.500000,0.250000,-0.495722,0.250000,-0.495722,0.315263,-0.461940,0.441342,-0.396677,0.554381,-0.304381,0.646677,-0.191342,0.711940,-0.065263,0.745722,0.000000,0.745722,
0.000000,0.750000,0.550000,0.750000,0.550000,-0.750000,0.550000,-0.750000,$1*%
%AMFreePoly1*
4,1,23,0.000000,0.745722,0.065263,0.745722,0.191342,0.711940,0.304381,0.646677,0.396677,0.554381,0.461940,0.441342,0.495722,0.315263,0.495722,0.250000,0.500000,0.250000,0.500000,-0.250000,0.495722,-0.250000,0.495722,-0.315263,0.461940,-0.441342,0.396677,-0.554381,0.304381,-0.646677,0.191342,-0.711940,0.065263,-0.745722,0.000000,-0.745722,0.000000,-0.750000,-0.550000,-0.750000,
-0.550000,0.750000,0.000000,0.750000,0.000000,0.745722,0.000000,0.745722,$1*%
%AMFreePoly2*
4,1,23,0.500000,-0.750000,0.000000,-0.750000,0.000000,-0.745722,-0.065263,-0.745722,-0.191342,-0.711940,-0.304381,-0.646677,-0.396677,-0.554381,-0.461940,-0.441342,-0.495722,-0.315263,-0.495722,-0.250000,-0.500000,-0.250000,-0.500000,0.250000,-0.495722,0.250000,-0.495722,0.315263,-0.461940,0.441342,-0.396677,0.554381,-0.304381,0.646677,-0.191342,0.711940,-0.065263,0.745722,0.000000,0.745722,
0.000000,0.750000,0.500000,0.750000,0.500000,-0.750000,0.500000,-0.750000,$1*%
%AMFreePoly3*
4,1,23,0.000000,0.745722,0.065263,0.745722,0.191342,0.711940,0.304381,0.646677,0.396677,0.554381,0.461940,0.441342,0.495722,0.315263,0.495722,0.250000,0.500000,0.250000,0.500000,-0.250000,0.495722,-0.250000,0.495722,-0.315263,0.461940,-0.441342,0.396677,-0.554381,0.304381,-0.646677,0.191342,-0.711940,0.065263,-0.745722,0.000000,-0.745722,0.000000,-0.750000,-0.500000,-0.750000,
-0.500000,0.750000,0.000000,0.750000,0.000000,0.745722,0.000000,0.745722,$1*%
G04 Aperture macros list end*
%ADD10C,3.500000*%
%ADD11RoundRect,0.770000X0.980000X-0.980000X0.980000X0.980000X-0.980000X0.980000X-0.980000X-0.980000X0*%
%ADD12C,1.400000*%
%ADD13RoundRect,0.770000X-0.980000X0.980000X-0.980000X-0.980000X0.980000X-0.980000X0.980000X0.980000X0*%
%ADD14C,4.100000*%
%ADD15RoundRect,1.025000X-1.025000X-1.025000X1.025000X-1.025000X1.025000X1.025000X-1.025000X1.025000X0*%
%ADD16R,0.900000X2.000000*%
%ADD17RoundRect,1.025000X1.025000X1.025000X-1.025000X1.025000X-1.025000X-1.025000X1.025000X-1.025000X0*%
%ADD18C,0.700000*%
%ADD19C,4.400000*%
%ADD20FreePoly0,180.000000*%
%ADD21R,1.000000X1.500000*%
%ADD22FreePoly1,180.000000*%
%ADD23FreePoly2,270.000000*%
%ADD24FreePoly3,270.000000*%
G04 APERTURE END LIST*
%TO.C,JP2*%
G36*
X73250000Y-107475000D02*
G01*
X74750000Y-107475000D01*
X74750000Y-108975000D01*
X73250000Y-108975000D01*
X73250000Y-107475000D01*
G37*
%TO.C,JP3*%
G36*
X73200000Y-99625000D02*
G01*
X74700000Y-99625000D01*
X74700000Y-101125000D01*
X73200000Y-101125000D01*
X73200000Y-99625000D01*
G37*
%TO.C,JP1*%
G36*
X96050000Y-87725000D02*
G01*
X97550000Y-87725000D01*
X97550000Y-88025000D01*
X96050000Y-88025000D01*
X96050000Y-87725000D01*
G37*
%TO.C,JP7*%
G36*
X95350000Y-78850000D02*
G01*
X96850000Y-78850000D01*
X96850000Y-79150000D01*
X95350000Y-79150000D01*
X95350000Y-78850000D01*
G37*
%TD*%
D10*
%TO.C,J1*%
X78248750Y-115430000D03*
D11*
X78248750Y-120430000D03*
D12*
X68248750Y-112430000D03*
X68248750Y-123430000D03*
%TD*%
D10*
%TO.C,J2*%
X87900000Y-120430000D03*
D13*
X87900000Y-115430000D03*
D12*
X97900000Y-123430000D03*
X97900000Y-112430000D03*
%TD*%
D10*
%TO.C,J3*%
X78250000Y-130275000D03*
D11*
X78250000Y-135275000D03*
D12*
X68250000Y-127275000D03*
X68250000Y-138275000D03*
%TD*%
D10*
%TO.C,J4*%
X87900000Y-135125000D03*
D13*
X87900000Y-130125000D03*
D12*
X97900000Y-138125000D03*
X97900000Y-127125000D03*
%TD*%
D14*
%TO.C,J5*%
X79700000Y-56250000D03*
D15*
X86900000Y-56250000D03*
D16*
X90050000Y-50250000D03*
X76550000Y-50250000D03*
%TD*%
D10*
%TO.C,J6*%
X78248750Y-145070001D03*
D11*
X78248750Y-150070001D03*
D12*
X68248750Y-142070001D03*
X68248750Y-153070001D03*
%TD*%
D16*
%TO.C,J7*%
X89975000Y-182075000D03*
X76475000Y-182075000D03*
D17*
X86825000Y-176075000D03*
D14*
X79625000Y-176075000D03*
%TD*%
D10*
%TO.C,J8*%
X87900000Y-149820001D03*
D13*
X87900000Y-144820001D03*
D12*
X97900000Y-152820001D03*
X97900000Y-141820001D03*
%TD*%
D10*
%TO.C,J9*%
X78200000Y-159950000D03*
D11*
X78200000Y-164950000D03*
D12*
X68200000Y-156950000D03*
X68200000Y-167950000D03*
%TD*%
D10*
%TO.C,J10*%
X87975000Y-164500000D03*
D13*
X87975000Y-159500000D03*
D12*
X97975000Y-167500000D03*
X97975000Y-156500000D03*
%TD*%
D18*
%TO.C,H4*%
X105050000Y-178649999D03*
X104566726Y-179816725D03*
X104566726Y-177483273D03*
X103400000Y-180299999D03*
D19*
X103400000Y-178649999D03*
D18*
X103400000Y-176999999D03*
X102233274Y-179816725D03*
X102233274Y-177483273D03*
X101750000Y-178649999D03*
%TD*%
%TO.C,H2*%
X65050000Y-178649999D03*
X64566726Y-179816725D03*
X64566726Y-177483273D03*
X63400000Y-180299999D03*
D19*
X63400000Y-178649999D03*
D18*
X63400000Y-176999999D03*
X62233274Y-179816725D03*
X62233274Y-177483273D03*
X61750000Y-178649999D03*
%TD*%
%TO.C,H1*%
X101750000Y-53650000D03*
X102233274Y-52483274D03*
X102233274Y-54816726D03*
X103400000Y-52000000D03*
D19*
X103400000Y-53650000D03*
D18*
X103400000Y-55300000D03*
X104566726Y-52483274D03*
X104566726Y-54816726D03*
X105050000Y-53650000D03*
%TD*%
%TO.C,H3*%
X61750000Y-53650000D03*
X62233274Y-52483274D03*
X62233274Y-54816726D03*
X63400000Y-52000000D03*
D19*
X63400000Y-53650000D03*
D18*
X63400000Y-55300000D03*
X64566726Y-52483274D03*
X64566726Y-54816726D03*
X65050000Y-53650000D03*
%TD*%
D20*
%TO.C,JP2*%
X75300000Y-108225000D03*
D21*
X74000000Y-108225000D03*
D22*
X72700000Y-108225000D03*
%TD*%
D20*
%TO.C,JP3*%
X75250000Y-100375000D03*
D21*
X73950000Y-100375000D03*
D22*
X72650000Y-100375000D03*
%TD*%
D23*
%TO.C,JP1*%
X96800000Y-87225000D03*
D24*
X96800000Y-88525000D03*
%TD*%
D23*
%TO.C,JP7*%
X96100000Y-78350000D03*
D24*
X96100000Y-79650000D03*
%TD*%
M02*
