%TF.GenerationSoftware,KiCad,Pcbnew,10.0.4-10.0.4~ubuntu22.04.1*%
%TF.CreationDate,2026-07-28T03:23:07+02:00*%
%TF.ProjectId,power_hat,706f7765-725f-4686-9174-2e6b69636164,rev?*%
%TF.SameCoordinates,Original*%
%TF.FileFunction,Copper,L4,Bot*%
%TF.FilePolarity,Positive*%
%FSLAX46Y46*%
G04 Gerber Fmt 4.6, Leading zero omitted, Abs format (unit mm)*
G04 Created by KiCad (PCBNEW 10.0.4-10.0.4~ubuntu22.04.1) date 2026-07-28 03:23:07*
%MOMM*%
%LPD*%
G01*
G04 APERTURE LIST*
G04 Aperture macros list*
%AMRoundRect*
0 Rectangle with rounded corners*
0 $1 Rounding radius*
0 $2 $3 $4 $5 $6 $7 $8 $9 X,Y pos of 4 corners*
0 Add a 4 corners polygon primitive as box body*
4,1,4,$2,$3,$4,$5,$6,$7,$8,$9,$2,$3,0*
0 Add four circle primitives for the rounded corners*
1,1,$1+$1,$2,$3*
1,1,$1+$1,$4,$5*
1,1,$1+$1,$6,$7*
1,1,$1+$1,$8,$9*
0 Add four rect primitives between the rounded corners*
20,1,$1+$1,$2,$3,$4,$5,0*
20,1,$1+$1,$4,$5,$6,$7,0*
20,1,$1+$1,$6,$7,$8,$9,0*
20,1,$1+$1,$8,$9,$2,$3,0*%
%AMFreePoly0*
4,1,23,0.550000,-0.750000,0.000000,-0.750000,0.000000,-0.745722,-0.065263,-0.745722,-0.191342,-0.711940,-0.304381,-0.646677,-0.396677,-0.554381,-0.461940,-0.441342,-0.495722,-0.315263,-0.495722,-0.250000,-0.500000,-0.250000,-0.500000,0.250000,-0.495722,0.250000,-0.495722,0.315263,-0.461940,0.441342,-0.396677,0.554381,-0.304381,0.646677,-0.191342,0.711940,-0.065263,0.745722,0.000000,0.745722,
0.000000,0.750000,0.550000,0.750000,0.550000,-0.750000,0.550000,-0.750000,$1*%
%AMFreePoly1*
4,1,23,0.000000,0.745722,0.065263,0.745722,0.191342,0.711940,0.304381,0.646677,0.396677,0.554381,0.461940,0.441342,0.495722,0.315263,0.495722,0.250000,0.500000,0.250000,0.500000,-0.250000,0.495722,-0.250000,0.495722,-0.315263,0.461940,-0.441342,0.396677,-0.554381,0.304381,-0.646677,0.191342,-0.711940,0.065263,-0.745722,0.000000,-0.745722,0.000000,-0.750000,-0.550000,-0.750000,
-0.550000,0.750000,0.000000,0.750000,0.000000,0.745722,0.000000,0.745722,$1*%
%AMFreePoly2*
4,1,23,0.500000,-0.750000,0.000000,-0.750000,0.000000,-0.745722,-0.065263,-0.745722,-0.191342,-0.711940,-0.304381,-0.646677,-0.396677,-0.554381,-0.461940,-0.441342,-0.495722,-0.315263,-0.495722,-0.250000,-0.500000,-0.250000,-0.500000,0.250000,-0.495722,0.250000,-0.495722,0.315263,-0.461940,0.441342,-0.396677,0.554381,-0.304381,0.646677,-0.191342,0.711940,-0.065263,0.745722,0.000000,0.745722,
0.000000,0.750000,0.500000,0.750000,0.500000,-0.750000,0.500000,-0.750000,$1*%
%AMFreePoly3*
4,1,23,0.000000,0.745722,0.065263,0.745722,0.191342,0.711940,0.304381,0.646677,0.396677,0.554381,0.461940,0.441342,0.495722,0.315263,0.495722,0.250000,0.500000,0.250000,0.500000,-0.250000,0.495722,-0.250000,0.495722,-0.315263,0.461940,-0.441342,0.396677,-0.554381,0.304381,-0.646677,0.191342,-0.711940,0.065263,-0.745722,0.000000,-0.745722,0.000000,-0.750000,-0.500000,-0.750000,
-0.500000,0.750000,0.000000,0.750000,0.000000,0.745722,0.000000,0.745722,$1*%
G04 Aperture macros list end*
%TA.AperFunction,ComponentPad*%
%ADD10C,3.500000*%
%TD*%
%TA.AperFunction,ComponentPad*%
%ADD11RoundRect,0.770000X0.980000X-0.980000X0.980000X0.980000X-0.980000X0.980000X-0.980000X-0.980000X0*%
%TD*%
%TA.AperFunction,ComponentPad*%
%ADD12C,1.400000*%
%TD*%
%TA.AperFunction,ComponentPad*%
%ADD13RoundRect,0.770000X-0.980000X0.980000X-0.980000X-0.980000X0.980000X-0.980000X0.980000X0.980000X0*%
%TD*%
%TA.AperFunction,ComponentPad*%
%ADD14C,4.100000*%
%TD*%
%TA.AperFunction,ComponentPad*%
%ADD15RoundRect,1.025000X-1.025000X-1.025000X1.025000X-1.025000X1.025000X1.025000X-1.025000X1.025000X0*%
%TD*%
%TA.AperFunction,ComponentPad*%
%ADD16R,0.900000X2.000000*%
%TD*%
%TA.AperFunction,ComponentPad*%
%ADD17RoundRect,1.025000X1.025000X1.025000X-1.025000X1.025000X-1.025000X-1.025000X1.025000X-1.025000X0*%
%TD*%
%TA.AperFunction,ComponentPad*%
%ADD18C,0.700000*%
%TD*%
%TA.AperFunction,ComponentPad*%
%ADD19C,4.400000*%
%TD*%
%TA.AperFunction,SMDPad,CuDef*%
%ADD20FreePoly0,180.000000*%
%TD*%
%TA.AperFunction,SMDPad,CuDef*%
%ADD21R,1.000000X1.500000*%
%TD*%
%TA.AperFunction,SMDPad,CuDef*%
%ADD22FreePoly1,180.000000*%
%TD*%
%TA.AperFunction,SMDPad,CuDef*%
%ADD23FreePoly2,270.000000*%
%TD*%
%TA.AperFunction,SMDPad,CuDef*%
%ADD24FreePoly3,270.000000*%
%TD*%
%TA.AperFunction,ViaPad*%
%ADD25C,0.600000*%
%TD*%
%TA.AperFunction,ViaPad*%
%ADD26C,0.700000*%
%TD*%
%TA.AperFunction,Conductor*%
%ADD27C,0.300000*%
%TD*%
%TA.AperFunction,Conductor*%
%ADD28C,0.500000*%
%TD*%
G04 APERTURE END LIST*
D10*
%TO.P,J1,2,Pin_2_2*%
%TO.N,GND*%
X78248750Y-115430000D03*
D11*
%TO.P,J1,1,Pin_1_1*%
%TO.N,VCC*%
X78248750Y-120430000D03*
D12*
%TO.P,J1,*%
%TO.N,*%
X68248750Y-112430000D03*
X68248750Y-123430000D03*
%TD*%
D10*
%TO.P,J2,2,Pin_2_2*%
%TO.N,GND*%
X87900000Y-120430000D03*
D13*
%TO.P,J2,1,Pin_1_1*%
%TO.N,VCC*%
X87900000Y-115430000D03*
D12*
%TO.P,J2,*%
%TO.N,*%
X97900000Y-123430000D03*
X97900000Y-112430000D03*
%TD*%
D10*
%TO.P,J3,2,Pin_2_2*%
%TO.N,GND*%
X78250000Y-130275000D03*
D11*
%TO.P,J3,1,Pin_1_1*%
%TO.N,VCC*%
X78250000Y-135275000D03*
D12*
%TO.P,J3,*%
%TO.N,*%
X68250000Y-127275000D03*
X68250000Y-138275000D03*
%TD*%
D10*
%TO.P,J4,2,Pin_2_2*%
%TO.N,GND*%
X87900000Y-135125000D03*
D13*
%TO.P,J4,1,Pin_1_1*%
%TO.N,VCC*%
X87900000Y-130125000D03*
D12*
%TO.P,J4,*%
%TO.N,*%
X97900000Y-138125000D03*
X97900000Y-127125000D03*
%TD*%
D14*
%TO.P,J5,2,Pin_2_2*%
%TO.N,GND*%
X79700000Y-56250000D03*
D15*
%TO.P,J5,1,Pin_1_1*%
%TO.N,EFUSE*%
X86900000Y-56250000D03*
D16*
%TO.P,J5,*%
%TO.N,*%
X90050000Y-50250000D03*
X76550000Y-50250000D03*
%TD*%
D10*
%TO.P,J6,2,Pin_2_2*%
%TO.N,GND*%
X78248750Y-145070001D03*
D11*
%TO.P,J6,1,Pin_1_1*%
%TO.N,VCC*%
X78248750Y-150070001D03*
D12*
%TO.P,J6,*%
%TO.N,*%
X68248750Y-142070001D03*
X68248750Y-153070001D03*
%TD*%
D16*
%TO.P,J7,*%
%TO.N,*%
X89975000Y-182075000D03*
X76475000Y-182075000D03*
D17*
%TO.P,J7,1,Pin_1_1*%
%TO.N,VCC*%
X86825000Y-176075000D03*
D14*
%TO.P,J7,2,Pin_2_2*%
%TO.N,GND*%
X79625000Y-176075000D03*
%TD*%
D10*
%TO.P,J8,2,Pin_2_2*%
%TO.N,GND*%
X87900000Y-149820001D03*
D13*
%TO.P,J8,1,Pin_1_1*%
%TO.N,VCC*%
X87900000Y-144820001D03*
D12*
%TO.P,J8,*%
%TO.N,*%
X97900000Y-152820001D03*
X97900000Y-141820001D03*
%TD*%
D10*
%TO.P,J9,2,Pin_2_2*%
%TO.N,GND*%
X78200000Y-159950000D03*
D11*
%TO.P,J9,1,Pin_1_1*%
%TO.N,VCC*%
X78200000Y-164950000D03*
D12*
%TO.P,J9,*%
%TO.N,*%
X68200000Y-156950000D03*
X68200000Y-167950000D03*
%TD*%
D10*
%TO.P,J10,2,Pin_2_2*%
%TO.N,GND*%
X87975000Y-164500000D03*
D13*
%TO.P,J10,1,Pin_1_1*%
%TO.N,VCC*%
X87975000Y-159500000D03*
D12*
%TO.P,J10,*%
%TO.N,*%
X97975000Y-167500000D03*
X97975000Y-156500000D03*
%TD*%
D18*
%TO.P,H4,1,1_1*%
%TO.N,GND*%
X105050000Y-178649999D03*
X104566726Y-179816725D03*
X104566726Y-177483273D03*
X103400000Y-180299999D03*
D19*
X103400000Y-178649999D03*
D18*
X103400000Y-176999999D03*
X102233274Y-179816725D03*
X102233274Y-177483273D03*
X101750000Y-178649999D03*
%TD*%
%TO.P,H2,1,1_1*%
%TO.N,GND*%
X65050000Y-178649999D03*
X64566726Y-179816725D03*
X64566726Y-177483273D03*
X63400000Y-180299999D03*
D19*
X63400000Y-178649999D03*
D18*
X63400000Y-176999999D03*
X62233274Y-179816725D03*
X62233274Y-177483273D03*
X61750000Y-178649999D03*
%TD*%
%TO.P,H1,1,1_1*%
%TO.N,GND*%
X101750000Y-53650000D03*
X102233274Y-52483274D03*
X102233274Y-54816726D03*
X103400000Y-52000000D03*
D19*
X103400000Y-53650000D03*
D18*
X103400000Y-55300000D03*
X104566726Y-52483274D03*
X104566726Y-54816726D03*
X105050000Y-53650000D03*
%TD*%
%TO.P,H3,1,1_1*%
%TO.N,GND*%
X61750000Y-53650000D03*
X62233274Y-52483274D03*
X62233274Y-54816726D03*
X63400000Y-52000000D03*
D19*
X63400000Y-53650000D03*
D18*
X63400000Y-55300000D03*
X64566726Y-52483274D03*
X64566726Y-54816726D03*
X65050000Y-53650000D03*
%TD*%
D20*
%TO.P,JP2,1,A_1*%
%TO.N,+3V3*%
X75300000Y-108225000D03*
D21*
%TO.P,JP2,2,C_2*%
%TO.N,/A0*%
X74000000Y-108225000D03*
D22*
%TO.P,JP2,3,B_3*%
%TO.N,GND*%
X72700000Y-108225000D03*
%TD*%
D20*
%TO.P,JP3,1,A_1*%
%TO.N,GND*%
X75250000Y-100375000D03*
D21*
%TO.P,JP3,2,C_2*%
%TO.N,/A1*%
X73950000Y-100375000D03*
D22*
%TO.P,JP3,3,B_3*%
%TO.N,+3V3*%
X72650000Y-100375000D03*
%TD*%
D23*
%TO.P,JP1,1,A_1*%
%TO.N,/Efuse_out*%
X96800000Y-87225000D03*
D24*
%TO.P,JP1,2,B_2*%
%TO.N,VOUT*%
X96800000Y-88525000D03*
%TD*%
D23*
%TO.P,JP7,1,A_1*%
%TO.N,EFUSE*%
X96100000Y-78350000D03*
D24*
%TO.P,JP7,2,B_2*%
%TO.N,/Efuse_out*%
X96100000Y-79650000D03*
%TD*%
D25*
%TO.N,GND*%
X86825000Y-74275000D03*
X85100000Y-77450000D03*
X85125000Y-74975000D03*
X90650000Y-76700000D03*
X106325000Y-172425000D03*
X106325000Y-161825000D03*
X102950000Y-158350000D03*
X106325000Y-167125000D03*
X102950000Y-169625000D03*
X103050000Y-164100000D03*
X63400000Y-172650000D03*
X60025000Y-169850000D03*
X63400000Y-162050000D03*
X60025000Y-158575000D03*
X63400000Y-167350000D03*
X60125000Y-164325000D03*
X70150000Y-168200000D03*
X73525000Y-171000000D03*
X91750000Y-168125000D03*
X95125000Y-170925000D03*
X91750000Y-163350000D03*
X95125000Y-160850000D03*
X91850000Y-157825000D03*
X95125000Y-166150000D03*
X70200000Y-163350000D03*
X73575000Y-160850000D03*
X70300000Y-157825000D03*
X73575000Y-166150000D03*
X80800000Y-174025000D03*
X81825000Y-175025000D03*
X77475000Y-177350000D03*
X80545000Y-172235000D03*
X81800000Y-174050000D03*
X73575000Y-181175000D03*
X78475000Y-174025000D03*
X81300000Y-171725000D03*
X77500000Y-178325000D03*
X82025000Y-172225000D03*
X80825000Y-178350000D03*
X77475000Y-175050000D03*
X81800000Y-178325000D03*
X78500000Y-178350000D03*
X95150000Y-175850000D03*
X73575000Y-175875000D03*
X91775000Y-178350000D03*
X91875000Y-172825000D03*
X70200000Y-178375000D03*
X70300000Y-172850000D03*
X95150000Y-181150000D03*
X81995000Y-171165000D03*
X80515000Y-171175000D03*
X81825000Y-177325000D03*
X77500000Y-174050000D03*
%TO.N,VCC*%
X87150000Y-109075000D03*
X88475000Y-107950000D03*
X81925000Y-109125000D03*
X85950000Y-105475000D03*
X88450000Y-110250000D03*
X88500000Y-105550000D03*
X81950000Y-104450000D03*
X87175000Y-104400000D03*
X83250000Y-107975000D03*
X85850000Y-110300000D03*
X85875000Y-107975000D03*
X87375000Y-106750000D03*
X83275000Y-105600000D03*
X84550000Y-109125000D03*
X84600000Y-104300000D03*
X83225000Y-110300000D03*
X81950000Y-106750000D03*
%TO.N,GND*%
X105876386Y-91879777D03*
X81475000Y-120425000D03*
X73125000Y-65750000D03*
X82200000Y-77250000D03*
X67916300Y-78507400D03*
X91975000Y-135525000D03*
X76625000Y-106875000D03*
X73500000Y-69225000D03*
X73200000Y-74225000D03*
X78601386Y-60354777D03*
X81026386Y-60379777D03*
X64025000Y-88400000D03*
X79325000Y-99350000D03*
X86082515Y-80414813D03*
X103000000Y-146850000D03*
X81325000Y-142475000D03*
X92000000Y-124325000D03*
X63600000Y-116975000D03*
X95200000Y-149775000D03*
X78726386Y-61414777D03*
X73625000Y-144725000D03*
X60075000Y-72500000D03*
X84850000Y-134500000D03*
X63450000Y-86575000D03*
X77701386Y-63679777D03*
X82200000Y-85200000D03*
X60175000Y-147275000D03*
X85850000Y-85225000D03*
X63450000Y-81275000D03*
X90800000Y-102800000D03*
X102900000Y-152375000D03*
X84850000Y-139800000D03*
X81850000Y-58375000D03*
X82200000Y-82550000D03*
X73775000Y-81100000D03*
X105126386Y-89529777D03*
X66423614Y-89320223D03*
X60225000Y-114175000D03*
X63450000Y-150300000D03*
X73950000Y-54050000D03*
X81475000Y-125725000D03*
X60075000Y-89075000D03*
X104600000Y-100550000D03*
X84850000Y-117925000D03*
X81475000Y-137000000D03*
X73075000Y-67600000D03*
X106325000Y-122075000D03*
X80875000Y-105875000D03*
X65925000Y-78300000D03*
X72300000Y-98325000D03*
X100951386Y-94560000D03*
X83425000Y-83750000D03*
X71875000Y-108300000D03*
X106425000Y-116550000D03*
X105000000Y-66915000D03*
X63025000Y-89225000D03*
X66100000Y-72875000D03*
X63600000Y-138850000D03*
X76875000Y-105375000D03*
X94595223Y-97876386D03*
X103050000Y-83050000D03*
X106275000Y-149875000D03*
X70400000Y-113900000D03*
X74000000Y-57175000D03*
X103975000Y-94575000D03*
X106676386Y-89554777D03*
X82200000Y-74600000D03*
X60075000Y-141525000D03*
X81176386Y-63679777D03*
X103385000Y-60485000D03*
X63450000Y-70000000D03*
X77550000Y-54100000D03*
X73775000Y-133275000D03*
X80875000Y-58400000D03*
X92925000Y-99450000D03*
X103510000Y-66985000D03*
X80026386Y-60354777D03*
X79675000Y-109350000D03*
X107577772Y-90259554D03*
X102900000Y-141100000D03*
X70500000Y-130250000D03*
X64850000Y-87650000D03*
X74150000Y-121575000D03*
X86232515Y-83539813D03*
X70400000Y-124500000D03*
X86232515Y-82439813D03*
X63450000Y-145000000D03*
X94495223Y-99451386D03*
X81850000Y-54100000D03*
X81425000Y-148225000D03*
X77525000Y-57400000D03*
X103470000Y-68615000D03*
X60075000Y-67200000D03*
X84700000Y-151250000D03*
X78751386Y-63614777D03*
X78525000Y-54075000D03*
X103050000Y-71775000D03*
X91200000Y-80437000D03*
X106475000Y-94575000D03*
X104160000Y-61260000D03*
X73625000Y-150025000D03*
X83425000Y-78450000D03*
X66425000Y-54275000D03*
X66640000Y-93345000D03*
X85850000Y-86375000D03*
X60225000Y-124775000D03*
X79300000Y-101500000D03*
X84700000Y-145950000D03*
X95350000Y-127725000D03*
X82200000Y-79900000D03*
X63450000Y-91875000D03*
X83425000Y-75800000D03*
X60225000Y-136050000D03*
X77525000Y-55100000D03*
X81575000Y-131475000D03*
X65600000Y-88400000D03*
X80850000Y-54075000D03*
X64848614Y-89220223D03*
X62000000Y-106375000D03*
X79951386Y-61379777D03*
X63500000Y-122500000D03*
X86107515Y-79314813D03*
X106425000Y-75250000D03*
X80176386Y-64704777D03*
X70400000Y-135775000D03*
X66475000Y-57400000D03*
X104285000Y-67760000D03*
X63600000Y-133550000D03*
X106425000Y-85850000D03*
X103150000Y-77525000D03*
X106425000Y-138425000D03*
X81875000Y-55075000D03*
X106275000Y-144575000D03*
X67390000Y-93735000D03*
X61875000Y-99850000D03*
X60075000Y-77800000D03*
X60325000Y-130525000D03*
X64925000Y-73400000D03*
X95200000Y-155075000D03*
X70499633Y-78507400D03*
X103345000Y-62115000D03*
X96145223Y-99401386D03*
X83425000Y-81100000D03*
X86182515Y-78264813D03*
X71225000Y-65800000D03*
X106701386Y-91129777D03*
X106425000Y-133125000D03*
X94750000Y-108625000D03*
X91182515Y-79539813D03*
X73625000Y-155325000D03*
X95250000Y-121975000D03*
X78300000Y-103250000D03*
X65750000Y-83100000D03*
X91825000Y-141000000D03*
X73150000Y-70350000D03*
X101741386Y-94150000D03*
X106425000Y-80550000D03*
X104650000Y-102775000D03*
X73775000Y-127975000D03*
X77626386Y-60379777D03*
X60175000Y-83550000D03*
X77601386Y-61379777D03*
X105877772Y-90309554D03*
X79351386Y-62504777D03*
X67941300Y-77182400D03*
X95350000Y-116450000D03*
X104875000Y-60415000D03*
X60075000Y-152800000D03*
X78550000Y-58400000D03*
X104875000Y-62075000D03*
X95350000Y-138325000D03*
X93675000Y-98700000D03*
X81325000Y-153750000D03*
X69207967Y-78507400D03*
X91925000Y-146750000D03*
X90775000Y-105575000D03*
X77726386Y-64654777D03*
X71791300Y-78507400D03*
X77575000Y-104325000D03*
X103050000Y-135625000D03*
X104302772Y-90209554D03*
X91975000Y-118950000D03*
X76850000Y-103250000D03*
X73975000Y-50800000D03*
X81051386Y-61354777D03*
X90850000Y-100150000D03*
X64898614Y-90870223D03*
X84850000Y-129200000D03*
X83425000Y-86400000D03*
X101725000Y-94925000D03*
X93957515Y-78489813D03*
X60225000Y-119475000D03*
X91632515Y-78539813D03*
X81875000Y-57375000D03*
X91975000Y-113650000D03*
X66600000Y-94145000D03*
X67025000Y-80425000D03*
X73775000Y-116700000D03*
X63600000Y-128250000D03*
X91825000Y-152275000D03*
X78325000Y-105375000D03*
X93675000Y-100275000D03*
X71150000Y-67600000D03*
X66450000Y-51025000D03*
X106425000Y-127825000D03*
X70250000Y-152525000D03*
X95200000Y-144475000D03*
X92075000Y-130000000D03*
X81475000Y-115125000D03*
X71816300Y-77182400D03*
X103150000Y-130100000D03*
X86500000Y-85825000D03*
X77725000Y-106775000D03*
X106275000Y-155175000D03*
X64550000Y-85125000D03*
X87662500Y-85689813D03*
X95275000Y-98700000D03*
X73775000Y-138575000D03*
X77550000Y-58375000D03*
X103050000Y-113750000D03*
X81151386Y-64679777D03*
X79976386Y-63579777D03*
X70524633Y-77182400D03*
X69232967Y-77182400D03*
X78726386Y-64679777D03*
X94545223Y-101151386D03*
X65600000Y-90000000D03*
X84750000Y-123450000D03*
X104625000Y-105225000D03*
X63350000Y-75525000D03*
X92850000Y-103075000D03*
X64050000Y-89975000D03*
X95250000Y-100250000D03*
X63450000Y-155600000D03*
X70350000Y-147000000D03*
X75225000Y-101575000D03*
X70250000Y-141250000D03*
X103050000Y-119050000D03*
X91207515Y-81339813D03*
X95350000Y-133025000D03*
X61900000Y-103325000D03*
X105000000Y-68575000D03*
X105827772Y-88659554D03*
X105126386Y-91129777D03*
X69800000Y-119375000D03*
X103050000Y-124350000D03*
%TO.N,VOUT*%
X95200000Y-89050000D03*
X73925000Y-94075000D03*
X87350000Y-101600000D03*
X89825000Y-94075000D03*
X85925000Y-92850000D03*
X83325000Y-100525000D03*
X88575000Y-92850000D03*
X73850000Y-96600000D03*
X79450000Y-92875000D03*
X84700000Y-99275000D03*
X69350000Y-94150000D03*
X78775000Y-92175000D03*
X84525000Y-94075000D03*
X78750000Y-90850000D03*
X72000000Y-88450000D03*
X72576386Y-89179777D03*
X98991386Y-94145000D03*
X69725000Y-89200000D03*
X100251386Y-89529777D03*
X93600000Y-95950000D03*
X69340000Y-93320000D03*
X98701386Y-89504777D03*
X77575000Y-92150000D03*
X78800000Y-88700000D03*
X76300000Y-92150000D03*
X89750000Y-96600000D03*
X72350000Y-92050000D03*
X71050000Y-94150000D03*
X99025000Y-94950000D03*
X79150000Y-96600000D03*
X92650000Y-89075000D03*
X96104777Y-95148614D03*
X88550000Y-100475000D03*
X77550000Y-89775000D03*
X84450000Y-96600000D03*
X87100000Y-96600000D03*
X71301386Y-90804777D03*
X74900000Y-89850000D03*
X93950000Y-90125000D03*
X99576386Y-94575000D03*
X85975000Y-95300000D03*
X70975000Y-96675000D03*
X87250000Y-99225000D03*
X85900000Y-102850000D03*
X99452772Y-90284554D03*
X73600000Y-86825000D03*
X83275000Y-90300000D03*
X94545223Y-95176386D03*
X89775000Y-91625000D03*
X76875000Y-92875000D03*
X72325000Y-86875000D03*
X80675000Y-95300000D03*
X95150000Y-91200000D03*
X99425000Y-88725000D03*
X71273614Y-89245223D03*
X101001386Y-90329777D03*
X72025000Y-90025000D03*
X82025000Y-99275000D03*
X75375000Y-95300000D03*
X83275000Y-102850000D03*
X85925000Y-90300000D03*
X88625000Y-95300000D03*
X76275000Y-90900000D03*
X83325000Y-95300000D03*
X87125000Y-91625000D03*
X83275000Y-92850000D03*
X81825000Y-91625000D03*
X94500000Y-96725000D03*
X95200000Y-95900000D03*
X80575000Y-90350000D03*
X73650000Y-84375000D03*
X84475000Y-91625000D03*
X99400000Y-91975000D03*
X70475000Y-88400000D03*
X92675000Y-91250000D03*
X81825000Y-89075000D03*
X74775000Y-92025000D03*
X72950000Y-85625000D03*
X72500000Y-95375000D03*
X95225000Y-94400000D03*
X81800000Y-96600000D03*
X82000000Y-101675000D03*
X81875000Y-94075000D03*
X71326386Y-87554777D03*
X78025000Y-95300000D03*
X76250000Y-88725000D03*
X89775000Y-89075000D03*
X94479777Y-93673614D03*
X87175000Y-94075000D03*
X76575000Y-94075000D03*
X93650000Y-94425000D03*
X87125000Y-89075000D03*
X84475000Y-89075000D03*
X78175000Y-92850000D03*
X72375000Y-84425000D03*
X98726386Y-91079777D03*
X97950000Y-90350000D03*
X100251386Y-91129777D03*
X88575000Y-90300000D03*
X92854777Y-95123614D03*
X70475000Y-90000000D03*
X88500000Y-102800000D03*
X75550000Y-92900000D03*
X79225000Y-94075000D03*
X68765000Y-93720000D03*
X76500000Y-96600000D03*
%TO.N,+3V3*%
X66400000Y-99075000D03*
X98550000Y-107100000D03*
X100475000Y-107075000D03*
X68425000Y-99050000D03*
X99500000Y-107075000D03*
X67425000Y-99100000D03*
D26*
X75300000Y-109550000D03*
D25*
%TO.N,/SENSE+*%
X74725000Y-76975000D03*
X75875000Y-72050000D03*
X80025000Y-75050000D03*
X80025000Y-76975000D03*
X79775000Y-69725000D03*
X74650000Y-68075000D03*
X79775000Y-68450000D03*
X77175000Y-70800000D03*
X75875000Y-69400000D03*
X77375000Y-76975000D03*
X77050000Y-73400000D03*
X77175000Y-68150000D03*
X78250000Y-69375000D03*
X74650000Y-70850000D03*
X75875000Y-66750000D03*
X74725000Y-73475000D03*
X78200000Y-72075000D03*
X78400000Y-66725000D03*
X80375000Y-66675000D03*
%TO.N,Net-(IC1-OVLO)*%
X90178666Y-82401496D03*
X89250000Y-77400000D03*
%TO.N,/Efuse_out*%
X94800000Y-79900000D03*
X98575000Y-84050000D03*
X99775000Y-85475000D03*
X98575000Y-86700000D03*
X99775000Y-82825000D03*
X94150000Y-82475000D03*
X97350000Y-82850000D03*
X94032515Y-80439813D03*
X97350000Y-85500000D03*
X98575000Y-81400000D03*
X94007515Y-81464813D03*
X94800000Y-81150000D03*
X95150000Y-86414578D03*
X99775000Y-80175000D03*
X95775000Y-85475000D03*
X94007515Y-79439813D03*
X94525000Y-85475000D03*
X97350000Y-80200000D03*
X93132515Y-82339813D03*
X93275000Y-85475000D03*
X93900000Y-86414578D03*
%TO.N,/SENSE-*%
X80075000Y-86525000D03*
X74700000Y-79100000D03*
X74875000Y-83825000D03*
X78725000Y-82600000D03*
X76075000Y-82600000D03*
X78800000Y-86500000D03*
X80000000Y-79100000D03*
X77350000Y-79100000D03*
X77525000Y-83825000D03*
X80175000Y-83825000D03*
X78650000Y-85125000D03*
X76000000Y-85125000D03*
X77575000Y-86500000D03*
%TO.N,Net-(Q3-G)*%
X72128594Y-81711419D03*
X75075000Y-86425000D03*
%TO.N,EFUSE*%
X96000000Y-57325000D03*
X95900000Y-59775000D03*
X93750000Y-58625000D03*
X97235000Y-66935000D03*
X82250000Y-66750000D03*
X93600000Y-65750000D03*
X98275000Y-58275000D03*
X91350000Y-64750000D03*
X93182515Y-81439813D03*
X95900000Y-66825000D03*
X85751386Y-61414777D03*
X88375000Y-58725000D03*
X87001386Y-63579777D03*
X82300000Y-70600000D03*
X85450000Y-71000000D03*
X93725000Y-61000000D03*
X94275000Y-73800000D03*
X85450000Y-58725000D03*
X98150000Y-75000000D03*
X83200000Y-69675000D03*
X88350000Y-53700000D03*
X93600000Y-63450000D03*
X97195000Y-68565000D03*
X99600000Y-76225000D03*
X89100000Y-61325000D03*
X84100000Y-66750000D03*
X95900000Y-69125000D03*
X97195000Y-62115000D03*
X85400000Y-53725000D03*
X100800000Y-75000000D03*
X95975000Y-54900000D03*
X85400000Y-68475000D03*
X91525000Y-57625000D03*
X93750000Y-56325000D03*
X84075000Y-70625000D03*
X87451386Y-65279777D03*
X84425000Y-53750000D03*
X98725000Y-60415000D03*
X93625000Y-70475000D03*
X84400000Y-54750000D03*
X89350000Y-58700000D03*
X92332515Y-81464813D03*
X98010000Y-61260000D03*
X96925000Y-73800000D03*
X84451386Y-65229777D03*
X91450000Y-59950000D03*
X86325000Y-70375000D03*
X96950000Y-76225000D03*
X84425000Y-57725000D03*
X98200000Y-53525000D03*
X91500000Y-55200000D03*
X84050000Y-68700000D03*
X95500000Y-75000000D03*
X86376386Y-62504777D03*
X86350000Y-69075000D03*
X92732515Y-80489813D03*
X89150000Y-68475000D03*
X91350000Y-62450000D03*
X98725000Y-66865000D03*
X95875000Y-64400000D03*
X91375000Y-69475000D03*
X99575000Y-73800000D03*
X94300000Y-76225000D03*
X93750000Y-53775000D03*
X89375000Y-57700000D03*
X98275000Y-55975000D03*
X85425000Y-69725000D03*
X93182515Y-79389813D03*
X89125000Y-63750000D03*
X92382515Y-79389813D03*
X87451386Y-59879777D03*
X85776386Y-63614777D03*
X89125000Y-66050000D03*
X89150000Y-70775000D03*
X98010000Y-67710000D03*
X89350000Y-53725000D03*
X98725000Y-68525000D03*
X84451386Y-59879777D03*
X82325000Y-68700000D03*
X86976386Y-61379777D03*
X84451386Y-62879777D03*
X98725000Y-62075000D03*
X89375000Y-54700000D03*
X91375000Y-67175000D03*
X95875000Y-62100000D03*
X93625000Y-68175000D03*
X97235000Y-60485000D03*
X84450000Y-58700000D03*
D26*
%TO.N,/VCAP*%
X71050000Y-73137500D03*
D25*
X65700000Y-76662500D03*
%TO.N,/SDA*%
X65325000Y-102900000D03*
X97375000Y-103350000D03*
%TO.N,Net-(Q2-G)*%
X71525000Y-74100000D03*
X79825000Y-72250000D03*
%TO.N,/A1*%
X73950000Y-102500000D03*
%TO.N,/A0*%
X73975000Y-103600000D03*
%TO.N,/SCL*%
X65350000Y-104450000D03*
X97325000Y-101825000D03*
%TO.N,/ID*%
X101550000Y-104850000D03*
X65150000Y-101375000D03*
%TD*%
%TO.N,Net-(IC1-OVLO)*%
D27*
X89250000Y-77400000D02*
X90125000Y-78275000D01*
X90125000Y-78275000D02*
X90125000Y-82347830D01*
X90125000Y-82347830D02*
X90178666Y-82401496D01*
%TO.N,+3V3*%
X75300000Y-108225000D02*
X75300000Y-109550000D01*
D28*
X98550000Y-107100000D02*
X93675000Y-111975000D01*
X72375000Y-100100000D02*
X72650000Y-100375000D01*
X74400000Y-124825000D02*
X74350000Y-124875000D01*
X75650000Y-98475000D02*
X76700000Y-99525000D01*
X72650000Y-99650000D02*
X73825000Y-98475000D01*
X75300000Y-103100000D02*
X75300000Y-108225000D01*
X88725000Y-124825000D02*
X74400000Y-124825000D01*
X74350000Y-124875000D02*
X73725000Y-124875000D01*
X68425000Y-99050000D02*
X68425000Y-99500000D01*
X64550000Y-99075000D02*
X66400000Y-99075000D01*
X93675000Y-111975000D02*
X93675000Y-119875000D01*
X60900000Y-112050000D02*
X60900000Y-102725000D01*
X73725000Y-124875000D02*
X60900000Y-112050000D01*
X60900000Y-102725000D02*
X64550000Y-99075000D01*
X72650000Y-100375000D02*
X72650000Y-99650000D01*
X73825000Y-98475000D02*
X75650000Y-98475000D01*
X93675000Y-119875000D02*
X88725000Y-124825000D01*
X76700000Y-101700000D02*
X75300000Y-103100000D01*
X68425000Y-99500000D02*
X69025000Y-100100000D01*
X76700000Y-99525000D02*
X76700000Y-101700000D01*
X69025000Y-100100000D02*
X72375000Y-100100000D01*
%TO.N,Net-(Q3-G)*%
D27*
X73350000Y-81775000D02*
X74250000Y-82675000D01*
X74250000Y-85600000D02*
X75075000Y-86425000D01*
X74250000Y-82675000D02*
X74250000Y-85600000D01*
X72192175Y-81775000D02*
X73350000Y-81775000D01*
X72128594Y-81711419D02*
X72192175Y-81775000D01*
%TO.N,/VCAP*%
X70987500Y-73200000D02*
X71050000Y-73137500D01*
X67275000Y-76650000D02*
X65712500Y-76650000D01*
X70725000Y-73200000D02*
X70987500Y-73200000D01*
X70725000Y-73200000D02*
X67275000Y-76650000D01*
X65712500Y-76650000D02*
X65700000Y-76662500D01*
%TO.N,/SDA*%
X64400000Y-105000000D02*
X71450000Y-112050000D01*
X65325000Y-102900000D02*
X64800000Y-102900000D01*
X89775000Y-112050000D02*
X97275000Y-104550000D01*
X64400000Y-103300000D02*
X64400000Y-105000000D01*
X71450000Y-112050000D02*
X89775000Y-112050000D01*
X97275000Y-104550000D02*
X97275000Y-103450000D01*
X97275000Y-103450000D02*
X97375000Y-103350000D01*
X64800000Y-102900000D02*
X64400000Y-103300000D01*
%TO.N,Net-(Q2-G)*%
X77175000Y-74900000D02*
X72325000Y-74900000D01*
X79825000Y-72250000D02*
X77175000Y-74900000D01*
X72325000Y-74900000D02*
X71525000Y-74100000D01*
%TO.N,/A1*%
X73950000Y-102500000D02*
X73950000Y-100375000D01*
%TO.N,/A0*%
X74000000Y-103625000D02*
X74000000Y-108225000D01*
X73975000Y-103600000D02*
X74000000Y-103625000D01*
%TO.N,/SCL*%
X97126471Y-102750000D02*
X97325000Y-102750000D01*
X96775000Y-103300000D02*
X96775000Y-103101471D01*
X97325000Y-102750000D02*
X97325000Y-101825000D01*
X65350000Y-104450000D02*
X72000000Y-111100000D01*
X96775000Y-103101471D02*
X97126471Y-102750000D01*
X72000000Y-111100000D02*
X88975000Y-111100000D01*
X88975000Y-111100000D02*
X96775000Y-103300000D01*
%TO.N,/ID*%
X91150000Y-113075000D02*
X99350000Y-104875000D01*
X65150000Y-101375000D02*
X64875000Y-101375000D01*
X99350000Y-104875000D02*
X101525000Y-104875000D01*
X64875000Y-101375000D02*
X63250000Y-103000000D01*
X71075000Y-113075000D02*
X91150000Y-113075000D01*
X63250000Y-103000000D02*
X63250000Y-105250000D01*
X63250000Y-105250000D02*
X71075000Y-113075000D01*
X101525000Y-104875000D02*
X101550000Y-104850000D01*
%TD*%
%TA.AperFunction,Conductor*%
%TO.N,VCC*%
G36*
X81504389Y-103846873D02*
G01*
X81522623Y-103850500D01*
X88968760Y-103850500D01*
X88976892Y-103853868D01*
X88980260Y-103861951D01*
X89000000Y-108475000D01*
X89667909Y-109175098D01*
X90052592Y-109578320D01*
X90054996Y-109582109D01*
X90055656Y-109583815D01*
X90055503Y-109592490D01*
X90054854Y-109594006D01*
X90052414Y-109597612D01*
X88855514Y-110794514D01*
X88851785Y-110797006D01*
X88849495Y-110797955D01*
X88847879Y-110798624D01*
X88843478Y-110799500D01*
X79488787Y-110799500D01*
X79484387Y-110798625D01*
X79484385Y-110798624D01*
X79482768Y-110797954D01*
X79476546Y-110791733D01*
X79476330Y-110791211D01*
X79475873Y-110790106D01*
X79475000Y-110785712D01*
X79475000Y-110631626D01*
X79475781Y-110627461D01*
X79477239Y-110623709D01*
X79479472Y-110620117D01*
X81490653Y-108425000D01*
X81490653Y-103858153D01*
X81494021Y-103850021D01*
X81502153Y-103846653D01*
X81504389Y-103846873D01*
G37*
%TD.AperFunction*%
%TD*%
%TA.AperFunction,Conductor*%
%TO.N,/SENSE+*%
G36*
X80766312Y-66100874D02*
G01*
X80767948Y-66101551D01*
X80774011Y-66107593D01*
X80774161Y-66107742D01*
X80774826Y-66109333D01*
X80775716Y-66113696D01*
X80849380Y-77826597D01*
X80846063Y-77834749D01*
X80837952Y-77838169D01*
X80835582Y-77837937D01*
X80831832Y-77837172D01*
X80826940Y-77836174D01*
X74184178Y-77803612D01*
X74184174Y-77803613D01*
X74163761Y-77807707D01*
X74155126Y-77806004D01*
X74150225Y-77798693D01*
X74150000Y-77796432D01*
X74150000Y-75214287D01*
X74150873Y-75209893D01*
X74151082Y-75209385D01*
X74151543Y-75208273D01*
X74157758Y-75202049D01*
X74158885Y-75201582D01*
X74159393Y-75201373D01*
X74163787Y-75200500D01*
X77214562Y-75200500D01*
X77290989Y-75180021D01*
X77359511Y-75140460D01*
X77415460Y-75084511D01*
X79794488Y-72705482D01*
X79798215Y-72702993D01*
X79802122Y-72701374D01*
X79806522Y-72700500D01*
X79884309Y-72700500D01*
X79998886Y-72669799D01*
X80101613Y-72610489D01*
X80185489Y-72526613D01*
X80244799Y-72423886D01*
X80275500Y-72309309D01*
X80275500Y-72190691D01*
X80244799Y-72076114D01*
X80185489Y-71973387D01*
X80101613Y-71889511D01*
X80101612Y-71889510D01*
X80101611Y-71889509D01*
X80005539Y-71834042D01*
X80003549Y-71831449D01*
X79884309Y-71799500D01*
X79765691Y-71799500D01*
X79651120Y-71830198D01*
X79651110Y-71830202D01*
X79548387Y-71889509D01*
X79464509Y-71973387D01*
X79405202Y-72076110D01*
X79405198Y-72076120D01*
X79374500Y-72190691D01*
X79374500Y-72268477D01*
X79373624Y-72272879D01*
X79372006Y-72276784D01*
X79369514Y-72280514D01*
X77055514Y-74594514D01*
X77051785Y-74597006D01*
X77049495Y-74597955D01*
X77047879Y-74598624D01*
X77043478Y-74599500D01*
X74163787Y-74599500D01*
X74159387Y-74598625D01*
X74159385Y-74598624D01*
X74157768Y-74597954D01*
X74151546Y-74591733D01*
X74151330Y-74591211D01*
X74150873Y-74590106D01*
X74150000Y-74585712D01*
X74150000Y-69775076D01*
X74150001Y-69774924D01*
X74198494Y-66113630D01*
X74199427Y-66109248D01*
X74200139Y-66107591D01*
X74206375Y-66101483D01*
X74207946Y-66100845D01*
X74212273Y-66100000D01*
X80761915Y-66100000D01*
X80766312Y-66100874D01*
G37*
%TD.AperFunction*%
%TD*%
%TA.AperFunction,Conductor*%
%TO.N,/SENSE-*%
G36*
X80826177Y-77991672D02*
G01*
X80834292Y-77995080D01*
X80837621Y-78003082D01*
X80912367Y-87595408D01*
X80909062Y-87603566D01*
X80900957Y-87606998D01*
X80900941Y-87606998D01*
X74261481Y-87649925D01*
X74253328Y-87646609D01*
X74249907Y-87638518D01*
X74237026Y-86039850D01*
X74240328Y-86031694D01*
X74248432Y-86028260D01*
X74256591Y-86031563D01*
X74256657Y-86031628D01*
X74621132Y-86396103D01*
X74624500Y-86404235D01*
X74624500Y-86484309D01*
X74655201Y-86598886D01*
X74714511Y-86701613D01*
X74798387Y-86785489D01*
X74901114Y-86844799D01*
X75015691Y-86875500D01*
X75134309Y-86875500D01*
X75248886Y-86844799D01*
X75351613Y-86785489D01*
X75435489Y-86701613D01*
X75494799Y-86598886D01*
X75525500Y-86484309D01*
X75525500Y-86365691D01*
X75494799Y-86251114D01*
X75435489Y-86148387D01*
X75351613Y-86064511D01*
X75351612Y-86064510D01*
X75248884Y-86005200D01*
X75248885Y-86005200D01*
X75134309Y-85974500D01*
X75054235Y-85974500D01*
X75046103Y-85971132D01*
X74553868Y-85478897D01*
X74550500Y-85470765D01*
X74550500Y-82635438D01*
X74530021Y-82559012D01*
X74530021Y-82559011D01*
X74490460Y-82490489D01*
X74434511Y-82434540D01*
X74209466Y-82209495D01*
X74206098Y-82201456D01*
X74198525Y-81261577D01*
X74198914Y-81258526D01*
X74225500Y-81159309D01*
X74225500Y-81040691D01*
X74196232Y-80931463D01*
X74195842Y-80928593D01*
X74172008Y-77970701D01*
X74175311Y-77962545D01*
X74183415Y-77959111D01*
X74183543Y-77959111D01*
X80826177Y-77991672D01*
G37*
%TD.AperFunction*%
%TD*%
%TA.AperFunction,Conductor*%
%TO.N,VOUT*%
G36*
X73222876Y-82076374D02*
G01*
X73226784Y-82077993D01*
X73230514Y-82080485D01*
X73944514Y-82794485D01*
X73947006Y-82798215D01*
X73948624Y-82802120D01*
X73949500Y-82806522D01*
X73949500Y-85639561D01*
X73956995Y-85667535D01*
X73969976Y-85715981D01*
X73969980Y-85715991D01*
X73980699Y-85734557D01*
X73981834Y-85737279D01*
X73982592Y-85740056D01*
X73982997Y-85742975D01*
X74002490Y-87797413D01*
X74002491Y-87797414D01*
X74002492Y-87797414D01*
X74002492Y-87797415D01*
X74216128Y-87796726D01*
X74218324Y-87796932D01*
X74262486Y-87805422D01*
X76988145Y-87787799D01*
X76988145Y-87787812D01*
X76988178Y-87787798D01*
X88725000Y-87750000D01*
X92432218Y-87757457D01*
X92440342Y-87760842D01*
X92443212Y-87765662D01*
X92446933Y-87778105D01*
X92446933Y-87778106D01*
X92447592Y-87779714D01*
X92447593Y-87779716D01*
X92481060Y-87830281D01*
X92487246Y-87836523D01*
X92537441Y-87870414D01*
X92537444Y-87870415D01*
X92537449Y-87870419D01*
X92539067Y-87871099D01*
X92568212Y-87880103D01*
X92572606Y-87881000D01*
X92602931Y-87884140D01*
X101145960Y-87926857D01*
X101174514Y-87924175D01*
X101182923Y-87926769D01*
X101187037Y-87934550D01*
X101187087Y-87935654D01*
X101171166Y-94144516D01*
X101170280Y-94148912D01*
X101169605Y-94150531D01*
X101163367Y-94156741D01*
X101163333Y-94156755D01*
X101163203Y-94156808D01*
X101155871Y-94157263D01*
X101155366Y-94157127D01*
X101152606Y-94155982D01*
X101125281Y-94140206D01*
X101125276Y-94140203D01*
X101125274Y-94140202D01*
X101125272Y-94140201D01*
X101125271Y-94140200D01*
X101125266Y-94140198D01*
X101125254Y-94140194D01*
X101125188Y-94140177D01*
X101010695Y-94109500D01*
X100892077Y-94109500D01*
X100777506Y-94140198D01*
X100777496Y-94140202D01*
X100674773Y-94199509D01*
X100590895Y-94283387D01*
X100531588Y-94386110D01*
X100531584Y-94386120D01*
X100520735Y-94426613D01*
X100500886Y-94500691D01*
X100500886Y-94619309D01*
X100531587Y-94733886D01*
X100590897Y-94836613D01*
X100674773Y-94920489D01*
X100777500Y-94979799D01*
X100892077Y-95010500D01*
X101010695Y-95010500D01*
X101125272Y-94979799D01*
X101149813Y-94965628D01*
X101154056Y-94964188D01*
X101155793Y-94963960D01*
X101164294Y-94966240D01*
X101164321Y-94966260D01*
X101164422Y-94966338D01*
X101168500Y-94972459D01*
X101168642Y-94972988D01*
X101169035Y-94975998D01*
X101162534Y-97511239D01*
X101161649Y-97515634D01*
X101160971Y-97517261D01*
X101154743Y-97523467D01*
X101153136Y-97524130D01*
X101148750Y-97525000D01*
X94887990Y-97525000D01*
X94883588Y-97524124D01*
X94879683Y-97522506D01*
X94875953Y-97520014D01*
X94871834Y-97515895D01*
X94775762Y-97460428D01*
X94773772Y-97457835D01*
X94654532Y-97425886D01*
X94535914Y-97425886D01*
X94421343Y-97456584D01*
X94421333Y-97456588D01*
X94318614Y-97515893D01*
X94318612Y-97515894D01*
X94318610Y-97515896D01*
X94314596Y-97519911D01*
X94314493Y-97520014D01*
X94310763Y-97522506D01*
X94306858Y-97524124D01*
X94302456Y-97525000D01*
X91325000Y-97525000D01*
X90553371Y-97519912D01*
X90553370Y-97519912D01*
X90553368Y-97519911D01*
X79950128Y-97450000D01*
X79950055Y-97449999D01*
X67988113Y-97294649D01*
X67983727Y-97293718D01*
X67982075Y-97293009D01*
X67975956Y-97286768D01*
X67975318Y-97285198D01*
X67974473Y-97280871D01*
X67974699Y-94979798D01*
X67975527Y-86555267D01*
X67976403Y-86550870D01*
X67977074Y-86549251D01*
X67983296Y-86543032D01*
X67984884Y-86542374D01*
X67989354Y-86541502D01*
X71884269Y-86567756D01*
X71915049Y-82130449D01*
X71915956Y-82126054D01*
X71916635Y-82124447D01*
X71922882Y-82118276D01*
X71923029Y-82118216D01*
X71930379Y-82117763D01*
X71930868Y-82117896D01*
X71933604Y-82119034D01*
X71935382Y-82120060D01*
X71954708Y-82131218D01*
X72069285Y-82161919D01*
X72187903Y-82161919D01*
X72302480Y-82131218D01*
X72395007Y-82077796D01*
X72397777Y-82076649D01*
X72399192Y-82076270D01*
X72400605Y-82075892D01*
X72403581Y-82075500D01*
X73218478Y-82075500D01*
X73222876Y-82076374D01*
G37*
%TD.AperFunction*%
%TD*%
%TA.AperFunction,Conductor*%
%TO.N,/Efuse_out*%
G36*
X93965536Y-79080664D02*
G01*
X93984141Y-79094877D01*
X93992280Y-79098228D01*
X94051818Y-79109938D01*
X101110141Y-79094642D01*
X101140600Y-79094577D01*
X101151909Y-79092323D01*
X101175319Y-79087660D01*
X101183950Y-79089374D01*
X101188842Y-79096691D01*
X101189064Y-79098976D01*
X101160582Y-87757621D01*
X101159693Y-87762018D01*
X101159018Y-87763633D01*
X101152774Y-87769837D01*
X101152772Y-87769837D01*
X101151161Y-87770498D01*
X101146738Y-87771359D01*
X92603709Y-87728642D01*
X92599315Y-87727745D01*
X92597697Y-87727065D01*
X92591508Y-87720820D01*
X92590845Y-87719200D01*
X92589989Y-87714812D01*
X92609634Y-82092028D01*
X92613031Y-82083911D01*
X92621126Y-82080571D01*
X92947197Y-82080388D01*
X92987390Y-82075080D01*
X92993132Y-82073540D01*
X93004648Y-82068768D01*
X93006054Y-82068291D01*
X93092216Y-82045205D01*
X93095192Y-82044813D01*
X93169840Y-82044813D01*
X93172816Y-82045205D01*
X93259419Y-82068410D01*
X93260843Y-82068893D01*
X93271619Y-82073355D01*
X93277367Y-82074893D01*
X93277374Y-82074895D01*
X93282933Y-82075624D01*
X93317658Y-82080180D01*
X93638647Y-82080000D01*
X93698114Y-82068144D01*
X93706240Y-82064775D01*
X93741348Y-82044498D01*
X93790349Y-81980639D01*
X93793717Y-81972508D01*
X93805554Y-81912994D01*
X93805548Y-81749206D01*
X93801038Y-81726539D01*
X93801665Y-81721795D01*
X93798640Y-81714483D01*
X93793710Y-81689703D01*
X93790834Y-81682760D01*
X93790833Y-81682760D01*
X93790833Y-81682759D01*
X93788816Y-81681924D01*
X93788815Y-81681923D01*
X93788814Y-81681923D01*
X93785253Y-81678360D01*
X93782594Y-81675701D01*
X93781582Y-81673256D01*
X93781102Y-81665883D01*
X93781692Y-81663678D01*
X93781694Y-81663678D01*
X93733375Y-81579988D01*
X93732226Y-81577214D01*
X93712907Y-81505110D01*
X93712515Y-81502134D01*
X93712515Y-81427489D01*
X93712907Y-81424513D01*
X93732226Y-81352409D01*
X93733375Y-81349635D01*
X93781693Y-81265948D01*
X93781101Y-81263738D01*
X93781588Y-81256353D01*
X93782683Y-81253715D01*
X93788889Y-81247505D01*
X93790915Y-81246661D01*
X93790917Y-81246662D01*
X93793772Y-81239742D01*
X93798603Y-81215357D01*
X93801634Y-81208057D01*
X93801004Y-81203240D01*
X93805525Y-81180430D01*
X93805507Y-80681364D01*
X93800207Y-80641117D01*
X93799961Y-80640202D01*
X93798668Y-80635372D01*
X93798665Y-80635364D01*
X93783135Y-80597875D01*
X93783132Y-80597869D01*
X93758376Y-80554990D01*
X93757227Y-80552216D01*
X93737907Y-80480110D01*
X93737515Y-80477134D01*
X93737515Y-80402489D01*
X93737907Y-80399513D01*
X93757227Y-80327405D01*
X93758374Y-80324634D01*
X93783114Y-80281786D01*
X93798647Y-80244290D01*
X93800188Y-80238540D01*
X93805488Y-80198281D01*
X93805471Y-79724129D01*
X93801014Y-79701723D01*
X93801665Y-79696795D01*
X93798523Y-79689201D01*
X93793636Y-79664632D01*
X93790803Y-79657792D01*
X93790801Y-79657792D01*
X93788840Y-79656980D01*
X93788839Y-79656979D01*
X93788838Y-79656979D01*
X93785252Y-79653392D01*
X93782617Y-79650757D01*
X93781582Y-79648255D01*
X93781102Y-79640883D01*
X93781692Y-79638678D01*
X93781694Y-79638678D01*
X93733375Y-79554987D01*
X93732226Y-79552213D01*
X93712907Y-79480113D01*
X93712515Y-79477137D01*
X93712515Y-79402489D01*
X93712907Y-79399513D01*
X93732226Y-79327409D01*
X93733375Y-79324635D01*
X93781693Y-79240948D01*
X93781691Y-79240947D01*
X93781103Y-79238747D01*
X93781582Y-79231380D01*
X93782777Y-79228490D01*
X93782791Y-79228477D01*
X93788973Y-79222274D01*
X93788993Y-79222265D01*
X93788994Y-79222265D01*
X93788994Y-79222264D01*
X93790974Y-79221438D01*
X93790974Y-79221437D01*
X93790975Y-79221438D01*
X93793779Y-79214614D01*
X93798594Y-79190220D01*
X93801672Y-79182775D01*
X93801026Y-79177902D01*
X93805448Y-79155508D01*
X93805446Y-79121945D01*
X93808814Y-79113815D01*
X93816920Y-79110446D01*
X93865442Y-79110342D01*
X93905522Y-79104998D01*
X93911247Y-79103457D01*
X93930340Y-79096963D01*
X93951558Y-79080680D01*
X93960057Y-79078402D01*
X93965536Y-79080664D01*
G37*
%TD.AperFunction*%
%TD*%
%TA.AperFunction,Conductor*%
%TO.N,+3V3*%
G36*
X100575744Y-105875098D02*
G01*
X100702909Y-105891839D01*
X100705808Y-105892616D01*
X100823600Y-105941407D01*
X100826200Y-105942908D01*
X100927351Y-106020525D01*
X100929474Y-106022648D01*
X101007091Y-106123799D01*
X101008592Y-106126399D01*
X101057383Y-106244191D01*
X101058160Y-106247091D01*
X101074902Y-106374255D01*
X101075000Y-106375756D01*
X101075000Y-107074243D01*
X101074902Y-107075744D01*
X101058160Y-107202908D01*
X101057383Y-107205808D01*
X101008592Y-107323600D01*
X101007091Y-107326200D01*
X100929474Y-107427351D01*
X100927351Y-107429474D01*
X100826200Y-107507091D01*
X100823600Y-107508592D01*
X100705808Y-107557383D01*
X100702908Y-107558160D01*
X100575744Y-107574902D01*
X100574243Y-107575000D01*
X98650757Y-107575000D01*
X98649256Y-107574902D01*
X98522091Y-107558160D01*
X98519191Y-107557383D01*
X98401399Y-107508592D01*
X98398799Y-107507091D01*
X98297648Y-107429474D01*
X98295525Y-107427351D01*
X98217908Y-107326200D01*
X98216407Y-107323600D01*
X98167616Y-107205808D01*
X98166839Y-107202908D01*
X98150098Y-107075744D01*
X98150000Y-107074243D01*
X98150000Y-106504735D01*
X98153368Y-106496603D01*
X98771603Y-105878368D01*
X98779735Y-105875000D01*
X100574243Y-105875000D01*
X100575744Y-105875098D01*
G37*
%TD.AperFunction*%
%TD*%
%TA.AperFunction,Conductor*%
%TO.N,+3V3*%
G36*
X68350744Y-98600098D02*
G01*
X68477909Y-98616839D01*
X68480808Y-98617616D01*
X68598600Y-98666407D01*
X68601200Y-98667908D01*
X68702351Y-98745525D01*
X68704474Y-98747648D01*
X68782091Y-98848799D01*
X68783592Y-98851399D01*
X68832383Y-98969191D01*
X68833160Y-98972091D01*
X68849902Y-99099255D01*
X68850000Y-99100756D01*
X68850000Y-99799243D01*
X68849902Y-99800744D01*
X68833160Y-99927908D01*
X68832383Y-99930808D01*
X68783592Y-100048600D01*
X68782091Y-100051200D01*
X68704474Y-100152351D01*
X68702351Y-100154474D01*
X68601200Y-100232091D01*
X68598600Y-100233592D01*
X68480808Y-100282383D01*
X68477908Y-100283160D01*
X68350744Y-100299902D01*
X68349243Y-100300000D01*
X66425757Y-100300000D01*
X66424256Y-100299902D01*
X66297091Y-100283160D01*
X66294191Y-100282383D01*
X66176399Y-100233592D01*
X66173799Y-100232091D01*
X66072648Y-100154474D01*
X66070525Y-100152351D01*
X65992908Y-100051200D01*
X65991407Y-100048600D01*
X65942616Y-99930808D01*
X65941839Y-99927908D01*
X65925098Y-99800744D01*
X65925000Y-99799243D01*
X65925000Y-99100756D01*
X65925098Y-99099255D01*
X65941839Y-98972091D01*
X65942616Y-98969191D01*
X65991408Y-98851395D01*
X65992906Y-98848802D01*
X66070526Y-98747646D01*
X66072646Y-98745526D01*
X66173802Y-98667906D01*
X66176395Y-98666408D01*
X66294194Y-98617615D01*
X66297088Y-98616839D01*
X66424256Y-98600098D01*
X66425757Y-98600000D01*
X68349243Y-98600000D01*
X68350744Y-98600098D01*
G37*
%TD.AperFunction*%
%TD*%
%TA.AperFunction,Conductor*%
%TO.N,VOUT*%
G36*
X90553370Y-97519912D02*
G01*
X89000000Y-98950000D01*
X89000000Y-103683500D01*
X88996632Y-103691632D01*
X88988500Y-103695000D01*
X81522623Y-103695000D01*
X81514491Y-103691632D01*
X81511123Y-103683549D01*
X81490653Y-98900000D01*
X79950001Y-97450000D01*
X90553370Y-97519912D01*
G37*
%TD.AperFunction*%
%TD*%
%TA.AperFunction,Conductor*%
%TO.N,EFUSE*%
G36*
X101080981Y-53175874D02*
G01*
X101082598Y-53176543D01*
X101082604Y-53176549D01*
X101082614Y-53176549D01*
X101082617Y-53176551D01*
X101085868Y-53179810D01*
X101088825Y-53182764D01*
X101088832Y-53182781D01*
X101089130Y-53183503D01*
X101089788Y-53190087D01*
X101089721Y-53190429D01*
X101089718Y-53190456D01*
X101049500Y-53495938D01*
X101049500Y-53804061D01*
X101089719Y-54109553D01*
X101169449Y-54407110D01*
X101169465Y-54407166D01*
X101173690Y-54417365D01*
X101174343Y-54419518D01*
X101174778Y-54421700D01*
X101175000Y-54423948D01*
X101175000Y-72963500D01*
X101171632Y-72971632D01*
X101163500Y-72975000D01*
X83795484Y-72975000D01*
X80985654Y-72961145D01*
X80977539Y-72957737D01*
X80974211Y-72949717D01*
X80931362Y-66136553D01*
X80934679Y-66128403D01*
X80942787Y-66124983D01*
X82864758Y-66124971D01*
X82924428Y-55162101D01*
X84650000Y-55162101D01*
X84650000Y-55849999D01*
X84650001Y-55850000D01*
X85594666Y-55850000D01*
X85602798Y-55853368D01*
X85606166Y-55861500D01*
X85605603Y-55865054D01*
X85583241Y-55933876D01*
X85550000Y-56143750D01*
X85550000Y-56356249D01*
X85583241Y-56566123D01*
X85605603Y-56634946D01*
X85604913Y-56643721D01*
X85598220Y-56649437D01*
X85594666Y-56650000D01*
X84650002Y-56650000D01*
X84650001Y-56650001D01*
X84650001Y-57337897D01*
X84660191Y-57467404D01*
X84660192Y-57467415D01*
X84714066Y-57681214D01*
X84714072Y-57681234D01*
X84714073Y-57681238D01*
X84805256Y-57881983D01*
X84805260Y-57881991D01*
X84805261Y-57881992D01*
X84805266Y-57882001D01*
X84930831Y-58063242D01*
X85086756Y-58219167D01*
X85267997Y-58344732D01*
X85268000Y-58344734D01*
X85268005Y-58344737D01*
X85268014Y-58344742D01*
X85351825Y-58382810D01*
X85468760Y-58435925D01*
X85468763Y-58435925D01*
X85468768Y-58435928D01*
X85468775Y-58435930D01*
X85682585Y-58489806D01*
X85682594Y-58489808D01*
X85812101Y-58499999D01*
X86499997Y-58499999D01*
X86499998Y-58499999D01*
X86500000Y-58499998D01*
X86500000Y-57555333D01*
X86503368Y-57547201D01*
X86511500Y-57543833D01*
X86515051Y-57544395D01*
X86583874Y-57566758D01*
X86688813Y-57583379D01*
X86793751Y-57600000D01*
X87006247Y-57600000D01*
X87006249Y-57600000D01*
X87090198Y-57586703D01*
X87216126Y-57566758D01*
X87284947Y-57544396D01*
X87293721Y-57545086D01*
X87299437Y-57551779D01*
X87300000Y-57555333D01*
X87300000Y-58499998D01*
X87300001Y-58499999D01*
X87987888Y-58499999D01*
X87987897Y-58499999D01*
X88117406Y-58489808D01*
X88117414Y-58489806D01*
X88117416Y-58489805D01*
X88117419Y-58489805D01*
X88188684Y-58471847D01*
X88331224Y-58435930D01*
X88331231Y-58435928D01*
X88531985Y-58344742D01*
X88531994Y-58344737D01*
X88713244Y-58219166D01*
X88869166Y-58063244D01*
X88994737Y-57881994D01*
X88994742Y-57881985D01*
X89085928Y-57681231D01*
X89085930Y-57681224D01*
X89139806Y-57467414D01*
X89139808Y-57467405D01*
X89150000Y-57337898D01*
X89150000Y-56650001D01*
X89149999Y-56650000D01*
X89149998Y-56650000D01*
X88205334Y-56650000D01*
X88197202Y-56646632D01*
X88193834Y-56638500D01*
X88194397Y-56634946D01*
X88216758Y-56566126D01*
X88250000Y-56356247D01*
X88250000Y-56143753D01*
X88216758Y-55933874D01*
X88194397Y-55865053D01*
X88195087Y-55856279D01*
X88201780Y-55850563D01*
X88205334Y-55850000D01*
X89149996Y-55850000D01*
X89149998Y-55850000D01*
X89149999Y-55849999D01*
X89149999Y-55162102D01*
X89139808Y-55032593D01*
X89139806Y-55032585D01*
X89139805Y-55032580D01*
X89139805Y-55032579D01*
X89085932Y-54818784D01*
X89085930Y-54818775D01*
X89085928Y-54818768D01*
X89085925Y-54818763D01*
X89085925Y-54818760D01*
X88994742Y-54618015D01*
X88994738Y-54618007D01*
X88994737Y-54618005D01*
X88994734Y-54618000D01*
X88994732Y-54617997D01*
X88869167Y-54436756D01*
X88713242Y-54280831D01*
X88532001Y-54155266D01*
X88531992Y-54155261D01*
X88531991Y-54155260D01*
X88531983Y-54155256D01*
X88331238Y-54064073D01*
X88331234Y-54064072D01*
X88331214Y-54064066D01*
X88117433Y-54010197D01*
X88117406Y-54010191D01*
X88104454Y-54009171D01*
X87987898Y-54000000D01*
X87987889Y-54000000D01*
X87300001Y-54000000D01*
X87300000Y-54000001D01*
X87300000Y-54944665D01*
X87296632Y-54952797D01*
X87288500Y-54956165D01*
X87284946Y-54955602D01*
X87216123Y-54933241D01*
X87006249Y-54900000D01*
X87006247Y-54900000D01*
X86793753Y-54900000D01*
X86793751Y-54900000D01*
X86583876Y-54933241D01*
X86515054Y-54955602D01*
X86506279Y-54954912D01*
X86500563Y-54948219D01*
X86500000Y-54944665D01*
X86500000Y-54000002D01*
X86500000Y-54000001D01*
X86499999Y-54000000D01*
X86499998Y-54000000D01*
X85812111Y-54000000D01*
X85812102Y-54000000D01*
X85706140Y-54008338D01*
X85682591Y-54010191D01*
X85682586Y-54010192D01*
X85682580Y-54010194D01*
X85682579Y-54010193D01*
X85468784Y-54064066D01*
X85468764Y-54064072D01*
X85468760Y-54064073D01*
X85268015Y-54155256D01*
X85268007Y-54155260D01*
X85268006Y-54155261D01*
X85267997Y-54155266D01*
X85086756Y-54280831D01*
X84930831Y-54436756D01*
X84805266Y-54617997D01*
X84805261Y-54618006D01*
X84805260Y-54618007D01*
X84805256Y-54618015D01*
X84714073Y-54818760D01*
X84714072Y-54818764D01*
X84714066Y-54818784D01*
X84660197Y-55032565D01*
X84660192Y-55032591D01*
X84660191Y-55032594D01*
X84650000Y-55162101D01*
X82924428Y-55162101D01*
X82925592Y-54948219D01*
X82935164Y-53189479D01*
X82935168Y-53188725D01*
X82936065Y-53184333D01*
X82936754Y-53182696D01*
X82942985Y-53176519D01*
X82944585Y-53175862D01*
X82948953Y-53175000D01*
X101076585Y-53175000D01*
X101080981Y-53175874D01*
G37*
%TD.AperFunction*%
%TD*%
%TA.AperFunction,Conductor*%
%TO.N,EFUSE*%
G36*
X101194818Y-70428368D02*
G01*
X101198186Y-70436500D01*
X101198186Y-70436563D01*
X101151736Y-78927640D01*
X101148323Y-78935753D01*
X101140261Y-78939077D01*
X94051481Y-78954438D01*
X94043342Y-78951087D01*
X94039956Y-78942963D01*
X94043307Y-78934824D01*
X94048477Y-78931831D01*
X94131401Y-78909612D01*
X94234128Y-78850302D01*
X94318004Y-78766426D01*
X94377314Y-78663699D01*
X94408015Y-78549122D01*
X94408015Y-78430504D01*
X94377314Y-78315927D01*
X94318004Y-78213200D01*
X94234128Y-78129324D01*
X94234127Y-78129323D01*
X94131399Y-78070013D01*
X94131400Y-78070013D01*
X94016824Y-78039313D01*
X93898206Y-78039313D01*
X93783630Y-78070013D01*
X93680902Y-78129323D01*
X93597025Y-78213200D01*
X93537715Y-78315928D01*
X93507015Y-78430504D01*
X93507015Y-78549121D01*
X93520412Y-78599122D01*
X93537716Y-78663699D01*
X93597026Y-78766426D01*
X93680902Y-78850302D01*
X93783629Y-78909612D01*
X93868056Y-78932234D01*
X93875039Y-78937592D01*
X93876188Y-78946318D01*
X93870830Y-78953301D01*
X93865105Y-78954842D01*
X93649942Y-78955308D01*
X93649942Y-78955309D01*
X93649948Y-79155513D01*
X93647144Y-79162337D01*
X93647486Y-79162599D01*
X93647026Y-79163198D01*
X93587715Y-79265928D01*
X93560921Y-79365927D01*
X93557015Y-79380504D01*
X93557015Y-79499122D01*
X93587716Y-79613699D01*
X93617371Y-79665062D01*
X93647027Y-79716428D01*
X93647487Y-79717028D01*
X93647138Y-79717295D01*
X93649971Y-79724135D01*
X93649988Y-80198287D01*
X93648447Y-80204037D01*
X93612718Y-80265922D01*
X93612714Y-80265932D01*
X93582015Y-80380504D01*
X93582015Y-80499121D01*
X93612714Y-80613693D01*
X93612718Y-80613703D01*
X93648466Y-80675620D01*
X93650007Y-80681370D01*
X93650025Y-81180436D01*
X93647170Y-81187356D01*
X93647486Y-81187599D01*
X93647026Y-81188198D01*
X93587715Y-81290928D01*
X93557015Y-81405504D01*
X93557015Y-81524121D01*
X93587715Y-81638697D01*
X93647027Y-81741428D01*
X93647487Y-81742028D01*
X93647172Y-81742269D01*
X93650048Y-81749212D01*
X93650054Y-81913000D01*
X93646686Y-81921131D01*
X93638560Y-81924500D01*
X93317571Y-81924680D01*
X93311816Y-81923140D01*
X93306403Y-81920015D01*
X93306402Y-81920014D01*
X93306401Y-81920014D01*
X93306398Y-81920013D01*
X93306395Y-81920012D01*
X93191824Y-81889313D01*
X93073206Y-81889313D01*
X92958634Y-81920012D01*
X92958622Y-81920017D01*
X92952851Y-81923348D01*
X92947109Y-81924888D01*
X91849770Y-81925507D01*
X91841637Y-81922143D01*
X91838264Y-81914013D01*
X91838264Y-81913910D01*
X91839716Y-81742028D01*
X91862424Y-79054719D01*
X91865861Y-79046617D01*
X91873867Y-79043317D01*
X92057091Y-79042443D01*
X92056527Y-78699498D01*
X92056917Y-78696517D01*
X92083015Y-78599122D01*
X92083015Y-78480504D01*
X92056390Y-78381140D01*
X92056000Y-78378195D01*
X92047126Y-72975000D01*
X101175000Y-72975000D01*
X101175000Y-70425000D01*
X101175001Y-70425000D01*
X101186686Y-70425000D01*
X101194818Y-70428368D01*
G37*
%TD.AperFunction*%
%TD*%
%TA.AperFunction,Conductor*%
%TO.N,GND*%
G36*
X83794717Y-73130498D02*
G01*
X83795484Y-73130500D01*
X91880400Y-73130500D01*
X91888532Y-73133868D01*
X91891899Y-73141980D01*
X91892733Y-73649500D01*
X91900499Y-78378449D01*
X91900500Y-78378459D01*
X91901844Y-78398594D01*
X91902237Y-78401564D01*
X91906188Y-78421387D01*
X91927123Y-78499511D01*
X91927515Y-78502488D01*
X91927515Y-78577134D01*
X91927123Y-78580110D01*
X91906718Y-78656259D01*
X91906715Y-78656270D01*
X91902731Y-78676339D01*
X91902340Y-78679332D01*
X91902340Y-78679337D01*
X91901027Y-78699751D01*
X91901317Y-78876219D01*
X91897962Y-78884356D01*
X91889873Y-78887738D01*
X91873124Y-78887819D01*
X91814603Y-78899552D01*
X91806608Y-78902848D01*
X91806585Y-78902859D01*
X91772253Y-78922448D01*
X91772251Y-78922450D01*
X91722710Y-78985887D01*
X91722710Y-78985888D01*
X91719271Y-78993994D01*
X91706930Y-79053403D01*
X91706930Y-79053405D01*
X91684222Y-81740714D01*
X91683969Y-81770726D01*
X91682770Y-81912618D01*
X91682764Y-81913935D01*
X91682764Y-81914008D01*
X91682765Y-81914021D01*
X91694632Y-81973592D01*
X91694636Y-81973606D01*
X91698008Y-81981733D01*
X91718317Y-82016867D01*
X91718318Y-82016868D01*
X91749808Y-82041006D01*
X91782202Y-82065836D01*
X91790335Y-82069200D01*
X91849858Y-82081007D01*
X92442626Y-82080671D01*
X92450759Y-82084035D01*
X92454132Y-82092164D01*
X92454132Y-82092211D01*
X92434921Y-87590478D01*
X92431524Y-87598598D01*
X92423398Y-87601938D01*
X88783495Y-87594617D01*
X88725313Y-87594500D01*
X88725309Y-87594500D01*
X88725308Y-87594500D01*
X88724509Y-87594500D01*
X88724499Y-87594501D01*
X86469099Y-87601764D01*
X81077042Y-87619129D01*
X81068900Y-87615787D01*
X81065505Y-87607666D01*
X81065708Y-87605482D01*
X81067862Y-87594196D01*
X80993116Y-78001870D01*
X80981192Y-77943353D01*
X80977863Y-77935351D01*
X80976965Y-77933790D01*
X80973212Y-77927263D01*
X80972078Y-77918535D01*
X80974012Y-77914588D01*
X80990096Y-77893355D01*
X80993413Y-77885203D01*
X81004877Y-77825619D01*
X81001827Y-77340691D01*
X88799500Y-77340691D01*
X88799500Y-77459309D01*
X88830201Y-77573886D01*
X88889511Y-77676613D01*
X88973387Y-77760489D01*
X89076114Y-77819799D01*
X89190691Y-77850500D01*
X89268478Y-77850500D01*
X89272876Y-77851374D01*
X89276784Y-77852993D01*
X89280514Y-77855485D01*
X89819514Y-78394485D01*
X89822006Y-78398215D01*
X89823624Y-78402120D01*
X89824500Y-78406522D01*
X89824500Y-82111508D01*
X89823624Y-82115910D01*
X89822006Y-82119815D01*
X89819514Y-82123545D01*
X89818175Y-82124883D01*
X89758868Y-82227606D01*
X89758864Y-82227616D01*
X89728166Y-82342187D01*
X89728166Y-82460804D01*
X89740623Y-82507296D01*
X89758864Y-82575374D01*
X89758868Y-82575384D01*
X89817026Y-82676116D01*
X89818173Y-82678103D01*
X89818174Y-82678105D01*
X89818177Y-82678109D01*
X89902053Y-82761985D01*
X90004780Y-82821295D01*
X90119357Y-82851996D01*
X90237975Y-82851996D01*
X90352552Y-82821295D01*
X90455279Y-82761985D01*
X90539155Y-82678109D01*
X90598465Y-82575382D01*
X90629166Y-82460805D01*
X90629166Y-82342187D01*
X90598465Y-82227610D01*
X90539155Y-82124883D01*
X90455279Y-82041007D01*
X90455278Y-82041006D01*
X90442880Y-82033848D01*
X90435300Y-82029471D01*
X90433229Y-82028275D01*
X90429856Y-82025316D01*
X90427876Y-82022735D01*
X90425500Y-82015735D01*
X90425500Y-78235438D01*
X90405021Y-78159011D01*
X90405020Y-78159010D01*
X90365460Y-78090489D01*
X89705485Y-77430514D01*
X89702992Y-77426782D01*
X89701375Y-77422877D01*
X89700500Y-77418477D01*
X89700500Y-77340691D01*
X89670191Y-77227577D01*
X89669799Y-77226115D01*
X89669799Y-77226114D01*
X89610489Y-77123387D01*
X89526613Y-77039511D01*
X89526612Y-77039510D01*
X89526611Y-77039509D01*
X89430539Y-76984042D01*
X89428549Y-76981449D01*
X89309309Y-76949500D01*
X89190691Y-76949500D01*
X89076120Y-76980198D01*
X89076110Y-76980202D01*
X88973387Y-77039509D01*
X88889509Y-77123387D01*
X88830202Y-77226110D01*
X88830198Y-77226120D01*
X88829808Y-77227577D01*
X88801881Y-77331805D01*
X88799500Y-77340691D01*
X81001827Y-77340691D01*
X80975334Y-73128223D01*
X80978651Y-73120072D01*
X80986761Y-73116652D01*
X83794717Y-73130498D01*
G37*
%TD.AperFunction*%
%TA.AperFunction,Conductor*%
G36*
X93997814Y-78195205D02*
G01*
X94069915Y-78214524D01*
X94072689Y-78215673D01*
X94137335Y-78252996D01*
X94139716Y-78254822D01*
X94192502Y-78307608D01*
X94194329Y-78309990D01*
X94231654Y-78374638D01*
X94232803Y-78377411D01*
X94252123Y-78449511D01*
X94252515Y-78452488D01*
X94252515Y-78527136D01*
X94252123Y-78530113D01*
X94232803Y-78602213D01*
X94231654Y-78604986D01*
X94194329Y-78669634D01*
X94192502Y-78672016D01*
X94139718Y-78724800D01*
X94137336Y-78726627D01*
X94072691Y-78763950D01*
X94069918Y-78765099D01*
X94008230Y-78781629D01*
X94008226Y-78781630D01*
X93970569Y-78797255D01*
X93965410Y-78800240D01*
X93962380Y-78802272D01*
X93953749Y-78804001D01*
X93950891Y-78803033D01*
X93908301Y-78782031D01*
X93845110Y-78765099D01*
X93842337Y-78763950D01*
X93777692Y-78726627D01*
X93775310Y-78724800D01*
X93722526Y-78672016D01*
X93720699Y-78669634D01*
X93683374Y-78604986D01*
X93682225Y-78602212D01*
X93670613Y-78558874D01*
X93662907Y-78530113D01*
X93662515Y-78527137D01*
X93662515Y-78452489D01*
X93662907Y-78449513D01*
X93674426Y-78406522D01*
X93682226Y-78377407D01*
X93683375Y-78374635D01*
X93720700Y-78309986D01*
X93722520Y-78307613D01*
X93775315Y-78254818D01*
X93777688Y-78252998D01*
X93842339Y-78215671D01*
X93845109Y-78214524D01*
X93917216Y-78195205D01*
X93920192Y-78194813D01*
X93994838Y-78194813D01*
X93997814Y-78195205D01*
G37*
%TD.AperFunction*%
%TA.AperFunction,Conductor*%
G36*
X103350874Y-48950471D02*
G01*
X103351427Y-48950496D01*
X103351428Y-48950490D01*
X103351663Y-48950499D01*
X103351669Y-48950500D01*
X103352405Y-48950500D01*
X103399621Y-48950500D01*
X103399829Y-48950502D01*
X103400050Y-48950506D01*
X103400115Y-48950507D01*
X103400361Y-48950514D01*
X103808852Y-48968350D01*
X103809349Y-48968383D01*
X103809796Y-48968422D01*
X103810288Y-48968475D01*
X104215329Y-49021799D01*
X104215824Y-49021876D01*
X104216316Y-49021963D01*
X104216779Y-49022055D01*
X104615612Y-49110474D01*
X104616050Y-49110581D01*
X104616547Y-49110714D01*
X104616992Y-49110844D01*
X104872115Y-49191283D01*
X104975849Y-49223990D01*
X105006613Y-49233690D01*
X105007072Y-49233845D01*
X105007546Y-49234018D01*
X105007991Y-49234190D01*
X105385431Y-49390530D01*
X105385857Y-49390718D01*
X105386330Y-49390939D01*
X105386737Y-49391140D01*
X105749108Y-49579780D01*
X105749525Y-49580010D01*
X105749864Y-49580205D01*
X105749967Y-49580265D01*
X105750382Y-49580517D01*
X106059940Y-49777726D01*
X106094893Y-49799993D01*
X106095294Y-49800261D01*
X106095694Y-49800541D01*
X106096081Y-49800822D01*
X106347542Y-49993776D01*
X106390300Y-50026586D01*
X106420195Y-50049525D01*
X106420591Y-50049844D01*
X106420960Y-50050154D01*
X106421332Y-50050480D01*
X106722485Y-50326436D01*
X106722848Y-50326783D01*
X106723215Y-50327150D01*
X106723562Y-50327513D01*
X106999518Y-50628666D01*
X106999844Y-50629038D01*
X107000154Y-50629407D01*
X107000473Y-50629803D01*
X107249166Y-50953905D01*
X107249463Y-50954312D01*
X107249740Y-50954709D01*
X107250008Y-50955110D01*
X107469481Y-51299616D01*
X107469733Y-51300031D01*
X107469978Y-51300454D01*
X107470228Y-51300908D01*
X107658849Y-51663244D01*
X107659069Y-51663691D01*
X107659272Y-51664126D01*
X107659476Y-51664588D01*
X107815803Y-52041995D01*
X107815990Y-52042478D01*
X107816152Y-52042925D01*
X107816308Y-52043385D01*
X107939143Y-52432967D01*
X107939285Y-52433456D01*
X107939417Y-52433950D01*
X107939534Y-52434430D01*
X108027936Y-52833184D01*
X108028033Y-52833667D01*
X108028123Y-52834175D01*
X108028201Y-52834680D01*
X108078356Y-53215646D01*
X108081518Y-53239666D01*
X108081571Y-53240154D01*
X108081616Y-53240663D01*
X108081650Y-53241174D01*
X108099483Y-53649632D01*
X108099490Y-53649835D01*
X108099496Y-53650066D01*
X108099500Y-53650365D01*
X108099500Y-53698397D01*
X108099501Y-53698424D01*
X108099509Y-53698851D01*
X108124500Y-178649622D01*
X108124496Y-178649913D01*
X108124490Y-178650152D01*
X108124483Y-178650365D01*
X108106555Y-179061002D01*
X108106521Y-179061513D01*
X108106476Y-179062022D01*
X108106423Y-179062510D01*
X108052821Y-179469658D01*
X108052743Y-179470163D01*
X108052653Y-179470671D01*
X108052556Y-179471154D01*
X107963683Y-179872038D01*
X107963566Y-179872518D01*
X107963434Y-179873012D01*
X107963292Y-179873501D01*
X107839800Y-180265162D01*
X107839644Y-180265622D01*
X107839482Y-180266069D01*
X107839295Y-180266552D01*
X107682134Y-180645974D01*
X107681930Y-180646436D01*
X107681727Y-180646871D01*
X107681507Y-180647318D01*
X107491879Y-181011589D01*
X107491629Y-181012043D01*
X107491384Y-181012466D01*
X107491132Y-181012881D01*
X107270487Y-181359226D01*
X107270219Y-181359627D01*
X107269942Y-181360024D01*
X107269635Y-181360445D01*
X107019624Y-181686264D01*
X107019305Y-181686660D01*
X107018995Y-181687029D01*
X107018669Y-181687401D01*
X106741240Y-181990162D01*
X106740893Y-181990525D01*
X106740526Y-181990892D01*
X106740163Y-181991239D01*
X106437402Y-182268668D01*
X106437030Y-182268994D01*
X106436661Y-182269304D01*
X106436265Y-182269623D01*
X106110446Y-182519634D01*
X106110025Y-182519941D01*
X106109628Y-182520218D01*
X106109227Y-182520486D01*
X105762882Y-182741131D01*
X105762467Y-182741383D01*
X105762044Y-182741628D01*
X105761590Y-182741878D01*
X105397319Y-182931506D01*
X105396872Y-182931726D01*
X105396437Y-182931929D01*
X105395975Y-182932133D01*
X105016553Y-183089294D01*
X105016070Y-183089481D01*
X105015623Y-183089643D01*
X105015163Y-183089799D01*
X104623502Y-183213291D01*
X104623013Y-183213433D01*
X104622519Y-183213565D01*
X104622039Y-183213682D01*
X104221155Y-183302555D01*
X104220672Y-183302652D01*
X104220164Y-183302742D01*
X104219659Y-183302820D01*
X103812511Y-183356422D01*
X103812023Y-183356475D01*
X103811514Y-183356520D01*
X103811003Y-183356554D01*
X103400365Y-183374482D01*
X103400067Y-183374491D01*
X103399841Y-183374495D01*
X103399630Y-183374497D01*
X63449104Y-183349528D01*
X63448522Y-183349505D01*
X63448522Y-183349508D01*
X63448314Y-183349500D01*
X63448303Y-183349500D01*
X63447595Y-183349500D01*
X63402515Y-183349500D01*
X63402222Y-183349499D01*
X63402215Y-183349499D01*
X63400464Y-183349498D01*
X63400326Y-183349498D01*
X63400325Y-183349497D01*
X63400043Y-183349494D01*
X63399808Y-183349488D01*
X63399600Y-183349481D01*
X62991174Y-183331650D01*
X62990663Y-183331616D01*
X62990154Y-183331571D01*
X62989666Y-183331518D01*
X62584680Y-183278201D01*
X62584175Y-183278123D01*
X62583667Y-183278033D01*
X62583184Y-183277936D01*
X62184430Y-183189534D01*
X62183950Y-183189417D01*
X62183456Y-183189285D01*
X62182967Y-183189143D01*
X61793385Y-183066307D01*
X61792925Y-183066151D01*
X61792478Y-183065989D01*
X61791995Y-183065802D01*
X61414588Y-182909475D01*
X61414126Y-182909271D01*
X61413691Y-182909068D01*
X61413244Y-182908848D01*
X61050908Y-182720228D01*
X61050454Y-182719978D01*
X61050031Y-182719733D01*
X61049616Y-182719481D01*
X60705110Y-182500008D01*
X60704709Y-182499740D01*
X60704312Y-182499463D01*
X60703905Y-182499166D01*
X60379802Y-182250473D01*
X60379406Y-182250154D01*
X60379037Y-182249844D01*
X60378665Y-182249518D01*
X60077512Y-181973562D01*
X60077149Y-181973215D01*
X60076782Y-181972848D01*
X60076435Y-181972485D01*
X59800479Y-181671332D01*
X59800153Y-181670960D01*
X59799843Y-181670591D01*
X59799524Y-181670195D01*
X59561699Y-181360255D01*
X59550843Y-181346108D01*
X59550550Y-181345708D01*
X59550262Y-181345296D01*
X59549988Y-181344886D01*
X59372188Y-181065794D01*
X59368612Y-181060180D01*
X75874500Y-181060180D01*
X75874500Y-183089818D01*
X75883233Y-183133722D01*
X75883501Y-183134224D01*
X75883864Y-183134666D01*
X75916494Y-183183502D01*
X75916496Y-183183504D01*
X75966278Y-183216767D01*
X76010180Y-183225500D01*
X76010181Y-183225500D01*
X76939819Y-183225500D01*
X76939820Y-183225500D01*
X76983722Y-183216767D01*
X77033504Y-183183504D01*
X77066767Y-183133722D01*
X77075500Y-183089820D01*
X77075500Y-181060180D01*
X89374500Y-181060180D01*
X89374500Y-183089818D01*
X89383233Y-183133722D01*
X89383501Y-183134224D01*
X89383864Y-183134666D01*
X89416494Y-183183502D01*
X89416496Y-183183504D01*
X89466278Y-183216767D01*
X89510180Y-183225500D01*
X89510181Y-183225500D01*
X90439819Y-183225500D01*
X90439820Y-183225500D01*
X90483722Y-183216767D01*
X90533504Y-183183504D01*
X90566767Y-183133722D01*
X90575500Y-183089820D01*
X90575500Y-181060180D01*
X90566767Y-181016278D01*
X90533504Y-180966496D01*
X90533502Y-180966494D01*
X90483723Y-180933234D01*
X90483724Y-180933234D01*
X90483722Y-180933233D01*
X90483720Y-180933232D01*
X90483719Y-180933232D01*
X90480930Y-180932677D01*
X90467659Y-180930037D01*
X90454321Y-180927384D01*
X90454320Y-180927383D01*
X90442703Y-180925073D01*
X90439820Y-180924500D01*
X90439819Y-180924500D01*
X89510181Y-180924500D01*
X89510180Y-180924500D01*
X89508372Y-180924859D01*
X89499279Y-180926667D01*
X89499279Y-180926668D01*
X89491086Y-180928297D01*
X89466282Y-180933231D01*
X89466278Y-180933232D01*
X89416500Y-180966491D01*
X89416491Y-180966500D01*
X89383232Y-181016278D01*
X89383231Y-181016282D01*
X89376668Y-181049280D01*
X89374500Y-181060180D01*
X77075500Y-181060180D01*
X77066767Y-181016278D01*
X77033504Y-180966496D01*
X77033502Y-180966494D01*
X76983723Y-180933234D01*
X76983724Y-180933234D01*
X76983722Y-180933233D01*
X76983720Y-180933232D01*
X76983719Y-180933232D01*
X76980930Y-180932677D01*
X76967659Y-180930037D01*
X76954321Y-180927384D01*
X76954320Y-180927383D01*
X76942703Y-180925073D01*
X76939820Y-180924500D01*
X76939819Y-180924500D01*
X76010181Y-180924500D01*
X76010180Y-180924500D01*
X76008372Y-180924859D01*
X75999279Y-180926667D01*
X75999279Y-180926668D01*
X75991086Y-180928297D01*
X75966282Y-180933231D01*
X75966278Y-180933232D01*
X75916500Y-180966491D01*
X75916491Y-180966500D01*
X75883232Y-181016278D01*
X75883231Y-181016282D01*
X75876668Y-181049280D01*
X75874500Y-181060180D01*
X59368612Y-181060180D01*
X59330516Y-181000381D01*
X59330264Y-180999966D01*
X59330019Y-180999543D01*
X59329779Y-180999107D01*
X59141149Y-180636753D01*
X59140929Y-180636306D01*
X59140726Y-180635871D01*
X59140522Y-180635409D01*
X58987737Y-180266552D01*
X58984190Y-180257990D01*
X58984018Y-180257545D01*
X58983845Y-180257071D01*
X58983690Y-180256612D01*
X58954400Y-180163717D01*
X58862895Y-179873501D01*
X58860843Y-179866991D01*
X58860711Y-179866537D01*
X58860584Y-179866063D01*
X58860473Y-179865611D01*
X58772052Y-179466768D01*
X58771964Y-179466331D01*
X58771872Y-179465807D01*
X58771801Y-179465352D01*
X58718474Y-179060287D01*
X58718421Y-179059795D01*
X58718382Y-179059348D01*
X58718349Y-179058850D01*
X58700515Y-178650365D01*
X58700508Y-178650152D01*
X58700500Y-178649825D01*
X58700499Y-178649622D01*
X58700499Y-178643042D01*
X58700515Y-177900095D01*
X58700558Y-175920969D01*
X77275000Y-175920969D01*
X77275000Y-176229029D01*
X77315210Y-176534449D01*
X77315211Y-176534457D01*
X77394839Y-176831628D01*
X77394908Y-176831924D01*
X77394937Y-176831995D01*
X77394938Y-176831997D01*
X77394938Y-176831998D01*
X77445666Y-176954466D01*
X77512829Y-177116614D01*
X77666848Y-177383383D01*
X77666850Y-177383386D01*
X77666851Y-177383387D01*
X77795456Y-177550988D01*
X78500206Y-176846236D01*
X78508337Y-176842869D01*
X78516469Y-176846237D01*
X78517641Y-176847609D01*
X78539507Y-176877705D01*
X78595278Y-176954466D01*
X78745534Y-177104722D01*
X78838894Y-177172552D01*
X78852387Y-177182355D01*
X78856985Y-177189860D01*
X78854931Y-177198419D01*
X78853759Y-177199791D01*
X78199378Y-177854174D01*
X78149010Y-177904542D01*
X78284710Y-178008669D01*
X78316615Y-178033150D01*
X78583384Y-178187169D01*
X78583385Y-178187169D01*
X78583388Y-178187171D01*
X78868001Y-178305061D01*
X78868005Y-178305062D01*
X79165530Y-178384785D01*
X79165531Y-178384785D01*
X79165542Y-178384788D01*
X79470812Y-178424978D01*
X79470937Y-178424997D01*
X79470972Y-178425000D01*
X79470977Y-178425000D01*
X79779022Y-178425000D01*
X79779023Y-178425000D01*
X79779024Y-178424999D01*
X79779206Y-178424981D01*
X79779373Y-178424953D01*
X80084457Y-178384788D01*
X80084458Y-178384788D01*
X80381661Y-178305150D01*
X80381929Y-178305088D01*
X80381989Y-178305063D01*
X80381997Y-178305061D01*
X80381998Y-178305061D01*
X80666611Y-178187171D01*
X80933387Y-178033148D01*
X81100988Y-177904542D01*
X80396238Y-177199792D01*
X80392870Y-177191660D01*
X80396238Y-177183528D01*
X80397611Y-177182356D01*
X80504466Y-177104722D01*
X80654722Y-176954466D01*
X80732356Y-176847610D01*
X80739861Y-176843012D01*
X80748419Y-176845066D01*
X80749791Y-176846237D01*
X81454542Y-177550988D01*
X81583148Y-177383387D01*
X81737171Y-177116611D01*
X81855061Y-176831998D01*
X81855061Y-176831997D01*
X81855063Y-176831989D01*
X81855088Y-176831929D01*
X81855150Y-176831661D01*
X81934788Y-176534458D01*
X81934788Y-176534457D01*
X81974953Y-176229373D01*
X81974981Y-176229206D01*
X81975000Y-176229022D01*
X81975000Y-175920977D01*
X81974981Y-175920789D01*
X81974952Y-175920618D01*
X81934788Y-175615542D01*
X81934788Y-175615541D01*
X81855154Y-175318352D01*
X81855089Y-175318070D01*
X81855061Y-175318002D01*
X81855061Y-175318001D01*
X81737171Y-175033388D01*
X81708079Y-174982999D01*
X81708080Y-174982998D01*
X81708071Y-174982986D01*
X81704866Y-174977435D01*
X81704858Y-174977422D01*
X84624500Y-174977422D01*
X84624500Y-177172576D01*
X84630728Y-177262300D01*
X84630729Y-177262313D01*
X84630784Y-177263094D01*
X84630784Y-177263097D01*
X84630785Y-177263099D01*
X84630909Y-177263629D01*
X84630910Y-177263631D01*
X84659076Y-177383387D01*
X84680663Y-177475169D01*
X84768654Y-177674448D01*
X84768658Y-177674456D01*
X84768666Y-177674469D01*
X84891766Y-177854174D01*
X85045824Y-178008232D01*
X85193514Y-178109401D01*
X85193517Y-178109402D01*
X85225538Y-178131338D01*
X85225542Y-178131341D01*
X85225545Y-178131342D01*
X85225546Y-178131343D01*
X85424836Y-178219338D01*
X85636901Y-178269215D01*
X85727448Y-178275500D01*
X85727452Y-178275500D01*
X87922548Y-178275500D01*
X87922552Y-178275500D01*
X88013099Y-178269215D01*
X88225164Y-178219338D01*
X88424454Y-178131343D01*
X88563551Y-178036058D01*
X88563551Y-178036057D01*
X88563553Y-178036057D01*
X88581655Y-178023656D01*
X88604178Y-178008229D01*
X88604178Y-178008228D01*
X88604182Y-178008226D01*
X88604184Y-178008223D01*
X88604279Y-178008159D01*
X88604280Y-178008158D01*
X88604829Y-178007782D01*
X88605400Y-178007007D01*
X88758226Y-177854182D01*
X88758232Y-177854174D01*
X88786058Y-177813551D01*
X88881343Y-177674454D01*
X88969338Y-177475164D01*
X89019215Y-177263099D01*
X89019271Y-177262300D01*
X89024819Y-177182356D01*
X89025500Y-177172552D01*
X89025500Y-174977448D01*
X89019215Y-174886901D01*
X88969338Y-174674836D01*
X88881343Y-174475546D01*
X88881342Y-174475545D01*
X88881341Y-174475542D01*
X88881338Y-174475538D01*
X88859402Y-174443517D01*
X88859401Y-174443514D01*
X88758232Y-174295824D01*
X88604174Y-174141766D01*
X88424469Y-174018666D01*
X88424456Y-174018658D01*
X88424448Y-174018654D01*
X88225859Y-173930968D01*
X88225853Y-173930965D01*
X88225167Y-173930663D01*
X88225165Y-173930662D01*
X88225164Y-173930662D01*
X88224587Y-173930526D01*
X88224572Y-173930521D01*
X88223877Y-173930358D01*
X88223867Y-173930357D01*
X88013777Y-173880943D01*
X88013761Y-173880940D01*
X88013099Y-173880785D01*
X88013097Y-173880784D01*
X88013094Y-173880784D01*
X88012267Y-173880726D01*
X88012263Y-173880726D01*
X87922576Y-173874500D01*
X87922564Y-173874500D01*
X87922552Y-173874500D01*
X85727448Y-173874500D01*
X85727435Y-173874500D01*
X85727422Y-173874500D01*
X85636909Y-173880783D01*
X85636229Y-173880943D01*
X85424837Y-173930662D01*
X85424828Y-173930664D01*
X85225550Y-174018654D01*
X85225542Y-174018658D01*
X85225529Y-174018666D01*
X85045824Y-174141766D01*
X84891766Y-174295824D01*
X84768666Y-174475529D01*
X84768658Y-174475542D01*
X84768654Y-174475550D01*
X84680664Y-174674828D01*
X84630783Y-174886909D01*
X84624500Y-174977422D01*
X81704858Y-174977422D01*
X81583148Y-174766612D01*
X81454542Y-174599010D01*
X80749791Y-175303759D01*
X80741659Y-175307127D01*
X80733527Y-175303759D01*
X80732355Y-175302387D01*
X80654722Y-175195534D01*
X80504466Y-175045278D01*
X80397609Y-174967641D01*
X80393011Y-174960136D01*
X80395065Y-174951577D01*
X80396231Y-174950211D01*
X81100988Y-174245456D01*
X80933387Y-174116851D01*
X80933386Y-174116850D01*
X80933383Y-174116848D01*
X80666614Y-173962829D01*
X80381993Y-173844936D01*
X80084468Y-173765213D01*
X80084461Y-173765212D01*
X80084457Y-173765211D01*
X79837865Y-173732746D01*
X79779029Y-173725000D01*
X79779028Y-173725000D01*
X79470971Y-173725000D01*
X79470969Y-173725000D01*
X79165549Y-173765209D01*
X79165550Y-173765210D01*
X79165540Y-173765211D01*
X78868370Y-173844839D01*
X78868074Y-173844908D01*
X78868002Y-173844938D01*
X78868001Y-173844938D01*
X78796632Y-173874500D01*
X78583384Y-173962829D01*
X78316615Y-174116848D01*
X78149010Y-174245455D01*
X78149010Y-174245456D01*
X78502564Y-174599010D01*
X78853760Y-174950206D01*
X78857128Y-174958338D01*
X78853760Y-174966470D01*
X78852388Y-174967642D01*
X78745534Y-175045278D01*
X78595278Y-175195534D01*
X78517642Y-175302388D01*
X78510137Y-175306986D01*
X78501578Y-175304932D01*
X78500206Y-175303760D01*
X78148023Y-174951577D01*
X77795456Y-174599010D01*
X77795455Y-174599010D01*
X77666848Y-174766615D01*
X77512829Y-175033384D01*
X77445665Y-175195534D01*
X77400352Y-175304932D01*
X77394908Y-175318074D01*
X77394839Y-175318370D01*
X77315211Y-175615540D01*
X77315210Y-175615550D01*
X77275000Y-175920969D01*
X58700558Y-175920969D01*
X58700558Y-175920597D01*
X58700558Y-175920595D01*
X58700594Y-174249904D01*
X58700731Y-167866233D01*
X67349500Y-167866233D01*
X67349500Y-168033765D01*
X67382178Y-168198058D01*
X67382181Y-168198074D01*
X67382182Y-168198076D01*
X67382183Y-168198081D01*
X67405222Y-168253701D01*
X67446297Y-168352863D01*
X67539374Y-168492162D01*
X67657838Y-168610626D01*
X67797137Y-168703703D01*
X67951918Y-168767816D01*
X68116233Y-168800500D01*
X68116234Y-168800500D01*
X68283766Y-168800500D01*
X68283767Y-168800500D01*
X68448082Y-168767816D01*
X68602863Y-168703703D01*
X68742162Y-168610626D01*
X68860626Y-168492162D01*
X68953703Y-168352863D01*
X69017816Y-168198082D01*
X69050500Y-168033767D01*
X69050500Y-167866233D01*
X69017816Y-167701918D01*
X68953703Y-167547137D01*
X68866235Y-167416233D01*
X97124500Y-167416233D01*
X97124500Y-167583765D01*
X97157178Y-167748058D01*
X97157181Y-167748074D01*
X97157182Y-167748076D01*
X97157183Y-167748081D01*
X97157184Y-167748083D01*
X97221299Y-167902867D01*
X97308764Y-168033767D01*
X97314371Y-168042158D01*
X97314374Y-168042162D01*
X97432838Y-168160626D01*
X97572137Y-168253703D01*
X97726918Y-168317816D01*
X97891233Y-168350500D01*
X97891234Y-168350500D01*
X98058766Y-168350500D01*
X98058767Y-168350500D01*
X98223082Y-168317816D01*
X98377863Y-168253703D01*
X98517162Y-168160626D01*
X98635626Y-168042162D01*
X98728703Y-167902863D01*
X98792816Y-167748082D01*
X98825500Y-167583767D01*
X98825500Y-167416233D01*
X98792816Y-167251918D01*
X98728703Y-167097137D01*
X98635626Y-166957838D01*
X98517162Y-166839374D01*
X98517153Y-166839368D01*
X98449396Y-166794094D01*
X98377867Y-166746299D01*
X98281178Y-166706248D01*
X98223081Y-166682183D01*
X98223080Y-166682182D01*
X98223076Y-166682181D01*
X98091271Y-166655965D01*
X98085901Y-166654897D01*
X98058767Y-166649500D01*
X98058766Y-166649500D01*
X97891234Y-166649500D01*
X97891233Y-166649500D01*
X97864096Y-166654897D01*
X97726922Y-166682181D01*
X97726915Y-166682184D01*
X97572131Y-166746299D01*
X97432844Y-166839368D01*
X97314368Y-166957844D01*
X97221299Y-167097131D01*
X97157184Y-167251915D01*
X97157181Y-167251922D01*
X97124500Y-167416233D01*
X68866235Y-167416233D01*
X68860626Y-167407838D01*
X68742162Y-167289374D01*
X68742153Y-167289368D01*
X68686113Y-167251923D01*
X68602867Y-167196299D01*
X68448083Y-167132184D01*
X68448076Y-167132181D01*
X68316271Y-167105965D01*
X68310901Y-167104897D01*
X68283767Y-167099500D01*
X68283766Y-167099500D01*
X68116234Y-167099500D01*
X68116233Y-167099500D01*
X68089096Y-167104897D01*
X67951922Y-167132181D01*
X67951915Y-167132184D01*
X67797131Y-167196299D01*
X67657844Y-167289368D01*
X67539368Y-167407844D01*
X67446299Y-167547131D01*
X67382184Y-167701915D01*
X67382181Y-167701922D01*
X67349500Y-167866233D01*
X58700731Y-167866233D01*
X58700731Y-167865668D01*
X58700816Y-163905578D01*
X76299500Y-163905578D01*
X76299500Y-165994422D01*
X76305825Y-166074791D01*
X76305825Y-166074794D01*
X76305826Y-166074796D01*
X76305826Y-166074797D01*
X76305854Y-166074902D01*
X76305858Y-166074937D01*
X76305859Y-166074939D01*
X76306031Y-166075670D01*
X76306127Y-166075922D01*
X76355902Y-166261686D01*
X76355903Y-166261690D01*
X76355906Y-166261695D01*
X76397095Y-166342532D01*
X76443753Y-166434103D01*
X76565518Y-166584472D01*
X76565527Y-166584481D01*
X76645820Y-166649500D01*
X76715898Y-166706248D01*
X76888305Y-166794094D01*
X76888309Y-166794095D01*
X76888313Y-166794097D01*
X76888369Y-166794111D01*
X77030220Y-166832120D01*
X77050054Y-166837434D01*
X77075204Y-166844174D01*
X77075205Y-166844174D01*
X77075209Y-166844175D01*
X77155578Y-166850500D01*
X77155587Y-166850500D01*
X79244413Y-166850500D01*
X79244422Y-166850500D01*
X79324791Y-166844175D01*
X79466706Y-166806148D01*
X79511688Y-166794096D01*
X79511688Y-166794095D01*
X79511695Y-166794094D01*
X79684102Y-166706248D01*
X79834477Y-166584477D01*
X79956248Y-166434102D01*
X80044094Y-166261695D01*
X80044097Y-166261686D01*
X80058435Y-166208174D01*
X80094175Y-166074791D01*
X80100500Y-165994422D01*
X80100500Y-164365632D01*
X85925000Y-164365632D01*
X85925000Y-164634366D01*
X85960077Y-164900796D01*
X85960078Y-164900804D01*
X86029527Y-165159990D01*
X86029596Y-165160285D01*
X86029624Y-165160354D01*
X86029626Y-165160359D01*
X86029626Y-165160360D01*
X86102558Y-165336433D01*
X86132468Y-165408643D01*
X86266824Y-165641355D01*
X86266826Y-165641358D01*
X86266827Y-165641359D01*
X86359418Y-165762026D01*
X87138565Y-164982877D01*
X87146696Y-164979510D01*
X87154828Y-164982878D01*
X87156257Y-164984620D01*
X87237087Y-165105590D01*
X87369410Y-165237913D01*
X87490375Y-165318738D01*
X87495265Y-165326056D01*
X87493548Y-165334689D01*
X87492118Y-165336432D01*
X86712972Y-166115580D01*
X86833643Y-166208174D01*
X87066355Y-166342530D01*
X87066356Y-166342530D01*
X87066359Y-166342532D01*
X87314639Y-166445373D01*
X87315005Y-166445471D01*
X87574183Y-166514918D01*
X87574184Y-166514918D01*
X87574195Y-166514921D01*
X87840475Y-166549978D01*
X87840600Y-166549997D01*
X87840635Y-166550000D01*
X87840640Y-166550000D01*
X88109359Y-166550000D01*
X88109360Y-166550000D01*
X88109361Y-166549999D01*
X88109543Y-166549981D01*
X88109710Y-166549953D01*
X88375804Y-166514921D01*
X88375805Y-166514921D01*
X88635015Y-166445465D01*
X88635290Y-166445401D01*
X88635355Y-166445374D01*
X88635359Y-166445373D01*
X88635360Y-166445373D01*
X88883640Y-166342532D01*
X89116359Y-166208172D01*
X89237026Y-166115580D01*
X88457879Y-165336433D01*
X88454511Y-165328301D01*
X88457879Y-165320169D01*
X88459614Y-165318745D01*
X88580590Y-165237913D01*
X88712913Y-165105590D01*
X88793740Y-164984621D01*
X88801057Y-164979733D01*
X88809690Y-164981450D01*
X88811431Y-164982878D01*
X89590580Y-165762026D01*
X89683172Y-165641359D01*
X89817532Y-165408640D01*
X89920373Y-165160360D01*
X89920373Y-165160359D01*
X89920374Y-165160355D01*
X89920401Y-165160290D01*
X89920465Y-165160015D01*
X89989921Y-164900805D01*
X89989921Y-164900804D01*
X90024953Y-164634710D01*
X90024981Y-164634543D01*
X90025000Y-164634359D01*
X90025000Y-164365640D01*
X90024981Y-164365452D01*
X90024952Y-164365281D01*
X89989921Y-164099195D01*
X89989921Y-164099194D01*
X89920466Y-163839990D01*
X89920401Y-163839708D01*
X89920373Y-163839640D01*
X89920373Y-163839639D01*
X89817532Y-163591359D01*
X89745097Y-163465898D01*
X89683174Y-163358643D01*
X89590580Y-163237972D01*
X88811433Y-164017118D01*
X88803301Y-164020486D01*
X88795169Y-164017118D01*
X88793739Y-164015375D01*
X88712915Y-163894413D01*
X88712913Y-163894410D01*
X88580590Y-163762087D01*
X88459620Y-163681257D01*
X88454731Y-163673940D01*
X88456448Y-163665307D01*
X88457873Y-163663569D01*
X89237026Y-162884418D01*
X89116359Y-162791827D01*
X89116358Y-162791826D01*
X89116355Y-162791824D01*
X88883643Y-162657468D01*
X88635355Y-162554624D01*
X88375815Y-162485080D01*
X88375808Y-162485079D01*
X88375804Y-162485078D01*
X88160692Y-162456757D01*
X88109366Y-162450000D01*
X88109365Y-162450000D01*
X87840634Y-162450000D01*
X87840632Y-162450000D01*
X87574202Y-162485076D01*
X87574203Y-162485077D01*
X87574193Y-162485078D01*
X87315008Y-162554527D01*
X87314712Y-162554596D01*
X87314640Y-162554626D01*
X87314639Y-162554626D01*
X87248737Y-162581923D01*
X87066355Y-162657468D01*
X86833643Y-162791824D01*
X86712972Y-162884417D01*
X86712972Y-162884418D01*
X87144068Y-163315514D01*
X87492119Y-163663565D01*
X87495487Y-163671697D01*
X87492119Y-163679829D01*
X87490376Y-163681259D01*
X87369413Y-163762084D01*
X87237084Y-163894413D01*
X87156259Y-164015376D01*
X87148940Y-164020266D01*
X87140308Y-164018549D01*
X87138565Y-164017119D01*
X86759751Y-163638305D01*
X86359418Y-163237972D01*
X86359417Y-163237972D01*
X86266824Y-163358643D01*
X86132468Y-163591355D01*
X86095229Y-163681259D01*
X86035600Y-163825218D01*
X86029596Y-163839712D01*
X86029527Y-163840008D01*
X85960078Y-164099193D01*
X85960077Y-164099203D01*
X85925000Y-164365632D01*
X80100500Y-164365632D01*
X80100500Y-163905578D01*
X80094175Y-163825209D01*
X80055604Y-163681259D01*
X80044096Y-163638311D01*
X80044095Y-163638309D01*
X80044094Y-163638305D01*
X79956248Y-163465898D01*
X79915657Y-163415773D01*
X79834481Y-163315527D01*
X79834472Y-163315518D01*
X79684576Y-163194136D01*
X79684345Y-163193929D01*
X79684103Y-163193753D01*
X79684102Y-163193752D01*
X79511695Y-163105906D01*
X79511694Y-163105905D01*
X79511687Y-163105902D01*
X79511688Y-163105902D01*
X79324812Y-163055830D01*
X79324810Y-163055829D01*
X79324797Y-163055826D01*
X79324793Y-163055825D01*
X79324792Y-163055825D01*
X79324788Y-163055824D01*
X79324587Y-163055799D01*
X79324346Y-163055790D01*
X79324232Y-163055781D01*
X79244422Y-163049500D01*
X79244413Y-163049500D01*
X77155587Y-163049500D01*
X77155578Y-163049500D01*
X77107973Y-163053246D01*
X77075762Y-163055781D01*
X77075740Y-163055783D01*
X77075209Y-163055825D01*
X77075206Y-163055825D01*
X77075203Y-163055826D01*
X77075202Y-163055826D01*
X77075133Y-163055844D01*
X77075087Y-163055849D01*
X77074866Y-163055915D01*
X76888315Y-163105901D01*
X76715894Y-163193754D01*
X76565531Y-163315514D01*
X76565527Y-163315517D01*
X76565517Y-163315527D01*
X76565514Y-163315531D01*
X76443754Y-163465894D01*
X76355901Y-163638315D01*
X76305915Y-163824866D01*
X76305820Y-163825218D01*
X76305801Y-163825344D01*
X76305790Y-163825653D01*
X76299500Y-163905578D01*
X58700816Y-163905578D01*
X58700816Y-163905352D01*
X58700838Y-162888866D01*
X58700866Y-161561133D01*
X58700870Y-161400500D01*
X58700904Y-159815632D01*
X76150000Y-159815632D01*
X76150000Y-160084366D01*
X76185077Y-160350796D01*
X76185078Y-160350804D01*
X76254527Y-160609990D01*
X76254596Y-160610285D01*
X76254624Y-160610354D01*
X76254626Y-160610359D01*
X76254626Y-160610360D01*
X76327558Y-160786433D01*
X76357468Y-160858643D01*
X76491824Y-161091355D01*
X76491826Y-161091358D01*
X76491827Y-161091359D01*
X76584418Y-161212026D01*
X77363565Y-160432877D01*
X77371696Y-160429510D01*
X77379828Y-160432878D01*
X77381258Y-160434621D01*
X77454624Y-160544422D01*
X77462087Y-160555590D01*
X77594410Y-160687913D01*
X77715375Y-160768738D01*
X77720265Y-160776056D01*
X77718548Y-160784689D01*
X77717118Y-160786432D01*
X76937972Y-161565580D01*
X77058643Y-161658174D01*
X77291355Y-161792530D01*
X77291356Y-161792530D01*
X77291359Y-161792532D01*
X77539639Y-161895373D01*
X77540005Y-161895471D01*
X77799183Y-161964918D01*
X77799184Y-161964918D01*
X77799195Y-161964921D01*
X78065475Y-161999978D01*
X78065600Y-161999997D01*
X78065635Y-162000000D01*
X78065640Y-162000000D01*
X78334359Y-162000000D01*
X78334360Y-162000000D01*
X78334361Y-161999999D01*
X78334543Y-161999981D01*
X78334710Y-161999953D01*
X78600804Y-161964921D01*
X78600805Y-161964921D01*
X78860015Y-161895465D01*
X78860290Y-161895401D01*
X78860355Y-161895374D01*
X78860359Y-161895373D01*
X78860360Y-161895373D01*
X79108640Y-161792532D01*
X79341359Y-161658172D01*
X79462026Y-161565580D01*
X78682879Y-160786433D01*
X78679511Y-160778301D01*
X78682879Y-160770169D01*
X78684614Y-160768745D01*
X78805590Y-160687913D01*
X78937913Y-160555590D01*
X79018741Y-160434620D01*
X79026057Y-160429732D01*
X79034690Y-160431449D01*
X79036432Y-160432878D01*
X79815580Y-161212026D01*
X79908172Y-161091359D01*
X80042532Y-160858640D01*
X80145373Y-160610360D01*
X80145373Y-160610359D01*
X80145374Y-160610355D01*
X80145401Y-160610290D01*
X80145465Y-160610015D01*
X80214921Y-160350805D01*
X80214921Y-160350804D01*
X80249953Y-160084710D01*
X80249981Y-160084543D01*
X80250000Y-160084359D01*
X80250000Y-159815640D01*
X80249981Y-159815452D01*
X80249952Y-159815281D01*
X80214921Y-159549195D01*
X80214921Y-159549194D01*
X80145466Y-159289990D01*
X80145401Y-159289708D01*
X80145373Y-159289640D01*
X80145373Y-159289639D01*
X80042532Y-159041359D01*
X79908172Y-158808640D01*
X79815580Y-158687972D01*
X79036432Y-159467118D01*
X79028300Y-159470486D01*
X79020168Y-159467118D01*
X79018738Y-159465375D01*
X78937915Y-159344413D01*
X78937913Y-159344410D01*
X78805590Y-159212087D01*
X78684620Y-159131257D01*
X78679731Y-159123940D01*
X78681448Y-159115307D01*
X78682873Y-159113569D01*
X79340867Y-158455578D01*
X86074500Y-158455578D01*
X86074500Y-160544422D01*
X86080825Y-160624791D01*
X86080825Y-160624794D01*
X86080826Y-160624796D01*
X86080826Y-160624797D01*
X86080854Y-160624902D01*
X86080858Y-160624937D01*
X86080859Y-160624939D01*
X86081031Y-160625670D01*
X86081127Y-160625922D01*
X86130902Y-160811686D01*
X86130903Y-160811690D01*
X86130906Y-160811695D01*
X86154826Y-160858640D01*
X86218753Y-160984103D01*
X86340518Y-161134472D01*
X86340527Y-161134481D01*
X86436288Y-161212026D01*
X86490898Y-161256248D01*
X86663305Y-161344094D01*
X86663309Y-161344095D01*
X86663313Y-161344097D01*
X86663369Y-161344111D01*
X86805220Y-161382120D01*
X86825054Y-161387434D01*
X86850204Y-161394174D01*
X86850205Y-161394174D01*
X86850209Y-161394175D01*
X86930578Y-161400500D01*
X86930587Y-161400500D01*
X89019413Y-161400500D01*
X89019422Y-161400500D01*
X89099791Y-161394175D01*
X89241706Y-161356148D01*
X89286688Y-161344096D01*
X89286688Y-161344095D01*
X89286695Y-161344094D01*
X89459102Y-161256248D01*
X89609477Y-161134477D01*
X89731248Y-160984102D01*
X89819094Y-160811695D01*
X89819097Y-160811686D01*
X89869135Y-160624939D01*
X89869175Y-160624791D01*
X89875500Y-160544422D01*
X89875500Y-158455578D01*
X89869175Y-158375209D01*
X89833435Y-158241827D01*
X89819096Y-158188311D01*
X89819095Y-158188309D01*
X89819094Y-158188305D01*
X89731248Y-158015898D01*
X89690657Y-157965773D01*
X89609481Y-157865527D01*
X89609472Y-157865518D01*
X89459576Y-157744136D01*
X89459345Y-157743929D01*
X89459103Y-157743753D01*
X89459102Y-157743752D01*
X89286695Y-157655906D01*
X89286694Y-157655905D01*
X89286687Y-157655902D01*
X89286688Y-157655902D01*
X89099812Y-157605830D01*
X89099810Y-157605829D01*
X89099797Y-157605826D01*
X89099793Y-157605825D01*
X89099792Y-157605825D01*
X89099788Y-157605824D01*
X89099587Y-157605799D01*
X89099346Y-157605790D01*
X89099232Y-157605781D01*
X89019422Y-157599500D01*
X89019413Y-157599500D01*
X86930587Y-157599500D01*
X86930578Y-157599500D01*
X86882973Y-157603246D01*
X86850762Y-157605781D01*
X86850740Y-157605783D01*
X86850209Y-157605825D01*
X86850206Y-157605825D01*
X86850203Y-157605826D01*
X86850202Y-157605826D01*
X86850133Y-157605844D01*
X86850087Y-157605849D01*
X86849866Y-157605915D01*
X86663315Y-157655901D01*
X86490894Y-157743754D01*
X86340531Y-157865514D01*
X86340527Y-157865517D01*
X86340517Y-157865527D01*
X86340514Y-157865531D01*
X86218754Y-158015894D01*
X86130901Y-158188315D01*
X86080915Y-158374866D01*
X86080820Y-158375218D01*
X86080801Y-158375344D01*
X86080790Y-158375653D01*
X86074500Y-158455578D01*
X79340867Y-158455578D01*
X79349225Y-158447220D01*
X79462026Y-158334418D01*
X79341359Y-158241827D01*
X79341358Y-158241826D01*
X79341355Y-158241824D01*
X79108643Y-158107468D01*
X78860355Y-158004624D01*
X78600815Y-157935080D01*
X78600808Y-157935079D01*
X78600804Y-157935078D01*
X78385692Y-157906757D01*
X78334366Y-157900000D01*
X78334365Y-157900000D01*
X78065634Y-157900000D01*
X78065632Y-157900000D01*
X77799202Y-157935076D01*
X77799203Y-157935077D01*
X77799193Y-157935078D01*
X77540008Y-158004527D01*
X77539712Y-158004596D01*
X77539640Y-158004626D01*
X77539639Y-158004626D01*
X77512436Y-158015894D01*
X77291355Y-158107468D01*
X77058643Y-158241824D01*
X76937972Y-158334417D01*
X76937972Y-158334418D01*
X77412194Y-158808640D01*
X77717119Y-159113565D01*
X77720487Y-159121697D01*
X77717119Y-159129829D01*
X77715376Y-159131259D01*
X77594413Y-159212084D01*
X77462084Y-159344413D01*
X77381259Y-159465376D01*
X77373940Y-159470266D01*
X77365308Y-159468549D01*
X77363565Y-159467119D01*
X77010010Y-159113564D01*
X76584418Y-158687972D01*
X76584417Y-158687972D01*
X76491824Y-158808643D01*
X76357468Y-159041355D01*
X76254596Y-159289712D01*
X76254527Y-159290008D01*
X76185078Y-159549193D01*
X76185077Y-159549203D01*
X76150000Y-159815632D01*
X58700904Y-159815632D01*
X58700904Y-159815258D01*
X58700907Y-159672895D01*
X58700936Y-158338866D01*
X58700967Y-156866233D01*
X67349500Y-156866233D01*
X67349500Y-157033765D01*
X67382178Y-157198058D01*
X67382181Y-157198074D01*
X67382182Y-157198076D01*
X67382183Y-157198081D01*
X67405222Y-157253701D01*
X67446297Y-157352863D01*
X67539374Y-157492162D01*
X67657838Y-157610626D01*
X67797137Y-157703703D01*
X67951918Y-157767816D01*
X68116233Y-157800500D01*
X68116234Y-157800500D01*
X68283766Y-157800500D01*
X68283767Y-157800500D01*
X68448082Y-157767816D01*
X68602863Y-157703703D01*
X68742162Y-157610626D01*
X68860626Y-157492162D01*
X68953703Y-157352863D01*
X69017816Y-157198082D01*
X69050500Y-157033767D01*
X69050500Y-156866233D01*
X69017816Y-156701918D01*
X68953703Y-156547137D01*
X68866235Y-156416233D01*
X97124500Y-156416233D01*
X97124500Y-156583765D01*
X97157178Y-156748058D01*
X97157181Y-156748074D01*
X97157182Y-156748076D01*
X97157183Y-156748081D01*
X97157184Y-156748083D01*
X97221299Y-156902867D01*
X97308764Y-157033767D01*
X97314371Y-157042158D01*
X97314374Y-157042162D01*
X97432838Y-157160626D01*
X97572137Y-157253703D01*
X97726918Y-157317816D01*
X97891233Y-157350500D01*
X97891234Y-157350500D01*
X98058766Y-157350500D01*
X98058767Y-157350500D01*
X98223082Y-157317816D01*
X98377863Y-157253703D01*
X98517162Y-157160626D01*
X98635626Y-157042162D01*
X98728703Y-156902863D01*
X98792816Y-156748082D01*
X98825500Y-156583767D01*
X98825500Y-156416233D01*
X98792816Y-156251918D01*
X98728703Y-156097137D01*
X98635626Y-155957838D01*
X98517162Y-155839374D01*
X98517158Y-155839371D01*
X98517154Y-155839368D01*
X98377867Y-155746299D01*
X98223083Y-155682184D01*
X98223076Y-155682181D01*
X98091271Y-155655965D01*
X98085901Y-155654897D01*
X98058767Y-155649500D01*
X98058766Y-155649500D01*
X97891234Y-155649500D01*
X97891233Y-155649500D01*
X97864096Y-155654897D01*
X97726922Y-155682181D01*
X97726915Y-155682184D01*
X97572131Y-155746299D01*
X97432844Y-155839368D01*
X97314368Y-155957844D01*
X97221299Y-156097131D01*
X97157184Y-156251915D01*
X97157181Y-156251922D01*
X97124500Y-156416233D01*
X68866235Y-156416233D01*
X68860626Y-156407838D01*
X68742162Y-156289374D01*
X68742153Y-156289368D01*
X68686113Y-156251923D01*
X68602867Y-156196299D01*
X68448083Y-156132184D01*
X68448076Y-156132181D01*
X68316271Y-156105965D01*
X68310901Y-156104897D01*
X68283767Y-156099500D01*
X68283766Y-156099500D01*
X68116234Y-156099500D01*
X68116233Y-156099500D01*
X68089096Y-156104897D01*
X67951922Y-156132181D01*
X67951915Y-156132184D01*
X67797131Y-156196299D01*
X67657844Y-156289368D01*
X67539368Y-156407844D01*
X67446299Y-156547131D01*
X67382184Y-156701915D01*
X67382181Y-156701922D01*
X67349500Y-156866233D01*
X58700967Y-156866233D01*
X58700967Y-156865668D01*
X58700974Y-156547134D01*
X58701051Y-152986234D01*
X67398250Y-152986234D01*
X67398250Y-153153766D01*
X67430928Y-153318059D01*
X67430931Y-153318075D01*
X67430932Y-153318077D01*
X67430933Y-153318082D01*
X67449192Y-153362163D01*
X67480523Y-153437802D01*
X67480522Y-153437802D01*
X67495044Y-153472858D01*
X67495047Y-153472864D01*
X67588124Y-153612163D01*
X67706588Y-153730627D01*
X67845887Y-153823704D01*
X68000668Y-153887817D01*
X68164983Y-153920501D01*
X68164984Y-153920501D01*
X68332516Y-153920501D01*
X68332517Y-153920501D01*
X68496832Y-153887817D01*
X68651613Y-153823704D01*
X68790912Y-153730627D01*
X68909376Y-153612163D01*
X69002453Y-153472864D01*
X69066566Y-153318083D01*
X69099250Y-153153768D01*
X69099250Y-152986234D01*
X69066566Y-152821919D01*
X69031074Y-152736234D01*
X97049500Y-152736234D01*
X97049500Y-152903766D01*
X97082178Y-153068059D01*
X97082181Y-153068075D01*
X97082182Y-153068077D01*
X97082183Y-153068082D01*
X97082184Y-153068084D01*
X97146299Y-153222868D01*
X97209920Y-153318083D01*
X97239371Y-153362159D01*
X97239374Y-153362163D01*
X97357838Y-153480627D01*
X97497137Y-153573704D01*
X97651918Y-153637817D01*
X97816233Y-153670501D01*
X97816234Y-153670501D01*
X97983766Y-153670501D01*
X97983767Y-153670501D01*
X98148082Y-153637817D01*
X98302863Y-153573704D01*
X98442162Y-153480627D01*
X98560626Y-153362163D01*
X98653703Y-153222864D01*
X98717816Y-153068083D01*
X98750500Y-152903768D01*
X98750500Y-152736234D01*
X98717816Y-152571919D01*
X98653703Y-152417138D01*
X98560626Y-152277839D01*
X98442162Y-152159375D01*
X98442158Y-152159372D01*
X98442154Y-152159369D01*
X98302867Y-152066300D01*
X98148083Y-152002185D01*
X98148076Y-152002182D01*
X97988794Y-151970501D01*
X97988793Y-151970500D01*
X97983767Y-151969501D01*
X97816233Y-151969501D01*
X97811205Y-151970501D01*
X97651922Y-152002182D01*
X97651915Y-152002185D01*
X97497131Y-152066300D01*
X97357844Y-152159369D01*
X97239368Y-152277845D01*
X97146299Y-152417132D01*
X97082184Y-152571916D01*
X97082181Y-152571923D01*
X97049500Y-152736234D01*
X69031074Y-152736234D01*
X69002453Y-152667138D01*
X68909376Y-152527839D01*
X68790912Y-152409375D01*
X68790908Y-152409372D01*
X68790904Y-152409369D01*
X68651617Y-152316300D01*
X68558781Y-152277845D01*
X68496831Y-152252184D01*
X68496830Y-152252183D01*
X68496826Y-152252182D01*
X68365021Y-152225966D01*
X68359651Y-152224898D01*
X68332517Y-152219501D01*
X68332516Y-152219501D01*
X68164984Y-152219501D01*
X68164983Y-152219501D01*
X68137846Y-152224898D01*
X68000672Y-152252182D01*
X68000665Y-152252185D01*
X67845881Y-152316300D01*
X67706594Y-152409369D01*
X67588118Y-152527845D01*
X67495049Y-152667132D01*
X67430934Y-152821916D01*
X67430931Y-152821923D01*
X67398250Y-152986234D01*
X58701051Y-152986234D01*
X58701051Y-152985669D01*
X58701136Y-149025579D01*
X76348250Y-149025579D01*
X76348250Y-151114423D01*
X76354575Y-151194792D01*
X76354575Y-151194795D01*
X76354576Y-151194797D01*
X76354576Y-151194798D01*
X76354604Y-151194903D01*
X76354608Y-151194938D01*
X76354609Y-151194940D01*
X76354781Y-151195671D01*
X76354877Y-151195923D01*
X76404652Y-151381687D01*
X76404653Y-151381691D01*
X76404656Y-151381696D01*
X76427186Y-151425913D01*
X76492503Y-151554104D01*
X76614268Y-151704473D01*
X76614277Y-151704482D01*
X76689473Y-151765374D01*
X76764648Y-151826249D01*
X76937055Y-151914095D01*
X76937059Y-151914096D01*
X76937063Y-151914098D01*
X76937119Y-151914112D01*
X77078970Y-151952121D01*
X77098804Y-151957435D01*
X77123954Y-151964175D01*
X77123955Y-151964175D01*
X77123959Y-151964176D01*
X77204328Y-151970501D01*
X77204337Y-151970501D01*
X79293163Y-151970501D01*
X79293172Y-151970501D01*
X79373541Y-151964176D01*
X79515456Y-151926149D01*
X79560438Y-151914097D01*
X79560438Y-151914096D01*
X79560445Y-151914095D01*
X79732852Y-151826249D01*
X79883227Y-151704478D01*
X80004998Y-151554103D01*
X80092844Y-151381696D01*
X80092847Y-151381687D01*
X80142885Y-151194940D01*
X80142925Y-151194792D01*
X80149250Y-151114423D01*
X80149250Y-149685633D01*
X85850000Y-149685633D01*
X85850000Y-149954367D01*
X85885077Y-150220797D01*
X85885078Y-150220805D01*
X85954527Y-150479991D01*
X85954596Y-150480286D01*
X85954624Y-150480355D01*
X85954626Y-150480360D01*
X85954626Y-150480361D01*
X86027558Y-150656434D01*
X86057468Y-150728644D01*
X86191824Y-150961356D01*
X86191826Y-150961359D01*
X86191827Y-150961360D01*
X86284418Y-151082027D01*
X87063565Y-150302878D01*
X87071696Y-150299511D01*
X87079828Y-150302879D01*
X87081257Y-150304621D01*
X87162087Y-150425591D01*
X87294410Y-150557914D01*
X87415375Y-150638739D01*
X87420265Y-150646057D01*
X87418548Y-150654690D01*
X87417118Y-150656433D01*
X86637972Y-151435581D01*
X86758643Y-151528175D01*
X86991355Y-151662531D01*
X86991356Y-151662531D01*
X86991359Y-151662533D01*
X87239639Y-151765374D01*
X87398481Y-151807935D01*
X87499183Y-151834919D01*
X87499184Y-151834919D01*
X87499195Y-151834922D01*
X87765475Y-151869979D01*
X87765600Y-151869998D01*
X87765635Y-151870001D01*
X87765640Y-151870001D01*
X88034359Y-151870001D01*
X88034360Y-151870001D01*
X88034361Y-151870000D01*
X88034543Y-151869982D01*
X88034710Y-151869954D01*
X88300804Y-151834922D01*
X88300805Y-151834922D01*
X88560015Y-151765466D01*
X88560290Y-151765402D01*
X88560355Y-151765375D01*
X88560359Y-151765374D01*
X88560360Y-151765374D01*
X88808640Y-151662533D01*
X89041359Y-151528173D01*
X89162026Y-151435581D01*
X88382879Y-150656434D01*
X88379511Y-150648302D01*
X88382879Y-150640170D01*
X88384614Y-150638746D01*
X88505590Y-150557914D01*
X88637913Y-150425591D01*
X88718740Y-150304622D01*
X88726057Y-150299734D01*
X88734690Y-150301451D01*
X88736431Y-150302879D01*
X89515580Y-151082027D01*
X89608172Y-150961360D01*
X89742532Y-150728641D01*
X89845373Y-150480361D01*
X89845373Y-150480360D01*
X89845374Y-150480356D01*
X89845401Y-150480291D01*
X89845465Y-150480016D01*
X89914921Y-150220806D01*
X89914921Y-150220805D01*
X89949953Y-149954711D01*
X89949981Y-149954544D01*
X89950000Y-149954360D01*
X89950000Y-149685641D01*
X89949981Y-149685453D01*
X89949952Y-149685282D01*
X89914921Y-149419196D01*
X89914921Y-149419195D01*
X89845466Y-149159991D01*
X89845401Y-149159709D01*
X89845373Y-149159641D01*
X89845373Y-149159640D01*
X89742532Y-148911360D01*
X89654172Y-148758316D01*
X89608174Y-148678644D01*
X89515580Y-148557973D01*
X88736433Y-149337119D01*
X88728301Y-149340487D01*
X88720169Y-149337119D01*
X88718739Y-149335376D01*
X88637915Y-149214414D01*
X88637913Y-149214411D01*
X88505590Y-149082088D01*
X88421030Y-149025587D01*
X88397084Y-149009587D01*
X88384620Y-149001258D01*
X88379731Y-148993941D01*
X88381448Y-148985308D01*
X88382873Y-148983570D01*
X89162026Y-148204419D01*
X89124769Y-148175831D01*
X89041355Y-148111825D01*
X88808643Y-147977469D01*
X88560355Y-147874625D01*
X88300815Y-147805081D01*
X88300808Y-147805080D01*
X88300804Y-147805079D01*
X88085692Y-147776758D01*
X88034366Y-147770001D01*
X88034365Y-147770001D01*
X87765634Y-147770001D01*
X87765632Y-147770001D01*
X87499202Y-147805077D01*
X87499203Y-147805078D01*
X87499193Y-147805079D01*
X87240008Y-147874528D01*
X87239712Y-147874597D01*
X87239640Y-147874627D01*
X87239639Y-147874627D01*
X87173737Y-147901924D01*
X86991355Y-147977469D01*
X86758643Y-148111825D01*
X86637972Y-148204418D01*
X86637972Y-148204419D01*
X87112194Y-148678641D01*
X87417119Y-148983566D01*
X87420487Y-148991698D01*
X87417119Y-148999830D01*
X87415376Y-149001260D01*
X87294413Y-149082085D01*
X87162084Y-149214414D01*
X87081259Y-149335377D01*
X87073940Y-149340267D01*
X87065308Y-149338550D01*
X87063565Y-149337120D01*
X86710010Y-148983565D01*
X86284418Y-148557973D01*
X86284417Y-148557973D01*
X86191824Y-148678644D01*
X86057468Y-148911356D01*
X85954596Y-149159713D01*
X85954527Y-149160009D01*
X85885078Y-149419194D01*
X85885077Y-149419204D01*
X85850000Y-149685633D01*
X80149250Y-149685633D01*
X80149250Y-149025579D01*
X80142925Y-148945210D01*
X80092844Y-148758306D01*
X80004998Y-148585899D01*
X79964407Y-148535774D01*
X79883231Y-148435528D01*
X79883222Y-148435519D01*
X79733326Y-148314137D01*
X79733095Y-148313930D01*
X79732853Y-148313754D01*
X79732852Y-148313753D01*
X79643162Y-148268053D01*
X79560440Y-148225904D01*
X79539771Y-148220367D01*
X79539766Y-148220365D01*
X79373562Y-148175831D01*
X79373560Y-148175830D01*
X79373547Y-148175827D01*
X79373543Y-148175826D01*
X79373542Y-148175826D01*
X79373538Y-148175825D01*
X79373337Y-148175800D01*
X79373096Y-148175791D01*
X79372982Y-148175782D01*
X79293172Y-148169501D01*
X79293163Y-148169501D01*
X77204337Y-148169501D01*
X77204328Y-148169501D01*
X77156723Y-148173247D01*
X77124512Y-148175782D01*
X77124490Y-148175784D01*
X77123959Y-148175826D01*
X77123956Y-148175826D01*
X77123953Y-148175827D01*
X77123952Y-148175827D01*
X77123883Y-148175845D01*
X77123837Y-148175850D01*
X77123616Y-148175916D01*
X76937065Y-148225902D01*
X76764644Y-148313755D01*
X76614281Y-148435515D01*
X76614277Y-148435518D01*
X76614267Y-148435528D01*
X76614264Y-148435532D01*
X76492504Y-148585895D01*
X76404651Y-148758316D01*
X76354665Y-148944867D01*
X76354570Y-148945219D01*
X76354551Y-148945345D01*
X76354540Y-148945654D01*
X76348250Y-149025579D01*
X58701136Y-149025579D01*
X58701136Y-149025353D01*
X58701224Y-144935633D01*
X76198750Y-144935633D01*
X76198750Y-145204367D01*
X76233827Y-145470797D01*
X76233828Y-145470805D01*
X76303277Y-145729991D01*
X76303346Y-145730286D01*
X76303374Y-145730355D01*
X76303376Y-145730360D01*
X76303376Y-145730361D01*
X76376308Y-145906434D01*
X76406218Y-145978644D01*
X76540574Y-146211356D01*
X76540576Y-146211359D01*
X76540577Y-146211360D01*
X76633168Y-146332027D01*
X77412315Y-145552878D01*
X77420446Y-145549511D01*
X77428578Y-145552879D01*
X77430007Y-145554621D01*
X77510837Y-145675591D01*
X77643160Y-145807914D01*
X77764125Y-145888739D01*
X77769015Y-145896057D01*
X77767298Y-145904690D01*
X77765868Y-145906433D01*
X76986722Y-146685581D01*
X77107393Y-146778175D01*
X77340105Y-146912531D01*
X77340106Y-146912531D01*
X77340109Y-146912533D01*
X77588389Y-147015374D01*
X77588755Y-147015472D01*
X77847933Y-147084919D01*
X77847934Y-147084919D01*
X77847945Y-147084922D01*
X78114225Y-147119979D01*
X78114350Y-147119998D01*
X78114385Y-147120001D01*
X78114390Y-147120001D01*
X78383109Y-147120001D01*
X78383110Y-147120001D01*
X78383111Y-147120000D01*
X78383293Y-147119982D01*
X78383460Y-147119954D01*
X78649554Y-147084922D01*
X78649555Y-147084922D01*
X78908765Y-147015466D01*
X78909040Y-147015402D01*
X78909105Y-147015375D01*
X78909109Y-147015374D01*
X78909110Y-147015374D01*
X79157390Y-146912533D01*
X79390109Y-146778173D01*
X79510776Y-146685581D01*
X78731629Y-145906434D01*
X78728261Y-145898302D01*
X78731629Y-145890170D01*
X78733364Y-145888746D01*
X78854340Y-145807914D01*
X78986663Y-145675591D01*
X79067491Y-145554621D01*
X79074807Y-145549733D01*
X79083440Y-145551450D01*
X79085182Y-145552879D01*
X79864330Y-146332027D01*
X79956922Y-146211360D01*
X80091282Y-145978641D01*
X80194123Y-145730361D01*
X80194123Y-145730360D01*
X80194124Y-145730356D01*
X80194151Y-145730291D01*
X80194215Y-145730016D01*
X80263671Y-145470806D01*
X80263671Y-145470805D01*
X80298703Y-145204711D01*
X80298731Y-145204544D01*
X80298750Y-145204360D01*
X80298750Y-144935641D01*
X80298731Y-144935453D01*
X80298702Y-144935282D01*
X80263671Y-144669196D01*
X80263671Y-144669195D01*
X80194216Y-144409991D01*
X80194151Y-144409709D01*
X80194123Y-144409641D01*
X80194123Y-144409640D01*
X80091282Y-144161360D01*
X79956922Y-143928641D01*
X79864330Y-143807973D01*
X79085182Y-144587119D01*
X79077050Y-144590487D01*
X79068918Y-144587119D01*
X79067488Y-144585376D01*
X78986665Y-144464414D01*
X78986663Y-144464411D01*
X78854340Y-144332088D01*
X78733370Y-144251258D01*
X78728481Y-144243941D01*
X78730198Y-144235308D01*
X78731623Y-144233570D01*
X79189617Y-143775579D01*
X85999500Y-143775579D01*
X85999500Y-145864423D01*
X86005825Y-145944792D01*
X86005825Y-145944795D01*
X86005826Y-145944797D01*
X86005826Y-145944798D01*
X86005854Y-145944903D01*
X86005858Y-145944938D01*
X86005859Y-145944940D01*
X86006031Y-145945671D01*
X86006127Y-145945923D01*
X86055902Y-146131687D01*
X86055903Y-146131691D01*
X86055906Y-146131696D01*
X86096497Y-146211360D01*
X86143753Y-146304104D01*
X86265518Y-146454473D01*
X86265527Y-146454482D01*
X86365773Y-146535658D01*
X86415898Y-146576249D01*
X86588305Y-146664095D01*
X86588309Y-146664096D01*
X86588313Y-146664098D01*
X86588369Y-146664112D01*
X86668491Y-146685581D01*
X86775209Y-146714176D01*
X86855578Y-146720501D01*
X86855587Y-146720501D01*
X88944413Y-146720501D01*
X88944422Y-146720501D01*
X89024791Y-146714176D01*
X89166706Y-146676149D01*
X89211688Y-146664097D01*
X89211688Y-146664096D01*
X89211695Y-146664095D01*
X89384102Y-146576249D01*
X89534477Y-146454478D01*
X89656248Y-146304103D01*
X89744094Y-146131696D01*
X89744097Y-146131687D01*
X89794135Y-145944940D01*
X89794175Y-145944792D01*
X89800500Y-145864423D01*
X89800500Y-143775579D01*
X89794175Y-143695210D01*
X89744094Y-143508306D01*
X89656248Y-143335899D01*
X89568443Y-143227468D01*
X89534481Y-143185528D01*
X89534472Y-143185519D01*
X89384576Y-143064137D01*
X89384345Y-143063930D01*
X89384103Y-143063754D01*
X89384102Y-143063753D01*
X89211695Y-142975907D01*
X89211694Y-142975906D01*
X89211687Y-142975903D01*
X89211688Y-142975903D01*
X89024812Y-142925831D01*
X89024810Y-142925830D01*
X89024797Y-142925827D01*
X89024793Y-142925826D01*
X89024792Y-142925826D01*
X89024788Y-142925825D01*
X89024587Y-142925800D01*
X89024346Y-142925791D01*
X89024232Y-142925782D01*
X88944422Y-142919501D01*
X88944413Y-142919501D01*
X86855587Y-142919501D01*
X86855578Y-142919501D01*
X86807973Y-142923247D01*
X86775762Y-142925782D01*
X86775740Y-142925784D01*
X86775209Y-142925826D01*
X86775206Y-142925826D01*
X86775203Y-142925827D01*
X86775202Y-142925827D01*
X86775133Y-142925845D01*
X86775087Y-142925850D01*
X86774866Y-142925916D01*
X86588315Y-142975902D01*
X86415894Y-143063755D01*
X86265531Y-143185515D01*
X86265527Y-143185518D01*
X86265517Y-143185528D01*
X86265514Y-143185532D01*
X86143754Y-143335895D01*
X86055901Y-143508316D01*
X86005915Y-143694867D01*
X86005820Y-143695219D01*
X86005801Y-143695345D01*
X86005790Y-143695654D01*
X85999500Y-143775579D01*
X79189617Y-143775579D01*
X79197975Y-143767221D01*
X79510776Y-143454419D01*
X79390109Y-143361828D01*
X79390108Y-143361827D01*
X79390105Y-143361825D01*
X79157393Y-143227469D01*
X78909105Y-143124625D01*
X78649565Y-143055081D01*
X78649558Y-143055080D01*
X78649554Y-143055079D01*
X78434442Y-143026758D01*
X78383116Y-143020001D01*
X78383115Y-143020001D01*
X78114384Y-143020001D01*
X78114382Y-143020001D01*
X77847952Y-143055077D01*
X77847953Y-143055078D01*
X77847943Y-143055079D01*
X77588758Y-143124528D01*
X77588462Y-143124597D01*
X77588390Y-143124627D01*
X77588389Y-143124627D01*
X77522487Y-143151924D01*
X77340105Y-143227469D01*
X77107393Y-143361825D01*
X76986722Y-143454418D01*
X76986722Y-143454419D01*
X77460944Y-143928641D01*
X77765869Y-144233566D01*
X77769237Y-144241698D01*
X77765869Y-144249830D01*
X77764126Y-144251260D01*
X77643163Y-144332085D01*
X77510834Y-144464414D01*
X77430009Y-144585377D01*
X77422690Y-144590267D01*
X77414058Y-144588550D01*
X77412315Y-144587120D01*
X77058760Y-144233565D01*
X76633168Y-143807973D01*
X76633167Y-143807973D01*
X76540574Y-143928644D01*
X76406218Y-144161356D01*
X76303346Y-144409713D01*
X76303277Y-144410009D01*
X76233828Y-144669194D01*
X76233827Y-144669204D01*
X76198750Y-144935633D01*
X58701224Y-144935633D01*
X58701224Y-144935259D01*
X58701287Y-141986234D01*
X67398250Y-141986234D01*
X67398250Y-142153766D01*
X67430928Y-142318059D01*
X67430931Y-142318075D01*
X67430932Y-142318077D01*
X67430933Y-142318082D01*
X67449192Y-142362163D01*
X67480523Y-142437802D01*
X67480522Y-142437802D01*
X67495044Y-142472858D01*
X67495047Y-142472864D01*
X67588124Y-142612163D01*
X67706588Y-142730627D01*
X67845887Y-142823704D01*
X68000668Y-142887817D01*
X68164983Y-142920501D01*
X68164984Y-142920501D01*
X68332516Y-142920501D01*
X68332517Y-142920501D01*
X68496832Y-142887817D01*
X68651613Y-142823704D01*
X68790912Y-142730627D01*
X68909376Y-142612163D01*
X69002453Y-142472864D01*
X69066566Y-142318083D01*
X69099250Y-142153768D01*
X69099250Y-141986234D01*
X69066566Y-141821919D01*
X69031074Y-141736234D01*
X97049500Y-141736234D01*
X97049500Y-141903766D01*
X97082178Y-142068059D01*
X97082181Y-142068075D01*
X97082182Y-142068077D01*
X97082183Y-142068082D01*
X97082184Y-142068084D01*
X97146299Y-142222868D01*
X97209920Y-142318083D01*
X97239371Y-142362159D01*
X97239374Y-142362163D01*
X97357838Y-142480627D01*
X97497137Y-142573704D01*
X97651918Y-142637817D01*
X97816233Y-142670501D01*
X97816234Y-142670501D01*
X97983766Y-142670501D01*
X97983767Y-142670501D01*
X98148082Y-142637817D01*
X98302863Y-142573704D01*
X98442162Y-142480627D01*
X98560626Y-142362163D01*
X98653703Y-142222864D01*
X98717816Y-142068083D01*
X98750500Y-141903768D01*
X98750500Y-141736234D01*
X98717816Y-141571919D01*
X98653703Y-141417138D01*
X98560626Y-141277839D01*
X98442162Y-141159375D01*
X98442158Y-141159372D01*
X98442154Y-141159369D01*
X98302867Y-141066300D01*
X98148083Y-141002185D01*
X98148076Y-141002182D01*
X98016271Y-140975966D01*
X98010901Y-140974898D01*
X97983767Y-140969501D01*
X97983766Y-140969501D01*
X97816234Y-140969501D01*
X97816233Y-140969501D01*
X97789096Y-140974898D01*
X97651922Y-141002182D01*
X97651915Y-141002185D01*
X97497131Y-141066300D01*
X97357844Y-141159369D01*
X97239368Y-141277845D01*
X97146299Y-141417132D01*
X97082184Y-141571916D01*
X97082181Y-141571923D01*
X97049500Y-141736234D01*
X69031074Y-141736234D01*
X69002453Y-141667138D01*
X68909376Y-141527839D01*
X68790912Y-141409375D01*
X68790908Y-141409372D01*
X68790904Y-141409369D01*
X68651617Y-141316300D01*
X68558781Y-141277845D01*
X68496831Y-141252184D01*
X68496830Y-141252183D01*
X68496826Y-141252182D01*
X68365021Y-141225966D01*
X68359651Y-141224898D01*
X68332517Y-141219501D01*
X68332516Y-141219501D01*
X68164984Y-141219501D01*
X68164983Y-141219501D01*
X68137846Y-141224898D01*
X68000672Y-141252182D01*
X68000665Y-141252185D01*
X67845881Y-141316300D01*
X67706594Y-141409369D01*
X67588118Y-141527845D01*
X67495049Y-141667132D01*
X67430934Y-141821916D01*
X67430931Y-141821923D01*
X67398250Y-141986234D01*
X58701287Y-141986234D01*
X58701287Y-141985669D01*
X58701352Y-138935626D01*
X58701368Y-138191233D01*
X67399500Y-138191233D01*
X67399500Y-138358767D01*
X67405965Y-138391271D01*
X67432178Y-138523058D01*
X67432181Y-138523074D01*
X67432185Y-138523088D01*
X67434163Y-138527861D01*
X67434163Y-138527863D01*
X67434164Y-138527863D01*
X67491864Y-138667162D01*
X67496295Y-138677859D01*
X67496297Y-138677863D01*
X67496298Y-138677865D01*
X67589371Y-138817158D01*
X67589374Y-138817162D01*
X67707838Y-138935626D01*
X67847137Y-139028703D01*
X68001918Y-139092816D01*
X68166233Y-139125500D01*
X68166234Y-139125500D01*
X68333766Y-139125500D01*
X68333767Y-139125500D01*
X68498082Y-139092816D01*
X68652863Y-139028703D01*
X68792162Y-138935626D01*
X68910626Y-138817162D01*
X69003703Y-138677863D01*
X69067816Y-138523082D01*
X69100500Y-138358767D01*
X69100500Y-138191233D01*
X69100388Y-138190670D01*
X69100387Y-138190662D01*
X69100387Y-138190661D01*
X69070998Y-138042912D01*
X69070664Y-138041233D01*
X97049500Y-138041233D01*
X97049500Y-138208765D01*
X97082178Y-138373058D01*
X97082181Y-138373074D01*
X97082182Y-138373076D01*
X97082183Y-138373081D01*
X97082184Y-138373083D01*
X97131773Y-138492801D01*
X97131772Y-138492801D01*
X97146294Y-138527857D01*
X97146296Y-138527861D01*
X97146297Y-138527863D01*
X97239374Y-138667162D01*
X97357838Y-138785626D01*
X97497137Y-138878703D01*
X97651918Y-138942816D01*
X97816233Y-138975500D01*
X97816234Y-138975500D01*
X97983766Y-138975500D01*
X97983767Y-138975500D01*
X98148082Y-138942816D01*
X98302863Y-138878703D01*
X98442162Y-138785626D01*
X98560626Y-138667162D01*
X98653703Y-138527863D01*
X98717816Y-138373082D01*
X98750500Y-138208767D01*
X98750500Y-138041233D01*
X98717816Y-137876918D01*
X98653703Y-137722137D01*
X98560626Y-137582838D01*
X98442162Y-137464374D01*
X98442158Y-137464371D01*
X98431402Y-137457184D01*
X98302867Y-137371299D01*
X98148083Y-137307184D01*
X98148076Y-137307181D01*
X98016271Y-137280965D01*
X98010901Y-137279897D01*
X97983767Y-137274500D01*
X97983766Y-137274500D01*
X97816234Y-137274500D01*
X97816233Y-137274500D01*
X97789096Y-137279897D01*
X97651922Y-137307181D01*
X97651915Y-137307184D01*
X97497131Y-137371299D01*
X97357844Y-137464368D01*
X97239368Y-137582844D01*
X97146299Y-137722131D01*
X97082184Y-137876915D01*
X97082181Y-137876922D01*
X97049500Y-138041233D01*
X69070664Y-138041233D01*
X69069154Y-138033644D01*
X69069154Y-138033643D01*
X69067817Y-138026923D01*
X69067816Y-138026918D01*
X69003703Y-137872137D01*
X68910626Y-137732838D01*
X68792162Y-137614374D01*
X68792153Y-137614368D01*
X68744970Y-137582841D01*
X68652867Y-137521299D01*
X68515432Y-137464370D01*
X68498081Y-137457183D01*
X68498080Y-137457182D01*
X68498076Y-137457181D01*
X68366271Y-137430965D01*
X68360901Y-137429897D01*
X68333767Y-137424500D01*
X68333766Y-137424500D01*
X68166234Y-137424500D01*
X68166233Y-137424500D01*
X68139096Y-137429897D01*
X68001922Y-137457181D01*
X68001915Y-137457184D01*
X67847131Y-137521299D01*
X67707844Y-137614368D01*
X67589368Y-137732844D01*
X67496299Y-137872131D01*
X67432184Y-138026915D01*
X67432181Y-138026922D01*
X67399612Y-138190661D01*
X67399613Y-138190662D01*
X67399612Y-138190670D01*
X67399500Y-138191233D01*
X58701368Y-138191233D01*
X58701453Y-134230578D01*
X76349500Y-134230578D01*
X76349500Y-136319422D01*
X76355825Y-136399791D01*
X76355825Y-136399794D01*
X76355826Y-136399796D01*
X76355826Y-136399797D01*
X76355854Y-136399902D01*
X76355858Y-136399937D01*
X76355859Y-136399939D01*
X76356031Y-136400670D01*
X76356127Y-136400922D01*
X76405902Y-136586686D01*
X76405903Y-136586690D01*
X76484315Y-136740580D01*
X76484314Y-136740580D01*
X76493749Y-136759097D01*
X76493752Y-136759102D01*
X76493753Y-136759103D01*
X76615518Y-136909472D01*
X76615527Y-136909481D01*
X76687215Y-136967532D01*
X76765898Y-137031248D01*
X76938305Y-137119094D01*
X76938309Y-137119095D01*
X76938313Y-137119097D01*
X76938369Y-137119111D01*
X77080220Y-137157120D01*
X77100054Y-137162434D01*
X77125204Y-137169174D01*
X77125205Y-137169174D01*
X77125209Y-137169175D01*
X77205578Y-137175500D01*
X77205587Y-137175500D01*
X79294413Y-137175500D01*
X79294422Y-137175500D01*
X79374791Y-137169175D01*
X79516706Y-137131148D01*
X79561688Y-137119096D01*
X79561688Y-137119095D01*
X79561695Y-137119094D01*
X79734102Y-137031248D01*
X79884477Y-136909477D01*
X80006248Y-136759102D01*
X80094094Y-136586695D01*
X80094097Y-136586686D01*
X80144135Y-136399939D01*
X80144175Y-136399791D01*
X80150500Y-136319422D01*
X80150500Y-134990632D01*
X85850000Y-134990632D01*
X85850000Y-135259366D01*
X85885077Y-135525796D01*
X85885078Y-135525804D01*
X85954527Y-135784990D01*
X85954596Y-135785285D01*
X85954624Y-135785354D01*
X85954626Y-135785359D01*
X85954626Y-135785360D01*
X86027558Y-135961433D01*
X86057468Y-136033643D01*
X86191824Y-136266355D01*
X86191826Y-136266358D01*
X86191827Y-136266359D01*
X86284418Y-136387026D01*
X87063565Y-135607877D01*
X87071696Y-135604510D01*
X87079828Y-135607878D01*
X87081257Y-135609620D01*
X87162087Y-135730590D01*
X87294410Y-135862913D01*
X87415375Y-135943738D01*
X87420265Y-135951056D01*
X87418548Y-135959689D01*
X87417118Y-135961432D01*
X86637972Y-136740580D01*
X86758643Y-136833174D01*
X86991355Y-136967530D01*
X86991356Y-136967530D01*
X86991359Y-136967532D01*
X87239639Y-137070373D01*
X87240005Y-137070471D01*
X87499183Y-137139918D01*
X87499184Y-137139918D01*
X87499195Y-137139921D01*
X87765475Y-137174978D01*
X87765600Y-137174997D01*
X87765635Y-137175000D01*
X87765640Y-137175000D01*
X88034359Y-137175000D01*
X88034360Y-137175000D01*
X88034361Y-137174999D01*
X88034543Y-137174981D01*
X88034710Y-137174953D01*
X88300804Y-137139921D01*
X88300805Y-137139921D01*
X88560015Y-137070465D01*
X88560290Y-137070401D01*
X88560355Y-137070374D01*
X88560359Y-137070373D01*
X88560360Y-137070373D01*
X88808640Y-136967532D01*
X89041359Y-136833172D01*
X89162026Y-136740580D01*
X88382879Y-135961433D01*
X88379511Y-135953301D01*
X88382879Y-135945169D01*
X88384614Y-135943745D01*
X88505590Y-135862913D01*
X88637913Y-135730590D01*
X88718740Y-135609621D01*
X88726057Y-135604733D01*
X88734690Y-135606450D01*
X88736431Y-135607878D01*
X89515580Y-136387026D01*
X89608172Y-136266359D01*
X89742532Y-136033640D01*
X89845373Y-135785360D01*
X89845373Y-135785359D01*
X89845374Y-135785355D01*
X89845401Y-135785290D01*
X89845465Y-135785015D01*
X89914921Y-135525805D01*
X89914921Y-135525804D01*
X89949953Y-135259710D01*
X89949981Y-135259543D01*
X89950000Y-135259359D01*
X89950000Y-134990640D01*
X89949981Y-134990452D01*
X89949952Y-134990281D01*
X89914921Y-134724195D01*
X89914921Y-134724194D01*
X89845466Y-134464990D01*
X89845401Y-134464708D01*
X89845373Y-134464640D01*
X89845373Y-134464639D01*
X89742532Y-134216359D01*
X89704418Y-134150344D01*
X89608174Y-133983643D01*
X89515580Y-133862972D01*
X88736433Y-134642118D01*
X88728301Y-134645486D01*
X88720169Y-134642118D01*
X88718739Y-134640375D01*
X88637915Y-134519413D01*
X88637913Y-134519410D01*
X88505590Y-134387087D01*
X88384620Y-134306257D01*
X88379731Y-134298940D01*
X88381448Y-134290307D01*
X88382873Y-134288569D01*
X89162026Y-133509418D01*
X89041359Y-133416827D01*
X89041358Y-133416826D01*
X89041355Y-133416824D01*
X88808643Y-133282468D01*
X88560355Y-133179624D01*
X88300815Y-133110080D01*
X88300808Y-133110079D01*
X88300804Y-133110078D01*
X88085692Y-133081757D01*
X88034366Y-133075000D01*
X88034365Y-133075000D01*
X87765634Y-133075000D01*
X87765632Y-133075000D01*
X87499202Y-133110076D01*
X87499203Y-133110077D01*
X87499193Y-133110078D01*
X87240008Y-133179527D01*
X87239712Y-133179596D01*
X87239640Y-133179626D01*
X87239639Y-133179626D01*
X87173737Y-133206923D01*
X86991355Y-133282468D01*
X86758643Y-133416824D01*
X86637972Y-133509417D01*
X86637972Y-133509418D01*
X87091859Y-133963305D01*
X87417119Y-134288565D01*
X87420487Y-134296697D01*
X87417119Y-134304829D01*
X87415376Y-134306259D01*
X87294413Y-134387084D01*
X87162084Y-134519413D01*
X87081259Y-134640376D01*
X87073940Y-134645266D01*
X87065308Y-134643549D01*
X87063565Y-134642119D01*
X86710010Y-134288564D01*
X86284418Y-133862972D01*
X86284417Y-133862972D01*
X86191824Y-133983643D01*
X86057468Y-134216355D01*
X85954596Y-134464712D01*
X85954527Y-134465008D01*
X85885078Y-134724193D01*
X85885077Y-134724203D01*
X85850000Y-134990632D01*
X80150500Y-134990632D01*
X80150500Y-134230578D01*
X80144175Y-134150209D01*
X80094094Y-133963305D01*
X80006248Y-133790898D01*
X79965657Y-133740773D01*
X79884481Y-133640527D01*
X79884472Y-133640518D01*
X79739105Y-133522803D01*
X79734570Y-133519131D01*
X79734344Y-133518928D01*
X79734103Y-133518753D01*
X79734102Y-133518752D01*
X79561695Y-133430906D01*
X79561694Y-133430905D01*
X79561687Y-133430902D01*
X79561688Y-133430902D01*
X79374812Y-133380830D01*
X79374810Y-133380829D01*
X79374797Y-133380826D01*
X79374793Y-133380825D01*
X79374792Y-133380825D01*
X79374788Y-133380824D01*
X79374587Y-133380799D01*
X79374346Y-133380790D01*
X79374232Y-133380781D01*
X79294422Y-133374500D01*
X79294413Y-133374500D01*
X77205587Y-133374500D01*
X77205578Y-133374500D01*
X77157973Y-133378246D01*
X77125762Y-133380781D01*
X77125740Y-133380783D01*
X77125209Y-133380825D01*
X77125206Y-133380825D01*
X77125203Y-133380826D01*
X77125202Y-133380826D01*
X77125133Y-133380844D01*
X77125087Y-133380849D01*
X77124866Y-133380915D01*
X76938315Y-133430901D01*
X76765894Y-133518754D01*
X76615531Y-133640514D01*
X76615527Y-133640517D01*
X76615517Y-133640527D01*
X76615514Y-133640531D01*
X76493754Y-133790894D01*
X76405901Y-133963315D01*
X76355915Y-134149866D01*
X76355820Y-134150218D01*
X76355801Y-134150344D01*
X76355790Y-134150653D01*
X76349500Y-134230578D01*
X58701453Y-134230578D01*
X58701541Y-130140632D01*
X76200000Y-130140632D01*
X76200000Y-130409366D01*
X76235077Y-130675796D01*
X76235078Y-130675804D01*
X76304527Y-130934990D01*
X76304596Y-130935285D01*
X76304624Y-130935354D01*
X76304626Y-130935359D01*
X76304626Y-130935360D01*
X76377558Y-131111433D01*
X76407468Y-131183643D01*
X76541824Y-131416355D01*
X76541826Y-131416358D01*
X76541827Y-131416359D01*
X76634418Y-131537026D01*
X77413565Y-130757877D01*
X77421696Y-130754510D01*
X77429828Y-130757878D01*
X77431257Y-130759620D01*
X77512087Y-130880590D01*
X77644410Y-131012913D01*
X77765375Y-131093738D01*
X77770265Y-131101056D01*
X77768548Y-131109689D01*
X77767118Y-131111432D01*
X77119085Y-131759467D01*
X76987972Y-131890580D01*
X77090323Y-131969117D01*
X77108643Y-131983174D01*
X77341355Y-132117530D01*
X77341356Y-132117530D01*
X77341359Y-132117532D01*
X77589639Y-132220373D01*
X77590005Y-132220471D01*
X77849183Y-132289918D01*
X77849184Y-132289918D01*
X77849195Y-132289921D01*
X78115475Y-132324978D01*
X78115600Y-132324997D01*
X78115635Y-132325000D01*
X78115640Y-132325000D01*
X78384359Y-132325000D01*
X78384360Y-132325000D01*
X78384361Y-132324999D01*
X78384543Y-132324981D01*
X78384710Y-132324953D01*
X78650804Y-132289921D01*
X78650805Y-132289921D01*
X78910015Y-132220465D01*
X78910290Y-132220401D01*
X78910355Y-132220374D01*
X78910359Y-132220373D01*
X78910360Y-132220373D01*
X79158640Y-132117532D01*
X79391359Y-131983172D01*
X79512026Y-131890580D01*
X78732879Y-131111433D01*
X78729511Y-131103301D01*
X78732879Y-131095169D01*
X78734614Y-131093745D01*
X78855590Y-131012913D01*
X78987913Y-130880590D01*
X79068740Y-130759621D01*
X79076057Y-130754733D01*
X79084690Y-130756450D01*
X79086431Y-130757878D01*
X79865580Y-131537026D01*
X79958172Y-131416359D01*
X80092532Y-131183640D01*
X80195373Y-130935360D01*
X80195373Y-130935359D01*
X80195374Y-130935355D01*
X80195401Y-130935290D01*
X80195465Y-130935015D01*
X80264921Y-130675805D01*
X80264921Y-130675804D01*
X80299953Y-130409710D01*
X80299981Y-130409543D01*
X80300000Y-130409359D01*
X80300000Y-130140640D01*
X80299981Y-130140452D01*
X80299952Y-130140281D01*
X80264921Y-129874195D01*
X80264921Y-129874194D01*
X80195466Y-129614990D01*
X80195401Y-129614708D01*
X80195373Y-129614640D01*
X80195373Y-129614639D01*
X80092532Y-129366359D01*
X79958172Y-129133640D01*
X79922655Y-129087353D01*
X79917456Y-129080578D01*
X85999500Y-129080578D01*
X85999500Y-131169422D01*
X86005825Y-131249791D01*
X86005825Y-131249794D01*
X86005826Y-131249796D01*
X86005826Y-131249797D01*
X86005854Y-131249902D01*
X86005858Y-131249937D01*
X86005859Y-131249939D01*
X86006031Y-131250670D01*
X86006127Y-131250922D01*
X86055902Y-131436686D01*
X86055903Y-131436690D01*
X86143753Y-131609103D01*
X86143929Y-131609345D01*
X86144136Y-131609576D01*
X86265518Y-131759472D01*
X86265527Y-131759481D01*
X86365773Y-131840657D01*
X86415898Y-131881248D01*
X86588305Y-131969094D01*
X86588309Y-131969095D01*
X86588313Y-131969097D01*
X86588369Y-131969111D01*
X86730220Y-132007120D01*
X86750054Y-132012434D01*
X86775204Y-132019174D01*
X86775205Y-132019174D01*
X86775209Y-132019175D01*
X86855578Y-132025500D01*
X86855587Y-132025500D01*
X88944413Y-132025500D01*
X88944422Y-132025500D01*
X89024791Y-132019175D01*
X89166706Y-131981148D01*
X89211688Y-131969096D01*
X89211688Y-131969095D01*
X89211695Y-131969094D01*
X89384102Y-131881248D01*
X89534477Y-131759477D01*
X89656248Y-131609102D01*
X89744094Y-131436695D01*
X89744097Y-131436686D01*
X89794135Y-131249939D01*
X89794175Y-131249791D01*
X89800500Y-131169422D01*
X89800500Y-129080578D01*
X89794175Y-129000209D01*
X89744094Y-128813305D01*
X89656248Y-128640898D01*
X89596267Y-128566827D01*
X89534481Y-128490527D01*
X89534472Y-128490518D01*
X89384576Y-128369136D01*
X89384345Y-128368929D01*
X89384103Y-128368753D01*
X89384102Y-128368752D01*
X89211695Y-128280906D01*
X89211694Y-128280905D01*
X89211687Y-128280902D01*
X89211688Y-128280902D01*
X89024812Y-128230830D01*
X89024810Y-128230829D01*
X89024797Y-128230826D01*
X89024793Y-128230825D01*
X89024792Y-128230825D01*
X89024788Y-128230824D01*
X89024587Y-128230799D01*
X89024346Y-128230790D01*
X89024232Y-128230781D01*
X88944422Y-128224500D01*
X88944413Y-128224500D01*
X86855587Y-128224500D01*
X86855578Y-128224500D01*
X86807973Y-128228246D01*
X86775762Y-128230781D01*
X86775740Y-128230783D01*
X86775209Y-128230825D01*
X86775206Y-128230825D01*
X86775203Y-128230826D01*
X86775202Y-128230826D01*
X86775133Y-128230844D01*
X86775087Y-128230849D01*
X86774866Y-128230915D01*
X86588315Y-128280901D01*
X86415894Y-128368754D01*
X86265531Y-128490514D01*
X86265527Y-128490517D01*
X86265517Y-128490527D01*
X86265514Y-128490531D01*
X86143754Y-128640894D01*
X86055901Y-128813315D01*
X86005915Y-128999866D01*
X86005820Y-129000218D01*
X86005801Y-129000344D01*
X86005790Y-129000653D01*
X85999500Y-129080578D01*
X79917456Y-129080578D01*
X79865580Y-129012972D01*
X79086433Y-129792118D01*
X79078301Y-129795486D01*
X79070169Y-129792118D01*
X79068739Y-129790375D01*
X78987915Y-129669413D01*
X78987913Y-129669410D01*
X78855590Y-129537087D01*
X78734620Y-129456257D01*
X78729731Y-129448940D01*
X78731448Y-129440307D01*
X78732873Y-129438569D01*
X79512026Y-128659418D01*
X79391359Y-128566827D01*
X79391358Y-128566826D01*
X79391355Y-128566824D01*
X79158643Y-128432468D01*
X78910355Y-128329624D01*
X78650815Y-128260080D01*
X78650808Y-128260079D01*
X78650804Y-128260078D01*
X78428792Y-128230849D01*
X78384366Y-128225000D01*
X78384365Y-128225000D01*
X78115634Y-128225000D01*
X78115632Y-128225000D01*
X77849202Y-128260076D01*
X77849203Y-128260077D01*
X77849193Y-128260078D01*
X77590008Y-128329527D01*
X77589712Y-128329596D01*
X77589640Y-128329626D01*
X77589639Y-128329626D01*
X77523737Y-128356923D01*
X77341355Y-128432468D01*
X77108643Y-128566824D01*
X76987972Y-128659417D01*
X76987972Y-128659418D01*
X77409132Y-129080578D01*
X77767119Y-129438565D01*
X77770487Y-129446697D01*
X77767119Y-129454829D01*
X77765376Y-129456259D01*
X77644413Y-129537084D01*
X77512084Y-129669413D01*
X77431259Y-129790376D01*
X77423940Y-129795266D01*
X77415308Y-129793549D01*
X77413565Y-129792119D01*
X77060010Y-129438564D01*
X76634418Y-129012972D01*
X76634417Y-129012972D01*
X76541824Y-129133643D01*
X76407468Y-129366355D01*
X76304596Y-129614712D01*
X76304527Y-129615008D01*
X76235078Y-129874193D01*
X76235077Y-129874203D01*
X76200000Y-130140632D01*
X58701541Y-130140632D01*
X58701604Y-127191233D01*
X67399500Y-127191233D01*
X67399500Y-127358767D01*
X67405965Y-127391271D01*
X67432178Y-127523058D01*
X67432181Y-127523074D01*
X67432185Y-127523088D01*
X67434163Y-127527861D01*
X67434163Y-127527863D01*
X67434164Y-127527863D01*
X67491864Y-127667162D01*
X67496295Y-127677859D01*
X67496297Y-127677863D01*
X67496298Y-127677865D01*
X67589371Y-127817158D01*
X67589374Y-127817162D01*
X67707838Y-127935626D01*
X67847137Y-128028703D01*
X68001918Y-128092816D01*
X68166233Y-128125500D01*
X68166234Y-128125500D01*
X68333766Y-128125500D01*
X68333767Y-128125500D01*
X68498082Y-128092816D01*
X68652863Y-128028703D01*
X68792162Y-127935626D01*
X68910626Y-127817162D01*
X69003703Y-127677863D01*
X69067816Y-127523082D01*
X69100500Y-127358767D01*
X69100500Y-127191233D01*
X69100388Y-127190670D01*
X69100387Y-127190662D01*
X69100387Y-127190661D01*
X69070998Y-127042912D01*
X69070664Y-127041233D01*
X97049500Y-127041233D01*
X97049500Y-127208765D01*
X97082178Y-127373058D01*
X97082181Y-127373074D01*
X97082182Y-127373076D01*
X97082183Y-127373081D01*
X97082184Y-127373083D01*
X97131773Y-127492801D01*
X97131772Y-127492801D01*
X97146294Y-127527857D01*
X97146296Y-127527861D01*
X97146297Y-127527863D01*
X97239374Y-127667162D01*
X97357838Y-127785626D01*
X97497137Y-127878703D01*
X97651918Y-127942816D01*
X97816233Y-127975500D01*
X97816234Y-127975500D01*
X97983766Y-127975500D01*
X97983767Y-127975500D01*
X98148082Y-127942816D01*
X98302863Y-127878703D01*
X98442162Y-127785626D01*
X98560626Y-127667162D01*
X98653703Y-127527863D01*
X98717816Y-127373082D01*
X98750500Y-127208767D01*
X98750500Y-127041233D01*
X98717816Y-126876918D01*
X98653703Y-126722137D01*
X98560626Y-126582838D01*
X98442162Y-126464374D01*
X98442158Y-126464371D01*
X98431402Y-126457184D01*
X98302867Y-126371299D01*
X98148083Y-126307184D01*
X98148076Y-126307181D01*
X98016271Y-126280965D01*
X98010901Y-126279897D01*
X97983767Y-126274500D01*
X97983766Y-126274500D01*
X97816234Y-126274500D01*
X97816233Y-126274500D01*
X97789096Y-126279897D01*
X97651922Y-126307181D01*
X97651915Y-126307184D01*
X97497131Y-126371299D01*
X97357844Y-126464368D01*
X97239368Y-126582844D01*
X97146299Y-126722131D01*
X97082184Y-126876915D01*
X97082181Y-126876922D01*
X97049500Y-127041233D01*
X69070664Y-127041233D01*
X69069154Y-127033644D01*
X69069154Y-127033643D01*
X69067817Y-127026923D01*
X69067816Y-127026918D01*
X69003703Y-126872137D01*
X68910626Y-126732838D01*
X68792162Y-126614374D01*
X68792153Y-126614368D01*
X68744970Y-126582841D01*
X68652867Y-126521299D01*
X68515432Y-126464370D01*
X68498081Y-126457183D01*
X68498080Y-126457182D01*
X68498076Y-126457181D01*
X68366271Y-126430965D01*
X68360901Y-126429897D01*
X68333767Y-126424500D01*
X68333766Y-126424500D01*
X68166234Y-126424500D01*
X68166233Y-126424500D01*
X68139096Y-126429897D01*
X68001922Y-126457181D01*
X68001915Y-126457184D01*
X67847131Y-126521299D01*
X67707844Y-126614368D01*
X67589368Y-126732844D01*
X67496299Y-126872131D01*
X67432184Y-127026915D01*
X67432181Y-127026922D01*
X67399612Y-127190661D01*
X67399613Y-127190662D01*
X67399612Y-127190670D01*
X67399500Y-127191233D01*
X58701604Y-127191233D01*
X58701687Y-123346233D01*
X67398250Y-123346233D01*
X67398250Y-123513765D01*
X67430928Y-123678058D01*
X67430931Y-123678074D01*
X67430932Y-123678076D01*
X67430933Y-123678081D01*
X67430934Y-123678083D01*
X67480523Y-123797801D01*
X67480522Y-123797801D01*
X67495044Y-123832857D01*
X67495047Y-123832863D01*
X67588124Y-123972162D01*
X67706588Y-124090626D01*
X67845887Y-124183703D01*
X68000668Y-124247816D01*
X68164983Y-124280500D01*
X68164984Y-124280500D01*
X68332516Y-124280500D01*
X68332517Y-124280500D01*
X68496832Y-124247816D01*
X68651613Y-124183703D01*
X68790912Y-124090626D01*
X68909376Y-123972162D01*
X69002453Y-123832863D01*
X69066566Y-123678082D01*
X69099250Y-123513767D01*
X69099250Y-123346233D01*
X69066566Y-123181918D01*
X69002453Y-123027137D01*
X68909376Y-122887838D01*
X68790912Y-122769374D01*
X68790908Y-122769371D01*
X68790904Y-122769368D01*
X68651617Y-122676299D01*
X68496833Y-122612184D01*
X68496826Y-122612181D01*
X68365021Y-122585965D01*
X68359651Y-122584897D01*
X68332517Y-122579500D01*
X68332516Y-122579500D01*
X68164984Y-122579500D01*
X68164983Y-122579500D01*
X68137846Y-122584897D01*
X68000672Y-122612181D01*
X68000665Y-122612184D01*
X67845881Y-122676299D01*
X67706594Y-122769368D01*
X67588118Y-122887844D01*
X67495049Y-123027131D01*
X67430934Y-123181915D01*
X67430931Y-123181922D01*
X67398250Y-123346233D01*
X58701687Y-123346233D01*
X58702131Y-102672273D01*
X60499500Y-102672273D01*
X60499500Y-112102725D01*
X60526787Y-112204570D01*
X60526791Y-112204581D01*
X60526797Y-112204596D01*
X60544068Y-112234511D01*
X60576371Y-112290460D01*
X60579520Y-112295913D01*
X73479087Y-125195480D01*
X73570412Y-125248207D01*
X73672273Y-125275500D01*
X74402727Y-125275500D01*
X74504588Y-125248207D01*
X74539939Y-125227796D01*
X74542708Y-125226649D01*
X74544123Y-125226270D01*
X74545536Y-125225892D01*
X74548512Y-125225500D01*
X88777727Y-125225500D01*
X88879588Y-125198207D01*
X88970913Y-125145480D01*
X90770160Y-123346233D01*
X97049500Y-123346233D01*
X97049500Y-123513765D01*
X97082178Y-123678058D01*
X97082181Y-123678074D01*
X97082182Y-123678076D01*
X97082183Y-123678081D01*
X97082184Y-123678083D01*
X97131773Y-123797801D01*
X97131772Y-123797801D01*
X97146294Y-123832857D01*
X97146297Y-123832863D01*
X97239374Y-123972162D01*
X97357838Y-124090626D01*
X97497137Y-124183703D01*
X97651918Y-124247816D01*
X97816233Y-124280500D01*
X97816234Y-124280500D01*
X97983766Y-124280500D01*
X97983767Y-124280500D01*
X98148082Y-124247816D01*
X98302863Y-124183703D01*
X98442162Y-124090626D01*
X98560626Y-123972162D01*
X98653703Y-123832863D01*
X98717816Y-123678082D01*
X98750500Y-123513767D01*
X98750500Y-123346233D01*
X98717816Y-123181918D01*
X98653703Y-123027137D01*
X98560626Y-122887838D01*
X98442162Y-122769374D01*
X98442158Y-122769371D01*
X98442154Y-122769368D01*
X98302867Y-122676299D01*
X98148083Y-122612184D01*
X98148076Y-122612181D01*
X98016271Y-122585965D01*
X98010901Y-122584897D01*
X97983767Y-122579500D01*
X97983766Y-122579500D01*
X97816234Y-122579500D01*
X97816233Y-122579500D01*
X97789096Y-122584897D01*
X97651922Y-122612181D01*
X97651915Y-122612184D01*
X97497131Y-122676299D01*
X97357844Y-122769368D01*
X97239368Y-122887844D01*
X97146299Y-123027131D01*
X97082184Y-123181915D01*
X97082181Y-123181922D01*
X97049500Y-123346233D01*
X90770160Y-123346233D01*
X93995480Y-120120913D01*
X94048207Y-120029588D01*
X94075500Y-119927727D01*
X94075500Y-119822273D01*
X94075500Y-112346233D01*
X97049500Y-112346233D01*
X97049500Y-112513765D01*
X97082178Y-112678058D01*
X97082181Y-112678074D01*
X97082182Y-112678076D01*
X97082183Y-112678081D01*
X97120727Y-112771132D01*
X97146297Y-112832863D01*
X97239374Y-112972162D01*
X97357838Y-113090626D01*
X97497137Y-113183703D01*
X97651918Y-113247816D01*
X97816233Y-113280500D01*
X97816234Y-113280500D01*
X97983766Y-113280500D01*
X97983767Y-113280500D01*
X98148082Y-113247816D01*
X98302863Y-113183703D01*
X98442162Y-113090626D01*
X98560626Y-112972162D01*
X98653703Y-112832863D01*
X98717816Y-112678082D01*
X98750500Y-112513767D01*
X98750500Y-112346233D01*
X98717816Y-112181918D01*
X98653703Y-112027137D01*
X98560626Y-111887838D01*
X98442162Y-111769374D01*
X98442153Y-111769368D01*
X98412419Y-111749500D01*
X98302867Y-111676299D01*
X98148083Y-111612184D01*
X98148076Y-111612181D01*
X98016271Y-111585965D01*
X98010901Y-111584897D01*
X97983767Y-111579500D01*
X97983766Y-111579500D01*
X97816234Y-111579500D01*
X97816233Y-111579500D01*
X97789096Y-111584897D01*
X97651922Y-111612181D01*
X97651915Y-111612184D01*
X97497131Y-111676299D01*
X97357844Y-111769368D01*
X97239368Y-111887844D01*
X97146299Y-112027131D01*
X97082184Y-112181915D01*
X97082181Y-112181922D01*
X97049500Y-112346233D01*
X94075500Y-112346233D01*
X94075500Y-112147942D01*
X94076375Y-112143543D01*
X94077991Y-112139640D01*
X94080481Y-112135910D01*
X98499787Y-107716602D01*
X98507918Y-107713235D01*
X98509415Y-107713332D01*
X98628959Y-107729072D01*
X98639125Y-107730072D01*
X98640626Y-107730170D01*
X98650757Y-107730500D01*
X100574240Y-107730500D01*
X100574243Y-107730500D01*
X100584374Y-107730170D01*
X100585875Y-107730072D01*
X100596041Y-107729072D01*
X100723205Y-107712330D01*
X100743152Y-107708362D01*
X100746052Y-107707585D01*
X100765315Y-107701046D01*
X100883107Y-107652255D01*
X100901346Y-107643261D01*
X100903946Y-107641760D01*
X100920863Y-107630457D01*
X101022014Y-107552840D01*
X101037306Y-107539429D01*
X101039429Y-107537306D01*
X101052840Y-107522014D01*
X101130457Y-107420863D01*
X101141760Y-107403946D01*
X101143261Y-107401346D01*
X101152255Y-107383107D01*
X101201046Y-107265315D01*
X101207585Y-107246052D01*
X101208362Y-107243152D01*
X101212330Y-107223205D01*
X101229072Y-107096041D01*
X101230072Y-107085875D01*
X101230170Y-107084374D01*
X101230500Y-107074243D01*
X101230500Y-106375756D01*
X101230170Y-106365625D01*
X101230072Y-106364124D01*
X101229072Y-106353958D01*
X101212330Y-106226794D01*
X101208362Y-106206847D01*
X101207585Y-106203947D01*
X101201046Y-106184684D01*
X101152255Y-106066892D01*
X101143261Y-106048653D01*
X101143258Y-106048649D01*
X101143257Y-106048645D01*
X101141764Y-106046060D01*
X101141760Y-106046053D01*
X101130457Y-106029136D01*
X101052840Y-105927985D01*
X101039429Y-105912693D01*
X101037306Y-105910570D01*
X101022014Y-105897159D01*
X100920863Y-105819542D01*
X100903946Y-105808239D01*
X100903943Y-105808237D01*
X100903938Y-105808234D01*
X100901353Y-105806741D01*
X100901346Y-105806738D01*
X100883107Y-105797744D01*
X100853006Y-105785276D01*
X100765316Y-105748953D01*
X100765299Y-105748947D01*
X100746098Y-105742427D01*
X100746077Y-105742421D01*
X100746065Y-105742417D01*
X100743775Y-105741803D01*
X100743163Y-105741639D01*
X100723218Y-105737671D01*
X100723208Y-105737669D01*
X100668705Y-105730494D01*
X100596040Y-105720928D01*
X100585875Y-105719928D01*
X100585872Y-105719927D01*
X100585854Y-105719926D01*
X100584387Y-105719830D01*
X100576142Y-105719561D01*
X100574243Y-105719500D01*
X100574240Y-105719500D01*
X98958235Y-105719500D01*
X98950103Y-105716132D01*
X98946735Y-105708000D01*
X98950103Y-105699868D01*
X99469488Y-105180482D01*
X99473215Y-105177993D01*
X99477122Y-105176374D01*
X99481522Y-105175500D01*
X101231347Y-105175500D01*
X101235745Y-105176374D01*
X101239653Y-105177993D01*
X101243383Y-105180485D01*
X101273387Y-105210489D01*
X101376114Y-105269799D01*
X101490691Y-105300500D01*
X101609309Y-105300500D01*
X101723886Y-105269799D01*
X101826613Y-105210489D01*
X101910489Y-105126613D01*
X101969799Y-105023886D01*
X102000500Y-104909309D01*
X102000500Y-104790691D01*
X101969799Y-104676114D01*
X101910489Y-104573387D01*
X101826613Y-104489511D01*
X101826612Y-104489510D01*
X101826611Y-104489509D01*
X101730539Y-104434042D01*
X101728549Y-104431449D01*
X101609309Y-104399500D01*
X101490691Y-104399500D01*
X101376120Y-104430198D01*
X101376110Y-104430202D01*
X101273387Y-104489509D01*
X101252460Y-104510438D01*
X101193380Y-104569516D01*
X101189651Y-104572007D01*
X101185747Y-104573624D01*
X101181349Y-104574500D01*
X99310438Y-104574500D01*
X99234017Y-104594976D01*
X99234007Y-104594980D01*
X99165577Y-104634488D01*
X99165491Y-104634537D01*
X91030514Y-112769514D01*
X91026785Y-112772006D01*
X91024220Y-112773068D01*
X91022879Y-112773624D01*
X91018478Y-112774500D01*
X71206522Y-112774500D01*
X71202120Y-112773624D01*
X71198215Y-112772006D01*
X71194485Y-112769514D01*
X63555485Y-105130514D01*
X63552992Y-105126782D01*
X63551375Y-105122877D01*
X63550500Y-105118477D01*
X63550500Y-103260438D01*
X64099500Y-103260438D01*
X64099500Y-105039561D01*
X64119582Y-105114510D01*
X64119979Y-105115989D01*
X64126113Y-105126613D01*
X64128184Y-105130200D01*
X64142225Y-105154520D01*
X64157051Y-105180201D01*
X64159536Y-105184505D01*
X64159538Y-105184508D01*
X64159540Y-105184511D01*
X71265489Y-112290460D01*
X71334012Y-112330022D01*
X71410438Y-112350500D01*
X89814562Y-112350500D01*
X89890989Y-112330021D01*
X89959511Y-112290460D01*
X90015460Y-112234511D01*
X97515460Y-104734511D01*
X97555022Y-104665988D01*
X97575500Y-104589562D01*
X97575500Y-104510438D01*
X97575500Y-103763359D01*
X97576375Y-103758959D01*
X97577620Y-103755953D01*
X97577621Y-103755952D01*
X97582495Y-103750394D01*
X97594682Y-103743358D01*
X97651613Y-103710489D01*
X97735489Y-103626613D01*
X97794799Y-103523886D01*
X97825500Y-103409309D01*
X97825500Y-103290691D01*
X97794799Y-103176114D01*
X97735489Y-103073387D01*
X97651613Y-102989511D01*
X97651612Y-102989510D01*
X97651611Y-102989509D01*
X97575123Y-102945349D01*
X97571748Y-102942389D01*
X97570681Y-102940998D01*
X97570417Y-102940013D01*
X97568404Y-102932501D01*
X97568632Y-102930766D01*
X97570073Y-102926517D01*
X97605021Y-102865989D01*
X97625500Y-102789562D01*
X97625500Y-102168653D01*
X97626375Y-102164253D01*
X97626376Y-102164251D01*
X97627993Y-102160346D01*
X97630482Y-102156619D01*
X97685489Y-102101613D01*
X97744799Y-101998886D01*
X97775500Y-101884309D01*
X97775500Y-101765691D01*
X97744799Y-101651114D01*
X97685489Y-101548387D01*
X97601613Y-101464511D01*
X97601612Y-101464510D01*
X97601611Y-101464509D01*
X97505539Y-101409042D01*
X97503549Y-101406449D01*
X97384309Y-101374500D01*
X97265691Y-101374500D01*
X97151120Y-101405198D01*
X97151110Y-101405202D01*
X97048387Y-101464509D01*
X96964509Y-101548387D01*
X96905202Y-101651110D01*
X96905198Y-101651120D01*
X96882592Y-101735489D01*
X96874500Y-101765691D01*
X96874500Y-101884308D01*
X96886957Y-101930800D01*
X96905198Y-101998878D01*
X96905202Y-101998888D01*
X96964509Y-102101611D01*
X97019514Y-102156616D01*
X97022006Y-102160346D01*
X97023624Y-102164251D01*
X97024500Y-102168653D01*
X97024500Y-102455110D01*
X97023623Y-102459514D01*
X97022623Y-102461926D01*
X97017754Y-102467479D01*
X97017292Y-102467746D01*
X97014516Y-102468897D01*
X97010484Y-102469977D01*
X97010477Y-102469980D01*
X96959350Y-102499499D01*
X96941960Y-102509538D01*
X96534538Y-102916960D01*
X96494980Y-102985478D01*
X96494976Y-102985488D01*
X96474500Y-103061909D01*
X96474500Y-103168477D01*
X96473624Y-103172879D01*
X96472006Y-103176784D01*
X96469514Y-103180514D01*
X90180236Y-109469791D01*
X90172104Y-109473159D01*
X90163972Y-109469791D01*
X90163783Y-109469597D01*
X89780420Y-109067760D01*
X89158393Y-108415755D01*
X89155214Y-108407866D01*
X89155029Y-108364534D01*
X89135759Y-103861286D01*
X89123798Y-103802142D01*
X89120430Y-103794059D01*
X89118663Y-103791007D01*
X89117506Y-103782284D01*
X89119491Y-103778249D01*
X89140298Y-103751133D01*
X89143666Y-103743001D01*
X89155500Y-103683500D01*
X89155500Y-99023249D01*
X89158868Y-99015117D01*
X89159197Y-99014800D01*
X90610282Y-97678878D01*
X90618142Y-97675841D01*
X91323975Y-97680497D01*
X91325000Y-97680500D01*
X94302449Y-97680500D01*
X94302456Y-97680500D01*
X94332805Y-97677510D01*
X94337207Y-97676634D01*
X94366381Y-97667781D01*
X94370286Y-97666163D01*
X94397147Y-97651804D01*
X94400877Y-97649312D01*
X94405736Y-97645323D01*
X94407271Y-97644261D01*
X94480047Y-97602244D01*
X94482817Y-97601097D01*
X94554923Y-97581778D01*
X94557899Y-97581386D01*
X94632547Y-97581386D01*
X94635523Y-97581778D01*
X94707622Y-97601096D01*
X94710396Y-97602245D01*
X94783171Y-97644261D01*
X94784716Y-97645330D01*
X94789559Y-97649304D01*
X94789569Y-97649312D01*
X94793299Y-97651804D01*
X94820160Y-97666163D01*
X94820165Y-97666165D01*
X94820171Y-97666168D01*
X94822697Y-97667214D01*
X94824065Y-97667781D01*
X94824072Y-97667783D01*
X94824077Y-97667785D01*
X94853232Y-97676632D01*
X94853239Y-97676634D01*
X94857641Y-97677510D01*
X94887990Y-97680500D01*
X101148741Y-97680500D01*
X101148750Y-97680500D01*
X101179005Y-97677528D01*
X101183391Y-97676658D01*
X101212442Y-97667877D01*
X101214049Y-97667214D01*
X101264503Y-97633616D01*
X101270731Y-97627410D01*
X101304507Y-97577075D01*
X101305185Y-97575448D01*
X101314089Y-97546330D01*
X101314974Y-97541935D01*
X101318033Y-97511638D01*
X101324534Y-94976397D01*
X101323226Y-94955866D01*
X101322835Y-94952871D01*
X101322835Y-94952867D01*
X101318827Y-94932683D01*
X101318825Y-94932674D01*
X101318683Y-94932145D01*
X101318680Y-94932138D01*
X101297912Y-94886245D01*
X101297904Y-94886233D01*
X101293836Y-94880127D01*
X101293835Y-94880126D01*
X101293832Y-94880121D01*
X101259467Y-94843266D01*
X101259366Y-94843188D01*
X101259331Y-94843161D01*
X101256931Y-94841346D01*
X101256851Y-94841286D01*
X101204577Y-94816048D01*
X101204568Y-94816044D01*
X101196085Y-94813770D01*
X101196071Y-94813767D01*
X101140520Y-94810109D01*
X101135556Y-94809783D01*
X101135555Y-94809783D01*
X101133817Y-94810011D01*
X101133814Y-94810012D01*
X101104085Y-94816936D01*
X101104082Y-94816936D01*
X101104082Y-94816937D01*
X101099839Y-94818377D01*
X101099836Y-94818378D01*
X101099828Y-94818381D01*
X101072048Y-94830968D01*
X101066555Y-94834141D01*
X101063781Y-94835290D01*
X100991687Y-94854608D01*
X100988711Y-94855000D01*
X100914061Y-94855000D01*
X100911086Y-94854608D01*
X100884262Y-94847420D01*
X100838985Y-94835288D01*
X100836212Y-94834139D01*
X100771563Y-94796814D01*
X100769181Y-94794987D01*
X100716397Y-94742203D01*
X100714570Y-94739821D01*
X100677245Y-94675172D01*
X100676096Y-94672398D01*
X100656778Y-94600300D01*
X100656386Y-94597324D01*
X100656386Y-94522677D01*
X100656778Y-94519701D01*
X100670937Y-94466859D01*
X100670937Y-94466856D01*
X100676097Y-94447593D01*
X100677245Y-94444822D01*
X100714570Y-94380173D01*
X100716390Y-94377800D01*
X100769186Y-94325004D01*
X100771559Y-94323184D01*
X100836209Y-94285858D01*
X100838979Y-94284711D01*
X100911086Y-94265392D01*
X100914062Y-94265000D01*
X100988710Y-94265000D01*
X100991686Y-94265392D01*
X101063785Y-94284710D01*
X101066559Y-94285859D01*
X101074856Y-94290649D01*
X101093020Y-94299613D01*
X101095780Y-94300758D01*
X101095786Y-94300760D01*
X101095788Y-94300761D01*
X101114918Y-94307274D01*
X101114928Y-94307276D01*
X101114929Y-94307277D01*
X101115434Y-94307413D01*
X101165502Y-94312464D01*
X101172834Y-94312009D01*
X101221908Y-94300801D01*
X101222038Y-94300748D01*
X101222540Y-94300542D01*
X101222574Y-94300528D01*
X101273074Y-94266943D01*
X101279312Y-94260733D01*
X101313130Y-94210370D01*
X101313805Y-94208751D01*
X101322715Y-94179635D01*
X101323601Y-94175239D01*
X101326665Y-94144915D01*
X101335658Y-90637337D01*
X101339027Y-90629237D01*
X101361873Y-90606392D01*
X101361873Y-90606391D01*
X101361875Y-90606390D01*
X101421185Y-90503663D01*
X101451886Y-90389086D01*
X101451886Y-90270468D01*
X101421185Y-90155891D01*
X101361875Y-90053164D01*
X101340600Y-90031889D01*
X101337232Y-90023757D01*
X101337232Y-90023728D01*
X101342586Y-87936053D01*
X101342428Y-87928619D01*
X101342378Y-87927515D01*
X101324505Y-87861867D01*
X101320391Y-87854086D01*
X101304763Y-87832065D01*
X101302804Y-87823486D01*
X101303148Y-87822038D01*
X101303161Y-87821993D01*
X101303166Y-87821983D01*
X101312109Y-87792834D01*
X101312998Y-87788437D01*
X101316081Y-87758133D01*
X101344563Y-79099488D01*
X101344561Y-79099445D01*
X101343836Y-79083949D01*
X101343836Y-79083946D01*
X101343614Y-79081661D01*
X101343613Y-79081656D01*
X101343613Y-79081654D01*
X101318112Y-79010264D01*
X101313220Y-79002947D01*
X101299776Y-78987627D01*
X101296945Y-78979294D01*
X101297153Y-78977746D01*
X101307234Y-78928491D01*
X101307457Y-78887819D01*
X101321361Y-76346132D01*
X101353684Y-70437414D01*
X101353686Y-70436563D01*
X101353686Y-70436500D01*
X101341852Y-70376999D01*
X101338484Y-70368867D01*
X101338483Y-70368866D01*
X101338481Y-70368860D01*
X101332041Y-70357706D01*
X101330500Y-70351956D01*
X101330500Y-54423946D01*
X101330328Y-54420455D01*
X101329747Y-54408666D01*
X101329525Y-54406418D01*
X101327277Y-54391298D01*
X101326842Y-54389116D01*
X101323149Y-54374385D01*
X101322496Y-54372232D01*
X101317351Y-54357852D01*
X101317313Y-54357760D01*
X101316827Y-54356329D01*
X101242755Y-54079890D01*
X101242461Y-54078415D01*
X101234762Y-54019938D01*
X101205098Y-53794610D01*
X101205000Y-53793109D01*
X101205000Y-53506888D01*
X101205098Y-53505387D01*
X101243888Y-53210753D01*
X101244267Y-53207628D01*
X101244270Y-53207601D01*
X101244269Y-53207600D01*
X101244494Y-53205581D01*
X101243244Y-53201728D01*
X101244517Y-53174624D01*
X101244517Y-53174623D01*
X101243859Y-53168044D01*
X101243859Y-53168039D01*
X101232868Y-53124176D01*
X101232570Y-53123454D01*
X101232569Y-53123454D01*
X101231789Y-53121563D01*
X101230647Y-53120611D01*
X101198721Y-53072749D01*
X101195767Y-53069798D01*
X101195766Y-53069798D01*
X101192707Y-53066731D01*
X101192645Y-53066680D01*
X101192556Y-53066591D01*
X101192553Y-53066588D01*
X101192549Y-53066585D01*
X101192222Y-53066316D01*
X101192013Y-53066161D01*
X101168876Y-53047169D01*
X101160362Y-53041881D01*
X101154177Y-53040224D01*
X101150766Y-53038679D01*
X101142050Y-53032857D01*
X101142042Y-53032853D01*
X101140433Y-53032187D01*
X101140427Y-53032185D01*
X101121501Y-53026449D01*
X101111304Y-53023359D01*
X101111301Y-53023358D01*
X101111300Y-53023358D01*
X101106911Y-53022485D01*
X101097811Y-53021589D01*
X101076585Y-53019500D01*
X101076578Y-53019500D01*
X82948957Y-53019500D01*
X82948953Y-53019500D01*
X82948950Y-53019500D01*
X82948933Y-53019501D01*
X82918843Y-53022442D01*
X82914474Y-53023304D01*
X82885535Y-53032011D01*
X82885530Y-53032013D01*
X82885523Y-53032015D01*
X82885519Y-53032017D01*
X82884631Y-53032381D01*
X82883918Y-53032674D01*
X82883913Y-53032677D01*
X82833509Y-53066085D01*
X82833508Y-53066085D01*
X82827279Y-53072260D01*
X82793430Y-53122373D01*
X82792741Y-53124011D01*
X82783706Y-53153229D01*
X82782816Y-53157589D01*
X82782815Y-53157597D01*
X82782813Y-53157609D01*
X82781048Y-53174623D01*
X82779670Y-53187895D01*
X82779670Y-53187898D01*
X82779666Y-53188638D01*
X82770094Y-54947373D01*
X82768930Y-55161255D01*
X82710163Y-65958034D01*
X82706750Y-65966147D01*
X82698663Y-65969471D01*
X80942785Y-65969482D01*
X80882350Y-65981707D01*
X80876300Y-65984259D01*
X80867499Y-65984315D01*
X80865453Y-65983232D01*
X80827408Y-65957868D01*
X80827404Y-65957866D01*
X80825771Y-65957190D01*
X80796622Y-65948356D01*
X80792237Y-65947485D01*
X80792233Y-65947484D01*
X80792231Y-65947484D01*
X80761915Y-65944500D01*
X80761909Y-65944500D01*
X74212280Y-65944500D01*
X74212273Y-65944500D01*
X74191410Y-65946518D01*
X74182466Y-65947383D01*
X74178144Y-65948227D01*
X74149441Y-65956770D01*
X74147864Y-65957410D01*
X74097568Y-65990392D01*
X74097567Y-65990393D01*
X74091328Y-65996503D01*
X74057272Y-66046198D01*
X74057269Y-66046202D01*
X74056555Y-66047864D01*
X74047338Y-66076855D01*
X74046404Y-66081240D01*
X74043008Y-66111573D01*
X73994515Y-69772880D01*
X73994503Y-69773860D01*
X73994504Y-69773861D01*
X73994504Y-69773901D01*
X73994503Y-69774053D01*
X73994500Y-69775076D01*
X73994500Y-74585712D01*
X73994614Y-74586875D01*
X73992059Y-74595296D01*
X73984296Y-74599445D01*
X73983170Y-74599500D01*
X72456522Y-74599500D01*
X72452120Y-74598624D01*
X72448215Y-74597006D01*
X72444485Y-74594514D01*
X71980485Y-74130514D01*
X71977992Y-74126782D01*
X71976375Y-74122877D01*
X71975500Y-74118477D01*
X71975500Y-74040691D01*
X71973119Y-74031805D01*
X71944799Y-73926114D01*
X71885489Y-73823387D01*
X71801613Y-73739511D01*
X71801612Y-73739510D01*
X71801611Y-73739509D01*
X71705539Y-73684042D01*
X71703549Y-73681449D01*
X71584309Y-73649500D01*
X71465691Y-73649500D01*
X71351120Y-73680198D01*
X71351110Y-73680202D01*
X71248387Y-73739509D01*
X71164509Y-73823387D01*
X71105202Y-73926110D01*
X71105198Y-73926120D01*
X71074500Y-74040691D01*
X71074500Y-74159307D01*
X71098934Y-74250500D01*
X71105200Y-74273885D01*
X71105201Y-74273886D01*
X71164511Y-74376613D01*
X71248387Y-74460489D01*
X71351114Y-74519799D01*
X71465691Y-74550500D01*
X71543478Y-74550500D01*
X71547876Y-74551374D01*
X71551784Y-74552993D01*
X71555514Y-74555485D01*
X72084540Y-75084511D01*
X72140489Y-75140460D01*
X72209011Y-75180021D01*
X72285438Y-75200500D01*
X73983170Y-75200500D01*
X73991302Y-75203868D01*
X73994670Y-75212000D01*
X73994615Y-75213108D01*
X73994500Y-75214287D01*
X73994500Y-75214294D01*
X73994500Y-77796446D01*
X73995264Y-77811836D01*
X73995264Y-77811842D01*
X73995488Y-77814090D01*
X74021061Y-77885278D01*
X74021064Y-77885283D01*
X74025953Y-77892577D01*
X74025960Y-77892586D01*
X74025963Y-77892590D01*
X74025966Y-77892593D01*
X74028060Y-77894974D01*
X74030901Y-77903304D01*
X74030085Y-77906885D01*
X74027878Y-77912335D01*
X74016513Y-77971955D01*
X74040347Y-80929851D01*
X74040347Y-80929855D01*
X74041758Y-80949534D01*
X74041759Y-80949543D01*
X74042146Y-80952395D01*
X74046029Y-80971703D01*
X74046033Y-80971719D01*
X74069608Y-81059699D01*
X74070000Y-81062675D01*
X74070000Y-81137322D01*
X74069608Y-81140298D01*
X74048714Y-81218273D01*
X74044663Y-81238858D01*
X74044274Y-81241909D01*
X74043030Y-81262829D01*
X74049140Y-82021312D01*
X74045837Y-82029471D01*
X74037733Y-82032905D01*
X74029574Y-82029602D01*
X74029508Y-82029537D01*
X73534511Y-81534540D01*
X73516466Y-81524122D01*
X73467299Y-81495735D01*
X73467298Y-81495735D01*
X73465986Y-81494977D01*
X73389562Y-81474500D01*
X72520927Y-81474500D01*
X72516527Y-81473625D01*
X72513521Y-81472380D01*
X72507962Y-81467505D01*
X72504429Y-81461385D01*
X72504425Y-81461380D01*
X72489082Y-81434805D01*
X72405205Y-81350928D01*
X72309133Y-81295461D01*
X72307143Y-81292868D01*
X72187903Y-81260919D01*
X72069285Y-81260919D01*
X71954714Y-81291617D01*
X71954704Y-81291621D01*
X71851981Y-81350928D01*
X71768103Y-81434806D01*
X71708796Y-81537529D01*
X71708792Y-81537539D01*
X71678094Y-81652110D01*
X71678094Y-81770726D01*
X71705231Y-81872006D01*
X71708794Y-81885304D01*
X71713280Y-81893073D01*
X71725324Y-81913935D01*
X71763076Y-81979323D01*
X71764468Y-81981733D01*
X71768106Y-81988033D01*
X71795198Y-82015125D01*
X71798566Y-82023257D01*
X71796586Y-82029709D01*
X71773393Y-82063929D01*
X71772719Y-82065524D01*
X71763664Y-82094627D01*
X71762758Y-82099021D01*
X71762755Y-82099036D01*
X71759554Y-82129356D01*
X71759553Y-82129370D01*
X71758257Y-82316088D01*
X71729930Y-86399714D01*
X71726505Y-86407822D01*
X71718352Y-86411134D01*
X67990398Y-86386005D01*
X67959601Y-86388876D01*
X67959573Y-86388880D01*
X67955114Y-86389750D01*
X67955111Y-86389750D01*
X67925360Y-86398717D01*
X67923768Y-86399377D01*
X67873372Y-86433045D01*
X67873367Y-86433049D01*
X67867142Y-86439272D01*
X67833423Y-86489712D01*
X67833423Y-86489713D01*
X67832752Y-86491332D01*
X67832751Y-86491334D01*
X67823899Y-86520487D01*
X67823022Y-86524886D01*
X67820027Y-86555242D01*
X67820026Y-86555256D01*
X67819263Y-94323940D01*
X67819199Y-94979783D01*
X67818973Y-97280856D01*
X67820807Y-97299831D01*
X67821856Y-97310679D01*
X67822699Y-97314995D01*
X67831259Y-97343741D01*
X67831896Y-97345310D01*
X67864919Y-97395629D01*
X67864921Y-97395632D01*
X67871040Y-97401873D01*
X67920747Y-97435905D01*
X67922399Y-97436614D01*
X67934332Y-97440400D01*
X67951438Y-97445829D01*
X67951442Y-97445830D01*
X67955810Y-97446757D01*
X67955812Y-97446757D01*
X67955825Y-97446760D01*
X67986094Y-97450136D01*
X79883010Y-97604640D01*
X79890740Y-97607764D01*
X81331842Y-98964072D01*
X81335455Y-98972097D01*
X81335460Y-98972396D01*
X81350475Y-102480957D01*
X81355624Y-103684214D01*
X81367512Y-103742999D01*
X81367585Y-103743357D01*
X81370952Y-103751439D01*
X81371139Y-103751762D01*
X81372290Y-103760488D01*
X81370305Y-103764515D01*
X81350356Y-103790517D01*
X81346986Y-103798653D01*
X81335153Y-103858153D01*
X81335153Y-108360062D01*
X81332132Y-108367831D01*
X79364816Y-110515071D01*
X79347417Y-110538009D01*
X79347399Y-110538035D01*
X79345178Y-110541609D01*
X79345173Y-110541618D01*
X79332300Y-110567381D01*
X79332290Y-110567402D01*
X79330848Y-110571114D01*
X79330835Y-110571152D01*
X79322949Y-110598783D01*
X79322944Y-110598804D01*
X79322165Y-110602959D01*
X79322164Y-110602967D01*
X79319500Y-110631626D01*
X79319500Y-110785712D01*
X79319614Y-110786875D01*
X79317059Y-110795296D01*
X79309296Y-110799445D01*
X79308170Y-110799500D01*
X72131522Y-110799500D01*
X72127120Y-110798624D01*
X72123215Y-110797006D01*
X72119485Y-110794514D01*
X65805485Y-104480514D01*
X65802992Y-104476782D01*
X65801375Y-104472877D01*
X65800500Y-104468477D01*
X65800500Y-104390691D01*
X65770191Y-104277577D01*
X65769799Y-104276115D01*
X65769799Y-104276114D01*
X65710489Y-104173387D01*
X65626613Y-104089511D01*
X65626612Y-104089510D01*
X65626611Y-104089509D01*
X65540011Y-104039511D01*
X65525196Y-104030957D01*
X65525195Y-104030957D01*
X65523883Y-104030199D01*
X65409309Y-103999500D01*
X65290691Y-103999500D01*
X65176120Y-104030198D01*
X65176110Y-104030202D01*
X65073387Y-104089509D01*
X64989509Y-104173387D01*
X64930202Y-104276110D01*
X64930198Y-104276120D01*
X64929808Y-104277577D01*
X64899500Y-104390691D01*
X64899500Y-104509308D01*
X64921003Y-104589561D01*
X64922454Y-104594976D01*
X64930200Y-104623885D01*
X64960356Y-104676115D01*
X64989511Y-104726613D01*
X65073387Y-104810489D01*
X65176114Y-104869799D01*
X65290691Y-104900500D01*
X65368478Y-104900500D01*
X65372876Y-104901374D01*
X65376784Y-104902993D01*
X65380514Y-104905485D01*
X71759540Y-111284511D01*
X71815489Y-111340460D01*
X71884011Y-111380021D01*
X71960438Y-111400500D01*
X89014562Y-111400500D01*
X89090989Y-111380021D01*
X89159511Y-111340460D01*
X89215460Y-111284511D01*
X96950635Y-103549333D01*
X96953105Y-103547457D01*
X96954356Y-103546750D01*
X96954687Y-103546709D01*
X96955085Y-103546545D01*
X96955109Y-103546604D01*
X96957029Y-103545656D01*
X96957282Y-103545588D01*
X96960459Y-103546003D01*
X96963092Y-103545682D01*
X96964115Y-103546482D01*
X96964901Y-103546585D01*
X96965027Y-103546280D01*
X96965485Y-103546469D01*
X96965743Y-103546695D01*
X96966009Y-103546730D01*
X96966030Y-103546742D01*
X96966403Y-103546958D01*
X96966281Y-103547167D01*
X96971056Y-103551349D01*
X96972201Y-103553330D01*
X96973348Y-103556100D01*
X96974107Y-103558930D01*
X96974500Y-103561909D01*
X96974500Y-104418477D01*
X96973624Y-104422879D01*
X96972006Y-104426784D01*
X96969514Y-104430514D01*
X89655514Y-111744514D01*
X89651785Y-111747006D01*
X89649220Y-111748068D01*
X89647879Y-111748624D01*
X89643478Y-111749500D01*
X71581522Y-111749500D01*
X71577120Y-111748624D01*
X71573215Y-111747006D01*
X71569485Y-111744514D01*
X64705485Y-104880514D01*
X64702992Y-104876782D01*
X64701375Y-104872877D01*
X64700500Y-104868477D01*
X64700500Y-103431522D01*
X64701375Y-103427122D01*
X64701792Y-103426115D01*
X64702993Y-103423215D01*
X64705482Y-103419488D01*
X64919488Y-103205482D01*
X64923215Y-103202993D01*
X64927122Y-103201374D01*
X64931522Y-103200500D01*
X64981347Y-103200500D01*
X64985745Y-103201374D01*
X64989653Y-103202993D01*
X64993383Y-103205485D01*
X65048387Y-103260489D01*
X65151114Y-103319799D01*
X65265691Y-103350500D01*
X65384309Y-103350500D01*
X65498886Y-103319799D01*
X65601613Y-103260489D01*
X65685489Y-103176613D01*
X65744799Y-103073886D01*
X65775500Y-102959309D01*
X65775500Y-102840691D01*
X65744799Y-102726114D01*
X65685489Y-102623387D01*
X65601613Y-102539511D01*
X65601612Y-102539510D01*
X65601611Y-102539509D01*
X65515011Y-102489511D01*
X65500196Y-102480957D01*
X65500195Y-102480957D01*
X65498883Y-102480199D01*
X65384309Y-102449500D01*
X65265691Y-102449500D01*
X65151120Y-102480198D01*
X65151110Y-102480202D01*
X65048387Y-102539509D01*
X64993383Y-102594514D01*
X64989654Y-102597006D01*
X64987089Y-102598068D01*
X64985748Y-102598624D01*
X64981347Y-102599500D01*
X64760438Y-102599500D01*
X64684017Y-102619976D01*
X64684007Y-102619980D01*
X64639958Y-102645412D01*
X64615492Y-102659535D01*
X64615490Y-102659538D01*
X64159538Y-103115489D01*
X64119980Y-103184007D01*
X64119976Y-103184017D01*
X64105107Y-103239511D01*
X64099500Y-103260438D01*
X63550500Y-103260438D01*
X63550500Y-103131520D01*
X63551375Y-103127121D01*
X63552991Y-103123218D01*
X63555481Y-103119488D01*
X64907435Y-101767533D01*
X64911162Y-101765044D01*
X64913578Y-101764043D01*
X64920944Y-101763560D01*
X64921467Y-101763700D01*
X64924241Y-101764849D01*
X64976114Y-101794799D01*
X65090691Y-101825500D01*
X65209309Y-101825500D01*
X65323886Y-101794799D01*
X65426613Y-101735489D01*
X65510489Y-101651613D01*
X65569799Y-101548886D01*
X65600500Y-101434309D01*
X65600500Y-101315691D01*
X65569799Y-101201114D01*
X65510489Y-101098387D01*
X65426613Y-101014511D01*
X65426612Y-101014510D01*
X65426611Y-101014509D01*
X65330539Y-100959042D01*
X65328549Y-100956449D01*
X65209309Y-100924500D01*
X65090691Y-100924500D01*
X64976120Y-100955198D01*
X64976110Y-100955202D01*
X64873385Y-101014509D01*
X64808577Y-101079318D01*
X64806196Y-101081145D01*
X64803666Y-101082606D01*
X64800892Y-101083755D01*
X64759011Y-101094977D01*
X64707014Y-101124999D01*
X64707013Y-101125000D01*
X64693977Y-101132525D01*
X64690487Y-101134540D01*
X63009538Y-102815489D01*
X62969980Y-102884007D01*
X62969976Y-102884017D01*
X62958058Y-102928497D01*
X62953526Y-102945412D01*
X62949500Y-102960438D01*
X62949500Y-105289562D01*
X62969979Y-105365989D01*
X63004692Y-105426114D01*
X63009540Y-105434511D01*
X70834540Y-113259511D01*
X70890489Y-113315460D01*
X70959011Y-113355021D01*
X71035438Y-113375500D01*
X77970825Y-113375500D01*
X77973459Y-113376238D01*
X77975222Y-113376374D01*
X77975715Y-113376578D01*
X77976121Y-113376984D01*
X77976802Y-113377175D01*
X77977208Y-113377422D01*
X77978969Y-113379829D01*
X77981941Y-113382799D01*
X77981941Y-113383892D01*
X77982405Y-113384526D01*
X77981942Y-113387507D01*
X77981944Y-113391601D01*
X77981181Y-113392416D01*
X77981056Y-113393224D01*
X77979061Y-113394683D01*
X77976414Y-113397514D01*
X77976327Y-113397557D01*
X77974285Y-113398177D01*
X77973952Y-113398421D01*
X77973641Y-113398372D01*
X77972732Y-113398649D01*
X77847952Y-113415076D01*
X77847953Y-113415077D01*
X77847943Y-113415078D01*
X77588758Y-113484527D01*
X77588462Y-113484596D01*
X77588390Y-113484626D01*
X77588389Y-113484626D01*
X77522487Y-113511923D01*
X77340105Y-113587468D01*
X77107393Y-113721824D01*
X76986722Y-113814417D01*
X76986722Y-113814418D01*
X77432524Y-114260220D01*
X77765869Y-114593565D01*
X77769237Y-114601697D01*
X77765869Y-114609829D01*
X77764126Y-114611259D01*
X77643163Y-114692084D01*
X77510834Y-114824413D01*
X77430009Y-114945376D01*
X77422690Y-114950266D01*
X77414058Y-114948549D01*
X77412315Y-114947119D01*
X77058760Y-114593564D01*
X76633168Y-114167972D01*
X76633167Y-114167972D01*
X76540574Y-114288643D01*
X76406218Y-114521355D01*
X76303346Y-114769712D01*
X76303277Y-114770008D01*
X76233828Y-115029193D01*
X76233827Y-115029203D01*
X76198750Y-115295632D01*
X76198750Y-115564366D01*
X76233827Y-115830796D01*
X76233828Y-115830804D01*
X76303277Y-116089990D01*
X76303346Y-116090285D01*
X76303374Y-116090354D01*
X76303376Y-116090359D01*
X76303376Y-116090360D01*
X76376308Y-116266433D01*
X76406218Y-116338643D01*
X76540574Y-116571355D01*
X76540576Y-116571358D01*
X76540577Y-116571359D01*
X76633168Y-116692026D01*
X77412315Y-115912877D01*
X77420446Y-115909510D01*
X77428578Y-115912878D01*
X77430007Y-115914620D01*
X77510837Y-116035590D01*
X77643160Y-116167913D01*
X77764125Y-116248738D01*
X77769015Y-116256056D01*
X77767298Y-116264689D01*
X77765868Y-116266432D01*
X77118200Y-116914102D01*
X76986722Y-117045580D01*
X77011342Y-117064472D01*
X77107393Y-117138174D01*
X77340105Y-117272530D01*
X77340106Y-117272530D01*
X77340109Y-117272532D01*
X77588389Y-117375373D01*
X77588755Y-117375471D01*
X77847933Y-117444918D01*
X77847934Y-117444918D01*
X77847945Y-117444921D01*
X78114225Y-117479978D01*
X78114350Y-117479997D01*
X78114385Y-117480000D01*
X78114390Y-117480000D01*
X78383109Y-117480000D01*
X78383110Y-117480000D01*
X78383111Y-117479999D01*
X78383293Y-117479981D01*
X78383460Y-117479953D01*
X78649554Y-117444921D01*
X78649555Y-117444921D01*
X78908765Y-117375465D01*
X78909040Y-117375401D01*
X78909105Y-117375374D01*
X78909109Y-117375373D01*
X78909110Y-117375373D01*
X79157390Y-117272532D01*
X79390109Y-117138172D01*
X79510776Y-117045580D01*
X78731629Y-116266433D01*
X78728261Y-116258301D01*
X78731629Y-116250169D01*
X78733364Y-116248745D01*
X78854340Y-116167913D01*
X78986663Y-116035590D01*
X79067491Y-115914620D01*
X79074807Y-115909732D01*
X79083440Y-115911449D01*
X79085182Y-115912878D01*
X79864330Y-116692026D01*
X79956922Y-116571359D01*
X80091282Y-116338640D01*
X80194123Y-116090360D01*
X80194123Y-116090359D01*
X80194124Y-116090355D01*
X80194151Y-116090290D01*
X80194215Y-116090015D01*
X80263671Y-115830805D01*
X80263671Y-115830804D01*
X80298703Y-115564710D01*
X80298731Y-115564543D01*
X80298750Y-115564359D01*
X80298750Y-115295640D01*
X80298731Y-115295452D01*
X80298702Y-115295281D01*
X80263671Y-115029195D01*
X80263671Y-115029194D01*
X80194216Y-114769990D01*
X80194151Y-114769708D01*
X80194123Y-114769640D01*
X80194123Y-114769639D01*
X80091282Y-114521359D01*
X80016078Y-114391102D01*
X80012889Y-114385578D01*
X85999500Y-114385578D01*
X85999500Y-116474422D01*
X86005825Y-116554791D01*
X86005825Y-116554794D01*
X86005826Y-116554796D01*
X86005826Y-116554797D01*
X86005854Y-116554902D01*
X86005858Y-116554937D01*
X86005859Y-116554939D01*
X86006031Y-116555670D01*
X86006127Y-116555922D01*
X86055902Y-116741686D01*
X86055903Y-116741690D01*
X86143753Y-116914103D01*
X86143929Y-116914345D01*
X86144136Y-116914576D01*
X86265518Y-117064472D01*
X86265527Y-117064481D01*
X86356529Y-117138172D01*
X86415898Y-117186248D01*
X86588305Y-117274094D01*
X86588309Y-117274095D01*
X86588313Y-117274097D01*
X86588369Y-117274111D01*
X86730220Y-117312120D01*
X86750054Y-117317434D01*
X86775204Y-117324174D01*
X86775205Y-117324174D01*
X86775209Y-117324175D01*
X86855578Y-117330500D01*
X86855587Y-117330500D01*
X88944413Y-117330500D01*
X88944422Y-117330500D01*
X89024791Y-117324175D01*
X89166706Y-117286148D01*
X89211688Y-117274096D01*
X89211688Y-117274095D01*
X89211695Y-117274094D01*
X89384102Y-117186248D01*
X89534477Y-117064477D01*
X89656248Y-116914102D01*
X89744094Y-116741695D01*
X89744097Y-116741686D01*
X89757403Y-116692025D01*
X89794175Y-116554791D01*
X89800500Y-116474422D01*
X89800500Y-114385578D01*
X89794175Y-114305209D01*
X89794173Y-114305203D01*
X89782120Y-114260221D01*
X89782120Y-114260220D01*
X89744117Y-114118390D01*
X89744096Y-114118311D01*
X89744095Y-114118309D01*
X89744094Y-114118305D01*
X89656248Y-113945898D01*
X89549778Y-113814418D01*
X89534481Y-113795527D01*
X89534472Y-113795518D01*
X89384576Y-113674136D01*
X89384345Y-113673929D01*
X89384103Y-113673753D01*
X89384102Y-113673752D01*
X89211695Y-113585906D01*
X89211694Y-113585905D01*
X89211687Y-113585902D01*
X89211688Y-113585902D01*
X89024812Y-113535830D01*
X89024810Y-113535829D01*
X89024797Y-113535826D01*
X89024793Y-113535825D01*
X89024792Y-113535825D01*
X89024788Y-113535824D01*
X89024587Y-113535799D01*
X89024346Y-113535790D01*
X89024232Y-113535781D01*
X88944422Y-113529500D01*
X88944413Y-113529500D01*
X86855587Y-113529500D01*
X86855578Y-113529500D01*
X86807973Y-113533246D01*
X86775762Y-113535781D01*
X86775740Y-113535783D01*
X86775209Y-113535825D01*
X86775206Y-113535825D01*
X86775203Y-113535826D01*
X86775202Y-113535826D01*
X86775133Y-113535844D01*
X86775087Y-113535849D01*
X86774866Y-113535915D01*
X86588315Y-113585901D01*
X86588311Y-113585902D01*
X86588311Y-113585903D01*
X86588305Y-113585906D01*
X86444630Y-113659111D01*
X86415894Y-113673754D01*
X86265531Y-113795514D01*
X86265527Y-113795517D01*
X86265517Y-113795527D01*
X86265514Y-113795531D01*
X86143754Y-113945894D01*
X86143753Y-113945896D01*
X86055906Y-114118305D01*
X86055904Y-114118309D01*
X86055901Y-114118315D01*
X86005915Y-114304866D01*
X86005820Y-114305218D01*
X86005801Y-114305344D01*
X86005790Y-114305653D01*
X85999500Y-114385578D01*
X80012889Y-114385578D01*
X79956924Y-114288643D01*
X79935114Y-114260220D01*
X79864330Y-114167972D01*
X79085182Y-114947118D01*
X79077050Y-114950486D01*
X79068918Y-114947118D01*
X79067488Y-114945375D01*
X78986665Y-114824413D01*
X78986663Y-114824410D01*
X78854340Y-114692087D01*
X78733370Y-114611257D01*
X78728481Y-114603940D01*
X78730198Y-114595307D01*
X78731623Y-114593569D01*
X79510776Y-113814418D01*
X79390109Y-113721827D01*
X79390108Y-113721826D01*
X79390105Y-113721824D01*
X79157393Y-113587468D01*
X78909105Y-113484624D01*
X78649565Y-113415080D01*
X78649558Y-113415079D01*
X78649554Y-113415078D01*
X78571184Y-113404760D01*
X78525153Y-113398700D01*
X78522677Y-113397634D01*
X78520900Y-113397255D01*
X78520438Y-113396988D01*
X78520074Y-113396514D01*
X78519405Y-113396226D01*
X78519038Y-113395928D01*
X78517627Y-113393321D01*
X78515083Y-113390003D01*
X78515229Y-113388892D01*
X78514848Y-113388187D01*
X78515701Y-113385320D01*
X78516235Y-113381277D01*
X78517117Y-113380561D01*
X78517359Y-113379751D01*
X78519643Y-113378514D01*
X78522624Y-113376098D01*
X78522650Y-113376089D01*
X78522720Y-113376067D01*
X78524766Y-113375741D01*
X78525100Y-113375561D01*
X78525379Y-113375644D01*
X78526287Y-113375500D01*
X91189562Y-113375500D01*
X91265989Y-113355021D01*
X91334511Y-113315460D01*
X91390460Y-113259511D01*
X97974868Y-106675103D01*
X97983000Y-106671735D01*
X97991132Y-106675103D01*
X97994500Y-106683235D01*
X97994500Y-107074240D01*
X97994806Y-107083653D01*
X97991704Y-107091890D01*
X97991444Y-107092159D01*
X93354518Y-111729087D01*
X93301793Y-111820410D01*
X93301793Y-111820411D01*
X93301401Y-111821875D01*
X93274500Y-111922273D01*
X93274500Y-119702055D01*
X93273624Y-119706457D01*
X93272006Y-119710362D01*
X93269514Y-119714092D01*
X88564092Y-124419514D01*
X88560363Y-124422006D01*
X88557798Y-124423068D01*
X88556457Y-124423624D01*
X88552056Y-124424500D01*
X74453636Y-124424500D01*
X74453566Y-124424499D01*
X74453424Y-124424499D01*
X74452727Y-124424499D01*
X74347273Y-124424499D01*
X74245419Y-124451790D01*
X74245409Y-124451794D01*
X74210063Y-124472201D01*
X74207293Y-124473349D01*
X74204468Y-124474107D01*
X74201488Y-124474500D01*
X73897944Y-124474500D01*
X73893542Y-124473624D01*
X73889637Y-124472006D01*
X73885907Y-124469514D01*
X68801971Y-119385578D01*
X76348250Y-119385578D01*
X76348250Y-121474422D01*
X76354575Y-121554791D01*
X76354575Y-121554794D01*
X76354576Y-121554796D01*
X76354576Y-121554797D01*
X76354604Y-121554902D01*
X76354608Y-121554937D01*
X76354609Y-121554939D01*
X76354781Y-121555670D01*
X76354877Y-121555922D01*
X76404652Y-121741686D01*
X76404653Y-121741690D01*
X76492503Y-121914103D01*
X76492679Y-121914345D01*
X76492886Y-121914576D01*
X76614268Y-122064472D01*
X76614277Y-122064481D01*
X76705279Y-122138172D01*
X76764648Y-122186248D01*
X76937055Y-122274094D01*
X76937059Y-122274095D01*
X76937063Y-122274097D01*
X76937119Y-122274111D01*
X77078970Y-122312120D01*
X77098804Y-122317434D01*
X77123954Y-122324174D01*
X77123955Y-122324174D01*
X77123959Y-122324175D01*
X77204328Y-122330500D01*
X77204337Y-122330500D01*
X79293163Y-122330500D01*
X79293172Y-122330500D01*
X79373541Y-122324175D01*
X79515456Y-122286148D01*
X79560438Y-122274096D01*
X79560438Y-122274095D01*
X79560445Y-122274094D01*
X79732852Y-122186248D01*
X79883227Y-122064477D01*
X79884330Y-122063114D01*
X79884332Y-122063112D01*
X79907992Y-122033896D01*
X79953462Y-121977742D01*
X80004998Y-121914102D01*
X80092844Y-121741695D01*
X80092847Y-121741686D01*
X80106153Y-121692025D01*
X80142925Y-121554791D01*
X80149250Y-121474422D01*
X80149250Y-120295632D01*
X85850000Y-120295632D01*
X85850000Y-120564366D01*
X85885077Y-120830796D01*
X85885078Y-120830804D01*
X85954527Y-121089990D01*
X85954596Y-121090285D01*
X85954624Y-121090354D01*
X85954626Y-121090359D01*
X85954626Y-121090360D01*
X86027558Y-121266433D01*
X86057468Y-121338643D01*
X86191824Y-121571355D01*
X86191826Y-121571358D01*
X86191827Y-121571359D01*
X86284418Y-121692026D01*
X87063565Y-120912877D01*
X87071696Y-120909510D01*
X87079828Y-120912878D01*
X87081257Y-120914620D01*
X87162087Y-121035590D01*
X87294410Y-121167913D01*
X87415375Y-121248738D01*
X87420265Y-121256056D01*
X87418548Y-121264689D01*
X87417118Y-121266432D01*
X86769450Y-121914102D01*
X86637972Y-122045580D01*
X86662592Y-122064472D01*
X86758643Y-122138174D01*
X86991355Y-122272530D01*
X86991356Y-122272530D01*
X86991359Y-122272532D01*
X87239639Y-122375373D01*
X87240005Y-122375471D01*
X87499183Y-122444918D01*
X87499184Y-122444918D01*
X87499195Y-122444921D01*
X87765475Y-122479978D01*
X87765600Y-122479997D01*
X87765635Y-122480000D01*
X87765640Y-122480000D01*
X88034359Y-122480000D01*
X88034360Y-122480000D01*
X88034361Y-122479999D01*
X88034543Y-122479981D01*
X88034710Y-122479953D01*
X88300804Y-122444921D01*
X88300805Y-122444921D01*
X88560015Y-122375465D01*
X88560290Y-122375401D01*
X88560355Y-122375374D01*
X88560359Y-122375373D01*
X88560360Y-122375373D01*
X88808640Y-122272532D01*
X89041359Y-122138172D01*
X89162026Y-122045580D01*
X88382879Y-121266433D01*
X88379511Y-121258301D01*
X88382879Y-121250169D01*
X88384614Y-121248745D01*
X88505590Y-121167913D01*
X88637913Y-121035590D01*
X88718740Y-120914621D01*
X88726057Y-120909733D01*
X88734690Y-120911450D01*
X88736431Y-120912878D01*
X89515580Y-121692026D01*
X89608172Y-121571359D01*
X89742532Y-121338640D01*
X89845373Y-121090360D01*
X89845373Y-121090359D01*
X89845374Y-121090355D01*
X89845401Y-121090290D01*
X89845465Y-121090015D01*
X89914921Y-120830805D01*
X89914921Y-120830804D01*
X89949953Y-120564710D01*
X89949981Y-120564543D01*
X89950000Y-120564359D01*
X89950000Y-120295640D01*
X89949981Y-120295452D01*
X89949952Y-120295281D01*
X89914921Y-120029195D01*
X89914921Y-120029194D01*
X89845466Y-119769990D01*
X89845401Y-119769708D01*
X89845373Y-119769640D01*
X89845373Y-119769639D01*
X89742532Y-119521359D01*
X89617994Y-119305653D01*
X89608174Y-119288643D01*
X89586364Y-119260220D01*
X89515580Y-119167972D01*
X88736433Y-119947118D01*
X88728301Y-119950486D01*
X88720169Y-119947118D01*
X88718739Y-119945375D01*
X88706946Y-119927726D01*
X88637913Y-119824410D01*
X88505590Y-119692087D01*
X88384620Y-119611257D01*
X88379731Y-119603940D01*
X88381448Y-119595307D01*
X88382873Y-119593569D01*
X89162026Y-118814418D01*
X89041359Y-118721827D01*
X89041358Y-118721826D01*
X89041355Y-118721824D01*
X88808643Y-118587468D01*
X88560355Y-118484624D01*
X88300815Y-118415080D01*
X88300808Y-118415079D01*
X88300804Y-118415078D01*
X88085692Y-118386757D01*
X88034366Y-118380000D01*
X88034365Y-118380000D01*
X87765634Y-118380000D01*
X87765632Y-118380000D01*
X87499202Y-118415076D01*
X87499203Y-118415077D01*
X87499193Y-118415078D01*
X87240008Y-118484527D01*
X87239712Y-118484596D01*
X87239640Y-118484626D01*
X87239639Y-118484626D01*
X87173737Y-118511923D01*
X86991355Y-118587468D01*
X86758643Y-118721824D01*
X86637972Y-118814417D01*
X86637972Y-118814418D01*
X87083774Y-119260220D01*
X87417119Y-119593565D01*
X87420487Y-119601697D01*
X87417119Y-119609829D01*
X87415376Y-119611259D01*
X87294413Y-119692084D01*
X87162084Y-119824413D01*
X87081259Y-119945376D01*
X87073940Y-119950266D01*
X87065308Y-119948549D01*
X87063565Y-119947119D01*
X86710010Y-119593564D01*
X86284418Y-119167972D01*
X86284417Y-119167972D01*
X86191824Y-119288643D01*
X86057468Y-119521355D01*
X85954596Y-119769712D01*
X85954527Y-119770008D01*
X85885078Y-120029193D01*
X85885077Y-120029203D01*
X85850000Y-120295632D01*
X80149250Y-120295632D01*
X80149250Y-119385578D01*
X80142925Y-119305209D01*
X80142923Y-119305203D01*
X80130870Y-119260221D01*
X80130870Y-119260220D01*
X80092867Y-119118390D01*
X80092846Y-119118311D01*
X80092845Y-119118309D01*
X80092844Y-119118305D01*
X80004998Y-118945898D01*
X79975244Y-118909155D01*
X79907991Y-118826103D01*
X79883231Y-118795527D01*
X79883222Y-118795518D01*
X79733326Y-118674136D01*
X79733095Y-118673929D01*
X79732853Y-118673753D01*
X79732852Y-118673752D01*
X79560445Y-118585906D01*
X79560444Y-118585905D01*
X79560437Y-118585902D01*
X79560438Y-118585902D01*
X79373562Y-118535830D01*
X79373560Y-118535829D01*
X79373547Y-118535826D01*
X79373543Y-118535825D01*
X79373542Y-118535825D01*
X79373538Y-118535824D01*
X79373337Y-118535799D01*
X79373096Y-118535790D01*
X79372982Y-118535781D01*
X79293172Y-118529500D01*
X79293163Y-118529500D01*
X77204337Y-118529500D01*
X77204328Y-118529500D01*
X77156723Y-118533246D01*
X77124512Y-118535781D01*
X77124490Y-118535783D01*
X77123959Y-118535825D01*
X77123956Y-118535825D01*
X77123953Y-118535826D01*
X77123952Y-118535826D01*
X77123883Y-118535844D01*
X77123837Y-118535849D01*
X77123616Y-118535915D01*
X76937065Y-118585901D01*
X76937061Y-118585902D01*
X76937061Y-118585903D01*
X76937055Y-118585906D01*
X76793380Y-118659111D01*
X76764644Y-118673754D01*
X76614281Y-118795514D01*
X76614277Y-118795517D01*
X76614267Y-118795527D01*
X76614264Y-118795531D01*
X76492504Y-118945894D01*
X76492503Y-118945896D01*
X76404656Y-119118305D01*
X76404654Y-119118309D01*
X76404651Y-119118315D01*
X76354665Y-119304866D01*
X76354570Y-119305218D01*
X76354551Y-119305344D01*
X76354540Y-119305653D01*
X76348250Y-119385578D01*
X68801971Y-119385578D01*
X61762626Y-112346233D01*
X67398250Y-112346233D01*
X67398250Y-112513765D01*
X67430928Y-112678058D01*
X67430931Y-112678074D01*
X67430932Y-112678076D01*
X67430933Y-112678081D01*
X67469477Y-112771132D01*
X67495047Y-112832863D01*
X67588124Y-112972162D01*
X67706588Y-113090626D01*
X67845887Y-113183703D01*
X68000668Y-113247816D01*
X68164983Y-113280500D01*
X68164984Y-113280500D01*
X68332516Y-113280500D01*
X68332517Y-113280500D01*
X68496832Y-113247816D01*
X68651613Y-113183703D01*
X68790912Y-113090626D01*
X68909376Y-112972162D01*
X69002453Y-112832863D01*
X69066566Y-112678082D01*
X69099250Y-112513767D01*
X69099250Y-112346233D01*
X69066566Y-112181918D01*
X69002453Y-112027137D01*
X68909376Y-111887838D01*
X68790912Y-111769374D01*
X68790903Y-111769368D01*
X68761169Y-111749500D01*
X68651617Y-111676299D01*
X68496833Y-111612184D01*
X68496826Y-111612181D01*
X68365021Y-111585965D01*
X68359651Y-111584897D01*
X68332517Y-111579500D01*
X68332516Y-111579500D01*
X68164984Y-111579500D01*
X68164983Y-111579500D01*
X68137846Y-111584897D01*
X68000672Y-111612181D01*
X68000665Y-111612184D01*
X67845881Y-111676299D01*
X67706594Y-111769368D01*
X67588118Y-111887844D01*
X67495049Y-112027131D01*
X67430934Y-112181915D01*
X67430931Y-112181922D01*
X67398250Y-112346233D01*
X61762626Y-112346233D01*
X61305485Y-111889092D01*
X61302992Y-111885360D01*
X61301375Y-111881455D01*
X61300500Y-111877055D01*
X61300500Y-102897943D01*
X61301375Y-102893543D01*
X61302992Y-102889638D01*
X61305482Y-102885909D01*
X64710909Y-99480482D01*
X64714636Y-99477993D01*
X64718543Y-99476374D01*
X64722943Y-99475500D01*
X65758000Y-99475500D01*
X65766132Y-99478868D01*
X65769500Y-99487000D01*
X65769500Y-99799240D01*
X65769830Y-99809387D01*
X65769926Y-99810854D01*
X65769927Y-99810872D01*
X65769928Y-99810875D01*
X65770928Y-99821040D01*
X65780494Y-99893705D01*
X65787669Y-99948207D01*
X65787671Y-99948217D01*
X65791637Y-99968152D01*
X65792414Y-99971052D01*
X65792415Y-99971057D01*
X65792416Y-99971058D01*
X65798955Y-99990321D01*
X65847740Y-100108097D01*
X65847744Y-100108106D01*
X65856738Y-100126346D01*
X65856741Y-100126353D01*
X65858234Y-100128938D01*
X65858239Y-100128946D01*
X65869542Y-100145863D01*
X65947159Y-100247014D01*
X65960570Y-100262306D01*
X65962693Y-100264429D01*
X65977985Y-100277840D01*
X66079136Y-100355457D01*
X66096053Y-100366760D01*
X66096060Y-100366764D01*
X66098645Y-100368257D01*
X66098649Y-100368258D01*
X66098653Y-100368261D01*
X66116892Y-100377255D01*
X66234684Y-100426046D01*
X66253947Y-100432585D01*
X66256847Y-100433362D01*
X66276794Y-100437330D01*
X66403959Y-100454072D01*
X66414125Y-100455072D01*
X66415626Y-100455170D01*
X66425757Y-100455500D01*
X68349240Y-100455500D01*
X68349243Y-100455500D01*
X68359374Y-100455170D01*
X68360875Y-100455072D01*
X68371041Y-100454072D01*
X68498205Y-100437330D01*
X68518152Y-100433362D01*
X68521052Y-100432585D01*
X68540315Y-100426046D01*
X68658107Y-100377255D01*
X68676346Y-100368261D01*
X68678946Y-100366760D01*
X68695863Y-100355457D01*
X68698157Y-100353696D01*
X68706656Y-100351415D01*
X68713292Y-100354685D01*
X68779087Y-100420480D01*
X68870412Y-100473207D01*
X68972273Y-100500500D01*
X71980713Y-100500500D01*
X71985109Y-100501374D01*
X71986726Y-100502043D01*
X71992953Y-100508264D01*
X71992955Y-100508269D01*
X71993625Y-100509887D01*
X71994500Y-100514287D01*
X71994500Y-100690827D01*
X71999800Y-100731082D01*
X72033773Y-100857869D01*
X72033840Y-100858157D01*
X72049410Y-100895749D01*
X72115230Y-101009752D01*
X72115232Y-101009754D01*
X72115237Y-101009762D01*
X72139942Y-101041957D01*
X72139946Y-101041962D01*
X72233038Y-101135054D01*
X72233042Y-101135057D01*
X72265237Y-101159762D01*
X72265245Y-101159767D01*
X72379253Y-101225590D01*
X72379254Y-101225590D01*
X72379408Y-101225679D01*
X72379414Y-101225683D01*
X72379471Y-101225716D01*
X72379941Y-101225875D01*
X72416760Y-101241126D01*
X72416764Y-101241127D01*
X72416767Y-101241127D01*
X72416770Y-101241129D01*
X72416822Y-101241142D01*
X72543915Y-101275198D01*
X72543916Y-101275198D01*
X72543927Y-101275201D01*
X72584174Y-101280500D01*
X72584178Y-101280500D01*
X73200000Y-101280500D01*
X73277750Y-101259667D01*
X73314920Y-101222495D01*
X73318644Y-101220007D01*
X73320265Y-101219335D01*
X73329056Y-101219333D01*
X73329063Y-101219336D01*
X73329064Y-101219336D01*
X73329065Y-101219336D01*
X73329066Y-101219337D01*
X73329395Y-101219473D01*
X73329933Y-101219695D01*
X73335101Y-101223933D01*
X73341494Y-101233502D01*
X73341497Y-101233505D01*
X73350486Y-101239511D01*
X73391278Y-101266767D01*
X73435180Y-101275500D01*
X73635713Y-101275500D01*
X73640109Y-101276374D01*
X73641306Y-101276869D01*
X73641723Y-101277042D01*
X73641726Y-101277043D01*
X73647953Y-101283264D01*
X73647955Y-101283269D01*
X73648625Y-101284887D01*
X73649500Y-101289287D01*
X73649500Y-102156346D01*
X73648624Y-102160748D01*
X73647006Y-102164653D01*
X73644514Y-102168383D01*
X73589509Y-102223387D01*
X73530202Y-102326110D01*
X73530198Y-102326120D01*
X73515708Y-102380201D01*
X73499500Y-102440691D01*
X73499500Y-102559308D01*
X73502867Y-102571875D01*
X73515756Y-102619980D01*
X73530200Y-102673884D01*
X73579653Y-102759540D01*
X73589511Y-102776613D01*
X73673387Y-102860489D01*
X73776114Y-102919799D01*
X73890691Y-102950500D01*
X74009309Y-102950500D01*
X74123886Y-102919799D01*
X74226613Y-102860489D01*
X74310489Y-102776613D01*
X74369799Y-102673886D01*
X74400500Y-102559309D01*
X74400500Y-102440691D01*
X74369799Y-102326114D01*
X74310489Y-102223387D01*
X74255485Y-102168383D01*
X74252992Y-102164651D01*
X74251375Y-102160746D01*
X74250500Y-102156346D01*
X74250500Y-101289287D01*
X74251373Y-101284893D01*
X74251582Y-101284385D01*
X74252043Y-101283273D01*
X74258258Y-101277049D01*
X74259385Y-101276582D01*
X74259893Y-101276373D01*
X74264287Y-101275500D01*
X74464819Y-101275500D01*
X74464820Y-101275500D01*
X74508722Y-101266767D01*
X74558504Y-101233504D01*
X74591767Y-101183722D01*
X74600500Y-101139820D01*
X74600500Y-99610180D01*
X74591767Y-99566278D01*
X74558504Y-99516496D01*
X74558502Y-99516494D01*
X74554929Y-99514107D01*
X74515826Y-99487980D01*
X74508723Y-99483234D01*
X74508724Y-99483234D01*
X74508722Y-99483233D01*
X74508720Y-99483232D01*
X74508719Y-99483232D01*
X74505928Y-99482677D01*
X74505927Y-99482676D01*
X74473039Y-99476135D01*
X74473038Y-99476134D01*
X74464820Y-99474500D01*
X73435180Y-99474500D01*
X73420567Y-99477405D01*
X73416086Y-99477406D01*
X73414872Y-99477165D01*
X73407552Y-99472278D01*
X73405831Y-99463646D01*
X73405917Y-99463211D01*
X73409062Y-99457328D01*
X73985909Y-98880482D01*
X73989637Y-98877993D01*
X73993544Y-98876374D01*
X73997944Y-98875500D01*
X75477056Y-98875500D01*
X75481454Y-98876374D01*
X75485362Y-98877993D01*
X75489092Y-98880485D01*
X76294514Y-99685907D01*
X76297006Y-99689637D01*
X76298624Y-99693542D01*
X76299500Y-99697944D01*
X76299500Y-101527055D01*
X76298624Y-101531457D01*
X76297006Y-101535362D01*
X76294514Y-101539092D01*
X74979518Y-102854087D01*
X74926797Y-102945402D01*
X74926793Y-102945412D01*
X74926787Y-102945428D01*
X74907883Y-103015988D01*
X74899500Y-103047273D01*
X74899500Y-107305712D01*
X74898625Y-107310112D01*
X74897955Y-107311730D01*
X74891732Y-107317954D01*
X74890115Y-107318624D01*
X74885713Y-107319500D01*
X74750000Y-107319500D01*
X74672252Y-107340331D01*
X74672249Y-107340333D01*
X74672246Y-107340337D01*
X74635083Y-107377498D01*
X74631353Y-107379990D01*
X74629736Y-107380660D01*
X74620942Y-107380664D01*
X74620934Y-107380660D01*
X74620934Y-107380661D01*
X74620933Y-107380660D01*
X74620066Y-107380302D01*
X74614897Y-107376064D01*
X74608505Y-107366497D01*
X74608502Y-107366494D01*
X74558723Y-107333234D01*
X74558724Y-107333234D01*
X74558722Y-107333233D01*
X74558720Y-107333232D01*
X74558719Y-107333232D01*
X74555930Y-107332677D01*
X74542659Y-107330037D01*
X74529321Y-107327384D01*
X74529320Y-107327383D01*
X74517703Y-107325073D01*
X74514820Y-107324500D01*
X74514819Y-107324500D01*
X74314287Y-107324500D01*
X74309887Y-107323625D01*
X74309885Y-107323624D01*
X74308268Y-107322954D01*
X74302046Y-107316733D01*
X74301375Y-107315112D01*
X74301373Y-107315106D01*
X74300500Y-107310712D01*
X74300500Y-103918653D01*
X74301375Y-103914253D01*
X74302992Y-103910348D01*
X74305482Y-103906619D01*
X74335489Y-103876613D01*
X74394799Y-103773886D01*
X74425500Y-103659309D01*
X74425500Y-103540691D01*
X74394799Y-103426114D01*
X74335489Y-103323387D01*
X74251613Y-103239511D01*
X74251612Y-103239510D01*
X74251611Y-103239509D01*
X74155539Y-103184042D01*
X74153549Y-103181449D01*
X74034309Y-103149500D01*
X73915691Y-103149500D01*
X73801120Y-103180198D01*
X73801110Y-103180202D01*
X73698387Y-103239509D01*
X73614509Y-103323387D01*
X73555202Y-103426110D01*
X73555198Y-103426120D01*
X73553751Y-103431522D01*
X73524500Y-103540691D01*
X73524500Y-103659308D01*
X73531174Y-103684216D01*
X73555198Y-103773878D01*
X73555202Y-103773888D01*
X73614509Y-103876611D01*
X73694514Y-103956616D01*
X73697006Y-103960346D01*
X73698624Y-103964251D01*
X73699500Y-103968653D01*
X73699500Y-107310712D01*
X73698625Y-107315112D01*
X73697955Y-107316730D01*
X73691732Y-107322954D01*
X73690115Y-107323624D01*
X73685713Y-107324500D01*
X73485180Y-107324500D01*
X73483372Y-107324859D01*
X73474279Y-107326667D01*
X73474279Y-107326668D01*
X73466086Y-107328297D01*
X73441282Y-107333231D01*
X73441278Y-107333232D01*
X73391500Y-107366491D01*
X73391491Y-107366500D01*
X73358232Y-107416278D01*
X73358231Y-107416283D01*
X73352193Y-107446642D01*
X73352193Y-107446643D01*
X73349500Y-107460181D01*
X73349500Y-108989818D01*
X73358233Y-109033722D01*
X73358501Y-109034224D01*
X73358864Y-109034666D01*
X73383805Y-109071995D01*
X73391494Y-109083502D01*
X73391496Y-109083504D01*
X73441278Y-109116767D01*
X73485180Y-109125500D01*
X73485181Y-109125500D01*
X74514819Y-109125500D01*
X74514820Y-109125500D01*
X74558722Y-109116767D01*
X74608504Y-109083504D01*
X74614503Y-109074524D01*
X74617669Y-109071357D01*
X74619131Y-109070380D01*
X74627756Y-109068663D01*
X74628687Y-109068848D01*
X74634578Y-109071995D01*
X74672250Y-109109667D01*
X74750000Y-109130500D01*
X74981636Y-109130500D01*
X74986033Y-109131374D01*
X74987176Y-109131847D01*
X74993402Y-109138069D01*
X74993405Y-109146870D01*
X74993404Y-109146872D01*
X74992932Y-109148012D01*
X74990439Y-109151744D01*
X74957878Y-109184307D01*
X74957878Y-109184308D01*
X74899498Y-109242686D01*
X74833612Y-109356804D01*
X74833606Y-109356819D01*
X74833602Y-109356830D01*
X74803388Y-109469597D01*
X74799500Y-109484108D01*
X74799500Y-109615891D01*
X74808180Y-109648287D01*
X74833602Y-109743168D01*
X74833604Y-109743176D01*
X74833606Y-109743180D01*
X74833610Y-109743190D01*
X74894988Y-109849500D01*
X74899500Y-109857314D01*
X74992686Y-109950500D01*
X75106814Y-110016392D01*
X75234108Y-110050500D01*
X75365892Y-110050500D01*
X75493186Y-110016392D01*
X75607314Y-109950500D01*
X75700500Y-109857314D01*
X75766392Y-109743186D01*
X75800500Y-109615892D01*
X75800500Y-109484108D01*
X75766392Y-109356814D01*
X75700500Y-109242686D01*
X75607314Y-109149500D01*
X75607311Y-109149498D01*
X75607310Y-109149497D01*
X75607064Y-109149308D01*
X75604945Y-109147186D01*
X75602874Y-109144485D01*
X75600500Y-109137488D01*
X75600500Y-109067336D01*
X75600941Y-109065119D01*
X75600898Y-109065114D01*
X75600986Y-109064444D01*
X75601202Y-109063807D01*
X75601376Y-109062934D01*
X75601676Y-109062210D01*
X75601736Y-109062234D01*
X75602432Y-109060186D01*
X75603098Y-109059034D01*
X75603302Y-109059152D01*
X75607493Y-109054372D01*
X75684757Y-109009766D01*
X75716962Y-108985054D01*
X75810054Y-108891962D01*
X75834766Y-108859757D01*
X75900592Y-108745743D01*
X75916126Y-108708240D01*
X75950201Y-108581073D01*
X75955500Y-108540826D01*
X75955500Y-107909174D01*
X75950201Y-107868927D01*
X75916126Y-107741760D01*
X75900592Y-107704257D01*
X75898736Y-107701043D01*
X75834931Y-107590529D01*
X75834762Y-107590236D01*
X75810113Y-107558115D01*
X75810060Y-107558046D01*
X75810055Y-107558040D01*
X75810054Y-107558038D01*
X75716962Y-107464946D01*
X75711154Y-107460489D01*
X75706810Y-107457155D01*
X75703855Y-107453785D01*
X75702041Y-107450643D01*
X75700500Y-107444893D01*
X75700500Y-103272944D01*
X75701375Y-103268544D01*
X75702992Y-103264639D01*
X75705482Y-103260910D01*
X76184588Y-102781805D01*
X76586193Y-102380200D01*
X77020480Y-101945913D01*
X77073207Y-101854588D01*
X77100500Y-101752727D01*
X77100500Y-101647273D01*
X77100500Y-99472273D01*
X77090644Y-99435489D01*
X77073207Y-99370412D01*
X77020480Y-99279087D01*
X75895913Y-98154520D01*
X75895912Y-98154519D01*
X75895911Y-98154518D01*
X75804597Y-98101798D01*
X75804595Y-98101797D01*
X75804592Y-98101795D01*
X75804590Y-98101794D01*
X75804588Y-98101793D01*
X75804587Y-98101792D01*
X75804582Y-98101790D01*
X75804570Y-98101786D01*
X75804504Y-98101769D01*
X75702727Y-98074500D01*
X73877727Y-98074500D01*
X73772273Y-98074500D01*
X73670428Y-98101787D01*
X73670417Y-98101791D01*
X73670415Y-98101792D01*
X73670410Y-98101794D01*
X73670402Y-98101797D01*
X73579087Y-98154518D01*
X72329518Y-99404087D01*
X72276797Y-99495402D01*
X72276791Y-99495417D01*
X72276787Y-99495428D01*
X72273186Y-99508874D01*
X72271784Y-99514107D01*
X72250172Y-99594759D01*
X72249690Y-99596179D01*
X72247238Y-99602104D01*
X72243613Y-99606831D01*
X72233044Y-99614940D01*
X72233036Y-99614947D01*
X72153469Y-99694514D01*
X72149740Y-99697006D01*
X72147477Y-99697944D01*
X72145834Y-99698624D01*
X72141433Y-99699500D01*
X69197944Y-99699500D01*
X69193542Y-99698624D01*
X69189637Y-99697006D01*
X69185907Y-99694514D01*
X69008868Y-99517475D01*
X69005500Y-99509343D01*
X69005500Y-99100758D01*
X69005500Y-99100756D01*
X69005170Y-99090625D01*
X69005072Y-99089124D01*
X69004072Y-99078958D01*
X68987330Y-98951794D01*
X68983362Y-98931847D01*
X68982585Y-98928947D01*
X68976046Y-98909684D01*
X68927255Y-98791892D01*
X68918261Y-98773653D01*
X68918258Y-98773649D01*
X68918257Y-98773645D01*
X68916764Y-98771060D01*
X68916760Y-98771053D01*
X68905457Y-98754136D01*
X68827840Y-98652985D01*
X68814429Y-98637693D01*
X68812306Y-98635570D01*
X68797014Y-98622159D01*
X68695863Y-98544542D01*
X68678946Y-98533239D01*
X68678943Y-98533237D01*
X68678938Y-98533234D01*
X68676353Y-98531741D01*
X68676346Y-98531738D01*
X68658107Y-98522744D01*
X68628006Y-98510276D01*
X68540316Y-98473953D01*
X68540299Y-98473947D01*
X68521098Y-98467427D01*
X68521077Y-98467421D01*
X68521065Y-98467417D01*
X68518185Y-98466645D01*
X68518163Y-98466639D01*
X68498218Y-98462671D01*
X68498208Y-98462669D01*
X68443705Y-98455494D01*
X68371040Y-98445928D01*
X68360875Y-98444928D01*
X68360872Y-98444927D01*
X68360854Y-98444926D01*
X68359387Y-98444830D01*
X68351142Y-98444561D01*
X68349243Y-98444500D01*
X68349240Y-98444500D01*
X66425760Y-98444500D01*
X66425757Y-98444500D01*
X66423969Y-98444558D01*
X66415612Y-98444830D01*
X66414145Y-98444926D01*
X66414125Y-98444928D01*
X66403960Y-98445928D01*
X66317324Y-98457333D01*
X66276783Y-98462670D01*
X66256816Y-98466644D01*
X66256815Y-98466645D01*
X66253928Y-98467418D01*
X66253906Y-98467425D01*
X66234703Y-98473945D01*
X66234686Y-98473951D01*
X66171485Y-98500129D01*
X66116889Y-98522744D01*
X66116879Y-98522748D01*
X66116869Y-98522753D01*
X66098615Y-98531758D01*
X66096025Y-98533254D01*
X66096015Y-98533260D01*
X66079148Y-98544533D01*
X66079141Y-98544538D01*
X65977981Y-98622161D01*
X65962688Y-98635573D01*
X65960573Y-98637688D01*
X65947158Y-98652985D01*
X65947149Y-98652996D01*
X65934101Y-98670001D01*
X65926479Y-98674402D01*
X65924978Y-98674500D01*
X64603636Y-98674500D01*
X64603566Y-98674499D01*
X64603424Y-98674499D01*
X64602727Y-98674499D01*
X64497274Y-98674499D01*
X64395419Y-98701790D01*
X64395409Y-98701794D01*
X64304087Y-98754518D01*
X60579518Y-102479087D01*
X60526793Y-102570410D01*
X60526793Y-102570411D01*
X60526401Y-102571875D01*
X60499500Y-102672273D01*
X58702131Y-102672273D01*
X58702691Y-76603191D01*
X65249500Y-76603191D01*
X65249500Y-76721807D01*
X65280198Y-76836378D01*
X65280202Y-76836388D01*
X65311420Y-76890460D01*
X65334261Y-76930021D01*
X65339511Y-76939113D01*
X65423387Y-77022989D01*
X65526114Y-77082299D01*
X65640691Y-77113000D01*
X65759309Y-77113000D01*
X65873886Y-77082299D01*
X65976613Y-77022989D01*
X66044119Y-76955482D01*
X66047846Y-76952993D01*
X66051753Y-76951374D01*
X66056153Y-76950500D01*
X67314562Y-76950500D01*
X67390989Y-76930021D01*
X67459511Y-76890460D01*
X67515460Y-76834511D01*
X70778756Y-73571212D01*
X70782483Y-73568723D01*
X70784899Y-73567722D01*
X70792265Y-73567239D01*
X70792788Y-73567379D01*
X70793623Y-73567724D01*
X70793699Y-73567725D01*
X70793752Y-73567778D01*
X70795562Y-73568528D01*
X70856814Y-73603892D01*
X70984108Y-73638000D01*
X71115892Y-73638000D01*
X71243186Y-73603892D01*
X71357314Y-73538000D01*
X71450500Y-73444814D01*
X71516392Y-73330686D01*
X71550500Y-73203392D01*
X71550500Y-73071608D01*
X71516392Y-72944314D01*
X71450500Y-72830186D01*
X71357314Y-72737000D01*
X71357313Y-72736999D01*
X71357312Y-72736998D01*
X71243195Y-72671113D01*
X71243193Y-72671112D01*
X71243190Y-72671110D01*
X71243188Y-72671109D01*
X71243186Y-72671108D01*
X71243185Y-72671107D01*
X71243180Y-72671105D01*
X71243168Y-72671101D01*
X71243102Y-72671084D01*
X71115892Y-72637000D01*
X70984108Y-72637000D01*
X70856830Y-72671102D01*
X70856819Y-72671106D01*
X70856817Y-72671107D01*
X70856812Y-72671109D01*
X70856804Y-72671112D01*
X70742686Y-72736998D01*
X70649498Y-72830186D01*
X70594279Y-72925827D01*
X70592452Y-72928209D01*
X70590380Y-72930281D01*
X70587998Y-72932108D01*
X70540489Y-72959538D01*
X67155514Y-76344514D01*
X67151785Y-76347006D01*
X67149220Y-76348068D01*
X67147879Y-76348624D01*
X67143478Y-76349500D01*
X66031153Y-76349500D01*
X66026751Y-76348624D01*
X66022846Y-76347006D01*
X66019116Y-76344514D01*
X65976611Y-76302009D01*
X65880539Y-76246542D01*
X65878549Y-76243949D01*
X65759309Y-76212000D01*
X65640691Y-76212000D01*
X65526120Y-76242698D01*
X65526110Y-76242702D01*
X65423387Y-76302009D01*
X65339509Y-76385887D01*
X65280202Y-76488610D01*
X65280198Y-76488620D01*
X65249500Y-76603191D01*
X58702691Y-76603191D01*
X58703131Y-56095969D01*
X77350000Y-56095969D01*
X77350000Y-56404029D01*
X77390210Y-56709449D01*
X77390211Y-56709457D01*
X77469839Y-57006628D01*
X77469908Y-57006924D01*
X77469937Y-57006995D01*
X77469938Y-57006997D01*
X77469938Y-57006998D01*
X77520666Y-57129466D01*
X77587829Y-57291614D01*
X77741848Y-57558383D01*
X77741850Y-57558386D01*
X77741851Y-57558387D01*
X77870456Y-57725988D01*
X78575206Y-57021236D01*
X78583337Y-57017869D01*
X78591469Y-57021237D01*
X78592641Y-57022609D01*
X78614507Y-57052705D01*
X78670278Y-57129466D01*
X78820534Y-57279722D01*
X78927387Y-57357355D01*
X78931985Y-57364860D01*
X78929931Y-57373419D01*
X78928759Y-57374791D01*
X78224010Y-58079542D01*
X78391615Y-58208150D01*
X78658384Y-58362169D01*
X78658385Y-58362169D01*
X78658388Y-58362171D01*
X78943001Y-58480061D01*
X78943005Y-58480062D01*
X79240530Y-58559785D01*
X79240531Y-58559785D01*
X79240542Y-58559788D01*
X79545812Y-58599978D01*
X79545937Y-58599997D01*
X79545972Y-58600000D01*
X79545977Y-58600000D01*
X79854022Y-58600000D01*
X79854023Y-58600000D01*
X79854024Y-58599999D01*
X79854206Y-58599981D01*
X79854373Y-58599953D01*
X80159457Y-58559788D01*
X80159458Y-58559788D01*
X80456661Y-58480150D01*
X80456929Y-58480088D01*
X80456989Y-58480063D01*
X80456997Y-58480061D01*
X80456998Y-58480061D01*
X80741611Y-58362171D01*
X81008387Y-58208148D01*
X81175988Y-58079542D01*
X80471238Y-57374792D01*
X80467870Y-57366660D01*
X80471238Y-57358528D01*
X80472611Y-57357356D01*
X80579466Y-57279722D01*
X80729722Y-57129466D01*
X80807356Y-57022610D01*
X80814861Y-57018012D01*
X80823419Y-57020066D01*
X80824791Y-57021237D01*
X81529542Y-57725988D01*
X81658148Y-57558387D01*
X81812171Y-57291611D01*
X81930061Y-57006998D01*
X81930061Y-57006997D01*
X81930063Y-57006989D01*
X81930088Y-57006929D01*
X81930150Y-57006661D01*
X82009788Y-56709458D01*
X82009788Y-56709457D01*
X82049953Y-56404373D01*
X82049981Y-56404206D01*
X82050000Y-56404022D01*
X82050000Y-56095977D01*
X82049981Y-56095789D01*
X82049952Y-56095618D01*
X82009788Y-55790542D01*
X82009788Y-55790541D01*
X81930154Y-55493352D01*
X81930089Y-55493070D01*
X81930061Y-55493002D01*
X81930061Y-55493001D01*
X81812171Y-55208388D01*
X81769643Y-55134728D01*
X81658150Y-54941615D01*
X81529542Y-54774010D01*
X80824791Y-55478759D01*
X80816659Y-55482127D01*
X80808527Y-55478759D01*
X80807355Y-55477387D01*
X80729722Y-55370534D01*
X80579466Y-55220278D01*
X80472609Y-55142642D01*
X80468011Y-55135137D01*
X80470065Y-55126578D01*
X80471231Y-55125213D01*
X80914640Y-54681805D01*
X81175988Y-54420456D01*
X81157693Y-54406418D01*
X81008383Y-54291848D01*
X80741614Y-54137829D01*
X80456993Y-54019936D01*
X80159468Y-53940213D01*
X80159461Y-53940212D01*
X80159457Y-53940211D01*
X79912865Y-53907746D01*
X79854029Y-53900000D01*
X79854028Y-53900000D01*
X79545971Y-53900000D01*
X79545969Y-53900000D01*
X79240549Y-53940209D01*
X79240550Y-53940210D01*
X79240540Y-53940211D01*
X78943370Y-54019839D01*
X78943074Y-54019908D01*
X78943002Y-54019938D01*
X78943001Y-54019938D01*
X78867485Y-54051217D01*
X78658384Y-54137829D01*
X78391615Y-54291848D01*
X78224010Y-54420455D01*
X78224010Y-54420456D01*
X78577564Y-54774010D01*
X78928760Y-55125206D01*
X78932128Y-55133338D01*
X78928760Y-55141470D01*
X78927388Y-55142642D01*
X78820534Y-55220278D01*
X78670278Y-55370534D01*
X78592642Y-55477388D01*
X78585137Y-55481986D01*
X78576578Y-55479932D01*
X78575206Y-55478760D01*
X78223024Y-55126578D01*
X77870456Y-54774010D01*
X77870455Y-54774010D01*
X77741848Y-54941615D01*
X77587829Y-55208384D01*
X77520665Y-55370534D01*
X77475352Y-55479932D01*
X77469908Y-55493074D01*
X77469839Y-55493370D01*
X77390211Y-55790540D01*
X77390210Y-55790550D01*
X77350000Y-56095969D01*
X58703131Y-56095969D01*
X58703183Y-53675269D01*
X58703186Y-53675258D01*
X58703186Y-53625365D01*
X58703189Y-53625116D01*
X58703194Y-53624885D01*
X58703202Y-53624632D01*
X58707503Y-53526115D01*
X58708408Y-53505387D01*
X58721027Y-53216342D01*
X58721054Y-53215925D01*
X58721101Y-53215392D01*
X58721147Y-53214965D01*
X58774448Y-52810108D01*
X58774519Y-52809644D01*
X58774610Y-52809131D01*
X58774704Y-52808668D01*
X58863066Y-52410089D01*
X58863183Y-52409614D01*
X58863304Y-52409163D01*
X58863443Y-52408685D01*
X58986225Y-52019266D01*
X58986357Y-52018876D01*
X58986561Y-52018318D01*
X58986701Y-52017957D01*
X59109466Y-51721579D01*
X59142976Y-51640675D01*
X59143142Y-51640298D01*
X59143383Y-51639783D01*
X59143579Y-51639389D01*
X59272483Y-51391767D01*
X59332101Y-51277239D01*
X59332338Y-51276809D01*
X59332601Y-51276354D01*
X59332811Y-51276007D01*
X59339939Y-51264820D01*
X59552215Y-50931611D01*
X59552469Y-50931233D01*
X59552746Y-50930837D01*
X59553000Y-50930488D01*
X59801604Y-50606499D01*
X59801894Y-50606140D01*
X59802221Y-50605751D01*
X59802527Y-50605404D01*
X60078369Y-50304375D01*
X60078671Y-50304059D01*
X60079059Y-50303671D01*
X60079375Y-50303369D01*
X60380409Y-50027522D01*
X60380759Y-50027215D01*
X60381140Y-50026894D01*
X60381499Y-50026604D01*
X60705488Y-49778000D01*
X60705837Y-49777746D01*
X60706239Y-49777464D01*
X60706611Y-49777215D01*
X61051000Y-49557816D01*
X61051366Y-49557594D01*
X61051823Y-49557329D01*
X61052226Y-49557108D01*
X61414406Y-49368570D01*
X61414783Y-49368383D01*
X61415298Y-49368142D01*
X61415675Y-49367976D01*
X61736271Y-49235181D01*
X75949500Y-49235181D01*
X75949500Y-51264818D01*
X75956504Y-51300031D01*
X75956547Y-51300249D01*
X75958233Y-51308722D01*
X75958501Y-51309224D01*
X75958864Y-51309666D01*
X75991494Y-51358502D01*
X75991496Y-51358504D01*
X76041278Y-51391767D01*
X76085180Y-51400500D01*
X76085181Y-51400500D01*
X77014819Y-51400500D01*
X77014820Y-51400500D01*
X77058722Y-51391767D01*
X77108504Y-51358504D01*
X77141767Y-51308722D01*
X77150500Y-51264820D01*
X77150500Y-49235181D01*
X89449500Y-49235181D01*
X89449500Y-51264818D01*
X89456504Y-51300031D01*
X89456547Y-51300249D01*
X89458233Y-51308722D01*
X89458501Y-51309224D01*
X89458864Y-51309666D01*
X89491494Y-51358502D01*
X89491496Y-51358504D01*
X89541278Y-51391767D01*
X89585180Y-51400500D01*
X89585181Y-51400500D01*
X90514819Y-51400500D01*
X90514820Y-51400500D01*
X90558722Y-51391767D01*
X90608504Y-51358504D01*
X90641767Y-51308722D01*
X90650500Y-51264820D01*
X90650500Y-49235180D01*
X90641767Y-49191278D01*
X90608504Y-49141496D01*
X90608502Y-49141494D01*
X90558723Y-49108234D01*
X90558724Y-49108234D01*
X90558722Y-49108233D01*
X90558720Y-49108232D01*
X90558719Y-49108232D01*
X90555930Y-49107677D01*
X90542659Y-49105037D01*
X90529321Y-49102384D01*
X90529320Y-49102383D01*
X90517703Y-49100073D01*
X90514820Y-49099500D01*
X90514819Y-49099500D01*
X89585181Y-49099500D01*
X89585180Y-49099500D01*
X89583372Y-49099859D01*
X89574279Y-49101667D01*
X89574279Y-49101668D01*
X89566086Y-49103297D01*
X89541282Y-49108231D01*
X89541278Y-49108232D01*
X89491500Y-49141491D01*
X89491491Y-49141500D01*
X89458232Y-49191278D01*
X89458232Y-49191280D01*
X89449500Y-49235181D01*
X77150500Y-49235181D01*
X77150500Y-49235180D01*
X77141767Y-49191278D01*
X77108504Y-49141496D01*
X77108502Y-49141494D01*
X77058723Y-49108234D01*
X77058724Y-49108234D01*
X77058722Y-49108233D01*
X77058720Y-49108232D01*
X77058719Y-49108232D01*
X77055930Y-49107677D01*
X77042659Y-49105037D01*
X77029321Y-49102384D01*
X77029320Y-49102383D01*
X77017703Y-49100073D01*
X77014820Y-49099500D01*
X77014819Y-49099500D01*
X76085181Y-49099500D01*
X76085180Y-49099500D01*
X76083372Y-49099859D01*
X76074279Y-49101667D01*
X76074279Y-49101668D01*
X76066086Y-49103297D01*
X76041282Y-49108231D01*
X76041278Y-49108232D01*
X75991500Y-49141491D01*
X75991491Y-49141500D01*
X75958232Y-49191278D01*
X75958232Y-49191280D01*
X75949500Y-49235181D01*
X61736271Y-49235181D01*
X61792925Y-49211714D01*
X61793380Y-49211539D01*
X61793845Y-49211370D01*
X61794315Y-49211210D01*
X61857526Y-49191280D01*
X62183688Y-49088441D01*
X62184163Y-49088304D01*
X62184231Y-49088285D01*
X62184624Y-49088180D01*
X62185089Y-49088066D01*
X62583682Y-48999701D01*
X62584131Y-48999610D01*
X62584644Y-48999519D01*
X62585108Y-48999448D01*
X62989965Y-48946147D01*
X62990392Y-48946101D01*
X62990925Y-48946054D01*
X62991342Y-48946027D01*
X63399645Y-48928200D01*
X63399870Y-48928193D01*
X63399978Y-48928191D01*
X63400160Y-48928188D01*
X63400369Y-48928186D01*
X103350874Y-48950471D01*
G37*
%TD.AperFunction*%
%TD*%
M02*
