M48
; DRILL file {KiCad 9.0.0} date 2025-07-24T22:11:37+0200
; FORMAT={-:-/ absolute / metric / decimal}
; #@! TF.CreationDate,2025-07-24T22:11:37+02:00
; #@! TF.GenerationSoftware,Kicad,Pcbnew,9.0.0
; #@! TF.FileFunction,Plated,1,4,PTH
FMAT,2
METRIC
; #@! TA.AperFunction,Plated,PTH,ComponentDrill
T1C0.250
; #@! TA.AperFunction,Plated,PTH,ViaDrill
T2C0.300
; #@! TA.AperFunction,Plated,PTH,ComponentDrill
T3C0.500
; #@! TA.AperFunction,Plated,PTH,ComponentDrill
T4C0.600
; #@! TA.AperFunction,Plated,PTH,ComponentDrill
T5C0.700
; #@! TA.AperFunction,Plated,PTH,ComponentDrill
T6C1.000
; #@! TA.AperFunction,Plated,PTH,ComponentDrill
T7C1.200
; #@! TA.AperFunction,Plated,PTH,ComponentDrill
T8C1.500
; #@! TA.AperFunction,Plated,PTH,ComponentDrill
T9C2.700
; #@! TA.AperFunction,Plated,PTH,ComponentDrill
T10C3.200
%
G90
G05
T1
X13.565Y60.73
X13.565Y59.83
X13.565Y58.93
X13.565Y58.17
X13.565Y57.27
X13.565Y56.37
X13.565Y53.53
X13.565Y52.63
X13.565Y51.73
X13.565Y50.97
X13.565Y50.07
X13.565Y49.17
X13.565Y44.68
X13.565Y43.78
X13.565Y42.88
X13.565Y42.12
X13.565Y41.22
X13.565Y40.32
X13.565Y37.48
X13.565Y36.58
X13.565Y35.68
X13.565Y34.92
X13.565Y34.02
X13.565Y33.12
X13.82Y61.18
X13.82Y60.28
X13.82Y59.38
X13.82Y57.72
X13.82Y56.82
X13.82Y55.92
X13.82Y53.98
X13.82Y53.08
X13.82Y52.18
X13.82Y50.52
X13.82Y49.62
X13.82Y48.72
X13.82Y45.13
X13.82Y44.23
X13.82Y43.33
X13.82Y41.67
X13.82Y40.77
X13.82Y39.87
X13.82Y37.93
X13.82Y37.03
X13.82Y36.13
X13.82Y34.47
X13.82Y33.57
X13.82Y32.67
X14.075Y60.73
X14.075Y59.83
X14.075Y57.27
X14.075Y56.37
X14.075Y53.53
X14.075Y52.63
X14.075Y50.07
X14.075Y49.17
X14.075Y44.68
X14.075Y43.78
X14.075Y41.22
X14.075Y40.32
X14.075Y37.48
X14.075Y36.58
X14.075Y34.02
X14.075Y33.12
X14.33Y61.18
X14.33Y60.28
X14.33Y56.82
X14.33Y55.92
X14.33Y53.98
X14.33Y53.08
X14.33Y49.62
X14.33Y48.72
X14.33Y45.13
X14.33Y44.23
X14.33Y40.77
X14.33Y39.87
X14.33Y37.93
X14.33Y37.03
X14.33Y33.57
X14.33Y32.67
X14.585Y60.73
X14.585Y56.37
X14.585Y53.53
X14.585Y49.17
X14.585Y44.68
X14.585Y40.32
X14.585Y37.48
X14.585Y33.12
X14.84Y61.18
X14.84Y60.28
X14.84Y56.82
X14.84Y55.92
X14.84Y53.98
X14.84Y53.08
X14.84Y49.62
X14.84Y48.72
X14.84Y45.13
X14.84Y44.23
X14.84Y40.77
X14.84Y39.87
X14.84Y37.93
X14.84Y37.03
X14.84Y33.57
X14.84Y32.67
X15.095Y60.73
X15.095Y56.37
X15.095Y53.53
X15.095Y49.17
X15.095Y44.68
X15.095Y40.32
X15.095Y37.48
X15.095Y33.12
X15.35Y61.18
X15.35Y60.28
X15.35Y56.82
X15.35Y55.92
X15.35Y53.98
X15.35Y53.08
X15.35Y49.62
X15.35Y48.72
X15.35Y45.13
X15.35Y44.23
X15.35Y40.77
X15.35Y39.87
X15.35Y37.93
X15.35Y37.03
X15.35Y33.57
X15.35Y32.67
X15.605Y60.73
X15.605Y56.37
X15.605Y53.53
X15.605Y49.17
X15.605Y44.68
X15.605Y40.32
X15.605Y37.48
X15.605Y33.12
X15.86Y61.18
X15.86Y60.28
X15.86Y56.82
X15.86Y55.92
X15.86Y53.98
X15.86Y53.08
X15.86Y49.62
X15.86Y48.72
X15.86Y45.13
X15.86Y44.23
X15.86Y40.77
X15.86Y39.87
X15.86Y37.93
X15.86Y37.03
X15.86Y33.57
X15.86Y32.67
X16.115Y60.73
X16.115Y56.37
X16.115Y53.53
X16.115Y49.17
X16.115Y44.68
X16.115Y40.32
X16.115Y37.48
X16.115Y33.12
X16.37Y61.18
X16.37Y60.28
X16.37Y56.82
X16.37Y55.92
X16.37Y53.98
X16.37Y53.08
X16.37Y49.62
X16.37Y48.72
X16.37Y45.13
X16.37Y44.23
X16.37Y40.77
X16.37Y39.87
X16.37Y37.93
X16.37Y37.03
X16.37Y33.57
X16.37Y32.67
X16.625Y60.73
X16.625Y59.83
X16.625Y57.27
X16.625Y56.37
X16.625Y53.53
X16.625Y52.63
X16.625Y50.07
X16.625Y49.17
X16.625Y44.68
X16.625Y43.78
X16.625Y41.22
X16.625Y40.32
X16.625Y37.48
X16.625Y36.58
X16.625Y34.02
X16.625Y33.12
X16.88Y61.18
X16.88Y60.28
X16.88Y59.38
X16.88Y57.72
X16.88Y56.82
X16.88Y55.92
X16.88Y53.98
X16.88Y53.08
X16.88Y52.18
X16.88Y50.52
X16.88Y49.62
X16.88Y48.72
X16.88Y45.13
X16.88Y44.23
X16.88Y43.33
X16.88Y41.67
X16.88Y40.77
X16.88Y39.87
X16.88Y37.93
X16.88Y37.03
X16.88Y36.13
X16.88Y34.47
X16.88Y33.57
X16.88Y32.67
X17.135Y60.73
X17.135Y59.83
X17.135Y58.93
X17.135Y58.17
X17.135Y57.27
X17.135Y56.37
X17.135Y53.53
X17.135Y52.63
X17.135Y51.73
X17.135Y50.97
X17.135Y50.07
X17.135Y49.17
X17.135Y44.68
X17.135Y43.78
X17.135Y42.88
X17.135Y42.12
X17.135Y41.22
X17.135Y40.32
X17.135Y37.48
X17.135Y36.58
X17.135Y35.68
X17.135Y34.92
X17.135Y34.02
X17.135Y33.12
X46.121Y17.25
X46.121Y16.74
X46.121Y16.23
X46.121Y15.72
X46.121Y15.21
X46.121Y14.7
X46.121Y14.19
X46.571Y17.505
X46.571Y16.995
X46.571Y16.485
X46.571Y15.975
X46.571Y15.465
X46.571Y14.955
X46.571Y14.445
X46.571Y13.935
X47.021Y17.25
X47.021Y16.74
X47.021Y16.23
X47.021Y15.72
X47.021Y15.21
X47.021Y14.7
X47.021Y14.19
X47.471Y17.505
X47.471Y16.995
X47.471Y14.445
X47.471Y13.935
X47.921Y17.25
X47.921Y14.19
X48.371Y17.505
X48.371Y13.935
X49.131Y17.505
X49.131Y13.935
X49.581Y17.25
X49.581Y14.19
X50.031Y17.505
X50.031Y16.995
X50.031Y14.445
X50.031Y13.935
X50.481Y17.25
X50.481Y16.74
X50.481Y16.23
X50.481Y15.72
X50.481Y15.21
X50.481Y14.7
X50.481Y14.19
X50.931Y17.505
X50.931Y16.995
X50.931Y16.485
X50.931Y15.975
X50.931Y15.465
X50.931Y14.955
X50.931Y14.445
X50.931Y13.935
X51.381Y17.25
X51.381Y16.74
X51.381Y16.23
X51.381Y15.72
X51.381Y15.21
X51.381Y14.7
X51.381Y14.19
X53.321Y17.25
X53.321Y16.74
X53.321Y16.23
X53.321Y15.72
X53.321Y15.21
X53.321Y14.7
X53.321Y14.19
X53.771Y17.505
X53.771Y16.995
X53.771Y16.485
X53.771Y15.975
X53.771Y15.465
X53.771Y14.955
X53.771Y14.445
X53.771Y13.935
X54.221Y17.25
X54.221Y16.74
X54.221Y16.23
X54.221Y15.72
X54.221Y15.21
X54.221Y14.7
X54.221Y14.19
X54.671Y17.505
X54.671Y16.995
X54.671Y14.445
X54.671Y13.935
X55.121Y17.25
X55.121Y14.19
X55.571Y17.505
X55.571Y13.935
X56.331Y17.505
X56.331Y13.935
X56.781Y17.25
X56.781Y14.19
X57.231Y17.505
X57.231Y16.995
X57.231Y14.445
X57.231Y13.935
X57.681Y17.25
X57.681Y16.74
X57.681Y16.23
X57.681Y15.72
X57.681Y15.21
X57.681Y14.7
X57.681Y14.19
X58.131Y17.505
X58.131Y16.995
X58.131Y16.485
X58.131Y15.975
X58.131Y15.465
X58.131Y14.955
X58.131Y14.445
X58.131Y13.935
X58.581Y17.25
X58.581Y16.74
X58.581Y16.23
X58.581Y15.72
X58.581Y15.21
X58.581Y14.7
X58.581Y14.19
X71.815Y17.231
X71.815Y16.721
X71.815Y16.211
X71.815Y15.701
X71.815Y15.191
X71.815Y14.681
X71.815Y14.171
X72.265Y17.486
X72.265Y16.976
X72.265Y16.466
X72.265Y15.956
X72.265Y15.446
X72.265Y14.936
X72.265Y14.426
X72.265Y13.916
X72.715Y17.231
X72.715Y16.721
X72.715Y16.211
X72.715Y15.701
X72.715Y15.191
X72.715Y14.681
X72.715Y14.171
X73.165Y17.486
X73.165Y16.976
X73.165Y14.426
X73.165Y13.916
X73.615Y17.231
X73.615Y14.171
X74.065Y17.486
X74.065Y13.916
X74.825Y17.486
X74.825Y13.916
X75.275Y17.231
X75.275Y14.171
X75.725Y17.486
X75.725Y16.976
X75.725Y14.426
X75.725Y13.916
X76.175Y17.231
X76.175Y16.721
X76.175Y16.211
X76.175Y15.701
X76.175Y15.191
X76.175Y14.681
X76.175Y14.171
X76.625Y17.486
X76.625Y16.976
X76.625Y16.466
X76.625Y15.956
X76.625Y15.446
X76.625Y14.936
X76.625Y14.426
X76.625Y13.916
X77.075Y17.231
X77.075Y16.721
X77.075Y16.211
X77.075Y15.701
X77.075Y15.191
X77.075Y14.681
X77.075Y14.171
X79.015Y17.231
X79.015Y16.721
X79.015Y16.211
X79.015Y15.701
X79.015Y15.191
X79.015Y14.681
X79.015Y14.171
X79.465Y17.486
X79.465Y16.976
X79.465Y16.466
X79.465Y15.956
X79.465Y15.446
X79.465Y14.936
X79.465Y14.426
X79.465Y13.916
X79.915Y17.231
X79.915Y16.721
X79.915Y16.211
X79.915Y15.701
X79.915Y15.191
X79.915Y14.681
X79.915Y14.171
X80.365Y17.486
X80.365Y16.976
X80.365Y14.426
X80.365Y13.916
X80.815Y17.231
X80.815Y14.171
X81.265Y17.486
X81.265Y13.916
X82.025Y17.486
X82.025Y13.916
X82.475Y17.231
X82.475Y14.171
X82.925Y17.486
X82.925Y16.976
X82.925Y14.426
X82.925Y13.916
X83.375Y17.231
X83.375Y16.721
X83.375Y16.211
X83.375Y15.701
X83.375Y15.191
X83.375Y14.681
X83.375Y14.171
X83.825Y17.486
X83.825Y16.976
X83.825Y16.466
X83.825Y15.956
X83.825Y15.446
X83.825Y14.936
X83.825Y14.426
X83.825Y13.916
X84.275Y17.231
X84.275Y16.721
X84.275Y16.211
X84.275Y15.701
X84.275Y15.191
X84.275Y14.681
X84.275Y14.171
T2
X0.6Y60.6
X0.6Y56.85
X0.6Y53.35
X0.6Y49.85
X0.6Y32.2
X0.6Y22.7
X0.6Y22.0
X0.6Y21.3
X0.6Y20.6
X0.6Y19.9
X0.6Y19.2
X0.6Y18.4
X0.6Y17.7
X0.6Y17.0
X0.6Y16.2
X0.6Y15.5
X0.6Y14.8
X0.6Y14.1
X0.6Y13.4
X0.6Y12.7
X0.6Y12.0
X0.6Y11.3
X0.6Y10.6
X0.6Y9.9
X0.6Y9.2
X0.6Y8.5
X0.6Y7.8
X0.6Y7.1
X0.6Y6.4
X0.6Y5.7
X0.65Y44.65
X0.65Y40.9
X0.65Y37.3
X0.65Y33.9
X0.75Y30.0
X0.75Y27.5
X0.75Y25.0
X1.3Y32.5
X1.3Y22.7
X1.3Y22.0
X1.3Y21.3
X1.3Y20.6
X1.3Y19.9
X1.3Y19.2
X1.3Y18.4
X1.3Y17.7
X1.3Y17.0
X1.3Y16.2
X1.3Y15.5
X1.3Y14.8
X1.3Y14.1
X1.3Y13.4
X1.3Y12.7
X1.3Y12.0
X1.3Y11.3
X1.3Y10.6
X1.3Y9.9
X1.3Y9.2
X1.3Y8.5
X1.3Y7.8
X1.3Y7.1
X1.35Y62.35
X1.35Y58.6
X1.35Y55.1
X1.35Y51.6
X1.35Y48.1
X1.4Y46.4
X1.4Y42.65
X1.4Y39.05
X1.4Y35.65
X1.5Y31.25
X1.5Y28.75
X1.5Y26.25
X1.5Y24.0
X2.0Y32.5
X2.0Y22.7
X2.0Y22.0
X2.0Y21.3
X2.0Y20.6
X2.0Y19.9
X2.0Y19.2
X2.0Y18.4
X2.0Y17.7
X2.0Y17.0
X2.0Y16.2
X2.0Y15.5
X2.0Y14.8
X2.0Y14.1
X2.0Y13.4
X2.0Y12.7
X2.0Y12.0
X2.0Y11.3
X2.0Y10.6
X2.0Y9.9
X2.0Y9.2
X2.0Y8.5
X2.0Y7.8
X2.0Y7.1
X2.25Y30.0
X2.25Y27.5
X2.25Y25.0
X2.35Y60.6
X2.35Y56.85
X2.35Y53.35
X2.4Y44.65
X2.4Y40.9
X2.4Y37.3
X2.4Y33.9
X2.7Y32.5
X2.7Y16.2
X2.7Y15.5
X2.7Y14.8
X2.7Y14.1
X2.7Y13.4
X2.7Y12.7
X2.7Y12.0
X2.7Y11.3
X2.7Y10.6
X2.7Y9.9
X2.7Y9.2
X2.7Y8.5
X2.7Y7.8
X3.0Y31.25
X3.0Y28.75
X3.0Y26.25
X3.35Y62.35
X3.35Y58.6
X3.35Y55.1
X3.35Y51.6
X3.35Y48.1
X3.4Y46.4
X3.4Y42.65
X3.4Y39.05
X3.4Y35.65
X3.4Y32.5
X3.4Y16.2
X3.4Y15.5
X3.4Y14.8
X3.4Y14.1
X3.4Y13.4
X3.4Y12.7
X3.4Y12.0
X3.4Y11.3
X3.4Y10.6
X3.4Y9.9
X3.4Y9.2
X3.4Y8.5
X3.4Y7.8
X3.5Y22.25
X3.5Y19.75
X3.75Y30.0
X3.75Y27.5
X3.75Y25.0
X4.1Y32.5
X4.1Y16.2
X4.1Y15.5
X4.1Y12.65
X4.1Y12.0
X4.1Y11.3
X4.1Y10.6
X4.1Y9.9
X4.1Y9.2
X4.1Y8.5
X4.1Y7.8
X4.25Y23.5
X4.25Y21.0
X4.25Y18.5
X4.35Y60.6
X4.35Y56.85
X4.35Y53.35
X4.35Y49.85
X4.4Y44.65
X4.4Y40.9
X4.4Y37.3
X4.4Y33.9
X4.5Y31.25
X4.5Y28.75
X4.5Y26.25
X4.8Y32.5
X4.8Y16.2
X4.8Y15.5
X4.8Y12.65
X4.8Y12.0
X4.8Y11.3
X4.8Y10.6
X4.8Y9.9
X4.8Y9.2
X4.8Y8.5
X5.0Y22.25
X5.0Y19.75
X5.0Y17.45
X5.025Y14.025
X5.25Y30.0
X5.25Y27.5
X5.25Y25.0
X5.35Y62.35
X5.35Y58.6
X5.35Y55.1
X5.35Y51.6
X5.35Y48.1
X5.4Y46.4
X5.4Y42.65
X5.4Y39.05
X5.4Y35.65
X5.5Y32.5
X5.5Y16.2
X5.5Y12.65
X5.5Y12.0
X5.5Y11.3
X5.5Y10.6
X5.5Y9.9
X6.0Y31.25
X6.0Y28.75
X6.0Y26.25
X6.0Y23.5
X6.0Y21.0
X6.0Y18.5
X6.2Y32.5
X6.2Y12.65
X6.2Y12.0
X6.2Y11.3
X6.2Y10.6
X6.2Y9.9
X6.25Y9.0
X6.35Y60.6
X6.35Y56.85
X6.35Y53.35
X6.35Y49.85
X6.35Y22.25
X6.4Y44.65
X6.4Y40.9
X6.4Y37.3
X6.4Y33.9
X6.75Y30.0
X6.75Y27.5
X6.75Y19.75
X6.75Y17.45
X6.9Y32.5
X6.9Y12.65
X6.9Y12.0
X6.9Y11.3
X6.9Y10.6
X6.9Y9.9
X7.25Y2.25
X7.25Y1.25
X7.35Y62.35
X7.35Y58.6
X7.35Y55.1
X7.35Y51.6
X7.35Y48.1
X7.4Y46.4
X7.4Y42.65
X7.4Y39.05
X7.4Y35.65
X7.4Y24.0
X7.5Y28.75
X7.5Y21.0
X7.5Y18.5
X7.5Y12.4
X7.5Y11.7
X7.5Y11.0
X7.5Y9.25
X7.508Y7.031
X7.6Y32.5
X7.7Y69.6
X8.012Y68.475
X8.1Y14.1
X8.1Y13.4
X8.1Y12.7
X8.1Y12.0
X8.1Y11.3
X8.25Y30.0
X8.25Y22.25
X8.25Y19.75
X8.25Y17.45
X8.25Y7.77
X8.35Y60.6
X8.35Y56.85
X8.35Y53.35
X8.35Y49.85
X8.4Y44.65
X8.4Y40.9
X8.4Y37.3
X8.4Y33.9
X8.45Y15.35
X8.5Y1.25
X8.7Y69.6
X8.8Y14.8
X8.8Y14.1
X8.8Y13.4
X8.8Y12.7
X8.8Y12.0
X8.8Y11.3
X9.0Y28.75
X9.0Y21.0
X9.0Y18.5
X9.0Y8.25
X9.25Y23.5
X9.35Y26.0
X9.512Y68.525
X9.7Y69.6
X9.75Y30.0
X9.75Y17.45
X9.75Y1.25
X10.0Y24.75
X10.0Y22.25
X10.0Y19.75
X10.218Y2.468
X10.5Y59.95
X10.5Y59.2
X10.5Y58.45
X10.5Y57.7
X10.5Y56.95
X10.5Y56.2
X10.5Y55.45
X10.5Y54.7
X10.5Y53.95
X10.5Y53.2
X10.5Y52.45
X10.5Y51.7
X10.5Y50.95
X10.5Y42.9
X10.5Y42.15
X10.5Y41.4
X10.5Y40.65
X10.5Y39.9
X10.5Y39.15
X10.5Y38.4
X10.5Y37.65
X10.5Y36.9
X10.5Y36.15
X10.5Y35.45
X10.5Y34.7
X10.5Y33.95
X10.5Y28.75
X10.5Y14.75
X10.5Y12.25
X10.525Y68.25
X10.525Y67.45
X10.525Y66.7
X10.525Y65.95
X10.525Y65.2
X10.525Y64.45
X10.525Y63.7
X10.525Y62.95
X10.725Y69.1
X10.75Y26.0
X10.75Y23.5
X10.75Y21.0
X10.75Y18.5
X10.75Y5.5
X10.75Y4.75
X10.75Y4.0
X11.0Y1.25
X11.075Y69.7
X11.1Y8.5
X11.25Y68.25
X11.25Y67.45
X11.25Y66.7
X11.25Y65.95
X11.25Y65.2
X11.25Y64.45
X11.25Y63.7
X11.25Y62.95
X11.25Y62.2
X11.25Y61.45
X11.25Y60.7
X11.25Y59.95
X11.25Y59.2
X11.25Y58.45
X11.25Y57.7
X11.25Y56.95
X11.25Y56.2
X11.25Y55.45
X11.25Y54.7
X11.25Y53.95
X11.25Y53.2
X11.25Y52.45
X11.25Y51.7
X11.25Y50.95
X11.25Y50.2
X11.25Y43.65
X11.25Y42.9
X11.25Y42.15
X11.25Y41.4
X11.25Y40.65
X11.25Y39.9
X11.25Y39.15
X11.25Y38.4
X11.25Y37.65
X11.25Y36.9
X11.25Y36.15
X11.25Y35.45
X11.25Y34.7
X11.25Y33.95
X11.25Y33.2
X11.25Y32.45
X11.25Y30.0
X11.25Y13.5
X11.25Y11.0
X11.25Y7.5
X11.25Y6.25
X11.45Y69.1
X11.5Y24.75
X11.5Y22.25
X11.5Y19.75
X11.5Y17.45
X11.6Y3.2
X11.601Y1.851
X11.8Y69.7
X12.0Y55.45
X12.0Y54.7
X12.0Y53.95
X12.0Y53.2
X12.0Y52.45
X12.0Y51.7
X12.0Y50.95
X12.0Y50.2
X12.0Y49.45
X12.0Y48.7
X12.0Y45.15
X12.0Y44.4
X12.0Y43.65
X12.0Y42.9
X12.0Y42.15
X12.0Y41.4
X12.0Y40.65
X12.0Y39.9
X12.0Y31.25
X12.0Y28.75
X12.0Y14.75
X12.0Y12.25
X12.25Y26.0
X12.25Y23.5
X12.25Y21.0
X12.25Y18.5
X12.25Y6.775
X12.45Y47.8
X12.45Y46.925
X12.45Y46.05
X12.5Y67.5
X12.5Y65.5
X12.5Y63.5
X12.5Y61.25
X12.5Y59.5
X12.5Y57.5
X12.75Y54.7
X12.75Y53.95
X12.75Y53.2
X12.75Y52.45
X12.75Y51.7
X12.75Y50.95
X12.75Y50.2
X12.75Y49.45
X12.75Y48.7
X12.75Y45.15
X12.75Y44.4
X12.75Y43.65
X12.75Y42.9
X12.75Y42.15
X12.75Y41.4
X12.75Y40.65
X12.75Y39.9
X12.75Y30.0
X12.75Y13.5
X12.75Y11.0
X13.2Y2.6
X13.25Y68.5
X13.25Y66.5
X13.25Y64.5
X13.25Y62.5
X13.3Y47.8
X13.3Y46.925
X13.3Y46.05
X13.45Y54.55
X13.5Y31.25
X13.5Y28.75
X13.5Y14.75
X13.5Y12.25
X13.7Y7.0
X13.9Y6.2
X13.9Y2.0
X14.0Y69.5
X14.0Y67.5
X14.0Y65.5
X14.0Y63.5
X14.05Y47.8
X14.05Y46.925
X14.05Y46.05
X14.15Y4.7
X14.25Y30.0
X14.25Y16.0
X14.25Y13.5
X14.6Y6.9
X14.6Y6.2
X14.6Y2.0
X14.75Y68.5
X14.75Y66.5
X14.75Y64.5
X14.75Y62.5
X14.8Y47.8
X14.8Y46.925
X14.8Y46.05
X14.9Y12.25
X15.0Y31.25
X15.0Y28.75
X15.0Y14.75
X15.3Y7.6
X15.3Y6.9
X15.3Y6.2
X15.3Y2.0
X15.5Y69.5
X15.5Y67.5
X15.5Y65.5
X15.5Y63.5
X15.55Y47.8
X15.55Y46.925
X15.55Y46.05
X15.75Y30.0
X15.75Y23.75
X15.75Y21.0
X15.75Y18.5
X15.75Y16.0
X15.75Y13.5
X16.0Y8.3
X16.0Y7.6
X16.0Y6.9
X16.0Y6.2
X16.0Y2.0
X16.25Y68.5
X16.25Y66.5
X16.25Y64.5
X16.25Y62.5
X16.3Y47.8
X16.3Y46.05
X16.35Y46.925
X16.5Y31.25
X16.5Y28.75
X16.5Y22.5
X16.5Y19.75
X16.5Y17.25
X16.5Y14.75
X16.7Y2.0
X17.0Y69.5
X17.0Y67.5
X17.0Y65.5
X17.0Y63.5
X17.05Y47.8
X17.05Y46.05
X17.1Y46.925
X17.25Y30.0
X17.25Y23.75
X17.25Y21.0
X17.25Y18.5
X17.25Y16.0
X17.4Y2.0
X17.5Y10.25
X17.5Y7.8
X17.75Y68.5
X17.75Y66.5
X17.75Y64.5
X17.75Y62.5
X17.75Y60.5
X17.75Y58.5
X17.75Y56.5
X17.85Y54.5
X17.85Y53.8
X17.85Y53.05
X17.85Y52.3
X17.85Y51.55
X17.85Y50.8
X17.85Y50.05
X17.85Y49.3
X17.85Y48.55
X17.85Y47.8
X17.85Y46.925
X17.85Y46.05
X17.85Y45.3
X17.85Y44.55
X17.85Y43.8
X17.85Y43.05
X17.85Y42.35
X17.85Y41.65
X17.85Y40.95
X17.85Y40.25
X18.0Y38.0
X18.0Y35.5
X18.0Y33.0
X18.0Y31.25
X18.0Y28.75
X18.0Y22.5
X18.0Y19.75
X18.0Y17.25
X18.1Y2.0
X18.25Y9.05
X18.25Y6.55
X18.25Y4.05
X18.4Y11.55
X18.5Y69.5
X18.5Y67.5
X18.5Y65.5
X18.5Y63.5
X18.5Y61.5
X18.5Y59.5
X18.5Y57.5
X18.6Y54.5
X18.6Y53.8
X18.6Y53.05
X18.6Y52.3
X18.6Y51.55
X18.6Y50.8
X18.6Y50.05
X18.6Y49.3
X18.6Y48.55
X18.6Y45.3
X18.6Y44.55
X18.6Y43.8
X18.6Y43.05
X18.6Y42.35
X18.6Y41.65
X18.6Y40.95
X18.6Y40.25
X18.7Y16.05
X18.75Y36.75
X18.75Y34.25
X18.75Y30.0
X18.75Y23.75
X18.75Y21.0
X18.75Y18.5
X18.8Y2.0
X19.0Y10.3
X19.0Y7.8
X19.0Y5.3
X19.25Y68.5
X19.25Y66.5
X19.25Y64.5
X19.25Y62.5
X19.25Y60.5
X19.25Y58.5
X19.25Y56.5
X19.35Y54.5
X19.35Y53.75
X19.35Y53.05
X19.35Y52.35
X19.35Y51.55
X19.35Y50.8
X19.35Y50.05
X19.35Y49.3
X19.35Y44.55
X19.35Y43.8
X19.35Y43.05
X19.35Y42.35
X19.35Y41.65
X19.35Y40.95
X19.35Y40.25
X19.5Y38.0
X19.5Y35.5
X19.5Y33.0
X19.5Y31.25
X19.5Y28.75
X19.5Y2.0
X19.75Y11.55
X19.75Y9.05
X19.75Y6.55
X19.75Y4.05
X20.0Y69.5
X20.0Y67.5
X20.0Y65.5
X20.0Y63.5
X20.0Y61.5
X20.0Y59.5
X20.0Y57.5
X20.1Y54.5
X20.1Y53.75
X20.1Y53.05
X20.1Y52.35
X20.1Y51.55
X20.1Y50.8
X20.1Y50.05
X20.1Y49.3
X20.1Y44.55
X20.1Y43.8
X20.1Y43.05
X20.1Y42.35
X20.1Y41.65
X20.1Y40.95
X20.1Y40.25
X20.2Y2.0
X20.25Y36.75
X20.25Y34.25
X20.25Y30.0
X20.4Y22.7
X20.5Y20.2
X20.5Y19.45
X20.5Y18.7
X20.5Y12.8
X20.5Y10.3
X20.5Y7.8
X20.5Y5.3
X20.75Y68.5
X20.75Y66.5
X20.75Y64.5
X20.75Y62.5
X20.75Y60.5
X20.75Y58.5
X20.75Y56.5
X20.85Y54.5
X20.85Y53.75
X20.85Y53.05
X20.85Y52.35
X20.85Y51.55
X20.85Y50.8
X20.85Y50.05
X20.85Y49.3
X20.85Y48.55
X20.85Y45.3
X20.85Y44.55
X20.85Y43.8
X20.85Y43.05
X20.85Y42.35
X20.85Y41.65
X20.85Y40.95
X20.85Y40.25
X20.9Y2.0
X21.0Y38.0
X21.0Y35.5
X21.0Y31.25
X21.25Y14.05
X21.25Y11.55
X21.25Y9.05
X21.25Y6.55
X21.25Y4.05
X21.5Y69.5
X21.5Y67.5
X21.5Y65.5
X21.5Y63.5
X21.5Y61.5
X21.5Y59.5
X21.5Y57.5
X21.5Y22.05
X21.6Y54.5
X21.6Y53.8
X21.6Y53.05
X21.6Y52.3
X21.6Y51.55
X21.6Y50.8
X21.6Y50.05
X21.6Y49.3
X21.6Y48.55
X21.6Y47.8
X21.6Y46.9
X21.6Y46.05
X21.6Y45.3
X21.6Y44.55
X21.6Y43.8
X21.6Y43.05
X21.6Y42.35
X21.6Y41.65
X21.6Y40.95
X21.6Y40.25
X21.6Y2.0
X21.75Y36.75
X21.75Y34.25
X21.75Y30.0
X21.95Y25.8
X22.0Y12.8
X22.0Y10.3
X22.0Y7.8
X22.0Y5.3
X22.25Y68.5
X22.25Y66.5
X22.25Y64.5
X22.25Y62.5
X22.25Y60.5
X22.25Y58.5
X22.25Y56.5
X22.3Y2.0
X22.325Y44.125
X22.5Y38.0
X22.5Y35.5
X22.5Y31.25
X22.6Y54.0
X22.75Y11.55
X22.75Y9.05
X22.75Y6.55
X22.75Y4.05
X22.925Y44.575
X23.0Y69.5
X23.0Y67.5
X23.0Y65.5
X23.0Y63.5
X23.0Y61.5
X23.0Y59.5
X23.0Y57.5
X23.0Y55.5
X23.0Y2.0
X23.2Y53.55
X23.25Y42.0
X23.25Y39.5
X23.25Y36.75
X23.25Y30.0
X23.25Y16.275
X23.3Y21.81
X23.4Y19.85
X23.5Y7.75
X23.5Y5.3
X23.625Y44.875
X23.7Y22.725
X23.7Y18.2
X23.7Y2.0
X23.75Y68.5
X23.75Y66.5
X23.75Y64.5
X23.75Y62.5
X23.75Y60.5
X23.75Y58.5
X23.75Y56.5
X23.775Y25.7
X23.8Y53.1
X23.9Y24.38
X23.91Y14.21
X24.0Y43.25
X24.0Y40.75
X24.0Y38.0
X24.0Y31.25
X24.095Y20.7
X24.151Y19.5
X24.25Y9.05
X24.25Y6.55
X24.25Y4.05
X24.4Y2.0
X24.45Y45.0
X24.5Y69.5
X24.5Y67.5
X24.5Y65.5
X24.5Y63.5
X24.5Y61.5
X24.5Y59.5
X24.5Y57.5
X24.5Y55.5
X24.5Y52.6
X24.6Y11.14
X24.6Y10.5
X24.75Y42.0
X24.75Y39.5
X24.75Y36.75
X24.75Y30.0
X25.0Y17.1
X25.0Y5.3
X25.1Y52.15
X25.1Y2.0
X25.2Y51.15
X25.2Y50.45
X25.2Y49.7
X25.2Y49.0
X25.2Y48.3
X25.2Y47.6
X25.2Y46.9
X25.2Y46.2
X25.2Y45.0
X25.25Y68.5
X25.25Y66.5
X25.25Y64.5
X25.25Y62.5
X25.25Y60.5
X25.25Y58.5
X25.25Y56.5
X25.25Y54.5
X25.5Y43.25
X25.5Y40.75
X25.5Y38.0
X25.5Y35.5
X25.5Y31.25
X25.7Y51.7
X25.7Y24.7
X25.75Y4.05
X25.8Y2.0
X25.95Y45.0
X26.0Y69.5
X26.0Y67.5
X26.0Y65.5
X26.0Y63.5
X26.0Y61.5
X26.0Y59.5
X26.0Y57.5
X26.0Y55.5
X26.0Y53.5
X26.15Y10.85
X26.15Y10.15
X26.15Y9.45
X26.15Y8.75
X26.15Y8.05
X26.2Y26.6
X26.25Y42.0
X26.25Y39.5
X26.25Y36.75
X26.25Y30.0
X26.3Y51.25
X26.35Y7.35
X26.5Y2.1
X26.6Y25.2
X26.7Y47.975
X26.75Y68.5
X26.75Y66.5
X26.75Y64.5
X26.75Y62.5
X26.75Y60.5
X26.75Y58.5
X26.75Y56.5
X26.75Y54.5
X26.75Y52.5
X26.75Y45.0
X26.8Y6.7
X26.85Y50.85
X26.9Y14.22
X26.925Y21.975
X26.925Y20.825
X26.925Y19.675
X27.0Y43.25
X27.0Y40.75
X27.0Y38.0
X27.0Y35.5
X27.0Y31.25
X27.0Y28.75
X27.0Y26.0
X27.1Y2.4
X27.4Y6.2
X27.45Y50.4
X27.5Y69.5
X27.5Y67.5
X27.5Y65.5
X27.5Y63.5
X27.5Y61.5
X27.5Y59.5
X27.5Y57.5
X27.5Y55.5
X27.5Y53.5
X27.5Y45.0
X27.6Y3.0
X27.7Y2.1
X27.75Y42.0
X27.75Y39.5
X27.75Y36.75
X27.75Y30.0
X27.75Y27.55
X27.8Y4.3
X27.8Y3.6
X28.0Y12.25
X28.0Y10.25
X28.0Y8.0
X28.05Y49.95
X28.05Y5.9
X28.1Y21.975
X28.1Y16.4
X28.125Y20.825
X28.125Y19.65
X28.15Y2.6
X28.2Y49.0
X28.2Y48.3
X28.2Y47.6
X28.2Y46.9
X28.2Y46.2
X28.25Y68.5
X28.25Y66.5
X28.25Y64.5
X28.25Y62.5
X28.25Y60.5
X28.25Y58.5
X28.25Y56.5
X28.25Y54.5
X28.25Y52.5
X28.25Y45.0
X28.5Y43.25
X28.5Y40.75
X28.5Y38.0
X28.5Y35.5
X28.5Y31.25
X28.5Y28.75
X28.75Y49.45
X28.75Y13.25
X28.75Y11.25
X28.75Y9.0
X28.75Y5.9
X28.75Y4.3
X28.75Y3.6
X28.75Y2.9
X28.75Y2.2
X29.0Y69.5
X29.0Y67.5
X29.0Y65.5
X29.0Y63.5
X29.0Y61.5
X29.0Y59.5
X29.0Y57.5
X29.0Y55.5
X29.0Y53.5
X29.0Y51.5
X29.0Y45.0
X29.25Y42.0
X29.25Y39.5
X29.25Y36.75
X29.25Y30.0
X29.25Y27.55
X29.4Y48.95
X29.4Y16.4
X29.45Y5.9
X29.46Y25.2
X29.5Y12.25
X29.5Y10.25
X29.5Y8.0
X29.75Y68.5
X29.75Y66.5
X29.75Y64.5
X29.75Y62.5
X29.75Y60.5
X29.75Y58.5
X29.75Y56.5
X29.75Y54.5
X29.75Y52.5
X29.75Y50.5
X29.8Y44.975
X30.0Y43.25
X30.0Y40.75
X30.0Y38.0
X30.0Y35.5
X30.0Y31.25
X30.0Y28.75
X30.05Y48.45
X30.15Y5.9
X30.25Y13.25
X30.25Y11.25
X30.25Y9.0
X30.25Y2.575
X30.5Y69.5
X30.5Y67.5
X30.5Y65.5
X30.5Y63.5
X30.5Y61.5
X30.5Y59.5
X30.5Y57.5
X30.5Y55.5
X30.5Y53.5
X30.5Y51.5
X30.5Y44.85
X30.7Y48.0
X30.75Y42.0
X30.75Y39.5
X30.75Y36.75
X30.75Y30.0
X30.75Y27.55
X30.85Y5.9
X30.93Y16.4
X31.0Y12.25
X31.0Y10.25
X31.0Y8.0
X31.15Y21.9
X31.25Y68.5
X31.25Y66.5
X31.25Y64.5
X31.25Y62.5
X31.25Y60.5
X31.25Y58.5
X31.25Y56.5
X31.25Y54.5
X31.25Y52.5
X31.25Y50.5
X31.25Y18.2
X31.3Y47.55
X31.35Y44.55
X31.5Y40.75
X31.5Y38.0
X31.5Y35.5
X31.5Y31.25
X31.5Y28.75
X31.55Y21.2
X31.55Y5.9
X31.75Y15.25
X31.75Y14.45
X31.75Y13.25
X31.75Y11.25
X31.75Y9.0
X31.75Y4.3
X31.75Y3.6
X31.75Y2.9
X31.75Y2.2
X31.9Y47.1
X31.95Y44.1
X32.0Y69.5
X32.0Y67.5
X32.0Y65.5
X32.0Y63.5
X32.0Y61.5
X32.0Y59.5
X32.0Y57.5
X32.0Y55.5
X32.0Y53.5
X32.0Y51.5
X32.0Y49.5
X32.2Y16.4
X32.21Y17.4
X32.241Y19.475
X32.25Y39.5
X32.25Y36.75
X32.25Y30.0
X32.25Y27.55
X32.25Y5.9
X32.45Y14.45
X32.5Y46.65
X32.5Y15.25
X32.5Y12.25
X32.5Y10.25
X32.5Y8.0
X32.55Y43.65
X32.554Y18.161
X32.75Y68.5
X32.75Y66.5
X32.75Y64.5
X32.75Y62.5
X32.75Y60.5
X32.75Y58.5
X32.75Y56.5
X32.75Y54.5
X32.75Y52.5
X32.75Y50.5
X32.95Y5.9
X33.0Y40.75
X33.0Y38.0
X33.0Y35.5
X33.0Y31.25
X33.0Y28.75
X33.1Y46.2
X33.15Y43.2
X33.15Y14.45
X33.21Y23.39
X33.21Y22.55
X33.25Y13.25
X33.25Y11.25
X33.25Y9.0
X33.5Y69.5
X33.5Y67.5
X33.5Y65.5
X33.5Y63.5
X33.5Y61.5
X33.5Y59.5
X33.5Y57.5
X33.5Y55.5
X33.5Y53.5
X33.5Y51.5
X33.65Y5.9
X33.7Y45.75
X33.75Y42.75
X33.75Y39.5
X33.75Y36.75
X33.75Y30.0
X33.85Y14.45
X34.0Y12.25
X34.0Y10.25
X34.0Y8.0
X34.031Y24.577
X34.25Y68.5
X34.25Y66.5
X34.25Y64.5
X34.25Y62.5
X34.25Y60.5
X34.25Y58.5
X34.25Y56.5
X34.25Y54.5
X34.25Y52.5
X34.3Y45.3
X34.35Y42.3
X34.35Y5.9
X34.55Y14.45
X34.75Y13.25
X34.75Y11.25
X34.75Y9.0
X34.9Y44.85
X34.95Y41.85
X35.0Y69.5
X35.0Y67.5
X35.0Y65.5
X35.0Y63.5
X35.0Y61.5
X35.0Y59.5
X35.0Y57.5
X35.0Y55.5
X35.0Y53.5
X35.0Y35.0
X35.0Y3.6
X35.0Y2.9
X35.05Y5.9
X35.19Y23.45
X35.25Y14.45
X35.35Y41.125
X35.35Y35.725
X35.5Y44.4
X35.5Y40.25
X35.5Y39.5
X35.5Y38.75
X35.5Y38.0
X35.5Y37.25
X35.5Y36.5
X35.5Y34.5
X35.5Y12.25
X35.5Y10.25
X35.5Y8.0
X35.75Y68.5
X35.75Y66.5
X35.75Y64.5
X35.75Y62.5
X35.75Y60.5
X35.75Y58.5
X35.75Y56.5
X35.75Y54.5
X35.75Y5.9
X35.95Y14.45
X36.0Y34.0
X36.1Y43.95
X36.2Y25.5
X36.25Y13.25
X36.25Y11.25
X36.25Y9.0
X36.45Y5.9
X36.5Y69.5
X36.5Y67.5
X36.5Y65.5
X36.5Y63.5
X36.5Y61.5
X36.5Y59.5
X36.5Y57.5
X36.5Y33.5
X36.65Y14.5
X36.7Y43.5
X36.9Y26.8
X37.0Y12.25
X37.0Y10.25
X37.0Y8.0
X37.15Y14.95
X37.15Y5.9
X37.25Y68.5
X37.25Y66.5
X37.25Y64.5
X37.25Y62.5
X37.25Y60.5
X37.25Y58.5
X37.3Y43.05
X37.3Y42.3
X37.3Y41.55
X37.3Y40.8
X37.3Y40.05
X37.3Y39.3
X37.3Y38.55
X37.3Y37.8
X37.3Y37.05
X37.3Y36.3
X37.3Y35.55
X37.3Y34.8
X37.3Y34.05
X37.3Y33.3
X37.3Y32.55
X37.3Y31.8
X37.3Y31.05
X37.3Y30.3
X37.3Y29.55
X37.3Y28.8
X37.3Y28.1
X37.3Y27.3
X37.7Y15.45
X37.75Y13.25
X37.75Y11.25
X37.75Y9.0
X37.85Y5.9
X38.0Y69.5
X38.0Y67.5
X38.0Y65.5
X38.0Y63.5
X38.0Y61.5
X38.0Y59.5
X38.0Y4.3
X38.0Y3.6
X38.0Y2.9
X38.0Y2.2
X38.2Y15.95
X38.5Y14.25
X38.5Y12.25
X38.5Y10.25
X38.5Y8.0
X38.55Y5.9
X38.75Y68.5
X38.75Y66.5
X38.75Y64.5
X38.75Y62.5
X38.75Y60.5
X38.75Y16.45
X38.85Y23.6
X39.05Y17.15
X39.25Y17.85
X39.25Y15.25
X39.25Y13.25
X39.25Y11.25
X39.25Y9.0
X39.25Y5.9
X39.4Y18.55
X39.5Y69.5
X39.5Y67.5
X39.5Y65.5
X39.5Y63.5
X39.5Y2.575
X39.6Y19.25
X39.75Y19.9
X39.9Y23.6
X39.95Y20.7
X39.95Y5.9
X40.0Y14.25
X40.0Y12.25
X40.0Y10.25
X40.0Y8.0
X40.2Y21.45
X40.25Y68.5
X40.25Y66.5
X40.25Y64.5
X40.4Y22.15
X40.6Y22.8
X40.65Y5.9
X40.75Y17.25
X40.75Y15.25
X40.75Y13.25
X40.75Y11.25
X40.75Y9.0
X40.8Y23.55
X41.0Y69.5
X41.0Y67.5
X41.0Y65.5
X41.0Y40.0
X41.0Y39.25
X41.0Y38.5
X41.0Y37.75
X41.0Y37.0
X41.0Y36.25
X41.0Y35.5
X41.0Y34.75
X41.0Y34.0
X41.0Y33.25
X41.0Y32.5
X41.0Y31.75
X41.0Y31.0
X41.0Y30.25
X41.0Y29.5
X41.0Y28.75
X41.0Y28.0
X41.0Y27.25
X41.0Y26.5
X41.0Y25.75
X41.0Y25.0
X41.0Y4.3
X41.0Y3.6
X41.0Y2.9
X41.0Y2.2
X41.05Y24.25
X41.275Y20.5
X41.275Y18.5
X41.35Y6.15
X41.5Y16.25
X41.5Y14.25
X41.5Y12.25
X41.5Y10.25
X41.7Y25.975
X41.7Y25.175
X41.75Y68.5
X41.75Y66.5
X41.95Y6.6
X42.25Y17.25
X42.25Y15.25
X42.25Y13.25
X42.25Y11.25
X42.275Y23.5
X42.275Y21.5
X42.275Y19.5
X42.425Y25.8
X42.45Y7.3
X42.85Y8.05
X43.0Y16.25
X43.0Y14.25
X43.0Y12.25
X43.025Y24.5
X43.025Y22.5
X43.025Y20.5
X43.025Y18.5
X43.075Y26.4
X43.2Y8.75
X43.25Y4.9
X43.6Y9.35
X43.75Y17.25
X43.75Y15.25
X43.75Y13.25
X43.75Y11.25
X43.775Y23.5
X43.775Y21.5
X43.775Y19.5
X44.1Y35.8
X44.1Y33.8
X44.2Y9.75
X44.5Y16.25
X44.5Y14.25
X44.5Y12.25
X44.525Y24.5
X44.525Y22.5
X44.525Y20.5
X44.525Y18.5
X44.8Y39.9
X44.85Y36.8
X44.85Y34.8
X44.85Y32.8
X44.875Y31.25
X45.25Y17.25
X45.25Y15.25
X45.25Y13.25
X45.25Y7.7
X45.25Y3.7
X45.25Y1.7
X45.275Y25.5
X45.275Y23.5
X45.275Y21.5
X45.275Y19.5
X45.6Y37.8
X45.6Y35.8
X45.6Y33.8
X45.625Y31.25
X45.8Y42.875
X45.825Y30.45
X45.825Y29.65
X45.825Y28.9
X45.825Y28.15
X45.825Y27.45
X46.0Y12.25
X46.025Y24.5
X46.025Y22.5
X46.025Y20.5
X46.025Y18.5
X46.35Y36.8
X46.35Y34.8
X46.35Y32.8
X46.375Y31.25
X46.55Y27.475
X46.575Y30.45
X46.575Y29.65
X46.575Y28.9
X46.575Y28.15
X46.6Y40.0
X46.7Y46.25
X46.75Y13.25
X46.775Y25.5
X46.775Y23.5
X46.775Y21.5
X46.775Y19.5
X46.778Y43.525
X46.9Y69.6
X46.95Y10.7
X47.0Y8.7
X47.0Y4.7
X47.0Y2.7
X47.1Y37.8
X47.1Y35.8
X47.1Y33.8
X47.125Y31.25
X47.325Y30.45
X47.325Y29.65
X47.325Y28.9
X47.325Y28.15
X47.4Y68.9
X47.45Y47.25
X47.5Y12.25
X47.525Y26.5
X47.525Y24.5
X47.525Y22.5
X47.525Y20.5
X47.525Y18.5
X47.6Y40.0
X47.603Y10.9
X47.85Y36.8
X47.85Y34.8
X47.85Y32.8
X47.875Y31.25
X47.9Y43.35
X48.2Y48.25
X48.2Y46.25
X48.25Y13.25
X48.25Y11.05
X48.275Y21.5
X48.275Y19.5
X48.3Y40.8
X48.3Y40.0
X48.5Y65.875
X48.6Y64.8
X48.6Y43.375
X48.625Y31.25
X48.85Y35.8
X48.85Y33.8
X48.9Y11.2
X48.9Y9.8
X48.95Y49.25
X48.95Y47.25
X49.0Y20.5
X49.0Y7.7
X49.025Y26.5
X49.025Y22.5
X49.025Y18.5
X49.35Y43.35
X49.625Y31.15
X49.7Y50.25
X49.7Y48.25
X49.7Y46.25
X49.75Y19.5
X49.775Y25.5
X49.775Y23.5
X49.775Y21.5
X49.8Y61.0
X49.888Y41.725
X50.05Y43.35
X50.3Y35.9
X50.3Y35.15
X50.45Y51.25
X50.45Y49.25
X50.45Y47.25
X50.5Y34.1
X50.5Y33.35
X50.5Y32.55
X50.5Y31.8
X50.5Y31.05
X50.5Y30.3
X50.5Y29.55
X50.5Y28.871
X50.5Y20.5
X50.525Y26.5
X50.525Y24.5
X50.525Y22.5
X50.525Y18.5
X50.6Y12.05
X50.65Y37.9
X50.75Y2.7
X51.05Y35.9
X51.05Y35.15
X51.1Y62.3
X51.2Y52.25
X51.2Y50.25
X51.2Y48.25
X51.2Y46.25
X51.2Y12.4
X51.275Y25.5
X51.275Y23.5
X51.275Y21.5
X51.465Y40.69
X51.5Y37.92
X51.7Y11.9
X51.75Y19.5
X51.775Y34.5
X51.775Y33.26
X51.788Y42.704
X51.8Y12.7
X51.95Y53.25
X51.95Y51.25
X51.95Y49.25
X51.95Y47.25
X52.0Y26.5
X52.009Y41.773
X52.025Y24.5
X52.025Y22.5
X52.425Y13.25
X52.425Y12.5
X52.425Y11.75
X52.5Y3.6
X52.5Y1.7
X52.7Y54.25
X52.7Y52.25
X52.7Y50.25
X52.7Y48.25
X52.7Y46.25
X52.775Y34.5
X52.775Y25.5
X52.775Y23.5
X52.811Y38.9
X53.0Y20.35
X53.0Y19.658
X53.0Y18.954
X53.0Y18.25
X53.1Y62.3
X53.12Y33.25
X53.175Y13.25
X53.175Y12.5
X53.175Y11.75
X53.45Y55.25
X53.45Y53.25
X53.45Y51.25
X53.45Y49.25
X53.45Y47.25
X53.46Y31.35
X53.5Y24.5
X53.525Y30.725
X53.75Y21.1
X53.75Y20.4
X53.75Y19.65
X53.75Y18.25
X53.775Y28.49
X53.775Y26.3
X53.775Y19.0
X53.79Y34.82
X53.925Y13.25
X53.925Y12.5
X53.925Y11.75
X54.15Y21.75
X54.2Y54.25
X54.2Y52.25
X54.2Y50.25
X54.2Y48.25
X54.2Y46.25
X54.25Y8.7
X54.25Y4.7
X54.25Y2.7
X54.475Y30.784
X54.5Y21.1
X54.5Y20.4
X54.5Y19.65
X54.5Y18.25
X54.525Y19.0
X54.65Y28.8
X54.675Y13.25
X54.675Y12.5
X54.675Y11.75
X54.68Y39.9
X54.775Y34.0
X54.85Y27.595
X54.9Y21.75
X54.95Y55.25
X54.95Y53.25
X54.95Y51.25
X54.95Y49.25
X54.95Y47.25
X55.1Y62.1
X55.225Y44.65
X55.225Y43.9
X55.225Y43.15
X55.225Y42.4
X55.225Y41.65
X55.25Y21.1
X55.25Y20.4
X55.25Y19.65
X55.25Y18.25
X55.275Y23.25
X55.275Y22.475
X55.275Y19.0
X55.425Y13.25
X55.425Y12.5
X55.425Y11.75
X55.65Y39.75
X55.66Y40.71
X55.675Y33.5
X55.7Y54.25
X55.7Y52.25
X55.7Y50.25
X55.7Y48.25
X55.7Y46.25
X55.7Y27.595
X55.975Y44.65
X55.975Y43.9
X55.975Y43.15
X55.975Y42.4
X55.975Y41.65
X56.0Y10.0
X56.0Y7.7
X56.12Y38.7
X56.175Y13.25
X56.175Y12.5
X56.175Y11.75
X56.45Y55.25
X56.45Y53.25
X56.45Y51.25
X56.45Y49.25
X56.45Y47.25
X56.5Y25.5
X56.5Y23.5
X56.525Y21.5
X56.525Y19.5
X56.79Y39.75
X56.925Y13.25
X56.925Y12.5
X56.925Y11.75
X57.08Y38.7
X57.2Y54.25
X57.2Y52.25
X57.2Y50.25
X57.2Y48.25
X57.2Y46.25
X57.25Y24.5
X57.275Y26.5
X57.275Y22.5
X57.275Y20.5
X57.35Y32.8
X57.375Y37.4
X57.375Y32.15
X57.375Y31.4
X57.375Y30.65
X57.375Y29.9
X57.675Y13.25
X57.675Y12.5
X57.675Y11.75
X57.7Y58.3
X57.75Y8.7
X57.75Y4.7
X57.75Y2.7
X57.8Y33.4
X57.9Y34.05
X57.95Y55.25
X57.95Y53.25
X57.95Y51.25
X57.95Y49.25
X57.95Y47.25
X58.025Y29.0
X58.025Y25.5
X58.025Y23.5
X58.025Y21.5
X58.025Y19.5
X58.1Y32.8
X58.125Y32.15
X58.125Y31.4
X58.125Y30.65
X58.125Y29.95
X58.4Y13.25
X58.4Y12.5
X58.5Y33.4
X58.7Y54.25
X58.7Y52.25
X58.7Y50.25
X58.7Y48.25
X58.7Y46.25
X58.775Y26.5
X58.775Y24.5
X58.775Y22.5
X58.775Y20.5
X59.1Y13.25
X59.1Y12.5
X59.175Y17.1
X59.175Y16.35
X59.3Y15.55
X59.3Y14.8
X59.3Y14.05
X59.45Y55.25
X59.45Y53.25
X59.45Y51.25
X59.45Y49.25
X59.45Y47.25
X59.5Y57.7
X59.5Y7.7
X59.5Y3.7
X59.5Y1.7
X59.642Y42.221
X59.725Y25.55
X59.725Y23.55
X59.725Y21.55
X59.775Y19.5
X59.8Y13.25
X59.825Y35.4
X59.925Y17.1
X59.925Y16.35
X60.0Y15.55
X60.0Y14.8
X60.0Y14.05
X60.0Y5.75
X60.2Y52.25
X60.2Y48.25
X60.25Y54.25
X60.475Y26.55
X60.475Y24.55
X60.475Y20.55
X60.5Y22.5
X60.525Y18.5
X60.56Y28.05
X60.675Y35.4
X60.675Y17.1
X60.675Y16.35
X60.8Y42.5
X60.8Y41.7
X60.8Y4.7
X60.85Y39.575
X61.1Y54.9
X61.1Y54.1
X61.1Y53.3
X61.15Y55.925
X61.225Y25.55
X61.225Y23.55
X61.225Y21.55
X61.275Y19.5
X61.425Y17.1
X61.425Y16.35
X61.9Y53.1
X62.0Y22.5
X62.075Y26.45
X62.075Y24.45
X62.075Y20.45
X62.075Y18.45
X62.175Y17.1
X62.175Y16.35
X62.5Y45.0
X62.525Y51.0
X62.525Y49.0
X62.525Y47.0
X62.525Y43.0
X62.6Y65.698
X62.7Y53.1
X62.925Y17.1
X62.925Y16.35
X63.025Y25.5
X63.025Y23.5
X63.025Y21.5
X63.075Y19.45
X63.1Y57.075
X63.275Y52.0
X63.275Y50.0
X63.275Y48.0
X63.275Y46.0
X63.275Y44.0
X63.275Y42.0
X63.275Y40.0
X63.5Y53.1
X63.675Y17.1
X63.675Y16.35
X63.7Y33.6
X63.7Y31.7
X63.75Y22.5
X63.775Y24.5
X63.775Y20.5
X63.825Y18.45
X64.025Y51.0
X64.025Y49.0
X64.025Y47.0
X64.025Y45.0
X64.025Y43.0
X64.025Y41.0
X64.025Y39.0
X64.1Y11.5
X64.1Y5.3
X64.3Y53.1
X64.45Y16.55
X64.5Y17.3
X64.525Y25.55
X64.525Y23.5
X64.525Y21.5
X64.525Y19.45
X64.537Y14.6
X64.675Y2.25
X64.675Y1.5
X64.775Y52.0
X64.775Y50.0
X64.775Y48.0
X64.775Y46.0
X64.775Y44.0
X64.775Y42.0
X64.775Y40.0
X65.075Y17.7
X65.075Y16.9
X65.089Y61.739
X65.1Y53.1
X65.525Y51.0
X65.525Y49.0
X65.525Y47.0
X65.525Y45.0
X65.525Y43.0
X65.525Y41.0
X65.525Y39.0
X65.675Y3.25
X65.8Y62.45
X65.9Y53.1
X65.975Y58.0
X66.175Y35.65
X66.175Y33.65
X66.175Y31.65
X66.275Y52.0
X66.275Y50.0
X66.275Y46.0
X66.275Y44.0
X66.275Y42.0
X66.275Y40.0
X66.675Y3.25
X66.7Y53.1
X66.7Y9.8
X66.775Y23.25
X66.775Y21.25
X66.925Y34.65
X66.925Y32.65
X66.925Y30.65
X67.0Y55.0
X67.025Y51.0
X67.025Y49.0
X67.025Y47.0
X67.025Y45.0
X67.025Y43.0
X67.025Y41.0
X67.025Y39.0
X67.425Y19.6
X67.425Y18.85
X67.425Y18.1
X67.5Y53.1
X67.525Y24.25
X67.525Y22.25
X67.675Y35.65
X67.675Y33.65
X67.675Y31.65
X67.675Y29.65
X67.675Y2.25
X67.675Y1.5
X67.775Y52.0
X67.775Y50.0
X67.775Y48.0
X67.775Y46.0
X67.775Y44.0
X67.775Y42.0
X67.775Y40.0
X68.0Y54.0
X68.025Y57.2
X68.1Y67.8
X68.175Y19.6
X68.175Y18.85
X68.175Y18.1
X68.2Y53.1
X68.275Y27.25
X68.275Y25.25
X68.275Y23.25
X68.275Y21.25
X68.425Y34.65
X68.425Y32.65
X68.425Y30.65
X68.525Y51.0
X68.525Y49.0
X68.525Y47.0
X68.525Y45.0
X68.525Y43.0
X68.525Y41.0
X68.525Y39.0
X68.875Y19.6
X68.875Y18.85
X68.875Y18.1
X68.9Y53.2
X69.025Y26.25
X69.025Y24.25
X69.025Y22.25
X69.15Y4.0
X69.175Y35.65
X69.175Y33.65
X69.175Y31.65
X69.175Y29.65
X69.275Y60.01
X69.275Y50.0
X69.275Y48.0
X69.275Y46.0
X69.275Y44.0
X69.275Y42.0
X69.275Y40.0
X69.625Y19.6
X69.625Y18.85
X69.625Y18.1
X69.775Y27.25
X69.775Y25.25
X69.775Y23.25
X69.775Y21.25
X69.925Y34.65
X69.925Y32.65
X69.925Y30.65
X69.975Y17.5
X70.025Y51.0
X70.025Y49.0
X70.025Y47.0
X70.025Y45.0
X70.025Y43.0
X70.025Y41.0
X70.3Y62.7
X70.375Y19.6
X70.375Y18.85
X70.375Y18.1
X70.406Y57.75
X70.475Y17.0
X70.475Y16.25
X70.475Y15.5
X70.475Y14.75
X70.475Y14.0
X70.475Y13.25
X70.475Y12.5
X70.525Y26.25
X70.525Y24.25
X70.525Y22.25
X70.675Y35.65
X70.675Y33.65
X70.675Y31.65
X70.675Y29.65
X70.775Y60.75
X70.775Y58.75
X70.875Y17.55
X71.0Y7.75
X71.0Y5.75
X71.0Y3.75
X71.0Y1.75
X71.125Y19.6
X71.125Y18.85
X71.125Y18.175
X71.225Y17.0
X71.225Y16.25
X71.225Y15.5
X71.225Y14.75
X71.225Y14.0
X71.225Y13.25
X71.225Y12.5
X71.25Y47.8
X71.25Y47.0
X71.25Y46.25
X71.275Y27.25
X71.275Y25.25
X71.275Y23.25
X71.275Y21.25
X71.425Y34.65
X71.425Y32.65
X71.425Y30.65
X71.5Y55.2
X71.6Y66.2
X71.6Y65.0
X71.75Y42.75
X71.75Y40.75
X71.775Y44.75
X71.8Y50.4
X71.8Y49.5
X71.8Y47.25
X71.8Y46.65
X71.875Y19.6
X71.875Y18.85
X71.875Y18.1
X71.975Y13.25
X71.975Y12.5
X72.025Y26.25
X72.025Y24.25
X72.025Y22.25
X72.175Y35.65
X72.175Y33.65
X72.175Y31.65
X72.175Y29.65
X72.5Y41.75
X72.5Y39.75
X72.525Y43.75
X72.6Y46.6
X72.625Y19.6
X72.625Y18.85
X72.625Y18.1
X72.725Y13.25
X72.725Y12.5
X72.75Y8.75
X72.75Y4.75
X72.75Y2.75
X72.75Y1.0
X72.775Y49.5
X72.775Y27.25
X72.775Y25.25
X72.775Y23.25
X72.775Y21.25
X72.925Y34.65
X72.925Y32.65
X72.925Y30.65
X73.055Y59.0
X73.25Y58.0
X73.25Y42.75
X73.25Y40.75
X73.275Y44.75
X73.325Y48.1
X73.35Y46.625
X73.375Y19.6
X73.375Y18.85
X73.375Y18.1
X73.475Y13.25
X73.475Y12.5
X73.525Y26.25
X73.525Y24.25
X73.525Y22.25
X73.675Y35.65
X73.675Y33.65
X73.675Y31.65
X73.675Y29.65
X73.775Y49.5
X73.875Y59.0
X74.0Y41.75
X74.0Y39.75
X74.025Y43.75
X74.1Y46.6
X74.125Y19.6
X74.125Y18.85
X74.125Y18.1
X74.175Y57.975
X74.225Y13.25
X74.225Y12.5
X74.275Y51.725
X74.35Y20.225
X74.375Y27.2
X74.425Y34.65
X74.425Y32.65
X74.425Y30.65
X74.475Y25.3
X74.6Y64.8
X74.75Y42.75
X74.75Y40.75
X74.75Y7.75
X74.75Y5.75
X74.75Y3.75
X74.75Y1.75
X74.775Y49.5
X74.775Y48.25
X74.775Y44.75
X74.85Y46.6
X74.875Y18.85
X74.875Y18.1
X74.9Y63.5
X74.975Y13.25
X74.975Y12.5
X75.0Y21.15
X75.0Y20.45
X75.0Y19.7
X75.025Y21.8
X75.175Y35.65
X75.175Y33.65
X75.175Y31.65
X75.35Y22.375
X75.5Y41.75
X75.5Y39.75
X75.525Y43.75
X75.55Y46.6
X75.557Y59.512
X75.57Y52.74
X75.625Y18.85
X75.625Y18.1
X75.7Y57.4
X75.7Y21.8
X75.725Y13.25
X75.725Y12.5
X75.75Y51.525
X75.75Y21.15
X75.75Y20.45
X75.75Y19.7
X76.275Y46.6
X76.275Y44.75
X76.275Y42.75
X76.275Y40.75
X76.275Y38.75
X76.35Y21.8
X76.375Y18.85
X76.375Y18.1
X76.475Y13.25
X76.475Y12.5
X76.5Y21.15
X76.5Y20.45
X76.5Y19.7
X76.5Y8.75
X76.5Y4.75
X76.5Y2.75
X76.5Y1.0
X76.694Y62.037
X76.95Y50.73
X77.0Y46.6
X77.025Y51.75
X77.025Y43.75
X77.025Y41.75
X77.025Y39.75
X77.025Y37.75
X77.025Y35.75
X77.025Y33.75
X77.025Y31.75
X77.025Y29.75
X77.025Y27.75
X77.025Y25.75
X77.025Y23.75
X77.075Y19.55
X77.125Y18.85
X77.125Y18.1
X77.225Y13.25
X77.225Y12.5
X77.675Y66.4
X77.775Y46.625
X77.775Y44.75
X77.775Y42.75
X77.775Y40.75
X77.775Y38.75
X77.775Y36.75
X77.775Y34.75
X77.775Y32.75
X77.775Y30.75
X77.775Y28.75
X77.775Y26.75
X77.775Y24.75
X77.775Y22.75
X77.8Y55.575
X77.8Y56.555
X77.875Y13.2
X77.875Y12.5
X78.25Y7.75
X78.25Y5.75
X78.25Y3.75
X78.25Y1.75
X78.425Y12.8
X78.525Y43.75
X78.525Y41.75
X78.525Y39.75
X78.525Y37.75
X78.525Y35.75
X78.525Y33.75
X78.525Y31.75
X78.525Y29.75
X78.525Y27.75
X78.525Y25.75
X78.525Y23.75
X78.525Y21.75
X78.525Y19.75
X78.525Y17.5
X78.525Y15.5
X78.55Y46.6
X79.125Y12.65
X79.275Y56.25
X79.275Y46.6
X79.275Y44.75
X79.275Y42.75
X79.275Y40.75
X79.275Y38.75
X79.275Y36.75
X79.275Y34.75
X79.275Y32.75
X79.275Y30.75
X79.275Y28.75
X79.275Y26.75
X79.275Y24.75
X79.275Y22.75
X79.275Y20.75
X79.275Y18.75
X79.515Y63.5
X79.525Y62.0
X79.6Y50.744
X79.625Y49.48
X79.825Y12.65
X79.85Y54.4
X80.0Y65.4
X80.0Y51.491
X80.0Y46.6
X80.0Y8.75
X80.0Y4.75
X80.0Y2.75
X80.0Y1.0
X80.025Y43.75
X80.025Y41.75
X80.025Y39.75
X80.025Y37.75
X80.025Y35.75
X80.025Y33.75
X80.025Y31.75
X80.025Y29.75
X80.025Y27.75
X80.025Y25.75
X80.025Y23.75
X80.025Y21.75
X80.025Y19.75
X80.275Y58.25
X80.275Y57.25
X80.275Y56.25
X80.476Y53.677
X80.525Y50.75
X80.525Y12.65
X80.675Y46.6
X80.775Y44.75
X80.775Y42.75
X80.775Y40.75
X80.775Y38.75
X80.775Y36.75
X80.775Y32.75
X80.775Y30.75
X80.775Y28.75
X80.775Y26.75
X80.775Y24.75
X80.775Y22.75
X80.775Y20.75
X80.775Y18.75
X80.85Y54.4
X81.125Y63.25
X81.225Y12.65
X81.275Y58.25
X81.275Y57.25
X81.275Y56.25
X81.325Y46.6
X81.525Y43.75
X81.525Y41.75
X81.525Y39.75
X81.525Y37.75
X81.525Y35.75
X81.525Y33.75
X81.525Y31.75
X81.525Y29.75
X81.525Y27.75
X81.525Y25.75
X81.525Y23.75
X81.525Y21.75
X81.525Y19.75
X81.65Y50.75
X81.75Y7.75
X81.75Y5.75
X81.75Y3.75
X81.75Y1.75
X81.85Y54.4
X81.925Y12.65
X82.05Y64.25
X82.05Y46.6
X82.275Y58.25
X82.275Y57.25
X82.275Y56.25
X82.275Y44.75
X82.275Y42.75
X82.275Y40.75
X82.275Y38.75
X82.275Y36.75
X82.275Y34.75
X82.275Y32.75
X82.275Y30.75
X82.275Y28.75
X82.275Y26.75
X82.275Y24.75
X82.275Y22.75
X82.275Y20.75
X82.275Y18.75
X82.625Y12.65
X82.725Y46.6
X82.8Y54.35
X82.925Y49.95
X83.025Y43.75
X83.025Y41.75
X83.025Y39.75
X83.025Y37.75
X83.025Y35.75
X83.025Y33.75
X83.025Y31.75
X83.025Y29.75
X83.025Y27.75
X83.025Y25.75
X83.025Y23.75
X83.025Y21.75
X83.025Y19.75
X83.3Y46.6
X83.325Y12.65
X83.5Y8.75
X83.5Y4.75
X83.5Y2.75
X83.5Y1.0
X83.775Y60.75
X83.775Y44.75
X83.775Y42.75
X83.775Y40.75
X83.775Y38.75
X83.775Y36.75
X83.775Y34.75
X83.775Y32.75
X83.775Y28.75
X83.775Y26.75
X83.775Y24.75
X83.775Y22.75
X83.775Y20.75
X83.775Y18.75
X83.9Y46.55
X84.025Y12.65
X84.475Y46.375
X84.5Y64.225
X84.525Y43.75
X84.525Y41.75
X84.525Y39.75
X84.525Y37.75
X84.525Y35.75
X84.525Y33.75
X84.525Y31.75
X84.525Y29.75
X84.525Y27.75
X84.525Y25.75
X84.525Y23.75
X84.525Y21.75
X84.525Y19.75
X84.725Y12.65
X85.1Y46.05
X85.25Y34.75
X85.25Y7.75
X85.25Y5.75
X85.25Y3.75
X85.25Y1.75
X85.275Y36.75
X85.275Y24.75
X85.275Y22.75
X85.275Y20.75
X85.275Y18.75
X85.275Y16.5
X85.275Y14.5
X85.425Y12.65
X85.475Y64.225
X85.525Y51.75
X85.646Y55.065
X85.65Y45.55
X86.025Y62.25
X86.025Y61.5
X86.025Y60.0
X86.025Y21.75
X86.025Y19.75
X86.025Y17.5
X86.025Y15.5
X86.035Y60.75
X86.1Y12.85
X86.2Y23.75
X86.25Y42.0
X86.25Y41.25
X86.25Y40.5
X86.25Y39.7
X86.275Y45.0
X86.275Y44.25
X86.275Y43.5
X86.275Y42.75
X86.275Y28.5
X86.275Y27.75
X86.275Y27.0
X86.275Y26.25
X86.5Y36.25
X86.551Y25.626
X86.7Y55.325
X86.775Y63.0
X86.775Y62.25
X86.775Y61.5
X86.775Y60.75
X86.775Y60.0
X86.775Y20.75
X86.775Y18.75
X86.775Y16.5
X86.8Y13.2
X86.85Y51.75
X86.875Y24.95
X86.975Y56.3
X87.025Y44.825
X87.225Y24.4
X87.3Y13.65
X87.525Y63.0
X87.525Y62.25
X87.525Y23.8
X87.575Y45.85
X87.6Y47.1
X87.6Y46.5
X87.675Y23.15
X87.75Y14.35
X87.775Y56.3
X87.775Y22.45
X87.85Y32.65
X87.875Y21.75
X87.95Y26.718
X88.025Y21.0
X88.025Y20.25
X88.025Y19.55
X88.025Y18.8
X88.025Y18.05
X88.025Y17.3
X88.025Y16.55
X88.025Y15.8
X88.025Y15.05
X88.275Y63.0
X88.275Y62.25
X88.275Y2.188
X88.275Y1.438
X88.518Y51.693
X88.525Y50.65
X88.575Y56.95
X88.575Y56.3
X88.7Y26.075
X88.7Y24.2
X88.755Y60.75
X88.775Y55.5
X88.775Y41.0
X88.95Y27.98
X89.025Y63.0
X89.025Y62.25
X89.075Y23.45
X89.09Y11.9
X89.175Y59.95
X89.25Y19.76
X89.25Y14.75
X89.275Y56.3
X89.275Y3.188
X89.765Y60.75
X89.765Y55.5
X89.775Y63.0
X89.775Y62.25
X89.825Y23.45
X89.887Y30.838
X89.95Y38.75
X89.95Y38.0
X89.95Y37.275
X89.95Y36.525
X89.95Y35.75
X89.95Y35.0
X89.95Y26.75
X90.025Y54.25
X90.125Y59.95
X90.175Y43.525
X90.225Y49.0
X90.225Y47.75
X90.233Y9.15
X90.275Y3.188
X90.475Y63.7
X90.525Y63.0
X90.525Y62.25
X90.7Y38.75
X90.7Y38.0
X90.7Y37.275
X90.9Y43.075
X91.025Y54.25
X91.025Y53.5
X91.025Y47.25
X91.2Y29.5
X91.2Y28.75
X91.2Y28.0
X91.275Y63.0
X91.275Y62.25
X91.275Y2.188
X91.275Y1.438
X91.475Y38.75
X91.475Y38.0
X91.475Y37.275
X91.5Y39.5
X91.525Y68.0
X91.525Y48.25
X91.525Y42.5
X91.525Y41.75
X91.525Y41.0
X91.55Y40.225
X91.972Y19.778
X92.025Y66.775
X92.05Y33.125
X92.05Y17.75
X92.2Y29.5
X92.2Y28.75
X92.2Y28.0
X92.275Y47.0
X92.495Y60.65
X92.495Y54.25
X92.525Y68.0
X92.675Y24.35
X92.7Y31.265
X92.7Y25.75
X92.775Y39.61
X93.2Y29.5
X93.2Y28.75
X93.2Y28.0
X93.275Y46.75
X93.5Y11.5
X94.2Y29.5
X94.2Y28.75
X94.2Y28.0
X94.275Y46.75
X94.525Y24.5
X95.0Y22.25
X95.0Y15.5
X95.15Y9.8
X95.2Y11.5
X95.275Y46.75
X95.281Y26.169
X95.3Y40.968
X95.45Y30.75
X95.493Y44.718
X95.5Y61.27
X95.5Y59.52
X95.5Y57.77
X95.5Y55.52
X95.5Y53.77
X95.675Y42.75
X95.725Y24.925
X95.775Y39.0
X95.925Y36.775
X96.132Y29.22
X96.275Y46.75
X96.275Y41.0
X96.387Y44.637
X96.525Y42.95
X96.625Y25.6
X97.175Y29.2
X97.25Y60.77
X97.25Y58.52
X97.25Y56.52
X97.35Y27.125
X97.45Y42.25
X97.45Y41.1
X97.525Y45.5
X97.525Y44.5
X97.725Y31.25
X97.725Y30.4
X97.75Y23.75
X97.75Y20.5
X97.75Y17.0
X97.75Y13.75
X97.9Y34.475
X97.909Y33.6
X98.15Y39.525
X98.225Y26.7
X98.25Y25.8
X98.5Y41.1
X98.525Y45.5
X98.525Y44.5
X98.525Y43.5
X98.525Y10.0
X98.575Y8.5
X99.0Y61.27
X99.0Y59.52
X99.0Y57.52
X99.0Y55.52
X99.1Y27.975
X99.1Y26.7
X99.4Y51.0
X99.45Y36.25
X99.475Y28.85
T3
X1.347Y66.503
X1.363Y4.0
X2.05Y68.2
X2.05Y64.806
X2.065Y5.697
X2.065Y2.303
X3.747Y68.903
X3.747Y64.103
X3.762Y6.4
X3.762Y1.6
X5.444Y68.2
X5.444Y64.806
X5.46Y5.697
X5.46Y2.303
X6.147Y66.503
X6.162Y4.0
X80.779Y34.751
X93.85Y66.5
X93.85Y3.947
X94.553Y68.197
X94.553Y64.803
X94.553Y5.644
X94.553Y2.25
X96.25Y68.9
X96.25Y64.1
X96.25Y6.347
X96.25Y1.547
X97.947Y68.197
X97.947Y64.803
X97.947Y5.644
X97.947Y2.25
X98.65Y66.5
X98.65Y3.947
T5
X39.75Y56.25
T6
X64.52Y68.8
X67.06Y68.8
X69.6Y68.8
X72.14Y68.8
X75.8Y68.8
X78.34Y68.8
X80.88Y68.8
X83.42Y68.8
T7
X23.473Y34.742
X48.55Y24.6
X66.275Y48.0
T8
X19.75Y46.95
T9
X15.35Y58.55
X15.35Y51.35
X15.35Y42.5
X15.35Y35.3
X48.751Y15.72
X55.951Y15.72
X74.445Y15.701
X81.645Y15.701
T10
X3.747Y66.503
X3.762Y4.0
X96.25Y66.5
X96.25Y3.947
T4
G00X8.8Y61.7
M15
G01X9.9Y61.7
M16
G05
G00X8.8Y48.2
M15
G01X9.9Y48.2
M16
G05
G00X8.8Y45.65
M15
G01X9.9Y45.65
M16
G05
G00X8.8Y32.15
M15
G01X9.9Y32.15
M16
G05
G00X45.601Y9.17
M15
G01X45.601Y10.27
M16
G05
G00X59.101Y9.17
M15
G01X59.101Y10.27
M16
G05
G00X71.295Y9.151
M15
G01X71.295Y10.251
M16
G05
G00X84.795Y9.151
M15
G01X84.795Y10.251
M16
G05
G00X92.52Y61.77
M15
G01X93.62Y61.77
M16
G05
G00X92.52Y53.13
M15
G01X93.62Y53.13
M16
G05
G00X96.85Y61.77
M15
G01X97.65Y61.77
M16
G05
G00X96.85Y53.13
M15
G01X97.65Y53.13
M16
G05
M30
