G04 #@! TF.GenerationSoftware,KiCad,Pcbnew,9.0.0*
G04 #@! TF.CreationDate,2025-07-24T22:11:37+02:00*
G04 #@! TF.ProjectId,ElonMux,456c6f6e-4d75-4782-9e6b-696361645f70,1.1*
G04 #@! TF.SameCoordinates,Original*
G04 #@! TF.FileFunction,Paste,Top*
G04 #@! TF.FilePolarity,Positive*
%FSLAX46Y46*%
G04 Gerber Fmt 4.6, Leading zero omitted, Abs format (unit mm)*
G04 Created by KiCad (PCBNEW 9.0.0) date 2025-07-24 22:11:37*
%MOMM*%
%LPD*%
G01*
G04 APERTURE LIST*
G04 Aperture macros list*
%AMRoundRect*
0 Rectangle with rounded corners*
0 $1 Rounding radius*
0 $2 $3 $4 $5 $6 $7 $8 $9 X,Y pos of 4 corners*
0 Add a 4 corners polygon primitive as box body*
4,1,4,$2,$3,$4,$5,$6,$7,$8,$9,$2,$3,0*
0 Add four circle primitives for the rounded corners*
1,1,$1+$1,$2,$3*
1,1,$1+$1,$4,$5*
1,1,$1+$1,$6,$7*
1,1,$1+$1,$8,$9*
0 Add four rect primitives between the rounded corners*
20,1,$1+$1,$2,$3,$4,$5,0*
20,1,$1+$1,$4,$5,$6,$7,0*
20,1,$1+$1,$6,$7,$8,$9,0*
20,1,$1+$1,$8,$9,$2,$3,0*%
G04 Aperture macros list end*
%ADD10C,0.100000*%
%ADD11C,0.150000*%
%ADD12RoundRect,0.087500X-0.250000X-0.087500X0.250000X-0.087500X0.250000X0.087500X-0.250000X0.087500X0*%
%ADD13RoundRect,0.135000X-0.135000X-0.185000X0.135000X-0.185000X0.135000X0.185000X-0.135000X0.185000X0*%
%ADD14RoundRect,0.225000X-0.250000X0.225000X-0.250000X-0.225000X0.250000X-0.225000X0.250000X0.225000X0*%
%ADD15RoundRect,0.237500X-0.237500X0.250000X-0.237500X-0.250000X0.237500X-0.250000X0.237500X0.250000X0*%
%ADD16RoundRect,0.150000X0.150000X-0.512500X0.150000X0.512500X-0.150000X0.512500X-0.150000X-0.512500X0*%
%ADD17RoundRect,0.250000X0.250000X0.475000X-0.250000X0.475000X-0.250000X-0.475000X0.250000X-0.475000X0*%
%ADD18RoundRect,0.250000X0.362500X1.075000X-0.362500X1.075000X-0.362500X-1.075000X0.362500X-1.075000X0*%
%ADD19RoundRect,0.140000X-0.140000X-0.170000X0.140000X-0.170000X0.140000X0.170000X-0.140000X0.170000X0*%
%ADD20RoundRect,0.140000X0.140000X0.170000X-0.140000X0.170000X-0.140000X-0.170000X0.140000X-0.170000X0*%
%ADD21RoundRect,0.135000X0.185000X-0.135000X0.185000X0.135000X-0.185000X0.135000X-0.185000X-0.135000X0*%
%ADD22RoundRect,0.135000X-0.185000X0.135000X-0.185000X-0.135000X0.185000X-0.135000X0.185000X0.135000X0*%
%ADD23RoundRect,0.250000X0.650000X-0.325000X0.650000X0.325000X-0.650000X0.325000X-0.650000X-0.325000X0*%
%ADD24RoundRect,0.135000X0.135000X0.185000X-0.135000X0.185000X-0.135000X-0.185000X0.135000X-0.185000X0*%
%ADD25RoundRect,0.237500X-0.250000X-0.237500X0.250000X-0.237500X0.250000X0.237500X-0.250000X0.237500X0*%
%ADD26RoundRect,0.150000X-0.512500X-0.150000X0.512500X-0.150000X0.512500X0.150000X-0.512500X0.150000X0*%
%ADD27R,2.200000X2.150000*%
%ADD28RoundRect,0.090000X0.485000X-0.210000X0.485000X0.210000X-0.485000X0.210000X-0.485000X-0.210000X0*%
%ADD29RoundRect,0.045000X0.530000X-0.105000X0.530000X0.105000X-0.530000X0.105000X-0.530000X-0.105000X0*%
%ADD30R,0.350000X0.650000*%
%ADD31RoundRect,0.087500X-0.087500X0.250000X-0.087500X-0.250000X0.087500X-0.250000X0.087500X0.250000X0*%
%ADD32RoundRect,0.250000X-0.312500X-0.625000X0.312500X-0.625000X0.312500X0.625000X-0.312500X0.625000X0*%
%ADD33RoundRect,0.140000X0.170000X-0.140000X0.170000X0.140000X-0.170000X0.140000X-0.170000X-0.140000X0*%
%ADD34RoundRect,0.225000X0.225000X0.250000X-0.225000X0.250000X-0.225000X-0.250000X0.225000X-0.250000X0*%
%ADD35RoundRect,0.140000X-0.170000X0.140000X-0.170000X-0.140000X0.170000X-0.140000X0.170000X0.140000X0*%
%ADD36RoundRect,0.232500X0.252500X0.232500X-0.252500X0.232500X-0.252500X-0.232500X0.252500X-0.232500X0*%
%ADD37RoundRect,0.062500X0.375000X0.062500X-0.375000X0.062500X-0.375000X-0.062500X0.375000X-0.062500X0*%
%ADD38RoundRect,0.062500X0.062500X0.375000X-0.062500X0.375000X-0.062500X-0.375000X0.062500X-0.375000X0*%
%ADD39RoundRect,0.135000X-0.035355X0.226274X-0.226274X0.035355X0.035355X-0.226274X0.226274X-0.035355X0*%
%ADD40R,0.600000X1.250000*%
%ADD41RoundRect,0.250000X-1.825000X-0.700000X1.825000X-0.700000X1.825000X0.700000X-1.825000X0.700000X0*%
%ADD42RoundRect,0.200000X0.200000X0.275000X-0.200000X0.275000X-0.200000X-0.275000X0.200000X-0.275000X0*%
%ADD43RoundRect,0.250000X0.450000X-0.350000X0.450000X0.350000X-0.450000X0.350000X-0.450000X-0.350000X0*%
%ADD44RoundRect,0.237500X0.250000X0.237500X-0.250000X0.237500X-0.250000X-0.237500X0.250000X-0.237500X0*%
%ADD45R,0.800000X1.700000*%
%ADD46R,0.800000X1.100000*%
%ADD47RoundRect,0.250000X0.475000X-0.250000X0.475000X0.250000X-0.475000X0.250000X-0.475000X-0.250000X0*%
%ADD48R,2.150000X2.200000*%
%ADD49RoundRect,0.225000X-0.225000X-0.250000X0.225000X-0.250000X0.225000X0.250000X-0.225000X0.250000X0*%
%ADD50R,1.100000X1.300000*%
%ADD51R,2.200000X8.300000*%
%ADD52RoundRect,0.250000X0.250000X1.500000X-0.250000X1.500000X-0.250000X-1.500000X0.250000X-1.500000X0*%
%ADD53RoundRect,0.250001X0.499999X1.449999X-0.499999X1.449999X-0.499999X-1.449999X0.499999X-1.449999X0*%
%ADD54RoundRect,0.250000X-0.650000X0.325000X-0.650000X-0.325000X0.650000X-0.325000X0.650000X0.325000X0*%
%ADD55RoundRect,0.225000X0.250000X-0.225000X0.250000X0.225000X-0.250000X0.225000X-0.250000X-0.225000X0*%
%ADD56R,1.000000X1.000000*%
%ADD57RoundRect,0.200000X0.275000X-0.200000X0.275000X0.200000X-0.275000X0.200000X-0.275000X-0.200000X0*%
%ADD58RoundRect,0.300000X-0.300000X-0.300000X0.300000X-0.300000X0.300000X0.300000X-0.300000X0.300000X0*%
%ADD59RoundRect,0.250000X1.500000X-0.250000X1.500000X0.250000X-1.500000X0.250000X-1.500000X-0.250000X0*%
%ADD60RoundRect,0.250001X1.449999X-0.499999X1.449999X0.499999X-1.449999X0.499999X-1.449999X-0.499999X0*%
%ADD61RoundRect,0.250000X-0.250000X-0.475000X0.250000X-0.475000X0.250000X0.475000X-0.250000X0.475000X0*%
%ADD62RoundRect,0.200000X-0.200000X-0.275000X0.200000X-0.275000X0.200000X0.275000X-0.200000X0.275000X0*%
%ADD63R,0.250000X0.700000*%
%ADD64R,0.700000X0.250000*%
%ADD65R,3.650000X2.650000*%
%ADD66RoundRect,0.175000X0.325000X-0.175000X0.325000X0.175000X-0.325000X0.175000X-0.325000X-0.175000X0*%
%ADD67RoundRect,0.150000X0.150000X-0.200000X0.150000X0.200000X-0.150000X0.200000X-0.150000X-0.200000X0*%
%ADD68RoundRect,0.187500X-0.312500X-0.187500X0.312500X-0.187500X0.312500X0.187500X-0.312500X0.187500X0*%
%ADD69RoundRect,0.250000X0.450000X-0.400000X0.450000X0.400000X-0.450000X0.400000X-0.450000X-0.400000X0*%
%ADD70RoundRect,0.187500X0.312500X0.187500X-0.312500X0.187500X-0.312500X-0.187500X0.312500X-0.187500X0*%
%ADD71RoundRect,0.150000X-0.150000X0.512500X-0.150000X-0.512500X0.150000X-0.512500X0.150000X0.512500X0*%
%ADD72RoundRect,0.250000X0.285000X-0.285000X0.285000X0.285000X-0.285000X0.285000X-0.285000X-0.285000X0*%
%ADD73RoundRect,0.050000X0.050000X-0.350000X0.050000X0.350000X-0.050000X0.350000X-0.050000X-0.350000X0*%
%ADD74RoundRect,0.050000X0.350000X-0.050000X0.350000X0.050000X-0.350000X0.050000X-0.350000X-0.050000X0*%
%ADD75RoundRect,0.250000X0.325000X0.650000X-0.325000X0.650000X-0.325000X-0.650000X0.325000X-0.650000X0*%
%ADD76RoundRect,0.300000X-0.450000X0.450000X-0.450000X-0.450000X0.450000X-0.450000X0.450000X0.450000X0*%
%ADD77RoundRect,0.300000X0.450000X0.450000X-0.450000X0.450000X-0.450000X-0.450000X0.450000X-0.450000X0*%
%ADD78RoundRect,0.250000X1.075000X-0.362500X1.075000X0.362500X-1.075000X0.362500X-1.075000X-0.362500X0*%
%ADD79RoundRect,0.187500X0.187500X-0.312500X0.187500X0.312500X-0.187500X0.312500X-0.187500X-0.312500X0*%
%ADD80RoundRect,0.218750X0.381250X-0.218750X0.381250X0.218750X-0.381250X0.218750X-0.381250X-0.218750X0*%
%ADD81RoundRect,0.250000X0.700000X-1.825000X0.700000X1.825000X-0.700000X1.825000X-0.700000X-1.825000X0*%
%ADD82RoundRect,0.150000X0.200000X-0.150000X0.200000X0.150000X-0.200000X0.150000X-0.200000X-0.150000X0*%
%ADD83RoundRect,0.250000X-0.700000X1.825000X-0.700000X-1.825000X0.700000X-1.825000X0.700000X1.825000X0*%
%ADD84R,1.425000X0.300000*%
%ADD85R,1.753000X2.947000*%
%ADD86RoundRect,0.150000X-0.150000X0.400000X-0.150000X-0.400000X0.150000X-0.400000X0.150000X0.400000X0*%
%ADD87RoundRect,0.250000X-0.325000X-0.650000X0.325000X-0.650000X0.325000X0.650000X-0.325000X0.650000X0*%
%ADD88R,0.650000X0.350000*%
%ADD89RoundRect,0.250000X1.825000X0.700000X-1.825000X0.700000X-1.825000X-0.700000X1.825000X-0.700000X0*%
%ADD90RoundRect,0.160000X-0.160000X0.245000X-0.160000X-0.245000X0.160000X-0.245000X0.160000X0.245000X0*%
%ADD91RoundRect,0.093750X-0.106250X0.093750X-0.106250X-0.093750X0.106250X-0.093750X0.106250X0.093750X0*%
%ADD92RoundRect,0.150000X-0.200000X0.150000X-0.200000X-0.150000X0.200000X-0.150000X0.200000X0.150000X0*%
%ADD93RoundRect,0.250000X0.400000X0.450000X-0.400000X0.450000X-0.400000X-0.450000X0.400000X-0.450000X0*%
%ADD94RoundRect,0.250000X-0.375000X-0.625000X0.375000X-0.625000X0.375000X0.625000X-0.375000X0.625000X0*%
%ADD95RoundRect,0.275000X-0.350000X-0.275000X0.350000X-0.275000X0.350000X0.275000X-0.350000X0.275000X0*%
%ADD96RoundRect,0.593750X0.593750X-0.831250X0.593750X0.831250X-0.593750X0.831250X-0.593750X-0.831250X0*%
%ADD97RoundRect,0.643750X0.643750X-0.781250X0.643750X0.781250X-0.643750X0.781250X-0.643750X-0.781250X0*%
%ADD98RoundRect,0.593750X0.593750X-0.781250X0.593750X0.781250X-0.593750X0.781250X-0.593750X-0.781250X0*%
%ADD99RoundRect,0.643750X0.643750X-0.731250X0.643750X0.731250X-0.643750X0.731250X-0.643750X-0.731250X0*%
%ADD100R,1.000000X2.700000*%
G04 APERTURE END LIST*
G04 #@! TO.C,Q704*
D10*
X3150000Y16135000D02*
X3950000Y16135000D01*
X3950000Y15785000D01*
X3150000Y15785000D01*
X3150000Y16135000D01*
G36*
X3150000Y16135000D02*
G01*
X3950000Y16135000D01*
X3950000Y15785000D01*
X3150000Y15785000D01*
X3150000Y16135000D01*
G37*
X3260000Y21700000D02*
X3660000Y21700000D01*
X3660000Y21050000D01*
X3260000Y21050000D01*
X3260000Y21700000D01*
G36*
X3260000Y21700000D02*
G01*
X3660000Y21700000D01*
X3660000Y21050000D01*
X3260000Y21050000D01*
X3260000Y21700000D01*
G37*
X3310000Y15500000D02*
X3610000Y15500000D01*
X3610000Y15250000D01*
X3310000Y15250000D01*
X3310000Y15500000D01*
G36*
X3310000Y15500000D02*
G01*
X3610000Y15500000D01*
X3610000Y15250000D01*
X3310000Y15250000D01*
X3310000Y15500000D01*
G37*
X3695000Y20775000D02*
X5195000Y20775000D01*
X5195000Y19275000D01*
X3695000Y19275000D01*
X3695000Y20775000D01*
G36*
X3695000Y20775000D02*
G01*
X5195000Y20775000D01*
X5195000Y19275000D01*
X3695000Y19275000D01*
X3695000Y20775000D01*
G37*
X3695000Y18975000D02*
X5195000Y18975000D01*
X5195000Y17475000D01*
X3695000Y17475000D01*
X3695000Y18975000D01*
G36*
X3695000Y18975000D02*
G01*
X5195000Y18975000D01*
X5195000Y17475000D01*
X3695000Y17475000D01*
X3695000Y18975000D01*
G37*
X4250000Y16135000D02*
X5050000Y16135000D01*
X5050000Y15785000D01*
X4250000Y15785000D01*
X4250000Y16135000D01*
G36*
X4250000Y16135000D02*
G01*
X5050000Y16135000D01*
X5050000Y15785000D01*
X4250000Y15785000D01*
X4250000Y16135000D01*
G37*
X4530000Y21700000D02*
X4930000Y21700000D01*
X4930000Y21050000D01*
X4530000Y21050000D01*
X4530000Y21700000D01*
G36*
X4530000Y21700000D02*
G01*
X4930000Y21700000D01*
X4930000Y21050000D01*
X4530000Y21050000D01*
X4530000Y21700000D01*
G37*
X4580000Y15500000D02*
X4880000Y15500000D01*
X4880000Y15250000D01*
X4580000Y15250000D01*
X4580000Y15500000D01*
G36*
X4580000Y15500000D02*
G01*
X4880000Y15500000D01*
X4880000Y15250000D01*
X4580000Y15250000D01*
X4580000Y15500000D01*
G37*
X5350000Y16140000D02*
X6150000Y16140000D01*
X6150000Y15790000D01*
X5350000Y15790000D01*
X5350000Y16140000D01*
G36*
X5350000Y16140000D02*
G01*
X6150000Y16140000D01*
X6150000Y15790000D01*
X5350000Y15790000D01*
X5350000Y16140000D01*
G37*
X5495000Y20775000D02*
X6995000Y20775000D01*
X6995000Y19275000D01*
X5495000Y19275000D01*
X5495000Y20775000D01*
G36*
X5495000Y20775000D02*
G01*
X6995000Y20775000D01*
X6995000Y19275000D01*
X5495000Y19275000D01*
X5495000Y20775000D01*
G37*
X5495000Y18975000D02*
X6995000Y18975000D01*
X6995000Y17475000D01*
X5495000Y17475000D01*
X5495000Y18975000D01*
G36*
X5495000Y18975000D02*
G01*
X6995000Y18975000D01*
X6995000Y17475000D01*
X5495000Y17475000D01*
X5495000Y18975000D01*
G37*
X5800000Y21700000D02*
X6200000Y21700000D01*
X6200000Y21050000D01*
X5800000Y21050000D01*
X5800000Y21700000D01*
G36*
X5800000Y21700000D02*
G01*
X6200000Y21700000D01*
X6200000Y21050000D01*
X5800000Y21050000D01*
X5800000Y21700000D01*
G37*
X5850000Y15500000D02*
X6150000Y15500000D01*
X6150000Y15250000D01*
X5850000Y15250000D01*
X5850000Y15500000D01*
G36*
X5850000Y15500000D02*
G01*
X6150000Y15500000D01*
X6150000Y15250000D01*
X5850000Y15250000D01*
X5850000Y15500000D01*
G37*
X7070000Y21700000D02*
X7470000Y21700000D01*
X7470000Y21050000D01*
X7070000Y21050000D01*
X7070000Y21700000D01*
G36*
X7070000Y21700000D02*
G01*
X7470000Y21700000D01*
X7470000Y21050000D01*
X7070000Y21050000D01*
X7070000Y21700000D01*
G37*
X7120000Y16150000D02*
X7420000Y16150000D01*
X7420000Y15850000D01*
X7120000Y15850000D01*
X7120000Y16150000D01*
G36*
X7120000Y16150000D02*
G01*
X7420000Y16150000D01*
X7420000Y15850000D01*
X7120000Y15850000D01*
X7120000Y16150000D01*
G37*
X7120000Y15550000D02*
X7420000Y15550000D01*
X7420000Y15250000D01*
X7120000Y15250000D01*
X7120000Y15550000D01*
G36*
X7120000Y15550000D02*
G01*
X7420000Y15550000D01*
X7420000Y15250000D01*
X7120000Y15250000D01*
X7120000Y15550000D01*
G37*
D11*
G04 #@! TO.C,Q803*
X80805000Y27150000D02*
X80305000Y27150000D01*
X80305000Y25700000D01*
X78755000Y25700000D01*
X78755000Y27700000D01*
X80805000Y27700000D01*
X80805000Y27150000D01*
G36*
X80805000Y27150000D02*
G01*
X80305000Y27150000D01*
X80305000Y25700000D01*
X78755000Y25700000D01*
X78755000Y27700000D01*
X80805000Y27700000D01*
X80805000Y27150000D01*
G37*
X80305000Y23850000D02*
X80805000Y23850000D01*
X80805000Y23300000D01*
X78755000Y23300000D01*
X78755000Y25300000D01*
X80305000Y25300000D01*
X80305000Y23850000D01*
G36*
X80305000Y23850000D02*
G01*
X80805000Y23850000D01*
X80805000Y23300000D01*
X78755000Y23300000D01*
X78755000Y25300000D01*
X80305000Y25300000D01*
X80305000Y23850000D01*
G37*
X77605000Y27700000D02*
X78405000Y27700000D01*
X78405000Y27000000D01*
X78405000Y25700000D01*
X76455000Y25700000D01*
X76455000Y27700000D01*
X76905000Y27700000D01*
X76905000Y28200000D01*
X77605000Y28200000D01*
X77605000Y27700000D01*
G36*
X77605000Y27700000D02*
G01*
X78405000Y27700000D01*
X78405000Y27000000D01*
X78405000Y25700000D01*
X76455000Y25700000D01*
X76455000Y27700000D01*
X76905000Y27700000D01*
X76905000Y28200000D01*
X77605000Y28200000D01*
X77605000Y27700000D01*
G37*
X78405000Y24000000D02*
X78405000Y23300000D01*
X77605000Y23300000D01*
X77605000Y22800000D01*
X76905000Y22800000D01*
X76905000Y23300000D01*
X76455000Y23300000D01*
X76455000Y25300000D01*
X78405000Y25300000D01*
X78405000Y24000000D01*
G36*
X78405000Y24000000D02*
G01*
X78405000Y23300000D01*
X77605000Y23300000D01*
X77605000Y22800000D01*
X76905000Y22800000D01*
X76905000Y23300000D01*
X76455000Y23300000D01*
X76455000Y25300000D01*
X78405000Y25300000D01*
X78405000Y24000000D01*
G37*
G04 #@! TO.C,Q802*
X62475000Y24795000D02*
X60925000Y24795000D01*
X60925000Y26245000D01*
X60425000Y26245000D01*
X60425000Y26795000D01*
X62475000Y26795000D01*
X62475000Y24795000D01*
G36*
X62475000Y24795000D02*
G01*
X60925000Y24795000D01*
X60925000Y26245000D01*
X60425000Y26245000D01*
X60425000Y26795000D01*
X62475000Y26795000D01*
X62475000Y24795000D01*
G37*
X62475000Y22395000D02*
X60425000Y22395000D01*
X60425000Y22945000D01*
X60925000Y22945000D01*
X60925000Y24395000D01*
X62475000Y24395000D01*
X62475000Y22395000D01*
G36*
X62475000Y22395000D02*
G01*
X60425000Y22395000D01*
X60425000Y22945000D01*
X60925000Y22945000D01*
X60925000Y24395000D01*
X62475000Y24395000D01*
X62475000Y22395000D01*
G37*
X64325000Y26795000D02*
X64775000Y26795000D01*
X64775000Y24795000D01*
X62825000Y24795000D01*
X62825000Y26095000D01*
X62825000Y26795000D01*
X63625000Y26795000D01*
X63625000Y27295000D01*
X64325000Y27295000D01*
X64325000Y26795000D01*
G36*
X64325000Y26795000D02*
G01*
X64775000Y26795000D01*
X64775000Y24795000D01*
X62825000Y24795000D01*
X62825000Y26095000D01*
X62825000Y26795000D01*
X63625000Y26795000D01*
X63625000Y27295000D01*
X64325000Y27295000D01*
X64325000Y26795000D01*
G37*
X64775000Y22395000D02*
X64325000Y22395000D01*
X64325000Y21895000D01*
X63625000Y21895000D01*
X63625000Y22395000D01*
X62825000Y22395000D01*
X62825000Y23095000D01*
X62825000Y24395000D01*
X64775000Y24395000D01*
X64775000Y22395000D01*
G36*
X64775000Y22395000D02*
G01*
X64325000Y22395000D01*
X64325000Y21895000D01*
X63625000Y21895000D01*
X63625000Y22395000D01*
X62825000Y22395000D01*
X62825000Y23095000D01*
X62825000Y24395000D01*
X64775000Y24395000D01*
X64775000Y22395000D01*
G37*
G04 #@! TO.C,Q804*
X65995000Y42397251D02*
X67445000Y42397251D01*
X67445000Y40847251D01*
X65445000Y40847251D01*
X65445000Y42897251D01*
X65995000Y42897251D01*
X65995000Y42397251D01*
G36*
X65995000Y42397251D02*
G01*
X67445000Y42397251D01*
X67445000Y40847251D01*
X65445000Y40847251D01*
X65445000Y42897251D01*
X65995000Y42897251D01*
X65995000Y42397251D01*
G37*
X69845000Y40847251D02*
X67845000Y40847251D01*
X67845000Y42397251D01*
X69295000Y42397251D01*
X69295000Y42897251D01*
X69845000Y42897251D01*
X69845000Y40847251D01*
G36*
X69845000Y40847251D02*
G01*
X67845000Y40847251D01*
X67845000Y42397251D01*
X69295000Y42397251D01*
X69295000Y42897251D01*
X69845000Y42897251D01*
X69845000Y40847251D01*
G37*
X67445000Y38547251D02*
X65445000Y38547251D01*
X65445000Y38997251D01*
X64945000Y38997251D01*
X64945000Y39697251D01*
X65445000Y39697251D01*
X65445000Y40497251D01*
X66145000Y40497251D01*
X67445000Y40497251D01*
X67445000Y38547251D01*
G36*
X67445000Y38547251D02*
G01*
X65445000Y38547251D01*
X65445000Y38997251D01*
X64945000Y38997251D01*
X64945000Y39697251D01*
X65445000Y39697251D01*
X65445000Y40497251D01*
X66145000Y40497251D01*
X67445000Y40497251D01*
X67445000Y38547251D01*
G37*
X69845000Y39697251D02*
X70345000Y39697251D01*
X70345000Y38997251D01*
X69845000Y38997251D01*
X69845000Y38547251D01*
X67845000Y38547251D01*
X67845000Y40497251D01*
X69145000Y40497251D01*
X69845000Y40497251D01*
X69845000Y39697251D01*
G36*
X69845000Y39697251D02*
G01*
X70345000Y39697251D01*
X70345000Y38997251D01*
X69845000Y38997251D01*
X69845000Y38547251D01*
X67845000Y38547251D01*
X67845000Y40497251D01*
X69145000Y40497251D01*
X69845000Y40497251D01*
X69845000Y39697251D01*
G37*
G04 #@! TO.C,Q805*
X72350000Y42404999D02*
X73800000Y42404999D01*
X73800000Y40854999D01*
X71800000Y40854999D01*
X71800000Y42904999D01*
X72350000Y42904999D01*
X72350000Y42404999D01*
G36*
X72350000Y42404999D02*
G01*
X73800000Y42404999D01*
X73800000Y40854999D01*
X71800000Y40854999D01*
X71800000Y42904999D01*
X72350000Y42904999D01*
X72350000Y42404999D01*
G37*
X76200000Y40854999D02*
X74200000Y40854999D01*
X74200000Y42404999D01*
X75650000Y42404999D01*
X75650000Y42904999D01*
X76200000Y42904999D01*
X76200000Y40854999D01*
G36*
X76200000Y40854999D02*
G01*
X74200000Y40854999D01*
X74200000Y42404999D01*
X75650000Y42404999D01*
X75650000Y42904999D01*
X76200000Y42904999D01*
X76200000Y40854999D01*
G37*
X73800000Y38554999D02*
X71800000Y38554999D01*
X71800000Y39004999D01*
X71300000Y39004999D01*
X71300000Y39704999D01*
X71800000Y39704999D01*
X71800000Y40504999D01*
X72500000Y40504999D01*
X73800000Y40504999D01*
X73800000Y38554999D01*
G36*
X73800000Y38554999D02*
G01*
X71800000Y38554999D01*
X71800000Y39004999D01*
X71300000Y39004999D01*
X71300000Y39704999D01*
X71800000Y39704999D01*
X71800000Y40504999D01*
X72500000Y40504999D01*
X73800000Y40504999D01*
X73800000Y38554999D01*
G37*
X76200000Y39704999D02*
X76700000Y39704999D01*
X76700000Y39004999D01*
X76200000Y39004999D01*
X76200000Y38554999D01*
X74200000Y38554999D01*
X74200000Y40504999D01*
X75500000Y40504999D01*
X76200000Y40504999D01*
X76200000Y39704999D01*
G36*
X76200000Y39704999D02*
G01*
X76700000Y39704999D01*
X76700000Y39004999D01*
X76200000Y39004999D01*
X76200000Y38554999D01*
X74200000Y38554999D01*
X74200000Y40504999D01*
X75500000Y40504999D01*
X76200000Y40504999D01*
X76200000Y39704999D01*
G37*
G04 #@! TO.C,Q701*
D10*
X15550000Y14010000D02*
X15300000Y14010000D01*
X15300000Y13710000D01*
X15550000Y13710000D01*
X15550000Y14010000D01*
G36*
X15550000Y14010000D02*
G01*
X15300000Y14010000D01*
X15300000Y13710000D01*
X15550000Y13710000D01*
X15550000Y14010000D01*
G37*
X15550000Y12740000D02*
X15300000Y12740000D01*
X15300000Y12440000D01*
X15550000Y12440000D01*
X15550000Y12740000D01*
G36*
X15550000Y12740000D02*
G01*
X15300000Y12740000D01*
X15300000Y12440000D01*
X15550000Y12440000D01*
X15550000Y12740000D01*
G37*
X15550000Y11470000D02*
X15300000Y11470000D01*
X15300000Y11170000D01*
X15550000Y11170000D01*
X15550000Y11470000D01*
G36*
X15550000Y11470000D02*
G01*
X15300000Y11470000D01*
X15300000Y11170000D01*
X15550000Y11170000D01*
X15550000Y11470000D01*
G37*
X15600000Y10200000D02*
X15300000Y10200000D01*
X15300000Y9900000D01*
X15600000Y9900000D01*
X15600000Y10200000D01*
G36*
X15600000Y10200000D02*
G01*
X15300000Y10200000D01*
X15300000Y9900000D01*
X15600000Y9900000D01*
X15600000Y10200000D01*
G37*
X16185000Y14170000D02*
X15835000Y14170000D01*
X15835000Y13370000D01*
X16185000Y13370000D01*
X16185000Y14170000D01*
G36*
X16185000Y14170000D02*
G01*
X15835000Y14170000D01*
X15835000Y13370000D01*
X16185000Y13370000D01*
X16185000Y14170000D01*
G37*
X16185000Y13070000D02*
X15835000Y13070000D01*
X15835000Y12270000D01*
X16185000Y12270000D01*
X16185000Y13070000D01*
G36*
X16185000Y13070000D02*
G01*
X15835000Y13070000D01*
X15835000Y12270000D01*
X16185000Y12270000D01*
X16185000Y13070000D01*
G37*
X16190000Y11970000D02*
X15840000Y11970000D01*
X15840000Y11170000D01*
X16190000Y11170000D01*
X16190000Y11970000D01*
G36*
X16190000Y11970000D02*
G01*
X15840000Y11970000D01*
X15840000Y11170000D01*
X16190000Y11170000D01*
X16190000Y11970000D01*
G37*
X16200000Y10200000D02*
X15900000Y10200000D01*
X15900000Y9900000D01*
X16200000Y9900000D01*
X16200000Y10200000D01*
G36*
X16200000Y10200000D02*
G01*
X15900000Y10200000D01*
X15900000Y9900000D01*
X16200000Y9900000D01*
X16200000Y10200000D01*
G37*
X19025000Y13625000D02*
X17525000Y13625000D01*
X17525000Y12125000D01*
X19025000Y12125000D01*
X19025000Y13625000D01*
G36*
X19025000Y13625000D02*
G01*
X17525000Y13625000D01*
X17525000Y12125000D01*
X19025000Y12125000D01*
X19025000Y13625000D01*
G37*
X19025000Y11825000D02*
X17525000Y11825000D01*
X17525000Y10325000D01*
X19025000Y10325000D01*
X19025000Y11825000D01*
G36*
X19025000Y11825000D02*
G01*
X17525000Y11825000D01*
X17525000Y10325000D01*
X19025000Y10325000D01*
X19025000Y11825000D01*
G37*
X20825000Y13625000D02*
X19325000Y13625000D01*
X19325000Y12125000D01*
X20825000Y12125000D01*
X20825000Y13625000D01*
G36*
X20825000Y13625000D02*
G01*
X19325000Y13625000D01*
X19325000Y12125000D01*
X20825000Y12125000D01*
X20825000Y13625000D01*
G37*
X20825000Y11825000D02*
X19325000Y11825000D01*
X19325000Y10325000D01*
X20825000Y10325000D01*
X20825000Y11825000D01*
G36*
X20825000Y11825000D02*
G01*
X19325000Y11825000D01*
X19325000Y10325000D01*
X20825000Y10325000D01*
X20825000Y11825000D01*
G37*
X21750000Y14060000D02*
X21100000Y14060000D01*
X21100000Y13660000D01*
X21750000Y13660000D01*
X21750000Y14060000D01*
G36*
X21750000Y14060000D02*
G01*
X21100000Y14060000D01*
X21100000Y13660000D01*
X21750000Y13660000D01*
X21750000Y14060000D01*
G37*
X21750000Y12790000D02*
X21100000Y12790000D01*
X21100000Y12390000D01*
X21750000Y12390000D01*
X21750000Y12790000D01*
G36*
X21750000Y12790000D02*
G01*
X21100000Y12790000D01*
X21100000Y12390000D01*
X21750000Y12390000D01*
X21750000Y12790000D01*
G37*
X21750000Y11520000D02*
X21100000Y11520000D01*
X21100000Y11120000D01*
X21750000Y11120000D01*
X21750000Y11520000D01*
G36*
X21750000Y11520000D02*
G01*
X21100000Y11520000D01*
X21100000Y11120000D01*
X21750000Y11120000D01*
X21750000Y11520000D01*
G37*
X21750000Y10250000D02*
X21100000Y10250000D01*
X21100000Y9850000D01*
X21750000Y9850000D01*
X21750000Y10250000D01*
G36*
X21750000Y10250000D02*
G01*
X21100000Y10250000D01*
X21100000Y9850000D01*
X21750000Y9850000D01*
X21750000Y10250000D01*
G37*
G04 #@! TO.C,Q702*
X3190000Y23435000D02*
X3990000Y23435000D01*
X3990000Y23085000D01*
X3190000Y23085000D01*
X3190000Y23435000D01*
G36*
X3190000Y23435000D02*
G01*
X3990000Y23435000D01*
X3990000Y23085000D01*
X3190000Y23085000D01*
X3190000Y23435000D01*
G37*
X3300000Y29000000D02*
X3700000Y29000000D01*
X3700000Y28350000D01*
X3300000Y28350000D01*
X3300000Y29000000D01*
G36*
X3300000Y29000000D02*
G01*
X3700000Y29000000D01*
X3700000Y28350000D01*
X3300000Y28350000D01*
X3300000Y29000000D01*
G37*
X3350000Y22800000D02*
X3650000Y22800000D01*
X3650000Y22550000D01*
X3350000Y22550000D01*
X3350000Y22800000D01*
G36*
X3350000Y22800000D02*
G01*
X3650000Y22800000D01*
X3650000Y22550000D01*
X3350000Y22550000D01*
X3350000Y22800000D01*
G37*
X3735000Y28075000D02*
X5235000Y28075000D01*
X5235000Y26575000D01*
X3735000Y26575000D01*
X3735000Y28075000D01*
G36*
X3735000Y28075000D02*
G01*
X5235000Y28075000D01*
X5235000Y26575000D01*
X3735000Y26575000D01*
X3735000Y28075000D01*
G37*
X3735000Y26275000D02*
X5235000Y26275000D01*
X5235000Y24775000D01*
X3735000Y24775000D01*
X3735000Y26275000D01*
G36*
X3735000Y26275000D02*
G01*
X5235000Y26275000D01*
X5235000Y24775000D01*
X3735000Y24775000D01*
X3735000Y26275000D01*
G37*
X4290000Y23435000D02*
X5090000Y23435000D01*
X5090000Y23085000D01*
X4290000Y23085000D01*
X4290000Y23435000D01*
G36*
X4290000Y23435000D02*
G01*
X5090000Y23435000D01*
X5090000Y23085000D01*
X4290000Y23085000D01*
X4290000Y23435000D01*
G37*
X4570000Y29000000D02*
X4970000Y29000000D01*
X4970000Y28350000D01*
X4570000Y28350000D01*
X4570000Y29000000D01*
G36*
X4570000Y29000000D02*
G01*
X4970000Y29000000D01*
X4970000Y28350000D01*
X4570000Y28350000D01*
X4570000Y29000000D01*
G37*
X4620000Y22800000D02*
X4920000Y22800000D01*
X4920000Y22550000D01*
X4620000Y22550000D01*
X4620000Y22800000D01*
G36*
X4620000Y22800000D02*
G01*
X4920000Y22800000D01*
X4920000Y22550000D01*
X4620000Y22550000D01*
X4620000Y22800000D01*
G37*
X5390000Y23440000D02*
X6190000Y23440000D01*
X6190000Y23090000D01*
X5390000Y23090000D01*
X5390000Y23440000D01*
G36*
X5390000Y23440000D02*
G01*
X6190000Y23440000D01*
X6190000Y23090000D01*
X5390000Y23090000D01*
X5390000Y23440000D01*
G37*
X5535000Y28075000D02*
X7035000Y28075000D01*
X7035000Y26575000D01*
X5535000Y26575000D01*
X5535000Y28075000D01*
G36*
X5535000Y28075000D02*
G01*
X7035000Y28075000D01*
X7035000Y26575000D01*
X5535000Y26575000D01*
X5535000Y28075000D01*
G37*
X5535000Y26275000D02*
X7035000Y26275000D01*
X7035000Y24775000D01*
X5535000Y24775000D01*
X5535000Y26275000D01*
G36*
X5535000Y26275000D02*
G01*
X7035000Y26275000D01*
X7035000Y24775000D01*
X5535000Y24775000D01*
X5535000Y26275000D01*
G37*
X5840000Y29000000D02*
X6240000Y29000000D01*
X6240000Y28350000D01*
X5840000Y28350000D01*
X5840000Y29000000D01*
G36*
X5840000Y29000000D02*
G01*
X6240000Y29000000D01*
X6240000Y28350000D01*
X5840000Y28350000D01*
X5840000Y29000000D01*
G37*
X5890000Y22800000D02*
X6190000Y22800000D01*
X6190000Y22550000D01*
X5890000Y22550000D01*
X5890000Y22800000D01*
G36*
X5890000Y22800000D02*
G01*
X6190000Y22800000D01*
X6190000Y22550000D01*
X5890000Y22550000D01*
X5890000Y22800000D01*
G37*
X7110000Y29000000D02*
X7510000Y29000000D01*
X7510000Y28350000D01*
X7110000Y28350000D01*
X7110000Y29000000D01*
G36*
X7110000Y29000000D02*
G01*
X7510000Y29000000D01*
X7510000Y28350000D01*
X7110000Y28350000D01*
X7110000Y29000000D01*
G37*
X7160000Y23450000D02*
X7460000Y23450000D01*
X7460000Y23150000D01*
X7160000Y23150000D01*
X7160000Y23450000D01*
G36*
X7160000Y23450000D02*
G01*
X7460000Y23450000D01*
X7460000Y23150000D01*
X7160000Y23150000D01*
X7160000Y23450000D01*
G37*
X7160000Y22850000D02*
X7460000Y22850000D01*
X7460000Y22550000D01*
X7160000Y22550000D01*
X7160000Y22850000D01*
G36*
X7160000Y22850000D02*
G01*
X7460000Y22850000D01*
X7460000Y22550000D01*
X7160000Y22550000D01*
X7160000Y22850000D01*
G37*
G04 #@! TO.C,Q703*
X8200000Y14010000D02*
X7950000Y14010000D01*
X7950000Y13710000D01*
X8200000Y13710000D01*
X8200000Y14010000D01*
G36*
X8200000Y14010000D02*
G01*
X7950000Y14010000D01*
X7950000Y13710000D01*
X8200000Y13710000D01*
X8200000Y14010000D01*
G37*
X8200000Y12740000D02*
X7950000Y12740000D01*
X7950000Y12440000D01*
X8200000Y12440000D01*
X8200000Y12740000D01*
G36*
X8200000Y12740000D02*
G01*
X7950000Y12740000D01*
X7950000Y12440000D01*
X8200000Y12440000D01*
X8200000Y12740000D01*
G37*
X8200000Y11470000D02*
X7950000Y11470000D01*
X7950000Y11170000D01*
X8200000Y11170000D01*
X8200000Y11470000D01*
G36*
X8200000Y11470000D02*
G01*
X7950000Y11470000D01*
X7950000Y11170000D01*
X8200000Y11170000D01*
X8200000Y11470000D01*
G37*
X8250000Y10200000D02*
X7950000Y10200000D01*
X7950000Y9900000D01*
X8250000Y9900000D01*
X8250000Y10200000D01*
G36*
X8250000Y10200000D02*
G01*
X7950000Y10200000D01*
X7950000Y9900000D01*
X8250000Y9900000D01*
X8250000Y10200000D01*
G37*
X8835000Y14170000D02*
X8485000Y14170000D01*
X8485000Y13370000D01*
X8835000Y13370000D01*
X8835000Y14170000D01*
G36*
X8835000Y14170000D02*
G01*
X8485000Y14170000D01*
X8485000Y13370000D01*
X8835000Y13370000D01*
X8835000Y14170000D01*
G37*
X8835000Y13070000D02*
X8485000Y13070000D01*
X8485000Y12270000D01*
X8835000Y12270000D01*
X8835000Y13070000D01*
G36*
X8835000Y13070000D02*
G01*
X8485000Y13070000D01*
X8485000Y12270000D01*
X8835000Y12270000D01*
X8835000Y13070000D01*
G37*
X8840000Y11970000D02*
X8490000Y11970000D01*
X8490000Y11170000D01*
X8840000Y11170000D01*
X8840000Y11970000D01*
G36*
X8840000Y11970000D02*
G01*
X8490000Y11970000D01*
X8490000Y11170000D01*
X8840000Y11170000D01*
X8840000Y11970000D01*
G37*
X8850000Y10200000D02*
X8550000Y10200000D01*
X8550000Y9900000D01*
X8850000Y9900000D01*
X8850000Y10200000D01*
G36*
X8850000Y10200000D02*
G01*
X8550000Y10200000D01*
X8550000Y9900000D01*
X8850000Y9900000D01*
X8850000Y10200000D01*
G37*
X11675000Y13625000D02*
X10175000Y13625000D01*
X10175000Y12125000D01*
X11675000Y12125000D01*
X11675000Y13625000D01*
G36*
X11675000Y13625000D02*
G01*
X10175000Y13625000D01*
X10175000Y12125000D01*
X11675000Y12125000D01*
X11675000Y13625000D01*
G37*
X11675000Y11825000D02*
X10175000Y11825000D01*
X10175000Y10325000D01*
X11675000Y10325000D01*
X11675000Y11825000D01*
G36*
X11675000Y11825000D02*
G01*
X10175000Y11825000D01*
X10175000Y10325000D01*
X11675000Y10325000D01*
X11675000Y11825000D01*
G37*
X13475000Y13625000D02*
X11975000Y13625000D01*
X11975000Y12125000D01*
X13475000Y12125000D01*
X13475000Y13625000D01*
G36*
X13475000Y13625000D02*
G01*
X11975000Y13625000D01*
X11975000Y12125000D01*
X13475000Y12125000D01*
X13475000Y13625000D01*
G37*
X13475000Y11825000D02*
X11975000Y11825000D01*
X11975000Y10325000D01*
X13475000Y10325000D01*
X13475000Y11825000D01*
G36*
X13475000Y11825000D02*
G01*
X11975000Y11825000D01*
X11975000Y10325000D01*
X13475000Y10325000D01*
X13475000Y11825000D01*
G37*
X14400000Y14060000D02*
X13750000Y14060000D01*
X13750000Y13660000D01*
X14400000Y13660000D01*
X14400000Y14060000D01*
G36*
X14400000Y14060000D02*
G01*
X13750000Y14060000D01*
X13750000Y13660000D01*
X14400000Y13660000D01*
X14400000Y14060000D01*
G37*
X14400000Y12790000D02*
X13750000Y12790000D01*
X13750000Y12390000D01*
X14400000Y12390000D01*
X14400000Y12790000D01*
G36*
X14400000Y12790000D02*
G01*
X13750000Y12790000D01*
X13750000Y12390000D01*
X14400000Y12390000D01*
X14400000Y12790000D01*
G37*
X14400000Y11520000D02*
X13750000Y11520000D01*
X13750000Y11120000D01*
X14400000Y11120000D01*
X14400000Y11520000D01*
G36*
X14400000Y11520000D02*
G01*
X13750000Y11520000D01*
X13750000Y11120000D01*
X14400000Y11120000D01*
X14400000Y11520000D01*
G37*
X14400000Y10250000D02*
X13750000Y10250000D01*
X13750000Y9850000D01*
X14400000Y9850000D01*
X14400000Y10250000D01*
G36*
X14400000Y10250000D02*
G01*
X13750000Y10250000D01*
X13750000Y9850000D01*
X14400000Y9850000D01*
X14400000Y10250000D01*
G37*
G04 #@! TD*
D12*
G04 #@! TO.C,IC901*
X6962500Y8750000D03*
X6962500Y8250000D03*
X6962500Y7750000D03*
X5537500Y7750000D03*
X5537500Y8250000D03*
X5537500Y8750000D03*
G04 #@! TD*
D13*
G04 #@! TO.C,R1004*
X89765000Y60750000D03*
X90785000Y60750000D03*
G04 #@! TD*
D14*
G04 #@! TO.C,C812*
X53525000Y32275000D03*
X53525000Y30725000D03*
G04 #@! TD*
D15*
G04 #@! TO.C,R818*
X60700000Y39612500D03*
X60700000Y37787500D03*
G04 #@! TD*
D16*
G04 #@! TO.C,Q1101*
X83650000Y63962500D03*
X85550000Y63962500D03*
X84600000Y66237500D03*
G04 #@! TD*
D17*
G04 #@! TO.C,C614*
X91650000Y24750000D03*
X89750000Y24750000D03*
G04 #@! TD*
D18*
G04 #@! TO.C,R701*
X27712500Y12100000D03*
X23087500Y12100000D03*
G04 #@! TD*
D19*
G04 #@! TO.C,C409*
X72095000Y53800000D03*
X73055000Y53800000D03*
G04 #@! TD*
D20*
G04 #@! TO.C,C410*
X73055000Y59000000D03*
X72095000Y59000000D03*
G04 #@! TD*
D21*
G04 #@! TO.C,R721*
X37300000Y22390001D03*
X37300000Y23409999D03*
G04 #@! TD*
D13*
G04 #@! TO.C,R825*
X59540000Y28050000D03*
X60560000Y28050000D03*
G04 #@! TD*
D22*
G04 #@! TO.C,R718*
X89250000Y19759999D03*
X89250000Y18740001D03*
G04 #@! TD*
D23*
G04 #@! TO.C,C704*
X24600000Y1275000D03*
X24600000Y4225000D03*
G04 #@! TD*
D22*
G04 #@! TO.C,R402*
X68025000Y59010000D03*
X68025000Y57990000D03*
G04 #@! TD*
D24*
G04 #@! TO.C,R707*
X29960000Y33400000D03*
X28940000Y33400000D03*
G04 #@! TD*
D25*
G04 #@! TO.C,R817*
X61987500Y30150000D03*
X63812500Y30150000D03*
G04 #@! TD*
D26*
G04 #@! TO.C,Q901*
X62262500Y15550000D03*
X62262500Y13650000D03*
X64537500Y14600000D03*
G04 #@! TD*
D27*
G04 #@! TO.C,D504*
X79950000Y20250000D03*
X75550000Y20250000D03*
G04 #@! TD*
D28*
G04 #@! TO.C,J1004*
X92495000Y54250000D03*
X92495000Y55050000D03*
D29*
X92495000Y56200000D03*
X92495000Y57200000D03*
X92495000Y57700000D03*
X92495000Y58700000D03*
D28*
X92495000Y60650000D03*
X92495000Y59850000D03*
D29*
X92495000Y59200000D03*
X92495000Y58200000D03*
X92495000Y56700000D03*
X92495000Y55700000D03*
G04 #@! TD*
D30*
G04 #@! TO.C,L402*
X74750000Y54600000D03*
X75600000Y54600000D03*
G04 #@! TD*
D19*
G04 #@! TO.C,C407*
X85025000Y56250000D03*
X85985000Y56250000D03*
G04 #@! TD*
D13*
G04 #@! TO.C,R605*
X94840000Y40000000D03*
X95860000Y40000000D03*
G04 #@! TD*
D31*
G04 #@! TO.C,U901*
X9500000Y4712500D03*
X9000000Y4712501D03*
X8500000Y4712500D03*
X8500000Y3287500D03*
X9500000Y3287500D03*
G04 #@! TD*
D32*
G04 #@! TO.C,R805*
X53812500Y24450000D03*
X56737500Y24450000D03*
G04 #@! TD*
D33*
G04 #@! TO.C,C803*
X60200000Y45220000D03*
X60200000Y46180000D03*
G04 #@! TD*
D34*
G04 #@! TO.C,C814*
X50800000Y42600000D03*
X49250000Y42600000D03*
G04 #@! TD*
D22*
G04 #@! TO.C,R823*
X53775000Y29510000D03*
X53775000Y28490000D03*
G04 #@! TD*
D35*
G04 #@! TO.C,C714*
X23900000Y15180000D03*
X23900000Y14220000D03*
G04 #@! TD*
D36*
G04 #@! TO.C,U701*
X28725000Y19100000D03*
X28725000Y20250000D03*
X28725000Y21400000D03*
X28725000Y22550000D03*
X27525000Y19100000D03*
X27525000Y20250000D03*
X27525000Y21400000D03*
X27525000Y22550000D03*
X26325000Y19100000D03*
X26325000Y20250000D03*
X26325000Y21400000D03*
X26325000Y22550000D03*
D37*
X29962500Y18575000D03*
X29962500Y19075000D03*
X29962500Y19575000D03*
X29962500Y20075000D03*
X29962500Y20575000D03*
X29962500Y21075000D03*
X29962500Y21575000D03*
X29962500Y22075000D03*
X29962500Y22575000D03*
X29962500Y23075000D03*
D38*
X29275000Y23762500D03*
X28775000Y23762500D03*
X28275000Y23762500D03*
X27775000Y23762500D03*
X27275000Y23762500D03*
X26775000Y23762500D03*
X26275000Y23762500D03*
X25775000Y23762500D03*
D37*
X25087500Y23075000D03*
X25087500Y22575000D03*
X25087500Y22075000D03*
X25087500Y21575000D03*
X25087500Y21075000D03*
X25087500Y20575000D03*
X25087500Y20075000D03*
X25087500Y19575000D03*
X25087500Y19075000D03*
X25087500Y18575000D03*
D38*
X25775000Y17887500D03*
X26275000Y17887500D03*
X26775000Y17887500D03*
X27275000Y17887500D03*
X27775000Y17887500D03*
X28275000Y17887500D03*
X28775000Y17887500D03*
X29275000Y17887500D03*
G04 #@! TD*
D20*
G04 #@! TO.C,C715*
X27560000Y25200000D03*
X26600000Y25200000D03*
G04 #@! TD*
D24*
G04 #@! TO.C,R1001*
X71609999Y66200000D03*
X70590001Y66200000D03*
G04 #@! TD*
D13*
G04 #@! TO.C,R606*
X94790000Y45550000D03*
X95810000Y45550000D03*
G04 #@! TD*
D39*
G04 #@! TO.C,R1008*
X65810624Y62460624D03*
X65089376Y61739376D03*
G04 #@! TD*
D40*
G04 #@! TO.C,IC803*
X52825000Y35750000D03*
X53775000Y35750000D03*
X54725000Y35750000D03*
X54725000Y38250000D03*
X53775000Y38250000D03*
X52825000Y38250000D03*
G04 #@! TD*
D21*
G04 #@! TO.C,R405*
X69300000Y58990001D03*
X69300000Y60009999D03*
G04 #@! TD*
D13*
G04 #@! TO.C,R604*
X94840000Y42000000D03*
X95860000Y42000000D03*
G04 #@! TD*
D41*
G04 #@! TO.C,C708*
X32025000Y38400000D03*
X38975000Y38400000D03*
G04 #@! TD*
D42*
G04 #@! TO.C,R704*
X25425000Y25700000D03*
X23775000Y25700000D03*
G04 #@! TD*
D19*
G04 #@! TO.C,C1001*
X87815000Y55500000D03*
X88775000Y55500000D03*
G04 #@! TD*
D43*
G04 #@! TO.C,R811*
X52275000Y26500000D03*
X52275000Y28500000D03*
G04 #@! TD*
D24*
G04 #@! TO.C,R708*
X29960000Y34400000D03*
X28940000Y34400000D03*
G04 #@! TD*
D44*
G04 #@! TO.C,R803*
X67162500Y28500000D03*
X65337500Y28500000D03*
G04 #@! TD*
D19*
G04 #@! TO.C,C807*
X56120000Y38700000D03*
X57080000Y38700000D03*
G04 #@! TD*
D24*
G04 #@! TO.C,R810*
X90109999Y10800000D03*
X89090001Y10800000D03*
G04 #@! TD*
D42*
G04 #@! TO.C,R712*
X28825000Y16400000D03*
X27175000Y16400000D03*
G04 #@! TD*
D35*
G04 #@! TO.C,C810*
X51500000Y38880000D03*
X51500000Y37920000D03*
G04 #@! TD*
D22*
G04 #@! TO.C,R706*
X24900000Y15210000D03*
X24900000Y14190000D03*
G04 #@! TD*
G04 #@! TO.C,R401*
X66775000Y59010000D03*
X66775000Y57990000D03*
G04 #@! TD*
D45*
G04 #@! TO.C,S402*
X86825000Y49000000D03*
X90225000Y49000000D03*
D46*
X88525000Y50650000D03*
G04 #@! TD*
D47*
G04 #@! TO.C,C720*
X21900000Y23750000D03*
X21900000Y25650000D03*
G04 #@! TD*
D24*
G04 #@! TO.C,R901*
X8259999Y6250000D03*
X7240001Y6250000D03*
G04 #@! TD*
D13*
G04 #@! TO.C,R1003*
X89765000Y55500000D03*
X90785000Y55500000D03*
G04 #@! TD*
D48*
G04 #@! TO.C,D502*
X20000000Y36800000D03*
X20000000Y41200000D03*
G04 #@! TD*
D49*
G04 #@! TO.C,C1202*
X96975000Y10000000D03*
X98525000Y10000000D03*
G04 #@! TD*
D13*
G04 #@! TO.C,R611*
X96340000Y27950000D03*
X97360000Y27950000D03*
G04 #@! TD*
D50*
G04 #@! TO.C,Y401*
X73425000Y55287500D03*
X73425000Y57587500D03*
X71525000Y57587500D03*
X71525000Y55287500D03*
G04 #@! TD*
D51*
G04 #@! TO.C,L701*
X17825000Y21700000D03*
X11175000Y21700000D03*
G04 #@! TD*
D52*
G04 #@! TO.C,J1001*
X57100000Y62300000D03*
X55100000Y62300000D03*
X53100000Y62300000D03*
X51100000Y62300000D03*
D53*
X59450000Y68050000D03*
X48750000Y68050000D03*
G04 #@! TD*
D54*
G04 #@! TO.C,C611*
X97900000Y35500000D03*
X97900000Y32550000D03*
G04 #@! TD*
D34*
G04 #@! TO.C,C401*
X82800000Y62250000D03*
X81250000Y62250000D03*
G04 #@! TD*
D55*
G04 #@! TO.C,C1203*
X8000000Y67000000D03*
X8000000Y68550000D03*
G04 #@! TD*
D20*
G04 #@! TO.C,C709*
X25880000Y16200000D03*
X24920000Y16200000D03*
G04 #@! TD*
D56*
G04 #@! TO.C,FB602*
X99150000Y37525000D03*
X96950000Y37525000D03*
G04 #@! TD*
D21*
G04 #@! TO.C,R408*
X85500000Y47190000D03*
X85500000Y48210000D03*
G04 #@! TD*
D57*
G04 #@! TO.C,R709*
X10100000Y6775000D03*
X10100000Y8425000D03*
G04 #@! TD*
D20*
G04 #@! TO.C,C801*
X54680000Y39900000D03*
X53720000Y39900000D03*
G04 #@! TD*
D24*
G04 #@! TO.C,R824*
X50700000Y41300000D03*
X49680002Y41300000D03*
G04 #@! TD*
D58*
G04 #@! TO.C,LED702*
X35150000Y18800000D03*
X37250000Y18800000D03*
G04 #@! TD*
D59*
G04 #@! TO.C,J701*
X92050000Y17750000D03*
X92050000Y19750000D03*
D60*
X97800000Y15400000D03*
X97800000Y22100000D03*
G04 #@! TD*
D21*
G04 #@! TO.C,R804*
X68703836Y16240001D03*
X68703836Y17259999D03*
G04 #@! TD*
D42*
G04 #@! TO.C,R1201*
X92125000Y63700000D03*
X90475000Y63700000D03*
G04 #@! TD*
D22*
G04 #@! TO.C,R801*
X66300000Y8219998D03*
X66300000Y7200000D03*
G04 #@! TD*
D61*
G04 #@! TO.C,C612*
X96675000Y30450000D03*
X98575000Y30450000D03*
G04 #@! TD*
D55*
G04 #@! TO.C,C404*
X75750000Y49975000D03*
X75750000Y51525000D03*
G04 #@! TD*
D62*
G04 #@! TO.C,R1202*
X96925000Y8500000D03*
X98575000Y8500000D03*
G04 #@! TD*
G04 #@! TO.C,R607*
X94325000Y34275000D03*
X95975000Y34275000D03*
G04 #@! TD*
D13*
G04 #@! TO.C,R814*
X49665001Y40250000D03*
X50684999Y40250000D03*
G04 #@! TD*
D14*
G04 #@! TO.C,C411*
X74275000Y53275000D03*
X74275000Y51725000D03*
G04 #@! TD*
D19*
G04 #@! TO.C,C806*
X56720000Y28000000D03*
X57680000Y28000000D03*
G04 #@! TD*
D63*
G04 #@! TO.C,IC601*
X90950000Y26850000D03*
X91450000Y26850000D03*
X91950000Y26850000D03*
X92450000Y26850000D03*
X92950000Y26850000D03*
X93450000Y26850000D03*
X93950000Y26850000D03*
X94450000Y26850000D03*
D64*
X95100000Y27500000D03*
X95100000Y28000000D03*
X95100000Y28500000D03*
X95100000Y29000000D03*
X95100000Y29500000D03*
X95100000Y30000000D03*
D63*
X94450000Y30650000D03*
X93950000Y30650000D03*
X93450000Y30650000D03*
X92950000Y30650000D03*
X92450000Y30650000D03*
X91950000Y30650000D03*
X91450000Y30650000D03*
X90950000Y30650000D03*
D64*
X90300000Y30000000D03*
X90300000Y29500000D03*
X90300000Y29000000D03*
X90300000Y28500000D03*
X90300000Y28000000D03*
X90300000Y27500000D03*
D65*
X92700000Y28750000D03*
G04 #@! TD*
D49*
G04 #@! TO.C,C811*
X56500000Y34250000D03*
X58050000Y34250000D03*
G04 #@! TD*
D66*
G04 #@! TO.C,D1002*
X88575000Y56950000D03*
D67*
X90275000Y56950000D03*
X90275000Y58950000D03*
X88375000Y58950000D03*
G04 #@! TD*
D13*
G04 #@! TO.C,R808*
X89090001Y11900000D03*
X90109999Y11900000D03*
G04 #@! TD*
D44*
G04 #@! TO.C,R809*
X64012500Y37800000D03*
X62187500Y37800000D03*
G04 #@! TD*
D68*
G04 #@! TO.C,Q803*
X74907750Y27405000D03*
X74907750Y26135000D03*
X74907750Y24865000D03*
X74907750Y23595000D03*
G04 #@! TD*
D69*
G04 #@! TO.C,D701*
X22000000Y15700000D03*
X22000000Y18600000D03*
G04 #@! TD*
D13*
G04 #@! TO.C,R711*
X32190000Y24600000D03*
X33210000Y24600000D03*
G04 #@! TD*
D32*
G04 #@! TO.C,R807*
X59787500Y50250000D03*
X62712500Y50250000D03*
G04 #@! TD*
D22*
G04 #@! TO.C,R1007*
X62600000Y65709999D03*
X62600000Y64690001D03*
G04 #@! TD*
D33*
G04 #@! TO.C,C405*
X76950000Y49770000D03*
X76950000Y50730000D03*
G04 #@! TD*
D35*
G04 #@! TO.C,C713*
X26900000Y15180000D03*
X26900000Y14220000D03*
G04 #@! TD*
D13*
G04 #@! TO.C,R717*
X32190000Y23600000D03*
X33210000Y23600000D03*
G04 #@! TD*
D21*
G04 #@! TO.C,R713*
X31200000Y23640000D03*
X31200000Y24660000D03*
G04 #@! TD*
D13*
G04 #@! TO.C,R812*
X51790000Y39900000D03*
X52810000Y39900000D03*
G04 #@! TD*
D70*
G04 #@! TO.C,Q802*
X66322250Y22690000D03*
X66322250Y23960000D03*
X66322250Y25230000D03*
X66322250Y26500000D03*
G04 #@! TD*
D35*
G04 #@! TO.C,C711*
X23900000Y24480000D03*
X23900000Y23520000D03*
G04 #@! TD*
D13*
G04 #@! TO.C,R1005*
X86015000Y57450000D03*
X87035000Y57450000D03*
G04 #@! TD*
D21*
G04 #@! TO.C,R822*
X51775000Y32240000D03*
X51775000Y33260000D03*
G04 #@! TD*
D22*
G04 #@! TO.C,R806*
X91800000Y4819998D03*
X91800000Y3800000D03*
G04 #@! TD*
D62*
G04 #@! TO.C,R609*
X96575000Y26700000D03*
X98225000Y26700000D03*
G04 #@! TD*
D13*
G04 #@! TO.C,R1102*
X84015000Y62000000D03*
X85035000Y62000000D03*
G04 #@! TD*
D71*
G04 #@! TO.C,Q801*
X68200000Y14637500D03*
X66300000Y14637500D03*
X67250000Y12362500D03*
G04 #@! TD*
D13*
G04 #@! TO.C,R715*
X31190000Y17400000D03*
X32210000Y17400000D03*
G04 #@! TD*
D33*
G04 #@! TO.C,C413*
X79625000Y48520000D03*
X79625000Y49480000D03*
G04 #@! TD*
D72*
G04 #@! TO.C,U401*
X78945000Y55020000D03*
X80275000Y55020000D03*
X81605000Y55020000D03*
X78945000Y56350000D03*
X80275000Y56350000D03*
X81605000Y56350000D03*
X78945000Y57680000D03*
X80275000Y57680000D03*
X81605000Y57680000D03*
D73*
X77675000Y52900000D03*
X78075000Y52900000D03*
X78475000Y52900000D03*
X78875000Y52900000D03*
X79275000Y52900000D03*
X79675000Y52900000D03*
X80075000Y52900000D03*
X80475000Y52900000D03*
X80875000Y52900000D03*
X81275000Y52900000D03*
X81675000Y52900000D03*
X82075000Y52900000D03*
X82475000Y52900000D03*
X82875000Y52900000D03*
D74*
X83725000Y53750000D03*
X83725000Y54150000D03*
X83725000Y54550000D03*
X83725000Y54950000D03*
X83725000Y55350000D03*
X83725000Y55750000D03*
X83725000Y56150000D03*
X83725000Y56550000D03*
X83725000Y56950000D03*
X83725000Y57350000D03*
X83725000Y57750000D03*
X83725000Y58150000D03*
X83725000Y58550000D03*
X83725000Y58950000D03*
D73*
X82875000Y59800000D03*
X82475000Y59800000D03*
X82075000Y59800000D03*
X81675000Y59800000D03*
X81275000Y59800000D03*
X80875000Y59800000D03*
X80475000Y59800000D03*
X80075000Y59800000D03*
X79675000Y59800000D03*
X79275000Y59800000D03*
X78875000Y59800000D03*
X78475000Y59800000D03*
X78075000Y59800000D03*
X77675000Y59800000D03*
D74*
X76825000Y58950000D03*
X76825000Y58550000D03*
X76825000Y58150000D03*
X76825000Y57750000D03*
X76825000Y57350000D03*
X76825000Y56950000D03*
X76825000Y56550000D03*
X76825000Y56150000D03*
X76825000Y55750000D03*
X76825000Y55350000D03*
X76825000Y54950000D03*
X76825000Y54550000D03*
X76825000Y54150000D03*
X76825000Y53750000D03*
G04 #@! TD*
D21*
G04 #@! TO.C,R719*
X33589973Y18414138D03*
X33589973Y19434136D03*
G04 #@! TD*
D19*
G04 #@! TO.C,C716*
X28500000Y25200000D03*
X29460000Y25200000D03*
G04 #@! TD*
D49*
G04 #@! TO.C,C608*
X91350000Y35800000D03*
X92900000Y35800000D03*
G04 #@! TD*
D19*
G04 #@! TO.C,C602*
X94095000Y31950000D03*
X95055000Y31950000D03*
G04 #@! TD*
D27*
G04 #@! TO.C,D501*
X50050000Y20500000D03*
X54450000Y20500000D03*
G04 #@! TD*
D20*
G04 #@! TO.C,C406*
X77985000Y51750000D03*
X77025000Y51750000D03*
G04 #@! TD*
D75*
G04 #@! TO.C,C403*
X76275000Y48100000D03*
X73325000Y48100000D03*
G04 #@! TD*
D20*
G04 #@! TO.C,C601*
X91405000Y31950000D03*
X90445000Y31950000D03*
G04 #@! TD*
D13*
G04 #@! TO.C,R1101*
X87765000Y64250000D03*
X88785000Y64250000D03*
G04 #@! TD*
D57*
G04 #@! TO.C,R1203*
X9500000Y66940000D03*
X9500000Y68590000D03*
G04 #@! TD*
D76*
G04 #@! TO.C,LED801*
X66300000Y5150000D03*
X66300000Y1650000D03*
G04 #@! TD*
D77*
G04 #@! TO.C,LED601*
X91000000Y41215000D03*
X87500000Y41215000D03*
G04 #@! TD*
D24*
G04 #@! TO.C,R601*
X91435000Y33100000D03*
X90415000Y33100000D03*
G04 #@! TD*
D20*
G04 #@! TO.C,C402*
X82505000Y61000000D03*
X81545000Y61000000D03*
G04 #@! TD*
D35*
G04 #@! TO.C,C808*
X42275000Y27730000D03*
X42275000Y26770000D03*
G04 #@! TD*
D71*
G04 #@! TO.C,Q806*
X91200001Y9337500D03*
X89300001Y9337500D03*
X90250001Y7062500D03*
G04 #@! TD*
D19*
G04 #@! TO.C,C718*
X29970000Y16400000D03*
X30930000Y16400000D03*
G04 #@! TD*
D35*
G04 #@! TO.C,C613*
X88950000Y27980000D03*
X88950000Y27020000D03*
G04 #@! TD*
D57*
G04 #@! TO.C,R703*
X12250000Y6775000D03*
X12250000Y8425000D03*
G04 #@! TD*
D33*
G04 #@! TO.C,C712*
X30900000Y33450000D03*
X30900000Y34410000D03*
G04 #@! TD*
D78*
G04 #@! TO.C,R702*
X26900000Y31637500D03*
X26900000Y36262500D03*
G04 #@! TD*
D20*
G04 #@! TO.C,C606*
X88880000Y29100000D03*
X87920000Y29100000D03*
G04 #@! TD*
G04 #@! TO.C,C802*
X60660000Y34000000D03*
X59700000Y34000000D03*
G04 #@! TD*
D17*
G04 #@! TO.C,C610*
X99200000Y39500000D03*
X97300000Y39500000D03*
G04 #@! TD*
D20*
G04 #@! TO.C,C607*
X95055000Y32975000D03*
X94095000Y32975000D03*
G04 #@! TD*
D33*
G04 #@! TO.C,C408*
X75525000Y58520000D03*
X75525000Y59480000D03*
G04 #@! TD*
D79*
G04 #@! TO.C,Q804*
X65740000Y37000001D03*
X67010000Y37000001D03*
X68280000Y37000001D03*
X69550000Y37000001D03*
G04 #@! TD*
D22*
G04 #@! TO.C,R802*
X67603836Y17259999D03*
X67603836Y16240001D03*
G04 #@! TD*
D80*
G04 #@! TO.C,L601*
X92750000Y32187500D03*
X92750000Y34312500D03*
G04 #@! TD*
D34*
G04 #@! TO.C,C609*
X95925000Y35800000D03*
X94375000Y35800000D03*
G04 #@! TD*
D81*
G04 #@! TO.C,C707*
X26700000Y41025000D03*
X26700000Y47975000D03*
G04 #@! TD*
D45*
G04 #@! TO.C,S401*
X80825000Y49000000D03*
X84225000Y49000000D03*
D46*
X82525000Y50650000D03*
G04 #@! TD*
D24*
G04 #@! TO.C,R602*
X88759999Y44200000D03*
X87740001Y44200000D03*
G04 #@! TD*
D33*
G04 #@! TO.C,C901*
X8250000Y7770000D03*
X8250000Y8730000D03*
G04 #@! TD*
D79*
G04 #@! TO.C,Q805*
X72095000Y37007749D03*
X73365000Y37007749D03*
X74635000Y37007749D03*
X75905000Y37007749D03*
G04 #@! TD*
D49*
G04 #@! TO.C,C805*
X59875000Y43900000D03*
X61425000Y43900000D03*
G04 #@! TD*
D22*
G04 #@! TO.C,R705*
X25900000Y15200000D03*
X25900000Y14180000D03*
G04 #@! TD*
D82*
G04 #@! TO.C,D803*
X60800000Y42500000D03*
X60800000Y41100000D03*
G04 #@! TD*
D48*
G04 #@! TO.C,D503*
X20000000Y57450000D03*
X20000000Y53050000D03*
G04 #@! TD*
D15*
G04 #@! TO.C,R820*
X59100000Y39612500D03*
X59100000Y37787500D03*
G04 #@! TD*
D14*
G04 #@! TO.C,C815*
X62200000Y33250000D03*
X62200000Y31700000D03*
G04 #@! TD*
D24*
G04 #@! TO.C,R406*
X36209999Y23450000D03*
X35190001Y23450000D03*
G04 #@! TD*
G04 #@! TO.C,R1002*
X71610000Y65000000D03*
X70590000Y65000000D03*
G04 #@! TD*
D83*
G04 #@! TO.C,C701*
X39500000Y9525000D03*
X39500000Y2575000D03*
G04 #@! TD*
D84*
G04 #@! TO.C,IC802*
X53351000Y44500000D03*
X53351000Y44000000D03*
X53351000Y43500000D03*
X53351000Y43000000D03*
X53351000Y42500000D03*
X53351000Y42000000D03*
X53351000Y41500000D03*
X53351000Y41000000D03*
X57775000Y41000000D03*
X57775000Y41500000D03*
X57775000Y42000000D03*
X57775000Y42500000D03*
X57775000Y43000000D03*
X57775000Y43500000D03*
X57775000Y44000000D03*
X57775000Y44500000D03*
D85*
X55563000Y42750000D03*
G04 #@! TD*
D86*
G04 #@! TO.C,D1001*
X69150000Y66200000D03*
X68200000Y66200000D03*
X67250000Y66200000D03*
X67250000Y63600000D03*
X69150000Y63600000D03*
G04 #@! TD*
D25*
G04 #@! TO.C,R819*
X61987500Y28500000D03*
X63812500Y28500000D03*
G04 #@! TD*
D56*
G04 #@! TO.C,FB601*
X86375000Y35350000D03*
X88575000Y35350000D03*
G04 #@! TD*
D24*
G04 #@! TO.C,R722*
X36659999Y17250000D03*
X35640001Y17250000D03*
G04 #@! TD*
D87*
G04 #@! TO.C,C604*
X86200000Y33200000D03*
X89150000Y33200000D03*
G04 #@! TD*
D62*
G04 #@! TO.C,R710*
X5025000Y14025000D03*
X6675000Y14025000D03*
G04 #@! TD*
D88*
G04 #@! TO.C,L401*
X77950000Y49810000D03*
X77950000Y50660000D03*
G04 #@! TD*
D83*
G04 #@! TO.C,C702*
X30250000Y9525000D03*
X30250000Y2575000D03*
G04 #@! TD*
D84*
G04 #@! TO.C,IC801*
X55563000Y32750000D03*
X55563000Y32250000D03*
X55563000Y31750000D03*
X55563000Y31250000D03*
X55563000Y30750000D03*
X55563000Y30250000D03*
X55563000Y29750000D03*
X55563000Y29250000D03*
X59987000Y29250000D03*
X59987000Y29750000D03*
X59987000Y30250000D03*
X59987000Y30750000D03*
X59987000Y31250000D03*
X59987000Y31750000D03*
X59987000Y32250000D03*
X59987000Y32750000D03*
D85*
X57775000Y31000000D03*
G04 #@! TD*
D89*
G04 #@! TO.C,C703*
X21100000Y4700000D03*
X14150000Y4700000D03*
G04 #@! TD*
D21*
G04 #@! TO.C,R403*
X73350000Y60990001D03*
X73350000Y62009999D03*
G04 #@! TD*
D13*
G04 #@! TO.C,R1103*
X85015000Y60750000D03*
X86035000Y60750000D03*
G04 #@! TD*
D90*
G04 #@! TO.C,U801*
X47500000Y40000000D03*
X46700000Y40000000D03*
D91*
X47750000Y40887500D03*
X47100000Y40887500D03*
X46450000Y40887500D03*
X46450000Y39112500D03*
X47100000Y39112500D03*
X47750000Y39112500D03*
G04 #@! TD*
D21*
G04 #@! TO.C,R816*
X61200000Y45190001D03*
X61200000Y46209999D03*
G04 #@! TD*
D55*
G04 #@! TO.C,C1201*
X91900000Y65225000D03*
X91900000Y66775000D03*
G04 #@! TD*
D21*
G04 #@! TO.C,R610*
X96075000Y31940000D03*
X96075000Y32960000D03*
G04 #@! TD*
G04 #@! TO.C,R821*
X51775000Y29990000D03*
X51775000Y31010000D03*
G04 #@! TD*
D24*
G04 #@! TO.C,R826*
X57810000Y39750000D03*
X56790000Y39750000D03*
G04 #@! TD*
D22*
G04 #@! TO.C,R404*
X61050000Y59359999D03*
X61050000Y58340001D03*
G04 #@! TD*
D19*
G04 #@! TO.C,C1002*
X87795000Y60750000D03*
X88755000Y60750000D03*
G04 #@! TD*
D24*
G04 #@! TO.C,R720*
X36200000Y22400000D03*
X35180002Y22400000D03*
G04 #@! TD*
D21*
G04 #@! TO.C,R815*
X61700000Y34390001D03*
X61700000Y35409999D03*
G04 #@! TD*
D34*
G04 #@! TO.C,C813*
X50800000Y44100000D03*
X49250000Y44100000D03*
G04 #@! TD*
D92*
G04 #@! TO.C,D802*
X63700000Y31700000D03*
X63700000Y33100000D03*
G04 #@! TD*
D93*
G04 #@! TO.C,D702*
X24700000Y27600000D03*
X21800000Y27600000D03*
G04 #@! TD*
D33*
G04 #@! TO.C,C809*
X50775000Y27020000D03*
X50775000Y27980000D03*
G04 #@! TD*
D35*
G04 #@! TO.C,C710*
X23900000Y17230000D03*
X23900000Y16270000D03*
G04 #@! TD*
D61*
G04 #@! TO.C,C605*
X86800000Y31050000D03*
X88700000Y31050000D03*
G04 #@! TD*
D24*
G04 #@! TO.C,R813*
X54775000Y34000000D03*
X53755000Y34000000D03*
G04 #@! TD*
D76*
G04 #@! TO.C,LED802*
X89800000Y5200000D03*
X89800000Y1700000D03*
G04 #@! TD*
D35*
G04 #@! TO.C,C412*
X75570000Y53700000D03*
X75570000Y52740000D03*
G04 #@! TD*
D49*
G04 #@! TO.C,C717*
X29325000Y14870000D03*
X30875000Y14870000D03*
G04 #@! TD*
D22*
G04 #@! TO.C,R714*
X23300000Y21810000D03*
X23300000Y20790000D03*
G04 #@! TD*
D13*
G04 #@! TO.C,R603*
X94830000Y43900000D03*
X95850000Y43900000D03*
G04 #@! TD*
D23*
G04 #@! TO.C,C705*
X1400000Y21450000D03*
X1400000Y24400000D03*
G04 #@! TD*
D47*
G04 #@! TO.C,C719*
X21850000Y20300000D03*
X21850000Y22200000D03*
G04 #@! TD*
D61*
G04 #@! TO.C,C603*
X86525000Y37300000D03*
X88425000Y37300000D03*
G04 #@! TD*
D41*
G04 #@! TO.C,C706*
X32050000Y29500000D03*
X39000000Y29500000D03*
G04 #@! TD*
D94*
G04 #@! TO.C,LED1101*
X87375000Y66500000D03*
X90175000Y66500000D03*
G04 #@! TD*
D13*
G04 #@! TO.C,R1006*
X86015000Y58450000D03*
X87035000Y58450000D03*
G04 #@! TD*
G04 #@! TO.C,R608*
X87740000Y43050000D03*
X88760000Y43050000D03*
G04 #@! TD*
D95*
G04 #@! TO.C,LED701*
X35025000Y20850000D03*
X37375000Y20850000D03*
G04 #@! TD*
D13*
G04 #@! TO.C,R716*
X32190000Y22550000D03*
X33210000Y22550000D03*
G04 #@! TD*
G04 #@! TO.C,R407*
X77690000Y48500000D03*
X78710000Y48500000D03*
G04 #@! TD*
D96*
G04 #@! TO.C,D801*
X44937500Y33725000D03*
D97*
X48012500Y33725000D03*
D98*
X44937500Y36925000D03*
D99*
X48012500Y36925000D03*
D100*
X44175000Y28600000D03*
X48875000Y28600000D03*
G04 #@! TD*
M02*
