G04 #@! TF.GenerationSoftware,KiCad,Pcbnew,9.0.0*
G04 #@! TF.CreationDate,2025-07-24T22:11:37+02:00*
G04 #@! TF.ProjectId,ElonMux,456c6f6e-4d75-4782-9e6b-696361645f70,1.1*
G04 #@! TF.SameCoordinates,Original*
G04 #@! TF.FileFunction,Legend,Bot*
G04 #@! TF.FilePolarity,Positive*
%FSLAX46Y46*%
G04 Gerber Fmt 4.6, Leading zero omitted, Abs format (unit mm)*
G04 Created by KiCad (PCBNEW 9.0.0) date 2025-07-24 22:11:37*
%MOMM*%
%LPD*%
G01*
G04 APERTURE LIST*
G04 Aperture macros list*
%AMRoundRect*
0 Rectangle with rounded corners*
0 $1 Rounding radius*
0 $2 $3 $4 $5 $6 $7 $8 $9 X,Y pos of 4 corners*
0 Add a 4 corners polygon primitive as box body*
4,1,4,$2,$3,$4,$5,$6,$7,$8,$9,$2,$3,0*
0 Add four circle primitives for the rounded corners*
1,1,$1+$1,$2,$3*
1,1,$1+$1,$4,$5*
1,1,$1+$1,$6,$7*
1,1,$1+$1,$8,$9*
0 Add four rect primitives between the rounded corners*
20,1,$1+$1,$2,$3,$4,$5,0*
20,1,$1+$1,$4,$5,$6,$7,0*
20,1,$1+$1,$6,$7,$8,$9,0*
20,1,$1+$1,$8,$9,$2,$3,0*%
%AMFreePoly0*
4,1,39,0.535355,0.785355,0.550000,0.750000,0.550000,-0.750000,0.535355,-0.785355,0.500000,-0.800000,0.000000,-0.800000,-0.010328,-0.795722,-0.065263,-0.795722,-0.078204,-0.794018,-0.204283,-0.760236,-0.216342,-0.755241,-0.329381,-0.689978,-0.339736,-0.682032,-0.432032,-0.589736,-0.439978,-0.579381,-0.505241,-0.466342,-0.510236,-0.454283,-0.544018,-0.328204,-0.545722,-0.315263,-0.545722,-0.260327,
-0.550000,-0.250000,-0.550000,0.250000,-0.545722,0.260327,-0.545722,0.315263,-0.544018,0.328204,-0.510236,0.454283,-0.505241,0.466342,-0.439978,0.579381,-0.432032,0.589736,-0.339736,0.682032,-0.329381,0.689978,-0.216342,0.755241,-0.204283,0.760236,-0.078204,0.794018,-0.065263,0.795722,-0.010328,0.795722,0.000000,0.800000,0.500000,0.800000,0.535355,0.785355,0.535355,0.785355,
$1*%
%AMFreePoly1*
4,1,39,0.010328,0.795722,0.065263,0.795722,0.078204,0.794018,0.204283,0.760236,0.216342,0.755241,0.329381,0.689978,0.339736,0.682032,0.432032,0.589736,0.439978,0.579381,0.505241,0.466342,0.510236,0.454283,0.544018,0.328204,0.545722,0.315263,0.545722,0.260327,0.550000,0.250000,0.550000,-0.250000,0.545722,-0.260327,0.545722,-0.315263,0.544018,-0.328204,0.510236,-0.454283,
0.505241,-0.466342,0.439978,-0.579381,0.432032,-0.589736,0.339736,-0.682032,0.329381,-0.689978,0.216342,-0.755241,0.204283,-0.760236,0.078204,-0.794018,0.065263,-0.795722,0.010328,-0.795722,0.000000,-0.800000,-0.500000,-0.800000,-0.535355,-0.785355,-0.550000,-0.750000,-0.550000,0.750000,-0.535355,0.785355,-0.500000,0.800000,0.000000,0.800000,0.010328,0.795722,0.010328,0.795722,
$1*%
%AMFreePoly2*
4,1,39,0.585355,0.785355,0.600000,0.750000,0.600000,-0.750000,0.585355,-0.785355,0.550000,-0.800000,0.000000,-0.800000,-0.010328,-0.795722,-0.065263,-0.795722,-0.078204,-0.794018,-0.204283,-0.760236,-0.216342,-0.755241,-0.329381,-0.689978,-0.339736,-0.682032,-0.432032,-0.589736,-0.439978,-0.579381,-0.505241,-0.466342,-0.510236,-0.454283,-0.544018,-0.328204,-0.545722,-0.315263,-0.545722,-0.260327,
-0.550000,-0.250000,-0.550000,0.250000,-0.545722,0.260327,-0.545722,0.315263,-0.544018,0.328204,-0.510236,0.454283,-0.505241,0.466342,-0.439978,0.579381,-0.432032,0.589736,-0.339736,0.682032,-0.329381,0.689978,-0.216342,0.755241,-0.204283,0.760236,-0.078204,0.794018,-0.065263,0.795722,-0.010328,0.795722,0.000000,0.800000,0.550000,0.800000,0.585355,0.785355,0.585355,0.785355,
$1*%
%AMFreePoly3*
4,1,39,0.010328,0.795722,0.065263,0.795722,0.078204,0.794018,0.204283,0.760236,0.216342,0.755241,0.329381,0.689978,0.339736,0.682032,0.432032,0.589736,0.439978,0.579381,0.505241,0.466342,0.510236,0.454283,0.544018,0.328204,0.545722,0.315263,0.545722,0.260327,0.550000,0.250000,0.550000,-0.250000,0.545722,-0.260327,0.545722,-0.315263,0.544018,-0.328204,0.510236,-0.454283,
0.505241,-0.466342,0.439978,-0.579381,0.432032,-0.589736,0.339736,-0.682032,0.329381,-0.689978,0.216342,-0.755241,0.204283,-0.760236,0.078204,-0.794018,0.065263,-0.795722,0.010328,-0.795722,0.000000,-0.800000,-0.550000,-0.800000,-0.585355,-0.785355,-0.600000,-0.750000,-0.600000,0.750000,-0.585355,0.785355,-0.550000,0.800000,0.000000,0.800000,0.010328,0.795722,0.010328,0.795722,
$1*%
G04 Aperture macros list end*
%ADD10C,0.000000*%
%ADD11C,0.150000*%
%ADD12C,0.200000*%
%ADD13C,0.137500*%
%ADD14C,0.120000*%
%ADD15C,2.600000*%
%ADD16C,3.100000*%
%ADD17RoundRect,0.425000X2.550000X1.700000X-2.550000X1.700000X-2.550000X-1.700000X2.550000X-1.700000X0*%
%ADD18RoundRect,0.150000X0.350000X0.900000X-0.350000X0.900000X-0.350000X-0.900000X0.350000X-0.900000X0*%
%ADD19RoundRect,0.425000X1.700000X-2.550000X1.700000X2.550000X-1.700000X2.550000X-1.700000X-2.550000X0*%
%ADD20RoundRect,0.150000X0.900000X-0.350000X0.900000X0.350000X-0.900000X0.350000X-0.900000X-0.350000X0*%
%ADD21C,0.750000*%
%ADD22O,2.200000X1.100000*%
%ADD23O,1.900000X1.100000*%
%ADD24C,1.600000*%
%ADD25C,0.900000*%
%ADD26C,6.500000*%
%ADD27C,0.850000*%
%ADD28RoundRect,0.050000X0.850000X-0.850000X0.850000X0.850000X-0.850000X0.850000X-0.850000X-0.850000X0*%
%ADD29O,1.800000X1.800000*%
%ADD30C,1.100000*%
%ADD31RoundRect,0.275000X-0.275000X-1.525000X0.275000X-1.525000X0.275000X1.525000X-0.275000X1.525000X0*%
%ADD32RoundRect,0.266667X-0.533333X-1.483333X0.533333X-1.483333X0.533333X1.483333X-0.533333X1.483333X0*%
%ADD33FreePoly0,0.000000*%
%ADD34FreePoly1,0.000000*%
%ADD35FreePoly0,90.000000*%
%ADD36FreePoly1,90.000000*%
%ADD37FreePoly2,270.000000*%
%ADD38RoundRect,0.050000X-0.750000X0.500000X-0.750000X-0.500000X0.750000X-0.500000X0.750000X0.500000X0*%
%ADD39FreePoly3,270.000000*%
%ADD40RoundRect,0.275000X0.275000X1.525000X-0.275000X1.525000X-0.275000X-1.525000X0.275000X-1.525000X0*%
%ADD41RoundRect,0.266667X0.533333X1.483333X-0.533333X1.483333X-0.533333X-1.483333X0.533333X-1.483333X0*%
G04 APERTURE END LIST*
D10*
G36*
X50177610Y52616603D02*
G01*
X50192333Y52615432D01*
X50206977Y52613585D01*
X50221515Y52611054D01*
X50235922Y52607831D01*
X50250170Y52603907D01*
X50264235Y52599274D01*
X50278090Y52593923D01*
X50291709Y52587847D01*
X50305065Y52581036D01*
X50318132Y52573482D01*
X50330884Y52565178D01*
X50343295Y52556115D01*
X50355339Y52546283D01*
X50366989Y52535676D01*
X50379577Y52522096D01*
X50388038Y52512812D01*
X50396072Y52503480D01*
X50403683Y52494079D01*
X50410879Y52484586D01*
X50417664Y52474979D01*
X50424045Y52465235D01*
X50430027Y52455333D01*
X50435617Y52445250D01*
X50440819Y52434964D01*
X50445640Y52424453D01*
X50450086Y52413694D01*
X50454163Y52402665D01*
X50457875Y52391345D01*
X50461230Y52379710D01*
X50464233Y52367738D01*
X50466890Y52355408D01*
X50468055Y52335547D01*
X50468561Y52316143D01*
X50468374Y52297171D01*
X50467460Y52278604D01*
X50465785Y52260415D01*
X50463316Y52242576D01*
X50460019Y52225062D01*
X50455860Y52207845D01*
X50450805Y52190899D01*
X50444821Y52174196D01*
X50437874Y52157710D01*
X50429930Y52141414D01*
X50420956Y52125282D01*
X50410918Y52109286D01*
X50399782Y52093399D01*
X50387515Y52077596D01*
X50376710Y52067164D01*
X50365771Y52057221D01*
X50354676Y52047785D01*
X50343404Y52038877D01*
X50331932Y52030516D01*
X50320240Y52022721D01*
X50308305Y52015512D01*
X50296106Y52008909D01*
X50283622Y52002930D01*
X50270830Y51997595D01*
X50257709Y51992924D01*
X50244237Y51988936D01*
X50230393Y51985651D01*
X50216155Y51983088D01*
X50201501Y51981267D01*
X50186411Y51980206D01*
X50167764Y51980089D01*
X50149465Y51980474D01*
X50131504Y51981410D01*
X50113871Y51982950D01*
X50096555Y51985141D01*
X50079547Y51988036D01*
X50062836Y51991683D01*
X50046412Y51996134D01*
X50030266Y52001439D01*
X50014387Y52007646D01*
X49998765Y52014808D01*
X49983391Y52022974D01*
X49968254Y52032194D01*
X49953343Y52042518D01*
X49938650Y52053998D01*
X49924163Y52066682D01*
X49913497Y52078860D01*
X49903417Y52091460D01*
X49893938Y52104461D01*
X49885074Y52117839D01*
X49876840Y52131572D01*
X49869251Y52145638D01*
X49862320Y52160013D01*
X49856062Y52174676D01*
X49850491Y52189604D01*
X49845622Y52204775D01*
X49841470Y52220165D01*
X49838047Y52235753D01*
X49835370Y52251516D01*
X49833452Y52267431D01*
X49832308Y52283476D01*
X49831952Y52299629D01*
X49833191Y52316513D01*
X49834941Y52333051D01*
X49837232Y52349250D01*
X49840091Y52365115D01*
X49843547Y52380652D01*
X49847626Y52395867D01*
X49852358Y52410767D01*
X49857771Y52425357D01*
X49863892Y52439643D01*
X49870750Y52453631D01*
X49878372Y52467328D01*
X49886788Y52480739D01*
X49896024Y52493870D01*
X49906109Y52506728D01*
X49917071Y52519317D01*
X49928938Y52531645D01*
X49940605Y52541210D01*
X49952664Y52550249D01*
X49965090Y52558754D01*
X49977856Y52566718D01*
X50004302Y52580984D01*
X50031795Y52592982D01*
X50060124Y52602645D01*
X50089080Y52609905D01*
X50118452Y52614696D01*
X50133230Y52616144D01*
X50148033Y52616951D01*
X50162835Y52617106D01*
X50177610Y52616603D01*
G37*
G36*
X51133640Y51799783D02*
G01*
X51131157Y51794908D01*
X51128675Y51790213D01*
X51126183Y51785682D01*
X51123670Y51781296D01*
X51121126Y51777036D01*
X51118541Y51772886D01*
X51115905Y51768827D01*
X51113207Y51764840D01*
X51110436Y51760909D01*
X51107583Y51757014D01*
X51104638Y51753138D01*
X51101589Y51749263D01*
X51095140Y51741443D01*
X51088154Y51733409D01*
X51078573Y51722620D01*
X51069056Y51711778D01*
X51059593Y51700890D01*
X51050172Y51689960D01*
X50949521Y51544448D01*
X50858157Y51397312D01*
X50775792Y51248766D01*
X50702141Y51099019D01*
X50636919Y50948284D01*
X50579840Y50796773D01*
X50530618Y50644696D01*
X50488968Y50492266D01*
X50454604Y50339694D01*
X50427240Y50187191D01*
X50406590Y50034969D01*
X50392370Y49883240D01*
X50384292Y49732215D01*
X50382072Y49582105D01*
X50385423Y49433123D01*
X50394061Y49285479D01*
X50395452Y49267721D01*
X50398904Y49224053D01*
X50402906Y49180499D01*
X50407414Y49137036D01*
X50412380Y49093642D01*
X50423506Y49006968D01*
X50435915Y48920300D01*
X50440219Y48890122D01*
X50444065Y48859977D01*
X50451015Y48799408D01*
X49514390Y48799408D01*
X49514487Y48810454D01*
X49514787Y48821189D01*
X49515303Y48831705D01*
X49516050Y48842095D01*
X49517041Y48852450D01*
X49518291Y48862861D01*
X49519811Y48873422D01*
X49521618Y48884224D01*
X49524777Y48901262D01*
X49534851Y48956171D01*
X49538202Y48974033D01*
X49580847Y49153680D01*
X49625388Y49326585D01*
X49671891Y49493064D01*
X49720421Y49653437D01*
X49771043Y49808018D01*
X49823824Y49957126D01*
X49878829Y50101077D01*
X49936123Y50240188D01*
X49995771Y50374777D01*
X50057840Y50505161D01*
X50122395Y50631656D01*
X50189501Y50754580D01*
X50259224Y50874250D01*
X50331629Y50990982D01*
X50406782Y51105095D01*
X50484749Y51216904D01*
X50498640Y51236221D01*
X50546190Y51301499D01*
X50570323Y51333790D01*
X50594731Y51365850D01*
X50619438Y51397678D01*
X50644472Y51429274D01*
X50669857Y51460638D01*
X50695620Y51491771D01*
X50718421Y51519131D01*
X50729726Y51532886D01*
X50740951Y51546713D01*
X50763386Y51574176D01*
X50786161Y51601268D01*
X50809345Y51628012D01*
X50821112Y51641259D01*
X50833007Y51654428D01*
X50859992Y51683864D01*
X50873351Y51698696D01*
X50886554Y51713680D01*
X50906041Y51735953D01*
X50925914Y51757758D01*
X50946191Y51779102D01*
X50966890Y51799993D01*
X50988029Y51820437D01*
X51009626Y51840441D01*
X51031699Y51860013D01*
X51054265Y51879158D01*
X51133640Y51799783D01*
G37*
G36*
X18750000Y3854792D02*
G01*
X18750000Y3457917D01*
X17691666Y3457917D01*
X16633331Y3457917D01*
X16633331Y3854792D01*
X16633331Y4251667D01*
X17691666Y4251667D01*
X18750000Y4251667D01*
X18750000Y3854792D01*
G37*
G36*
X24041663Y4775541D02*
G01*
X24041666Y3854792D01*
X24041663Y1552916D01*
X23538957Y1552916D01*
X23036248Y1552914D01*
X23036247Y2505415D01*
X23036248Y3457917D01*
X22305999Y3457917D01*
X22001583Y3461463D01*
X21868142Y3466253D01*
X21745908Y3473380D01*
X21633908Y3483077D01*
X21531162Y3495588D01*
X21436696Y3511155D01*
X21349530Y3530017D01*
X21268690Y3552409D01*
X21193197Y3578581D01*
X21122078Y3608766D01*
X21054354Y3643209D01*
X20989048Y3682144D01*
X20925182Y3725817D01*
X20861785Y3774466D01*
X20797872Y3828334D01*
X20744710Y3878603D01*
X20695348Y3932022D01*
X20649770Y3988365D01*
X20607960Y4047400D01*
X20569909Y4108902D01*
X20535598Y4172637D01*
X20505013Y4238384D01*
X20478140Y4305907D01*
X20454966Y4374980D01*
X20435472Y4445376D01*
X20419648Y4516866D01*
X20407478Y4589217D01*
X20398949Y4662206D01*
X20394039Y4735601D01*
X20393477Y4767605D01*
X21351514Y4767605D01*
X21353288Y4740888D01*
X21356877Y4714353D01*
X21362277Y4688055D01*
X21369486Y4662061D01*
X21378508Y4636422D01*
X21389338Y4611195D01*
X21401975Y4586443D01*
X21416419Y4562221D01*
X21432670Y4538589D01*
X21450727Y4515605D01*
X21470587Y4493325D01*
X21492249Y4471809D01*
X21515714Y4451114D01*
X21540983Y4431301D01*
X21568048Y4412422D01*
X21596915Y4394542D01*
X21622401Y4380269D01*
X21649491Y4367164D01*
X21678549Y4355159D01*
X21709940Y4344189D01*
X21744029Y4334177D01*
X21781181Y4325059D01*
X21821759Y4316759D01*
X21866129Y4309214D01*
X21914651Y4302350D01*
X21967691Y4296098D01*
X22025619Y4290390D01*
X22088792Y4285152D01*
X22157577Y4280320D01*
X22232339Y4275821D01*
X22401248Y4267542D01*
X23036248Y4235791D01*
X23036248Y4775539D01*
X23036248Y5320584D01*
X22380080Y5299416D01*
X22186634Y5293308D01*
X22031080Y5286271D01*
X21907646Y5277372D01*
X21856172Y5271935D01*
X21810566Y5265682D01*
X21770106Y5258500D01*
X21734073Y5250272D01*
X21701747Y5240883D01*
X21672404Y5230212D01*
X21645322Y5218146D01*
X21619787Y5204571D01*
X21595070Y5189366D01*
X21570457Y5172418D01*
X21543093Y5150691D01*
X21517559Y5128219D01*
X21493852Y5105055D01*
X21471972Y5081260D01*
X21451915Y5056891D01*
X21433685Y5032006D01*
X21417278Y5006664D01*
X21402694Y4980926D01*
X21389929Y4954842D01*
X21378989Y4928477D01*
X21369865Y4901889D01*
X21362562Y4875132D01*
X21357074Y4848267D01*
X21353407Y4821353D01*
X21351553Y4794446D01*
X21351514Y4767605D01*
X20393477Y4767605D01*
X20392746Y4809174D01*
X20395044Y4882696D01*
X20400926Y4955941D01*
X20410375Y5028679D01*
X20423373Y5100678D01*
X20439911Y5171714D01*
X20459970Y5241555D01*
X20483540Y5309975D01*
X20510604Y5376741D01*
X20541145Y5441630D01*
X20575152Y5504409D01*
X20612609Y5564854D01*
X20653503Y5622730D01*
X20697815Y5677813D01*
X20745538Y5729873D01*
X20796653Y5778680D01*
X20851144Y5824007D01*
X20908999Y5865624D01*
X20977616Y5908136D01*
X21047430Y5946499D01*
X21119753Y5980910D01*
X21195905Y6011561D01*
X21277205Y6038643D01*
X21364970Y6062358D01*
X21460517Y6082891D01*
X21565165Y6100442D01*
X21680230Y6115203D01*
X21807031Y6127366D01*
X21946886Y6137126D01*
X22101112Y6144678D01*
X22271026Y6150214D01*
X22457946Y6153927D01*
X22663193Y6156015D01*
X22888081Y6156667D01*
X24041664Y6156667D01*
X24041663Y4775541D01*
G37*
G36*
X46441279Y51785979D02*
G01*
X46491442Y51780057D01*
X46540974Y51770315D01*
X46589556Y51756769D01*
X46636869Y51739434D01*
X46682596Y51718324D01*
X46726417Y51693457D01*
X46747514Y51679618D01*
X46768015Y51664846D01*
X46788806Y51646008D01*
X46809254Y51626443D01*
X46829251Y51606164D01*
X46848687Y51585185D01*
X46867452Y51563519D01*
X46885435Y51541181D01*
X46902529Y51518184D01*
X46918622Y51494542D01*
X46933606Y51470268D01*
X46947370Y51445378D01*
X46959805Y51419884D01*
X46970801Y51393800D01*
X46980249Y51367141D01*
X46988038Y51339919D01*
X46994059Y51312150D01*
X46998202Y51283846D01*
X46999782Y51248545D01*
X47000682Y51213532D01*
X47000774Y51178830D01*
X46999925Y51144463D01*
X46998005Y51110453D01*
X46994883Y51076822D01*
X46990427Y51043594D01*
X46984508Y51010791D01*
X46976993Y50978436D01*
X46967752Y50946552D01*
X46956654Y50915162D01*
X46943568Y50884289D01*
X46928362Y50853956D01*
X46910907Y50824184D01*
X46891070Y50794998D01*
X46868722Y50766420D01*
X46846996Y50743861D01*
X46824819Y50722289D01*
X46802161Y50701759D01*
X46778993Y50682323D01*
X46755285Y50664032D01*
X46731008Y50646941D01*
X46706133Y50631102D01*
X46680631Y50616568D01*
X46654473Y50603391D01*
X46627628Y50591624D01*
X46600068Y50581321D01*
X46571764Y50572533D01*
X46542686Y50565314D01*
X46512804Y50559716D01*
X46482091Y50555792D01*
X46450515Y50553596D01*
X46450515Y50656783D01*
X46467766Y50661619D01*
X46484863Y50666681D01*
X46501828Y50671978D01*
X46518682Y50677524D01*
X46535450Y50683329D01*
X46552152Y50689407D01*
X46568813Y50695767D01*
X46585453Y50702424D01*
X46609674Y50713781D01*
X46632817Y50725962D01*
X46654903Y50738976D01*
X46675955Y50752833D01*
X46695995Y50767541D01*
X46715047Y50783111D01*
X46733132Y50799551D01*
X46750272Y50816871D01*
X46766491Y50835081D01*
X46781811Y50854189D01*
X46796254Y50874205D01*
X46809842Y50895139D01*
X46822599Y50917000D01*
X46834546Y50939796D01*
X46845707Y50963539D01*
X46856103Y50988236D01*
X46862604Y51011592D01*
X46867939Y51035335D01*
X46872115Y51059395D01*
X46875140Y51083704D01*
X46877022Y51108191D01*
X46877768Y51132788D01*
X46877385Y51157425D01*
X46875882Y51182034D01*
X46873266Y51206544D01*
X46869545Y51230886D01*
X46864725Y51254992D01*
X46858815Y51278791D01*
X46851823Y51302215D01*
X46843756Y51325195D01*
X46834621Y51347660D01*
X46824426Y51369542D01*
X46811704Y51392391D01*
X46798434Y51414176D01*
X46784582Y51434914D01*
X46770111Y51454623D01*
X46754987Y51473319D01*
X46739172Y51491022D01*
X46722631Y51507746D01*
X46705329Y51523511D01*
X46687229Y51538334D01*
X46668296Y51552231D01*
X46648494Y51565221D01*
X46627786Y51577320D01*
X46606139Y51588546D01*
X46583514Y51598916D01*
X46559877Y51608448D01*
X46535192Y51617159D01*
X46509107Y51623746D01*
X46483358Y51629077D01*
X46457918Y51633147D01*
X46432765Y51635952D01*
X46407873Y51637490D01*
X46383218Y51637758D01*
X46358776Y51636751D01*
X46334522Y51634466D01*
X46310431Y51630900D01*
X46286480Y51626050D01*
X46262644Y51619912D01*
X46238898Y51612482D01*
X46215219Y51603757D01*
X46191581Y51593735D01*
X46167960Y51582411D01*
X46144332Y51569782D01*
X46122106Y51555889D01*
X46101044Y51541040D01*
X46081122Y51525264D01*
X46062319Y51508590D01*
X46044613Y51491044D01*
X46027981Y51472657D01*
X46012403Y51453455D01*
X45997854Y51433468D01*
X45984314Y51412724D01*
X45971760Y51391250D01*
X45960171Y51369076D01*
X45949523Y51346229D01*
X45939796Y51322739D01*
X45930966Y51298632D01*
X45923012Y51273938D01*
X45915912Y51248685D01*
X45912109Y51223542D01*
X45909757Y51198209D01*
X45908812Y51172746D01*
X45909225Y51147214D01*
X45910951Y51121671D01*
X45913943Y51096180D01*
X45918154Y51070799D01*
X45923536Y51045588D01*
X45930045Y51020609D01*
X45937632Y50995920D01*
X45946251Y50971583D01*
X45955856Y50947657D01*
X45966399Y50924202D01*
X45977834Y50901278D01*
X45990114Y50878947D01*
X46003193Y50857267D01*
X46017531Y50837608D01*
X46032732Y50819038D01*
X46048759Y50801536D01*
X46065573Y50785081D01*
X46083136Y50769652D01*
X46101412Y50755230D01*
X46120361Y50741792D01*
X46139945Y50729319D01*
X46160128Y50717790D01*
X46180870Y50707184D01*
X46202134Y50697480D01*
X46223883Y50688659D01*
X46246077Y50680698D01*
X46268680Y50673578D01*
X46291652Y50667277D01*
X46314958Y50661775D01*
X46339390Y50656783D01*
X46339390Y50553596D01*
X46328146Y50553214D01*
X46316899Y50552912D01*
X46305650Y50552727D01*
X46294400Y50552697D01*
X46280851Y50553609D01*
X46267418Y50555013D01*
X46254102Y50556895D01*
X46240906Y50559240D01*
X46227830Y50562033D01*
X46214876Y50565260D01*
X46189340Y50572955D01*
X46164312Y50582207D01*
X46139803Y50592898D01*
X46115825Y50604910D01*
X46092391Y50618127D01*
X46069512Y50632429D01*
X46047202Y50647700D01*
X46025472Y50663821D01*
X46004335Y50680674D01*
X45983803Y50698142D01*
X45963888Y50716107D01*
X45944602Y50734451D01*
X45925957Y50753056D01*
X45904742Y50778686D01*
X45885267Y50805302D01*
X45867493Y50832832D01*
X45851383Y50861201D01*
X45836900Y50890334D01*
X45824004Y50920158D01*
X45812659Y50950599D01*
X45802827Y50981583D01*
X45794469Y51013035D01*
X45787547Y51044882D01*
X45782025Y51077049D01*
X45777863Y51109462D01*
X45775025Y51142048D01*
X45773472Y51174731D01*
X45773166Y51207439D01*
X45774070Y51240096D01*
X45777868Y51272246D01*
X45783479Y51303626D01*
X45790836Y51334239D01*
X45799869Y51364092D01*
X45810508Y51393189D01*
X45822686Y51421536D01*
X45836334Y51449137D01*
X45851383Y51475998D01*
X45867764Y51502124D01*
X45885408Y51527520D01*
X45904247Y51552190D01*
X45924212Y51576141D01*
X45945233Y51599377D01*
X45967243Y51621903D01*
X45990172Y51643724D01*
X46013952Y51664846D01*
X46034410Y51679915D01*
X46055465Y51693994D01*
X46077080Y51707083D01*
X46099213Y51719184D01*
X46144878Y51740432D01*
X46192141Y51757752D01*
X46240683Y51771160D01*
X46290186Y51780671D01*
X46340333Y51786301D01*
X46390803Y51788065D01*
X46441279Y51785979D01*
G37*
G36*
X48766822Y51807944D02*
G01*
X48801401Y51805761D01*
X48835778Y51801773D01*
X48869852Y51795968D01*
X48903518Y51788334D01*
X48919077Y51783908D01*
X48939763Y51777747D01*
X48960005Y51771048D01*
X48979813Y51763799D01*
X48999198Y51755989D01*
X49018169Y51747604D01*
X49036737Y51738634D01*
X49054910Y51729065D01*
X49072699Y51718886D01*
X49090115Y51708084D01*
X49107166Y51696648D01*
X49123862Y51684566D01*
X49140215Y51671824D01*
X49156232Y51658411D01*
X49171926Y51644316D01*
X49187304Y51629525D01*
X49202378Y51614027D01*
X49220702Y51593408D01*
X49276273Y51530296D01*
X49298752Y51503079D01*
X49318022Y51477532D01*
X49334328Y51452740D01*
X49347915Y51427785D01*
X49359028Y51401750D01*
X49367913Y51373719D01*
X49374815Y51342776D01*
X49379980Y51308002D01*
X49383653Y51268483D01*
X49386080Y51223300D01*
X49387505Y51171538D01*
X49388175Y51112279D01*
X49388229Y50967606D01*
X49388137Y50885903D01*
X49387988Y50731294D01*
X49387801Y50554111D01*
X49387390Y50172596D01*
X49276265Y50180533D01*
X49274900Y50562643D01*
X49274149Y50748656D01*
X49273562Y50911832D01*
X49273296Y50955068D01*
X49273149Y50998305D01*
X49272319Y51073543D01*
X49271011Y51110178D01*
X49268882Y51146187D01*
X49265761Y51181594D01*
X49261479Y51216420D01*
X49255868Y51250690D01*
X49248756Y51284426D01*
X49239975Y51317651D01*
X49229354Y51350388D01*
X49216725Y51382660D01*
X49201918Y51414489D01*
X49184763Y51445900D01*
X49165090Y51476914D01*
X49142731Y51507555D01*
X49117515Y51537846D01*
X49099461Y51554954D01*
X49080822Y51571141D01*
X49061616Y51586392D01*
X49041863Y51600687D01*
X49021581Y51614011D01*
X49000790Y51626344D01*
X48979510Y51637671D01*
X48957758Y51647973D01*
X48935555Y51657234D01*
X48912919Y51665436D01*
X48889869Y51672561D01*
X48866426Y51678593D01*
X48842608Y51683513D01*
X48818433Y51687305D01*
X48793923Y51689950D01*
X48769094Y51691433D01*
X48746193Y51691341D01*
X48723131Y51690472D01*
X48699984Y51688791D01*
X48676825Y51686260D01*
X48653729Y51682844D01*
X48630772Y51678504D01*
X48608026Y51673205D01*
X48585567Y51666910D01*
X48563469Y51659583D01*
X48541807Y51651186D01*
X48520655Y51641683D01*
X48500087Y51631037D01*
X48480179Y51619212D01*
X48461004Y51606170D01*
X48442638Y51591876D01*
X48425154Y51576293D01*
X48411077Y51561658D01*
X48396950Y51547423D01*
X48382943Y51533104D01*
X48369095Y51518634D01*
X48362242Y51511321D01*
X48355445Y51503945D01*
X48337750Y51482572D01*
X48321815Y51460714D01*
X48307567Y51438385D01*
X48294934Y51415601D01*
X48283843Y51392375D01*
X48274222Y51368722D01*
X48265999Y51344657D01*
X48259100Y51320194D01*
X48253454Y51295348D01*
X48248989Y51270133D01*
X48245631Y51244564D01*
X48243309Y51218655D01*
X48241949Y51192421D01*
X48241480Y51165877D01*
X48241830Y51139036D01*
X48242925Y51111914D01*
X48245686Y51086498D01*
X48249894Y51061498D01*
X48255494Y51036935D01*
X48262434Y51012833D01*
X48270661Y50989215D01*
X48280122Y50966104D01*
X48290764Y50943522D01*
X48302535Y50921492D01*
X48315380Y50900037D01*
X48329247Y50879181D01*
X48344084Y50858945D01*
X48359837Y50839353D01*
X48376453Y50820427D01*
X48393880Y50802190D01*
X48412064Y50784666D01*
X48430952Y50767877D01*
X48450674Y50752688D01*
X48470811Y50738354D01*
X48491353Y50724913D01*
X48512295Y50712404D01*
X48533629Y50700864D01*
X48555347Y50690333D01*
X48577443Y50680847D01*
X48599909Y50672446D01*
X48622737Y50665167D01*
X48645921Y50659049D01*
X48669452Y50654129D01*
X48693325Y50650446D01*
X48717531Y50648038D01*
X48742063Y50646943D01*
X48766914Y50647200D01*
X48792077Y50648846D01*
X48816116Y50652783D01*
X48840264Y50657623D01*
X48864427Y50663379D01*
X48888513Y50670061D01*
X48912427Y50677683D01*
X48936075Y50686256D01*
X48959365Y50695792D01*
X48982201Y50706303D01*
X49004492Y50717802D01*
X49026142Y50730300D01*
X49047059Y50743808D01*
X49067148Y50758341D01*
X49086317Y50773908D01*
X49104470Y50790523D01*
X49121515Y50808198D01*
X49137359Y50826943D01*
X49144117Y50836139D01*
X49150985Y50845255D01*
X49157985Y50854269D01*
X49161541Y50858731D01*
X49165140Y50863158D01*
X49181015Y50863158D01*
X49181675Y50835720D01*
X49182177Y50808278D01*
X49182503Y50785768D01*
X49183108Y50763629D01*
X49183340Y50742235D01*
X49183718Y50722585D01*
X49182229Y50712999D01*
X49181479Y50708981D01*
X49180644Y50705353D01*
X49179662Y50702021D01*
X49178469Y50698888D01*
X49177005Y50695861D01*
X49175207Y50692842D01*
X49173013Y50689738D01*
X49170361Y50686454D01*
X49167190Y50682893D01*
X49163436Y50678961D01*
X49159038Y50674563D01*
X49153933Y50669604D01*
X49141358Y50657620D01*
X49119474Y50641446D01*
X49096371Y50626295D01*
X49072171Y50612177D01*
X49046999Y50599108D01*
X49020978Y50587098D01*
X48994232Y50576160D01*
X48966885Y50566308D01*
X48939059Y50557553D01*
X48910878Y50549909D01*
X48882467Y50543387D01*
X48853948Y50538001D01*
X48825445Y50533763D01*
X48797082Y50530685D01*
X48768982Y50528781D01*
X48741269Y50528063D01*
X48714066Y50528543D01*
X48696827Y50529783D01*
X48666254Y50532018D01*
X48636341Y50535932D01*
X48607078Y50541461D01*
X48578452Y50548541D01*
X48550453Y50557108D01*
X48523071Y50567097D01*
X48496293Y50578445D01*
X48470110Y50591088D01*
X48444509Y50604961D01*
X48419480Y50620000D01*
X48395012Y50636142D01*
X48371094Y50653321D01*
X48347714Y50671474D01*
X48324862Y50690537D01*
X48302527Y50710445D01*
X48280698Y50731135D01*
X48258148Y50755989D01*
X48237106Y50781445D01*
X48217571Y50807503D01*
X48199544Y50834159D01*
X48183023Y50861415D01*
X48168007Y50889267D01*
X48154496Y50917714D01*
X48142488Y50946756D01*
X48131985Y50976391D01*
X48122983Y51006617D01*
X48115484Y51037433D01*
X48109486Y51068837D01*
X48104988Y51100829D01*
X48101991Y51133407D01*
X48100492Y51166570D01*
X48100491Y51200316D01*
X48102724Y51231030D01*
X48106266Y51261370D01*
X48111117Y51291302D01*
X48117280Y51320796D01*
X48124755Y51349821D01*
X48133542Y51378345D01*
X48143642Y51406338D01*
X48155057Y51433766D01*
X48167786Y51460600D01*
X48181832Y51486809D01*
X48197194Y51512360D01*
X48213873Y51537222D01*
X48231871Y51561364D01*
X48251188Y51584755D01*
X48271825Y51607363D01*
X48293782Y51629158D01*
X48315827Y51648971D01*
X48329973Y51661650D01*
X48337093Y51667870D01*
X48344262Y51674011D01*
X48351495Y51680077D01*
X48358805Y51686068D01*
X48366208Y51691987D01*
X48373715Y51697836D01*
X48402667Y51716354D01*
X48432654Y51733214D01*
X48463574Y51748403D01*
X48495324Y51761911D01*
X48527800Y51773724D01*
X48560900Y51783831D01*
X48594520Y51792219D01*
X48628558Y51798875D01*
X48662910Y51803788D01*
X48697474Y51806945D01*
X48732145Y51808334D01*
X48766822Y51807944D01*
G37*
G36*
X44882083Y51839067D02*
G01*
X44911932Y51835921D01*
X44941818Y51831421D01*
X44971654Y51825585D01*
X45001351Y51818432D01*
X45030821Y51809979D01*
X45059976Y51800246D01*
X45088728Y51789249D01*
X45116988Y51777007D01*
X45144669Y51763539D01*
X45171682Y51748863D01*
X45197939Y51732996D01*
X45223352Y51715957D01*
X45247833Y51697764D01*
X45271294Y51678436D01*
X45293646Y51657990D01*
X45314802Y51636444D01*
X45331328Y51617221D01*
X45345285Y51600641D01*
X45358695Y51583887D01*
X45371535Y51566881D01*
X45383780Y51549549D01*
X45395406Y51531814D01*
X45400981Y51522771D01*
X45406391Y51513600D01*
X45411636Y51504290D01*
X45416711Y51494832D01*
X45421614Y51485216D01*
X45426341Y51475433D01*
X45433523Y51459463D01*
X45441997Y51439823D01*
X45449503Y51420132D01*
X45456097Y51400382D01*
X45461836Y51380568D01*
X45466776Y51360683D01*
X45470975Y51340720D01*
X45474488Y51320673D01*
X45477374Y51300535D01*
X45479688Y51280300D01*
X45481487Y51259961D01*
X45483769Y51218946D01*
X45484675Y51177439D01*
X45484658Y51135387D01*
X45484400Y51087145D01*
X45483936Y50960075D01*
X45483373Y50828644D01*
X45482140Y50545658D01*
X45378953Y50545658D01*
X45377294Y50788139D01*
X45376330Y50912185D01*
X45375509Y51033263D01*
X45375076Y51079734D01*
X45373910Y51145369D01*
X45372425Y51177417D01*
X45370167Y51208970D01*
X45367008Y51240041D01*
X45362819Y51270643D01*
X45357473Y51300788D01*
X45350840Y51330490D01*
X45342793Y51359763D01*
X45333203Y51388618D01*
X45321943Y51417069D01*
X45308882Y51445129D01*
X45293894Y51472811D01*
X45276849Y51500129D01*
X45257620Y51527094D01*
X45236077Y51553721D01*
X45214154Y51575880D01*
X45191741Y51596459D01*
X45168822Y51615487D01*
X45145381Y51632996D01*
X45121399Y51649015D01*
X45096861Y51663576D01*
X45071750Y51676708D01*
X45046049Y51688443D01*
X45019741Y51698811D01*
X44992810Y51707841D01*
X44965238Y51715566D01*
X44937009Y51722015D01*
X44908107Y51727219D01*
X44878514Y51731207D01*
X44848213Y51734012D01*
X44817188Y51735663D01*
X44791578Y51736283D01*
X44791578Y51831533D01*
X44814229Y51834665D01*
X44825474Y51836029D01*
X44836705Y51837200D01*
X44847952Y51838134D01*
X44859244Y51838786D01*
X44870611Y51839112D01*
X44882083Y51839067D01*
G37*
G36*
X50514722Y51884347D02*
G01*
X50530706Y51865653D01*
X50546564Y51846851D01*
X50562264Y51827905D01*
X50593502Y51789773D01*
X50624953Y51751830D01*
X50656600Y51714052D01*
X50688427Y51676411D01*
X50705015Y51656908D01*
X50699354Y51646961D01*
X50696655Y51642383D01*
X50693989Y51638054D01*
X50691313Y51633961D01*
X50688587Y51630095D01*
X50685769Y51626443D01*
X50682818Y51622993D01*
X50679692Y51619736D01*
X50676351Y51616658D01*
X50672752Y51613750D01*
X50668855Y51610999D01*
X50664618Y51608395D01*
X50659999Y51605926D01*
X50654958Y51603579D01*
X50649452Y51601346D01*
X50621887Y51634403D01*
X50608191Y51651001D01*
X50594572Y51667667D01*
X50560571Y51709417D01*
X50543374Y51730123D01*
X50525898Y51750604D01*
X50512809Y51765522D01*
X50486733Y51795318D01*
X50477969Y51805086D01*
X50469610Y51814590D01*
X50465622Y51819317D01*
X50461783Y51824064D01*
X50458110Y51828863D01*
X50454618Y51833742D01*
X50451323Y51838730D01*
X50448243Y51843856D01*
X50445391Y51849150D01*
X50442785Y51854641D01*
X50440441Y51860358D01*
X50438375Y51866331D01*
X50436602Y51872588D01*
X50435140Y51879158D01*
X50442954Y51883193D01*
X50450672Y51886870D01*
X50458360Y51890217D01*
X50466083Y51893261D01*
X50473907Y51896031D01*
X50481897Y51898554D01*
X50490119Y51900858D01*
X50498640Y51902971D01*
X50514722Y51884347D01*
G37*
G36*
X54141952Y53006283D02*
G01*
X54031139Y53017854D01*
X54003596Y53020335D01*
X53976008Y53022398D01*
X53948319Y53023917D01*
X53920474Y53024767D01*
X53903083Y53024825D01*
X53872387Y53025078D01*
X53841691Y53025180D01*
X53820483Y53025135D01*
X53765943Y53024688D01*
X53711613Y53023353D01*
X53657449Y53021101D01*
X53603401Y53017902D01*
X53549424Y53013728D01*
X53495469Y53008548D01*
X53441490Y53002334D01*
X53387440Y52995055D01*
X53356140Y52990408D01*
X53258154Y52974469D01*
X53160538Y52955716D01*
X53063353Y52934342D01*
X52966662Y52910542D01*
X52870527Y52884511D01*
X52775012Y52856442D01*
X52680179Y52826531D01*
X52586090Y52794970D01*
X52538861Y52778720D01*
X52464634Y52752733D01*
X52390911Y52725219D01*
X52317850Y52695983D01*
X52245610Y52664826D01*
X52174349Y52631550D01*
X52104228Y52595957D01*
X52035405Y52557850D01*
X52001529Y52537791D01*
X51968038Y52517030D01*
X51951202Y52506221D01*
X51889180Y52465929D01*
X51858471Y52445428D01*
X51827985Y52424629D01*
X51797740Y52403487D01*
X51767751Y52381957D01*
X51738036Y52359993D01*
X51708612Y52337549D01*
X51691869Y52324346D01*
X51676335Y52312124D01*
X51669358Y52306720D01*
X51662370Y52301638D01*
X51655329Y52296845D01*
X51648192Y52292307D01*
X51640916Y52287991D01*
X51633458Y52283862D01*
X51625776Y52279887D01*
X51617827Y52276033D01*
X51608851Y52284353D01*
X51600708Y52292200D01*
X51596953Y52296047D01*
X51593412Y52299897D01*
X51590087Y52303790D01*
X51586979Y52307768D01*
X51584092Y52311870D01*
X51581426Y52316137D01*
X51578985Y52320610D01*
X51576769Y52325328D01*
X51574780Y52330333D01*
X51573022Y52335665D01*
X51571495Y52341364D01*
X51570202Y52347471D01*
X51644224Y52403249D01*
X51718757Y52458246D01*
X51793939Y52512345D01*
X51869913Y52565434D01*
X51887702Y52577658D01*
X51944421Y52616167D01*
X52001807Y52653559D01*
X52059834Y52689873D01*
X52118480Y52725147D01*
X52177721Y52759420D01*
X52237532Y52792731D01*
X52297891Y52825117D01*
X52358774Y52856618D01*
X52390141Y52872472D01*
X52421433Y52888472D01*
X52506048Y52931017D01*
X52591586Y52971260D01*
X52677997Y53009270D01*
X52765231Y53045117D01*
X52853236Y53078868D01*
X52941963Y53110593D01*
X53031361Y53140361D01*
X53121380Y53168241D01*
X53303078Y53218609D01*
X53486654Y53262249D01*
X53671706Y53299712D01*
X53857830Y53331548D01*
X53878030Y53334697D01*
X53906656Y53339183D01*
X53935295Y53343587D01*
X53953312Y53346293D01*
X53985150Y53351076D01*
X53999373Y53352842D01*
X54015413Y53354459D01*
X54061785Y53358054D01*
X54141952Y53363471D01*
X54141952Y53006283D01*
G37*
G36*
X19755415Y5230625D02*
G01*
X19755416Y4304584D01*
X19252706Y4304584D01*
X18750000Y4304584D01*
X18749999Y4807292D01*
X18750000Y5310000D01*
X17585831Y5310000D01*
X16421663Y5310000D01*
X16421665Y5733335D01*
X16421663Y6156667D01*
X18088539Y6156667D01*
X19755416Y6156667D01*
X19755415Y5230625D01*
G37*
G36*
X49672561Y53500626D02*
G01*
X49686488Y53498783D01*
X49701035Y53495679D01*
X49732512Y53485487D01*
X49768032Y53469647D01*
X49808638Y53447754D01*
X49855371Y53419402D01*
X49909272Y53384189D01*
X50042744Y53291554D01*
X50217386Y53166614D01*
X50242551Y53148470D01*
X50255169Y53139447D01*
X50267828Y53130481D01*
X50296157Y53110464D01*
X50324256Y53090173D01*
X50379873Y53048869D01*
X50434903Y53006776D01*
X50489571Y52964100D01*
X50521972Y52938644D01*
X50577677Y52894908D01*
X50631197Y52852854D01*
X50684163Y52811217D01*
X50736865Y52769266D01*
X50789337Y52727027D01*
X50841611Y52684524D01*
X50855827Y52672908D01*
X50933297Y52609504D01*
X51010608Y52545908D01*
X51056512Y52508101D01*
X51102510Y52470409D01*
X51131314Y52446836D01*
X51159993Y52423125D01*
X51188549Y52399267D01*
X51216983Y52375252D01*
X51253667Y52344223D01*
X51272097Y52328818D01*
X51290622Y52313519D01*
X51321109Y52288592D01*
X51351407Y52263465D01*
X51381519Y52238119D01*
X51411452Y52212533D01*
X51436180Y52191325D01*
X51461014Y52170263D01*
X51485996Y52149375D01*
X51511167Y52128693D01*
X51531687Y52111944D01*
X51552114Y52095094D01*
X51572450Y52078134D01*
X51592695Y52061056D01*
X51636118Y52024251D01*
X51657921Y52005961D01*
X51679839Y51987803D01*
X51709170Y51963834D01*
X51738387Y51939742D01*
X51767475Y51915495D01*
X51796421Y51891064D01*
X51833104Y51860035D01*
X51851534Y51844630D01*
X51870060Y51829332D01*
X51900546Y51804404D01*
X51930844Y51779278D01*
X51960957Y51753932D01*
X51990890Y51728346D01*
X52015617Y51707138D01*
X52040451Y51686075D01*
X52065433Y51665188D01*
X52090604Y51644506D01*
X52111125Y51627757D01*
X52131552Y51610907D01*
X52151887Y51593947D01*
X52172132Y51576868D01*
X52215555Y51540064D01*
X52237359Y51521774D01*
X52259276Y51503615D01*
X52288608Y51479646D01*
X52317824Y51455554D01*
X52346912Y51431308D01*
X52375858Y51406877D01*
X52399523Y51386851D01*
X52423273Y51366938D01*
X52447128Y51347151D01*
X52471108Y51327502D01*
X52491859Y51310526D01*
X52512514Y51293444D01*
X52533077Y51276253D01*
X52553553Y51258948D01*
X52595800Y51223138D01*
X52617064Y51205406D01*
X52638509Y51187883D01*
X52666282Y51165703D01*
X52693858Y51143321D01*
X52721239Y51120701D01*
X52748425Y51097810D01*
X52785517Y51066386D01*
X52804147Y51050777D01*
X52822870Y51035272D01*
X52874972Y50992605D01*
X52900867Y50971087D01*
X52926615Y50949385D01*
X52968863Y50913576D01*
X52990127Y50895843D01*
X53011571Y50878320D01*
X53035354Y50859390D01*
X53059010Y50840330D01*
X53082505Y50821072D01*
X53105802Y50801546D01*
X53164950Y50751525D01*
X53194663Y50726684D01*
X53224493Y50701974D01*
X53242038Y50687541D01*
X53287271Y50650395D01*
X53332606Y50613375D01*
X53358638Y50592086D01*
X53384517Y50570638D01*
X53410233Y50548995D01*
X53435772Y50527121D01*
X53466982Y50500380D01*
X53498441Y50474019D01*
X53530251Y50448085D01*
X53546320Y50435294D01*
X53562515Y50422627D01*
X53590800Y50400382D01*
X53618717Y50377766D01*
X53646314Y50354759D01*
X53673640Y50331346D01*
X53697585Y50310747D01*
X53721721Y50290436D01*
X53746126Y50270449D01*
X53758452Y50260589D01*
X53770874Y50250823D01*
X53802664Y50225923D01*
X53834098Y50200681D01*
X53865174Y50174999D01*
X53880577Y50161964D01*
X53895890Y50148783D01*
X53923687Y50124967D01*
X53951775Y50101582D01*
X53980197Y50078606D01*
X54008999Y50056014D01*
X54021725Y50046311D01*
X54034424Y50036573D01*
X54041415Y50030833D01*
X54048441Y50025136D01*
X54055497Y50019476D01*
X54062577Y50013846D01*
X54070859Y50008265D01*
X54078937Y50002622D01*
X54086840Y49996888D01*
X54094597Y49991032D01*
X54102237Y49985022D01*
X54109789Y49978829D01*
X54117281Y49972421D01*
X54124743Y49965769D01*
X54134253Y49952657D01*
X54138088Y49946971D01*
X54141361Y49941594D01*
X54144107Y49936325D01*
X54146365Y49930961D01*
X54148172Y49925300D01*
X54149567Y49919138D01*
X54150585Y49912274D01*
X54151265Y49904504D01*
X54151645Y49895628D01*
X54151761Y49885441D01*
X54151354Y49860328D01*
X54150344Y49827546D01*
X54150049Y49818038D01*
X54149807Y49808529D01*
X54149619Y49799018D01*
X54149483Y49789507D01*
X54148960Y49739478D01*
X54148518Y49714468D01*
X54147940Y49689457D01*
X54146819Y49637690D01*
X54146065Y49585917D01*
X54144377Y49474437D01*
X54141952Y49362971D01*
X54134015Y49362971D01*
X54121541Y49372571D01*
X54111170Y49380793D01*
X54101505Y49388939D01*
X54091152Y49398310D01*
X54078716Y49410209D01*
X54062800Y49425938D01*
X54014952Y49474096D01*
X53997019Y49492217D01*
X53978999Y49510221D01*
X53969904Y49519133D01*
X53960724Y49527960D01*
X53951438Y49536684D01*
X53942026Y49545285D01*
X53928743Y49556695D01*
X53915682Y49568271D01*
X53902815Y49580006D01*
X53890110Y49591891D01*
X53877539Y49603919D01*
X53865071Y49616083D01*
X53840327Y49640783D01*
X53818920Y49662362D01*
X53808170Y49673066D01*
X53797340Y49683675D01*
X53786395Y49694163D01*
X53775300Y49704502D01*
X53764020Y49714665D01*
X53752518Y49724623D01*
X53741663Y49733995D01*
X53731016Y49743552D01*
X53720544Y49753271D01*
X53710215Y49763129D01*
X53699996Y49773104D01*
X53689854Y49783173D01*
X53669671Y49803502D01*
X53652785Y49820564D01*
X53635807Y49837499D01*
X53627236Y49845879D01*
X53618584Y49854179D01*
X53609833Y49862383D01*
X53600962Y49870475D01*
X53588185Y49881465D01*
X53575608Y49892598D01*
X53563207Y49903869D01*
X53550957Y49915278D01*
X53538835Y49926823D01*
X53526814Y49938501D01*
X53514872Y49950312D01*
X53502983Y49962252D01*
X53486097Y49979314D01*
X53469120Y49996249D01*
X53460549Y50004629D01*
X53451897Y50012929D01*
X53443145Y50021133D01*
X53434274Y50029225D01*
X53421498Y50040215D01*
X53408921Y50051347D01*
X53396520Y50062619D01*
X53384270Y50074028D01*
X53372147Y50085573D01*
X53360127Y50097252D01*
X53348184Y50109062D01*
X53336296Y50121002D01*
X53319410Y50138064D01*
X53302432Y50155000D01*
X53293861Y50163379D01*
X53285209Y50171679D01*
X53276458Y50179883D01*
X53267587Y50187975D01*
X53254810Y50198965D01*
X53242233Y50210098D01*
X53229832Y50221369D01*
X53217582Y50232778D01*
X53205460Y50244323D01*
X53193439Y50256002D01*
X53181497Y50267812D01*
X53169608Y50279752D01*
X53152722Y50296814D01*
X53135745Y50313749D01*
X53127174Y50322129D01*
X53118522Y50330429D01*
X53109770Y50338633D01*
X53100899Y50346725D01*
X53088123Y50357715D01*
X53075546Y50368848D01*
X53063145Y50380119D01*
X53050895Y50391528D01*
X53038772Y50403073D01*
X53026752Y50414751D01*
X53014809Y50426562D01*
X53002921Y50438502D01*
X52986035Y50455564D01*
X52969057Y50472499D01*
X52960486Y50480879D01*
X52951834Y50489179D01*
X52943083Y50497383D01*
X52934212Y50505475D01*
X52921435Y50516465D01*
X52908858Y50527597D01*
X52896457Y50538869D01*
X52884207Y50550278D01*
X52872085Y50561823D01*
X52860064Y50573501D01*
X52848122Y50585312D01*
X52836233Y50597252D01*
X52815798Y50617822D01*
X52805527Y50628010D01*
X52795179Y50638103D01*
X52784723Y50648083D01*
X52774127Y50657926D01*
X52763361Y50667614D01*
X52752393Y50677123D01*
X52742072Y50686046D01*
X52731939Y50695127D01*
X52721967Y50704351D01*
X52712126Y50713701D01*
X52702388Y50723161D01*
X52692726Y50732713D01*
X52673515Y50752033D01*
X52657746Y50767968D01*
X52641884Y50783768D01*
X52633873Y50791582D01*
X52625784Y50799320D01*
X52617600Y50806967D01*
X52609301Y50814510D01*
X52596457Y50825563D01*
X52583813Y50836760D01*
X52571346Y50848098D01*
X52559030Y50859574D01*
X52546841Y50871186D01*
X52534755Y50882932D01*
X52522748Y50894809D01*
X52510796Y50906814D01*
X52490360Y50927385D01*
X52480089Y50937572D01*
X52469741Y50947666D01*
X52459285Y50957645D01*
X52448690Y50967489D01*
X52437924Y50977176D01*
X52426956Y50986686D01*
X52416635Y50995608D01*
X52406502Y51004690D01*
X52396529Y51013914D01*
X52386688Y51023264D01*
X52376951Y51032723D01*
X52367288Y51042276D01*
X52348077Y51061596D01*
X52332237Y51077598D01*
X52316302Y51093464D01*
X52308255Y51101312D01*
X52300132Y51109085D01*
X52291914Y51116769D01*
X52283585Y51124352D01*
X52271314Y51134921D01*
X52259220Y51145608D01*
X52247285Y51156416D01*
X52235490Y51167350D01*
X52223815Y51178413D01*
X52212243Y51189607D01*
X52200753Y51200938D01*
X52189327Y51212408D01*
X52173487Y51228411D01*
X52157552Y51244277D01*
X52149505Y51252124D01*
X52141382Y51259897D01*
X52133164Y51267582D01*
X52124835Y51275164D01*
X52112564Y51285733D01*
X52100470Y51296420D01*
X52088535Y51307229D01*
X52076740Y51318162D01*
X52065065Y51329225D01*
X52053492Y51340420D01*
X52042003Y51351751D01*
X52030577Y51363221D01*
X52014737Y51379223D01*
X51998802Y51395089D01*
X51990755Y51402937D01*
X51982632Y51410710D01*
X51974414Y51418394D01*
X51966085Y51425976D01*
X51953814Y51436545D01*
X51941720Y51447232D01*
X51929785Y51458041D01*
X51917990Y51468975D01*
X51906315Y51480038D01*
X51894743Y51491232D01*
X51883253Y51502563D01*
X51871827Y51514033D01*
X51855987Y51530036D01*
X51840052Y51545902D01*
X51832005Y51553749D01*
X51823882Y51561522D01*
X51815664Y51569206D01*
X51807335Y51576789D01*
X51795064Y51587358D01*
X51782970Y51598045D01*
X51771035Y51608854D01*
X51759240Y51619787D01*
X51747565Y51630850D01*
X51735993Y51642045D01*
X51724503Y51653376D01*
X51713077Y51664846D01*
X51697237Y51680848D01*
X51681302Y51696714D01*
X51673255Y51704562D01*
X51665132Y51712335D01*
X51656914Y51720019D01*
X51648585Y51727601D01*
X51636314Y51738170D01*
X51624220Y51748858D01*
X51612285Y51759666D01*
X51600490Y51770600D01*
X51588815Y51781663D01*
X51577242Y51792857D01*
X51565753Y51804188D01*
X51554327Y51815658D01*
X51538487Y51831661D01*
X51522552Y51847527D01*
X51514505Y51855374D01*
X51506382Y51863147D01*
X51498164Y51870831D01*
X51489835Y51878414D01*
X51477564Y51888983D01*
X51465470Y51899670D01*
X51453535Y51910479D01*
X51441740Y51921412D01*
X51430065Y51932475D01*
X51418492Y51943670D01*
X51407003Y51955000D01*
X51395577Y51966471D01*
X51375863Y51986275D01*
X51365945Y51996067D01*
X51355950Y52005765D01*
X51345856Y52015358D01*
X51335635Y52024831D01*
X51325263Y52034172D01*
X51314714Y52043365D01*
X51302823Y52053633D01*
X51296957Y52058811D01*
X51291141Y52064030D01*
X51285373Y52069302D01*
X51279650Y52074636D01*
X51273969Y52080043D01*
X51268329Y52085533D01*
X51252260Y52101701D01*
X51236082Y52117721D01*
X51203412Y52149376D01*
X51170342Y52180612D01*
X51136895Y52211541D01*
X51116498Y52230242D01*
X51096150Y52248996D01*
X51035468Y52305173D01*
X51004868Y52332975D01*
X50989438Y52346733D01*
X50973898Y52360369D01*
X50961260Y52371359D01*
X50948698Y52382419D01*
X50936210Y52393561D01*
X50923792Y52404800D01*
X50886537Y52438605D01*
X50848970Y52472007D01*
X50811095Y52505059D01*
X50772918Y52537816D01*
X50730974Y52573492D01*
X50699338Y52600421D01*
X50667581Y52627197D01*
X50635606Y52653711D01*
X50603315Y52679853D01*
X50575956Y52701578D01*
X50562342Y52712521D01*
X50548799Y52723556D01*
X50488369Y52772686D01*
X50427236Y52820762D01*
X50365311Y52867815D01*
X50334024Y52890968D01*
X50302504Y52913878D01*
X50284327Y52926908D01*
X50185191Y52999048D01*
X50131462Y53036051D01*
X50103761Y53053810D01*
X50075579Y53070702D01*
X50046976Y53086450D01*
X50018009Y53100775D01*
X49988736Y53113397D01*
X49959216Y53124038D01*
X49929507Y53132419D01*
X49914600Y53135676D01*
X49899667Y53138263D01*
X49884716Y53140146D01*
X49869755Y53141289D01*
X49854789Y53141659D01*
X49839827Y53141221D01*
X49832561Y53136405D01*
X49829583Y53134360D01*
X49826981Y53132479D01*
X49824707Y53130703D01*
X49822715Y53128976D01*
X49820959Y53127238D01*
X49819391Y53125431D01*
X49817967Y53123498D01*
X49816638Y53121379D01*
X49815359Y53119018D01*
X49814082Y53116356D01*
X49812763Y53113334D01*
X49811353Y53109895D01*
X49808077Y53101533D01*
X49814987Y53053387D01*
X49821013Y53015586D01*
X49824019Y52999547D01*
X49827195Y52984875D01*
X49830670Y52971160D01*
X49834575Y52957998D01*
X49839039Y52944980D01*
X49844192Y52931700D01*
X49850165Y52917750D01*
X49857088Y52902724D01*
X49874303Y52867817D01*
X49896878Y52823721D01*
X49912127Y52792554D01*
X49919524Y52776994D01*
X49926661Y52761360D01*
X49933454Y52745584D01*
X49939822Y52729597D01*
X49945682Y52713332D01*
X49948396Y52705074D01*
X49950952Y52696721D01*
X49921847Y52673891D01*
X49907220Y52662652D01*
X49892495Y52651571D01*
X49877636Y52640676D01*
X49862607Y52629997D01*
X49847370Y52619565D01*
X49831890Y52609408D01*
X49706854Y52783156D01*
X49674823Y52829941D01*
X49643464Y52877852D01*
X49613268Y52926780D01*
X49584723Y52976619D01*
X49558322Y53027260D01*
X49534554Y53078597D01*
X49513909Y53130523D01*
X49496879Y53182929D01*
X49483952Y53235710D01*
X49479181Y53262207D01*
X49475620Y53288757D01*
X49473331Y53315346D01*
X49472374Y53341963D01*
X49472810Y53368592D01*
X49474702Y53395221D01*
X49477641Y53403799D01*
X49479015Y53407541D01*
X49480367Y53410973D01*
X49481729Y53414135D01*
X49483133Y53417068D01*
X49484611Y53419814D01*
X49486194Y53422413D01*
X49487914Y53424907D01*
X49489802Y53427336D01*
X49491891Y53429741D01*
X49494212Y53432164D01*
X49496797Y53434644D01*
X49499678Y53437224D01*
X49502885Y53439944D01*
X49506452Y53442846D01*
X49567863Y53476068D01*
X49594740Y53488051D01*
X49620455Y53496407D01*
X49633202Y53499100D01*
X49646048Y53500734D01*
X49659125Y53501260D01*
X49672561Y53500626D01*
G37*
G36*
X43988340Y51799256D02*
G01*
X44018827Y51796148D01*
X44048974Y51791457D01*
X44078742Y51785231D01*
X44108090Y51777517D01*
X44136979Y51768364D01*
X44165369Y51757819D01*
X44193220Y51745929D01*
X44220491Y51732743D01*
X44247144Y51718309D01*
X44273137Y51702673D01*
X44298432Y51685883D01*
X44322988Y51667989D01*
X44346766Y51649036D01*
X44369724Y51629073D01*
X44391825Y51608148D01*
X44413027Y51586308D01*
X44435616Y51559364D01*
X44456312Y51531614D01*
X44475159Y51503102D01*
X44492198Y51473868D01*
X44507472Y51443955D01*
X44521023Y51413404D01*
X44532894Y51382258D01*
X44543126Y51350559D01*
X44551763Y51318348D01*
X44558847Y51285668D01*
X44564419Y51252561D01*
X44568523Y51219069D01*
X44571200Y51185233D01*
X44572494Y51151096D01*
X44572446Y51116700D01*
X44571099Y51082087D01*
X44567685Y51052309D01*
X44562653Y51022880D01*
X44556055Y50993846D01*
X44547942Y50965252D01*
X44538365Y50937143D01*
X44527377Y50909564D01*
X44515028Y50882560D01*
X44501370Y50856176D01*
X44486455Y50830457D01*
X44470334Y50805449D01*
X44453059Y50781196D01*
X44434681Y50757744D01*
X44415251Y50735138D01*
X44394822Y50713422D01*
X44373444Y50692643D01*
X44351170Y50672844D01*
X44331202Y50656783D01*
X44311131Y50641195D01*
X44290459Y50626650D01*
X44269225Y50613140D01*
X44247463Y50600655D01*
X44225211Y50589186D01*
X44202503Y50578724D01*
X44179377Y50569259D01*
X44155867Y50560783D01*
X44132011Y50553285D01*
X44107845Y50546757D01*
X44083404Y50541190D01*
X44058724Y50536574D01*
X44033843Y50532900D01*
X44008795Y50530159D01*
X43983617Y50528341D01*
X43958345Y50527438D01*
X43936312Y50527303D01*
X43912681Y50527587D01*
X43889448Y50528748D01*
X43866589Y50530775D01*
X43844082Y50533660D01*
X43821903Y50537396D01*
X43800029Y50541973D01*
X43778439Y50547384D01*
X43757107Y50553619D01*
X43736013Y50560672D01*
X43715132Y50568532D01*
X43694442Y50577192D01*
X43673919Y50586644D01*
X43653541Y50596878D01*
X43633285Y50607887D01*
X43613128Y50619662D01*
X43593046Y50632195D01*
X43574039Y50645943D01*
X43555275Y50660496D01*
X43536848Y50675831D01*
X43518852Y50691920D01*
X43501382Y50708739D01*
X43484530Y50726261D01*
X43468392Y50744463D01*
X43453061Y50763317D01*
X43438632Y50782799D01*
X43425198Y50802882D01*
X43412854Y50823543D01*
X43401693Y50844754D01*
X43391809Y50866490D01*
X43383298Y50888726D01*
X43376252Y50911436D01*
X43370765Y50934596D01*
X43513640Y50926658D01*
X43525163Y50903062D01*
X43537341Y50880470D01*
X43550201Y50858858D01*
X43563769Y50838205D01*
X43578072Y50818486D01*
X43593136Y50799679D01*
X43608988Y50781762D01*
X43625654Y50764712D01*
X43643160Y50748505D01*
X43661533Y50733120D01*
X43680799Y50718534D01*
X43700984Y50704723D01*
X43722116Y50691666D01*
X43744221Y50679338D01*
X43767324Y50667718D01*
X43791452Y50656783D01*
X43818196Y50649333D01*
X43845169Y50643303D01*
X43872322Y50638673D01*
X43899607Y50635421D01*
X43926978Y50633528D01*
X43954387Y50632972D01*
X43981786Y50633733D01*
X44009127Y50635792D01*
X44036363Y50639126D01*
X44063447Y50643716D01*
X44090330Y50649541D01*
X44116966Y50656580D01*
X44143306Y50664813D01*
X44169303Y50674220D01*
X44194909Y50684779D01*
X44220077Y50696471D01*
X44241640Y50709721D01*
X44262333Y50724120D01*
X44282151Y50739605D01*
X44301093Y50756112D01*
X44319153Y50773576D01*
X44336330Y50791934D01*
X44352619Y50811120D01*
X44368018Y50831072D01*
X44382522Y50851724D01*
X44396129Y50873013D01*
X44408834Y50894875D01*
X44420636Y50917245D01*
X44431529Y50940060D01*
X44441512Y50963255D01*
X44450580Y50986766D01*
X44458730Y51010529D01*
X44466220Y51041133D01*
X44471986Y51071433D01*
X44476062Y51101444D01*
X44478482Y51131179D01*
X44479281Y51160653D01*
X44478493Y51189880D01*
X44476151Y51218873D01*
X44472291Y51247647D01*
X44466946Y51276216D01*
X44460150Y51304593D01*
X44451938Y51332792D01*
X44442343Y51360828D01*
X44431401Y51388715D01*
X44419144Y51416466D01*
X44405608Y51444095D01*
X44390827Y51471617D01*
X44377137Y51491797D01*
X44362274Y51511303D01*
X44346313Y51530105D01*
X44329330Y51548173D01*
X44311403Y51565479D01*
X44292608Y51581993D01*
X44273021Y51597685D01*
X44252718Y51612526D01*
X44231777Y51626487D01*
X44210274Y51639538D01*
X44188285Y51651650D01*
X44165887Y51662793D01*
X44143155Y51672938D01*
X44120168Y51682056D01*
X44097001Y51690117D01*
X44073730Y51697092D01*
X44048594Y51701156D01*
X44023639Y51703766D01*
X43998872Y51704974D01*
X43974296Y51704833D01*
X43949918Y51703397D01*
X43925742Y51700718D01*
X43901773Y51696849D01*
X43878016Y51691843D01*
X43854477Y51685753D01*
X43831159Y51678632D01*
X43808069Y51670533D01*
X43785211Y51661509D01*
X43762591Y51651613D01*
X43740212Y51640897D01*
X43718081Y51629416D01*
X43696202Y51617221D01*
X43669587Y51598830D01*
X43645067Y51579338D01*
X43622528Y51558785D01*
X43601857Y51537207D01*
X43582940Y51514644D01*
X43565663Y51491134D01*
X43549913Y51466715D01*
X43535575Y51441426D01*
X43522536Y51415306D01*
X43510683Y51388392D01*
X43499900Y51360724D01*
X43490076Y51332339D01*
X43481095Y51303277D01*
X43472844Y51273576D01*
X43465209Y51243273D01*
X43458077Y51212408D01*
X44394702Y51204471D01*
X44394869Y51180076D01*
X44394830Y51169310D01*
X44394487Y51159076D01*
X44394150Y51154061D01*
X44393674Y51149060D01*
X44393041Y51144034D01*
X44392227Y51138945D01*
X44391214Y51133752D01*
X44389979Y51128416D01*
X44388503Y51122898D01*
X44386765Y51117158D01*
X44148000Y51116683D01*
X44128300Y51116662D01*
X43832928Y51117408D01*
X43537576Y51120841D01*
X43521081Y51121127D01*
X43307265Y51125096D01*
X43307195Y51141290D01*
X43307141Y51162706D01*
X43307137Y51183588D01*
X43307265Y51204471D01*
X43309486Y51234869D01*
X43313238Y51264984D01*
X43318484Y51294774D01*
X43325186Y51324195D01*
X43333306Y51353204D01*
X43342807Y51381760D01*
X43353651Y51409818D01*
X43365800Y51437337D01*
X43379217Y51464273D01*
X43393863Y51490583D01*
X43409701Y51516225D01*
X43426694Y51541156D01*
X43444803Y51565333D01*
X43463992Y51588712D01*
X43484221Y51611252D01*
X43505454Y51632910D01*
X43530969Y51655200D01*
X43557286Y51675730D01*
X43584365Y51694537D01*
X43612170Y51711659D01*
X43640660Y51727133D01*
X43669798Y51740997D01*
X43699545Y51753287D01*
X43729863Y51764040D01*
X43760713Y51773296D01*
X43792057Y51781089D01*
X43823857Y51787459D01*
X43856073Y51792442D01*
X43888668Y51796076D01*
X43921603Y51798398D01*
X43954840Y51799446D01*
X43988340Y51799256D01*
G37*
G36*
X19755416Y3404997D02*
G01*
X19755416Y2478958D01*
X19755415Y1552916D01*
X19252706Y1552916D01*
X18749999Y1552918D01*
X18750000Y2478958D01*
X18749999Y3404999D01*
X19252705Y3404999D01*
X19755416Y3404997D01*
G37*
G36*
X28222081Y5230625D02*
G01*
X28222081Y4304584D01*
X27719375Y4304584D01*
X27216666Y4304584D01*
X27216665Y4807292D01*
X27216664Y5310000D01*
X26052497Y5310000D01*
X24888331Y5310000D01*
X24888331Y5733335D01*
X24888331Y6156667D01*
X26555208Y6156667D01*
X28222082Y6156667D01*
X28222081Y5230625D01*
G37*
G36*
X47784491Y51665418D02*
G01*
X47784511Y51638057D01*
X47783814Y51240189D01*
X47780332Y50842337D01*
X47780046Y50820990D01*
X47776078Y50545658D01*
X47252202Y50545658D01*
X47252202Y50672658D01*
X47672890Y50672658D01*
X47672890Y51998221D01*
X47784015Y51998221D01*
X47784491Y51665418D01*
G37*
G36*
X27216666Y3854792D02*
G01*
X27216666Y3457917D01*
X26158329Y3457917D01*
X25099998Y3457917D01*
X25099998Y3854792D01*
X25099998Y4251667D01*
X26158329Y4251667D01*
X27216666Y4251667D01*
X27216666Y3854792D01*
G37*
G36*
X28222082Y2478958D02*
G01*
X28222082Y1552918D01*
X26555207Y1552916D01*
X24888330Y1552916D01*
X24888331Y1976249D01*
X24888330Y2399583D01*
X26052498Y2399583D01*
X27216663Y2399583D01*
X27216664Y2902293D01*
X27216665Y3404999D01*
X27719374Y3404999D01*
X28222082Y3404999D01*
X28222082Y2478958D01*
G37*
D11*
X89251210Y15999195D02*
X89251210Y14599195D01*
D10*
G36*
X15680828Y3854792D02*
G01*
X15680831Y1552916D01*
X14013957Y1552916D01*
X12347082Y1552918D01*
X12347082Y1976250D01*
X12347080Y2399583D01*
X13511248Y2399583D01*
X14675415Y2399585D01*
X14675415Y4278126D01*
X14675416Y6156667D01*
X15178121Y6156667D01*
X15680832Y6156667D01*
X15680828Y3854792D01*
G37*
D11*
G36*
X81386657Y67270557D02*
G01*
X81351663Y67266474D01*
X81325344Y67255288D01*
X81305568Y67237487D01*
X81292704Y67214202D01*
X81287672Y67185605D01*
X81291549Y67149608D01*
X81331849Y66956950D01*
X81343407Y66922269D01*
X81360881Y66893258D01*
X81384459Y66869022D01*
X81412762Y66850691D01*
X81443802Y66839741D01*
X81478443Y66836000D01*
X81912707Y66836000D01*
X81947706Y66840113D01*
X81973838Y66851352D01*
X81993307Y66869218D01*
X82005958Y66892629D01*
X82011140Y66921403D01*
X82007815Y66957536D01*
X81986566Y67061632D01*
X81729134Y67061632D01*
X81756001Y66932916D01*
X81594849Y66932916D01*
X81543363Y67173642D01*
X81841046Y67173642D01*
X81876079Y67177720D01*
X81902430Y67188892D01*
X81922233Y67206663D01*
X81935071Y67229975D01*
X81940086Y67258590D01*
X81936203Y67294591D01*
X81895903Y67487250D01*
X81884343Y67521928D01*
X81866869Y67550922D01*
X81843293Y67575128D01*
X81814957Y67593492D01*
X81783915Y67604456D01*
X81749309Y67608199D01*
X81315045Y67608199D01*
X81280000Y67604134D01*
X81253669Y67593007D01*
X81233907Y67575324D01*
X81221045Y67552163D01*
X81216012Y67523684D01*
X81219888Y67487787D01*
X81241186Y67383691D01*
X81498569Y67383691D01*
X81471751Y67511283D01*
X81632903Y67511283D01*
X81684389Y67270557D01*
X81386657Y67270557D01*
G37*
G36*
X81140509Y66836000D02*
G01*
X81175540Y66840080D01*
X81201873Y66851252D01*
X81221646Y66869022D01*
X81234485Y66892302D01*
X81239499Y66920884D01*
X81235617Y66956852D01*
X81123705Y67487347D01*
X81112147Y67521994D01*
X81094674Y67550972D01*
X81071095Y67575177D01*
X81042762Y67593512D01*
X81011720Y67604461D01*
X80977110Y67608199D01*
X80550662Y67608199D01*
X80570837Y67511283D01*
X80860704Y67511283D01*
X80990544Y66932916D01*
X80693935Y66932916D01*
X80714061Y66836000D01*
X81140509Y66836000D01*
G37*
G36*
X80087236Y66836000D02*
G01*
X80634535Y66836000D01*
X80471137Y67608199D01*
X80213705Y67608199D01*
X80356978Y66932916D01*
X80067110Y66932916D01*
X80087236Y66836000D01*
G37*
G36*
X70433558Y66836000D02*
G01*
X70176175Y66836000D01*
X70124689Y67076726D01*
X70051905Y67076726D01*
X70014975Y66836000D01*
X69757592Y66836000D01*
X69795645Y67079853D01*
X69756048Y67094296D01*
X69722323Y67119664D01*
X69704319Y67141720D01*
X69690697Y67167492D01*
X69681437Y67197626D01*
X69621011Y67487054D01*
X69618362Y67511283D01*
X69872826Y67511283D01*
X69944487Y67173642D01*
X70104515Y67173642D01*
X70032903Y67511283D01*
X69872826Y67511283D01*
X69618362Y67511283D01*
X69617063Y67523158D01*
X69621911Y67551807D01*
X69634445Y67575079D01*
X69653906Y67592887D01*
X69680037Y67604096D01*
X69715045Y67608199D01*
X70270160Y67608199D01*
X70433558Y66836000D01*
G37*
G36*
X69143175Y67263523D02*
G01*
X69002149Y66836000D01*
X69259581Y66836000D01*
X69339057Y67078876D01*
X69565129Y66836000D01*
X69677041Y66836000D01*
X69368122Y67167243D01*
X69513642Y67608199D01*
X69256210Y67608199D01*
X69172288Y67353014D01*
X68934982Y67608199D01*
X68821946Y67608199D01*
X69143175Y67263523D01*
G37*
D12*
G36*
X10463225Y5178621D02*
G01*
X10482275Y5147248D01*
X10508787Y5129153D01*
X10545169Y5122750D01*
X11430000Y5122750D01*
X11430000Y5303001D01*
X10696660Y5303001D01*
X10934736Y5485390D01*
X10825926Y5595482D01*
X10490580Y5346049D01*
X10471856Y5326678D01*
X10460416Y5302024D01*
X10456936Y5278943D01*
X10459165Y5202761D01*
X10463225Y5178621D01*
G37*
G36*
X11187653Y4940757D02*
G01*
X11242983Y4924234D01*
X11293845Y4896829D01*
X11341095Y4857685D01*
X11380358Y4810183D01*
X11407816Y4759197D01*
X11424352Y4703885D01*
X11430000Y4643057D01*
X11430000Y4287806D01*
X11424330Y4226616D01*
X11407762Y4171214D01*
X11380301Y4120376D01*
X11341095Y4073238D01*
X11293849Y4034124D01*
X11242988Y4006738D01*
X11187657Y3990225D01*
X11126650Y3984578D01*
X10760957Y3984578D01*
X10699595Y3990236D01*
X10644042Y4006768D01*
X10593079Y4034158D01*
X10545840Y4073238D01*
X10506635Y4120376D01*
X10479173Y4171214D01*
X10462605Y4226616D01*
X10456936Y4287806D01*
X10456936Y4575035D01*
X10601528Y4575035D01*
X10601528Y4355950D01*
X10607868Y4305442D01*
X10626484Y4260773D01*
X10658070Y4220395D01*
X10698578Y4189410D01*
X10743513Y4171084D01*
X10794419Y4164830D01*
X11093250Y4164830D01*
X11143709Y4171067D01*
X11188409Y4189376D01*
X11228866Y4220395D01*
X11260452Y4260773D01*
X11279067Y4305442D01*
X11285408Y4355950D01*
X11285408Y4575035D01*
X11279070Y4625585D01*
X11260471Y4670253D01*
X11228927Y4710590D01*
X11188432Y4741611D01*
X11143711Y4759919D01*
X11093250Y4766155D01*
X10794419Y4766155D01*
X10743513Y4759901D01*
X10698578Y4741575D01*
X10658070Y4710590D01*
X10626489Y4670248D01*
X10607871Y4625581D01*
X10601528Y4575035D01*
X10456936Y4575035D01*
X10456936Y4643057D01*
X10462583Y4703885D01*
X10479119Y4759197D01*
X10506578Y4810183D01*
X10545840Y4857685D01*
X10593083Y4896795D01*
X10644046Y4924203D01*
X10699598Y4940746D01*
X10760957Y4946407D01*
X11126650Y4946407D01*
X11187653Y4940757D01*
G37*
G36*
X10751769Y3830093D02*
G01*
X10795923Y3816866D01*
X10836556Y3794915D01*
X10874347Y3763539D01*
X10905727Y3725746D01*
X10927678Y3685123D01*
X10940903Y3640989D01*
X10945422Y3592385D01*
X10940902Y3543750D01*
X10927675Y3499595D01*
X10905724Y3458963D01*
X10874347Y3421171D01*
X10836552Y3389765D01*
X10795918Y3367795D01*
X10751765Y3354559D01*
X10703133Y3350035D01*
X10654500Y3354560D01*
X10610358Y3367797D01*
X10569745Y3389767D01*
X10531980Y3421171D01*
X10500574Y3458966D01*
X10478604Y3499600D01*
X10465367Y3543753D01*
X10460844Y3592385D01*
X10460872Y3592691D01*
X10574173Y3592691D01*
X10578447Y3557420D01*
X10590949Y3526370D01*
X10612030Y3498474D01*
X10639216Y3476638D01*
X10669231Y3463815D01*
X10703133Y3459456D01*
X10737037Y3463814D01*
X10767073Y3476635D01*
X10794296Y3498474D01*
X10815341Y3526366D01*
X10827824Y3557416D01*
X10832093Y3592691D01*
X10827842Y3627521D01*
X10815376Y3658357D01*
X10794296Y3686236D01*
X10767077Y3708037D01*
X10737041Y3720840D01*
X10703133Y3725192D01*
X10669227Y3720839D01*
X10639212Y3708035D01*
X10612030Y3686236D01*
X10590914Y3658353D01*
X10578430Y3627517D01*
X10574173Y3592691D01*
X10460872Y3592691D01*
X10465366Y3640986D01*
X10478601Y3685118D01*
X10500571Y3725743D01*
X10531980Y3763539D01*
X10569741Y3794913D01*
X10610353Y3816864D01*
X10654496Y3830092D01*
X10703133Y3834613D01*
X10751769Y3830093D01*
G37*
D11*
G36*
X79341102Y67001304D02*
G01*
X79354584Y66936042D01*
X79192602Y66936042D01*
X79140823Y67173642D01*
X79302805Y67173642D01*
X79282679Y67273684D01*
X79120502Y67273684D01*
X79068722Y67511283D01*
X79230900Y67511283D01*
X79257864Y67383104D01*
X79516762Y67383104D01*
X79495268Y67487640D01*
X79482079Y67526448D01*
X79458861Y67561481D01*
X79442512Y67577326D01*
X79407297Y67599339D01*
X79367697Y67610130D01*
X79347941Y67611325D01*
X78911235Y67611325D01*
X78871205Y67605843D01*
X78836799Y67585893D01*
X78829755Y67578108D01*
X78813386Y67542299D01*
X78813525Y67500123D01*
X78815491Y67489985D01*
X78856133Y67295568D01*
X78873795Y67260472D01*
X78880362Y67252776D01*
X78911751Y67228128D01*
X78921395Y67223663D01*
X78894044Y67195682D01*
X78892672Y67193181D01*
X78886948Y67153385D01*
X78887592Y67150585D01*
X78928039Y66957340D01*
X78941347Y66919092D01*
X78964632Y66884602D01*
X78980990Y66869022D01*
X79016111Y66847642D01*
X79055746Y66837161D01*
X79075561Y66836000D01*
X79512267Y66836000D01*
X79552232Y66841644D01*
X79586404Y66862180D01*
X79593356Y66870194D01*
X79609379Y66907243D01*
X79610068Y66947131D01*
X79607815Y66960857D01*
X79600000Y67001304D01*
X79341102Y67001304D01*
G37*
G36*
X78409071Y66836000D02*
G01*
X78666796Y66836000D01*
X78712909Y67611325D01*
X78454207Y67611325D01*
X78421577Y67030418D01*
X78140209Y67611325D01*
X78034305Y67611325D01*
X78409071Y66836000D01*
G37*
G36*
X77828750Y67001304D02*
G01*
X77842233Y66936042D01*
X77680251Y66936042D01*
X77628471Y67173642D01*
X77790453Y67173642D01*
X77770327Y67273684D01*
X77608150Y67273684D01*
X77556371Y67511283D01*
X77718548Y67511283D01*
X77745512Y67383104D01*
X78004410Y67383104D01*
X77982916Y67487640D01*
X77969727Y67526448D01*
X77946509Y67561481D01*
X77930160Y67577326D01*
X77894946Y67599339D01*
X77855345Y67610130D01*
X77835589Y67611325D01*
X77398883Y67611325D01*
X77358854Y67605843D01*
X77324447Y67585893D01*
X77317404Y67578108D01*
X77301035Y67542299D01*
X77301173Y67500123D01*
X77303140Y67489985D01*
X77343782Y67295568D01*
X77361444Y67260472D01*
X77368011Y67252776D01*
X77399400Y67228128D01*
X77409043Y67223663D01*
X77381692Y67195682D01*
X77380321Y67193181D01*
X77374596Y67153385D01*
X77375240Y67150585D01*
X77415687Y66957340D01*
X77428995Y66919092D01*
X77452280Y66884602D01*
X77468639Y66869022D01*
X77503759Y66847642D01*
X77543394Y66837161D01*
X77563210Y66836000D01*
X77999916Y66836000D01*
X78039881Y66841644D01*
X78074053Y66862180D01*
X78081004Y66870194D01*
X78097027Y66907243D01*
X78097717Y66947131D01*
X78095464Y66960857D01*
X78087648Y67001304D01*
X77828750Y67001304D01*
G37*
D13*
G36*
X40797220Y4686682D02*
G01*
X40738419Y4772228D01*
X40690150Y4844127D01*
X40648201Y4903570D01*
X39773140Y4903570D01*
X39829744Y4820130D01*
X39878012Y4747132D01*
X39920052Y4686682D01*
X40203344Y4686682D01*
X40203344Y3655000D01*
X40421605Y3655000D01*
X40421605Y4686682D01*
X40797220Y4686682D01*
G37*
G36*
X39637402Y4903570D02*
G01*
X39419141Y4903570D01*
X39419141Y4381867D01*
X38890294Y4381867D01*
X38890294Y4903570D01*
X38672033Y4903570D01*
X38672033Y3016061D01*
X38780110Y3191458D01*
X38890294Y3368962D01*
X38890294Y4164980D01*
X39419141Y4164980D01*
X39419141Y3655000D01*
X39637402Y3655000D01*
X39637402Y4903570D01*
G37*
G36*
X37694481Y4381867D02*
G01*
X37839287Y4164980D01*
X38223328Y4164980D01*
X38223328Y3871888D01*
X37583290Y3871888D01*
X37585396Y3867675D01*
X37728095Y3655000D01*
X38441589Y3655000D01*
X38441589Y4381867D01*
X37694481Y4381867D01*
G37*
G36*
X38441589Y4903570D02*
G01*
X37585396Y4903570D01*
X37648319Y4809689D01*
X37697687Y4736691D01*
X37732308Y4686682D01*
X38441589Y4686682D01*
X38441589Y4903570D01*
G37*
G36*
X37860261Y5208385D02*
G01*
X38061761Y4974919D01*
X38166633Y4974919D01*
X38021828Y5208385D01*
X37860261Y5208385D01*
G37*
G36*
X36779853Y4929948D02*
G01*
X36805040Y4927017D01*
X36927634Y4905722D01*
X37042170Y4863087D01*
X37146595Y4800993D01*
X37236251Y4722586D01*
X37310293Y4629389D01*
X37367409Y4522460D01*
X37394124Y4445733D01*
X37410233Y4365630D01*
X37415678Y4281392D01*
X37409514Y4190324D01*
X37391319Y4104323D01*
X37361181Y4022464D01*
X37320304Y3945172D01*
X37271735Y3876231D01*
X37215277Y3814919D01*
X37151383Y3761413D01*
X37080623Y3716075D01*
X37002327Y3678723D01*
X36919945Y3651684D01*
X36834147Y3635935D01*
X36744132Y3631553D01*
X36655674Y3638429D01*
X36571659Y3655979D01*
X36491341Y3684126D01*
X36415178Y3722252D01*
X36346488Y3768428D01*
X36284620Y3822887D01*
X36205937Y3918168D01*
X36145127Y4028875D01*
X36116720Y4108799D01*
X36099502Y4193282D01*
X36093652Y4283224D01*
X36093851Y4286246D01*
X36311822Y4286246D01*
X36321121Y4193864D01*
X36348550Y4108926D01*
X36391449Y4031173D01*
X36446095Y3963296D01*
X36460841Y3948550D01*
X36530610Y3896746D01*
X36610867Y3858882D01*
X36697691Y3838157D01*
X36790294Y3836717D01*
X36873714Y3849453D01*
X36950853Y3878941D01*
X37020499Y3922861D01*
X37079905Y3978134D01*
X37128525Y4043482D01*
X37166001Y4118451D01*
X37189533Y4199264D01*
X37197416Y4284048D01*
X37188725Y4372863D01*
X37162795Y4457063D01*
X37121423Y4534417D01*
X37067357Y4600587D01*
X37001849Y4655430D01*
X36926765Y4697673D01*
X36844405Y4724481D01*
X36754574Y4733577D01*
X36727371Y4733577D01*
X36640135Y4718885D01*
X36561591Y4688148D01*
X36490874Y4643201D01*
X36430433Y4586848D01*
X36380859Y4520747D01*
X36343330Y4446531D01*
X36319656Y4367219D01*
X36311822Y4286246D01*
X36093851Y4286246D01*
X36099300Y4369135D01*
X36116076Y4451592D01*
X36144028Y4531344D01*
X36182076Y4606909D01*
X36228504Y4675716D01*
X36283612Y4738340D01*
X36346167Y4793558D01*
X36415887Y4840816D01*
X36493447Y4880306D01*
X36575299Y4909297D01*
X36662059Y4926893D01*
X36754665Y4932879D01*
X36779853Y4929948D01*
G37*
G36*
X35289391Y4903570D02*
G01*
X35071130Y4903570D01*
X35071130Y4381867D01*
X34542283Y4381867D01*
X34542283Y4903570D01*
X34324021Y4903570D01*
X34324021Y3016061D01*
X34432099Y3191458D01*
X34542283Y3368962D01*
X34542283Y4164980D01*
X35071130Y4164980D01*
X35071130Y3655000D01*
X35289391Y3655000D01*
X35289391Y4903570D01*
G37*
G36*
X33346470Y4381867D02*
G01*
X33491275Y4164980D01*
X33875317Y4164980D01*
X33875317Y3871888D01*
X33235278Y3871888D01*
X33237385Y3867675D01*
X33380084Y3655000D01*
X34093578Y3655000D01*
X34093578Y4381867D01*
X33346470Y4381867D01*
G37*
G36*
X34093578Y4903570D02*
G01*
X33237385Y4903570D01*
X33300308Y4809689D01*
X33349676Y4736691D01*
X33384297Y4686682D01*
X34093578Y4686682D01*
X34093578Y4903570D01*
G37*
G36*
X33067758Y3657748D02*
G01*
X33067758Y5589404D01*
X33010056Y5461268D01*
X32913519Y5251158D01*
X32792894Y4990673D01*
X32660636Y4709214D01*
X32320650Y3980240D01*
X32320650Y4903570D01*
X32102388Y4903570D01*
X32102388Y3016061D01*
X32402532Y3654634D01*
X32526364Y3921439D01*
X32649096Y4185038D01*
X32760379Y4424549D01*
X32849497Y4616798D01*
X32849497Y3657748D01*
X33067758Y3657748D01*
G37*
G36*
X31273856Y3655000D02*
G01*
X31365225Y3660488D01*
X31451360Y3676645D01*
X31533058Y3703269D01*
X31610780Y3739842D01*
X31680482Y3783862D01*
X31742894Y3835435D01*
X31797935Y3894687D01*
X31844711Y3960930D01*
X31883486Y4034829D01*
X31911900Y4113163D01*
X31929057Y4195400D01*
X31934868Y4282399D01*
X31929393Y4366738D01*
X31913257Y4446210D01*
X31886600Y4521635D01*
X31829156Y4625890D01*
X31754434Y4714709D01*
X31663778Y4788249D01*
X31557147Y4846875D01*
X31440368Y4886065D01*
X31313698Y4903570D01*
X30747115Y4903570D01*
X30889814Y4686682D01*
X31271749Y4686682D01*
X31357713Y4679250D01*
X31436521Y4657465D01*
X31508652Y4621893D01*
X31570794Y4574117D01*
X31622020Y4515023D01*
X31661011Y4444973D01*
X31685212Y4367319D01*
X31693526Y4280476D01*
X31684448Y4187401D01*
X31657897Y4103339D01*
X31615853Y4027128D01*
X31562368Y3962746D01*
X31497799Y3910038D01*
X31422874Y3870056D01*
X31341207Y3845090D01*
X31254988Y3836717D01*
X30965377Y3836717D01*
X30965377Y4164980D01*
X31290617Y4164980D01*
X31231907Y4253457D01*
X31183638Y4325997D01*
X31145811Y4381867D01*
X30747115Y4381867D01*
X30747115Y3021923D01*
X30857300Y3200617D01*
X30965377Y3372900D01*
X30965377Y3655000D01*
X31273856Y3655000D01*
G37*
D11*
G36*
X84086657Y67270557D02*
G01*
X84051663Y67266474D01*
X84025344Y67255288D01*
X84005568Y67237487D01*
X83992704Y67214202D01*
X83987672Y67185605D01*
X83991549Y67149608D01*
X84031849Y66956950D01*
X84043407Y66922269D01*
X84060881Y66893258D01*
X84084459Y66869022D01*
X84112762Y66850691D01*
X84143802Y66839741D01*
X84178443Y66836000D01*
X84612707Y66836000D01*
X84647706Y66840113D01*
X84673838Y66851352D01*
X84693307Y66869218D01*
X84705958Y66892629D01*
X84711140Y66921403D01*
X84707815Y66957536D01*
X84686566Y67061632D01*
X84429134Y67061632D01*
X84456001Y66932916D01*
X84294849Y66932916D01*
X84243363Y67173642D01*
X84541046Y67173642D01*
X84576079Y67177720D01*
X84602430Y67188892D01*
X84622233Y67206663D01*
X84635071Y67229975D01*
X84640086Y67258590D01*
X84636203Y67294591D01*
X84595903Y67487250D01*
X84584343Y67521928D01*
X84566869Y67550922D01*
X84543293Y67575128D01*
X84514957Y67593492D01*
X84483915Y67604456D01*
X84449309Y67608199D01*
X84015045Y67608199D01*
X83980000Y67604134D01*
X83953669Y67593007D01*
X83933907Y67575324D01*
X83921045Y67552163D01*
X83916012Y67523684D01*
X83919888Y67487787D01*
X83941186Y67383691D01*
X84198569Y67383691D01*
X84171751Y67511283D01*
X84332903Y67511283D01*
X84384389Y67270557D01*
X84086657Y67270557D01*
G37*
G36*
X83961360Y66836000D02*
G01*
X83406245Y66836000D01*
X83371604Y66839741D01*
X83340564Y66850691D01*
X83312260Y66869022D01*
X83288681Y66893227D01*
X83271209Y66922206D01*
X83259651Y66956852D01*
X83147690Y67487347D01*
X83145110Y67511283D01*
X83399553Y67511283D01*
X83522651Y66932916D01*
X83683803Y66932916D01*
X83560704Y67511283D01*
X83399553Y67511283D01*
X83145110Y67511283D01*
X83143813Y67523311D01*
X83148843Y67551893D01*
X83161709Y67575177D01*
X83181482Y67592947D01*
X83207815Y67604119D01*
X83242847Y67608199D01*
X83797962Y67608199D01*
X83961360Y66836000D01*
G37*
G36*
X82939522Y67604461D02*
G01*
X82970564Y67593512D01*
X82998897Y67575177D01*
X83022476Y67550972D01*
X83039949Y67521994D01*
X83051507Y67487347D01*
X83189162Y66836000D01*
X82931779Y66836000D01*
X82880293Y67076726D01*
X82719092Y67076726D01*
X82770579Y66836000D01*
X82513196Y66836000D01*
X82375491Y67487347D01*
X82372911Y67511283D01*
X82627355Y67511283D01*
X82698967Y67173642D01*
X82860118Y67173642D01*
X82788506Y67511283D01*
X82627355Y67511283D01*
X82372911Y67511283D01*
X82371615Y67523311D01*
X82376645Y67551893D01*
X82389511Y67575177D01*
X82409284Y67592947D01*
X82435617Y67604119D01*
X82470648Y67608199D01*
X82904912Y67608199D01*
X82939522Y67604461D01*
G37*
G36*
X40693108Y1954000D02*
G01*
X40693108Y2108753D01*
X40607452Y2108753D01*
X40543635Y2114501D01*
X40484940Y2131394D01*
X40430989Y2158152D01*
X40385069Y2191917D01*
X40346811Y2233134D01*
X40317878Y2281017D01*
X40299684Y2333945D01*
X40293551Y2391073D01*
X40293551Y2779346D01*
X40528610Y2779346D01*
X40483255Y2847783D01*
X40444640Y2905302D01*
X40411081Y2952856D01*
X40118942Y2952856D01*
X40118942Y2382061D01*
X40123646Y2319291D01*
X40137423Y2261376D01*
X40160121Y2207451D01*
X40207843Y2134134D01*
X40268419Y2072336D01*
X40339801Y2022630D01*
X40421192Y1985068D01*
X40508087Y1961759D01*
X40597414Y1954000D01*
X40693108Y1954000D01*
G37*
G36*
X39934075Y3496834D02*
G01*
X39904692Y3454042D01*
X39875310Y3409639D01*
X39841751Y3361059D01*
X39805627Y3305665D01*
X39759465Y3237008D01*
X39759465Y2356855D01*
X39754663Y2309173D01*
X39740195Y2262992D01*
X39717217Y2220319D01*
X39687292Y2183345D01*
X39650811Y2152690D01*
X39607571Y2128830D01*
X39559687Y2113892D01*
X39505941Y2108753D01*
X39455146Y2113599D01*
X39407756Y2127950D01*
X39364335Y2150893D01*
X39327229Y2180633D01*
X39296461Y2216836D01*
X39272640Y2259182D01*
X39257586Y2305708D01*
X39252490Y2356122D01*
X39252490Y2952856D01*
X39077881Y2952856D01*
X39077881Y2354363D01*
X39086618Y2268028D01*
X39112319Y2189206D01*
X39152782Y2117663D01*
X39204643Y2056729D01*
X39267181Y2006727D01*
X39340638Y1967922D01*
X39420680Y1943476D01*
X39506015Y1935243D01*
X39592754Y1943529D01*
X39673077Y1967996D01*
X39746419Y2007046D01*
X39809071Y2057828D01*
X39860733Y2119519D01*
X39900516Y2191258D01*
X39925592Y2269959D01*
X39934075Y2355023D01*
X39934075Y3496834D01*
G37*
G36*
X38893014Y1956199D02*
G01*
X38893014Y3501523D01*
X38846852Y3399014D01*
X38769622Y3230927D01*
X38673122Y3022539D01*
X38567316Y2797371D01*
X38295327Y2214192D01*
X38295327Y2952856D01*
X38120718Y2952856D01*
X38120718Y1442849D01*
X38360833Y1953707D01*
X38459898Y2167151D01*
X38558084Y2378031D01*
X38647110Y2569639D01*
X38718405Y2723439D01*
X38718405Y1956199D01*
X38893014Y1956199D01*
G37*
G36*
X37338677Y2535494D02*
G01*
X37454521Y2361984D01*
X37761754Y2361984D01*
X37761754Y2127511D01*
X37249724Y2127511D01*
X37251409Y2124140D01*
X37365568Y1954000D01*
X37936363Y1954000D01*
X37936363Y2535494D01*
X37338677Y2535494D01*
G37*
G36*
X37936363Y2952856D02*
G01*
X37251409Y2952856D01*
X37301747Y2877751D01*
X37341241Y2819353D01*
X37368938Y2779346D01*
X37936363Y2779346D01*
X37936363Y2952856D01*
G37*
G36*
X36556489Y1954000D02*
G01*
X36556489Y2073069D01*
X36552169Y2125704D01*
X36539949Y2170225D01*
X36520439Y2208111D01*
X36479854Y2258747D01*
X36429727Y2302120D01*
X36373125Y2339357D01*
X36310512Y2373414D01*
X36191370Y2439653D01*
X36140358Y2476866D01*
X36099047Y2517615D01*
X36078067Y2548546D01*
X36064884Y2583965D01*
X36059553Y2625033D01*
X36062761Y2657609D01*
X36072155Y2687095D01*
X36087331Y2713579D01*
X36107400Y2735675D01*
X36131466Y2753682D01*
X36158617Y2767549D01*
X36187843Y2776373D01*
X36218994Y2779346D01*
X36490983Y2779346D01*
X36466657Y2815030D01*
X36438959Y2859287D01*
X36399539Y2917099D01*
X36376824Y2952856D01*
X36218994Y2952856D01*
X36148928Y2946026D01*
X36085564Y2926038D01*
X36028108Y2894612D01*
X35979832Y2854890D01*
X35940198Y2807080D01*
X35910149Y2751942D01*
X35891281Y2691892D01*
X35884943Y2628111D01*
X35889044Y2566294D01*
X35900539Y2514374D01*
X35918576Y2470721D01*
X35956898Y2411699D01*
X36003352Y2363596D01*
X36056821Y2323627D01*
X36114947Y2290763D01*
X36226615Y2237127D01*
X36275375Y2211773D01*
X36313077Y2187741D01*
X36340432Y2159325D01*
X36350006Y2127511D01*
X35915132Y2127511D01*
X35958802Y2060539D01*
X35996611Y2002947D01*
X36029291Y1954000D01*
X36556489Y1954000D01*
G37*
G36*
X35510453Y2966531D02*
G01*
X35567719Y2952252D01*
X35615885Y2929702D01*
X35659238Y2898530D01*
X35696030Y2861236D01*
X35726747Y2817301D01*
X35761201Y2742618D01*
X35784633Y2652950D01*
X35797109Y2557425D01*
X35801412Y2453428D01*
X35796924Y2350932D01*
X35783827Y2255518D01*
X35759759Y2165767D01*
X35725062Y2090361D01*
X35694345Y2045859D01*
X35657827Y2008316D01*
X35615079Y1977155D01*
X35567425Y1954633D01*
X35510453Y1940341D01*
X35442155Y1935243D01*
X35373858Y1940342D01*
X35316912Y1954635D01*
X35269305Y1977155D01*
X35226457Y2008290D01*
X35189639Y2045834D01*
X35158443Y2090361D01*
X35123279Y2165845D01*
X35099678Y2255518D01*
X35087183Y2350910D01*
X35082927Y2452769D01*
X35252452Y2452769D01*
X35261684Y2342640D01*
X35282640Y2240864D01*
X35306616Y2187183D01*
X35344776Y2143264D01*
X35376742Y2121260D01*
X35410589Y2108388D01*
X35447211Y2104063D01*
X35486326Y2109400D01*
X35524441Y2125752D01*
X35551241Y2148876D01*
X35574779Y2185763D01*
X35592636Y2229010D01*
X35606726Y2277573D01*
X35623506Y2376785D01*
X35628488Y2461122D01*
X35621821Y2582828D01*
X35611459Y2640845D01*
X35594929Y2690466D01*
X35570472Y2734100D01*
X35538729Y2768062D01*
X35498091Y2790096D01*
X35442155Y2798104D01*
X35399271Y2793629D01*
X35366611Y2781398D01*
X35339011Y2760260D01*
X35312902Y2726370D01*
X35284337Y2665512D01*
X35265055Y2597849D01*
X35254797Y2526979D01*
X35252452Y2452769D01*
X35082927Y2452769D01*
X35082899Y2453428D01*
X35087600Y2554310D01*
X35101363Y2648774D01*
X35126193Y2737966D01*
X35161814Y2814004D01*
X35193021Y2859097D01*
X35229822Y2897174D01*
X35272602Y2928823D01*
X35320230Y2951946D01*
X35376156Y2966474D01*
X35442155Y2971614D01*
X35510453Y2966531D01*
G37*
G36*
X35040620Y1954000D02*
G01*
X35040620Y2073069D01*
X35036300Y2125704D01*
X35024080Y2170225D01*
X35004570Y2208111D01*
X34963985Y2258747D01*
X34913858Y2302120D01*
X34857256Y2339357D01*
X34794643Y2373414D01*
X34675502Y2439653D01*
X34624489Y2476866D01*
X34583178Y2517615D01*
X34562198Y2548546D01*
X34549016Y2583965D01*
X34543684Y2625033D01*
X34546892Y2657609D01*
X34556287Y2687095D01*
X34571462Y2713579D01*
X34591531Y2735675D01*
X34615598Y2753682D01*
X34642749Y2767549D01*
X34671975Y2776373D01*
X34703125Y2779346D01*
X34975114Y2779346D01*
X34950788Y2815030D01*
X34923091Y2859287D01*
X34883670Y2917099D01*
X34860955Y2952856D01*
X34703125Y2952856D01*
X34633059Y2946026D01*
X34569696Y2926038D01*
X34512239Y2894612D01*
X34463963Y2854890D01*
X34424329Y2807080D01*
X34394280Y2751942D01*
X34375413Y2691892D01*
X34369075Y2628111D01*
X34373175Y2566294D01*
X34384670Y2514374D01*
X34402707Y2470721D01*
X34441029Y2411699D01*
X34487483Y2363596D01*
X34540952Y2323627D01*
X34599078Y2290763D01*
X34710746Y2237127D01*
X34759506Y2211773D01*
X34797208Y2187741D01*
X34824563Y2159325D01*
X34834137Y2127511D01*
X34399263Y2127511D01*
X34442934Y2060539D01*
X34480742Y2002947D01*
X34513422Y1954000D01*
X35040620Y1954000D01*
G37*
G36*
X34235205Y1954000D02*
G01*
X34202525Y2002947D01*
X34164717Y2060539D01*
X34121046Y2127511D01*
X33964901Y2127511D01*
X33933744Y2130448D01*
X33904525Y2139161D01*
X33877620Y2153312D01*
X33854113Y2172427D01*
X33834552Y2195556D01*
X33819675Y2221520D01*
X33810297Y2250087D01*
X33807072Y2282263D01*
X33810238Y2313091D01*
X33819675Y2342127D01*
X33834485Y2368726D01*
X33853307Y2391220D01*
X33876132Y2409783D01*
X33903645Y2424485D01*
X33933659Y2433884D01*
X33964901Y2437015D01*
X34235205Y2437015D01*
X34202525Y2485961D01*
X34164717Y2543554D01*
X34121046Y2610525D01*
X33938010Y2610525D01*
X33874692Y2603454D01*
X33817183Y2582608D01*
X33765248Y2550196D01*
X33720610Y2508969D01*
X33684046Y2460150D01*
X33655983Y2404042D01*
X33638317Y2343863D01*
X33632463Y2282263D01*
X33639058Y2214742D01*
X33658474Y2152790D01*
X33689470Y2096558D01*
X33729842Y2048742D01*
X33778731Y2009571D01*
X33835648Y1979353D01*
X33897806Y1960413D01*
X33964901Y1954000D01*
X34235205Y1954000D01*
G37*
G36*
X34235205Y2952856D02*
G01*
X33711377Y2952856D01*
X33755048Y2886544D01*
X33792857Y2827779D01*
X33825536Y2779346D01*
X34235205Y2779346D01*
X34235205Y2952856D01*
G37*
G36*
X42251020Y53725305D02*
G01*
X41980277Y53138389D01*
X41774746Y52689776D01*
X41610981Y52333303D01*
X41470481Y52025191D01*
X41331995Y51723307D01*
X41172443Y51379474D01*
X40972958Y50949729D01*
X40714854Y50388092D01*
X40505111Y50848612D01*
X40379082Y51121920D01*
X40312037Y51264985D01*
X40280530Y51334411D01*
X40259464Y51382771D01*
X40221728Y51460441D01*
X40146257Y51624572D01*
X40005573Y51931585D01*
X40832457Y51931585D01*
X40865980Y52006690D01*
X40889061Y52050470D01*
X40933208Y52144260D01*
X41033775Y52365360D01*
X39325601Y52365360D01*
X39378174Y52249956D01*
X39506219Y51970786D01*
X39686653Y51580425D01*
X39892184Y51133461D01*
X40100095Y50684481D01*
X40282545Y50287892D01*
X40414802Y49998281D01*
X40475619Y49868221D01*
X40954090Y49868221D01*
X41040186Y50058914D01*
X41212194Y50430041D01*
X41443003Y50931044D01*
X41707518Y51507518D01*
X41984490Y52106890D01*
X42251020Y52681350D01*
X42251020Y53725305D01*
G37*
G36*
X37968588Y51931585D02*
G01*
X37886889Y52052668D01*
X37792367Y52199581D01*
X37683190Y52365360D01*
X37091329Y52365360D01*
X37091329Y49868221D01*
X37527852Y49868221D01*
X37527852Y51931585D01*
X37968588Y51931585D01*
G37*
G36*
X36630809Y49868221D02*
G01*
X36630809Y50255102D01*
X36232021Y50255102D01*
X36232021Y49868221D01*
X36630809Y49868221D01*
G37*
G36*
X35960912Y51931585D02*
G01*
X35879212Y52052668D01*
X35784690Y52199581D01*
X35675514Y52365360D01*
X35083652Y52365360D01*
X35083652Y49868221D01*
X35520175Y49868221D01*
X35520175Y51931585D01*
X35960912Y51931585D01*
G37*
G36*
X73141102Y67001304D02*
G01*
X73154584Y66936042D01*
X72992602Y66936042D01*
X72940823Y67173642D01*
X73102805Y67173642D01*
X73082679Y67273684D01*
X72920502Y67273684D01*
X72868722Y67511283D01*
X73030900Y67511283D01*
X73057864Y67383104D01*
X73316762Y67383104D01*
X73295268Y67487640D01*
X73282079Y67526448D01*
X73258861Y67561481D01*
X73242512Y67577326D01*
X73207297Y67599339D01*
X73167697Y67610130D01*
X73147941Y67611325D01*
X72711235Y67611325D01*
X72671205Y67605843D01*
X72636799Y67585893D01*
X72629755Y67578108D01*
X72613386Y67542299D01*
X72613525Y67500123D01*
X72615491Y67489985D01*
X72656133Y67295568D01*
X72673795Y67260472D01*
X72680362Y67252776D01*
X72711751Y67228128D01*
X72721395Y67223663D01*
X72694044Y67195682D01*
X72692672Y67193181D01*
X72686948Y67153385D01*
X72687592Y67150585D01*
X72728039Y66957340D01*
X72741347Y66919092D01*
X72764632Y66884602D01*
X72780990Y66869022D01*
X72816111Y66847642D01*
X72855746Y66837161D01*
X72875561Y66836000D01*
X73312267Y66836000D01*
X73352232Y66841644D01*
X73386404Y66862180D01*
X73393356Y66870194D01*
X73409379Y66907243D01*
X73410068Y66947131D01*
X73407815Y66960857D01*
X73400000Y67001304D01*
X73141102Y67001304D01*
G37*
G36*
X72209071Y66836000D02*
G01*
X72466796Y66836000D01*
X72512909Y67611325D01*
X72254207Y67611325D01*
X72221577Y67030418D01*
X71940209Y67611325D01*
X71834305Y67611325D01*
X72209071Y66836000D01*
G37*
G36*
X71628750Y67001304D02*
G01*
X71642233Y66936042D01*
X71480251Y66936042D01*
X71428471Y67173642D01*
X71590453Y67173642D01*
X71570327Y67273684D01*
X71408150Y67273684D01*
X71356371Y67511283D01*
X71518548Y67511283D01*
X71545512Y67383104D01*
X71804410Y67383104D01*
X71782916Y67487640D01*
X71769727Y67526448D01*
X71746509Y67561481D01*
X71730160Y67577326D01*
X71694946Y67599339D01*
X71655345Y67610130D01*
X71635589Y67611325D01*
X71198883Y67611325D01*
X71158854Y67605843D01*
X71124447Y67585893D01*
X71117404Y67578108D01*
X71101035Y67542299D01*
X71101173Y67500123D01*
X71103140Y67489985D01*
X71143782Y67295568D01*
X71161444Y67260472D01*
X71168011Y67252776D01*
X71199400Y67228128D01*
X71209043Y67223663D01*
X71181692Y67195682D01*
X71180321Y67193181D01*
X71174596Y67153385D01*
X71175240Y67150585D01*
X71215687Y66957340D01*
X71228995Y66919092D01*
X71252280Y66884602D01*
X71268639Y66869022D01*
X71303759Y66847642D01*
X71343394Y66837161D01*
X71363210Y66836000D01*
X71799916Y66836000D01*
X71839881Y66841644D01*
X71874053Y66862180D01*
X71881004Y66870194D01*
X71897027Y66907243D01*
X71897717Y66947131D01*
X71895464Y66960857D01*
X71887648Y67001304D01*
X71628750Y67001304D01*
G37*
G36*
X9824842Y5920000D02*
G01*
X10001186Y5920000D01*
X10001186Y6338144D01*
X10633775Y6338144D01*
X10633775Y5920000D01*
X10810118Y5920000D01*
X10810118Y6889156D01*
X10633775Y6889156D01*
X10633775Y6482736D01*
X10001186Y6482736D01*
X10001186Y6889156D01*
X9824842Y6889156D01*
X9824842Y5920000D01*
G37*
G36*
X8724773Y6889156D02*
G01*
X8548429Y6889156D01*
X8548429Y6221396D01*
X8554087Y6160822D01*
X8570639Y6105870D01*
X8598112Y6055332D01*
X8637395Y6008355D01*
X8684277Y5969361D01*
X8734735Y5942073D01*
X8789619Y5925624D01*
X8850130Y5920000D01*
X9646545Y5920000D01*
X9646545Y6060684D01*
X8917908Y6060684D01*
X8867243Y6067050D01*
X8822327Y6085759D01*
X8781620Y6117532D01*
X8749840Y6158313D01*
X8731135Y6203252D01*
X8724773Y6253880D01*
X8724773Y6381375D01*
X8768865Y6350247D01*
X8815306Y6328393D01*
X8864717Y6315251D01*
X8917908Y6310789D01*
X9344478Y6310789D01*
X9405422Y6316446D01*
X9460590Y6332978D01*
X9511205Y6360381D01*
X9558129Y6399510D01*
X9594742Y6446164D01*
X9622257Y6504665D01*
X9640077Y6577638D01*
X9646545Y6668422D01*
X9646545Y6889156D01*
X9470202Y6889156D01*
X9470202Y6703898D01*
X9465840Y6634979D01*
X9454111Y6582161D01*
X9436559Y6542168D01*
X9413965Y6512350D01*
X9373159Y6480540D01*
X9327968Y6461776D01*
X9276823Y6455381D01*
X8918152Y6455381D01*
X8867451Y6461758D01*
X8822473Y6480503D01*
X8781681Y6512350D01*
X8758788Y6542217D01*
X8741032Y6582234D01*
X8729179Y6635038D01*
X8724773Y6703898D01*
X8724773Y6889156D01*
G37*
G36*
X7566085Y6474920D02*
G01*
X7518093Y6468858D01*
X7475662Y6451053D01*
X7437308Y6420820D01*
X7407481Y6382513D01*
X7389880Y6340058D01*
X7383879Y6291982D01*
X7383879Y6102267D01*
X7389876Y6054189D01*
X7407459Y6011755D01*
X7437247Y5973490D01*
X7475557Y5943623D01*
X7517992Y5926005D01*
X7566024Y5920000D01*
X8372575Y5920000D01*
X8372575Y6060684D01*
X7634167Y6060684D01*
X7606167Y6066128D01*
X7582144Y6082605D01*
X7565662Y6106729D01*
X7560223Y6134751D01*
X7560223Y6256262D01*
X7565715Y6284745D01*
X7582144Y6308408D01*
X7606167Y6324885D01*
X7634167Y6330328D01*
X8197208Y6330328D01*
X8243484Y6336117D01*
X8284327Y6353093D01*
X8321161Y6381864D01*
X8349854Y6418845D01*
X8366796Y6459852D01*
X8372575Y6506305D01*
X8372575Y6712507D01*
X8366816Y6758987D01*
X8349902Y6800229D01*
X8321222Y6837621D01*
X8284352Y6866397D01*
X8243507Y6883371D01*
X8197269Y6889156D01*
X7383879Y6889156D01*
X7383879Y6748472D01*
X8129125Y6748472D01*
X8154563Y6743501D01*
X8176386Y6728444D01*
X8191241Y6707021D01*
X8196231Y6680939D01*
X8196231Y6541782D01*
X8191293Y6516162D01*
X8176386Y6494276D01*
X8154615Y6479746D01*
X8129125Y6474920D01*
X7566085Y6474920D01*
G37*
G36*
X7208025Y6889156D02*
G01*
X6281856Y6889156D01*
X6281856Y6748472D01*
X6657013Y6748472D01*
X6657013Y5920000D01*
X6828960Y5920000D01*
X6828960Y6748472D01*
X7208025Y6748472D01*
X7208025Y6889156D01*
G37*
G36*
X76712707Y66836000D02*
G01*
X76747739Y66840080D01*
X76774071Y66851252D01*
X76793845Y66869022D01*
X76806683Y66892302D01*
X76811698Y66920884D01*
X76807815Y66956852D01*
X76695903Y67487347D01*
X76684345Y67521994D01*
X76666872Y67550972D01*
X76643293Y67575177D01*
X76614961Y67593512D01*
X76583918Y67604461D01*
X76549309Y67608199D01*
X76115045Y67608199D01*
X76080000Y67604134D01*
X76053669Y67593007D01*
X76033907Y67575324D01*
X76021045Y67552163D01*
X76016012Y67523684D01*
X76019888Y67487787D01*
X76041186Y67383691D01*
X76298569Y67383691D01*
X76271751Y67511283D01*
X76432903Y67511283D01*
X76556001Y66932916D01*
X76394849Y66932916D01*
X76360167Y67092358D01*
X76457522Y67092358D01*
X76437397Y67189273D01*
X76082561Y67189273D01*
X76131849Y66956754D01*
X76143409Y66922110D01*
X76160882Y66893148D01*
X76184459Y66868973D01*
X76212758Y66850671D01*
X76243799Y66839736D01*
X76278443Y66836000D01*
X76712707Y66836000D01*
G37*
G36*
X75369713Y66836000D02*
G01*
X75627145Y66836000D01*
X75701004Y67320578D01*
X75803977Y66836000D01*
X76061360Y66836000D01*
X75897962Y67608199D01*
X75640530Y67608199D01*
X75566671Y67122497D01*
X75463698Y67608199D01*
X75206315Y67608199D01*
X75369713Y66836000D01*
G37*
G36*
X75273531Y66836000D02*
G01*
X74718415Y66836000D01*
X74683774Y66839741D01*
X74652734Y66850691D01*
X74624431Y66869022D01*
X74600852Y66893227D01*
X74583379Y66922206D01*
X74571821Y66956852D01*
X74459860Y67487347D01*
X74457280Y67511283D01*
X74711723Y67511283D01*
X74834822Y66932916D01*
X74995973Y66932916D01*
X74872875Y67511283D01*
X74711723Y67511283D01*
X74457280Y67511283D01*
X74455984Y67523311D01*
X74461014Y67551893D01*
X74473879Y67575177D01*
X74493653Y67592947D01*
X74519985Y67604119D01*
X74555017Y67608199D01*
X75110132Y67608199D01*
X75273531Y66836000D01*
G37*
G36*
X65712707Y66836000D02*
G01*
X65747739Y66840080D01*
X65774071Y66851252D01*
X65793845Y66869022D01*
X65806683Y66892302D01*
X65811698Y66920884D01*
X65807815Y66956852D01*
X65695903Y67487347D01*
X65684345Y67521994D01*
X65666872Y67550972D01*
X65643293Y67575177D01*
X65614961Y67593512D01*
X65583918Y67604461D01*
X65549309Y67608199D01*
X65115045Y67608199D01*
X65080000Y67604134D01*
X65053669Y67593007D01*
X65033907Y67575324D01*
X65021045Y67552163D01*
X65016012Y67523684D01*
X65019888Y67487787D01*
X65041186Y67383691D01*
X65298569Y67383691D01*
X65271751Y67511283D01*
X65432903Y67511283D01*
X65556001Y66932916D01*
X65394849Y66932916D01*
X65360167Y67092358D01*
X65457522Y67092358D01*
X65437397Y67189273D01*
X65082561Y67189273D01*
X65131849Y66956754D01*
X65143409Y66922110D01*
X65160882Y66893148D01*
X65184459Y66868973D01*
X65212758Y66850671D01*
X65243799Y66839736D01*
X65278443Y66836000D01*
X65712707Y66836000D01*
G37*
G36*
X64369713Y66836000D02*
G01*
X64627145Y66836000D01*
X64701004Y67320578D01*
X64803977Y66836000D01*
X65061360Y66836000D01*
X64897962Y67608199D01*
X64640530Y67608199D01*
X64566671Y67122497D01*
X64463698Y67608199D01*
X64206315Y67608199D01*
X64369713Y66836000D01*
G37*
G36*
X64273531Y66836000D02*
G01*
X63718415Y66836000D01*
X63683774Y66839741D01*
X63652734Y66850691D01*
X63624431Y66869022D01*
X63600852Y66893227D01*
X63583379Y66922206D01*
X63571821Y66956852D01*
X63459860Y67487347D01*
X63457280Y67511283D01*
X63711723Y67511283D01*
X63834822Y66932916D01*
X63995973Y66932916D01*
X63872875Y67511283D01*
X63711723Y67511283D01*
X63457280Y67511283D01*
X63455984Y67523311D01*
X63461014Y67551893D01*
X63473879Y67575177D01*
X63493653Y67592947D01*
X63519985Y67604119D01*
X63555017Y67608199D01*
X64110132Y67608199D01*
X64273531Y66836000D01*
G37*
D12*
G36*
X46870245Y57018497D02*
G01*
X47366058Y56275999D01*
X48641616Y56275999D01*
X48641616Y55318567D01*
X46508155Y55318567D01*
X46517314Y55288647D01*
X46995419Y54576068D01*
X49388694Y54576068D01*
X49388694Y57018497D01*
X46870245Y57018497D01*
G37*
G36*
X49388694Y58757506D02*
G01*
X46506628Y58757506D01*
X46726447Y58429305D01*
X46891006Y58185978D01*
X47009769Y58015008D01*
X49388694Y58015008D01*
X49388694Y58757506D01*
G37*
G36*
X41519189Y61044535D02*
G01*
X41379055Y60841508D01*
X41256323Y60656494D01*
X41116494Y60454078D01*
X40965979Y60223268D01*
X40772112Y59934757D01*
X40772112Y56264397D01*
X40752265Y56067764D01*
X40692427Y55876967D01*
X40597702Y55700874D01*
X40474135Y55548155D01*
X40323500Y55421796D01*
X40145018Y55323452D01*
X39947385Y55261667D01*
X39725531Y55240409D01*
X39515705Y55260450D01*
X39320088Y55319788D01*
X39140877Y55414369D01*
X38987612Y55537164D01*
X38860779Y55686642D01*
X38762604Y55861396D01*
X38700329Y56053373D01*
X38679256Y56261344D01*
X38679256Y58757506D01*
X37932178Y58757506D01*
X37932178Y56254017D01*
X37968737Y55892200D01*
X38076281Y55561894D01*
X38245890Y55262085D01*
X38463101Y55006852D01*
X38725270Y54797373D01*
X39033103Y54634687D01*
X39368455Y54532366D01*
X39725836Y54497911D01*
X40089073Y54532586D01*
X40425592Y54634992D01*
X40732896Y54798715D01*
X40995289Y55011431D01*
X41211930Y55270091D01*
X41378750Y55570747D01*
X41483681Y55900290D01*
X41519189Y56256765D01*
X41519189Y61044535D01*
G37*
G36*
X37326761Y58490365D02*
G01*
X37393317Y58591726D01*
X37445219Y58672326D01*
X37503837Y58757506D01*
X36697836Y58757506D01*
X35646676Y57217250D01*
X35105678Y58009512D01*
X35462883Y58009512D01*
X35944652Y58757506D01*
X33795620Y58757506D01*
X35243064Y56625266D01*
X34519189Y55573190D01*
X34194041Y55089894D01*
X33844469Y54578511D01*
X33491232Y54063769D01*
X33153567Y53574368D01*
X33153567Y52405055D01*
X35646676Y56033588D01*
X36131803Y55325283D01*
X35872295Y55325283D01*
X35383809Y54577290D01*
X37449188Y54577290D01*
X36050287Y56625266D01*
X36543047Y57341203D01*
X36756759Y57649559D01*
X36966503Y57961274D01*
X37162202Y58248260D01*
X37326761Y58490365D01*
G37*
D11*
G36*
X67063558Y67511283D02*
G01*
X67256071Y67511283D01*
X67399344Y66836000D01*
X67656727Y66836000D01*
X67513503Y67511283D01*
X67705966Y67511283D01*
X67685840Y67608199D01*
X67043384Y67608199D01*
X67063558Y67511283D01*
G37*
G36*
X66608046Y67263523D02*
G01*
X66467020Y66836000D01*
X66724452Y66836000D01*
X66803928Y67078876D01*
X67030000Y66836000D01*
X67141912Y66836000D01*
X66832993Y67167243D01*
X66978513Y67608199D01*
X66721081Y67608199D01*
X66637159Y67353014D01*
X66399853Y67608199D01*
X66286817Y67608199D01*
X66608046Y67263523D01*
G37*
D12*
G36*
X10651528Y1767516D02*
G01*
X10651528Y2579868D01*
X10897725Y2579868D01*
X10897725Y1945569D01*
X10903567Y1898726D01*
X10920735Y1857166D01*
X10949870Y1819479D01*
X10987248Y1790483D01*
X11028716Y1773358D01*
X11075717Y1767516D01*
X11301946Y1767516D01*
X11348953Y1773351D01*
X11390443Y1790457D01*
X11427854Y1819418D01*
X11456993Y1857065D01*
X11474159Y1898565D01*
X11480000Y1945325D01*
X11480000Y2760119D01*
X11335408Y2760119D01*
X11335408Y2012919D01*
X11330536Y1987813D01*
X11315990Y1967124D01*
X11294558Y1952574D01*
X11269645Y1947767D01*
X11111315Y1947767D01*
X11086371Y1952581D01*
X11065031Y1967124D01*
X11050967Y1987723D01*
X11046224Y2012919D01*
X11046224Y2760119D01*
X10506936Y2760119D01*
X10506936Y1767516D01*
X10651528Y1767516D01*
G37*
G36*
X10801769Y1613519D02*
G01*
X10845923Y1600293D01*
X10886556Y1578341D01*
X10924347Y1546965D01*
X10955727Y1509173D01*
X10977678Y1468549D01*
X10990903Y1424415D01*
X10995422Y1375812D01*
X10990902Y1327176D01*
X10977675Y1283022D01*
X10955724Y1242389D01*
X10924347Y1204597D01*
X10886552Y1173192D01*
X10845918Y1151222D01*
X10801765Y1137985D01*
X10753133Y1133462D01*
X10704500Y1137986D01*
X10660358Y1151224D01*
X10619745Y1173193D01*
X10581980Y1204597D01*
X10550574Y1242393D01*
X10528604Y1283026D01*
X10515367Y1327179D01*
X10510844Y1375812D01*
X10510872Y1376117D01*
X10624173Y1376117D01*
X10628447Y1340846D01*
X10640949Y1309796D01*
X10662030Y1281900D01*
X10689216Y1260064D01*
X10719231Y1247242D01*
X10753133Y1242883D01*
X10787037Y1247240D01*
X10817073Y1260062D01*
X10844296Y1281900D01*
X10865341Y1309792D01*
X10877824Y1340842D01*
X10882093Y1376117D01*
X10877842Y1410947D01*
X10865376Y1441784D01*
X10844296Y1469662D01*
X10817077Y1491464D01*
X10787041Y1504267D01*
X10753133Y1508619D01*
X10719227Y1504265D01*
X10689212Y1491462D01*
X10662030Y1469662D01*
X10640914Y1441779D01*
X10628430Y1410943D01*
X10624173Y1376117D01*
X10510872Y1376117D01*
X10515366Y1424412D01*
X10528601Y1468545D01*
X10550571Y1509169D01*
X10581980Y1546965D01*
X10619741Y1578340D01*
X10660353Y1600291D01*
X10704496Y1613519D01*
X10753133Y1618040D01*
X10801769Y1613519D01*
G37*
G36*
X45700907Y59800412D02*
G01*
X45616204Y59608453D01*
X45535508Y59429468D01*
X45451371Y59247572D01*
X45443963Y59231815D01*
X45360729Y59054117D01*
X45273569Y58866260D01*
X45190928Y58686665D01*
X45105519Y58501059D01*
X45017820Y58311828D01*
X44927832Y58118972D01*
X44909560Y58079966D01*
X44818541Y57885812D01*
X44728667Y57694138D01*
X44639939Y57504945D01*
X44622330Y57467405D01*
X44520120Y57246641D01*
X44417433Y57025211D01*
X44334940Y56847585D01*
X44252142Y56669532D01*
X44169038Y56491051D01*
X44085629Y56312144D01*
X44001915Y56132808D01*
X43959944Y56042980D01*
X43877512Y56224663D01*
X43795080Y56406276D01*
X43712648Y56587821D01*
X43630216Y56769297D01*
X43547784Y56950705D01*
X43520306Y57011159D01*
X43427268Y57215916D01*
X43340494Y57406180D01*
X43248995Y57605879D01*
X43165677Y57786649D01*
X43146126Y57828884D01*
X42217027Y57828884D01*
X42217027Y52597202D01*
X42324646Y52776034D01*
X42427686Y52944943D01*
X42535741Y53119283D01*
X42545289Y53134536D01*
X42651360Y53305497D01*
X42761356Y53485231D01*
X42864759Y53656239D01*
X42864759Y56896853D01*
X42951856Y56710923D01*
X43036370Y56527558D01*
X43064061Y56466986D01*
X43145165Y56288979D01*
X43225896Y56109471D01*
X43266294Y56018556D01*
X43348196Y55834701D01*
X43430354Y55653259D01*
X43435310Y55642422D01*
X43519391Y55459453D01*
X43593579Y55297551D01*
X43677725Y55112376D01*
X43753803Y54944864D01*
X43839054Y54752666D01*
X43920547Y54566141D01*
X43957990Y54479826D01*
X44043229Y54666878D01*
X44129058Y54855861D01*
X44212670Y55040821D01*
X44226657Y55071871D01*
X44311195Y55260365D01*
X44393034Y55439910D01*
X44463084Y55591619D01*
X44544714Y55769688D01*
X44632069Y55960731D01*
X44715583Y56143765D01*
X44744452Y56207111D01*
X44831280Y56399144D01*
X44918108Y56590557D01*
X45004937Y56781353D01*
X45053175Y56887084D01*
X45053175Y54433908D01*
X45700907Y54433908D01*
X45700907Y59800412D01*
G37*
D10*
G04 #@! TO.C,kibuzzard-687E963C*
G36*
X95749192Y17467690D02*
G01*
X95584410Y17467690D01*
X95584410Y17895800D01*
X94749192Y17895800D01*
X94749192Y18096123D01*
X95749192Y18096123D01*
X95749192Y17467690D01*
G37*
G36*
X95749192Y16659935D02*
G01*
X95584410Y16659935D01*
X95584410Y17102585D01*
X95303312Y17102585D01*
X95303312Y16748788D01*
X95138530Y16748788D01*
X95138530Y17102585D01*
X94913974Y17102585D01*
X94913974Y16695477D01*
X94749192Y16695477D01*
X94749192Y17301292D01*
X95749192Y17301292D01*
X95749192Y16659935D01*
G37*
G36*
X95749192Y20698708D02*
G01*
X95584410Y20698708D01*
X95584410Y21141357D01*
X95303312Y21141357D01*
X95303312Y20787561D01*
X95138530Y20787561D01*
X95138530Y21141357D01*
X94913974Y21141357D01*
X94913974Y20734249D01*
X94749192Y20734249D01*
X94749192Y21340065D01*
X95749192Y21340065D01*
X95749192Y20698708D01*
G37*
G36*
X95749192Y20380452D02*
G01*
X95085218Y20380452D01*
X95196060Y20320409D01*
X95306722Y20263059D01*
X95417205Y20208401D01*
X95527688Y20156435D01*
X95638350Y20107162D01*
X95749192Y20060582D01*
X95749192Y19900646D01*
X94749192Y19900646D01*
X94749192Y20079968D01*
X95364701Y20079968D01*
X95301696Y20108441D01*
X95228998Y20142165D01*
X95150242Y20180129D01*
X95069063Y20221325D01*
X94986470Y20264742D01*
X94903473Y20309370D01*
X94823304Y20354604D01*
X94749192Y20399838D01*
X94749192Y20559774D01*
X95749192Y20559774D01*
X95749192Y20380452D01*
G37*
G36*
X95758279Y18573708D02*
G01*
X95746769Y18499192D01*
X95726171Y18432149D01*
X95695073Y18374798D01*
X95598142Y18291599D01*
X95530089Y18268578D01*
X95447092Y18260905D01*
X95379241Y18269992D01*
X95314620Y18297254D01*
X95258078Y18349960D01*
X95214459Y18435380D01*
X95127221Y18342488D01*
X95068255Y18316438D01*
X95001212Y18307754D01*
X94907512Y18322294D01*
X94822698Y18377221D01*
X94761309Y18488691D01*
X94743740Y18570275D01*
X94739636Y18642165D01*
X94910743Y18642165D01*
X94914782Y18588853D01*
X94930937Y18543619D01*
X94964863Y18512924D01*
X95022213Y18501616D01*
X95113489Y18540388D01*
X95138211Y18626010D01*
X95311389Y18626010D01*
X95342892Y18502423D01*
X95447092Y18456381D01*
X95518982Y18472536D01*
X95562601Y18513732D01*
X95583603Y18571082D01*
X95589257Y18637318D01*
X95587641Y18686591D01*
X95582795Y18732633D01*
X95311389Y18732633D01*
X95311389Y18655089D01*
X95311389Y18626010D01*
X95138211Y18626010D01*
X95146607Y18655089D01*
X95146607Y18732633D01*
X94917205Y18732633D01*
X94912359Y18689015D01*
X94910743Y18642165D01*
X94739636Y18642165D01*
X94737884Y18672859D01*
X94745153Y18806947D01*
X94762116Y18931341D01*
X95733037Y18931341D01*
X95745759Y18861470D01*
X95754847Y18790792D01*
X95760299Y18720921D01*
X95762116Y18653473D01*
X95761339Y18637318D01*
X95758279Y18573708D01*
G37*
G36*
X95518174Y19293215D02*
G01*
X95749192Y19246365D01*
X95749192Y19033118D01*
X95635816Y19059774D01*
X95525735Y19086753D01*
X95418950Y19114055D01*
X95315460Y19141680D01*
X95215267Y19169628D01*
X95093750Y19204816D01*
X94975565Y19240105D01*
X94860713Y19275495D01*
X94749192Y19310985D01*
X94749192Y19424071D01*
X94943053Y19424071D01*
X95050485Y19394184D01*
X95150646Y19368336D01*
X95250000Y19346527D01*
X95353393Y19327141D01*
X95353393Y19522617D01*
X95250000Y19502423D01*
X95150646Y19479806D01*
X95050485Y19453958D01*
X94943053Y19424071D01*
X94749192Y19424071D01*
X94749192Y19527464D01*
X94859804Y19561692D01*
X94973546Y19596527D01*
X95090418Y19631967D01*
X95210420Y19668013D01*
X95309774Y19697027D01*
X95413328Y19725913D01*
X95521082Y19754669D01*
X95633037Y19783296D01*
X95749192Y19811793D01*
X95749192Y19605008D01*
X95518174Y19559774D01*
X95518174Y19522617D01*
X95518174Y19293215D01*
G37*
G04 #@! TO.C,kibuzzard-687E961C*
G36*
X97000808Y16630856D02*
G01*
X96836026Y16630856D01*
X96836026Y17073506D01*
X96554927Y17073506D01*
X96554927Y16719709D01*
X96390145Y16719709D01*
X96390145Y17073506D01*
X96165590Y17073506D01*
X96165590Y16666397D01*
X96000808Y16666397D01*
X96000808Y17272213D01*
X97000808Y17272213D01*
X97000808Y16630856D01*
G37*
G36*
X97000808Y20333603D02*
G01*
X96559774Y20333603D01*
X96559774Y20068659D01*
X97000808Y20068659D01*
X97000808Y19869952D01*
X96000808Y19869952D01*
X96000808Y20068659D01*
X96394992Y20068659D01*
X96394992Y20333603D01*
X96000808Y20333603D01*
X96000808Y20532310D01*
X97000808Y20532310D01*
X97000808Y20333603D01*
G37*
G36*
X96632472Y18600162D02*
G01*
X96723950Y18545436D01*
X96814216Y18494346D01*
X96905695Y18448102D01*
X97000808Y18407916D01*
X97000808Y18199515D01*
X96894992Y18245557D01*
X96783522Y18301292D01*
X96676898Y18361066D01*
X96584006Y18419225D01*
X96538368Y18348546D01*
X96475767Y18301292D01*
X96400646Y18274637D01*
X96317447Y18265751D01*
X96238893Y18272415D01*
X96171244Y18292407D01*
X96068659Y18369144D01*
X96033522Y18424071D01*
X96008885Y18488691D01*
X95994346Y18562197D01*
X95989499Y18643780D01*
X96162359Y18643780D01*
X96171648Y18572294D01*
X96199515Y18516155D01*
X96247173Y18479806D01*
X96315832Y18467690D01*
X96428110Y18512924D01*
X96457795Y18572294D01*
X96467690Y18659935D01*
X96467690Y18703554D01*
X96167205Y18703554D01*
X96163166Y18671244D01*
X96162359Y18643780D01*
X95989499Y18643780D01*
X95991115Y18700323D01*
X95995153Y18768174D01*
X96003231Y18838449D01*
X96015347Y18902262D01*
X97000808Y18902262D01*
X97000808Y18703554D01*
X96632472Y18703554D01*
X96632472Y18600162D01*
G37*
G36*
X96621365Y18130856D02*
G01*
X96726979Y18109047D01*
X96816640Y18073910D01*
X96890145Y18026656D01*
X96947496Y17967892D01*
X96988691Y17898223D01*
X97013530Y17818457D01*
X97021809Y17729402D01*
X97017771Y17630654D01*
X97005654Y17547658D01*
X96976575Y17436995D01*
X96477383Y17436995D01*
X96477383Y17635703D01*
X96842488Y17635703D01*
X96847334Y17674475D01*
X96848950Y17713247D01*
X96827746Y17809774D01*
X96764136Y17879645D01*
X96697092Y17911057D01*
X96609047Y17929905D01*
X96500000Y17936187D01*
X96425889Y17932754D01*
X96358643Y17922456D01*
X96248788Y17877221D01*
X96176898Y17797254D01*
X96151050Y17677706D01*
X96168821Y17571082D01*
X96209208Y17483845D01*
X96050889Y17432149D01*
X96031502Y17465267D01*
X96007270Y17521002D01*
X95987076Y17600969D01*
X95978191Y17705170D01*
X95986470Y17792811D01*
X96011309Y17874798D01*
X96052706Y17948708D01*
X96110662Y18012116D01*
X96184774Y18064216D01*
X96274637Y18104200D01*
X96379847Y18129645D01*
X96500000Y18138126D01*
X96621365Y18130856D01*
G37*
G36*
X96618033Y21362177D02*
G01*
X96721729Y21341276D01*
X96811086Y21306442D01*
X96886107Y21257674D01*
X96961497Y21172231D01*
X97006731Y21064531D01*
X97021809Y20934572D01*
X97016357Y20846325D01*
X97000000Y20768982D01*
X96952342Y20655089D01*
X96795638Y20705170D01*
X96831179Y20786753D01*
X96848950Y20915186D01*
X96826131Y21030493D01*
X96757674Y21108239D01*
X96687938Y21140998D01*
X96600431Y21160653D01*
X96495153Y21167205D01*
X96404685Y21161753D01*
X96330372Y21145396D01*
X96224556Y21088853D01*
X96168013Y21009693D01*
X96151050Y20918417D01*
X96168013Y20798061D01*
X96209208Y20708401D01*
X96050889Y20656704D01*
X96031502Y20689822D01*
X96007270Y20743942D01*
X95987076Y20819063D01*
X95978191Y20915186D01*
X95986874Y21009895D01*
X96012924Y21096931D01*
X96055735Y21174475D01*
X96114701Y21240711D01*
X96189216Y21294628D01*
X96278675Y21335218D01*
X96382472Y21360662D01*
X96500000Y21369144D01*
X96618033Y21362177D01*
G37*
G36*
X96769790Y19264136D02*
G01*
X97000808Y19217286D01*
X97000808Y19004039D01*
X96887431Y19030695D01*
X96777351Y19057674D01*
X96670565Y19084976D01*
X96567076Y19112601D01*
X96466882Y19140549D01*
X96345366Y19175737D01*
X96227181Y19211026D01*
X96112328Y19246416D01*
X96000808Y19281906D01*
X96000808Y19394992D01*
X96194669Y19394992D01*
X96302100Y19365105D01*
X96402262Y19339257D01*
X96501616Y19317447D01*
X96605008Y19298061D01*
X96605008Y19493538D01*
X96501616Y19473344D01*
X96402262Y19450727D01*
X96302100Y19424879D01*
X96194669Y19394992D01*
X96000808Y19394992D01*
X96000808Y19498384D01*
X96111420Y19532613D01*
X96225162Y19567447D01*
X96342034Y19602888D01*
X96462036Y19638934D01*
X96561389Y19667948D01*
X96664943Y19696834D01*
X96772698Y19725590D01*
X96884653Y19754216D01*
X97000808Y19782714D01*
X97000808Y19575929D01*
X96769790Y19530695D01*
X96769790Y19493538D01*
X96769790Y19264136D01*
G37*
G04 #@! TO.C,kibuzzard-687E9610*
G36*
X94521809Y16171244D02*
G01*
X94507180Y16065697D01*
X94463292Y15977383D01*
X94390145Y15906300D01*
X94316387Y15865307D01*
X94226777Y15836026D01*
X94121315Y15818457D01*
X94000000Y15812601D01*
X93878685Y15818356D01*
X93773223Y15835622D01*
X93683613Y15864398D01*
X93609855Y15904685D01*
X93536708Y15975408D01*
X93492820Y16064800D01*
X93478191Y16172859D01*
X93651050Y16172859D01*
X93678514Y16090468D01*
X93752827Y16042811D01*
X93863489Y16020194D01*
X93929523Y16015953D01*
X94000000Y16014540D01*
X94070275Y16015953D01*
X94135703Y16020194D01*
X94246365Y16042811D01*
X94321486Y16091276D01*
X94348950Y16172859D01*
X94321486Y16255250D01*
X94247173Y16302908D01*
X94136511Y16325525D01*
X94070477Y16329766D01*
X94000000Y16331179D01*
X93929725Y16329766D01*
X93864297Y16325525D01*
X93753635Y16302908D01*
X93678514Y16255250D01*
X93651050Y16172859D01*
X93478191Y16172859D01*
X93492820Y16277688D01*
X93536708Y16366003D01*
X93609855Y16437803D01*
X93683613Y16479503D01*
X93773223Y16509289D01*
X93878685Y16527161D01*
X94000000Y16533118D01*
X94121315Y16527312D01*
X94226777Y16509895D01*
X94316387Y16480866D01*
X94390145Y16440226D01*
X94463292Y16369054D01*
X94507180Y16279393D01*
X94521591Y16172859D01*
X94521809Y16171244D01*
G37*
G36*
X94521809Y20210016D02*
G01*
X94507180Y20104470D01*
X94463292Y20016155D01*
X94390145Y19945073D01*
X94316387Y19904079D01*
X94226777Y19874798D01*
X94121315Y19857229D01*
X94000000Y19851373D01*
X93878685Y19857128D01*
X93773223Y19874394D01*
X93683613Y19903170D01*
X93609855Y19943457D01*
X93536708Y20014181D01*
X93492820Y20103572D01*
X93478191Y20211632D01*
X93651050Y20211632D01*
X93678514Y20129241D01*
X93752827Y20081583D01*
X93863489Y20058966D01*
X93929523Y20054725D01*
X94000000Y20053312D01*
X94070275Y20054725D01*
X94135703Y20058966D01*
X94246365Y20081583D01*
X94321486Y20130048D01*
X94348950Y20211632D01*
X94321486Y20294023D01*
X94247173Y20341680D01*
X94136511Y20364297D01*
X94070477Y20368538D01*
X94000000Y20369952D01*
X93929725Y20368538D01*
X93864297Y20364297D01*
X93753635Y20341680D01*
X93678514Y20294023D01*
X93651050Y20211632D01*
X93478191Y20211632D01*
X93492820Y20316460D01*
X93536708Y20404775D01*
X93609855Y20476575D01*
X93683613Y20518275D01*
X93773223Y20548061D01*
X93878685Y20565933D01*
X94000000Y20571890D01*
X94121315Y20566084D01*
X94226777Y20548667D01*
X94316387Y20519639D01*
X94390145Y20478998D01*
X94463292Y20407826D01*
X94507180Y20318165D01*
X94521591Y20211632D01*
X94521809Y20210016D01*
G37*
G36*
X94118033Y22180432D02*
G01*
X94221729Y22159532D01*
X94311086Y22124697D01*
X94386107Y22075929D01*
X94461497Y21990486D01*
X94506731Y21882786D01*
X94521809Y21752827D01*
X94516357Y21664580D01*
X94500000Y21587237D01*
X94452342Y21473344D01*
X94295638Y21523425D01*
X94331179Y21605008D01*
X94348950Y21733441D01*
X94326131Y21848748D01*
X94257674Y21926494D01*
X94187938Y21959253D01*
X94100431Y21978909D01*
X93995153Y21985460D01*
X93904685Y21980008D01*
X93830372Y21963651D01*
X93724556Y21907108D01*
X93668013Y21827948D01*
X93651050Y21736672D01*
X93668013Y21616317D01*
X93709208Y21526656D01*
X93550889Y21474960D01*
X93531502Y21508078D01*
X93507270Y21562197D01*
X93487076Y21637318D01*
X93478191Y21733441D01*
X93486874Y21828150D01*
X93512924Y21915186D01*
X93555735Y21992730D01*
X93614701Y22058966D01*
X93689216Y22112884D01*
X93778675Y22153473D01*
X93882472Y22178918D01*
X94000000Y22187399D01*
X94118033Y22180432D01*
G37*
G36*
X94495153Y19631664D02*
G01*
X94515145Y19544830D01*
X94521809Y19432956D01*
X94513283Y19319602D01*
X94487704Y19227248D01*
X94445073Y19155897D01*
X94352383Y19087439D01*
X94227787Y19064620D01*
X94152464Y19071486D01*
X94091276Y19092084D01*
X94000808Y19162359D01*
X93942649Y19256058D01*
X93903069Y19353796D01*
X93878837Y19415994D01*
X93848950Y19472536D01*
X93810178Y19513732D01*
X93759289Y19529887D01*
X93695566Y19512296D01*
X93657333Y19459523D01*
X93644588Y19371567D01*
X93660743Y19257674D01*
X93699515Y19168013D01*
X93546042Y19109855D01*
X93499192Y19225363D01*
X93483441Y19299879D01*
X93478191Y19386107D01*
X93486986Y19485101D01*
X93513373Y19568839D01*
X93557351Y19637318D01*
X93651858Y19705775D01*
X93777060Y19728595D01*
X93895800Y19702746D01*
X93975767Y19637318D01*
X94029079Y19549273D01*
X94066236Y19455574D01*
X94094507Y19387722D01*
X94128433Y19326333D01*
X94171244Y19281099D01*
X94226171Y19263328D01*
X94273829Y19270598D01*
X94315832Y19297254D01*
X94344911Y19349758D01*
X94355412Y19432956D01*
X94349758Y19513530D01*
X94332795Y19580775D01*
X94284330Y19684976D01*
X94445880Y19743134D01*
X94495153Y19631664D01*
G37*
G36*
X93665590Y17080775D02*
G01*
X94500808Y17080775D01*
X94500808Y16880452D01*
X93665590Y16880452D01*
X93665590Y16617124D01*
X93500808Y16617124D01*
X93500808Y17344103D01*
X93665590Y17344103D01*
X93665590Y17080775D01*
G37*
G36*
X94500808Y18256866D02*
G01*
X94336026Y18256866D01*
X94336026Y18699515D01*
X94054927Y18699515D01*
X94054927Y18345719D01*
X93890145Y18345719D01*
X93890145Y18699515D01*
X93665590Y18699515D01*
X93665590Y18292407D01*
X93500808Y18292407D01*
X93500808Y18898223D01*
X94500808Y18898223D01*
X94500808Y18256866D01*
G37*
G36*
X94500808Y20680129D02*
G01*
X94336026Y20680129D01*
X94336026Y21108239D01*
X93500808Y21108239D01*
X93500808Y21308562D01*
X94500808Y21308562D01*
X94500808Y20680129D01*
G37*
D14*
G04 #@! TO.C,J1005*
X43640000Y66240000D02*
X43640000Y61990000D01*
X43640000Y61990000D02*
X44660000Y61990000D01*
X44660000Y63590000D02*
X45940000Y63590000D01*
X44660000Y61990000D02*
X44660000Y63590000D01*
X45360000Y69810000D02*
X50040000Y69810000D01*
X45940000Y63590000D02*
X45940000Y60700000D01*
X50740000Y63590000D02*
X49460000Y63590000D01*
X50740000Y61990000D02*
X50740000Y63590000D01*
X51760000Y66240000D02*
X51760000Y61990000D01*
X51760000Y61990000D02*
X50740000Y61990000D01*
D10*
G04 #@! TO.C,kibuzzard-684C4F97*
G36*
X62354766Y67333053D02*
G01*
X62340913Y67210355D01*
X62299354Y67127237D01*
X62142165Y67063910D01*
X62046042Y67080872D01*
X61979321Y67131761D01*
X61940307Y67210355D01*
X61927302Y67310436D01*
X61928433Y67348885D01*
X61934087Y67394120D01*
X62354766Y67394120D01*
X62354766Y67333053D01*
G37*
G36*
X62354766Y66202197D02*
G01*
X62340913Y66079499D01*
X62299354Y65996381D01*
X62142165Y65933053D01*
X62046042Y65950016D01*
X61979321Y66000905D01*
X61940307Y66079499D01*
X61927302Y66179580D01*
X61928433Y66218029D01*
X61934087Y66263263D01*
X62354766Y66263263D01*
X62354766Y66202197D01*
G37*
G36*
X63224771Y68364394D02*
G01*
X63224771Y66688465D01*
X63224771Y65557609D01*
X63224771Y65390242D01*
X63224771Y63598966D01*
X63224771Y62565363D01*
X63224771Y61454863D01*
X63224771Y61099774D01*
X63224771Y60911298D01*
X61575229Y60416435D01*
X61575229Y60911298D01*
X61575229Y61099774D01*
X61575229Y61694604D01*
X61999677Y61694604D01*
X61999677Y61454863D01*
X62393215Y61454863D01*
X62393215Y61099774D01*
X62621648Y61099774D01*
X62621648Y61454863D01*
X63015186Y61454863D01*
X63015186Y61694604D01*
X62621648Y61694604D01*
X62621648Y62049693D01*
X62393215Y62049693D01*
X62393215Y61694604D01*
X61999677Y61694604D01*
X61575229Y61694604D01*
X61575229Y63214475D01*
X61701131Y63214475D01*
X61701131Y62196704D01*
X61931826Y62196704D01*
X61931826Y62565363D01*
X63101131Y62565363D01*
X63101131Y62845816D01*
X61931826Y62845816D01*
X61931826Y63214475D01*
X61701131Y63214475D01*
X61575229Y63214475D01*
X61575229Y64297835D01*
X61701131Y64297835D01*
X61701131Y64073926D01*
X61804887Y64010598D01*
X61917124Y63947270D01*
X62033320Y63884790D01*
X62148950Y63824006D01*
X62262601Y63766333D01*
X62372859Y63713183D01*
X62474637Y63665969D01*
X62562843Y63626107D01*
X61701131Y63626107D01*
X61701131Y63375057D01*
X63101131Y63375057D01*
X63101131Y63598966D01*
X62945952Y63664179D01*
X62791025Y63733161D01*
X62636349Y63805913D01*
X62481673Y63882434D01*
X62326746Y63962725D01*
X62171567Y64046785D01*
X63101131Y64046785D01*
X63101131Y64297835D01*
X61701131Y64297835D01*
X61575229Y64297835D01*
X61575229Y65390242D01*
X61701131Y65390242D01*
X61701131Y64542100D01*
X61931826Y64542100D01*
X61931826Y65112052D01*
X62246204Y65112052D01*
X62246204Y64616737D01*
X62476898Y64616737D01*
X62476898Y65112052D01*
X62870436Y65112052D01*
X62870436Y64492342D01*
X63101131Y64492342D01*
X63101131Y65390242D01*
X61701131Y65390242D01*
X61575229Y65390242D01*
X61575229Y66179580D01*
X61685299Y66179580D01*
X61692084Y66065363D01*
X61712439Y65962456D01*
X61746931Y65871987D01*
X61796123Y65795089D01*
X61939742Y65687658D01*
X62034451Y65659669D01*
X62144426Y65650339D01*
X62260905Y65662779D01*
X62366074Y65700097D01*
X62453716Y65766252D01*
X62517609Y65865202D01*
X62647658Y65783780D01*
X62796931Y65700097D01*
X62952989Y65622068D01*
X63101131Y65557609D01*
X63101131Y65849370D01*
X62967973Y65905630D01*
X62839903Y65970372D01*
X62713530Y66041898D01*
X62585460Y66118514D01*
X62585460Y66263263D01*
X63101131Y66263263D01*
X63101131Y66541454D01*
X61721486Y66541454D01*
X61704523Y66452116D01*
X61693215Y66353732D01*
X61687561Y66258740D01*
X61685299Y66179580D01*
X61575229Y66179580D01*
X61575229Y67310436D01*
X61685299Y67310436D01*
X61692084Y67196220D01*
X61712439Y67093312D01*
X61746931Y67002843D01*
X61796123Y66925945D01*
X61939742Y66818514D01*
X62034451Y66790525D01*
X62144426Y66781195D01*
X62260905Y66793635D01*
X62366074Y66830953D01*
X62453716Y66897108D01*
X62517609Y66996058D01*
X62647658Y66914637D01*
X62796931Y66830953D01*
X62952989Y66752924D01*
X63101131Y66688465D01*
X63101131Y66980226D01*
X62967973Y67036486D01*
X62839903Y67101228D01*
X62713530Y67172754D01*
X62585460Y67249370D01*
X62585460Y67394120D01*
X63101131Y67394120D01*
X63101131Y67672310D01*
X61721486Y67672310D01*
X61704523Y67582973D01*
X61693215Y67484588D01*
X61687561Y67389596D01*
X61685299Y67310436D01*
X61575229Y67310436D01*
X61575229Y68837092D01*
X61701131Y68837092D01*
X61701131Y68556640D01*
X62576414Y68556640D01*
X62724556Y68547593D01*
X62820679Y68517060D01*
X62872698Y68457124D01*
X62888530Y68359871D01*
X62872698Y68262617D01*
X62819548Y68201551D01*
X62722294Y68169887D01*
X62574152Y68160840D01*
X61701131Y68160840D01*
X61701131Y67882649D01*
X62594507Y67882649D01*
X62710985Y67888304D01*
X62816155Y67905267D01*
X62908320Y67936365D01*
X62985784Y67984426D01*
X63047698Y68050016D01*
X63093215Y68133700D01*
X63121204Y68237738D01*
X63130533Y68364394D01*
X63121204Y68489071D01*
X63093215Y68591696D01*
X62985784Y68737577D01*
X62908320Y68783942D01*
X62816155Y68814475D01*
X62710985Y68831438D01*
X62594507Y68837092D01*
X61701131Y68837092D01*
X61575229Y68837092D01*
X61575229Y69359548D01*
X61669467Y69359548D01*
X61681906Y69224976D01*
X61710178Y69119806D01*
X61744103Y69044039D01*
X61771244Y68997674D01*
X61992892Y69070048D01*
X61935218Y69195574D01*
X61911470Y69364071D01*
X61935218Y69491858D01*
X62014378Y69602682D01*
X62162520Y69681842D01*
X62266559Y69704742D01*
X62393215Y69712375D01*
X62540603Y69703202D01*
X62663113Y69675685D01*
X62760743Y69629822D01*
X62856583Y69520977D01*
X62888530Y69359548D01*
X62863651Y69179742D01*
X62813893Y69065525D01*
X63033279Y68995412D01*
X63100000Y69154863D01*
X63122900Y69263142D01*
X63130533Y69386688D01*
X63109424Y69568630D01*
X63046096Y69719411D01*
X62940549Y69839031D01*
X62835521Y69907306D01*
X62710420Y69956074D01*
X62565246Y69985335D01*
X62400000Y69995089D01*
X62235460Y69983215D01*
X62090145Y69947593D01*
X61964903Y69890767D01*
X61860582Y69815283D01*
X61778029Y69722553D01*
X61718094Y69613990D01*
X61681624Y69492141D01*
X61669467Y69359548D01*
X61575229Y69359548D01*
X61575229Y69995089D01*
X61575229Y70183565D01*
X63224771Y70183565D01*
X63224771Y69995089D01*
X63224771Y69386688D01*
X63224771Y68364394D01*
G37*
G04 #@! TO.C,kibuzzard-67681CCF*
G36*
X86159531Y56004039D02*
G01*
X86224960Y55996769D01*
X86224960Y55652666D01*
X86108643Y55652666D01*
X85936591Y55702342D01*
X85878433Y55839257D01*
X85895396Y55925283D01*
X85941438Y55976171D01*
X86009289Y56000404D01*
X86089257Y56006462D01*
X86159531Y56004039D01*
G37*
G36*
X86224960Y54998384D02*
G01*
X86155897Y54991115D01*
X86081987Y54988691D01*
X85982633Y54997173D01*
X85896607Y55028675D01*
X85834814Y55094103D01*
X85810582Y55201939D01*
X85879645Y55358239D01*
X86065024Y55405493D01*
X86224960Y55405493D01*
X86224960Y54998384D01*
G37*
G36*
X89155233Y56366704D02*
G01*
X89321006Y56316417D01*
X89473783Y56234756D01*
X89607694Y56124858D01*
X89717591Y55990948D01*
X89799252Y55838171D01*
X89849539Y55672398D01*
X89866519Y55500000D01*
X89849539Y55327602D01*
X89799252Y55161829D01*
X89717591Y55009052D01*
X89607694Y54875142D01*
X89473783Y54765244D01*
X89321006Y54683583D01*
X89155233Y54633296D01*
X88982835Y54616317D01*
X88982633Y54616317D01*
X88476171Y54616317D01*
X87303312Y54616317D01*
X86106220Y54616317D01*
X85517367Y54616317D01*
X85517165Y54616317D01*
X85344767Y54633296D01*
X85178994Y54683583D01*
X85026217Y54765244D01*
X84892306Y54875142D01*
X84782409Y55009052D01*
X84700748Y55161829D01*
X84688581Y55201939D01*
X85517367Y55201939D01*
X85528877Y55077443D01*
X85563409Y54975363D01*
X85688207Y54829968D01*
X85774233Y54783320D01*
X85874798Y54752423D01*
X85986571Y54735158D01*
X86106220Y54729402D01*
X86207391Y54732128D01*
X86312197Y54740307D01*
X86418215Y54753938D01*
X86523021Y54773021D01*
X86523021Y55158320D01*
X86750808Y55158320D01*
X86785036Y54971426D01*
X86887722Y54832391D01*
X86994750Y54768444D01*
X87133279Y54730075D01*
X87303312Y54717286D01*
X87471123Y54727282D01*
X87601373Y54757270D01*
X87768578Y54831179D01*
X87681341Y55073506D01*
X87525040Y55000808D01*
X87424172Y54975363D01*
X87303312Y54966882D01*
X87178514Y54982633D01*
X87099758Y55026252D01*
X87059774Y55089257D01*
X87048869Y55160743D01*
X87075525Y55243134D01*
X87126733Y55291599D01*
X87960016Y55291599D01*
X87966074Y55166801D01*
X87984249Y55054120D01*
X88017569Y54955372D01*
X88069063Y54872375D01*
X88139338Y54806038D01*
X88228998Y54757270D01*
X88340468Y54727282D01*
X88476171Y54717286D01*
X88609754Y54727282D01*
X88719709Y54757270D01*
X88876010Y54872375D01*
X88925687Y54955372D01*
X88958401Y55054120D01*
X88976575Y55166801D01*
X88982633Y55291599D01*
X88982633Y56248788D01*
X88682149Y56248788D01*
X88682149Y55310985D01*
X88672456Y55152262D01*
X88639741Y55049273D01*
X88575525Y54993538D01*
X88471325Y54976575D01*
X88367124Y54993538D01*
X88301696Y55050485D01*
X88267771Y55154685D01*
X88258078Y55313409D01*
X88258078Y56248788D01*
X87960016Y56248788D01*
X87960016Y55291599D01*
X87126733Y55291599D01*
X87143376Y55307351D01*
X87235460Y55358239D01*
X87337237Y55400646D01*
X87477787Y55456381D01*
X87609855Y55536349D01*
X87707997Y55656300D01*
X87746769Y55834410D01*
X87712540Y56022213D01*
X87609855Y56163974D01*
X87507135Y56229941D01*
X87381529Y56269521D01*
X87233037Y56282714D01*
X87103695Y56274838D01*
X86991922Y56251212D01*
X86818659Y56180937D01*
X86905897Y55950727D01*
X87040388Y56008885D01*
X87211228Y56033118D01*
X87343161Y56014001D01*
X87422321Y55956651D01*
X87448708Y55861066D01*
X87424475Y55784733D01*
X87362682Y55726575D01*
X87277868Y55681745D01*
X87184572Y55645396D01*
X87037964Y55586026D01*
X86897415Y55498788D01*
X86792003Y55363086D01*
X86761107Y55271305D01*
X86750808Y55158320D01*
X86523021Y55158320D01*
X86523021Y56229402D01*
X86336430Y56254847D01*
X86135299Y56265751D01*
X85981422Y56256967D01*
X85859047Y56230614D01*
X85691842Y56138530D01*
X85609451Y56011309D01*
X85587641Y55870759D01*
X85600666Y55770194D01*
X85639741Y55681745D01*
X85779079Y55550889D01*
X85650949Y55485460D01*
X85571890Y55400646D01*
X85530998Y55303716D01*
X85517367Y55201939D01*
X84688581Y55201939D01*
X84650461Y55327602D01*
X84633481Y55500000D01*
X84650461Y55672398D01*
X84700748Y55838171D01*
X84782409Y55990948D01*
X84892306Y56124858D01*
X85026217Y56234756D01*
X85178994Y56316417D01*
X85344767Y56366704D01*
X85517165Y56383683D01*
X85517367Y56383683D01*
X88982633Y56383683D01*
X88982835Y56383683D01*
X89155233Y56366704D01*
G37*
D14*
G04 #@! TO.C,JP801*
X53850000Y25050000D02*
X53850000Y24450000D01*
X54550000Y23750000D02*
X55950000Y23750000D01*
X55950000Y25750000D02*
X54550000Y25750000D01*
X56650000Y24450000D02*
X56650000Y25050000D01*
X53850000Y25050000D02*
G75*
G02*
X54550000Y25750000I699999J1D01*
G01*
X54550000Y23750000D02*
G75*
G02*
X53850000Y24450000I-1J699999D01*
G01*
X55950000Y25750000D02*
G75*
G02*
X56650000Y25050000I0J-700000D01*
G01*
X56650000Y24450000D02*
G75*
G02*
X55950000Y23750000I-700000J0D01*
G01*
G04 #@! TO.C,JP701*
X91000000Y19300000D02*
X91000000Y17900000D01*
X91700000Y17200000D02*
X92300000Y17200000D01*
X92300000Y20000000D02*
X91700000Y20000000D01*
X93000000Y17900000D02*
X93000000Y19300000D01*
X91000000Y19300000D02*
G75*
G02*
X91700000Y20000000I700000J0D01*
G01*
X91700000Y17200000D02*
G75*
G02*
X91000000Y17900000I-1J699999D01*
G01*
X92300000Y20000000D02*
G75*
G02*
X93000000Y19300000I0J-700000D01*
G01*
X93000000Y17900000D02*
G75*
G02*
X92300000Y17200000I-699999J-1D01*
G01*
D10*
G04 #@! TO.C,kibuzzard-67955FDB*
G36*
X54904292Y9356009D02*
G01*
X55060944Y9356009D01*
X55329185Y9356009D01*
X55329185Y7943991D01*
X55060944Y7943991D01*
X54239056Y7943991D01*
X53970815Y7943991D01*
X53970815Y8647854D01*
X54239056Y8647854D01*
X54251931Y8551288D01*
X54292704Y8499785D01*
X54395708Y8480472D01*
X54906438Y8480472D01*
X55001931Y8498176D01*
X55048069Y8551288D01*
X55060944Y8650000D01*
X55049142Y8747639D01*
X55011588Y8800215D01*
X54904292Y8819528D01*
X54393562Y8819528D01*
X54297532Y8801288D01*
X54249785Y8746567D01*
X54239056Y8647854D01*
X53970815Y8647854D01*
X53970815Y9356009D01*
X54239056Y9356009D01*
X54904292Y9356009D01*
G37*
D14*
G04 #@! TO.C,JP901*
X7750000Y4900000D02*
X7750000Y2100000D01*
X8450000Y1450000D02*
X9050000Y1450000D01*
X9050000Y5550000D02*
X8450000Y5550000D01*
X9750000Y2100000D02*
X9750000Y4900000D01*
X9950000Y4700000D02*
X10250000Y5000000D01*
X9950000Y4700000D02*
X10250000Y4400000D01*
X10250000Y5000000D02*
X10250000Y4400000D01*
X7750000Y4850000D02*
G75*
G02*
X8450000Y5550000I699999J1D01*
G01*
X8450000Y1450000D02*
G75*
G02*
X7750000Y2150000I0J700000D01*
G01*
X9050000Y5550000D02*
G75*
G02*
X9750000Y4850000I1J-699999D01*
G01*
X9750000Y2150000D02*
G75*
G02*
X9050000Y1450000I-700000J0D01*
G01*
G04 #@! TO.C,J901*
X48190000Y9560000D02*
X49210000Y9560000D01*
X48190000Y5310000D02*
X48190000Y9560000D01*
X49210000Y9560000D02*
X49210000Y7960000D01*
X49210000Y7960000D02*
X50490000Y7960000D01*
X54010000Y7960000D02*
X54010000Y10850000D01*
X54590000Y1740000D02*
X49910000Y1740000D01*
X55290000Y9560000D02*
X55290000Y7960000D01*
X55290000Y7960000D02*
X54010000Y7960000D01*
X56310000Y9560000D02*
X55290000Y9560000D01*
X56310000Y5310000D02*
X56310000Y9560000D01*
D10*
G04 #@! TO.C,kibuzzard-679196AC*
G36*
X90500808Y21544265D02*
G01*
X90059774Y21544265D01*
X90059774Y21279321D01*
X90500808Y21279321D01*
X90500808Y21080614D01*
X89500808Y21080614D01*
X89500808Y21279321D01*
X89894992Y21279321D01*
X89894992Y21544265D01*
X89500808Y21544265D01*
X89500808Y21742973D01*
X90500808Y21742973D01*
X90500808Y21544265D01*
G37*
G36*
X90500808Y17841519D02*
G01*
X90336026Y17841519D01*
X90336026Y18284168D01*
X90054927Y18284168D01*
X90054927Y17930372D01*
X89890145Y17930372D01*
X89890145Y18284168D01*
X89665590Y18284168D01*
X89665590Y17877060D01*
X89500808Y17877060D01*
X89500808Y18482876D01*
X90500808Y18482876D01*
X90500808Y17841519D01*
G37*
G36*
X90500808Y15418255D02*
G01*
X90336026Y15418255D01*
X90336026Y15860905D01*
X90054927Y15860905D01*
X90054927Y15507108D01*
X89890145Y15507108D01*
X89890145Y15860905D01*
X89665590Y15860905D01*
X89665590Y15453796D01*
X89500808Y15453796D01*
X89500808Y16059612D01*
X90500808Y16059612D01*
X90500808Y15418255D01*
G37*
G36*
X90500808Y15100000D02*
G01*
X89836834Y15100000D01*
X89947675Y15039957D01*
X90058338Y14982606D01*
X90168821Y14927948D01*
X90279304Y14875983D01*
X90389966Y14826710D01*
X90500808Y14780129D01*
X90500808Y14620194D01*
X89500808Y14620194D01*
X89500808Y14799515D01*
X90116317Y14799515D01*
X90053312Y14827989D01*
X89980614Y14861712D01*
X89901858Y14899677D01*
X89820679Y14940872D01*
X89738086Y14984289D01*
X89655089Y15028918D01*
X89574919Y15074152D01*
X89500808Y15119386D01*
X89500808Y15279321D01*
X90500808Y15279321D01*
X90500808Y15100000D01*
G37*
G36*
X90269790Y20474798D02*
G01*
X90500808Y20427948D01*
X90500808Y20214701D01*
X90387431Y20241357D01*
X90277351Y20268336D01*
X90170565Y20295638D01*
X90067076Y20323263D01*
X89966882Y20351212D01*
X89845366Y20386399D01*
X89727181Y20421688D01*
X89612328Y20457078D01*
X89500808Y20492569D01*
X89500808Y20605654D01*
X89694669Y20605654D01*
X89802100Y20575767D01*
X89902262Y20549919D01*
X90001616Y20528110D01*
X90105008Y20508724D01*
X90105008Y20704200D01*
X90001616Y20684006D01*
X89902262Y20661389D01*
X89802100Y20635541D01*
X89694669Y20605654D01*
X89500808Y20605654D01*
X89500808Y20709047D01*
X89611420Y20743275D01*
X89725162Y20778110D01*
X89842034Y20813550D01*
X89962036Y20849596D01*
X90061389Y20878611D01*
X90164943Y20907496D01*
X90272698Y20936252D01*
X90384653Y20964879D01*
X90500808Y20993376D01*
X90500808Y20786591D01*
X90269790Y20741357D01*
X90269790Y20704200D01*
X90269790Y20474798D01*
G37*
G36*
X90118033Y22572839D02*
G01*
X90221729Y22551939D01*
X90311086Y22517104D01*
X90386107Y22468336D01*
X90461497Y22382894D01*
X90506731Y22275193D01*
X90521809Y22145234D01*
X90516357Y22056987D01*
X90500000Y21979645D01*
X90452342Y21865751D01*
X90295638Y21915832D01*
X90331179Y21997415D01*
X90348950Y22125848D01*
X90326131Y22241155D01*
X90257674Y22318901D01*
X90187938Y22351660D01*
X90100431Y22371316D01*
X89995153Y22377868D01*
X89904685Y22372415D01*
X89830372Y22356058D01*
X89724556Y22299515D01*
X89668013Y22220355D01*
X89651050Y22129079D01*
X89668013Y22008724D01*
X89709208Y21919063D01*
X89550889Y21867367D01*
X89531502Y21900485D01*
X89507270Y21954604D01*
X89487076Y22029725D01*
X89478191Y22125848D01*
X89486874Y22220557D01*
X89512924Y22307593D01*
X89555735Y22385137D01*
X89614701Y22451373D01*
X89689216Y22505291D01*
X89778675Y22545880D01*
X89882472Y22571325D01*
X90000000Y22579806D01*
X90118033Y22572839D01*
G37*
G36*
X90132472Y19810824D02*
G01*
X90223950Y19756099D01*
X90314216Y19705008D01*
X90405695Y19658764D01*
X90500808Y19618578D01*
X90500808Y19410178D01*
X90394992Y19456220D01*
X90283522Y19511955D01*
X90176898Y19571729D01*
X90084006Y19629887D01*
X90038368Y19559208D01*
X89975767Y19511955D01*
X89900646Y19485299D01*
X89817447Y19476414D01*
X89738893Y19483078D01*
X89671244Y19503069D01*
X89568659Y19579806D01*
X89533522Y19634733D01*
X89508885Y19699354D01*
X89494346Y19772859D01*
X89489499Y19854443D01*
X89662359Y19854443D01*
X89671648Y19782956D01*
X89699515Y19726817D01*
X89747173Y19690468D01*
X89815832Y19678352D01*
X89928110Y19723586D01*
X89957795Y19782956D01*
X89967690Y19870598D01*
X89967690Y19914216D01*
X89667205Y19914216D01*
X89663166Y19881906D01*
X89662359Y19854443D01*
X89489499Y19854443D01*
X89491115Y19910985D01*
X89495153Y19978837D01*
X89503231Y20049111D01*
X89515347Y20112924D01*
X90500808Y20112924D01*
X90500808Y19914216D01*
X90132472Y19914216D01*
X90132472Y19810824D01*
G37*
G36*
X90132472Y17387561D02*
G01*
X90223950Y17332835D01*
X90314216Y17281745D01*
X90405695Y17235501D01*
X90500808Y17195315D01*
X90500808Y16986914D01*
X90394992Y17032956D01*
X90283522Y17088691D01*
X90176898Y17148465D01*
X90084006Y17206624D01*
X90038368Y17135945D01*
X89975767Y17088691D01*
X89900646Y17062036D01*
X89817447Y17053150D01*
X89738893Y17059814D01*
X89671244Y17079806D01*
X89568659Y17156543D01*
X89533522Y17211470D01*
X89508885Y17276090D01*
X89494346Y17349596D01*
X89489499Y17431179D01*
X89662359Y17431179D01*
X89671648Y17359693D01*
X89699515Y17303554D01*
X89747173Y17267205D01*
X89815832Y17255089D01*
X89928110Y17300323D01*
X89957795Y17359693D01*
X89967690Y17447334D01*
X89967690Y17490953D01*
X89667205Y17490953D01*
X89663166Y17458643D01*
X89662359Y17431179D01*
X89489499Y17431179D01*
X89491115Y17487722D01*
X89495153Y17555574D01*
X89503231Y17625848D01*
X89515347Y17689661D01*
X90500808Y17689661D01*
X90500808Y17490953D01*
X90132472Y17490953D01*
X90132472Y17387561D01*
G37*
G36*
X90121365Y19341519D02*
G01*
X90226979Y19319709D01*
X90316640Y19284572D01*
X90390145Y19237318D01*
X90447496Y19178554D01*
X90488691Y19108885D01*
X90513530Y19029120D01*
X90521809Y18940065D01*
X90517771Y18841317D01*
X90505654Y18758320D01*
X90476575Y18647658D01*
X89977383Y18647658D01*
X89977383Y18846365D01*
X90342488Y18846365D01*
X90347334Y18885137D01*
X90348950Y18923910D01*
X90327746Y19020436D01*
X90264136Y19090307D01*
X90197092Y19121720D01*
X90109047Y19140567D01*
X90000000Y19146850D01*
X89925889Y19143417D01*
X89858643Y19133118D01*
X89748788Y19087884D01*
X89676898Y19007916D01*
X89651050Y18888368D01*
X89668821Y18781745D01*
X89709208Y18694507D01*
X89550889Y18642811D01*
X89531502Y18675929D01*
X89507270Y18731664D01*
X89487076Y18811632D01*
X89478191Y18915832D01*
X89486470Y19003473D01*
X89511309Y19085460D01*
X89552706Y19159370D01*
X89610662Y19222779D01*
X89684774Y19274879D01*
X89774637Y19314863D01*
X89879847Y19340307D01*
X90000000Y19348788D01*
X90121365Y19341519D01*
G37*
D14*
G04 #@! TO.C,JP401*
X85750000Y53750000D02*
X85750000Y53150000D01*
X86450000Y52450000D02*
X87850000Y52450000D01*
X87850000Y54450000D02*
X86450000Y54450000D01*
X88550000Y53150000D02*
X88550000Y53750000D01*
X85750000Y53750000D02*
G75*
G02*
X86450000Y54450000I699999J1D01*
G01*
X86450000Y52450000D02*
G75*
G02*
X85750000Y53150000I-1J699999D01*
G01*
X87850000Y54450000D02*
G75*
G02*
X88550000Y53750000I0J-700000D01*
G01*
X88550000Y53150000D02*
G75*
G02*
X87850000Y52450000I-700000J0D01*
G01*
G04 #@! TO.C,JP802*
X59750000Y50300000D02*
X59750000Y49700000D01*
X60450000Y49000000D02*
X61850000Y49000000D01*
X61850000Y51000000D02*
X60450000Y51000000D01*
X62550000Y49700000D02*
X62550000Y50300000D01*
X59750000Y50300000D02*
G75*
G02*
X60450000Y51000000I699999J1D01*
G01*
X60450000Y49000000D02*
G75*
G02*
X59750000Y49700000I-1J699999D01*
G01*
X61850000Y51000000D02*
G75*
G02*
X62550000Y50300000I0J-700000D01*
G01*
X62550000Y49700000D02*
G75*
G02*
X61850000Y49000000I-700000J0D01*
G01*
D10*
G04 #@! TO.C,kibuzzard-6874E9F8*
G36*
X57442892Y3502116D02*
G01*
X57337237Y3429418D01*
X57225767Y3360598D01*
X57115267Y3302439D01*
X57115267Y3573845D01*
X57537884Y3573845D01*
X57442892Y3502116D01*
G37*
G36*
X57235460Y7474330D02*
G01*
X57354685Y7448158D01*
X57474879Y7417141D01*
X57603796Y7381276D01*
X57474879Y7345412D01*
X57354685Y7314394D01*
X57235460Y7287254D01*
X57111389Y7263021D01*
X57111389Y7497593D01*
X57235460Y7474330D01*
G37*
G36*
X57944346Y9071099D02*
G01*
X57944346Y8747997D01*
X57944346Y2135396D01*
X57944346Y1812294D01*
X56555654Y1812294D01*
X56555654Y2135396D01*
X56555654Y2164475D01*
X56636430Y2164475D01*
X56684895Y2159628D01*
X56725606Y2160598D01*
X56818659Y2169564D01*
X56903958Y2196462D01*
X56982229Y2237173D01*
X57054200Y2287577D01*
X57120598Y2344766D01*
X57182149Y2405832D01*
X57240065Y2466898D01*
X57295557Y2524087D01*
X57400242Y2615202D01*
X57502989Y2651066D01*
X57616397Y2606478D01*
X57656139Y2494039D01*
X57628998Y2375784D01*
X57537884Y2253651D01*
X57704604Y2135396D01*
X57775363Y2218998D01*
X57824798Y2314717D01*
X57853877Y2416252D01*
X57863570Y2517302D01*
X57842246Y2658821D01*
X57778271Y2779015D01*
X57670679Y2862375D01*
X57520436Y2893393D01*
X57401212Y2870129D01*
X57289742Y2808094D01*
X57185057Y2720856D01*
X57088126Y2621987D01*
X57032876Y2563829D01*
X56966963Y2501793D01*
X56898142Y2452359D01*
X56834168Y2432003D01*
X56834168Y2947674D01*
X56636430Y2947674D01*
X56636430Y2164475D01*
X56555654Y2164475D01*
X56555654Y2947674D01*
X56555654Y3573845D01*
X56636430Y3573845D01*
X56919467Y3573845D01*
X56919467Y3073683D01*
X57093942Y3073683D01*
X57174637Y3115848D01*
X57265509Y3168675D01*
X57362682Y3229742D01*
X57462278Y3296624D01*
X57562359Y3368352D01*
X57660985Y3443958D01*
X57753796Y3521502D01*
X57836430Y3599047D01*
X57836430Y3812294D01*
X57115267Y3812294D01*
X57115267Y3942181D01*
X56919467Y3942181D01*
X56919467Y3812294D01*
X56636430Y3812294D01*
X56636430Y3573845D01*
X56555654Y3573845D01*
X56555654Y3812294D01*
X56555654Y4351228D01*
X56555654Y4597431D01*
X56636430Y4597431D01*
X56636430Y4351228D01*
X56778918Y4303247D01*
X56938853Y4252359D01*
X57051185Y4218110D01*
X57163301Y4185153D01*
X57275202Y4153489D01*
X57384949Y4123549D01*
X57490603Y4095762D01*
X57592165Y4070129D01*
X57727868Y4038142D01*
X57836430Y4015848D01*
X57836430Y4267868D01*
X57735864Y4282407D01*
X57620275Y4302763D01*
X57495234Y4327237D01*
X57366317Y4354136D01*
X57236430Y4383215D01*
X57108481Y4414233D01*
X56988045Y4445977D01*
X56880695Y4477237D01*
X56986591Y4508255D01*
X57106543Y4539273D01*
X57234491Y4569321D01*
X57364378Y4597431D01*
X57493538Y4623603D01*
X57619305Y4647835D01*
X57735622Y4669160D01*
X57836430Y4686607D01*
X57836430Y4936688D01*
X57713328Y4910759D01*
X57576656Y4879499D01*
X57429564Y4843150D01*
X57275202Y4801955D01*
X57169225Y4771906D01*
X57061955Y4739919D01*
X56953393Y4705994D01*
X56845369Y4670668D01*
X56739715Y4634480D01*
X56636430Y4597431D01*
X56555654Y4597431D01*
X56555654Y6051389D01*
X56555654Y6289838D01*
X56636430Y6289838D01*
X56636430Y6051389D01*
X57836430Y6051389D01*
X57836430Y6786123D01*
X57638691Y6786123D01*
X57638691Y6289838D01*
X57347900Y6289838D01*
X57347900Y6724087D01*
X57150162Y6724087D01*
X57150162Y6289838D01*
X56636430Y6289838D01*
X56555654Y6289838D01*
X56555654Y7164152D01*
X56636430Y7164152D01*
X56636430Y6916010D01*
X56775816Y6950207D01*
X56910162Y6984559D01*
X57039467Y7019066D01*
X57163732Y7053729D01*
X57282956Y7088546D01*
X57426959Y7131801D01*
X57567205Y7174330D01*
X57703695Y7216131D01*
X57836430Y7257205D01*
X57836430Y7516979D01*
X57702605Y7559568D01*
X57564782Y7602036D01*
X57422960Y7644382D01*
X57277141Y7686607D01*
X57156908Y7720145D01*
X57032721Y7753296D01*
X56904578Y7786058D01*
X56772481Y7818433D01*
X56636430Y7850420D01*
X56636430Y7594523D01*
X56913651Y7538304D01*
X56913651Y7218433D01*
X56636430Y7164152D01*
X56555654Y7164152D01*
X56555654Y7594523D01*
X56555654Y8172229D01*
X56636430Y8172229D01*
X56636430Y7957044D01*
X57836430Y7957044D01*
X57836430Y8148966D01*
X57747496Y8203247D01*
X57651292Y8257528D01*
X57551696Y8311082D01*
X57452585Y8363183D01*
X57355170Y8412617D01*
X57260662Y8458174D01*
X57173425Y8498643D01*
X57097819Y8532811D01*
X57836430Y8532811D01*
X57836430Y8747997D01*
X56636430Y8747997D01*
X56636430Y8556074D01*
X56769440Y8500178D01*
X56902235Y8441050D01*
X57034814Y8378691D01*
X57167394Y8313102D01*
X57300188Y8244281D01*
X57433199Y8172229D01*
X56636430Y8172229D01*
X56555654Y8172229D01*
X56555654Y8556074D01*
X56555654Y8747997D01*
X56555654Y9071099D01*
X56555654Y9487706D01*
X57944346Y9071099D01*
G37*
G04 #@! TO.C,kibuzzard-684C4FDB*
G36*
X42654766Y67350501D02*
G01*
X42640913Y67227803D01*
X42599354Y67144685D01*
X42442165Y67081357D01*
X42346042Y67098320D01*
X42279321Y67149208D01*
X42240307Y67227803D01*
X42227302Y67327884D01*
X42228433Y67366333D01*
X42234087Y67411567D01*
X42654766Y67411567D01*
X42654766Y67350501D01*
G37*
G36*
X42654766Y66219645D02*
G01*
X42640913Y66096947D01*
X42599354Y66013829D01*
X42442165Y65950501D01*
X42346042Y65967464D01*
X42279321Y66018352D01*
X42240307Y66096947D01*
X42227302Y66197027D01*
X42228433Y66235477D01*
X42234087Y66280711D01*
X42654766Y66280711D01*
X42654766Y66219645D01*
G37*
G36*
X43524771Y68381842D02*
G01*
X43524771Y66705913D01*
X43524771Y65575057D01*
X43524771Y65407690D01*
X43524771Y63616414D01*
X43524771Y62582811D01*
X43524771Y61282326D01*
X43524771Y61093850D01*
X43524771Y60598988D01*
X41875229Y61093850D01*
X41875229Y61282326D01*
X41875229Y61902036D01*
X42684168Y61902036D01*
X42684168Y61282326D01*
X42957835Y61282326D01*
X42957835Y61902036D01*
X42684168Y61902036D01*
X41875229Y61902036D01*
X41875229Y63231922D01*
X42001131Y63231922D01*
X42001131Y62214152D01*
X42231826Y62214152D01*
X42231826Y62582811D01*
X43401131Y62582811D01*
X43401131Y62863263D01*
X42231826Y62863263D01*
X42231826Y63231922D01*
X42001131Y63231922D01*
X41875229Y63231922D01*
X41875229Y64315283D01*
X42001131Y64315283D01*
X42001131Y64091373D01*
X42104887Y64028045D01*
X42217124Y63964717D01*
X42333320Y63902237D01*
X42448950Y63841454D01*
X42562601Y63783780D01*
X42672859Y63730630D01*
X42774637Y63683417D01*
X42862843Y63643554D01*
X42001131Y63643554D01*
X42001131Y63392504D01*
X43401131Y63392504D01*
X43401131Y63616414D01*
X43245952Y63681626D01*
X43091025Y63750609D01*
X42936349Y63823360D01*
X42781673Y63899882D01*
X42626746Y63980172D01*
X42471567Y64064233D01*
X43401131Y64064233D01*
X43401131Y64315283D01*
X42001131Y64315283D01*
X41875229Y64315283D01*
X41875229Y65407690D01*
X42001131Y65407690D01*
X42001131Y64559548D01*
X42231826Y64559548D01*
X42231826Y65129499D01*
X42546204Y65129499D01*
X42546204Y64634184D01*
X42776898Y64634184D01*
X42776898Y65129499D01*
X43170436Y65129499D01*
X43170436Y64509790D01*
X43401131Y64509790D01*
X43401131Y65407690D01*
X42001131Y65407690D01*
X41875229Y65407690D01*
X41875229Y66197027D01*
X41985299Y66197027D01*
X41992084Y66082811D01*
X42012439Y65979903D01*
X42046931Y65889435D01*
X42096123Y65812536D01*
X42239742Y65705105D01*
X42334451Y65677116D01*
X42444426Y65667787D01*
X42560905Y65680226D01*
X42666074Y65717544D01*
X42753716Y65783700D01*
X42817609Y65882649D01*
X42947658Y65801228D01*
X43096931Y65717544D01*
X43252989Y65639515D01*
X43401131Y65575057D01*
X43401131Y65866817D01*
X43267973Y65923078D01*
X43139903Y65987819D01*
X43013530Y66059346D01*
X42885460Y66135961D01*
X42885460Y66280711D01*
X43401131Y66280711D01*
X43401131Y66558901D01*
X42021486Y66558901D01*
X42004523Y66469564D01*
X41993215Y66371179D01*
X41987561Y66276187D01*
X41985299Y66197027D01*
X41875229Y66197027D01*
X41875229Y67327884D01*
X41985299Y67327884D01*
X41992084Y67213667D01*
X42012439Y67110759D01*
X42046931Y67020291D01*
X42096123Y66943393D01*
X42239742Y66835961D01*
X42334451Y66807973D01*
X42444426Y66798643D01*
X42560905Y66811082D01*
X42666074Y66848401D01*
X42753716Y66914556D01*
X42817609Y67013506D01*
X42947658Y66932084D01*
X43096931Y66848401D01*
X43252989Y66770372D01*
X43401131Y66705913D01*
X43401131Y66997674D01*
X43267973Y67053934D01*
X43139903Y67118675D01*
X43013530Y67190202D01*
X42885460Y67266817D01*
X42885460Y67411567D01*
X43401131Y67411567D01*
X43401131Y67689758D01*
X42021486Y67689758D01*
X42004523Y67600420D01*
X41993215Y67502036D01*
X41987561Y67407044D01*
X41985299Y67327884D01*
X41875229Y67327884D01*
X41875229Y68854540D01*
X42001131Y68854540D01*
X42001131Y68574087D01*
X42876414Y68574087D01*
X43024556Y68565040D01*
X43120679Y68534507D01*
X43172698Y68474572D01*
X43188530Y68377318D01*
X43172698Y68280065D01*
X43119548Y68218998D01*
X43022294Y68187334D01*
X42874152Y68178288D01*
X42001131Y68178288D01*
X42001131Y67900097D01*
X42894507Y67900097D01*
X43010985Y67905751D01*
X43116155Y67922714D01*
X43208320Y67953813D01*
X43285784Y68001874D01*
X43347698Y68067464D01*
X43393215Y68151147D01*
X43421204Y68255186D01*
X43430533Y68381842D01*
X43421204Y68506519D01*
X43393215Y68609144D01*
X43285784Y68755024D01*
X43208320Y68801389D01*
X43116155Y68831922D01*
X43010985Y68848885D01*
X42894507Y68854540D01*
X42001131Y68854540D01*
X41875229Y68854540D01*
X41875229Y69376995D01*
X41969467Y69376995D01*
X41981906Y69242423D01*
X42010178Y69137254D01*
X42044103Y69061486D01*
X42071244Y69015121D01*
X42292892Y69087496D01*
X42235218Y69213021D01*
X42211470Y69381519D01*
X42235218Y69509305D01*
X42314378Y69620129D01*
X42462520Y69699289D01*
X42566559Y69722189D01*
X42693215Y69729822D01*
X42840603Y69720650D01*
X42963113Y69693132D01*
X43060743Y69647270D01*
X43156583Y69538425D01*
X43188530Y69376995D01*
X43163651Y69197189D01*
X43113893Y69082973D01*
X43333279Y69012859D01*
X43400000Y69172310D01*
X43422900Y69280590D01*
X43430533Y69404136D01*
X43409424Y69586078D01*
X43346096Y69736859D01*
X43240549Y69856478D01*
X43135521Y69924754D01*
X43010420Y69973522D01*
X42865246Y70002783D01*
X42700000Y70012536D01*
X42535460Y70000662D01*
X42390145Y69965040D01*
X42264903Y69908215D01*
X42160582Y69832730D01*
X42078029Y69740000D01*
X42018094Y69631438D01*
X41981624Y69509588D01*
X41969467Y69376995D01*
X41875229Y69376995D01*
X41875229Y70012536D01*
X41875229Y70201012D01*
X43524771Y70201012D01*
X43524771Y70012536D01*
X43524771Y69404136D01*
X43524771Y68381842D01*
G37*
D14*
G04 #@! TO.C,J1006*
X53340000Y66240000D02*
X53340000Y61990000D01*
X53340000Y61990000D02*
X54360000Y61990000D01*
X54360000Y63590000D02*
X55640000Y63590000D01*
X54360000Y61990000D02*
X54360000Y63590000D01*
X55060000Y69810000D02*
X59740000Y69810000D01*
X55640000Y63590000D02*
X55640000Y60700000D01*
X60440000Y63590000D02*
X59160000Y63590000D01*
X60440000Y61990000D02*
X60440000Y63590000D01*
X61460000Y66240000D02*
X61460000Y61990000D01*
X61460000Y61990000D02*
X60440000Y61990000D01*
D10*
G04 #@! TO.C,kibuzzard-6791AB96*
G36*
X50523462Y8104292D02*
G01*
X50523462Y7925465D01*
X49176538Y7925465D01*
X49176538Y8104292D01*
X49176538Y8597854D01*
X49355365Y8597854D01*
X49369313Y8496996D01*
X49413305Y8443348D01*
X49465880Y8425107D01*
X49531330Y8421888D01*
X49670815Y8421888D01*
X49670815Y8280258D01*
X49674034Y8214807D01*
X49692275Y8162232D01*
X49746996Y8118240D01*
X49851073Y8104292D01*
X49951931Y8117167D01*
X50005579Y8159013D01*
X50023820Y8208369D01*
X50027039Y8269528D01*
X50027039Y8421888D01*
X50168670Y8421888D01*
X50234120Y8425107D01*
X50286695Y8443348D01*
X50330687Y8496996D01*
X50344635Y8600000D01*
X50330687Y8700858D01*
X50285622Y8754506D01*
X50231974Y8772747D01*
X50166524Y8775966D01*
X50027039Y8775966D01*
X50027039Y8930472D01*
X50023820Y8991631D01*
X50005579Y9040987D01*
X49951931Y9082833D01*
X49848927Y9095708D01*
X49745923Y9081760D01*
X49692275Y9036695D01*
X49674034Y8981974D01*
X49670815Y8915451D01*
X49670815Y8775966D01*
X49529185Y8775966D01*
X49463734Y8772747D01*
X49411159Y8754506D01*
X49368240Y8700858D01*
X49355365Y8597854D01*
X49176538Y8597854D01*
X49176538Y9095708D01*
X49176538Y9274535D01*
X50523462Y9274535D01*
X50523462Y9095708D01*
X50523462Y8600000D01*
X50523462Y8104292D01*
G37*
G04 #@! TD*
%LPC*%
D11*
G36*
X90657170Y1270000D02*
G01*
X90333548Y1270000D01*
X90268823Y1567000D01*
X89896109Y1565534D01*
X89871339Y1567003D01*
X89821796Y1580258D01*
X89777895Y1607300D01*
X89757364Y1626988D01*
X89728226Y1670498D01*
X89711705Y1718675D01*
X89634280Y2086016D01*
X89631193Y2102926D01*
X89631297Y2114104D01*
X89950819Y2114104D01*
X90040945Y1692052D01*
X90243422Y1692052D01*
X90153541Y2114104D01*
X89950819Y2114104D01*
X89631297Y2114104D01*
X89631649Y2151927D01*
X89652110Y2197146D01*
X89660914Y2206992D01*
X89703923Y2232223D01*
X89753959Y2239156D01*
X90451761Y2239156D01*
X90657170Y1270000D01*
G37*
G36*
X89402006Y1942157D02*
G01*
X89089863Y1942157D01*
X89113555Y1832736D01*
X89454029Y1832736D01*
X89504343Y1824249D01*
X89548307Y1798786D01*
X89550827Y1796660D01*
X89583304Y1757322D01*
X89600331Y1711347D01*
X89660903Y1422408D01*
X89663994Y1405555D01*
X89663603Y1356688D01*
X89643317Y1311522D01*
X89634509Y1301790D01*
X89591419Y1276853D01*
X89541224Y1270000D01*
X88935013Y1270000D01*
X88839349Y1723315D01*
X89136269Y1723315D01*
X89210763Y1379421D01*
X89372452Y1379421D01*
X89297958Y1723315D01*
X89136269Y1723315D01*
X88839349Y1723315D01*
X88795795Y1929700D01*
X88792834Y1970252D01*
X88810694Y2017628D01*
X88841030Y2041996D01*
X88890073Y2051578D01*
X89379535Y2051578D01*
X89402006Y1942157D01*
G37*
G36*
X88332955Y2129735D02*
G01*
X88632641Y2129735D01*
X88610170Y2239156D01*
X88310484Y2239156D01*
X88332955Y2129735D01*
G37*
G36*
X88515892Y1270000D02*
G01*
X88815578Y1270000D01*
X88650959Y2046693D01*
X88351273Y2046693D01*
X88515892Y1270000D01*
G37*
G36*
X87618056Y1270000D02*
G01*
X87916276Y1270000D01*
X87772661Y1942157D01*
X87934594Y1942157D01*
X88077965Y1270000D01*
X88377651Y1270000D01*
X88211566Y2051578D01*
X87572871Y2051578D01*
X87523950Y2041996D01*
X87493492Y2017628D01*
X87475718Y1970252D01*
X87478837Y1929700D01*
X87618056Y1270000D01*
G37*
G36*
X86961531Y1942157D02*
G01*
X86649389Y1942157D01*
X86673080Y1832736D01*
X87013555Y1832736D01*
X87063869Y1824249D01*
X87107832Y1798786D01*
X87110353Y1796660D01*
X87142830Y1757322D01*
X87159856Y1711347D01*
X87220428Y1422408D01*
X87223520Y1405555D01*
X87223129Y1356688D01*
X87202843Y1311522D01*
X87194035Y1301790D01*
X87150944Y1276853D01*
X87100749Y1270000D01*
X86494539Y1270000D01*
X86398874Y1723315D01*
X86695795Y1723315D01*
X86770289Y1379421D01*
X86931978Y1379421D01*
X86857484Y1723315D01*
X86695795Y1723315D01*
X86398874Y1723315D01*
X86355320Y1929700D01*
X86352359Y1970252D01*
X86370219Y2017628D01*
X86400555Y2041996D01*
X86449598Y2051578D01*
X86939061Y2051578D01*
X86961531Y1942157D01*
G37*
G36*
X85595725Y1270000D02*
G01*
X85893946Y1270000D01*
X85750331Y1942157D01*
X85912264Y1942157D01*
X86055634Y1270000D01*
X86355320Y1270000D01*
X86189235Y2051578D01*
X85550540Y2051578D01*
X85501619Y2041996D01*
X85471161Y2017628D01*
X85453387Y1970252D01*
X85456507Y1929700D01*
X85595725Y1270000D01*
G37*
G36*
X84872766Y2051578D02*
G01*
X85213241Y2051578D01*
X85263372Y2043090D01*
X85307274Y2017628D01*
X85309795Y2015486D01*
X85342340Y1975904D01*
X85359542Y1929700D01*
X85467742Y1422897D01*
X85470833Y1405987D01*
X85470442Y1356986D01*
X85450156Y1311766D01*
X85441348Y1301977D01*
X85398258Y1276893D01*
X85348063Y1270000D01*
X84738921Y1270000D01*
X84596461Y1942157D01*
X84895237Y1942157D01*
X85014671Y1379421D01*
X85176604Y1379421D01*
X85056925Y1942157D01*
X84895237Y1942157D01*
X84596461Y1942157D01*
X84533513Y2239156D01*
X84831978Y2239156D01*
X84872766Y2051578D01*
G37*
G36*
X83623952Y1707684D02*
G01*
X83574910Y1698240D01*
X83544574Y1674222D01*
X83526714Y1627889D01*
X83529675Y1588249D01*
X83564846Y1419966D01*
X83580691Y1372819D01*
X83609639Y1330271D01*
X83630303Y1311033D01*
X83674677Y1284466D01*
X83724454Y1271443D01*
X83749249Y1270000D01*
X84206472Y1270000D01*
X84256549Y1277014D01*
X84299704Y1302538D01*
X84308565Y1312499D01*
X84328798Y1358244D01*
X84329055Y1407441D01*
X84325906Y1424362D01*
X84309054Y1498856D01*
X84009368Y1498856D01*
X84036234Y1379421D01*
X83874301Y1379421D01*
X83825209Y1598263D01*
X84134664Y1598263D01*
X84184741Y1605317D01*
X84227896Y1630988D01*
X84236758Y1641005D01*
X84257044Y1687248D01*
X84257434Y1737310D01*
X84254343Y1754578D01*
X84219172Y1927014D01*
X84201985Y1974079D01*
X84168981Y2014463D01*
X84166416Y2016651D01*
X84121903Y2042846D01*
X84071405Y2051578D01*
X83553611Y2051578D01*
X83504568Y2041789D01*
X83474232Y2016895D01*
X83456372Y1968939D01*
X83459333Y1927991D01*
X83481803Y1822478D01*
X83780024Y1822478D01*
X83753401Y1942157D01*
X83915090Y1942157D01*
X83964427Y1707684D01*
X83623952Y1707684D01*
G37*
G36*
X83013590Y2051578D02*
G01*
X83156960Y1379421D01*
X82995271Y1379421D01*
X82851657Y2051578D01*
X82553436Y2051578D01*
X82685816Y1422897D01*
X82702336Y1374754D01*
X82731474Y1331359D01*
X82752006Y1311766D01*
X82795865Y1284724D01*
X82845288Y1271469D01*
X82869975Y1270000D01*
X83327197Y1270000D01*
X83377274Y1276893D01*
X83420430Y1301977D01*
X83429291Y1311766D01*
X83449577Y1356986D01*
X83449968Y1405987D01*
X83446876Y1422897D01*
X83313276Y2051578D01*
X83013590Y2051578D01*
G37*
G36*
X81722278Y2129735D02*
G01*
X82013415Y2129735D01*
X82031733Y2051578D01*
X81805076Y2051578D01*
X81827791Y1942157D01*
X82054204Y1942157D01*
X82196353Y1270000D01*
X82494574Y1270000D01*
X82352424Y1942157D01*
X82498726Y1942157D01*
X82476255Y2051578D01*
X82329954Y2051578D01*
X82318763Y2100002D01*
X82313834Y2118744D01*
X82295653Y2164952D01*
X82287700Y2178584D01*
X82252897Y2215396D01*
X82242759Y2222059D01*
X82195365Y2237486D01*
X82168021Y2239156D01*
X81699563Y2239156D01*
X81722278Y2129735D01*
G37*
G36*
X80952424Y2129735D02*
G01*
X81243562Y2129735D01*
X81261880Y2051578D01*
X81035223Y2051578D01*
X81057937Y1942157D01*
X81284350Y1942157D01*
X81426500Y1270000D01*
X81724720Y1270000D01*
X81582571Y1942157D01*
X81728872Y1942157D01*
X81706402Y2051578D01*
X81560100Y2051578D01*
X81548909Y2100002D01*
X81543980Y2118744D01*
X81525800Y2164952D01*
X81517846Y2178584D01*
X81483044Y2215396D01*
X81472906Y2222059D01*
X81425511Y2237486D01*
X81398167Y2239156D01*
X80929710Y2239156D01*
X80952424Y2129735D01*
G37*
G36*
X80826578Y2043090D02*
G01*
X80871091Y2017628D01*
X80873657Y2015486D01*
X80906660Y1975904D01*
X80923848Y1929700D01*
X81030826Y1422897D01*
X81033917Y1405987D01*
X81033527Y1356986D01*
X81013241Y1311766D01*
X81004379Y1301977D01*
X80961224Y1276893D01*
X80911147Y1270000D01*
X80303471Y1270000D01*
X80281001Y1379421D01*
X80740910Y1379421D01*
X80716974Y1473211D01*
X80257065Y1473211D01*
X80164253Y1927258D01*
X80163185Y1942157D01*
X80458321Y1942157D01*
X80532815Y1598263D01*
X80694504Y1598263D01*
X80620010Y1942157D01*
X80458321Y1942157D01*
X80163185Y1942157D01*
X80161291Y1968563D01*
X80179151Y2016895D01*
X80209487Y2041789D01*
X80258530Y2051578D01*
X80776081Y2051578D01*
X80826578Y2043090D01*
G37*
G36*
X79429814Y1942157D02*
G01*
X79721196Y1942157D01*
X79864567Y1270000D01*
X80164253Y1270000D01*
X80025034Y1929700D01*
X80007846Y1975904D01*
X79974843Y2015486D01*
X79972278Y2017628D01*
X79927764Y2043090D01*
X79877267Y2051578D01*
X79407344Y2051578D01*
X79429814Y1942157D01*
G37*
G36*
X79014601Y2129735D02*
G01*
X79314287Y2129735D01*
X79291817Y2239156D01*
X78992131Y2239156D01*
X79014601Y2129735D01*
G37*
G36*
X79197539Y1270000D02*
G01*
X79497225Y1270000D01*
X79332606Y2046693D01*
X79032920Y2046693D01*
X79197539Y1270000D01*
G37*
G36*
X78299703Y1270000D02*
G01*
X78597923Y1270000D01*
X78454308Y1942157D01*
X78616241Y1942157D01*
X78759612Y1270000D01*
X79059298Y1270000D01*
X78893213Y2051578D01*
X78254518Y2051578D01*
X78205596Y2041996D01*
X78175139Y2017628D01*
X78157365Y1970252D01*
X78160484Y1929700D01*
X78299703Y1270000D01*
G37*
G36*
X77970219Y2043090D02*
G01*
X78014183Y2017628D01*
X78016703Y2015486D01*
X78049180Y1975904D01*
X78066206Y1929700D01*
X78173185Y1422897D01*
X78176276Y1405987D01*
X78175885Y1356986D01*
X78155599Y1311766D01*
X78146738Y1301977D01*
X78103583Y1276893D01*
X78053506Y1270000D01*
X77744050Y1270000D01*
X77762368Y1191843D01*
X78071824Y1191843D01*
X78095760Y1082422D01*
X77638537Y1082422D01*
X77613851Y1083882D01*
X77564428Y1097060D01*
X77520568Y1123943D01*
X77500025Y1143323D01*
X77470803Y1186321D01*
X77454134Y1234097D01*
X77304356Y1942157D01*
X77601901Y1942157D01*
X77721580Y1379421D01*
X77883269Y1379421D01*
X77763834Y1942157D01*
X77601901Y1942157D01*
X77304356Y1942157D01*
X77281210Y2051578D01*
X77919905Y2051578D01*
X77970219Y2043090D01*
G37*
G36*
X76985920Y1270000D02*
G01*
X76995934Y1251682D01*
X77017672Y1211626D01*
X77040142Y1170838D01*
X77052110Y1149100D01*
X77173010Y1149100D01*
X77106821Y1270000D01*
X77229186Y1270000D01*
X77195481Y1426316D01*
X76952215Y1426316D01*
X76985920Y1270000D01*
G37*
G36*
X76445655Y1270000D02*
G01*
X76495732Y1276853D01*
X76538887Y1301790D01*
X76547749Y1311522D01*
X76568035Y1356688D01*
X76568425Y1405555D01*
X76565334Y1422408D01*
X76455425Y1942157D01*
X76600505Y1942157D01*
X76577791Y2051578D01*
X76432955Y2051578D01*
X76392166Y2239156D01*
X76092480Y2239156D01*
X76133269Y2051578D01*
X75986967Y2051578D01*
X76009437Y1942157D01*
X76155739Y1942157D01*
X76275418Y1379421D01*
X76129116Y1379421D01*
X76151587Y1270000D01*
X76445655Y1270000D01*
G37*
G36*
X75274022Y1270000D02*
G01*
X75572487Y1270000D01*
X75430338Y1942157D01*
X75592026Y1942157D01*
X75734176Y1270000D01*
X76033862Y1270000D01*
X75828454Y2239156D01*
X75528768Y2239156D01*
X75569556Y2051578D01*
X75230547Y2051578D01*
X75181297Y2041996D01*
X75150435Y2017628D01*
X75131964Y1970252D01*
X75134804Y1929700D01*
X75274022Y1270000D01*
G37*
G36*
X74867602Y1942157D02*
G01*
X74555460Y1942157D01*
X74579151Y1832736D01*
X74919626Y1832736D01*
X74969940Y1824249D01*
X75013904Y1798786D01*
X75016424Y1796660D01*
X75048901Y1757322D01*
X75065927Y1711347D01*
X75126500Y1422408D01*
X75129591Y1405555D01*
X75129200Y1356688D01*
X75108914Y1311522D01*
X75100106Y1301790D01*
X75057015Y1276853D01*
X75006821Y1270000D01*
X74400610Y1270000D01*
X74304945Y1723315D01*
X74601866Y1723315D01*
X74676360Y1379421D01*
X74838049Y1379421D01*
X74763555Y1723315D01*
X74601866Y1723315D01*
X74304945Y1723315D01*
X74261391Y1929700D01*
X74258430Y1970252D01*
X74276290Y2017628D01*
X74306626Y2041996D01*
X74355669Y2051578D01*
X74845132Y2051578D01*
X74867602Y1942157D01*
G37*
G36*
X74033513Y1270000D02*
G01*
X74083590Y1276853D01*
X74126745Y1301790D01*
X74135606Y1311522D01*
X74155892Y1356688D01*
X74156283Y1405555D01*
X74153192Y1422408D01*
X74043283Y1942157D01*
X74188363Y1942157D01*
X74165648Y2051578D01*
X74020812Y2051578D01*
X73980024Y2239156D01*
X73680338Y2239156D01*
X73721126Y2051578D01*
X73574825Y2051578D01*
X73597295Y1942157D01*
X73743597Y1942157D01*
X73863276Y1379421D01*
X73716974Y1379421D01*
X73739444Y1270000D01*
X74033513Y1270000D01*
G37*
G36*
X73392375Y1926525D02*
G01*
X73513276Y1926525D01*
X73454169Y2207893D01*
X73292480Y2207893D01*
X73392375Y1926525D01*
G37*
G36*
X72653541Y1707684D02*
G01*
X72604498Y1698240D01*
X72574162Y1674222D01*
X72556302Y1627889D01*
X72559263Y1588249D01*
X72594434Y1419966D01*
X72610279Y1372819D01*
X72639228Y1330271D01*
X72659891Y1311033D01*
X72704266Y1284466D01*
X72754042Y1271443D01*
X72778837Y1270000D01*
X73236060Y1270000D01*
X73286137Y1277014D01*
X73329292Y1302538D01*
X73338153Y1312499D01*
X73358386Y1358244D01*
X73358643Y1407441D01*
X73355495Y1424362D01*
X73338642Y1498856D01*
X73038956Y1498856D01*
X73065823Y1379421D01*
X72903890Y1379421D01*
X72854797Y1598263D01*
X73164253Y1598263D01*
X73214329Y1605317D01*
X73257485Y1630988D01*
X73266346Y1641005D01*
X73286632Y1687248D01*
X73287023Y1737310D01*
X73283932Y1754578D01*
X73248761Y1927014D01*
X73231573Y1974079D01*
X73198570Y2014463D01*
X73196004Y2016651D01*
X73151491Y2042846D01*
X73100994Y2051578D01*
X72583199Y2051578D01*
X72534156Y2041789D01*
X72503820Y2016895D01*
X72485960Y1968939D01*
X72488921Y1927991D01*
X72511391Y1822478D01*
X72809612Y1822478D01*
X72782989Y1942157D01*
X72944678Y1942157D01*
X72994015Y1707684D01*
X72653541Y1707684D01*
G37*
G36*
X71946458Y1942157D02*
G01*
X71634315Y1942157D01*
X71658007Y1832736D01*
X71998481Y1832736D01*
X72048795Y1824249D01*
X72092759Y1798786D01*
X72095280Y1796660D01*
X72127756Y1757322D01*
X72144783Y1711347D01*
X72205355Y1422408D01*
X72208446Y1405555D01*
X72208056Y1356688D01*
X72187770Y1311522D01*
X72178962Y1301790D01*
X72135871Y1276853D01*
X72085676Y1270000D01*
X71479465Y1270000D01*
X71383801Y1723315D01*
X71680722Y1723315D01*
X71755216Y1379421D01*
X71916904Y1379421D01*
X71842410Y1723315D01*
X71680722Y1723315D01*
X71383801Y1723315D01*
X71340247Y1929700D01*
X71337286Y1970252D01*
X71355146Y2017628D01*
X71385482Y2041996D01*
X71434525Y2051578D01*
X71923987Y2051578D01*
X71946458Y1942157D01*
G37*
G36*
X71060345Y1270000D02*
G01*
X71360031Y1270000D01*
X71154622Y2239156D01*
X70854936Y2239156D01*
X71060345Y1270000D01*
G37*
G36*
X70642201Y1270000D02*
G01*
X70941887Y1270000D01*
X70736479Y2239156D01*
X70436793Y2239156D01*
X70642201Y1270000D01*
G37*
G36*
X69771475Y2129735D02*
G01*
X70071161Y2129735D01*
X70048691Y2239156D01*
X69749005Y2239156D01*
X69771475Y2129735D01*
G37*
G36*
X69954413Y1270000D02*
G01*
X70254099Y1270000D01*
X70089479Y2046693D01*
X69789793Y2046693D01*
X69954413Y1270000D01*
G37*
G36*
X69588293Y1270000D02*
G01*
X69638370Y1276853D01*
X69681525Y1301790D01*
X69690387Y1311522D01*
X69710673Y1356688D01*
X69711063Y1405555D01*
X69707972Y1422408D01*
X69598063Y1942157D01*
X69743143Y1942157D01*
X69720428Y2051578D01*
X69575592Y2051578D01*
X69534804Y2239156D01*
X69235118Y2239156D01*
X69275906Y2051578D01*
X69129605Y2051578D01*
X69152075Y1942157D01*
X69298377Y1942157D01*
X69418056Y1379421D01*
X69271754Y1379421D01*
X69294225Y1270000D01*
X69588293Y1270000D01*
G37*
G36*
X67976779Y1270000D02*
G01*
X68276465Y1270000D01*
X68289165Y1495192D01*
X68397609Y1270000D01*
X68697295Y1270000D01*
X68740770Y2051578D01*
X68442550Y2051578D01*
X68411531Y1510824D01*
X68303331Y1736016D01*
X68320184Y2051578D01*
X68021964Y2051578D01*
X67990945Y1510824D01*
X67730582Y2051578D01*
X67601377Y2051578D01*
X67976779Y1270000D01*
G37*
G36*
X67402564Y1942157D02*
G01*
X67090421Y1942157D01*
X67114113Y1832736D01*
X67454588Y1832736D01*
X67504902Y1824249D01*
X67548865Y1798786D01*
X67551386Y1796660D01*
X67583862Y1757322D01*
X67600889Y1711347D01*
X67661461Y1422408D01*
X67664552Y1405555D01*
X67664162Y1356688D01*
X67643876Y1311522D01*
X67635068Y1301790D01*
X67591977Y1276853D01*
X67541782Y1270000D01*
X66935571Y1270000D01*
X66839907Y1723315D01*
X67136828Y1723315D01*
X67211322Y1379421D01*
X67373010Y1379421D01*
X67298516Y1723315D01*
X67136828Y1723315D01*
X66839907Y1723315D01*
X66796353Y1929700D01*
X66793392Y1970252D01*
X66811252Y2017628D01*
X66841588Y2041996D01*
X66890631Y2051578D01*
X67380093Y2051578D01*
X67402564Y1942157D01*
G37*
G36*
X66087316Y1707684D02*
G01*
X66038273Y1698240D01*
X66007937Y1674222D01*
X65990077Y1627889D01*
X65993038Y1588249D01*
X66028209Y1419966D01*
X66044055Y1372819D01*
X66073003Y1330271D01*
X66093666Y1311033D01*
X66138041Y1284466D01*
X66187817Y1271443D01*
X66212613Y1270000D01*
X66669835Y1270000D01*
X66719912Y1277014D01*
X66763067Y1302538D01*
X66771929Y1312499D01*
X66792161Y1358244D01*
X66792418Y1407441D01*
X66789270Y1424362D01*
X66772417Y1498856D01*
X66472731Y1498856D01*
X66499598Y1379421D01*
X66337665Y1379421D01*
X66288572Y1598263D01*
X66598028Y1598263D01*
X66648105Y1605317D01*
X66691260Y1630988D01*
X66700121Y1641005D01*
X66720407Y1687248D01*
X66720798Y1737310D01*
X66717707Y1754578D01*
X66682536Y1927014D01*
X66665348Y1974079D01*
X66632345Y2014463D01*
X66629779Y2016651D01*
X66585266Y2042846D01*
X66534769Y2051578D01*
X66016974Y2051578D01*
X65967931Y2041789D01*
X65937595Y2016895D01*
X65919735Y1968939D01*
X65922696Y1927991D01*
X65945167Y1822478D01*
X66243387Y1822478D01*
X66216765Y1942157D01*
X66378454Y1942157D01*
X66427791Y1707684D01*
X66087316Y1707684D01*
G37*
G36*
X65610554Y1270000D02*
G01*
X65853820Y1270000D01*
X65820114Y1426316D01*
X65576849Y1426316D01*
X65610554Y1270000D01*
G37*
G04 #@! TO.C,JP801*
G36*
X55100000Y24000000D02*
G01*
X55400000Y24000000D01*
X55400000Y25500000D01*
X55100000Y25500000D01*
X55100000Y24000000D01*
G37*
G04 #@! TO.C,JP701*
G36*
X92750000Y18450000D02*
G01*
X91250000Y18450000D01*
X91250000Y18750000D01*
X92750000Y18750000D01*
X92750000Y18450000D01*
G37*
D10*
G04 #@! TO.C,JP901*
G36*
X9500000Y2750000D02*
G01*
X8000000Y2750000D01*
X8000000Y4250000D01*
X9500000Y4250000D01*
X9500000Y2750000D01*
G37*
G04 #@! TO.C,JP401*
G36*
X87000000Y52700000D02*
G01*
X87300000Y52700000D01*
X87300000Y54200000D01*
X87000000Y54200000D01*
X87000000Y52700000D01*
G37*
G04 #@! TO.C,JP802*
G36*
X61000000Y49250000D02*
G01*
X61300000Y49250000D01*
X61300000Y50750000D01*
X61000000Y50750000D01*
X61000000Y49250000D01*
G37*
G04 #@! TD*
D15*
G04 #@! TO.C,TP702*
X23472646Y34741750D03*
G04 #@! TD*
G04 #@! TO.C,TP812*
X66275000Y48000000D03*
G04 #@! TD*
G04 #@! TO.C,TP809*
X48550000Y24600000D03*
G04 #@! TD*
D16*
G04 #@! TO.C,TP719*
X19750000Y46950000D03*
G04 #@! TD*
D17*
G04 #@! TO.C,J504*
X74445000Y15701043D03*
X81645000Y15701043D03*
D18*
X71295000Y9701043D03*
X84795000Y9701043D03*
G04 #@! TD*
D19*
G04 #@! TO.C,J503*
X15350000Y51350000D03*
X15350000Y58550000D03*
D20*
X9350000Y48200000D03*
X9350000Y61700000D03*
G04 #@! TD*
D21*
G04 #@! TO.C,J1004*
X93570000Y54560000D03*
X93570000Y60340000D03*
D22*
X93070000Y53130000D03*
X93070000Y61770000D03*
D23*
X97250000Y53130000D03*
X97250000Y61770000D03*
G04 #@! TD*
D24*
G04 #@! TO.C,TP811*
X39750000Y56250000D03*
G04 #@! TD*
D25*
G04 #@! TO.C,H1203*
X93850000Y3947056D03*
X94552944Y5644112D03*
X94552944Y2250000D03*
X96250000Y6347056D03*
D26*
X96250000Y3947056D03*
D25*
X96250000Y1547056D03*
X97947056Y5644112D03*
X97947056Y2250000D03*
X98650000Y3947056D03*
G04 #@! TD*
D17*
G04 #@! TO.C,J501*
X55951394Y15720000D03*
X48751394Y15720000D03*
D18*
X59101394Y9720000D03*
X45601394Y9720000D03*
G04 #@! TD*
D25*
G04 #@! TO.C,H1202*
X1362500Y4000000D03*
X2065444Y5697056D03*
X2065444Y2302944D03*
X3762500Y6400000D03*
D26*
X3762500Y4000000D03*
D25*
X3762500Y1600000D03*
X5459556Y5697056D03*
X5459556Y2302944D03*
X6162500Y4000000D03*
G04 #@! TD*
D27*
G04 #@! TO.C,S402*
X88525000Y49000000D03*
G04 #@! TD*
D28*
G04 #@! TO.C,J1003*
X64520001Y68800000D03*
D29*
X67060001Y68800000D03*
X69600000Y68800000D03*
X72140001Y68800000D03*
G04 #@! TD*
D25*
G04 #@! TO.C,H1201*
X93850000Y66500000D03*
X94552944Y68197056D03*
X94552944Y64802944D03*
X96250000Y68900000D03*
D26*
X96250000Y66500000D03*
D25*
X96250000Y64100000D03*
X97947056Y68197056D03*
X97947056Y64802944D03*
X98650000Y66500000D03*
G04 #@! TD*
D19*
G04 #@! TO.C,J502*
X15350000Y42500000D03*
X15350000Y35300000D03*
D20*
X9350000Y45650000D03*
X9350000Y32150000D03*
G04 #@! TD*
D27*
G04 #@! TO.C,S401*
X82525000Y49000000D03*
G04 #@! TD*
D28*
G04 #@! TO.C,J1002*
X75800000Y68800000D03*
D29*
X78340000Y68800000D03*
X80879999Y68800000D03*
X83420000Y68800000D03*
G04 #@! TD*
D30*
G04 #@! TO.C,TP601*
X80778632Y34751425D03*
G04 #@! TD*
D25*
G04 #@! TO.C,H1204*
X1347056Y66502944D03*
X2050000Y68200000D03*
X2050000Y64805888D03*
X3747056Y68902944D03*
D26*
X3747056Y66502944D03*
D25*
X3747056Y64102944D03*
X5444112Y68200000D03*
X5444112Y64805888D03*
X6147056Y66502944D03*
G04 #@! TD*
D31*
G04 #@! TO.C,J1005*
X46700000Y62450000D03*
X48700000Y62450000D03*
D32*
X44350000Y68200000D03*
X51050000Y68200000D03*
G04 #@! TD*
D33*
G04 #@! TO.C,JP801*
X54600000Y24750000D03*
D34*
X55900000Y24750000D03*
G04 #@! TD*
D35*
G04 #@! TO.C,JP701*
X92000000Y17950000D03*
D36*
X92000000Y19250000D03*
G04 #@! TD*
D37*
G04 #@! TO.C,JP901*
X8750000Y4800000D03*
D38*
X8750000Y3500000D03*
D39*
X8750000Y2200000D03*
G04 #@! TD*
D40*
G04 #@! TO.C,J901*
X53250000Y9100000D03*
X51250000Y9100000D03*
D41*
X55600000Y3350000D03*
X48900000Y3350000D03*
G04 #@! TD*
D33*
G04 #@! TO.C,JP401*
X86500000Y53450000D03*
D34*
X87800000Y53450000D03*
G04 #@! TD*
D33*
G04 #@! TO.C,JP802*
X60500000Y50000000D03*
D34*
X61800000Y50000000D03*
G04 #@! TD*
D31*
G04 #@! TO.C,J1006*
X56400000Y62450000D03*
X58400000Y62450000D03*
D32*
X54050000Y68200000D03*
X60750000Y68200000D03*
G04 #@! TD*
%LPD*%
M02*
