G04 #@! TF.GenerationSoftware,KiCad,Pcbnew,9.0.0*
G04 #@! TF.CreationDate,2025-07-24T22:11:37+02:00*
G04 #@! TF.ProjectId,ElonMux,456c6f6e-4d75-4782-9e6b-696361645f70,1.1*
G04 #@! TF.SameCoordinates,Original*
G04 #@! TF.FileFunction,Soldermask,Top*
G04 #@! TF.FilePolarity,Negative*
%FSLAX46Y46*%
G04 Gerber Fmt 4.6, Leading zero omitted, Abs format (unit mm)*
G04 Created by KiCad (PCBNEW 9.0.0) date 2025-07-24 22:11:37*
%MOMM*%
%LPD*%
G01*
G04 APERTURE LIST*
G04 Aperture macros list*
%AMRoundRect*
0 Rectangle with rounded corners*
0 $1 Rounding radius*
0 $2 $3 $4 $5 $6 $7 $8 $9 X,Y pos of 4 corners*
0 Add a 4 corners polygon primitive as box body*
4,1,4,$2,$3,$4,$5,$6,$7,$8,$9,$2,$3,0*
0 Add four circle primitives for the rounded corners*
1,1,$1+$1,$2,$3*
1,1,$1+$1,$4,$5*
1,1,$1+$1,$6,$7*
1,1,$1+$1,$8,$9*
0 Add four rect primitives between the rounded corners*
20,1,$1+$1,$2,$3,$4,$5,0*
20,1,$1+$1,$4,$5,$6,$7,0*
20,1,$1+$1,$6,$7,$8,$9,0*
20,1,$1+$1,$8,$9,$2,$3,0*%
%AMFreePoly0*
4,1,37,-0.662145,2.810355,-0.647500,2.775000,-0.647500,2.330000,2.502500,2.330000,2.537855,2.315355,2.552500,2.280000,2.552500,1.530000,2.537855,1.494645,2.502500,1.480000,2.077500,1.480000,2.077500,-1.480000,2.502500,-1.480000,2.537855,-1.494645,2.552500,-1.530000,2.552500,-2.280000,2.537855,-2.315355,2.502500,-2.330000,-0.647500,-2.330000,-0.647500,-2.775000,-0.662145,-2.810355,
-0.697500,-2.825000,-1.602500,-2.825000,-1.637855,-2.810355,-1.652500,-2.775000,-1.652500,-2.330000,-2.027500,-2.330000,-2.062855,-2.315355,-2.077500,-2.280000,-2.077500,2.280000,-2.062855,2.315355,-2.027500,2.330000,-1.652500,2.330000,-1.652500,2.775000,-1.637855,2.810355,-1.602500,2.825000,-0.697500,2.825000,-0.662145,2.810355,-0.662145,2.810355,$1*%
G04 Aperture macros list end*
%ADD10C,0.010000*%
%ADD11RoundRect,0.112500X-0.275000X-0.112500X0.275000X-0.112500X0.275000X0.112500X-0.275000X0.112500X0*%
%ADD12C,2.600000*%
%ADD13C,3.100000*%
%ADD14RoundRect,0.160000X-0.160000X-0.210000X0.160000X-0.210000X0.160000X0.210000X-0.160000X0.210000X0*%
%ADD15RoundRect,0.250000X-0.275000X0.250000X-0.275000X-0.250000X0.275000X-0.250000X0.275000X0.250000X0*%
%ADD16RoundRect,0.262500X-0.262500X0.275000X-0.262500X-0.275000X0.262500X-0.275000X0.262500X0.275000X0*%
%ADD17C,0.499800*%
%ADD18RoundRect,0.175000X0.175000X-0.537500X0.175000X0.537500X-0.175000X0.537500X-0.175000X-0.537500X0*%
%ADD19RoundRect,0.275000X0.275000X0.500000X-0.275000X0.500000X-0.275000X-0.500000X0.275000X-0.500000X0*%
%ADD20C,2.000000*%
%ADD21RoundRect,0.270409X0.392091X1.104591X-0.392091X1.104591X-0.392091X-1.104591X0.392091X-1.104591X0*%
%ADD22RoundRect,0.165000X-0.165000X-0.195000X0.165000X-0.195000X0.165000X0.195000X-0.165000X0.195000X0*%
%ADD23RoundRect,0.165000X0.165000X0.195000X-0.165000X0.195000X-0.165000X-0.195000X0.165000X-0.195000X0*%
%ADD24RoundRect,0.160000X0.210000X-0.160000X0.210000X0.160000X-0.210000X0.160000X-0.210000X-0.160000X0*%
%ADD25RoundRect,0.160000X-0.210000X0.160000X-0.210000X-0.160000X0.210000X-0.160000X0.210000X0.160000X0*%
%ADD26RoundRect,0.271739X0.678261X-0.353261X0.678261X0.353261X-0.678261X0.353261X-0.678261X-0.353261X0*%
%ADD27RoundRect,0.425000X2.550000X1.700000X-2.550000X1.700000X-2.550000X-1.700000X2.550000X-1.700000X0*%
%ADD28RoundRect,0.150000X0.350000X0.900000X-0.350000X0.900000X-0.350000X-0.900000X0.350000X-0.900000X0*%
%ADD29RoundRect,0.425000X1.700000X-2.550000X1.700000X2.550000X-1.700000X2.550000X-1.700000X-2.550000X0*%
%ADD30RoundRect,0.150000X0.900000X-0.350000X0.900000X0.350000X-0.900000X0.350000X-0.900000X-0.350000X0*%
%ADD31RoundRect,0.160000X0.160000X0.210000X-0.160000X0.210000X-0.160000X-0.210000X0.160000X-0.210000X0*%
%ADD32RoundRect,0.262500X-0.275000X-0.262500X0.275000X-0.262500X0.275000X0.262500X-0.275000X0.262500X0*%
%ADD33RoundRect,0.175000X-0.537500X-0.175000X0.537500X-0.175000X0.537500X0.175000X-0.537500X0.175000X0*%
%ADD34RoundRect,0.050000X-1.100000X1.075000X-1.100000X-1.075000X1.100000X-1.075000X1.100000X1.075000X0*%
%ADD35C,0.750000*%
%ADD36O,2.304000X1.204000*%
%ADD37O,2.004000X1.204000*%
%ADD38RoundRect,0.050000X-0.175000X-0.325000X0.175000X-0.325000X0.175000X0.325000X-0.175000X0.325000X0*%
%ADD39RoundRect,0.112500X-0.112500X0.275000X-0.112500X-0.275000X0.112500X-0.275000X0.112500X0.275000X0*%
%ADD40RoundRect,0.272222X-0.340278X-0.652778X0.340278X-0.652778X0.340278X0.652778X-0.340278X0.652778X0*%
%ADD41RoundRect,0.165000X0.195000X-0.165000X0.195000X0.165000X-0.195000X0.165000X-0.195000X-0.165000X0*%
%ADD42RoundRect,0.250000X0.250000X0.275000X-0.250000X0.275000X-0.250000X-0.275000X0.250000X-0.275000X0*%
%ADD43RoundRect,0.165000X-0.195000X0.165000X-0.195000X-0.165000X0.195000X-0.165000X0.195000X0.165000X0*%
%ADD44RoundRect,0.087500X0.400000X0.087500X-0.400000X0.087500X-0.400000X-0.087500X0.400000X-0.087500X0*%
%ADD45RoundRect,0.087500X0.087500X0.400000X-0.087500X0.400000X-0.087500X-0.400000X0.087500X-0.400000X0*%
%ADD46RoundRect,0.050000X1.800000X2.300000X-1.800000X2.300000X-1.800000X-2.300000X1.800000X-2.300000X0*%
%ADD47RoundRect,0.160000X-0.035355X0.261630X-0.261630X0.035355X0.035355X-0.261630X0.261630X-0.035355X0*%
%ADD48RoundRect,0.050000X0.300000X0.625000X-0.300000X0.625000X-0.300000X-0.625000X0.300000X-0.625000X0*%
%ADD49RoundRect,0.263158X-1.861842X-0.736842X1.861842X-0.736842X1.861842X0.736842X-1.861842X0.736842X0*%
%ADD50RoundRect,0.225000X0.225000X0.300000X-0.225000X0.300000X-0.225000X-0.300000X0.225000X-0.300000X0*%
%ADD51RoundRect,0.270833X0.479167X-0.379167X0.479167X0.379167X-0.479167X0.379167X-0.479167X-0.379167X0*%
%ADD52C,1.600000*%
%ADD53C,0.900000*%
%ADD54C,6.500000*%
%ADD55RoundRect,0.262500X0.275000X0.262500X-0.275000X0.262500X-0.275000X-0.262500X0.275000X-0.262500X0*%
%ADD56C,0.850000*%
%ADD57RoundRect,0.050000X0.400000X0.850000X-0.400000X0.850000X-0.400000X-0.850000X0.400000X-0.850000X0*%
%ADD58RoundRect,0.050000X0.400000X0.550000X-0.400000X0.550000X-0.400000X-0.550000X0.400000X-0.550000X0*%
%ADD59RoundRect,0.275000X0.500000X-0.275000X0.500000X0.275000X-0.500000X0.275000X-0.500000X-0.275000X0*%
%ADD60RoundRect,0.050000X1.075000X1.100000X-1.075000X1.100000X-1.075000X-1.100000X1.075000X-1.100000X0*%
%ADD61RoundRect,0.250000X-0.250000X-0.275000X0.250000X-0.275000X0.250000X0.275000X-0.250000X0.275000X0*%
%ADD62RoundRect,0.102000X0.550000X-0.650000X0.550000X0.650000X-0.550000X0.650000X-0.550000X-0.650000X0*%
%ADD63RoundRect,0.050000X-1.100000X-4.150000X1.100000X-4.150000X1.100000X4.150000X-1.100000X4.150000X0*%
%ADD64RoundRect,0.275000X0.275000X1.525000X-0.275000X1.525000X-0.275000X-1.525000X0.275000X-1.525000X0*%
%ADD65RoundRect,0.266667X0.533333X1.483333X-0.533333X1.483333X-0.533333X-1.483333X0.533333X-1.483333X0*%
%ADD66RoundRect,0.271739X-0.678261X0.353261X-0.678261X-0.353261X0.678261X-0.353261X0.678261X0.353261X0*%
%ADD67RoundRect,0.250000X0.275000X-0.250000X0.275000X0.250000X-0.275000X0.250000X-0.275000X-0.250000X0*%
%ADD68RoundRect,0.050000X0.500000X0.500000X-0.500000X0.500000X-0.500000X-0.500000X0.500000X-0.500000X0*%
%ADD69RoundRect,0.225000X0.300000X-0.225000X0.300000X0.225000X-0.300000X0.225000X-0.300000X-0.225000X0*%
%ADD70RoundRect,0.325000X-0.325000X-0.325000X0.325000X-0.325000X0.325000X0.325000X-0.325000X0.325000X0*%
%ADD71RoundRect,0.275000X1.525000X-0.275000X1.525000X0.275000X-1.525000X0.275000X-1.525000X-0.275000X0*%
%ADD72RoundRect,0.266667X1.483333X-0.533333X1.483333X0.533333X-1.483333X0.533333X-1.483333X-0.533333X0*%
%ADD73RoundRect,0.050000X-0.250000X-0.250000X0.250000X-0.250000X0.250000X0.250000X-0.250000X0.250000X0*%
%ADD74RoundRect,0.050000X1.600000X-0.300000X1.600000X0.300000X-1.600000X0.300000X-1.600000X-0.300000X0*%
%ADD75RoundRect,0.050000X-0.250000X-0.550000X0.250000X-0.550000X0.250000X0.550000X-0.250000X0.550000X0*%
%ADD76RoundRect,0.050000X-0.300000X-0.400000X0.300000X-0.400000X0.300000X0.400000X-0.300000X0.400000X0*%
%ADD77RoundRect,0.050000X2.205000X-1.875000X2.205000X1.875000X-2.205000X1.875000X-2.205000X-1.875000X0*%
%ADD78RoundRect,0.275000X-0.275000X-0.500000X0.275000X-0.500000X0.275000X0.500000X-0.275000X0.500000X0*%
%ADD79RoundRect,0.225000X-0.225000X-0.300000X0.225000X-0.300000X0.225000X0.300000X-0.225000X0.300000X0*%
%ADD80RoundRect,0.050000X0.850000X-0.850000X0.850000X0.850000X-0.850000X0.850000X-0.850000X-0.850000X0*%
%ADD81O,1.800000X1.800000*%
%ADD82RoundRect,0.050000X0.125000X0.350000X-0.125000X0.350000X-0.125000X-0.350000X0.125000X-0.350000X0*%
%ADD83RoundRect,0.050000X0.350000X-0.125000X0.350000X0.125000X-0.350000X0.125000X-0.350000X-0.125000X0*%
%ADD84RoundRect,0.050000X1.825000X-1.325000X1.825000X1.325000X-1.825000X1.325000X-1.825000X-1.325000X0*%
%ADD85RoundRect,0.200000X0.350000X-0.200000X0.350000X0.200000X-0.350000X0.200000X-0.350000X-0.200000X0*%
%ADD86RoundRect,0.175000X0.175000X-0.225000X0.175000X0.225000X-0.175000X0.225000X-0.175000X-0.225000X0*%
%ADD87RoundRect,0.212500X-0.337500X-0.212500X0.337500X-0.212500X0.337500X0.212500X-0.337500X0.212500X0*%
%ADD88FreePoly0,0.000000*%
%ADD89RoundRect,0.269231X0.480769X-0.430769X0.480769X0.430769X-0.480769X0.430769X-0.480769X-0.430769X0*%
%ADD90RoundRect,0.212500X0.337500X0.212500X-0.337500X0.212500X-0.337500X-0.212500X0.337500X-0.212500X0*%
%ADD91FreePoly0,180.000000*%
%ADD92RoundRect,0.175000X-0.175000X0.537500X-0.175000X-0.537500X0.175000X-0.537500X0.175000X0.537500X0*%
%ADD93RoundRect,0.075000X0.075000X-0.375000X0.075000X0.375000X-0.075000X0.375000X-0.075000X-0.375000X0*%
%ADD94RoundRect,0.075000X0.375000X-0.075000X0.375000X0.075000X-0.375000X0.075000X-0.375000X-0.075000X0*%
%ADD95RoundRect,0.050000X2.000000X-2.000000X2.000000X2.000000X-2.000000X2.000000X-2.000000X-2.000000X0*%
%ADD96RoundRect,0.050000X1.100000X-1.075000X1.100000X1.075000X-1.100000X1.075000X-1.100000X-1.075000X0*%
%ADD97RoundRect,0.271739X0.353261X0.678261X-0.353261X0.678261X-0.353261X-0.678261X0.353261X-0.678261X0*%
%ADD98RoundRect,0.320000X-0.480000X0.480000X-0.480000X-0.480000X0.480000X-0.480000X0.480000X0.480000X0*%
%ADD99RoundRect,0.320000X0.480000X0.480000X-0.480000X0.480000X-0.480000X-0.480000X0.480000X-0.480000X0*%
%ADD100RoundRect,0.270409X1.104591X-0.392091X1.104591X0.392091X-1.104591X0.392091X-1.104591X-0.392091X0*%
%ADD101RoundRect,0.212500X0.212500X-0.337500X0.212500X0.337500X-0.212500X0.337500X-0.212500X-0.337500X0*%
%ADD102FreePoly0,90.000000*%
%ADD103RoundRect,0.243750X0.406250X-0.243750X0.406250X0.243750X-0.406250X0.243750X-0.406250X-0.243750X0*%
%ADD104RoundRect,0.263158X0.736842X-1.861842X0.736842X1.861842X-0.736842X1.861842X-0.736842X-1.861842X0*%
%ADD105RoundRect,0.175000X0.225000X-0.175000X0.225000X0.175000X-0.225000X0.175000X-0.225000X-0.175000X0*%
%ADD106RoundRect,0.050000X-1.075000X-1.100000X1.075000X-1.100000X1.075000X1.100000X-1.075000X1.100000X0*%
%ADD107RoundRect,0.263158X-0.736842X1.861842X-0.736842X-1.861842X0.736842X-1.861842X0.736842X1.861842X0*%
%ADD108RoundRect,0.050000X0.712500X-0.150000X0.712500X0.150000X-0.712500X0.150000X-0.712500X-0.150000X0*%
%ADD109RoundRect,0.050000X-0.876500X-1.473500X0.876500X-1.473500X0.876500X1.473500X-0.876500X1.473500X0*%
%ADD110RoundRect,0.175000X-0.175000X0.425000X-0.175000X-0.425000X0.175000X-0.425000X0.175000X0.425000X0*%
%ADD111RoundRect,0.050000X-0.250000X0.250000X-0.250000X-0.250000X0.250000X-0.250000X0.250000X0.250000X0*%
%ADD112RoundRect,0.050000X-0.300000X-1.600000X0.300000X-1.600000X0.300000X1.600000X-0.300000X1.600000X0*%
%ADD113RoundRect,0.050000X-0.550000X0.250000X-0.550000X-0.250000X0.550000X-0.250000X0.550000X0.250000X0*%
%ADD114RoundRect,0.050000X-0.400000X0.300000X-0.400000X-0.300000X0.400000X-0.300000X0.400000X0.300000X0*%
%ADD115RoundRect,0.050000X-1.875000X-2.205000X1.875000X-2.205000X1.875000X2.205000X-1.875000X2.205000X0*%
%ADD116RoundRect,0.050000X-0.500000X-0.500000X0.500000X-0.500000X0.500000X0.500000X-0.500000X0.500000X0*%
%ADD117RoundRect,0.271739X-0.353261X-0.678261X0.353261X-0.678261X0.353261X0.678261X-0.353261X0.678261X0*%
%ADD118RoundRect,0.050000X0.325000X-0.175000X0.325000X0.175000X-0.325000X0.175000X-0.325000X-0.175000X0*%
%ADD119RoundRect,0.263158X1.861842X0.736842X-1.861842X0.736842X-1.861842X-0.736842X1.861842X-0.736842X0*%
%ADD120RoundRect,0.118750X-0.131250X0.118750X-0.131250X-0.118750X0.131250X-0.118750X0.131250X0.118750X0*%
%ADD121RoundRect,0.050000X-0.800000X0.500000X-0.800000X-0.500000X0.800000X-0.500000X0.800000X0.500000X0*%
%ADD122RoundRect,0.175000X-0.225000X0.175000X-0.225000X-0.175000X0.225000X-0.175000X0.225000X0.175000X0*%
%ADD123RoundRect,0.269231X0.430769X0.480769X-0.430769X0.480769X-0.430769X-0.480769X0.430769X-0.480769X0*%
%ADD124RoundRect,0.270000X-0.405000X-0.655000X0.405000X-0.655000X0.405000X0.655000X-0.405000X0.655000X0*%
%ADD125C,1.100000*%
%ADD126RoundRect,0.300000X-0.375000X-0.300000X0.375000X-0.300000X0.375000X0.300000X-0.375000X0.300000X0*%
%ADD127RoundRect,0.593750X0.593750X-0.831250X0.593750X0.831250X-0.593750X0.831250X-0.593750X-0.831250X0*%
%ADD128RoundRect,0.643750X0.643750X-0.781250X0.643750X0.781250X-0.643750X0.781250X-0.643750X-0.781250X0*%
%ADD129RoundRect,0.593750X0.593750X-0.781250X0.593750X0.781250X-0.593750X0.781250X-0.593750X-0.781250X0*%
%ADD130RoundRect,0.643750X0.643750X-0.731250X0.643750X0.731250X-0.643750X0.731250X-0.643750X-0.731250X0*%
%ADD131RoundRect,0.050000X0.500000X1.350000X-0.500000X1.350000X-0.500000X-1.350000X0.500000X-1.350000X0*%
G04 APERTURE END LIST*
D10*
G04 #@! TO.C,J1004*
X93120000Y60300000D02*
X91870000Y60300000D01*
X91870000Y61000000D01*
X93120000Y61000000D01*
X93120000Y60300000D01*
G36*
X93120000Y60300000D02*
G01*
X91870000Y60300000D01*
X91870000Y61000000D01*
X93120000Y61000000D01*
X93120000Y60300000D01*
G37*
X93120000Y59500000D02*
X91870000Y59500000D01*
X91870000Y60200000D01*
X93120000Y60200000D01*
X93120000Y59500000D01*
G36*
X93120000Y59500000D02*
G01*
X91870000Y59500000D01*
X91870000Y60200000D01*
X93120000Y60200000D01*
X93120000Y59500000D01*
G37*
X93120000Y59000000D02*
X91870000Y59000000D01*
X91870000Y59400000D01*
X93120000Y59400000D01*
X93120000Y59000000D01*
G36*
X93120000Y59000000D02*
G01*
X91870000Y59000000D01*
X91870000Y59400000D01*
X93120000Y59400000D01*
X93120000Y59000000D01*
G37*
X93120000Y58500000D02*
X91870000Y58500000D01*
X91870000Y58900000D01*
X93120000Y58900000D01*
X93120000Y58500000D01*
G36*
X93120000Y58500000D02*
G01*
X91870000Y58500000D01*
X91870000Y58900000D01*
X93120000Y58900000D01*
X93120000Y58500000D01*
G37*
X93120000Y58000000D02*
X91870000Y58000000D01*
X91870000Y58400000D01*
X93120000Y58400000D01*
X93120000Y58000000D01*
G36*
X93120000Y58000000D02*
G01*
X91870000Y58000000D01*
X91870000Y58400000D01*
X93120000Y58400000D01*
X93120000Y58000000D01*
G37*
X93120000Y57500000D02*
X91870000Y57500000D01*
X91870000Y57900000D01*
X93120000Y57900000D01*
X93120000Y57500000D01*
G36*
X93120000Y57500000D02*
G01*
X91870000Y57500000D01*
X91870000Y57900000D01*
X93120000Y57900000D01*
X93120000Y57500000D01*
G37*
X93120000Y57000000D02*
X91870000Y57000000D01*
X91870000Y57400000D01*
X93120000Y57400000D01*
X93120000Y57000000D01*
G36*
X93120000Y57000000D02*
G01*
X91870000Y57000000D01*
X91870000Y57400000D01*
X93120000Y57400000D01*
X93120000Y57000000D01*
G37*
X93120000Y56500000D02*
X91870000Y56500000D01*
X91870000Y56900000D01*
X93120000Y56900000D01*
X93120000Y56500000D01*
G36*
X93120000Y56500000D02*
G01*
X91870000Y56500000D01*
X91870000Y56900000D01*
X93120000Y56900000D01*
X93120000Y56500000D01*
G37*
X93120000Y56000000D02*
X91870000Y56000000D01*
X91870000Y56400000D01*
X93120000Y56400000D01*
X93120000Y56000000D01*
G36*
X93120000Y56000000D02*
G01*
X91870000Y56000000D01*
X91870000Y56400000D01*
X93120000Y56400000D01*
X93120000Y56000000D01*
G37*
X93120000Y55500000D02*
X91870000Y55500000D01*
X91870000Y55900000D01*
X93120000Y55900000D01*
X93120000Y55500000D01*
G36*
X93120000Y55500000D02*
G01*
X91870000Y55500000D01*
X91870000Y55900000D01*
X93120000Y55900000D01*
X93120000Y55500000D01*
G37*
X93120000Y54700000D02*
X91870000Y54700000D01*
X91870000Y55400000D01*
X93120000Y55400000D01*
X93120000Y54700000D01*
G36*
X93120000Y54700000D02*
G01*
X91870000Y54700000D01*
X91870000Y55400000D01*
X93120000Y55400000D01*
X93120000Y54700000D01*
G37*
X93120000Y53900000D02*
X91870000Y53900000D01*
X91870000Y54600000D01*
X93120000Y54600000D01*
X93120000Y53900000D01*
G36*
X93120000Y53900000D02*
G01*
X91870000Y53900000D01*
X91870000Y54600000D01*
X93120000Y54600000D01*
X93120000Y53900000D01*
G37*
G04 #@! TD*
D11*
G04 #@! TO.C,IC901*
X6962500Y8750000D03*
X6962500Y8250000D03*
X6962500Y7750000D03*
X5537500Y7750000D03*
X5537500Y8250000D03*
X5537500Y8750000D03*
G04 #@! TD*
D12*
G04 #@! TO.C,TP702*
X23472646Y34741750D03*
G04 #@! TD*
G04 #@! TO.C,TP812*
X66275000Y48000000D03*
G04 #@! TD*
G04 #@! TO.C,TP809*
X48550000Y24600000D03*
G04 #@! TD*
D13*
G04 #@! TO.C,TP719*
X19750000Y46950000D03*
G04 #@! TD*
D14*
G04 #@! TO.C,R1004*
X89765000Y60750000D03*
X90785000Y60750000D03*
G04 #@! TD*
D15*
G04 #@! TO.C,C812*
X53525000Y32275000D03*
X53525000Y30725000D03*
G04 #@! TD*
D16*
G04 #@! TO.C,R818*
X60700000Y39612500D03*
X60700000Y37787500D03*
G04 #@! TD*
D17*
G04 #@! TO.C,TP1004*
X64900000Y12300000D03*
G04 #@! TD*
D18*
G04 #@! TO.C,Q1101*
X83650000Y63962500D03*
X85550000Y63962500D03*
X84600000Y66237500D03*
G04 #@! TD*
D19*
G04 #@! TO.C,C614*
X91650000Y24750000D03*
X89750000Y24750000D03*
G04 #@! TD*
D20*
G04 #@! TO.C,FM1202*
X50000000Y5000000D03*
G04 #@! TD*
D21*
G04 #@! TO.C,R701*
X27712500Y12100000D03*
X23087500Y12100000D03*
G04 #@! TD*
D17*
G04 #@! TO.C,TP1001*
X99400707Y50999293D03*
G04 #@! TD*
D22*
G04 #@! TO.C,C409*
X72095000Y53800000D03*
X73055000Y53800000D03*
G04 #@! TD*
D17*
G04 #@! TO.C,TP716*
X26200000Y26600000D03*
G04 #@! TD*
D23*
G04 #@! TO.C,C410*
X73055000Y59000000D03*
X72095000Y59000000D03*
G04 #@! TD*
D24*
G04 #@! TO.C,R721*
X37300000Y22390001D03*
X37300000Y23409999D03*
G04 #@! TD*
D14*
G04 #@! TO.C,R825*
X59540000Y28050000D03*
X60560000Y28050000D03*
G04 #@! TD*
D25*
G04 #@! TO.C,R718*
X89250000Y19759999D03*
X89250000Y18740001D03*
G04 #@! TD*
D26*
G04 #@! TO.C,C704*
X24600000Y1275000D03*
X24600000Y4225000D03*
G04 #@! TD*
D25*
G04 #@! TO.C,R402*
X68025000Y59010000D03*
X68025000Y57990000D03*
G04 #@! TD*
D27*
G04 #@! TO.C,J504*
X74445000Y15701043D03*
X81645000Y15701043D03*
D28*
X71295000Y9701043D03*
X84795000Y9701043D03*
G04 #@! TD*
D29*
G04 #@! TO.C,J503*
X15350000Y51350000D03*
X15350000Y58550000D03*
D30*
X9350000Y48200000D03*
X9350000Y61700000D03*
G04 #@! TD*
D31*
G04 #@! TO.C,R707*
X29960000Y33400000D03*
X28940000Y33400000D03*
G04 #@! TD*
D32*
G04 #@! TO.C,R817*
X61987500Y30150000D03*
X63812500Y30150000D03*
G04 #@! TD*
D33*
G04 #@! TO.C,Q901*
X62262500Y15550000D03*
X62262500Y13650000D03*
X64537500Y14600000D03*
G04 #@! TD*
D34*
G04 #@! TO.C,D504*
X79950000Y20250000D03*
X75550000Y20250000D03*
G04 #@! TD*
D35*
G04 #@! TO.C,J1004*
X93570000Y54560000D03*
X93570000Y60340000D03*
D36*
X93070000Y53130000D03*
X93070000Y61770000D03*
D37*
X97250000Y53130000D03*
X97250000Y61770000D03*
G04 #@! TD*
D38*
G04 #@! TO.C,L402*
X74750000Y54600000D03*
X75600000Y54600000D03*
G04 #@! TD*
D22*
G04 #@! TO.C,C407*
X85025000Y56250000D03*
X85985000Y56250000D03*
G04 #@! TD*
D14*
G04 #@! TO.C,R605*
X94840000Y40000000D03*
X95860000Y40000000D03*
G04 #@! TD*
D20*
G04 #@! TO.C,FM1203*
X98000000Y50250000D03*
G04 #@! TD*
D39*
G04 #@! TO.C,U901*
X9500000Y4712500D03*
X9000000Y4712501D03*
X8500000Y4712500D03*
X8500000Y3287500D03*
X9500000Y3287500D03*
G04 #@! TD*
D17*
G04 #@! TO.C,TP602*
X86450000Y29450000D03*
G04 #@! TD*
G04 #@! TO.C,TP711*
X33700000Y21350000D03*
G04 #@! TD*
D40*
G04 #@! TO.C,R805*
X53812500Y24450000D03*
X56737500Y24450000D03*
G04 #@! TD*
D41*
G04 #@! TO.C,C803*
X60200000Y45220000D03*
X60200000Y46180000D03*
G04 #@! TD*
D20*
G04 #@! TO.C,FM1201*
X2000000Y50000000D03*
G04 #@! TD*
D42*
G04 #@! TO.C,C814*
X50800000Y42600000D03*
X49250000Y42600000D03*
G04 #@! TD*
D25*
G04 #@! TO.C,R823*
X53775000Y29510000D03*
X53775000Y28490000D03*
G04 #@! TD*
D43*
G04 #@! TO.C,C714*
X23900000Y15180000D03*
X23900000Y14220000D03*
G04 #@! TD*
D44*
G04 #@! TO.C,U701*
X29962500Y18575000D03*
X29962500Y19075000D03*
X29962500Y19575000D03*
X29962500Y20075000D03*
X29962500Y20575000D03*
X29962500Y21075000D03*
X29962500Y21575000D03*
X29962500Y22075000D03*
X29962500Y22575000D03*
X29962500Y23075000D03*
D45*
X29275000Y23762500D03*
X28775000Y23762500D03*
X28275000Y23762500D03*
X27775000Y23762500D03*
X27275000Y23762500D03*
X26775000Y23762500D03*
X26275000Y23762500D03*
X25775000Y23762500D03*
D44*
X25087500Y23075000D03*
X25087500Y22575000D03*
X25087500Y22075000D03*
X25087500Y21575000D03*
X25087500Y21075000D03*
X25087500Y20575000D03*
X25087500Y20075000D03*
X25087500Y19575000D03*
X25087500Y19075000D03*
X25087500Y18575000D03*
D45*
X25775000Y17887500D03*
X26275000Y17887500D03*
X26775000Y17887500D03*
X27275000Y17887500D03*
X27775000Y17887500D03*
X28275000Y17887500D03*
X28775000Y17887500D03*
X29275000Y17887500D03*
D46*
X27525000Y20825000D03*
G04 #@! TD*
D23*
G04 #@! TO.C,C715*
X27560000Y25200000D03*
X26600000Y25200000D03*
G04 #@! TD*
D17*
G04 #@! TO.C,TP802*
X52775000Y34501000D03*
G04 #@! TD*
D31*
G04 #@! TO.C,R1001*
X71609999Y66200000D03*
X70590001Y66200000D03*
G04 #@! TD*
D17*
G04 #@! TO.C,TP401*
X38850000Y23600000D03*
G04 #@! TD*
G04 #@! TO.C,TP710*
X33700000Y20200000D03*
G04 #@! TD*
G04 #@! TO.C,TP412*
X79999175Y51496127D03*
G04 #@! TD*
D14*
G04 #@! TO.C,R606*
X94790000Y45550000D03*
X95810000Y45550000D03*
G04 #@! TD*
D47*
G04 #@! TO.C,R1008*
X65810624Y62460624D03*
X65089376Y61739376D03*
G04 #@! TD*
D48*
G04 #@! TO.C,IC803*
X52825000Y35750000D03*
X53775000Y35750000D03*
X54725000Y35750000D03*
X54725000Y38250000D03*
X53775000Y38250000D03*
X52825000Y38250000D03*
G04 #@! TD*
D24*
G04 #@! TO.C,R405*
X69300000Y58990001D03*
X69300000Y60009999D03*
G04 #@! TD*
D14*
G04 #@! TO.C,R604*
X94840000Y42000000D03*
X95860000Y42000000D03*
G04 #@! TD*
D49*
G04 #@! TO.C,C708*
X32025000Y38400000D03*
X38975000Y38400000D03*
G04 #@! TD*
D17*
G04 #@! TO.C,TP605*
X90700000Y38750000D03*
G04 #@! TD*
G04 #@! TO.C,TP705*
X27000000Y26000000D03*
G04 #@! TD*
G04 #@! TO.C,TP707*
X23700000Y22725000D03*
G04 #@! TD*
D50*
G04 #@! TO.C,R704*
X25425000Y25700000D03*
X23775000Y25700000D03*
G04 #@! TD*
D22*
G04 #@! TO.C,C1001*
X87815000Y55500000D03*
X88775000Y55500000D03*
G04 #@! TD*
D17*
G04 #@! TO.C,TP604*
X92775000Y39610000D03*
G04 #@! TD*
D51*
G04 #@! TO.C,R811*
X52275000Y26500000D03*
X52275000Y28500000D03*
G04 #@! TD*
D52*
G04 #@! TO.C,TP811*
X39750000Y56250000D03*
G04 #@! TD*
D17*
G04 #@! TO.C,TP709*
X25700000Y24700000D03*
G04 #@! TD*
D31*
G04 #@! TO.C,R708*
X29960000Y34400000D03*
X28940000Y34400000D03*
G04 #@! TD*
D53*
G04 #@! TO.C,H1203*
X93850000Y3947056D03*
X94552944Y5644112D03*
X94552944Y2250000D03*
X96250000Y6347056D03*
D54*
X96250000Y3947056D03*
D53*
X96250000Y1547056D03*
X97947056Y5644112D03*
X97947056Y2250000D03*
X98650000Y3947056D03*
G04 #@! TD*
D55*
G04 #@! TO.C,R803*
X67162500Y28500000D03*
X65337500Y28500000D03*
G04 #@! TD*
D22*
G04 #@! TO.C,C807*
X56120000Y38700000D03*
X57080000Y38700000D03*
G04 #@! TD*
D31*
G04 #@! TO.C,R810*
X90109999Y10800000D03*
X89090001Y10800000D03*
G04 #@! TD*
D17*
G04 #@! TO.C,TP807*
X63600000Y36200000D03*
G04 #@! TD*
D50*
G04 #@! TO.C,R712*
X28825000Y16400000D03*
X27175000Y16400000D03*
G04 #@! TD*
D43*
G04 #@! TO.C,C810*
X51500000Y38880000D03*
X51500000Y37920000D03*
G04 #@! TD*
D25*
G04 #@! TO.C,R706*
X24900000Y15210000D03*
X24900000Y14190000D03*
G04 #@! TD*
G04 #@! TO.C,R401*
X66775000Y59010000D03*
X66775000Y57990000D03*
G04 #@! TD*
D27*
G04 #@! TO.C,J501*
X55951394Y15720000D03*
X48751394Y15720000D03*
D28*
X59101394Y9720000D03*
X45601394Y9720000D03*
G04 #@! TD*
D53*
G04 #@! TO.C,H1202*
X1362500Y4000000D03*
X2065444Y5697056D03*
X2065444Y2302944D03*
X3762500Y6400000D03*
D54*
X3762500Y4000000D03*
D53*
X3762500Y1600000D03*
X5459556Y5697056D03*
X5459556Y2302944D03*
X6162500Y4000000D03*
G04 #@! TD*
D56*
G04 #@! TO.C,S402*
X88525000Y49000000D03*
D57*
X86825000Y49000000D03*
X90225000Y49000000D03*
D58*
X88525000Y50650000D03*
G04 #@! TD*
D59*
G04 #@! TO.C,C720*
X21900000Y23750000D03*
X21900000Y25650000D03*
G04 #@! TD*
D17*
G04 #@! TO.C,TP404*
X83775000Y60750000D03*
G04 #@! TD*
D31*
G04 #@! TO.C,R901*
X8259999Y6250000D03*
X7240001Y6250000D03*
G04 #@! TD*
D14*
G04 #@! TO.C,R1003*
X89765000Y55500000D03*
X90785000Y55500000D03*
G04 #@! TD*
D60*
G04 #@! TO.C,D502*
X20000000Y36800000D03*
X20000000Y41200000D03*
G04 #@! TD*
D17*
G04 #@! TO.C,TP706*
X23400000Y19850000D03*
G04 #@! TD*
D61*
G04 #@! TO.C,C1202*
X96975000Y10000000D03*
X98525000Y10000000D03*
G04 #@! TD*
D14*
G04 #@! TO.C,R611*
X96340000Y27950000D03*
X97360000Y27950000D03*
G04 #@! TD*
D62*
G04 #@! TO.C,Y401*
X73425000Y55287500D03*
X73425000Y57587500D03*
X71525000Y57587500D03*
X71525000Y55287500D03*
G04 #@! TD*
D63*
G04 #@! TO.C,L701*
X17825000Y21700000D03*
X11175000Y21700000D03*
G04 #@! TD*
D64*
G04 #@! TO.C,J1001*
X57100000Y62300000D03*
X55100000Y62300000D03*
X53100000Y62300000D03*
X51100000Y62300000D03*
D65*
X59450000Y68050000D03*
X48750000Y68050000D03*
G04 #@! TD*
D66*
G04 #@! TO.C,C611*
X97900000Y35500000D03*
X97900000Y32550000D03*
G04 #@! TD*
D42*
G04 #@! TO.C,C401*
X82800000Y62250000D03*
X81250000Y62250000D03*
G04 #@! TD*
D67*
G04 #@! TO.C,C1203*
X8000000Y67000000D03*
X8000000Y68550000D03*
G04 #@! TD*
D17*
G04 #@! TO.C,TP717*
X34300000Y17300000D03*
G04 #@! TD*
D23*
G04 #@! TO.C,C709*
X25880000Y16200000D03*
X24920000Y16200000D03*
G04 #@! TD*
D68*
G04 #@! TO.C,FB602*
X99150000Y37525000D03*
X96950000Y37525000D03*
G04 #@! TD*
D24*
G04 #@! TO.C,R408*
X85500000Y47190000D03*
X85500000Y48210000D03*
G04 #@! TD*
D69*
G04 #@! TO.C,R709*
X10100000Y6775000D03*
X10100000Y8425000D03*
G04 #@! TD*
D17*
G04 #@! TO.C,TP803*
X71425000Y32650000D03*
G04 #@! TD*
D23*
G04 #@! TO.C,C801*
X54680000Y39900000D03*
X53720000Y39900000D03*
G04 #@! TD*
D31*
G04 #@! TO.C,R824*
X50700000Y41300000D03*
X49680002Y41300000D03*
G04 #@! TD*
D70*
G04 #@! TO.C,LED702*
X35150000Y18800000D03*
X37250000Y18800000D03*
G04 #@! TD*
D17*
G04 #@! TO.C,TP414*
X70775000Y60750000D03*
G04 #@! TD*
D71*
G04 #@! TO.C,J701*
X92050000Y17750000D03*
X92050000Y19750000D03*
D72*
X97800000Y15400000D03*
X97800000Y22100000D03*
G04 #@! TD*
D24*
G04 #@! TO.C,R804*
X68703836Y16240001D03*
X68703836Y17259999D03*
G04 #@! TD*
D50*
G04 #@! TO.C,R1201*
X92125000Y63700000D03*
X90475000Y63700000D03*
G04 #@! TD*
D25*
G04 #@! TO.C,R801*
X66300000Y8219998D03*
X66300000Y7200000D03*
G04 #@! TD*
D73*
G04 #@! TO.C,Q704*
X3460000Y15400000D03*
D74*
X4650000Y15950000D03*
D73*
X4730000Y15400000D03*
X6000000Y15400000D03*
D75*
X7270000Y15700000D03*
D76*
X3460000Y21400000D03*
X4730000Y21400000D03*
D77*
X5365000Y19125000D03*
D76*
X6000000Y21400000D03*
X7270000Y21400000D03*
G04 #@! TD*
D78*
G04 #@! TO.C,C612*
X96675000Y30450000D03*
X98575000Y30450000D03*
G04 #@! TD*
D67*
G04 #@! TO.C,C404*
X75750000Y49975000D03*
X75750000Y51525000D03*
G04 #@! TD*
D17*
G04 #@! TO.C,TP808*
X53121322Y33247080D03*
G04 #@! TD*
D79*
G04 #@! TO.C,R1202*
X96925000Y8500000D03*
X98575000Y8500000D03*
G04 #@! TD*
G04 #@! TO.C,R607*
X94325000Y34275000D03*
X95975000Y34275000D03*
G04 #@! TD*
D14*
G04 #@! TO.C,R814*
X49665001Y40250000D03*
X50684999Y40250000D03*
G04 #@! TD*
D80*
G04 #@! TO.C,J1003*
X64520001Y68800000D03*
D81*
X67060001Y68800000D03*
X69600000Y68800000D03*
X72140001Y68800000D03*
G04 #@! TD*
D15*
G04 #@! TO.C,C411*
X74275000Y53275000D03*
X74275000Y51725000D03*
G04 #@! TD*
D17*
G04 #@! TO.C,TP703*
X23500000Y7750000D03*
G04 #@! TD*
G04 #@! TO.C,TP801*
X71275000Y23250000D03*
G04 #@! TD*
D22*
G04 #@! TO.C,C806*
X56720000Y28000000D03*
X57680000Y28000000D03*
G04 #@! TD*
D17*
G04 #@! TO.C,TP701*
X27000000Y28750000D03*
G04 #@! TD*
D82*
G04 #@! TO.C,IC601*
X90950000Y26850000D03*
X91450000Y26850000D03*
X91950000Y26850000D03*
X92450000Y26850000D03*
X92950000Y26850000D03*
X93450000Y26850000D03*
X93950000Y26850000D03*
X94450000Y26850000D03*
D83*
X95100000Y27500000D03*
X95100000Y28000000D03*
X95100000Y28500000D03*
X95100000Y29000000D03*
X95100000Y29500000D03*
X95100000Y30000000D03*
D82*
X94450000Y30650000D03*
X93950000Y30650000D03*
X93450000Y30650000D03*
X92950000Y30650000D03*
X92450000Y30650000D03*
X91950000Y30650000D03*
X91450000Y30650000D03*
X90950000Y30650000D03*
D83*
X90300000Y30000000D03*
X90300000Y29500000D03*
X90300000Y29000000D03*
X90300000Y28500000D03*
X90300000Y28000000D03*
X90300000Y27500000D03*
D84*
X92700000Y28750000D03*
G04 #@! TD*
D61*
G04 #@! TO.C,C811*
X56500000Y34250000D03*
X58050000Y34250000D03*
G04 #@! TD*
D85*
G04 #@! TO.C,D1002*
X88575000Y56950000D03*
D86*
X90275000Y56950000D03*
X90275000Y58950000D03*
X88375000Y58950000D03*
G04 #@! TD*
D14*
G04 #@! TO.C,R808*
X89090001Y11900000D03*
X90109999Y11900000D03*
G04 #@! TD*
D55*
G04 #@! TO.C,R809*
X64012500Y37800000D03*
X62187500Y37800000D03*
G04 #@! TD*
D17*
G04 #@! TO.C,TP413*
X31550000Y21200000D03*
G04 #@! TD*
D87*
G04 #@! TO.C,Q803*
X74907750Y27405000D03*
X74907750Y26135000D03*
X74907750Y24865000D03*
X74907750Y23595000D03*
D88*
X78400000Y25500000D03*
G04 #@! TD*
D89*
G04 #@! TO.C,D701*
X22000000Y15700000D03*
X22000000Y18600000D03*
G04 #@! TD*
D14*
G04 #@! TO.C,R711*
X32190000Y24600000D03*
X33210000Y24600000D03*
G04 #@! TD*
D40*
G04 #@! TO.C,R807*
X59787500Y50250000D03*
X62712500Y50250000D03*
G04 #@! TD*
D25*
G04 #@! TO.C,R1007*
X62600000Y65709999D03*
X62600000Y64690001D03*
G04 #@! TD*
D41*
G04 #@! TO.C,C405*
X76950000Y49770000D03*
X76950000Y50730000D03*
G04 #@! TD*
D43*
G04 #@! TO.C,C713*
X26900000Y15180000D03*
X26900000Y14220000D03*
G04 #@! TD*
D14*
G04 #@! TO.C,R717*
X32190000Y23600000D03*
X33210000Y23600000D03*
G04 #@! TD*
D24*
G04 #@! TO.C,R713*
X31200000Y23640000D03*
X31200000Y24660000D03*
G04 #@! TD*
D14*
G04 #@! TO.C,R812*
X51790000Y39900000D03*
X52810000Y39900000D03*
G04 #@! TD*
D90*
G04 #@! TO.C,Q802*
X66322250Y22690000D03*
X66322250Y23960000D03*
X66322250Y25230000D03*
X66322250Y26500000D03*
D91*
X62830000Y24595000D03*
G04 #@! TD*
D43*
G04 #@! TO.C,C711*
X23900000Y24480000D03*
X23900000Y23520000D03*
G04 #@! TD*
D14*
G04 #@! TO.C,R1005*
X86015000Y57450000D03*
X87035000Y57450000D03*
G04 #@! TD*
D24*
G04 #@! TO.C,R822*
X51775000Y32240000D03*
X51775000Y33260000D03*
G04 #@! TD*
D25*
G04 #@! TO.C,R806*
X91800000Y4819998D03*
X91800000Y3800000D03*
G04 #@! TD*
D79*
G04 #@! TO.C,R609*
X96575000Y26700000D03*
X98225000Y26700000D03*
G04 #@! TD*
D14*
G04 #@! TO.C,R1102*
X84015000Y62000000D03*
X85035000Y62000000D03*
G04 #@! TD*
D92*
G04 #@! TO.C,Q801*
X68200000Y14637500D03*
X66300000Y14637500D03*
X67250000Y12362500D03*
G04 #@! TD*
D17*
G04 #@! TO.C,TP712*
X31150000Y21900000D03*
G04 #@! TD*
D14*
G04 #@! TO.C,R715*
X31190000Y17400000D03*
X32210000Y17400000D03*
G04 #@! TD*
D41*
G04 #@! TO.C,C413*
X79625000Y48520000D03*
X79625000Y49480000D03*
G04 #@! TD*
D93*
G04 #@! TO.C,U401*
X77675000Y52900000D03*
X78075000Y52900000D03*
X78475000Y52900000D03*
X78875000Y52900000D03*
X79275000Y52900000D03*
X79675000Y52900000D03*
X80075000Y52900000D03*
X80475000Y52900000D03*
X80875000Y52900000D03*
X81275000Y52900000D03*
X81675000Y52900000D03*
X82075000Y52900000D03*
X82475000Y52900000D03*
X82875000Y52900000D03*
D94*
X83725000Y53750000D03*
X83725000Y54150000D03*
X83725000Y54550000D03*
X83725000Y54950000D03*
X83725000Y55350000D03*
X83725000Y55750000D03*
X83725000Y56150000D03*
X83725000Y56550000D03*
X83725000Y56950000D03*
X83725000Y57350000D03*
X83725000Y57750000D03*
X83725000Y58150000D03*
X83725000Y58550000D03*
X83725000Y58950000D03*
D93*
X82875000Y59800000D03*
X82475000Y59800000D03*
X82075000Y59800000D03*
X81675000Y59800000D03*
X81275000Y59800000D03*
X80875000Y59800000D03*
X80475000Y59800000D03*
X80075000Y59800000D03*
X79675000Y59800000D03*
X79275000Y59800000D03*
X78875000Y59800000D03*
X78475000Y59800000D03*
X78075000Y59800000D03*
X77675000Y59800000D03*
D94*
X76825000Y58950000D03*
X76825000Y58550000D03*
X76825000Y58150000D03*
X76825000Y57750000D03*
X76825000Y57350000D03*
X76825000Y56950000D03*
X76825000Y56550000D03*
X76825000Y56150000D03*
X76825000Y55750000D03*
X76825000Y55350000D03*
X76825000Y54950000D03*
X76825000Y54550000D03*
X76825000Y54150000D03*
X76825000Y53750000D03*
D95*
X80275000Y56350000D03*
G04 #@! TD*
D24*
G04 #@! TO.C,R719*
X33589973Y18414138D03*
X33589973Y19434136D03*
G04 #@! TD*
D17*
G04 #@! TO.C,TP405*
X95275000Y46750000D03*
G04 #@! TD*
D22*
G04 #@! TO.C,C716*
X28500000Y25200000D03*
X29460000Y25200000D03*
G04 #@! TD*
D17*
G04 #@! TO.C,TP713*
X20400000Y22700000D03*
G04 #@! TD*
D61*
G04 #@! TO.C,C608*
X91350000Y35800000D03*
X92900000Y35800000D03*
G04 #@! TD*
D22*
G04 #@! TO.C,C602*
X94095000Y31950000D03*
X95055000Y31950000D03*
G04 #@! TD*
D96*
G04 #@! TO.C,D501*
X50050000Y20500000D03*
X54450000Y20500000D03*
G04 #@! TD*
D23*
G04 #@! TO.C,C406*
X77985000Y51750000D03*
X77025000Y51750000D03*
G04 #@! TD*
D97*
G04 #@! TO.C,C403*
X76275000Y48100000D03*
X73325000Y48100000D03*
G04 #@! TD*
D23*
G04 #@! TO.C,C601*
X91405000Y31950000D03*
X90445000Y31950000D03*
G04 #@! TD*
D17*
G04 #@! TO.C,TP408*
X96275000Y46750000D03*
G04 #@! TD*
G04 #@! TO.C,TP816*
X58775000Y24500000D03*
G04 #@! TD*
D14*
G04 #@! TO.C,R1101*
X87765000Y64250000D03*
X88785000Y64250000D03*
G04 #@! TD*
D69*
G04 #@! TO.C,R1203*
X9500000Y66940000D03*
X9500000Y68590000D03*
G04 #@! TD*
D98*
G04 #@! TO.C,LED801*
X66300000Y5150000D03*
X66300000Y1650000D03*
G04 #@! TD*
D99*
G04 #@! TO.C,LED601*
X91000000Y41215000D03*
X87500000Y41215000D03*
G04 #@! TD*
D31*
G04 #@! TO.C,R601*
X91435000Y33100000D03*
X90415000Y33100000D03*
G04 #@! TD*
D23*
G04 #@! TO.C,C402*
X82505000Y61000000D03*
X81545000Y61000000D03*
G04 #@! TD*
D43*
G04 #@! TO.C,C808*
X42275000Y27730000D03*
X42275000Y26770000D03*
G04 #@! TD*
D17*
G04 #@! TO.C,TP718*
X20500000Y19450000D03*
G04 #@! TD*
D92*
G04 #@! TO.C,Q806*
X91200001Y9337500D03*
X89300001Y9337500D03*
X90250001Y7062500D03*
G04 #@! TD*
D22*
G04 #@! TO.C,C718*
X29970000Y16400000D03*
X30930000Y16400000D03*
G04 #@! TD*
D43*
G04 #@! TO.C,C613*
X88950000Y27980000D03*
X88950000Y27020000D03*
G04 #@! TD*
D69*
G04 #@! TO.C,R703*
X12250000Y6775000D03*
X12250000Y8425000D03*
G04 #@! TD*
D53*
G04 #@! TO.C,H1201*
X93850000Y66500000D03*
X94552944Y68197056D03*
X94552944Y64802944D03*
X96250000Y68900000D03*
D54*
X96250000Y66500000D03*
D53*
X96250000Y64100000D03*
X97947056Y68197056D03*
X97947056Y64802944D03*
X98650000Y66500000D03*
G04 #@! TD*
D41*
G04 #@! TO.C,C712*
X30900000Y33450000D03*
X30900000Y34410000D03*
G04 #@! TD*
D100*
G04 #@! TO.C,R702*
X26900000Y31637500D03*
X26900000Y36262500D03*
G04 #@! TD*
D23*
G04 #@! TO.C,C606*
X88880000Y29100000D03*
X87920000Y29100000D03*
G04 #@! TD*
G04 #@! TO.C,C802*
X60660000Y34000000D03*
X59700000Y34000000D03*
G04 #@! TD*
D19*
G04 #@! TO.C,C610*
X99200000Y39500000D03*
X97300000Y39500000D03*
G04 #@! TD*
D17*
G04 #@! TO.C,TP714*
X24094000Y20700000D03*
G04 #@! TD*
D23*
G04 #@! TO.C,C607*
X95055000Y32975000D03*
X94095000Y32975000D03*
G04 #@! TD*
D41*
G04 #@! TO.C,C408*
X75525000Y58520000D03*
X75525000Y59480000D03*
G04 #@! TD*
D17*
G04 #@! TO.C,TP813*
X57375000Y37400000D03*
G04 #@! TD*
D101*
G04 #@! TO.C,Q804*
X65740000Y37000001D03*
X67010000Y37000001D03*
X68280000Y37000001D03*
X69550000Y37000001D03*
D102*
X67645000Y40492251D03*
G04 #@! TD*
D25*
G04 #@! TO.C,R802*
X67603836Y17259999D03*
X67603836Y16240001D03*
G04 #@! TD*
D103*
G04 #@! TO.C,L601*
X92750000Y32187500D03*
X92750000Y34312500D03*
G04 #@! TD*
D42*
G04 #@! TO.C,C609*
X95925000Y35800000D03*
X94375000Y35800000D03*
G04 #@! TD*
D17*
G04 #@! TO.C,TP810*
X52000776Y43396800D03*
G04 #@! TD*
D104*
G04 #@! TO.C,C707*
X26700000Y41025000D03*
X26700000Y47975000D03*
G04 #@! TD*
D17*
G04 #@! TO.C,TP415*
X85550000Y51750000D03*
G04 #@! TD*
D29*
G04 #@! TO.C,J502*
X15350000Y42500000D03*
X15350000Y35300000D03*
D30*
X9350000Y45650000D03*
X9350000Y32150000D03*
G04 #@! TD*
D56*
G04 #@! TO.C,S401*
X82525000Y49000000D03*
D57*
X80825000Y49000000D03*
X84225000Y49000000D03*
D58*
X82525000Y50650000D03*
G04 #@! TD*
D31*
G04 #@! TO.C,R602*
X88759999Y44200000D03*
X87740001Y44200000D03*
G04 #@! TD*
D41*
G04 #@! TO.C,C901*
X8250000Y7770000D03*
X8250000Y8730000D03*
G04 #@! TD*
D101*
G04 #@! TO.C,Q805*
X72095000Y37007749D03*
X73365000Y37007749D03*
X74635000Y37007749D03*
X75905000Y37007749D03*
D102*
X74000000Y40499999D03*
G04 #@! TD*
D61*
G04 #@! TO.C,C805*
X59875000Y43900000D03*
X61425000Y43900000D03*
G04 #@! TD*
D17*
G04 #@! TO.C,TP410*
X79525000Y62000000D03*
G04 #@! TD*
G04 #@! TO.C,TP409*
X79515000Y63501000D03*
G04 #@! TD*
D25*
G04 #@! TO.C,R705*
X25900000Y15200000D03*
X25900000Y14180000D03*
G04 #@! TD*
D105*
G04 #@! TO.C,D803*
X60800000Y42500000D03*
X60800000Y41100000D03*
G04 #@! TD*
D106*
G04 #@! TO.C,D503*
X20000000Y57450000D03*
X20000000Y53050000D03*
G04 #@! TD*
D16*
G04 #@! TO.C,R820*
X59100000Y39612500D03*
X59100000Y37787500D03*
G04 #@! TD*
D15*
G04 #@! TO.C,C815*
X62200000Y33250000D03*
X62200000Y31700000D03*
G04 #@! TD*
D31*
G04 #@! TO.C,R406*
X36209999Y23450000D03*
X35190001Y23450000D03*
G04 #@! TD*
G04 #@! TO.C,R1002*
X71610000Y65000000D03*
X70590000Y65000000D03*
G04 #@! TD*
D107*
G04 #@! TO.C,C701*
X39500000Y9525000D03*
X39500000Y2575000D03*
G04 #@! TD*
D17*
G04 #@! TO.C,TP411*
X79594792Y50742730D03*
G04 #@! TD*
D108*
G04 #@! TO.C,IC802*
X53351000Y44500000D03*
X53351000Y44000000D03*
X53351000Y43500000D03*
X53351000Y43000000D03*
X53351000Y42500000D03*
X53351000Y42000000D03*
X53351000Y41500000D03*
X53351000Y41000000D03*
X57775000Y41000000D03*
X57775000Y41500000D03*
X57775000Y42000000D03*
X57775000Y42500000D03*
X57775000Y43000000D03*
X57775000Y43500000D03*
X57775000Y44000000D03*
X57775000Y44500000D03*
D109*
X55563000Y42750000D03*
G04 #@! TD*
D17*
G04 #@! TO.C,TP804*
X51465401Y40691401D03*
G04 #@! TD*
D110*
G04 #@! TO.C,D1001*
X69150000Y66200000D03*
X68200000Y66200000D03*
X67250000Y66200000D03*
X67250000Y63600000D03*
X69150000Y63600000D03*
G04 #@! TD*
D111*
G04 #@! TO.C,Q701*
X15450000Y13860000D03*
D112*
X16000000Y12670000D03*
D111*
X15450000Y12590000D03*
X15450000Y11320000D03*
D113*
X15750000Y10050000D03*
D114*
X21450000Y13860000D03*
X21450000Y12590000D03*
D115*
X19175000Y11955000D03*
D114*
X21450000Y11320000D03*
X21450000Y10050000D03*
G04 #@! TD*
D73*
G04 #@! TO.C,Q702*
X3500000Y22700000D03*
D74*
X4690000Y23250000D03*
D73*
X4770000Y22700000D03*
X6040000Y22700000D03*
D75*
X7310000Y23000000D03*
D76*
X3500000Y28700000D03*
X4770000Y28700000D03*
D77*
X5405000Y26425000D03*
D76*
X6040000Y28700000D03*
X7310000Y28700000D03*
G04 #@! TD*
D32*
G04 #@! TO.C,R819*
X61987500Y28500000D03*
X63812500Y28500000D03*
G04 #@! TD*
D111*
G04 #@! TO.C,Q703*
X8100000Y13860000D03*
D112*
X8650000Y12670000D03*
D111*
X8100000Y12590000D03*
X8100000Y11320000D03*
D113*
X8400000Y10050000D03*
D114*
X14100000Y13860000D03*
X14100000Y12590000D03*
D115*
X11825000Y11955000D03*
D114*
X14100000Y11320000D03*
X14100000Y10050000D03*
G04 #@! TD*
D17*
G04 #@! TO.C,TP407*
X93275000Y46750000D03*
G04 #@! TD*
G04 #@! TO.C,TP1003*
X60851902Y15299722D03*
G04 #@! TD*
D116*
G04 #@! TO.C,FB601*
X86375000Y35350000D03*
X88575000Y35350000D03*
G04 #@! TD*
D31*
G04 #@! TO.C,R722*
X36659999Y17250000D03*
X35640001Y17250000D03*
G04 #@! TD*
D17*
G04 #@! TO.C,TP403*
X32241685Y19475000D03*
G04 #@! TD*
D117*
G04 #@! TO.C,C604*
X86200000Y33200000D03*
X89150000Y33200000D03*
G04 #@! TD*
D17*
G04 #@! TO.C,TP402*
X39900000Y23600000D03*
G04 #@! TD*
D79*
G04 #@! TO.C,R710*
X5025000Y14025000D03*
X6675000Y14025000D03*
G04 #@! TD*
D118*
G04 #@! TO.C,L401*
X77950000Y49810000D03*
X77950000Y50660000D03*
G04 #@! TD*
D107*
G04 #@! TO.C,C702*
X30250000Y9525000D03*
X30250000Y2575000D03*
G04 #@! TD*
D108*
G04 #@! TO.C,IC801*
X55563000Y32750000D03*
X55563000Y32250000D03*
X55563000Y31750000D03*
X55563000Y31250000D03*
X55563000Y30750000D03*
X55563000Y30250000D03*
X55563000Y29750000D03*
X55563000Y29250000D03*
X59987000Y29250000D03*
X59987000Y29750000D03*
X59987000Y30250000D03*
X59987000Y30750000D03*
X59987000Y31250000D03*
X59987000Y31750000D03*
X59987000Y32250000D03*
X59987000Y32750000D03*
D109*
X57775000Y31000000D03*
G04 #@! TD*
D17*
G04 #@! TO.C,TP1002*
X86775000Y62250000D03*
G04 #@! TD*
D119*
G04 #@! TO.C,C703*
X21100000Y4700000D03*
X14150000Y4700000D03*
G04 #@! TD*
D24*
G04 #@! TO.C,R403*
X73350000Y60990001D03*
X73350000Y62009999D03*
G04 #@! TD*
D14*
G04 #@! TO.C,R1103*
X85015000Y60750000D03*
X86035000Y60750000D03*
G04 #@! TD*
D17*
G04 #@! TO.C,TP806*
X51775707Y34500707D03*
G04 #@! TD*
D120*
G04 #@! TO.C,U801*
X47750000Y40887500D03*
X47100000Y40887500D03*
X46450000Y40887500D03*
X46450000Y39112500D03*
X47100000Y39112500D03*
X47750000Y39112500D03*
D121*
X47100000Y40000000D03*
G04 #@! TD*
D17*
G04 #@! TO.C,TP715*
X23250000Y16275000D03*
G04 #@! TD*
G04 #@! TO.C,TP815*
X57375000Y37400000D03*
G04 #@! TD*
D24*
G04 #@! TO.C,R816*
X61200000Y45190001D03*
X61200000Y46209999D03*
G04 #@! TD*
D67*
G04 #@! TO.C,C1201*
X91900000Y65225000D03*
X91900000Y66775000D03*
G04 #@! TD*
D24*
G04 #@! TO.C,R610*
X96075000Y31940000D03*
X96075000Y32960000D03*
G04 #@! TD*
G04 #@! TO.C,R821*
X51775000Y29990000D03*
X51775000Y31010000D03*
G04 #@! TD*
D31*
G04 #@! TO.C,R826*
X57810000Y39750000D03*
X56790000Y39750000D03*
G04 #@! TD*
D25*
G04 #@! TO.C,R404*
X61050000Y59359999D03*
X61050000Y58340001D03*
G04 #@! TD*
D22*
G04 #@! TO.C,C1002*
X87795000Y60750000D03*
X88755000Y60750000D03*
G04 #@! TD*
D17*
G04 #@! TO.C,TP814*
X49000000Y39100000D03*
G04 #@! TD*
D31*
G04 #@! TO.C,R720*
X36200000Y22400000D03*
X35180002Y22400000D03*
G04 #@! TD*
D24*
G04 #@! TO.C,R815*
X61700000Y34390001D03*
X61700000Y35409999D03*
G04 #@! TD*
D42*
G04 #@! TO.C,C813*
X50800000Y44100000D03*
X49250000Y44100000D03*
G04 #@! TD*
D122*
G04 #@! TO.C,D802*
X63700000Y31700000D03*
X63700000Y33100000D03*
G04 #@! TD*
D80*
G04 #@! TO.C,J1002*
X75800000Y68800000D03*
D81*
X78340000Y68800000D03*
X80879999Y68800000D03*
X83420000Y68800000D03*
G04 #@! TD*
D123*
G04 #@! TO.C,D702*
X24700000Y27600000D03*
X21800000Y27600000D03*
G04 #@! TD*
D41*
G04 #@! TO.C,C809*
X50775000Y27020000D03*
X50775000Y27980000D03*
G04 #@! TD*
D43*
G04 #@! TO.C,C710*
X23900000Y17230000D03*
X23900000Y16270000D03*
G04 #@! TD*
D17*
G04 #@! TO.C,TP805*
X70700000Y28500000D03*
G04 #@! TD*
D78*
G04 #@! TO.C,C605*
X86800000Y31050000D03*
X88700000Y31050000D03*
G04 #@! TD*
D17*
G04 #@! TO.C,TP708*
X25000000Y17100000D03*
G04 #@! TD*
D31*
G04 #@! TO.C,R813*
X54775000Y34000000D03*
X53755000Y34000000D03*
G04 #@! TD*
D17*
G04 #@! TO.C,TP406*
X94275000Y46750000D03*
G04 #@! TD*
D98*
G04 #@! TO.C,LED802*
X89800000Y5200000D03*
X89800000Y1700000D03*
G04 #@! TD*
D43*
G04 #@! TO.C,C412*
X75570000Y53700000D03*
X75570000Y52740000D03*
G04 #@! TD*
D61*
G04 #@! TO.C,C717*
X29325000Y14870000D03*
X30875000Y14870000D03*
G04 #@! TD*
D25*
G04 #@! TO.C,R714*
X23300000Y21810000D03*
X23300000Y20790000D03*
G04 #@! TD*
D17*
G04 #@! TO.C,TP1005*
X7500000Y5150000D03*
G04 #@! TD*
D14*
G04 #@! TO.C,R603*
X94830000Y43900000D03*
X95850000Y43900000D03*
G04 #@! TD*
D26*
G04 #@! TO.C,C705*
X1400000Y21450000D03*
X1400000Y24400000D03*
G04 #@! TD*
D59*
G04 #@! TO.C,C719*
X21850000Y20300000D03*
X21850000Y22200000D03*
G04 #@! TD*
D78*
G04 #@! TO.C,C603*
X86525000Y37300000D03*
X88425000Y37300000D03*
G04 #@! TD*
D49*
G04 #@! TO.C,C706*
X32050000Y29500000D03*
X39000000Y29500000D03*
G04 #@! TD*
D124*
G04 #@! TO.C,LED1101*
X87375000Y66500000D03*
X90175000Y66500000D03*
G04 #@! TD*
D17*
G04 #@! TO.C,TP704*
X23700000Y18200000D03*
G04 #@! TD*
D14*
G04 #@! TO.C,R1006*
X86015000Y58450000D03*
X87035000Y58450000D03*
G04 #@! TD*
D125*
G04 #@! TO.C,TP601*
X80778632Y34751425D03*
G04 #@! TD*
D14*
G04 #@! TO.C,R608*
X87740000Y43050000D03*
X88760000Y43050000D03*
G04 #@! TD*
D126*
G04 #@! TO.C,LED701*
X35025000Y20850000D03*
X37375000Y20850000D03*
G04 #@! TD*
D14*
G04 #@! TO.C,R716*
X32190000Y22550000D03*
X33210000Y22550000D03*
G04 #@! TD*
G04 #@! TO.C,R407*
X77690000Y48500000D03*
X78710000Y48500000D03*
G04 #@! TD*
D127*
G04 #@! TO.C,D801*
X44937500Y33725000D03*
D128*
X48012500Y33725000D03*
D129*
X44937500Y36925000D03*
D130*
X48012500Y36925000D03*
D131*
X44175000Y28600000D03*
X48875000Y28600000D03*
G04 #@! TD*
D53*
G04 #@! TO.C,H1204*
X1347056Y66502944D03*
X2050000Y68200000D03*
X2050000Y64805888D03*
X3747056Y68902944D03*
D54*
X3747056Y66502944D03*
D53*
X3747056Y64102944D03*
X5444112Y68200000D03*
X5444112Y64805888D03*
X6147056Y66502944D03*
G04 #@! TD*
D17*
G04 #@! TO.C,TP603*
X97175000Y29200000D03*
G04 #@! TD*
M02*
