G04*
G04 #@! TF.GenerationSoftware,Altium Limited,Altium Designer,21.3.1 (25)*
G04*
G04 Layer_Physical_Order=2*
G04 Layer_Color=36540*
%FSLAX25Y25*%
%MOIN*%
G70*
G04*
G04 #@! TF.SameCoordinates,8BDF1CF3-DA8E-4A83-8282-559D642D0048*
G04*
G04*
G04 #@! TF.FilePolarity,Positive*
G04*
G01*
G75*
%ADD87R,0.05020X0.05020*%
%ADD89C,0.06319*%
%ADD92C,0.02756*%
%ADD93C,0.23622*%
G36*
X379708Y230528D02*
X379439Y230090D01*
X377427Y230744D01*
X375162Y231102D01*
X372869D01*
X370605Y230744D01*
X368424Y230035D01*
X366381Y228994D01*
X364526Y227646D01*
X362905Y226025D01*
X361557Y224170D01*
X360516Y222127D01*
X359807Y219947D01*
X359449Y217682D01*
Y215389D01*
X359807Y213124D01*
X360516Y210944D01*
X361557Y208901D01*
X362905Y207046D01*
X364526Y205424D01*
X366381Y204077D01*
X368424Y203036D01*
X370605Y202327D01*
X372869Y201969D01*
X375162D01*
X377427Y202327D01*
X379608Y203036D01*
X381650Y204077D01*
X383506Y205424D01*
X385127Y207046D01*
X386474Y208901D01*
X387515Y210944D01*
X388224Y213124D01*
X388583Y215389D01*
Y217682D01*
X388224Y219947D01*
X387570Y221959D01*
X388008Y222228D01*
X389764Y220472D01*
Y15748D01*
X388008Y13993D01*
X387570Y14261D01*
X388224Y16274D01*
X388583Y18539D01*
Y20831D01*
X388224Y23096D01*
X387515Y25277D01*
X386474Y27320D01*
X385229Y29034D01*
X385345Y29583D01*
X385454Y29612D01*
X386397Y30157D01*
X387166Y30926D01*
X387710Y31869D01*
X387992Y32920D01*
Y34009D01*
X387710Y35060D01*
X387166Y36003D01*
X386397Y36773D01*
X385807Y37113D01*
Y37690D01*
X386397Y38031D01*
X387166Y38800D01*
X387710Y39743D01*
X387992Y40794D01*
Y41883D01*
X387710Y42934D01*
X387166Y43877D01*
X386397Y44646D01*
X385807Y44987D01*
Y45564D01*
X386397Y45905D01*
X387166Y46674D01*
X387710Y47617D01*
X387992Y48668D01*
Y49757D01*
X387710Y50808D01*
X387166Y51751D01*
X386397Y52521D01*
X385807Y52861D01*
Y53438D01*
X386397Y53779D01*
X387166Y54548D01*
X387710Y55491D01*
X387992Y56542D01*
Y57631D01*
X387710Y58682D01*
X387166Y59625D01*
X386397Y60395D01*
X385454Y60939D01*
X384402Y61221D01*
X383314D01*
X382263Y60939D01*
X382046Y60813D01*
X381680Y61180D01*
X381805Y61396D01*
X382087Y62448D01*
Y63536D01*
X381805Y64588D01*
X381261Y65530D01*
X380491Y66300D01*
X379548Y66844D01*
X378497Y67126D01*
X377409D01*
X376357Y66844D01*
X376140Y66719D01*
X375774Y67085D01*
X375899Y67302D01*
X376181Y68353D01*
Y69442D01*
X375899Y70493D01*
X375355Y71436D01*
X374586Y72206D01*
X373643Y72750D01*
X372591Y73032D01*
X371503D01*
X370452Y72750D01*
X370235Y72624D01*
X369869Y72991D01*
X369994Y73207D01*
X370276Y74259D01*
Y75347D01*
X369994Y76399D01*
X369450Y77341D01*
X368680Y78111D01*
X367737Y78655D01*
X366686Y78937D01*
X365598D01*
X364546Y78655D01*
X363603Y78111D01*
X362834Y77341D01*
X362290Y76399D01*
X362008Y75347D01*
Y74259D01*
X362290Y73207D01*
X362834Y72265D01*
X363603Y71495D01*
X364546Y70951D01*
X365598Y70669D01*
X366686D01*
X367737Y70951D01*
X367954Y71076D01*
X368320Y70710D01*
X368195Y70493D01*
X367913Y69442D01*
Y68353D01*
X368195Y67302D01*
X368739Y66359D01*
X369509Y65590D01*
X370452Y65045D01*
X371503Y64764D01*
X372591D01*
X373643Y65045D01*
X373860Y65171D01*
X374226Y64805D01*
X374101Y64588D01*
X373819Y63536D01*
Y62448D01*
X374101Y61396D01*
X374645Y60454D01*
X375414Y59684D01*
X376357Y59140D01*
X377409Y58858D01*
X378497D01*
X379548Y59140D01*
X379765Y59265D01*
X380131Y58899D01*
X380006Y58682D01*
X379724Y57631D01*
Y56542D01*
X380006Y55491D01*
X380550Y54548D01*
X381320Y53779D01*
X381910Y53438D01*
Y52861D01*
X381320Y52521D01*
X380550Y51751D01*
X380006Y50808D01*
X379724Y49757D01*
Y48668D01*
X380006Y47617D01*
X380550Y46674D01*
X381320Y45905D01*
X381910Y45564D01*
Y44987D01*
X381320Y44646D01*
X380550Y43877D01*
X380006Y42934D01*
X379724Y41883D01*
Y40794D01*
X380006Y39743D01*
X380550Y38800D01*
X381320Y38031D01*
X381910Y37690D01*
Y37113D01*
X381320Y36773D01*
X380550Y36003D01*
X380006Y35060D01*
X379724Y34009D01*
Y33672D01*
X379224Y33309D01*
X377427Y33893D01*
X375162Y34252D01*
X372869D01*
X370605Y33893D01*
X368424Y33185D01*
X366381Y32144D01*
X364526Y30796D01*
X362905Y29175D01*
X361557Y27320D01*
X360516Y25277D01*
X359807Y23096D01*
X359449Y20831D01*
Y18539D01*
X359807Y16274D01*
X360516Y14093D01*
X361557Y12050D01*
X362905Y10195D01*
X364526Y8574D01*
X366381Y7226D01*
X368424Y6185D01*
X370605Y5477D01*
X372869Y5118D01*
X375162D01*
X377427Y5477D01*
X379439Y6131D01*
X379708Y5692D01*
X377953Y3937D01*
X114644D01*
X114614Y4048D01*
X114070Y4991D01*
X113300Y5761D01*
X112358Y6305D01*
X111306Y6587D01*
X110218D01*
X109166Y6305D01*
X108224Y5761D01*
X107454Y4991D01*
X106910Y4048D01*
X106880Y3937D01*
X35306D01*
X35206Y4437D01*
X35832Y4696D01*
X37331Y5698D01*
X38606Y6973D01*
X39608Y8472D01*
X40298Y10138D01*
X40650Y11906D01*
Y13709D01*
X40298Y15478D01*
X39608Y17144D01*
X38606Y18643D01*
X37331Y19918D01*
X35832Y20920D01*
X34166Y21610D01*
X32398Y21961D01*
X31911D01*
X31528Y22461D01*
X31693Y23078D01*
Y24166D01*
X31411Y25218D01*
X30867Y26160D01*
X30097Y26930D01*
X29155Y27474D01*
X28103Y27756D01*
X27015D01*
X25964Y27474D01*
X25021Y26930D01*
X24251Y26160D01*
X23707Y25218D01*
X23425Y24166D01*
Y23078D01*
X23707Y22026D01*
X24251Y21084D01*
X25021Y20314D01*
X25230Y20194D01*
X25312Y19569D01*
X24386Y18643D01*
X23384Y17144D01*
X22694Y15478D01*
X22343Y13709D01*
Y11906D01*
X22694Y10138D01*
X23384Y8472D01*
X24386Y6973D01*
X25661Y5698D01*
X27160Y4696D01*
X27786Y4437D01*
X27686Y3937D01*
X15748D01*
X3937Y15748D01*
Y220472D01*
X15748Y232283D01*
X25796D01*
X25941Y231805D01*
X25661Y231618D01*
X24386Y230343D01*
X23384Y228844D01*
X22694Y227178D01*
X22343Y225409D01*
Y223606D01*
X22694Y221838D01*
X23384Y220172D01*
X24386Y218673D01*
X25661Y217398D01*
X27160Y216396D01*
X28826Y215706D01*
X30595Y215354D01*
X32398D01*
X34166Y215706D01*
X35832Y216396D01*
X37331Y217398D01*
X38606Y218673D01*
X39608Y220172D01*
X40298Y221838D01*
X40650Y223606D01*
Y225409D01*
X40298Y227178D01*
X39608Y228844D01*
X38606Y230343D01*
X37331Y231618D01*
X37051Y231805D01*
X37196Y232283D01*
X63483D01*
X63734Y231829D01*
X63722Y231784D01*
X62816Y231261D01*
X62067Y230512D01*
X62054D01*
X61003Y230230D01*
X60060Y229686D01*
X59290Y228916D01*
X58746Y227974D01*
X58465Y226922D01*
Y225834D01*
X58741Y224803D01*
X58465Y223773D01*
Y222684D01*
X58741Y221654D01*
X58465Y220623D01*
Y219534D01*
X58741Y218504D01*
X58465Y217473D01*
Y216385D01*
X58746Y215334D01*
X59290Y214391D01*
X60060Y213621D01*
X61003Y213077D01*
X62054Y212795D01*
X63143D01*
X64194Y213077D01*
X65137Y213621D01*
X65354Y213839D01*
X65572Y213621D01*
X66515Y213077D01*
X67566Y212795D01*
X68655D01*
X69706Y213077D01*
X70648Y213621D01*
X70866Y213839D01*
X71084Y213621D01*
X72026Y213077D01*
X73078Y212795D01*
X74166D01*
X75218Y213077D01*
X76160Y213621D01*
X76930Y214391D01*
X77474Y215334D01*
X77756Y216385D01*
Y217473D01*
X77480Y218504D01*
X77756Y219534D01*
Y220623D01*
X77480Y221654D01*
X77756Y222684D01*
Y223773D01*
X77480Y224803D01*
X77756Y225834D01*
Y226922D01*
X77474Y227974D01*
X76930Y228916D01*
X76160Y229686D01*
X75218Y230230D01*
X74166Y230512D01*
X74153D01*
X73404Y231261D01*
X72499Y231784D01*
X72487Y231829D01*
X72737Y232283D01*
X88371D01*
X88634Y231783D01*
X88386Y230859D01*
Y229771D01*
X88668Y228719D01*
X89212Y227777D01*
X89981Y227007D01*
X90354Y226792D01*
Y225964D01*
X89981Y225749D01*
X89212Y224979D01*
X88668Y224037D01*
X88386Y222985D01*
Y221897D01*
X88668Y220845D01*
X89212Y219903D01*
X89981Y219133D01*
X90354Y218918D01*
Y217960D01*
X90636Y216908D01*
X91180Y215966D01*
X91950Y215196D01*
X92893Y214652D01*
X93944Y214370D01*
X95032D01*
X96084Y214652D01*
X96457Y214867D01*
X96830Y214652D01*
X97881Y214370D01*
X98969D01*
X100021Y214652D01*
X100963Y215196D01*
X101733Y215966D01*
X102277Y216908D01*
X102559Y217960D01*
Y219048D01*
X102277Y220099D01*
X101733Y221042D01*
X100963Y221812D01*
X100591Y222027D01*
Y222855D01*
X100963Y223070D01*
X101733Y223840D01*
X102277Y224782D01*
X102559Y225834D01*
Y226922D01*
X102277Y227974D01*
X102152Y228191D01*
X102518Y228557D01*
X102735Y228431D01*
X103787Y228150D01*
X104875D01*
X105926Y228431D01*
X106869Y228976D01*
X107639Y229745D01*
X108183Y230688D01*
X108465Y231739D01*
Y232283D01*
X242924D01*
X243110Y232040D01*
Y230952D01*
X243386Y229921D01*
X243110Y228891D01*
Y227802D01*
X243392Y226751D01*
X243936Y225808D01*
X244706Y225039D01*
X245649Y224494D01*
X246700Y224213D01*
X246713D01*
X247462Y223464D01*
X248404Y222920D01*
X249456Y222638D01*
X250544D01*
X251432Y222876D01*
X251654Y222047D01*
X251378Y221017D01*
Y220835D01*
X250878Y220474D01*
X250150Y220669D01*
X250137D01*
X249389Y221418D01*
X248446Y221962D01*
X247395Y222244D01*
X246306D01*
X245255Y221962D01*
X244312Y221418D01*
X243563Y220669D01*
X243550D01*
X242499Y220388D01*
X241556Y219843D01*
X240807Y219094D01*
X240794D01*
X239743Y218813D01*
X238800Y218268D01*
X238031Y217499D01*
X237486Y216556D01*
X237205Y215505D01*
Y214416D01*
X237481Y213386D01*
X237259Y212559D01*
X236723Y212488D01*
X236497Y212879D01*
X235517Y213859D01*
X234316Y214553D01*
X232977Y214911D01*
X231590D01*
X230251Y214553D01*
X229050Y213859D01*
X228070Y212879D01*
X227377Y211678D01*
X227018Y210339D01*
Y208952D01*
X227377Y207613D01*
X228070Y206412D01*
X229050Y205432D01*
X230251Y204739D01*
X231590Y204380D01*
X232977D01*
X234316Y204739D01*
X235517Y205432D01*
X236497Y206412D01*
X236939Y207178D01*
X237475Y207107D01*
X237486Y207066D01*
X238031Y206123D01*
X238800Y205353D01*
X239743Y204809D01*
X240794Y204528D01*
X240807D01*
X241556Y203779D01*
X242499Y203235D01*
X243550Y202953D01*
X243563D01*
X244312Y202204D01*
X245255Y201660D01*
X246306Y201378D01*
X247395D01*
X248446Y201660D01*
X249389Y202204D01*
X249606Y202422D01*
X249824Y202204D01*
X250767Y201660D01*
X251818Y201378D01*
X251831D01*
X252580Y200629D01*
X253522Y200085D01*
X254574Y199803D01*
X255662D01*
X256714Y200085D01*
X257656Y200629D01*
X258426Y201399D01*
X258970Y202341D01*
X259252Y203393D01*
Y204481D01*
X258976Y205512D01*
X259252Y206542D01*
Y207631D01*
X258970Y208682D01*
X258426Y209625D01*
X257656Y210395D01*
X256714Y210939D01*
X256429Y211015D01*
X256496Y211267D01*
Y212355D01*
X256214Y213407D01*
X255670Y214349D01*
X254901Y215119D01*
X253958Y215663D01*
X253786Y215709D01*
X253807Y216221D01*
X254240Y216533D01*
X254968Y216339D01*
X254981D01*
X255730Y215590D01*
X256672Y215045D01*
X257723Y214764D01*
X258812D01*
X259863Y215045D01*
X260806Y215590D01*
X261555Y216339D01*
X261568D01*
X262619Y216620D01*
X263562Y217164D01*
X263779Y217382D01*
X263997Y217164D01*
X264940Y216620D01*
X265991Y216339D01*
X267080D01*
X268131Y216620D01*
X269074Y217164D01*
X269823Y217913D01*
X269836D01*
X270887Y218195D01*
X271830Y218739D01*
X272599Y219509D01*
X273144Y220452D01*
X273425Y221503D01*
Y222591D01*
X273149Y223622D01*
X273425Y224653D01*
Y225741D01*
X273144Y226793D01*
X272599Y227735D01*
X271830Y228505D01*
X270887Y229049D01*
X269836Y229331D01*
X269823D01*
X269074Y230080D01*
X268131Y230624D01*
X267846Y230700D01*
X267913Y230952D01*
Y232040D01*
X268100Y232283D01*
X377953D01*
X379708Y230528D01*
D02*
G37*
%LPC*%
G36*
X237549Y228691D02*
X227018D01*
Y221955D01*
X226518Y221666D01*
X226005Y221962D01*
X225218Y222173D01*
X224961Y222617D01*
X224192Y223387D01*
X223249Y223931D01*
X222198Y224213D01*
X221109D01*
X220058Y223931D01*
X219115Y223387D01*
X218898Y223169D01*
X218680Y223387D01*
X217737Y223931D01*
X216686Y224213D01*
X215598D01*
X214546Y223931D01*
X213603Y223387D01*
X213386Y223169D01*
X213168Y223387D01*
X212226Y223931D01*
X211174Y224213D01*
X210086D01*
X209034Y223931D01*
X208092Y223387D01*
X207874Y223169D01*
X207656Y223387D01*
X206714Y223931D01*
X205662Y224213D01*
X204574D01*
X203522Y223931D01*
X202580Y223387D01*
X202362Y223169D01*
X202145Y223387D01*
X201202Y223931D01*
X200150Y224213D01*
X199062D01*
X198011Y223931D01*
X197068Y223387D01*
X196850Y223169D01*
X196633Y223387D01*
X195690Y223931D01*
X194639Y224213D01*
X193550D01*
X192499Y223931D01*
X191556Y223387D01*
X191339Y223169D01*
X191121Y223387D01*
X190178Y223931D01*
X189127Y224213D01*
X188038D01*
X186987Y223931D01*
X186044Y223387D01*
X185827Y223169D01*
X185609Y223387D01*
X184667Y223931D01*
X183615Y224213D01*
X182527D01*
X181475Y223931D01*
X180533Y223387D01*
X179763Y222617D01*
X179507Y222173D01*
X178719Y221962D01*
X177777Y221418D01*
X177007Y220649D01*
X176463Y219706D01*
X176181Y218654D01*
Y217566D01*
X176463Y216515D01*
X177007Y215572D01*
X177777Y214802D01*
X178719Y214258D01*
X179507Y214047D01*
X179763Y213603D01*
X180533Y212834D01*
X181475Y212290D01*
X182527Y212008D01*
X183615D01*
X184667Y212290D01*
X185609Y212834D01*
X185827Y213052D01*
X186044Y212834D01*
X186987Y212290D01*
X188038Y212008D01*
X189127D01*
X190178Y212290D01*
X191121Y212834D01*
X191339Y213052D01*
X191556Y212834D01*
X192499Y212290D01*
X193550Y212008D01*
X194639D01*
X195690Y212290D01*
X196633Y212834D01*
X196850Y213052D01*
X197068Y212834D01*
X198011Y212290D01*
X199062Y212008D01*
X200150D01*
X201202Y212290D01*
X202145Y212834D01*
X202362Y213052D01*
X202580Y212834D01*
X203522Y212290D01*
X204574Y212008D01*
X205662D01*
X206714Y212290D01*
X207656Y212834D01*
X207874Y213052D01*
X208092Y212834D01*
X209034Y212290D01*
X210086Y212008D01*
X211174D01*
X212226Y212290D01*
X213168Y212834D01*
X213386Y213052D01*
X213603Y212834D01*
X214546Y212290D01*
X215598Y212008D01*
X216686D01*
X217737Y212290D01*
X218680Y212834D01*
X218898Y213052D01*
X219115Y212834D01*
X220058Y212290D01*
X221109Y212008D01*
X222198D01*
X223249Y212290D01*
X224192Y212834D01*
X224961Y213603D01*
X225218Y214047D01*
X226005Y214258D01*
X226948Y214802D01*
X227717Y215572D01*
X228262Y216515D01*
X228543Y217566D01*
Y218159D01*
X237549D01*
Y228691D01*
D02*
G37*
G36*
X349754D02*
X339222D01*
Y218159D01*
X349754D01*
Y228691D01*
D02*
G37*
G36*
X51764Y208770D02*
X50599D01*
X49456Y208542D01*
X48379Y208097D01*
X47410Y207449D01*
X46586Y206625D01*
X46510Y206511D01*
X46010D01*
X45933Y206625D01*
X45109Y207449D01*
X44141Y208097D01*
X43064Y208542D01*
X41921Y208770D01*
X40756D01*
X39613Y208542D01*
X38537Y208097D01*
X37568Y207449D01*
X36744Y206625D01*
X36667Y206511D01*
X36167D01*
X36091Y206625D01*
X35267Y207449D01*
X34298Y208097D01*
X33222Y208542D01*
X32079Y208770D01*
X30913D01*
X29771Y208542D01*
X28694Y208097D01*
X27725Y207449D01*
X26901Y206625D01*
X26825Y206511D01*
X26325D01*
X26248Y206625D01*
X25424Y207449D01*
X24455Y208097D01*
X23379Y208542D01*
X22236Y208770D01*
X21071D01*
X19928Y208542D01*
X18852Y208097D01*
X17883Y207449D01*
X17059Y206625D01*
X16982Y206511D01*
X16482D01*
X16406Y206625D01*
X15582Y207449D01*
X14613Y208097D01*
X13536Y208542D01*
X12394Y208770D01*
X11228D01*
X10086Y208542D01*
X9009Y208097D01*
X8040Y207449D01*
X7216Y206625D01*
X6569Y205656D01*
X6123Y204580D01*
X5896Y203437D01*
Y202272D01*
X6123Y201129D01*
X6569Y200052D01*
X7216Y199083D01*
X8040Y198260D01*
X9009Y197612D01*
X9974Y197212D01*
X10020Y197012D01*
Y196885D01*
X9974Y196685D01*
X9009Y196285D01*
X8040Y195638D01*
X7216Y194814D01*
X6569Y193845D01*
X6123Y192769D01*
X5896Y191626D01*
Y190461D01*
X6123Y189318D01*
X6569Y188241D01*
X7216Y187273D01*
X8040Y186449D01*
X8155Y186372D01*
Y185872D01*
X8040Y185795D01*
X7216Y184972D01*
X6569Y184003D01*
X6123Y182926D01*
X5896Y181783D01*
Y180618D01*
X6123Y179475D01*
X6569Y178399D01*
X7216Y177430D01*
X8040Y176606D01*
X9009Y175959D01*
X9974Y175559D01*
X10020Y175359D01*
Y175232D01*
X9974Y175032D01*
X9009Y174632D01*
X8040Y173985D01*
X7216Y173161D01*
X6569Y172192D01*
X6123Y171115D01*
X5896Y169972D01*
Y168807D01*
X6123Y167664D01*
X6569Y166588D01*
X7216Y165619D01*
X8040Y164795D01*
X9009Y164148D01*
X10086Y163702D01*
X11228Y163474D01*
X12394D01*
X13536Y163702D01*
X14613Y164148D01*
X15582Y164795D01*
X16406Y165619D01*
X16482Y165733D01*
X16982D01*
X17059Y165619D01*
X17883Y164795D01*
X18852Y164148D01*
X19928Y163702D01*
X21071Y163474D01*
X22236D01*
X23379Y163702D01*
X24455Y164148D01*
X25424Y164795D01*
X26248Y165619D01*
X26325Y165733D01*
X26825D01*
X26901Y165619D01*
X27725Y164795D01*
X28694Y164148D01*
X29771Y163702D01*
X30913Y163474D01*
X32079D01*
X33222Y163702D01*
X34298Y164148D01*
X35267Y164795D01*
X36091Y165619D01*
X36167Y165733D01*
X36667D01*
X36744Y165619D01*
X37568Y164795D01*
X38537Y164148D01*
X39613Y163702D01*
X40756Y163474D01*
X41921D01*
X43064Y163702D01*
X44141Y164148D01*
X45109Y164795D01*
X45933Y165619D01*
X46010Y165733D01*
X46510D01*
X46586Y165619D01*
X47410Y164795D01*
X48379Y164148D01*
X49456Y163702D01*
X50599Y163474D01*
X51764D01*
X52907Y163702D01*
X53983Y164148D01*
X54952Y164795D01*
X55776Y165619D01*
X56423Y166588D01*
X56869Y167664D01*
X57096Y168807D01*
Y169972D01*
X56869Y171115D01*
X56423Y172192D01*
X55776Y173161D01*
X54952Y173985D01*
X53983Y174632D01*
X53018Y175032D01*
X52972Y175232D01*
Y175359D01*
X53018Y175559D01*
X53983Y175959D01*
X54952Y176606D01*
X55776Y177430D01*
X56423Y178399D01*
X56869Y179475D01*
X57096Y180618D01*
Y181783D01*
X56869Y182926D01*
X56423Y184003D01*
X55776Y184972D01*
X54952Y185795D01*
X54837Y185872D01*
Y186372D01*
X54952Y186449D01*
X55776Y187273D01*
X56423Y188241D01*
X56869Y189318D01*
X57096Y190461D01*
Y191626D01*
X56869Y192769D01*
X56762Y193026D01*
X57656Y193543D01*
X58084Y193971D01*
X58533Y193712D01*
X58465Y193458D01*
Y192369D01*
X58741Y191339D01*
X58465Y190308D01*
Y189220D01*
X58741Y188189D01*
X58465Y187158D01*
Y186070D01*
X58741Y185039D01*
X58465Y184009D01*
Y182920D01*
X58746Y181869D01*
X59290Y180926D01*
X60060Y180157D01*
X61003Y179612D01*
X62054Y179331D01*
X62067D01*
X62816Y178582D01*
X63759Y178038D01*
X64810Y177756D01*
X65899D01*
X66950Y178038D01*
X67893Y178582D01*
X68110Y178799D01*
X68328Y178582D01*
X69270Y178038D01*
X70322Y177756D01*
X71410D01*
X72462Y178038D01*
X73404Y178582D01*
X74153Y179331D01*
X74166D01*
X75218Y179612D01*
X76160Y180157D01*
X76930Y180926D01*
X77474Y181869D01*
X77756Y182920D01*
Y184009D01*
X77480Y185039D01*
X77756Y186070D01*
Y187158D01*
X77480Y188189D01*
X77756Y189220D01*
Y190308D01*
X77480Y191339D01*
X77756Y192369D01*
Y193458D01*
X77474Y194509D01*
X76930Y195452D01*
X76160Y196221D01*
X75218Y196765D01*
X74166Y197047D01*
X73078D01*
X72026Y196765D01*
X71084Y196221D01*
X70866Y196004D01*
X70648Y196221D01*
X69706Y196765D01*
X68655Y197047D01*
X67566D01*
X66515Y196765D01*
X65572Y196221D01*
X65354Y196004D01*
X65137Y196221D01*
X64194Y196765D01*
X63143Y197047D01*
X62054D01*
X61003Y196765D01*
X60060Y196221D01*
X59632Y195793D01*
X59184Y196052D01*
X59252Y196306D01*
Y197395D01*
X58970Y198446D01*
X58426Y199389D01*
X57656Y200158D01*
X56714Y200703D01*
X56702Y200726D01*
X56869Y201129D01*
X57096Y202272D01*
Y203437D01*
X56869Y204580D01*
X56423Y205656D01*
X55776Y206625D01*
X54952Y207449D01*
X53983Y208097D01*
X52907Y208542D01*
X51764Y208770D01*
D02*
G37*
G36*
X345181Y214911D02*
X343795D01*
X342456Y214553D01*
X341255Y213859D01*
X340275Y212879D01*
X339581Y211678D01*
X339222Y210339D01*
Y208952D01*
X339581Y207613D01*
X340275Y206412D01*
X341255Y205432D01*
X342456Y204739D01*
X343795Y204380D01*
X345181D01*
X346521Y204739D01*
X347721Y205432D01*
X348702Y206412D01*
X349395Y207613D01*
X349754Y208952D01*
Y210339D01*
X349395Y211678D01*
X348702Y212879D01*
X347721Y213859D01*
X346521Y214553D01*
X345181Y214911D01*
D02*
G37*
G36*
X266391Y212402D02*
X265302D01*
X264251Y212120D01*
X263308Y211576D01*
X262539Y210806D01*
X261994Y209863D01*
X261713Y208812D01*
Y207723D01*
X261994Y206672D01*
X262539Y205730D01*
X263308Y204960D01*
X264251Y204416D01*
X264367Y204384D01*
X264516Y203827D01*
X264015Y203326D01*
X263505Y202442D01*
X263067D01*
X262015Y202160D01*
X261073Y201616D01*
X260303Y200846D01*
X259759Y199904D01*
X259477Y198852D01*
Y197764D01*
X259759Y196712D01*
X260303Y195770D01*
X261073Y195000D01*
X262015Y194456D01*
X263067Y194174D01*
X263189D01*
Y193944D01*
X263465Y192913D01*
X263189Y191883D01*
Y190794D01*
X263465Y189764D01*
X263189Y188733D01*
Y188519D01*
X262689Y188230D01*
X262226Y188498D01*
X261174Y188779D01*
X261161D01*
X260412Y189528D01*
X259470Y190073D01*
X258418Y190354D01*
X257330D01*
X256991Y190263D01*
X256518Y190655D01*
Y191418D01*
X256236Y192469D01*
X255692Y193412D01*
X254922Y194182D01*
X253980Y194726D01*
X252928Y195008D01*
X251840D01*
X250789Y194726D01*
X249846Y194182D01*
X249076Y193412D01*
X248532Y192469D01*
X248250Y191418D01*
Y190330D01*
X248532Y189278D01*
X248765Y188874D01*
X248574Y188412D01*
X248219Y188317D01*
X247277Y187773D01*
X247059Y187555D01*
X246841Y187773D01*
X245899Y188317D01*
X244847Y188599D01*
X243759D01*
X242707Y188317D01*
X241765Y187773D01*
X241547Y187555D01*
X241330Y187773D01*
X240387Y188317D01*
X239336Y188599D01*
X238247D01*
X237196Y188317D01*
X236253Y187773D01*
X236173Y187692D01*
X235724Y187951D01*
X235827Y188334D01*
Y189422D01*
X235545Y190474D01*
X235001Y191416D01*
X234231Y192186D01*
X233289Y192730D01*
X232237Y193012D01*
X231149D01*
X230097Y192730D01*
X229155Y192186D01*
X228385Y191416D01*
X227841Y190474D01*
X227559Y189422D01*
Y188334D01*
X227841Y187282D01*
X228028Y186958D01*
X227863Y186672D01*
X227582Y185620D01*
Y184532D01*
X227863Y183480D01*
X228407Y182538D01*
X229177Y181768D01*
X230120Y181224D01*
X231171Y180942D01*
X231667D01*
X231972Y180545D01*
X231902Y180285D01*
Y179196D01*
X232178Y178165D01*
X231902Y177135D01*
Y176046D01*
X232183Y174995D01*
X232728Y174052D01*
X233497Y173283D01*
X234440Y172739D01*
X235491Y172457D01*
X235504D01*
X236253Y171708D01*
X237196Y171164D01*
X238247Y170882D01*
X238260D01*
X239009Y170133D01*
X239952Y169589D01*
X241003Y169307D01*
X242091D01*
X243143Y169589D01*
X244086Y170133D01*
X244303Y170351D01*
X244521Y170133D01*
X245463Y169589D01*
X246515Y169307D01*
X247603D01*
X248655Y169589D01*
X249597Y170133D01*
X250367Y170903D01*
X250911Y171845D01*
X251040Y172327D01*
X252027Y172063D01*
X253115D01*
X254167Y172345D01*
X255109Y172889D01*
X255879Y173659D01*
X256423Y174601D01*
X256705Y175653D01*
Y176741D01*
X256423Y177793D01*
X255879Y178735D01*
X255555Y179059D01*
X255862Y179459D01*
X256278Y179219D01*
X257330Y178937D01*
X258418D01*
X259470Y179219D01*
X260412Y179763D01*
X261161Y180512D01*
X261174D01*
X262226Y180793D01*
X263168Y181338D01*
X263938Y182107D01*
X264354Y182162D01*
X264785Y181731D01*
X265727Y181187D01*
X266779Y180905D01*
X267867D01*
X268918Y181187D01*
X269861Y181731D01*
X270079Y181949D01*
X270296Y181731D01*
X271239Y181187D01*
X272290Y180905D01*
X273379D01*
X274430Y181187D01*
X275373Y181731D01*
X275591Y181949D01*
X275808Y181731D01*
X276751Y181187D01*
X277802Y180905D01*
X278891D01*
X279942Y181187D01*
X280885Y181731D01*
X281634Y182480D01*
X281647D01*
X282698Y182762D01*
X283641Y183306D01*
X284389Y184055D01*
X284402D01*
X285454Y184337D01*
X286397Y184881D01*
X287166Y185651D01*
X287710Y186593D01*
X287992Y187645D01*
Y188733D01*
X287716Y189764D01*
X287992Y190794D01*
Y191883D01*
X287716Y192913D01*
X287992Y193944D01*
Y195032D01*
X287716Y196063D01*
X287992Y197094D01*
Y198182D01*
X287710Y199233D01*
X287166Y200176D01*
X286397Y200946D01*
X285454Y201490D01*
X284402Y201772D01*
X284389D01*
X283641Y202520D01*
X282698Y203065D01*
X281647Y203346D01*
X281634D01*
X280885Y204095D01*
X279942Y204640D01*
X278891Y204921D01*
X278878D01*
X278129Y205670D01*
X277186Y206214D01*
X276135Y206496D01*
X275046D01*
X273995Y206214D01*
X273052Y205670D01*
X272835Y205452D01*
X272617Y205670D01*
X271674Y206214D01*
X270623Y206496D01*
X270146D01*
X269785Y206996D01*
X269980Y207723D01*
Y208812D01*
X269699Y209863D01*
X269154Y210806D01*
X268385Y211576D01*
X267442Y212120D01*
X266391Y212402D01*
D02*
G37*
G36*
X83221Y195079D02*
X82133D01*
X81082Y194797D01*
X80139Y194253D01*
X79369Y193483D01*
X78825Y192541D01*
X78543Y191489D01*
Y190401D01*
X78825Y189349D01*
X79369Y188407D01*
X80139Y187637D01*
X81082Y187093D01*
X82133Y186811D01*
X83221D01*
X84273Y187093D01*
X85215Y187637D01*
X85985Y188407D01*
X86529Y189349D01*
X86811Y190401D01*
Y191489D01*
X86529Y192541D01*
X85985Y193483D01*
X85215Y194253D01*
X84273Y194797D01*
X83221Y195079D01*
D02*
G37*
G36*
X382471Y175197D02*
X381308D01*
X380167Y174970D01*
X379092Y174525D01*
X378125Y173879D01*
X377302Y173056D01*
X376656Y172089D01*
X376211Y171014D01*
X375984Y169873D01*
Y168710D01*
X376211Y167569D01*
X376656Y166494D01*
X377302Y165526D01*
X378125Y164704D01*
X379092Y164058D01*
X380167Y163612D01*
X381308Y163385D01*
X382471D01*
X383612Y163612D01*
X384687Y164058D01*
X385655Y164704D01*
X386477Y165526D01*
X387123Y166494D01*
X387569Y167569D01*
X387796Y168710D01*
Y169873D01*
X387569Y171014D01*
X387123Y172089D01*
X386477Y173056D01*
X385655Y173879D01*
X384687Y174525D01*
X383612Y174970D01*
X382471Y175197D01*
D02*
G37*
G36*
X362786D02*
X361623D01*
X360482Y174970D01*
X359407Y174525D01*
X358440Y173879D01*
X357617Y173056D01*
X356971Y172089D01*
X356526Y171014D01*
X356299Y169873D01*
Y168710D01*
X356526Y167569D01*
X356971Y166494D01*
X357617Y165526D01*
X358440Y164704D01*
X359407Y164058D01*
X360482Y163612D01*
X361623Y163385D01*
X362786D01*
X363927Y163612D01*
X365002Y164058D01*
X365969Y164704D01*
X366792Y165526D01*
X367439Y166494D01*
X367884Y167569D01*
X368111Y168710D01*
Y169873D01*
X367884Y171014D01*
X367439Y172089D01*
X366792Y173056D01*
X365969Y173879D01*
X365002Y174525D01*
X363927Y174970D01*
X362786Y175197D01*
D02*
G37*
G36*
X349552Y163226D02*
X348464D01*
X347412Y162944D01*
X346720Y162544D01*
X346275Y162801D01*
X345224Y163083D01*
X344135D01*
X343084Y162801D01*
X342141Y162257D01*
X341372Y161487D01*
X340827Y160544D01*
X340821Y160519D01*
X340250Y160320D01*
X339560Y160719D01*
X338509Y161000D01*
X337420D01*
X336369Y160719D01*
X335996Y160503D01*
X335623Y160719D01*
X334572Y161000D01*
X333483D01*
X332432Y160719D01*
X331792Y160349D01*
X331225Y160544D01*
X331213Y160560D01*
X330678Y161487D01*
X329908Y162257D01*
X328966Y162801D01*
X327914Y163083D01*
X326826D01*
X325775Y162801D01*
X325128Y162428D01*
X324233Y162944D01*
X323182Y163226D01*
X322094D01*
X321042Y162944D01*
X320099Y162400D01*
X319330Y161630D01*
X318786Y160688D01*
X318504Y159636D01*
Y158548D01*
X318786Y157497D01*
X319330Y156554D01*
X320099Y155784D01*
X321042Y155240D01*
X322094Y154958D01*
X323182D01*
X324233Y155240D01*
X324880Y155613D01*
X325775Y155097D01*
X326826Y154815D01*
X327795D01*
X328068Y154544D01*
X328169Y154366D01*
X327961Y153588D01*
Y152499D01*
X328242Y151448D01*
X328787Y150505D01*
X329489Y149803D01*
X329527Y149500D01*
X329489Y149197D01*
X328787Y148495D01*
X328242Y147552D01*
X327961Y146501D01*
Y145413D01*
X328242Y144361D01*
X328787Y143419D01*
X329489Y142716D01*
X329527Y142413D01*
X329489Y142111D01*
X328787Y141408D01*
X328242Y140466D01*
X327961Y139414D01*
Y138326D01*
X328242Y137275D01*
X328787Y136332D01*
X329492Y135626D01*
X329555Y135520D01*
X329541Y134994D01*
X328976Y134428D01*
X328431Y133485D01*
X328150Y132434D01*
Y131345D01*
X328431Y130294D01*
X328976Y129351D01*
X329745Y128582D01*
X330118Y128367D01*
Y127802D01*
X330400Y126751D01*
X330944Y125808D01*
X331714Y125039D01*
X332656Y124494D01*
X333708Y124213D01*
X334796D01*
X335848Y124494D01*
X336221Y124710D01*
X336593Y124494D01*
X337645Y124213D01*
X338733D01*
X339785Y124494D01*
X340727Y125039D01*
X341497Y125808D01*
X342041Y126751D01*
X342323Y127802D01*
Y128367D01*
X342696Y128582D01*
X343465Y129351D01*
X344010Y130294D01*
X344291Y131345D01*
Y132434D01*
X344010Y133485D01*
X343465Y134428D01*
X342760Y135133D01*
X342697Y135240D01*
X342711Y135766D01*
X343276Y136332D01*
X343821Y137275D01*
X344102Y138326D01*
Y139414D01*
X343821Y140466D01*
X343276Y141408D01*
X342574Y142111D01*
X342536Y142413D01*
X342574Y142716D01*
X343276Y143419D01*
X343821Y144361D01*
X344102Y145413D01*
Y146501D01*
X343821Y147552D01*
X343276Y148495D01*
X342574Y149197D01*
X342536Y149500D01*
X342574Y149803D01*
X343276Y150505D01*
X343821Y151448D01*
X344102Y152499D01*
Y153588D01*
X343895Y154362D01*
X343981Y154525D01*
X344268Y154815D01*
X345224D01*
X346275Y155097D01*
X346968Y155497D01*
X347412Y155240D01*
X348464Y154958D01*
X349552D01*
X350604Y155240D01*
X351546Y155784D01*
X352316Y156554D01*
X352860Y157497D01*
X353142Y158548D01*
Y159636D01*
X352860Y160688D01*
X352316Y161630D01*
X351546Y162400D01*
X350604Y162944D01*
X349552Y163226D01*
D02*
G37*
G36*
X364718Y162402D02*
X363629D01*
X362578Y162120D01*
X361635Y161576D01*
X361417Y161358D01*
X361200Y161576D01*
X360257Y162120D01*
X359206Y162402D01*
X358117D01*
X357066Y162120D01*
X356123Y161576D01*
X355353Y160806D01*
X354809Y159863D01*
X354528Y158812D01*
Y157723D01*
X354809Y156672D01*
X355353Y155729D01*
X356123Y154960D01*
X357066Y154416D01*
X358117Y154134D01*
X359206D01*
X360257Y154416D01*
X361200Y154960D01*
X361417Y155177D01*
X361635Y154960D01*
X362578Y154416D01*
X363629Y154134D01*
X364718D01*
X365769Y154416D01*
X366711Y154960D01*
X367481Y155729D01*
X368025Y156672D01*
X368307Y157723D01*
Y158812D01*
X368025Y159863D01*
X367481Y160806D01*
X366711Y161576D01*
X365769Y162120D01*
X364718Y162402D01*
D02*
G37*
G36*
X380072Y161614D02*
X378983D01*
X377932Y161332D01*
X377756Y161231D01*
X377580Y161332D01*
X376529Y161614D01*
X375440D01*
X374389Y161332D01*
X373446Y160788D01*
X372676Y160019D01*
X372132Y159076D01*
X371850Y158025D01*
Y156936D01*
X372132Y155885D01*
X372676Y154942D01*
X373446Y154172D01*
X374389Y153628D01*
X375440Y153347D01*
X376529D01*
X377580Y153628D01*
X377756Y153730D01*
X377932Y153628D01*
X378983Y153347D01*
X380072D01*
X381123Y153628D01*
X382066Y154172D01*
X382836Y154942D01*
X383380Y155885D01*
X383661Y156936D01*
Y158025D01*
X383380Y159076D01*
X382836Y160019D01*
X382066Y160788D01*
X381123Y161332D01*
X380072Y161614D01*
D02*
G37*
G36*
X284009Y150000D02*
X282920D01*
X281869Y149718D01*
X281496Y149503D01*
X281123Y149718D01*
X280072Y150000D01*
X278983D01*
X277932Y149718D01*
X277559Y149503D01*
X277186Y149718D01*
X276135Y150000D01*
X275046D01*
X273995Y149718D01*
X273052Y149174D01*
X272283Y148404D01*
X271738Y147462D01*
X271457Y146410D01*
Y145846D01*
X271084Y145631D01*
X270314Y144861D01*
X269770Y143919D01*
X269488Y142867D01*
Y142303D01*
X269115Y142087D01*
X268346Y141318D01*
X267801Y140375D01*
X267520Y139324D01*
Y138235D01*
X267801Y137184D01*
X268346Y136241D01*
X269115Y135472D01*
X269488Y135256D01*
Y134692D01*
X269770Y133641D01*
X270314Y132698D01*
X271084Y131928D01*
X271457Y131713D01*
Y131149D01*
X271739Y130097D01*
X272283Y129155D01*
X273052Y128385D01*
X273995Y127841D01*
X275046Y127559D01*
X276135D01*
X277186Y127841D01*
X277559Y128056D01*
X277932Y127841D01*
X278983Y127559D01*
X280072D01*
X281123Y127841D01*
X281496Y128056D01*
X281869Y127841D01*
X282920Y127559D01*
X284009D01*
X285060Y127841D01*
X286003Y128385D01*
X286772Y129155D01*
X287317Y130097D01*
X287598Y131149D01*
Y131713D01*
X287971Y131928D01*
X288741Y132698D01*
X289285Y133641D01*
X289567Y134692D01*
Y135256D01*
X289940Y135472D01*
X290709Y136241D01*
X291254Y137184D01*
X291535Y138235D01*
Y139324D01*
X291254Y140375D01*
X290709Y141318D01*
X289940Y142087D01*
X289567Y142303D01*
Y142867D01*
X289285Y143919D01*
X288741Y144861D01*
X287971Y145631D01*
X287598Y145846D01*
Y146410D01*
X287317Y147462D01*
X286772Y148404D01*
X286003Y149174D01*
X285060Y149718D01*
X284009Y150000D01*
D02*
G37*
G36*
X354087Y153347D02*
X352999D01*
X351948Y153065D01*
X351005Y152521D01*
X350235Y151751D01*
X349691Y150808D01*
X349410Y149757D01*
Y148668D01*
X349691Y147617D01*
X350235Y146674D01*
X351005Y145905D01*
X351948Y145361D01*
X352999Y145079D01*
X354087D01*
X355139Y145361D01*
X356082Y145905D01*
X356851Y146674D01*
X357395Y147617D01*
X357677Y148668D01*
Y149757D01*
X357395Y150808D01*
X356851Y151751D01*
X356082Y152521D01*
X355139Y153065D01*
X354087Y153347D01*
D02*
G37*
G36*
X51764Y143809D02*
X50599D01*
X49456Y143582D01*
X48379Y143136D01*
X47410Y142489D01*
X46586Y141665D01*
X46510Y141550D01*
X46010D01*
X45933Y141665D01*
X45109Y142489D01*
X44141Y143136D01*
X43064Y143582D01*
X41921Y143809D01*
X40756D01*
X39613Y143582D01*
X38537Y143136D01*
X37568Y142489D01*
X36744Y141665D01*
X36667Y141550D01*
X36167D01*
X36091Y141665D01*
X35267Y142489D01*
X34298Y143136D01*
X33222Y143582D01*
X32079Y143809D01*
X30913D01*
X29771Y143582D01*
X28694Y143136D01*
X27725Y142489D01*
X26901Y141665D01*
X26825Y141550D01*
X26325D01*
X26248Y141665D01*
X25424Y142489D01*
X24455Y143136D01*
X23379Y143582D01*
X22236Y143809D01*
X21071D01*
X19928Y143582D01*
X18852Y143136D01*
X17883Y142489D01*
X17059Y141665D01*
X16982Y141550D01*
X16482D01*
X16406Y141665D01*
X15582Y142489D01*
X14613Y143136D01*
X13536Y143582D01*
X12394Y143809D01*
X11228D01*
X10086Y143582D01*
X9009Y143136D01*
X8040Y142489D01*
X7216Y141665D01*
X6569Y140696D01*
X6123Y139619D01*
X5896Y138476D01*
Y137311D01*
X6123Y136168D01*
X6569Y135092D01*
X7216Y134123D01*
X8040Y133299D01*
X9009Y132652D01*
X9974Y132252D01*
X10020Y132052D01*
Y131924D01*
X9974Y131725D01*
X9009Y131325D01*
X8040Y130677D01*
X7216Y129853D01*
X6569Y128885D01*
X6123Y127808D01*
X5896Y126665D01*
Y125500D01*
X6123Y124357D01*
X6569Y123281D01*
X7216Y122312D01*
X8040Y121488D01*
X9009Y120841D01*
X10086Y120395D01*
X11228Y120167D01*
X12394D01*
X13536Y120395D01*
X14613Y120841D01*
X15582Y121488D01*
X16406Y122312D01*
X16482Y122426D01*
X16982D01*
X17059Y122312D01*
X17883Y121488D01*
X18852Y120841D01*
X19928Y120395D01*
X21071Y120167D01*
X22236D01*
X23379Y120395D01*
X24455Y120841D01*
X25424Y121488D01*
X26248Y122312D01*
X26325Y122426D01*
X26825D01*
X26901Y122312D01*
X27725Y121488D01*
X28694Y120841D01*
X29771Y120395D01*
X30913Y120167D01*
X32079D01*
X33222Y120395D01*
X34298Y120841D01*
X35267Y121488D01*
X36091Y122312D01*
X36167Y122426D01*
X36667D01*
X36744Y122312D01*
X37568Y121488D01*
X38537Y120841D01*
X39613Y120395D01*
X40756Y120167D01*
X41921D01*
X43064Y120395D01*
X44141Y120841D01*
X45109Y121488D01*
X45933Y122312D01*
X46010Y122426D01*
X46510D01*
X46586Y122312D01*
X47410Y121488D01*
X48379Y120841D01*
X49456Y120395D01*
X50599Y120167D01*
X51764D01*
X52907Y120395D01*
X53983Y120841D01*
X54952Y121488D01*
X55776Y122312D01*
X56423Y123281D01*
X56869Y124357D01*
X57096Y125500D01*
Y126665D01*
X56869Y127808D01*
X56423Y128885D01*
X55776Y129853D01*
X54952Y130677D01*
X53983Y131325D01*
X53018Y131725D01*
X52972Y131924D01*
Y132052D01*
X53018Y132252D01*
X53983Y132652D01*
X54952Y133299D01*
X55776Y134123D01*
X56423Y135092D01*
X56869Y136168D01*
X57096Y137311D01*
Y138476D01*
X56869Y139619D01*
X56423Y140696D01*
X55776Y141665D01*
X54952Y142489D01*
X53983Y143136D01*
X52907Y143582D01*
X51764Y143809D01*
D02*
G37*
G36*
X319442Y153673D02*
X318353D01*
X317302Y153392D01*
X316359Y152847D01*
X315590Y152078D01*
X315045Y151135D01*
X314764Y150084D01*
Y148995D01*
X315045Y147944D01*
X315419Y147297D01*
X315045Y146651D01*
X314764Y145599D01*
Y144511D01*
X315040Y143480D01*
X314764Y142450D01*
Y141361D01*
X315045Y140310D01*
X315590Y139367D01*
X316359Y138598D01*
X317302Y138054D01*
X318353Y137772D01*
X319442D01*
X320493Y138054D01*
X321436Y138598D01*
X322205Y139367D01*
X322750Y140310D01*
X323031Y141361D01*
Y142450D01*
X322755Y143480D01*
X323031Y144511D01*
Y145599D01*
X322750Y146651D01*
X322376Y147297D01*
X322750Y147944D01*
X323031Y148995D01*
Y150084D01*
X322750Y151135D01*
X322205Y152078D01*
X321436Y152847D01*
X320493Y153392D01*
X319442Y153673D01*
D02*
G37*
G36*
X305269Y143110D02*
X304180D01*
X303129Y142829D01*
X302186Y142284D01*
X301416Y141515D01*
X300872Y140572D01*
X300590Y139521D01*
Y138432D01*
X300872Y137381D01*
X301416Y136438D01*
X302186Y135669D01*
X303129Y135124D01*
X304180Y134843D01*
X305269D01*
X306320Y135124D01*
X307263Y135669D01*
X308032Y136438D01*
X308576Y137381D01*
X308858Y138432D01*
Y139521D01*
X308576Y140572D01*
X308032Y141515D01*
X307263Y142284D01*
X306320Y142829D01*
X305269Y143110D01*
D02*
G37*
G36*
X379678Y133858D02*
X378590D01*
X377538Y133577D01*
X376596Y133032D01*
X375826Y132263D01*
X375282Y131320D01*
X375000Y130269D01*
Y129180D01*
X375282Y128129D01*
X375826Y127186D01*
X376596Y126417D01*
X377538Y125872D01*
X378590Y125591D01*
X379678D01*
X380730Y125872D01*
X381672Y126417D01*
X382442Y127186D01*
X382986Y128129D01*
X383268Y129180D01*
Y130269D01*
X382986Y131320D01*
X382442Y132263D01*
X381672Y133032D01*
X380730Y133577D01*
X379678Y133858D01*
D02*
G37*
G36*
X96399Y125820D02*
X95310D01*
X94259Y125538D01*
X93886Y125323D01*
X93513Y125538D01*
X92462Y125820D01*
X91373D01*
X90322Y125538D01*
X89379Y124994D01*
X88609Y124224D01*
X88065Y123282D01*
X87783Y122230D01*
Y121142D01*
X88065Y120090D01*
X88609Y119148D01*
X89379Y118378D01*
X89752Y118163D01*
Y117335D01*
X89379Y117120D01*
X88609Y116350D01*
X88065Y115408D01*
X87783Y114356D01*
Y113268D01*
X88065Y112216D01*
X88609Y111274D01*
X89379Y110504D01*
X89752Y110289D01*
Y109331D01*
X90034Y108279D01*
X90578Y107337D01*
X91000Y106915D01*
X90966Y106654D01*
X90196Y105885D01*
X89652Y104942D01*
X89370Y103891D01*
Y102802D01*
X89652Y101751D01*
X90196Y100808D01*
X90966Y100039D01*
X91908Y99494D01*
X92960Y99213D01*
X94048D01*
X95100Y99494D01*
X96042Y100039D01*
X96812Y100808D01*
X97356Y101751D01*
X97638Y102802D01*
Y103891D01*
X97356Y104942D01*
X97154Y105293D01*
X97472Y105741D01*
X98367D01*
X99418Y106023D01*
X100361Y106567D01*
X101131Y107337D01*
X101675Y108279D01*
X101957Y109331D01*
Y110419D01*
X101675Y111471D01*
X101131Y112413D01*
X100361Y113183D01*
X99988Y113398D01*
Y114226D01*
X100361Y114441D01*
X101131Y115211D01*
X101675Y116153D01*
X101957Y117205D01*
Y118293D01*
X101675Y119345D01*
X101131Y120287D01*
X100361Y121057D01*
X99988Y121272D01*
Y122230D01*
X99707Y123282D01*
X99162Y124224D01*
X98393Y124994D01*
X97450Y125538D01*
X96399Y125820D01*
D02*
G37*
G36*
X369442Y128847D02*
X368353D01*
X367302Y128565D01*
X366359Y128021D01*
X365590Y127251D01*
X365045Y126308D01*
X364764Y125257D01*
Y124168D01*
X365045Y123117D01*
X365590Y122174D01*
X366359Y121405D01*
X367302Y120861D01*
X368353Y120579D01*
X369442D01*
X370493Y120861D01*
X371436Y121405D01*
X372205Y122174D01*
X372750Y123117D01*
X373031Y124168D01*
Y125257D01*
X372750Y126308D01*
X372205Y127251D01*
X371436Y128021D01*
X370493Y128565D01*
X369442Y128847D01*
D02*
G37*
G36*
X363536Y117126D02*
X362448D01*
X361397Y116844D01*
X360454Y116300D01*
X360433Y116279D01*
X360412Y116300D01*
X359470Y116844D01*
X358418Y117126D01*
X357330D01*
X356278Y116844D01*
X355336Y116300D01*
X354566Y115530D01*
X354022Y114588D01*
X353740Y113536D01*
Y112448D01*
X354022Y111397D01*
X354566Y110454D01*
X355336Y109684D01*
X356278Y109140D01*
X357330Y108858D01*
X358418D01*
X359470Y109140D01*
X360412Y109684D01*
X360433Y109705D01*
X360454Y109684D01*
X361397Y109140D01*
X362448Y108858D01*
X363536D01*
X364588Y109140D01*
X365530Y109684D01*
X366300Y110454D01*
X366844Y111397D01*
X367126Y112448D01*
Y113536D01*
X366844Y114588D01*
X366300Y115530D01*
X365530Y116300D01*
X364588Y116844D01*
X363536Y117126D01*
D02*
G37*
G36*
X338544Y112099D02*
X337456D01*
X336404Y111817D01*
X336032Y111601D01*
X335659Y111817D01*
X334607Y112099D01*
X333519D01*
X332467Y111817D01*
X331525Y111273D01*
X330755Y110503D01*
X330211Y109560D01*
X329929Y108509D01*
Y107945D01*
X329556Y107729D01*
X328787Y106959D01*
X328242Y106017D01*
X327961Y104965D01*
Y103877D01*
X328242Y102826D01*
X328787Y101883D01*
X329489Y101181D01*
X329527Y100878D01*
X329489Y100575D01*
X328787Y99873D01*
X328242Y98930D01*
X327961Y97879D01*
Y96790D01*
X328242Y95739D01*
X328787Y94796D01*
X329489Y94094D01*
X329527Y93791D01*
X329489Y93488D01*
X328787Y92786D01*
X328242Y91844D01*
X327961Y90792D01*
Y89704D01*
X328242Y88652D01*
X328787Y87710D01*
X329489Y87008D01*
X329527Y86705D01*
X329489Y86402D01*
X328787Y85700D01*
X328242Y84757D01*
X327961Y83706D01*
Y82617D01*
X328169Y81839D01*
X328068Y81660D01*
X327795Y81390D01*
X326826D01*
X325775Y81108D01*
X325362Y80870D01*
X324639Y81287D01*
X323587Y81569D01*
X322499D01*
X321447Y81287D01*
X320505Y80743D01*
X319735Y79973D01*
X319191Y79031D01*
X318909Y77979D01*
Y76891D01*
X319191Y75840D01*
X319735Y74897D01*
X320505Y74127D01*
X321447Y73583D01*
X322499Y73301D01*
X323587D01*
X324639Y73583D01*
X325051Y73821D01*
X325775Y73404D01*
X326826Y73122D01*
X327914D01*
X328966Y73404D01*
X329908Y73948D01*
X330678Y74718D01*
X331222Y75660D01*
X331280Y75874D01*
X331862Y76116D01*
X332467Y75766D01*
X333519Y75484D01*
X334607D01*
X335659Y75766D01*
X336032Y75981D01*
X336404Y75766D01*
X337456Y75484D01*
X338544D01*
X339596Y75766D01*
X340201Y76116D01*
X340783Y75874D01*
X340841Y75660D01*
X341385Y74718D01*
X342155Y73948D01*
X343097Y73404D01*
X344149Y73122D01*
X345237D01*
X346288Y73404D01*
X347012Y73822D01*
X347424Y73584D01*
X348476Y73302D01*
X349564D01*
X350616Y73584D01*
X351558Y74128D01*
X352328Y74898D01*
X352872Y75841D01*
X353154Y76892D01*
Y77980D01*
X352872Y79032D01*
X352328Y79974D01*
X351558Y80744D01*
X350616Y81288D01*
X349564Y81570D01*
X348476D01*
X347424Y81288D01*
X346700Y80870D01*
X346288Y81108D01*
X345237Y81390D01*
X344268D01*
X343995Y81660D01*
X343894Y81839D01*
X344102Y82617D01*
Y83706D01*
X343821Y84757D01*
X343276Y85700D01*
X342574Y86402D01*
X342536Y86705D01*
X342574Y87008D01*
X343276Y87710D01*
X343821Y88652D01*
X344102Y89704D01*
Y90792D01*
X343821Y91844D01*
X343276Y92786D01*
X342574Y93488D01*
X342536Y93791D01*
X342574Y94094D01*
X343276Y94796D01*
X343821Y95739D01*
X344102Y96790D01*
Y97879D01*
X343821Y98930D01*
X343276Y99873D01*
X342574Y100575D01*
X342536Y100878D01*
X342574Y101181D01*
X343276Y101883D01*
X343821Y102826D01*
X344102Y103877D01*
Y104965D01*
X343821Y106017D01*
X343276Y106959D01*
X342507Y107729D01*
X342134Y107945D01*
Y108509D01*
X341852Y109560D01*
X341308Y110503D01*
X340538Y111273D01*
X339596Y111817D01*
X338544Y112099D01*
D02*
G37*
G36*
X38299Y111644D02*
X37134D01*
X35991Y111416D01*
X34915Y110970D01*
X33946Y110323D01*
X33122Y109499D01*
X32967Y109267D01*
X32467D01*
X32311Y109499D01*
X31487Y110323D01*
X30518Y110970D01*
X29442Y111416D01*
X28299Y111644D01*
X27134D01*
X25991Y111416D01*
X24915Y110970D01*
X23946Y110323D01*
X23122Y109499D01*
X22966Y109267D01*
X22467D01*
X22311Y109499D01*
X21487Y110323D01*
X20518Y110970D01*
X19442Y111416D01*
X18299Y111644D01*
X17134D01*
X15991Y111416D01*
X14915Y110970D01*
X13946Y110323D01*
X13122Y109499D01*
X12474Y108530D01*
X12028Y107454D01*
X11801Y106311D01*
Y105146D01*
X12028Y104003D01*
X12474Y102926D01*
X13122Y101957D01*
X13946Y101134D01*
X14178Y100978D01*
Y100478D01*
X13946Y100323D01*
X13122Y99499D01*
X12474Y98530D01*
X12028Y97454D01*
X11801Y96311D01*
Y95146D01*
X12028Y94003D01*
X12474Y92926D01*
X13122Y91957D01*
X13946Y91134D01*
X14178Y90978D01*
Y90478D01*
X13946Y90323D01*
X13122Y89499D01*
X12474Y88530D01*
X12028Y87454D01*
X11801Y86311D01*
Y85146D01*
X12028Y84003D01*
X12474Y82926D01*
X13122Y81958D01*
X13946Y81134D01*
X14178Y80978D01*
Y80478D01*
X13946Y80323D01*
X13122Y79499D01*
X12474Y78530D01*
X12028Y77454D01*
X11801Y76311D01*
Y75146D01*
X12028Y74003D01*
X12474Y72926D01*
X13122Y71957D01*
X13946Y71134D01*
X14178Y70978D01*
Y70478D01*
X13946Y70323D01*
X13122Y69499D01*
X12474Y68530D01*
X12028Y67454D01*
X11801Y66311D01*
Y65146D01*
X12028Y64003D01*
X12474Y62926D01*
X13122Y61958D01*
X13946Y61134D01*
X14178Y60978D01*
Y60478D01*
X13946Y60323D01*
X13122Y59499D01*
X12474Y58530D01*
X12028Y57454D01*
X11801Y56311D01*
Y55146D01*
X12028Y54003D01*
X12474Y52926D01*
X13122Y51957D01*
X13946Y51134D01*
X14178Y50978D01*
Y50478D01*
X13946Y50323D01*
X13122Y49499D01*
X12474Y48530D01*
X12028Y47454D01*
X11801Y46311D01*
Y45146D01*
X12028Y44003D01*
X12474Y42926D01*
X13122Y41958D01*
X13946Y41134D01*
X14178Y40978D01*
Y40478D01*
X13946Y40323D01*
X13122Y39499D01*
X12474Y38530D01*
X12028Y37454D01*
X11801Y36311D01*
Y35146D01*
X12028Y34003D01*
X12474Y32926D01*
X13122Y31958D01*
X13946Y31134D01*
X14915Y30486D01*
X15991Y30040D01*
X17134Y29813D01*
X18299D01*
X19442Y30040D01*
X20518Y30486D01*
X21487Y31134D01*
X22311Y31958D01*
X22467Y32190D01*
X22966D01*
X23122Y31958D01*
X23946Y31134D01*
X24915Y30486D01*
X25991Y30040D01*
X27134Y29813D01*
X28299D01*
X29442Y30040D01*
X30518Y30486D01*
X31487Y31134D01*
X32311Y31958D01*
X32467Y32190D01*
X32967D01*
X33122Y31958D01*
X33946Y31134D01*
X34915Y30486D01*
X35991Y30040D01*
X37134Y29813D01*
X37205D01*
Y28983D01*
X37486Y27932D01*
X38031Y26989D01*
X38800Y26220D01*
X39743Y25675D01*
X40794Y25394D01*
X41142D01*
Y25046D01*
X41423Y23995D01*
X41968Y23052D01*
X42737Y22283D01*
X43680Y21738D01*
X44731Y21457D01*
X45079D01*
Y21109D01*
X45360Y20058D01*
X45905Y19115D01*
X46674Y18346D01*
X47617Y17801D01*
X48668Y17520D01*
X49016D01*
Y17172D01*
X49297Y16121D01*
X49842Y15178D01*
X50611Y14409D01*
X51554Y13864D01*
X52194Y13693D01*
Y12944D01*
X52476Y11893D01*
X53020Y10950D01*
X53790Y10181D01*
X54733Y9636D01*
X55784Y9354D01*
X56872D01*
X57924Y9636D01*
X58867Y10181D01*
X59636Y10950D01*
X60180Y11893D01*
X60462Y12944D01*
Y14033D01*
X60180Y15084D01*
X59636Y16027D01*
X58867Y16796D01*
X57924Y17341D01*
X57284Y17512D01*
Y18261D01*
X57002Y19312D01*
X56458Y20255D01*
X55688Y21024D01*
X54745Y21569D01*
X53694Y21850D01*
X53347D01*
Y22198D01*
X53065Y23249D01*
X52521Y24192D01*
X51751Y24961D01*
X50808Y25506D01*
X49757Y25787D01*
X49409D01*
Y26135D01*
X49128Y27186D01*
X48583Y28129D01*
X47814Y28899D01*
X46871Y29443D01*
X45820Y29724D01*
X45472D01*
Y30072D01*
X45191Y31123D01*
X44646Y32066D01*
X43877Y32836D01*
X43106Y33281D01*
X43405Y34003D01*
X43632Y35146D01*
Y36311D01*
X43405Y37454D01*
X42959Y38530D01*
X42311Y39499D01*
X41487Y40323D01*
X41255Y40478D01*
Y40978D01*
X41487Y41134D01*
X42311Y41958D01*
X42959Y42926D01*
X43405Y44003D01*
X43632Y45146D01*
Y46311D01*
X43405Y47454D01*
X42959Y48530D01*
X42311Y49499D01*
X41487Y50323D01*
X41255Y50478D01*
Y50978D01*
X41487Y51134D01*
X42311Y51957D01*
X42959Y52926D01*
X43405Y54003D01*
X43632Y55146D01*
Y56114D01*
X44125Y56328D01*
X44706Y55747D01*
X45649Y55203D01*
X46700Y54921D01*
X47047D01*
Y54574D01*
X47329Y53522D01*
X47873Y52580D01*
X48643Y51810D01*
X49586Y51266D01*
X50637Y50984D01*
X50984D01*
Y50637D01*
X51266Y49586D01*
X51810Y48643D01*
X52580Y47873D01*
X53170Y47533D01*
Y46955D01*
X52580Y46615D01*
X51810Y45845D01*
X51266Y44903D01*
X50984Y43851D01*
Y42763D01*
X51266Y41712D01*
X51810Y40769D01*
X52580Y39999D01*
X53170Y39659D01*
Y39081D01*
X52580Y38741D01*
X51810Y37971D01*
X51266Y37029D01*
X50984Y35977D01*
Y34889D01*
X51266Y33838D01*
X51810Y32895D01*
X52580Y32125D01*
X53522Y31581D01*
X54574Y31299D01*
X54921D01*
Y30952D01*
X55203Y29901D01*
X55747Y28958D01*
X56517Y28188D01*
X57459Y27644D01*
X58511Y27362D01*
X58858D01*
Y27015D01*
X59140Y25964D01*
X59684Y25021D01*
X60454Y24251D01*
X61396Y23707D01*
X62448Y23425D01*
X63536D01*
X64588Y23707D01*
X65530Y24251D01*
X65839Y24559D01*
X66339Y24352D01*
Y23865D01*
X66620Y22814D01*
X67164Y21871D01*
X67934Y21102D01*
X68877Y20557D01*
X69928Y20276D01*
X71017D01*
X72068Y20557D01*
X73011Y21102D01*
X73780Y21871D01*
X74325Y22814D01*
X74606Y23865D01*
Y24954D01*
X74325Y26005D01*
X73780Y26948D01*
X73011Y27717D01*
X72068Y28262D01*
X71017Y28543D01*
X69928D01*
X68877Y28262D01*
X67934Y27717D01*
X67626Y27409D01*
X67126Y27616D01*
Y28103D01*
X66844Y29155D01*
X66300Y30097D01*
X65530Y30867D01*
X64588Y31411D01*
X63536Y31693D01*
X63189D01*
Y32040D01*
X62907Y33092D01*
X62363Y34034D01*
X61593Y34804D01*
X60651Y35348D01*
X59599Y35630D01*
X59252D01*
Y35977D01*
X58970Y37029D01*
X58426Y37971D01*
X57656Y38741D01*
X57067Y39081D01*
Y39659D01*
X57656Y39999D01*
X58426Y40769D01*
X58970Y41712D01*
X59252Y42763D01*
Y43851D01*
X58970Y44903D01*
X58426Y45845D01*
X57656Y46615D01*
X57067Y46955D01*
Y47533D01*
X57656Y47873D01*
X58426Y48643D01*
X58970Y49586D01*
X59252Y50637D01*
Y51725D01*
X58970Y52777D01*
X58426Y53719D01*
X57656Y54489D01*
X56714Y55033D01*
X55662Y55315D01*
X55315D01*
Y55662D01*
X55033Y56714D01*
X54489Y57656D01*
X53719Y58426D01*
X52777Y58970D01*
X51725Y59252D01*
X51378D01*
Y59599D01*
X51096Y60651D01*
X50552Y61593D01*
X49782Y62363D01*
X48840Y62907D01*
X47788Y63189D01*
X46700D01*
X45649Y62907D01*
X44706Y62363D01*
X43936Y61593D01*
X43392Y60651D01*
X43110Y59599D01*
Y59203D01*
X42610Y59052D01*
X42311Y59499D01*
X41487Y60323D01*
X41255Y60478D01*
Y60978D01*
X41487Y61134D01*
X42311Y61958D01*
X42959Y62926D01*
X43405Y64003D01*
X43632Y65146D01*
Y66311D01*
X43405Y67454D01*
X42959Y68530D01*
X42311Y69499D01*
X41487Y70323D01*
X41255Y70478D01*
Y70978D01*
X41487Y71134D01*
X42311Y71957D01*
X42959Y72926D01*
X43405Y74003D01*
X43632Y75146D01*
Y76311D01*
X43405Y77454D01*
X42959Y78530D01*
X42311Y79499D01*
X41487Y80323D01*
X41255Y80478D01*
Y80978D01*
X41487Y81134D01*
X42311Y81958D01*
X42959Y82926D01*
X43405Y84003D01*
X43632Y85146D01*
Y86311D01*
X43405Y87454D01*
X42959Y88530D01*
X42311Y89499D01*
X41487Y90323D01*
X41255Y90478D01*
Y90978D01*
X41487Y91134D01*
X42311Y91957D01*
X42959Y92926D01*
X43405Y94003D01*
X43632Y95146D01*
Y96311D01*
X43405Y97454D01*
X42959Y98530D01*
X42311Y99499D01*
X41487Y100323D01*
X41255Y100478D01*
Y100978D01*
X41487Y101134D01*
X42311Y101957D01*
X42959Y102926D01*
X43405Y104003D01*
X43632Y105146D01*
Y106311D01*
X43405Y107454D01*
X42959Y108530D01*
X42311Y109499D01*
X41487Y110323D01*
X40519Y110970D01*
X39442Y111416D01*
X38299Y111644D01*
D02*
G37*
G36*
X298897Y117126D02*
X297808D01*
X296757Y116844D01*
X295814Y116300D01*
X295045Y115530D01*
X294500Y114588D01*
X294219Y113536D01*
Y112448D01*
X294500Y111397D01*
X295045Y110454D01*
X295814Y109684D01*
X296757Y109140D01*
X297808Y108858D01*
X298897D01*
X299948Y109140D01*
X300678Y109561D01*
X301145Y109094D01*
X302088Y108549D01*
X303139Y108268D01*
X304228D01*
X305279Y108549D01*
X306222Y109094D01*
X306991Y109863D01*
X307536Y110806D01*
X307817Y111857D01*
Y112946D01*
X307536Y113997D01*
X306991Y114940D01*
X306222Y115709D01*
X305279Y116254D01*
X304228Y116535D01*
X303139D01*
X302088Y116254D01*
X301358Y115833D01*
X300891Y116300D01*
X299948Y116844D01*
X298897Y117126D01*
D02*
G37*
G36*
X284009Y108661D02*
X282920D01*
X281869Y108380D01*
X281496Y108164D01*
X281123Y108380D01*
X280072Y108661D01*
X278983D01*
X277932Y108380D01*
X277559Y108164D01*
X277186Y108380D01*
X276135Y108661D01*
X275046D01*
X273995Y108380D01*
X273052Y107835D01*
X272283Y107066D01*
X271738Y106123D01*
X271457Y105072D01*
Y104507D01*
X271084Y104292D01*
X270314Y103523D01*
X269770Y102580D01*
X269488Y101529D01*
Y100964D01*
X269115Y100749D01*
X268346Y99979D01*
X267801Y99037D01*
X267520Y97985D01*
Y96897D01*
X267801Y95845D01*
X268346Y94903D01*
X269115Y94133D01*
X269488Y93918D01*
Y93353D01*
X269770Y92302D01*
X270314Y91359D01*
X271084Y90590D01*
X271457Y90374D01*
Y89810D01*
X271739Y88759D01*
X272283Y87816D01*
X273052Y87046D01*
X273995Y86502D01*
X275046Y86221D01*
X276135D01*
X277186Y86502D01*
X277559Y86717D01*
X277932Y86502D01*
X278983Y86221D01*
X280072D01*
X281123Y86502D01*
X281496Y86717D01*
X281869Y86502D01*
X282920Y86221D01*
X284009D01*
X285060Y86502D01*
X286003Y87046D01*
X286772Y87816D01*
X287317Y88759D01*
X287598Y89810D01*
Y90374D01*
X287971Y90590D01*
X288741Y91359D01*
X289285Y92302D01*
X289567Y93353D01*
Y93918D01*
X289940Y94133D01*
X290709Y94903D01*
X291254Y95845D01*
X291535Y96897D01*
Y97985D01*
X291254Y99037D01*
X290709Y99979D01*
X289940Y100749D01*
X289567Y100964D01*
Y101529D01*
X289285Y102580D01*
X288741Y103523D01*
X287971Y104292D01*
X287598Y104507D01*
Y105072D01*
X287317Y106123D01*
X286772Y107066D01*
X286003Y107835D01*
X285060Y108380D01*
X284009Y108661D01*
D02*
G37*
G36*
X63926Y127484D02*
X62837D01*
X61786Y127202D01*
X60843Y126658D01*
X60074Y125889D01*
X59530Y124946D01*
X59248Y123895D01*
Y122806D01*
X59524Y121776D01*
X59248Y120745D01*
Y119657D01*
X59524Y118626D01*
X59248Y117595D01*
Y116507D01*
X59524Y115476D01*
X59248Y114446D01*
Y113357D01*
X59530Y112306D01*
X60074Y111363D01*
X60843Y110594D01*
X61786Y110049D01*
X62764Y109787D01*
X62834Y109667D01*
X63604Y108897D01*
X64546Y108353D01*
X65597Y108071D01*
X66686D01*
X67737Y108353D01*
X68680Y108897D01*
X68898Y109115D01*
X69115Y108897D01*
X70058Y108353D01*
X71109Y108071D01*
X72198D01*
X73249Y108353D01*
X74192Y108897D01*
X74941Y109646D01*
X74954D01*
X76005Y109927D01*
X76948Y110472D01*
X77717Y111241D01*
X78262Y112184D01*
X78543Y113235D01*
Y114324D01*
X78267Y115354D01*
X78543Y116385D01*
Y117473D01*
X78267Y118504D01*
X78543Y119535D01*
Y120623D01*
X78267Y121653D01*
X78543Y122684D01*
Y123773D01*
X78262Y124824D01*
X77717Y125767D01*
X76948Y126536D01*
X76005Y127081D01*
X74954Y127362D01*
X73865D01*
X72814Y127081D01*
X71871Y126536D01*
X71653Y126319D01*
X71436Y126536D01*
X70493Y127081D01*
X69442Y127362D01*
X68353D01*
X67302Y127081D01*
X66359Y126536D01*
X66201Y126377D01*
X65920Y126658D01*
X64977Y127202D01*
X63926Y127484D01*
D02*
G37*
G36*
X379284Y104134D02*
X378196D01*
X377145Y103852D01*
X376333Y103383D01*
X375521Y103852D01*
X374469Y104134D01*
X373381D01*
X372330Y103852D01*
X371387Y103308D01*
X370617Y102538D01*
X370073Y101596D01*
X369791Y100544D01*
Y99456D01*
X370073Y98404D01*
X370617Y97462D01*
X371387Y96692D01*
X372330Y96148D01*
X373381Y95866D01*
X374469D01*
X375521Y96148D01*
X376333Y96617D01*
X377145Y96148D01*
X378196Y95866D01*
X379284D01*
X380336Y96148D01*
X381278Y96692D01*
X382048Y97462D01*
X382592Y98404D01*
X382874Y99456D01*
Y100544D01*
X382592Y101596D01*
X382048Y102538D01*
X381278Y103308D01*
X380336Y103852D01*
X379284Y104134D01*
D02*
G37*
G36*
X354087Y107283D02*
X352999D01*
X351948Y107002D01*
X351005Y106457D01*
X350235Y105688D01*
X349691Y104745D01*
X349410Y103694D01*
Y102605D01*
X349691Y101554D01*
X350235Y100611D01*
X351005Y99842D01*
X351948Y99297D01*
X352999Y99016D01*
X354087D01*
X355139Y99297D01*
X356082Y99842D01*
X356851Y100611D01*
X357395Y101554D01*
X357677Y102605D01*
Y103694D01*
X357395Y104745D01*
X356851Y105688D01*
X356082Y106457D01*
X355139Y107002D01*
X354087Y107283D01*
D02*
G37*
G36*
X51725Y106496D02*
X50637D01*
X49586Y106214D01*
X48643Y105670D01*
X47873Y104901D01*
X47329Y103958D01*
X47047Y102906D01*
Y101818D01*
X47329Y100767D01*
X47873Y99824D01*
X48643Y99054D01*
X49586Y98510D01*
X50637Y98228D01*
X51725D01*
X52777Y98510D01*
X53719Y99054D01*
X54489Y99824D01*
X55033Y100767D01*
X55315Y101818D01*
Y102906D01*
X55033Y103958D01*
X54489Y104901D01*
X53719Y105670D01*
X52777Y106214D01*
X51725Y106496D01*
D02*
G37*
G36*
X319048Y91890D02*
X317960D01*
X316908Y91608D01*
X315966Y91064D01*
X315196Y90294D01*
X314652Y89351D01*
X314370Y88300D01*
Y87212D01*
X314652Y86160D01*
X315196Y85218D01*
X315966Y84448D01*
X316908Y83904D01*
X317960Y83622D01*
X319048D01*
X320099Y83904D01*
X321042Y84448D01*
X321812Y85218D01*
X322356Y86160D01*
X322638Y87212D01*
Y88300D01*
X322356Y89351D01*
X321812Y90294D01*
X321042Y91064D01*
X320099Y91608D01*
X319048Y91890D01*
D02*
G37*
G36*
X56647Y98622D02*
X55558D01*
X54507Y98340D01*
X53564Y97796D01*
X52794Y97026D01*
X52250Y96084D01*
X51968Y95032D01*
Y93944D01*
X52250Y92893D01*
X52794Y91950D01*
X53564Y91180D01*
X53830Y91027D01*
X53764Y90531D01*
X53522Y90466D01*
X52580Y89922D01*
X51810Y89152D01*
X51266Y88210D01*
X50984Y87158D01*
Y86070D01*
X51266Y85019D01*
X51810Y84076D01*
X52580Y83306D01*
X53170Y82966D01*
Y82389D01*
X52580Y82048D01*
X51810Y81278D01*
X51266Y80336D01*
X50984Y79284D01*
Y78196D01*
X51266Y77145D01*
X51810Y76202D01*
X52580Y75432D01*
X53170Y75092D01*
Y74515D01*
X52580Y74174D01*
X51810Y73404D01*
X51266Y72462D01*
X50984Y71410D01*
Y70322D01*
X51266Y69270D01*
X51810Y68328D01*
X52580Y67558D01*
X53522Y67014D01*
X54574Y66732D01*
X54921D01*
Y66385D01*
X55203Y65333D01*
X55747Y64391D01*
X56517Y63621D01*
X57459Y63077D01*
X58511Y62795D01*
X58858D01*
Y62448D01*
X59140Y61396D01*
X59684Y60454D01*
X60454Y59684D01*
X61396Y59140D01*
X62448Y58858D01*
X62795D01*
Y58511D01*
X63077Y57459D01*
X63621Y56517D01*
X64391Y55747D01*
X65333Y55203D01*
X66385Y54921D01*
X67473D01*
X68525Y55203D01*
X69467Y55747D01*
X70237Y56517D01*
X70578Y57107D01*
X71155D01*
X71495Y56517D01*
X72265Y55747D01*
X73207Y55203D01*
X74259Y54921D01*
X75347D01*
X76399Y55203D01*
X77341Y55747D01*
X78111Y56517D01*
X78452Y57107D01*
X79029D01*
X79369Y56517D01*
X80139Y55747D01*
X81082Y55203D01*
X82133Y54921D01*
X83221D01*
X84273Y55203D01*
X85215Y55747D01*
X85985Y56517D01*
X86326Y57107D01*
X86903D01*
X87243Y56517D01*
X88013Y55747D01*
X88956Y55203D01*
X90007Y54921D01*
X90354D01*
Y54574D01*
X90636Y53522D01*
X91180Y52580D01*
X91950Y51810D01*
X92893Y51266D01*
X93944Y50984D01*
X95032D01*
X96084Y51266D01*
X97026Y51810D01*
X97796Y52580D01*
X98057Y53032D01*
X98557D01*
X98818Y52580D01*
X99588Y51810D01*
X100295Y51402D01*
X100305Y50830D01*
X99824Y50552D01*
X99054Y49782D01*
X98510Y48840D01*
X98228Y47788D01*
Y46700D01*
X98510Y45649D01*
X99054Y44706D01*
X99824Y43936D01*
X100414Y43596D01*
Y43018D01*
X99824Y42678D01*
X99054Y41908D01*
X98510Y40966D01*
X98376Y40466D01*
X97840Y40396D01*
X97796Y40471D01*
X97026Y41241D01*
X96084Y41785D01*
X95032Y42067D01*
X93944D01*
X92893Y41785D01*
X91950Y41241D01*
X91180Y40471D01*
X90636Y39529D01*
X90354Y38477D01*
Y37389D01*
X90636Y36338D01*
X91030Y35656D01*
X90846Y35471D01*
X90301Y34529D01*
X90020Y33477D01*
Y32389D01*
X90301Y31337D01*
X90846Y30395D01*
X91615Y29625D01*
X92558Y29081D01*
X93609Y28799D01*
X94698D01*
X95749Y29081D01*
X96692Y29625D01*
X97461Y30395D01*
X97751Y30897D01*
X97781Y30900D01*
X98270Y30796D01*
X98510Y29901D01*
X99054Y28958D01*
X99815Y28197D01*
X99361Y27410D01*
X99079Y26358D01*
Y25270D01*
X99361Y24218D01*
X99385Y24175D01*
X98919Y23368D01*
X98638Y22317D01*
Y21228D01*
X98919Y20177D01*
X99275Y19561D01*
X98904Y18918D01*
X98622Y17867D01*
Y16779D01*
X98904Y15727D01*
X99005Y15551D01*
X98904Y15375D01*
X98622Y14324D01*
Y13235D01*
X98904Y12184D01*
X99448Y11241D01*
X100218Y10472D01*
X101160Y9927D01*
X102212Y9646D01*
X103300D01*
X104351Y9927D01*
X105294Y10472D01*
X106064Y11241D01*
X106608Y12184D01*
X106890Y13235D01*
Y14324D01*
X106608Y15375D01*
X106506Y15551D01*
X106608Y15727D01*
X106890Y16779D01*
Y17867D01*
X106608Y18918D01*
X106253Y19534D01*
X106624Y20177D01*
X106905Y21228D01*
Y22317D01*
X106624Y23368D01*
X106599Y23411D01*
X107065Y24218D01*
X107346Y25270D01*
Y26358D01*
X107065Y27410D01*
X106520Y28352D01*
X105760Y29113D01*
X106214Y29901D01*
X106496Y30952D01*
Y32040D01*
X106214Y33092D01*
X105670Y34034D01*
X104901Y34804D01*
X104311Y35144D01*
Y35722D01*
X104901Y36062D01*
X105670Y36832D01*
X106214Y37775D01*
X106496Y38826D01*
Y39914D01*
X106214Y40966D01*
X105670Y41908D01*
X104901Y42678D01*
X104311Y43018D01*
Y43596D01*
X104901Y43936D01*
X105670Y44706D01*
X106214Y45649D01*
X106496Y46700D01*
Y47788D01*
X106214Y48840D01*
X105670Y49782D01*
X104901Y50552D01*
X104193Y50961D01*
X104183Y51533D01*
X104664Y51810D01*
X105434Y52580D01*
X105978Y53522D01*
X106260Y54574D01*
Y55662D01*
X105978Y56714D01*
X105434Y57656D01*
X104664Y58426D01*
X104183Y58704D01*
X104193Y59276D01*
X104901Y59684D01*
X105670Y60454D01*
X106214Y61396D01*
X106496Y62448D01*
Y63536D01*
X106214Y64588D01*
X105670Y65530D01*
X104901Y66300D01*
X103958Y66844D01*
X102906Y67126D01*
X101818D01*
X100767Y66844D01*
X99824Y66300D01*
X99054Y65530D01*
X98510Y64588D01*
X98228Y63536D01*
Y62448D01*
X98510Y61396D01*
X99054Y60454D01*
X99824Y59684D01*
X100305Y59407D01*
X100295Y58835D01*
X99588Y58426D01*
X98818Y57656D01*
X98557Y57204D01*
X98057D01*
X97796Y57656D01*
X97026Y58426D01*
X96084Y58970D01*
X95032Y59252D01*
X94685D01*
Y59599D01*
X94403Y60651D01*
X93859Y61593D01*
X93089Y62363D01*
X92147Y62907D01*
X91095Y63189D01*
X90007D01*
X88956Y62907D01*
X88013Y62363D01*
X87243Y61593D01*
X86903Y61004D01*
X86326D01*
X85985Y61593D01*
X85215Y62363D01*
X84273Y62907D01*
X83221Y63189D01*
X82133D01*
X81082Y62907D01*
X80139Y62363D01*
X79369Y61593D01*
X79029Y61004D01*
X78452D01*
X78111Y61593D01*
X77341Y62363D01*
X76399Y62907D01*
X75347Y63189D01*
X74259D01*
X73207Y62907D01*
X72265Y62363D01*
X71495Y61593D01*
X71155Y61004D01*
X70578D01*
X70237Y61593D01*
X69467Y62363D01*
X68525Y62907D01*
X67473Y63189D01*
X67126D01*
Y63536D01*
X66844Y64588D01*
X66300Y65530D01*
X65530Y66300D01*
X64588Y66844D01*
X63536Y67126D01*
X63189D01*
Y67473D01*
X62907Y68525D01*
X62363Y69467D01*
X61593Y70237D01*
X60651Y70781D01*
X59599Y71063D01*
X59252D01*
Y71410D01*
X58970Y72462D01*
X58426Y73404D01*
X57656Y74174D01*
X57067Y74515D01*
Y75092D01*
X57656Y75432D01*
X58426Y76202D01*
X58785Y76824D01*
X59322Y76754D01*
X59534Y75963D01*
X60078Y75021D01*
X60848Y74251D01*
X61790Y73707D01*
X62842Y73425D01*
X63930D01*
X64981Y73707D01*
X65924Y74251D01*
X66142Y74469D01*
X66359Y74251D01*
X67302Y73707D01*
X68353Y73425D01*
X69442D01*
X70493Y73707D01*
X71436Y74251D01*
X71653Y74469D01*
X71871Y74251D01*
X72814Y73707D01*
X73865Y73425D01*
X74954D01*
X76005Y73707D01*
X76948Y74251D01*
X77717Y75021D01*
X78262Y75963D01*
X78543Y77015D01*
Y78103D01*
X78267Y79134D01*
X78543Y80164D01*
Y81253D01*
X78267Y82284D01*
X78543Y83314D01*
Y84403D01*
X78271Y85419D01*
X78454Y85734D01*
X78976Y85742D01*
X79369Y85060D01*
X80139Y84290D01*
X81082Y83746D01*
X82133Y83465D01*
X83221D01*
X84273Y83746D01*
X85215Y84290D01*
X85985Y85060D01*
X86529Y86003D01*
X86811Y87054D01*
Y88143D01*
X86529Y89194D01*
X85985Y90137D01*
X85215Y90906D01*
X84273Y91451D01*
X83221Y91732D01*
X82133D01*
X81082Y91451D01*
X80139Y90906D01*
X79369Y90137D01*
X78825Y89194D01*
X78713Y88775D01*
X78658Y88754D01*
X78185Y88736D01*
X77717Y89546D01*
X76948Y90316D01*
X76005Y90860D01*
X74954Y91142D01*
X74941D01*
X74192Y91891D01*
X73249Y92435D01*
X72198Y92716D01*
X71109D01*
X70058Y92435D01*
X69115Y91891D01*
X68898Y91673D01*
X68680Y91891D01*
X67737Y92435D01*
X66686Y92716D01*
X65597D01*
X64546Y92435D01*
X63604Y91891D01*
X62855Y91142D01*
X62842D01*
X61790Y90860D01*
X60848Y90316D01*
X60078Y89546D01*
X59534Y88604D01*
X59458Y88321D01*
X59172Y88256D01*
X58930Y88280D01*
X58426Y89152D01*
X57656Y89922D01*
X57391Y90075D01*
X57456Y90571D01*
X57698Y90636D01*
X58641Y91180D01*
X59410Y91950D01*
X59955Y92893D01*
X60236Y93944D01*
Y95032D01*
X59955Y96084D01*
X59410Y97026D01*
X58641Y97796D01*
X57698Y98340D01*
X56647Y98622D01*
D02*
G37*
G36*
X379284Y91535D02*
X378196D01*
X377145Y91254D01*
X376202Y90710D01*
X375432Y89940D01*
X374888Y88997D01*
X374606Y87946D01*
Y86857D01*
X374888Y85806D01*
X375432Y84863D01*
X376202Y84094D01*
X377145Y83549D01*
X378196Y83268D01*
X379284D01*
X380336Y83549D01*
X381278Y84094D01*
X382048Y84863D01*
X382592Y85806D01*
X382874Y86857D01*
Y87946D01*
X382592Y88997D01*
X382048Y89940D01*
X381278Y90710D01*
X380336Y91254D01*
X379284Y91535D01*
D02*
G37*
G36*
X298576Y90748D02*
X297487D01*
X296436Y90466D01*
X295493Y89922D01*
X294724Y89152D01*
X294179Y88210D01*
X293898Y87158D01*
Y86070D01*
X294179Y85019D01*
X294724Y84076D01*
X295493Y83306D01*
X296436Y82762D01*
X297487Y82480D01*
X298576D01*
X299627Y82762D01*
X300570Y83306D01*
X301339Y84076D01*
X301884Y85019D01*
X302165Y86070D01*
Y87158D01*
X301884Y88210D01*
X301339Y89152D01*
X300570Y89922D01*
X299627Y90466D01*
X298576Y90748D01*
D02*
G37*
G36*
X353610Y98380D02*
X352521D01*
X351470Y98098D01*
X350527Y97554D01*
X349758Y96784D01*
X349214Y95842D01*
X348932Y94790D01*
Y93702D01*
X349214Y92651D01*
X349269Y92555D01*
X349024Y91642D01*
Y90554D01*
X349306Y89502D01*
X349850Y88560D01*
X349892Y88518D01*
X349691Y88170D01*
X349410Y87119D01*
Y86031D01*
X349691Y84979D01*
X350235Y84037D01*
X351005Y83267D01*
X351948Y82723D01*
X352999Y82441D01*
X354087D01*
X355139Y82723D01*
X356082Y83267D01*
X356851Y84037D01*
X357395Y84979D01*
X357677Y86031D01*
Y87119D01*
X357395Y88170D01*
X356851Y89113D01*
X356809Y89155D01*
X357010Y89502D01*
X357292Y90554D01*
Y91642D01*
X357010Y92693D01*
X356955Y92789D01*
X357200Y93702D01*
Y94790D01*
X356918Y95842D01*
X356374Y96784D01*
X355604Y97554D01*
X354661Y98098D01*
X353610Y98380D01*
D02*
G37*
G36*
X309599Y88779D02*
X308511D01*
X307459Y88498D01*
X306517Y87954D01*
X305747Y87184D01*
X305203Y86241D01*
X304921Y85190D01*
Y84101D01*
X305203Y83050D01*
X305747Y82107D01*
X306517Y81338D01*
X307459Y80793D01*
X308511Y80512D01*
X309599D01*
X310651Y80793D01*
X311593Y81338D01*
X312363Y82107D01*
X312907Y83050D01*
X313189Y84101D01*
Y85190D01*
X312907Y86241D01*
X312363Y87184D01*
X311593Y87954D01*
X310651Y88498D01*
X309599Y88779D01*
D02*
G37*
G36*
X363143Y87511D02*
X362054D01*
X361003Y87229D01*
X360060Y86685D01*
X359291Y85915D01*
X358746Y84973D01*
X358465Y83921D01*
Y82833D01*
X358746Y81782D01*
X359291Y80839D01*
X360060Y80069D01*
X361003Y79525D01*
X362054Y79243D01*
X363143D01*
X364194Y79525D01*
X365137Y80069D01*
X365906Y80839D01*
X366451Y81782D01*
X366732Y82833D01*
Y83921D01*
X366451Y84973D01*
X365906Y85915D01*
X365137Y86685D01*
X364194Y87229D01*
X363143Y87511D01*
D02*
G37*
G36*
X301725Y73032D02*
X300637D01*
X299586Y72750D01*
X298643Y72206D01*
X298228Y71791D01*
X297814Y72206D01*
X296871Y72750D01*
X295820Y73032D01*
X294731D01*
X293680Y72750D01*
X292737Y72206D01*
X291968Y71436D01*
X291424Y70493D01*
X291142Y69442D01*
Y68353D01*
X291424Y67302D01*
X291968Y66359D01*
X292737Y65590D01*
X293680Y65045D01*
X294731Y64764D01*
X295820D01*
X296871Y65045D01*
X297814Y65590D01*
X298228Y66004D01*
X298643Y65590D01*
X299586Y65045D01*
X300637Y64764D01*
X301725D01*
X302777Y65045D01*
X303719Y65590D01*
X304489Y66359D01*
X305033Y67302D01*
X305315Y68353D01*
Y69442D01*
X305033Y70493D01*
X304489Y71436D01*
X303719Y72206D01*
X302777Y72750D01*
X301725Y73032D01*
D02*
G37*
G36*
X255662Y63583D02*
X254574D01*
X253522Y63301D01*
X252580Y62757D01*
X252362Y62539D01*
X252145Y62757D01*
X251202Y63301D01*
X250150Y63583D01*
X249062D01*
X248011Y63301D01*
X247068Y62757D01*
X246319Y62008D01*
X246306D01*
X245255Y61726D01*
X244312Y61182D01*
X243563Y60433D01*
X243550D01*
X242499Y60151D01*
X241556Y59607D01*
X240787Y58837D01*
X240242Y57895D01*
X239961Y56843D01*
Y55755D01*
X240237Y54724D01*
X239961Y53694D01*
Y52605D01*
X240242Y51554D01*
X240787Y50611D01*
X241556Y49842D01*
X242499Y49297D01*
X243550Y49016D01*
X244639D01*
X245690Y49297D01*
X246633Y49842D01*
X246850Y50059D01*
X247068Y49842D01*
X248011Y49297D01*
X249062Y49016D01*
X250150D01*
X251202Y49297D01*
X252145Y49842D01*
X252362Y50059D01*
X252580Y49842D01*
X253522Y49297D01*
X254574Y49016D01*
X254587D01*
X255336Y48267D01*
X256278Y47723D01*
X257330Y47441D01*
X258418D01*
X259470Y47723D01*
X260028Y48045D01*
X260394Y47679D01*
X259927Y46871D01*
X259646Y45820D01*
Y44731D01*
X259927Y43680D01*
X260472Y42737D01*
X261241Y41968D01*
X262184Y41423D01*
X262666Y41294D01*
X262402Y40308D01*
Y39219D01*
X262678Y38189D01*
X262402Y37158D01*
Y36977D01*
X261902Y36616D01*
X261174Y36811D01*
X260086D01*
X259034Y36529D01*
X258092Y35985D01*
X257874Y35767D01*
X257656Y35985D01*
X256714Y36529D01*
X256491Y36589D01*
X256237Y37072D01*
X256496Y38039D01*
Y39127D01*
X256214Y40178D01*
X255670Y41121D01*
X254901Y41891D01*
X253958Y42435D01*
X252906Y42717D01*
X251818D01*
X250767Y42435D01*
X249824Y41891D01*
X249054Y41121D01*
X248960Y40957D01*
X248446Y41254D01*
X247395Y41535D01*
X247382D01*
X246633Y42284D01*
X245690Y42829D01*
X244639Y43110D01*
X243550D01*
X242499Y42829D01*
X241556Y42284D01*
X240807Y41535D01*
X240794D01*
X239743Y41254D01*
X238800Y40709D01*
X238052Y39961D01*
X238038D01*
X236987Y39679D01*
X236044Y39135D01*
X235275Y38365D01*
X234731Y37422D01*
X234449Y36371D01*
Y35282D01*
X234725Y34252D01*
X234449Y33221D01*
Y32133D01*
X234507Y31918D01*
X234089Y31542D01*
X232977Y31841D01*
X231590D01*
X230251Y31482D01*
X229050Y30788D01*
X228070Y29808D01*
X227377Y28607D01*
X227018Y27268D01*
Y25881D01*
X227377Y24542D01*
X228070Y23342D01*
X229050Y22361D01*
X230251Y21668D01*
X231590Y21309D01*
X232977D01*
X234316Y21668D01*
X235517Y22361D01*
X236497Y23342D01*
X237190Y24542D01*
X237460Y25549D01*
X238038Y25394D01*
X238052D01*
X238800Y24645D01*
X239743Y24101D01*
X240794Y23819D01*
X241883D01*
X242934Y24101D01*
X243877Y24645D01*
X244626Y25394D01*
X244639D01*
X245690Y25675D01*
X246426Y26100D01*
X246924Y25844D01*
X246926Y25841D01*
Y25027D01*
X247208Y23975D01*
X247752Y23033D01*
X248521Y22263D01*
X249464Y21719D01*
X250516Y21437D01*
X251604D01*
X252655Y21719D01*
X253598Y22263D01*
X254368Y23033D01*
X254912Y23975D01*
X255194Y25027D01*
Y26115D01*
X254912Y27167D01*
X254387Y28076D01*
X254476Y28328D01*
X254641Y28543D01*
X255662D01*
X256714Y28825D01*
X257656Y29369D01*
X257874Y29587D01*
X258092Y29369D01*
X259034Y28825D01*
X260086Y28543D01*
X261174D01*
X262226Y28825D01*
X263168Y29369D01*
X263938Y30139D01*
X264393Y29928D01*
X264940Y29612D01*
X265991Y29331D01*
X267080D01*
X268131Y29612D01*
X269074Y30157D01*
X269291Y30374D01*
X269509Y30157D01*
X270452Y29612D01*
X271503Y29331D01*
X272591D01*
X273643Y29612D01*
X274586Y30157D01*
X274803Y30374D01*
X275021Y30157D01*
X275963Y29612D01*
X277015Y29331D01*
X278103D01*
X279155Y29612D01*
X280097Y30157D01*
X280867Y30926D01*
X281411Y31869D01*
X281693Y32920D01*
Y34009D01*
X281626Y34260D01*
X281911Y34337D01*
X282853Y34881D01*
X283623Y35651D01*
X284167Y36593D01*
X284449Y37645D01*
Y38733D01*
X284173Y39764D01*
X284449Y40794D01*
Y41883D01*
X284173Y42913D01*
X284449Y43944D01*
Y45032D01*
X284167Y46084D01*
X283623Y47026D01*
X282853Y47796D01*
X281911Y48340D01*
X281626Y48417D01*
X281693Y48668D01*
Y49757D01*
X281411Y50808D01*
X280867Y51751D01*
X280097Y52521D01*
X279155Y53065D01*
X278103Y53347D01*
X278090D01*
X277341Y54095D01*
X276399Y54640D01*
X275347Y54921D01*
X274259D01*
X273207Y54640D01*
X272265Y54095D01*
X271516Y53347D01*
X271503D01*
X270452Y53065D01*
X269509Y52521D01*
X268739Y51751D01*
X268195Y50808D01*
X267913Y49757D01*
Y48668D01*
X267981Y48417D01*
X267696Y48340D01*
X266976Y47925D01*
X266318Y48583D01*
X265375Y49128D01*
X264324Y49409D01*
X263419D01*
X263289Y49634D01*
X263236Y49909D01*
X263938Y50611D01*
X264482Y51554D01*
X264561Y51847D01*
X265196Y51677D01*
X266284D01*
X267336Y51958D01*
X268278Y52503D01*
X269048Y53272D01*
X269592Y54215D01*
X269874Y55266D01*
Y56355D01*
X269592Y57406D01*
X269048Y58349D01*
X268278Y59118D01*
X267336Y59663D01*
X266284Y59944D01*
X265196D01*
X264144Y59663D01*
X263490Y59285D01*
X263168Y59607D01*
X262226Y60151D01*
X261174Y60433D01*
X261161D01*
X260412Y61182D01*
X259470Y61726D01*
X258418Y62008D01*
X258405D01*
X257656Y62757D01*
X256714Y63301D01*
X255662Y63583D01*
D02*
G37*
G36*
X232237Y66929D02*
X231149D01*
X230097Y66647D01*
X229155Y66103D01*
X228385Y65333D01*
X227841Y64391D01*
X227559Y63340D01*
Y62251D01*
X227841Y61200D01*
X228028Y60875D01*
X227863Y60589D01*
X227582Y59538D01*
Y58449D01*
X227863Y57398D01*
X228407Y56455D01*
X229177Y55685D01*
X230120Y55141D01*
X231171Y54860D01*
X232259D01*
X233311Y55141D01*
X234254Y55685D01*
X235023Y56455D01*
X235567Y57398D01*
X235849Y58449D01*
Y59538D01*
X235567Y60589D01*
X235380Y60914D01*
X235545Y61200D01*
X235827Y62251D01*
Y63340D01*
X235545Y64391D01*
X235001Y65333D01*
X234231Y66103D01*
X233289Y66647D01*
X232237Y66929D01*
D02*
G37*
G36*
X219836Y58858D02*
X218747D01*
X217696Y58577D01*
X216753Y58032D01*
X215983Y57263D01*
X215439Y56320D01*
X215158Y55269D01*
Y54180D01*
X215439Y53129D01*
X215983Y52186D01*
X216753Y51416D01*
X217696Y50872D01*
X218747Y50591D01*
X219836D01*
X220887Y50872D01*
X221830Y51416D01*
X222599Y52186D01*
X223144Y53129D01*
X223425Y54180D01*
Y55269D01*
X223144Y56320D01*
X222599Y57263D01*
X221830Y58032D01*
X220887Y58577D01*
X219836Y58858D01*
D02*
G37*
G36*
X225298Y50935D02*
X224209D01*
X223158Y50653D01*
X222216Y50109D01*
X221446Y49339D01*
X220902Y48397D01*
X220620Y47345D01*
Y46257D01*
X220902Y45205D01*
X221446Y44263D01*
X222216Y43493D01*
X223158Y42949D01*
X224209Y42667D01*
X225298D01*
X226349Y42949D01*
X227292Y43493D01*
X228062Y44263D01*
X228606Y45205D01*
X228888Y46257D01*
Y47345D01*
X228606Y48397D01*
X228062Y49339D01*
X227292Y50109D01*
X226349Y50653D01*
X225298Y50935D01*
D02*
G37*
G36*
X345181Y31841D02*
X343795D01*
X342456Y31482D01*
X341255Y30788D01*
X340275Y29808D01*
X339581Y28607D01*
X339222Y27268D01*
Y25881D01*
X339581Y24542D01*
X340275Y23342D01*
X341255Y22361D01*
X342456Y21668D01*
X343795Y21309D01*
X345181D01*
X346521Y21668D01*
X347721Y22361D01*
X348702Y23342D01*
X349395Y24542D01*
X349754Y25881D01*
Y27268D01*
X349395Y28607D01*
X348702Y29808D01*
X347721Y30788D01*
X346521Y31482D01*
X345181Y31841D01*
D02*
G37*
G36*
X139521Y26969D02*
X138432D01*
X137381Y26687D01*
X136438Y26143D01*
X135669Y25373D01*
X135124Y24430D01*
X134843Y23379D01*
Y22290D01*
X135124Y21239D01*
X135669Y20296D01*
X136438Y19527D01*
X137381Y18982D01*
X138432Y18701D01*
X139521D01*
X140572Y18982D01*
X141515Y19527D01*
X142284Y20296D01*
X142829Y21239D01*
X143110Y22290D01*
Y23379D01*
X142829Y24430D01*
X142284Y25373D01*
X141515Y26143D01*
X140572Y26687D01*
X139521Y26969D01*
D02*
G37*
G36*
X269836Y18701D02*
X268747D01*
X267696Y18419D01*
X266753Y17875D01*
X266535Y17657D01*
X266318Y17875D01*
X265375Y18419D01*
X264324Y18701D01*
X263235D01*
X262184Y18419D01*
X261241Y17875D01*
X261024Y17657D01*
X260806Y17875D01*
X259863Y18419D01*
X258812Y18701D01*
X257723D01*
X256672Y18419D01*
X255730Y17875D01*
X255512Y17657D01*
X255294Y17875D01*
X254351Y18419D01*
X253300Y18701D01*
X252212D01*
X251160Y18419D01*
X250218Y17875D01*
X250000Y17657D01*
X249782Y17875D01*
X248840Y18419D01*
X247788Y18701D01*
X246700D01*
X245649Y18419D01*
X244706Y17875D01*
X243957Y17126D01*
X243944D01*
X242893Y16844D01*
X241950Y16300D01*
X241180Y15530D01*
X240636Y14588D01*
X240354Y13536D01*
Y12448D01*
X240631Y11417D01*
X240354Y10387D01*
Y9298D01*
X240636Y8247D01*
X241180Y7304D01*
X241950Y6535D01*
X242893Y5990D01*
X243944Y5709D01*
X245032D01*
X246084Y5990D01*
X247026Y6535D01*
X247244Y6752D01*
X247462Y6535D01*
X248404Y5990D01*
X249456Y5709D01*
X250544D01*
X251596Y5990D01*
X252538Y6535D01*
X252756Y6752D01*
X252974Y6535D01*
X253916Y5990D01*
X254968Y5709D01*
X256056D01*
X257107Y5990D01*
X258050Y6535D01*
X258268Y6752D01*
X258485Y6535D01*
X259428Y5990D01*
X260479Y5709D01*
X261568D01*
X262619Y5990D01*
X263562Y6535D01*
X263779Y6752D01*
X263997Y6535D01*
X264940Y5990D01*
X265991Y5709D01*
X267080D01*
X268131Y5990D01*
X269074Y6535D01*
X269291Y6752D01*
X269509Y6535D01*
X270452Y5990D01*
X271503Y5709D01*
X272591D01*
X273643Y5990D01*
X274586Y6535D01*
X275355Y7304D01*
X275537Y7620D01*
X276037D01*
X276220Y7304D01*
X276989Y6535D01*
X277932Y5990D01*
X278983Y5709D01*
X280072D01*
X281123Y5990D01*
X282066Y6535D01*
X282836Y7304D01*
X283176Y7894D01*
X283753D01*
X284094Y7304D01*
X284863Y6535D01*
X285806Y5990D01*
X286857Y5709D01*
X287946D01*
X288997Y5990D01*
X289940Y6535D01*
X290709Y7304D01*
X291050Y7894D01*
X291627D01*
X291968Y7304D01*
X292737Y6535D01*
X293680Y5990D01*
X294731Y5709D01*
X295820D01*
X296871Y5990D01*
X297814Y6535D01*
X298584Y7304D01*
X298924Y7894D01*
X299501D01*
X299842Y7304D01*
X300611Y6535D01*
X301554Y5990D01*
X302605Y5709D01*
X303694D01*
X304745Y5990D01*
X305688Y6535D01*
X306457Y7304D01*
X306798Y7894D01*
X307375D01*
X307716Y7304D01*
X308485Y6535D01*
X309428Y5990D01*
X310479Y5709D01*
X311568D01*
X312619Y5990D01*
X313562Y6535D01*
X314332Y7304D01*
X314672Y7894D01*
X315249D01*
X315590Y7304D01*
X316359Y6535D01*
X317302Y5990D01*
X318353Y5709D01*
X319442D01*
X320493Y5990D01*
X321436Y6535D01*
X322205Y7304D01*
X322546Y7894D01*
X323123D01*
X323464Y7304D01*
X324233Y6535D01*
X325176Y5990D01*
X326227Y5709D01*
X327316D01*
X328367Y5990D01*
X329310Y6535D01*
X330080Y7304D01*
X330420Y7894D01*
X330997D01*
X331338Y7304D01*
X332107Y6535D01*
X333050Y5990D01*
X334101Y5709D01*
X335190D01*
X336241Y5990D01*
X337184Y6535D01*
X337954Y7304D01*
X338498Y8247D01*
X338722Y9085D01*
X339222Y9019D01*
Y7530D01*
X346956D01*
X347086Y7304D01*
X347855Y6535D01*
X348798Y5990D01*
X349850Y5709D01*
X350938D01*
X351989Y5990D01*
X352932Y6535D01*
X353702Y7304D01*
X354246Y8247D01*
X354528Y9298D01*
Y10387D01*
X354246Y11438D01*
X353702Y12381D01*
X352932Y13150D01*
X351989Y13695D01*
X350938Y13976D01*
X349850D01*
X349754Y14050D01*
Y18061D01*
X339222D01*
Y10666D01*
X338722Y10600D01*
X338498Y11438D01*
X337954Y12381D01*
X337184Y13150D01*
X336241Y13695D01*
X335190Y13976D01*
X334101D01*
X333050Y13695D01*
X332107Y13150D01*
X331338Y12381D01*
X330997Y11791D01*
X330420D01*
X330080Y12381D01*
X329310Y13150D01*
X328367Y13695D01*
X327316Y13976D01*
X326227D01*
X325176Y13695D01*
X324233Y13150D01*
X323464Y12381D01*
X323123Y11791D01*
X322546D01*
X322205Y12381D01*
X321436Y13150D01*
X320493Y13695D01*
X319442Y13976D01*
X318353D01*
X317302Y13695D01*
X316359Y13150D01*
X315590Y12381D01*
X315249Y11791D01*
X314672D01*
X314332Y12381D01*
X313562Y13150D01*
X312619Y13695D01*
X311568Y13976D01*
X310479D01*
X309428Y13695D01*
X308485Y13150D01*
X307716Y12381D01*
X307375Y11791D01*
X306798D01*
X306457Y12381D01*
X305688Y13150D01*
X304745Y13695D01*
X303694Y13976D01*
X302605D01*
X301554Y13695D01*
X300611Y13150D01*
X299842Y12381D01*
X299501Y11791D01*
X298924D01*
X298584Y12381D01*
X297814Y13150D01*
X296871Y13695D01*
X295820Y13976D01*
X294731D01*
X293680Y13695D01*
X292737Y13150D01*
X291968Y12381D01*
X291627Y11791D01*
X291050D01*
X290709Y12381D01*
X289940Y13150D01*
X288997Y13695D01*
X287946Y13976D01*
X286857D01*
X285806Y13695D01*
X284863Y13150D01*
X284094Y12381D01*
X283753Y11791D01*
X283176D01*
X282836Y12381D01*
X282066Y13150D01*
X281123Y13695D01*
X280072Y13976D01*
X278983D01*
X277932Y13695D01*
X276989Y13150D01*
X276681Y12842D01*
X276181Y13049D01*
Y13536D01*
X275899Y14588D01*
X275355Y15530D01*
X274586Y16300D01*
X273643Y16844D01*
X272591Y17126D01*
X272578D01*
X271830Y17875D01*
X270887Y18419D01*
X269836Y18701D01*
D02*
G37*
G36*
X237549Y18061D02*
X227018D01*
Y10666D01*
X226518Y10600D01*
X226293Y11438D01*
X225749Y12381D01*
X224979Y13150D01*
X224037Y13695D01*
X222985Y13976D01*
X221897D01*
X220845Y13695D01*
X219903Y13150D01*
X219133Y12381D01*
X218793Y11791D01*
X218215D01*
X217875Y12381D01*
X217105Y13150D01*
X216162Y13695D01*
X215111Y13976D01*
X214023D01*
X212971Y13695D01*
X212029Y13150D01*
X211259Y12381D01*
X210919Y11791D01*
X210341D01*
X210001Y12381D01*
X209231Y13150D01*
X208289Y13695D01*
X207237Y13976D01*
X206149D01*
X205097Y13695D01*
X204155Y13150D01*
X203385Y12381D01*
X203045Y11791D01*
X202467D01*
X202127Y12381D01*
X201357Y13150D01*
X200414Y13695D01*
X199363Y13976D01*
X198275D01*
X197223Y13695D01*
X196281Y13150D01*
X195511Y12381D01*
X195171Y11791D01*
X194593D01*
X194253Y12381D01*
X193483Y13150D01*
X192541Y13695D01*
X191489Y13976D01*
X190401D01*
X189349Y13695D01*
X188407Y13150D01*
X187637Y12381D01*
X187297Y11791D01*
X186719D01*
X186379Y12381D01*
X185609Y13150D01*
X184667Y13695D01*
X183615Y13976D01*
X182527D01*
X181475Y13695D01*
X180533Y13150D01*
X179763Y12381D01*
X179422Y11791D01*
X178845D01*
X178505Y12381D01*
X177735Y13150D01*
X176793Y13695D01*
X175741Y13976D01*
X174653D01*
X173601Y13695D01*
X172659Y13150D01*
X171889Y12381D01*
X171548Y11791D01*
X170971D01*
X170631Y12381D01*
X169861Y13150D01*
X168918Y13695D01*
X167867Y13976D01*
X166779D01*
X165727Y13695D01*
X164785Y13150D01*
X164015Y12381D01*
X163674Y11791D01*
X163097D01*
X162757Y12381D01*
X161987Y13150D01*
X161044Y13695D01*
X159993Y13976D01*
X158905D01*
X157853Y13695D01*
X156911Y13150D01*
X156141Y12381D01*
X155800Y11791D01*
X155223D01*
X154883Y12381D01*
X154113Y13150D01*
X153170Y13695D01*
X152119Y13976D01*
X151031D01*
X149979Y13695D01*
X149037Y13150D01*
X148267Y12381D01*
X147926Y11791D01*
X147349D01*
X147009Y12381D01*
X146239Y13150D01*
X145296Y13695D01*
X144245Y13976D01*
X143157D01*
X142105Y13695D01*
X141163Y13150D01*
X140393Y12381D01*
X140052Y11791D01*
X139475D01*
X139135Y12381D01*
X138365Y13150D01*
X137422Y13695D01*
X136371Y13976D01*
X135283D01*
X134231Y13695D01*
X133289Y13150D01*
X132519Y12381D01*
X131975Y11438D01*
X131693Y10387D01*
Y9298D01*
X131975Y8247D01*
X132519Y7304D01*
X133289Y6535D01*
X134231Y5990D01*
X135283Y5709D01*
X136371D01*
X137422Y5990D01*
X138365Y6535D01*
X139135Y7304D01*
X139475Y7894D01*
X140052D01*
X140393Y7304D01*
X141163Y6535D01*
X142105Y5990D01*
X143157Y5709D01*
X144245D01*
X145296Y5990D01*
X146239Y6535D01*
X147009Y7304D01*
X147349Y7894D01*
X147926D01*
X148267Y7304D01*
X149037Y6535D01*
X149979Y5990D01*
X151031Y5709D01*
X152119D01*
X153170Y5990D01*
X154113Y6535D01*
X154883Y7304D01*
X155223Y7894D01*
X155800D01*
X156141Y7304D01*
X156911Y6535D01*
X157853Y5990D01*
X158905Y5709D01*
X159993D01*
X161044Y5990D01*
X161987Y6535D01*
X162757Y7304D01*
X163097Y7894D01*
X163674D01*
X164015Y7304D01*
X164785Y6535D01*
X165727Y5990D01*
X166779Y5709D01*
X167867D01*
X168918Y5990D01*
X169861Y6535D01*
X170631Y7304D01*
X170971Y7894D01*
X171548D01*
X171889Y7304D01*
X172659Y6535D01*
X173601Y5990D01*
X174653Y5709D01*
X175741D01*
X176793Y5990D01*
X177735Y6535D01*
X178505Y7304D01*
X178845Y7894D01*
X179422D01*
X179763Y7304D01*
X180533Y6535D01*
X181475Y5990D01*
X182527Y5709D01*
X183615D01*
X184667Y5990D01*
X185609Y6535D01*
X186379Y7304D01*
X186719Y7894D01*
X187297D01*
X187637Y7304D01*
X188407Y6535D01*
X189349Y5990D01*
X190401Y5709D01*
X191489D01*
X192541Y5990D01*
X193483Y6535D01*
X194253Y7304D01*
X194593Y7894D01*
X195171D01*
X195511Y7304D01*
X196281Y6535D01*
X197223Y5990D01*
X198275Y5709D01*
X199363D01*
X200414Y5990D01*
X201357Y6535D01*
X202127Y7304D01*
X202467Y7894D01*
X203045D01*
X203385Y7304D01*
X204155Y6535D01*
X205097Y5990D01*
X206149Y5709D01*
X207237D01*
X208289Y5990D01*
X209231Y6535D01*
X210001Y7304D01*
X210341Y7894D01*
X210919D01*
X211259Y7304D01*
X212029Y6535D01*
X212971Y5990D01*
X214023Y5709D01*
X215111D01*
X216162Y5990D01*
X217105Y6535D01*
X217875Y7304D01*
X218215Y7894D01*
X218793D01*
X219133Y7304D01*
X219903Y6535D01*
X220845Y5990D01*
X221897Y5709D01*
X222985D01*
X224037Y5990D01*
X224979Y6535D01*
X225749Y7304D01*
X226293Y8247D01*
X226518Y9085D01*
X227018Y9019D01*
Y7530D01*
X237549D01*
Y18061D01*
D02*
G37*
%LPD*%
D87*
X259842Y97441D02*
D03*
Y138779D02*
D03*
D89*
X21654Y159547D02*
D03*
X11811D02*
D03*
X21654Y147736D02*
D03*
X11811D02*
D03*
X51181Y159547D02*
D03*
X41339D02*
D03*
X51181Y147736D02*
D03*
X41339D02*
D03*
X31496D02*
D03*
Y159547D02*
D03*
D92*
X239370Y118110D02*
D03*
X255118Y69169D02*
D03*
X260630D02*
D03*
X255118Y76894D02*
D03*
X260630D02*
D03*
X258268Y170473D02*
D03*
X255512Y168898D02*
D03*
X258268Y161024D02*
D03*
Y164173D02*
D03*
X255512Y165748D02*
D03*
X258268Y167323D02*
D03*
X266142Y69169D02*
D03*
X271654D02*
D03*
X266142Y76894D02*
D03*
X271654D02*
D03*
X263779Y161024D02*
D03*
X269291D02*
D03*
X274803D02*
D03*
X261024Y162598D02*
D03*
X266535D02*
D03*
X272047D02*
D03*
X263779Y164173D02*
D03*
X269291D02*
D03*
X261024Y165748D02*
D03*
X266535D02*
D03*
X272047Y165748D02*
D03*
X263779Y167323D02*
D03*
X269291D02*
D03*
X274803D02*
D03*
X261024Y168898D02*
D03*
X266535D02*
D03*
X272047Y168898D02*
D03*
X269291Y170473D02*
D03*
X274803Y170473D02*
D03*
X266535Y172047D02*
D03*
X272047Y172047D02*
D03*
X269291Y173622D02*
D03*
X282677Y69169D02*
D03*
X277165D02*
D03*
Y76894D02*
D03*
X380315Y78740D02*
D03*
X309842Y147638D02*
D03*
X277559Y162598D02*
D03*
X274803Y164173D02*
D03*
X277559Y165748D02*
D03*
X277559Y168898D02*
D03*
X277559Y172047D02*
D03*
X274803Y173622D02*
D03*
X387520Y144646D02*
D03*
D93*
X196850Y118110D02*
D03*
M02*
