M48
;Layer_Color=9474304
;FILE_FORMAT=2:5
INCH,TZ
;TYPE=PLATED
T1F00S00C0.01181
T2F00S00C0.03346
T3F00S00C0.04213
T4F00S00C0.13386
;TYPE=NON_PLATED
T5F00S00C0.06300
T6F00S00C0.12795
%
T01
X27559Y23622
X45276Y25591
X41339Y29528
X49213Y21654
X53150Y17717
X55118Y35433
Y43307
X59055Y31496
X62992Y27559
X70472Y24409
X56328Y13488
X102756Y13780
Y17323
X102772Y21772
X103213Y25814
X102362Y31496
Y39370
X94488Y37933
X94153Y32933
X110762Y2453
X135827Y9843
X143701
X151575
X159449
X167323
X175197
X183071
X190945
X198819
X206693
X138976Y22835
X214567Y9843
X222441
X244488
Y12992
X247244Y11417
Y14567
X250000Y12992
Y9843
X252756Y11417
Y14567
X255512Y12992
Y9843
X258268Y11417
Y14567
X261024Y12992
X261024Y9843
X263779Y11417
Y14567
X266535Y12992
X266535Y9843
X269291Y11417
Y14567
X272047Y12992
X272047Y9843
X279528
X287402
X295276
X303150
X311024
X318898
X326772
X334646
X350394
X277559Y33465
X277559Y36614
X277559Y39764
Y42913
Y46063
X274803Y44488
Y41339
Y38189
X274803Y35039
X272047Y33465
Y36614
X272047Y39764
X272047Y42913
X272047Y46063
X269291Y44488
Y41339
X269291Y38189
X269291Y35039
X266535Y33465
X266535Y36614
X266535Y39764
X263779Y45276
X260630Y32677
X255118
X249606
X246850Y31102
X246850Y34252
X246850Y37402
X244094Y35827
X244094Y32677
X244094Y29528
X241339Y27953
X241339Y31102
X241339Y34252
X241339Y37402
X238583Y35827
X238583Y32677
X238583Y29528
X244094Y38976
X252362Y38583
X251060Y25571
X280315Y38189
X280315Y41339
X280315Y44488
X383858Y41339
Y33465
Y49213
Y57087
X377953Y62992
X372047Y68898
X380315Y78740
X378740Y87402
Y100000
X373948Y99977
X368898Y124713
X379134Y129724
X379921Y137795
X387520Y144646
X379528Y157480
X375984
X364244Y158257
X358661Y158268
X349008Y159092
X344679Y158949
X337964Y156867
X334027
X332095Y153043
X336032
X339968
X338000Y149500
X334063
X336032Y145957
X332095
X334063Y142413
X338000
X336032Y138870
X332095
X334063Y135327
X338000
X336221Y131890
X332283
X334252Y128347
X338189
X340158Y131890
X339968Y138870
Y145957
X353543Y149213
X318898Y149539
X318087Y145328
X318898Y142035
X309842Y147638
X304724Y138976
X287402Y138779
X285433Y135236
X283465Y131693
X279528
X275591
X273622Y135236
X271654Y138779
X273622Y142323
X275590Y145866
X279528
X283465
X285433Y142323
X277559Y162598
X277559Y165748
X277559Y168898
X277559Y172047
X274803Y173622
X274803Y170473
X274803Y167323
X274803Y164173
Y161024
X272047Y162598
X272047Y165748
X272047Y168898
X272047Y172047
X269291Y173622
X269291Y170473
X269291Y167323
X269291Y164173
Y161024
X266535Y162598
Y165748
X266535Y168898
X266535Y172047
X263779Y167323
X263779Y164173
X263779Y161024
X261024Y162598
Y165748
X261024Y168898
X258268Y170473
X258268Y167323
Y164173
Y161024
X255512Y165748
X255512Y168898
X252571Y176197
X247059Y176591
X247059Y173441
X244303Y175016
X244303Y178165
X244303Y181315
X244303Y184465
X241547Y182890
X241547Y179740
X241547Y176591
X241547Y173441
X238791Y175016
X238791Y178165
X238791Y181315
X238791Y184465
X236035Y182890
X236035Y179740
X236035Y176591
X231715Y185076
X231693Y188878
X247059Y182890
X247059Y179740
X249815Y181315
X249815Y184465
X252571Y182890
X255118Y184646
X257874Y186221
X257874Y183071
X260630Y184646
X267323Y185039
Y188189
Y191339
X267323Y194488
Y197638
Y200787
X270079Y202362
Y199213
Y196063
X270079Y192913
Y189764
Y186614
X272835Y188189
Y191339
X272835Y194488
Y197638
Y200787
X275591Y199213
Y196063
X275590Y192913
Y189764
X275591Y186614
X272835Y185039
X278346
Y188189
Y191339
Y194488
Y197638
Y200787
X275591Y202362
X281102Y199213
Y196063
Y192913
Y189764
Y186614
X283858Y188189
Y191339
Y194488
X283858Y197638
X263611Y198308
X252384Y190874
X239490Y118201
X275590Y104528
X279528
X283465
X285433Y100984
X287402Y97441
X285433Y93898
X283465Y90354
X279528
X275591
X273622Y93898
X271654Y97441
X273622Y100984
X271654Y76933
X266142
X260630
X255118
Y69161
X260630
X266142
X271654
X277165
X282677
X295276Y68898
X300787
X293701Y76933
X288189
X277165
X277559Y49213
X274803Y50787
Y47638
X272047Y49213
X265740Y55810
X260630Y56299
X260630Y53150
X257874Y51575
X257874Y54724
Y57874
X255118Y56299
Y53150
X252362Y54724
X252362Y57874
X249606Y56299
Y59449
X246850Y57874
Y54724
X244094Y53150
Y56299
X249606Y53150
X255118Y59449
X231715Y58993
X231693Y62795
X219291Y54724
X224754Y46801
X298031Y86614
X308925Y84646
X318504Y87756
X323043Y77435
X327370Y77256
X334063Y79618
X338000
X336032Y83161
X332095
X334063Y86705
X338000
X336032Y90248
X332095
X334063Y93791
X338000
X336032Y97335
X332095
X334063Y100878
X338000
X336032Y104421
X332095
X334063Y107965
X338000
X339968Y104421
Y97335
Y90248
Y83161
X344693Y77256
X349020Y77436
X353543Y86575
X354191Y90812
X353328Y94367
X353543Y103150
X357874Y112992
X362992
X362598Y83377
X366142Y74803
X303683Y112402
X298345Y112992
X322638Y159092
X327370Y158949
X95854Y121686
X91917
X93886Y117749
X97823
X95854Y113812
X91917
X93886Y109875
X97823
X93504Y103347
X82677Y87598
X74409Y87008
Y83858
Y80709
Y77559
X71653Y79134
Y82284
Y85433
Y88583
X69035Y86713
X68898Y83858
Y80709
Y77559
X66142Y79134
Y82284
Y85433
Y88583
X63386Y87008
Y83858
Y80709
Y77559
X59055Y66929
X62992Y62992
X66929Y59055
X74803
X82677
X90551
X94488Y55118
X102126Y55118
X102362Y62992
Y47244
X74409Y113779
Y116929
Y120079
Y123228
X71653Y121653
Y118504
Y115354
Y112205
X68898Y113779
Y116929
Y120079
Y123228
X66142Y121653
Y118504
Y115354
Y112205
X63382Y113902
Y117051
Y120201
Y123350
X65354Y181890
Y185039
Y188189
Y191339
X62598Y189764
Y186614
Y183465
X68110
Y186614
Y189764
Y192913
X70866Y191339
Y188189
Y185039
Y181890
X73622Y183465
Y186614
Y189764
Y192913
X62598
X82677Y190945
X55118Y196850
X51181Y102362
X56102Y94488
X55118Y86614
Y78740
Y70866
X51181Y55118
X55118Y51181
X47244Y59055
X62599Y216929
Y220079
Y223228
Y226378
X65354Y227953
Y224803
Y221654
Y218504
X68110Y220079
Y216929
X70866Y218504
Y221654
Y224803
Y227953
X68110Y226378
Y223228
X73622
Y220079
Y216929
Y226378
X94488Y226378
X98425
X96457Y230315
X92520
Y222441
X96457
X94488Y218504
X98425
X104331Y232283
X180315Y218110
X183071Y220079
X183071Y216142
X185827Y218110
X188583Y220079
X188583Y216142
X191339Y218110
X194095Y216142
Y220079
X196850Y218110
X199606Y216142
Y220079
X202362Y218110
X205118Y216142
Y220079
X207874Y218110
X210630Y216142
Y220079
X213386Y218110
X216142Y216142
Y220079
X218898Y218110
X221654Y216142
Y220079
X224410Y218110
X241339Y214961
Y211811
Y208661
X244094Y210236
Y207087
X246850Y208661
Y205512
X249606Y207087
Y210236
X249606Y213386
Y216535
X246850Y218110
Y214961
Y211811
X244094Y213386
Y216535
X252362Y211811
X252362Y208661
Y205512
X255118Y203937
Y207087
X265846Y208268
X266535Y220472
Y223622
Y226772
X263779Y225197
Y222047
X261024Y223622
Y220472
X258268Y218898
Y222047
Y225197
Y228346
Y231496
X255512Y233071
X255512Y229921
Y226772
X255512Y223622
Y220472
X252756Y228346
Y231496
X250000Y229921
Y226772
X247244Y228346
Y231496
X250000Y233071
X261024
Y229921
Y226772
X263779Y228346
Y231496
X269291Y225197
Y222047
T02
X232283Y12795
Y26575
X344488
Y12795
X279528Y97441
X259842
Y138779
X279528
X232283Y209646
Y223425
X344488
Y209646
T03
X17717Y35728
X27716
Y45728
X17717
X37716
Y35728
Y55728
X27716
X17717
Y65728
Y75728
Y85728
X27716
Y75728
Y65728
X37716
Y75728
Y85728
Y95728
Y105728
X27716
Y95728
X17717
Y105728
X21654Y126083
X31496
X41339
X51181
Y137894
X41339
X31496
X21654
X11811
Y147736
X21654
X31496
X41339
X51181
Y159547
Y169390
X41339
Y159547
X31496
X21654
Y169390
X11811
Y159547
Y181201
Y191043
X21654
Y181201
X31496
X41339
Y191043
X51181
Y181201
X31496Y191043
Y169390
X11811Y126083
Y202854
X21654
X31496
X41339
X51181
T04
X374016Y19685
X196850Y118110
X374016Y216535
T05
X381890Y169291
X362205
T06
X31496Y12808
Y224508
M30
