G04*
G04 #@! TF.GenerationSoftware,Altium Limited,Altium Designer,22.9.1 (49)*
G04*
G04 Layer_Color=8388736*
%FSLAX25Y25*%
%MOIN*%
G70*
G04*
G04 #@! TF.SameCoordinates,58640E65-FB78-4378-B78F-6D08F657F38D*
G04*
G04*
G04 #@! TF.FilePolarity,Negative*
G04*
G01*
G75*
%ADD44R,0.09843X0.10080*%
%ADD47R,0.04252X0.03465*%
%ADD48R,0.06398X0.02953*%
%ADD49R,0.03465X0.04252*%
%ADD50R,0.06299X0.02106*%
%ADD51R,0.21181X0.25394*%
%ADD52R,0.22402X0.21378*%
%ADD53R,0.11102X0.04409*%
%ADD54R,0.07874X0.05118*%
%ADD55R,0.01732X0.03543*%
%ADD56R,0.01732X0.04331*%
%ADD57R,0.09409X0.07126*%
%ADD58R,0.01732X0.02362*%
%ADD59R,0.04331X0.04134*%
%ADD60R,0.06004X0.02165*%
%ADD61R,0.04016X0.11496*%
%ADD62R,0.02165X0.06201*%
%ADD63R,0.04331X0.03740*%
%ADD64R,0.06102X0.02165*%
%ADD65R,0.12402X0.30158*%
%ADD66R,0.07559X0.04409*%
%ADD67R,0.03740X0.04331*%
%ADD68R,0.08110X0.05433*%
%ADD69R,0.04095X0.02520*%
%ADD70R,0.04409X0.07559*%
%ADD71R,0.01968X0.04331*%
%ADD72R,0.02953X0.05315*%
%ADD73R,0.05413X0.05413*%
%ADD74C,0.05413*%
%ADD75C,0.06713*%
%ADD76C,0.06791*%
%ADD77R,0.05413X0.05413*%
%ADD78C,0.03543*%
%ADD79C,0.03150*%
%ADD80C,0.24016*%
G36*
X76595Y214735D02*
X59232D01*
Y232648D01*
X61594D01*
Y229498D01*
X64232D01*
Y232648D01*
X66594D01*
Y229498D01*
X69232D01*
Y232648D01*
X71595D01*
Y229498D01*
X74232D01*
Y232648D01*
X76595D01*
Y214735D01*
D02*
G37*
G36*
X296388Y214242D02*
X296197Y213779D01*
X265184D01*
Y218425D01*
X257953D01*
X251969Y224410D01*
X221126Y224409D01*
X220934Y224871D01*
X231102Y235039D01*
X265184Y235039D01*
X275590D01*
X296388Y214242D01*
D02*
G37*
G36*
X71398Y206467D02*
X69429D01*
Y208435D01*
X66398D01*
Y206467D01*
X64429D01*
Y208435D01*
X61398D01*
Y206467D01*
X59429D01*
Y208435D01*
X58799D01*
Y210798D01*
X71398D01*
Y206467D01*
D02*
G37*
G36*
X76535Y200984D02*
X77165D01*
Y198622D01*
X64567D01*
Y202953D01*
X66535D01*
Y200984D01*
X69567D01*
Y202953D01*
X71535D01*
Y200984D01*
X74567D01*
Y202953D01*
X76535D01*
Y200984D01*
D02*
G37*
G36*
X226526Y221649D02*
X227018Y221630D01*
X227018Y221148D01*
Y218159D01*
X237549D01*
Y221140D01*
X238045Y221640D01*
X250807Y221630D01*
Y217697D01*
X253937Y214567D01*
X253937Y201890D01*
X250807D01*
Y195143D01*
X248181Y192517D01*
Y188976D01*
X237441D01*
X232087Y194330D01*
Y198031D01*
X227165D01*
X220472Y204724D01*
Y221300D01*
X220826Y221653D01*
X226526Y221649D01*
D02*
G37*
G36*
X309842Y186614D02*
X264961D01*
Y202756D01*
X309842D01*
Y186614D01*
D02*
G37*
G36*
X76732Y176772D02*
X74370D01*
Y179921D01*
X71732D01*
Y176772D01*
X69370D01*
Y179921D01*
X66732D01*
Y176772D01*
X64370D01*
Y179921D01*
X61732D01*
Y176772D01*
X59370D01*
Y194685D01*
X76732D01*
Y176772D01*
D02*
G37*
G36*
X296389Y175129D02*
X275590Y154331D01*
X264961Y154331D01*
Y154332D01*
X253940Y154331D01*
X253587Y154684D01*
Y165705D01*
Y170827D01*
X264961D01*
Y175591D01*
X296197D01*
X296389Y175129D01*
D02*
G37*
G36*
X262598Y181102D02*
X248425D01*
Y154331D01*
X231102D01*
X220472Y164961D01*
Y181102D01*
X235039D01*
Y186221D01*
X262598D01*
Y181102D01*
D02*
G37*
G36*
X77579Y110335D02*
X60216D01*
Y128248D01*
X62579D01*
Y125098D01*
X65216D01*
Y128248D01*
X67579D01*
Y125098D01*
X70217D01*
Y128248D01*
X72579D01*
Y125098D01*
X75217D01*
Y128248D01*
X77579D01*
Y110335D01*
D02*
G37*
G36*
X72382Y102067D02*
X70413D01*
Y104035D01*
X67382D01*
Y102067D01*
X65413D01*
Y104035D01*
X62382D01*
Y102067D01*
X60413D01*
Y104035D01*
X59784D01*
Y106398D01*
X72382D01*
Y102067D01*
D02*
G37*
G36*
X77520Y96653D02*
X78150D01*
Y94291D01*
X65551D01*
Y98622D01*
X67520D01*
Y96653D01*
X70551D01*
Y98622D01*
X72520D01*
Y96653D01*
X75551D01*
Y98622D01*
X77520D01*
Y96653D01*
D02*
G37*
G36*
X295601Y61879D02*
X295410Y61417D01*
X265131D01*
Y66181D01*
X253757D01*
Y71303D01*
Y82324D01*
X254111Y82677D01*
X265131Y82675D01*
Y82677D01*
X274803D01*
X295601Y61879D01*
D02*
G37*
G36*
X77716Y72441D02*
X75354D01*
Y75590D01*
X72716D01*
Y72441D01*
X70354D01*
Y75590D01*
X67716D01*
Y72441D01*
X65354D01*
Y75590D01*
X62717D01*
Y72441D01*
X60354D01*
Y90354D01*
X77716D01*
Y72441D01*
D02*
G37*
G36*
X249803Y80905D02*
X250787Y79921D01*
X250787Y62992D01*
X259842D01*
Y59055D01*
X261491Y57406D01*
X261888D01*
Y52187D01*
X262456Y51619D01*
X262019Y51181D01*
X220472D01*
Y55118D01*
X232192D01*
X234793Y58197D01*
Y70719D01*
X231890Y73622D01*
X222701D01*
X222509Y74084D01*
X231102Y82677D01*
X248031D01*
X249803Y80905D01*
D02*
G37*
G36*
X310013Y34252D02*
X265131D01*
Y50394D01*
X310013D01*
Y34252D01*
D02*
G37*
G36*
X248446Y47934D02*
X248446Y36653D01*
X250374Y34724D01*
X253935D01*
Y29530D01*
X253891Y29423D01*
X250024D01*
X246979Y26378D01*
X239764D01*
Y26541D01*
X234465Y31841D01*
X230102D01*
X224640Y26378D01*
X220472D01*
Y48425D01*
X247955D01*
X248446Y47934D01*
D02*
G37*
G36*
X295601Y22766D02*
X274803Y1969D01*
X265354Y1969D01*
X238189D01*
X222037Y18121D01*
X222228Y18583D01*
X265354D01*
Y23228D01*
X295410D01*
X295601Y22766D01*
D02*
G37*
G36*
X119671Y122469D02*
X119747Y122458D01*
X119769D01*
X119813Y122447D01*
X119868Y122436D01*
X119922Y122425D01*
X119933D01*
X119955Y122415D01*
X119988Y122393D01*
X120010Y122360D01*
X120021Y122349D01*
X120032Y122338D01*
X120043Y122305D01*
Y122272D01*
Y114457D01*
Y114446D01*
Y114425D01*
X120032Y114392D01*
X120010Y114359D01*
X119988Y114337D01*
X119966Y114326D01*
X119922Y114304D01*
X119912D01*
X119879Y114294D01*
X119824D01*
X119747Y114283D01*
X119726D01*
X119682Y114272D01*
X119605Y114261D01*
X119398D01*
X119321Y114272D01*
X119234Y114283D01*
X119223D01*
X119179Y114294D01*
X119124D01*
X119070Y114304D01*
X119059D01*
X119037Y114315D01*
X119004Y114337D01*
X118982Y114359D01*
Y114370D01*
X118972Y114392D01*
X118961Y114457D01*
Y118075D01*
X115255D01*
Y114457D01*
Y114446D01*
Y114425D01*
X115244Y114392D01*
X115223Y114359D01*
X115201Y114337D01*
X115179Y114326D01*
X115135Y114304D01*
X115124D01*
X115091Y114294D01*
X115037D01*
X114960Y114283D01*
X114938D01*
X114895Y114272D01*
X114818Y114261D01*
X114621D01*
X114534Y114272D01*
X114446Y114283D01*
X114436D01*
X114392Y114294D01*
X114337D01*
X114283Y114304D01*
X114272D01*
X114250Y114315D01*
X114217Y114337D01*
X114195Y114359D01*
Y114370D01*
X114184Y114392D01*
X114173Y114457D01*
Y122272D01*
Y122283D01*
Y122305D01*
X114195Y122360D01*
Y122371D01*
X114217Y122382D01*
X114239Y122404D01*
X114283Y122425D01*
X114294D01*
X114326Y122436D01*
X114381Y122447D01*
X114446Y122458D01*
X114468D01*
X114523Y122469D01*
X114600Y122480D01*
X114796D01*
X114884Y122469D01*
X114960Y122458D01*
X114982D01*
X115026Y122447D01*
X115080Y122436D01*
X115135Y122425D01*
X115146D01*
X115168Y122415D01*
X115201Y122393D01*
X115223Y122360D01*
X115233Y122349D01*
X115244Y122338D01*
X115255Y122305D01*
Y122272D01*
Y119015D01*
X118961D01*
Y122272D01*
Y122283D01*
Y122305D01*
X118982Y122360D01*
Y122371D01*
X119004Y122382D01*
X119026Y122404D01*
X119070Y122425D01*
X119081D01*
X119114Y122436D01*
X119168Y122447D01*
X119234Y122458D01*
X119256D01*
X119299Y122469D01*
X119387Y122480D01*
X119584D01*
X119671Y122469D01*
D02*
G37*
G36*
X144712Y122436D02*
X144766Y122415D01*
X144777Y122404D01*
X144821Y122393D01*
X144865Y122360D01*
X144908Y122316D01*
X144919Y122305D01*
X144952Y122283D01*
X144985Y122229D01*
X145018Y122174D01*
X145029Y122163D01*
X145040Y122119D01*
X145051Y122043D01*
X145061Y121955D01*
Y114457D01*
Y114446D01*
Y114425D01*
X145051Y114392D01*
X145029Y114359D01*
X145007Y114337D01*
X144985Y114326D01*
X144941Y114304D01*
X144930D01*
X144897Y114294D01*
X144843D01*
X144777Y114283D01*
X144755D01*
X144712Y114272D01*
X144624Y114261D01*
X144428D01*
X144340Y114272D01*
X144253Y114283D01*
X144242D01*
X144198Y114294D01*
X144143D01*
X144089Y114304D01*
X144078D01*
X144056Y114315D01*
X144023Y114337D01*
X144001Y114359D01*
Y114370D01*
X143990Y114392D01*
X143979Y114457D01*
Y121551D01*
X143957D01*
X141083Y114425D01*
Y114414D01*
X141072Y114403D01*
X141061Y114370D01*
X141028Y114348D01*
X141017D01*
X141006Y114326D01*
X140974Y114315D01*
X140930Y114294D01*
X140919D01*
X140886Y114283D01*
X140842D01*
X140777Y114272D01*
X140722D01*
X140646Y114261D01*
X140482D01*
X140405Y114272D01*
X140329Y114283D01*
X140318D01*
X140274Y114294D01*
X140230D01*
X140176Y114304D01*
X140165D01*
X140143Y114315D01*
X140110Y114337D01*
X140077Y114359D01*
Y114370D01*
X140056Y114381D01*
X140034Y114425D01*
X137279Y121551D01*
Y114457D01*
Y114446D01*
Y114425D01*
X137268Y114392D01*
X137247Y114359D01*
X137225Y114337D01*
X137203Y114326D01*
X137159Y114304D01*
X137148D01*
X137115Y114294D01*
X137061D01*
X136984Y114283D01*
X136962D01*
X136919Y114272D01*
X136831Y114261D01*
X136634D01*
X136547Y114272D01*
X136460Y114283D01*
X136449D01*
X136405Y114294D01*
X136350D01*
X136296Y114304D01*
X136285D01*
X136263Y114315D01*
X136241Y114337D01*
X136219Y114359D01*
Y114370D01*
X136208Y114392D01*
X136197Y114457D01*
Y121955D01*
Y121966D01*
Y121999D01*
X136208Y122043D01*
X136219Y122098D01*
X136252Y122229D01*
X136285Y122283D01*
X136328Y122327D01*
X136339Y122338D01*
X136350Y122349D01*
X136427Y122393D01*
X136525Y122425D01*
X136580Y122447D01*
X137432D01*
X137552Y122425D01*
X137673Y122404D01*
X137684D01*
X137695Y122393D01*
X137760Y122382D01*
X137848Y122338D01*
X137935Y122283D01*
X137946D01*
X137957Y122272D01*
X138001Y122229D01*
X138066Y122163D01*
X138132Y122076D01*
X138143Y122054D01*
X138175Y121999D01*
X138219Y121901D01*
X138263Y121781D01*
X140602Y115878D01*
X140624D01*
X143050Y121759D01*
Y121770D01*
X143061Y121791D01*
X143083Y121824D01*
X143094Y121879D01*
X143149Y121977D01*
X143203Y122087D01*
Y122098D01*
X143214Y122108D01*
X143258Y122163D01*
X143324Y122229D01*
X143389Y122294D01*
X143411Y122305D01*
X143455Y122338D01*
X143520Y122371D01*
X143608Y122404D01*
X143619D01*
X143630Y122415D01*
X143684Y122425D01*
X143783Y122436D01*
X143892Y122447D01*
X144646D01*
X144712Y122436D01*
D02*
G37*
G36*
X155860Y122469D02*
X155959Y122458D01*
X155981D01*
X156024Y122447D01*
X156079Y122436D01*
X156112Y122404D01*
X156123Y122393D01*
X156133Y122371D01*
X156144Y122327D01*
Y122272D01*
Y122261D01*
X156133Y122207D01*
X156123Y122141D01*
X156090Y122043D01*
X153434Y114479D01*
Y114468D01*
X153423Y114446D01*
X153368Y114370D01*
X153357Y114359D01*
X153335Y114348D01*
X153292Y114326D01*
X153237Y114304D01*
X153226D01*
X153182Y114294D01*
X153117Y114283D01*
X153040Y114272D01*
X152964D01*
X152865Y114261D01*
X152581D01*
X152494Y114272D01*
X152374D01*
X152319Y114283D01*
X152308D01*
X152275Y114294D01*
X152188Y114304D01*
X152177D01*
X152155Y114315D01*
X152089Y114337D01*
Y114348D01*
X152067Y114359D01*
X152035Y114403D01*
Y114414D01*
X152024Y114425D01*
X152002Y114490D01*
X149335Y122054D01*
Y122065D01*
X149324Y122076D01*
X149313Y122130D01*
X149291Y122207D01*
X149280Y122272D01*
Y122283D01*
X149291Y122327D01*
X149302Y122360D01*
X149335Y122404D01*
X149346Y122415D01*
X149379Y122425D01*
X149433Y122447D01*
X149510Y122458D01*
X149532D01*
X149565Y122469D01*
X149608D01*
X149718Y122480D01*
X150046D01*
X150133Y122469D01*
X150155D01*
X150198Y122458D01*
X150253Y122447D01*
X150297Y122425D01*
X150308D01*
X150330Y122415D01*
X150352Y122393D01*
X150373Y122360D01*
X150384Y122349D01*
X150395Y122338D01*
X150417Y122305D01*
X150439Y122261D01*
X152778Y115408D01*
X155051Y122250D01*
Y122261D01*
X155062Y122294D01*
X155084Y122360D01*
X155095Y122371D01*
X155106Y122382D01*
X155172Y122425D01*
X155183Y122436D01*
X155215Y122447D01*
X155270Y122458D01*
X155347Y122469D01*
X155368D01*
X155434Y122480D01*
X155762D01*
X155860Y122469D01*
D02*
G37*
G36*
X127923D02*
X128022Y122458D01*
X128043D01*
X128087Y122447D01*
X128142Y122436D01*
X128175Y122404D01*
X128185Y122393D01*
X128196Y122371D01*
X128207Y122327D01*
Y122272D01*
Y122261D01*
X128196Y122207D01*
X128185Y122141D01*
X128153Y122043D01*
X125497Y114479D01*
Y114468D01*
X125486Y114446D01*
X125431Y114370D01*
X125420Y114359D01*
X125398Y114348D01*
X125355Y114326D01*
X125300Y114304D01*
X125289D01*
X125245Y114294D01*
X125180Y114283D01*
X125103Y114272D01*
X125027D01*
X124928Y114261D01*
X124644D01*
X124557Y114272D01*
X124436D01*
X124382Y114283D01*
X124371D01*
X124338Y114294D01*
X124251Y114304D01*
X124240D01*
X124218Y114315D01*
X124152Y114337D01*
Y114348D01*
X124130Y114359D01*
X124098Y114403D01*
Y114414D01*
X124087Y114425D01*
X124065Y114490D01*
X121398Y122054D01*
Y122065D01*
X121387Y122076D01*
X121376Y122130D01*
X121354Y122207D01*
X121343Y122272D01*
Y122283D01*
X121354Y122327D01*
X121365Y122360D01*
X121398Y122404D01*
X121409Y122415D01*
X121442Y122425D01*
X121496Y122447D01*
X121573Y122458D01*
X121595D01*
X121627Y122469D01*
X121671D01*
X121781Y122480D01*
X122108D01*
X122196Y122469D01*
X122218D01*
X122261Y122458D01*
X122316Y122447D01*
X122360Y122425D01*
X122371D01*
X122393Y122415D01*
X122415Y122393D01*
X122436Y122360D01*
X122447Y122349D01*
X122458Y122338D01*
X122480Y122305D01*
X122502Y122261D01*
X124841Y115408D01*
X127114Y122250D01*
Y122261D01*
X127125Y122294D01*
X127147Y122360D01*
X127158Y122371D01*
X127169Y122382D01*
X127235Y122425D01*
X127245Y122436D01*
X127278Y122447D01*
X127333Y122458D01*
X127410Y122469D01*
X127431D01*
X127497Y122480D01*
X127825D01*
X127923Y122469D01*
D02*
G37*
G36*
X159675Y122556D02*
X159806Y122546D01*
X159959Y122535D01*
X160123Y122502D01*
X160298Y122469D01*
X160462Y122415D01*
X160484Y122404D01*
X160538Y122393D01*
X160615Y122360D01*
X160713Y122305D01*
X160822Y122250D01*
X160943Y122185D01*
X161063Y122098D01*
X161172Y121999D01*
X161183Y121988D01*
X161216Y121955D01*
X161271Y121901D01*
X161336Y121824D01*
X161413Y121726D01*
X161478Y121617D01*
X161555Y121496D01*
X161609Y121365D01*
X161620Y121354D01*
X161631Y121300D01*
X161653Y121223D01*
X161686Y121125D01*
X161708Y121004D01*
X161730Y120873D01*
X161741Y120720D01*
X161751Y120556D01*
Y120535D01*
Y120491D01*
Y120414D01*
X161741Y120327D01*
X161730Y120218D01*
X161708Y120086D01*
X161642Y119835D01*
Y119824D01*
X161620Y119780D01*
X161599Y119715D01*
X161566Y119638D01*
X161522Y119551D01*
X161478Y119452D01*
X161347Y119245D01*
X161336Y119234D01*
X161314Y119201D01*
X161271Y119157D01*
X161216Y119103D01*
X161139Y119026D01*
X161063Y118961D01*
X160866Y118818D01*
X160855Y118807D01*
X160822Y118786D01*
X160757Y118764D01*
X160680Y118720D01*
X160593Y118676D01*
X160484Y118644D01*
X160353Y118600D01*
X160221Y118567D01*
Y118556D01*
X160243D01*
X160287Y118545D01*
X160374Y118534D01*
X160473Y118512D01*
X160593Y118491D01*
X160724Y118447D01*
X160855Y118403D01*
X160986Y118349D01*
X160997Y118338D01*
X161041Y118316D01*
X161107Y118283D01*
X161194Y118239D01*
X161293Y118174D01*
X161391Y118097D01*
X161588Y117922D01*
X161599Y117911D01*
X161631Y117878D01*
X161675Y117824D01*
X161741Y117758D01*
X161806Y117671D01*
X161872Y117572D01*
X161937Y117452D01*
X161992Y117332D01*
X162003Y117321D01*
X162014Y117277D01*
X162036Y117212D01*
X162068Y117124D01*
X162090Y117015D01*
X162112Y116895D01*
X162123Y116764D01*
X162134Y116622D01*
Y116611D01*
Y116600D01*
Y116567D01*
Y116523D01*
X162123Y116414D01*
X162112Y116283D01*
X162090Y116119D01*
X162047Y115955D01*
X162003Y115780D01*
X161937Y115605D01*
X161926Y115583D01*
X161905Y115529D01*
X161861Y115441D01*
X161795Y115343D01*
X161708Y115223D01*
X161620Y115091D01*
X161500Y114960D01*
X161369Y114829D01*
X161358Y114818D01*
X161303Y114774D01*
X161227Y114720D01*
X161118Y114654D01*
X160997Y114567D01*
X160844Y114490D01*
X160670Y114414D01*
X160473Y114337D01*
X160462D01*
X160451Y114326D01*
X160418D01*
X160374Y114315D01*
X160265Y114283D01*
X160123Y114261D01*
X159948Y114228D01*
X159740Y114195D01*
X159511Y114184D01*
X159270Y114173D01*
X159117D01*
X159019Y114184D01*
X158899D01*
X158768Y114206D01*
X158494Y114239D01*
X158483D01*
X158440Y114250D01*
X158374Y114261D01*
X158287Y114283D01*
X158188Y114304D01*
X158079Y114326D01*
X157860Y114392D01*
X157850D01*
X157817Y114403D01*
X157762Y114425D01*
X157696Y114446D01*
X157554Y114512D01*
X157401Y114578D01*
X157390D01*
X157369Y114600D01*
X157303Y114632D01*
X157227Y114676D01*
X157194Y114698D01*
X157172Y114720D01*
X157161Y114731D01*
X157150Y114752D01*
X157106Y114807D01*
Y114818D01*
X157095Y114840D01*
X157084Y114873D01*
X157063Y114917D01*
Y114927D01*
X157052Y114960D01*
X157041Y115004D01*
X157030Y115069D01*
Y115091D01*
Y115135D01*
Y115212D01*
Y115299D01*
Y115310D01*
Y115332D01*
Y115375D01*
X157041Y115419D01*
X157052Y115518D01*
X157063Y115572D01*
X157073Y115605D01*
X157084Y115616D01*
X157106Y115660D01*
X157139Y115692D01*
X157194Y115703D01*
X157205D01*
X157248Y115692D01*
X157314Y115660D01*
X157423Y115594D01*
X157434D01*
X157456Y115572D01*
X157489Y115561D01*
X157544Y115529D01*
X157609Y115496D01*
X157686Y115463D01*
X157860Y115375D01*
X157871D01*
X157904Y115354D01*
X157970Y115332D01*
X158046Y115310D01*
X158134Y115277D01*
X158243Y115244D01*
X158363Y115201D01*
X158494Y115168D01*
X158516D01*
X158560Y115157D01*
X158636Y115135D01*
X158735Y115124D01*
X158844Y115102D01*
X158986Y115080D01*
X159128Y115069D01*
X159369D01*
X159445Y115080D01*
X159544D01*
X159664Y115091D01*
X159784Y115113D01*
X160036Y115168D01*
X160046D01*
X160090Y115190D01*
X160156Y115212D01*
X160232Y115244D01*
X160407Y115343D01*
X160582Y115474D01*
X160593Y115485D01*
X160615Y115507D01*
X160659Y115550D01*
X160702Y115605D01*
X160757Y115671D01*
X160811Y115747D01*
X160910Y115933D01*
X160921Y115944D01*
X160932Y115977D01*
X160954Y116031D01*
X160976Y116108D01*
X160997Y116195D01*
X161008Y116294D01*
X161030Y116403D01*
Y116523D01*
Y116534D01*
Y116578D01*
X161019Y116643D01*
X161008Y116731D01*
X160997Y116818D01*
X160976Y116928D01*
X160932Y117026D01*
X160888Y117135D01*
X160877Y117146D01*
X160866Y117179D01*
X160833Y117234D01*
X160779Y117299D01*
X160724Y117376D01*
X160659Y117463D01*
X160571Y117540D01*
X160473Y117616D01*
X160462Y117627D01*
X160429Y117649D01*
X160363Y117693D01*
X160287Y117736D01*
X160188Y117780D01*
X160079Y117835D01*
X159948Y117889D01*
X159806Y117933D01*
X159784D01*
X159740Y117955D01*
X159653Y117966D01*
X159544Y117988D01*
X159413Y118010D01*
X159259Y118021D01*
X159096Y118043D01*
X158079D01*
X158002Y118064D01*
X157992D01*
X157981Y118086D01*
X157926Y118130D01*
Y118141D01*
X157904Y118163D01*
X157893Y118206D01*
X157871Y118261D01*
Y118272D01*
X157860Y118327D01*
X157850Y118392D01*
Y118480D01*
Y118491D01*
Y118501D01*
Y118545D01*
Y118611D01*
X157860Y118676D01*
Y118687D01*
X157871Y118720D01*
X157893Y118764D01*
X157915Y118797D01*
X157926Y118807D01*
X157937Y118818D01*
X157992Y118862D01*
X158002Y118873D01*
X158024Y118884D01*
X158057Y118895D01*
X158877D01*
X158964Y118906D01*
X159063D01*
X159172Y118917D01*
X159303Y118939D01*
X159555Y118993D01*
X159565D01*
X159609Y119015D01*
X159675Y119037D01*
X159751Y119070D01*
X159926Y119168D01*
X160112Y119299D01*
X160123Y119310D01*
X160145Y119332D01*
X160188Y119376D01*
X160243Y119441D01*
X160298Y119507D01*
X160353Y119595D01*
X160462Y119780D01*
X160473Y119791D01*
X160484Y119835D01*
X160505Y119890D01*
X160527Y119966D01*
X160549Y120064D01*
X160571Y120163D01*
X160593Y120283D01*
Y120414D01*
Y120425D01*
Y120458D01*
Y120502D01*
X160582Y120567D01*
X160560Y120720D01*
X160505Y120895D01*
Y120906D01*
X160495Y120939D01*
X160473Y120983D01*
X160451Y121037D01*
X160374Y121168D01*
X160265Y121300D01*
X160254Y121310D01*
X160232Y121332D01*
X160199Y121365D01*
X160156Y121398D01*
X160090Y121442D01*
X160014Y121485D01*
X159839Y121573D01*
X159828D01*
X159795Y121584D01*
X159740Y121606D01*
X159675Y121627D01*
X159587Y121638D01*
X159489Y121660D01*
X159380Y121671D01*
X159194D01*
X159128Y121660D01*
X159041D01*
X158932Y121638D01*
X158822Y121617D01*
X158702Y121595D01*
X158582Y121551D01*
X158571D01*
X158527Y121529D01*
X158473Y121507D01*
X158407Y121485D01*
X158319Y121453D01*
X158232Y121409D01*
X158046Y121321D01*
X158035D01*
X158002Y121300D01*
X157959Y121278D01*
X157904Y121245D01*
X157773Y121179D01*
X157642Y121092D01*
X157631D01*
X157620Y121070D01*
X157554Y121037D01*
X157489Y121004D01*
X157434Y120983D01*
X157412D01*
X157347Y120994D01*
X157325Y121004D01*
X157314Y121026D01*
X157292Y121048D01*
Y121059D01*
X157281Y121092D01*
X157270Y121136D01*
X157259Y121190D01*
Y121201D01*
Y121256D01*
Y121321D01*
Y121409D01*
Y121431D01*
Y121464D01*
Y121518D01*
Y121573D01*
Y121584D01*
X157270Y121617D01*
X157281Y121704D01*
Y121715D01*
X157292Y121737D01*
X157325Y121802D01*
X157336Y121813D01*
X157347Y121835D01*
X157412Y121901D01*
X157423Y121912D01*
X157467Y121944D01*
X157544Y121999D01*
X157653Y122076D01*
X157664Y122087D01*
X157686Y122098D01*
X157729Y122119D01*
X157784Y122152D01*
X157850Y122185D01*
X157926Y122229D01*
X158101Y122305D01*
X158112D01*
X158145Y122327D01*
X158210Y122349D01*
X158287Y122371D01*
X158374Y122404D01*
X158483Y122425D01*
X158593Y122458D01*
X158724Y122491D01*
X158735D01*
X158790Y122502D01*
X158855Y122513D01*
X158953Y122535D01*
X159063Y122546D01*
X159183Y122556D01*
X159325Y122567D01*
X159565D01*
X159675Y122556D01*
D02*
G37*
G36*
X169971Y122491D02*
X170047Y122480D01*
X170069D01*
X170113Y122469D01*
X170168Y122458D01*
X170211Y122447D01*
X170222D01*
X170244Y122436D01*
X170266Y122415D01*
X170288Y122393D01*
X170299Y122371D01*
X170310Y122316D01*
Y115168D01*
X171818D01*
X171840Y115157D01*
X171873Y115135D01*
X171884Y115124D01*
X171895Y115113D01*
X171949Y115048D01*
X171960Y115037D01*
X171971Y115015D01*
X171982Y114960D01*
X171993Y114906D01*
Y114895D01*
X172004Y114851D01*
X172015Y114796D01*
Y114720D01*
Y114698D01*
Y114654D01*
X172004Y114578D01*
X171993Y114512D01*
Y114501D01*
X171982Y114468D01*
X171938Y114381D01*
Y114370D01*
X171916Y114359D01*
X171862Y114315D01*
X171840Y114304D01*
X171785Y114294D01*
X167501D01*
X167435Y114315D01*
X167413Y114337D01*
X167369Y114381D01*
Y114392D01*
X167348Y114414D01*
X167337Y114457D01*
X167315Y114512D01*
Y114523D01*
Y114567D01*
X167304Y114632D01*
Y114720D01*
Y114742D01*
Y114785D01*
Y114840D01*
X167315Y114906D01*
Y114917D01*
X167326Y114960D01*
X167348Y115004D01*
X167359Y115048D01*
X167369Y115059D01*
X167380Y115080D01*
X167435Y115135D01*
X167446Y115146D01*
X167468Y115157D01*
X167490Y115168D01*
X169228D01*
Y121365D01*
X167654Y120425D01*
X167632Y120414D01*
X167588Y120392D01*
X167523Y120360D01*
X167457Y120338D01*
X167413D01*
X167369Y120349D01*
X167337Y120370D01*
X167326Y120381D01*
X167315Y120403D01*
X167293Y120447D01*
X167282Y120502D01*
Y120524D01*
Y120567D01*
X167271Y120644D01*
Y120742D01*
Y120764D01*
Y120808D01*
Y120862D01*
Y120928D01*
Y120939D01*
X167282Y120972D01*
X167293Y121015D01*
X167304Y121048D01*
Y121059D01*
X167315Y121081D01*
X167359Y121136D01*
X167369Y121147D01*
X167380Y121168D01*
X167446Y121223D01*
X169326Y122425D01*
X169337Y122436D01*
X169381Y122447D01*
X169392D01*
X169413Y122458D01*
X169479Y122480D01*
X169490D01*
X169512Y122491D01*
X169621D01*
X169665Y122502D01*
X169883D01*
X169971Y122491D01*
D02*
G37*
G36*
X131934Y122436D02*
X132022D01*
X132197Y122415D01*
X132240D01*
X132295Y122404D01*
X132361Y122393D01*
X132448Y122382D01*
X132547Y122360D01*
X132656Y122338D01*
X132776Y122316D01*
X132787D01*
X132831Y122305D01*
X132896Y122283D01*
X132984Y122261D01*
X133082Y122229D01*
X133191Y122174D01*
X133323Y122119D01*
X133443Y122054D01*
X133454Y122043D01*
X133498Y122021D01*
X133563Y121977D01*
X133651Y121923D01*
X133738Y121846D01*
X133836Y121759D01*
X133935Y121671D01*
X134033Y121562D01*
X134044Y121551D01*
X134077Y121507D01*
X134121Y121453D01*
X134175Y121376D01*
X134230Y121278D01*
X134295Y121158D01*
X134350Y121037D01*
X134405Y120895D01*
X134416Y120873D01*
X134426Y120830D01*
X134448Y120753D01*
X134470Y120644D01*
X134492Y120524D01*
X134514Y120381D01*
X134536Y120218D01*
Y120054D01*
Y120043D01*
Y120032D01*
Y119999D01*
Y119955D01*
X134525Y119835D01*
X134514Y119682D01*
X134481Y119518D01*
X134448Y119332D01*
X134394Y119135D01*
X134328Y118950D01*
X134317Y118928D01*
X134295Y118873D01*
X134241Y118775D01*
X134186Y118666D01*
X134099Y118523D01*
X134000Y118392D01*
X133880Y118250D01*
X133749Y118108D01*
X133727Y118097D01*
X133683Y118053D01*
X133607Y117988D01*
X133498Y117911D01*
X133366Y117835D01*
X133202Y117747D01*
X133028Y117660D01*
X132831Y117583D01*
X132820D01*
X132809Y117572D01*
X132776Y117561D01*
X132732Y117551D01*
X132623Y117529D01*
X132459Y117496D01*
X132273Y117452D01*
X132055Y117430D01*
X131803Y117409D01*
X131530Y117398D01*
X130612D01*
Y114457D01*
Y114446D01*
Y114425D01*
X130601Y114392D01*
X130579Y114359D01*
X130568D01*
X130557Y114337D01*
X130525Y114326D01*
X130481Y114304D01*
X130470D01*
X130437Y114294D01*
X130393D01*
X130317Y114283D01*
X130295D01*
X130251Y114272D01*
X130175Y114261D01*
X129978D01*
X129891Y114272D01*
X129803Y114283D01*
X129792D01*
X129748Y114294D01*
X129694D01*
X129639Y114304D01*
X129628D01*
X129606Y114315D01*
X129574Y114337D01*
X129552Y114359D01*
Y114370D01*
X129541Y114392D01*
X129530Y114457D01*
Y121977D01*
Y121988D01*
Y122021D01*
X129541Y122065D01*
X129552Y122119D01*
X129585Y122240D01*
X129617Y122294D01*
X129661Y122338D01*
X129672D01*
X129683Y122360D01*
X129748Y122393D01*
X129836Y122425D01*
X129956Y122447D01*
X131858D01*
X131934Y122436D01*
D02*
G37*
G36*
X164681Y115692D02*
X164757Y115682D01*
X164932Y115638D01*
X165009Y115605D01*
X165074Y115550D01*
X165085Y115540D01*
X165096Y115518D01*
X165118Y115485D01*
X165151Y115430D01*
X165173Y115343D01*
X165194Y115244D01*
X165205Y115124D01*
X165216Y114971D01*
Y114949D01*
Y114906D01*
X165205Y114829D01*
X165194Y114731D01*
X165151Y114534D01*
X165118Y114446D01*
X165063Y114381D01*
X165052Y114370D01*
X165031Y114359D01*
X164998Y114337D01*
X164943Y114315D01*
X164877Y114283D01*
X164779Y114261D01*
X164670Y114250D01*
X164539Y114239D01*
X164473D01*
X164408Y114250D01*
X164331Y114261D01*
X164156Y114304D01*
X164080Y114337D01*
X164014Y114381D01*
X164003Y114392D01*
X163992Y114414D01*
X163970Y114446D01*
X163949Y114512D01*
X163916Y114589D01*
X163894Y114687D01*
X163883Y114807D01*
X163872Y114960D01*
Y114982D01*
Y115037D01*
X163883Y115102D01*
X163894Y115201D01*
X163937Y115397D01*
X163970Y115485D01*
X164014Y115550D01*
X164025Y115561D01*
X164047Y115572D01*
X164080Y115594D01*
X164134Y115627D01*
X164211Y115660D01*
X164309Y115682D01*
X164418Y115692D01*
X164550Y115703D01*
X164615D01*
X164681Y115692D01*
D02*
G37*
%LPC*%
G36*
X234465Y214911D02*
X230102D01*
X227018Y211827D01*
Y207465D01*
X230102Y204380D01*
X234465D01*
X237549Y207465D01*
Y211827D01*
X234465Y214911D01*
D02*
G37*
G36*
X131607Y121551D02*
X130612D01*
Y118283D01*
X131672D01*
X131760Y118294D01*
X131869D01*
X132000Y118316D01*
X132131Y118338D01*
X132273Y118359D01*
X132394Y118403D01*
X132404Y118414D01*
X132448Y118425D01*
X132514Y118458D01*
X132590Y118501D01*
X132765Y118611D01*
X132940Y118753D01*
X132951Y118764D01*
X132973Y118797D01*
X133017Y118840D01*
X133071Y118906D01*
X133126Y118982D01*
X133180Y119070D01*
X133235Y119168D01*
X133279Y119278D01*
X133290Y119289D01*
X133301Y119332D01*
X133323Y119398D01*
X133344Y119485D01*
X133366Y119584D01*
X133377Y119704D01*
X133399Y119835D01*
Y119966D01*
Y119977D01*
Y119988D01*
Y120054D01*
X133388Y120141D01*
X133377Y120250D01*
X133355Y120381D01*
X133312Y120524D01*
X133268Y120655D01*
X133202Y120786D01*
X133191Y120797D01*
X133170Y120841D01*
X133126Y120906D01*
X133071Y120972D01*
X133006Y121059D01*
X132929Y121147D01*
X132842Y121223D01*
X132743Y121289D01*
X132732Y121300D01*
X132700Y121310D01*
X132645Y121343D01*
X132568Y121376D01*
X132481Y121409D01*
X132394Y121442D01*
X132284Y121475D01*
X132175Y121496D01*
X132164D01*
X132131Y121507D01*
X132066Y121518D01*
X132000Y121529D01*
X131913D01*
X131814Y121540D01*
X131607Y121551D01*
D02*
G37*
%LPD*%
D44*
X320079Y178456D02*
D03*
Y199497D02*
D03*
X320079Y37511D02*
D03*
Y58552D02*
D03*
D47*
X98819Y4331D02*
D03*
Y9843D02*
D03*
X60630Y4331D02*
D03*
Y9843D02*
D03*
X91929Y92323D02*
D03*
Y86811D02*
D03*
X101772Y92323D02*
D03*
Y86811D02*
D03*
X384252Y129528D02*
D03*
Y124016D02*
D03*
X353543Y87992D02*
D03*
Y82480D02*
D03*
X353551Y129618D02*
D03*
Y124106D02*
D03*
X363787D02*
D03*
Y129618D02*
D03*
X318504Y87992D02*
D03*
Y82480D02*
D03*
X303157Y99500D02*
D03*
Y93988D02*
D03*
X313394Y99500D02*
D03*
Y93988D02*
D03*
X308268Y112008D02*
D03*
Y106496D02*
D03*
X318504D02*
D03*
Y112008D02*
D03*
X91870Y190039D02*
D03*
Y195551D02*
D03*
X101969Y190157D02*
D03*
Y195669D02*
D03*
X358669Y136705D02*
D03*
Y142217D02*
D03*
X368905Y136705D02*
D03*
Y142217D02*
D03*
X318512Y148122D02*
D03*
Y153634D02*
D03*
X353543Y148425D02*
D03*
Y153937D02*
D03*
D48*
X90402Y42933D02*
D03*
Y37933D02*
D03*
Y32933D02*
D03*
Y27933D02*
D03*
X69047D02*
D03*
Y32933D02*
D03*
Y37933D02*
D03*
Y42933D02*
D03*
D49*
X91339Y48819D02*
D03*
X85827D02*
D03*
X67716Y49213D02*
D03*
X73228D02*
D03*
D50*
X69095Y21543D02*
D03*
Y19047D02*
D03*
Y16543D02*
D03*
Y14047D02*
D03*
Y11543D02*
D03*
Y9047D02*
D03*
Y6543D02*
D03*
Y4047D02*
D03*
X90354D02*
D03*
Y6543D02*
D03*
Y9047D02*
D03*
Y11543D02*
D03*
Y14047D02*
D03*
Y16543D02*
D03*
Y19047D02*
D03*
Y21543D02*
D03*
D51*
X116457Y181102D02*
D03*
Y55118D02*
D03*
D52*
X203366Y161122D02*
D03*
Y201102D02*
D03*
Y35138D02*
D03*
Y75118D02*
D03*
D53*
X304626Y213779D02*
D03*
X270472Y23031D02*
D03*
X293209Y213779D02*
D03*
X281890Y23031D02*
D03*
X281791Y213779D02*
D03*
X293307Y23031D02*
D03*
X270374Y213779D02*
D03*
X304724Y23031D02*
D03*
X270374Y202756D02*
D03*
X270374Y186614D02*
D03*
Y175591D02*
D03*
X281791Y202756D02*
D03*
X293209D02*
D03*
X304626D02*
D03*
X304626Y186614D02*
D03*
Y175591D02*
D03*
X281791Y186614D02*
D03*
Y175591D02*
D03*
X293209Y186614D02*
D03*
Y175591D02*
D03*
X270472Y61221D02*
D03*
Y50197D02*
D03*
X281890Y61221D02*
D03*
Y50197D02*
D03*
X293307Y34055D02*
D03*
X270472D02*
D03*
X281890D02*
D03*
X304724D02*
D03*
X293307Y61221D02*
D03*
Y50197D02*
D03*
X304724Y61221D02*
D03*
Y50197D02*
D03*
D54*
X225590Y181102D02*
D03*
Y192913D02*
D03*
X225492Y55020D02*
D03*
Y66831D02*
D03*
D55*
X254232Y11142D02*
D03*
X256791D02*
D03*
X259350D02*
D03*
X261910D02*
D03*
Y27677D02*
D03*
X259350D02*
D03*
X256791D02*
D03*
X254232D02*
D03*
X261910Y56299D02*
D03*
X259350D02*
D03*
X256791D02*
D03*
X254232D02*
D03*
Y72835D02*
D03*
X256791D02*
D03*
X259350D02*
D03*
X261910D02*
D03*
X254232Y180315D02*
D03*
X256791D02*
D03*
X259350D02*
D03*
X261909D02*
D03*
X254232Y208937D02*
D03*
X256791D02*
D03*
X259350D02*
D03*
X261909D02*
D03*
Y163779D02*
D03*
X259350D02*
D03*
X256791D02*
D03*
X254232D02*
D03*
Y225472D02*
D03*
X256791D02*
D03*
X259350D02*
D03*
X261909D02*
D03*
D56*
X261910Y22913D02*
D03*
X259350D02*
D03*
X256791D02*
D03*
X254232D02*
D03*
Y39449D02*
D03*
X256791D02*
D03*
X259350D02*
D03*
X261910D02*
D03*
X254232Y44528D02*
D03*
X256791D02*
D03*
X259350D02*
D03*
X261910D02*
D03*
Y61063D02*
D03*
X259350D02*
D03*
X256791D02*
D03*
X254232D02*
D03*
X261909Y192087D02*
D03*
X259350D02*
D03*
X256791D02*
D03*
X254232D02*
D03*
X261909Y197165D02*
D03*
X259350D02*
D03*
X256791D02*
D03*
X254232D02*
D03*
Y175551D02*
D03*
X256791D02*
D03*
X259350D02*
D03*
X261909D02*
D03*
Y213701D02*
D03*
X259350D02*
D03*
X256791D02*
D03*
X254232D02*
D03*
D57*
X258071Y16063D02*
D03*
Y32598D02*
D03*
Y51378D02*
D03*
Y67913D02*
D03*
X258071Y185236D02*
D03*
Y204016D02*
D03*
Y168701D02*
D03*
Y220551D02*
D03*
D58*
X258071Y21929D02*
D03*
X260630D02*
D03*
Y38465D02*
D03*
X258071D02*
D03*
Y45512D02*
D03*
X255512D02*
D03*
Y62047D02*
D03*
X258071D02*
D03*
X258071Y191102D02*
D03*
X260630D02*
D03*
X255512Y198150D02*
D03*
X258071D02*
D03*
X260630Y174567D02*
D03*
X258071D02*
D03*
X255512Y214685D02*
D03*
X258071D02*
D03*
D59*
X96850Y92716D02*
D03*
Y86417D02*
D03*
X368898Y123622D02*
D03*
Y129921D02*
D03*
X367323Y82874D02*
D03*
Y89173D02*
D03*
X303150Y112402D02*
D03*
Y106102D02*
D03*
X87008Y86417D02*
D03*
Y92716D02*
D03*
X86949Y195945D02*
D03*
Y189646D02*
D03*
X97047Y196063D02*
D03*
Y189764D02*
D03*
X304732Y153240D02*
D03*
Y146941D02*
D03*
D60*
X83280Y105512D02*
D03*
Y102953D02*
D03*
Y100394D02*
D03*
Y97835D02*
D03*
X100697D02*
D03*
Y100394D02*
D03*
Y102953D02*
D03*
Y105512D02*
D03*
X82571Y209429D02*
D03*
Y206870D02*
D03*
Y204311D02*
D03*
Y201752D02*
D03*
X99988D02*
D03*
Y204311D02*
D03*
Y206870D02*
D03*
Y209429D02*
D03*
D61*
X85925Y118405D02*
D03*
X98051D02*
D03*
X85216Y222323D02*
D03*
X97342D02*
D03*
D62*
X380217Y116685D02*
D03*
X377658D02*
D03*
X375098D02*
D03*
X372539D02*
D03*
Y93551D02*
D03*
X375098D02*
D03*
X377658D02*
D03*
X380217D02*
D03*
D63*
X374016Y129724D02*
D03*
Y123819D02*
D03*
X379134D02*
D03*
Y129724D02*
D03*
X384646Y88976D02*
D03*
Y83071D02*
D03*
X367331Y105996D02*
D03*
Y111902D02*
D03*
X358661Y129724D02*
D03*
Y123819D02*
D03*
X308276Y93791D02*
D03*
Y99697D02*
D03*
X313386Y106299D02*
D03*
Y112205D02*
D03*
X318512Y99697D02*
D03*
Y93791D02*
D03*
X304732Y130209D02*
D03*
Y124303D02*
D03*
X363787Y142413D02*
D03*
Y136508D02*
D03*
X353551D02*
D03*
Y142413D02*
D03*
D64*
X347547Y80701D02*
D03*
Y83260D02*
D03*
Y85819D02*
D03*
Y88378D02*
D03*
Y90937D02*
D03*
Y93496D02*
D03*
Y96055D02*
D03*
Y98614D02*
D03*
Y101173D02*
D03*
Y103732D02*
D03*
Y106291D02*
D03*
Y108850D02*
D03*
Y111409D02*
D03*
Y113969D02*
D03*
X324516D02*
D03*
Y111409D02*
D03*
Y108850D02*
D03*
Y106291D02*
D03*
Y103732D02*
D03*
Y101173D02*
D03*
Y98614D02*
D03*
Y96055D02*
D03*
Y93496D02*
D03*
Y90937D02*
D03*
Y88378D02*
D03*
Y85819D02*
D03*
Y83260D02*
D03*
Y80701D02*
D03*
X324516Y155504D02*
D03*
Y152945D02*
D03*
Y150386D02*
D03*
Y147827D02*
D03*
Y145268D02*
D03*
Y142709D02*
D03*
Y140150D02*
D03*
Y137591D02*
D03*
Y135031D02*
D03*
Y132473D02*
D03*
Y129913D02*
D03*
Y127354D02*
D03*
Y124795D02*
D03*
Y122236D02*
D03*
X347547D02*
D03*
Y124795D02*
D03*
Y127354D02*
D03*
Y129913D02*
D03*
Y132473D02*
D03*
Y135031D02*
D03*
Y137591D02*
D03*
Y140150D02*
D03*
Y142709D02*
D03*
Y145268D02*
D03*
Y147827D02*
D03*
Y150386D02*
D03*
Y152945D02*
D03*
Y155504D02*
D03*
D65*
X336032Y97335D02*
D03*
X336032Y138870D02*
D03*
D66*
X360244Y93988D02*
D03*
Y82965D02*
D03*
X387008Y111811D02*
D03*
Y100787D02*
D03*
X311819Y142217D02*
D03*
Y153240D02*
D03*
D67*
X373031Y83268D02*
D03*
X378937D02*
D03*
D68*
X360244Y111390D02*
D03*
Y100209D02*
D03*
X311819Y124815D02*
D03*
Y135996D02*
D03*
D69*
X353551Y112886D02*
D03*
Y106587D02*
D03*
X318512Y123319D02*
D03*
Y129618D02*
D03*
D70*
X313386Y84449D02*
D03*
X302362D02*
D03*
X385827Y151575D02*
D03*
X374803D02*
D03*
X358669Y151665D02*
D03*
X369693D02*
D03*
D71*
X61535Y96457D02*
D03*
X76398Y104232D02*
D03*
X60551Y200787D02*
D03*
X75413Y208632D02*
D03*
D72*
X378150Y137992D02*
D03*
X385630D02*
D03*
X381890Y146260D02*
D03*
D73*
X259842Y97441D02*
D03*
Y138779D02*
D03*
D74*
X279528Y97441D02*
D03*
Y138779D02*
D03*
X232283Y26575D02*
D03*
Y209646D02*
D03*
X344488Y26575D02*
D03*
Y209646D02*
D03*
D75*
X51181Y137894D02*
D03*
X41339D02*
D03*
X31496D02*
D03*
X21654D02*
D03*
X11811D02*
D03*
X51181Y126083D02*
D03*
X41339D02*
D03*
X31496D02*
D03*
X21654D02*
D03*
X11811D02*
D03*
X31496Y202854D02*
D03*
X21654D02*
D03*
X11811D02*
D03*
X21654Y191043D02*
D03*
X11811D02*
D03*
X21654Y181201D02*
D03*
X11811D02*
D03*
X21654Y169390D02*
D03*
X11811D02*
D03*
X21654Y159547D02*
D03*
X11811D02*
D03*
X21654Y147736D02*
D03*
X11811D02*
D03*
X51181Y169390D02*
D03*
Y202854D02*
D03*
X41339D02*
D03*
X51181Y191043D02*
D03*
X41339D02*
D03*
X51181Y181201D02*
D03*
X41339D02*
D03*
Y169390D02*
D03*
X51181Y159547D02*
D03*
X41339D02*
D03*
X51181Y147736D02*
D03*
X41339D02*
D03*
X31496D02*
D03*
Y191043D02*
D03*
Y181201D02*
D03*
Y169390D02*
D03*
Y159547D02*
D03*
X37716Y105728D02*
D03*
X17717Y85728D02*
D03*
X27716Y105728D02*
D03*
X17717Y75728D02*
D03*
X27716D02*
D03*
X37716Y95728D02*
D03*
X27716Y85728D02*
D03*
X17717Y95728D02*
D03*
X27716D02*
D03*
X17717Y105728D02*
D03*
Y55728D02*
D03*
X27716Y35728D02*
D03*
X17717D02*
D03*
X27716Y45728D02*
D03*
X17717D02*
D03*
X27716Y55728D02*
D03*
Y65728D02*
D03*
X17717D02*
D03*
X37716Y85728D02*
D03*
Y75728D02*
D03*
Y65728D02*
D03*
Y55728D02*
D03*
Y45728D02*
D03*
Y35728D02*
D03*
D76*
X31496Y12808D02*
D03*
Y224508D02*
D03*
D77*
X232283Y12795D02*
D03*
Y223425D02*
D03*
X344488Y12795D02*
D03*
Y223425D02*
D03*
D78*
X381890Y169291D02*
D03*
X362205D02*
D03*
D79*
X318898Y142035D02*
D03*
X239490Y118201D02*
D03*
X318087Y145328D02*
D03*
X353328Y94367D02*
D03*
X354191Y90812D02*
D03*
X300787Y68898D02*
D03*
X293701Y76933D02*
D03*
X288189D02*
D03*
X266142D02*
D03*
X255118D02*
D03*
X271654D02*
D03*
X277165D02*
D03*
X260630D02*
D03*
X373948Y99977D02*
D03*
X308925Y84646D02*
D03*
X364244Y158257D02*
D03*
X358661Y158268D02*
D03*
X298345Y112992D02*
D03*
X298031Y86614D02*
D03*
X282677Y69161D02*
D03*
X277165D02*
D03*
X266142D02*
D03*
X255118D02*
D03*
X271654D02*
D03*
X260630D02*
D03*
X59055Y66929D02*
D03*
X55118Y70866D02*
D03*
X62992Y62992D02*
D03*
X94153Y32933D02*
D03*
X103213Y25814D02*
D03*
X102362Y31496D02*
D03*
X102772Y21772D02*
D03*
X379921Y137795D02*
D03*
X368898Y124713D02*
D03*
X366142Y74803D02*
D03*
X295276Y68898D02*
D03*
X372047D02*
D03*
X377953Y62992D02*
D03*
X383858Y57087D02*
D03*
Y49213D02*
D03*
Y41339D02*
D03*
Y33465D02*
D03*
X350394Y9843D02*
D03*
X334646D02*
D03*
X326772D02*
D03*
X318898D02*
D03*
X311024D02*
D03*
X303150D02*
D03*
X295276D02*
D03*
X287402D02*
D03*
X279528D02*
D03*
X222441D02*
D03*
X214567D02*
D03*
X206693D02*
D03*
X198819D02*
D03*
X190945D02*
D03*
X183071D02*
D03*
X175197D02*
D03*
X167323D02*
D03*
X159449D02*
D03*
X151575D02*
D03*
X143701D02*
D03*
X135827D02*
D03*
X138976Y22835D02*
D03*
X102362Y62992D02*
D03*
X102126Y55118D02*
D03*
X102362Y39370D02*
D03*
Y47244D02*
D03*
X94488Y37933D02*
D03*
X102756Y17323D02*
D03*
Y13780D02*
D03*
X110762Y2453D02*
D03*
X47244Y59055D02*
D03*
X56328Y13488D02*
D03*
X70472Y24409D02*
D03*
X49213Y21654D02*
D03*
X53150Y17717D02*
D03*
X45276Y25591D02*
D03*
X66929Y59055D02*
D03*
X74803D02*
D03*
X82677D02*
D03*
X90551D02*
D03*
X94488Y55118D02*
D03*
X51181D02*
D03*
X55118Y51181D02*
D03*
Y43307D02*
D03*
Y35433D02*
D03*
X59055Y31496D02*
D03*
X62992Y27559D02*
D03*
X41339Y29528D02*
D03*
X27559Y23622D02*
D03*
X55118Y78740D02*
D03*
X63386Y77559D02*
D03*
Y80709D02*
D03*
X66142Y79134D02*
D03*
Y82284D02*
D03*
X68898Y77559D02*
D03*
Y80709D02*
D03*
X51181Y102362D02*
D03*
X55118Y86614D02*
D03*
X56102Y94488D02*
D03*
X63382Y123350D02*
D03*
Y120201D02*
D03*
Y117051D02*
D03*
Y113902D02*
D03*
X63386Y83858D02*
D03*
Y87008D02*
D03*
X66142Y85433D02*
D03*
Y121653D02*
D03*
Y88583D02*
D03*
Y112205D02*
D03*
Y118504D02*
D03*
Y115354D02*
D03*
X68898Y123228D02*
D03*
Y120079D02*
D03*
X219291Y54724D02*
D03*
X224754Y46801D02*
D03*
X231693Y62795D02*
D03*
X231715Y58993D02*
D03*
X238583Y35827D02*
D03*
X238583Y32677D02*
D03*
X238583Y29528D02*
D03*
X241339Y37402D02*
D03*
X241339Y34252D02*
D03*
X241339Y31102D02*
D03*
X241339Y27953D02*
D03*
X68898Y83858D02*
D03*
Y113779D02*
D03*
Y116929D02*
D03*
X69035Y86713D02*
D03*
X71653Y79134D02*
D03*
Y82284D02*
D03*
Y85433D02*
D03*
Y88583D02*
D03*
Y112205D02*
D03*
Y115354D02*
D03*
Y118504D02*
D03*
Y121653D02*
D03*
X74409Y77559D02*
D03*
Y80709D02*
D03*
Y83858D02*
D03*
Y87008D02*
D03*
Y113779D02*
D03*
Y116929D02*
D03*
Y120079D02*
D03*
Y123228D02*
D03*
X82677Y87598D02*
D03*
X91917Y113812D02*
D03*
Y121686D02*
D03*
X93504Y103347D02*
D03*
X93886Y109875D02*
D03*
Y117749D02*
D03*
X95854Y113812D02*
D03*
Y121686D02*
D03*
X97823Y109875D02*
D03*
Y117749D02*
D03*
X62598Y183465D02*
D03*
Y186614D02*
D03*
X65354Y181890D02*
D03*
Y185039D02*
D03*
X68110Y183465D02*
D03*
Y186614D02*
D03*
X70866Y181890D02*
D03*
Y185039D02*
D03*
X55118Y196850D02*
D03*
X62598Y189764D02*
D03*
Y192913D02*
D03*
X62599Y220079D02*
D03*
Y216929D02*
D03*
Y226378D02*
D03*
Y223228D02*
D03*
X65354Y188189D02*
D03*
Y191339D02*
D03*
X65354Y227953D02*
D03*
Y221654D02*
D03*
Y224803D02*
D03*
Y218504D02*
D03*
X68110Y189764D02*
D03*
Y192913D02*
D03*
X68110Y220079D02*
D03*
Y226378D02*
D03*
Y216929D02*
D03*
Y223228D02*
D03*
X70866Y188189D02*
D03*
Y191339D02*
D03*
X73622Y186614D02*
D03*
Y189764D02*
D03*
Y192913D02*
D03*
Y183465D02*
D03*
X73622Y216929D02*
D03*
X82677Y190945D02*
D03*
X180315Y218110D02*
D03*
X183071Y216142D02*
D03*
X185827Y218110D02*
D03*
X188583Y216142D02*
D03*
X194095Y216142D02*
D03*
X199606D02*
D03*
X205118Y216142D02*
D03*
X210630D02*
D03*
X216142D02*
D03*
X221654D02*
D03*
X231693Y188878D02*
D03*
X231715Y185076D02*
D03*
X236035Y182890D02*
D03*
X236035Y179740D02*
D03*
X236035Y176591D02*
D03*
X238791Y184465D02*
D03*
X238791Y181315D02*
D03*
X238791Y178165D02*
D03*
X238791Y175016D02*
D03*
X241339Y208661D02*
D03*
Y211811D02*
D03*
Y214961D02*
D03*
X241547Y182890D02*
D03*
X241547Y179740D02*
D03*
X241547Y176591D02*
D03*
X70866Y218504D02*
D03*
Y221654D02*
D03*
Y227953D02*
D03*
Y224803D02*
D03*
X73622Y220079D02*
D03*
Y226378D02*
D03*
Y223228D02*
D03*
X92520Y222441D02*
D03*
Y230315D02*
D03*
X94488Y218504D02*
D03*
Y226378D02*
D03*
X96457Y230315D02*
D03*
Y222441D02*
D03*
X98425Y218504D02*
D03*
Y226378D02*
D03*
X104331Y232283D02*
D03*
X183071Y220079D02*
D03*
X188583D02*
D03*
X191339Y218110D02*
D03*
X194095Y220079D02*
D03*
X196850Y218110D02*
D03*
X199606Y220079D02*
D03*
X202362Y218110D02*
D03*
X205118Y220079D02*
D03*
X207874Y218110D02*
D03*
X210630Y220079D02*
D03*
X213386Y218110D02*
D03*
X216142Y220079D02*
D03*
X218898Y218110D02*
D03*
X221654Y220079D02*
D03*
X224410Y218110D02*
D03*
X250000Y9843D02*
D03*
X244488D02*
D03*
X255512D02*
D03*
X252756Y11417D02*
D03*
X247244D02*
D03*
X244488Y12992D02*
D03*
X250000D02*
D03*
X255512D02*
D03*
X252756Y14567D02*
D03*
X247244D02*
D03*
X251060Y25571D02*
D03*
X244094Y29528D02*
D03*
X246850Y31102D02*
D03*
X244094Y32677D02*
D03*
X249606D02*
D03*
X255118D02*
D03*
X246850Y34252D02*
D03*
X244094Y35827D02*
D03*
X246850Y37402D02*
D03*
X252362Y38583D02*
D03*
X244094Y38976D02*
D03*
X257874Y51575D02*
D03*
X249606Y53150D02*
D03*
X244094D02*
D03*
X255118D02*
D03*
X252362Y54724D02*
D03*
X246850D02*
D03*
X257874D02*
D03*
X244094Y56299D02*
D03*
X249606D02*
D03*
X255118D02*
D03*
X252362Y57874D02*
D03*
X261024Y9843D02*
D03*
X266535D02*
D03*
X272047D02*
D03*
X258268Y11417D02*
D03*
X263779D02*
D03*
X269291D02*
D03*
X261024Y12992D02*
D03*
X266535D02*
D03*
X272047D02*
D03*
X258268Y14567D02*
D03*
X263779D02*
D03*
X269291D02*
D03*
X260630Y32677D02*
D03*
X266535Y33465D02*
D03*
X272047D02*
D03*
X269291Y35039D02*
D03*
X274803D02*
D03*
X272047Y36614D02*
D03*
X266535Y36614D02*
D03*
X269291Y38189D02*
D03*
X266535Y39764D02*
D03*
X272047D02*
D03*
X269291Y41339D02*
D03*
X272047Y42913D02*
D03*
X269291Y44488D02*
D03*
X263779Y45276D02*
D03*
X272047Y46063D02*
D03*
Y49213D02*
D03*
X274803Y50787D02*
D03*
X260630Y53150D02*
D03*
X265740Y55810D02*
D03*
X260630Y56299D02*
D03*
X257874Y57874D02*
D03*
X246850D02*
D03*
X249606Y59449D02*
D03*
X255118D02*
D03*
X258268Y170473D02*
D03*
X255512Y168898D02*
D03*
X258268Y161024D02*
D03*
Y164173D02*
D03*
X255512Y165748D02*
D03*
X258268Y167323D02*
D03*
X247059Y173441D02*
D03*
X241547Y173441D02*
D03*
X244303Y175016D02*
D03*
X252571Y176197D02*
D03*
X247059Y176591D02*
D03*
X244303Y178165D02*
D03*
X247059Y179740D02*
D03*
X249815Y181315D02*
D03*
X244303Y181315D02*
D03*
X252571Y182890D02*
D03*
X247059Y182890D02*
D03*
X257874Y183071D02*
D03*
X249815Y184465D02*
D03*
X244303Y184465D02*
D03*
X260630Y184646D02*
D03*
X255118Y184646D02*
D03*
X273622Y93898D02*
D03*
X271654Y97441D02*
D03*
X273622Y100984D02*
D03*
X273622Y135236D02*
D03*
X271654Y138779D02*
D03*
X273622Y142323D02*
D03*
X263779Y161024D02*
D03*
X269291D02*
D03*
X274803D02*
D03*
X261024Y162598D02*
D03*
X266535D02*
D03*
X272047D02*
D03*
X263779Y164173D02*
D03*
X269291D02*
D03*
X261024Y165748D02*
D03*
X266535D02*
D03*
X272047Y165748D02*
D03*
X263779Y167323D02*
D03*
X269291D02*
D03*
X274803D02*
D03*
X261024Y168898D02*
D03*
X266535D02*
D03*
X272047Y168898D02*
D03*
X269291Y170473D02*
D03*
X274803Y170473D02*
D03*
X266535Y172047D02*
D03*
X272047Y172047D02*
D03*
X269291Y173622D02*
D03*
X277559Y33465D02*
D03*
X277559Y36614D02*
D03*
X274803Y38189D02*
D03*
X280315D02*
D03*
X277559Y39764D02*
D03*
X280315Y41339D02*
D03*
X274803D02*
D03*
X277559Y42913D02*
D03*
X274803Y44488D02*
D03*
X280315D02*
D03*
X277559Y46063D02*
D03*
X274803Y47638D02*
D03*
X277559Y49213D02*
D03*
X327370Y77256D02*
D03*
X323043Y77435D02*
D03*
X318504Y87756D02*
D03*
X332095Y90248D02*
D03*
X279528Y90354D02*
D03*
X283465D02*
D03*
X275591D02*
D03*
X285433Y93898D02*
D03*
X275590Y104528D02*
D03*
X287402Y97441D02*
D03*
X285433Y100984D02*
D03*
X332095Y104421D02*
D03*
X283465Y104528D02*
D03*
X344693Y77256D02*
D03*
X349020Y77436D02*
D03*
X380315Y78740D02*
D03*
X334063Y79618D02*
D03*
X338000D02*
D03*
X332095Y83161D02*
D03*
X339968D02*
D03*
X336032D02*
D03*
X362598Y83377D02*
D03*
X353543Y86575D02*
D03*
X334063Y86705D02*
D03*
X338000D02*
D03*
X378740Y87402D02*
D03*
X339968Y90248D02*
D03*
X336032D02*
D03*
X334063Y93791D02*
D03*
X338000D02*
D03*
X332095Y97335D02*
D03*
X339968D02*
D03*
X336032D02*
D03*
X378740Y100000D02*
D03*
X334063Y100878D02*
D03*
X338000D02*
D03*
X353543Y103150D02*
D03*
X339968Y104421D02*
D03*
X336032D02*
D03*
X279528Y104528D02*
D03*
X334063Y107965D02*
D03*
X303683Y112402D02*
D03*
X283465Y131693D02*
D03*
X275591D02*
D03*
X279528D02*
D03*
X332283Y131890D02*
D03*
X285433Y135236D02*
D03*
X287402Y138779D02*
D03*
X332095Y138870D02*
D03*
X304724Y138976D02*
D03*
X285433Y142323D02*
D03*
X275590Y145866D02*
D03*
X283465D02*
D03*
X279528D02*
D03*
X332095Y145957D02*
D03*
X309842Y147638D02*
D03*
X318898Y149539D02*
D03*
X332095Y153043D02*
D03*
X334027Y156867D02*
D03*
X327370Y158949D02*
D03*
X322638Y159092D02*
D03*
X277559Y162598D02*
D03*
X274803Y164173D02*
D03*
X277559Y165748D02*
D03*
X277559Y168898D02*
D03*
X277559Y172047D02*
D03*
X274803Y173622D02*
D03*
X338000Y107965D02*
D03*
X362992Y112992D02*
D03*
X357874D02*
D03*
X334252Y128347D02*
D03*
X338189D02*
D03*
X379134Y129724D02*
D03*
X336221Y131890D02*
D03*
X340158D02*
D03*
X334063Y135327D02*
D03*
X338000D02*
D03*
X336032Y138870D02*
D03*
X339968D02*
D03*
X334063Y142413D02*
D03*
X338000D02*
D03*
X387520Y144646D02*
D03*
X336032Y145957D02*
D03*
X339968D02*
D03*
X353543Y149213D02*
D03*
X334063Y149500D02*
D03*
X338000D02*
D03*
X336032Y153043D02*
D03*
X339968D02*
D03*
X337964Y156867D02*
D03*
X375984Y157480D02*
D03*
X379528D02*
D03*
X344679Y158949D02*
D03*
X349008Y159092D02*
D03*
X252384Y190874D02*
D03*
X252362Y208661D02*
D03*
X246850Y211811D02*
D03*
X257874Y186221D02*
D03*
X263611Y198308D02*
D03*
X255118Y203937D02*
D03*
X265846Y208268D02*
D03*
X246850Y205512D02*
D03*
X249606Y207087D02*
D03*
X244094Y210236D02*
D03*
X255118Y207087D02*
D03*
X246850Y208661D02*
D03*
X244094Y207087D02*
D03*
X249606Y210236D02*
D03*
X252362Y205512D02*
D03*
X252362Y211811D02*
D03*
X244094Y213386D02*
D03*
Y216535D02*
D03*
X246850Y218110D02*
D03*
Y214961D02*
D03*
X247244Y228346D02*
D03*
Y231496D02*
D03*
X249606Y213386D02*
D03*
Y216535D02*
D03*
X250000Y226772D02*
D03*
Y229921D02*
D03*
Y233071D02*
D03*
X252756Y228346D02*
D03*
Y231496D02*
D03*
X255512Y226772D02*
D03*
Y229921D02*
D03*
X255512Y220472D02*
D03*
Y223622D02*
D03*
Y233071D02*
D03*
X258268Y218898D02*
D03*
Y222047D02*
D03*
Y225197D02*
D03*
Y228346D02*
D03*
Y231496D02*
D03*
X261024Y226772D02*
D03*
Y220472D02*
D03*
Y223622D02*
D03*
Y229921D02*
D03*
Y233071D02*
D03*
X263779Y228346D02*
D03*
Y231496D02*
D03*
X263779Y225197D02*
D03*
Y222047D02*
D03*
X267323Y185039D02*
D03*
X272835D02*
D03*
X278346D02*
D03*
X270079Y186614D02*
D03*
X275591D02*
D03*
X281102D02*
D03*
X267323Y188189D02*
D03*
X272835D02*
D03*
X283858D02*
D03*
X278346D02*
D03*
X270079Y189764D02*
D03*
X281102D02*
D03*
X275590D02*
D03*
X272835Y191339D02*
D03*
X267323D02*
D03*
X283858D02*
D03*
X266535Y226772D02*
D03*
Y223622D02*
D03*
Y220472D02*
D03*
X267323Y194488D02*
D03*
Y200787D02*
D03*
Y197638D02*
D03*
X269291Y225197D02*
D03*
Y222047D02*
D03*
X270079Y196063D02*
D03*
Y202362D02*
D03*
Y199213D02*
D03*
X270079Y192913D02*
D03*
X272835Y194488D02*
D03*
Y200787D02*
D03*
Y197638D02*
D03*
X275590Y192913D02*
D03*
X275591Y196063D02*
D03*
Y199213D02*
D03*
Y202362D02*
D03*
X278346Y191339D02*
D03*
Y194488D02*
D03*
Y197638D02*
D03*
Y200787D02*
D03*
X281102Y192913D02*
D03*
Y196063D02*
D03*
Y199213D02*
D03*
X283858Y194488D02*
D03*
X283858Y197638D02*
D03*
D80*
X374016Y19685D02*
D03*
X196850Y118110D02*
D03*
X374016Y216535D02*
D03*
M02*
