M48
; DRILL file KiCad 10.0.4-10.0.4~ubuntu22.04.1 date 2026-07-28T03:23:53
; FORMAT={-:-/ absolute / metric / decimal}
; #@! TF.CreationDate,2026-07-28T03:23:53+02:00
; #@! TF.GenerationSoftware,Kicad,Pcbnew,10.0.4-10.0.4~ubuntu22.04.1
; #@! TF.FileFunction,Plated,1,4,PTH
FMAT,2
METRIC
; #@! TA.AperFunction,Plated,PTH,ViaDrill
T1C0.300
; #@! TA.AperFunction,Plated,PTH,ComponentDrill
T2C0.400
; #@! TA.AperFunction,Plated,PTH,ComponentDrill
T3C0.600
; #@! TA.AperFunction,Plated,PTH,ComponentDrill
T4C1.000
; #@! TA.AperFunction,Plated,PTH,ComponentDrill
T5C1.900
; #@! TA.AperFunction,Plated,PTH,ComponentDrill
T6C2.200
; #@! TA.AperFunction,Plated,PTH,ComponentDrill
T7C2.700
%
G90
G05
T1
X60.025Y-158.575
X60.025Y-169.85
X60.075Y-67.2
X60.075Y-72.5
X60.075Y-77.8
X60.075Y-89.075
X60.075Y-141.525
X60.075Y-152.8
X60.125Y-164.325
X60.175Y-83.55
X60.175Y-147.275
X60.225Y-114.175
X60.225Y-119.475
X60.225Y-124.775
X60.225Y-136.05
X60.325Y-130.525
X61.875Y-99.85
X61.9Y-103.325
X62.0Y-106.375
X63.025Y-89.225
X63.35Y-75.525
X63.4Y-162.05
X63.4Y-167.35
X63.4Y-172.65
X63.45Y-70.0
X63.45Y-81.275
X63.45Y-86.575
X63.45Y-91.875
X63.45Y-145.0
X63.45Y-150.3
X63.45Y-155.6
X63.5Y-122.5
X63.6Y-116.975
X63.6Y-128.25
X63.6Y-133.55
X63.6Y-138.85
X64.025Y-88.4
X64.05Y-89.975
X64.55Y-85.125
X64.849Y-89.22
X64.85Y-87.65
X64.899Y-90.87
X64.925Y-73.4
X65.15Y-101.375
X65.325Y-102.9
X65.35Y-104.45
X65.6Y-88.4
X65.6Y-90.0
X65.7Y-76.662
X65.75Y-83.1
X65.925Y-78.3
X66.1Y-72.875
X66.4Y-99.075
X66.424Y-89.32
X66.425Y-54.275
X66.45Y-51.025
X66.475Y-57.4
X66.6Y-94.145
X66.64Y-93.345
X67.025Y-80.425
X67.39Y-93.735
X67.425Y-99.1
X67.916Y-78.507
X67.941Y-77.182
X68.425Y-99.05
X68.765Y-93.72
X69.208Y-78.507
X69.233Y-77.182
X69.34Y-93.32
X69.35Y-94.15
X69.725Y-89.2
X69.8Y-119.375
X70.15Y-168.2
X70.2Y-163.35
X70.2Y-178.375
X70.25Y-141.25
X70.25Y-152.525
X70.3Y-157.825
X70.3Y-172.85
X70.35Y-147.0
X70.4Y-113.9
X70.4Y-124.5
X70.4Y-135.775
X70.475Y-88.4
X70.475Y-90.0
X70.5Y-78.507
X70.5Y-130.25
X70.525Y-77.182
X70.975Y-96.675
X71.05Y-73.138
X71.05Y-94.15
X71.15Y-67.6
X71.225Y-65.8
X71.274Y-89.245
X71.301Y-90.805
X71.326Y-87.555
X71.525Y-74.1
X71.791Y-78.507
X71.816Y-77.182
X71.875Y-108.3
X72.0Y-88.45
X72.025Y-90.025
X72.129Y-81.711
X72.3Y-98.325
X72.325Y-86.875
X72.35Y-92.05
X72.375Y-84.425
X72.5Y-95.375
X72.576Y-89.18
X72.95Y-85.625
X73.075Y-67.6
X73.125Y-65.75
X73.15Y-70.35
X73.2Y-74.225
X73.5Y-69.225
X73.525Y-171.0
X73.575Y-160.85
X73.575Y-166.15
X73.575Y-175.875
X73.575Y-181.175
X73.6Y-86.825
X73.625Y-144.725
X73.625Y-150.025
X73.625Y-155.325
X73.65Y-84.375
X73.775Y-81.1
X73.775Y-116.7
X73.775Y-127.975
X73.775Y-133.275
X73.775Y-138.575
X73.85Y-96.6
X73.925Y-94.075
X73.95Y-54.05
X73.95Y-102.5
X73.975Y-50.8
X73.975Y-103.6
X74.0Y-57.175
X74.15Y-121.575
X74.65Y-68.075
X74.65Y-70.85
X74.7Y-79.1
X74.725Y-73.475
X74.725Y-76.975
X74.775Y-92.025
X74.875Y-83.825
X74.9Y-89.85
X75.075Y-86.425
X75.225Y-101.575
X75.3Y-109.55
X75.375Y-95.3
X75.55Y-92.9
X75.875Y-66.75
X75.875Y-69.4
X75.875Y-72.05
X76.0Y-85.125
X76.075Y-82.6
X76.25Y-88.725
X76.275Y-90.9
X76.3Y-92.15
X76.5Y-96.6
X76.575Y-94.075
X76.625Y-106.875
X76.85Y-103.25
X76.875Y-92.875
X76.875Y-105.375
X77.05Y-73.4
X77.175Y-68.15
X77.175Y-70.8
X77.35Y-79.1
X77.375Y-76.975
X77.475Y-175.05
X77.475Y-177.35
X77.5Y-174.05
X77.5Y-178.325
X77.525Y-55.1
X77.525Y-57.4
X77.525Y-83.825
X77.55Y-54.1
X77.55Y-58.375
X77.55Y-89.775
X77.575Y-86.5
X77.575Y-92.15
X77.575Y-104.325
X77.601Y-61.38
X77.626Y-60.38
X77.701Y-63.68
X77.725Y-106.775
X77.726Y-64.655
X78.025Y-95.3
X78.175Y-92.85
X78.2Y-72.075
X78.25Y-69.375
X78.3Y-103.25
X78.325Y-105.375
X78.4Y-66.725
X78.475Y-174.025
X78.5Y-178.35
X78.525Y-54.075
X78.55Y-58.4
X78.601Y-60.355
X78.65Y-85.125
X78.725Y-82.6
X78.726Y-61.415
X78.726Y-64.68
X78.75Y-90.85
X78.751Y-63.615
X78.775Y-92.175
X78.8Y-86.5
X78.8Y-88.7
X79.15Y-96.6
X79.225Y-94.075
X79.3Y-101.5
X79.325Y-99.35
X79.351Y-62.505
X79.45Y-92.875
X79.675Y-109.35
X79.775Y-68.45
X79.775Y-69.725
X79.825Y-72.25
X79.951Y-61.38
X79.976Y-63.58
X80.0Y-79.1
X80.025Y-75.05
X80.025Y-76.975
X80.026Y-60.355
X80.075Y-86.525
X80.175Y-83.825
X80.176Y-64.705
X80.375Y-66.675
X80.515Y-171.175
X80.545Y-172.235
X80.575Y-90.35
X80.675Y-95.3
X80.8Y-174.025
X80.825Y-178.35
X80.85Y-54.075
X80.875Y-58.4
X80.875Y-105.875
X81.026Y-60.38
X81.051Y-61.355
X81.151Y-64.68
X81.176Y-63.68
X81.3Y-171.725
X81.325Y-142.475
X81.325Y-153.75
X81.425Y-148.225
X81.475Y-115.125
X81.475Y-120.425
X81.475Y-125.725
X81.475Y-137.0
X81.575Y-131.475
X81.8Y-96.6
X81.8Y-174.05
X81.8Y-178.325
X81.825Y-89.075
X81.825Y-91.625
X81.825Y-175.025
X81.825Y-177.325
X81.85Y-54.1
X81.85Y-58.375
X81.875Y-55.075
X81.875Y-57.375
X81.875Y-94.075
X81.925Y-109.125
X81.95Y-104.45
X81.95Y-106.75
X81.995Y-171.165
X82.0Y-101.675
X82.025Y-99.275
X82.025Y-172.225
X82.2Y-74.6
X82.2Y-77.25
X82.2Y-79.9
X82.2Y-82.55
X82.2Y-85.2
X82.25Y-66.75
X82.3Y-70.6
X82.325Y-68.7
X83.2Y-69.675
X83.225Y-110.3
X83.25Y-107.975
X83.275Y-90.3
X83.275Y-92.85
X83.275Y-102.85
X83.275Y-105.6
X83.325Y-95.3
X83.325Y-100.525
X83.425Y-75.8
X83.425Y-78.45
X83.425Y-81.1
X83.425Y-83.75
X83.425Y-86.4
X84.05Y-68.7
X84.075Y-70.625
X84.1Y-66.75
X84.4Y-54.75
X84.425Y-53.75
X84.425Y-57.725
X84.45Y-58.7
X84.45Y-96.6
X84.451Y-59.88
X84.451Y-62.88
X84.451Y-65.23
X84.475Y-89.075
X84.475Y-91.625
X84.525Y-94.075
X84.55Y-109.125
X84.6Y-104.3
X84.7Y-99.275
X84.7Y-145.95
X84.7Y-151.25
X84.75Y-123.45
X84.85Y-117.925
X84.85Y-129.2
X84.85Y-134.5
X84.85Y-139.8
X85.1Y-77.45
X85.125Y-74.975
X85.4Y-53.725
X85.4Y-68.475
X85.425Y-69.725
X85.45Y-58.725
X85.45Y-71.0
X85.751Y-61.415
X85.776Y-63.615
X85.85Y-85.225
X85.85Y-86.375
X85.85Y-110.3
X85.875Y-107.975
X85.9Y-102.85
X85.925Y-90.3
X85.925Y-92.85
X85.95Y-105.475
X85.975Y-95.3
X86.083Y-80.415
X86.108Y-79.315
X86.183Y-78.265
X86.233Y-82.44
X86.233Y-83.54
X86.325Y-70.375
X86.35Y-69.075
X86.376Y-62.505
X86.5Y-85.825
X86.825Y-74.275
X86.976Y-61.38
X87.001Y-63.58
X87.1Y-96.6
X87.125Y-89.075
X87.125Y-91.625
X87.15Y-109.075
X87.175Y-94.075
X87.175Y-104.4
X87.25Y-99.225
X87.35Y-101.6
X87.375Y-106.75
X87.451Y-59.88
X87.451Y-65.28
X87.662Y-85.69
X88.35Y-53.7
X88.375Y-58.725
X88.45Y-110.25
X88.475Y-107.95
X88.5Y-102.8
X88.5Y-105.55
X88.55Y-100.475
X88.575Y-90.3
X88.575Y-92.85
X88.625Y-95.3
X89.1Y-61.325
X89.125Y-63.75
X89.125Y-66.05
X89.15Y-68.475
X89.15Y-70.775
X89.25Y-77.4
X89.35Y-53.725
X89.35Y-58.7
X89.375Y-54.7
X89.375Y-57.7
X89.75Y-96.6
X89.775Y-89.075
X89.775Y-91.625
X89.825Y-94.075
X90.179Y-82.401
X90.65Y-76.7
X90.775Y-105.575
X90.8Y-102.8
X90.85Y-100.15
X91.183Y-79.54
X91.2Y-80.437
X91.208Y-81.34
X91.35Y-62.45
X91.35Y-64.75
X91.375Y-67.175
X91.375Y-69.475
X91.45Y-59.95
X91.5Y-55.2
X91.525Y-57.625
X91.633Y-78.54
X91.75Y-163.35
X91.75Y-168.125
X91.775Y-178.35
X91.825Y-141.0
X91.825Y-152.275
X91.85Y-157.825
X91.875Y-172.825
X91.925Y-146.75
X91.975Y-113.65
X91.975Y-118.95
X91.975Y-135.525
X92.0Y-124.325
X92.075Y-130.0
X92.333Y-81.465
X92.383Y-79.39
X92.65Y-89.075
X92.675Y-91.25
X92.733Y-80.49
X92.85Y-103.075
X92.855Y-95.124
X92.925Y-99.45
X93.133Y-82.34
X93.183Y-79.39
X93.183Y-81.44
X93.275Y-85.475
X93.6Y-63.45
X93.6Y-65.75
X93.6Y-95.95
X93.625Y-68.175
X93.625Y-70.475
X93.65Y-94.425
X93.675Y-98.7
X93.675Y-100.275
X93.725Y-61.0
X93.75Y-53.775
X93.75Y-56.325
X93.75Y-58.625
X93.9Y-86.415
X93.95Y-90.125
X93.958Y-78.49
X94.008Y-79.44
X94.008Y-81.465
X94.033Y-80.44
X94.15Y-82.475
X94.275Y-73.8
X94.3Y-76.225
X94.48Y-93.674
X94.495Y-99.451
X94.5Y-96.725
X94.525Y-85.475
X94.545Y-95.176
X94.545Y-101.151
X94.595Y-97.876
X94.75Y-108.625
X94.8Y-79.9
X94.8Y-81.15
X95.125Y-160.85
X95.125Y-166.15
X95.125Y-170.925
X95.15Y-86.415
X95.15Y-91.2
X95.15Y-175.85
X95.15Y-181.15
X95.2Y-89.05
X95.2Y-95.9
X95.2Y-144.475
X95.2Y-149.775
X95.2Y-155.075
X95.225Y-94.4
X95.25Y-100.25
X95.25Y-121.975
X95.275Y-98.7
X95.35Y-116.45
X95.35Y-127.725
X95.35Y-133.025
X95.35Y-138.325
X95.5Y-75.0
X95.775Y-85.475
X95.875Y-62.1
X95.875Y-64.4
X95.9Y-59.775
X95.9Y-66.825
X95.9Y-69.125
X95.975Y-54.9
X96.0Y-57.325
X96.105Y-95.149
X96.145Y-99.401
X96.925Y-73.8
X96.95Y-76.225
X97.195Y-62.115
X97.195Y-68.565
X97.235Y-60.485
X97.235Y-66.935
X97.325Y-101.825
X97.35Y-80.2
X97.35Y-82.85
X97.35Y-85.5
X97.375Y-103.35
X97.95Y-90.35
X98.01Y-61.26
X98.01Y-67.71
X98.15Y-75.0
X98.2Y-53.525
X98.275Y-55.975
X98.275Y-58.275
X98.55Y-107.1
X98.575Y-81.4
X98.575Y-84.05
X98.575Y-86.7
X98.701Y-89.505
X98.725Y-60.415
X98.725Y-62.075
X98.725Y-66.865
X98.725Y-68.525
X98.726Y-91.08
X98.991Y-94.145
X99.025Y-94.95
X99.4Y-91.975
X99.425Y-88.725
X99.453Y-90.285
X99.5Y-107.075
X99.575Y-73.8
X99.576Y-94.575
X99.6Y-76.225
X99.775Y-80.175
X99.775Y-82.825
X99.775Y-85.475
X100.251Y-89.53
X100.251Y-91.13
X100.475Y-107.075
X100.8Y-75.0
X100.951Y-94.56
X101.001Y-90.33
X101.55Y-104.85
X101.725Y-94.925
X101.741Y-94.15
X102.9Y-141.1
X102.9Y-152.375
X102.95Y-158.35
X102.95Y-169.625
X103.0Y-146.85
X103.05Y-71.775
X103.05Y-83.05
X103.05Y-113.75
X103.05Y-119.05
X103.05Y-124.35
X103.05Y-135.625
X103.05Y-164.1
X103.15Y-77.525
X103.15Y-130.1
X103.345Y-62.115
X103.385Y-60.485
X103.47Y-68.615
X103.51Y-66.985
X103.975Y-94.575
X104.16Y-61.26
X104.285Y-67.76
X104.303Y-90.21
X104.6Y-100.55
X104.625Y-105.225
X104.65Y-102.775
X104.875Y-60.415
X104.875Y-62.075
X105.0Y-66.915
X105.0Y-68.575
X105.126Y-89.53
X105.126Y-91.13
X105.828Y-88.66
X105.876Y-91.88
X105.878Y-90.31
X106.275Y-144.575
X106.275Y-149.875
X106.275Y-155.175
X106.325Y-122.075
X106.325Y-161.825
X106.325Y-167.125
X106.325Y-172.425
X106.425Y-75.25
X106.425Y-80.55
X106.425Y-85.85
X106.425Y-116.55
X106.425Y-127.825
X106.425Y-133.125
X106.425Y-138.425
X106.475Y-94.575
X106.676Y-89.555
X106.701Y-91.13
X107.578Y-90.26
T2
X61.75Y-53.65
X61.75Y-178.65
X62.233Y-52.483
X62.233Y-54.817
X62.233Y-177.483
X62.233Y-179.817
X63.4Y-52.0
X63.4Y-55.3
X63.4Y-177.0
X63.4Y-180.3
X64.567Y-52.483
X64.567Y-54.817
X64.567Y-177.483
X64.567Y-179.817
X65.05Y-53.65
X65.05Y-178.65
X101.75Y-53.65
X101.75Y-178.65
X102.233Y-52.483
X102.233Y-54.817
X102.233Y-177.483
X102.233Y-179.817
X103.4Y-52.0
X103.4Y-55.3
X103.4Y-177.0
X103.4Y-180.3
X104.567Y-52.483
X104.567Y-54.817
X104.567Y-177.483
X104.567Y-179.817
X105.05Y-53.65
X105.05Y-178.65
T4
X68.2Y-156.95
X68.2Y-167.95
X68.249Y-112.43
X68.249Y-123.43
X68.249Y-142.07
X68.249Y-153.07
X68.25Y-127.275
X68.25Y-138.275
X97.9Y-112.43
X97.9Y-123.43
X97.9Y-127.125
X97.9Y-138.125
X97.9Y-141.82
X97.9Y-152.82
X97.975Y-156.5
X97.975Y-167.5
T5
X78.2Y-159.95
X78.2Y-164.95
X78.249Y-115.43
X78.249Y-120.43
X78.249Y-145.07
X78.249Y-150.07
X78.25Y-130.275
X78.25Y-135.275
X87.9Y-115.43
X87.9Y-120.43
X87.9Y-130.125
X87.9Y-135.125
X87.9Y-144.82
X87.9Y-149.82
X87.975Y-159.5
X87.975Y-164.5
T6
X63.4Y-53.65
X63.4Y-178.65
X103.4Y-53.65
X103.4Y-178.65
T7
X79.625Y-176.075
X79.7Y-56.25
X86.825Y-176.075
X86.9Y-56.25
T3
G00X76.475Y-182.625
M15
G01X76.475Y-181.525
M16
G05
G00X76.55Y-49.7
M15
G01X76.55Y-50.8
M16
G05
G00X89.975Y-182.625
M15
G01X89.975Y-181.525
M16
G05
G00X90.05Y-49.7
M15
G01X90.05Y-50.8
M16
G05
M30
