M48
; DRILL file {KiCad 9.0.7-9.0.7~ubuntu22.04.1} date 2026-02-16T18:37:52+0100
; FORMAT={-:-/ absolute / metric / decimal}
; #@! TF.CreationDate,2026-02-16T18:37:52+01:00
; #@! TF.GenerationSoftware,Kicad,Pcbnew,9.0.7-9.0.7~ubuntu22.04.1
; #@! TF.FileFunction,Plated,1,6,PTH
FMAT,2
METRIC
; #@! TA.AperFunction,Plated,PTH,ViaDrill
T1C0.250
; #@! TA.AperFunction,Plated,PTH,ViaDrill
T2C0.300
; #@! TA.AperFunction,Plated,PTH,ComponentDrill
T3C0.400
; #@! TA.AperFunction,Plated,PTH,ComponentDrill
T4C0.600
; #@! TA.AperFunction,Plated,PTH,ComponentDrill
T5C0.710
; #@! TA.AperFunction,Plated,PTH,ComponentDrill
T6C1.000
; #@! TA.AperFunction,Plated,PTH,ComponentDrill
T7C1.700
; #@! TA.AperFunction,Plated,PTH,ComponentDrill
T8C1.800
; #@! TA.AperFunction,Plated,PTH,ComponentDrill
T9C2.200
; #@! TA.AperFunction,Plated,PTH,ComponentDrill
T10C2.700
%
G90
G05
T1
X148.75Y-82.9
X152.95Y-72.05
X153.25Y-79.55
X155.6Y-78.05
T2
X70.0Y-50.0
X70.0Y-52.5
X70.0Y-55.0
X70.0Y-57.5
X70.0Y-60.0
X70.0Y-62.5
X70.0Y-65.0
X70.0Y-67.5
X70.0Y-70.0
X70.0Y-72.5
X70.0Y-75.0
X70.0Y-77.5
X70.0Y-80.0
X70.0Y-82.5
X70.0Y-85.0
X70.0Y-87.5
X70.0Y-90.0
X70.0Y-92.5
X70.0Y-95.0
X70.0Y-97.5
X70.0Y-100.0
X70.0Y-102.5
X70.0Y-105.0
X70.0Y-107.5
X70.0Y-110.0
X72.5Y-50.0
X72.5Y-52.5
X72.5Y-55.0
X72.5Y-57.5
X72.5Y-60.0
X72.5Y-70.0
X72.5Y-72.5
X72.5Y-75.0
X72.5Y-77.5
X72.5Y-80.0
X72.5Y-82.5
X72.5Y-85.0
X72.5Y-87.5
X72.5Y-90.0
X72.5Y-92.5
X72.5Y-95.0
X72.5Y-97.5
X72.5Y-100.0
X72.5Y-102.5
X72.5Y-105.0
X72.5Y-107.5
X72.5Y-110.0
X74.0Y-54.5
X74.0Y-56.5
X74.0Y-58.5
X74.0Y-59.5
X74.0Y-60.5
X74.0Y-61.5
X74.0Y-62.5
X74.0Y-63.5
X74.0Y-64.5
X74.0Y-65.5
X74.0Y-70.7
X74.0Y-78.5
X74.0Y-82.45
X74.0Y-84.45
X74.0Y-86.45
X75.0Y-42.45
X75.0Y-44.95
X75.0Y-47.45
X75.0Y-49.95
X75.0Y-55.0
X75.0Y-57.5
X75.0Y-59.5
X75.0Y-60.5
X75.0Y-61.5
X75.0Y-62.5
X75.0Y-63.5
X75.0Y-64.5
X75.0Y-65.5
X75.0Y-83.45
X75.0Y-85.45
X75.0Y-87.45
X75.0Y-90.0
X75.0Y-92.5
X75.0Y-95.0
X75.0Y-100.0
X75.0Y-102.5
X75.0Y-105.0
X75.19Y-96.95
X75.2Y-70.7
X75.3Y-68.1
X76.0Y-54.5
X76.0Y-56.5
X76.0Y-58.5
X76.0Y-59.5
X76.0Y-60.5
X76.0Y-61.5
X76.0Y-62.5
X76.0Y-63.5
X76.0Y-64.5
X76.0Y-65.5
X76.0Y-78.5
X76.0Y-82.45
X76.0Y-84.45
X76.0Y-86.45
X76.0Y-109.0
X76.0Y-111.0
X76.0Y-113.0
X76.0Y-115.0
X76.0Y-117.0
X77.0Y-59.5
X77.0Y-60.5
X77.0Y-61.5
X77.0Y-62.5
X77.0Y-63.5
X77.0Y-64.5
X77.0Y-65.5
X77.0Y-83.45
X77.0Y-85.45
X77.1Y-72.8
X77.5Y-42.45
X77.5Y-44.95
X77.5Y-47.45
X77.5Y-49.95
X77.55Y-92.5
X77.55Y-95.0
X77.6Y-81.2
X78.0Y-54.5
X78.0Y-59.5
X78.0Y-60.5
X78.0Y-61.5
X78.0Y-62.5
X78.0Y-63.5
X78.0Y-64.5
X78.0Y-65.5
X78.0Y-70.7
X78.0Y-78.5
X78.0Y-80.5
X78.0Y-84.45
X78.0Y-109.0
X78.0Y-111.0
X78.0Y-113.0
X78.0Y-115.0
X78.0Y-117.0
X78.4Y-81.2
X79.0Y-59.5
X79.0Y-60.5
X79.0Y-79.5
X79.0Y-85.45
X79.1Y-70.7
X79.3Y-92.467
X79.75Y-61.75
X79.75Y-62.75
X79.75Y-63.75
X79.75Y-64.75
X79.8Y-75.6
X80.0Y-42.45
X80.0Y-44.95
X80.0Y-47.45
X80.0Y-49.95
X80.0Y-52.2
X80.0Y-54.5
X80.0Y-59.5
X80.0Y-84.45
X80.0Y-94.0
X80.0Y-105.0
X80.0Y-107.0
X80.0Y-109.0
X80.0Y-111.0
X80.0Y-113.0
X80.0Y-115.0
X80.0Y-117.0
X80.2Y-71.2
X80.25Y-87.21
X80.6Y-69.8
X80.6Y-74.9
X80.69Y-88.91
X80.75Y-61.75
X80.75Y-62.75
X80.75Y-63.75
X80.75Y-64.75
X80.95Y-85.4
X81.0Y-55.5
X81.0Y-57.5
X81.2Y-60.8
X81.2Y-87.25
X81.55Y-82.9
X81.7Y-67.2
X81.75Y-61.75
X81.75Y-62.75
X81.75Y-63.75
X81.75Y-64.75
X81.8Y-69.286
X81.8Y-71.436
X81.8Y-72.486
X81.8Y-73.536
X81.835Y-70.4
X81.95Y-84.4
X82.0Y-54.5
X82.0Y-86.25
X82.0Y-93.0
X82.0Y-95.0
X82.0Y-105.0
X82.0Y-107.0
X82.0Y-109.0
X82.0Y-111.0
X82.0Y-113.0
X82.0Y-115.0
X82.0Y-117.0
X82.4Y-67.2
X82.5Y-42.45
X82.5Y-44.95
X82.5Y-47.45
X82.5Y-49.95
X82.5Y-52.2
X82.75Y-62.75
X82.75Y-63.75
X82.75Y-64.75
X82.95Y-82.95
X83.0Y-59.9
X83.0Y-85.25
X83.0Y-87.2
X83.621Y-68.988
X83.99Y-67.4
X84.0Y-54.5
X84.0Y-59.9
X84.0Y-63.3
X84.0Y-64.3
X84.0Y-65.3
X84.0Y-66.3
X84.0Y-76.5
X84.0Y-78.5
X84.0Y-84.25
X84.0Y-86.25
X84.0Y-93.0
X84.0Y-95.0
X84.0Y-105.0
X84.0Y-107.0
X84.0Y-109.0
X84.0Y-111.0
X84.0Y-113.0
X84.0Y-115.0
X84.0Y-117.0
X84.1Y-79.8
X84.9Y-79.8
X85.0Y-42.5
X85.0Y-45.0
X85.0Y-47.5
X85.0Y-50.0
X85.0Y-52.2
X85.0Y-55.5
X85.0Y-59.9
X85.0Y-63.3
X85.0Y-64.3
X85.0Y-65.3
X85.0Y-66.3
X85.0Y-76.5
X85.0Y-78.5
X85.0Y-85.25
X85.0Y-87.2
X85.0Y-100.0
X85.765Y-67.486
X85.9Y-71.273
X86.0Y-54.5
X86.0Y-56.5
X86.0Y-61.3
X86.0Y-62.3
X86.0Y-63.3
X86.0Y-64.3
X86.0Y-65.3
X86.0Y-66.3
X86.0Y-75.7
X86.0Y-76.5
X86.0Y-78.5
X86.0Y-84.25
X86.0Y-86.25
X86.0Y-89.0
X86.0Y-91.0
X86.0Y-93.0
X86.0Y-95.0
X86.0Y-105.0
X86.0Y-107.0
X86.0Y-109.0
X86.0Y-111.0
X86.0Y-113.0
X86.0Y-115.0
X86.0Y-117.0
X86.3Y-80.7
X86.4Y-79.8
X87.0Y-60.3
X87.0Y-61.3
X87.0Y-62.3
X87.0Y-63.3
X87.0Y-64.3
X87.0Y-65.3
X87.0Y-66.3
X87.0Y-70.75
X87.0Y-71.5
X87.0Y-76.5
X87.0Y-78.5
X87.0Y-85.25
X87.0Y-87.2
X87.1Y-80.7
X87.2Y-79.8
X87.5Y-42.5
X87.5Y-45.0
X87.5Y-47.5
X87.5Y-50.0
X87.5Y-55.0
X87.5Y-57.5
X87.75Y-70.75
X87.75Y-71.5
X87.75Y-73.0
X88.0Y-60.3
X88.0Y-61.3
X88.0Y-62.3
X88.0Y-63.3
X88.0Y-64.3
X88.0Y-65.3
X88.0Y-66.3
X88.0Y-67.3
X88.0Y-68.3
X88.0Y-74.6
X88.0Y-76.5
X88.0Y-78.5
X88.0Y-79.8
X88.0Y-80.7
X88.0Y-84.25
X88.0Y-86.25
X88.0Y-89.0
X88.0Y-91.0
X88.0Y-93.0
X88.0Y-95.0
X88.0Y-105.0
X88.0Y-107.0
X88.0Y-109.0
X88.0Y-111.0
X88.0Y-113.0
X88.0Y-115.0
X88.0Y-117.0
X88.628Y-70.523
X88.628Y-71.227
X89.0Y-60.3
X89.0Y-61.3
X89.0Y-62.3
X89.0Y-63.3
X89.0Y-64.3
X89.0Y-65.3
X89.0Y-66.3
X89.0Y-67.3
X89.0Y-68.3
X89.0Y-74.6
X89.0Y-76.5
X89.0Y-78.5
X89.0Y-85.25
X89.0Y-87.2
X89.5Y-69.75
X89.5Y-70.5
X89.5Y-71.25
X90.0Y-42.5
X90.0Y-45.0
X90.0Y-47.5
X90.0Y-50.0
X90.0Y-52.2
X90.0Y-55.0
X90.0Y-57.5
X90.0Y-74.6
X90.0Y-76.5
X90.0Y-78.5
X90.0Y-89.0
X90.0Y-91.0
X90.0Y-93.0
X90.0Y-95.0
X90.0Y-100.0
X90.0Y-102.5
X90.0Y-105.0
X90.0Y-109.0
X90.0Y-111.0
X90.0Y-113.0
X90.0Y-115.0
X90.0Y-117.0
X90.425Y-69.36
X90.5Y-83.0
X90.8Y-70.6
X91.9Y-72.95
X92.0Y-54.5
X92.0Y-56.5
X92.0Y-58.5
X92.0Y-59.5
X92.0Y-60.5
X92.0Y-61.5
X92.0Y-62.5
X92.0Y-63.5
X92.0Y-64.5
X92.0Y-65.5
X92.0Y-70.6
X92.0Y-82.45
X92.0Y-84.55
X92.0Y-86.45
X92.0Y-89.0
X92.0Y-91.0
X92.0Y-93.0
X92.0Y-95.0
X92.0Y-109.0
X92.0Y-111.0
X92.0Y-113.0
X92.0Y-115.0
X92.0Y-117.0
X92.5Y-42.5
X92.5Y-45.0
X92.5Y-47.5
X92.5Y-50.0
X92.9Y-92.05
X93.0Y-55.5
X93.0Y-57.5
X93.0Y-59.5
X93.0Y-60.5
X93.0Y-61.5
X93.0Y-62.5
X93.0Y-63.5
X93.0Y-64.5
X93.0Y-65.5
X93.0Y-78.5
X93.0Y-83.65
X93.0Y-85.5
X93.0Y-87.2
X93.39Y-67.6
X93.6Y-72.95
X94.0Y-54.5
X94.0Y-56.5
X94.0Y-58.5
X94.0Y-59.5
X94.0Y-60.5
X94.0Y-61.5
X94.0Y-62.5
X94.0Y-63.5
X94.0Y-64.5
X94.0Y-65.5
X94.0Y-82.45
X94.0Y-84.55
X94.0Y-86.45
X94.0Y-89.8
X94.0Y-91.0
X94.0Y-93.0
X94.0Y-95.0
X94.0Y-97.0
X94.0Y-99.0
X94.0Y-99.8
X94.0Y-101.0
X94.0Y-103.4
X94.3Y-116.35
X94.35Y-114.8
X94.5Y-70.6
X94.95Y-83.65
X95.0Y-59.5
X95.0Y-60.5
X95.0Y-61.5
X95.0Y-62.5
X95.0Y-63.5
X95.0Y-64.5
X95.0Y-65.5
X95.0Y-78.5
X95.0Y-85.5
X95.0Y-87.2
X95.102Y-42.446
X95.102Y-44.946
X95.102Y-47.446
X95.102Y-49.946
X95.2Y-72.8
X95.2Y-101.0
X95.8Y-114.75
X95.8Y-116.35
X95.9Y-70.6
X96.0Y-54.5
X96.0Y-59.5
X96.0Y-60.5
X96.0Y-61.5
X96.0Y-62.5
X96.0Y-63.5
X96.0Y-64.5
X96.0Y-65.5
X96.0Y-79.5
X96.0Y-81.2
X96.0Y-84.55
X96.0Y-93.0
X96.0Y-95.0
X96.0Y-97.0
X96.0Y-99.0
X96.0Y-101.0
X96.0Y-109.2
X96.0Y-111.0
X96.0Y-113.0
X96.8Y-71.4
X96.85Y-108.7
X97.0Y-59.5
X97.0Y-60.5
X97.0Y-78.5
X97.0Y-85.5
X97.0Y-111.0
X97.0Y-113.0
X97.3Y-70.6
X97.5Y-62.0
X97.5Y-63.0
X97.5Y-64.0
X97.5Y-65.0
X97.602Y-42.446
X97.602Y-44.946
X97.602Y-47.446
X97.602Y-49.946
X97.8Y-100.0
X98.0Y-54.5
X98.0Y-59.5
X98.0Y-84.55
X98.0Y-93.0
X98.0Y-95.0
X98.0Y-97.0
X98.0Y-99.0
X98.0Y-101.0
X98.0Y-103.0
X98.0Y-108.0
X98.0Y-109.0
X98.0Y-110.0
X98.0Y-111.0
X98.0Y-112.0
X98.0Y-113.0
X98.0Y-114.0
X98.0Y-115.0
X98.0Y-116.0
X98.0Y-117.0
X98.3Y-67.95
X98.35Y-69.7
X98.4Y-86.8
X98.5Y-62.0
X98.5Y-63.0
X98.5Y-64.0
X98.5Y-65.0
X98.6Y-76.5
X98.6Y-89.63
X98.8Y-60.8
X98.8Y-70.95
X98.8Y-71.95
X98.8Y-73.95
X98.81Y-88.59
X98.838Y-72.9
X99.0Y-55.5
X99.0Y-57.5
X99.0Y-85.55
X99.0Y-87.45
X99.0Y-109.0
X99.0Y-110.0
X99.0Y-111.0
X99.0Y-112.0
X99.0Y-113.0
X99.0Y-114.0
X99.0Y-115.0
X99.0Y-116.0
X99.0Y-117.0
X99.1Y-67.95
X99.5Y-62.0
X99.5Y-63.0
X99.5Y-64.0
X99.5Y-65.0
X99.5Y-67.25
X99.95Y-67.95
X100.0Y-52.2
X100.0Y-54.5
X100.0Y-58.5
X100.0Y-84.55
X100.0Y-86.4
X100.0Y-93.0
X100.0Y-95.0
X100.0Y-97.0
X100.0Y-99.0
X100.0Y-101.0
X100.0Y-103.0
X100.0Y-105.0
X100.0Y-110.0
X100.0Y-111.0
X100.0Y-112.0
X100.0Y-113.0
X100.0Y-114.0
X100.0Y-115.0
X100.0Y-116.0
X100.0Y-117.0
X100.102Y-42.446
X100.102Y-44.946
X100.102Y-47.446
X100.102Y-49.946
X100.2Y-59.7
X100.3Y-67.25
X100.5Y-63.0
X100.5Y-64.0
X100.5Y-65.0
X101.0Y-85.45
X101.0Y-87.6
X101.0Y-110.0
X101.0Y-111.0
X101.0Y-112.0
X101.0Y-113.0
X101.0Y-114.0
X101.0Y-115.0
X101.0Y-116.0
X101.0Y-117.0
X101.1Y-103.5
X101.2Y-59.7
X101.2Y-68.1
X101.2Y-69.799
X101.5Y-76.85
X101.5Y-79.0
X102.0Y-54.5
X102.0Y-84.45
X102.0Y-86.4
X102.0Y-93.0
X102.0Y-95.0
X102.0Y-97.0
X102.0Y-105.0
X102.0Y-109.0
X102.0Y-110.0
X102.0Y-111.0
X102.0Y-112.0
X102.0Y-113.0
X102.0Y-114.0
X102.0Y-115.0
X102.0Y-116.0
X102.0Y-117.0
X102.1Y-73.7
X102.2Y-59.7
X102.5Y-52.2
X102.5Y-62.5
X102.5Y-63.5
X102.5Y-64.5
X102.5Y-65.5
X102.5Y-66.5
X102.5Y-76.85
X102.5Y-79.0
X102.5Y-80.5
X102.5Y-82.6
X102.602Y-42.446
X102.602Y-44.946
X102.602Y-47.446
X102.602Y-49.946
X103.0Y-68.2
X103.0Y-71.0
X103.0Y-71.8
X103.0Y-85.45
X103.0Y-107.0
X103.0Y-108.0
X103.0Y-109.0
X103.0Y-110.0
X103.0Y-111.0
X103.0Y-112.0
X103.0Y-113.0
X103.0Y-114.0
X103.0Y-115.0
X103.0Y-116.0
X103.0Y-117.0
X103.5Y-61.5
X103.5Y-62.5
X103.5Y-63.5
X103.5Y-64.5
X103.5Y-65.5
X103.5Y-66.5
X103.5Y-76.85
X103.5Y-79.0
X103.6Y-80.5
X103.6Y-82.6
X104.0Y-54.5
X104.0Y-56.5
X104.0Y-84.45
X104.0Y-89.0
X104.0Y-91.0
X104.0Y-93.0
X104.0Y-95.0
X104.0Y-97.0
X104.0Y-105.0
X104.0Y-107.0
X104.0Y-108.0
X104.0Y-109.0
X104.0Y-110.0
X104.0Y-111.0
X104.0Y-112.0
X104.0Y-113.0
X104.0Y-114.0
X104.0Y-115.0
X104.0Y-116.0
X104.0Y-117.0
X104.25Y-71.0
X104.25Y-71.75
X104.5Y-60.5
X104.5Y-61.5
X104.5Y-62.5
X104.5Y-63.5
X104.5Y-64.5
X104.5Y-65.5
X104.5Y-66.5
X104.5Y-67.45
X104.5Y-76.85
X104.5Y-79.0
X104.6Y-73.7
X104.6Y-75.0
X105.0Y-42.5
X105.0Y-45.0
X105.0Y-47.5
X105.0Y-50.0
X105.0Y-55.0
X105.0Y-57.5
X105.0Y-71.0
X105.0Y-71.75
X105.0Y-85.45
X105.0Y-107.0
X105.0Y-108.0
X105.0Y-109.0
X105.0Y-110.0
X105.0Y-111.0
X105.0Y-112.0
X105.0Y-113.0
X105.0Y-114.0
X105.0Y-115.0
X105.0Y-116.0
X105.0Y-117.0
X105.5Y-60.5
X105.5Y-61.5
X105.5Y-62.5
X105.5Y-63.5
X105.5Y-64.5
X105.5Y-65.5
X105.5Y-66.5
X105.5Y-67.45
X105.5Y-76.85
X105.5Y-79.0
X105.5Y-80.5
X105.5Y-82.6
X106.0Y-84.45
X106.0Y-89.0
X106.0Y-91.0
X106.0Y-93.0
X106.0Y-95.0
X106.0Y-97.0
X106.0Y-105.0
X106.0Y-107.0
X106.0Y-108.0
X106.0Y-109.0
X106.0Y-110.0
X106.0Y-111.0
X106.0Y-112.0
X106.0Y-113.0
X106.0Y-114.0
X106.0Y-115.0
X106.0Y-116.0
X106.0Y-117.0
X106.5Y-60.5
X106.5Y-61.5
X106.5Y-62.5
X106.5Y-63.5
X106.5Y-64.5
X106.5Y-65.5
X106.5Y-66.5
X106.5Y-67.45
X106.5Y-68.25
X106.5Y-71.5
X106.5Y-72.5
X106.5Y-75.0
X106.5Y-76.85
X106.5Y-79.0
X106.55Y-70.65
X106.95Y-87.6
X107.0Y-85.45
X107.0Y-107.0
X107.0Y-108.0
X107.0Y-109.0
X107.0Y-110.0
X107.0Y-111.0
X107.0Y-112.0
X107.0Y-113.0
X107.0Y-114.0
X107.0Y-115.0
X107.0Y-116.0
X107.0Y-117.0
X107.5Y-42.5
X107.5Y-45.0
X107.5Y-47.5
X107.5Y-50.0
X107.5Y-60.5
X107.5Y-61.5
X107.5Y-62.5
X107.5Y-63.5
X107.5Y-64.5
X107.5Y-67.45
X107.5Y-68.25
X107.5Y-72.5
X107.5Y-75.0
X107.5Y-76.85
X107.5Y-79.0
X108.0Y-89.0
X108.0Y-91.0
X108.0Y-93.0
X108.0Y-95.0
X108.0Y-97.0
X108.0Y-105.0
X108.0Y-107.0
X108.0Y-108.0
X108.0Y-109.0
X108.0Y-110.0
X108.0Y-111.0
X108.0Y-112.0
X108.0Y-113.0
X108.0Y-114.0
X108.0Y-115.0
X108.0Y-116.0
X108.0Y-117.0
X108.4Y-70.8
X108.5Y-75.0
X108.5Y-76.85
X108.5Y-79.0
X108.85Y-67.85
X109.0Y-107.0
X109.0Y-108.0
X109.0Y-109.0
X109.0Y-110.0
X109.0Y-111.0
X109.0Y-112.0
X109.0Y-113.0
X109.0Y-114.0
X109.0Y-115.0
X109.0Y-116.0
X109.0Y-117.0
X109.4Y-70.8
X109.5Y-54.0
X109.5Y-56.0
X109.5Y-58.0
X109.5Y-60.0
X109.5Y-61.0
X109.5Y-62.0
X109.5Y-63.0
X109.5Y-64.0
X109.5Y-65.0
X109.5Y-66.0
X110.0Y-42.5
X110.0Y-45.0
X110.0Y-47.5
X110.0Y-50.0
X110.0Y-89.0
X110.0Y-91.0
X110.0Y-93.0
X110.0Y-95.0
X110.0Y-97.0
X110.0Y-105.0
X110.0Y-107.0
X110.0Y-108.0
X110.0Y-109.0
X110.0Y-110.0
X110.0Y-111.0
X110.0Y-112.0
X110.0Y-113.0
X110.0Y-114.0
X110.0Y-115.0
X110.0Y-116.0
X110.0Y-117.0
X110.5Y-55.0
X110.5Y-57.0
X110.5Y-59.0
X110.5Y-60.0
X110.5Y-61.0
X110.5Y-62.0
X110.5Y-63.0
X110.5Y-64.0
X110.5Y-65.0
X110.5Y-66.0
X110.5Y-83.3
X110.5Y-85.5
X110.5Y-87.65
X111.0Y-107.0
X111.0Y-108.0
X111.0Y-109.0
X111.0Y-110.0
X111.0Y-111.0
X111.0Y-112.0
X111.0Y-113.0
X111.0Y-114.0
X111.0Y-115.0
X111.0Y-116.0
X111.0Y-117.0
X111.15Y-91.65
X111.5Y-54.0
X111.5Y-56.0
X111.5Y-58.0
X111.5Y-60.0
X111.5Y-61.0
X111.5Y-62.0
X111.5Y-63.0
X111.5Y-64.0
X111.5Y-65.0
X111.5Y-66.0
X111.5Y-82.35
X111.5Y-84.5
X111.5Y-86.45
X111.71Y-90.16
X112.0Y-72.8
X112.0Y-91.0
X112.0Y-93.0
X112.0Y-95.0
X112.0Y-97.0
X112.0Y-105.0
X112.0Y-108.0
X112.0Y-109.0
X112.0Y-110.0
X112.0Y-111.0
X112.0Y-112.0
X112.0Y-113.0
X112.0Y-114.0
X112.0Y-115.0
X112.0Y-116.0
X112.0Y-117.0
X112.15Y-87.65
X112.4Y-70.8
X112.5Y-42.5
X112.5Y-45.0
X112.5Y-47.5
X112.5Y-50.0
X112.5Y-55.0
X112.5Y-59.0
X112.5Y-60.0
X112.5Y-61.0
X112.5Y-62.0
X112.5Y-63.0
X112.5Y-64.0
X112.5Y-65.0
X112.5Y-66.0
X112.5Y-83.3
X112.5Y-85.5
X113.0Y-109.0
X113.0Y-110.0
X113.0Y-111.0
X113.0Y-112.0
X113.0Y-113.0
X113.0Y-114.0
X113.0Y-115.0
X113.0Y-116.0
X113.0Y-117.0
X113.5Y-54.0
X113.5Y-60.0
X113.5Y-61.0
X113.5Y-62.0
X113.5Y-63.0
X113.5Y-64.0
X113.5Y-65.0
X113.5Y-80.0
X113.5Y-82.35
X113.5Y-84.5
X113.5Y-86.45
X113.522Y-71.85
X114.0Y-93.0
X114.0Y-95.0
X114.0Y-97.0
X114.0Y-99.0
X114.0Y-101.0
X114.0Y-103.0
X114.0Y-105.0
X114.0Y-110.0
X114.0Y-111.0
X114.0Y-112.0
X114.0Y-113.0
X114.0Y-114.0
X114.0Y-115.0
X114.0Y-116.0
X114.0Y-117.0
X114.5Y-59.0
X114.5Y-60.0
X114.5Y-61.0
X114.5Y-70.8
X114.5Y-79.0
X114.5Y-85.5
X115.0Y-42.45
X115.0Y-44.95
X115.0Y-47.45
X115.0Y-49.95
X115.0Y-52.2
X115.0Y-109.0
X115.0Y-110.0
X115.0Y-111.0
X115.0Y-112.0
X115.0Y-113.0
X115.0Y-114.0
X115.0Y-115.0
X115.0Y-116.0
X115.0Y-117.0
X115.25Y-62.0
X115.25Y-63.0
X115.25Y-64.0
X115.25Y-65.0
X115.5Y-54.0
X115.5Y-60.0
X115.5Y-61.0
X115.5Y-84.5
X116.0Y-76.0
X116.0Y-93.0
X116.0Y-95.0
X116.0Y-97.0
X116.0Y-99.0
X116.0Y-101.0
X116.0Y-103.0
X116.0Y-105.0
X116.0Y-108.0
X116.0Y-109.0
X116.0Y-110.0
X116.0Y-111.0
X116.0Y-112.0
X116.0Y-113.0
X116.0Y-114.0
X116.0Y-115.0
X116.0Y-116.0
X116.0Y-117.0
X116.05Y-79.6
X116.25Y-62.0
X116.25Y-63.0
X116.25Y-64.0
X116.25Y-65.0
X116.3Y-70.45
X116.3Y-71.4
X116.3Y-72.4
X116.3Y-73.4
X116.5Y-55.0
X116.5Y-59.0
X116.5Y-60.0
X116.5Y-85.5
X116.8Y-87.2
X116.81Y-88.46
X117.0Y-68.1
X117.0Y-108.0
X117.0Y-109.0
X117.0Y-110.0
X117.0Y-111.0
X117.0Y-112.0
X117.0Y-113.0
X117.0Y-114.0
X117.0Y-115.0
X117.0Y-116.0
X117.0Y-117.0
X117.2Y-60.8
X117.21Y-89.35
X117.25Y-62.0
X117.25Y-63.0
X117.25Y-64.0
X117.25Y-65.0
X117.5Y-42.45
X117.5Y-44.95
X117.5Y-47.45
X117.5Y-49.95
X117.5Y-52.2
X117.5Y-54.0
X117.5Y-56.0
X117.5Y-58.0
X117.5Y-84.5
X117.5Y-86.5
X117.65Y-76.95
X117.85Y-74.5
X117.9Y-67.4
X117.9Y-68.1
X117.95Y-82.7
X118.0Y-93.0
X118.0Y-95.0
X118.0Y-97.0
X118.0Y-101.0
X118.0Y-103.0
X118.0Y-105.0
X118.0Y-108.0
X118.0Y-110.0
X118.0Y-111.0
X118.0Y-112.0
X118.0Y-113.0
X118.0Y-114.0
X118.0Y-115.0
X118.0Y-116.0
X118.0Y-117.0
X118.1Y-59.8
X118.25Y-63.0
X118.25Y-64.0
X118.25Y-65.0
X118.5Y-55.0
X118.5Y-59.0
X118.5Y-85.5
X118.5Y-87.5
X118.95Y-68.074
X118.95Y-76.8
X119.0Y-79.0
X119.0Y-111.0
X119.0Y-112.0
X119.0Y-113.0
X119.0Y-114.0
X119.0Y-115.0
X119.0Y-116.0
X119.0Y-117.0
X119.1Y-59.8
X119.4Y-69.4
X119.5Y-54.0
X119.5Y-84.5
X119.5Y-86.5
X119.55Y-82.35
X119.95Y-76.8
X120.0Y-42.45
X120.0Y-44.95
X120.0Y-47.45
X120.0Y-49.95
X120.0Y-52.2
X120.0Y-75.0
X120.0Y-79.0
X120.0Y-93.0
X120.0Y-95.0
X120.0Y-97.0
X120.0Y-103.0
X120.0Y-105.0
X120.0Y-111.0
X120.0Y-112.0
X120.0Y-113.0
X120.0Y-114.0
X120.0Y-115.0
X120.0Y-116.0
X120.0Y-117.0
X120.2Y-59.8
X120.5Y-55.0
X120.5Y-59.0
X120.5Y-62.5
X120.5Y-63.5
X120.5Y-64.5
X120.5Y-66.5
X120.5Y-80.2
X120.5Y-85.5
X120.5Y-87.5
X120.9Y-68.1
X120.95Y-76.8
X121.0Y-70.8
X121.0Y-71.6
X121.0Y-111.0
X121.0Y-112.0
X121.0Y-113.0
X121.0Y-114.0
X121.0Y-115.0
X121.0Y-116.0
X121.0Y-117.0
X121.05Y-82.3
X121.075Y-74.999
X121.3Y-80.2
X121.5Y-54.0
X121.5Y-56.0
X121.5Y-58.0
X121.5Y-60.5
X121.5Y-61.5
X121.5Y-62.5
X121.5Y-63.5
X121.5Y-64.5
X121.5Y-66.5
X121.5Y-84.5
X121.5Y-86.5
X121.75Y-89.0
X121.8Y-90.95
X121.95Y-76.8
X122.0Y-70.75
X122.0Y-71.5
X122.0Y-75.0
X122.0Y-93.0
X122.0Y-95.0
X122.0Y-97.0
X122.0Y-103.0
X122.0Y-105.0
X122.0Y-111.0
X122.0Y-112.0
X122.0Y-113.0
X122.0Y-114.0
X122.0Y-115.0
X122.0Y-116.0
X122.0Y-117.0
X122.5Y-42.45
X122.5Y-44.95
X122.5Y-47.45
X122.5Y-49.95
X122.5Y-55.0
X122.5Y-57.0
X122.5Y-60.5
X122.5Y-61.5
X122.5Y-62.5
X122.5Y-63.5
X122.5Y-64.5
X122.5Y-65.5
X122.5Y-66.5
X122.5Y-67.5
X122.5Y-68.5
X122.5Y-85.5
X122.5Y-87.5
X122.75Y-70.75
X122.75Y-71.5
X122.95Y-76.8
X123.0Y-73.9
X123.0Y-75.0
X123.3Y-80.2
X123.3Y-81.0
X123.5Y-54.0
X123.5Y-56.0
X123.5Y-60.5
X123.5Y-61.5
X123.5Y-62.5
X123.5Y-63.5
X123.5Y-64.5
X123.5Y-65.5
X123.5Y-66.5
X123.5Y-67.5
X123.5Y-68.5
X123.5Y-84.5
X123.5Y-86.5
X123.795Y-91.19
X123.95Y-76.8
X124.0Y-73.9
X124.0Y-75.0
X124.0Y-89.0
X124.0Y-94.0
X124.0Y-95.0
X124.0Y-96.0
X124.0Y-97.0
X124.0Y-98.0
X124.0Y-99.0
X124.0Y-100.0
X124.0Y-101.0
X124.0Y-102.0
X124.0Y-103.0
X124.1Y-80.2
X124.1Y-81.0
X124.5Y-60.5
X124.5Y-61.5
X124.5Y-62.5
X124.5Y-63.5
X124.5Y-64.5
X124.5Y-65.5
X124.5Y-66.5
X124.5Y-67.5
X124.5Y-68.5
X124.5Y-70.7
X124.5Y-71.5
X124.5Y-72.5
X124.5Y-85.5
X124.5Y-87.5
X124.505Y-107.025
X124.95Y-76.8
X125.0Y-42.5
X125.0Y-45.0
X125.0Y-47.5
X125.0Y-50.0
X125.0Y-73.9
X125.0Y-75.0
X125.0Y-79.0
X125.0Y-94.0
X125.0Y-95.0
X125.0Y-96.0
X125.0Y-97.0
X125.0Y-98.0
X125.0Y-99.0
X125.0Y-100.0
X125.0Y-101.0
X125.0Y-102.0
X125.0Y-103.0
X125.5Y-60.5
X125.5Y-61.5
X125.5Y-62.5
X125.5Y-63.5
X125.5Y-64.5
X125.5Y-67.5
X125.5Y-68.5
X125.5Y-72.5
X125.5Y-84.5
X125.5Y-86.5
X125.95Y-76.8
X126.0Y-75.0
X126.0Y-79.0
X126.0Y-89.0
X126.0Y-91.15
X126.0Y-94.0
X126.0Y-95.0
X126.0Y-96.0
X126.0Y-97.0
X126.0Y-98.0
X126.0Y-99.0
X126.0Y-100.0
X126.0Y-101.0
X126.0Y-102.0
X126.0Y-103.0
X126.4Y-70.7
X126.6Y-68.2
X126.775Y-76.575
X127.0Y-94.0
X127.0Y-95.0
X127.0Y-96.0
X127.0Y-97.0
X127.0Y-98.0
X127.0Y-99.0
X127.0Y-100.0
X127.0Y-101.0
X127.0Y-102.0
X127.0Y-103.0
X127.25Y-104.75
X127.3Y-70.7
X127.4Y-115.8
X127.5Y-42.5
X127.5Y-45.0
X127.5Y-47.5
X127.5Y-50.0
X127.5Y-54.0
X127.5Y-56.0
X127.5Y-58.0
X127.5Y-60.0
X127.5Y-61.0
X127.5Y-62.0
X127.5Y-63.0
X127.5Y-64.0
X127.5Y-65.0
X127.5Y-66.0
X127.6Y-73.7
X128.0Y-82.4
X128.0Y-84.5
X128.0Y-86.5
X128.0Y-89.0
X128.0Y-91.15
X128.25Y-104.75
X128.4Y-114.8
X128.4Y-115.8
X128.5Y-55.0
X128.5Y-57.0
X128.5Y-59.0
X128.5Y-60.0
X128.5Y-61.0
X128.5Y-62.0
X128.5Y-63.0
X128.5Y-64.0
X128.5Y-65.0
X128.5Y-66.0
X128.629Y-105.531
X129.0Y-83.6
X129.0Y-85.5
X129.0Y-87.5
X129.09Y-88.92
X129.5Y-54.0
X129.5Y-56.0
X129.5Y-58.0
X129.5Y-60.0
X129.5Y-61.0
X129.5Y-62.0
X129.5Y-63.0
X129.5Y-64.0
X129.5Y-65.0
X129.5Y-66.0
X129.5Y-103.5
X129.5Y-104.5
X129.5Y-105.5
X129.5Y-106.5
X129.5Y-107.5
X129.5Y-114.8
X129.5Y-115.8
X129.8Y-72.8
X129.85Y-91.15
X130.0Y-42.5
X130.0Y-45.0
X130.0Y-47.5
X130.0Y-50.0
X130.0Y-82.4
X130.0Y-84.55
X130.0Y-86.5
X130.5Y-55.0
X130.5Y-59.0
X130.5Y-60.0
X130.5Y-61.0
X130.5Y-62.0
X130.5Y-63.0
X130.5Y-64.0
X130.5Y-65.0
X130.5Y-66.0
X130.5Y-103.5
X130.5Y-104.5
X130.5Y-105.5
X130.5Y-106.5
X130.5Y-107.5
X130.5Y-113.8
X130.5Y-115.8
X130.6Y-70.7
X130.6Y-89.38
X131.0Y-83.55
X131.0Y-85.5
X131.0Y-91.616
X131.5Y-54.0
X131.5Y-60.0
X131.5Y-61.0
X131.5Y-62.0
X131.5Y-63.0
X131.5Y-64.0
X131.5Y-65.0
X131.5Y-66.0
X131.5Y-103.5
X131.5Y-104.5
X131.5Y-105.5
X131.5Y-106.5
X131.5Y-107.5
X131.5Y-113.8
X131.5Y-114.8
X131.6Y-70.7
X131.6Y-71.4
X132.0Y-84.5
X132.5Y-42.5
X132.5Y-45.0
X132.5Y-47.5
X132.5Y-49.95
X132.5Y-52.2
X132.5Y-55.0
X132.5Y-59.0
X132.5Y-60.0
X132.5Y-61.0
X132.5Y-70.7
X132.5Y-103.5
X132.5Y-104.5
X132.5Y-105.5
X132.5Y-106.5
X132.5Y-107.5
X132.5Y-108.5
X132.5Y-110.3
X132.5Y-111.23
X132.5Y-112.8
X132.5Y-113.8
X132.5Y-114.8
X132.6Y-79.8
X132.6Y-81.0
X132.75Y-62.0
X132.75Y-63.0
X132.75Y-64.0
X132.75Y-65.0
X133.0Y-85.5
X133.5Y-54.0
X133.5Y-103.5
X133.5Y-104.5
X133.5Y-105.5
X133.5Y-106.5
X133.5Y-107.5
X133.5Y-108.5
X133.5Y-110.3
X133.5Y-111.23
X133.5Y-112.8
X133.5Y-113.8
X133.5Y-114.8
X133.7Y-70.8
X133.75Y-62.0
X133.75Y-63.0
X133.75Y-64.0
X133.75Y-65.0
X133.8Y-71.75
X133.8Y-73.75
X133.802Y-72.761
X134.0Y-84.5
X134.1Y-91.0
X134.15Y-75.75
X134.4Y-60.8
X134.5Y-55.0
X134.5Y-57.0
X134.5Y-59.0
X134.5Y-103.5
X134.5Y-104.5
X134.5Y-105.5
X134.5Y-106.5
X134.5Y-107.5
X134.5Y-108.5
X134.5Y-110.3
X134.5Y-111.23
X134.5Y-112.8
X134.5Y-113.8
X134.5Y-114.8
X134.75Y-62.0
X134.75Y-63.0
X134.75Y-64.0
X134.75Y-65.0
X134.75Y-67.85
X134.909Y-88.4
X135.0Y-42.45
X135.0Y-44.95
X135.0Y-47.45
X135.0Y-49.95
X135.0Y-52.2
X135.0Y-85.5
X135.05Y-76.45
X135.1Y-67.3
X135.2Y-86.88
X135.5Y-54.0
X135.5Y-58.0
X135.5Y-103.5
X135.5Y-104.5
X135.5Y-105.5
X135.5Y-106.5
X135.5Y-107.5
X135.5Y-114.8
X135.7Y-82.7
X135.75Y-63.0
X135.75Y-64.0
X135.75Y-65.0
X135.8Y-67.3
X136.0Y-60.0
X136.0Y-84.5
X136.0Y-86.5
X136.0Y-93.25
X136.0Y-95.25
X136.2Y-110.6
X136.2Y-111.65
X136.2Y-113.5
X136.25Y-102.0
X136.5Y-59.0
X136.6Y-98.4
X136.7Y-68.5
X137.0Y-60.0
X137.0Y-63.0
X137.0Y-64.0
X137.0Y-65.0
X137.0Y-66.0
X137.0Y-76.5
X137.0Y-78.5
X137.0Y-85.5
X137.0Y-87.5
X137.1Y-69.3
X137.5Y-42.45
X137.5Y-44.95
X137.5Y-47.45
X137.5Y-49.95
X137.5Y-52.2
X137.5Y-54.0
X137.5Y-107.0
X137.5Y-109.5
X137.5Y-112.0
X137.5Y-114.5
X137.5Y-117.0
X137.9Y-80.1
X138.0Y-60.0
X138.0Y-63.0
X138.0Y-64.0
X138.0Y-65.0
X138.0Y-66.0
X138.0Y-67.0
X138.0Y-76.5
X138.0Y-78.5
X138.0Y-84.5
X138.0Y-86.5
X138.0Y-93.25
X138.0Y-95.25
X138.5Y-59.0
X138.6Y-103.8
X138.7Y-80.1
X138.8Y-67.9
X139.0Y-60.0
X139.0Y-61.0
X139.0Y-62.0
X139.0Y-63.0
X139.0Y-64.0
X139.0Y-65.0
X139.0Y-66.0
X139.0Y-67.0
X139.0Y-71.5
X139.0Y-76.5
X139.0Y-78.5
X139.0Y-85.5
X139.0Y-87.5
X139.365Y-75.124
X139.5Y-54.0
X139.5Y-56.0
X139.5Y-80.1
X140.0Y-42.45
X140.0Y-44.95
X140.0Y-47.45
X140.0Y-49.95
X140.0Y-55.0
X140.0Y-57.5
X140.0Y-60.0
X140.0Y-61.0
X140.0Y-62.0
X140.0Y-63.0
X140.0Y-64.0
X140.0Y-65.0
X140.0Y-66.0
X140.0Y-67.0
X140.0Y-71.5
X140.0Y-72.25
X140.0Y-76.5
X140.0Y-78.5
X140.0Y-84.5
X140.0Y-86.5
X140.0Y-89.0
X140.0Y-91.0
X140.0Y-93.25
X140.0Y-95.25
X140.0Y-107.0
X140.0Y-109.5
X140.0Y-112.0
X140.0Y-114.5
X140.0Y-117.0
X140.6Y-104.2
X140.8Y-71.5
X140.8Y-72.3
X140.92Y-85.5
X141.0Y-60.0
X141.0Y-61.0
X141.0Y-62.0
X141.0Y-63.0
X141.0Y-64.0
X141.0Y-65.0
X141.0Y-66.0
X141.0Y-67.0
X141.0Y-68.0
X141.0Y-69.0
X141.0Y-76.5
X141.0Y-78.5
X141.0Y-87.5
X141.5Y-54.0
X141.5Y-56.0
X141.6Y-80.1
X141.6Y-80.9
X141.825Y-97.0
X141.92Y-84.5
X142.0Y-60.0
X142.0Y-61.0
X142.0Y-62.0
X142.0Y-63.0
X142.0Y-64.0
X142.0Y-65.0
X142.0Y-66.0
X142.0Y-67.0
X142.0Y-68.0
X142.0Y-69.0
X142.0Y-71.0
X142.0Y-76.5
X142.0Y-78.5
X142.0Y-86.5
X142.0Y-89.0
X142.0Y-91.0
X142.0Y-93.25
X142.0Y-95.25
X142.4Y-80.1
X142.4Y-80.9
X142.5Y-42.5
X142.5Y-45.0
X142.5Y-47.5
X142.5Y-50.0
X142.5Y-55.0
X142.5Y-57.5
X142.5Y-105.0
X142.5Y-114.5
X142.5Y-117.0
X142.62Y-106.31
X142.85Y-87.35
X142.92Y-85.5
X143.0Y-60.0
X143.0Y-61.0
X143.0Y-62.0
X143.0Y-63.0
X143.0Y-64.0
X143.0Y-65.0
X143.0Y-66.0
X143.0Y-67.0
X143.0Y-68.0
X143.0Y-69.0
X143.0Y-71.0
X143.0Y-72.0
X143.0Y-76.5
X143.0Y-78.5
X143.8Y-69.4
X144.0Y-67.0
X144.1Y-95.12
X144.45Y-71.9
X144.7Y-68.15
X144.8Y-104.0
X144.9Y-78.3
X144.988Y-54.971
X145.0Y-42.5
X145.0Y-45.0
X145.0Y-47.5
X145.0Y-50.0
X145.0Y-52.2
X145.0Y-57.5
X145.0Y-60.0
X145.0Y-62.5
X145.0Y-66.0
X145.0Y-67.0
X145.0Y-79.6
X145.0Y-114.5
X145.0Y-117.0
X145.2Y-88.9
X145.4Y-71.4
X145.5Y-73.5
X145.5Y-104.0
X145.5Y-106.5
X145.524Y-68.724
X145.58Y-87.89
X145.85Y-78.25
X145.9Y-75.11
X145.9Y-79.2
X146.0Y-65.0
X146.0Y-66.0
X146.05Y-86.75
X146.1Y-96.9
X146.1Y-99.3
X146.4Y-88.6
X146.5Y-68.4
X146.5Y-73.5
X146.55Y-109.05
X146.6Y-106.35
X146.75Y-84.9
X146.865Y-91.579
X147.0Y-64.0
X147.0Y-65.0
X147.0Y-74.8
X147.3Y-87.7
X147.35Y-86.75
X147.5Y-42.5
X147.5Y-45.0
X147.5Y-47.5
X147.5Y-50.0
X147.5Y-52.5
X147.5Y-55.0
X147.5Y-57.5
X147.5Y-60.0
X147.5Y-114.5
X147.5Y-117.0
X147.525Y-67.575
X147.85Y-84.25
X148.0Y-63.0
X148.0Y-64.0
X148.11Y-86.12
X148.4Y-105.65
X148.55Y-106.55
X148.6Y-93.7
X148.6Y-108.5
X149.0Y-86.25
X149.1Y-74.2
X149.85Y-73.3
X149.9Y-67.0
X150.0Y-42.5
X150.0Y-45.0
X150.0Y-47.5
X150.0Y-50.0
X150.0Y-52.5
X150.0Y-55.0
X150.0Y-57.5
X150.0Y-60.0
X150.0Y-109.5
X150.0Y-112.0
X150.0Y-114.5
X150.0Y-117.0
X150.5Y-76.5
X150.5Y-91.2
X150.65Y-72.25
X150.799Y-66.699
X151.0Y-106.25
X151.1Y-95.9
X151.1Y-96.6
X151.2Y-93.3
X151.25Y-73.151
X151.35Y-76.3
X151.401Y-67.301
X151.8Y-66.4
X151.8Y-91.2
X151.8Y-95.5
X151.8Y-96.2
X151.85Y-75.65
X152.1Y-58.7
X152.4Y-109.5
X152.45Y-84.4
X152.5Y-42.5
X152.5Y-45.0
X152.5Y-47.5
X152.5Y-50.0
X152.5Y-52.5
X152.5Y-55.0
X152.5Y-57.5
X152.5Y-95.1
X152.5Y-95.8
X152.5Y-107.5
X152.5Y-114.5
X152.5Y-117.0
X152.6Y-112.0
X152.799Y-78.701
X152.834Y-75.161
X153.012Y-77.5
X153.15Y-89.1
X153.2Y-83.6
X153.2Y-85.9
X153.2Y-94.7
X153.2Y-95.4
X153.6Y-64.0
X153.6Y-65.0
X153.6Y-66.0
X153.6Y-69.4
X153.6Y-70.5
X153.6Y-73.0
X154.3Y-100.92
X154.39Y-101.77
X154.85Y-57.25
X155.0Y-50.0
X155.0Y-52.5
X155.0Y-55.0
X155.0Y-107.5
X155.0Y-109.5
X155.5Y-67.0
X155.5Y-83.6
X155.723Y-79.15
X155.8Y-48.4
X155.8Y-110.8
X155.917Y-82.817
X156.4Y-77.5
X156.5Y-66.0
X156.59Y-75.22
X157.2Y-77.6
X157.39Y-66.792
X157.5Y-50.0
X157.5Y-52.5
X157.5Y-55.0
X157.5Y-65.0
X157.5Y-66.0
X157.5Y-92.5
X157.5Y-95.0
X157.5Y-97.5
X157.5Y-109.5
X157.5Y-112.0
X157.5Y-117.0
X157.6Y-81.4
X157.6Y-85.9
X157.785Y-47.1
X157.8Y-76.8
X158.21Y-66.78
X158.3Y-80.7
X158.45Y-74.9
X158.5Y-64.0
X158.5Y-65.0
X158.78Y-66.21
X158.9Y-80.1
X159.0Y-61.0
X159.2Y-68.8
X159.5Y-64.0
X160.0Y-42.5
X160.0Y-45.0
X160.0Y-92.5
X160.0Y-95.0
X160.0Y-97.5
X160.0Y-102.5
X160.0Y-105.0
X160.0Y-109.5
X160.0Y-112.0
X160.0Y-114.5
X160.0Y-117.0
X160.3Y-50.0
X160.3Y-52.5
X160.3Y-55.0
X160.3Y-57.5
X160.3Y-60.0
X160.4Y-69.4
X160.741Y-83.185
X161.0Y-70.5
X161.25Y-71.5
X161.4Y-77.8
X162.1Y-86.4
X162.1Y-87.4
X162.1Y-88.5
X162.1Y-89.5
X162.15Y-74.7
X162.3Y-77.5
X162.5Y-42.5
X162.5Y-45.0
X162.5Y-47.5
X162.5Y-52.5
X162.5Y-55.0
X162.5Y-57.5
X162.5Y-60.0
X162.5Y-62.5
X162.5Y-67.5
X162.5Y-95.0
X162.5Y-97.5
X162.5Y-102.5
X162.5Y-105.0
X162.95Y-74.35
X163.0Y-109.5
X163.0Y-112.0
X163.0Y-114.5
X163.0Y-117.0
X163.7Y-66.0
T3
X69.183Y-44.667
X69.183Y-114.667
X69.667Y-43.5
X69.667Y-45.833
X69.667Y-113.5
X69.667Y-115.833
X70.833Y-43.017
X70.833Y-46.317
X70.833Y-113.017
X70.833Y-116.317
X72.0Y-43.5
X72.0Y-45.833
X72.0Y-113.5
X72.0Y-115.833
X72.483Y-44.667
X72.483Y-114.667
X154.183Y-44.667
X154.183Y-114.667
X154.666Y-43.5
X154.666Y-45.833
X154.666Y-113.5
X154.666Y-115.833
X155.833Y-43.017
X155.833Y-46.317
X155.833Y-113.017
X155.833Y-116.317
X157.0Y-43.5
X157.0Y-45.833
X157.0Y-113.5
X157.0Y-115.833
X157.483Y-44.667
X157.483Y-114.667
T5
X142.93Y-110.58
X142.93Y-111.85
X144.2Y-110.58
X144.2Y-111.85
X145.47Y-110.58
X145.47Y-111.85
X146.74Y-110.58
X146.74Y-111.85
X148.01Y-110.58
X148.01Y-111.85
T6
X75.45Y-51.812
X86.45Y-51.812
X93.45Y-51.812
X104.45Y-51.812
X111.45Y-51.812
X122.45Y-51.812
X129.45Y-51.812
X140.45Y-51.812
T7
X78.45Y-56.812
X83.45Y-56.812
X96.45Y-56.812
X101.45Y-56.812
X114.45Y-56.812
X119.45Y-56.812
X132.45Y-56.812
X137.45Y-56.812
T8
X75.6Y-75.5
X75.6Y-80.5
X77.4Y-106.7
X78.5Y-89.95
X83.5Y-89.95
X90.9Y-106.7
X93.6Y-75.5
X93.6Y-80.5
X96.5Y-89.95
X100.55Y-107.287
X101.5Y-89.95
X111.6Y-75.5
X111.6Y-80.5
X114.05Y-107.287
X114.5Y-89.95
X119.5Y-89.95
X129.6Y-75.5
X129.6Y-80.5
X132.5Y-89.95
X137.5Y-89.95
T9
X70.833Y-44.667
X70.833Y-114.667
X155.833Y-44.667
X155.833Y-114.667
T10
X80.55Y-100.7
X87.75Y-100.7
X103.7Y-101.287
X110.9Y-101.287
T4
G00X157.735Y-99.48
M15
G01X158.835Y-99.48
M16
G05
G00X157.735Y-108.12
M15
G01X158.835Y-108.12
M16
G05
G00X162.065Y-99.48
M15
G01X162.865Y-99.48
M16
G05
G00X162.065Y-108.12
M15
G01X162.865Y-108.12
M16
G05
M30
