%TF.GenerationSoftware,KiCad,Pcbnew,9.0.7-9.0.7~ubuntu22.04.1*%
%TF.CreationDate,2026-02-16T18:38:18+01:00*%
%TF.ProjectId,Bucky++,4275636b-792b-42b2-9e6b-696361645f70,1.1*%
%TF.SameCoordinates,Original*%
%TF.FileFunction,Legend,Bot*%
%TF.FilePolarity,Positive*%
%FSLAX46Y46*%
G04 Gerber Fmt 4.6, Leading zero omitted, Abs format (unit mm)*
G04 Created by KiCad (PCBNEW 9.0.7-9.0.7~ubuntu22.04.1) date 2026-02-16 18:38:18*
%MOMM*%
%LPD*%
G01*
G04 APERTURE LIST*
G04 Aperture macros list*
%AMRoundRect*
0 Rectangle with rounded corners*
0 $1 Rounding radius*
0 $2 $3 $4 $5 $6 $7 $8 $9 X,Y pos of 4 corners*
0 Add a 4 corners polygon primitive as box body*
4,1,4,$2,$3,$4,$5,$6,$7,$8,$9,$2,$3,0*
0 Add four circle primitives for the rounded corners*
1,1,$1+$1,$2,$3*
1,1,$1+$1,$4,$5*
1,1,$1+$1,$6,$7*
1,1,$1+$1,$8,$9*
0 Add four rect primitives between the rounded corners*
20,1,$1+$1,$2,$3,$4,$5,0*
20,1,$1+$1,$4,$5,$6,$7,0*
20,1,$1+$1,$6,$7,$8,$9,0*
20,1,$1+$1,$8,$9,$2,$3,0*%
%AMRotRect*
0 Rectangle, with rotation*
0 The origin of the aperture is its center*
0 $1 length*
0 $2 width*
0 $3 Rotation angle, in degrees counterclockwise*
0 Add horizontal line*
21,1,$1,$2,0,0,$3*%
%AMFreePoly0*
4,1,13,0.200001,0.124500,0.200001,-0.350501,0.150001,-0.400501,-0.149998,-0.400501,-0.199998,-0.350501,-0.199998,-0.100501,-0.249998,-0.050501,-0.500000,-0.050501,-0.550000,-0.000501,-0.550000,0.124500,-0.500000,0.174500,0.150001,0.174500,0.200001,0.124500,0.200001,0.124500,$1*%
%AMFreePoly1*
4,1,13,0.250001,0.350503,0.250001,-0.124500,0.200001,-0.174500,-0.450000,-0.174500,-0.500000,-0.124500,-0.500000,0.000501,-0.450000,0.050501,-0.199998,0.050501,-0.149998,0.100501,-0.149998,0.350501,-0.099998,0.400501,0.200001,0.400503,0.250001,0.350503,0.250001,0.350503,$1*%
%AMFreePoly2*
4,1,13,0.099998,0.400501,0.149998,0.350501,0.149998,0.100501,0.199998,0.050501,0.450000,0.050501,0.500000,0.000501,0.500000,-0.124500,0.450000,-0.174500,-0.200001,-0.174500,-0.250001,-0.124500,-0.250001,0.350503,-0.200001,0.400503,0.099998,0.400501,0.099998,0.400501,$1*%
%AMFreePoly3*
4,1,13,0.500000,0.124500,0.500000,-0.000501,0.450000,-0.050501,0.199998,-0.050501,0.149998,-0.100501,0.149998,-0.350501,0.099998,-0.400501,-0.200001,-0.400501,-0.250001,-0.350501,-0.250001,0.124500,-0.200001,0.174500,0.450000,0.174500,0.500000,0.124500,0.500000,0.124500,$1*%
%AMFreePoly4*
4,1,11,1.015000,1.170000,0.435000,0.575000,0.435000,-0.575000,1.015000,-1.170000,1.015000,-1.945000,0.125000,-1.945000,-0.435000,-1.395000,-0.435000,1.395000,0.125000,1.945000,1.015000,1.945000,1.015000,1.170000,1.015000,1.170000,$1*%
%AMFreePoly5*
4,1,11,0.435000,1.395000,0.435000,-1.395000,-0.125000,-1.945000,-1.015000,-1.945000,-1.015000,-1.170000,-0.435000,-0.575000,-0.435000,0.575000,-1.015000,1.170000,-1.015000,1.945000,-0.125000,1.945000,0.435000,1.395000,0.435000,1.395000,$1*%
%AMFreePoly6*
4,1,11,0.750000,0.885000,0.300000,0.440500,0.300000,-0.440500,0.750000,-0.885000,0.750000,-1.850000,0.225000,-1.850000,-0.300000,-1.325000,-0.300000,1.325000,0.225000,1.850000,0.750000,1.850000,0.750000,0.885000,0.750000,0.885000,$1*%
G04 Aperture macros list end*
%ADD10C,0.187500*%
%ADD11C,0.375000*%
%ADD12C,0.254000*%
%ADD13C,0.200000*%
%ADD14C,0.100000*%
%ADD15C,0.120000*%
%ADD16C,0.250000*%
%ADD17C,0.152400*%
%ADD18C,0.150000*%
%ADD19C,0.000000*%
%ADD20C,0.700000*%
%ADD21C,4.400000*%
%ADD22R,2.700000X2.700000*%
%ADD23C,2.700000*%
%ADD24R,4.050000X4.050000*%
%ADD25C,4.050000*%
%ADD26C,0.650000*%
%ADD27O,2.100000X1.000000*%
%ADD28O,1.800000X1.000000*%
%ADD29C,2.550000*%
%ADD30C,1.500000*%
%ADD31C,1.100000*%
%ADD32R,0.300000X1.400000*%
%ADD33RoundRect,0.137500X-0.137500X0.137500X-0.137500X-0.137500X0.137500X-0.137500X0.137500X0.137500X0*%
%ADD34RoundRect,0.130000X0.130000X0.130000X-0.130000X0.130000X-0.130000X-0.130000X0.130000X-0.130000X0*%
%ADD35RoundRect,0.137500X0.137500X-0.137500X0.137500X0.137500X-0.137500X0.137500X-0.137500X-0.137500X0*%
%ADD36RoundRect,0.130000X-0.130000X0.130000X-0.130000X-0.130000X0.130000X-0.130000X0.130000X0.130000X0*%
%ADD37R,0.240000X0.575000*%
%ADD38R,0.575000X0.240000*%
%ADD39R,1.450000X2.700000*%
%ADD40R,0.850000X2.700000*%
%ADD41RoundRect,0.062500X0.375000X0.062500X-0.375000X0.062500X-0.375000X-0.062500X0.375000X-0.062500X0*%
%ADD42RoundRect,0.062500X0.062500X0.375000X-0.062500X0.375000X-0.062500X-0.375000X0.062500X-0.375000X0*%
%ADD43R,1.500000X1.500000*%
%ADD44RoundRect,0.137500X-0.137500X-0.137500X0.137500X-0.137500X0.137500X0.137500X-0.137500X0.137500X0*%
%ADD45RoundRect,0.175000X-0.175000X-0.500000X0.175000X-0.500000X0.175000X0.500000X-0.175000X0.500000X0*%
%ADD46RoundRect,0.140000X0.021213X-0.219203X0.219203X-0.021213X-0.021213X0.219203X-0.219203X0.021213X0*%
%ADD47RoundRect,0.137500X0.137500X0.137500X-0.137500X0.137500X-0.137500X-0.137500X0.137500X-0.137500X0*%
%ADD48RoundRect,0.130000X0.000000X-0.183848X0.183848X0.000000X0.000000X0.183848X-0.183848X0.000000X0*%
%ADD49R,0.300000X0.475000*%
%ADD50RoundRect,0.162500X0.162500X0.287500X-0.162500X0.287500X-0.162500X-0.287500X0.162500X-0.287500X0*%
%ADD51RoundRect,0.101600X0.527500X0.250000X-0.527500X0.250000X-0.527500X-0.250000X0.527500X-0.250000X0*%
%ADD52RoundRect,0.130000X0.000000X0.183848X-0.183848X0.000000X0.000000X-0.183848X0.183848X0.000000X0*%
%ADD53R,3.429000X1.257000*%
%ADD54R,9.017000X10.668000*%
%ADD55RoundRect,0.130000X0.130000X-0.130000X0.130000X0.130000X-0.130000X0.130000X-0.130000X-0.130000X0*%
%ADD56RoundRect,0.237500X-0.237500X-0.437500X0.237500X-0.437500X0.237500X0.437500X-0.237500X0.437500X0*%
%ADD57RoundRect,0.137500X-0.194454X0.000000X0.000000X-0.194454X0.194454X0.000000X0.000000X0.194454X0*%
%ADD58RoundRect,0.130000X-0.130000X-0.130000X0.130000X-0.130000X0.130000X0.130000X-0.130000X0.130000X0*%
%ADD59R,5.588000X2.489200*%
%ADD60RoundRect,0.187500X-0.187500X-0.462500X0.187500X-0.462500X0.187500X0.462500X-0.187500X0.462500X0*%
%ADD61FreePoly0,270.000000*%
%ADD62R,0.250000X0.600000*%
%ADD63FreePoly1,270.000000*%
%ADD64FreePoly2,270.000000*%
%ADD65FreePoly3,270.000000*%
%ADD66R,1.300000X0.350000*%
%ADD67R,0.450000X1.425000*%
%ADD68RoundRect,0.137500X0.000000X0.194454X-0.194454X0.000000X0.000000X-0.194454X0.194454X0.000000X0*%
%ADD69R,2.700000X6.200000*%
%ADD70RoundRect,0.237500X1.062500X-0.237500X1.062500X0.237500X-1.062500X0.237500X-1.062500X-0.237500X0*%
%ADD71RoundRect,0.075000X0.548008X-0.441942X-0.441942X0.548008X-0.548008X0.441942X0.441942X-0.548008X0*%
%ADD72RoundRect,0.075000X0.548008X0.441942X0.441942X0.548008X-0.548008X-0.441942X-0.441942X-0.548008X0*%
%ADD73RoundRect,0.218750X-0.026517X0.335876X-0.335876X0.026517X0.026517X-0.335876X0.335876X-0.026517X0*%
%ADD74RoundRect,0.130000X-0.183848X0.000000X0.000000X-0.183848X0.183848X0.000000X0.000000X0.183848X0*%
%ADD75FreePoly4,180.000000*%
%ADD76FreePoly5,180.000000*%
%ADD77RoundRect,0.101600X-0.527500X-0.250000X0.527500X-0.250000X0.527500X0.250000X-0.527500X0.250000X0*%
%ADD78RoundRect,0.187500X0.187500X0.462500X-0.187500X0.462500X-0.187500X-0.462500X0.187500X-0.462500X0*%
%ADD79RoundRect,0.187500X-0.053033X0.318198X-0.318198X0.053033X0.053033X-0.318198X0.318198X-0.053033X0*%
%ADD80RoundRect,0.187500X-0.262500X0.187500X-0.262500X-0.187500X0.262500X-0.187500X0.262500X0.187500X0*%
%ADD81FreePoly6,90.000000*%
%ADD82FreePoly6,270.000000*%
%ADD83RoundRect,0.187500X-0.462500X0.187500X-0.462500X-0.187500X0.462500X-0.187500X0.462500X0.187500X0*%
%ADD84RoundRect,0.162500X-0.162500X-0.287500X0.162500X-0.287500X0.162500X0.287500X-0.162500X0.287500X0*%
%ADD85RoundRect,0.162500X-0.287500X0.162500X-0.287500X-0.162500X0.287500X-0.162500X0.287500X0.162500X0*%
%ADD86RoundRect,0.237500X0.237500X0.437500X-0.237500X0.437500X-0.237500X-0.437500X0.237500X-0.437500X0*%
%ADD87RoundRect,0.130000X0.183848X0.000000X0.000000X0.183848X-0.183848X0.000000X0.000000X-0.183848X0*%
%ADD88RotRect,1.150000X1.400000X135.000000*%
%ADD89RoundRect,0.137500X0.194454X0.000000X0.000000X0.194454X-0.194454X0.000000X0.000000X-0.194454X0*%
G04 APERTURE END LIST*
D10*
X152290930Y-46478107D02*
X151576645Y-46478107D01*
X152433787Y-46906678D02*
X151933787Y-45406678D01*
X151933787Y-45406678D02*
X151433787Y-46906678D01*
X150219502Y-46906678D02*
X150933788Y-46906678D01*
X150933788Y-46906678D02*
X150933788Y-45406678D01*
X149790930Y-46478107D02*
X149076645Y-46478107D01*
X149933787Y-46906678D02*
X149433787Y-45406678D01*
X149433787Y-45406678D02*
X148933787Y-46906678D01*
X148433788Y-46906678D02*
X148433788Y-45406678D01*
X147719502Y-46906678D02*
X147719502Y-45406678D01*
X147719502Y-45406678D02*
X146862359Y-46906678D01*
X146862359Y-46906678D02*
X146862359Y-45406678D01*
X145076644Y-46478107D02*
X144362359Y-46478107D01*
X145219501Y-46906678D02*
X144719501Y-45406678D01*
X144719501Y-45406678D02*
X144219501Y-46906678D01*
X143862359Y-45406678D02*
X142862359Y-45406678D01*
X142862359Y-45406678D02*
X143862359Y-46906678D01*
X143862359Y-46906678D02*
X142862359Y-46906678D01*
X142290931Y-46906678D02*
X142290931Y-45406678D01*
X141719502Y-45406678D02*
X140719502Y-45406678D01*
X140719502Y-45406678D02*
X141719502Y-46906678D01*
X141719502Y-46906678D02*
X140719502Y-46906678D01*
D11*
X151896147Y-43711214D02*
X151681861Y-43782642D01*
X151681861Y-43782642D02*
X151610432Y-43854071D01*
X151610432Y-43854071D02*
X151539004Y-43996928D01*
X151539004Y-43996928D02*
X151539004Y-44211214D01*
X151539004Y-44211214D02*
X151610432Y-44354071D01*
X151610432Y-44354071D02*
X151681861Y-44425500D01*
X151681861Y-44425500D02*
X151824718Y-44496928D01*
X151824718Y-44496928D02*
X152396147Y-44496928D01*
X152396147Y-44496928D02*
X152396147Y-42996928D01*
X152396147Y-42996928D02*
X151896147Y-42996928D01*
X151896147Y-42996928D02*
X151753290Y-43068357D01*
X151753290Y-43068357D02*
X151681861Y-43139785D01*
X151681861Y-43139785D02*
X151610432Y-43282642D01*
X151610432Y-43282642D02*
X151610432Y-43425500D01*
X151610432Y-43425500D02*
X151681861Y-43568357D01*
X151681861Y-43568357D02*
X151753290Y-43639785D01*
X151753290Y-43639785D02*
X151896147Y-43711214D01*
X151896147Y-43711214D02*
X152396147Y-43711214D01*
X150896147Y-42996928D02*
X150896147Y-44211214D01*
X150896147Y-44211214D02*
X150824718Y-44354071D01*
X150824718Y-44354071D02*
X150753290Y-44425500D01*
X150753290Y-44425500D02*
X150610432Y-44496928D01*
X150610432Y-44496928D02*
X150324718Y-44496928D01*
X150324718Y-44496928D02*
X150181861Y-44425500D01*
X150181861Y-44425500D02*
X150110432Y-44354071D01*
X150110432Y-44354071D02*
X150039004Y-44211214D01*
X150039004Y-44211214D02*
X150039004Y-42996928D01*
X148467575Y-44354071D02*
X148539003Y-44425500D01*
X148539003Y-44425500D02*
X148753289Y-44496928D01*
X148753289Y-44496928D02*
X148896146Y-44496928D01*
X148896146Y-44496928D02*
X149110432Y-44425500D01*
X149110432Y-44425500D02*
X149253289Y-44282642D01*
X149253289Y-44282642D02*
X149324718Y-44139785D01*
X149324718Y-44139785D02*
X149396146Y-43854071D01*
X149396146Y-43854071D02*
X149396146Y-43639785D01*
X149396146Y-43639785D02*
X149324718Y-43354071D01*
X149324718Y-43354071D02*
X149253289Y-43211214D01*
X149253289Y-43211214D02*
X149110432Y-43068357D01*
X149110432Y-43068357D02*
X148896146Y-42996928D01*
X148896146Y-42996928D02*
X148753289Y-42996928D01*
X148753289Y-42996928D02*
X148539003Y-43068357D01*
X148539003Y-43068357D02*
X148467575Y-43139785D01*
X147824718Y-44496928D02*
X147824718Y-42996928D01*
X146967575Y-44496928D02*
X147610432Y-43639785D01*
X146967575Y-42996928D02*
X147824718Y-43854071D01*
X146039003Y-43782642D02*
X146039003Y-44496928D01*
X146539003Y-42996928D02*
X146039003Y-43782642D01*
X146039003Y-43782642D02*
X145539003Y-42996928D01*
X145039004Y-43925500D02*
X143896147Y-43925500D01*
X144467575Y-44496928D02*
X144467575Y-43354071D01*
X143181861Y-43925500D02*
X142039004Y-43925500D01*
X142610432Y-44496928D02*
X142610432Y-43354071D01*
X139324718Y-44496928D02*
X139824718Y-43782642D01*
X140181861Y-44496928D02*
X140181861Y-42996928D01*
X140181861Y-42996928D02*
X139610432Y-42996928D01*
X139610432Y-42996928D02*
X139467575Y-43068357D01*
X139467575Y-43068357D02*
X139396146Y-43139785D01*
X139396146Y-43139785D02*
X139324718Y-43282642D01*
X139324718Y-43282642D02*
X139324718Y-43496928D01*
X139324718Y-43496928D02*
X139396146Y-43639785D01*
X139396146Y-43639785D02*
X139467575Y-43711214D01*
X139467575Y-43711214D02*
X139610432Y-43782642D01*
X139610432Y-43782642D02*
X140181861Y-43782642D01*
X138681861Y-43711214D02*
X138181861Y-43711214D01*
X137967575Y-44496928D02*
X138681861Y-44496928D01*
X138681861Y-44496928D02*
X138681861Y-42996928D01*
X138681861Y-42996928D02*
X137967575Y-42996928D01*
X137539003Y-42996928D02*
X137039003Y-44496928D01*
X137039003Y-44496928D02*
X136539003Y-42996928D01*
X134967575Y-44068357D02*
X134253290Y-44068357D01*
X135110432Y-44496928D02*
X134610432Y-42996928D01*
X134610432Y-42996928D02*
X134110432Y-44496928D01*
D12*
X87289318Y-70033237D02*
X86019318Y-70033237D01*
X87168365Y-71363714D02*
X87228842Y-71303238D01*
X87228842Y-71303238D02*
X87289318Y-71121809D01*
X87289318Y-71121809D02*
X87289318Y-71000857D01*
X87289318Y-71000857D02*
X87228842Y-70819428D01*
X87228842Y-70819428D02*
X87107889Y-70698476D01*
X87107889Y-70698476D02*
X86986937Y-70637999D01*
X86986937Y-70637999D02*
X86745032Y-70577523D01*
X86745032Y-70577523D02*
X86563603Y-70577523D01*
X86563603Y-70577523D02*
X86321699Y-70637999D01*
X86321699Y-70637999D02*
X86200746Y-70698476D01*
X86200746Y-70698476D02*
X86079794Y-70819428D01*
X86079794Y-70819428D02*
X86019318Y-71000857D01*
X86019318Y-71000857D02*
X86019318Y-71121809D01*
X86019318Y-71121809D02*
X86079794Y-71303238D01*
X86079794Y-71303238D02*
X86140270Y-71363714D01*
X86019318Y-71787047D02*
X86019318Y-72633714D01*
X86019318Y-72633714D02*
X87289318Y-72089428D01*
X122399318Y-70484237D02*
X121129318Y-70484237D01*
X122278365Y-71814714D02*
X122338842Y-71754238D01*
X122338842Y-71754238D02*
X122399318Y-71572809D01*
X122399318Y-71572809D02*
X122399318Y-71451857D01*
X122399318Y-71451857D02*
X122338842Y-71270428D01*
X122338842Y-71270428D02*
X122217889Y-71149476D01*
X122217889Y-71149476D02*
X122096937Y-71088999D01*
X122096937Y-71088999D02*
X121855032Y-71028523D01*
X121855032Y-71028523D02*
X121673603Y-71028523D01*
X121673603Y-71028523D02*
X121431699Y-71088999D01*
X121431699Y-71088999D02*
X121310746Y-71149476D01*
X121310746Y-71149476D02*
X121189794Y-71270428D01*
X121189794Y-71270428D02*
X121129318Y-71451857D01*
X121129318Y-71451857D02*
X121129318Y-71572809D01*
X121129318Y-71572809D02*
X121189794Y-71754238D01*
X121189794Y-71754238D02*
X121250270Y-71814714D01*
X121673603Y-72540428D02*
X121613127Y-72419476D01*
X121613127Y-72419476D02*
X121552651Y-72358999D01*
X121552651Y-72358999D02*
X121431699Y-72298523D01*
X121431699Y-72298523D02*
X121371222Y-72298523D01*
X121371222Y-72298523D02*
X121250270Y-72358999D01*
X121250270Y-72358999D02*
X121189794Y-72419476D01*
X121189794Y-72419476D02*
X121129318Y-72540428D01*
X121129318Y-72540428D02*
X121129318Y-72782333D01*
X121129318Y-72782333D02*
X121189794Y-72903285D01*
X121189794Y-72903285D02*
X121250270Y-72963761D01*
X121250270Y-72963761D02*
X121371222Y-73024238D01*
X121371222Y-73024238D02*
X121431699Y-73024238D01*
X121431699Y-73024238D02*
X121552651Y-72963761D01*
X121552651Y-72963761D02*
X121613127Y-72903285D01*
X121613127Y-72903285D02*
X121673603Y-72782333D01*
X121673603Y-72782333D02*
X121673603Y-72540428D01*
X121673603Y-72540428D02*
X121734080Y-72419476D01*
X121734080Y-72419476D02*
X121794556Y-72358999D01*
X121794556Y-72358999D02*
X121915508Y-72298523D01*
X121915508Y-72298523D02*
X122157413Y-72298523D01*
X122157413Y-72298523D02*
X122278365Y-72358999D01*
X122278365Y-72358999D02*
X122338842Y-72419476D01*
X122338842Y-72419476D02*
X122399318Y-72540428D01*
X122399318Y-72540428D02*
X122399318Y-72782333D01*
X122399318Y-72782333D02*
X122338842Y-72903285D01*
X122338842Y-72903285D02*
X122278365Y-72963761D01*
X122278365Y-72963761D02*
X122157413Y-73024238D01*
X122157413Y-73024238D02*
X121915508Y-73024238D01*
X121915508Y-73024238D02*
X121794556Y-72963761D01*
X121794556Y-72963761D02*
X121734080Y-72903285D01*
X121734080Y-72903285D02*
X121673603Y-72782333D01*
X127139270Y-96674285D02*
X127078794Y-96553333D01*
X127078794Y-96553333D02*
X126957842Y-96432380D01*
X126957842Y-96432380D02*
X126776413Y-96250952D01*
X126776413Y-96250952D02*
X126715937Y-96129999D01*
X126715937Y-96129999D02*
X126715937Y-96009047D01*
X127018318Y-96069523D02*
X126957842Y-95948571D01*
X126957842Y-95948571D02*
X126836889Y-95827618D01*
X126836889Y-95827618D02*
X126594984Y-95767142D01*
X126594984Y-95767142D02*
X126171651Y-95767142D01*
X126171651Y-95767142D02*
X125929746Y-95827618D01*
X125929746Y-95827618D02*
X125808794Y-95948571D01*
X125808794Y-95948571D02*
X125748318Y-96069523D01*
X125748318Y-96069523D02*
X125748318Y-96311428D01*
X125748318Y-96311428D02*
X125808794Y-96432380D01*
X125808794Y-96432380D02*
X125929746Y-96553333D01*
X125929746Y-96553333D02*
X126171651Y-96613809D01*
X126171651Y-96613809D02*
X126594984Y-96613809D01*
X126594984Y-96613809D02*
X126836889Y-96553333D01*
X126836889Y-96553333D02*
X126957842Y-96432380D01*
X126957842Y-96432380D02*
X127018318Y-96311428D01*
X127018318Y-96311428D02*
X127018318Y-96069523D01*
X127018318Y-97823333D02*
X127018318Y-97097618D01*
X127018318Y-97460475D02*
X125748318Y-97460475D01*
X125748318Y-97460475D02*
X125929746Y-97339523D01*
X125929746Y-97339523D02*
X126050699Y-97218571D01*
X126050699Y-97218571D02*
X126111175Y-97097618D01*
X125748318Y-98609523D02*
X125748318Y-98730476D01*
X125748318Y-98730476D02*
X125808794Y-98851428D01*
X125808794Y-98851428D02*
X125869270Y-98911904D01*
X125869270Y-98911904D02*
X125990222Y-98972380D01*
X125990222Y-98972380D02*
X126232127Y-99032857D01*
X126232127Y-99032857D02*
X126534508Y-99032857D01*
X126534508Y-99032857D02*
X126776413Y-98972380D01*
X126776413Y-98972380D02*
X126897365Y-98911904D01*
X126897365Y-98911904D02*
X126957842Y-98851428D01*
X126957842Y-98851428D02*
X127018318Y-98730476D01*
X127018318Y-98730476D02*
X127018318Y-98609523D01*
X127018318Y-98609523D02*
X126957842Y-98488571D01*
X126957842Y-98488571D02*
X126897365Y-98428095D01*
X126897365Y-98428095D02*
X126776413Y-98367618D01*
X126776413Y-98367618D02*
X126534508Y-98307142D01*
X126534508Y-98307142D02*
X126232127Y-98307142D01*
X126232127Y-98307142D02*
X125990222Y-98367618D01*
X125990222Y-98367618D02*
X125869270Y-98428095D01*
X125869270Y-98428095D02*
X125808794Y-98488571D01*
X125808794Y-98488571D02*
X125748318Y-98609523D01*
X95611666Y-114624318D02*
X96035000Y-114019556D01*
X96337381Y-114624318D02*
X96337381Y-113354318D01*
X96337381Y-113354318D02*
X95853571Y-113354318D01*
X95853571Y-113354318D02*
X95732619Y-113414794D01*
X95732619Y-113414794D02*
X95672142Y-113475270D01*
X95672142Y-113475270D02*
X95611666Y-113596222D01*
X95611666Y-113596222D02*
X95611666Y-113777651D01*
X95611666Y-113777651D02*
X95672142Y-113898603D01*
X95672142Y-113898603D02*
X95732619Y-113959080D01*
X95732619Y-113959080D02*
X95853571Y-114019556D01*
X95853571Y-114019556D02*
X96337381Y-114019556D01*
X94885952Y-113898603D02*
X95006904Y-113838127D01*
X95006904Y-113838127D02*
X95067381Y-113777651D01*
X95067381Y-113777651D02*
X95127857Y-113656699D01*
X95127857Y-113656699D02*
X95127857Y-113596222D01*
X95127857Y-113596222D02*
X95067381Y-113475270D01*
X95067381Y-113475270D02*
X95006904Y-113414794D01*
X95006904Y-113414794D02*
X94885952Y-113354318D01*
X94885952Y-113354318D02*
X94644047Y-113354318D01*
X94644047Y-113354318D02*
X94523095Y-113414794D01*
X94523095Y-113414794D02*
X94462619Y-113475270D01*
X94462619Y-113475270D02*
X94402142Y-113596222D01*
X94402142Y-113596222D02*
X94402142Y-113656699D01*
X94402142Y-113656699D02*
X94462619Y-113777651D01*
X94462619Y-113777651D02*
X94523095Y-113838127D01*
X94523095Y-113838127D02*
X94644047Y-113898603D01*
X94644047Y-113898603D02*
X94885952Y-113898603D01*
X94885952Y-113898603D02*
X95006904Y-113959080D01*
X95006904Y-113959080D02*
X95067381Y-114019556D01*
X95067381Y-114019556D02*
X95127857Y-114140508D01*
X95127857Y-114140508D02*
X95127857Y-114382413D01*
X95127857Y-114382413D02*
X95067381Y-114503365D01*
X95067381Y-114503365D02*
X95006904Y-114563842D01*
X95006904Y-114563842D02*
X94885952Y-114624318D01*
X94885952Y-114624318D02*
X94644047Y-114624318D01*
X94644047Y-114624318D02*
X94523095Y-114563842D01*
X94523095Y-114563842D02*
X94462619Y-114503365D01*
X94462619Y-114503365D02*
X94402142Y-114382413D01*
X94402142Y-114382413D02*
X94402142Y-114140508D01*
X94402142Y-114140508D02*
X94462619Y-114019556D01*
X94462619Y-114019556D02*
X94523095Y-113959080D01*
X94523095Y-113959080D02*
X94644047Y-113898603D01*
X104549318Y-70560237D02*
X103279318Y-70560237D01*
X104428365Y-71890714D02*
X104488842Y-71830238D01*
X104488842Y-71830238D02*
X104549318Y-71648809D01*
X104549318Y-71648809D02*
X104549318Y-71527857D01*
X104549318Y-71527857D02*
X104488842Y-71346428D01*
X104488842Y-71346428D02*
X104367889Y-71225476D01*
X104367889Y-71225476D02*
X104246937Y-71164999D01*
X104246937Y-71164999D02*
X104005032Y-71104523D01*
X104005032Y-71104523D02*
X103823603Y-71104523D01*
X103823603Y-71104523D02*
X103581699Y-71164999D01*
X103581699Y-71164999D02*
X103460746Y-71225476D01*
X103460746Y-71225476D02*
X103339794Y-71346428D01*
X103339794Y-71346428D02*
X103279318Y-71527857D01*
X103279318Y-71527857D02*
X103279318Y-71648809D01*
X103279318Y-71648809D02*
X103339794Y-71830238D01*
X103339794Y-71830238D02*
X103400270Y-71890714D01*
X104549318Y-72495476D02*
X104549318Y-72737380D01*
X104549318Y-72737380D02*
X104488842Y-72858333D01*
X104488842Y-72858333D02*
X104428365Y-72918809D01*
X104428365Y-72918809D02*
X104246937Y-73039761D01*
X104246937Y-73039761D02*
X104005032Y-73100238D01*
X104005032Y-73100238D02*
X103521222Y-73100238D01*
X103521222Y-73100238D02*
X103400270Y-73039761D01*
X103400270Y-73039761D02*
X103339794Y-72979285D01*
X103339794Y-72979285D02*
X103279318Y-72858333D01*
X103279318Y-72858333D02*
X103279318Y-72616428D01*
X103279318Y-72616428D02*
X103339794Y-72495476D01*
X103339794Y-72495476D02*
X103400270Y-72434999D01*
X103400270Y-72434999D02*
X103521222Y-72374523D01*
X103521222Y-72374523D02*
X103823603Y-72374523D01*
X103823603Y-72374523D02*
X103944556Y-72434999D01*
X103944556Y-72434999D02*
X104005032Y-72495476D01*
X104005032Y-72495476D02*
X104065508Y-72616428D01*
X104065508Y-72616428D02*
X104065508Y-72858333D01*
X104065508Y-72858333D02*
X104005032Y-72979285D01*
X104005032Y-72979285D02*
X103944556Y-73039761D01*
X103944556Y-73039761D02*
X103823603Y-73100238D01*
X140389318Y-69616475D02*
X139119318Y-69616475D01*
X140268365Y-70946952D02*
X140328842Y-70886476D01*
X140328842Y-70886476D02*
X140389318Y-70705047D01*
X140389318Y-70705047D02*
X140389318Y-70584095D01*
X140389318Y-70584095D02*
X140328842Y-70402666D01*
X140328842Y-70402666D02*
X140207889Y-70281714D01*
X140207889Y-70281714D02*
X140086937Y-70221237D01*
X140086937Y-70221237D02*
X139845032Y-70160761D01*
X139845032Y-70160761D02*
X139663603Y-70160761D01*
X139663603Y-70160761D02*
X139421699Y-70221237D01*
X139421699Y-70221237D02*
X139300746Y-70281714D01*
X139300746Y-70281714D02*
X139179794Y-70402666D01*
X139179794Y-70402666D02*
X139119318Y-70584095D01*
X139119318Y-70584095D02*
X139119318Y-70705047D01*
X139119318Y-70705047D02*
X139179794Y-70886476D01*
X139179794Y-70886476D02*
X139240270Y-70946952D01*
X140389318Y-72156476D02*
X140389318Y-71430761D01*
X140389318Y-71793618D02*
X139119318Y-71793618D01*
X139119318Y-71793618D02*
X139300746Y-71672666D01*
X139300746Y-71672666D02*
X139421699Y-71551714D01*
X139421699Y-71551714D02*
X139482175Y-71430761D01*
X139119318Y-72942666D02*
X139119318Y-73063619D01*
X139119318Y-73063619D02*
X139179794Y-73184571D01*
X139179794Y-73184571D02*
X139240270Y-73245047D01*
X139240270Y-73245047D02*
X139361222Y-73305523D01*
X139361222Y-73305523D02*
X139603127Y-73366000D01*
X139603127Y-73366000D02*
X139905508Y-73366000D01*
X139905508Y-73366000D02*
X140147413Y-73305523D01*
X140147413Y-73305523D02*
X140268365Y-73245047D01*
X140268365Y-73245047D02*
X140328842Y-73184571D01*
X140328842Y-73184571D02*
X140389318Y-73063619D01*
X140389318Y-73063619D02*
X140389318Y-72942666D01*
X140389318Y-72942666D02*
X140328842Y-72821714D01*
X140328842Y-72821714D02*
X140268365Y-72761238D01*
X140268365Y-72761238D02*
X140147413Y-72700761D01*
X140147413Y-72700761D02*
X139905508Y-72640285D01*
X139905508Y-72640285D02*
X139603127Y-72640285D01*
X139603127Y-72640285D02*
X139361222Y-72700761D01*
X139361222Y-72700761D02*
X139240270Y-72761238D01*
X139240270Y-72761238D02*
X139179794Y-72821714D01*
X139179794Y-72821714D02*
X139119318Y-72942666D01*
D13*
%TO.C,IC1*%
X95670000Y-83850000D02*
X95670000Y-86150000D01*
X95670000Y-86150000D02*
X98670000Y-86150000D01*
X98670000Y-83850000D02*
X95670000Y-83850000D01*
X98670000Y-86150000D02*
X98670000Y-83850000D01*
X98670000Y-87900000D02*
X98670000Y-86500000D01*
%TO.C,IC7*%
X84715000Y-69273000D02*
X84715000Y-69673000D01*
X84715000Y-73273000D02*
X84715000Y-72873000D01*
X85115000Y-69273000D02*
X84715000Y-69273000D01*
X85115000Y-73273000D02*
X84715000Y-73273000D01*
D14*
X87965000Y-73873000D02*
X87965000Y-73873000D01*
X87965000Y-73973000D02*
X87965000Y-73973000D01*
D13*
X88715000Y-69273000D02*
X88315000Y-69273000D01*
X88715000Y-69673000D02*
X88715000Y-69273000D01*
X88715000Y-72873000D02*
X88715000Y-73273000D01*
X88715000Y-73273000D02*
X88315000Y-73273000D01*
D14*
X87965000Y-73873000D02*
G75*
G02*
X87965000Y-73973000I0J-50000D01*
G01*
X87965000Y-73973000D02*
G75*
G02*
X87965000Y-73873000I0J50000D01*
G01*
D15*
%TO.C,U4*%
X126140000Y-109140000D02*
X126140000Y-109615000D01*
X126140000Y-112360000D02*
X126140000Y-111885000D01*
X126615000Y-109140000D02*
X126140000Y-109140000D01*
X126615000Y-112360000D02*
X126140000Y-112360000D01*
X128885000Y-109140000D02*
X129060000Y-109140000D01*
X128885000Y-112360000D02*
X129360000Y-112360000D01*
X129360000Y-109615000D02*
X129360000Y-109380000D01*
X129360000Y-112360000D02*
X129360000Y-111885000D01*
X129360000Y-109140000D02*
X129120000Y-108810000D01*
X129600000Y-108810000D01*
X129360000Y-109140000D01*
G36*
X129360000Y-109140000D02*
G01*
X129120000Y-108810000D01*
X129600000Y-108810000D01*
X129360000Y-109140000D01*
G37*
%TO.C,C203*%
X161514521Y-78817888D02*
X161667024Y-78665385D01*
X162023638Y-79327005D02*
X162176141Y-79174502D01*
D13*
%TO.C,IC801*%
X136715000Y-99935000D02*
X136715000Y-100410000D01*
X136815000Y-100760000D02*
X136815000Y-101260000D01*
X136815000Y-101260000D02*
X138915000Y-101260000D01*
X138915000Y-100760000D02*
X136815000Y-100760000D01*
X138915000Y-101260000D02*
X138915000Y-100760000D01*
%TO.C,Q5*%
X82188250Y-60030000D02*
X88088250Y-60030000D01*
X82188250Y-65230000D02*
X88088250Y-65230000D01*
D16*
X81374750Y-64535000D02*
G75*
G02*
X81124750Y-64535000I-125000J0D01*
G01*
X81124750Y-64535000D02*
G75*
G02*
X81374750Y-64535000I125000J0D01*
G01*
D13*
%TO.C,IC8*%
X119825000Y-69724000D02*
X119825000Y-70124000D01*
X119825000Y-73724000D02*
X119825000Y-73324000D01*
X120225000Y-69724000D02*
X119825000Y-69724000D01*
X120225000Y-73724000D02*
X119825000Y-73724000D01*
D14*
X123075000Y-74324000D02*
X123075000Y-74324000D01*
X123075000Y-74424000D02*
X123075000Y-74424000D01*
D13*
X123825000Y-69724000D02*
X123425000Y-69724000D01*
X123825000Y-70124000D02*
X123825000Y-69724000D01*
X123825000Y-73324000D02*
X123825000Y-73724000D01*
X123825000Y-73724000D02*
X123425000Y-73724000D01*
D14*
X123075000Y-74324000D02*
G75*
G02*
X123075000Y-74424000I0J-50000D01*
G01*
X123075000Y-74424000D02*
G75*
G02*
X123075000Y-74324000I0J50000D01*
G01*
%TO.C,Q10*%
X117898000Y-100100000D02*
X117898000Y-100100000D01*
X117898000Y-100200000D02*
X117898000Y-100200000D01*
D13*
X124158000Y-92384000D02*
X125098000Y-92384000D01*
X124158000Y-102416000D02*
X124158000Y-92384000D01*
X125098000Y-102416000D02*
X124158000Y-102416000D01*
D14*
X117898000Y-100100000D02*
G75*
G02*
X117898000Y-100200000I0J-50000D01*
G01*
X117898000Y-100200000D02*
G75*
G02*
X117898000Y-100100000I0J50000D01*
G01*
D17*
%TO.C,R1505*%
X83279000Y-84377250D02*
X83279000Y-79302750D01*
X89121000Y-79302750D02*
X89121000Y-84377250D01*
D14*
%TO.C,U802*%
X145665000Y-92775000D02*
X145665000Y-92635000D01*
X145665000Y-94695000D02*
X145665000Y-94835000D01*
X145665000Y-94835000D02*
X145805000Y-94835000D01*
X145805000Y-92635000D02*
X145665000Y-92635000D01*
X147725000Y-92635000D02*
X147865000Y-92635000D01*
X147725000Y-94835000D02*
X147865000Y-94835000D01*
X147865000Y-92775000D02*
X147865000Y-92635000D01*
X147865000Y-93395000D02*
X147865000Y-94075000D01*
X147865000Y-94695000D02*
X147865000Y-94835000D01*
D15*
X145525000Y-92435000D02*
G75*
G02*
X145405000Y-92435000I-60000J0D01*
G01*
X145405000Y-92435000D02*
G75*
G02*
X145525000Y-92435000I60000J0D01*
G01*
D13*
%TO.C,IC3*%
X132410000Y-83850000D02*
X132410000Y-86150000D01*
X132410000Y-86150000D02*
X135410000Y-86150000D01*
X135410000Y-83850000D02*
X132410000Y-83850000D01*
X135410000Y-86150000D02*
X135410000Y-83850000D01*
X135410000Y-87900000D02*
X135410000Y-86500000D01*
%TO.C,IC4*%
X111646667Y-67575000D02*
X111646667Y-69000000D01*
X111696667Y-69350000D02*
X111696667Y-71650000D01*
X111696667Y-71650000D02*
X114696667Y-71650000D01*
X114696667Y-69350000D02*
X111696667Y-69350000D01*
X114696667Y-71650000D02*
X114696667Y-69350000D01*
D15*
%TO.C,C207*%
X160171018Y-80161390D02*
X160323521Y-80008887D01*
X160680135Y-80670507D02*
X160832638Y-80518004D01*
D13*
%TO.C,U2*%
X142115000Y-102060000D02*
X142115000Y-102535000D01*
X142215000Y-102885000D02*
X142215000Y-103385000D01*
X142215000Y-103385000D02*
X144315000Y-103385000D01*
X144315000Y-102885000D02*
X142215000Y-102885000D01*
X144315000Y-103385000D02*
X144315000Y-102885000D01*
%TO.C,IC2001*%
X77650000Y-83860000D02*
X77650000Y-86160000D01*
X77650000Y-86160000D02*
X80650000Y-86160000D01*
X80650000Y-83860000D02*
X77650000Y-83860000D01*
X80650000Y-86160000D02*
X80650000Y-83860000D01*
X80650000Y-87910000D02*
X80650000Y-86510000D01*
D14*
%TO.C,R8*%
X89300000Y-114050000D02*
X89300000Y-114050000D01*
X89400000Y-114050000D02*
X89400000Y-114050000D01*
D13*
X92800000Y-111450000D02*
X98000000Y-111450000D01*
X92800000Y-116650000D02*
X98000000Y-116650000D01*
D14*
X89300000Y-114050000D02*
G75*
G02*
X89400000Y-114050000I50000J0D01*
G01*
X89400000Y-114050000D02*
G75*
G02*
X89300000Y-114050000I-50000J0D01*
G01*
D18*
%TO.C,C806*%
X139519000Y-102064000D02*
X139519000Y-103406000D01*
X139519000Y-103406000D02*
X139519000Y-102064000D01*
X141611000Y-102064000D02*
X141611000Y-103406000D01*
X141611000Y-103406000D02*
X141611000Y-102064000D01*
D17*
%TO.C,R3*%
X137839000Y-84377250D02*
X137839000Y-79302750D01*
X143681000Y-79302750D02*
X143681000Y-84377250D01*
D13*
%TO.C,Q2*%
X135461000Y-60082700D02*
X141361000Y-60082700D01*
X135461000Y-65282700D02*
X141361000Y-65282700D01*
D16*
X134647500Y-64587700D02*
G75*
G02*
X134397500Y-64587700I-125000J0D01*
G01*
X134397500Y-64587700D02*
G75*
G02*
X134647500Y-64587700I125000J0D01*
G01*
D13*
%TO.C,IC702*%
X94828333Y-67575000D02*
X94828333Y-69000000D01*
X94878333Y-69350000D02*
X94878333Y-71650000D01*
X94878333Y-71650000D02*
X97878333Y-71650000D01*
X97878333Y-69350000D02*
X94878333Y-69350000D01*
X97878333Y-71650000D02*
X97878333Y-69350000D01*
%TO.C,IC9*%
X101975000Y-69800000D02*
X101975000Y-70200000D01*
X101975000Y-73800000D02*
X101975000Y-73400000D01*
X102375000Y-69800000D02*
X101975000Y-69800000D01*
X102375000Y-73800000D02*
X101975000Y-73800000D01*
D14*
X105225000Y-74400000D02*
X105225000Y-74400000D01*
X105225000Y-74500000D02*
X105225000Y-74500000D01*
D13*
X105975000Y-69800000D02*
X105575000Y-69800000D01*
X105975000Y-70200000D02*
X105975000Y-69800000D01*
X105975000Y-73400000D02*
X105975000Y-73800000D01*
X105975000Y-73800000D02*
X105575000Y-73800000D01*
D14*
X105225000Y-74400000D02*
G75*
G02*
X105225000Y-74500000I0J-50000D01*
G01*
X105225000Y-74500000D02*
G75*
G02*
X105225000Y-74400000I0J50000D01*
G01*
D15*
%TO.C,U1*%
X147123369Y-74400000D02*
X147795120Y-73728249D01*
X147795120Y-75071751D02*
X147123369Y-74400000D01*
X153678249Y-80954880D02*
X154350000Y-81626631D01*
X154350000Y-67173369D02*
X153678249Y-67845120D01*
X154350000Y-81626631D02*
X155021751Y-80954880D01*
X155021751Y-67845120D02*
X154350000Y-67173369D01*
X160904880Y-73728249D02*
X161576631Y-74400000D01*
X161576631Y-74400000D02*
X160904880Y-75071751D01*
X161912507Y-75414698D02*
X161339751Y-75506622D01*
X161431674Y-74933866D01*
X161912507Y-75414698D01*
G36*
X161912507Y-75414698D02*
G01*
X161339751Y-75506622D01*
X161431674Y-74933866D01*
X161912507Y-75414698D01*
G37*
%TO.C,FB201*%
X148942598Y-80924631D02*
X148712393Y-81154836D01*
X149663847Y-81645880D02*
X149433642Y-81876085D01*
D17*
%TO.C,R1*%
X119652333Y-84377250D02*
X119652333Y-79302750D01*
X125494333Y-79302750D02*
X125494333Y-84377250D01*
D15*
%TO.C,L803*%
X146735000Y-96175000D02*
X145595000Y-96175000D01*
X146735000Y-100295000D02*
X145595000Y-100295000D01*
D13*
%TO.C,Q8*%
X98080167Y-61370200D02*
X92180167Y-61370200D01*
X98080167Y-66570200D02*
X92180167Y-66570200D01*
D16*
X99143667Y-62065200D02*
G75*
G02*
X98893667Y-62065200I-125000J0D01*
G01*
X98893667Y-62065200D02*
G75*
G02*
X99143667Y-62065200I125000J0D01*
G01*
D13*
%TO.C,IC6*%
X93700000Y-102600000D02*
X93700000Y-104000000D01*
X93700000Y-104350000D02*
X93700000Y-106650000D01*
X93700000Y-106650000D02*
X96700000Y-106650000D01*
X96700000Y-104350000D02*
X93700000Y-104350000D01*
X96700000Y-106650000D02*
X96700000Y-104350000D01*
%TO.C,IC2*%
X114040000Y-83850000D02*
X114040000Y-86150000D01*
X114040000Y-86150000D02*
X117040000Y-86150000D01*
X117040000Y-83850000D02*
X114040000Y-83850000D01*
X117040000Y-86150000D02*
X117040000Y-83850000D01*
X117040000Y-87900000D02*
X117040000Y-86500000D01*
%TO.C,IC701*%
X78010000Y-67575000D02*
X78010000Y-69000000D01*
X78060000Y-69350000D02*
X78060000Y-71650000D01*
X78060000Y-71650000D02*
X81060000Y-71650000D01*
X81060000Y-69350000D02*
X78060000Y-69350000D01*
X81060000Y-71650000D02*
X81060000Y-69350000D01*
%TO.C,IC10*%
X137815000Y-69461000D02*
X137815000Y-69861000D01*
X137815000Y-73461000D02*
X137815000Y-73061000D01*
X138215000Y-69461000D02*
X137815000Y-69461000D01*
X138215000Y-73461000D02*
X137815000Y-73461000D01*
D14*
X141065000Y-74061000D02*
X141065000Y-74061000D01*
X141065000Y-74161000D02*
X141065000Y-74161000D01*
D13*
X141815000Y-69461000D02*
X141415000Y-69461000D01*
X141815000Y-69861000D02*
X141815000Y-69461000D01*
X141815000Y-73061000D02*
X141815000Y-73461000D01*
X141815000Y-73461000D02*
X141415000Y-73461000D01*
D14*
X141065000Y-74061000D02*
G75*
G02*
X141065000Y-74161000I0J-50000D01*
G01*
X141065000Y-74161000D02*
G75*
G02*
X141065000Y-74061000I0J50000D01*
G01*
D13*
%TO.C,Q1*%
X117758083Y-59970200D02*
X123658083Y-59970200D01*
X117758083Y-65170200D02*
X123658083Y-65170200D01*
D16*
X116944583Y-64475200D02*
G75*
G02*
X116694583Y-64475200I-125000J0D01*
G01*
X116694583Y-64475200D02*
G75*
G02*
X116944583Y-64475200I125000J0D01*
G01*
D13*
%TO.C,Q4*%
X133650000Y-61302700D02*
X127750000Y-61302700D01*
X133650000Y-66502700D02*
X127750000Y-66502700D01*
D16*
X134713500Y-61997700D02*
G75*
G02*
X134463500Y-61997700I-125000J0D01*
G01*
X134463500Y-61997700D02*
G75*
G02*
X134713500Y-61997700I125000J0D01*
G01*
D17*
%TO.C,R2*%
X101379000Y-84337250D02*
X101379000Y-79262750D01*
X107221000Y-79262750D02*
X107221000Y-84337250D01*
D15*
%TO.C,L802*%
X139505000Y-99135000D02*
X139505000Y-97935000D01*
X143025000Y-99135000D02*
X143025000Y-97935000D01*
D13*
%TO.C,IC5*%
X129375000Y-67575000D02*
X129375000Y-69000000D01*
X129425000Y-69350000D02*
X129425000Y-71650000D01*
X129425000Y-71650000D02*
X132425000Y-71650000D01*
X132425000Y-69350000D02*
X129425000Y-69350000D01*
X132425000Y-71650000D02*
X132425000Y-69350000D01*
%TO.C,Q7*%
X99918167Y-60015200D02*
X105818167Y-60015200D01*
X99918167Y-65215200D02*
X105818167Y-65215200D01*
D16*
X99104667Y-64520200D02*
G75*
G02*
X98854667Y-64520200I-125000J0D01*
G01*
X98854667Y-64520200D02*
G75*
G02*
X99104667Y-64520200I125000J0D01*
G01*
D13*
%TO.C,Q3*%
X115810083Y-61415200D02*
X109910083Y-61415200D01*
X115810083Y-66615200D02*
X109910083Y-66615200D01*
D16*
X116873583Y-62110200D02*
G75*
G02*
X116623583Y-62110200I-125000J0D01*
G01*
X116623583Y-62110200D02*
G75*
G02*
X116873583Y-62110200I125000J0D01*
G01*
D14*
%TO.C,Y201*%
X159326594Y-85589336D02*
X159468723Y-85731464D01*
X159786921Y-83504078D02*
X159504078Y-83786921D01*
X161554688Y-85271845D02*
X161271845Y-85554688D01*
X161589336Y-83326594D02*
X161731464Y-83468723D01*
D13*
X162650703Y-85095068D02*
X162650703Y-85095068D01*
X162792124Y-84953647D02*
X162792124Y-84953647D01*
X162650703Y-85095068D02*
G75*
G02*
X162792124Y-84953647I70710J70711D01*
G01*
X162792124Y-84953647D02*
G75*
G02*
X162650703Y-85095068I-70711J-70710D01*
G01*
%TO.C,Q6*%
X80317250Y-61355400D02*
X74417250Y-61355400D01*
X80317250Y-66555400D02*
X74417250Y-66555400D01*
D16*
X81380750Y-62050400D02*
G75*
G02*
X81130750Y-62050400I-125000J0D01*
G01*
X81130750Y-62050400D02*
G75*
G02*
X81380750Y-62050400I125000J0D01*
G01*
%TD*%
%LPC*%
D19*
%TO.C,Q5*%
G36*
X82859750Y-60980400D02*
G01*
X81794750Y-60980400D01*
X81794750Y-60470400D01*
X82859750Y-60470400D01*
X82859750Y-60980400D01*
G37*
G36*
X82859750Y-64940000D02*
G01*
X82344750Y-64940000D01*
X82344750Y-61740000D01*
X82859750Y-61740000D01*
X82859750Y-64940000D01*
G37*
G36*
X82859750Y-64790000D02*
G01*
X81794750Y-64790000D01*
X81794750Y-64280000D01*
X82859750Y-64280000D01*
X82859750Y-64790000D01*
G37*
G36*
X87730250Y-64840000D02*
G01*
X83990250Y-64840000D01*
X83990250Y-60420000D01*
X87730250Y-60420000D01*
X87730250Y-64840000D01*
G37*
G36*
X88455250Y-60980000D02*
G01*
X87645250Y-60980000D01*
X87645250Y-60470000D01*
X88455250Y-60470000D01*
X88455250Y-60980000D01*
G37*
G36*
X88455250Y-62250000D02*
G01*
X87645250Y-62250000D01*
X87645250Y-61740000D01*
X88455250Y-61740000D01*
X88455250Y-62250000D01*
G37*
G36*
X88455250Y-63520000D02*
G01*
X87645250Y-63520000D01*
X87645250Y-63010000D01*
X88455250Y-63010000D01*
X88455250Y-63520000D01*
G37*
G36*
X88455250Y-64790000D02*
G01*
X87645250Y-64790000D01*
X87645250Y-64280000D01*
X88455250Y-64280000D01*
X88455250Y-64790000D01*
G37*
%TO.C,U802*%
G36*
X146099411Y-92485175D02*
G01*
X146108941Y-92488066D01*
X146117722Y-92492762D01*
X146125420Y-92499079D01*
X146175420Y-92549079D01*
X146181737Y-92556778D01*
X146186434Y-92565559D01*
X146189324Y-92575089D01*
X146190300Y-92585000D01*
X146190300Y-93235001D01*
X146189324Y-93244912D01*
X146186434Y-93254442D01*
X146181737Y-93263223D01*
X146175420Y-93270922D01*
X146125420Y-93320922D01*
X146117722Y-93327239D01*
X146108941Y-93331935D01*
X146099411Y-93334826D01*
X146089500Y-93335801D01*
X145614499Y-93335801D01*
X145604588Y-93334826D01*
X145595058Y-93331935D01*
X145586277Y-93327239D01*
X145578579Y-93320922D01*
X145528579Y-93270922D01*
X145522262Y-93263223D01*
X145517565Y-93254442D01*
X145514675Y-93244912D01*
X145513699Y-93235001D01*
X145513699Y-92935002D01*
X145514675Y-92925091D01*
X145517565Y-92915560D01*
X145522262Y-92906780D01*
X145528579Y-92899081D01*
X145578579Y-92849081D01*
X145586277Y-92842764D01*
X145595058Y-92838068D01*
X145604588Y-92835177D01*
X145614499Y-92834202D01*
X145843458Y-92834202D01*
X145863699Y-92813960D01*
X145863699Y-92585000D01*
X145864674Y-92575089D01*
X145867565Y-92565559D01*
X145872261Y-92556778D01*
X145878578Y-92549079D01*
X145928578Y-92499079D01*
X145936277Y-92492762D01*
X145945058Y-92488066D01*
X145954588Y-92485175D01*
X145964499Y-92484200D01*
X146089500Y-92484200D01*
X146099411Y-92485175D01*
G37*
G36*
X146099411Y-94135174D02*
G01*
X146108941Y-94138065D01*
X146117722Y-94142761D01*
X146125420Y-94149078D01*
X146175420Y-94199078D01*
X146181737Y-94206777D01*
X146186434Y-94215558D01*
X146189324Y-94225088D01*
X146190300Y-94234999D01*
X146190300Y-94885000D01*
X146189324Y-94894911D01*
X146186434Y-94904441D01*
X146181737Y-94913222D01*
X146175420Y-94920921D01*
X146125420Y-94970921D01*
X146117722Y-94977238D01*
X146108941Y-94981934D01*
X146099411Y-94984825D01*
X146089500Y-94985800D01*
X145964499Y-94985800D01*
X145954588Y-94984825D01*
X145945058Y-94981934D01*
X145936277Y-94977238D01*
X145928578Y-94970921D01*
X145878578Y-94920921D01*
X145872261Y-94913222D01*
X145867565Y-94904441D01*
X145864674Y-94894911D01*
X145863699Y-94885000D01*
X145863699Y-94656040D01*
X145843458Y-94635798D01*
X145614499Y-94635798D01*
X145604588Y-94634823D01*
X145595058Y-94631932D01*
X145586277Y-94627236D01*
X145578579Y-94620919D01*
X145528579Y-94570919D01*
X145522262Y-94563220D01*
X145517565Y-94554440D01*
X145514675Y-94544909D01*
X145513699Y-94534998D01*
X145513699Y-94234999D01*
X145514675Y-94225088D01*
X145517565Y-94215558D01*
X145522262Y-94206777D01*
X145528579Y-94199078D01*
X145578579Y-94149078D01*
X145586277Y-94142761D01*
X145595058Y-94138065D01*
X145604588Y-94135174D01*
X145614499Y-94134199D01*
X146089500Y-94134199D01*
X146099411Y-94135174D01*
G37*
G36*
X147575412Y-92485175D02*
G01*
X147584942Y-92488066D01*
X147593723Y-92492762D01*
X147601422Y-92499079D01*
X147651422Y-92549079D01*
X147657739Y-92556778D01*
X147662435Y-92565559D01*
X147665326Y-92575089D01*
X147666301Y-92585000D01*
X147666301Y-92813960D01*
X147686542Y-92834202D01*
X147915501Y-92834202D01*
X147925412Y-92835177D01*
X147934942Y-92838068D01*
X147943723Y-92842764D01*
X147951421Y-92849081D01*
X148001421Y-92899081D01*
X148007738Y-92906780D01*
X148012435Y-92915560D01*
X148015325Y-92925091D01*
X148016301Y-92935002D01*
X148016303Y-93235001D01*
X148015328Y-93244912D01*
X148012437Y-93254442D01*
X148007741Y-93263223D01*
X148001424Y-93270922D01*
X147951424Y-93320922D01*
X147943725Y-93327239D01*
X147934944Y-93331935D01*
X147925414Y-93334826D01*
X147915503Y-93335801D01*
X147440500Y-93335801D01*
X147430589Y-93334826D01*
X147421059Y-93331935D01*
X147412278Y-93327239D01*
X147404580Y-93320922D01*
X147354580Y-93270922D01*
X147348263Y-93263223D01*
X147343566Y-93254442D01*
X147340676Y-93244912D01*
X147339700Y-93235001D01*
X147339700Y-92585000D01*
X147340676Y-92575089D01*
X147343566Y-92565559D01*
X147348263Y-92556778D01*
X147354580Y-92549079D01*
X147404580Y-92499079D01*
X147412278Y-92492762D01*
X147421059Y-92488066D01*
X147430589Y-92485175D01*
X147440500Y-92484200D01*
X147565501Y-92484200D01*
X147575412Y-92485175D01*
G37*
G36*
X147925414Y-94135174D02*
G01*
X147934944Y-94138065D01*
X147943725Y-94142761D01*
X147951424Y-94149078D01*
X148001424Y-94199078D01*
X148007741Y-94206777D01*
X148012437Y-94215558D01*
X148015328Y-94225088D01*
X148016303Y-94234999D01*
X148016301Y-94534998D01*
X148015325Y-94544909D01*
X148012435Y-94554440D01*
X148007738Y-94563220D01*
X148001421Y-94570919D01*
X147951421Y-94620919D01*
X147943723Y-94627236D01*
X147934942Y-94631932D01*
X147925412Y-94634823D01*
X147915501Y-94635798D01*
X147686542Y-94635798D01*
X147666301Y-94656040D01*
X147666301Y-94885000D01*
X147665326Y-94894911D01*
X147662435Y-94904441D01*
X147657739Y-94913222D01*
X147651422Y-94920921D01*
X147601422Y-94970921D01*
X147593723Y-94977238D01*
X147584942Y-94981934D01*
X147575412Y-94984825D01*
X147565501Y-94985800D01*
X147440500Y-94985800D01*
X147430589Y-94984825D01*
X147421059Y-94981934D01*
X147412278Y-94977238D01*
X147404580Y-94970921D01*
X147354580Y-94920921D01*
X147348263Y-94913222D01*
X147343566Y-94904441D01*
X147340676Y-94894911D01*
X147339700Y-94885000D01*
X147339700Y-94234999D01*
X147340676Y-94225088D01*
X147343566Y-94215558D01*
X147348263Y-94206777D01*
X147354580Y-94199078D01*
X147404580Y-94149078D01*
X147412278Y-94142761D01*
X147421059Y-94138065D01*
X147430589Y-94135174D01*
X147440500Y-94134199D01*
X147915503Y-94134199D01*
X147925414Y-94135174D01*
G37*
%TO.C,Q2*%
G36*
X136132500Y-61033100D02*
G01*
X135067500Y-61033100D01*
X135067500Y-60523100D01*
X136132500Y-60523100D01*
X136132500Y-61033100D01*
G37*
G36*
X136132500Y-64992700D02*
G01*
X135617500Y-64992700D01*
X135617500Y-61792700D01*
X136132500Y-61792700D01*
X136132500Y-64992700D01*
G37*
G36*
X136132500Y-64842700D02*
G01*
X135067500Y-64842700D01*
X135067500Y-64332700D01*
X136132500Y-64332700D01*
X136132500Y-64842700D01*
G37*
G36*
X141003000Y-64892700D02*
G01*
X137263000Y-64892700D01*
X137263000Y-60472700D01*
X141003000Y-60472700D01*
X141003000Y-64892700D01*
G37*
G36*
X141728000Y-61032700D02*
G01*
X140918000Y-61032700D01*
X140918000Y-60522700D01*
X141728000Y-60522700D01*
X141728000Y-61032700D01*
G37*
G36*
X141728000Y-62302700D02*
G01*
X140918000Y-62302700D01*
X140918000Y-61792700D01*
X141728000Y-61792700D01*
X141728000Y-62302700D01*
G37*
G36*
X141728000Y-63572700D02*
G01*
X140918000Y-63572700D01*
X140918000Y-63062700D01*
X141728000Y-63062700D01*
X141728000Y-63572700D01*
G37*
G36*
X141728000Y-64842700D02*
G01*
X140918000Y-64842700D01*
X140918000Y-64332700D01*
X141728000Y-64332700D01*
X141728000Y-64842700D01*
G37*
%TO.C,Q8*%
G36*
X92623167Y-62320200D02*
G01*
X91813167Y-62320200D01*
X91813167Y-61810200D01*
X92623167Y-61810200D01*
X92623167Y-62320200D01*
G37*
G36*
X92623167Y-63590200D02*
G01*
X91813167Y-63590200D01*
X91813167Y-63080200D01*
X92623167Y-63080200D01*
X92623167Y-63590200D01*
G37*
G36*
X92623167Y-64860200D02*
G01*
X91813167Y-64860200D01*
X91813167Y-64350200D01*
X92623167Y-64350200D01*
X92623167Y-64860200D01*
G37*
G36*
X92623167Y-66130200D02*
G01*
X91813167Y-66130200D01*
X91813167Y-65620200D01*
X92623167Y-65620200D01*
X92623167Y-66130200D01*
G37*
G36*
X96278167Y-66180200D02*
G01*
X92538167Y-66180200D01*
X92538167Y-61760200D01*
X96278167Y-61760200D01*
X96278167Y-66180200D01*
G37*
G36*
X98473667Y-62320200D02*
G01*
X97408667Y-62320200D01*
X97408667Y-61810200D01*
X98473667Y-61810200D01*
X98473667Y-62320200D01*
G37*
G36*
X97923667Y-64860200D02*
G01*
X97408667Y-64860200D01*
X97408667Y-61660200D01*
X97923667Y-61660200D01*
X97923667Y-64860200D01*
G37*
G36*
X98473667Y-66129800D02*
G01*
X97408667Y-66129800D01*
X97408667Y-65619800D01*
X98473667Y-65619800D01*
X98473667Y-66129800D01*
G37*
%TO.C,Q1*%
G36*
X118429583Y-60920600D02*
G01*
X117364583Y-60920600D01*
X117364583Y-60410600D01*
X118429583Y-60410600D01*
X118429583Y-60920600D01*
G37*
G36*
X118429583Y-64880200D02*
G01*
X117914583Y-64880200D01*
X117914583Y-61680200D01*
X118429583Y-61680200D01*
X118429583Y-64880200D01*
G37*
G36*
X118429583Y-64730200D02*
G01*
X117364583Y-64730200D01*
X117364583Y-64220200D01*
X118429583Y-64220200D01*
X118429583Y-64730200D01*
G37*
G36*
X123300083Y-64780200D02*
G01*
X119560083Y-64780200D01*
X119560083Y-60360200D01*
X123300083Y-60360200D01*
X123300083Y-64780200D01*
G37*
G36*
X124025083Y-60920200D02*
G01*
X123215083Y-60920200D01*
X123215083Y-60410200D01*
X124025083Y-60410200D01*
X124025083Y-60920200D01*
G37*
G36*
X124025083Y-62190200D02*
G01*
X123215083Y-62190200D01*
X123215083Y-61680200D01*
X124025083Y-61680200D01*
X124025083Y-62190200D01*
G37*
G36*
X124025083Y-63460200D02*
G01*
X123215083Y-63460200D01*
X123215083Y-62950200D01*
X124025083Y-62950200D01*
X124025083Y-63460200D01*
G37*
G36*
X124025083Y-64730200D02*
G01*
X123215083Y-64730200D01*
X123215083Y-64220200D01*
X124025083Y-64220200D01*
X124025083Y-64730200D01*
G37*
%TO.C,Q4*%
G36*
X128193000Y-62252700D02*
G01*
X127383000Y-62252700D01*
X127383000Y-61742700D01*
X128193000Y-61742700D01*
X128193000Y-62252700D01*
G37*
G36*
X128193000Y-63522700D02*
G01*
X127383000Y-63522700D01*
X127383000Y-63012700D01*
X128193000Y-63012700D01*
X128193000Y-63522700D01*
G37*
G36*
X128193000Y-64792700D02*
G01*
X127383000Y-64792700D01*
X127383000Y-64282700D01*
X128193000Y-64282700D01*
X128193000Y-64792700D01*
G37*
G36*
X128193000Y-66062700D02*
G01*
X127383000Y-66062700D01*
X127383000Y-65552700D01*
X128193000Y-65552700D01*
X128193000Y-66062700D01*
G37*
G36*
X131848000Y-66112700D02*
G01*
X128108000Y-66112700D01*
X128108000Y-61692700D01*
X131848000Y-61692700D01*
X131848000Y-66112700D01*
G37*
G36*
X134043500Y-62252700D02*
G01*
X132978500Y-62252700D01*
X132978500Y-61742700D01*
X134043500Y-61742700D01*
X134043500Y-62252700D01*
G37*
G36*
X133493500Y-64792700D02*
G01*
X132978500Y-64792700D01*
X132978500Y-61592700D01*
X133493500Y-61592700D01*
X133493500Y-64792700D01*
G37*
G36*
X134043500Y-66062300D02*
G01*
X132978500Y-66062300D01*
X132978500Y-65552300D01*
X134043500Y-65552300D01*
X134043500Y-66062300D01*
G37*
%TO.C,Q7*%
G36*
X100589667Y-60965600D02*
G01*
X99524667Y-60965600D01*
X99524667Y-60455600D01*
X100589667Y-60455600D01*
X100589667Y-60965600D01*
G37*
G36*
X100589667Y-64925200D02*
G01*
X100074667Y-64925200D01*
X100074667Y-61725200D01*
X100589667Y-61725200D01*
X100589667Y-64925200D01*
G37*
G36*
X100589667Y-64775200D02*
G01*
X99524667Y-64775200D01*
X99524667Y-64265200D01*
X100589667Y-64265200D01*
X100589667Y-64775200D01*
G37*
G36*
X105460167Y-64825200D02*
G01*
X101720167Y-64825200D01*
X101720167Y-60405200D01*
X105460167Y-60405200D01*
X105460167Y-64825200D01*
G37*
G36*
X106185167Y-60965200D02*
G01*
X105375167Y-60965200D01*
X105375167Y-60455200D01*
X106185167Y-60455200D01*
X106185167Y-60965200D01*
G37*
G36*
X106185167Y-62235200D02*
G01*
X105375167Y-62235200D01*
X105375167Y-61725200D01*
X106185167Y-61725200D01*
X106185167Y-62235200D01*
G37*
G36*
X106185167Y-63505200D02*
G01*
X105375167Y-63505200D01*
X105375167Y-62995200D01*
X106185167Y-62995200D01*
X106185167Y-63505200D01*
G37*
G36*
X106185167Y-64775200D02*
G01*
X105375167Y-64775200D01*
X105375167Y-64265200D01*
X106185167Y-64265200D01*
X106185167Y-64775200D01*
G37*
%TO.C,Q3*%
G36*
X110353083Y-62365200D02*
G01*
X109543083Y-62365200D01*
X109543083Y-61855200D01*
X110353083Y-61855200D01*
X110353083Y-62365200D01*
G37*
G36*
X110353083Y-63635200D02*
G01*
X109543083Y-63635200D01*
X109543083Y-63125200D01*
X110353083Y-63125200D01*
X110353083Y-63635200D01*
G37*
G36*
X110353083Y-64905200D02*
G01*
X109543083Y-64905200D01*
X109543083Y-64395200D01*
X110353083Y-64395200D01*
X110353083Y-64905200D01*
G37*
G36*
X110353083Y-66175200D02*
G01*
X109543083Y-66175200D01*
X109543083Y-65665200D01*
X110353083Y-65665200D01*
X110353083Y-66175200D01*
G37*
G36*
X114008083Y-66225200D02*
G01*
X110268083Y-66225200D01*
X110268083Y-61805200D01*
X114008083Y-61805200D01*
X114008083Y-66225200D01*
G37*
G36*
X116203583Y-62365200D02*
G01*
X115138583Y-62365200D01*
X115138583Y-61855200D01*
X116203583Y-61855200D01*
X116203583Y-62365200D01*
G37*
G36*
X115653583Y-64905200D02*
G01*
X115138583Y-64905200D01*
X115138583Y-61705200D01*
X115653583Y-61705200D01*
X115653583Y-64905200D01*
G37*
G36*
X116203583Y-66174800D02*
G01*
X115138583Y-66174800D01*
X115138583Y-65664800D01*
X116203583Y-65664800D01*
X116203583Y-66174800D01*
G37*
%TO.C,Q6*%
G36*
X74860250Y-62305400D02*
G01*
X74050250Y-62305400D01*
X74050250Y-61795400D01*
X74860250Y-61795400D01*
X74860250Y-62305400D01*
G37*
G36*
X74860250Y-63575400D02*
G01*
X74050250Y-63575400D01*
X74050250Y-63065400D01*
X74860250Y-63065400D01*
X74860250Y-63575400D01*
G37*
G36*
X74860250Y-64845400D02*
G01*
X74050250Y-64845400D01*
X74050250Y-64335400D01*
X74860250Y-64335400D01*
X74860250Y-64845400D01*
G37*
G36*
X74860250Y-66115400D02*
G01*
X74050250Y-66115400D01*
X74050250Y-65605400D01*
X74860250Y-65605400D01*
X74860250Y-66115400D01*
G37*
G36*
X78515250Y-66165400D02*
G01*
X74775250Y-66165400D01*
X74775250Y-61745400D01*
X78515250Y-61745400D01*
X78515250Y-66165400D01*
G37*
G36*
X80710750Y-62305400D02*
G01*
X79645750Y-62305400D01*
X79645750Y-61795400D01*
X80710750Y-61795400D01*
X80710750Y-62305400D01*
G37*
G36*
X80160750Y-64845400D02*
G01*
X79645750Y-64845400D01*
X79645750Y-61645400D01*
X80160750Y-61645400D01*
X80160750Y-64845400D01*
G37*
G36*
X80710750Y-66115000D02*
G01*
X79645750Y-66115000D01*
X79645750Y-65605000D01*
X80710750Y-65605000D01*
X80710750Y-66115000D01*
G37*
%TD*%
D20*
%TO.C,H2*%
X154183000Y-114666726D03*
X154666274Y-113500000D03*
X154666274Y-115833452D03*
X155833000Y-113016726D03*
D21*
X155833000Y-114666726D03*
D20*
X155833000Y-116316726D03*
X156999726Y-113500000D03*
X156999726Y-115833452D03*
X157483000Y-114666726D03*
%TD*%
D22*
%TO.C,J18*%
X137500000Y-89950000D03*
D23*
X132500000Y-89950000D03*
%TD*%
D22*
%TO.C,J11*%
X75600000Y-80500000D03*
D23*
X75600000Y-75500000D03*
%TD*%
D20*
%TO.C,H3*%
X69183274Y-44666726D03*
X69666548Y-43500000D03*
X69666548Y-45833452D03*
X70833274Y-43016726D03*
D21*
X70833274Y-44666726D03*
D20*
X70833274Y-46316726D03*
X72000000Y-43500000D03*
X72000000Y-45833452D03*
X72483274Y-44666726D03*
%TD*%
D24*
%TO.C,J1*%
X87750000Y-100700000D03*
D25*
X80550000Y-100700000D03*
D23*
X90900000Y-106700000D03*
X77400000Y-106700000D03*
%TD*%
D26*
%TO.C,J403*%
X158785000Y-106690000D03*
X158785000Y-100910000D03*
D27*
X158285000Y-108120000D03*
D28*
X162465000Y-108120000D03*
D27*
X158285000Y-99480000D03*
D28*
X162465000Y-99480000D03*
%TD*%
D20*
%TO.C,H1*%
X154183000Y-44666726D03*
X154666274Y-43500000D03*
X154666274Y-45833452D03*
X155833000Y-43016726D03*
D21*
X155833000Y-44666726D03*
D20*
X155833000Y-46316726D03*
X156999726Y-43500000D03*
X156999726Y-45833452D03*
X157483000Y-44666726D03*
%TD*%
D22*
%TO.C,J12*%
X93600000Y-80500000D03*
D23*
X93600000Y-75500000D03*
%TD*%
D22*
%TO.C,J17*%
X119500000Y-89950000D03*
D23*
X114500000Y-89950000D03*
%TD*%
D29*
%TO.C,J3*%
X78450000Y-56812500D03*
X83450000Y-56812500D03*
D30*
X75450000Y-51812500D03*
X86450000Y-51812500D03*
%TD*%
D29*
%TO.C,J5*%
X114450000Y-56812500D03*
X119450000Y-56812500D03*
D30*
X111450000Y-51812500D03*
X122450000Y-51812500D03*
%TD*%
D22*
%TO.C,J7*%
X83500000Y-89950000D03*
D23*
X78500000Y-89950000D03*
%TD*%
D24*
%TO.C,J2*%
X110900000Y-101287500D03*
D25*
X103700000Y-101287500D03*
D23*
X114050000Y-107287500D03*
X100550000Y-107287500D03*
%TD*%
D31*
%TO.C,J16*%
X142930000Y-111850000D03*
X142930000Y-110580000D03*
X144200000Y-111850000D03*
X144200000Y-110580000D03*
X145470000Y-111850000D03*
X145470000Y-110580000D03*
X146740000Y-111850000D03*
X146740000Y-110580000D03*
X148010000Y-111850000D03*
X148010000Y-110580000D03*
%TD*%
D22*
%TO.C,J13*%
X111600000Y-80500000D03*
D23*
X111600000Y-75500000D03*
%TD*%
D22*
%TO.C,J14*%
X129600000Y-80500000D03*
D23*
X129600000Y-75500000D03*
%TD*%
D22*
%TO.C,J8*%
X101500000Y-89950000D03*
D23*
X96500000Y-89950000D03*
%TD*%
D20*
%TO.C,H501*%
X69183274Y-114666726D03*
X69666548Y-113500000D03*
X69666548Y-115833452D03*
X70833274Y-113016726D03*
D21*
X70833274Y-114666726D03*
D20*
X70833274Y-116316726D03*
X72000000Y-113500000D03*
X72000000Y-115833452D03*
X72483274Y-114666726D03*
%TD*%
D29*
%TO.C,J6*%
X132450000Y-56812500D03*
X137450000Y-56812500D03*
D30*
X129450000Y-51812500D03*
X140450000Y-51812500D03*
%TD*%
D29*
%TO.C,J4*%
X96450000Y-56812500D03*
X101450000Y-56812500D03*
D30*
X93450000Y-51812500D03*
X104450000Y-51812500D03*
%TD*%
D32*
%TO.C,IC1*%
X98170000Y-87200000D03*
X97670000Y-87200000D03*
X97170000Y-87200000D03*
X96670000Y-87200000D03*
X96170000Y-87200000D03*
X96170000Y-82800000D03*
X96670000Y-82800000D03*
X97170000Y-82800000D03*
X97670000Y-82800000D03*
X98170000Y-82800000D03*
%TD*%
D33*
%TO.C,R806*%
X136115000Y-100135000D03*
X136115000Y-100935000D03*
%TD*%
D34*
%TO.C,C27*%
X86765000Y-75686000D03*
X85965000Y-75686000D03*
%TD*%
D35*
%TO.C,R26*%
X131000000Y-112900000D03*
X131000000Y-112100000D03*
%TD*%
D34*
%TO.C,C14*%
X135302000Y-70711000D03*
X134502000Y-70711000D03*
%TD*%
D36*
%TO.C,C23*%
X126100000Y-113500000D03*
X126100000Y-114300000D03*
%TD*%
%TO.C,C32*%
X127100000Y-113500000D03*
X127100000Y-114300000D03*
%TD*%
%TO.C,C33*%
X135400000Y-109000000D03*
X135400000Y-109800000D03*
%TD*%
D37*
%TO.C,IC7*%
X87965000Y-73186000D03*
X87465000Y-73186000D03*
X86965000Y-73186000D03*
X86465000Y-73186000D03*
X85965000Y-73186000D03*
X85465000Y-73186000D03*
D38*
X84802000Y-72523000D03*
X84802000Y-72023000D03*
X84802000Y-71523000D03*
X84802000Y-71023000D03*
X84802000Y-70523000D03*
X84802000Y-70023000D03*
D37*
X85465000Y-69360000D03*
X85965000Y-69360000D03*
X86465000Y-69360000D03*
X86965000Y-69360000D03*
X87465000Y-69360000D03*
X87965000Y-69360000D03*
D38*
X88628000Y-70023000D03*
X88628000Y-70523000D03*
X88628000Y-71023000D03*
X88628000Y-71523000D03*
X88628000Y-72023000D03*
X88628000Y-72523000D03*
D39*
X87340000Y-71273000D03*
D40*
X85790000Y-71273000D03*
%TD*%
D34*
%TO.C,C19*%
X100138000Y-70950000D03*
X99338000Y-70950000D03*
%TD*%
D41*
%TO.C,U4*%
X129187500Y-110000000D03*
X129187500Y-110500000D03*
X129187500Y-111000000D03*
X129187500Y-111500000D03*
D42*
X128500000Y-112187500D03*
X128000000Y-112187500D03*
X127500000Y-112187500D03*
X127000000Y-112187500D03*
D41*
X126312500Y-111500000D03*
X126312500Y-111000000D03*
X126312500Y-110500000D03*
X126312500Y-110000000D03*
D42*
X127000000Y-109312500D03*
X127500000Y-109312500D03*
X128000000Y-109312500D03*
X128500000Y-109312500D03*
D43*
X127750000Y-110750000D03*
%TD*%
D33*
%TO.C,R802*%
X144865000Y-93035000D03*
X144865000Y-93835000D03*
%TD*%
D34*
%TO.C,C28*%
X101370000Y-75720000D03*
X100570000Y-75720000D03*
%TD*%
D44*
%TO.C,R14*%
X130500000Y-109100000D03*
X131300000Y-109100000D03*
%TD*%
D45*
%TO.C,C817*%
X146665000Y-101735000D03*
X148265000Y-101735000D03*
%TD*%
D46*
%TO.C,C203*%
X161505920Y-79335606D03*
X162184742Y-78656784D03*
%TD*%
D47*
%TO.C,R24*%
X101988000Y-68100000D03*
X101188000Y-68100000D03*
%TD*%
D48*
%TO.C,C406*%
X162217157Y-76882843D03*
X162782843Y-76317157D03*
%TD*%
D49*
%TO.C,IC801*%
X137115000Y-100172000D03*
X137615000Y-100172000D03*
X138115000Y-100172000D03*
X138615000Y-100172000D03*
X138615000Y-101848000D03*
X138115000Y-101848000D03*
X137615000Y-101848000D03*
X137115000Y-101848000D03*
%TD*%
D50*
%TO.C,R38*%
X79800000Y-76500000D03*
X78500000Y-76500000D03*
%TD*%
D51*
%TO.C,Q5*%
X82327250Y-63265400D03*
X82327250Y-61995000D03*
%TD*%
D34*
%TO.C,C15*%
X82865000Y-71436000D03*
X82065000Y-71436000D03*
%TD*%
D37*
%TO.C,IC8*%
X123075000Y-73637000D03*
X122575000Y-73637000D03*
X122075000Y-73637000D03*
X121575000Y-73637000D03*
X121075000Y-73637000D03*
X120575000Y-73637000D03*
D38*
X119912000Y-72974000D03*
X119912000Y-72474000D03*
X119912000Y-71974000D03*
X119912000Y-71474000D03*
X119912000Y-70974000D03*
X119912000Y-70474000D03*
D37*
X120575000Y-69811000D03*
X121075000Y-69811000D03*
X121575000Y-69811000D03*
X122075000Y-69811000D03*
X122575000Y-69811000D03*
X123075000Y-69811000D03*
D38*
X123738000Y-70474000D03*
X123738000Y-70974000D03*
X123738000Y-71474000D03*
X123738000Y-71974000D03*
X123738000Y-72474000D03*
X123738000Y-72974000D03*
D39*
X122450000Y-71724000D03*
D40*
X120900000Y-71724000D03*
%TD*%
D52*
%TO.C,C414*%
X148516369Y-78748707D03*
X147950683Y-79314393D03*
%TD*%
D33*
%TO.C,R49*%
X152480000Y-62190000D03*
X152480000Y-62990000D03*
%TD*%
D52*
%TO.C,C416*%
X147314287Y-77546625D03*
X146748601Y-78112311D03*
%TD*%
D47*
%TO.C,R803*%
X145665000Y-91835000D03*
X144865000Y-91835000D03*
%TD*%
%TO.C,R12*%
X82865000Y-68236000D03*
X82065000Y-68236000D03*
%TD*%
D53*
%TO.C,Q10*%
X120094000Y-99940000D03*
D54*
X130000000Y-97400000D03*
D53*
X120094000Y-94860000D03*
%TD*%
D55*
%TO.C,C702*%
X93600000Y-72900000D03*
X93600000Y-72100000D03*
%TD*%
D34*
%TO.C,C13*%
X86565000Y-67486000D03*
X85765000Y-67486000D03*
%TD*%
D56*
%TO.C,C811*%
X149715000Y-92835000D03*
X151215000Y-92835000D03*
%TD*%
D57*
%TO.C,R50*%
X157617157Y-81417157D03*
X158182843Y-81982843D03*
%TD*%
D44*
%TO.C,R21*%
X102770000Y-75430000D03*
X103570000Y-75430000D03*
%TD*%
D34*
%TO.C,C808*%
X143465000Y-104935000D03*
X142665000Y-104935000D03*
%TD*%
D52*
%TO.C,C415*%
X147915328Y-78147666D03*
X147349642Y-78713352D03*
%TD*%
%TO.C,C409*%
X152382843Y-65817157D03*
X151817157Y-66382843D03*
%TD*%
D58*
%TO.C,C1*%
X96000000Y-81200000D03*
X96800000Y-81200000D03*
%TD*%
D44*
%TO.C,R25*%
X99338000Y-74000000D03*
X100138000Y-74000000D03*
%TD*%
%TO.C,R41*%
X99338000Y-72950000D03*
X100138000Y-72950000D03*
%TD*%
D59*
%TO.C,R1505*%
X86200000Y-85929400D03*
X86200000Y-77750600D03*
%TD*%
D35*
%TO.C,R35*%
X125050000Y-109700000D03*
X125050000Y-108900000D03*
%TD*%
D34*
%TO.C,C815*%
X148265000Y-95635000D03*
X147465000Y-95635000D03*
%TD*%
D52*
%TO.C,C413*%
X149117410Y-79349748D03*
X148551724Y-79915434D03*
%TD*%
D60*
%TO.C,R4*%
X108900000Y-68600000D03*
X110700000Y-68600000D03*
%TD*%
D61*
%TO.C,U802*%
X145965000Y-93085000D03*
D62*
X146515000Y-92835000D03*
X147015000Y-92835000D03*
D63*
X147565000Y-93035000D03*
D64*
X147565000Y-94435000D03*
D62*
X147015000Y-94635000D03*
X146515000Y-94635000D03*
D65*
X145965000Y-94435000D03*
D66*
X146215000Y-93735000D03*
%TD*%
D35*
%TO.C,R804*%
X145165000Y-102135000D03*
X145165000Y-101335000D03*
%TD*%
D34*
%TO.C,C18*%
X100138000Y-71950000D03*
X99338000Y-71950000D03*
%TD*%
D32*
%TO.C,IC3*%
X134910000Y-87200000D03*
X134410000Y-87200000D03*
X133910000Y-87200000D03*
X133410000Y-87200000D03*
X132910000Y-87200000D03*
X132910000Y-82800000D03*
X133410000Y-82800000D03*
X133910000Y-82800000D03*
X134410000Y-82800000D03*
X134910000Y-82800000D03*
%TD*%
D44*
%TO.C,R11*%
X85965000Y-74886000D03*
X86765000Y-74886000D03*
%TD*%
D36*
%TO.C,C816*%
X146665000Y-103135000D03*
X146665000Y-103935000D03*
%TD*%
D60*
%TO.C,C812*%
X149565000Y-91185000D03*
X151365000Y-91185000D03*
%TD*%
D67*
%TO.C,IC4*%
X112221667Y-68288000D03*
X112871667Y-68288000D03*
X113521667Y-68288000D03*
X114171667Y-68288000D03*
X114171667Y-72712000D03*
X113521667Y-72712000D03*
X112871667Y-72712000D03*
X112221667Y-72712000D03*
%TD*%
D46*
%TO.C,C207*%
X160162417Y-80679108D03*
X160841239Y-80000286D03*
%TD*%
D58*
%TO.C,C820*%
X137815000Y-102735000D03*
X138615000Y-102735000D03*
%TD*%
D49*
%TO.C,U2*%
X142515000Y-102297000D03*
X143015000Y-102297000D03*
X143515000Y-102297000D03*
X144015000Y-102297000D03*
X144015000Y-103973000D03*
X143515000Y-103973000D03*
X143015000Y-103973000D03*
X142515000Y-103973000D03*
%TD*%
D36*
%TO.C,C704*%
X97400000Y-74400000D03*
X97400000Y-75200000D03*
%TD*%
D68*
%TO.C,R405*%
X151061953Y-81718555D03*
X150496267Y-82284241D03*
%TD*%
D44*
%TO.C,R20*%
X117000000Y-72350000D03*
X117800000Y-72350000D03*
%TD*%
D32*
%TO.C,IC2001*%
X80150000Y-87210000D03*
X79650000Y-87210000D03*
X79150000Y-87210000D03*
X78650000Y-87210000D03*
X78150000Y-87210000D03*
X78150000Y-82810000D03*
X78650000Y-82810000D03*
X79150000Y-82810000D03*
X79650000Y-82810000D03*
X80150000Y-82810000D03*
%TD*%
D44*
%TO.C,R42*%
X134502000Y-72711000D03*
X135302000Y-72711000D03*
%TD*%
D36*
%TO.C,C703*%
X80560000Y-74070000D03*
X80560000Y-74870000D03*
%TD*%
D34*
%TO.C,C22*%
X82865000Y-70336000D03*
X82065000Y-70336000D03*
%TD*%
D44*
%TO.C,R10*%
X82065000Y-73536000D03*
X82865000Y-73536000D03*
%TD*%
D69*
%TO.C,R8*%
X91250000Y-114050000D03*
X99550000Y-114050000D03*
%TD*%
D47*
%TO.C,R22*%
X100138000Y-69900000D03*
X99338000Y-69900000D03*
%TD*%
D34*
%TO.C,C24*%
X139565000Y-67824000D03*
X138765000Y-67824000D03*
%TD*%
D70*
%TO.C,C806*%
X140565000Y-104135000D03*
X140565000Y-101335000D03*
%TD*%
D55*
%TO.C,C5*%
X128425000Y-72900000D03*
X128425000Y-72100000D03*
%TD*%
D44*
%TO.C,R23*%
X99338000Y-68900000D03*
X100138000Y-68900000D03*
%TD*%
D59*
%TO.C,R3*%
X140760000Y-85929400D03*
X140760000Y-77750600D03*
%TD*%
D51*
%TO.C,Q2*%
X135600000Y-63318100D03*
X135600000Y-62047700D03*
%TD*%
D44*
%TO.C,R13*%
X82065000Y-69286000D03*
X82865000Y-69286000D03*
%TD*%
D67*
%TO.C,IC702*%
X95403333Y-68288000D03*
X96053333Y-68288000D03*
X96703333Y-68288000D03*
X97353333Y-68288000D03*
X97353333Y-72712000D03*
X96703333Y-72712000D03*
X96053333Y-72712000D03*
X95403333Y-72712000D03*
%TD*%
D36*
%TO.C,C809*%
X145815000Y-103135000D03*
X145815000Y-103935000D03*
%TD*%
D33*
%TO.C,R47*%
X98080000Y-104140000D03*
X98080000Y-104940000D03*
%TD*%
D37*
%TO.C,IC9*%
X105225000Y-73713000D03*
X104725000Y-73713000D03*
X104225000Y-73713000D03*
X103725000Y-73713000D03*
X103225000Y-73713000D03*
X102725000Y-73713000D03*
D38*
X102062000Y-73050000D03*
X102062000Y-72550000D03*
X102062000Y-72050000D03*
X102062000Y-71550000D03*
X102062000Y-71050000D03*
X102062000Y-70550000D03*
D37*
X102725000Y-69887000D03*
X103225000Y-69887000D03*
X103725000Y-69887000D03*
X104225000Y-69887000D03*
X104725000Y-69887000D03*
X105225000Y-69887000D03*
D38*
X105888000Y-70550000D03*
X105888000Y-71050000D03*
X105888000Y-71550000D03*
X105888000Y-72050000D03*
X105888000Y-72550000D03*
X105888000Y-73050000D03*
D39*
X104600000Y-71800000D03*
D40*
X103050000Y-71800000D03*
%TD*%
D71*
%TO.C,U1*%
X161014481Y-75761181D03*
X160660928Y-76114734D03*
X160307375Y-76468287D03*
X159953821Y-76821841D03*
X159600268Y-77175394D03*
X159246714Y-77528948D03*
X158893161Y-77882501D03*
X158539608Y-78236054D03*
X158186054Y-78589608D03*
X157832501Y-78943161D03*
X157478948Y-79296714D03*
X157125394Y-79650268D03*
X156771841Y-80003821D03*
X156418287Y-80357375D03*
X156064734Y-80710928D03*
X155711181Y-81064481D03*
D72*
X152988819Y-81064481D03*
X152635266Y-80710928D03*
X152281713Y-80357375D03*
X151928159Y-80003821D03*
X151574606Y-79650268D03*
X151221052Y-79296714D03*
X150867499Y-78943161D03*
X150513946Y-78589608D03*
X150160392Y-78236054D03*
X149806839Y-77882501D03*
X149453286Y-77528948D03*
X149099732Y-77175394D03*
X148746179Y-76821841D03*
X148392625Y-76468287D03*
X148039072Y-76114734D03*
X147685519Y-75761181D03*
D71*
X147685519Y-73038819D03*
X148039072Y-72685266D03*
X148392625Y-72331713D03*
X148746179Y-71978159D03*
X149099732Y-71624606D03*
X149453286Y-71271052D03*
X149806839Y-70917499D03*
X150160392Y-70563946D03*
X150513946Y-70210392D03*
X150867499Y-69856839D03*
X151221052Y-69503286D03*
X151574606Y-69149732D03*
X151928159Y-68796179D03*
X152281713Y-68442625D03*
X152635266Y-68089072D03*
X152988819Y-67735519D03*
D72*
X155711181Y-67735519D03*
X156064734Y-68089072D03*
X156418287Y-68442625D03*
X156771841Y-68796179D03*
X157125394Y-69149732D03*
X157478948Y-69503286D03*
X157832501Y-69856839D03*
X158186054Y-70210392D03*
X158539608Y-70563946D03*
X158893161Y-70917499D03*
X159246714Y-71271052D03*
X159600268Y-71624606D03*
X159953821Y-71978159D03*
X160307375Y-72331713D03*
X160660928Y-72685266D03*
X161014481Y-73038819D03*
%TD*%
D73*
%TO.C,FB201*%
X149744967Y-80843511D03*
X148631273Y-81957205D03*
%TD*%
D50*
%TO.C,R36*%
X133650000Y-76500000D03*
X132350000Y-76500000D03*
%TD*%
D74*
%TO.C,C408*%
X155917157Y-82817157D03*
X156482843Y-83382843D03*
%TD*%
D36*
%TO.C,C6*%
X114400000Y-74400000D03*
X114400000Y-75200000D03*
%TD*%
D59*
%TO.C,R1*%
X122573333Y-85929400D03*
X122573333Y-77750600D03*
%TD*%
D56*
%TO.C,C810*%
X149715000Y-89335000D03*
X151215000Y-89335000D03*
%TD*%
D44*
%TO.C,R805*%
X143565000Y-101235000D03*
X144365000Y-101235000D03*
%TD*%
D47*
%TO.C,R18*%
X119750000Y-68074000D03*
X118950000Y-68074000D03*
%TD*%
%TO.C,R30*%
X137265000Y-67774000D03*
X136465000Y-67774000D03*
%TD*%
D34*
%TO.C,C814*%
X146465000Y-95635000D03*
X145665000Y-95635000D03*
%TD*%
D44*
%TO.C,R15*%
X119100000Y-75324000D03*
X119900000Y-75324000D03*
%TD*%
D75*
%TO.C,L803*%
X147930000Y-98235000D03*
D76*
X144400000Y-98235000D03*
%TD*%
D34*
%TO.C,C29*%
X121900000Y-75324000D03*
X121100000Y-75324000D03*
%TD*%
D47*
%TO.C,R9*%
X84765000Y-67486000D03*
X83965000Y-67486000D03*
%TD*%
%TO.C,R16*%
X117800000Y-68950000D03*
X117000000Y-68950000D03*
%TD*%
D55*
%TO.C,C701*%
X77100000Y-72700000D03*
X77100000Y-71900000D03*
%TD*%
D44*
%TO.C,R29*%
X134502000Y-69711000D03*
X135302000Y-69711000D03*
%TD*%
D77*
%TO.C,Q8*%
X97941167Y-63334800D03*
X97941167Y-64605200D03*
%TD*%
D34*
%TO.C,C20*%
X121700000Y-68074000D03*
X120900000Y-68074000D03*
%TD*%
D32*
%TO.C,IC6*%
X94200000Y-103300000D03*
X94700000Y-103300000D03*
X95200000Y-103300000D03*
X95700000Y-103300000D03*
X96200000Y-103300000D03*
X96200000Y-107700000D03*
X95700000Y-107700000D03*
X95200000Y-107700000D03*
X94700000Y-107700000D03*
X94200000Y-107700000D03*
%TD*%
%TO.C,IC2*%
X116540000Y-87200000D03*
X116040000Y-87200000D03*
X115540000Y-87200000D03*
X115040000Y-87200000D03*
X114540000Y-87200000D03*
X114540000Y-82800000D03*
X115040000Y-82800000D03*
X115540000Y-82800000D03*
X116040000Y-82800000D03*
X116540000Y-82800000D03*
%TD*%
D67*
%TO.C,IC701*%
X78585000Y-68288000D03*
X79235000Y-68288000D03*
X79885000Y-68288000D03*
X80535000Y-68288000D03*
X80535000Y-72712000D03*
X79885000Y-72712000D03*
X79235000Y-72712000D03*
X78585000Y-72712000D03*
%TD*%
D57*
%TO.C,R48*%
X158317157Y-80717157D03*
X158882843Y-81282843D03*
%TD*%
D37*
%TO.C,IC10*%
X141065000Y-73374000D03*
X140565000Y-73374000D03*
X140065000Y-73374000D03*
X139565000Y-73374000D03*
X139065000Y-73374000D03*
X138565000Y-73374000D03*
D38*
X137902000Y-72711000D03*
X137902000Y-72211000D03*
X137902000Y-71711000D03*
X137902000Y-71211000D03*
X137902000Y-70711000D03*
X137902000Y-70211000D03*
D37*
X138565000Y-69548000D03*
X139065000Y-69548000D03*
X139565000Y-69548000D03*
X140065000Y-69548000D03*
X140565000Y-69548000D03*
X141065000Y-69548000D03*
D38*
X141728000Y-70211000D03*
X141728000Y-70711000D03*
X141728000Y-71211000D03*
X141728000Y-71711000D03*
X141728000Y-72211000D03*
X141728000Y-72711000D03*
D39*
X140440000Y-71461000D03*
D40*
X138890000Y-71461000D03*
%TD*%
D58*
%TO.C,C2*%
X114400000Y-81200000D03*
X115200000Y-81200000D03*
%TD*%
D35*
%TO.C,R44*%
X125050000Y-111450000D03*
X125050000Y-110650000D03*
%TD*%
D44*
%TO.C,R40*%
X82065000Y-72486000D03*
X82865000Y-72486000D03*
%TD*%
D78*
%TO.C,R702*%
X93500000Y-68300000D03*
X91700000Y-68300000D03*
%TD*%
D60*
%TO.C,R701*%
X75300000Y-68100000D03*
X77100000Y-68100000D03*
%TD*%
D47*
%TO.C,R33*%
X131300000Y-110000000D03*
X130500000Y-110000000D03*
%TD*%
D51*
%TO.C,Q1*%
X117897083Y-63205600D03*
X117897083Y-61935200D03*
%TD*%
D34*
%TO.C,C8*%
X96850000Y-109200000D03*
X96050000Y-109200000D03*
%TD*%
D79*
%TO.C,C411*%
X146182916Y-75566727D03*
X145334388Y-76415255D03*
%TD*%
D77*
%TO.C,Q4*%
X133511000Y-63267300D03*
X133511000Y-64537700D03*
%TD*%
D59*
%TO.C,R2*%
X104300000Y-85889400D03*
X104300000Y-77710600D03*
%TD*%
D80*
%TO.C,C813*%
X149565000Y-94535000D03*
X149565000Y-95735000D03*
%TD*%
D58*
%TO.C,C2001*%
X77600000Y-81200000D03*
X78400000Y-81200000D03*
%TD*%
D50*
%TO.C,R45*%
X115650000Y-76500000D03*
X114350000Y-76500000D03*
%TD*%
D34*
%TO.C,C11*%
X117800000Y-71350000D03*
X117000000Y-71350000D03*
%TD*%
D81*
%TO.C,L802*%
X141265000Y-100085000D03*
D82*
X141265000Y-96985000D03*
%TD*%
D83*
%TO.C,FB801*%
X147965000Y-89835000D03*
X147965000Y-91635000D03*
%TD*%
D84*
%TO.C,R801*%
X137265000Y-103835000D03*
X138565000Y-103835000D03*
%TD*%
D60*
%TO.C,R5*%
X126625000Y-68100000D03*
X128425000Y-68100000D03*
%TD*%
D67*
%TO.C,IC5*%
X129950000Y-68288000D03*
X130600000Y-68288000D03*
X131250000Y-68288000D03*
X131900000Y-68288000D03*
X131900000Y-72712000D03*
X131250000Y-72712000D03*
X130600000Y-72712000D03*
X129950000Y-72712000D03*
%TD*%
D35*
%TO.C,R34*%
X129550000Y-113800000D03*
X129550000Y-113000000D03*
%TD*%
D34*
%TO.C,C30*%
X140165000Y-75124000D03*
X139365000Y-75124000D03*
%TD*%
%TO.C,C31*%
X117800000Y-70350000D03*
X117000000Y-70350000D03*
%TD*%
D47*
%TO.C,R17*%
X117150000Y-74474000D03*
X116350000Y-74474000D03*
%TD*%
D36*
%TO.C,C818*%
X144965000Y-103135000D03*
X144965000Y-103935000D03*
%TD*%
D51*
%TO.C,Q7*%
X100057167Y-63250600D03*
X100057167Y-61980200D03*
%TD*%
D50*
%TO.C,R37*%
X97150000Y-76500000D03*
X95850000Y-76500000D03*
%TD*%
D58*
%TO.C,C3*%
X132600000Y-81000000D03*
X133400000Y-81000000D03*
%TD*%
D85*
%TO.C,R6*%
X110600000Y-70150000D03*
X110600000Y-71450000D03*
%TD*%
D57*
%TO.C,R51*%
X156817157Y-82117157D03*
X157382843Y-82682843D03*
%TD*%
D86*
%TO.C,C807*%
X138015000Y-98435000D03*
X136515000Y-98435000D03*
%TD*%
D35*
%TO.C,R32*%
X135500000Y-114800000D03*
X135500000Y-114000000D03*
%TD*%
D47*
%TO.C,R28*%
X135315000Y-68674000D03*
X134515000Y-68674000D03*
%TD*%
D85*
%TO.C,R704*%
X93400000Y-69750000D03*
X93400000Y-71050000D03*
%TD*%
D77*
%TO.C,Q3*%
X115671083Y-63379800D03*
X115671083Y-64650200D03*
%TD*%
D44*
%TO.C,R31*%
X134502000Y-73711000D03*
X135302000Y-73711000D03*
%TD*%
D52*
%TO.C,C407*%
X146571825Y-76804163D03*
X146006139Y-77369849D03*
%TD*%
D85*
%TO.C,R7*%
X128325000Y-69650000D03*
X128325000Y-70950000D03*
%TD*%
D87*
%TO.C,C412*%
X147561775Y-81258937D03*
X146996089Y-80693251D03*
%TD*%
D55*
%TO.C,C4*%
X110800000Y-73400000D03*
X110800000Y-72600000D03*
%TD*%
D88*
%TO.C,Y201*%
X161872886Y-84317251D03*
X160317251Y-85872886D03*
X159185173Y-84740808D03*
X160740808Y-83185173D03*
%TD*%
D34*
%TO.C,C12*%
X103838000Y-68150000D03*
X103038000Y-68150000D03*
%TD*%
D44*
%TO.C,R27*%
X137365000Y-75124000D03*
X138165000Y-75124000D03*
%TD*%
D35*
%TO.C,R46*%
X125050000Y-113200000D03*
X125050000Y-112400000D03*
%TD*%
D44*
%TO.C,R43*%
X130600000Y-111100000D03*
X131400000Y-111100000D03*
%TD*%
D77*
%TO.C,Q6*%
X80178250Y-63320000D03*
X80178250Y-64590400D03*
%TD*%
D48*
%TO.C,C410*%
X162092818Y-71960482D03*
X162658504Y-71394796D03*
%TD*%
D36*
%TO.C,C7*%
X131900000Y-74400000D03*
X131900000Y-75200000D03*
%TD*%
D34*
%TO.C,C10*%
X135302000Y-71711000D03*
X134502000Y-71711000D03*
%TD*%
D85*
%TO.C,R703*%
X77000000Y-69550000D03*
X77000000Y-70850000D03*
%TD*%
D89*
%TO.C,R406*%
X147632485Y-70864467D03*
X147066799Y-70298781D03*
%TD*%
D44*
%TO.C,R19*%
X117000000Y-73350000D03*
X117800000Y-73350000D03*
%TD*%
%LPD*%
M02*
