  0
SECTION
  2
HEADER
  9
$ANGBASE
  50
0.0
  9
$ANGDIR
  70
1
  9
$MEASUREMENT
  70
0
  0
ENDSEC
  0
SECTION
  2
TABLES
  0
TABLE
  2
LTYPE
  70
4
  0
LTYPE
  5
40F
  2
CONTINUOUS
  70
0
  3
Solid line
  72
65
  73
0
  40
0.0
  0
LTYPE
  5
410
  2
DASHDOT
 70
0
  3
Dash Dot ____ _ ____ _
 72
65
 73
4
 40
2.0
 49
1.25
 49
-0.25
 49
0.25
 49
-0.25
  0
LTYPE
  5
411
  2
DASHED
 70
0
  3
Dashed __ __ __ __ __
 72
65
 73
2
 40
0.75
 49
0.5
 49
-0.25
  0
LTYPE
  5
43B
  2
DOTTED
 70
0
  3
Dotted .  .  .  .
 72
65
 73
2
 40
0.2
 49
0.0
 49
-0.2
  0
ENDTAB
  0
TABLE
  2
STYLE
  70
4
  0
STYLE
  2
KICAD
  70
0
  40
0
  41
1
  42
1
  50
0
  71
0
  3
isocp.shx
  0
STYLE
  2
KICADB
  70
0
  40
0
  41
1
  42
1
  50
0
  71
0
  3
isocp.shx
  0
STYLE
  2
KICADI
  70
0
  40
0
  41
1
  42
1
  50
15
  71
0
  3
isocp.shx
  0
STYLE
  2
KICADBI
  70
0
  40
0
  41
1
  42
1
  50
15
  71
0
  3
isocp.shx
  0
ENDTAB
  0
TABLE
  2
LAYER
  70
1
  0
LAYER
  2
BLACK
  70
0
  62
7
  6
CONTINUOUS
  0
ENDTAB
  0
ENDSEC
  0
SECTION
  2
ENTITIES
0
LINE
8
BLACK
6
CONTINUOUS
10
6.377952755905512
20
-1.6122047244094488
11
6.3905044094488188
21
-1.6128625196850392
0
LINE
8
BLACK
6
CONTINUOUS
10
6.3905044094488188
20
-1.6128625196850392
11
6.4029185433070861
21
-1.6148287401574803
0
LINE
8
BLACK
6
CONTINUOUS
10
6.4029185433070861
20
-1.6148287401574803
11
6.4150591338582679
21
-1.6180818110236219
0
LINE
8
BLACK
6
CONTINUOUS
10
6.4150591338582679
20
-1.6180818110236219
11
6.4267931889763776
21
-1.622586062992126
0
LINE
8
BLACK
6
CONTINUOUS
10
6.4267931889763776
20
-1.622586062992126
11
6.4379921259842519
21
-1.6282922440944883
0
LINE
8
BLACK
6
CONTINUOUS
10
6.4379921259842519
20
-1.6282922440944883
11
6.4485332677165355
21
-1.6351377165354331
0
LINE
8
BLACK
6
CONTINUOUS
10
6.4485332677165355
20
-1.6351377165354331
11
6.4583011023622046
21
-1.6430475590551181
0
LINE
8
BLACK
6
CONTINUOUS
10
6.4583011023622046
20
-1.6430475590551181
11
6.4671886614173228
21
-1.6519351181102362
0
LINE
8
BLACK
6
CONTINUOUS
10
6.4671886614173228
20
-1.6519351181102362
11
6.4750985039370077
21
-1.6617029527559055
0
LINE
8
BLACK
6
CONTINUOUS
10
6.4750985039370077
20
-1.6617029527559055
11
6.4819439763779529
21
-1.6722440944881889
0
LINE
8
BLACK
6
CONTINUOUS
10
6.4819439763779529
20
-1.6722440944881889
11
6.4876501574803145
21
-1.6834430314960629
0
LINE
8
BLACK
6
CONTINUOUS
10
6.4876501574803145
20
-1.6834430314960629
11
6.4921544094488191
21
-1.6951770866141731
0
LINE
8
BLACK
6
CONTINUOUS
10
6.4921544094488191
20
-1.6951770866141731
11
6.4954074803149604
21
-1.7073176771653542
0
LINE
8
BLACK
6
CONTINUOUS
10
6.4954074803149604
20
-1.7073176771653542
11
6.4973737007874011
21
-1.7197318110236219
0
LINE
8
BLACK
6
CONTINUOUS
10
6.4973737007874011
20
-1.7197318110236219
11
6.4980314960629917
21
-1.7322834645669292
0
LINE
8
BLACK
6
CONTINUOUS
10
6.4980314960629917
20
-1.7322834645669292
11
6.4980314960629917
21
-4.5275590551181102
0
LINE
8
BLACK
6
CONTINUOUS
10
6.4980314960629917
20
-4.5275590551181102
11
6.4973737007874011
21
-4.540110708661417
0
LINE
8
BLACK
6
CONTINUOUS
10
6.4973737007874011
20
-4.540110708661417
11
6.4954074803149604
21
-4.5525248425196851
0
LINE
8
BLACK
6
CONTINUOUS
10
6.4954074803149604
20
-4.5525248425196851
11
6.4921544094488191
21
-4.564665433070866
0
LINE
8
BLACK
6
CONTINUOUS
10
6.4921544094488191
20
-4.564665433070866
11
6.4876501574803145
21
-4.5763994881889767
0
LINE
8
BLACK
6
CONTINUOUS
10
6.4876501574803145
20
-4.5763994881889767
11
6.4819439763779529
21
-4.58759842519685
0
LINE
8
BLACK
6
CONTINUOUS
10
6.4819439763779529
20
-4.58759842519685
11
6.4750985039370077
21
-4.5981395669291336
0
LINE
8
BLACK
6
CONTINUOUS
10
6.4750985039370077
20
-4.5981395669291336
11
6.4671886614173228
21
-4.6079074015748027
0
LINE
8
BLACK
6
CONTINUOUS
10
6.4671886614173228
20
-4.6079074015748027
11
6.4583011023622046
21
-4.616794960629921
0
LINE
8
BLACK
6
CONTINUOUS
10
6.4583011023622046
20
-4.616794960629921
11
6.4485332677165355
21
-4.6247048031496059
0
LINE
8
BLACK
6
CONTINUOUS
10
6.4485332677165355
20
-4.6247048031496059
11
6.4379921259842519
21
-4.6315502755905511
0
LINE
8
BLACK
6
CONTINUOUS
10
6.4379921259842519
20
-4.6315502755905511
11
6.4267931889763776
21
-4.6372564566929135
0
LINE
8
BLACK
6
CONTINUOUS
10
6.4267931889763776
20
-4.6372564566929135
11
6.4150591338582679
21
-4.6417607086614172
0
LINE
8
BLACK
6
CONTINUOUS
10
6.4150591338582679
20
-4.6417607086614172
11
6.4029185433070861
21
-4.6450137795275586
0
LINE
8
BLACK
6
CONTINUOUS
10
6.4029185433070861
20
-4.6450137795275586
11
6.3905044094488188
21
-4.6469800000000001
0
LINE
8
BLACK
6
CONTINUOUS
10
6.3905044094488188
20
-4.6469800000000001
11
6.377952755905512
21
-4.6476377952755907
0
LINE
8
BLACK
6
CONTINUOUS
10
6.377952755905512
20
-4.6476377952755907
11
2.7559055118110236
21
-4.6476377952755907
0
LINE
8
BLACK
6
CONTINUOUS
10
2.7559055118110236
20
-4.6476377952755907
11
2.7433538582677164
21
-4.6469800000000001
0
LINE
8
BLACK
6
CONTINUOUS
10
2.7433538582677164
20
-4.6469800000000001
11
2.7309397244094487
21
-4.6450137795275586
0
LINE
8
BLACK
6
CONTINUOUS
10
2.7309397244094487
20
-4.6450137795275586
11
2.7187991338582678
21
-4.6417607086614172
0
LINE
8
BLACK
6
CONTINUOUS
10
2.7187991338582678
20
-4.6417607086614172
11
2.7070650787401576
21
-4.6372564566929135
0
LINE
8
BLACK
6
CONTINUOUS
10
2.7070650787401576
20
-4.6372564566929135
11
2.6958661417322833
21
-4.6315502755905511
0
LINE
8
BLACK
6
CONTINUOUS
10
2.6958661417322833
20
-4.6315502755905511
11
2.6853249999999997
21
-4.6247048031496059
0
LINE
8
BLACK
6
CONTINUOUS
10
2.6853249999999997
20
-4.6247048031496059
11
2.6755571653543306
21
-4.616794960629921
0
LINE
8
BLACK
6
CONTINUOUS
10
2.6755571653543306
20
-4.616794960629921
11
2.6666696062992123
21
-4.6079074015748027
0
LINE
8
BLACK
6
CONTINUOUS
10
2.6666696062992123
20
-4.6079074015748027
11
2.6587597637795275
21
-4.5981395669291336
0
LINE
8
BLACK
6
CONTINUOUS
10
2.6587597637795275
20
-4.5981395669291336
11
2.6519142913385827
21
-4.58759842519685
0
LINE
8
BLACK
6
CONTINUOUS
10
2.6519142913385827
20
-4.58759842519685
11
2.6462081102362203
21
-4.5763994881889767
0
LINE
8
BLACK
6
CONTINUOUS
10
2.6462081102362203
20
-4.5763994881889767
11
2.6417038582677166
21
-4.564665433070866
0
LINE
8
BLACK
6
CONTINUOUS
10
2.6417038582677166
20
-4.564665433070866
11
2.6384507874015748
21
-4.5525248425196851
0
LINE
8
BLACK
6
CONTINUOUS
10
2.6384507874015748
20
-4.5525248425196851
11
2.6364845669291337
21
-4.540110708661417
0
LINE
8
BLACK
6
CONTINUOUS
10
2.6364845669291337
20
-4.540110708661417
11
2.6358267716535431
21
-4.5275590551181102
0
LINE
8
BLACK
6
CONTINUOUS
10
2.6358267716535431
20
-4.5275590551181102
11
2.6358267716535431
21
-1.7322834645669292
0
LINE
8
BLACK
6
CONTINUOUS
10
2.6358267716535431
20
-1.7322834645669292
11
2.6364845669291337
21
-1.7197318110236219
0
LINE
8
BLACK
6
CONTINUOUS
10
2.6364845669291337
20
-1.7197318110236219
11
2.6384507874015748
21
-1.7073176771653542
0
LINE
8
BLACK
6
CONTINUOUS
10
2.6384507874015748
20
-1.7073176771653542
11
2.6417038582677166
21
-1.6951770866141731
0
LINE
8
BLACK
6
CONTINUOUS
10
2.6417038582677166
20
-1.6951770866141731
11
2.6462081102362203
21
-1.6834430314960629
0
LINE
8
BLACK
6
CONTINUOUS
10
2.6462081102362203
20
-1.6834430314960629
11
2.6519142913385827
21
-1.6722440944881889
0
LINE
8
BLACK
6
CONTINUOUS
10
2.6519142913385827
20
-1.6722440944881889
11
2.6587597637795275
21
-1.6617029527559055
0
LINE
8
BLACK
6
CONTINUOUS
10
2.6587597637795275
20
-1.6617029527559055
11
2.6666696062992123
21
-1.6519351181102362
0
LINE
8
BLACK
6
CONTINUOUS
10
2.6666696062992123
20
-1.6519351181102362
11
2.6755571653543306
21
-1.6430475590551181
0
LINE
8
BLACK
6
CONTINUOUS
10
2.6755571653543306
20
-1.6430475590551181
11
2.6853249999999997
21
-1.6351377165354331
0
LINE
8
BLACK
6
CONTINUOUS
10
2.6853249999999997
20
-1.6351377165354331
11
2.6958661417322833
21
-1.6282922440944883
0
LINE
8
BLACK
6
CONTINUOUS
10
2.6958661417322833
20
-1.6282922440944883
11
2.7070650787401576
21
-1.622586062992126
0
LINE
8
BLACK
6
CONTINUOUS
10
2.7070650787401576
20
-1.622586062992126
11
2.7187991338582678
21
-1.6180818110236219
0
LINE
8
BLACK
6
CONTINUOUS
10
2.7187991338582678
20
-1.6180818110236219
11
2.7309397244094487
21
-1.6148287401574803
0
LINE
8
BLACK
6
CONTINUOUS
10
2.7309397244094487
20
-1.6148287401574803
11
2.7433538582677164
21
-1.6128625196850392
0
LINE
8
BLACK
6
CONTINUOUS
10
2.7433538582677164
20
-1.6128625196850392
11
2.7559055118110236
21
-1.6122047244094488
0
LINE
8
BLACK
6
CONTINUOUS
10
2.7559055118110236
20
-1.6122047244094488
11
6.377952755905512
21
-1.6122047244094488
0
LINE
8
BLACK
6
CONTINUOUS
10
2.7559055118110236
20
-1.6161417322834646
11
2.7493831496062993
21
-1.6161417322834646
0
LINE
8
BLACK
6
CONTINUOUS
10
2.7493831496062993
20
-1.6161417322834646
11
2.7364203937007874
21
-1.6176022834645669
0
LINE
8
BLACK
6
CONTINUOUS
10
2.7364203937007874
20
-1.6176022834645669
11
2.7237027165354331
21
-1.6205050393700786
0
LINE
8
BLACK
6
CONTINUOUS
10
2.7237027165354331
20
-1.6205050393700786
11
2.711389960629921
21
-1.6248134251968505
0
LINE
8
BLACK
6
CONTINUOUS
10
2.711389960629921
20
-1.6248134251968505
11
2.6996370472440945
21
-1.630473346456693
0
LINE
8
BLACK
6
CONTINUOUS
10
2.6996370472440945
20
-1.630473346456693
11
2.6885917322834647
21
-1.6374135826771654
0
LINE
8
BLACK
6
CONTINUOUS
10
2.6885917322834647
20
-1.6374135826771654
11
2.6783929133858266
21
-1.6455468503937007
0
LINE
8
BLACK
6
CONTINUOUS
10
2.6783929133858266
20
-1.6455468503937007
11
2.6691688976377952
21
-1.6547708661417322
0
LINE
8
BLACK
6
CONTINUOUS
10
2.6691688976377952
20
-1.6547708661417322
11
2.6610356299212596
21
-1.66496968503937
0
LINE
8
BLACK
6
CONTINUOUS
10
2.6610356299212596
20
-1.66496968503937
11
2.6540953937007874
21
-1.676015
0
LINE
8
BLACK
6
CONTINUOUS
10
2.6540953937007874
20
-1.676015
11
2.6484354724409447
21
-1.6877679133858268
0
LINE
8
BLACK
6
CONTINUOUS
10
2.6484354724409447
20
-1.6877679133858268
11
2.6441270866141733
21
-1.7000806692913386
0
LINE
8
BLACK
6
CONTINUOUS
10
2.6441270866141733
20
-1.7000806692913386
11
2.6412243307086611
21
-1.7127983464566929
0
LINE
8
BLACK
6
CONTINUOUS
10
2.6412243307086611
20
-1.7127983464566929
11
2.6397637795275588
21
-1.7257611023622046
0
LINE
8
BLACK
6
CONTINUOUS
10
2.6397637795275588
20
-1.7257611023622046
11
2.6397637795275588
21
-1.7322834645669292
0
LINE
8
BLACK
6
CONTINUOUS
10
2.6397637795275588
20
-1.7322834645669292
11
2.6397637795275588
21
-4.5275590551181102
0
LINE
8
BLACK
6
CONTINUOUS
10
2.6397637795275588
20
-4.5275590551181102
11
2.6397637795275588
21
-4.5340814173228345
0
LINE
8
BLACK
6
CONTINUOUS
10
2.6397637795275588
20
-4.5340814173228345
11
2.6412243307086611
21
-4.547044173228346
0
LINE
8
BLACK
6
CONTINUOUS
10
2.6412243307086611
20
-4.547044173228346
11
2.6441270866141733
21
-4.5597618503937003
0
LINE
8
BLACK
6
CONTINUOUS
10
2.6441270866141733
20
-4.5597618503937003
11
2.6484354724409447
21
-4.5720746062992124
0
LINE
8
BLACK
6
CONTINUOUS
10
2.6484354724409447
20
-4.5720746062992124
11
2.6540953937007874
21
-4.5838275196850393
0
LINE
8
BLACK
6
CONTINUOUS
10
2.6540953937007874
20
-4.5838275196850393
11
2.6610356299212596
21
-4.5948728346456695
0
LINE
8
BLACK
6
CONTINUOUS
10
2.6610356299212596
20
-4.5948728346456695
11
2.6691688976377952
21
-4.6050716535433072
0
LINE
8
BLACK
6
CONTINUOUS
10
2.6691688976377952
20
-4.6050716535433072
11
2.6783929133858266
21
-4.6142956692913382
0
LINE
8
BLACK
6
CONTINUOUS
10
2.6783929133858266
20
-4.6142956692913382
11
2.6885917322834647
21
-4.6224289370078742
0
LINE
8
BLACK
6
CONTINUOUS
10
2.6885917322834647
20
-4.6224289370078742
11
2.6996370472440945
21
-4.629369173228346
0
LINE
8
BLACK
6
CONTINUOUS
10
2.6996370472440945
20
-4.629369173228346
11
2.711389960629921
21
-4.6350290944881891
0
LINE
8
BLACK
6
CONTINUOUS
10
2.711389960629921
20
-4.6350290944881891
11
2.7237027165354331
21
-4.6393374803149605
0
LINE
8
BLACK
6
CONTINUOUS
10
2.7237027165354331
20
-4.6393374803149605
11
2.7364203937007874
21
-4.6422402362204727
0
LINE
8
BLACK
6
CONTINUOUS
10
2.7364203937007874
20
-4.6422402362204727
11
2.7493831496062993
21
-4.643700787401575
0
LINE
8
BLACK
6
CONTINUOUS
10
2.7493831496062993
20
-4.643700787401575
11
2.7559055118110236
21
-4.643700787401575
0
LINE
8
BLACK
6
CONTINUOUS
10
2.7559055118110236
20
-4.643700787401575
11
6.377952755905512
21
-4.643700787401575
0
LINE
8
BLACK
6
CONTINUOUS
10
6.377952755905512
20
-4.643700787401575
11
6.3844751181102364
21
-4.643700787401575
0
LINE
8
BLACK
6
CONTINUOUS
10
6.3844751181102364
20
-4.643700787401575
11
6.3974378740157478
21
-4.6422402362204727
0
LINE
8
BLACK
6
CONTINUOUS
10
6.3974378740157478
20
-4.6422402362204727
11
6.4101555511811021
21
-4.6393374803149605
0
LINE
8
BLACK
6
CONTINUOUS
10
6.4101555511811021
20
-4.6393374803149605
11
6.4224683070866142
21
-4.6350290944881891
0
LINE
8
BLACK
6
CONTINUOUS
10
6.4224683070866142
20
-4.6350290944881891
11
6.4342212204724412
21
-4.629369173228346
0
LINE
8
BLACK
6
CONTINUOUS
10
6.4342212204724412
20
-4.629369173228346
11
6.4452665354330705
21
-4.6224289370078742
0
LINE
8
BLACK
6
CONTINUOUS
10
6.4452665354330705
20
-4.6224289370078742
11
6.4554653543307081
21
-4.6142956692913382
0
LINE
8
BLACK
6
CONTINUOUS
10
6.4554653543307081
20
-4.6142956692913382
11
6.46468937007874
21
-4.6050716535433072
0
LINE
8
BLACK
6
CONTINUOUS
10
6.46468937007874
20
-4.6050716535433072
11
6.4728226377952751
21
-4.5948728346456695
0
LINE
8
BLACK
6
CONTINUOUS
10
6.4728226377952751
20
-4.5948728346456695
11
6.4797628740157478
21
-4.5838275196850393
0
LINE
8
BLACK
6
CONTINUOUS
10
6.4797628740157478
20
-4.5838275196850393
11
6.4854227952755901
21
-4.5720746062992124
0
LINE
8
BLACK
6
CONTINUOUS
10
6.4854227952755901
20
-4.5720746062992124
11
6.4897311811023624
21
-4.5597618503937003
0
LINE
8
BLACK
6
CONTINUOUS
10
6.4897311811023624
20
-4.5597618503937003
11
6.4926339370078736
21
-4.547044173228346
0
LINE
8
BLACK
6
CONTINUOUS
10
6.4926339370078736
20
-4.547044173228346
11
6.4940944881889759
21
-4.5340814173228345
0
LINE
8
BLACK
6
CONTINUOUS
10
6.4940944881889759
20
-4.5340814173228345
11
6.4940944881889759
21
-4.5275590551181102
0
LINE
8
BLACK
6
CONTINUOUS
10
6.4940944881889759
20
-4.5275590551181102
11
6.4940944881889759
21
-1.7322834645669292
0
LINE
8
BLACK
6
CONTINUOUS
10
6.4940944881889759
20
-1.7322834645669292
11
6.4940944881889759
21
-1.7257611023622046
0
LINE
8
BLACK
6
CONTINUOUS
10
6.4940944881889759
20
-1.7257611023622046
11
6.4926339370078736
21
-1.7127983464566929
0
LINE
8
BLACK
6
CONTINUOUS
10
6.4926339370078736
20
-1.7127983464566929
11
6.4897311811023624
21
-1.7000806692913386
0
LINE
8
BLACK
6
CONTINUOUS
10
6.4897311811023624
20
-1.7000806692913386
11
6.4854227952755901
21
-1.6877679133858268
0
LINE
8
BLACK
6
CONTINUOUS
10
6.4854227952755901
20
-1.6877679133858268
11
6.4797628740157478
21
-1.676015
0
LINE
8
BLACK
6
CONTINUOUS
10
6.4797628740157478
20
-1.676015
11
6.4728226377952751
21
-1.66496968503937
0
LINE
8
BLACK
6
CONTINUOUS
10
6.4728226377952751
20
-1.66496968503937
11
6.46468937007874
21
-1.6547708661417322
0
LINE
8
BLACK
6
CONTINUOUS
10
6.46468937007874
20
-1.6547708661417322
11
6.4554653543307081
21
-1.6455468503937007
0
LINE
8
BLACK
6
CONTINUOUS
10
6.4554653543307081
20
-1.6455468503937007
11
6.4452665354330705
21
-1.6374135826771654
0
LINE
8
BLACK
6
CONTINUOUS
10
6.4452665354330705
20
-1.6374135826771654
11
6.4342212204724412
21
-1.630473346456693
0
LINE
8
BLACK
6
CONTINUOUS
10
6.4342212204724412
20
-1.630473346456693
11
6.4224683070866142
21
-1.6248134251968505
0
LINE
8
BLACK
6
CONTINUOUS
10
6.4224683070866142
20
-1.6248134251968505
11
6.4101555511811021
21
-1.6205050393700786
0
LINE
8
BLACK
6
CONTINUOUS
10
6.4101555511811021
20
-1.6205050393700786
11
6.3974378740157478
21
-1.6176022834645669
0
LINE
8
BLACK
6
CONTINUOUS
10
6.3974378740157478
20
-1.6176022834645669
11
6.3844751181102364
21
-1.6161417322834646
0
LINE
8
BLACK
6
CONTINUOUS
10
6.3844751181102364
20
-1.6161417322834646
11
6.377952755905512
21
-1.6161417322834646
0
LINE
8
BLACK
6
CONTINUOUS
10
6.377952755905512
20
-1.6161417322834646
11
2.7559055118110236
21
-1.6161417322834646
  0
ENDSEC
  0
EOF
