M48
;Layer_Color=9474304
;FILE_FORMAT=4:4
METRIC,LZ
;TYPE=PLATED
T01F00S00C0.3000
T03F00S00C1.3000
T04F00S00C1.8000
T05F00S00C2.7000
T06F00S00C3.2000
%
T01
X00024125Y00016164
X00035113Y00013191
X00045875Y00016164
X00053836Y00024125
X0005675Y00035
X00053836Y00045875
X00065Y0005
X00045875Y00053836
X00035Y0005675
X00024125Y00053836
X00016164Y00045875
X00013363Y00034941
X00016164Y00024125
X0002Y0008
X0005
X0008
X00095Y0011
X00125
X0014Y0014
X0011
X0008
X0005
X0002
X00035Y0011
X00065
X00095Y0005
X00125
X0014Y0008
Y0002
X0011
X0008
X0017
X002
X0023
X00245Y0005
X00275
X00305
X00335
X00365
X00396Y00048
Y00043
Y00038
Y00033
X00401
Y00038
Y00043
Y00048
X00406
Y00043
Y00038
Y00033
X00411
Y00038
Y00043
Y00048
X00416
X00421
Y00043
X00416
Y00038
X00421
Y00033
X00416
X00426
Y00038
Y00043
Y00048
X00431
Y00043
Y00038
Y00033
X00436
Y00038
Y00043
Y00048
X00449
Y00043
Y00038
Y00033
X00454
Y00038
Y00043
Y00048
X00459
Y00043
Y00038
Y00033
X00464
Y00038
Y00043
Y00048
X00469
X00474
Y00043
X00469
Y00038
X00474
Y00033
X00469
X00479
Y00038
Y00043
Y00048
X00484
Y00043
Y00038
Y00033
X00489
Y00038
Y00043
Y00048
X00515Y0005
X0053Y0002
X005
X0047
X0041
X0038
X0035
X0032
X0029
Y0008
X0032
X0035
X0038
X00395Y0011
X00425
X00455
X00485
X00515
X00520307Y0011675
X00543Y00093
X0047Y0014
X0038
X0035
X0032
X0029
X0026
X0023
X002
X0018725Y00143
X0018225Y00143
X0017725
X0017225
X0016725
X0016225
X0015725
X0015225
X0015475Y001385
X0015225Y00134
Y0012825
Y0012275
Y00117
X0015475Y001125
X0015725Y00108
X0015225
X0015475Y001035
X0015975
X0016475
X0016975
X0017475
X0017975
X0018475
X0018225Y00099
X0017725
X0017225
X0016725
X0016225
X0015725
X0016225Y00108
X0016725
X0017225
X0017725
X0018225
X0018725Y00108
X0018475Y001125
X0018725Y00117
Y0012275
Y0012825
Y00134
X0018475Y001385
X00215Y0011
X00245
X00275
X00305
X00335
X00365
X0026Y0008
X0023
X002
X0017
X00185Y0005
X00215
X00155
X00545
X00575
X0058625Y00051
Y0005625
X00592Y000565
X00592Y0005125
X00592Y00046
Y0004075
X00592Y000355
Y0003025
X00592Y00025
X00592Y0001975
X0059725Y000195
X006025
Y0002475
Y0003
Y0003525
Y000405
X0059725
Y0003525
X0059725Y0003
X0059725Y0002475
X0059725Y0001425
X006025
X00592
X0058625
Y000195
Y0002475
Y0003
Y0003525
Y000405
Y0004575
X0059725Y0004575
X006025Y0004575
Y00051
Y0005625
X0059725Y0005625
X0059725Y00051
X00632Y00042
X0064
X0065Y0002
X0067002Y0001898
Y0002423
Y0002948
Y0003473
Y0003998
Y0004523
Y0005048
Y0005573
X0067577Y0005598
X0067577Y0005073
X0067577Y0004548
Y0004023
X0067577Y0003498
Y0002973
X0067577Y0002448
X0067577Y0001923
X0067577Y0001373
X0068102
X0068627
Y0001898
X0068102
X0068102Y0002423
X0068102Y0002948
X0068102Y0003473
Y0003998
X0068102Y0004523
X0068627Y0004523
Y0003998
Y0003473
Y0002948
Y0002423
Y0005048
Y0005573
X0068102Y0005573
X0068102Y0005048
X0067002Y0001373
X0071Y0002
X0074
X0077
X008
X0083
X0086
X0089
X0092
X00935Y0005
X00905
X0092Y0008
X0091775Y00094
X0092275
X0092775
X0093275
X0093775
X0093525Y000985
X0093025
X0092525
X0092025
X0091525
X0091775Y00103
X0092275
X0092775
X0093275
X0093775
X0094025Y000985
X0091275Y00103
X0091525Y001075
X0091275Y00112
Y0011775
Y0012325
Y00129
X0091525Y001335
X0091275Y00138
X0091775Y00138
X0092275
X0092775
X0093275
X0093775
X0094025Y001425
X0093525
X0093025
X0092525
X0092025
X0091525
X00905Y0011
X0087575Y00101
X0087075
Y00096
Y00091
Y00086
X0087575
Y00091
Y00096
X0086575
Y00091
Y00086
X0086075
Y00091
Y00096
X0085575
Y00091
Y00086
X0085075
X0084575
Y00091
X0085075
Y00096
X0084575
X0084075
Y00091
Y00086
X0083575
Y00091
Y00096
X0083075
Y00091
Y00086
X0082575
X0082075
Y00091
X0082575
Y00096
X0082075
X0081575
Y00091
Y00086
Y00081
Y00076
Y00071
X0082075
X0082575
X0083075
X0083575
X0084075
X0084575
X0085075
X0085575
X0086075
X0086575
X0087075
X0087575
Y00076
X0087075
Y00081
X0087575
X0086575
Y00076
X0086075
Y00081
X0085575
Y00076
X0085075
X0084575
Y00081
X0085075
X0084075
Y00076
X0083575
Y00081
X0083075
Y00076
X0082575
X0082075
Y00081
X0082575
Y00101
X0083075
X0083575
X0084075
X0084575
X0085075
X0085575
X0086075
X0086575
X008605Y0011925
X0085525
X0085
X0084475
X008395
X0083427
X0082904
X0082381
X0081854
X0081327
X00808
X0080275
X0079775
X0079775Y0012452
X0080275
X00808
X0081327
X0081854
X0082381
X0082904
X0083427
X008395
X0084475
X0085
X0085525
X008605
X0082075Y00101
X0081575
X008Y0008
X0076975Y00081
Y00076
X0076475
Y00081
X0075975
Y00076
X0075475
Y00081
X0074975
Y00076
X0074475
X0073975
Y00081
X0074475
Y00086
X0074975
Y00091
X0074475
X0073975
Y00086
X0073475
X0072975
Y00091
X0073475
Y00096
X0072975
X0072475
Y00091
Y00086
X0071975
X0071475
Y00091
X0071975
Y00096
X0071475
X0070975
Y00091
Y00086
Y00081
Y00076
Y00071
X0071475
X0071975
X0072475
X0072975
X0073475
X0073975
X0074475
X0074975
X0075475
X0075975
X0076475
X0076975
Y00086
X0076475
Y00091
X0076975
Y00096
X0076475
X0075975
Y00091
Y00086
X0075475
Y00091
Y00096
X0074975
X0074475
X0073975
Y00101
X0074475
X0074975
X0075475
X0075975
X0076475
X0076975
X0075625Y00119
X00751
X0074575
X007405
X0073525
X0073002
X0072479
X0071956
X0071429
X0070902
X0070375
X006985
X006985Y0012427
X006935
X0070375
X0070902
X0071429
X0071956
X0072479
X0073002
X0073525
X007405
X0074575
X00751
X0075625
X0073475Y00101
X0072975
X0072475
X0071975
X0071475
X0070975
X0071475Y00081
Y00076
X0071975
X0072475
Y00081
X0071975
X0072975
Y00076
X0073475
Y00081
X0069175Y00111
X0068Y0014
X00655Y00087
X00616Y00079
X00583Y00083
X00568
X00555Y00088
X00567Y00112
X00572Y00118
X0058725Y0011675
X0059Y00131
X00574Y0013275
X0056Y0002
X0062
X00785Y0005
X008Y0014
X0089Y0008
X0095
X0094275Y00094
X0094525Y000985
X0094775Y00103
X0094275
X0094525Y001075
X0094775Y00112
Y0011775
Y0012325
Y00129
X0094525Y001335
X0094275Y00138
X0094775
X0094525Y001425
X0098Y0014
X0101
X0104
X0107
X01085Y0011
X01055
X01025
X00995
X00965
Y0005
X00995
X01025
X01046164Y00045875
X01043363Y00034941
X01046164Y00024125
X01054125Y00016164
X01065113Y00013191
X01075875Y00016164
X01083836Y00024125
X0108675Y00035
X01083836Y00045875
X01075875Y00053836
X01065Y0005675
X01054125Y00053836
X0104Y0008
X0101
Y0002
X0098
X0095
X0107Y0008
X01085Y0017
X01055
X01025
X00995
X00965
X0094525Y001705
X0094275Y00166
Y00175
X0094775
X0094525Y001795
X0094775Y00184
Y0018975
Y0019525
Y00201
X0094525Y002055
X0094275Y0021
X0094775
X0094525Y002145
X0094275Y00219
X00965Y0023
X0098Y0026
X0101
X0104
X0107
X01085Y0029
X01055
X01025
X0104Y0032
X0107
X01085Y0035
X01055
X01025
X00995
X00965
X0095275Y00357
X0094775
X0094275
X0094525Y003615
X0095025
X0095525
X0095275Y00366
X0095775
X0095525Y003705
X0095775Y00375
Y0038075
Y0038625
Y00392
X0095525Y003965
X0095275Y00401
X0095775
X0095525Y004055
X0095025
X0094525
X0094275Y0041
X0094775
X0095275
X0094775Y00401
X0094275
Y00366
X0094775
Y00338
X0094275
X0094525Y003335
X0095025
X0095525
X0095275Y00338
Y00329
X0095775
X0095525Y003245
X0095775Y0032
Y0031425
Y0030875
Y00303
X0095525Y002985
X0095275Y00294
X0095775
X0095525Y002895
X0095025
X0094525
X0094775Y00285
X0094275
Y00294
X0094775
X0095275Y00285
X00965Y0029
X0098Y0032
X0101
Y0038
X0104
X0107
X01085Y0041
X01055
X01025
X0098375Y00444
X00964046Y00478615
X00997Y00508
X00993Y00518
X0099625Y00541
X0104125Y005385
Y0052275
Y0050775
Y0049275
X01082
Y0050775
Y0052275
Y005385
X01085Y0023
X01055
X01025
X0104Y002
X0107
X0101
X0098
X0095Y0026
X0094775Y00329
X0094275
Y00147
X0093775
X0093275
X0092775
X0092275
X0091775
Y00166
X0092275
X0092775
X0093275
X0093775
X0093525Y001705
X0093025
X0092525
X0092025
X0091525
X0091775Y00175
X0092275
X0092775
X0093275
X0093775
X0094025Y001705
X0091275Y00175
X0091525Y001795
X0091275Y00184
Y0018975
Y0019525
Y00201
X0091525Y002055
X0091275Y0021
X0091775Y0021
X0092275
X0092775
X0093275
X0093775
X0094025Y002145
X0093525
X0093025
X0092525
X0092025
X0091525
X0091775Y00219
X0092275
X0092775
X0093275
X0093775
X00935Y0023
X0092Y0026
X0092775Y00285
X0093275
X0093775
X0093525Y002895
X0093025
X0092525
X0092275Y00294
X0092775Y00294
X0093275
X0093775
X0094025Y002895
X0092525Y002985
X0092275Y00303
Y0030875
Y0031425
Y0032
X0092525Y003245
X0092275Y00329
X0092775Y00329
X0093275
X0093775
X0094025Y003335
X0093525
X0093025
X0092525
X0092775Y00338
X0093275
X0093775
Y00357
X0093275
X0092775
X0092525Y003615
X0093025
X0093525
X0094025
X0093775Y00366
X0093275
X0092775
X0092275Y00366
X0092525Y003705
X0092275Y00375
Y0038075
Y0038625
Y00392
X0092525Y003965
X0092275Y00401
X0092775Y00401
X0093275
X0093775
X0094025Y004055
X0093525
X0093025
X0092525
X0092775Y0041
X0093275
X0093775
X0091575Y00451
X0090225Y00443
X00908413Y0047325
Y00485792
X0092225Y004875
X00921283Y00498837
X00926261Y00503815
X0091475Y005295
Y005415
X0093844Y00541988
X0092125Y0046725
X00864905Y00461
X00865Y004815
X0088025Y00502
X0088525
X00845Y005
X0084875Y0045
X008215Y0045975
X0082125Y0039145
X0082625
Y0038645
Y0038145
X0082125
Y0038645
Y0037645
Y0037145
Y0036645
X0082625
Y0037145
Y0037645
X0083125
Y0037145
Y0036645
X0083625
Y0037145
Y0037645
X0084125
Y0037145
Y0036645
X0084625
X0085125
Y0037145
X0084625
Y0037645
X0085125
X0085625
Y0037145
Y0036645
X0086125
Y0037145
Y0037645
X0086625
Y0037145
Y0036645
X0087125
X0087625
Y0037145
X0087125
Y0037645
X0087625
X0088125
Y0037145
Y0036645
Y0036145
X0087625
X0087125
X0086625
X0086125
X0085625
X0085125
X0084625
X0084125
X0083625
X0083125
X0082625
X0082125
X0083125Y0038145
X0083625
Y0038645
X0083125
Y0039145
X0083625
X0084125
X0084625
X0085125
Y0038645
Y0038145
X0084625
X0084125
Y0038645
X0084625
X0085625
Y0038145
X0086125
Y0038645
X0086625
Y0038145
X0087125
X0087625
Y0038645
X0087125
Y0039145
X0087625
X0088125
Y0038645
Y0038145
X0089Y0038
X0086625Y0039145
X0086125
X0085625
X00855Y003435
X0084975
X00844591Y0034347
X00844589Y0033819
X00849748Y0033822
X00854998Y0033822
X00860339Y0033819
X00865569Y0033816
X00865571Y0034344
X00860341Y0034347
X00870911Y0034341
X00870909Y0033813
X0087625Y003381
X00876252Y0034338
X00881502Y00343485
X008815Y00338205
X0088675Y0033825
X00907Y0034125
X0088375Y0031675
X008785
X0087323
X00868
X00862869
X00857659
X00852339
X00847129
X00841919
X0083671
X008315
X0082623
X0082102
X0082177Y0029407
X00827Y0029399
X0083227Y0029397
X008375Y0029405
X0084275Y0029415
X00848Y0029415
X0085325Y0029415
X008585Y0029425
X0086375
X0086575Y002715
X0087075
X0087575
X0088075
Y002665
X0087575
Y002615
X0088075
Y002565
X0087575
X0087075
Y002615
Y002665
X0086575
Y002615
Y002565
X0086075
Y002615
Y002665
X0085575
X0085075
Y002615
X0085575
Y002565
X0085075
X0084575
Y002615
Y002665
X0084075
Y002615
Y002565
X0083575
Y002615
Y002665
X0083075
X0082575
Y002615
X0083075
Y002565
X0082575
X0082075
Y002615
Y002665
Y002715
X0082575
X0083075
X0083575
X0084075
X0084575
X0085075
X0085575
X0086075
Y002515
X0085575
X0085075
Y002465
X0085575
X0086075
X0086575
Y002515
X0087075
Y002465
X0087575
Y002515
X0088075
Y002465
Y002415
X0087575
X0087075
X0086575
X0086075
X0085575
X0085075
X0084575
X0084075
Y002465
Y002515
X0084575
Y002465
X0083575
Y002515
X0083075
X0082575
Y002465
X0083075
Y002415
X0082575
X0082075
Y002465
Y002515
X0083575Y002415
X00791909Y0024298
Y0024823
X00786659Y0024823
X00786659Y0024298
Y0023773
X00786659Y0023248
X00786659Y0022723
X00791909Y0022723
Y0023248
Y0023773
X00781409Y0023798
X00781409Y0024323
Y0024848
X00781409Y0025373
X00781409Y0025898
X00786659Y0025873
X00786659Y0025348
X00791909Y0025348
Y0025873
X00775659Y0025873
Y0025348
Y0024823
Y0024298
Y0023773
Y0023248
Y0022723
Y0022198
Y0021673
X00781409
X00786659
X00791909
Y0022198
X00786659
X00781409Y0022223
X00781409Y0022748
X00781409Y0023273
X00755Y0023
X00745Y00244
X00737
X00725Y0023
X00708665Y0023158
Y0023683
X00703415
X00703415Y0023158
X00703415Y0022633
X00708665Y0022633
Y0022108
X00703415
Y0021583
X00708665
X00698165
X00698165Y0022133
X00698165Y0022658
X00698165Y0023183
Y0023708
X00698165Y0024233
Y0024758
X00698165Y0025283
X00698165Y0025808
X00703415Y0025783
X00703415Y0025258
X00708665Y0025258
Y0024733
X00703415Y0024733
X00703415Y0024208
X00708665
Y0025783
X00692415Y00257829
Y0025258
Y0024733
Y0024208
Y00236829
Y0023158
Y0022633
Y0022108
Y0021583
X0068Y002
X0065
X00621Y00215
Y0022
Y00225
Y0023
X00616
X00611
Y00225
X00616
Y0022
X00611
Y00215
X00616
X00606
Y0022
Y00225
Y0023
X00601
X00596
Y00225
X00601
Y0022
X00596
Y00215
X00601
X00591
Y0022
Y00225
Y0023
X00586
Y00225
Y0022
Y00215
X00581
Y0022
Y00225
Y0023
X0057Y0023
Y00225
Y0022
Y00215
X00565
X0056
Y0022
X00565
Y00225
X0056
Y0023
X00565
X00555
Y00225
Y0022
Y00215
X0055
X00545
Y0022
X0055
Y00225
X00545
Y0023
X0055
X0055125Y00265
X00566Y00269
X00563Y0036
X00590533Y00357686
X00594Y00352
X00603Y00367
X00615Y003585
X00593Y0039
X0058875Y0040325
X005885Y0041
X006Y00403
X00608203Y00425246
X00613Y00434
X00618Y0044
X00629Y00448
X00633049Y0043438
X00640089
X00647129
X00656Y0043475
X00661813Y00440187
X00672Y00448
X00675289Y0043438
X006785Y0041975
X00685396Y00423562
X00690374Y0042854
X007Y00434
X00704Y0044
X00714Y00448
X00717162Y00455113
X00725Y00456
Y0046325
X00722Y0048125
X00703007Y00467
X00686Y00456
X00677Y004695
Y004825
X00659Y00467
X00644Y00456
X00644308Y00419615
X00637268
X0063775Y00396648
Y003895
X0067725Y003965
X00686Y00404
X00705381Y00423213
X00715337Y00433169
X00733194Y00435876
X00747Y00441
X0076425Y004405
X00758Y00448
X00745Y00467
X00759872Y0048346
X00766908Y00483232
X00773948
X007705Y004125
X00758Y00389
X00729Y00402
X00715Y00389
X00689002Y00361
X00683668Y00356
X00686Y00348
X00703244Y00336175
X00709Y00328
X00695Y0031
X00684437Y00297975
X007345Y002965
Y00307
Y003165
X00741Y00337
X00746Y00348
X00767244Y00280175
X00803Y00288
X0081652Y0029417
X00833998Y0033827
X00834Y0034355
X0083925Y003435
X00839248Y0033822
X00845Y0017
X0084552Y0015354
X0085077
Y0014827
X0084552
X0084027
X0083504
X0082981
X0082458
X0081931
X0081404
X0080877
X0080352
X0079852
X0079852Y0015354
X0080352
X0080877
X0081404
X0081931
X0082458
X0082981
X0083504
X0084027
X0085602Y0014827
X0086127
X0086Y00159
X00815Y0017
X00785
X00755
X007565Y0015221
X0075125
X00746
X0074075
X0073552
X0073029
X0072506
X0071979
X0071452
X0070925
X00704
X00699
X00699Y0014694
X00704
X0070925
X0071452
X0071979
X0072506
X0073029
X0073552
X0074075
X00746
X0075125
X007565
X0076175
X0076175Y0015221
X00725Y0017
X00635Y00167
Y00149
X00605Y0017
X00575
X00545
X00635Y0023
X00665
X00663Y00338
X00577Y00392
X0057Y00434
X00575Y0044
X00586Y00448
X006Y00457
X00616Y00467
X00573
X00557Y00457
X00551718Y00418852
X00519Y00419
X00501Y00422
X005Y0043
X00488Y00424
X00474
X00471Y00398
X00461Y00397
X00465Y00388
X005Y00389
X0053425Y00388844
X00527Y00356
X00515Y00353
X00505
X00485638Y00347057
X00482Y0034
X00476397Y00335407
X00479Y00352
X005015Y00327
X00509Y00302
X00523Y00303
X00525138Y00309655
X00537Y00303
X0053475Y003305
X0053Y00276
X0054
X00498Y00277
X00484
X00481Y00294
X0046185Y00283849
X00457615Y00276812
X0045Y00275
X00454Y00266
X00438
X0043083Y00279
X0042275
X00444Y00284
X00465Y00309
X00430946Y00332465
X00431Y00349
X0042275
X0041Y003335
X00392Y0033275
X00377Y003335
Y00324
Y003145
X0041
X0039125Y002765
X0034Y00282
Y00296
Y00309
Y00322
Y00335
Y00372
X00319Y0036
X00308
X00297
X00286
X00278Y003347
Y00316
X00299999Y00292999
X00273Y002655
X00305Y0023
X0032Y002
X0035
X00365Y0023
Y0017
X00335
X00305
X00275
X00245
X00215
X0018225Y00171
X0017725
X0017225
X0016725
X0016225
X0015725
X0015475Y001755
X0015975
X0016475
X0016975
X0017475
X0017975
X0018475
X0018725Y0018
X0018225Y0018
X0017725
X0017225
X0016725
X0016225
X0015725
X0015225
X0015475Y001845
X0015225Y00189
Y0019475
Y0020025
Y00206
X0015475Y002105
X0015725Y00215
X0015225
X0015475Y002195
X0015975
X0016475
X0016975
X0017475
X0017975
X0018475
X0018225Y00224
X0017725
X0017225
X0016725
X0016225
X0015725
X0016225Y00215
X0016725
X0017225
X0017725
X0018225
X0018725Y00215
X0018475Y002105
X0018725Y00206
Y0020025
Y0019475
Y00189
X0018475Y001845
X002Y002
X0023
X0026
X0029
X00215Y0023
X00216Y0028
X0021Y00304
X0021029Y00346472
X0020529
X0020029
Y00351472
X0020529
X0021029
Y00356472
X0020529
X0020029
X0019529
Y00351472
Y00346472
X0019029
Y00351472
Y00356472
X0018529
Y00351472
Y00346472
X00169Y00331
X00224Y00343
X0026Y0035
X00261Y00395
X00286Y0041175
X00232Y00413
X00233Y00424
X00232541Y00466648
X00198Y00467298
X00193Y00462
X00195Y00452
X00183Y00448
X00167Y004305
X00162Y00475
Y00485
X00178Y00494
X00212
X00221Y00513
X0023925Y0051025
X002515Y005115
X00357776Y00512224
X00368Y00424
X00379603Y00423593
X00377Y00413
X0038675Y0041225
Y0040075
Y0038575
Y003715
Y0035725
X0036875Y0036475
Y0037975
Y00394
X003725Y00406
X00348Y00399
X00399Y00415
X00412Y00407
X00420233Y00394
X0042575
X00429Y00401
X00444Y00423
X00446Y0043625
X00456Y00448
X00458Y00457
X00472
X00491Y0044
X00501Y00448
X00515Y00456
X00533Y0044
X00527Y00434
X00543Y00448
X00428Y00456
X00402
X00389Y00441
X0041Y002
X00485Y0023
X0053Y0023
Y00225
Y0022
Y00215
X00535
X0054
Y0022
X00535
Y00225
X0054
Y0023
X00535
X0018225Y00152
X0017725
X0017225
X0016725
X0016225
X0015725
X0015975Y001475
X0015475
X0016475
X0016975
X0017475
X0017975
X0018475
X00125Y0017
X00095
X00065
X00035
X0005Y002
X0008
X0011
X0002
X00035Y0023
X0002Y0029
X00035Y0032
X00064Y00319
X0005Y0035
X0002
X00035Y0038
X00064Y00395
X0005Y0041
X0002
X00035Y0044
X0007Y00475
X00065Y005
X00095
X00070033Y005635
X00066Y00572
X0008Y0059
X00065Y0062
X00045875Y00626164
X00035113Y00623191
X00024125Y00626164
X00016164Y00634125
X00013363Y00644941
X00016164Y00655875
X00024125Y00663836
X00035Y0066675
X00045875Y00663836
X00053836Y00655875
X0005675Y00645
X00053836Y00634125
X0008Y0065
X00095Y0062
X00035Y0056
X00175667Y0057
X00183333
X00191
X00198667
X00212605Y00567363
X00223475Y00568252
X00243667Y0057
X00251333
X00259
X00266667
X00280605Y00567363
X00291475Y00568252
X00311667Y0057
X00319333
X00327
X00334667
X00348605Y00567363
X00359475Y00568252
X00379667Y0057
X00387333
X00395
X00402667
X00416605Y00567363
X00427475Y00568252
X00447667Y0057
X00455333
X00463
X00470667
X00484605Y00567363
X00495475Y00568252
X00515667Y0057
X00523333
X00531
X00538667
X00524578Y00549
X00499
X00454902
X00431
X00387205
X00363
X00319239
X00295
X00251522
X00227Y00549
X00183172Y00549
X00187Y00587
Y00597
X00183667Y00624
X00183667Y0063
X00176
X00176Y00624
X00191333
X00191333Y0063
X00199
X00199Y00624
X00244
Y0063
X00251667
Y00624
X00259333
Y0063
X00267
Y00624
X00312
Y0063
X00319667
Y00624
X00327333
Y0063
X00335
Y00624
X0038
Y0063
X00387667
Y00624
X00395333
Y0063
X00403
Y00624
X00448
Y0063
X00455667
Y00624
X00463333
Y0063
X00471
Y00624
X00516
Y0063
X00523667
Y00624
X00531333
Y0063
X00539
Y00624
X00151Y00618
X00584Y00624
Y0063
X00591667
Y00624
X00599333
Y0063
X00607
Y00624
X00652
Y0063
X00659667
Y00624
X00667333
Y0063
X00675
Y00624
X0072
Y0063
X00727667
Y00624
X00735333
Y0063
X00743
Y00624
X00788
Y0063
X00795667
Y00624
X00803333
Y0063
X00811
Y00624
X0086025Y006245
Y00611
X0088225Y0060675
X00882Y00598
X0090025Y005985
X0090075Y00607
X00909Y00633
X00912Y00667
X009235Y0056875
X0090275Y005645
X0086175Y0056
X00839Y00549
X00835475Y00568252
X00824605Y00567363
X00810667Y0057
X00803
X00795333
X00787667
X00767475Y00568252
X00756605Y00567363
X00742667Y0057
X00735
X00727333
X00719667
X00699475Y00568252
X00688605Y00567363
X00674667Y0057
X00667
X00659333
X00651667
X00631475Y00568252
X00620605Y00567363
X00606667Y0057
X00599
X00591333
X00583667
X00563475Y00568252
X00552605Y00567363
X00567Y00549015
X0059275Y00549
X00635
X0066075
X00703
X0072875
X00771
X00795667
X00948396Y00551944
X00952947Y00557316
X00960672Y00550325
X00958232Y00581139
X009675Y005925
X0097746Y00600487
X00981Y00622
X0097125Y00623778
X00959691
X00951Y00622
X00944Y00621
X00942669Y00598095
X0099325Y0058325
X0099575Y00564
X0098275Y0056425
X01014762Y00550803
X010205Y0057225
X010375Y00577
X01046164Y00634125
X01043363Y00644941
X01046164Y00655875
X01054125Y00663836
X01065Y0066675
X01075875Y00663836
X01083836Y00655875
X0108675Y00645
X01083836Y00634125
X01075875Y00626164
X01065113Y00623191
X01054125Y00626164
X01Y00621
X00992
T03
X0104035Y006
X0106575
T04
X0011Y00094
X0099Y00089
Y00224
X01Y0028
Y00415
X0011Y00229
T05
X0017Y001255
X0093Y001205
Y001925
X0094Y003115
Y003835
X0017Y001975
T06
X00035Y00035
X01065
X00035Y00645
X01065
M30
