<?xml version="1.0" standalone="no"?>
<!DOCTYPE svg PUBLIC "-//W3C//DTD SVG 20010904//EN"
 "http://www.w3.org/TR/2001/REC-SVG-20010904/DTD/svg10.dtd">
<svg version="1.0" xmlns="http://www.w3.org/2000/svg"
 width="1000.000000pt" height="913.000000pt" viewBox="0 0 1000.000000 913.000000"
 preserveAspectRatio="xMidYMid meet">

<g transform="translate(0.000000,913.000000) scale(0.100000,-0.100000)"
fill="#000000" stroke="none">
<path d="M4280 8154 c-49 -17 -87 -24 -109 -20 -19 3 -56 -2 -83 -11 -38 -12
-57 -13 -90 -5 -23 6 -45 9 -50 6 -13 -8 -9 21 4 34 25 25 -20 12 -52 -15 -25
-21 -31 -32 -28 -55 4 -21 0 -32 -14 -39 -12 -7 -16 -17 -13 -32 9 -35 -83
-114 -100 -87 -4 6 1 10 9 10 9 0 16 4 16 9 0 4 -41 11 -91 14 -79 6 -95 4
-131 -14 -23 -12 -37 -24 -31 -27 5 -4 13 -19 16 -33 7 -26 43 -49 77 -49 11
0 20 5 20 10 0 6 -4 10 -10 10 -22 0 -8 28 16 34 31 8 50 -6 69 -51 11 -25 26
-39 55 -50 21 -9 37 -20 34 -24 -7 -13 -58 -11 -71 2 -6 6 -19 9 -29 6 -16 -4
-15 -5 4 -6 12 0 22 -5 22 -11 0 -21 -26 -8 -61 30 -33 36 -42 40 -84 40 -42
0 -52 -5 -81 -36 -19 -19 -34 -44 -34 -55 0 -26 6 -24 41 15 35 40 107 59 135
35 13 -11 4 -18 -65 -54 -44 -23 -131 -59 -193 -79 -150 -50 -167 -66 -132
-125 16 -27 15 -29 -13 -69 -17 -23 -33 -39 -35 -36 -3 2 -4 -26 -3 -63 3 -80
31 -152 78 -202 l32 -33 -32 16 c-34 17 -73 61 -73 82 0 7 -5 16 -10 19 -14 9
-2 -42 16 -73 8 -12 40 -39 72 -59 31 -21 59 -39 61 -40 2 -2 2 -5 -1 -8 -3
-3 -38 2 -78 11 -86 19 -143 64 -161 125 -10 32 -9 46 6 86 10 26 28 57 39 68
12 12 23 34 24 50 l4 28 -36 -21 c-51 -30 -44 -11 15 42 51 46 55 61 9 29 -14
-9 -52 -42 -85 -73 -33 -31 -75 -64 -93 -74 -17 -9 -32 -19 -32 -22 0 -3 6 -2
13 2 7 4 9 3 4 -2 -5 -5 -14 -9 -20 -9 -7 0 -20 -16 -29 -35 -17 -32 -18 -33
-18 -10 0 29 18 60 67 111 21 23 31 39 24 43 -39 25 -181 -154 -181 -227 0
-37 20 -85 37 -91 13 -5 14 -4 3 9 -17 20 -14 95 4 139 19 45 30 46 23 3 -11
-71 36 -249 73 -272 24 -15 7 -25 -32 -19 -71 11 -86 21 -113 75 -15 28 -29
49 -32 45 -10 -10 7 -54 32 -84 14 -17 21 -33 16 -36 -18 -11 -69 25 -80 56
-12 33 -5 98 10 98 5 0 9 7 9 16 0 9 9 32 21 50 16 26 17 34 7 34 -20 0 -112
-52 -173 -97 -36 -26 -44 -30 -29 -12 59 68 33 56 -53 -25 -60 -56 -54 -36 10
31 32 35 43 51 28 43 -36 -19 -107 -93 -130 -136 l-20 -39 -2 40 c-1 22 -1 51
0 65 4 39 68 147 104 174 36 27 170 71 187 61 12 -7 55 24 56 43 2 27 5 31 24
37 11 4 41 22 65 41 25 19 52 34 60 34 8 0 15 5 15 11 0 7 10 9 25 5 21 -5 25
-3 25 14 0 18 3 19 20 10 18 -10 20 -8 20 25 0 37 8 43 28 23 9 -9 12 -5 12
19 0 35 17 53 26 29 5 -12 9 -11 25 5 10 10 16 25 13 34 -11 29 25 16 41 -15
19 -37 33 -38 37 -3 2 19 10 29 28 34 22 5 23 7 7 14 -10 4 -28 2 -41 -4 -18
-10 -30 -8 -70 8 -26 12 -63 21 -82 21 -39 0 -84 -25 -84 -47 0 -7 -43 -41
-96 -75 -86 -55 -99 -67 -122 -117 -15 -30 -34 -58 -42 -62 -8 -5 -49 -24 -90
-42 -135 -61 -208 -153 -225 -284 -4 -35 -12 -53 -23 -57 -9 -3 -28 -13 -42
-23 l-25 -17 20 24 20 25 -21 -18 c-53 -45 -122 -244 -109 -315 11 -60 107
-234 158 -287 l48 -50 -12 -66 c-19 -110 -7 -177 36 -192 5 -2 2 -35 -8 -83
-20 -94 -15 -121 42 -215 30 -49 48 -69 82 -85 24 -12 44 -25 43 -30 0 -5 -8
-27 -18 -49 -17 -37 -19 -38 -32 -20 -8 10 -14 36 -14 57 0 22 -5 38 -11 38
-9 0 -10 -37 -6 -137 4 -80 3 -155 -3 -178 -15 -62 -12 -347 5 -481 24 -191
39 -222 169 -334 67 -58 75 -70 81 -110 4 -25 31 -121 61 -214 30 -92 54 -172
54 -176 0 -11 -157 -38 -270 -45 -111 -8 -149 -22 -178 -62 -12 -17 -51 -44
-89 -63 -107 -52 -234 -129 -278 -170 -22 -20 -100 -76 -173 -124 -172 -113
-237 -177 -292 -286 -24 -47 -60 -110 -80 -140 -21 -31 -61 -94 -88 -141 -64
-109 -148 -222 -277 -374 -100 -118 -217 -270 -325 -421 -30 -42 -75 -104
-100 -138 -55 -74 -137 -191 -189 -269 -21 -32 -47 -65 -58 -72 -11 -8 -38
-42 -60 -77 -109 -174 -201 -322 -249 -406 -30 -51 -77 -124 -104 -162 -52
-73 -61 -96 -34 -86 9 3 17 6 19 6 2 0 20 24 41 53 20 28 42 57 48 62 6 6 32
43 59 82 26 40 49 73 52 73 3 0 -2 -17 -11 -38 -36 -82 -48 -132 -36 -144 21
-21 34 -4 137 182 32 57 60 99 63 92 10 -31 33 -4 72 85 49 113 142 295 147
289 2 -2 -8 -37 -22 -79 -30 -91 -33 -130 -8 -125 20 4 57 54 110 148 45 80
41 76 54 63 20 -20 37 -3 91 84 29 47 63 92 76 101 13 8 34 36 47 63 25 48 85
122 85 104 0 -6 -4 -26 -10 -44 -19 -67 -2 -41 46 69 27 62 50 108 51 103 2
-5 -13 -58 -33 -119 -20 -60 -36 -122 -36 -139 1 -16 -10 -66 -23 -110 -14
-44 -22 -89 -19 -100 2 -11 -7 -53 -21 -94 -27 -80 -31 -106 -15 -96 5 3 10 2
10 -4 0 -18 -50 -124 -68 -144 -16 -19 -16 -19 6 -13 26 9 26 10 7 -44 -24
-67 -44 -140 -40 -140 26 0 287 752 301 869 4 25 22 96 41 156 39 122 97 299
109 329 5 14 4 17 -4 12 -37 -23 11 133 78 254 61 110 155 296 185 365 9 22
19 35 21 29 9 -23 -52 -180 -157 -400 -60 -127 -109 -240 -109 -251 0 -11 -7
-37 -16 -58 -28 -67 -54 -218 -58 -330 -4 -98 -8 -121 -42 -210 -21 -55 -46
-111 -56 -124 -24 -32 -23 -26 13 71 16 46 26 79 21 73 -29 -32 -248 -629
-259 -707 -8 -54 23 -47 60 15 10 15 24 27 32 27 9 0 21 11 27 25 10 22 13 23
20 10 5 -8 18 -15 28 -15 11 0 20 -7 20 -15 0 -22 80 -9 102 16 9 10 19 19 22
19 16 0 3 -87 -24 -153 -33 -82 -60 -179 -60 -214 0 -23 23 -32 35 -13 3 6 1
10 -4 10 -19 0 -12 53 18 141 16 46 34 96 41 112 14 30 35 38 26 10 -3 -10
-16 -65 -29 -121 -24 -103 -25 -133 -3 -161 6 -8 11 -32 11 -55 0 -47 23 -60
56 -30 17 16 19 16 19 1 0 -23 19 -21 47 5 l23 21 24 -22 c21 -20 23 -26 13
-42 -44 -70 144 -117 280 -70 51 17 53 17 59 -1 3 -11 15 -18 30 -18 17 0 23
-4 19 -12 -3 -7 20 14 52 47 66 69 102 100 88 75 -4 -8 -19 -29 -31 -47 -41
-55 -32 -65 30 -32 49 26 58 17 21 -21 -21 -22 -38 -30 -63 -30 -26 0 -33 -4
-30 -17 4 -21 50 -22 348 -11 102 4 265 11 363 14 134 5 177 4 177 -5 0 -8 5
-9 19 -1 11 5 42 10 70 10 44 0 51 -3 51 -19 0 -19 -10 -20 -347 -21 -526 -1
-1042 -19 -1296 -46 -65 -7 -72 -25 -14 -35 20 -3 42 -10 49 -16 8 -7 165 -13
433 -16 783 -11 1472 -82 2280 -238 236 -45 502 -107 525 -121 24 -15 -154 -2
-455 32 -608 68 -771 82 -1082 87 -273 5 -303 4 -303 -10 0 -21 21 -31 100
-52 36 -9 69 -21 75 -26 14 -14 35 -11 35 5 0 8 -12 23 -27 34 l-26 19 124 -4
c314 -10 468 -23 1247 -108 128 -14 273 -25 323 -25 82 0 89 2 89 20 0 11 -10
26 -22 34 -94 61 -864 211 -1507 293 -119 16 -206 29 -195 31 21 3 670 -42
787 -54 43 -5 57 -10 57 -23 1 -14 2 -14 10 1 7 12 20 16 43 13 17 -3 58 -7
89 -10 36 -4 57 -11 55 -18 -1 -8 9 -10 28 -7 57 8 140 5 139 -5 -1 -5 -5 -20
-9 -32 -9 -32 20 -30 41 2 18 28 60 36 50 10 -10 -26 21 -28 54 -5 28 20 36
21 75 11 57 -14 196 -14 232 0 28 12 126 14 143 4 5 -3 7 -12 3 -20 -15 -40
67 -2 115 52 18 21 28 28 23 17 -12 -24 -6 -34 21 -34 12 0 16 -4 12 -11 -10
-16 16 -29 41 -19 16 6 24 3 33 -11 7 -10 21 -19 32 -19 17 0 19 -3 10 -19
-14 -26 -13 -31 6 -31 9 0 38 18 64 40 53 44 66 50 50 21 -25 -48 7 -57 46
-13 22 23 24 24 19 6 -3 -14 3 -30 20 -48 21 -23 28 -25 46 -16 19 10 20 9 14
-9 -5 -16 -1 -22 19 -27 14 -3 26 -11 26 -18 0 -20 -38 -70 -82 -108 -44 -37
-47 -60 -6 -40 13 6 68 46 123 90 55 45 119 90 142 102 24 12 45 25 48 31 4 5
13 9 21 9 10 0 -8 -28 -46 -72 -68 -78 -84 -110 -75 -146 10 -40 65 -55 175
-49 84 5 98 3 119 -14 13 -10 37 -19 55 -20 30 -1 30 -1 6 -10 -19 -7 -16 -7
15 -3 39 5 296 88 325 105 32 18 -51 0 -113 -25 -133 -53 -244 -70 -282 -43
-23 18 -17 21 80 42 150 33 366 107 460 158 45 24 25 20 -66 -13 -78 -29 -400
-121 -464 -133 -16 -4 -52 -11 -80 -16 -67 -13 -152 -13 -176 -1 -24 13 -25
56 -1 91 9 14 44 55 76 92 l59 66 45 -6 c33 -4 43 -3 38 5 -4 7 -15 12 -25 12
-11 0 -29 9 -42 20 l-24 19 30 1 c29 1 28 2 -10 14 -35 10 -42 18 -58 61 -18
48 -18 53 -1 120 17 70 33 175 27 175 -2 0 -18 -7 -35 -16 l-31 -16 5 27 c4
17 1 28 -8 32 -8 3 -14 16 -14 29 0 13 -4 24 -9 24 -17 0 -19 28 -5 55 21 41
17 53 -18 57 -28 2 -33 7 -33 28 0 21 -5 25 -30 28 -54 5 -70 11 -102 41 -18
16 -54 35 -82 42 -59 15 -77 39 -30 39 31 0 129 -48 129 -62 0 -5 12 -8 28 -8
23 1 20 4 -25 26 -29 14 -53 32 -53 39 0 8 -9 17 -20 20 -11 4 -40 26 -65 51
-42 41 -66 54 -65 37 1 -5 19 -21 40 -38 21 -16 39 -33 40 -37 0 -13 -24 -9
-52 10 -28 18 -108 128 -108 148 0 19 -58 64 -102 80 -23 8 -23 21 1 67 18 36
18 77 0 77 -5 0 -9 -9 -9 -20 0 -10 -11 -35 -24 -55 -14 -21 -22 -43 -19 -55
3 -12 -1 -28 -9 -38 -8 -9 -32 -48 -52 -87 -21 -38 -70 -103 -108 -145 -39
-41 -96 -106 -127 -145 -30 -38 -87 -106 -125 -150 -38 -44 -100 -120 -137
-170 -100 -132 -173 -210 -188 -201 -9 6 -2 20 27 50 90 91 597 743 563 722
-6 -4 -40 -45 -77 -91 -36 -47 -68 -85 -70 -85 -7 0 -3 7 101 165 51 77 97
150 103 162 16 28 15 53 0 53 -28 0 -59 70 -69 157 -11 86 -9 107 24 217 14
47 117 156 148 156 13 0 23 8 26 20 3 12 29 34 62 51 31 17 48 28 38 24 -11
-3 -31 -7 -45 -10 -23 -5 -24 -4 -7 5 11 5 32 14 48 20 15 5 27 14 27 19 0 6
-18 4 -41 -4 -58 -21 -72 -17 -24 5 22 10 33 19 26 19 -25 2 4 22 41 30 l33 7
-24 13 c-14 8 -26 9 -30 3 -10 -16 -81 -24 -97 -11 -9 8 -31 9 -61 5 -37 -5
-45 -4 -35 6 7 7 40 14 75 16 87 5 101 6 112 14 6 3 37 9 70 13 83 10 204 58
251 100 l39 35 -58 -34 c-77 -46 -164 -75 -261 -87 -68 -9 -81 -8 -97 7 -26
23 -15 34 33 34 60 0 213 55 295 106 40 25 75 50 79 55 3 5 -27 -11 -68 -35
-91 -56 -228 -102 -333 -111 -44 -4 -77 -4 -74 -1 4 4 53 18 109 31 57 14 137
40 179 59 93 40 245 132 233 140 -6 3 -27 -6 -48 -21 -113 -77 -405 -183 -505
-183 -21 0 -21 -1 7 -25 l29 -25 -33 0 c-38 0 -103 -42 -165 -108 -22 -23 -46
-42 -53 -42 -12 0 -108 44 -170 78 -59 32 -145 106 -175 148 -16 23 -29 45
-29 47 0 3 16 21 35 40 19 19 35 43 35 53 0 23 36 71 45 62 4 -4 4 -12 -1 -19
-4 -7 -8 -25 -8 -39 -1 -22 2 -25 14 -17 17 10 40 73 40 107 0 22 30 44 75 54
45 11 72 32 91 71 9 19 24 35 33 35 13 0 14 2 1 9 -10 7 -1 11 30 14 45 3 45
4 -9 5 -44 2 -52 -1 -47 -13 3 -10 -1 -15 -12 -15 -11 0 -25 -15 -36 -37 -15
-32 -19 -35 -27 -20 -12 21 -32 22 -48 3 -7 -8 -27 -18 -44 -22 -18 -3 -38
-11 -46 -17 -7 -6 -23 -16 -35 -22 -15 -7 -23 -24 -29 -60 -8 -47 -54 -155
-67 -155 -3 0 -11 5 -18 12 -8 8 -8 2 0 -26 10 -33 9 -38 -10 -52 -12 -8 -22
-23 -22 -32 0 -9 -7 -26 -15 -36 -12 -16 -17 -17 -30 -6 -17 14 -19 7 -5 -21
16 -28 -10 -69 -97 -158 -41 -42 -105 -112 -141 -156 -100 -118 -142 -156
-171 -153 -59 7 -48 65 31 159 61 73 134 177 168 242 17 31 45 81 64 110 29
46 106 191 106 200 0 2 -60 10 -132 17 -123 12 -194 27 -143 31 17 1 16 2 -5
8 -14 4 -24 13 -23 19 2 7 -8 12 -21 12 -13 0 -33 3 -43 6 -16 5 -16 4 1 -10
20 -16 20 -16 0 -16 -76 2 -252 105 -320 188 -49 60 -84 121 -84 147 0 35 -34
77 -107 132 -112 85 -223 239 -263 368 -9 28 -31 113 -49 190 -35 148 -84 326
-106 386 -15 40 -93 304 -106 359 -4 19 -11 148 -14 285 -3 138 -8 261 -11
275 -3 14 -10 51 -14 83 -6 43 -17 67 -39 93 -17 19 -31 39 -31 43 0 5 19 2
43 -6 23 -8 69 -19 102 -24 33 -5 72 -19 88 -30 15 -11 31 -17 36 -14 16 9 62
-18 58 -34 -2 -9 -9 -15 -15 -13 -7 1 -12 -4 -12 -12 0 -9 -22 -21 -57 -31
-32 -9 -64 -22 -70 -27 -21 -17 -15 -54 14 -88 l27 -32 100 6 c56 3 145 8 198
12 l97 7 0 -59 c0 -33 -5 -93 -9 -134 -5 -41 -12 -152 -15 -246 -3 -104 -12
-195 -21 -230 -8 -33 -22 -93 -30 -134 -7 -41 -27 -122 -44 -180 -44 -152 -53
-218 -38 -282 l12 -53 9 55 c8 53 53 310 63 359 l5 24 32 -30 c40 -39 80 -59
134 -68 30 -5 61 -22 108 -60 71 -58 103 -74 115 -55 5 8 11 7 23 -4 8 -9 18
-16 21 -16 12 0 5 21 -14 40 -11 11 -22 32 -24 46 -6 33 -26 56 -26 31 0 -9
-4 -17 -10 -17 -5 0 -10 5 -10 10 0 6 -7 10 -15 10 -8 0 -15 -5 -15 -11 0 -5
-5 -7 -11 -4 -6 4 -8 13 -5 20 3 9 -18 18 -72 30 -133 29 -147 34 -181 69
l-34 35 26 168 c15 92 30 231 33 308 3 77 13 163 20 192 12 41 13 73 6 160
-11 123 -41 205 -93 254 -24 22 -29 32 -20 43 15 18 4 26 -34 26 -21 0 -46 11
-70 30 -21 17 -46 30 -56 30 -9 0 -19 4 -21 10 -3 10 -148 54 -213 65 -22 3
-60 11 -85 17 l-45 11 -3 251 c-3 204 0 266 13 331 19 91 22 98 38 88 6 -4 56
-8 111 -10 82 -2 108 1 145 18 83 36 128 93 166 207 14 43 24 56 53 71 49 25
81 62 125 142 32 59 102 135 153 166 18 11 18 12 1 12 -31 1 -132 -105 -171
-179 -54 -102 -147 -172 -131 -98 21 94 68 149 214 252 45 32 66 40 114 43 42
4 58 2 53 -6 -10 -15 15 -14 99 4 39 9 111 17 160 19 50 2 101 9 115 15 37 15
84 67 77 86 -5 13 5 15 70 15 41 0 92 4 112 9 183 47 219 52 324 38 46 -6 49
-4 87 35 42 44 55 82 69 208 7 58 16 87 41 128 18 29 30 55 27 58 -3 3 -18
-14 -33 -38 -16 -25 -29 -37 -32 -30 -2 8 5 24 17 36 12 12 21 27 21 32 0 6
14 29 31 52 28 38 33 41 44 26 18 -26 36 -9 24 23 -8 21 -6 30 11 48 11 12 20
35 20 52 0 23 5 32 22 36 13 4 29 0 38 -8 10 -9 21 -11 29 -5 12 7 12 14 -2
43 -10 19 -17 37 -17 39 0 2 20 2 45 0 35 -3 45 -1 45 11 0 23 -20 34 -105 58
-44 11 -88 30 -98 40 -27 29 -87 56 -173 80 -73 20 -84 20 -225 9 -82 -7 -165
-9 -185 -6 -47 9 -125 47 -118 58 18 28 602 -10 864 -57 41 -7 98 -16 125 -20
91 -11 90 -10 20 -79 -78 -77 -81 -95 -25 -154 23 -23 36 -42 30 -42 -6 0 -8
-5 -4 -11 3 -6 1 -15 -6 -19 -18 -11 3 -44 45 -70 19 -12 52 -43 72 -68 21
-26 53 -61 71 -80 30 -31 42 -62 24 -62 -5 0 -23 20 -42 44 -18 25 -60 67 -94
94 -34 28 -73 64 -89 81 -27 30 -77 43 -77 20 0 -6 -6 -9 -14 -6 -20 8 -28 -4
-13 -21 10 -13 9 -14 -10 -8 -23 7 -43 -12 -24 -23 6 -4 9 -15 5 -24 -4 -12
-1 -17 13 -17 11 0 27 -6 37 -13 16 -12 17 -14 1 -27 -14 -11 -22 -10 -60 8
-56 27 -69 11 -15 -19 22 -13 40 -26 40 -31 0 -13 -11 -9 -45 16 -31 24 -47
30 -72 27 -20 -2 -15 -21 5 -21 10 0 31 -13 47 -30 33 -35 29 -38 -17 -10 -47
27 -71 11 -28 -20 38 -27 35 -34 -8 -18 -17 7 -34 9 -38 6 -13 -14 68 -80 114
-93 26 -8 67 -32 92 -54 l45 -40 -63 1 c-34 0 -65 5 -68 10 -4 6 2 8 15 3 11
-3 21 -2 21 3 0 12 -34 22 -76 22 -17 0 -44 4 -60 9 -44 14 -121 22 -103 10
12 -8 11 -11 -4 -20 -26 -15 -83 -139 -79 -172 4 -37 36 -33 40 6 2 15 5 27 7
27 2 0 20 -9 39 -21 37 -21 41 -48 5 -29 -32 18 -23 -6 19 -47 36 -36 53 -47
115 -72 20 -8 36 -30 63 -86 31 -66 35 -81 29 -127 -4 -34 0 -82 10 -133 21
-100 21 -107 5 -233 -14 -102 -14 -104 9 -147 13 -24 29 -46 37 -49 19 -7 18
-3 -11 40 -14 20 -25 46 -25 58 0 15 7 9 26 -24 31 -54 68 -94 112 -122 29
-18 37 -19 58 -7 l25 13 -23 13 c-22 12 -22 12 -2 13 26 0 72 -46 52 -52 -7
-3 2 -12 22 -22 77 -36 139 -94 140 -130 0 -10 7 -24 15 -30 9 -7 20 -49 28
-111 11 -78 15 -90 17 -55 l2 45 9 -35 c12 -44 3 -147 -21 -259 -29 -132 -52
-313 -41 -324 11 -11 17 9 26 86 7 61 25 78 26 25 0 -18 4 -107 8 -198 7 -140
13 -177 36 -245 37 -110 82 -205 103 -221 12 -10 60 -13 178 -14 100 0 164 -4
171 -11 6 -6 28 -12 49 -13 49 -4 112 -30 120 -49 3 -9 13 -13 25 -10 13 4 19
0 19 -10 0 -9 9 -18 19 -22 25 -8 34 -32 15 -39 -28 -11 -3 -26 44 -28 l47 -1
-40 -4 c-22 -3 -44 -9 -50 -15 -7 -7 11 -8 58 -3 78 8 95 -10 20 -21 -27 -3
-55 -11 -63 -16 -10 -6 -4 -7 20 -3 104 19 99 19 109 -6 5 -14 5 -25 0 -27 -5
-2 -7 -7 -4 -12 3 -4 -2 -13 -10 -20 -11 -9 -12 -17 -4 -32 14 -26 6 -371 -10
-420 -6 -20 -30 -64 -53 -98 -31 -47 -45 -60 -59 -57 -17 5 -24 -4 -20 -25 0
-5 -6 -8 -14 -8 -8 0 -15 7 -15 15 0 13 -10 17 -72 30 -22 4 -24 -11 -3 -19 8
-3 15 -12 15 -20 0 -7 11 -17 25 -20 15 -4 33 -21 44 -44 11 -20 20 -31 21
-23 0 10 8 12 30 8 38 -8 47 7 12 22 l-27 13 41 36 c87 78 124 154 144 302 10
71 9 86 -3 95 -11 8 -14 36 -13 132 l1 121 36 6 c59 9 129 45 139 70 5 13 28
35 52 49 121 71 227 336 284 713 17 108 23 289 15 413 l-5 65 70 23 c38 13 70
19 72 15 6 -20 65 -92 74 -92 6 0 -1 15 -14 33 -14 17 -28 42 -32 54 -8 26 18
217 39 281 8 24 11 50 8 59 -5 12 -3 14 7 8 9 -5 11 -4 6 3 -4 7 15 37 45 72
29 32 54 67 55 76 2 10 9 21 17 25 7 5 25 18 38 29 l24 21 -40 -20 c-56 -27
-125 -99 -160 -168 -16 -32 -34 -61 -38 -64 -14 -10 -47 -151 -47 -199 0 -25
-6 -55 -14 -66 -14 -20 -71 -41 -170 -64 -48 -10 -50 -10 -78 19 -18 18 -44
32 -68 36 -43 7 -52 20 -20 28 33 9 23 43 -28 100 -74 82 -162 205 -187 261
-18 41 -23 78 -29 191 -3 77 -11 158 -16 180 -5 22 -6 41 -1 43 4 1 5 28 3 60
l-4 57 74 23 c40 12 100 25 134 28 l60 6 16 -43 c67 -189 73 -199 125 -251 29
-29 53 -47 53 -41 0 6 -15 24 -34 41 -41 36 -56 65 -81 152 -10 36 -24 72 -31
80 -23 29 -44 79 -38 93 3 8 1 18 -5 22 -12 7 -202 -37 -255 -59 -35 -14 -35
-14 -61 20 -15 19 -37 61 -50 92 -36 87 -98 195 -144 250 -23 26 -41 54 -41
61 0 11 -3 11 -15 1 -8 -6 -19 -9 -25 -5 -18 11 -11 32 13 38 12 3 72 26 134
51 61 25 119 46 127 46 22 0 123 -128 184 -234 29 -50 59 -97 67 -105 45 -46
-59 182 -109 236 -20 22 -36 44 -36 48 0 4 -24 35 -53 68 -29 34 -75 97 -101
140 -27 43 -72 104 -101 135 -29 31 -62 75 -73 97 -11 22 -55 78 -97 125 -42
47 -89 103 -104 125 -14 22 -50 54 -79 70 -28 17 -84 49 -124 72 -48 27 -104
49 -165 64 -51 12 -93 25 -93 30 0 5 7 9 15 9 21 0 19 17 -4 30 -30 16 -81 13
-81 -5 0 -8 8 -15 19 -15 10 0 24 -7 31 -15 11 -13 8 -15 -17 -15 -16 0 -38
-7 -49 -15 -18 -13 -16 -14 27 -15 25 0 74 -11 109 -25 79 -31 98 -47 40 -34
-24 5 -54 11 -69 13 -141 18 -141 18 -141 37 0 26 -19 24 -29 -4 -5 -13 -15
-28 -22 -34 -20 -15 -79 -25 -79 -13 0 6 7 10 15 10 8 0 28 19 45 42 30 41 39
78 20 78 -5 0 -10 4 -10 10 0 6 18 7 43 4 34 -5 47 -2 62 12 14 14 15 19 4 23
-8 2 -18 10 -24 17 -8 11 -25 11 -85 3 -52 -7 -76 -7 -78 0 -2 6 -31 16 -64
22 -41 8 -80 25 -122 54 -68 47 -142 75 -195 75 -20 0 -63 7 -96 14 -33 8
-139 16 -235 20 -168 5 -178 4 -250 -20z m486 -23 c86 -22 94 -27 94 -52 0
-25 -18 -24 -45 1 -27 25 -144 47 -155 30 -5 -7 -40 -11 -96 -11 -49 1 -152
-1 -229 -4 -149 -5 -157 1 -38 30 55 13 103 16 193 14 66 -2 120 -1 120 4 0
13 84 7 156 -12z m186 -26 c62 -25 98 -50 98 -68 0 -6 -10 -2 -21 9 -20 17
-22 18 -32 3 -10 -16 -13 -16 -44 -1 -18 9 -33 19 -33 24 0 5 14 2 30 -7 47
-24 35 -9 -22 30 -62 42 -58 43 24 10z m-251 -52 c13 -15 12 -15 -8 -4 -24 12
-29 21 -14 21 5 0 15 -7 22 -17z m101 0 c9 -10 23 -34 32 -53 l17 -35 -31 35
c-37 41 -54 70 -42 70 5 0 16 -8 24 -17z m118 -42 c5 -20 10 -47 10 -61 0 -22
-3 -19 -25 19 -29 49 -35 112 -10 91 8 -7 19 -29 25 -49z m-605 34 l60 -14
-100 6 c-55 3 -104 9 -109 14 -15 14 81 10 149 -6z m-190 -5 c4 -6 -21 -10
-67 -9 -50 0 -67 3 -53 9 28 12 113 12 120 0z m392 4 c-3 -3 -12 -4 -19 -1 -8
3 -5 6 6 6 11 1 17 -2 13 -5z m293 -81 l20 -35 -55 47 c-30 26 -55 54 -55 62
0 21 65 -32 90 -74z m169 -8 c-1 -29 -1 -29 -9 -5 -4 14 -8 34 -9 45 -1 16 1
17 9 5 5 -8 9 -28 9 -45z m146 46 c3 -5 1 -12 -5 -16 -5 -3 -10 1 -10 9 0 18
6 21 15 7z m-992 -28 c-18 -2 -48 -2 -65 0 -18 2 -4 4 32 4 36 0 50 -2 33 -4z
m1067 -5 c0 -7 -4 -19 -9 -26 -6 -11 -9 -9 -14 7 -2 11 -2 22 1 25 10 10 22 6
22 -6z m-1210 -8 c0 -5 -15 -10 -32 -9 -31 1 -32 1 -8 9 35 11 40 11 40 0z
m590 0 l25 -8 -25 0 c-14 0 -34 3 -45 8 l-20 9 20 -1 c11 0 31 -4 45 -8z m691
-26 c11 -14 8 -25 -21 -80 -19 -35 -37 -64 -40 -64 -18 0 -17 16 0 51 11 21
20 54 20 74 0 38 18 47 41 19z m-1083 -11 c-16 -2 -40 -2 -55 0 -16 2 -3 4 27
4 30 0 43 -2 28 -4z m995 -58 c-16 -47 -28 -62 -38 -46 -7 12 32 91 45 91 5 0
2 -20 -7 -45z m-1423 3 c29 -31 25 -46 -5 -18 -23 21 -32 40 -20 40 2 0 13
-10 25 -22z m277 -34 c-3 -3 -12 -4 -19 -1 -8 3 -5 6 6 6 11 1 17 -2 13 -5z
m-68 -19 c-21 -21 -125 -42 -145 -30 -39 25 1 41 106 44 48 1 53 -1 39 -14z
m-69 -87 c-34 -20 -71 -25 -53 -7 6 6 22 17 35 23 12 7 22 19 20 27 -1 9 3 7
13 -5 14 -18 12 -21 -15 -38z m150 48 c0 -2 3 -11 6 -20 5 -13 -2 -16 -41 -16
-25 0 -56 5 -68 12 l-22 12 25 7 c28 8 100 11 100 5z m115 -21 c38 -12 39 -13
10 -14 -38 -1 -102 16 -111 30 -7 12 31 6 101 -16z m182 -11 c-3 -3 -12 -4
-19 -1 -8 3 -5 6 6 6 11 1 17 -2 13 -5z m1158 -13 c180 -57 411 -180 543 -290
162 -134 218 -191 273 -273 32 -48 54 -90 50 -92 -4 -3 -21 -1 -37 4 -16 4
-23 9 -15 9 8 1 12 4 9 7 -3 3 -28 -6 -55 -19 -77 -39 -170 -62 -188 -47 -12
10 -15 9 -16 -6 -1 -11 -1 -26 0 -34 1 -8 -24 14 -56 50 -110 125 -189 197
-294 267 -168 113 -292 168 -517 229 -34 9 -65 20 -67 24 -9 15 129 133 189
161 72 34 100 35 181 10z m-940 -17 l30 -14 -40 5 c-22 3 -56 5 -75 5 -26 0
-31 3 -20 10 22 14 70 11 105 -6z m-65 -25 c145 -13 210 -27 210 -45 0 -18
-16 -18 -23 0 -9 22 -219 44 -457 47 -74 1 -146 6 -160 11 -31 10 271 1 430
-13z m-135 -64 c86 -7 217 -33 230 -46 13 -12 8 -12 -144 11 -146 23 -231 39
-231 46 0 2 17 2 38 0 20 -3 69 -8 107 -11z m-312 -2 c-7 -2 -21 -2 -30 0 -10
3 -4 5 12 5 17 0 24 -2 18 -5z m-123 -59 c119 -24 125 -33 24 -33 -93 -1 -173
16 -209 44 -18 14 -14 14 50 9 39 -4 99 -12 135 -20z m-350 12 c0 -3 -4 -8
-10 -11 -5 -3 -10 -1 -10 4 0 6 5 11 10 11 6 0 10 -2 10 -4z m-112 -76 c-5
-36 -6 -78 -3 -94 4 -24 3 -27 -10 -16 -20 17 -20 97 1 145 8 20 17 36 18 34
2 -2 0 -33 -6 -69z m1382 50 c8 -5 11 -12 7 -16 -4 -4 -15 0 -24 9 -18 18 -8
23 17 7z m-1960 -20 c-13 -25 -100 -90 -100 -75 0 13 84 95 97 95 11 0 11 -4
3 -20z m755 9 c4 -6 5 -12 2 -15 -7 -7 -37 7 -37 17 0 13 27 11 35 -2z m-223
-54 c-5 -56 11 -115 31 -115 5 0 24 -11 41 -23 60 -46 80 -52 191 -57 l110 -5
-60 -24 c-77 -30 -168 -33 -210 -7 l-30 18 30 -26 c29 -25 29 -26 7 -26 -55 0
-146 75 -158 130 -12 57 -5 110 18 151 12 21 25 39 28 39 4 0 5 -25 2 -55z
m-543 -11 c-18 -22 -99 -77 -105 -71 -3 3 7 13 21 24 15 10 38 28 53 40 31 26
50 30 31 7z m1221 -4 c49 -6 44 -7 -45 -8 -55 0 -118 3 -140 7 -33 7 -26 9 45
9 47 0 110 -3 140 -8z m577 4 c-3 -3 -12 -4 -19 -1 -8 3 -5 6 6 6 11 1 17 -2
13 -5z m153 -10 c0 -8 -4 -12 -10 -9 -5 3 -10 10 -10 16 0 5 5 9 10 9 6 0 10
-7 10 -16z m414 7 c14 -5 16 -10 7 -15 -6 -4 -9 -16 -6 -27 10 -31 -17 -22
-48 16 l-28 35 28 -1 c15 0 37 -4 47 -8z m-1980 -15 c-14 -37 70 -199 139
-266 24 -24 27 -30 13 -30 -25 0 -58 19 -51 31 4 5 -1 9 -10 9 -31 0 -76 35
-107 83 -25 40 -30 55 -25 90 6 52 23 97 36 97 6 0 8 -6 5 -14z m397 -18 c24
-17 38 -33 32 -35 -16 -6 -90 36 -97 54 -9 22 19 14 65 -19z m314 -7 c37 -8
35 -9 -28 -10 -43 -1 -66 3 -62 9 7 12 35 12 90 1z m-418 -71 c35 -27 14 -26
-28 3 -20 13 -35 33 -37 47 l-4 25 21 -27 c12 -15 33 -36 48 -48z m199 42 c-4
-3 -14 2 -24 12 -16 18 -16 18 6 6 13 -6 21 -14 18 -18z m995 -10 c-7 -2 -23
6 -35 18 l-21 22 35 -18 c21 -10 30 -19 21 -22z m634 18 c3 -5 1 -10 -4 -10
-6 0 -11 5 -11 10 0 6 2 10 4 10 3 0 8 -4 11 -10z m-1524 -18 c-18 -2 -37 0
-42 5 -5 5 11 6 34 3 41 -4 41 -5 8 -8z m850 -2 c14 -11 18 -19 11 -20 -19 0
-52 19 -52 30 0 16 16 12 41 -10z m359 -32 c0 -6 -6 -5 -15 2 -8 7 -15 14 -15
16 0 2 7 1 15 -2 8 -4 15 -11 15 -16z m429 -24 c12 -15 21 -31 21 -37 0 -13
-58 41 -72 66 -8 16 -7 17 10 8 11 -6 30 -23 41 -37z m-2798 23 c-6 -8 -9 -16
-6 -18 2 -3 -32 -16 -76 -30 -73 -23 -78 -23 -60 -6 19 19 113 64 140 66 10 1
11 -2 2 -12z m1186 -4 c29 -3 50 -9 48 -14 -9 -13 -109 -21 -145 -11 -19 6
-27 11 -17 11 9 1 17 5 17 10 0 5 -8 12 -17 15 -10 3 0 3 22 0 22 -2 64 -7 92
-11z m667 -44 c14 -11 26 -30 26 -42 0 -19 -3 -18 -35 13 -51 49 -44 71 9 29z
m111 11 c3 -5 15 -10 26 -10 22 0 23 -4 9 -31 -13 -23 -30 -25 -30 -2 0 9 -7
25 -17 35 -9 10 -11 18 -5 18 6 0 14 -4 17 -10z m-1672 -20 c-5 -19 -23 -39
-23 -25 0 9 20 45 24 45 2 0 2 -9 -1 -20z m712 10 c3 -5 -3 -10 -15 -10 -12 0
-18 5 -15 10 3 6 10 10 15 10 5 0 12 -4 15 -10z m512 -20 c5 -17 13 -20 67
-18 l61 1 -55 7 -55 7 75 1 c41 1 93 -3 115 -10 l40 -11 -35 -11 c-46 -15 -80
-38 -80 -54 0 -10 -6 -12 -17 -7 -43 17 -56 17 -69 1 -12 -17 -16 -16 -61 9
-56 30 -127 36 -253 21 -90 -10 -87 5 5 28 33 9 94 24 135 35 99 26 121 26
127 1z m1534 -25 c76 -49 197 -160 186 -171 -4 -4 -29 13 -56 37 -27 24 -70
60 -97 79 -61 45 -121 99 -111 100 5 0 40 -20 78 -45z m-1861 10 c-14 -8 -45
-14 -70 -14 l-45 1 30 13 c17 8 48 14 70 14 40 0 40 0 15 -14z m758 -17 c7 -7
12 -19 12 -27 0 -11 -4 -10 -20 4 -21 19 -26 35 -12 35 4 0 13 -5 20 -12z
m1091 -58 l16 -24 -28 19 c-15 10 -33 27 -39 39 -11 20 -10 20 12 5 13 -8 31
-26 39 -39z m-2314 15 c16 -13 26 -27 22 -32 -4 -4 -22 7 -40 25 -37 37 -25
42 18 7z m-60 -59 c23 -16 26 -21 13 -24 -21 -4 -71 22 -98 50 -46 50 -9 38
85 -26z m374 50 c-47 -18 -170 -29 -188 -17 -10 6 11 11 65 16 43 3 86 8 94 9
8 2 26 4 40 4 21 1 19 -2 -11 -12z m413 -17 c57 -12 93 -27 85 -36 -3 -3 -20
0 -39 6 -18 6 -54 13 -81 16 -26 4 -45 10 -42 16 8 12 13 11 77 -2z m-245 -15
c-3 -3 -12 -4 -19 -1 -8 3 -5 6 6 6 11 1 17 -2 13 -5z m-382 -14 l30 -8 -35
-1 c-19 0 -42 4 -50 9 -12 8 -11 10 5 9 11 -1 34 -5 50 -9z m620 -16 c35 -8
125 -63 125 -77 0 -5 -16 2 -35 17 -20 15 -63 33 -104 42 -82 19 -133 47 -60
33 24 -4 58 -11 74 -15z m1128 1 c23 -32 7 -32 -23 0 -16 17 -19 25 -9 25 8 0
22 -12 32 -25z m568 -118 c-8 -8 -11 -8 -11 1 0 7 -5 11 -12 10 -6 -2 -27 20
-45 47 -59 88 -57 92 12 21 48 -49 64 -71 56 -79z m-808 109 c15 -22 15 -24
-5 -29 -12 -3 -29 -2 -40 4 -15 8 -16 13 -5 29 16 26 31 25 50 -4z m695 -15
c16 -27 19 -42 11 -46 -15 -10 -36 14 -44 53 -9 44 7 40 33 -7z m-3028 4 c-7
-8 -20 -15 -29 -15 -12 1 -11 5 8 21 26 22 41 18 21 -6z m1220 5 c-8 -5 -33
-9 -55 -9 -35 1 -37 2 -15 9 14 4 39 8 55 9 23 0 26 -2 15 -9z m-370 -20 c-17
-11 -91 -11 -135 0 -21 5 -3 8 60 9 61 0 85 -2 75 -9z m250 -19 c9 -18 6 -20
-32 -25 -24 -4 -79 0 -123 7 l-80 14 80 7 c44 4 87 9 95 10 36 8 50 5 60 -13z
m228 12 c-10 -2 -28 -2 -40 0 -13 2 -5 4 17 4 22 1 32 -1 23 -4z m-1359 -64
c-22 -72 -25 -166 -5 -213 31 -74 134 -126 266 -133 87 -5 154 6 340 57 91 25
241 28 319 6 63 -18 83 -32 26 -20 -22 5 -89 8 -150 8 -105 0 -116 -2 -265
-51 -85 -28 -190 -61 -233 -74 -83 -24 -115 -45 -50 -34 69 12 186 44 277 75
49 16 91 28 93 26 9 -9 -33 -28 -152 -71 -107 -39 -146 -48 -223 -52 -92 -6
-93 -5 -169 32 -82 40 -146 92 -169 136 -41 80 9 305 78 353 35 25 37 20 17
-45z m402 39 c11 -21 11 -22 -4 -9 -10 7 -17 17 -17 22 0 15 9 10 21 -13z
m388 6 c10 -9 -75 -3 -89 6 -10 7 1 8 35 4 28 -4 52 -8 54 -10z m1028 -77 c4
-7 -16 8 -45 31 -29 24 -55 49 -59 55 -4 7 16 -8 45 -31 29 -24 55 -49 59 -55z
m-811 25 c18 -10 -9 -10 -165 -3 -31 1 -17 18 19 23 34 5 124 -8 146 -20z
m229 -9 c18 -13 13 -14 -50 -8 -84 8 -105 13 -105 26 0 15 130 0 155 -18z
m-850 -61 c-7 -7 -33 17 -57 52 -19 28 -17 27 20 -8 23 -22 40 -42 37 -44z
m290 68 c4 -6 -5 -10 -20 -10 -15 0 -24 4 -20 10 3 6 12 10 20 10 8 0 17 -4
20 -10z m1000 -54 c30 -26 35 -35 22 -36 -10 0 -41 23 -70 51 -42 41 -46 48
-22 36 17 -8 48 -31 70 -51z m440 55 c3 -5 1 -12 -4 -15 -5 -3 -7 -16 -4 -27
4 -14 0 -25 -11 -31 -20 -11 -12 -28 13 -28 9 0 26 -7 37 -15 18 -14 17 -14
-10 -5 -17 6 -41 10 -55 8 -34 -4 -37 18 -10 76 21 45 32 55 44 37z m931 -24
c-3 -11 -1 -28 5 -38 5 -10 5 -20 0 -23 -5 -3 -11 8 -15 25 -9 47 -7 71 5 63
6 -3 8 -15 5 -27z m-2534 -4 c74 -30 85 -43 38 -43 -36 0 -77 19 -104 49 -25
28 -14 27 66 -6z m281 20 c-7 -2 -21 -2 -30 0 -10 3 -4 5 12 5 17 0 24 -2 18
-5z m2537 -8 c7 -9 8 -15 2 -15 -5 0 -12 7 -16 15 -3 8 -4 15 -2 15 2 0 9 -7
16 -15z m-2010 -10 c14 -8 21 -14 15 -14 -5 0 -21 6 -35 14 -14 8 -20 14 -15
14 6 0 21 -6 35 -14z m640 -11 c0 -14 -4 -23 -10 -19 -5 3 -10 15 -10 26 0 10
5 19 10 19 6 0 10 -12 10 -26z m-1920 -39 c0 -11 9 -43 18 -71 21 -59 4 -65
-22 -9 -18 36 -23 141 -6 115 5 -8 10 -24 10 -35z m2176 2 c55 -41 104 -87 92
-87 -3 0 -32 22 -65 48 -33 26 -71 55 -84 64 -13 9 -19 17 -13 17 7 1 38 -19
70 -42z m-677 -9 l43 -42 -32 -9 c-36 -9 -39 -8 -44 19 -3 11 -9 31 -15 47
-15 38 -3 34 48 -15z m921 12 c29 -25 31 -30 12 -25 -15 4 -24 1 -28 -9 -3 -9
-10 -16 -14 -16 -8 0 -50 62 -50 74 0 17 50 2 80 -24z m-90 -5 c20 -24 6 -28
-15 -5 -10 11 -13 20 -8 20 6 0 16 -7 23 -15z m-2651 -4 c11 -7 12 -24 2 -102
-24 -194 27 -311 169 -391 68 -38 68 -37 50 -48 -22 -14 -66 -12 -104 4 -26
11 -47 36 -92 110 -33 53 -67 110 -77 126 -27 43 -42 154 -27 204 13 44 47
106 58 106 4 0 13 -4 21 -9z m431 -41 c0 -14 -14 -12 -28 2 -19 19 -14 30 8
18 11 -6 20 -15 20 -20z m165 8 c13 -5 0 -7 -39 -4 -32 3 -64 10 -70 16 -12
12 76 3 109 -12z m1570 2 c3 -5 2 -10 -4 -10 -5 0 -13 5 -16 10 -3 6 -2 10 4
10 5 0 13 -4 16 -10z m505 -72 c0 -17 -16 -5 -55 40 l-40 46 48 -39 c26 -22
47 -43 47 -47z m-2341 -42 c9 -10 36 -32 60 -48 25 -15 38 -28 30 -28 -34 0
-110 60 -129 103 -26 56 -25 82 2 32 11 -22 28 -49 37 -59z m96 10 l30 -28
-32 16 c-32 16 -73 61 -73 80 0 6 10 0 23 -14 12 -14 36 -38 52 -54z m385 -15
c-41 -15 -76 -25 -77 -22 -2 3 -36 5 -75 3 -40 -2 -84 1 -98 7 -21 8 -14 10
40 11 130 2 236 13 248 25 3 3 12 5 21 4 9 0 -18 -13 -59 -28z m1868 5 c3 -15
1 -16 -17 -5 -11 7 -17 17 -14 22 8 13 28 2 31 -17z m109 -9 c12 -17 29 -50
38 -72 l16 -40 -20 25 c-29 36 -74 120 -64 120 4 0 18 -15 30 -33z m62 -15
c11 -21 22 -56 26 -77 5 -38 4 -36 -19 18 -30 70 -39 97 -32 97 3 0 14 -17 25
-38z m994 -98 c61 -124 116 -226 134 -246 10 -11 11 -18 4 -23 -14 -8 -4 -82
14 -111 9 -13 11 -37 8 -63 -4 -27 -2 -41 6 -41 6 0 11 -10 11 -22 0 -19 -6
-23 -32 -24 -18 0 -45 -4 -60 -8 -27 -8 -28 -7 -22 22 4 21 -2 47 -20 87 -26
58 -56 210 -56 289 0 36 -36 177 -66 261 -17 47 37 -36 79 -121z m-3294 56
l56 -9 -70 3 c-47 2 -84 10 -112 25 -24 12 -43 23 -43 25 0 3 25 -4 56 -15 31
-11 82 -24 113 -29z m146 20 c-11 -5 -29 -9 -40 -9 l-20 0 20 9 c11 5 29 9 40
9 l20 0 -20 -9z m675 -10 c12 -8 11 -10 -7 -10 -13 0 -23 5 -23 10 0 13 11 13
30 0z m1800 -40 c0 -13 -1 -13 -10 0 -5 8 -10 22 -10 30 0 13 1 13 10 0 5 -8
10 -22 10 -30z m-3285 -81 l6 -44 -25 45 c-14 25 -25 61 -25 80 l0 35 19 -36
c11 -21 22 -57 25 -80z m1658 104 c-7 -2 -21 -2 -30 0 -10 3 -4 5 12 5 17 0
24 -2 18 -5z m1082 -69 c26 -41 44 -78 40 -82 -4 -4 -12 1 -19 11 -6 10 -28
44 -48 75 -39 59 -44 72 -29 72 5 0 30 -34 56 -76z m-1495 56 c-14 -4 -54 -8
-90 -8 -50 0 -58 2 -35 8 42 11 158 11 125 0z m-946 -117 c16 -19 64 -51 110
-73 64 -32 75 -40 52 -40 -32 0 -120 41 -154 73 -13 12 -33 39 -43 59 -21 41
-25 64 -6 34 7 -11 25 -34 41 -53z m69 8 c82 -56 129 -74 205 -79 79 -5 100
-22 27 -22 -60 0 -156 33 -222 77 -50 33 -72 53 -58 53 4 0 25 -13 48 -29z
m2606 -7 c7 5 11 -3 11 -22 0 -27 -14 -42 -39 -42 -3 0 -5 19 -3 41 3 25 7 36
12 29 4 -7 13 -9 19 -6z m-2211 -69 c-11 -11 -68 -23 -68 -15 0 5 10 11 23 13
35 7 51 7 45 2z m1996 -43 c15 -111 17 -136 8 -127 -9 10 -32 123 -32 159 0
31 18 7 24 -32z m85 -14 c9 -26 8 -35 -4 -47 -13 -14 -15 -13 -15 9 0 14 -3
35 -6 48 -10 34 13 26 25 -10z m-2038 -14 c-12 -15 -21 -35 -21 -45 0 -25 -16
-24 -30 0 -15 30 -13 36 23 54 46 22 51 21 28 -9z m42 -24 c-29 -52 -43 -62
-43 -33 0 14 56 83 68 83 2 0 -9 -22 -25 -50z m2447 -87 c10 -37 29 -97 43
-133 13 -36 27 -85 31 -110 5 -42 4 -40 -23 29 -38 93 -45 99 -38 32 8 -69 -5
-56 -31 30 -25 81 -29 249 -5 226 2 -3 13 -36 23 -74z m-2570 52 c0 -6 -12
-11 -26 -12 -14 -1 -45 -13 -69 -27 -49 -29 -79 -35 -55 -12 16 16 130 65 143
62 5 -1 8 -6 7 -11z m-327 -2 c-7 -2 -19 -2 -25 0 -7 3 -2 5 12 5 14 0 19 -2
13 -5z m2467 -28 c0 -14 -4 -25 -10 -25 -5 0 -10 11 -10 25 0 14 5 25 10 25 6
0 10 -11 10 -25z m-2049 -5 c14 0 11 -28 -9 -92 -16 -50 -49 -104 -59 -95 -2
2 4 24 12 48 9 24 17 68 18 97 1 39 5 51 15 47 8 -3 18 -5 23 -5z m-91 -18 c0
-10 -7 -27 -15 -38 -8 -12 -12 -24 -9 -27 3 -3 -8 -26 -25 -50 -32 -47 -78
-67 -155 -67 -44 0 -44 6 -9 88 27 62 29 64 59 59 18 -3 42 0 55 8 100 54 99
53 99 27z m-515 -22 c3 -5 -3 -10 -14 -10 -12 0 -21 5 -21 10 0 6 6 10 14 10
8 0 18 -4 21 -10z m2669 -62 c4 -35 10 -73 13 -85 3 -13 1 -23 -5 -23 -12 0
-32 85 -32 135 0 58 17 39 24 -27z m-2684 2 c0 -5 -7 -10 -15 -10 -8 0 -15 5
-15 10 0 6 7 10 15 10 8 0 15 -4 15 -10z m7 -30 c9 0 13 -6 9 -15 -3 -8 2 -19
12 -24 15 -9 13 -10 -8 -11 l-25 -1 25 -14 25 -14 -36 -1 c-40 0 -49 11 -49
62 0 23 4 29 16 24 9 -3 22 -6 31 -6z m3724 -51 c19 -30 10 -68 -20 -83 -26
-14 -30 -14 -45 3 -9 10 -16 23 -16 29 0 6 -10 18 -22 26 -18 13 -19 17 -7 32
16 19 96 14 110 -7z m-886 -61 c3 -22 12 -38 19 -38 20 0 27 -27 11 -40 -19
-16 -35 16 -41 83 -5 57 1 54 11 -5z m-205 14 c0 -15 -2 -15 -10 -2 -13 20
-13 33 0 25 6 -3 10 -14 10 -23z m-2220 3 c-14 -8 -47 -14 -74 -15 -42 0 -47
-2 -36 -15 11 -13 8 -15 -14 -15 -23 0 -27 4 -24 23 3 19 10 23 68 28 113 10
108 10 80 -6z m3195 -35 c15 -22 32 -40 36 -40 14 0 10 -23 -7 -45 -15 -19
-15 -20 -26 -1 -6 10 -26 36 -46 58 -34 37 -34 39 -16 53 27 20 28 20 59 -25z
m-3480 20 c-3 -5 -18 -10 -33 -10 -21 0 -24 2 -12 10 20 13 53 13 45 0z m-83
-22 c-12 -12 -54 -7 -59 8 -2 6 10 8 33 6 23 -3 32 -8 26 -14z m3898 18 c0 -2
3 -12 6 -20 4 -12 2 -15 -9 -10 -21 8 -30 34 -12 34 8 0 15 -2 15 -4z m-3476
-20 c-32 -23 -105 -39 -117 -27 -8 8 -1 11 24 11 18 1 48 7 64 15 40 18 54 18
29 1z m3331 -50 c6 -29 0 -41 -44 -100 -76 -100 -174 -271 -203 -356 -15 -41
-36 -131 -48 -200 -12 -69 -23 -136 -26 -150 -3 -14 -6 -36 -8 -50 -2 -14 -5
-27 -6 -30 -1 -3 -2 -9 -1 -14 1 -5 -1 -16 -5 -25 -4 -9 -7 -25 -8 -36 -1 -11
-11 -22 -26 -26 l-25 -7 28 -1 c52 -2 22 -36 -38 -43 -37 -4 -46 13 -15 29
l23 11 -23 4 c-32 4 -38 28 -9 35 l23 6 -23 9 c-17 6 -20 12 -14 21 6 6 9 31
8 55 -2 30 2 45 14 52 9 5 11 10 5 10 -13 0 -8 75 9 120 3 8 17 62 31 119 37
146 114 302 216 436 96 127 140 176 151 169 5 -2 11 -20 14 -38z m-3752 27
c-7 -2 -19 -2 -25 0 -7 3 -2 5 12 5 14 0 19 -2 13 -5z m3482 -9 c8 -4 29 -26
46 -50 26 -38 28 -47 18 -66 -6 -13 -13 -24 -15 -26 -1 -2 -24 19 -51 46 -26
27 -55 52 -63 54 -13 4 -12 8 4 27 20 22 33 25 61 15z m-3482 -21 c-7 -2 -21
-2 -30 0 -10 3 -4 5 12 5 17 0 24 -2 18 -5z m7 -79 c0 -7 7 -20 16 -29 25 -24
7 -31 -23 -9 -41 31 -67 70 -59 90 6 15 10 14 36 -11 17 -16 30 -34 30 -41z
m15 56 c-3 -5 -10 -10 -16 -10 -5 0 -9 5 -9 10 0 6 7 10 16 10 8 0 12 -4 9
-10z m2716 -6 c17 -8 29 -18 26 -20 -3 -3 -22 4 -44 15 -21 11 -32 20 -25 21
7 0 27 -7 43 -16z m436 -51 c-3 -10 -5 -2 -5 17 0 19 2 27 5 18 2 -10 2 -26 0
-35z m246 31 c8 -3 33 -27 56 -53 35 -42 38 -51 27 -66 -12 -17 -17 -15 -71
28 -31 26 -65 47 -76 47 -23 0 -24 8 -2 32 16 18 39 23 66 12z m-593 -24 c11
-11 20 -27 20 -36 0 -12 -8 -9 -34 13 -19 15 -35 31 -35 36 -2 14 29 7 49 -13z
m-89 -7 c13 -16 12 -17 -3 -4 -10 7 -18 15 -18 17 0 8 8 3 21 -13z m1186 -116
c13 -35 15 -50 6 -55 -6 -4 -14 -25 -18 -47 -10 -60 -63 -257 -84 -317 -11
-29 -29 -87 -40 -128 -12 -41 -28 -87 -36 -102 -8 -16 -10 -28 -5 -28 11 0 13
-33 4 -67 -3 -12 -20 -28 -37 -37 l-32 -15 -7 41 c-4 23 -3 49 3 59 5 11 7 24
4 30 -4 5 -2 16 5 24 8 10 8 15 0 20 -8 5 -6 13 6 26 16 17 16 19 1 19 -26 0
-21 36 6 45 19 6 20 8 4 12 -18 5 -18 5 0 19 17 12 17 13 1 14 -20 0 -24 28
-5 35 6 3 13 24 13 47 2 46 4 56 69 263 26 83 61 176 79 208 l31 58 7 -38 c3
-21 14 -60 25 -86z m-564 72 c35 -18 117 -82 117 -91 0 -5 -7 -20 -16 -33
l-16 -24 -49 39 c-27 21 -65 44 -84 50 -40 13 -41 17 -19 48 17 25 35 27 67
11z m-3353 -39 c0 -15 -5 -12 -26 11 -19 22 -19 22 4 10 12 -6 22 -16 22 -21z
m3015 9 c10 -30 0 -33 -13 -4 -6 14 -7 25 -2 25 5 0 12 -9 15 -21z m297 -69
c24 -16 53 -39 63 -50 10 -11 24 -20 32 -20 17 0 16 -4 -2 -40 -18 -35 -21
-36 -61 -11 -17 10 -56 26 -88 35 l-57 17 28 49 c15 28 31 50 34 50 3 0 26
-13 51 -30z m-43 -135 c32 -19 63 -35 68 -35 4 0 14 -4 21 -9 12 -7 11 -13 -1
-38 l-15 -29 -81 9 c-81 10 -117 5 -106 -13 3 -5 46 -10 96 -10 l89 0 -6 -27
c-15 -61 -18 -63 -112 -63 -115 0 -120 4 -103 72 21 83 62 178 77 178 7 0 40
-16 73 -35z m737 10 c7 -28 0 -55 -14 -55 -5 0 -9 18 -8 40 1 45 12 53 22 15z
m-3886 -115 c24 -18 13 -139 -19 -212 -27 -59 -71 -274 -71 -343 0 -124 50
-293 105 -357 19 -23 33 -43 31 -45 -16 -17 -93 75 -118 142 -25 65 -48 271
-49 437 -1 119 3 162 25 255 14 61 32 129 41 150 l16 38 16 -30 c9 -16 19 -32
23 -35z m3923 -107 c4 -3 1 -13 -5 -21 -7 -8 -13 -20 -14 -27 -2 -12 -44 -75
-67 -100 -17 -18 15 39 41 74 l25 33 -27 -17 c-63 -42 -146 -280 -146 -421 0
-67 2 -74 40 -127 22 -30 40 -58 40 -61 0 -3 -12 -6 -26 -6 -31 0 -46 16 -79
85 -29 58 -32 118 -11 215 20 92 75 260 86 260 5 0 23 22 40 49 24 37 37 47
51 44 11 -3 21 1 25 11 6 17 16 20 27 9z m173 -35 l29 -31 -37 28 c-39 28 -45
35 -30 35 5 0 21 -14 38 -32z m-923 -19 c-11 -11 -182 -30 -196 -22 -20 12 11
23 71 24 37 1 81 4 97 8 35 8 43 5 28 -10z m-3 -32 c0 -9 -29 -12 -107 -13
-116 -1 -114 2 12 15 44 5 83 9 88 10 4 0 7 -5 7 -12z m760 -115 c-28 -55 -50
-103 -50 -108 0 -5 -7 -22 -16 -39 -8 -16 -19 -55 -23 -85 -7 -47 -9 -50 -10
-17 -2 75 56 250 105 314 47 61 44 33 -6 -65z m-825 53 c-53 -14 -163 -20
-151 -8 10 10 84 20 146 21 l55 0 -50 -13z m-2870 -27 c44 -16 46 -18 15 -14
-19 2 -63 11 -98 19 -86 20 -87 5 -1 -17 38 -10 69 -21 69 -24 0 -4 -32 -7
-72 -7 -69 0 -72 1 -78 25 -3 14 -1 30 5 37 13 15 95 5 160 -19z m2858 -5 c-7
-2 -19 -2 -25 0 -7 3 -2 5 12 5 14 0 19 -2 13 -5z m-3 -92 c0 -9 -90 -24 -98
-17 -5 6 54 24 81 25 9 1 17 -3 17 -8z m25 -30 c-6 -5 -32 -12 -60 -15 l-50
-6 50 14 c64 17 71 18 60 7z m-168 -67 c-3 -3 -12 -4 -19 -1 -8 3 -5 6 6 6 11
1 17 -2 13 -5z m98 -20 c-96 -25 -125 -29 -125 -16 0 10 139 39 185 40 17 0
-10 -11 -60 -24z m-2600 -4 c3 -5 1 -10 -4 -10 -6 0 -11 5 -11 10 0 6 2 10 4
10 3 0 8 -4 11 -10z m2660 -9 c-6 -5 -28 -12 -50 -15 l-40 -6 30 15 c34 16 74
20 60 6z m515 -20 c0 -11 -59 -36 -67 -27 -3 3 9 12 28 20 41 18 39 18 39 7z
m-523 -55 c-17 -14 -165 -42 -173 -33 -3 3 30 12 73 22 43 9 83 18 88 20 23 8
29 4 12 -9z m173 -6 c0 -13 -43 -30 -76 -30 -33 0 -22 17 19 29 44 13 57 13
57 1z m-2887 -7 c3 -5 8 -22 11 -39 l7 -31 -62 -7 c-60 -6 -89 2 -89 25 0 11
88 56 112 58 9 1 19 -2 21 -6z m262 -33 c3 -5 -1 -10 -9 -10 -9 0 -16 5 -16
10 0 6 4 10 9 10 6 0 13 -4 16 -10z m2980 0 c-3 -5 -11 -10 -16 -10 -6 0 -7 5
-4 10 3 6 11 10 16 10 6 0 7 -4 4 -10z m-355 -15 c0 -17 -39 -35 -76 -35 -31
0 -32 27 -1 40 36 15 77 12 77 -5z m392 -37 c6 -16 -1 -38 -12 -38 -11 0 -21
30 -14 41 8 13 21 11 26 -3z m-412 -22 c-37 -20 -80 -28 -80 -16 0 14 38 29
75 29 l30 0 -25 -13z m822 -8 c-7 -7 -12 -8 -12 -2 0 14 12 26 19 19 2 -3 -1
-11 -7 -17z m-1057 -34 c-27 -7 -61 -13 -75 -13 -16 1 -7 6 25 14 68 18 113
17 50 -1z m244 1 c-19 -19 -89 -32 -89 -17 0 12 45 30 80 31 22 1 23 -1 9 -14z
m471 -15 c0 -5 -7 -10 -16 -10 -8 0 -12 5 -9 10 3 6 10 10 16 10 5 0 9 -4 9
-10z m319 -9 c10 -6 10 -10 1 -16 -9 -6 -9 -9 0 -15 18 -11 -4 -46 -40 -65
-30 -15 -30 -15 -30 11 0 26 -1 26 -57 20 -32 -4 -86 -13 -121 -20 -34 -7 -64
-10 -67 -6 -8 12 7 20 39 21 58 0 197 36 224 57 31 24 33 25 51 13z m-799 -26
c-8 -10 -8 -15 1 -21 18 -11 -19 -34 -54 -34 -24 0 -27 3 -18 14 8 10 9 16 1
21 -16 10 -2 24 33 33 38 11 52 5 37 -13z m316 10 c-11 -8 -22 -12 -25 -9 -6
6 19 24 34 24 6 -1 1 -7 -9 -15z m104 -5 c-8 -5 -19 -10 -25 -10 -5 0 -3 5 5
10 8 5 20 10 25 10 6 0 3 -5 -5 -10z m45 -29 c8 -14 -3 -18 -65 -25 l-55 -6
45 19 c51 23 66 25 75 12z m-465 -56 c-15 -18 -61 -28 -73 -16 -7 7 0 15 23
25 39 16 67 11 50 -9z m458 13 c-4 -12 -26 -17 -133 -33 -74 -10 -45 10 40 28
90 19 98 20 93 5z m312 -23 c-7 -8 -17 -15 -23 -15 -6 0 -2 7 9 15 25 19 30
19 14 0z m-1064 -32 c-4 -25 -26 -28 -26 -4 0 12 6 21 14 21 8 0 13 -8 12 -17z
m294 8 c0 -11 -25 -21 -51 -21 -26 0 -24 18 4 23 39 8 47 7 47 -2z m790 -5 c0
-3 -13 -19 -28 -35 -25 -27 -28 -29 -29 -11 -1 11 8 27 20 35 21 15 37 19 37
11z m-345 -26 c-3 -5 -32 -10 -63 -9 -41 0 -51 3 -37 9 29 12 108 12 100 0z
m-445 -10 c0 -13 -48 -32 -61 -24 -15 9 -10 22 9 27 31 8 52 7 52 -3z m317
-36 c-3 -3 -12 -4 -19 -1 -8 3 -5 6 6 6 11 1 17 -2 13 -5z m-324 -21 c-7 -2
-21 -2 -30 0 -10 3 -4 5 12 5 17 0 24 -2 18 -5z m437 -3 c0 -5 -21 -9 -47 -8
l-48 1 45 7 c25 4 46 8 48 8 1 1 2 -2 2 -8z m315 -20 c-3 -5 -11 -10 -16 -10
-6 0 -7 5 -4 10 3 6 11 10 16 10 6 0 7 -4 4 -10z m-762 -7 c-7 -2 -19 -2 -25
0 -7 3 -2 5 12 5 14 0 19 -2 13 -5z m767 -22 c0 -24 -21 -61 -35 -61 -19 0
-19 20 1 48 15 22 34 29 34 13z m-317 -13 c-2 -5 -5 -8 -8 -8 -3 0 -33 1 -67
1 -59 2 -60 2 -23 9 49 9 101 8 98 -2z m-423 -8 c0 -5 -16 -10 -36 -10 -21 0
-33 4 -29 10 3 6 19 10 36 10 16 0 29 -4 29 -10z m340 -34 c0 -2 -16 -6 -35
-8 -19 -2 -35 0 -35 4 0 4 16 8 35 8 19 0 35 -2 35 -4z m-315 -26 c4 -6 -8
-10 -30 -10 -22 0 -34 4 -30 10 3 6 17 10 30 10 13 0 27 -4 30 -10z m680 -12
c-4 -13 -7 -31 -6 -40 0 -10 -4 -20 -10 -23 -5 -4 -9 -16 -9 -28 0 -12 -10
-42 -21 -67 -12 -25 -29 -61 -38 -80 -15 -33 -32 -53 -39 -46 -3 4 73 208 89
238 5 10 9 26 9 36 0 21 8 32 23 32 5 0 6 -10 2 -22z m-285 -3 c0 -12 -14 -15
-64 -15 -108 0 -93 25 17 29 36 1 47 -3 47 -14z m0 -65 c0 -12 -97 -12 -125 0
-14 6 3 9 53 9 42 1 72 -3 72 -9z m-1 -29 c7 -5 9 -11 4 -14 -10 -7 -142 8
-150 17 -10 10 131 7 146 -3z m-11 -58 c-10 -2 -26 -2 -35 0 -10 3 -2 5 17 5
19 0 27 -2 18 -5z m12 -33 c0 -5 -7 -7 -15 -4 -8 4 -15 8 -15 10 0 2 7 4 15 4
8 0 15 -4 15 -10z m-3511 -282 c-38 -64 -44 -71 -35 -38 12 43 40 90 53 90 8
0 1 -20 -18 -52z m-104 -28 c-50 -69 -58 -55 -10 17 21 32 40 52 43 45 2 -6
-13 -35 -33 -62z m-71 52 c6 -10 -59 -82 -73 -82 -6 0 3 20 20 45 30 44 43 53
53 37z m-146 -113 c-12 -22 -29 -46 -37 -52 -12 -10 -13 -9 -5 3 5 8 20 32 33
53 31 50 38 47 9 -4z m313 -16 c-12 -20 -14 -14 -5 12 4 9 9 14 11 11 3 -2 0
-13 -6 -23z m-271 -12 c-5 -11 -15 -23 -22 -27 -7 -5 -8 -2 -3 7 21 37 44 55
25 20z m-14 -90 c-15 -28 -31 -51 -36 -51 -10 0 8 42 38 88 26 40 24 16 -2
-37z m-268 25 c-15 -13 -36 -31 -47 -38 -34 -24 -169 -330 -186 -421 -11 -56
-23 -25 -14 33 10 64 87 308 100 315 5 4 7 10 4 14 -6 11 32 45 96 86 62 40
86 45 47 11z m30 -41 c-6 -14 -13 -23 -15 -21 -5 5 15 46 22 46 3 0 -1 -11 -7
-25z m351 -42 c-44 -79 -90 -145 -96 -140 -7 8 35 84 67 121 17 18 30 38 30
43 0 9 20 33 28 33 2 0 -11 -26 -29 -57z m-269 -7 c0 -12 -62 -137 -66 -133
-7 7 47 137 57 137 5 0 9 -2 9 -4z m-322 -58 c-3 -7 -15 -14 -29 -16 -23 -2
-23 -2 -5 13 24 18 39 20 34 3z m336 -59 c-10 -23 -19 -38 -21 -33 -4 13 26
88 33 81 3 -2 -3 -24 -12 -48z m56 -4 c-8 -34 -29 -70 -36 -62 -9 8 29 97 41
97 2 0 -1 -16 -5 -35z m-430 11 c0 -2 -15 -40 -33 -83 -50 -117 -61 -164 -54
-242 5 -59 3 -73 -17 -106 -19 -30 -24 -34 -29 -20 -32 83 69 455 124 455 5 0
9 -2 9 -4z m4 -101 c-13 -44 -27 -109 -31 -145 -6 -68 -17 -100 -33 -100 -15
0 -12 75 6 143 14 55 73 191 80 184 2 -1 -8 -39 -22 -82z m-118 53 c-34 -48
-83 -186 -111 -313 -8 -38 -23 -95 -33 -125 l-17 -55 -3 41 c-3 43 33 219 70
342 16 55 30 81 55 103 40 35 62 38 39 7z m215 -71 c-6 -15 -18 -66 -26 -114
-19 -102 -35 -129 -33 -57 1 55 51 214 64 202 2 -3 0 -17 -5 -31z m105 -4
c-14 -79 -18 -93 -27 -93 -6 0 -8 8 -6 18 3 9 10 38 17 65 15 56 25 62 16 10z
m-444 -35 c-32 -70 -71 -203 -83 -281 -19 -126 -67 -205 -55 -91 3 30 8 59 11
65 4 5 8 27 10 50 6 60 64 239 80 245 7 3 11 12 9 19 -3 7 5 24 17 36 30 30
35 11 11 -43z m683 -78 c-9 -16 -18 -30 -20 -30 -6 0 6 32 18 48 17 22 18 13
2 -18z m-94 -127 c-10 -17 -10 -16 -11 3 0 23 13 41 18 25 2 -6 -1 -18 -7 -28z
m-383 -66 c-6 -20 -22 -44 -34 -52 -13 -8 -42 -49 -65 -90 -41 -75 -56 -95
-40 -52 16 40 93 191 114 220 25 37 40 22 25 -26z m301 -107 c-29 -55 -54 -98
-56 -96 -3 3 40 109 85 206 14 31 16 33 19 13 3 -14 -16 -62 -48 -123z m952
-18 c-25 -63 -84 -180 -104 -207 -9 -11 -19 -17 -23 -13 -4 4 4 22 18 40 36
47 85 148 99 203 7 28 15 43 21 37 5 -5 1 -29 -11 -60z m69 38 c0 -17 -66
-143 -89 -170 -18 -21 -16 -15 8 40 16 36 36 82 44 103 15 34 37 51 37 27z
m-145 -77 c-9 -21 -23 -45 -32 -53 -14 -13 -14 -12 -8 10 12 40 35 80 45 80 6
0 3 -17 -5 -37z m-1499 -40 c-16 -31 -25 -41 -25 -28 -1 22 37 90 45 82 3 -3
-6 -27 -20 -54z m-61 -19 c-20 -52 -42 -72 -31 -29 4 16 14 45 23 64 22 51 29
20 8 -35z m310 34 c-4 -18 -17 -49 -30 -68 -25 -39 -92 -223 -156 -428 -22
-74 -43 -131 -45 -129 -19 18 148 507 217 640 15 27 21 20 14 -15z m1384 -29
c-30 -53 -37 -34 -8 23 12 24 24 37 26 31 3 -7 -6 -31 -18 -54z m-1618 -32
c-25 -39 -27 -30 -4 18 10 20 19 32 21 26 2 -6 -6 -26 -17 -44z m-137 -54 c-6
-34 -130 -283 -140 -283 -7 0 42 121 89 223 25 53 48 97 52 97 3 0 3 -17 -1
-37z m76 19 c0 -16 -82 -160 -122 -214 l-18 -23 10 29 c18 51 112 226 121 226
5 0 9 -8 9 -18z m1273 -44 c-33 -82 -53 -121 -60 -115 -5 6 73 177 81 177 2 0
-7 -28 -21 -62z m-1267 -16 c-17 -16 -18 -16 -5 5 7 12 15 20 18 17 3 -2 -3
-12 -13 -22z m1433 -81 c-33 -63 -69 -105 -69 -81 0 15 45 96 68 123 31 36 32
15 1 -42z m70 -38 c-12 -21 -32 -49 -44 -63 -30 -33 -100 -145 -155 -245 -40
-74 -90 -146 -90 -130 0 9 145 267 186 333 19 28 38 52 43 52 5 0 24 20 42 45
39 55 49 59 18 8z m1361 9 c0 -5 -11 -19 -25 -32 l-25 -23 0 25 c0 15 6 29 13
31 19 8 37 8 37 -1z m-1507 -97 c-3 -9 -8 -14 -10 -11 -3 3 -2 9 2 15 9 16 15
13 8 -4z m924 -1 c-3 -3 -12 -4 -19 -1 -8 3 -5 6 6 6 11 1 17 -2 13 -5z m10
-40 c-3 -3 -12 -4 -19 -1 -8 3 -5 6 6 6 11 1 17 -2 13 -5z m-1097 -191 c-100
-191 -260 -483 -265 -483 -21 0 213 450 313 603 48 72 33 36 -48 -120z m304
95 c-10 -32 -54 -101 -61 -95 -5 6 55 117 63 117 3 0 2 -10 -2 -22z m-1118
-29 c-8 -19 -15 -29 -15 -22 -1 18 19 67 25 61 3 -3 -2 -21 -10 -39z m1965
-37 c-14 -27 -50 -56 -59 -48 -4 4 8 21 26 37 37 33 47 37 33 11z m492 -96
c18 -14 27 -26 20 -26 -14 0 -81 67 -95 95 -5 11 2 6 17 -12 14 -18 40 -44 58
-57z m-3427 -85 c-69 -140 -172 -321 -181 -321 -9 0 17 53 117 240 114 212
130 241 136 235 2 -2 -30 -71 -72 -154z m2599 109 c-4 -23 -9 -39 -12 -36 -3
2 -2 23 2 46 4 23 9 39 12 36 3 -2 2 -23 -2 -46z m-1623 -11 c14 -9 0 -65 -19
-81 -15 -12 -16 -10 -10 19 6 31 6 32 -13 15 -11 -9 -20 -25 -20 -36 0 -11
-25 -63 -55 -115 -65 -115 -117 -227 -176 -379 -24 -63 -45 -109 -47 -103 -5
16 64 210 130 365 72 170 113 251 138 276 10 10 27 34 36 52 16 28 19 30 22
13 2 -11 9 -23 14 -26z m2513 -23 c14 -12 -13 3 -47 26 -16 11 -28 24 -28 31
0 6 15 -2 33 -19 17 -16 37 -33 42 -38z m425 34 c0 -5 -10 -10 -22 -10 -19 0
-20 2 -8 10 19 13 30 13 30 0z m-1333 -92 c-3 -8 -6 -5 -6 6 -1 11 2 17 5 13
3 -3 4 -12 1 -19z m-836 -113 c-33 -59 -81 -158 -106 -219 -77 -181 -279 -585
-334 -667 -64 -96 -97 -125 -52 -46 96 169 218 394 263 485 48 100 57 143 18
92 -44 -57 -10 24 66 155 61 108 196 316 201 311 1 -1 -24 -51 -56 -111z
m1865 57 c-5 -4 -86 36 -86 43 0 3 20 -5 45 -17 24 -12 43 -23 41 -26z m-1001
-32 c-10 -29 -24 -64 -31 -79 -8 -14 -14 -33 -14 -42 0 -20 -69 -191 -82 -204
-14 -14 -3 35 38 169 18 60 39 113 47 118 9 4 23 28 33 53 23 62 30 49 9 -15z
m-2029 15 c-8 -19 -20 -43 -26 -52 -9 -15 -10 -12 -6 16 5 29 30 71 43 71 2 0
-3 -16 -11 -35z m3174 -15 c50 -21 77 -27 84 -20 5 5 28 10 50 10 l40 0 -23
-21 c-15 -14 -31 -20 -49 -16 -53 9 -155 39 -195 57 l-42 19 31 0 c17 1 64
-13 104 -29z m125 -80 c-3 -5 -10 -10 -16 -10 -5 0 -9 5 -9 10 0 6 7 10 16 10
8 0 12 -4 9 -10z m-3573 -82 c-7 -7 -12 -8 -12 -2 0 6 3 14 7 17 3 4 9 5 12 2
2 -3 -1 -11 -7 -17z m2622 -100 c-3 -7 -17 -22 -32 -32 -27 -19 -27 -19 2 12
32 35 38 38 30 20z m-94 -37 c0 -14 -18 -23 -30 -16 -6 4 -8 11 -5 16 8 12 35
12 35 0z m85 -81 c-16 -16 -31 -28 -33 -25 -7 7 39 55 52 55 5 0 -3 -13 -19
-30z m-451 -124 c-45 -123 -63 -156 -50 -96 7 37 87 232 93 227 2 -3 -17 -61
-43 -131z m-2229 72 c-2 -7 -20 -65 -40 -128 -41 -129 -54 -158 -55 -122 0 36
81 262 94 262 3 0 4 -6 1 -12z m1352 -40 c-3 -8 -6 -5 -6 6 -1 11 2 17 5 13 3
-3 4 -12 1 -19z m-186 -55 c-10 -21 -27 -47 -36 -58 -9 -11 -2 8 16 42 18 34
35 61 37 59 2 -2 -6 -21 -17 -43z m-820 -47 c-12 -42 -21 -94 -21 -116 0 -27
-7 -47 -24 -65 -14 -15 -42 -62 -62 -106 -20 -43 -39 -77 -41 -75 -3 2 10 46
27 98 43 127 132 349 137 344 3 -2 -5 -39 -16 -80z m2321 -50 c-36 -71 -52
-85 -52 -47 0 18 80 135 87 128 2 -3 -13 -39 -35 -81z m-1509 -13 c-139 -257
-193 -348 -204 -345 -6 2 -23 -7 -37 -20 -23 -21 -24 -21 -14 -2 6 11 60 94
119 185 60 90 124 188 142 217 50 79 48 62 -6 -35z m1117 10 c-27 -83 -171
-462 -200 -527 -39 -85 -50 -81 -16 6 14 34 56 146 95 248 79 211 124 320 129
315 2 -2 -2 -21 -8 -42z m46 -65 c-8 -29 -22 -79 -31 -111 -9 -32 -19 -56 -22
-54 -2 3 10 58 28 122 18 65 35 113 37 106 2 -6 -3 -34 -12 -63z m-2192 -190
c-37 -92 -72 -168 -76 -168 -23 0 38 190 99 307 65 125 52 46 -23 -139z m1976
68 c-12 -36 -28 -70 -35 -76 -15 -13 -6 23 33 130 25 69 27 21 2 -54z m555
-152 c-21 -58 -39 -103 -41 -102 -1 2 13 55 33 118 20 63 38 109 41 102 2 -8
-13 -61 -33 -118z m1207 54 c-9 -9 -12 -7 -12 12 0 19 3 21 12 12 9 -9 9 -15
0 -24z m-3507 -40 c-7 -33 -55 -122 -55 -103 0 13 52 135 57 135 3 0 1 -15 -2
-32z m111 -35 c-8 -15 -15 -25 -16 -21 0 12 23 58 27 54 3 -2 -2 -17 -11 -33z
m2259 -56 c-20 -62 -77 -189 -82 -184 -2 3 10 37 26 78 16 41 38 102 48 137
11 38 19 55 21 42 2 -11 -4 -44 -13 -73z m-2596 19 c-7 -25 -7 -41 0 -49 11
-15 -38 -114 -54 -109 -18 6 -6 74 26 139 34 70 44 77 28 19z m433 -118 c-6
-6 -15 -8 -19 -4 -4 4 -1 11 7 16 19 12 27 3 12 -12z m2198 12 c0 -32 -119
-260 -136 -260 -7 0 92 238 108 258 13 15 28 16 28 2z m-656 -72 c-23 -83 -33
-103 -46 -90 -8 8 -1 34 22 86 19 42 35 74 38 72 2 -2 -4 -33 -14 -68z m2051
-8 c-22 -43 -32 -30 -11 14 9 19 17 42 17 53 1 10 4 6 6 -9 2 -15 -3 -41 -12
-58z m-3716 36 c-13 -29 -32 -36 -22 -8 8 22 25 44 30 39 2 -3 -2 -16 -8 -31z
m1557 -41 c-9 -31 -15 -41 -15 -26 -1 29 23 112 26 91 2 -8 -3 -37 -11 -65z
m-1711 26 c-3 -6 -11 -11 -17 -11 -6 0 -6 6 2 15 14 17 26 13 15 -4z m265 13
c0 -13 -21 -44 -30 -44 -14 0 -12 24 2 38 13 13 28 16 28 6z m504 -48 c-3 -9
-13 -16 -22 -16 -13 0 -12 3 3 20 20 23 29 21 19 -4z m-746 -26 c6 0 15 -7 20
-17 7 -12 18 -15 46 -10 20 3 36 2 36 -4 0 -29 -135 -2 -156 32 -11 18 19 31
32 14 6 -8 16 -15 22 -15z m1236 -5 c-4 -8 -10 -15 -15 -15 -4 0 -6 7 -3 15 4
8 10 15 15 15 4 0 6 -7 3 -15z m-1034 -5 c-19 -13 -30 -13 -30 0 0 6 10 10 23
10 18 0 19 -2 7 -10z m970 0 c0 -5 -5 -10 -11 -10 -5 0 -7 5 -4 10 3 6 8 10
11 10 2 0 4 -4 4 -10z m210 0 c0 -5 -5 -10 -11 -10 -5 0 -7 5 -4 10 3 6 8 10
11 10 2 0 4 -4 4 -10z m-293 -6 c-3 -3 -12 -4 -19 -1 -8 3 -5 6 6 6 11 1 17
-2 13 -5z m1470 -51 c-3 -10 -5 -2 -5 17 0 19 2 27 5 18 2 -10 2 -26 0 -35z
m-461 -31 c-11 -10 -14 3 -8 33 l7 30 3 -28 c2 -16 1 -31 -2 -35z m693 -9
c-130 -165 -172 -213 -191 -213 -13 0 -17 4 -12 13 10 16 245 267 251 267 3 0
-19 -30 -48 -67z m-1892 41 c-3 -3 -12 -4 -19 -1 -8 3 -5 6 6 6 11 1 17 -2 13
-5z m1150 -16 c-3 -8 -6 -5 -6 6 -1 11 2 17 5 13 3 -3 4 -12 1 -19z m403 4 c0
-14 -101 -154 -107 -149 -5 5 94 157 102 157 3 0 5 -4 5 -8z m-950 -42 c0 -17
-7 -20 -52 -20 -37 0 -49 3 -38 10 8 5 24 7 36 4 12 -3 26 1 33 10 17 21 21
20 21 -4z m106 5 c5 -11 10 -12 26 -4 23 13 31 8 22 -14 -8 -23 -84 -19 -84 3
0 31 26 41 36 15z m144 -6 c0 -18 -2 -19 -15 -9 -8 7 -15 16 -15 21 0 5 7 9
15 9 9 0 15 -9 15 -21z m-43 -25 c-9 -9 -28 6 -21 18 4 6 10 6 17 -1 6 -6 8
-13 4 -17z m329 -1 c-10 -10 -19 5 -10 18 6 11 8 11 12 0 2 -7 1 -15 -2 -18z
m64 7 c0 -5 -7 -10 -15 -10 -8 0 -15 5 -15 10 0 6 7 10 15 10 8 0 15 -4 15
-10z m-602 -47 c6 -15 12 -29 12 -33 0 -3 -93 1 -207 8 -115 7 -431 16 -703
21 -272 4 -463 9 -425 11 237 10 571 17 915 18 l395 2 13 -27z m153 -8 l6 -30
11 28 c9 21 18 27 41 27 18 0 34 -7 40 -17 8 -14 12 -15 25 -4 13 11 17 11 22
-2 7 -19 2 -48 -9 -49 -4 0 -64 3 -132 7 -115 7 -125 9 -112 24 8 9 16 23 19
31 4 10 19 15 44 15 35 0 39 -3 45 -30z m382 6 c-4 -16 7 -14 28 5 21 19 39
11 39 -17 0 -10 5 -19 10 -19 6 0 10 -11 10 -25 0 -21 -5 -25 -27 -25 -62 0
-163 13 -163 21 0 5 6 9 14 9 7 0 26 16 41 36 25 32 53 42 48 15z m-125 -31
c-7 -22 -16 -30 -34 -30 -30 0 -30 1 4 38 32 36 45 33 30 -8z m525 9 c-19 -32
-64 -78 -48 -49 13 25 56 80 61 80 3 0 -3 -14 -13 -31z m107 16 c-7 -9 -15
-13 -17 -11 -7 7 7 26 19 26 6 0 6 -6 -2 -15z m-320 -28 c0 -18 -5 -38 -12
-45 -12 -12 -60 -17 -71 -6 -10 10 20 67 38 70 9 1 19 5 23 8 13 14 22 4 22
-27z m284 -44 c-9 -39 -13 -43 -33 -43 -31 0 -32 13 -4 42 34 35 45 36 37 1z
m253 -50 c-14 -14 -19 -15 -29 -4 -7 8 -8 11 -3 8 6 -3 17 -2 25 4 23 14 26
11 7 -8z m228 7 c-3 -5 -11 -10 -16 -10 -6 0 -7 5 -4 10 3 6 11 10 16 10 6 0
7 -4 4 -10z m40 -46 c0 -13 -6 -18 -20 -16 -28 5 -30 9 -15 27 16 20 35 14 35
-11z m1025 -59 c15 -18 15 -17 -27 -39 -37 -18 -42 -9 -17 29 19 29 27 31 44
10z"/>
<path d="M6115 7183 c-34 -9 -63 -33 -75 -63 -19 -45 -7 -56 15 -14 12 22 28
38 40 39 33 3 95 26 95 36 0 9 -40 10 -75 2z"/>
<path d="M4278 7223 c12 -2 30 -2 40 0 9 3 -1 5 -23 4 -22 0 -30 -2 -17 -4z"/>
<path d="M6130 6136 c0 -2 8 -10 18 -17 15 -13 16 -12 3 4 -13 16 -21 21 -21
13z"/>
<path d="M5888 5113 c7 -3 16 -2 19 1 4 3 -2 6 -13 5 -11 0 -14 -3 -6 -6z"/>
<path d="M5669 5537 c5 -5 19 -7 32 -5 20 3 19 5 -9 9 -20 3 -29 2 -23 -4z"/>
<path d="M5858 4773 c7 -3 16 -2 19 1 4 3 -2 6 -13 5 -11 0 -14 -3 -6 -6z"/>
<path d="M4890 2120 c0 -5 5 -10 10 -10 6 0 10 5 10 10 0 6 -4 10 -10 10 -5 0
-10 -4 -10 -10z"/>
<path d="M3430 7911 c-14 -4 -31 -19 -38 -33 -7 -15 -21 -29 -31 -33 -26 -8
-45 -50 -46 -103 0 -39 -3 -47 -20 -50 -11 -2 -24 -8 -29 -13 -8 -8 18 -10 82
-9 4 0 8 19 8 43 1 23 2 52 3 65 0 12 10 30 20 39 11 9 18 20 15 25 -10 16 15
42 57 59 43 17 29 24 -21 10z"/>
<path d="M9196 7850 c7 -40 24 -76 23 -50 0 8 -7 31 -15 50 l-14 35 6 -35z"/>
<path d="M8407 7250 c4 -4 37 -10 73 -13 36 -3 56 -2 45 3 -28 10 -128 19
-118 10z"/>
<path d="M8128 7228 c9 -9 15 -9 24 0 9 9 7 12 -12 12 -19 0 -21 -3 -12 -12z"/>
<path d="M9340 7197 c0 -31 -36 -104 -57 -115 -18 -10 -27 -55 -9 -49 5 2 24
30 42 63 36 66 52 124 35 124 -6 0 -11 -10 -11 -23z"/>
<path d="M9262 7165 c0 -16 2 -22 5 -12 2 9 2 23 0 30 -3 6 -5 -1 -5 -18z"/>
<path d="M4825 7131 c-6 -11 9 -23 19 -14 9 9 7 23 -3 23 -6 0 -12 -4 -16 -9z"/>
<path d="M7418 7013 c7 -3 16 -2 19 1 4 3 -2 6 -13 5 -11 0 -14 -3 -6 -6z"/>
<path d="M9323 6835 c-10 -10 -9 -14 3 -19 22 -8 24 -8 24 8 0 21 -13 26 -27
11z"/>
<path d="M9219 6823 c11 -21 60 -58 67 -50 4 4 -40 46 -65 61 -10 7 -11 4 -2
-11z"/>
<path d="M9182 6810 c7 -10 14 -18 15 -16 6 6 -9 36 -18 36 -5 0 -4 -9 3 -20z"/>
<path d="M9436 6755 c4 -8 11 -15 16 -15 6 0 5 6 -2 15 -7 8 -14 15 -16 15 -2
0 -1 -7 2 -15z"/>
<path d="M9480 6668 c5 -18 13 -52 19 -74 6 -23 11 -51 11 -62 0 -29 -21 -73
-31 -66 -5 3 -9 -3 -9 -13 1 -15 6 -12 27 12 24 27 25 34 19 98 -6 61 -28 137
-40 137 -2 0 0 -15 4 -32z"/>
<path d="M9451 6675 c1 -19 18 -51 18 -35 0 8 -4 22 -9 30 -5 8 -9 11 -9 5z"/>
<path d="M3538 6653 c7 -3 16 -2 19 1 4 3 -2 6 -13 5 -11 0 -14 -3 -6 -6z"/>
<path d="M9413 6565 c0 -38 2 -53 4 -32 2 20 2 52 0 70 -2 17 -4 1 -4 -38z"/>
<path d="M7365 6554 c-9 -15 -12 -23 -6 -20 11 7 35 46 28 46 -3 0 -12 -12
-22 -26z"/>
<path d="M9466 6359 c-16 -10 -34 -25 -38 -33 -10 -18 -3 -21 15 -6 7 6 23 19
37 29 33 26 23 33 -14 10z"/>
<path d="M7200 6325 c0 -5 5 -17 10 -25 5 -8 10 -10 10 -5 0 6 -5 17 -10 25
-5 8 -10 11 -10 5z"/>
<path d="M6504 6100 c6 -174 16 -218 61 -287 19 -29 35 -56 35 -61 0 -12 200
-222 212 -222 10 0 -35 62 -84 115 -84 90 -165 213 -178 269 -5 23 -10 78 -10
124 0 48 -4 82 -10 82 -5 0 -10 21 -10 48 0 26 -5 54 -11 62 -7 11 -9 -26 -5
-130z"/>
<path d="M6910 6142 c0 -13 72 -32 116 -31 36 1 35 2 -14 10 -29 5 -62 14 -72
19 -23 12 -30 13 -30 2z"/>
<path d="M6820 6115 c0 -5 25 -59 55 -120 30 -62 63 -145 72 -186 20 -84 31
-61 13 26 -14 67 -140 319 -140 280z"/>
<path d="M6890 6113 c0 -5 9 -18 20 -28 11 -10 20 -15 20 -11 0 4 -9 16 -20
28 -11 12 -20 17 -20 11z"/>
<path d="M7084 6093 c-30 -6 -67 -48 -70 -80 l-3 -27 18 31 c20 32 67 73 84
73 6 0 -2 -15 -19 -32 l-29 -33 35 31 c19 17 42 34 50 37 17 6 -34 6 -66 0z"/>
<path d="M9360 6060 c-8 -5 -34 -10 -56 -10 -28 0 -46 -6 -55 -17 -11 -15 -11
-16 1 -5 8 7 44 12 85 13 38 1 62 3 52 6 -9 2 -15 9 -12 14 8 11 4 11 -15 -1z"/>
<path d="M2765 5950 c-3 -5 1 -10 9 -10 8 0 18 5 21 10 3 6 -1 10 -9 10 -8 0
-18 -4 -21 -10z"/>
<path d="M3973 5900 c-18 -11 -33 -22 -33 -25 0 -2 16 5 35 16 19 12 35 23 35
25 0 6 -3 5 -37 -16z"/>
<path d="M4265 5756 c-56 -18 -113 -48 -187 -100 -35 -24 -94 -63 -133 -86
-77 -46 -179 -129 -171 -138 3 -3 0 -12 -6 -20 -7 -7 -12 -26 -13 -40 0 -19
-6 -28 -20 -30 -45 -8 -134 -119 -112 -141 8 -8 8 -11 0 -11 -15 0 -43 40 -43
62 0 9 -5 20 -12 24 -8 5 -9 -4 -5 -32 4 -27 16 -47 39 -67 23 -19 32 -35 30
-51 -4 -30 36 -99 54 -92 7 3 16 1 19 -5 11 -17 80 -46 125 -52 25 -3 54 -9
63 -13 11 -4 17 -1 17 9 0 8 7 18 16 21 8 3 12 11 8 17 -4 7 -3 9 3 6 6 -4 23
0 39 7 16 8 43 17 60 21 28 5 32 3 44 -25 7 -17 22 -36 34 -42 20 -12 20 -12
-9 -19 -28 -6 -27 -7 11 -8 23 0 72 8 108 20 52 15 69 26 76 45 11 27 10 27
44 15 18 -7 27 -6 36 3 20 25 -64 56 -171 62 -84 5 -108 2 -219 -26 -69 -17
-135 -34 -147 -37 -44 -11 -92 73 -77 134 10 39 -19 24 -32 -17 l-11 -34 -13
25 c-7 13 -19 28 -26 32 -8 4 -14 18 -14 31 0 17 12 30 49 49 56 31 65 33 57
12 -3 -9 16 2 42 24 167 141 172 144 172 120 0 -5 5 -7 10 -4 6 3 10 15 10 25
0 13 5 17 14 14 8 -3 19 3 26 15 6 12 17 21 25 21 18 0 52 19 77 43 18 17 22
18 68 22 32 3 151 44 128 45 -10 0 -18 4 -18 9 0 12 25 21 58 21 25 0 25 1 6
14 -18 14 -18 15 9 25 23 9 36 7 80 -15 46 -23 50 -24 34 -6 -10 11 -29 23
-43 26 -13 4 -30 19 -38 35 -15 28 -47 41 -104 41 -40 0 -16 13 36 21 l47 6
-55 1 c-30 0 -73 -5 -95 -12z m150 -59 c24 -19 9 -27 -63 -34 -71 -7 -61 9 11
18 52 6 52 6 10 8 -24 0 -43 6 -43 11 0 15 63 12 85 -3z m-125 -117 c-8 -5
-19 -10 -25 -10 -5 0 -3 5 5 10 8 5 20 10 25 10 6 0 3 -5 -5 -10z m-290 -70
c0 -5 -5 -10 -11 -10 -5 0 -7 5 -4 10 3 6 8 10 11 10 2 0 4 -4 4 -10z m-10
-64 c0 -8 -112 -67 -118 -62 -7 7 28 35 44 36 7 0 14 7 18 15 5 13 56 23 56
11z m-150 -116 c0 -5 -8 -10 -17 -10 -15 0 -16 2 -3 10 19 12 20 12 20 0z
m-82 -21 c24 -1 23 -2 -10 -13 -20 -6 -43 -17 -50 -24 -23 -23 -29 -12 -11 18
10 18 23 28 31 25 8 -3 26 -5 40 -6z"/>
<path d="M4450 5718 c0 -13 19 -18 25 -8 11 17 32 -6 67 -71 17 -33 35 -59 39
-59 12 0 12 1 -16 62 -14 30 -33 62 -43 71 -16 15 -72 19 -72 5z"/>
<path d="M9220 5701 c0 -5 7 -11 15 -15 8 -3 15 -1 15 3 0 5 -7 11 -15 15 -8
3 -15 1 -15 -3z"/>
<path d="M4530 5606 c0 -10 52 -87 57 -82 2 2 -8 21 -22 42 -30 44 -35 50 -35
40z"/>
<path d="M4395 5590 c-4 -6 6 -10 23 -10 16 0 45 -2 63 -5 25 -4 29 -3 14 3
-36 16 -93 23 -100 12z"/>
<path d="M4138 5408 c7 -7 12 -18 12 -26 0 -12 -3 -12 -15 -2 -13 11 -14 10
-9 -4 4 -11 19 -16 51 -16 55 0 153 -25 206 -52 21 -10 37 -15 34 -10 -16 24
-138 74 -196 79 -40 4 -61 10 -61 19 0 7 6 15 13 17 6 3 -1 6 -17 6 -23 1 -27
-2 -18 -11z"/>
<path d="M3727 5393 c-4 -3 -7 -11 -7 -17 0 -6 5 -5 12 2 6 6 9 14 7 17 -3 3
-9 2 -12 -2z"/>
<path d="M7379 5373 c-13 -16 -12 -17 4 -4 16 13 21 21 13 21 -2 0 -10 -8 -17
-17z"/>
<path d="M7344 5328 c-11 -13 -28 -36 -38 -51 -17 -27 -17 -28 1 -19 16 9 71
92 60 92 -2 0 -12 -10 -23 -22z"/>
<path d="M4155 5319 c-70 -14 -174 -48 -181 -61 -4 -7 2 -7 17 -3 79 26 133
35 204 35 82 0 111 -6 178 -35 22 -9 36 -12 33 -6 -3 5 -1 11 5 13 21 7 -109
59 -158 63 -27 2 -70 -1 -98 -6z"/>
<path d="M3897 5245 c-28 -14 -91 -61 -72 -54 39 16 105 54 105 61 0 10 0 10
-33 -7z"/>
<path d="M4553 5196 c-13 -6 -23 -13 -23 -16 0 -3 18 -25 40 -48 46 -47 50
-62 18 -62 -21 -1 -22 -1 -5 -11 34 -20 138 12 105 32 -9 6 -7 13 9 31 27 29
43 83 22 76 -7 -2 -16 -15 -19 -28 -3 -13 -12 -26 -20 -30 -69 -34 -70 -34
-85 -14 -19 25 -18 31 1 38 9 4 14 9 11 13 -4 3 -13 0 -22 -7 -20 -17 -32 -5
-15 15 17 20 11 24 -17 11z"/>
<path d="M7330 5125 c0 -14 6 -25 14 -25 9 0 12 8 8 25 -2 14 -8 25 -13 25 -5
0 -9 -11 -9 -25z"/>
<path d="M4305 4950 c-60 -26 -117 -54 -125 -61 -10 -9 -41 -14 -95 -14 -44 0
-92 -4 -106 -9 -21 -6 -31 -3 -47 14 -15 16 -29 21 -58 18 -21 -2 -39 -9 -42
-17 -4 -11 3 -12 30 -7 28 5 44 0 92 -29 32 -19 71 -35 87 -35 64 0 239 48
239 65 0 3 -21 3 -47 0 -43 -6 -36 -1 57 38 96 40 160 73 160 83 0 12 -47 -3
-145 -46z"/>
<path d="M4356 4873 c-43 -40 -53 -53 -35 -48 37 11 111 87 97 100 -2 2 -30
-22 -62 -52z"/>
<path d="M3922 4833 c25 -15 59 -37 74 -48 22 -16 47 -20 135 -23 68 -2 110 1
114 7 7 12 7 12 -120 17 -94 3 -123 11 -165 43 -14 11 -38 23 -55 26 -26 6
-24 3 17 -22z"/>
<path d="M3238 4843 c6 -2 18 -2 25 0 6 3 1 5 -13 5 -14 0 -19 -2 -12 -5z"/>
<path d="M2960 4810 c-12 -8 -10 -10 8 -10 13 0 20 4 17 10 -7 12 -6 12 -25 0z"/>
<path d="M3105 4763 c-22 -8 -65 -15 -96 -16 -77 -3 -64 -17 14 -17 39 0 77 7
105 20 68 31 51 41 -23 13z"/>
<path d="M8138 4653 c6 -2 18 -2 25 0 6 3 1 5 -13 5 -14 0 -19 -2 -12 -5z"/>
<path d="M9430 4480 c-6 -11 -8 -20 -6 -20 3 0 10 9 16 20 6 11 8 20 6 20 -3
0 -10 -9 -16 -20z"/>
<path d="M9395 4407 c-33 -18 -62 -33 -64 -34 -7 -4 21 -33 31 -33 6 0 8 6 5
14 -3 8 9 21 33 35 20 11 43 28 50 36 15 19 17 19 -55 -18z"/>
<path d="M9860 4310 c-12 -8 -10 -10 8 -10 13 0 20 4 17 10 -7 12 -6 12 -25 0z"/>
<path d="M3668 4264 c-27 -13 -48 -29 -48 -34 0 -14 3 -13 56 15 29 15 65 25
93 26 38 1 42 2 21 9 -43 14 -73 10 -122 -16z"/>
<path d="M3878 4273 c-16 -4 -14 -9 11 -41 32 -41 66 -152 56 -182 -4 -11 -15
-25 -26 -31 -21 -11 -17 -29 8 -29 27 0 83 32 83 47 0 12 -2 12 -16 -1 -25
-26 -35 -19 -28 19 6 33 -17 125 -38 150 -16 19 -7 28 11 11 11 -10 17 -24 14
-32 -3 -8 1 -14 10 -14 8 0 20 -7 27 -15 7 -9 15 -13 17 -11 4 4 -42 69 -87
124 -11 12 -13 13 -42 5z"/>
<path d="M3498 4215 c11 -22 50 -61 55 -54 2 2 -12 20 -31 39 -19 20 -29 26
-24 15z"/>
<path d="M5717 4194 c-9 -49 64 -158 127 -189 41 -21 52 -19 152 23 88 38 205
98 172 88 -10 -3 -20 -1 -23 4 -3 5 -17 5 -33 -2 -15 -6 -44 -12 -65 -12 -34
-1 -38 1 -33 20 7 26 -14 38 -29 17 -8 -10 -17 -7 -44 14 -29 23 -44 27 -101
27 -44 1 -74 7 -92 18 -25 17 -26 17 -31 -8z"/>
<path d="M7564 4187 c-11 -6 -42 -27 -69 -44 -27 -18 -55 -33 -63 -33 -7 0
-10 -5 -6 -11 4 -7 23 -9 51 -5 35 4 53 15 84 47 51 53 53 76 3 46z"/>
<path d="M6993 4125 c1 -33 7 -64 12 -68 6 -4 2 -7 -9 -5 -10 2 -20 -1 -22 -7
-5 -14 44 -48 57 -40 11 7 5 64 -10 93 -5 9 -14 33 -19 52 -10 32 -10 30 -9
-25z"/>
<path d="M7350 4166 c0 -2 11 -6 25 -8 13 -3 22 -1 19 3 -5 9 -44 13 -44 5z"/>
<path d="M5395 4130 c-3 -5 -2 -10 4 -10 5 0 13 5 16 10 3 6 2 10 -4 10 -5 0
-13 -4 -16 -10z"/>
<path d="M6256 4132 c-3 -5 15 -15 40 -21 49 -13 63 -10 42 6 -19 16 -75 26
-82 15z"/>
<path d="M4186 4059 c33 -35 89 -98 124 -139 84 -99 100 -115 62 -60 -41 57
-177 208 -217 239 -16 14 -3 -5 31 -40z"/>
<path d="M5250 4100 c0 -6 17 -10 37 -10 43 0 41 5 -4 13 -19 4 -33 2 -33 -3z"/>
<path d="M7320 4102 c0 -5 -28 -14 -62 -20 -40 -7 -80 -24 -115 -47 -29 -19
-56 -35 -61 -35 -9 0 -50 -52 -69 -89 -22 -40 -14 -48 15 -15 15 17 37 36 49
43 13 6 22 17 20 23 -3 15 71 57 103 59 23 0 23 1 5 9 -18 7 -18 9 10 20 28
11 51 15 130 19 21 1 26 4 16 10 -7 5 -10 14 -7 20 5 7 -1 11 -13 11 -12 0
-21 -4 -21 -8z"/>
<path d="M3640 4081 c-87 -28 -100 -37 -100 -74 0 -18 5 -38 12 -45 17 -17 48
-15 48 2 0 21 71 29 145 18 64 -9 121 -9 131 1 3 3 -9 14 -28 23 -32 18 -32
19 -9 22 21 3 16 8 -35 38 -66 38 -86 39 -164 15z m135 -71 c19 -8 19 -9 -2
-9 -12 -1 -25 4 -28 9 -7 12 2 12 30 0z"/>
<path d="M6516 4068 c-11 -18 -39 -53 -62 -78 -34 -37 -41 -50 -37 -75 3 -17
15 -37 27 -45 13 -8 70 -47 127 -85 102 -69 182 -106 197 -91 4 4 -11 24 -33
43 -39 35 -29 31 40 -13 25 -17 34 -57 15 -69 -5 -3 -10 -11 -10 -17 0 -7 6
-6 15 2 19 16 19 49 -1 109 -20 61 -57 97 -168 160 -75 44 -94 50 -122 45 -44
-8 -43 5 4 48 32 29 36 38 32 66 l-5 34 -19 -34z"/>
<path d="M7218 4093 c7 -3 16 -2 19 1 4 3 -2 6 -13 5 -11 0 -14 -3 -6 -6z"/>
<path d="M5260 4038 c-12 -22 -12 -22 6 -6 10 10 15 20 12 24 -4 3 -12 -5 -18
-18z"/>
<path d="M6590 4030 c8 -5 22 -10 30 -10 13 0 13 1 0 10 -8 5 -22 10 -30 10
-13 0 -13 -1 0 -10z"/>
<path d="M6960 3993 c0 -13 5 -23 10 -23 13 0 13 11 0 30 -8 12 -10 11 -10 -7z"/>
<path d="M6821 3945 c64 -33 109 -78 109 -109 0 -15 8 -30 19 -36 29 -15 31
-13 18 24 -18 49 -138 147 -179 146 -7 -1 8 -12 33 -25z"/>
<path d="M5180 3942 c0 -5 7 -15 16 -23 8 -7 22 -25 30 -41 17 -34 33 -37 26
-5 -4 22 -72 87 -72 69z"/>
<path d="M5285 3850 c-3 -5 -1 -10 6 -10 7 0 22 -8 33 -17 15 -13 14 -10 -3
10 -28 31 -28 31 -36 17z"/>
<path d="M7181 3715 c-18 -25 -28 -45 -22 -45 9 0 71 72 71 84 0 17 -20 1 -49
-39z"/>
<path d="M5360 3741 c0 -5 5 -13 10 -16 6 -3 10 -2 10 4 0 5 -4 13 -10 16 -5
3 -10 2 -10 -4z"/>
<path d="M3328 3725 c-41 -23 -109 -173 -95 -209 10 -27 41 -18 57 17 10 20
32 40 61 55 41 20 63 23 239 27 260 6 360 -5 550 -59 174 -50 229 -61 261 -51
32 11 15 19 -121 60 -69 21 -150 50 -180 65 -30 15 -95 42 -144 59 -86 30 -97
32 -275 35 -102 2 -217 7 -256 10 -54 5 -76 3 -97 -9z m84 -40 c3 -29 1 -35
-14 -35 -19 0 -22 18 -12 57 9 31 21 20 26 -22z m-42 3 c0 -26 -6 -36 -26 -45
-24 -11 -26 -11 -19 10 4 12 9 32 12 45 8 35 33 27 33 -10z m90 0 c0 13 6 22
15 22 8 0 15 -8 15 -17 0 -15 1 -15 13 2 10 13 16 15 21 6 12 -18 -1 -41 -19
-35 -8 3 -15 1 -15 -4 0 -6 -12 -10 -27 -9 -23 2 -28 8 -31 32 l-2 30 14 -25
c15 -25 15 -25 16 -2z m228 -6 c2 -15 -2 -22 -12 -22 -11 0 -16 9 -16 26 0 31
23 28 28 -4z m88 17 c4 -8 9 -8 17 0 18 18 51 13 126 -17 l71 -29 -122 2
c-123 2 -137 6 -124 40 6 18 22 19 32 4z m-211 -17 c0 -18 -20 -15 -23 4 -3
10 1 15 10 12 7 -3 13 -10 13 -16z m35 -2 c0 -11 -4 -20 -10 -20 -5 0 -10 9
-10 20 0 11 5 20 10 20 6 0 10 -9 10 -20z m40 0 c0 -11 -4 -20 -10 -20 -5 0
-10 9 -10 20 0 11 5 20 10 20 6 0 10 -9 10 -20z m90 0 c0 -11 -7 -20 -15 -20
-8 0 -15 9 -15 20 0 11 7 20 15 20 8 0 15 -9 15 -20z"/>
<path d="M5357 3704 c-8 -8 1 -24 14 -24 5 0 9 7 9 15 0 15 -12 20 -23 9z"/>
<path d="M7200 3660 c-23 -19 -30 -29 -19 -30 15 0 37 20 53 48 11 18 4 15
-34 -18z"/>
<path d="M5310 3670 c-8 -5 -12 -12 -9 -15 4 -3 12 1 19 10 14 17 11 19 -10 5z"/>
<path d="M5640 3651 c0 -5 7 -12 16 -15 14 -5 15 -4 4 9 -14 17 -20 19 -20 6z"/>
<path d="M5385 3640 c3 -5 8 -10 11 -10 2 0 4 5 4 10 0 6 -5 10 -11 10 -5 0
-7 -4 -4 -10z"/>
<path d="M5578 3643 c6 -2 18 -2 25 0 6 3 1 5 -13 5 -14 0 -19 -2 -12 -5z"/>
<path d="M8120 3615 c0 -8 4 -15 8 -15 5 0 9 7 9 15 0 8 -4 15 -9 15 -4 0 -8
-7 -8 -15z"/>
<path d="M7190 3598 c0 -10 19 -9 45 2 16 7 14 8 -12 7 -18 -1 -33 -5 -33 -9z"/>
<path d="M6008 3553 c6 -2 18 -2 25 0 6 3 1 5 -13 5 -14 0 -19 -2 -12 -5z"/>
<path d="M5965 3501 c-15 -6 -9 -9 25 -13 25 -3 53 -9 63 -13 10 -4 17 -3 17
4 0 6 -7 11 -15 11 -8 0 -15 5 -15 10 0 12 -46 12 -75 1z"/>
<path d="M3326 3475 c4 -8 10 -15 15 -15 5 0 4 -8 -2 -18 -9 -14 -8 -25 5 -50
9 -17 16 -39 16 -50 0 -10 7 -27 15 -38 13 -17 14 -16 8 20 -5 30 -3 37 7 31
8 -5 11 -21 7 -46 -5 -35 -3 -38 25 -44 16 -4 32 -4 35 -1 4 3 -1 6 -10 6 -9
0 -18 12 -22 31 -8 36 -1 47 20 29 10 -8 31 -11 58 -7 23 3 34 3 25 0 -43 -11
-7 -20 135 -30 97 -7 192 -8 262 -3 61 5 130 10 155 11 48 1 43 4 -35 15 l-50
7 35 12 c31 11 33 14 15 21 -11 5 -87 9 -169 9 -87 0 -133 3 -110 7 21 4 62 7
90 7 66 1 115 11 108 22 -3 5 10 9 29 9 39 0 149 20 159 29 12 10 -66 13 -422
15 -311 1 -347 3 -370 19 -30 21 -41 22 -34 2z m77 -70 c4 -8 2 -17 -3 -20 -6
-4 -10 3 -10 14 0 25 6 27 13 6z m210 -22 c-13 -2 -33 -2 -45 0 -13 2 -3 4 22
4 25 0 35 -2 23 -4z m370 -30 c-7 -2 -21 -2 -30 0 -10 3 -4 5 12 5 17 0 24 -2
18 -5z"/>
<path d="M6353 3373 c9 -2 23 -2 30 0 6 3 -1 5 -18 5 -16 0 -22 -2 -12 -5z"/>
<path d="M4126 3361 c5 -5 36 -21 69 -36 71 -31 63 -18 -11 19 -53 27 -75 33
-58 17z"/>
<path d="M5365 3345 c-5 -2 -22 -6 -38 -9 -29 -7 -107 -71 -107 -89 0 -6 15 4
34 22 18 18 51 39 72 46 35 12 42 11 70 -6 41 -25 53 -24 23 1 l-24 19 25 2
25 1 -25 8 c-28 9 -40 10 -55 5z"/>
<path d="M6586 3328 c-9 -12 -16 -32 -15 -43 0 -16 4 -13 16 13 10 19 24 32
35 32 11 0 16 5 13 10 -10 17 -33 11 -49 -12z"/>
<path d="M4260 3296 c0 -3 9 -10 20 -16 11 -6 20 -8 20 -6 0 3 -9 10 -20 16
-11 6 -20 8 -20 6z"/>
<path d="M6528 3263 c7 -3 16 -2 19 1 4 3 -2 6 -13 5 -11 0 -14 -3 -6 -6z"/>
<path d="M7602 3209 c-23 -11 -72 -26 -110 -33 l-67 -14 53 -1 c38 -1 70 7
117 28 36 17 65 32 65 35 0 9 -11 6 -58 -15z"/>
<path d="M5105 3179 c-4 -6 -5 -12 -2 -15 2 -3 7 2 10 11 7 17 1 20 -8 4z"/>
<path d="M6165 3114 c-9 -15 -12 -23 -6 -20 11 7 35 46 28 46 -3 0 -12 -12
-22 -26z"/>
<path d="M7415 3080 c-4 -6 7 -10 27 -9 27 0 30 2 13 9 -27 12 -33 12 -40 0z"/>
<path d="M6678 3060 c-53 -28 -87 -79 -109 -162 -20 -76 -25 -173 -10 -197 10
-16 14 2 26 109 18 161 86 250 191 250 42 -1 46 -2 29 -12 -54 -31 -75 -99
-72 -243 2 -105 1 -112 -28 -163 -16 -30 -44 -66 -62 -80 -19 -15 -58 -49 -87
-77 -61 -57 -172 -155 -219 -193 l-32 -26 35 39 35 38 -31 -21 c-36 -25 -188
-183 -244 -253 -21 -27 -46 -70 -56 -96 -10 -26 -40 -85 -68 -131 -28 -45 -59
-97 -68 -114 -9 -17 -22 -36 -27 -41 -20 -20 -12 -46 14 -53 32 -8 100 17 155
57 23 17 121 105 218 197 154 145 354 322 364 322 8 0 8 -113 -1 -195 -7 -66
-19 -115 -45 -177 -20 -48 -36 -95 -36 -106 0 -10 -13 -45 -28 -78 -72 -148
-92 -192 -92 -199 0 -4 -14 -35 -31 -68 -21 -41 -25 -56 -13 -46 15 13 16 12
9 -11 -21 -70 -55 -155 -62 -157 -4 -2 -7 -51 -6 -109 2 -81 0 -105 -10 -102
-7 3 -14 32 -17 79 l-5 74 -10 -85 c-8 -70 -7 -91 5 -116 17 -36 33 -35 24 2
-4 14 -2 24 5 24 6 0 11 -11 11 -24 0 -14 4 -35 9 -48 5 -13 17 -84 26 -158
17 -129 30 -188 41 -178 2 3 -2 86 -10 184 -19 233 -20 386 -2 449 31 110 166
489 178 501 7 7 79 24 160 38 153 27 226 50 343 108 98 50 181 66 96 20 -75
-42 -177 -118 -173 -130 2 -7 -2 -20 -10 -30 -7 -9 3 -5 22 11 177 139 242
161 111 37 -46 -44 -81 -83 -78 -86 4 -4 36 19 73 50 77 66 98 66 34 1 -24
-25 -39 -45 -33 -45 7 0 15 4 18 10 3 5 15 15 26 20 26 15 24 -2 -5 -37 -15
-17 -21 -34 -17 -42 6 -9 11 -8 21 3 21 26 33 6 14 -22 -16 -25 -16 -26 -1
-13 29 23 30 6 2 -34 -30 -45 -26 -55 12 -30 l28 19 -29 -38 c-15 -20 -26 -39
-24 -42 3 -2 22 9 43 26 21 16 42 30 47 30 6 0 19 11 30 25 11 14 26 25 33 25
8 0 25 12 39 26 24 26 24 26 35 6 6 -11 11 -27 11 -35 0 -8 7 -20 15 -27 8 -7
15 -19 15 -27 0 -9 -6 -13 -15 -9 -9 3 -15 0 -15 -9 0 -8 -4 -15 -9 -15 -5 0
-12 -8 -15 -17 -6 -15 -4 -15 13 1 17 15 23 16 36 6 8 -7 12 -17 9 -22 -4 -7
-9 -6 -13 0 -4 7 -15 -1 -26 -18 -11 -17 -23 -30 -27 -30 -11 0 -21 47 -13 59
4 7 0 8 -10 5 -9 -4 -23 -20 -31 -36 -15 -28 -15 -29 5 -19 29 16 31 14 31
-19 0 -20 5 -30 15 -30 8 0 15 -4 15 -9 0 -5 10 -7 22 -3 14 3 19 2 14 -6 -11
-18 37 -10 51 8 7 8 12 24 13 35 0 17 -2 18 -11 5 -9 -13 -10 -13 -6 0 4 18
26 20 46 6 12 -9 12 -7 2 12 -18 33 -9 36 33 11 40 -23 41 -28 22 -84 -26 -75
-29 -105 -12 -105 13 0 15 -11 10 -77 -6 -79 -12 -95 -54 -168 l-24 -40 28 25
c53 48 63 77 81 240 10 85 19 156 20 158 5 5 88 -39 123 -65 18 -13 52 -59 77
-101 48 -83 58 -82 23 1 -35 82 -67 125 -118 156 -26 16 -93 74 -150 128 -95
91 -102 102 -107 144 -5 45 12 93 51 143 15 18 16 18 58 -4 24 -12 126 -56
228 -97 102 -41 189 -78 195 -84 15 -15 28 -10 14 7 -17 21 -58 41 -224 109
-77 32 -145 62 -151 66 -6 5 -31 16 -55 24 -24 9 -93 44 -154 79 -60 35 -132
69 -160 76 -73 19 -155 50 -155 59 0 4 -18 13 -41 20 -89 27 -169 136 -150
206 5 19 7 35 5 35 -3 0 2 13 10 29 9 16 13 31 11 33 -6 6 5 8 83 14 48 5 90
0 170 -20 59 -14 157 -35 217 -47 261 -50 380 -86 513 -152 121 -60 207 -97
227 -97 5 0 -16 12 -46 26 -29 14 -114 55 -187 91 -134 65 -219 91 -502 151
-52 11 -142 30 -200 43 -69 15 -158 25 -260 29 -172 7 -225 21 -235 63 -4 13
-7 58 -8 99 -2 80 13 117 58 142 11 6 26 17 34 24 10 10 32 12 75 8 34 -3 135
-9 226 -14 178 -10 214 -19 380 -92 79 -35 252 -95 450 -154 177 -54 196 -61
238 -89 23 -15 42 -33 42 -38 0 -6 18 -41 40 -77 37 -64 136 -309 128 -318 -3
-2 -17 10 -33 26 -46 48 -52 35 -7 -14 28 -31 46 -62 57 -103 9 -32 25 -81 36
-109 11 -29 35 -110 54 -180 18 -71 49 -173 69 -228 27 -75 36 -114 36 -163 0
-101 -22 -138 -176 -303 l-71 -76 -7 -76 c-6 -74 -39 -189 -70 -245 -26 -50
-87 -215 -83 -227 2 -6 15 10 28 37 28 58 40 61 28 6 -6 -23 -7 -44 -4 -47 5
-6 85 159 85 177 0 6 5 11 11 11 7 0 9 -9 6 -21 -5 -18 -2 -20 26 -17 33 3 38
-6 22 -44 -4 -11 -3 -18 4 -18 6 0 36 38 67 85 52 78 86 111 69 68 -3 -10 -9
-31 -12 -48 -3 -16 -20 -45 -37 -64 -24 -26 -26 -31 -9 -22 36 19 38 13 16
-46 -3 -7 2 -13 10 -13 13 0 57 83 57 108 0 5 10 12 21 15 19 5 21 3 15 -24
-7 -35 15 -49 45 -30 14 8 19 8 19 0 0 -7 9 -9 21 -6 14 4 19 2 16 -8 -10 -24
34 -4 45 21 14 31 42 33 33 2 -6 -18 -4 -20 11 -13 11 4 34 11 52 17 17 5 32
13 32 18 0 6 14 10 30 10 20 0 39 9 54 25 28 30 56 32 63 5 l6 -21 14 21 c16
23 33 18 33 -10 0 -23 -116 -70 -228 -93 -84 -18 -101 -27 -51 -28 19 0 47 -3
63 -5 44 -8 302 14 386 31 40 9 88 15 105 14 57 -4 75 0 69 15 -6 15 6 48 52
141 22 47 24 48 24 19 0 -16 -4 -34 -10 -40 -11 -11 -22 -134 -11 -134 4 0 14
18 21 40 16 50 37 70 51 49 5 -8 9 -22 9 -31 0 -28 27 -21 35 9 3 15 11 30 16
34 5 3 12 150 16 343 3 185 10 339 14 342 14 8 24 -131 24 -336 0 -226 -9
-333 -31 -354 -16 -17 -19 -36 -4 -36 15 0 38 41 45 83 4 21 13 37 21 37 10 0
14 -22 16 -85 2 -48 7 -85 13 -86 6 0 12 8 13 18 2 10 8 23 14 28 15 15 0 -49
-27 -117 -13 -32 -22 -58 -20 -58 9 0 38 66 67 149 41 116 47 234 22 452 -11
94 -18 209 -16 269 3 95 0 114 -28 205 -18 55 -45 129 -61 165 -15 36 -51 126
-79 200 -29 74 -61 159 -73 188 -17 44 -36 66 -107 127 -86 74 -153 147 -198
215 -13 19 -65 75 -115 123 -73 71 -96 87 -113 83 -12 -3 -30 -3 -40 1 -16 6
-16 7 1 13 10 4 19 14 21 22 2 14 -11 13 -90 -9 -87 -24 -111 -30 -166 -37
-14 -2 -45 -9 -70 -15 -25 -6 -83 -10 -130 -10 l-85 1 68 12 c37 7 69 15 72
18 3 3 -41 5 -97 4 -120 -1 -167 12 -204 57 -14 18 -24 24 -20 15 7 -22 -7
-23 -24 -3 -7 8 -23 15 -35 15 -18 0 -33 16 -68 78 -47 81 -79 116 -137 151
-57 34 -59 24 -3 -14 59 -40 85 -72 139 -170 20 -38 48 -87 61 -107 30 -49 29
-54 -5 -30 -38 28 -137 72 -159 72 -29 0 -420 135 -518 179 -11 5 -63 25 -115
45 -85 32 -111 36 -247 46 -117 7 -166 15 -219 34 -70 26 -92 45 -119 106 -9
19 -20 43 -25 52 -15 27 -12 112 4 134 27 36 197 23 494 -36 134 -27 147 -32
208 -75 63 -45 232 -130 241 -122 2 3 -40 28 -94 57 -54 28 -114 64 -133 79
-53 42 -88 58 -186 81 -107 26 -321 59 -385 60 -26 0 -63 7 -82 15 -50 21
-124 18 -169 -5z m99 -342 c-3 -8 -6 -5 -6 6 -1 11 2 17 5 13 3 -3 4 -12 1
-19z m-193 -310 c-41 -82 -120 -187 -165 -219 -33 -23 -36 -19 -12 19 25 41
-181 -164 -234 -233 l-46 -60 41 39 c23 22 44 37 47 34 6 -6 -118 -147 -164
-184 l-33 -28 22 44 c13 25 34 62 48 82 14 21 22 42 18 45 -11 11 -50 -45 -97
-137 -24 -47 -49 -93 -57 -102 -8 -9 -11 -22 -7 -27 3 -6 -1 -11 -9 -11 -9 0
-16 2 -16 4 0 22 39 100 85 170 32 48 55 93 53 103 -5 22 15 66 55 116 46 58
43 37 -4 -32 -24 -33 -40 -63 -37 -66 3 -4 28 20 54 51 101 118 152 169 259
259 61 51 123 107 139 124 17 17 34 31 39 31 5 0 18 11 29 25 32 41 30 29 -8
-47z m1626 -19 c0 -6 -4 -7 -10 -4 -5 3 -10 11 -10 16 0 6 5 7 10 4 6 -3 10
-11 10 -16z m-1605 -45 c-23 -36 -31 -22 -9 16 10 17 20 26 22 20 2 -6 -4 -22
-13 -36z m99 21 c3 -8 1 -15 -4 -15 -6 0 -10 7 -10 15 0 8 2 15 4 15 2 0 6 -7
10 -15z m2207 -36 c-16 -15 -26 -18 -34 -10 -7 7 -4 13 14 20 38 16 44 13 20
-10z m-2081 -19 c19 -6 11 -8 -33 -9 -36 -1 -56 3 -52 9 7 12 49 12 85 0z
m2165 -20 c27 -30 12 -34 -15 -5 -13 14 -19 25 -13 25 5 0 18 -9 28 -20z
m-2081 -5 c-4 -8 -20 -16 -38 -16 -23 -1 -25 -3 -8 -6 22 -4 29 -17 13 -27
-11 -7 -5 -80 10 -109 17 -33 90 -106 123 -124 39 -20 24 -28 -83 -45 l-86
-13 58 -3 c32 -2 83 2 113 8 29 6 57 12 61 12 4 0 15 -13 25 -30 16 -29 16
-31 -2 -47 -11 -10 -41 -28 -67 -42 -26 -13 -64 -32 -83 -43 -44 -24 -131 -53
-240 -78 -47 -11 -93 -23 -102 -27 -16 -6 -17 -2 -13 39 2 26 13 66 24 90 36
83 52 157 52 242 0 91 -6 83 64 97 11 3 1 5 -22 6 -61 1 -53 17 15 29 l57 11
-62 -6 c-68 -5 -87 10 -30 23 l32 8 -35 6 -35 5 25 17 c18 12 52 18 117 20 51
2 93 6 93 11 0 4 7 7 15 7 9 0 12 -6 9 -15z m2456 -368 c0 -14 -39 23 -52 48
-8 14 -2 12 21 -9 17 -17 31 -34 31 -39z m-2170 -7 c0 -5 -7 -10 -15 -10 -8 0
-15 5 -15 10 0 6 7 10 15 10 8 0 15 -4 15 -10z m-1029 -17 c-13 -23 -125 -143
-115 -123 9 17 114 140 121 140 2 0 -1 -8 -6 -17z m3107 -45 c14 -25 19 -45
13 -51 -10 -10 -28 18 -41 64 -12 42 1 35 28 -13z m226 -35 c3 -7 1 -15 -4
-18 -10 -6 -60 41 -60 56 0 11 59 -23 64 -38z m-93 -48 c16 -32 16 -35 2 -16
-10 13 -29 43 -41 65 -22 37 -22 39 -2 16 11 -14 30 -43 41 -65z m-2145 44
c-14 -17 -26 -35 -26 -39 0 -5 -9 -14 -21 -20 -20 -11 -20 -11 -3 17 22 34 56
72 67 72 5 1 -3 -13 -17 -30z m1265 -121 c16 -25 33 -62 36 -82 7 -46 -5 -139
-22 -162 -12 -17 -14 -15 -23 21 -6 22 -16 66 -22 98 -7 32 -24 89 -40 127
-15 37 -31 83 -34 101 l-7 34 41 -45 c22 -25 54 -66 71 -92z m-1287 37 c-37
-46 -63 -61 -45 -26 10 18 67 71 77 71 3 0 -11 -20 -32 -45z m126 5 c-6 -12
-14 -19 -17 -17 -2 3 1 15 7 27 6 12 14 19 17 17 2 -3 -1 -15 -7 -27z m-154
-108 c-14 -14 -16 -14 -16 -1 0 20 23 44 29 28 2 -6 -4 -18 -13 -27z m86 16
c-7 -7 -12 -8 -12 -2 0 14 12 26 19 19 2 -3 -1 -11 -7 -17z m54 -36 c-14 -14
-16 -14 -16 -1 0 20 23 44 29 28 2 -6 -4 -18 -13 -27z m-76 14 c0 -22 -42 -49
-52 -33 -4 6 -8 17 -8 22 0 6 4 4 9 -4 7 -11 12 -10 22 8 16 24 29 28 29 7z
m2234 -128 c54 -113 63 -140 43 -132 -11 4 -88 174 -114 254 -13 38 32 -38 71
-122z m-2194 93 c0 -5 -15 -20 -32 -32 l-33 -22 29 31 c32 34 36 37 36 23z
m1957 -77 c8 -51 -7 -37 -17 16 -5 25 -4 38 2 32 5 -5 11 -26 15 -48z m61 -24
c0 -8 -6 1 -13 20 -7 19 -13 42 -13 50 0 8 6 -1 13 -20 7 -19 13 -42 13 -50z
m136 -36 c49 -122 59 -192 13 -92 -42 91 -77 208 -63 208 2 0 25 -52 50 -116z
m-2019 6 c-5 -8 -11 -8 -17 -2 -6 6 -7 16 -3 22 5 8 11 8 17 2 6 -6 7 -16 3
-22z m1955 -2 c0 -2 7 -25 15 -51 8 -26 10 -45 6 -42 -14 8 -41 95 -30 95 5 0
9 -1 9 -2z m-383 -50 c-3 -7 -5 -2 -5 12 0 14 2 19 5 13 2 -7 2 -19 0 -25z
m647 -58 c5 -15 -3 -8 -18 19 -14 23 -26 50 -26 60 1 18 34 -40 44 -79z m-834
-26 c0 -8 -4 -12 -10 -9 -5 3 -10 10 -10 16 0 5 5 9 10 9 6 0 10 -7 10 -16z
m709 -87 c0 -27 -2 -29 -9 -12 -12 28 -12 57 0 50 6 -3 10 -21 9 -38z m128 -9
c-3 -8 -6 -5 -6 6 -1 11 2 17 5 13 3 -3 4 -12 1 -19z m-181 -103 c7 -30 -2
-59 -16 -50 -13 8 -13 75 0 75 5 0 12 -11 16 -25z m-226 -35 c0 -5 -5 -10 -11
-10 -5 0 -7 5 -4 10 3 6 8 10 11 10 2 0 4 -4 4 -10z m20 -48 c0 -5 -7 -17 -15
-28 -14 -19 -14 -19 -15 2 0 11 3 24 7 27 9 10 23 9 23 -1z m152 -14 c-7 -7
-12 -8 -12 -2 0 14 12 26 19 19 2 -3 -1 -11 -7 -17z m78 -134 c0 -130 -9 -194
-26 -194 -19 0 -20 290 -2 308 21 21 28 -7 28 -114z m-290 72 c0 -8 -4 -18
-10 -21 -5 -3 -10 3 -10 14 0 12 5 21 10 21 6 0 10 -6 10 -14z m165 -26 c-12
-19 -22 -10 -17 16 4 22 6 24 14 10 5 -9 6 -21 3 -26z m65 -45 c0 -24 -4 -47
-10 -50 -6 -4 -10 15 -10 50 0 35 4 54 10 50 6 -3 10 -26 10 -50z m293 -27 c4
-29 3 -48 -3 -48 -6 0 -10 23 -10 52 0 62 5 60 13 -4z m-591 20 c-7 -7 -12 -8
-12 -2 0 14 12 26 19 19 2 -3 -1 -11 -7 -17z m246 -25 c-3 -42 -28 -59 -28
-20 0 32 9 57 22 57 5 0 8 -17 6 -37z m-104 -18 c-6 -16 -24 -21 -24 -7 0 11
11 22 21 22 5 0 6 -7 3 -15z m-192 -17 c-7 -7 -12 -8 -12 -2 0 14 12 26 19 19
2 -3 -1 -11 -7 -17z m588 -140 c0 -92 -5 -170 -10 -178 -7 -10 -9 42 -8 162 2
98 6 178 11 178 4 0 7 -73 7 -162z m-292 100 c-4 -27 -28 -36 -28 -10 0 20 8
32 22 32 5 0 8 -10 6 -22z m-98 -2 c0 -3 -4 -8 -10 -11 -5 -3 -10 -1 -10 4 0
6 5 11 10 11 6 0 10 -2 10 -4z m277 -153 c-8 -162 -17 -233 -29 -233 -10 0 -6
74 14 258 6 56 13 102 16 102 3 0 2 -57 -1 -127z m-177 28 c0 -54 -7 -81 -21
-81 -10 0 -12 90 -3 114 12 32 24 15 24 -33z m-173 -48 c-2 -16 -4 -3 -4 27 0
30 2 43 4 28 2 -16 2 -40 0 -55z m-57 -20 c0 -37 -9 -63 -21 -63 -10 0 -12
103 -2 113 11 11 23 -15 23 -50z m584 -126 c-7 -70 -23 -111 -24 -62 0 57 13
134 22 129 5 -3 6 -33 2 -67z m-594 -21 c0 -34 -10 -47 -45 -60 -18 -7 -18 -5
3 17 12 13 22 35 22 50 0 15 5 27 10 27 6 0 10 -15 10 -34z m50 -81 c0 -34 20
-49 35 -25 11 18 45 11 45 -9 0 -16 -14 -22 -87 -36 -49 -9 -146 -18 -218 -21
l-130 -4 80 29 c44 15 111 42 149 60 37 17 71 29 75 27 4 -3 13 -1 21 5 25 15
30 10 30 -26z m154 -29 c-3 -9 -10 -16 -15 -16 -6 0 -5 9 1 21 13 24 24 20 14
-5z"/>
<path d="M6445 2284 c-81 -76 -84 -80 -30 -40 63 47 132 113 124 120 -2 2 -44
-34 -94 -80z"/>
<path d="M6264 2128 c-16 -18 -41 -46 -54 -63 -22 -27 -21 -26 13 5 36 32 83
90 75 90 -2 0 -17 -15 -34 -32z"/>
<path d="M6793 2253 c9 -2 25 -2 35 0 9 3 1 5 -18 5 -19 0 -27 -2 -17 -5z"/>
<path d="M6738 2243 c6 -2 18 -2 25 0 6 3 1 5 -13 5 -14 0 -19 -2 -12 -5z"/>
<path d="M6808 2213 c7 -3 16 -2 19 1 4 3 -2 6 -13 5 -11 0 -14 -3 -6 -6z"/>
<path d="M7070 1921 c0 -5 5 -13 10 -16 6 -3 10 -2 10 4 0 5 -4 13 -10 16 -5
3 -10 2 -10 -4z"/>
<path d="M6481 3053 c7 -12 15 -20 18 -17 3 2 -3 12 -13 22 -17 16 -18 16 -5
-5z"/>
<path d="M4520 3030 c-80 -7 -69 -14 15 -10 28 1 54 6 60 11 5 5 7 8 5 7 -3
-1 -39 -4 -80 -8z"/>
<path d="M6845 2942 c6 -31 17 -67 23 -79 13 -23 50 -48 59 -40 2 3 -4 10 -15
16 -20 11 -34 40 -52 108 -16 64 -29 60 -15 -5z"/>
<path d="M5230 2895 c-7 -9 -8 -15 -2 -15 5 0 12 7 16 15 3 8 4 15 2 15 -2 0
-9 -7 -16 -15z"/>
<path d="M4738 2827 c7 -8 34 -22 60 -32 26 -10 55 -25 65 -33 16 -14 17 -14
12 -1 -6 15 -39 34 -115 66 -30 13 -33 13 -22 0z"/>
<path d="M5350 2820 c0 -5 4 -10 9 -10 5 0 18 -3 28 -7 16 -6 16 -5 4 10 -15
19 -41 23 -41 7z"/>
<path d="M5205 2811 c-11 -3 -38 -16 -61 -28 -49 -26 -149 -53 -199 -53 -23 0
-34 -4 -30 -11 9 -14 -64 18 -89 39 -20 16 -20 16 -6 -2 12 -16 12 -18 1 -11
-8 4 -31 9 -52 10 l-38 2 36 -24 c19 -13 37 -22 40 -19 6 5 113 -33 128 -46
14 -12 -7 -10 -54 7 -51 18 -54 11 -3 -11 29 -12 64 -15 161 -12 115 3 120 2
80 -10 -25 -8 -99 -14 -167 -15 -118 -2 -122 -3 -80 -15 59 -18 202 -6 301 25
42 13 77 28 77 33 0 6 7 10 17 10 15 0 15 -2 -1 -19 -17 -19 -17 -19 18 -3 37
18 46 32 21 32 -12 0 -11 6 7 30 30 41 15 56 -40 39 -23 -6 -39 -16 -36 -21 3
-4 -7 -13 -21 -18 -34 -13 -112 -13 -120 0 -4 6 11 10 37 11 24 0 52 5 63 10
15 7 10 8 -20 4 -39 -5 -40 -5 -19 12 12 10 34 28 50 40 31 23 31 25 -1 14z
m-100 -121 c-7 -12 -62 -12 -90 0 -14 6 -4 9 38 9 36 1 56 -3 52 -9z m105 -20
c-8 -5 -22 -9 -30 -9 -10 0 -8 3 5 9 27 12 43 12 25 0z"/>
<path d="M3850 2740 c-9 -6 -10 -10 -3 -10 6 0 15 5 18 10 8 12 4 12 -15 0z"/>
<path d="M5353 2666 c-16 -13 -62 -38 -103 -56 -41 -18 -90 -38 -108 -46 -18
-8 -45 -14 -60 -14 -33 0 -106 -20 -99 -26 9 -9 130 16 227 47 91 29 209 97
193 112 -11 11 -20 8 -50 -17z"/>
<path d="M5440 2680 c-9 -6 -10 -10 -3 -10 6 0 15 5 18 10 8 12 4 12 -15 0z"/>
<path d="M5495 2674 c31 -23 96 -37 144 -30 74 10 66 22 -13 18 -53 -3 -81 0
-104 12 -39 20 -53 20 -27 0z"/>
<path d="M3963 2653 c9 -2 23 -2 30 0 6 3 -1 5 -18 5 -16 0 -22 -2 -12 -5z"/>
<path d="M9301 2633 c3 -37 -2 -54 -21 -73 -24 -24 -13 -26 20 -3 49 34 63 63
29 63 -15 0 -19 5 -15 15 3 8 1 15 -5 15 -6 0 -9 -8 -8 -17z"/>
<path d="M6803 2570 c0 -30 2 -43 4 -27 2 15 2 39 0 55 -2 15 -4 2 -4 -28z"/>
<path d="M5346 2590 c-75 -41 -211 -79 -335 -94 -69 -9 -129 -20 -135 -26 -7
-7 -1 -10 20 -10 37 0 232 36 304 57 59 16 200 78 200 87 0 10 -15 6 -54 -14z"/>
<path d="M5108 2573 c7 -3 16 -2 19 1 4 3 -2 6 -13 5 -11 0 -14 -3 -6 -6z"/>
<path d="M9380 2497 c31 -46 75 -85 86 -74 3 3 -4 8 -15 12 -36 11 -23 27 22
24 23 -1 49 1 57 4 8 3 22 8 30 11 8 3 -21 4 -65 2 l-80 -4 -33 36 -33 37 31
-48z"/>
<path d="M4895 2520 c-14 -7 -8 -8 20 -3 22 3 42 7 44 9 9 8 -45 2 -64 -6z"/>
<path d="M9588 2483 c6 -2 18 -2 25 0 6 3 1 5 -13 5 -14 0 -19 -2 -12 -5z"/>
<path d="M9548 2443 c7 -3 16 -2 19 1 4 3 -2 6 -13 5 -11 0 -14 -3 -6 -6z"/>
<path d="M5440 2373 c-68 -69 -65 -74 8 -15 40 33 68 69 60 77 -2 3 -33 -26
-68 -62z"/>
<path d="M9000 2420 c0 -5 7 -7 15 -4 8 4 15 8 15 10 0 2 -7 4 -15 4 -8 0 -15
-4 -15 -10z"/>
<path d="M9493 2413 c9 -2 23 -2 30 0 6 3 -1 5 -18 5 -16 0 -22 -2 -12 -5z"/>
<path d="M5350 2332 c0 -5 -25 -17 -55 -27 -30 -11 -55 -23 -55 -27 0 -10 111
31 130 48 12 12 12 14 -3 14 -9 0 -17 -4 -17 -8z"/>
<path d="M5155 2235 c-39 -17 -21 -18 25 0 19 7 28 14 20 14 -8 0 -28 -6 -45
-14z"/>
<path d="M6984 2194 c-3 -25 -3 -49 2 -54 5 -5 10 14 11 46 2 66 -3 70 -13 8z"/>
<path d="M5729 2172 c-16 -13 -23 -32 -26 -63 -4 -58 -36 -179 -47 -179 -4 0
-25 -13 -45 -29 -47 -37 -99 -63 -111 -56 -5 3 -11 1 -15 -5 -3 -5 1 -10 9
-10 17 0 21 -12 9 -24 -12 -12 -10 -46 3 -46 7 0 20 -3 30 -7 11 -4 15 -3 11
4 -4 6 -1 10 7 9 7 0 38 22 69 51 31 29 59 48 63 42 7 -11 -39 -67 -104 -126
-30 -27 -41 -42 -31 -43 9 0 24 -9 34 -20 29 -32 78 -26 124 15 21 19 41 35
45 35 12 0 5 -21 -14 -40 l-20 -20 20 0 c31 0 40 38 29 116 -10 69 -19 96 -19
55 0 -12 -4 -19 -10 -16 -16 10 -12 46 7 67 19 21 28 58 14 58 -6 0 -13 -4
-16 -10 -3 -5 -11 -10 -17 -10 -6 0 -1 11 12 25 13 14 30 25 38 25 8 0 12 6 9
14 -3 8 -1 17 6 20 9 3 9 5 0 5 -6 1 -27 -12 -45 -29 -36 -33 -48 -37 -48 -15
0 8 7 15 16 15 9 0 14 6 11 13 -2 6 2 17 9 22 8 6 15 21 17 34 4 27 32 51 61
52 18 0 16 3 -7 13 -24 11 -26 14 -13 25 9 7 24 10 36 6 19 -6 20 -5 11 13
-19 36 -75 43 -112 14z m-71 -293 c-30 -40 -42 -37 -17 6 12 19 25 32 30 29 5
-3 -1 -18 -13 -35z m22 -99 c0 -17 -62 -80 -78 -80 -11 0 -1 15 28 45 47 48
50 50 50 35z"/>
<path d="M5471 1946 c11 -9 69 -14 69 -6 0 6 -16 10 -37 10 -20 0 -34 -2 -32
-4z"/>
<path d="M5429 1874 c-10 -12 -10 -17 0 -23 7 -5 12 -11 12 -15 -3 -18 0 -26
9 -26 6 0 6 9 0 25 -6 15 -6 26 0 30 12 8 13 25 1 25 -5 0 -14 -7 -22 -16z"/>
<path d="M7527 1681 c-14 -38 -16 -54 -7 -70 15 -29 21 -26 14 9 -4 16 -1 43
6 59 6 17 10 35 8 41 -2 6 -12 -11 -21 -39z"/>
<path d="M7276 1491 c-4 -7 -5 -15 -2 -18 9 -9 19 4 14 18 -4 11 -6 11 -12 0z"/>
<path d="M7309 1467 c-9 -7 -21 -22 -28 -35 -12 -23 -12 -23 12 -7 14 9 27 25
30 35 3 11 4 20 4 20 -1 0 -9 -6 -18 -13z"/>
<path d="M8080 1450 c1 -34 43 -103 148 -244 66 -87 112 -141 112 -129 0 20
-36 77 -164 258 -89 126 -96 135 -96 115z"/>
<path d="M7178 1202 c-92 -64 -190 -141 -158 -126 40 20 237 154 254 173 32
36 5 22 -96 -47z"/>
<path d="M7135 1249 c-5 -5 -30 -27 -55 -48 -25 -22 -43 -41 -40 -44 3 -3 29
17 59 44 30 27 53 51 50 53 -2 2 -8 0 -14 -5z"/>
<path d="M5906 1190 c-43 -45 -66 -64 -52 -41 3 5 -14 12 -38 15 -33 5 -45 12
-49 28 -3 11 -11 18 -19 16 -18 -6 -25 -53 -18 -135 4 -62 9 -76 34 -102 17
-17 36 -31 45 -31 11 0 8 -7 -9 -27 l-24 -28 29 27 c24 23 29 34 26 68 -2 31
1 40 13 40 10 0 13 6 9 16 -3 8 3 28 14 43 11 14 30 45 41 68 12 22 35 52 52
67 26 22 28 26 12 26 -11 0 -40 -22 -66 -50z"/>
<path d="M6010 1195 c-13 -13 -32 -27 -42 -31 -10 -3 -15 -10 -12 -16 15 -24
8 -95 -13 -139 -13 -26 -23 -49 -23 -52 0 -10 45 6 74 26 l29 20 -18 -26 c-25
-39 -5 -33 43 13 51 49 55 38 8 -23 -19 -25 -36 -56 -38 -69 -2 -13 -9 -23
-18 -22 -9 1 -30 -20 -48 -46 -34 -50 -54 -120 -33 -120 6 0 11 15 11 33 0 18
7 42 16 53 14 18 15 15 11 -43 -5 -61 3 -83 30 -83 10 0 10 6 -3 25 -14 21
-14 26 -2 30 10 4 13 15 10 32 l-5 26 34 -26 c19 -14 46 -31 59 -37 21 -9 18
-10 -22 -6 -52 4 -56 -8 -8 -19 23 -5 41 0 75 20 42 24 63 51 30 39 -38 -15
-106 109 -76 139 8 8 12 3 17 -19 3 -16 15 -41 25 -54 l20 -25 -6 24 c-4 13
-8 29 -10 35 -1 6 -5 19 -10 29 -9 20 1 67 15 67 5 0 12 -16 16 -35 3 -19 11
-38 17 -42 6 -4 7 4 2 23 -10 38 -10 87 0 152 5 37 4 52 -4 52 -6 0 -11 17
-12 38 -1 28 -2 32 -7 15 -6 -20 -9 -18 -25 22 -17 40 -22 45 -51 45 -22 0
-40 -8 -56 -25z m14 -89 c-3 -14 -10 -29 -15 -32 -10 -6 -12 36 -3 61 10 26
26 1 18 -29z m107 -107 c-6 -16 -10 -18 -10 -7 -1 22 12 55 16 42 2 -6 -1 -22
-6 -35z m-73 -169 c-3 -16 0 -30 5 -30 10 0 46 -41 47 -52 0 -19 -53 -6 -75
18 -31 33 -32 57 -2 77 30 21 30 21 25 -13z"/>
<path d="M7262 1159 c-50 -33 -92 -62 -92 -65 0 -3 6 -2 13 2 26 16 162 107
172 115 22 21 -6 5 -93 -52z"/>
<path d="M7240 1089 c-47 -27 -96 -49 -110 -49 -14 -1 -41 -10 -60 -21 -19
-11 -26 -18 -15 -15 11 3 40 10 65 16 58 15 136 54 180 91 19 16 33 28 30 28
-3 0 -43 -22 -90 -50z"/>
<path d="M7109 983 c-13 -16 -12 -17 4 -4 16 13 21 21 13 21 -2 0 -10 -8 -17
-17z"/>
<path d="M6910 960 c-8 -5 -10 -10 -5 -10 6 0 17 5 25 10 8 5 11 10 5 10 -5 0
-17 -5 -25 -10z"/>
<path d="M7037 936 c-59 -41 -73 -55 -29 -30 33 19 91 63 82 63 -3 0 -27 -15
-53 -33z"/>
<path d="M8335 870 c-4 -56 -5 -103 -2 -106 2 -3 8 41 12 96 3 56 5 104 2 106
-3 3 -8 -40 -12 -96z"/>
<path d="M6225 934 c-18 -14 -18 -14 2 -14 23 0 39 15 26 23 -5 3 -17 -1 -28
-9z"/>
<path d="M6850 935 c-14 -8 -20 -14 -15 -14 6 0 21 6 35 14 14 8 21 14 15 14
-5 0 -21 -6 -35 -14z"/>
<path d="M6180 909 c0 -5 5 -7 10 -4 6 3 10 8 10 11 0 2 -4 4 -10 4 -5 0 -10
-5 -10 -11z"/>
<path d="M7025 880 c-44 -21 -75 -39 -70 -39 6 0 46 17 90 38 44 22 76 39 70
39 -5 0 -46 -17 -90 -38z"/>
<path d="M6944 874 c-18 -14 -18 -15 4 -4 12 6 22 13 22 15 0 8 -5 6 -26 -11z"/>
<path d="M6811 804 c-122 -64 -137 -74 -61 -44 68 27 147 69 161 87 15 17 20
19 -100 -43z"/>
<path d="M5876 800 c-22 -55 -20 -81 7 -121 30 -45 65 -61 105 -49 32 9 73 40
53 40 -5 0 -13 -4 -16 -10 -12 -20 -65 -11 -89 15 -13 14 -28 25 -34 25 -12 0
-26 55 -18 68 7 12 17 72 12 72 -2 0 -11 -18 -20 -40z"/>
<path d="M6000 585 c-19 -14 -29 -25 -23 -25 7 0 25 11 40 25 36 31 28 31 -17
0z"/>
<path d="M6100 128 c-64 -23 -105 -30 -166 -32 -94 -1 -104 -16 -12 -16 49 0
59 -3 54 -15 -3 -9 4 -21 19 -31 20 -13 43 -16 113 -12 48 2 98 10 110 17 34
18 20 25 -22 11 -49 -16 -182 -18 -197 -3 -19 19 3 37 63 52 52 13 128 47 128
56 0 3 -1 4 -2 4 -2 -1 -41 -15 -88 -31z"/>
</g>
</svg>
