<?xml version="1.0" encoding="UTF-8"?>
<svg version="1.1" xmlns="http://www.w3.org/2000/svg" width="1365" height="588">
<path d="M0 0 C2.5242483 2.01939864 2.94833532 2.84500596 4 6 C7.54741754 41.77823972 -21.5099119 77.8544124 -41 105 C-46.24569384 101.63737574 -51.11528387 97.86435321 -56 94 C-54.33766349 88.35362795 -51.77216341 83.26347801 -49.1875 78 C-40.5864315 61.27756992 -40.5864315 61.27756992 -38 43 C-39.23387317 39.81898884 -39.23387317 39.81898884 -42 38 C-62.10044518 36.85140313 -82.43564026 53.83970346 -98 65 C-98.75571289 65.54172852 -99.51142578 66.08345703 -100.29003906 66.64160156 C-110.91946662 74.29776267 -121.22218972 82.2759081 -131.31933594 90.61914062 C-133.5868871 92.48219545 -135.88581347 94.30437336 -138.1875 96.125 C-143.64373289 100.47905563 -148.96087513 104.99448341 -154.27050781 109.52490234 C-156.02988878 111.02549238 -157.79223299 112.52255308 -159.5546875 114.01953125 C-165.9928085 119.50011144 -172.33096405 125.06208331 -178.5625 130.77734375 C-180.64272725 132.67421764 -182.74556898 134.53392943 -184.875 136.375 C-190.11671869 140.93348041 -195.18441257 145.6828247 -200.27685547 150.40625 C-201.9831854 151.98444804 -203.69555908 153.55579121 -205.41015625 155.125 C-211.05889844 160.30096167 -216.5887739 165.54205323 -221.96875 171 C-223.85712476 172.85932284 -225.79642753 174.59388084 -227.8125 176.3125 C-231.3889884 179.37500205 -234.69389493 182.65280616 -238 186 C-241.82987057 189.87729196 -245.72051313 193.56243616 -249.875 197.09375 C-252.69393932 199.62250439 -255.33938837 202.30646001 -258 205 C-261.82988013 208.87727963 -265.72051302 212.56243606 -269.875 216.09375 C-272.69393932 218.62250439 -275.33938837 221.30646001 -278 224 C-281.82988013 227.87727963 -285.72051302 231.56243606 -289.875 235.09375 C-292.69393932 237.62250439 -295.33938837 240.30646001 -298 243 C-301.82988013 246.87727963 -305.72051302 250.56243606 -309.875 254.09375 C-312.69393932 256.62250439 -315.33938837 259.30646001 -318 262 C-321.82988013 265.87727963 -325.72051302 269.56243606 -329.875 273.09375 C-332.69393932 275.62250439 -335.33938837 278.30646001 -338 281 C-341.82988013 284.87727963 -345.72051302 288.56243606 -349.875 292.09375 C-352.69393956 294.62250461 -355.33938576 297.30646246 -358 300 C-361.22398087 303.26382615 -364.43517847 306.46830141 -367.9375 309.4375 C-371.65957668 312.6000996 -375.0686634 316.02970414 -378.5 319.5 C-382.50912858 323.55464806 -386.55864499 327.43978149 -390.91015625 331.12890625 C-393.71910534 333.6438345 -396.35108617 336.31835322 -399 339 C-402.22398381 342.26382297 -405.43517821 345.46830119 -408.9375 348.4375 C-412.65957693 351.60009982 -416.06866072 355.02970696 -419.5 358.5 C-423.48776557 362.53298474 -427.51494908 366.39402465 -431.84375 370.0625 C-434.84614683 372.76030585 -437.66260817 375.63043819 -440.5 378.5 C-444.48776831 382.5329811 -448.51494905 386.39402462 -452.84375 390.0625 C-455.84614683 392.76030585 -458.66260817 395.63043819 -461.5 398.5 C-465.48776831 402.5329811 -469.51494905 406.39402462 -473.84375 410.0625 C-476.84614683 412.76030585 -479.66260817 415.63043819 -482.5 418.5 C-486.48776831 422.5329811 -490.51494905 426.39402462 -494.84375 430.0625 C-497.84614683 432.76030585 -500.66260817 435.63043819 -503.5 438.5 C-507.48776831 442.5329811 -511.51494905 446.39402462 -515.84375 450.0625 C-518.84614704 452.76030603 -521.66260582 455.63044038 -524.5 458.5 C-527.89006118 461.92844828 -531.25193982 465.3226072 -534.9375 468.4375 C-538.84269979 471.74572658 -542.40280926 475.36513741 -546 479 C-550.1450809 483.18844516 -554.30916362 487.2267072 -558.8125 491.03125 C-561.99822069 493.89839862 -564.98566733 496.95447778 -568 500 C-578.30005294 510.39715874 -578.30005294 510.39715874 -583 514 C-583.33 514 -583.66 514 -584 514 C-584.23240063 504.63783829 -584.4097272 495.27667906 -584.51812172 485.91225529 C-584.57016584 481.56310229 -584.64066343 477.21593183 -584.75439453 472.86791992 C-584.86360407 468.66614475 -584.92295216 464.4662672 -584.94877243 460.26318169 C-584.96715407 458.66544158 -585.00305388 457.06779762 -585.05730057 455.47087288 C-585.46421982 442.98760153 -585.46421982 442.98760153 -581.83190918 438.05693054 C-579.32709664 435.77745441 -576.81967801 433.86817224 -574 432 C-572.80903078 431.05642332 -571.6242909 430.10476579 -570.453125 429.13671875 C-569.38763878 428.31741455 -568.31992096 427.50100438 -567.25 426.6875 C-562.37749906 422.92335916 -557.64758235 419.03828769 -553 415 C-547.87089323 410.54603947 -542.61981306 406.30373914 -537.25 402.14453125 C-533.05966768 398.88018754 -529.01043537 395.48227535 -525 392 C-520.42991343 388.03177751 -515.78491226 384.20638702 -511 380.5 C-505.53660276 376.26607753 -500.25983634 371.85660786 -495.0324707 367.33544922 C-490.75780877 363.63964152 -486.42008542 360.03352305 -482.03515625 356.46875 C-478.22141012 353.36670682 -474.42151893 350.24809178 -470.625 347.125 C-469.89555176 346.52494141 -469.16610352 345.92488281 -468.41455078 345.30664062 C-463.39318066 341.16784146 -458.41656567 336.97989396 -453.46142578 332.76220703 C-449.56666562 329.45589033 -445.59329118 326.26275427 -441.58984375 323.08984375 C-437.96869031 320.16779685 -434.43045431 317.15178514 -430.88671875 314.13671875 C-426.57534434 310.47306256 -422.20498127 306.88731372 -417.81640625 303.31640625 C-414.66214808 300.72212734 -411.5479702 298.08393735 -408.4375 295.4375 C-403.88715684 291.56758198 -399.27167165 287.80040103 -394.58984375 284.08984375 C-390.96869031 281.16779685 -387.43045431 278.15178514 -383.88671875 275.13671875 C-380.45428391 272.21995487 -376.99407185 269.34306574 -373.5 266.5 C-369.46016863 263.21176517 -365.46907935 259.87278574 -361.5 256.5 C-356.65040619 252.37898366 -351.74839194 248.33008646 -346.8125 244.3125 C-343.1190609 241.2756723 -339.47701514 238.18039045 -335.83374023 235.08374023 C-332.44045891 232.2045468 -329.01732214 229.36795763 -325.5625 226.5625 C-321.31607618 223.10725849 -317.14703706 219.57302166 -313 216 C-307.98680512 211.68071044 -302.9146268 207.44902881 -297.77734375 203.27734375 C-294.65603633 200.71795946 -291.5754997 198.11406209 -288.5 195.5 C-283.65045949 191.37892208 -278.74839036 187.33008517 -273.8125 183.3125 C-270.1190609 180.2756723 -266.47701514 177.18039045 -262.83374023 174.08374023 C-259.44045891 171.2045468 -256.01732214 168.36795763 -252.5625 165.5625 C-248.31607618 162.10725849 -244.14703706 158.57302166 -240 155 C-234.98680512 150.68071044 -229.9146268 146.44902881 -224.77734375 142.27734375 C-221.65603367 139.71795728 -218.57559002 137.11395878 -215.5 134.5 C-210.73372735 130.45218053 -205.92714854 126.46041189 -201.078125 122.51171875 C-197.20819872 119.3538982 -193.35415572 116.17703445 -189.5 113 C-183.01071971 107.6534727 -176.51584403 102.31415148 -170 97 C-169.40896484 96.51708496 -168.81792969 96.03416992 -168.20898438 95.53662109 C-159.44274992 88.37606124 -150.62130669 81.29618992 -141.70019531 74.32958984 C-139.44854072 72.56874681 -137.20306716 70.80011417 -134.95751953 69.03149414 C-132.62041446 67.19195119 -130.28013216 65.3564766 -127.93945312 63.52148438 C-126.57801283 62.45344612 -125.21740824 61.38434213 -123.85742188 60.31445312 C-114.69239617 53.10824264 -105.48077817 46.02872543 -95.92138672 39.35302734 C-93.79057511 37.85252443 -91.6785957 36.32737755 -89.56640625 34.80078125 C-23.04545226 -12.96306689 -23.04545226 -12.96306689 0 0 Z " fill="#121B30" transform="translate(584,3)"/>
<path d="M0 0 C7.66617828 6.36129687 14.64496382 13.2855525 21.12890625 20.84765625 C23.33079829 23.38052162 25.60195826 25.84332522 27.875 28.3125 C31.89380593 32.72353173 35.72865324 37.23735358 39.47265625 41.8828125 C41.35047916 44.21237942 43.26024117 46.51257397 45.18359375 48.8046875 C53.90525419 59.2249716 62.08424157 69.95681023 70 81 C70.5775 81.80308594 71.155 82.60617187 71.75 83.43359375 C125.09698287 157.85739798 162.96847254 242.95647957 191 366 C191.13931946 366.74264099 191.27863892 367.48528198 191.42218018 368.25042725 C191.85141344 370.55519304 192.27283258 372.86124512 192.69140625 375.16796875 C192.82272446 375.87633377 192.95404266 376.58469879 193.08934021 377.31452942 C193.74569213 380.99432116 194 384.22654413 194 388 C155.06 388 116.12 388 76 388 C76.56869593 382.8817366 77.13186509 377.84672425 77.90234375 372.76953125 C80.07393157 358.20157823 81.93817417 343.69196612 83 329 C83.05784668 328.26168945 83.11569336 327.52337891 83.17529297 326.76269531 C90.69094041 228.05570552 71.32794199 121.01556297 0.515625 23.8359375 C-1.06400335 21.99666006 -2.65402609 20.16990011 -4.26953125 18.36206055 C-6.71593097 15.61113857 -8.32958681 13.34082638 -10 10 C-6.7 6.7 -3.4 3.4 0 0 Z " fill="#121B30" transform="translate(389,200)"/>
<path d="M0 0 C17.29503686 1.15300246 17.29503686 1.15300246 23.765625 2.1640625 C24.5147113 2.27659363 25.26379761 2.38912476 26.0355835 2.50506592 C28.44174535 2.87013149 30.84596452 3.24619933 33.25 3.625 C34.08982422 3.75594055 34.92964844 3.8868811 35.79492188 4.02178955 C98.4595691 13.83376956 160.2255162 30.46727188 216.75830078 59.84228516 C219.38124994 61.19689471 222.01690235 62.52533111 224.65234375 63.85546875 C245.19165297 74.29377077 265.05922144 85.87092362 284 99 C284.73959961 99.50821289 285.47919922 100.01642578 286.24121094 100.54003906 C299.07729881 109.36647677 311.60089268 118.57109684 324 128 C323.21007484 132.24925258 321.15346563 134.08910865 318 137 C315.27974672 135.72171479 312.97596521 134.32643141 310.62890625 132.453125 C309.98308594 131.94499268 309.33726562 131.43686035 308.671875 130.91333008 C307.97578125 130.36443115 307.2796875 129.81553223 306.5625 129.25 C296.72795241 121.62414934 286.48020966 114.70376327 276 108 C275.30003906 107.55060059 274.60007812 107.10120117 273.87890625 106.63818359 C251.50919509 92.44670595 226.96785574 82.16605535 201.96429443 73.66931152 C199.97883954 72.99278981 197.99631677 72.30818983 196.01416016 71.62207031 C164.53613564 60.76396198 131.97401694 51.86014698 99 47 C97.04803711 46.71020264 97.04803711 46.71020264 95.05664062 46.41455078 C76.88068409 43.78727893 58.86420495 42.62922563 40.5 42.625 C39.61828125 42.62309662 38.7365625 42.62119324 37.828125 42.61923218 C35.24968716 42.61986545 32.67204872 42.63812593 30.09375 42.6640625 C29.37070679 42.66647446 28.64766357 42.66888641 27.90270996 42.67137146 C18.51568685 42.82989143 9.41203083 44.05879692 0 45 C0 30.15 0 15.3 0 0 Z " fill="#121B30" transform="translate(0,13)"/>
<path d="M0 0 C2.54165498 1.95327186 4.9223897 3.9987567 7.29296875 6.15625 C8.20949219 6.97996094 9.12601563 7.80367187 10.0703125 8.65234375 C25.26782009 23.01596889 33.36154703 41.92296419 34.421875 62.6796875 C34.92488013 85.54965426 27.37741724 105.29202102 11.71875 121.7890625 C-2.78145072 135.93901682 -19.94024122 146.23328155 -40.70703125 147.15625 C-41.42375 147.2078125 -42.14046875 147.259375 -42.87890625 147.3125 C-60.95763265 148.04050241 -82.44406295 142.25883789 -96.7109375 131.05078125 C-101.50743595 126.49833164 -101.50743595 126.49833164 -102.04760742 122.86621094 C-102.03189697 122.04926758 -102.01618652 121.23232422 -102 120.390625 C-101.99033203 119.50117188 -101.98066406 118.61171875 -101.97070312 117.6953125 C-101.94556641 116.77492188 -101.92042969 115.85453125 -101.89453125 114.90625 C-101.87422852 113.50246094 -101.87422852 113.50246094 -101.85351562 112.0703125 C-101.81823079 109.76503673 -101.76893406 107.4609394 -101.70703125 105.15625 C-101.04703125 105.15625 -100.38703125 105.15625 -99.70703125 105.15625 C-98.49082052 106.6377616 -97.33442693 108.16858094 -96.20703125 109.71875 C-85.98653962 122.67687332 -68.80121023 129.81140273 -52.70703125 132.15625 C-35.69669374 133.7374208 -20.32206797 127.64495699 -7.2109375 117.16015625 C5.70524262 106.13127186 15.11956321 91.02869958 16.47753906 73.81689453 C17.44754751 55.5018789 14.79853538 38.62181381 2.30175781 24.42724609 C0.02792281 21.93769615 -2.32623964 19.54406459 -4.70703125 17.15625 C-5.58488281 16.24359375 -5.58488281 16.24359375 -6.48046875 15.3125 C-17.91496488 4.40039202 -34.49427697 0.61618228 -49.81152344 0.80664062 C-66.59651094 1.40813655 -81.77780916 8.35589296 -93.70703125 20.15625 C-111.64781716 40.39640879 -113.32193189 62.3966018 -113.31453609 88.12987018 C-113.31769865 91.76138749 -113.34338507 95.39275006 -113.36651611 99.02418518 C-113.40682688 105.87667344 -113.4273576 112.72906716 -113.44049001 119.58165556 C-113.45644533 127.3933052 -113.49489601 135.20479585 -113.53508329 143.01635253 C-113.61714045 159.06294317 -113.67064734 175.10948999 -113.70703125 191.15625 C-118.32703125 191.48625 -122.94703125 191.81625 -127.70703125 192.15625 C-127.73027745 176.13460732 -127.74807534 160.11297171 -127.75884342 144.09131622 C-127.76397829 136.6505526 -127.77096682 129.2097997 -127.7824707 121.76904297 C-127.79250404 115.27629034 -127.79890505 108.78354548 -127.80111974 102.29078531 C-127.80241231 98.85965415 -127.80540434 95.42854523 -127.81276131 91.99742126 C-127.91773015 36.91913055 -127.91773015 36.91913055 -106.70703125 13.15625 C-105.94519531 12.29902344 -105.18335938 11.44179687 -104.3984375 10.55859375 C-94.37038809 -0.09517959 -82.7571377 -6.88171545 -68.70703125 -10.84375 C-67.73672974 -11.11977051 -67.73672974 -11.11977051 -66.74682617 -11.40136719 C-44.28570057 -17.14789163 -19.08179531 -12.99654745 0 0 Z " fill="#121B30" transform="translate(726.70703125,222.84375)"/>
<path d="M0 0 C14.59559238 14.24582754 23.99968557 33.4661604 24.96875 53.9765625 C24.98524117 55.73039895 24.99015869 57.4843768 24.984375 59.23828125 C24.98211914 60.12862061 24.97986328 61.01895996 24.97753906 61.9362793 C24.97318848 62.94621948 24.97318848 62.94621948 24.96875 63.9765625 C15.98981022 64.15592358 7.01063367 64.32114043 -1.96875 64.4765625 C-2.65452747 64.48843975 -3.34030495 64.500317 -4.04686356 64.51255417 C-28.85475369 64.93787844 -53.65744456 65.0651831 -78.46875 65.0390625 C-79.69723726 65.03777847 -79.69723726 65.03777847 -80.95054245 65.03646851 C-90.97746882 65.02519863 -101.00435792 65.00530555 -111.03125 64.9765625 C-112.29211514 61.03635892 -112.03125 58.50075951 -112.03125 53.9765625 C-73.09125 53.6465625 -34.15125 53.3165625 5.96875 52.9765625 C1.32008961 32.05759075 -5.41840386 13.95512685 -24.03125 1.9765625 C-38.646 -6.44520845 -54.644039 -11.31743222 -71.59375 -8.0859375 C-87.2472357 -3.77107061 -102.75647486 6.54099702 -111.54296875 20.3203125 C-121.88570652 38.77979198 -125.71731872 57.74202524 -120.09765625 78.41015625 C-114.93072858 94.44729853 -104.811357 109.47436311 -90.03125 117.9765625 C-73.27814352 126.20811548 -53.91376468 128.4639065 -36.03125 122.9765625 C-19.46852472 115.85402535 -8.55916468 105.17298498 -1.03125 88.9765625 C4.90875 88.6465625 10.84875 88.3165625 16.96875 87.9765625 C13.82752637 103.68268063 1.79662618 117.11366327 -11.03515625 126.07421875 C-24.50795109 134.74803974 -38.26462482 139.39370724 -54.28125 139.2890625 C-55.19729004 139.28342285 -56.11333008 139.2777832 -57.05712891 139.27197266 C-74.06105235 138.97019858 -90.75411821 133.80321694 -104.03125 122.9765625 C-104.86140625 122.30882812 -105.6915625 121.64109375 -106.546875 120.953125 C-121.80320823 107.98992162 -132.51562934 89.51066842 -134.25439453 69.39501953 C-135.58641959 46.07414198 -130.16299347 23.69519281 -114.33984375 5.87109375 C-100.40475398 -9.10015869 -81.42566528 -19.41115712 -60.8359375 -20.95703125 C-38.24707165 -21.49186512 -16.86613859 -15.57688894 0 0 Z " fill="#121B30" transform="translate(1340.03125,231.0234375)"/>
<path d="M0 0 C16.24851868 13.95801979 28.29404244 31.6495134 30.22143555 53.51171875 C31.22648788 75.42143105 25.93384016 97.9984771 11.0859375 114.87109375 C-1.22309854 127.43368671 -17.04685941 139.22505682 -35.33203125 140.11328125 C-37.22170539 140.12320949 -39.11154793 140.06867098 -41 140 C-41 135.71 -41 131.42 -41 127 C-39.98421875 126.79246094 -38.9684375 126.58492187 -37.921875 126.37109375 C-22.15962301 122.93824604 -7.97985393 115.32156871 1.35546875 101.7421875 C10.40120141 87.40757764 15.40578504 69.24631039 12.3515625 52.4296875 C7.86275637 35.28014613 -1.09633628 20.98418831 -16.42578125 11.9765625 C-32.30972325 3.05166379 -48.02349053 1.1598089 -65.66796875 6.0078125 C-82.61452075 11.5889016 -93.73399194 21.48965258 -102.10693359 37.20361328 C-109.31127122 51.69500646 -110.85948636 69.69425848 -106.09765625 85.2421875 C-99.36427625 102.15950522 -88.6423721 113.89345849 -72 121.25 C-66.41053548 123.53715506 -60.82414877 125.41159579 -55 127 C-55 131.29 -55 135.58 -55 140 C-76.51211693 139.1159404 -93.23486687 128.66559712 -107.6875 113.1875 C-123.57709561 94.19475983 -125.25951191 71.81110778 -124 48 C-121.87135171 28.80559071 -109.05983248 12.40942124 -95 0 C-67.86833477 -20.4782319 -27.07091407 -20.9184336 0 0 Z " fill="#121B30" transform="translate(1024,227)"/>
<path d="M0 0 C8.28403242 8.19683208 11.55217333 17.76824824 12.21875 29.23046875 C12.24735513 40.11472033 7.96259027 50.54233635 0.6015625 58.578125 C-9.06485821 67.516765 -19.78953765 69.70889114 -32.4375 69.47265625 C-42.72890851 69.02026216 -50.55382403 64.37207452 -57.7734375 57.203125 C-66.40391264 46.60621249 -68.77065703 35.70832665 -67.7734375 22.203125 C-66.10344636 13.79280816 -62.60363402 7.43027107 -56.7734375 1.203125 C-56.25007813 0.63851562 -55.72671875 0.07390625 -55.1875 -0.5078125 C-39.8078537 -15.28727748 -15.4028157 -13.20241346 0 0 Z " fill="#121B30" transform="translate(530.7734375,117.796875)"/>
<path d="M0 0 C4.62 0 9.24 0 14 0 C14 55.11 14 110.22 14 167 C31.49 167 48.98 167 67 167 C67 172.28 67 177.56 67 183 C45.22 183 23.44 183 1 183 C0.82419341 171.43757738 0.65464416 159.87520743 0.5 148.3125 C0.48218412 146.9812849 0.48218412 146.9812849 0.46400833 145.62317657 C0.02161015 112.20679784 -0.08782947 78.79407428 -0.0625 45.375 C-0.06121597 43.66868093 -0.06121597 43.66868093 -0.05990601 41.92789078 C-0.0485998 27.95191096 -0.02865017 13.97595471 0 0 Z " fill="#121B30" transform="translate(801,185)"/>
<path d="M0 0 C0 3.96 0 7.92 0 12 C-1.59714844 12.03867188 -1.59714844 12.03867188 -3.2265625 12.078125 C-24.3196935 12.80665456 -41.42990208 19.57283749 -56 35 C-71.28044872 52.77994877 -73.43787956 72.31105503 -73.51171875 94.71484375 C-73.52860449 96.66639811 -73.54675981 98.61794185 -73.56611633 100.56947327 C-73.61320012 105.65409016 -73.64327679 110.73866401 -73.66955566 115.82342529 C-73.69957359 121.03276062 -73.74602978 126.24194811 -73.79101562 131.45117188 C-73.87657392 141.63403657 -73.94412787 151.8169321 -74 162 C-78.29 162 -82.58 162 -87 162 C-87.06981197 150.11613402 -87.12296876 138.23231762 -87.15543652 126.34828758 C-87.17102709 120.8287972 -87.1921434 115.30944814 -87.22631836 109.79003906 C-87.25914903 104.45374812 -87.27690258 99.11759227 -87.28463173 93.78120804 C-87.29013298 91.7552643 -87.30087433 89.72932713 -87.31719017 87.70344162 C-87.42709492 73.47851069 -86.90743613 60.05521686 -80.875 46.875 C-80.5764209 46.21105225 -80.2778418 45.54710449 -79.97021484 44.86303711 C-76.85330149 38.23142529 -72.77836193 32.54906546 -68 27 C-67.31292969 26.20078125 -66.62585937 25.4015625 -65.91796875 24.578125 C-52.12517868 9.73616166 -31.42579333 0.70588 -11.40234375 -0.94921875 C-7.52722135 -1.03113191 -3.83295129 -0.55639616 0 0 Z " fill="#121B30" transform="translate(1178,206)"/>
<path d="M0 0 C2.91985181 0.68088981 5.35122304 1.58101234 8 3 C7.12484071 7.5267492 4.49798335 10.21038815 1.5 13.5625 C0.40392818 14.81290895 -0.6911134 16.06422168 -1.78515625 17.31640625 C-2.32930176 17.93660645 -2.87344727 18.55680664 -3.43408203 19.19580078 C-6.39942033 22.61236612 -9.23353322 26.13348089 -12.0859375 29.64453125 C-14.36619504 32.4506441 -16.67791413 35.22847815 -19 38 C-22.86444746 36.5341751 -24.01174362 34.526449 -26 31 C-25.31035156 30.18917969 -24.62070312 29.37835938 -23.91015625 28.54296875 C-18.54968076 22.23009531 -13.24427973 15.880001 -8.015625 9.45703125 C-5.39321207 6.26033022 -2.70787294 3.12446878 0 0 Z " fill="#121B30" transform="translate(459,197)"/>
</svg>
