M48
;Layer_Color=9474304
;FILE_FORMAT=2:5
INCH,TZ
;TYPE=PLATED
T1F00S00C0.01181
T2F00S00C0.02756
T3F00S00C0.02800
T4F00S00C0.04213
T5F00S00C0.06693
T6F00S00C0.07087
T7F00S00C0.07874
T8F00S00C0.08634
T9F00S00C0.08819
T10F00S00C0.10630
T11F00S00C0.13386
;TYPE=NON_PLATED
T12F00S00C0.06299
%
T01
X253543Y74803
X260236Y91535
X264961
X269685
X273622Y87598
X277559Y83661
X280512Y92520
X277165Y96063
X277440Y101456
X274803Y104675
X268110Y102362
X263386
X254921Y97342
X253543Y114961
X274420Y123640
X277440Y126792
X274606Y130905
X278740Y135039
X275197Y138583
X278543Y150591
Y155512
X281496Y153150
X278346Y165354
Y169291
Y173622
X281890Y181496
X277165Y192520
X277953Y196063
X277559Y201181
X273622Y205709
X261024Y209842
X257087Y191732
X253937Y189370
X250394Y187402
X246850Y189509
X243701Y192126
X268110Y183891
X264173Y174016
X261811Y169291
X261811Y163386
X261811Y157480
X261811Y151575
X258661Y141732
X255512Y144488
X251969Y146850
X248425Y144488
X245276Y141732
X279999Y120079
X324803Y121457
Y113583
Y105709
Y97835
Y89961
Y82087
X321260Y130315
X334646Y130709
X338976
X343701
X331693Y143701
Y149606
X345768Y159547
X359055Y165354
X363189
X377953Y149606
Y143701
X339567Y194882
X335039Y198425
X223425Y191929
X217520Y184055
X217520Y178150
X217520Y172244
X220472Y169291
X217520Y166339
X220472Y163386
X217520Y160433
X217520Y154528
X217520Y148622
X218110Y141339
Y131496
X222441
X226378Y127953
Y123622
Y119291
X229921Y121260
Y126772
X222441Y116142
X218110
X213386Y114961
X208661Y116142
X204331
X200394Y119291
Y123622
Y127953
X204331Y131496
X208661Y131890
Y136811
X213386Y132283
X197835Y140748
X206299Y152362
X205118Y156299
X206299Y166732
X204095Y175984
X188976Y173228
Y179134
X189269Y184747
X189370Y193701
X188976Y167323
Y155512
X194882Y119291
X200787Y102756
X204724
X205118Y99213
X200787Y98425
X209055Y96850
X212992Y94488
X209055Y87402
X205512Y84646
X205906Y77953
X211614Y77756
X224410
X227854Y86122
Y89735
X227953Y94882
X222260Y90251
X180315Y99213
X176378
X178347Y102756
X164961Y102362
Y98425
X153746Y97829
X155219Y102261
X155315Y107779
X152362Y105118
X151969Y111417
X152756Y116929
X158427Y117558
X154637Y121457
X160236Y133071
X153040Y137795
X150565Y144266
X141732Y134843
X127953Y132874
Y137795
Y127953
Y123031
Y118110
X141732Y115748
X125515Y104406
X120480Y104342
X105413Y76772
X148425Y84252
X149606Y87402
X152953Y84941
X155636Y87953
X159055Y85039
Y81102
Y77165
X168110Y77559
Y74016
X170866Y85827
X155512Y66142
X150591Y168307
X149606Y172047
X150591Y176181
Y186024
Y197835
X160433
Y189961
Y179134
Y174213
Y169291
X126250Y169783
X120276Y169783
X106102Y195866
X160433Y205709
Y213583
Y221457
X150591
Y213583
Y245079
X160433
Y237205
X156693Y259055
X151575
X166929Y258268
X206693Y255906
X211614
X209646Y241142
X214567
X204724
X207677Y232283
X212598
X208661Y224410
X204724Y220472
X232283Y232283
X227362Y243110
X227362Y247146
X222441Y244094
X258268Y244213
Y248031
X261611Y255121
X270669Y256890
X274449Y257835
X277362Y262697
X277461Y266634
X277615Y271457
X277714Y275394
X270768Y267618
Y262500
X271260Y248031
Y242815
X270866Y236221
X274016Y234252
X271260Y231496
X262992
X265786Y227991
X268898Y224803
X277953Y222047
X278120Y217319
X277953Y212513
X281151Y214961
X281102Y219685
X279528Y228346
Y233268
Y238189
X281323Y256079
X316929Y255118
X311811Y249213
X302362Y239764
X308661Y228740
X326772Y224410
Y220472
X336614
Y224410
X358268Y229942
X363386Y229921
X339075Y256299
T02
X286614Y149606
X291535
X296457
X301378
X301575Y200394
X296654
X291732
X286811
X353839Y204528
Y209449
X163779Y89764
Y84842
Y79921
Y75000
X353839Y214370
Y219291
T03
X38386Y6890
Y14764
Y22638
Y30512
X46260Y26575
Y18701
Y10827
X54134Y6890
Y14764
Y22638
Y30512
X62008Y26575
Y18701
Y10827
X69882Y6890
Y14764
Y22638
Y30512
X77756Y26575
Y18701
Y10827
X85630Y6890
Y14764
Y22638
Y30512
X93945Y26349
Y18475
Y10601
X390307Y11053
Y18927
Y26801
X398622Y30512
Y22638
Y14764
Y6890
X406496Y10827
Y18701
Y26575
X414370Y30512
Y22638
Y14764
Y6890
X422244Y10827
Y18701
Y26575
X430118Y30512
Y22638
Y14764
Y6890
X437992Y10827
Y18701
Y26575
X445866Y30512
Y22638
Y14764
Y6890
X253684Y155559
X246063Y155512
Y163386
Y171260
X253937
Y163386
X253937Y179134
X246063
X238189
Y171260
X230315
Y163386
X238189
Y155512
X230062Y155559
Y179181
X78740Y307087
Y314961
Y322835
X70866Y326772
Y318898
Y311024
Y303150
X62992Y307087
Y314961
Y322835
X55118Y326772
Y318898
Y311024
Y303150
X47244Y307087
Y314961
Y322835
X39370Y326772
Y318898
Y311024
Y303150
X86614
Y311024
Y318898
Y326772
X94488Y322835
Y314961
Y307087
X390307Y306328
Y314202
Y322076
X398622Y325787
Y317913
Y310039
Y302165
X406496Y306102
Y313976
Y321850
X414370Y325787
Y317913
Y310039
Y302165
X422244Y306102
Y313976
Y321850
X430118Y325787
Y317913
Y310039
Y302165
X437992Y306102
Y313976
Y321850
X445866Y325787
Y317913
Y310039
Y302165
T04
X428780Y84016
Y94016
Y104016
Y114016
Y124016
Y134016
Y144016
Y154016
X438779
X448779
Y144016
X438779
Y134016
X448779
Y124016
X438779
Y114016
X448779
Y104016
X438779
Y94016
X448779
Y84016
X438779
X435039Y174409
X425197
Y186221
X435039
X444882
X454724
Y196063
X444882
X435039
X425197
Y207874
X435039
X444882
X454724
Y174409
X444882
X55472Y180433
X45472
X35472
Y190433
X45472
X55472
Y200433
X45472
X35472
Y210433
X45472
X55472
X59055Y160039
X49213
X39370
X29528
Y148228
X39370
X49213
X59055
Y138386
X49213
X39370
X29528
Y126575
Y116732
X39370
Y126575
X49213
X59055
Y116732
X49213
Y104921
X39370
Y95079
X29528
Y104921
Y83268
X39370
X49213
X59055
Y95079
Y104921
X49213Y95079
X45472Y220433
X55472
Y230433
X45472
X35472
Y220433
Y240433
X45472
X55472
Y250433
X45472
X35472
X425197Y251181
X435039
X444882
X454724
Y239370
X444882
Y229528
X454724
Y217717
X444882
X435039
X425197
Y229528
Y239370
X435039
Y229528
T05
X127953Y47244
X182087
X302165
X356299Y47244
X182087Y285433
X127953
X302165
X356299
T06
X215551Y37402
X268701
X215551Y295276
X268701
T07
X326693Y139139
X326193Y193539
T08
X127953Y23622
X182087
X302165
X356299Y23622
X182087Y309055
X127953
X302165
X356299
T09
X109252Y21654
Y40157
X146653
X163386
Y21654
X146653
X200787
Y40157
X283465
Y21654
X320866
X337598Y21654
Y40157
X320866Y40157
X375000Y40157
Y21654
X200787Y292520
Y311024
X163386
X146653
Y292520
X163386
X109252
Y311024
X283465
Y292520
X320866
X337598
Y311024
X320866
X375000
Y292520
T10
X256299Y61024
X227953
Y271654
X256299
T11
X19685Y19685
X464567
X393701Y90551
Y166339
X90551
Y90551
X19685Y312992
X90551Y242126
X393701
X464567Y312992
T12
X127953Y10827
X182087
X302165
X356299Y10827
X182087Y321850
X127953
X302165
X356299
M30
