G04*
G04 #@! TF.GenerationSoftware,Altium Limited,Altium Designer,21.3.1 (25)*
G04*
G04 Layer_Color=32896*
%FSLAX25Y25*%
%MOIN*%
G70*
G04*
G04 #@! TF.SameCoordinates,B8EFB4BC-30DA-42F7-88CE-EC59C6869F36*
G04*
G04*
G04 #@! TF.FilePolarity,Positive*
G04*
G01*
G75*
%ADD14C,0.00787*%
%ADD15C,0.00500*%
D14*
X232079Y32157D02*
X252173D01*
X232079Y42646D02*
X253248D01*
X123031Y83957D02*
Y95177D01*
X361221Y174508D02*
Y185728D01*
X236516Y87598D02*
X247736D01*
X236516Y245079D02*
X247736D01*
X123031Y148917D02*
Y160138D01*
X361221Y239469D02*
Y250689D01*
D15*
X344324Y187334D02*
X342356D01*
Y186350D01*
X342684Y186022D01*
X343340D01*
X343668Y186350D01*
Y187334D01*
Y186678D02*
X344324Y186022D01*
Y185366D02*
Y184710D01*
Y185038D01*
X342356D01*
X342684Y185366D01*
X344324Y183726D02*
Y183070D01*
Y183398D01*
X342356D01*
X342684Y183726D01*
X344652Y182086D02*
Y180774D01*
X344324Y180118D02*
X343012D01*
X342356Y179462D01*
X343012Y178806D01*
X344324D01*
X343340D01*
Y180118D01*
X342356Y176838D02*
Y178150D01*
X343340D01*
Y177494D01*
Y178150D01*
X344324D01*
X342356Y174871D02*
Y176182D01*
X344324D01*
Y174871D01*
X343340Y176182D02*
Y175526D01*
X342356Y172903D02*
X342684Y173559D01*
X343340Y174214D01*
X343996D01*
X344324Y173887D01*
Y173231D01*
X343996Y172903D01*
X343668D01*
X343340Y173231D01*
Y174214D01*
X376128Y255500D02*
Y257468D01*
X375144D01*
X374816Y257140D01*
Y256484D01*
X375144Y256156D01*
X376128D01*
X375472D02*
X374816Y255500D01*
X374160D02*
X373504D01*
X373832D01*
Y257468D01*
X374160Y257140D01*
X372520Y255500D02*
X371864D01*
X372192D01*
Y257468D01*
X372520Y257140D01*
X370880Y255172D02*
X369568D01*
X368912Y255500D02*
Y256812D01*
X368256Y257468D01*
X367600Y256812D01*
Y255500D01*
Y256484D01*
X368912D01*
X365632Y257468D02*
X366944D01*
Y256484D01*
X366288D01*
X366944D01*
Y255500D01*
X363664Y257468D02*
X364976D01*
Y255500D01*
X363664D01*
X364976Y256484D02*
X364320D01*
X361697Y257468D02*
X363008D01*
Y256484D01*
X362352Y256812D01*
X362024D01*
X361697Y256484D01*
Y255828D01*
X362024Y255500D01*
X362681D01*
X363008Y255828D01*
X138028Y164900D02*
Y166868D01*
X137044D01*
X136716Y166540D01*
Y165884D01*
X137044Y165556D01*
X138028D01*
X137372D02*
X136716Y164900D01*
X136060D02*
X135404D01*
X135732D01*
Y166868D01*
X136060Y166540D01*
X134420Y164900D02*
X133764D01*
X134092D01*
Y166868D01*
X134420Y166540D01*
X132780Y164572D02*
X131468D01*
X130812Y164900D02*
Y166212D01*
X130156Y166868D01*
X129500Y166212D01*
Y164900D01*
Y165884D01*
X130812D01*
X127532Y166868D02*
X128844D01*
Y165884D01*
X128188D01*
X128844D01*
Y164900D01*
X125564Y166868D02*
X126876D01*
Y164900D01*
X125564D01*
X126876Y165884D02*
X126220D01*
X123925Y164900D02*
Y166868D01*
X124908Y165884D01*
X123597D01*
X138028Y100000D02*
Y101968D01*
X137044D01*
X136716Y101640D01*
Y100984D01*
X137044Y100656D01*
X138028D01*
X137372D02*
X136716Y100000D01*
X136060D02*
X135404D01*
X135732D01*
Y101968D01*
X136060Y101640D01*
X134420Y100000D02*
X133764D01*
X134092D01*
Y101968D01*
X134420Y101640D01*
X132780Y99672D02*
X131468D01*
X130812Y100000D02*
Y101312D01*
X130156Y101968D01*
X129500Y101312D01*
Y100000D01*
Y100984D01*
X130812D01*
X127532Y101968D02*
X128844D01*
Y100984D01*
X128188D01*
X128844D01*
Y100000D01*
X125564Y101968D02*
X126876D01*
Y100000D01*
X125564D01*
X126876Y100984D02*
X126220D01*
X124908Y101640D02*
X124581Y101968D01*
X123925D01*
X123597Y101640D01*
Y101312D01*
X123925Y100984D01*
X124252D01*
X123925D01*
X123597Y100656D01*
Y100328D01*
X123925Y100000D01*
X124581D01*
X124908Y100328D01*
X249228Y263400D02*
Y265368D01*
X248244D01*
X247916Y265040D01*
Y264384D01*
X248244Y264056D01*
X249228D01*
X248572D02*
X247916Y263400D01*
X247260D02*
X246604D01*
X246932D01*
Y265368D01*
X247260Y265040D01*
X245620Y263400D02*
X244964D01*
X245292D01*
Y265368D01*
X245620Y265040D01*
X243980Y263072D02*
X242668D01*
X242012Y263400D02*
Y264712D01*
X241356Y265368D01*
X240700Y264712D01*
Y263400D01*
Y264384D01*
X242012D01*
X238732Y265368D02*
X240044D01*
Y264384D01*
X239388D01*
X240044D01*
Y263400D01*
X236764Y265368D02*
X238076D01*
Y263400D01*
X236764D01*
X238076Y264384D02*
X237420D01*
X234797Y263400D02*
X236108D01*
X234797Y264712D01*
Y265040D01*
X235124Y265368D01*
X235781D01*
X236108Y265040D01*
X249228Y105900D02*
Y107868D01*
X248244D01*
X247916Y107540D01*
Y106884D01*
X248244Y106556D01*
X249228D01*
X248572D02*
X247916Y105900D01*
X247260D02*
X246604D01*
X246932D01*
Y107868D01*
X247260Y107540D01*
X245620Y105900D02*
X244964D01*
X245292D01*
Y107868D01*
X245620Y107540D01*
X243980Y105572D02*
X242668D01*
X242012Y105900D02*
Y107212D01*
X241356Y107868D01*
X240700Y107212D01*
Y105900D01*
Y106884D01*
X242012D01*
X238732Y107868D02*
X240044D01*
Y106884D01*
X239388D01*
X240044D01*
Y105900D01*
X236764Y107868D02*
X238076D01*
Y105900D01*
X236764D01*
X238076Y106884D02*
X237420D01*
X236108Y105900D02*
X235453D01*
X235781D01*
Y107868D01*
X236108Y107540D01*
X255128Y48468D02*
Y46500D01*
X254144D01*
X253816Y46828D01*
Y48140D01*
X254144Y48468D01*
X255128D01*
X253160Y46500D02*
X252504D01*
X252832D01*
Y48468D01*
X253160Y48140D01*
X478716Y296568D02*
X479372D01*
X479044D01*
Y294928D01*
X479372Y294600D01*
X479700D01*
X480028Y294928D01*
X478060Y294600D02*
X477404D01*
X477732D01*
Y296568D01*
X478060Y296240D01*
X476420D02*
X476092Y296568D01*
X475436D01*
X475108Y296240D01*
Y295912D01*
X475436Y295584D01*
X475764D01*
X475436D01*
X475108Y295256D01*
Y294928D01*
X475436Y294600D01*
X476092D01*
X476420Y294928D01*
X474452Y294272D02*
X473140D01*
X472484Y296568D02*
Y294600D01*
X471172D01*
X470516Y296568D02*
Y295256D01*
X469860Y294600D01*
X469204Y295256D01*
Y296568D01*
X83016Y296068D02*
X83672D01*
X83344D01*
Y294428D01*
X83672Y294100D01*
X84000D01*
X84328Y294428D01*
X82360Y294100D02*
X81704D01*
X82032D01*
Y296068D01*
X82360Y295740D01*
X80720D02*
X80392Y296068D01*
X79736D01*
X79408Y295740D01*
Y295412D01*
X79736Y295084D01*
X80064D01*
X79736D01*
X79408Y294756D01*
Y294428D01*
X79736Y294100D01*
X80392D01*
X80720Y294428D01*
X78752Y293772D02*
X77440D01*
X76784Y296068D02*
Y294100D01*
Y295084D01*
X75472D01*
Y296068D01*
Y294100D01*
X74816Y296068D02*
Y294756D01*
X74160Y294100D01*
X73504Y294756D01*
Y296068D01*
M02*
