G04*
G04 #@! TF.GenerationSoftware,Altium Limited,Altium Designer,21.3.1 (25)*
G04*
G04 Layer_Color=32768*
%FSLAX25Y25*%
%MOIN*%
G70*
G04*
G04 #@! TF.SameCoordinates,B8EFB4BC-30DA-42F7-88CE-EC59C6869F36*
G04*
G04*
G04 #@! TF.FilePolarity,Positive*
G04*
G01*
G75*
%ADD11C,0.00394*%
%ADD131C,0.00197*%
D11*
X301181Y257087D02*
X320669D01*
Y241339D02*
Y257087D01*
X301181Y241339D02*
X320669D01*
X301181D02*
Y257087D01*
X178347Y99213D02*
Y103150D01*
X176378Y101181D02*
X180315D01*
X175591Y209449D02*
X179527D01*
X177559Y207480D02*
Y211417D01*
X107330Y205335D02*
X163196D01*
Y261201D01*
X107330D02*
X163196D01*
X107330Y205335D02*
Y261201D01*
X136024Y120866D02*
X163779D01*
Y211811D01*
X136024D02*
X163779D01*
X136024Y120866D02*
Y211811D01*
X220669Y115551D02*
Y132480D01*
X206102Y115551D02*
X220669D01*
X206102D02*
Y132480D01*
X220669D01*
X317461Y76417D02*
Y132283D01*
Y76417D02*
X376496D01*
Y132283D01*
X317461D02*
X376496D01*
X342126Y240846D02*
Y261520D01*
X321260D02*
X342126D01*
X321260Y240846D02*
Y261520D01*
Y240846D02*
X342126D01*
X480315Y43418D02*
Y291535D01*
X399606Y291535D02*
X480315Y291535D01*
X399606Y43418D02*
X480315D01*
X399606D02*
Y291535D01*
X224410Y222244D02*
Y258071D01*
X196850Y222244D02*
X224410D01*
X196850D02*
Y258071D01*
X224410D01*
X3937Y42913D02*
Y291031D01*
Y42913D02*
X84646Y42913D01*
X3937Y291031D02*
X84646D01*
Y42913D02*
Y291031D01*
X206299Y339961D02*
X277953D01*
Y259744D02*
Y339961D01*
X206299Y259744D02*
X277953D01*
X206299D02*
Y339961D01*
X194882Y74606D02*
X222441D01*
Y110433D01*
X194882D02*
X222441D01*
X194882Y74606D02*
Y110433D01*
X97402Y-3937D02*
X158504D01*
Y58465D01*
X97402D02*
X158504D01*
X97402Y-3937D02*
Y58465D01*
Y336614D02*
X158504D01*
X97402Y274213D02*
Y336614D01*
Y274213D02*
X158504D01*
Y336614D01*
X151535D02*
X212638D01*
X151535Y274213D02*
Y336614D01*
Y274213D02*
X212638D01*
Y336614D01*
X151535Y-3937D02*
X212638D01*
Y58465D01*
X151535D02*
X212638D01*
X151535Y-3937D02*
Y58465D01*
X325748Y336614D02*
X386850D01*
X325748Y274213D02*
Y336614D01*
Y274213D02*
X386850D01*
Y336614D01*
X325748Y-3937D02*
X386850D01*
Y58465D01*
X325748D02*
X386850D01*
X325748Y-3937D02*
Y58465D01*
X271614Y336614D02*
X332716D01*
X271614Y274213D02*
Y336614D01*
Y274213D02*
X332716D01*
Y336614D01*
X271614Y-3937D02*
X332716D01*
Y58465D01*
X271614D02*
X332716D01*
X271614Y-3937D02*
Y58465D01*
X206299Y-7283D02*
X277953D01*
X206299D02*
Y72933D01*
X277953D01*
Y-7283D02*
Y72933D01*
D131*
X145276Y96653D02*
X168898D01*
X145276Y68110D02*
Y96653D01*
Y68110D02*
X168898D01*
Y96653D01*
X328740Y200098D02*
X334646D01*
Y212106D01*
X328740D02*
X334646D01*
X328740Y200098D02*
Y212106D01*
X334646Y200098D02*
X340551D01*
Y212106D01*
X334646D02*
X340551D01*
X334646Y200098D02*
Y212106D01*
X322835Y200098D02*
X328740D01*
Y212106D01*
X322835D02*
X328740D01*
X322835Y200098D02*
Y212106D01*
X326378Y212992D02*
X337008D01*
Y226772D01*
X326378D02*
X337008D01*
X326378Y212992D02*
Y226772D01*
X337205Y212992D02*
X347835D01*
Y226772D01*
X337205D02*
X347835D01*
X337205Y212992D02*
Y226772D01*
X315551Y212992D02*
X326181D01*
Y226772D01*
X315551D02*
X326181D01*
X315551Y212992D02*
Y226772D01*
X345913Y178874D02*
X350953D01*
X345913Y169110D02*
Y178874D01*
Y169110D02*
X350953D01*
Y178874D01*
X241004Y96496D02*
Y101535D01*
X231240D02*
X241004D01*
X231240Y96496D02*
Y101535D01*
Y96496D02*
X241004D01*
X130748Y162933D02*
X135787D01*
Y172697D01*
X130748D02*
X135787D01*
X130748Y162933D02*
Y172697D01*
X132126Y87441D02*
Y97205D01*
X137165D01*
Y87441D02*
Y97205D01*
X132126Y87441D02*
X137165D01*
X226614Y253681D02*
X236378D01*
X226614D02*
Y258720D01*
X236378D01*
Y253681D02*
Y258720D01*
X345413Y244055D02*
X350453D01*
X345413Y234291D02*
Y244055D01*
Y234291D02*
X350453D01*
Y244055D01*
X318740Y247480D02*
X323780D01*
Y257244D01*
X318740D02*
X323780D01*
X318740Y247480D02*
Y257244D01*
X304173Y238032D02*
Y243071D01*
Y238032D02*
X313937D01*
Y243071D01*
X304173D02*
X313937D01*
X291732Y251870D02*
X305906D01*
X291732Y229232D02*
Y251870D01*
Y229232D02*
X305906D01*
Y251870D01*
X348721Y197638D02*
Y226181D01*
X372342D01*
Y197638D02*
Y226181D01*
X348721Y197638D02*
X372342D01*
X279921Y195276D02*
X308465D01*
X279921D02*
Y218898D01*
X308465D01*
Y195276D02*
Y218898D01*
X279724Y154724D02*
X308268D01*
Y131102D02*
Y154724D01*
X279724Y131102D02*
X308268D01*
X279724D02*
Y154724D01*
X171260Y113583D02*
X185433D01*
X171260Y88779D02*
X185433D01*
Y113583D01*
X171260Y88779D02*
Y113583D01*
X185630Y199409D02*
Y219488D01*
X169488Y199409D02*
Y219488D01*
X185630D01*
X169488Y199409D02*
X185630D01*
X195473Y95571D02*
Y106791D01*
X189567Y95571D02*
X195473D01*
X189567D02*
Y106791D01*
X195473D01*
X184055Y95571D02*
Y106791D01*
X189961D01*
Y95571D02*
Y106791D01*
X184055Y95571D02*
X189961D01*
X184155Y106501D02*
X190060D01*
Y117721D01*
X184155D02*
X190060D01*
X184155Y106501D02*
Y117721D01*
X167126Y118602D02*
X173031D01*
X167126Y107382D02*
Y118602D01*
Y107382D02*
X173031D01*
Y118602D01*
X166732Y95571D02*
X172638D01*
Y106791D01*
X166732D02*
X172638D01*
X166732Y95571D02*
Y106791D01*
X177462Y249611D02*
X183367D01*
Y260831D01*
X177462D02*
X183367D01*
X177462Y249611D02*
Y260831D01*
X177362Y250295D02*
X183268D01*
X177362Y239075D02*
Y250295D01*
Y239075D02*
X183268D01*
Y250295D01*
X177362Y239665D02*
X183268D01*
X177362Y228445D02*
Y239665D01*
Y228445D02*
X183268D01*
Y239665D01*
X177362Y229035D02*
X183268D01*
X177362Y217815D02*
Y229035D01*
Y217815D02*
X183268D01*
Y229035D01*
X177362Y188484D02*
X183268D01*
Y199705D01*
X177362D02*
X183268D01*
X177362Y188484D02*
Y199705D01*
X184488Y84882D02*
Y94646D01*
X189528D01*
Y84882D02*
Y94646D01*
X184488Y84882D02*
X189528D01*
X189706Y107229D02*
Y116993D01*
X194745D01*
Y107229D02*
Y116993D01*
X189706Y107229D02*
X194745D01*
X173365Y83401D02*
Y88440D01*
Y83401D02*
X183129D01*
Y88440D01*
X173365D02*
X183129D01*
X172677Y249567D02*
X177717D01*
X172677Y239803D02*
Y249567D01*
Y239803D02*
X177717D01*
Y249567D01*
X172677Y238937D02*
X177717D01*
X172677Y229173D02*
Y238937D01*
Y229173D02*
X177717D01*
Y238937D01*
X172677Y228307D02*
X177717D01*
X172677Y218543D02*
Y228307D01*
Y218543D02*
X177717D01*
Y228307D01*
X177816Y250339D02*
Y260103D01*
X172777Y250339D02*
X177816D01*
X172777D02*
Y260103D01*
X177816D01*
X172677Y189213D02*
Y198976D01*
X177717D01*
Y189213D02*
Y198976D01*
X172677Y189213D02*
X177717D01*
X289528Y178976D02*
Y184016D01*
X279764D02*
X289528D01*
X279764Y178976D02*
Y184016D01*
Y178976D02*
X289528D01*
X167520Y215650D02*
Y227658D01*
X161614Y215650D02*
X167520D01*
X161614D02*
Y227658D01*
X167520D01*
X109941Y254724D02*
X132579D01*
X109941D02*
Y268898D01*
X132579D01*
Y254724D02*
Y268898D01*
X111857Y207126D02*
X138669D01*
Y184606D02*
Y207126D01*
X111857Y184606D02*
X138669D01*
X111857D02*
Y207126D01*
X315945Y94390D02*
X321850D01*
Y106398D01*
X315945D02*
X321850D01*
X315945Y94390D02*
Y106398D01*
X322835Y231594D02*
X328740D01*
Y243602D01*
X322835D02*
X328740D01*
X322835Y231594D02*
Y243602D01*
X334646Y231594D02*
X340551D01*
Y243602D01*
X334646D02*
X340551D01*
X334646Y231594D02*
Y243602D01*
X328740Y231594D02*
X334646D01*
Y243602D01*
X328740D02*
X334646D01*
X328740Y231594D02*
Y243602D01*
X191831Y149606D02*
X203839D01*
X191831D02*
Y155512D01*
X203839D01*
Y149606D02*
Y155512D01*
X191831Y167323D02*
X203839D01*
X191831D02*
Y173228D01*
X203839D01*
Y167323D02*
Y173228D01*
X191831Y161417D02*
X203839D01*
Y155512D02*
Y161417D01*
X191831Y155512D02*
X203839D01*
X191831D02*
Y161417D01*
Y167323D02*
X203839D01*
Y161417D02*
Y167323D01*
X191831Y161417D02*
X203839D01*
X191831D02*
Y167323D01*
X216339Y202264D02*
Y213484D01*
X210433Y202264D02*
X216339D01*
X210433D02*
Y213484D01*
X216339D01*
X222244Y202264D02*
Y213484D01*
X216339Y202264D02*
X222244D01*
X216339D02*
Y213484D01*
X222244D01*
X210433Y202264D02*
Y213484D01*
X204528Y202264D02*
X210433D01*
X204528D02*
Y213484D01*
X210433D01*
X279429Y176969D02*
X308760D01*
Y155315D02*
Y176969D01*
X279429Y155315D02*
X308760D01*
X279429D02*
Y176969D01*
X193799Y121260D02*
Y143307D01*
X162894D02*
X193799D01*
X162894Y121260D02*
Y143307D01*
Y121260D02*
X193799D01*
X299350Y69933D02*
Y116587D01*
X256043Y69933D02*
X299350D01*
X256043D02*
Y116587D01*
X299350D01*
X459744Y151535D02*
Y181142D01*
X473327D01*
Y151535D02*
Y181142D01*
X459744Y151535D02*
X473327D01*
X24508D02*
Y181142D01*
X10925Y151535D02*
X24508D01*
X10925D02*
Y181142D01*
X24508D01*
X373524Y66142D02*
Y80315D01*
X350886D02*
X373524D01*
X350886Y66142D02*
Y80315D01*
Y66142D02*
X373524D01*
X344862Y130472D02*
Y152992D01*
Y130472D02*
X371673D01*
Y152992D01*
X344862D02*
X371673D01*
X183031Y115000D02*
Y120039D01*
X173268D02*
X183031D01*
X173268Y115000D02*
Y120039D01*
Y115000D02*
X183031D01*
X299449Y89134D02*
X304488D01*
X299449Y79370D02*
Y89134D01*
Y79370D02*
X304488D01*
Y89134D01*
X263228Y128898D02*
X268268D01*
X263228Y119134D02*
Y128898D01*
Y119134D02*
X268268D01*
Y128898D01*
X202716Y185472D02*
Y190512D01*
X192953D02*
X202716D01*
X192953Y185472D02*
Y190512D01*
Y185472D02*
X202716D01*
Y179567D02*
Y184606D01*
X192953D02*
X202716D01*
X192953Y179567D02*
Y184606D01*
Y179567D02*
X202716D01*
Y173661D02*
Y178701D01*
X192953D02*
X202716D01*
X192953Y173661D02*
Y178701D01*
Y173661D02*
X202716D01*
X227795Y128898D02*
X232835D01*
X227795Y119134D02*
Y128898D01*
Y119134D02*
X232835D01*
Y128898D01*
X183307Y157126D02*
Y164134D01*
X171811D02*
X183307D01*
X171811Y157126D02*
Y164134D01*
Y157126D02*
X183307D01*
X224764Y119134D02*
Y128898D01*
X219724Y119134D02*
X224764D01*
X219724D02*
Y128898D01*
X224764D01*
X169449Y177717D02*
Y186063D01*
Y177717D02*
X185669D01*
Y186063D01*
X169449D02*
X185669D01*
X249646Y118268D02*
X256654D01*
Y129764D01*
X249646D02*
X256654D01*
X249646Y118268D02*
Y129764D01*
X169449Y176221D02*
X185669D01*
Y167874D02*
Y176221D01*
X169449Y167874D02*
X185669D01*
X169449D02*
Y176221D01*
X202008Y119331D02*
Y129095D01*
X207047D01*
Y119331D02*
Y129095D01*
X202008Y119331D02*
X207047D01*
X169449Y145827D02*
Y154173D01*
Y145827D02*
X185669D01*
Y154173D01*
X169449D02*
X185669D01*
X257323Y128898D02*
X262362D01*
X257323Y119134D02*
Y128898D01*
Y119134D02*
X262362D01*
Y128898D01*
X279764Y184488D02*
Y189528D01*
Y184488D02*
X289528D01*
Y189528D01*
X279764D02*
X289528D01*
X199449Y202992D02*
Y212756D01*
X204488D01*
Y202992D02*
Y212756D01*
X199449Y202992D02*
X204488D01*
X279764Y190394D02*
Y195433D01*
Y190394D02*
X289528D01*
Y195433D01*
X279764D02*
X289528D01*
X202716Y144134D02*
Y149173D01*
X192953D02*
X202716D01*
X192953Y144134D02*
Y149173D01*
Y144134D02*
X202716D01*
X255512Y30925D02*
Y43878D01*
X228740Y30925D02*
X255512D01*
X228740D02*
Y43878D01*
X255512D01*
X118898Y142126D02*
Y166929D01*
X133071D01*
Y142126D02*
Y166929D01*
X118898Y142126D02*
X133071D01*
X107677Y82087D02*
Y97047D01*
X138386D01*
Y82087D02*
Y97047D01*
X107677Y82087D02*
X138386D01*
X118898Y77165D02*
Y101969D01*
X133071D01*
Y77165D02*
Y101969D01*
X118898Y77165D02*
X133071D01*
X364862Y232677D02*
Y257480D01*
X350689Y232677D02*
X364862D01*
X350689D02*
Y257480D01*
X364862D01*
X350984Y192520D02*
X365158D01*
X350984Y167717D02*
Y192520D01*
Y167717D02*
X365158D01*
Y192520D01*
X254528Y240945D02*
Y255118D01*
X229724D02*
X254528D01*
X229724Y240945D02*
Y255118D01*
Y240945D02*
X254528D01*
X219902Y202244D02*
X264350D01*
X219902D02*
Y238917D01*
X264350D01*
Y202244D02*
Y238917D01*
X313681Y128543D02*
X346358D01*
Y204134D01*
X313681D02*
X346358D01*
X313681Y128543D02*
Y204134D01*
X345866Y187598D02*
X376575D01*
X345866Y172638D02*
Y187598D01*
Y172638D02*
X376575D01*
Y187598D01*
X254528Y83661D02*
Y97835D01*
X229724D02*
X254528D01*
X229724Y83661D02*
Y97835D01*
Y83661D02*
X254528D01*
X249606Y72244D02*
Y102953D01*
X234646D02*
X249606D01*
X234646Y72244D02*
Y102953D01*
Y72244D02*
X249606D01*
Y229724D02*
Y260433D01*
X234646D02*
X249606D01*
X234646Y229724D02*
Y260433D01*
Y229724D02*
X249606D01*
X107677Y147047D02*
X138386D01*
Y162008D01*
X107677D02*
X138386D01*
X107677Y147047D02*
Y162008D01*
X345866Y252559D02*
X376575D01*
X345866Y237598D02*
Y252559D01*
Y237598D02*
X376575D01*
Y252559D01*
M02*
