G04*
G04 #@! TF.GenerationSoftware,Altium Limited,Altium Designer,21.3.1 (25)*
G04*
G04 Layer_Color=8421504*
%FSLAX25Y25*%
%MOIN*%
G70*
G04*
G04 #@! TF.SameCoordinates,B8EFB4BC-30DA-42F7-88CE-EC59C6869F36*
G04*
G04*
G04 #@! TF.FilePolarity,Positive*
G04*
G01*
G75*
%ADD16R,0.02756X0.02362*%
%ADD17R,0.03937X0.03740*%
%ADD18R,0.01968X0.03937*%
%ADD19R,0.03858X0.03071*%
%ADD20R,0.03071X0.03858*%
%ADD21R,0.02362X0.01181*%
%ADD22R,0.01181X0.02362*%
%ADD23R,0.07087X0.04528*%
G04:AMPARAMS|DCode=24|XSize=61.81mil|YSize=74.41mil|CornerRadius=1.85mil|HoleSize=0mil|Usage=FLASHONLY|Rotation=270.000|XOffset=0mil|YOffset=0mil|HoleType=Round|Shape=RoundedRectangle|*
%AMROUNDEDRECTD24*
21,1,0.06181,0.07070,0,0,270.0*
21,1,0.05810,0.07441,0,0,270.0*
1,1,0.00371,-0.03535,-0.02905*
1,1,0.00371,-0.03535,0.02905*
1,1,0.00371,0.03535,0.02905*
1,1,0.00371,0.03535,-0.02905*
%
%ADD24ROUNDEDRECTD24*%
G04:AMPARAMS|DCode=25|XSize=17.72mil|YSize=53.15mil|CornerRadius=1.95mil|HoleSize=0mil|Usage=FLASHONLY|Rotation=0.000|XOffset=0mil|YOffset=0mil|HoleType=Round|Shape=RoundedRectangle|*
%AMROUNDEDRECTD25*
21,1,0.01772,0.04925,0,0,0.0*
21,1,0.01382,0.05315,0,0,0.0*
1,1,0.00390,0.00691,-0.02463*
1,1,0.00390,-0.00691,-0.02463*
1,1,0.00390,-0.00691,0.02463*
1,1,0.00390,0.00691,0.02463*
%
%ADD25ROUNDEDRECTD25*%
G04:AMPARAMS|DCode=26|XSize=25.59mil|YSize=47.24mil|CornerRadius=1.92mil|HoleSize=0mil|Usage=FLASHONLY|Rotation=180.000|XOffset=0mil|YOffset=0mil|HoleType=Round|Shape=RoundedRectangle|*
%AMROUNDEDRECTD26*
21,1,0.02559,0.04341,0,0,180.0*
21,1,0.02175,0.04724,0,0,180.0*
1,1,0.00384,-0.01088,0.02170*
1,1,0.00384,0.01088,0.02170*
1,1,0.00384,0.01088,-0.02170*
1,1,0.00384,-0.01088,-0.02170*
%
%ADD26ROUNDEDRECTD26*%
%ADD27R,0.03937X0.03347*%
%ADD28R,0.04173X0.04173*%
%ADD29R,0.05118X0.07874*%
%ADD30R,0.03937X0.01181*%
%ADD31R,0.04528X0.07087*%
%ADD32R,0.03189X0.21299*%
%ADD33R,0.03937X0.04724*%
%ADD34R,0.03740X0.03937*%
%ADD35R,0.04173X0.04173*%
%ADD36R,0.02362X0.00984*%
%ADD37R,0.03543X0.05315*%
%ADD38R,0.01968X0.04134*%
%ADD39R,0.02362X0.03150*%
%ADD40R,0.01968X0.03150*%
%ADD41R,0.09843X0.02559*%
%ADD42R,0.06004X0.02559*%
%ADD43R,0.05807X0.01772*%
%ADD44R,0.02756X0.07579*%
%ADD45R,0.11614X0.07953*%
%ADD46R,0.04016X0.05787*%
%ADD47R,0.04016X0.07165*%
%ADD48R,0.05787X0.04016*%
%ADD49R,0.05512X0.08268*%
%ADD50R,0.01181X0.05512*%
%ADD51R,0.05512X0.01181*%
%ADD52R,0.02913X0.10984*%
%ADD53R,0.05906X0.01181*%
%ADD54R,0.01181X0.04724*%
%ADD55R,0.04724X0.01181*%
D16*
X164567Y230315D02*
D03*
X164567Y236614D02*
D03*
X318898Y86221D02*
D03*
X318897Y92519D02*
D03*
D17*
X331693Y209252D02*
D03*
Y202953D02*
D03*
X337598Y209252D02*
D03*
Y202953D02*
D03*
X325787Y209252D02*
D03*
Y202953D02*
D03*
X164567Y224803D02*
D03*
Y218504D02*
D03*
X318898Y103543D02*
D03*
Y97244D02*
D03*
X325787Y240748D02*
D03*
Y234449D02*
D03*
X337598Y240748D02*
D03*
Y234449D02*
D03*
X331693Y240748D02*
D03*
Y234449D02*
D03*
D18*
X331693Y223819D02*
D03*
X334252Y215945D02*
D03*
X329134D02*
D03*
X342520Y223819D02*
D03*
X345079Y215945D02*
D03*
X339961D02*
D03*
X320866Y223819D02*
D03*
X323425Y215945D02*
D03*
X318307D02*
D03*
D19*
X348433Y171236D02*
D03*
Y176748D02*
D03*
X133268Y170571D02*
D03*
Y165059D02*
D03*
X134646Y89567D02*
D03*
Y95079D02*
D03*
X347933Y236417D02*
D03*
Y241929D02*
D03*
X321260Y255118D02*
D03*
Y249606D02*
D03*
X187008Y87008D02*
D03*
Y92520D02*
D03*
X192226Y109355D02*
D03*
Y114867D02*
D03*
X175197Y241929D02*
D03*
Y247441D02*
D03*
Y231299D02*
D03*
Y236811D02*
D03*
Y220669D02*
D03*
Y226181D02*
D03*
X175296Y257977D02*
D03*
Y252465D02*
D03*
X175197Y191339D02*
D03*
Y196850D02*
D03*
X301969Y81496D02*
D03*
Y87008D02*
D03*
X265748Y121260D02*
D03*
Y126772D02*
D03*
X230315Y121260D02*
D03*
Y126772D02*
D03*
X222244Y126772D02*
D03*
Y121260D02*
D03*
X204528Y121457D02*
D03*
Y126969D02*
D03*
X259842Y121260D02*
D03*
Y126772D02*
D03*
X201969Y205118D02*
D03*
Y210630D02*
D03*
D20*
X233366Y99016D02*
D03*
X238878D02*
D03*
X234252Y256201D02*
D03*
X228740D02*
D03*
X311811Y240551D02*
D03*
X306299D02*
D03*
X181003Y85921D02*
D03*
X175491D02*
D03*
X281890Y181496D02*
D03*
X287402D02*
D03*
X175394Y117520D02*
D03*
X180905D02*
D03*
X195079Y187992D02*
D03*
X200591D02*
D03*
X195079Y182087D02*
D03*
X200591D02*
D03*
X195079Y176181D02*
D03*
X200591D02*
D03*
X287402Y187008D02*
D03*
X281890D02*
D03*
X287402Y192913D02*
D03*
X281890D02*
D03*
X195079Y146653D02*
D03*
X200591D02*
D03*
D21*
X307283Y252165D02*
D03*
Y250197D02*
D03*
Y248228D02*
D03*
Y246260D02*
D03*
X316339D02*
D03*
Y248228D02*
D03*
Y250197D02*
D03*
Y252165D02*
D03*
D22*
X309842Y245669D02*
D03*
X311811D02*
D03*
X313779D02*
D03*
Y252756D02*
D03*
X311811D02*
D03*
X309842D02*
D03*
D23*
X298819Y234646D02*
D03*
Y246457D02*
D03*
D24*
X178347Y101181D02*
D03*
D25*
X182185Y109941D02*
D03*
Y92421D02*
D03*
X179626Y109941D02*
D03*
X177067D02*
D03*
X179626Y92421D02*
D03*
X177067D02*
D03*
X174508D02*
D03*
Y109941D02*
D03*
D26*
X173819Y215256D02*
D03*
X181299Y203642D02*
D03*
X173819D02*
D03*
X181299Y215256D02*
D03*
X177559Y203642D02*
D03*
D27*
X192520Y104134D02*
D03*
Y98228D02*
D03*
X187008D02*
D03*
Y104134D02*
D03*
X187108Y115064D02*
D03*
Y109158D02*
D03*
X170079Y110039D02*
D03*
Y115945D02*
D03*
X169685Y98228D02*
D03*
Y104134D02*
D03*
X180415Y258174D02*
D03*
Y252268D02*
D03*
X180315Y241732D02*
D03*
Y247638D02*
D03*
Y237008D02*
D03*
Y231102D02*
D03*
Y226378D02*
D03*
Y220472D02*
D03*
Y191142D02*
D03*
Y197047D02*
D03*
X213386Y210827D02*
D03*
Y204921D02*
D03*
X219291Y210827D02*
D03*
Y204921D02*
D03*
X207480Y210827D02*
D03*
Y204921D02*
D03*
D28*
X153295Y251299D02*
D03*
Y242283D02*
D03*
Y233268D02*
D03*
Y224252D02*
D03*
Y215236D02*
D03*
X144279Y251299D02*
D03*
Y242283D02*
D03*
Y233268D02*
D03*
Y224252D02*
D03*
Y215236D02*
D03*
X135263Y251299D02*
D03*
Y242283D02*
D03*
Y233268D02*
D03*
Y224252D02*
D03*
Y215236D02*
D03*
X126247Y251299D02*
D03*
Y242283D02*
D03*
Y233268D02*
D03*
Y224252D02*
D03*
Y215236D02*
D03*
X117232Y251299D02*
D03*
Y242283D02*
D03*
Y233268D02*
D03*
Y224252D02*
D03*
Y215236D02*
D03*
D29*
X152559Y203937D02*
D03*
Y128740D02*
D03*
D30*
X141929Y194882D02*
D03*
Y192913D02*
D03*
Y190945D02*
D03*
Y188976D02*
D03*
Y187008D02*
D03*
Y185039D02*
D03*
Y183071D02*
D03*
Y181102D02*
D03*
Y179134D02*
D03*
Y177165D02*
D03*
Y175197D02*
D03*
Y173228D02*
D03*
Y171260D02*
D03*
Y169291D02*
D03*
Y167323D02*
D03*
Y165354D02*
D03*
Y163386D02*
D03*
Y161417D02*
D03*
Y159449D02*
D03*
Y157480D02*
D03*
Y155512D02*
D03*
Y153543D02*
D03*
Y151575D02*
D03*
Y149606D02*
D03*
Y147638D02*
D03*
Y145669D02*
D03*
Y143701D02*
D03*
Y141732D02*
D03*
Y139764D02*
D03*
Y137795D02*
D03*
D31*
X127165Y261811D02*
D03*
X115354D02*
D03*
X356299Y73228D02*
D03*
X368110D02*
D03*
D32*
X114042Y195866D02*
D03*
X136484D02*
D03*
X369488Y141732D02*
D03*
X347047D02*
D03*
D33*
X210827Y127362D02*
D03*
Y120669D02*
D03*
X215945D02*
D03*
Y127362D02*
D03*
D34*
X200984Y152559D02*
D03*
X194685D02*
D03*
X200984Y170276D02*
D03*
X194685D02*
D03*
Y158465D02*
D03*
X200984D02*
D03*
X194685Y164370D02*
D03*
X200984D02*
D03*
D35*
X366614Y86299D02*
D03*
X357598D02*
D03*
X348583D02*
D03*
X339567D02*
D03*
X330551D02*
D03*
X366614Y95315D02*
D03*
X357598D02*
D03*
X348583D02*
D03*
X339567D02*
D03*
X330551D02*
D03*
X366614Y104331D02*
D03*
X357598D02*
D03*
X348583D02*
D03*
X339567D02*
D03*
X330551D02*
D03*
X366614Y113347D02*
D03*
X357598D02*
D03*
X348583D02*
D03*
X339567D02*
D03*
X330551D02*
D03*
X366614Y122362D02*
D03*
X357598D02*
D03*
X348583D02*
D03*
X339567D02*
D03*
X330551D02*
D03*
D36*
X331693Y251378D02*
D03*
D37*
X335433Y247445D02*
D03*
X327953D02*
D03*
D38*
X331693Y246854D02*
D03*
D39*
X327953Y256004D02*
D03*
X335433D02*
D03*
D40*
X331693D02*
D03*
D41*
Y253150D02*
D03*
D42*
X283417Y173642D02*
D03*
Y168642D02*
D03*
Y163642D02*
D03*
Y158642D02*
D03*
X304772D02*
D03*
Y163642D02*
D03*
Y168642D02*
D03*
Y173642D02*
D03*
D43*
X166779Y123327D02*
D03*
Y125886D02*
D03*
Y128445D02*
D03*
Y131004D02*
D03*
Y133563D02*
D03*
Y136122D02*
D03*
Y138681D02*
D03*
Y141240D02*
D03*
X189913D02*
D03*
Y138681D02*
D03*
Y136122D02*
D03*
Y133563D02*
D03*
Y131004D02*
D03*
Y128445D02*
D03*
Y125886D02*
D03*
Y123327D02*
D03*
D44*
X295197Y111811D02*
D03*
X290197D02*
D03*
X285197D02*
D03*
X280197D02*
D03*
X275197D02*
D03*
X270197D02*
D03*
X265197D02*
D03*
X260197D02*
D03*
Y74709D02*
D03*
X265197D02*
D03*
X270197D02*
D03*
X275197D02*
D03*
X280197D02*
D03*
X285197D02*
D03*
X290197D02*
D03*
X295197D02*
D03*
D45*
X466535Y156496D02*
D03*
Y176181D02*
D03*
X17717D02*
D03*
Y156496D02*
D03*
D46*
X174409Y160630D02*
D03*
X180709D02*
D03*
D47*
X183071Y181890D02*
D03*
X172047D02*
D03*
Y172047D02*
D03*
X183071D02*
D03*
Y150000D02*
D03*
X172047D02*
D03*
D48*
X253150Y127165D02*
D03*
Y120866D02*
D03*
D49*
X219488Y251969D02*
D03*
Y228346D02*
D03*
X201772Y251969D02*
D03*
Y228346D02*
D03*
X217520Y104331D02*
D03*
Y80709D02*
D03*
X199803Y104331D02*
D03*
Y80709D02*
D03*
D50*
X122047Y145866D02*
D03*
X124016D02*
D03*
X125984D02*
D03*
X127953D02*
D03*
X129921D02*
D03*
Y163189D02*
D03*
X127953D02*
D03*
X125984D02*
D03*
X124016D02*
D03*
X122047D02*
D03*
Y80905D02*
D03*
X124016D02*
D03*
X125984D02*
D03*
X127953D02*
D03*
X129921D02*
D03*
Y98228D02*
D03*
X127953D02*
D03*
X125984D02*
D03*
X124016D02*
D03*
X122047D02*
D03*
X361713Y253740D02*
D03*
X359744D02*
D03*
X357776D02*
D03*
X355807D02*
D03*
X353839D02*
D03*
Y236417D02*
D03*
X355807D02*
D03*
X357776D02*
D03*
X359744D02*
D03*
X361713D02*
D03*
X362008Y171457D02*
D03*
X360039D02*
D03*
X358071D02*
D03*
X356102D02*
D03*
X354134D02*
D03*
Y188779D02*
D03*
X356102D02*
D03*
X358071D02*
D03*
X360039D02*
D03*
X362008D02*
D03*
D51*
X233465Y244094D02*
D03*
Y246063D02*
D03*
Y248031D02*
D03*
Y250000D02*
D03*
Y251969D02*
D03*
X250787D02*
D03*
Y250000D02*
D03*
Y248031D02*
D03*
Y246063D02*
D03*
Y244094D02*
D03*
X233465Y86811D02*
D03*
Y88779D02*
D03*
Y90748D02*
D03*
Y92716D02*
D03*
Y94685D02*
D03*
X250787D02*
D03*
Y92716D02*
D03*
Y90748D02*
D03*
Y88779D02*
D03*
Y86811D02*
D03*
D52*
X257126Y227697D02*
D03*
Y211673D02*
D03*
X252126Y227697D02*
D03*
Y211673D02*
D03*
X247126Y227697D02*
D03*
Y211673D02*
D03*
X242126Y227697D02*
D03*
Y211673D02*
D03*
X237126Y227697D02*
D03*
Y211673D02*
D03*
X232126Y227697D02*
D03*
Y211673D02*
D03*
X227126Y227697D02*
D03*
Y211673D02*
D03*
D53*
X339469Y147638D02*
D03*
X323917D02*
D03*
X339469Y149606D02*
D03*
X323917D02*
D03*
X339469Y151575D02*
D03*
X323917D02*
D03*
X339469Y153543D02*
D03*
X323917D02*
D03*
X339469Y155512D02*
D03*
X323917D02*
D03*
X339469Y157480D02*
D03*
X323917D02*
D03*
X339469Y159449D02*
D03*
X323917D02*
D03*
X339469Y161417D02*
D03*
X323917D02*
D03*
X339469Y163386D02*
D03*
X323917D02*
D03*
X339469Y165354D02*
D03*
X323917D02*
D03*
X339469Y167323D02*
D03*
X323917D02*
D03*
X339469Y169291D02*
D03*
X323917D02*
D03*
X339469Y171260D02*
D03*
X323917D02*
D03*
X339469Y173228D02*
D03*
X323917D02*
D03*
X339469Y175197D02*
D03*
X323917D02*
D03*
X339469Y177165D02*
D03*
X323917D02*
D03*
X339469Y179134D02*
D03*
X323917D02*
D03*
X339469Y181102D02*
D03*
X323917D02*
D03*
X339469Y183071D02*
D03*
X323917D02*
D03*
X339469Y185039D02*
D03*
X323917D02*
D03*
D54*
X218504Y196850D02*
D03*
X220472D02*
D03*
X222441D02*
D03*
X224410D02*
D03*
X226378D02*
D03*
X228346D02*
D03*
X230315D02*
D03*
X232283D02*
D03*
X234252D02*
D03*
X236221D02*
D03*
X238189D02*
D03*
X240158D02*
D03*
X242126D02*
D03*
X244094D02*
D03*
X246063D02*
D03*
X248031D02*
D03*
X250000D02*
D03*
X251969D02*
D03*
X253937D02*
D03*
X255906D02*
D03*
X257874D02*
D03*
X259842D02*
D03*
X261811D02*
D03*
X263779D02*
D03*
X265748D02*
D03*
Y135827D02*
D03*
X263779D02*
D03*
X261811D02*
D03*
X259842D02*
D03*
X257874D02*
D03*
X255906D02*
D03*
X253937D02*
D03*
X251969D02*
D03*
X250000D02*
D03*
X248031D02*
D03*
X246063D02*
D03*
X244094D02*
D03*
X242126D02*
D03*
X240158D02*
D03*
X238189D02*
D03*
X236221D02*
D03*
X234252D02*
D03*
X232283D02*
D03*
X230315D02*
D03*
X228346D02*
D03*
X226378D02*
D03*
X224410D02*
D03*
X222441D02*
D03*
X220472D02*
D03*
X218504D02*
D03*
D55*
X272638Y189961D02*
D03*
Y187992D02*
D03*
Y186024D02*
D03*
Y184055D02*
D03*
Y182087D02*
D03*
Y180118D02*
D03*
Y178150D02*
D03*
Y176181D02*
D03*
Y174213D02*
D03*
Y172244D02*
D03*
Y170276D02*
D03*
Y168307D02*
D03*
Y166339D02*
D03*
Y164370D02*
D03*
Y162402D02*
D03*
Y160433D02*
D03*
Y158465D02*
D03*
Y156496D02*
D03*
Y154528D02*
D03*
Y152559D02*
D03*
Y150591D02*
D03*
Y148622D02*
D03*
Y146653D02*
D03*
Y144685D02*
D03*
Y142717D02*
D03*
X211614D02*
D03*
Y144685D02*
D03*
Y146653D02*
D03*
Y148622D02*
D03*
Y150591D02*
D03*
Y152559D02*
D03*
Y154528D02*
D03*
Y156496D02*
D03*
Y158465D02*
D03*
Y160433D02*
D03*
Y162402D02*
D03*
Y164370D02*
D03*
Y166339D02*
D03*
Y168307D02*
D03*
Y170276D02*
D03*
Y172244D02*
D03*
Y174213D02*
D03*
Y176181D02*
D03*
Y178150D02*
D03*
Y180118D02*
D03*
Y182087D02*
D03*
Y184055D02*
D03*
Y186024D02*
D03*
Y187992D02*
D03*
Y189961D02*
D03*
M02*
