G04*
G04 #@! TF.GenerationSoftware,Altium Limited,Altium Designer,21.3.1 (25)*
G04*
G04 Layer_Color=8388736*
%FSLAX25Y25*%
%MOIN*%
G70*
G04*
G04 #@! TF.SameCoordinates,B8EFB4BC-30DA-42F7-88CE-EC59C6869F36*
G04*
G04*
G04 #@! TF.FilePolarity,Negative*
G04*
G01*
G75*
%ADD49R,0.05512X0.08268*%
%ADD54R,0.01181X0.04724*%
%ADD55R,0.04724X0.01181*%
%ADD56R,0.04331X0.04134*%
%ADD57R,0.02362X0.04331*%
%ADD58R,0.04252X0.03465*%
%ADD59R,0.03465X0.04252*%
%ADD60R,0.02756X0.01575*%
%ADD61R,0.01575X0.02756*%
%ADD62R,0.07480X0.04921*%
G04:AMPARAMS|DCode=63|XSize=65.75mil|YSize=78.35mil|CornerRadius=3.82mil|HoleSize=0mil|Usage=FLASHONLY|Rotation=270.000|XOffset=0mil|YOffset=0mil|HoleType=Round|Shape=RoundedRectangle|*
%AMROUNDEDRECTD63*
21,1,0.06575,0.07070,0,0,270.0*
21,1,0.05810,0.07835,0,0,270.0*
1,1,0.00765,-0.03535,-0.02905*
1,1,0.00765,-0.03535,0.02905*
1,1,0.00765,0.03535,0.02905*
1,1,0.00765,0.03535,-0.02905*
%
%ADD63ROUNDEDRECTD63*%
G04:AMPARAMS|DCode=64|XSize=21.65mil|YSize=57.09mil|CornerRadius=3.92mil|HoleSize=0mil|Usage=FLASHONLY|Rotation=0.000|XOffset=0mil|YOffset=0mil|HoleType=Round|Shape=RoundedRectangle|*
%AMROUNDEDRECTD64*
21,1,0.02165,0.04925,0,0,0.0*
21,1,0.01382,0.05709,0,0,0.0*
1,1,0.00784,0.00691,-0.02463*
1,1,0.00784,-0.00691,-0.02463*
1,1,0.00784,-0.00691,0.02463*
1,1,0.00784,0.00691,0.02463*
%
%ADD64ROUNDEDRECTD64*%
G04:AMPARAMS|DCode=65|XSize=29.53mil|YSize=51.18mil|CornerRadius=3.89mil|HoleSize=0mil|Usage=FLASHONLY|Rotation=180.000|XOffset=0mil|YOffset=0mil|HoleType=Round|Shape=RoundedRectangle|*
%AMROUNDEDRECTD65*
21,1,0.02953,0.04341,0,0,180.0*
21,1,0.02175,0.05118,0,0,180.0*
1,1,0.00778,-0.01088,0.02170*
1,1,0.00778,0.01088,0.02170*
1,1,0.00778,0.01088,-0.02170*
1,1,0.00778,-0.01088,-0.02170*
%
%ADD65ROUNDEDRECTD65*%
%ADD66R,0.04331X0.03740*%
%ADD67R,0.04567X0.04567*%
%ADD68R,0.04331X0.01575*%
%ADD69R,0.03150X0.03150*%
%ADD70R,0.04921X0.07480*%
%ADD71R,0.03583X0.21693*%
%ADD72R,0.04331X0.05118*%
%ADD73R,0.04134X0.04331*%
%ADD74R,0.04567X0.04567*%
%ADD75R,0.02756X0.01378*%
%ADD76R,0.03937X0.05709*%
%ADD77R,0.02362X0.04528*%
%ADD78R,0.02756X0.03543*%
%ADD79R,0.02362X0.03543*%
%ADD80R,0.10236X0.02953*%
%ADD81R,0.06398X0.02953*%
%ADD82R,0.06201X0.02165*%
%ADD83R,0.03150X0.07972*%
%ADD84R,0.12008X0.08346*%
%ADD85R,0.04409X0.06181*%
%ADD86R,0.04409X0.07559*%
%ADD87R,0.06181X0.04409*%
%ADD88R,0.05906X0.08661*%
%ADD89R,0.01575X0.05906*%
%ADD90R,0.05906X0.01575*%
%ADD91R,0.03307X0.11378*%
%ADD92R,0.06299X0.01575*%
%ADD93C,0.04724*%
%ADD94R,0.04724X0.04724*%
%ADD95R,0.04724X0.04724*%
%ADD96C,0.06713*%
%ADD97C,0.16339*%
%ADD98C,0.11024*%
%ADD99C,0.08268*%
%ADD100C,0.03543*%
%ADD101C,0.13622*%
%ADD102C,0.13858*%
%ADD103C,0.10433*%
%ADD104C,0.03150*%
%ADD105C,0.05394*%
%ADD106C,0.24016*%
G36*
X143700Y11811D02*
X144076Y11772D01*
X144802Y11567D01*
X145483Y11242D01*
X146099Y10806D01*
X146633Y10273D01*
X147068Y9657D01*
X147393Y8975D01*
X147574Y8333D01*
X147637Y7875D01*
X147637Y7874D01*
X147637D01*
X147637Y7874D01*
X147638Y354D01*
X147284Y-0D01*
X108620D01*
X108267Y354D01*
X108267Y7874D01*
X108304Y8250D01*
X108505Y8979D01*
X108828Y9662D01*
X109264Y10280D01*
X109798Y10814D01*
X110416Y11250D01*
X111100Y11573D01*
X111828Y11774D01*
X112204Y11811D01*
X112204Y11811D01*
X143700Y11811D01*
D02*
G37*
G36*
X197834D02*
X198209Y11772D01*
X198936Y11567D01*
X199617Y11242D01*
X200233Y10806D01*
X200766Y10273D01*
X201202Y9657D01*
X201527Y8975D01*
X201708Y8333D01*
X201771Y7875D01*
X201771Y7874D01*
X201771D01*
X201771Y7874D01*
X201772Y354D01*
X201418Y-0D01*
X162754D01*
X162401Y354D01*
X162401Y7874D01*
X162438Y8250D01*
X162639Y8979D01*
X162962Y9662D01*
X163398Y10280D01*
X163932Y10814D01*
X164550Y11250D01*
X165233Y11573D01*
X165962Y11774D01*
X166338Y11811D01*
X166338Y11811D01*
X197834Y11811D01*
D02*
G37*
G36*
X268700Y11811D02*
Y11811D01*
X268701Y11811D01*
X269159Y11748D01*
X269802Y11567D01*
X270483Y11242D01*
X271099Y10806D01*
X271633Y10273D01*
X272068Y9657D01*
X272393Y8975D01*
X272598Y8249D01*
X272637Y7874D01*
X272638Y354D01*
X272284Y0D01*
X211968D01*
X211614Y354D01*
X211615Y7874D01*
X211615Y7874D01*
X211679Y8348D01*
X211853Y8979D01*
X212176Y9662D01*
X212611Y10280D01*
X213146Y10814D01*
X213764Y11250D01*
X214447Y11573D01*
X215176Y11774D01*
X215552Y11811D01*
X247048Y11811D01*
X247048Y11811D01*
X247048Y11811D01*
X247048D01*
X247048Y11811D01*
X247511Y11811D01*
X268700Y11811D01*
X268700Y11811D01*
D02*
G37*
G36*
X317913Y11811D02*
X318288Y11772D01*
X319014Y11567D01*
X319695Y11242D01*
X320312Y10806D01*
X320845Y10273D01*
X321281Y9657D01*
X321606Y8975D01*
X321787Y8333D01*
X321850Y7875D01*
X321850Y7874D01*
X321850D01*
X321850Y7874D01*
X321850Y354D01*
X321497Y-0D01*
X282833D01*
X282479Y354D01*
X282480Y7874D01*
X282517Y8250D01*
X282718Y8979D01*
X283041Y9662D01*
X283476Y10280D01*
X284011Y10814D01*
X284629Y11250D01*
X285312Y11573D01*
X286041Y11774D01*
X286417Y11811D01*
X286417Y11811D01*
X317913Y11811D01*
D02*
G37*
G36*
X372047Y11811D02*
X372422Y11772D01*
X373148Y11567D01*
X373829Y11242D01*
X374446Y10806D01*
X374979Y10273D01*
X375415Y9657D01*
X375739Y8975D01*
X375921Y8333D01*
X375984Y7875D01*
X375984Y7874D01*
X375984D01*
X375984Y7874D01*
X375984Y354D01*
X375631Y0D01*
X336967D01*
X336613Y354D01*
X336614Y7874D01*
X336651Y8250D01*
X336852Y8979D01*
X337175Y9662D01*
X337610Y10280D01*
X338145Y10814D01*
X338763Y11250D01*
X339446Y11573D01*
X340175Y11774D01*
X340551Y11811D01*
X340551Y11811D01*
X372047Y11811D01*
D02*
G37*
G36*
X147639Y332324D02*
X147638Y324803D01*
X147601Y324427D01*
X147400Y323698D01*
X147077Y323015D01*
X146642Y322397D01*
X146107Y321863D01*
X145489Y321427D01*
X144806Y321104D01*
X144077Y320903D01*
X143701Y320866D01*
X143701Y320866D01*
X112205D01*
X111830Y320906D01*
X111104Y321110D01*
X110423Y321435D01*
X109806Y321871D01*
X109273Y322404D01*
X108837Y323021D01*
X108512Y323702D01*
X108334Y324335D01*
X108268Y324802D01*
X108268Y324803D01*
X108268D01*
X108268Y324803D01*
X108268Y332324D01*
X108621Y332677D01*
X147285D01*
X147639Y332324D01*
D02*
G37*
G36*
X201773D02*
X201772Y324803D01*
X201735Y324427D01*
X201534Y323698D01*
X201211Y323015D01*
X200776Y322397D01*
X200241Y321863D01*
X199623Y321427D01*
X198940Y321104D01*
X198211Y320903D01*
X197835Y320866D01*
X197835Y320866D01*
X166339D01*
X165964Y320906D01*
X165238Y321110D01*
X164557Y321435D01*
X163940Y321871D01*
X163407Y322404D01*
X162971Y323021D01*
X162646Y323702D01*
X162468Y324335D01*
X162402Y324802D01*
X162402Y324803D01*
X162402D01*
X162402Y324803D01*
X162402Y332324D01*
X162755Y332677D01*
X201419D01*
X201773Y332324D01*
D02*
G37*
G36*
X272638Y332324D02*
X272637Y324803D01*
X272637D01*
X272600Y324427D01*
X272399Y323698D01*
X272076Y323015D01*
X271641Y322397D01*
X271106Y321863D01*
X270488Y321427D01*
X269805Y321104D01*
X269076Y320903D01*
X268700Y320866D01*
X237204Y320866D01*
Y320866D01*
X237204Y320866D01*
X236704Y320866D01*
X215552Y320866D01*
Y320866D01*
X215176Y320906D01*
X214450Y321110D01*
X213769Y321435D01*
X213153Y321871D01*
X212619Y322404D01*
X212184Y323021D01*
X211859Y323702D01*
X211654Y324428D01*
X211615Y324803D01*
X211614Y332324D01*
X211968Y332677D01*
X272284D01*
X272638Y332324D01*
D02*
G37*
G36*
X321851Y332324D02*
X321851Y324803D01*
X321814Y324427D01*
X321613Y323698D01*
X321290Y323015D01*
X320854Y322397D01*
X320320Y321863D01*
X319702Y321427D01*
X319019Y321104D01*
X318290Y320903D01*
X317914Y320866D01*
X317914Y320866D01*
X286418D01*
X286043Y320906D01*
X285316Y321110D01*
X284635Y321435D01*
X284019Y321871D01*
X283486Y322404D01*
X283050Y323021D01*
X282725Y323702D01*
X282546Y324335D01*
X282481Y324802D01*
X282481Y324803D01*
X282481D01*
X282481Y324803D01*
X282480Y332324D01*
X282834Y332677D01*
X321498D01*
X321851Y332324D01*
D02*
G37*
G36*
X375985D02*
X375985Y324803D01*
X375948Y324427D01*
X375746Y323698D01*
X375424Y323015D01*
X374988Y322397D01*
X374454Y321863D01*
X373836Y321427D01*
X373152Y321104D01*
X372424Y320903D01*
X372048Y320866D01*
X372048Y320866D01*
X340552D01*
X340176Y320906D01*
X339450Y321110D01*
X338769Y321435D01*
X338153Y321871D01*
X337619Y322404D01*
X337184Y323021D01*
X336859Y323702D01*
X336680Y324335D01*
X336615Y324802D01*
X336615Y324803D01*
X336615D01*
X336615Y324803D01*
X336614Y332324D01*
X336968Y332677D01*
X375632D01*
X375985Y332324D01*
D02*
G37*
G36*
X480484Y176926D02*
X480491Y176920D01*
X480504Y176913D01*
X480517Y176887D01*
X480530Y176861D01*
X480537Y176854D01*
X480543Y176821D01*
X480550Y176782D01*
X480563Y176730D01*
Y176716D01*
X480569Y176677D01*
X480576Y176611D01*
Y176467D01*
X480569Y176402D01*
X480563Y176343D01*
Y176329D01*
X480556Y176297D01*
X480543Y176257D01*
X480530Y176218D01*
Y176211D01*
X480517Y176192D01*
X480504Y176165D01*
X480484Y176146D01*
X480478Y176139D01*
X480464Y176133D01*
X480445Y176126D01*
X480418D01*
X475138D01*
Y173915D01*
X475125Y173889D01*
X475111Y173870D01*
X475105Y173863D01*
X475098Y173850D01*
X475079Y173830D01*
X475052Y173817D01*
X475046Y173810D01*
X475026Y173804D01*
X474993Y173791D01*
X474947Y173784D01*
X474934D01*
X474901Y173778D01*
X474849Y173771D01*
X474783D01*
X474777D01*
X474770D01*
X474731D01*
X474678Y173778D01*
X474626Y173784D01*
X474619D01*
X474593Y173791D01*
X474554Y173797D01*
X474521Y173817D01*
X474514Y173823D01*
X474495Y173830D01*
X474475Y173850D01*
X474455Y173870D01*
Y173876D01*
X474449Y173889D01*
X474442Y173909D01*
X474436Y173942D01*
Y176657D01*
X474442Y176677D01*
Y176703D01*
X474469Y176776D01*
X474482Y176808D01*
X474508Y176848D01*
X474514Y176854D01*
X474521Y176861D01*
X474541Y176874D01*
X474567Y176894D01*
X474600Y176913D01*
X474646Y176926D01*
X474698Y176933D01*
X474764Y176939D01*
X480418D01*
X480425D01*
X480445D01*
X480484Y176926D01*
D02*
G37*
G36*
X480464Y173522D02*
X480497Y173509D01*
X480523Y173489D01*
X480530Y173482D01*
X480543Y173456D01*
X480556Y173410D01*
X480563Y173351D01*
Y173331D01*
X480569Y173312D01*
Y173246D01*
X480576Y173200D01*
Y173017D01*
X480569Y172951D01*
X480563Y172885D01*
Y172872D01*
X480556Y172839D01*
X480550Y172800D01*
X480537Y172767D01*
Y172761D01*
X480523Y172741D01*
X480510Y172722D01*
X480491Y172702D01*
X480484Y172695D01*
X480471Y172689D01*
X480445Y172676D01*
X480412Y172662D01*
X475269Y170904D01*
Y170898D01*
X480405Y169192D01*
X480412D01*
X480438Y169186D01*
X480464Y169173D01*
X480491Y169166D01*
X480497Y169159D01*
X480510Y169153D01*
X480523Y169127D01*
X480537Y169100D01*
X480543Y169094D01*
X480550Y169061D01*
X480556Y169022D01*
X480563Y168963D01*
Y168949D01*
X480569Y168930D01*
Y168904D01*
X480576Y168831D01*
Y168654D01*
X480569Y168576D01*
X480563Y168503D01*
Y168490D01*
X480550Y168457D01*
X480537Y168418D01*
X480517Y168392D01*
X480510Y168385D01*
X480491Y168379D01*
X480464Y168366D01*
X480418D01*
X480405D01*
X480372Y168372D01*
X480320Y168385D01*
X480254Y168412D01*
X474574Y170406D01*
X474567Y170412D01*
X474547Y170419D01*
X474521Y170439D01*
X474488Y170458D01*
X474482Y170465D01*
X474469Y170484D01*
X474455Y170511D01*
X474442Y170550D01*
Y170563D01*
X474436Y170589D01*
X474429Y170635D01*
X474423Y170701D01*
Y170714D01*
X474416Y170740D01*
Y170767D01*
X474409Y170839D01*
Y171055D01*
X474416Y171114D01*
Y171160D01*
X474423Y171206D01*
X474429Y171252D01*
Y171259D01*
X474436Y171285D01*
Y171311D01*
X474442Y171344D01*
Y171350D01*
X474449Y171370D01*
X474469Y171416D01*
X474475Y171423D01*
X474482Y171429D01*
X474514Y171462D01*
X474521D01*
X474534Y171468D01*
X474554Y171475D01*
X474580Y171488D01*
X480254Y173489D01*
X480261D01*
X480274Y173495D01*
X480313Y173509D01*
X480372Y173522D01*
X480425Y173528D01*
X480438D01*
X480464Y173522D01*
D02*
G37*
G36*
X480261Y167375D02*
X480300Y167368D01*
X480346Y167355D01*
X480392Y167342D01*
X480432Y167316D01*
X480464Y167283D01*
X480471Y167277D01*
X480478Y167263D01*
X480491Y167244D01*
X480510Y167218D01*
X480537Y167146D01*
X480543Y167106D01*
X480550Y167060D01*
Y165630D01*
X480543Y165578D01*
Y165512D01*
X480530Y165374D01*
Y165368D01*
X480523Y165341D01*
Y165302D01*
X480517Y165250D01*
X480504Y165191D01*
X480491Y165112D01*
X480478Y165033D01*
X480458Y164941D01*
Y164928D01*
X480445Y164895D01*
X480432Y164849D01*
X480412Y164784D01*
X480386Y164705D01*
X480353Y164620D01*
X480307Y164528D01*
X480254Y164436D01*
X480248Y164423D01*
X480228Y164390D01*
X480195Y164344D01*
X480156Y164285D01*
X480103Y164220D01*
X480038Y164147D01*
X479966Y164075D01*
X479887Y164003D01*
X479881Y163997D01*
X479848Y163970D01*
X479802Y163938D01*
X479743Y163898D01*
X479671Y163852D01*
X479585Y163806D01*
X479487Y163760D01*
X479382Y163721D01*
X479369Y163715D01*
X479336Y163708D01*
X479277Y163688D01*
X479198Y163669D01*
X479106Y163655D01*
X479002Y163636D01*
X478883Y163629D01*
X478759Y163623D01*
X478752D01*
X478739D01*
X478713D01*
X478680D01*
X478641Y163629D01*
X478595D01*
X478483Y163642D01*
X478359Y163662D01*
X478214Y163688D01*
X478077Y163728D01*
X477932Y163780D01*
X477926D01*
X477919Y163787D01*
X477899Y163793D01*
X477873Y163806D01*
X477801Y163846D01*
X477716Y163892D01*
X477617Y163951D01*
X477512Y164029D01*
X477407Y164115D01*
X477302Y164213D01*
X477289Y164226D01*
X477263Y164266D01*
X477217Y164325D01*
X477158Y164403D01*
X477093Y164502D01*
X477027Y164620D01*
X476961Y164751D01*
X476902Y164902D01*
Y164909D01*
X476896Y164922D01*
X476889Y164941D01*
X476883Y164974D01*
X476869Y165013D01*
X476856Y165059D01*
X476843Y165112D01*
X476837Y165177D01*
X476824Y165243D01*
X476810Y165322D01*
X476784Y165486D01*
X476771Y165676D01*
X476764Y165879D01*
Y166568D01*
X474560D01*
X474554D01*
X474534D01*
X474514Y166581D01*
X474488Y166594D01*
X474482Y166601D01*
X474475Y166607D01*
X474462Y166627D01*
X474449Y166660D01*
Y166667D01*
X474442Y166693D01*
X474436Y166732D01*
X474423Y166785D01*
Y166798D01*
X474416Y166837D01*
X474409Y166896D01*
Y167047D01*
X474416Y167113D01*
X474423Y167178D01*
Y167191D01*
X474429Y167218D01*
X474442Y167263D01*
X474449Y167303D01*
Y167309D01*
X474462Y167329D01*
X474469Y167349D01*
X474488Y167368D01*
X474495D01*
X474508Y167375D01*
X474534Y167382D01*
X474560D01*
X480195D01*
X480202D01*
X480228D01*
X480261Y167375D01*
D02*
G37*
G36*
X480248Y162376D02*
X480287Y162370D01*
X480333Y162357D01*
X480386Y162337D01*
X480425Y162311D01*
X480464Y162278D01*
X480471Y162271D01*
X480478Y162258D01*
X480491Y162239D01*
X480510Y162212D01*
X480537Y162134D01*
X480543Y162094D01*
X480550Y162048D01*
Y161491D01*
X480543Y161451D01*
X480537Y161366D01*
X480517Y161281D01*
Y161274D01*
X480510Y161261D01*
X480504Y161241D01*
X480497Y161209D01*
X480464Y161143D01*
X480425Y161077D01*
Y161071D01*
X480412Y161064D01*
X480386Y161025D01*
X480333Y160979D01*
X480267Y160933D01*
X480261D01*
X480254Y160920D01*
X480235Y160913D01*
X480208Y160900D01*
X480136Y160861D01*
X480051Y160828D01*
X475623Y159083D01*
Y159057D01*
X480038Y157246D01*
X480045D01*
X480064Y157240D01*
X480084Y157227D01*
X480117Y157214D01*
X480195Y157174D01*
X480274Y157135D01*
X480281D01*
X480294Y157122D01*
X480333Y157096D01*
X480386Y157050D01*
X480438Y156997D01*
Y156991D01*
X480451Y156984D01*
X480471Y156945D01*
X480497Y156892D01*
X480523Y156827D01*
Y156820D01*
X480530Y156807D01*
Y156794D01*
X480537Y156767D01*
X480543Y156702D01*
X480550Y156617D01*
Y156046D01*
X480537Y156000D01*
X480523Y155954D01*
X480517Y155941D01*
X480510Y155915D01*
X480491Y155882D01*
X480458Y155843D01*
X480451Y155836D01*
X480425Y155816D01*
X480386Y155790D01*
X480340Y155770D01*
X480327Y155764D01*
X480294Y155751D01*
X480241Y155744D01*
X480176Y155738D01*
X474560D01*
X474554D01*
X474534D01*
X474514Y155744D01*
X474488Y155757D01*
X474482Y155764D01*
X474475Y155770D01*
X474462Y155797D01*
X474449Y155829D01*
Y155836D01*
X474442Y155862D01*
X474436Y155902D01*
X474423Y155954D01*
Y155967D01*
X474416Y156007D01*
X474409Y156066D01*
Y156217D01*
X474416Y156275D01*
X474423Y156341D01*
Y156354D01*
X474429Y156387D01*
X474442Y156426D01*
X474449Y156472D01*
Y156479D01*
X474462Y156499D01*
X474469Y156518D01*
X474488Y156538D01*
X474495D01*
X474508Y156544D01*
X474534Y156551D01*
X474560D01*
X479881D01*
Y156564D01*
X474534Y158716D01*
X474528D01*
X474514Y158722D01*
X474475Y158755D01*
Y158762D01*
X474462Y158775D01*
X474455Y158801D01*
X474442Y158834D01*
Y158841D01*
X474436Y158867D01*
X474429Y158906D01*
X474423Y158952D01*
Y158965D01*
X474416Y158998D01*
X474409Y159044D01*
Y159169D01*
X474416Y159221D01*
X474423Y159280D01*
Y159293D01*
X474429Y159319D01*
X474436Y159359D01*
X474442Y159398D01*
Y159405D01*
X474455Y159424D01*
X474462Y159451D01*
X474482Y159470D01*
X474488Y159477D01*
X474501Y159483D01*
X474534Y159510D01*
X479881Y161569D01*
X474560D01*
X474554D01*
X474534D01*
X474514Y161576D01*
X474488Y161589D01*
X474482Y161596D01*
X474475Y161602D01*
X474462Y161628D01*
X474449Y161661D01*
Y161668D01*
X474442Y161694D01*
X474436Y161733D01*
X474423Y161786D01*
Y161799D01*
X474416Y161819D01*
Y161838D01*
X474409Y161904D01*
Y162055D01*
X474416Y162114D01*
X474423Y162180D01*
Y162193D01*
X474429Y162225D01*
X474442Y162265D01*
X474449Y162304D01*
Y162311D01*
X474462Y162330D01*
X474469Y162350D01*
X474488Y162370D01*
X474495D01*
X474508Y162376D01*
X474534Y162383D01*
X474560D01*
X480176D01*
X480182D01*
X480208D01*
X480248Y162376D01*
D02*
G37*
G36*
X9738Y177914D02*
X9764Y177901D01*
X9770Y177894D01*
X9777Y177887D01*
X9790Y177861D01*
X9803Y177828D01*
Y177822D01*
X9810Y177796D01*
X9816Y177756D01*
X9829Y177704D01*
Y177691D01*
X9836Y177651D01*
X9843Y177592D01*
Y177441D01*
X9836Y177382D01*
X9829Y177317D01*
Y177304D01*
X9823Y177271D01*
X9810Y177232D01*
X9803Y177185D01*
Y177179D01*
X9790Y177159D01*
X9783Y177140D01*
X9764Y177120D01*
X9757D01*
X9744Y177113D01*
X9718Y177107D01*
X9692D01*
X4372D01*
Y177094D01*
X9718Y174942D01*
X9724D01*
X9738Y174935D01*
X9777Y174903D01*
Y174896D01*
X9790Y174883D01*
X9797Y174857D01*
X9810Y174824D01*
Y174817D01*
X9816Y174791D01*
X9823Y174752D01*
X9829Y174706D01*
Y174693D01*
X9836Y174660D01*
X9843Y174614D01*
Y174489D01*
X9836Y174437D01*
X9829Y174378D01*
Y174365D01*
X9823Y174338D01*
X9816Y174299D01*
X9810Y174260D01*
Y174253D01*
X9797Y174233D01*
X9790Y174207D01*
X9770Y174188D01*
X9764Y174181D01*
X9751Y174174D01*
X9718Y174148D01*
X4372Y172088D01*
X9692D01*
X9698D01*
X9718D01*
X9738Y172082D01*
X9764Y172069D01*
X9770Y172062D01*
X9777Y172056D01*
X9790Y172029D01*
X9803Y171997D01*
Y171990D01*
X9810Y171964D01*
X9816Y171924D01*
X9829Y171872D01*
Y171859D01*
X9836Y171839D01*
Y171819D01*
X9843Y171754D01*
Y171603D01*
X9836Y171544D01*
X9829Y171478D01*
Y171465D01*
X9823Y171432D01*
X9810Y171393D01*
X9803Y171354D01*
Y171347D01*
X9790Y171327D01*
X9783Y171308D01*
X9764Y171288D01*
X9757D01*
X9744Y171282D01*
X9718Y171275D01*
X9692D01*
X4076D01*
X4070D01*
X4044D01*
X4004Y171282D01*
X3965Y171288D01*
X3919Y171301D01*
X3866Y171321D01*
X3827Y171347D01*
X3788Y171380D01*
X3781Y171387D01*
X3774Y171400D01*
X3761Y171419D01*
X3742Y171446D01*
X3715Y171524D01*
X3709Y171564D01*
X3702Y171609D01*
Y172167D01*
X3709Y172206D01*
X3715Y172292D01*
X3735Y172377D01*
Y172384D01*
X3742Y172397D01*
X3748Y172416D01*
X3755Y172449D01*
X3788Y172515D01*
X3827Y172580D01*
Y172587D01*
X3840Y172593D01*
X3866Y172633D01*
X3919Y172679D01*
X3984Y172725D01*
X3991D01*
X3998Y172738D01*
X4017Y172744D01*
X4044Y172757D01*
X4116Y172797D01*
X4201Y172830D01*
X8629Y174575D01*
Y174601D01*
X4214Y176411D01*
X4208D01*
X4188Y176418D01*
X4168Y176431D01*
X4135Y176444D01*
X4057Y176484D01*
X3978Y176523D01*
X3971D01*
X3958Y176536D01*
X3919Y176562D01*
X3866Y176608D01*
X3814Y176661D01*
Y176667D01*
X3801Y176674D01*
X3781Y176713D01*
X3755Y176766D01*
X3729Y176831D01*
Y176838D01*
X3722Y176851D01*
Y176864D01*
X3715Y176890D01*
X3709Y176956D01*
X3702Y177041D01*
Y177612D01*
X3715Y177658D01*
X3729Y177704D01*
X3735Y177717D01*
X3742Y177743D01*
X3761Y177776D01*
X3794Y177815D01*
X3801Y177822D01*
X3827Y177841D01*
X3866Y177868D01*
X3912Y177887D01*
X3925Y177894D01*
X3958Y177907D01*
X4011Y177914D01*
X4076Y177920D01*
X9692D01*
X9698D01*
X9718D01*
X9738Y177914D01*
D02*
G37*
G36*
X5611Y170029D02*
X5657D01*
X5769Y170016D01*
X5893Y169996D01*
X6038Y169969D01*
X6176Y169930D01*
X6320Y169878D01*
X6326D01*
X6333Y169871D01*
X6353Y169865D01*
X6379Y169852D01*
X6451Y169812D01*
X6536Y169766D01*
X6635Y169707D01*
X6740Y169628D01*
X6845Y169543D01*
X6950Y169445D01*
X6963Y169432D01*
X6989Y169392D01*
X7035Y169333D01*
X7094Y169255D01*
X7159Y169156D01*
X7225Y169038D01*
X7291Y168907D01*
X7350Y168756D01*
Y168749D01*
X7356Y168736D01*
X7363Y168717D01*
X7369Y168684D01*
X7383Y168644D01*
X7396Y168598D01*
X7409Y168546D01*
X7415Y168480D01*
X7428Y168415D01*
X7442Y168336D01*
X7468Y168172D01*
X7481Y167982D01*
X7487Y167779D01*
Y167090D01*
X9692D01*
X9698D01*
X9718D01*
X9738Y167077D01*
X9764Y167063D01*
X9770Y167057D01*
X9777Y167050D01*
X9790Y167031D01*
X9803Y166998D01*
Y166991D01*
X9810Y166965D01*
X9816Y166926D01*
X9829Y166873D01*
Y166860D01*
X9836Y166821D01*
X9843Y166762D01*
Y166611D01*
X9836Y166545D01*
X9829Y166480D01*
Y166466D01*
X9823Y166440D01*
X9810Y166394D01*
X9803Y166355D01*
Y166348D01*
X9790Y166329D01*
X9783Y166309D01*
X9764Y166289D01*
X9757D01*
X9744Y166283D01*
X9718Y166276D01*
X9692D01*
X4057D01*
X4050D01*
X4024D01*
X3991Y166283D01*
X3952Y166289D01*
X3906Y166303D01*
X3860Y166316D01*
X3820Y166342D01*
X3788Y166375D01*
X3781Y166381D01*
X3774Y166394D01*
X3761Y166414D01*
X3742Y166440D01*
X3715Y166512D01*
X3709Y166552D01*
X3702Y166598D01*
Y168028D01*
X3709Y168080D01*
Y168146D01*
X3722Y168284D01*
Y168290D01*
X3729Y168316D01*
Y168356D01*
X3735Y168408D01*
X3748Y168467D01*
X3761Y168546D01*
X3774Y168625D01*
X3794Y168717D01*
Y168730D01*
X3807Y168763D01*
X3820Y168808D01*
X3840Y168874D01*
X3866Y168953D01*
X3899Y169038D01*
X3945Y169130D01*
X3998Y169222D01*
X4004Y169235D01*
X4024Y169268D01*
X4057Y169314D01*
X4096Y169373D01*
X4148Y169438D01*
X4214Y169510D01*
X4286Y169582D01*
X4365Y169655D01*
X4372Y169661D01*
X4404Y169687D01*
X4450Y169720D01*
X4509Y169760D01*
X4581Y169806D01*
X4667Y169852D01*
X4765Y169897D01*
X4870Y169937D01*
X4883Y169943D01*
X4916Y169950D01*
X4975Y169969D01*
X5054Y169989D01*
X5146Y170002D01*
X5251Y170022D01*
X5369Y170029D01*
X5493Y170035D01*
X5500D01*
X5513D01*
X5539D01*
X5572D01*
X5611Y170029D01*
D02*
G37*
G36*
X3880Y165286D02*
X3932Y165273D01*
X3998Y165246D01*
X9679Y163252D01*
X9685Y163245D01*
X9705Y163239D01*
X9731Y163219D01*
X9764Y163200D01*
X9770Y163193D01*
X9783Y163173D01*
X9797Y163147D01*
X9810Y163108D01*
Y163095D01*
X9816Y163068D01*
X9823Y163022D01*
X9829Y162957D01*
Y162944D01*
X9836Y162917D01*
Y162891D01*
X9843Y162819D01*
Y162603D01*
X9836Y162544D01*
Y162498D01*
X9829Y162452D01*
X9823Y162406D01*
Y162399D01*
X9816Y162373D01*
Y162347D01*
X9810Y162314D01*
Y162308D01*
X9803Y162288D01*
X9783Y162242D01*
X9777Y162235D01*
X9770Y162229D01*
X9738Y162196D01*
X9731D01*
X9718Y162189D01*
X9698Y162183D01*
X9672Y162170D01*
X3998Y160169D01*
X3991D01*
X3978Y160162D01*
X3938Y160149D01*
X3880Y160136D01*
X3827Y160129D01*
X3814D01*
X3788Y160136D01*
X3755Y160149D01*
X3729Y160169D01*
X3722Y160176D01*
X3709Y160202D01*
X3696Y160248D01*
X3689Y160307D01*
Y160326D01*
X3683Y160346D01*
Y160412D01*
X3676Y160458D01*
Y160641D01*
X3683Y160707D01*
X3689Y160772D01*
Y160785D01*
X3696Y160818D01*
X3702Y160858D01*
X3715Y160890D01*
Y160897D01*
X3729Y160917D01*
X3742Y160936D01*
X3761Y160956D01*
X3768Y160963D01*
X3781Y160969D01*
X3807Y160982D01*
X3840Y160995D01*
X8983Y162753D01*
Y162760D01*
X3847Y164466D01*
X3840D01*
X3814Y164472D01*
X3788Y164485D01*
X3761Y164492D01*
X3755Y164498D01*
X3742Y164505D01*
X3729Y164531D01*
X3715Y164558D01*
X3709Y164564D01*
X3702Y164597D01*
X3696Y164636D01*
X3689Y164695D01*
Y164708D01*
X3683Y164728D01*
Y164754D01*
X3676Y164827D01*
Y165004D01*
X3683Y165082D01*
X3689Y165155D01*
Y165168D01*
X3702Y165200D01*
X3715Y165240D01*
X3735Y165266D01*
X3742Y165273D01*
X3761Y165279D01*
X3788Y165292D01*
X3834D01*
X3847D01*
X3880Y165286D01*
D02*
G37*
G36*
X9738Y159152D02*
X9764Y159139D01*
X9770Y159132D01*
X9777Y159126D01*
X9790Y159100D01*
X9803Y159067D01*
Y159060D01*
X9810Y159034D01*
X9816Y158995D01*
X9829Y158942D01*
Y158929D01*
X9836Y158890D01*
X9843Y158831D01*
Y158686D01*
X9836Y158621D01*
X9829Y158555D01*
Y158542D01*
X9823Y158516D01*
X9810Y158470D01*
X9803Y158431D01*
Y158424D01*
X9790Y158404D01*
X9783Y158385D01*
X9764Y158365D01*
X9757D01*
X9744Y158358D01*
X9718Y158352D01*
X9692D01*
X6982D01*
Y155570D01*
X9692D01*
X9698D01*
X9718D01*
X9738Y155564D01*
X9764Y155551D01*
X9770Y155544D01*
X9777Y155537D01*
X9790Y155511D01*
X9803Y155479D01*
Y155472D01*
X9810Y155446D01*
X9816Y155406D01*
X9829Y155354D01*
Y155341D01*
X9836Y155301D01*
X9843Y155242D01*
Y155098D01*
X9836Y155032D01*
X9829Y154967D01*
Y154954D01*
X9823Y154921D01*
X9810Y154882D01*
X9803Y154836D01*
Y154829D01*
X9790Y154809D01*
X9783Y154790D01*
X9764Y154770D01*
X9757D01*
X9744Y154763D01*
X9718Y154757D01*
X9692D01*
X3834D01*
X3827D01*
X3807D01*
X3768Y154770D01*
X3761Y154777D01*
X3748Y154783D01*
X3735Y154809D01*
X3722Y154836D01*
X3715Y154842D01*
X3709Y154875D01*
X3702Y154914D01*
X3689Y154967D01*
Y154980D01*
X3683Y155019D01*
X3676Y155085D01*
Y155229D01*
X3683Y155295D01*
X3689Y155354D01*
Y155367D01*
X3696Y155400D01*
X3709Y155439D01*
X3722Y155479D01*
Y155485D01*
X3735Y155505D01*
X3748Y155531D01*
X3768Y155551D01*
X3774Y155557D01*
X3788Y155564D01*
X3807Y155570D01*
X3834D01*
X6274D01*
Y158352D01*
X3834D01*
X3827D01*
X3807D01*
X3768Y158365D01*
X3761Y158371D01*
X3748Y158378D01*
X3735Y158404D01*
X3722Y158431D01*
X3715Y158437D01*
X3709Y158463D01*
X3702Y158503D01*
X3689Y158555D01*
Y158568D01*
X3683Y158608D01*
X3676Y158673D01*
Y158818D01*
X3683Y158883D01*
X3689Y158942D01*
Y158955D01*
X3696Y158988D01*
X3709Y159028D01*
X3722Y159067D01*
Y159073D01*
X3735Y159093D01*
X3748Y159119D01*
X3768Y159139D01*
X3774Y159145D01*
X3788Y159152D01*
X3807Y159159D01*
X3834D01*
X9692D01*
X9698D01*
X9718D01*
X9738Y159152D01*
D02*
G37*
%LPC*%
G36*
X479881Y166568D02*
X477434D01*
Y165774D01*
X477440Y165709D01*
X477447Y165623D01*
X477453Y165525D01*
X477473Y165420D01*
X477493Y165322D01*
X477526Y165223D01*
X477532Y165210D01*
X477545Y165184D01*
X477565Y165138D01*
X477591Y165079D01*
X477630Y165020D01*
X477670Y164948D01*
X477722Y164882D01*
X477781Y164817D01*
X477788Y164810D01*
X477814Y164790D01*
X477847Y164758D01*
X477893Y164718D01*
X477952Y164679D01*
X478024Y164639D01*
X478096Y164594D01*
X478182Y164561D01*
X478195Y164554D01*
X478221Y164548D01*
X478273Y164535D01*
X478332Y164515D01*
X478411Y164502D01*
X478496Y164489D01*
X478595Y164482D01*
X478693Y164476D01*
X478700D01*
X478713D01*
X478732D01*
X478759D01*
X478824Y164482D01*
X478910Y164495D01*
X479008Y164508D01*
X479113Y164535D01*
X479218Y164574D01*
X479316Y164620D01*
X479329Y164626D01*
X479356Y164646D01*
X479402Y164672D01*
X479454Y164712D01*
X479513Y164764D01*
X479579Y164823D01*
X479631Y164895D01*
X479684Y164968D01*
X479690Y164974D01*
X479703Y165000D01*
X479723Y165046D01*
X479749Y165099D01*
X479775Y165158D01*
X479802Y165230D01*
X479828Y165309D01*
X479841Y165394D01*
Y165401D01*
X479848Y165433D01*
X479854Y165473D01*
X479861Y165525D01*
X479867Y165591D01*
X479874Y165663D01*
X479881Y165820D01*
Y166568D01*
D02*
G37*
G36*
X5559Y169182D02*
X5552D01*
X5539D01*
X5520D01*
X5493D01*
X5428Y169176D01*
X5342Y169163D01*
X5244Y169149D01*
X5139Y169123D01*
X5034Y169084D01*
X4936Y169038D01*
X4922Y169032D01*
X4896Y169012D01*
X4850Y168985D01*
X4798Y168946D01*
X4739Y168894D01*
X4673Y168835D01*
X4621Y168763D01*
X4568Y168690D01*
X4562Y168684D01*
X4549Y168658D01*
X4529Y168612D01*
X4503Y168559D01*
X4476Y168500D01*
X4450Y168428D01*
X4424Y168349D01*
X4411Y168264D01*
Y168257D01*
X4404Y168225D01*
X4398Y168185D01*
X4391Y168133D01*
X4385Y168067D01*
X4378Y167995D01*
X4372Y167838D01*
Y167090D01*
X6818D01*
Y167884D01*
X6812Y167949D01*
X6805Y168034D01*
X6799Y168133D01*
X6779Y168238D01*
X6759Y168336D01*
X6726Y168435D01*
X6720Y168448D01*
X6707Y168474D01*
X6687Y168520D01*
X6661Y168579D01*
X6622Y168638D01*
X6582Y168710D01*
X6530Y168776D01*
X6471Y168841D01*
X6464Y168848D01*
X6438Y168868D01*
X6405Y168900D01*
X6359Y168940D01*
X6300Y168979D01*
X6228Y169018D01*
X6156Y169064D01*
X6070Y169097D01*
X6057Y169104D01*
X6031Y169110D01*
X5979Y169123D01*
X5920Y169143D01*
X5841Y169156D01*
X5756Y169169D01*
X5657Y169176D01*
X5559Y169182D01*
D02*
G37*
%LPD*%
D49*
X152559Y203937D02*
D03*
Y128740D02*
D03*
D54*
X218504Y196850D02*
D03*
X220472D02*
D03*
X222441D02*
D03*
X224410D02*
D03*
X226378D02*
D03*
X228346D02*
D03*
X230315D02*
D03*
X232283D02*
D03*
X234252D02*
D03*
X236221D02*
D03*
X238189D02*
D03*
X240158D02*
D03*
X242126D02*
D03*
X244094D02*
D03*
X246063D02*
D03*
X248031D02*
D03*
X250000D02*
D03*
X251969D02*
D03*
X253937D02*
D03*
X255906D02*
D03*
X257874D02*
D03*
X259842D02*
D03*
X261811D02*
D03*
X263779D02*
D03*
X265748D02*
D03*
Y135827D02*
D03*
X263779D02*
D03*
X261811D02*
D03*
X259842D02*
D03*
X257874D02*
D03*
X255906D02*
D03*
X253937D02*
D03*
X251969D02*
D03*
X250000D02*
D03*
X248031D02*
D03*
X246063D02*
D03*
X244094D02*
D03*
X242126D02*
D03*
X240158D02*
D03*
X238189D02*
D03*
X236221D02*
D03*
X234252D02*
D03*
X232283D02*
D03*
X230315D02*
D03*
X228346D02*
D03*
X226378D02*
D03*
X224410D02*
D03*
X222441D02*
D03*
X220472D02*
D03*
X218504D02*
D03*
D55*
X272638Y189961D02*
D03*
Y187992D02*
D03*
Y186024D02*
D03*
Y184055D02*
D03*
Y182087D02*
D03*
Y180118D02*
D03*
Y178150D02*
D03*
Y176181D02*
D03*
Y174213D02*
D03*
Y172244D02*
D03*
Y170276D02*
D03*
Y168307D02*
D03*
Y166339D02*
D03*
Y164370D02*
D03*
Y162402D02*
D03*
Y160433D02*
D03*
Y158465D02*
D03*
Y156496D02*
D03*
Y154528D02*
D03*
Y152559D02*
D03*
Y150591D02*
D03*
Y148622D02*
D03*
Y146653D02*
D03*
Y144685D02*
D03*
Y142717D02*
D03*
X211614D02*
D03*
Y144685D02*
D03*
Y146653D02*
D03*
Y148622D02*
D03*
Y150591D02*
D03*
Y152559D02*
D03*
Y154528D02*
D03*
Y156496D02*
D03*
Y158465D02*
D03*
Y160433D02*
D03*
Y162402D02*
D03*
Y164370D02*
D03*
Y166339D02*
D03*
Y168307D02*
D03*
Y170276D02*
D03*
Y172244D02*
D03*
Y174213D02*
D03*
Y176181D02*
D03*
Y178150D02*
D03*
Y180118D02*
D03*
Y182087D02*
D03*
Y184055D02*
D03*
Y186024D02*
D03*
Y187992D02*
D03*
Y189961D02*
D03*
D56*
X331693Y209252D02*
D03*
Y202953D02*
D03*
X337598Y209252D02*
D03*
Y202953D02*
D03*
X325787Y209252D02*
D03*
Y202953D02*
D03*
X164567Y224803D02*
D03*
Y218504D02*
D03*
X318898Y103543D02*
D03*
Y97244D02*
D03*
X325787Y240748D02*
D03*
Y234449D02*
D03*
X337598Y240748D02*
D03*
Y234449D02*
D03*
X331693Y240748D02*
D03*
Y234449D02*
D03*
D57*
X331693Y223819D02*
D03*
X334252Y215945D02*
D03*
X329134D02*
D03*
X342520Y223819D02*
D03*
X345079Y215945D02*
D03*
X339961D02*
D03*
X320866Y223819D02*
D03*
X323425Y215945D02*
D03*
X318307D02*
D03*
D58*
X348433Y171236D02*
D03*
Y176748D02*
D03*
X133268Y170571D02*
D03*
Y165059D02*
D03*
X134646Y89567D02*
D03*
Y95079D02*
D03*
X347933Y236417D02*
D03*
Y241929D02*
D03*
X321260Y255118D02*
D03*
Y249606D02*
D03*
X187008Y87008D02*
D03*
Y92520D02*
D03*
X192226Y109355D02*
D03*
Y114867D02*
D03*
X175197Y241929D02*
D03*
Y247441D02*
D03*
Y231299D02*
D03*
Y236811D02*
D03*
Y220669D02*
D03*
Y226181D02*
D03*
X175296Y257977D02*
D03*
Y252465D02*
D03*
X175197Y191339D02*
D03*
Y196850D02*
D03*
X301969Y81496D02*
D03*
Y87008D02*
D03*
X265748Y121260D02*
D03*
Y126772D02*
D03*
X230315Y121260D02*
D03*
Y126772D02*
D03*
X222244Y126772D02*
D03*
Y121260D02*
D03*
X204528Y121457D02*
D03*
Y126969D02*
D03*
X259842Y121260D02*
D03*
Y126772D02*
D03*
X201969Y205118D02*
D03*
Y210630D02*
D03*
D59*
X233366Y99016D02*
D03*
X238878D02*
D03*
X234252Y256201D02*
D03*
X228740D02*
D03*
X311811Y240551D02*
D03*
X306299D02*
D03*
X181003Y85921D02*
D03*
X175491D02*
D03*
X281890Y181496D02*
D03*
X287402D02*
D03*
X175394Y117520D02*
D03*
X180905D02*
D03*
X195079Y187992D02*
D03*
X200591D02*
D03*
X195079Y182087D02*
D03*
X200591D02*
D03*
X195079Y176181D02*
D03*
X200591D02*
D03*
X287402Y187008D02*
D03*
X281890D02*
D03*
X287402Y192913D02*
D03*
X281890D02*
D03*
X195079Y146653D02*
D03*
X200591D02*
D03*
D60*
X307283Y252165D02*
D03*
Y250197D02*
D03*
Y248228D02*
D03*
Y246260D02*
D03*
X316339D02*
D03*
Y248228D02*
D03*
Y250197D02*
D03*
Y252165D02*
D03*
D61*
X309842Y245669D02*
D03*
X311811D02*
D03*
X313779D02*
D03*
Y252756D02*
D03*
X311811D02*
D03*
X309842D02*
D03*
D62*
X298819Y234646D02*
D03*
Y246457D02*
D03*
D63*
X178347Y101181D02*
D03*
D64*
X182185Y109941D02*
D03*
Y92421D02*
D03*
X179626Y109941D02*
D03*
X177067D02*
D03*
X179626Y92421D02*
D03*
X177067D02*
D03*
X174508D02*
D03*
Y109941D02*
D03*
D65*
X173819Y215256D02*
D03*
X181299Y203642D02*
D03*
X173819D02*
D03*
X181299Y215256D02*
D03*
X177559Y203642D02*
D03*
D66*
X192520Y104134D02*
D03*
Y98228D02*
D03*
X187008D02*
D03*
Y104134D02*
D03*
X187108Y115064D02*
D03*
Y109158D02*
D03*
X170079Y110039D02*
D03*
Y115945D02*
D03*
X169685Y98228D02*
D03*
Y104134D02*
D03*
X180415Y258174D02*
D03*
Y252268D02*
D03*
X180315Y241732D02*
D03*
Y247638D02*
D03*
Y237008D02*
D03*
Y231102D02*
D03*
Y226378D02*
D03*
Y220472D02*
D03*
Y191142D02*
D03*
Y197047D02*
D03*
X213386Y210827D02*
D03*
Y204921D02*
D03*
X219291Y210827D02*
D03*
Y204921D02*
D03*
X207480Y210827D02*
D03*
Y204921D02*
D03*
D67*
X153295Y251299D02*
D03*
Y242283D02*
D03*
Y233268D02*
D03*
Y224252D02*
D03*
Y215236D02*
D03*
X144279Y251299D02*
D03*
Y242283D02*
D03*
Y233268D02*
D03*
Y224252D02*
D03*
Y215236D02*
D03*
X135263Y251299D02*
D03*
Y242283D02*
D03*
Y233268D02*
D03*
Y224252D02*
D03*
Y215236D02*
D03*
X126247Y251299D02*
D03*
Y242283D02*
D03*
Y233268D02*
D03*
Y224252D02*
D03*
Y215236D02*
D03*
X117232Y251299D02*
D03*
Y242283D02*
D03*
Y233268D02*
D03*
Y224252D02*
D03*
Y215236D02*
D03*
D68*
X141929Y194882D02*
D03*
Y192913D02*
D03*
Y190945D02*
D03*
Y188976D02*
D03*
Y187008D02*
D03*
Y185039D02*
D03*
Y183071D02*
D03*
Y181102D02*
D03*
Y179134D02*
D03*
Y177165D02*
D03*
Y175197D02*
D03*
Y173228D02*
D03*
Y171260D02*
D03*
Y169291D02*
D03*
Y167323D02*
D03*
Y165354D02*
D03*
Y163386D02*
D03*
Y161417D02*
D03*
Y159449D02*
D03*
Y157480D02*
D03*
Y155512D02*
D03*
Y153543D02*
D03*
Y151575D02*
D03*
Y149606D02*
D03*
Y147638D02*
D03*
Y145669D02*
D03*
Y143701D02*
D03*
Y141732D02*
D03*
Y139764D02*
D03*
Y137795D02*
D03*
D69*
X164567Y230512D02*
D03*
Y236417D02*
D03*
X318898Y86417D02*
D03*
Y92323D02*
D03*
D70*
X127165Y261811D02*
D03*
X115354D02*
D03*
X356299Y73228D02*
D03*
X368110D02*
D03*
D71*
X114042Y195866D02*
D03*
X136484D02*
D03*
X369488Y141732D02*
D03*
X347047D02*
D03*
D72*
X210827Y127362D02*
D03*
Y120669D02*
D03*
X215945D02*
D03*
Y127362D02*
D03*
D73*
X200984Y152559D02*
D03*
X194685D02*
D03*
X200984Y170276D02*
D03*
X194685D02*
D03*
Y158465D02*
D03*
X200984D02*
D03*
X194685Y164370D02*
D03*
X200984D02*
D03*
D74*
X366614Y86299D02*
D03*
X357598D02*
D03*
X348583D02*
D03*
X339567D02*
D03*
X330551D02*
D03*
X366614Y95315D02*
D03*
X357598D02*
D03*
X348583D02*
D03*
X339567D02*
D03*
X330551D02*
D03*
X366614Y104331D02*
D03*
X357598D02*
D03*
X348583D02*
D03*
X339567D02*
D03*
X330551D02*
D03*
X366614Y113347D02*
D03*
X357598D02*
D03*
X348583D02*
D03*
X339567D02*
D03*
X330551D02*
D03*
X366614Y122362D02*
D03*
X357598D02*
D03*
X348583D02*
D03*
X339567D02*
D03*
X330551D02*
D03*
D75*
X331693Y251378D02*
D03*
D76*
X335433Y247445D02*
D03*
X327953D02*
D03*
D77*
X331693Y246854D02*
D03*
D78*
X327953Y256004D02*
D03*
X335433D02*
D03*
D79*
X331693D02*
D03*
D80*
Y253150D02*
D03*
D81*
X283417Y173642D02*
D03*
Y168642D02*
D03*
Y163642D02*
D03*
Y158642D02*
D03*
X304772D02*
D03*
Y163642D02*
D03*
Y168642D02*
D03*
Y173642D02*
D03*
D82*
X166779Y123327D02*
D03*
Y125886D02*
D03*
Y128445D02*
D03*
Y131004D02*
D03*
Y133563D02*
D03*
Y136122D02*
D03*
Y138681D02*
D03*
Y141240D02*
D03*
X189913D02*
D03*
Y138681D02*
D03*
Y136122D02*
D03*
Y133563D02*
D03*
Y131004D02*
D03*
Y128445D02*
D03*
Y125886D02*
D03*
Y123327D02*
D03*
D83*
X295197Y111811D02*
D03*
X290197D02*
D03*
X285197D02*
D03*
X280197D02*
D03*
X275197D02*
D03*
X270197D02*
D03*
X265197D02*
D03*
X260197D02*
D03*
Y74709D02*
D03*
X265197D02*
D03*
X270197D02*
D03*
X275197D02*
D03*
X280197D02*
D03*
X285197D02*
D03*
X290197D02*
D03*
X295197D02*
D03*
D84*
X466535Y156496D02*
D03*
Y176181D02*
D03*
X17717D02*
D03*
Y156496D02*
D03*
D85*
X174409Y160630D02*
D03*
X180709D02*
D03*
D86*
X183071Y181890D02*
D03*
X172047D02*
D03*
Y172047D02*
D03*
X183071D02*
D03*
Y150000D02*
D03*
X172047D02*
D03*
D87*
X253150Y127165D02*
D03*
Y120866D02*
D03*
D88*
X219488Y251969D02*
D03*
Y228346D02*
D03*
X201772Y251969D02*
D03*
Y228346D02*
D03*
X217520Y104331D02*
D03*
Y80709D02*
D03*
X199803Y104331D02*
D03*
Y80709D02*
D03*
D89*
X122047Y145866D02*
D03*
X124016D02*
D03*
X125984D02*
D03*
X127953D02*
D03*
X129921D02*
D03*
Y163189D02*
D03*
X127953D02*
D03*
X125984D02*
D03*
X124016D02*
D03*
X122047D02*
D03*
Y80905D02*
D03*
X124016D02*
D03*
X125984D02*
D03*
X127953D02*
D03*
X129921D02*
D03*
Y98228D02*
D03*
X127953D02*
D03*
X125984D02*
D03*
X124016D02*
D03*
X122047D02*
D03*
X361713Y253740D02*
D03*
X359744D02*
D03*
X357776D02*
D03*
X355807D02*
D03*
X353839D02*
D03*
Y236417D02*
D03*
X355807D02*
D03*
X357776D02*
D03*
X359744D02*
D03*
X361713D02*
D03*
X362008Y171457D02*
D03*
X360039D02*
D03*
X358071D02*
D03*
X356102D02*
D03*
X354134D02*
D03*
Y188779D02*
D03*
X356102D02*
D03*
X358071D02*
D03*
X360039D02*
D03*
X362008D02*
D03*
D90*
X233465Y244094D02*
D03*
Y246063D02*
D03*
Y248031D02*
D03*
Y250000D02*
D03*
Y251969D02*
D03*
X250787D02*
D03*
Y250000D02*
D03*
Y248031D02*
D03*
Y246063D02*
D03*
Y244094D02*
D03*
X233465Y86811D02*
D03*
Y88779D02*
D03*
Y90748D02*
D03*
Y92716D02*
D03*
Y94685D02*
D03*
X250787D02*
D03*
Y92716D02*
D03*
Y90748D02*
D03*
Y88779D02*
D03*
Y86811D02*
D03*
D91*
X257126Y227697D02*
D03*
Y211673D02*
D03*
X252126Y227697D02*
D03*
Y211673D02*
D03*
X247126Y227697D02*
D03*
Y211673D02*
D03*
X242126Y227697D02*
D03*
Y211673D02*
D03*
X237126Y227697D02*
D03*
Y211673D02*
D03*
X232126Y227697D02*
D03*
Y211673D02*
D03*
X227126Y227697D02*
D03*
Y211673D02*
D03*
D92*
X339469Y147638D02*
D03*
X323917D02*
D03*
X339469Y149606D02*
D03*
X323917D02*
D03*
X339469Y151575D02*
D03*
X323917D02*
D03*
X339469Y153543D02*
D03*
X323917D02*
D03*
X339469Y155512D02*
D03*
X323917D02*
D03*
X339469Y157480D02*
D03*
X323917D02*
D03*
X339469Y159449D02*
D03*
X323917D02*
D03*
X339469Y161417D02*
D03*
X323917D02*
D03*
X339469Y163386D02*
D03*
X323917D02*
D03*
X339469Y165354D02*
D03*
X323917D02*
D03*
X339469Y167323D02*
D03*
X323917D02*
D03*
X339469Y169291D02*
D03*
X323917D02*
D03*
X339469Y171260D02*
D03*
X323917D02*
D03*
X339469Y173228D02*
D03*
X323917D02*
D03*
X339469Y175197D02*
D03*
X323917D02*
D03*
X339469Y177165D02*
D03*
X323917D02*
D03*
X339469Y179134D02*
D03*
X323917D02*
D03*
X339469Y181102D02*
D03*
X323917D02*
D03*
X339469Y183071D02*
D03*
X323917D02*
D03*
X339469Y185039D02*
D03*
X323917D02*
D03*
D93*
X163779Y75000D02*
D03*
Y79921D02*
D03*
Y84842D02*
D03*
X353839Y209449D02*
D03*
Y214370D02*
D03*
Y219291D02*
D03*
X296654Y200394D02*
D03*
X291732D02*
D03*
X286811D02*
D03*
X291535Y149606D02*
D03*
X296457D02*
D03*
X301378D02*
D03*
D94*
X163779Y89764D02*
D03*
X353839Y204528D02*
D03*
D95*
X301575Y200394D02*
D03*
X286614Y149606D02*
D03*
D96*
X425197Y186221D02*
D03*
X435039D02*
D03*
X444882D02*
D03*
X454724D02*
D03*
X425197Y174409D02*
D03*
X435039D02*
D03*
X444882D02*
D03*
X454724D02*
D03*
X435039Y251181D02*
D03*
X444882D02*
D03*
X454724D02*
D03*
X444882Y239370D02*
D03*
X454724D02*
D03*
X444882Y229528D02*
D03*
X454724D02*
D03*
X444882Y217717D02*
D03*
X454724D02*
D03*
X444882Y207874D02*
D03*
X454724D02*
D03*
X444882Y196063D02*
D03*
X454724D02*
D03*
X425197Y251181D02*
D03*
Y239370D02*
D03*
Y229528D02*
D03*
Y217717D02*
D03*
Y207874D02*
D03*
Y196063D02*
D03*
X435039D02*
D03*
Y239370D02*
D03*
Y229528D02*
D03*
Y217717D02*
D03*
Y207874D02*
D03*
X438779Y154016D02*
D03*
X448779D02*
D03*
X428780D02*
D03*
Y144016D02*
D03*
X438779D02*
D03*
X448779D02*
D03*
X428780Y134016D02*
D03*
X438779D02*
D03*
X448779D02*
D03*
X428780Y124016D02*
D03*
X438779D02*
D03*
X448779D02*
D03*
X428780Y114016D02*
D03*
X438779D02*
D03*
X448779D02*
D03*
X428780Y104016D02*
D03*
X438779D02*
D03*
X448779D02*
D03*
X428780Y94016D02*
D03*
X438779D02*
D03*
X448779D02*
D03*
X428780Y84016D02*
D03*
X438779D02*
D03*
X448779D02*
D03*
X59055Y148228D02*
D03*
X49213D02*
D03*
X39370D02*
D03*
X29528D02*
D03*
X59055Y160039D02*
D03*
X49213D02*
D03*
X39370D02*
D03*
X29528D02*
D03*
X49213Y83268D02*
D03*
X39370D02*
D03*
X29528D02*
D03*
X39370Y95079D02*
D03*
X29528D02*
D03*
X39370Y104921D02*
D03*
X29528D02*
D03*
X39370Y116732D02*
D03*
X29528D02*
D03*
X39370Y126575D02*
D03*
X29528D02*
D03*
X39370Y138386D02*
D03*
X29528D02*
D03*
X59055Y83268D02*
D03*
Y95079D02*
D03*
Y104921D02*
D03*
Y116732D02*
D03*
Y126575D02*
D03*
Y138386D02*
D03*
X49213D02*
D03*
Y95079D02*
D03*
Y104921D02*
D03*
Y116732D02*
D03*
Y126575D02*
D03*
X45472Y180433D02*
D03*
X35472D02*
D03*
X55472D02*
D03*
Y190433D02*
D03*
X45472D02*
D03*
X35472D02*
D03*
X55472Y200433D02*
D03*
X45472D02*
D03*
X35472D02*
D03*
X55472Y210433D02*
D03*
X45472D02*
D03*
X35472D02*
D03*
X55472Y220433D02*
D03*
X45472D02*
D03*
X35472D02*
D03*
X55472Y230433D02*
D03*
X45472D02*
D03*
X35472D02*
D03*
X55472Y240433D02*
D03*
X45472D02*
D03*
X35472D02*
D03*
X55472Y250433D02*
D03*
X45472D02*
D03*
X35472D02*
D03*
D97*
X227953Y271654D02*
D03*
X256299D02*
D03*
Y61024D02*
D03*
X227953D02*
D03*
D98*
X268701Y295276D02*
D03*
X215551D02*
D03*
Y37402D02*
D03*
X268701D02*
D03*
D99*
X326693Y139139D02*
D03*
X326193Y193539D02*
D03*
D100*
X127953Y10827D02*
D03*
Y321850D02*
D03*
X182087D02*
D03*
X182087Y10827D02*
D03*
X356299Y321850D02*
D03*
X356299Y10827D02*
D03*
X302165Y321850D02*
D03*
X302165Y10827D02*
D03*
D101*
X146653Y21654D02*
D03*
Y40157D02*
D03*
X109252Y21654D02*
D03*
Y40157D02*
D03*
Y311024D02*
D03*
Y292520D02*
D03*
X146653Y311024D02*
D03*
Y292520D02*
D03*
X163386Y311024D02*
D03*
Y292520D02*
D03*
X200787Y311024D02*
D03*
Y292520D02*
D03*
X200787Y21654D02*
D03*
Y40157D02*
D03*
X163386Y21654D02*
D03*
Y40157D02*
D03*
X337598Y311024D02*
D03*
Y292520D02*
D03*
X375000Y311024D02*
D03*
Y292520D02*
D03*
X375000Y21654D02*
D03*
Y40157D02*
D03*
X337598Y21654D02*
D03*
Y40157D02*
D03*
X283465Y311024D02*
D03*
Y292520D02*
D03*
X320866Y311024D02*
D03*
Y292520D02*
D03*
X320866Y21654D02*
D03*
Y40157D02*
D03*
X283465Y21654D02*
D03*
Y40157D02*
D03*
D102*
X127953Y23622D02*
D03*
Y309055D02*
D03*
X182087D02*
D03*
X182087Y23622D02*
D03*
X356299Y309055D02*
D03*
X356299Y23622D02*
D03*
X302165Y309055D02*
D03*
X302165Y23622D02*
D03*
D103*
X127953Y47244D02*
D03*
Y285433D02*
D03*
X182087D02*
D03*
X182087Y47244D02*
D03*
X356299Y285433D02*
D03*
X356299Y47244D02*
D03*
X302165Y285433D02*
D03*
X302165Y47244D02*
D03*
D104*
X321260Y130315D02*
D03*
X180315Y99213D02*
D03*
X176378D02*
D03*
X178347Y102756D02*
D03*
X148425Y84252D02*
D03*
X168110Y74016D02*
D03*
Y77559D02*
D03*
X159055Y77165D02*
D03*
Y81102D02*
D03*
Y85039D02*
D03*
X160236Y133071D02*
D03*
X160433Y197835D02*
D03*
Y189961D02*
D03*
X205118Y156299D02*
D03*
X204331Y131496D02*
D03*
X208661Y131890D02*
D03*
X222441Y131496D02*
D03*
X226378Y127953D02*
D03*
X141732Y134843D02*
D03*
X213386Y132283D02*
D03*
X218110Y131496D02*
D03*
X204724Y102756D02*
D03*
X200787D02*
D03*
X229921Y121260D02*
D03*
X208661Y136811D02*
D03*
X222441Y116142D02*
D03*
X218110D02*
D03*
X206299Y152362D02*
D03*
X213386Y114961D02*
D03*
X261024Y209842D02*
D03*
X126250Y169783D02*
D03*
X120276Y169783D02*
D03*
X125515Y104406D02*
D03*
X120480Y104342D02*
D03*
X105413Y76772D02*
D03*
X363386Y229921D02*
D03*
X358268Y229942D02*
D03*
X359055Y165354D02*
D03*
X363189D02*
D03*
X339075Y256299D02*
D03*
X160433Y213583D02*
D03*
X324803Y105709D02*
D03*
X212992Y94488D02*
D03*
X209055Y96850D02*
D03*
X222260Y90251D02*
D03*
X205118Y99213D02*
D03*
X316929Y255118D02*
D03*
X274449Y257835D02*
D03*
X281323Y256079D02*
D03*
X277461Y266634D02*
D03*
X277362Y262697D02*
D03*
X270768Y262500D02*
D03*
X261611Y255121D02*
D03*
X270768Y267618D02*
D03*
X277714Y275394D02*
D03*
X277615Y271457D02*
D03*
X271260Y248031D02*
D03*
X258268Y244213D02*
D03*
X227362Y247146D02*
D03*
X271260Y242815D02*
D03*
X270669Y256890D02*
D03*
X258268Y248031D02*
D03*
X345768Y159547D02*
D03*
X227362Y243110D02*
D03*
X324803Y82087D02*
D03*
Y89961D02*
D03*
Y97835D02*
D03*
Y121457D02*
D03*
Y113583D02*
D03*
X160433Y245079D02*
D03*
Y237205D02*
D03*
X150591Y245079D02*
D03*
Y221457D02*
D03*
X160433D02*
D03*
X150591Y213583D02*
D03*
X160433Y205709D02*
D03*
X260236Y91535D02*
D03*
X254921Y97342D02*
D03*
X264961Y91535D02*
D03*
X263386Y102362D02*
D03*
X268110D02*
D03*
X227854Y86122D02*
D03*
Y89735D02*
D03*
X155636Y87953D02*
D03*
X152953Y84941D02*
D03*
X127953Y137795D02*
D03*
X158427Y117558D02*
D03*
X127953Y132874D02*
D03*
Y127953D02*
D03*
X343701Y130709D02*
D03*
X338976D02*
D03*
X334646D02*
D03*
X151969Y111417D02*
D03*
X152756Y116929D02*
D03*
X166929Y258268D02*
D03*
X164961Y98425D02*
D03*
X189269Y184747D02*
D03*
X189370Y193701D02*
D03*
X150565Y144266D02*
D03*
X153040Y137795D02*
D03*
X278346Y165354D02*
D03*
Y173622D02*
D03*
Y169291D02*
D03*
X278740Y135039D02*
D03*
X275197Y138583D02*
D03*
X274803Y104675D02*
D03*
X200787Y98425D02*
D03*
X205906Y77953D02*
D03*
X277165Y96063D02*
D03*
X279999Y120079D02*
D03*
X274420Y123640D02*
D03*
X302362Y239764D02*
D03*
X279528Y238189D02*
D03*
X308661Y228740D02*
D03*
X311811Y249213D02*
D03*
X149606Y172047D02*
D03*
X150591Y176181D02*
D03*
X160433Y169291D02*
D03*
X274016Y234252D02*
D03*
X271260Y231496D02*
D03*
X270866Y236221D02*
D03*
X281496Y153150D02*
D03*
X278543Y150591D02*
D03*
Y155512D02*
D03*
X160433Y179134D02*
D03*
Y174213D02*
D03*
X153746Y97829D02*
D03*
X164961Y102362D02*
D03*
X217520Y148622D02*
D03*
X217520Y154528D02*
D03*
X217520Y184055D02*
D03*
X217520Y178150D02*
D03*
X217520Y160433D02*
D03*
X217520Y166339D02*
D03*
X194882Y119291D02*
D03*
X150591Y197835D02*
D03*
X335039Y198425D02*
D03*
X170866Y85827D02*
D03*
X209055Y87402D02*
D03*
X205512Y84646D02*
D03*
X277953Y212513D02*
D03*
X281151Y214961D02*
D03*
X278120Y217319D02*
D03*
X277559Y201181D02*
D03*
X277440Y126792D02*
D03*
X155512Y66142D02*
D03*
X155315Y107779D02*
D03*
X226378Y123622D02*
D03*
Y119291D02*
D03*
X208661Y116142D02*
D03*
X204331D02*
D03*
X229921Y126772D02*
D03*
X200394Y127953D02*
D03*
Y123622D02*
D03*
Y119291D02*
D03*
X277165Y192520D02*
D03*
X268110Y183891D02*
D03*
X223425Y191929D02*
D03*
X127953Y118110D02*
D03*
Y123031D02*
D03*
X339567Y194882D02*
D03*
X326772Y220472D02*
D03*
X336614D02*
D03*
Y224410D02*
D03*
X326772D02*
D03*
X197835Y140748D02*
D03*
X188976Y155512D02*
D03*
Y167323D02*
D03*
Y173228D02*
D03*
Y179134D02*
D03*
X281890Y181496D02*
D03*
X274606Y130905D02*
D03*
X224410Y77756D02*
D03*
X211614D02*
D03*
X277559Y83661D02*
D03*
X273622Y87598D02*
D03*
X269685Y91535D02*
D03*
X280512Y92520D02*
D03*
X273622Y205709D02*
D03*
X279528Y228346D02*
D03*
Y233268D02*
D03*
X206693Y255906D02*
D03*
X211614D02*
D03*
X208661Y224410D02*
D03*
X212598Y232283D02*
D03*
X207677D02*
D03*
X214567Y241142D02*
D03*
X209646D02*
D03*
X204724D02*
D03*
X261811Y151575D02*
D03*
X261811Y157480D02*
D03*
X261811Y163386D02*
D03*
X261811Y169291D02*
D03*
X220472Y163386D02*
D03*
X220472Y169291D02*
D03*
X217520Y172244D02*
D03*
X150591Y186024D02*
D03*
Y168307D02*
D03*
X154637Y121457D02*
D03*
X204724Y220472D02*
D03*
X222441Y244094D02*
D03*
X232283Y232283D02*
D03*
X149606Y87402D02*
D03*
X251969Y146850D02*
D03*
X218110Y141339D02*
D03*
X227953Y94882D02*
D03*
X268898Y224803D02*
D03*
X265786Y227991D02*
D03*
X277953Y196063D02*
D03*
X156693Y259055D02*
D03*
X331693Y143701D02*
D03*
Y149606D02*
D03*
X106102Y195866D02*
D03*
X377953Y143701D02*
D03*
Y149606D02*
D03*
X151575Y259055D02*
D03*
X262992Y231496D02*
D03*
X277440Y101456D02*
D03*
X264173Y174016D02*
D03*
X141732Y115748D02*
D03*
X152362Y105118D02*
D03*
X155219Y102261D02*
D03*
X258661Y141732D02*
D03*
X281102Y219685D02*
D03*
X277953Y222047D02*
D03*
X253937Y189370D02*
D03*
X257087Y191732D02*
D03*
X250394Y187402D02*
D03*
X246850Y189509D02*
D03*
X243701Y192126D02*
D03*
X204095Y175984D02*
D03*
X206299Y166732D02*
D03*
X255512Y144488D02*
D03*
X245276Y141732D02*
D03*
X248425Y144488D02*
D03*
X253543Y114961D02*
D03*
Y74803D02*
D03*
D105*
X230062Y155559D02*
D03*
Y179181D02*
D03*
X230315Y163386D02*
D03*
Y171260D02*
D03*
X253684Y155559D02*
D03*
X253937Y179134D02*
D03*
X246063Y155512D02*
D03*
X238189D02*
D03*
X253937Y163386D02*
D03*
Y171260D02*
D03*
X246063Y179134D02*
D03*
Y163386D02*
D03*
X238189D02*
D03*
Y179134D02*
D03*
X246063Y171260D02*
D03*
X238189D02*
D03*
X437992Y26575D02*
D03*
Y18701D02*
D03*
Y10827D02*
D03*
X445866Y30512D02*
D03*
X390307Y11053D02*
D03*
X398622Y6890D02*
D03*
Y14764D02*
D03*
Y22638D02*
D03*
X390307Y18927D02*
D03*
Y26801D02*
D03*
X406496Y26575D02*
D03*
X422244D02*
D03*
Y18701D02*
D03*
Y10827D02*
D03*
X414370Y6890D02*
D03*
Y14764D02*
D03*
Y22638D02*
D03*
Y30512D02*
D03*
X430118Y6890D02*
D03*
Y14764D02*
D03*
Y22638D02*
D03*
Y30512D02*
D03*
X398622D02*
D03*
X406496Y18701D02*
D03*
Y10827D02*
D03*
X445866Y14764D02*
D03*
Y22638D02*
D03*
Y6890D02*
D03*
X78740Y322835D02*
D03*
Y314961D02*
D03*
Y307087D02*
D03*
X86614Y326772D02*
D03*
X39370Y303150D02*
D03*
Y311024D02*
D03*
Y318898D02*
D03*
X47244Y322835D02*
D03*
X62992D02*
D03*
Y314961D02*
D03*
Y307087D02*
D03*
X55118Y303150D02*
D03*
Y311024D02*
D03*
Y318898D02*
D03*
Y326772D02*
D03*
X70866Y303150D02*
D03*
Y311024D02*
D03*
Y318898D02*
D03*
Y326772D02*
D03*
X39370D02*
D03*
X47244Y314961D02*
D03*
Y307087D02*
D03*
X86614Y311024D02*
D03*
Y318898D02*
D03*
X94488Y307087D02*
D03*
Y322835D02*
D03*
X86614Y303150D02*
D03*
X94488Y314961D02*
D03*
X437992Y321850D02*
D03*
Y313976D02*
D03*
Y306102D02*
D03*
X445866Y325787D02*
D03*
X390307Y306328D02*
D03*
X398622Y302165D02*
D03*
Y310039D02*
D03*
Y317913D02*
D03*
X390307Y314202D02*
D03*
Y322076D02*
D03*
X406496Y321850D02*
D03*
X422244D02*
D03*
Y313976D02*
D03*
Y306102D02*
D03*
X414370Y302165D02*
D03*
Y310039D02*
D03*
Y317913D02*
D03*
Y325787D02*
D03*
X430118Y302165D02*
D03*
Y310039D02*
D03*
Y317913D02*
D03*
Y325787D02*
D03*
X398622D02*
D03*
X406496Y313976D02*
D03*
Y306102D02*
D03*
X445866Y310039D02*
D03*
Y317913D02*
D03*
Y302165D02*
D03*
X38386Y30512D02*
D03*
Y14764D02*
D03*
Y22638D02*
D03*
X77756Y26575D02*
D03*
Y18701D02*
D03*
X85630Y6890D02*
D03*
X54134D02*
D03*
Y14764D02*
D03*
Y22638D02*
D03*
Y30512D02*
D03*
X69882Y6890D02*
D03*
Y14764D02*
D03*
Y22638D02*
D03*
Y30512D02*
D03*
X62008Y26575D02*
D03*
Y18701D02*
D03*
Y10827D02*
D03*
X77756D02*
D03*
X93945Y10601D02*
D03*
Y18475D02*
D03*
X85630Y14764D02*
D03*
Y22638D02*
D03*
Y30512D02*
D03*
X93945Y26349D02*
D03*
X38386Y6890D02*
D03*
X46260Y26575D02*
D03*
Y18701D02*
D03*
Y10827D02*
D03*
D106*
X393701Y166339D02*
D03*
X90551D02*
D03*
X393701Y242126D02*
D03*
Y90551D02*
D03*
X90551Y242126D02*
D03*
X464567Y19685D02*
D03*
Y312992D02*
D03*
X90551Y90551D02*
D03*
X19685Y19685D02*
D03*
Y312992D02*
D03*
M02*
