G04*
G04 #@! TF.GenerationSoftware,Altium Limited,Altium Designer,21.3.1 (25)*
G04*
G04 Layer_Color=16711935*
%FSLAX25Y25*%
%MOIN*%
G70*
G04*
G04 #@! TF.SameCoordinates,B8EFB4BC-30DA-42F7-88CE-EC59C6869F36*
G04*
G04*
G04 #@! TF.FilePolarity,Negative*
G04*
G01*
G75*
%ADD93C,0.04724*%
%ADD94R,0.04724X0.04724*%
%ADD95R,0.04724X0.04724*%
%ADD96C,0.06713*%
%ADD97C,0.16339*%
%ADD98C,0.11024*%
%ADD99C,0.08268*%
%ADD100C,0.03543*%
%ADD101C,0.13622*%
%ADD102C,0.13858*%
%ADD103C,0.10433*%
%ADD104C,0.03150*%
%ADD105C,0.05394*%
%ADD106C,0.24016*%
%ADD127R,0.09055X0.06496*%
%ADD128R,0.11811X0.13386*%
%ADD129R,0.13386X0.11811*%
G36*
X143700Y11811D02*
X144076Y11772D01*
X144802Y11567D01*
X145483Y11242D01*
X146099Y10806D01*
X146633Y10273D01*
X147068Y9657D01*
X147393Y8975D01*
X147574Y8333D01*
X147637Y7875D01*
X147637Y7874D01*
X147637D01*
X147637Y7874D01*
X147638Y354D01*
X147284Y-0D01*
X108620D01*
X108267Y354D01*
X108267Y7874D01*
X108304Y8250D01*
X108505Y8979D01*
X108828Y9662D01*
X109264Y10280D01*
X109798Y10814D01*
X110416Y11250D01*
X111100Y11573D01*
X111828Y11774D01*
X112204Y11811D01*
X112204Y11811D01*
X143700Y11811D01*
D02*
G37*
G36*
X197834D02*
X198209Y11772D01*
X198936Y11567D01*
X199617Y11242D01*
X200233Y10806D01*
X200766Y10273D01*
X201202Y9657D01*
X201527Y8975D01*
X201708Y8333D01*
X201771Y7875D01*
X201771Y7874D01*
X201771D01*
X201771Y7874D01*
X201772Y354D01*
X201418Y-0D01*
X162754D01*
X162401Y354D01*
X162401Y7874D01*
X162438Y8250D01*
X162639Y8979D01*
X162962Y9662D01*
X163398Y10280D01*
X163932Y10814D01*
X164550Y11250D01*
X165233Y11573D01*
X165962Y11774D01*
X166338Y11811D01*
X166338Y11811D01*
X197834Y11811D01*
D02*
G37*
G36*
X268700Y11811D02*
Y11811D01*
X268701Y11811D01*
X269159Y11748D01*
X269802Y11567D01*
X270483Y11242D01*
X271099Y10806D01*
X271633Y10273D01*
X272068Y9657D01*
X272393Y8975D01*
X272598Y8249D01*
X272637Y7874D01*
X272638Y354D01*
X272284Y0D01*
X211968D01*
X211614Y354D01*
X211615Y7874D01*
X211615Y7874D01*
X211679Y8348D01*
X211853Y8979D01*
X212176Y9662D01*
X212611Y10280D01*
X213146Y10814D01*
X213764Y11250D01*
X214447Y11573D01*
X215176Y11774D01*
X215552Y11811D01*
X247048Y11811D01*
X247048Y11811D01*
X247048Y11811D01*
X247048D01*
X247048Y11811D01*
X247511Y11811D01*
X268700Y11811D01*
X268700Y11811D01*
D02*
G37*
G36*
X317913Y11811D02*
X318288Y11772D01*
X319014Y11567D01*
X319695Y11242D01*
X320312Y10806D01*
X320845Y10273D01*
X321281Y9657D01*
X321606Y8975D01*
X321787Y8333D01*
X321850Y7875D01*
X321850Y7874D01*
X321850D01*
X321850Y7874D01*
X321850Y354D01*
X321497Y-0D01*
X282833D01*
X282479Y354D01*
X282480Y7874D01*
X282517Y8250D01*
X282718Y8979D01*
X283041Y9662D01*
X283476Y10280D01*
X284011Y10814D01*
X284629Y11250D01*
X285312Y11573D01*
X286041Y11774D01*
X286417Y11811D01*
X286417Y11811D01*
X317913Y11811D01*
D02*
G37*
G36*
X372047Y11811D02*
X372422Y11772D01*
X373148Y11567D01*
X373829Y11242D01*
X374446Y10806D01*
X374979Y10273D01*
X375415Y9657D01*
X375739Y8975D01*
X375921Y8333D01*
X375984Y7875D01*
X375984Y7874D01*
X375984D01*
X375984Y7874D01*
X375984Y354D01*
X375631Y0D01*
X336967D01*
X336613Y354D01*
X336614Y7874D01*
X336651Y8250D01*
X336852Y8979D01*
X337175Y9662D01*
X337610Y10280D01*
X338145Y10814D01*
X338763Y11250D01*
X339446Y11573D01*
X340175Y11774D01*
X340551Y11811D01*
X340551Y11811D01*
X372047Y11811D01*
D02*
G37*
G36*
X147639Y332324D02*
X147638Y324803D01*
X147601Y324427D01*
X147400Y323698D01*
X147077Y323015D01*
X146642Y322397D01*
X146107Y321863D01*
X145489Y321427D01*
X144806Y321104D01*
X144077Y320903D01*
X143701Y320866D01*
X143701Y320866D01*
X112205D01*
X111830Y320906D01*
X111104Y321110D01*
X110423Y321435D01*
X109806Y321871D01*
X109273Y322404D01*
X108837Y323021D01*
X108512Y323702D01*
X108334Y324335D01*
X108268Y324802D01*
X108268Y324803D01*
X108268D01*
X108268Y324803D01*
X108268Y332324D01*
X108621Y332677D01*
X147285D01*
X147639Y332324D01*
D02*
G37*
G36*
X201773D02*
X201772Y324803D01*
X201735Y324427D01*
X201534Y323698D01*
X201211Y323015D01*
X200776Y322397D01*
X200241Y321863D01*
X199623Y321427D01*
X198940Y321104D01*
X198211Y320903D01*
X197835Y320866D01*
X197835Y320866D01*
X166339D01*
X165964Y320906D01*
X165238Y321110D01*
X164557Y321435D01*
X163940Y321871D01*
X163407Y322404D01*
X162971Y323021D01*
X162646Y323702D01*
X162468Y324335D01*
X162402Y324802D01*
X162402Y324803D01*
X162402D01*
X162402Y324803D01*
X162402Y332324D01*
X162755Y332677D01*
X201419D01*
X201773Y332324D01*
D02*
G37*
G36*
X272638Y332324D02*
X272637Y324803D01*
X272637D01*
X272600Y324427D01*
X272399Y323698D01*
X272076Y323015D01*
X271641Y322397D01*
X271106Y321863D01*
X270488Y321427D01*
X269805Y321104D01*
X269076Y320903D01*
X268700Y320866D01*
X237204Y320866D01*
Y320866D01*
X237204Y320866D01*
X236704Y320866D01*
X215552Y320866D01*
Y320866D01*
X215176Y320906D01*
X214450Y321110D01*
X213769Y321435D01*
X213153Y321871D01*
X212619Y322404D01*
X212184Y323021D01*
X211859Y323702D01*
X211654Y324428D01*
X211615Y324803D01*
X211614Y332324D01*
X211968Y332677D01*
X272284D01*
X272638Y332324D01*
D02*
G37*
G36*
X321851Y332324D02*
X321851Y324803D01*
X321814Y324427D01*
X321613Y323698D01*
X321290Y323015D01*
X320854Y322397D01*
X320320Y321863D01*
X319702Y321427D01*
X319019Y321104D01*
X318290Y320903D01*
X317914Y320866D01*
X317914Y320866D01*
X286418D01*
X286043Y320906D01*
X285316Y321110D01*
X284635Y321435D01*
X284019Y321871D01*
X283486Y322404D01*
X283050Y323021D01*
X282725Y323702D01*
X282546Y324335D01*
X282481Y324802D01*
X282481Y324803D01*
X282481D01*
X282481Y324803D01*
X282480Y332324D01*
X282834Y332677D01*
X321498D01*
X321851Y332324D01*
D02*
G37*
G36*
X375985D02*
X375985Y324803D01*
X375948Y324427D01*
X375746Y323698D01*
X375424Y323015D01*
X374988Y322397D01*
X374454Y321863D01*
X373836Y321427D01*
X373152Y321104D01*
X372424Y320903D01*
X372048Y320866D01*
X372048Y320866D01*
X340552D01*
X340176Y320906D01*
X339450Y321110D01*
X338769Y321435D01*
X338153Y321871D01*
X337619Y322404D01*
X337184Y323021D01*
X336859Y323702D01*
X336680Y324335D01*
X336615Y324802D01*
X336615Y324803D01*
X336615D01*
X336615Y324803D01*
X336614Y332324D01*
X336968Y332677D01*
X375632D01*
X375985Y332324D01*
D02*
G37*
G36*
X122865Y271184D02*
X122917Y271175D01*
X122961Y271157D01*
X123005Y271149D01*
X123031Y271131D01*
X123040Y271122D01*
X123048D01*
X123083Y271096D01*
X123118Y271070D01*
X123144Y271018D01*
X123162Y270974D01*
Y270039D01*
X128354D01*
X128397Y270030D01*
X128423Y270012D01*
X128441Y269995D01*
X128450Y269986D01*
X128476Y269942D01*
X128502Y269890D01*
X128511Y269855D01*
X128520Y269846D01*
Y269838D01*
X128537Y269759D01*
X128554Y269672D01*
Y269637D01*
X128563Y269610D01*
Y269584D01*
X128572Y269462D01*
X128581Y269339D01*
Y269077D01*
X128572Y269016D01*
Y268929D01*
X128563Y268902D01*
Y268876D01*
X128554Y268780D01*
X128546Y268710D01*
X128537Y268658D01*
X128528Y268649D01*
Y268640D01*
X128511Y268579D01*
X128493Y268527D01*
X128476Y268492D01*
X128467Y268483D01*
X128441Y268439D01*
X128415Y268413D01*
X128389Y268395D01*
X128380Y268387D01*
X123433Y265485D01*
X123372Y265459D01*
X123328Y265433D01*
X123293Y265415D01*
X123276Y265406D01*
X123223Y265389D01*
X123179Y265371D01*
X123144Y265363D01*
X123127D01*
X123066Y265354D01*
X123013Y265345D01*
X122970Y265336D01*
X122961D01*
X122952D01*
X122882D01*
X122812D01*
X122760D01*
X122751D01*
X122742D01*
X122638D01*
X122568Y265345D01*
X122515D01*
X122506D01*
X122498D01*
X122436Y265363D01*
X122384Y265380D01*
X122358Y265389D01*
X122349Y265398D01*
X122323Y265433D01*
X122305Y265459D01*
X122288Y265485D01*
Y265494D01*
X122279Y265538D01*
X122271Y265573D01*
Y268955D01*
X120557D01*
X120522D01*
X120496Y268964D01*
X120479Y268972D01*
X120470D01*
X120444Y268999D01*
X120426Y269025D01*
X120418Y269051D01*
X120409Y269060D01*
X120400Y269112D01*
X120391Y269165D01*
X120383Y269208D01*
Y269226D01*
X120374Y269313D01*
X120365Y269392D01*
Y269593D01*
X120374Y269680D01*
Y269707D01*
X120383Y269733D01*
Y269750D01*
X120391Y269820D01*
X120400Y269873D01*
X120409Y269907D01*
Y269916D01*
X120426Y269960D01*
X120453Y269995D01*
X120461Y270004D01*
X120470Y270012D01*
X120496Y270030D01*
X120531Y270039D01*
X120549D01*
X120557D01*
X122271D01*
Y270956D01*
X122279Y271000D01*
X122288Y271035D01*
X122332Y271087D01*
X122367Y271122D01*
X122375Y271131D01*
X122384D01*
X122489Y271166D01*
X122594Y271184D01*
X122646Y271192D01*
X122681D01*
X122707D01*
X122716D01*
X122795D01*
X122865Y271184D01*
D02*
G37*
G36*
X128467Y264786D02*
X128493Y264777D01*
X128502Y264768D01*
X128528Y264733D01*
X128546Y264681D01*
X128563Y264637D01*
Y264620D01*
X128572Y264524D01*
X128581Y264419D01*
Y264183D01*
X128572Y264087D01*
Y264052D01*
X128563Y264025D01*
Y264008D01*
X128554Y263929D01*
X128546Y263877D01*
X128537Y263833D01*
X128528Y263825D01*
X128511Y263790D01*
X128493Y263755D01*
X128476Y263746D01*
X128467Y263737D01*
X128432Y263728D01*
X128397Y263711D01*
X128362Y263702D01*
X128354D01*
X121510Y261430D01*
Y261421D01*
X128362Y259079D01*
X128406Y259061D01*
X128441Y259044D01*
X128458Y259035D01*
X128467Y259026D01*
X128493Y259000D01*
X128511Y258974D01*
X128528Y258948D01*
Y258939D01*
X128546Y258895D01*
X128554Y258843D01*
X128563Y258799D01*
Y258782D01*
X128572Y258694D01*
X128581Y258607D01*
Y258362D01*
X128572Y258301D01*
Y258213D01*
X128563Y258187D01*
Y258161D01*
X128554Y258082D01*
X128537Y258021D01*
X128520Y257986D01*
X128511Y257977D01*
X128476Y257951D01*
X128432Y257934D01*
X128397Y257925D01*
X128380D01*
X128310Y257934D01*
X128231Y257951D01*
X128179Y257969D01*
X128161Y257977D01*
X128153D01*
X120592Y260643D01*
X120557Y260661D01*
X120531Y260669D01*
X120514Y260678D01*
X120505D01*
X120461Y260722D01*
X120453Y260731D01*
X120444Y260739D01*
X120418Y260800D01*
X120409Y260827D01*
Y260835D01*
X120400Y260879D01*
Y260914D01*
X120391Y260949D01*
Y260958D01*
X120383Y261019D01*
X120374Y261080D01*
Y261141D01*
X120365Y261220D01*
Y261508D01*
X120374Y261604D01*
Y261639D01*
X120383Y261674D01*
Y261692D01*
X120391Y261779D01*
X120400Y261841D01*
X120409Y261876D01*
Y261893D01*
X120426Y261945D01*
X120444Y261980D01*
X120461Y262007D01*
X120470Y262015D01*
X120514Y262041D01*
X120549Y262068D01*
X120575Y262076D01*
X120584Y262085D01*
X128153Y264742D01*
X128240Y264777D01*
X128310Y264795D01*
X128354Y264803D01*
X128371D01*
X128432D01*
X128467Y264786D01*
D02*
G37*
G36*
X124482Y253852D02*
X124630Y253835D01*
X124770Y253817D01*
X124884Y253800D01*
X124971Y253782D01*
X124997Y253773D01*
X125024D01*
X125032Y253765D01*
X125041D01*
X125198Y253721D01*
X125347Y253677D01*
X125478Y253616D01*
X125583Y253564D01*
X125679Y253520D01*
X125740Y253476D01*
X125784Y253450D01*
X125801Y253441D01*
X125915Y253354D01*
X126020Y253249D01*
X126107Y253153D01*
X126177Y253057D01*
X126238Y252969D01*
X126282Y252900D01*
X126308Y252856D01*
X126317Y252847D01*
Y252838D01*
X126378Y252690D01*
X126431Y252541D01*
X126466Y252384D01*
X126483Y252244D01*
X126501Y252113D01*
X126509Y252017D01*
Y251921D01*
X126501Y251754D01*
X126492Y251676D01*
X126483Y251606D01*
X126466Y251554D01*
X126457Y251510D01*
X126448Y251475D01*
Y251466D01*
X126396Y251300D01*
X126361Y251230D01*
X126326Y251160D01*
X126300Y251099D01*
X126273Y251055D01*
X126265Y251020D01*
X126256Y251012D01*
X126142Y250837D01*
X126090Y250749D01*
X126029Y250679D01*
X125985Y250618D01*
X125941Y250566D01*
X125915Y250531D01*
X125906Y250522D01*
X125828Y250426D01*
X125740Y250330D01*
X125653Y250242D01*
X125566Y250155D01*
X125496Y250085D01*
X125434Y250033D01*
X125399Y249998D01*
X125382Y249980D01*
X125557Y249902D01*
X125635Y249858D01*
X125705Y249814D01*
X125758Y249779D01*
X125801Y249753D01*
X125828Y249736D01*
X125836Y249727D01*
X125985Y249605D01*
X126046Y249543D01*
X126099Y249491D01*
X126134Y249438D01*
X126169Y249395D01*
X126186Y249369D01*
X126195Y249360D01*
X126291Y249194D01*
X126335Y249115D01*
X126361Y249036D01*
X126387Y248967D01*
X126405Y248914D01*
X126422Y248879D01*
Y248870D01*
X126474Y248652D01*
X126492Y248547D01*
X126501Y248451D01*
X126509Y248363D01*
Y248241D01*
X126501Y248075D01*
X126474Y247909D01*
X126431Y247752D01*
X126387Y247621D01*
X126335Y247498D01*
X126300Y247411D01*
X126282Y247376D01*
X126265Y247350D01*
X126256Y247341D01*
Y247332D01*
X126151Y247166D01*
X126029Y247000D01*
X125898Y246843D01*
X125775Y246703D01*
X125653Y246581D01*
X125557Y246484D01*
X125522Y246449D01*
X125496Y246423D01*
X125478Y246414D01*
X125469Y246406D01*
X126221D01*
X126256D01*
X126282Y246397D01*
X126300Y246388D01*
X126308Y246379D01*
X126335Y246362D01*
X126352Y246336D01*
X126370Y246318D01*
Y246309D01*
X126387Y246266D01*
X126396Y246213D01*
X126405Y246178D01*
Y246161D01*
X126413Y246091D01*
X126422Y246021D01*
Y245846D01*
X126413Y245768D01*
X126405Y245724D01*
Y245707D01*
X126396Y245645D01*
X126387Y245602D01*
X126378Y245567D01*
X126370Y245558D01*
X126352Y245523D01*
X126326Y245505D01*
X126317Y245488D01*
X126308D01*
X126256Y245470D01*
X126230D01*
X126221D01*
X120557D01*
X120522D01*
X120496Y245479D01*
X120479Y245488D01*
X120470D01*
X120444Y245514D01*
X120426Y245540D01*
X120418Y245558D01*
X120409Y245567D01*
X120400Y245619D01*
X120391Y245672D01*
X120383Y245707D01*
Y245724D01*
X120374Y245811D01*
X120365Y245899D01*
Y246091D01*
X120374Y246170D01*
X120383Y246222D01*
Y246240D01*
X120391Y246309D01*
X120400Y246362D01*
X120409Y246388D01*
Y246397D01*
X120426Y246441D01*
X120453Y246467D01*
X120461Y246476D01*
X120470Y246484D01*
X120496Y246502D01*
X120531Y246511D01*
X120549D01*
X120557D01*
X124517D01*
X124709Y246668D01*
X124866Y246808D01*
X125006Y246948D01*
X125120Y247061D01*
X125216Y247157D01*
X125277Y247236D01*
X125321Y247280D01*
X125329Y247297D01*
X125426Y247437D01*
X125496Y247568D01*
X125539Y247690D01*
X125574Y247795D01*
X125592Y247891D01*
X125609Y247961D01*
Y248023D01*
X125600Y248127D01*
X125592Y248224D01*
X125574Y248311D01*
X125557Y248381D01*
X125531Y248442D01*
X125513Y248486D01*
X125504Y248512D01*
X125496Y248521D01*
X125452Y248599D01*
X125399Y248661D01*
X125338Y248722D01*
X125286Y248774D01*
X125242Y248818D01*
X125198Y248844D01*
X125172Y248862D01*
X125163Y248870D01*
X124997Y248967D01*
X124910Y249001D01*
X124831Y249028D01*
X124761Y249054D01*
X124709Y249071D01*
X124674Y249080D01*
X124656D01*
X124429Y249124D01*
X124316Y249132D01*
X124220Y249141D01*
X124132Y249150D01*
X124062D01*
X124019D01*
X124001D01*
X120557D01*
X120522D01*
X120496Y249159D01*
X120479Y249167D01*
X120470D01*
X120444Y249194D01*
X120426Y249220D01*
X120418Y249237D01*
X120409Y249246D01*
X120400Y249299D01*
X120391Y249351D01*
X120383Y249395D01*
Y249412D01*
X120374Y249500D01*
X120365Y249578D01*
Y249771D01*
X120374Y249840D01*
X120383Y249893D01*
Y249910D01*
X120391Y249980D01*
X120400Y250033D01*
X120409Y250068D01*
Y250077D01*
X120426Y250120D01*
X120453Y250146D01*
X120461Y250155D01*
X120470Y250164D01*
X120496Y250181D01*
X120531Y250190D01*
X120549D01*
X120557D01*
X124517D01*
X124709Y250347D01*
X124866Y250496D01*
X125006Y250627D01*
X125120Y250741D01*
X125216Y250837D01*
X125277Y250916D01*
X125321Y250959D01*
X125329Y250977D01*
X125426Y251116D01*
X125496Y251248D01*
X125539Y251370D01*
X125574Y251475D01*
X125592Y251571D01*
X125609Y251641D01*
Y251702D01*
X125600Y251807D01*
X125592Y251903D01*
X125574Y251991D01*
X125557Y252060D01*
X125531Y252122D01*
X125513Y252165D01*
X125504Y252191D01*
X125496Y252200D01*
X125452Y252279D01*
X125399Y252349D01*
X125338Y252410D01*
X125286Y252454D01*
X125242Y252497D01*
X125198Y252524D01*
X125172Y252541D01*
X125163Y252550D01*
X124997Y252637D01*
X124910Y252672D01*
X124831Y252707D01*
X124761Y252725D01*
X124709Y252742D01*
X124674Y252751D01*
X124656D01*
X124429Y252795D01*
X124316Y252803D01*
X124220Y252812D01*
X124132Y252821D01*
X124062D01*
X124019D01*
X124001D01*
X120557D01*
X120522D01*
X120496Y252830D01*
X120479Y252838D01*
X120470D01*
X120444Y252865D01*
X120426Y252891D01*
X120418Y252917D01*
X120409Y252926D01*
X120400Y252978D01*
X120391Y253031D01*
X120383Y253065D01*
Y253083D01*
X120374Y253170D01*
X120365Y253258D01*
Y253450D01*
X120374Y253529D01*
X120383Y253581D01*
Y253599D01*
X120391Y253669D01*
X120400Y253721D01*
X120409Y253747D01*
Y253756D01*
X120426Y253800D01*
X120453Y253826D01*
X120461Y253835D01*
X120470Y253843D01*
X120496Y253861D01*
X120531Y253870D01*
X120549D01*
X120557D01*
X124141D01*
X124316D01*
X124482Y253852D01*
D02*
G37*
G36*
X124027Y243880D02*
X124220Y243862D01*
X124394Y243845D01*
X124552Y243819D01*
X124674Y243784D01*
X124726Y243775D01*
X124770Y243766D01*
X124814Y243757D01*
X124840Y243749D01*
X124849Y243740D01*
X124857D01*
X125032Y243679D01*
X125198Y243609D01*
X125338Y243539D01*
X125469Y243469D01*
X125566Y243399D01*
X125644Y243347D01*
X125688Y243312D01*
X125705Y243294D01*
X125836Y243172D01*
X125950Y243050D01*
X126055Y242918D01*
X126134Y242796D01*
X126204Y242691D01*
X126247Y242604D01*
X126265Y242569D01*
X126282Y242543D01*
X126291Y242534D01*
Y242525D01*
X126361Y242342D01*
X126413Y242149D01*
X126457Y241966D01*
X126483Y241782D01*
X126501Y241625D01*
Y241564D01*
X126509Y241502D01*
Y241389D01*
X126501Y241162D01*
X126474Y240952D01*
X126439Y240760D01*
X126405Y240594D01*
X126361Y240454D01*
X126343Y240401D01*
X126326Y240349D01*
X126308Y240314D01*
X126300Y240288D01*
X126291Y240270D01*
Y240261D01*
X126204Y240078D01*
X126099Y239921D01*
X125994Y239772D01*
X125898Y239650D01*
X125801Y239545D01*
X125732Y239466D01*
X125679Y239422D01*
X125670Y239414D01*
X125662Y239405D01*
X125504Y239283D01*
X125338Y239169D01*
X125172Y239082D01*
X125015Y239003D01*
X124884Y238942D01*
X124823Y238915D01*
X124770Y238898D01*
X124735Y238880D01*
X124700Y238872D01*
X124683Y238863D01*
X124674D01*
X124447Y238802D01*
X124220Y238758D01*
X124001Y238723D01*
X123800Y238706D01*
X123704Y238697D01*
X123625Y238688D01*
X123547D01*
X123485Y238680D01*
X123433D01*
X123398D01*
X123372D01*
X123363D01*
X123083Y238688D01*
X122830Y238706D01*
X122594Y238732D01*
X122489Y238749D01*
X122402Y238767D01*
X122314Y238784D01*
X122236Y238802D01*
X122166Y238811D01*
X122113Y238828D01*
X122070Y238837D01*
X122035Y238846D01*
X122017Y238854D01*
X122008D01*
X121799Y238933D01*
X121615Y239020D01*
X121449Y239108D01*
X121309Y239195D01*
X121195Y239274D01*
X121117Y239335D01*
X121064Y239379D01*
X121056Y239396D01*
X121047D01*
X120916Y239536D01*
X120793Y239685D01*
X120697Y239833D01*
X120619Y239973D01*
X120549Y240095D01*
X120505Y240192D01*
X120487Y240227D01*
X120479Y240253D01*
X120470Y240270D01*
Y240279D01*
X120409Y240489D01*
X120356Y240698D01*
X120322Y240899D01*
X120304Y241092D01*
X120295Y241179D01*
X120287Y241266D01*
Y241336D01*
X120278Y241398D01*
Y241660D01*
X120287Y241800D01*
X120295Y241922D01*
X120313Y242036D01*
X120322Y242132D01*
X120330Y242202D01*
X120339Y242245D01*
Y242263D01*
X120365Y242394D01*
X120383Y242516D01*
X120409Y242621D01*
X120426Y242709D01*
X120444Y242787D01*
X120461Y242848D01*
X120470Y242883D01*
Y242892D01*
X120496Y242988D01*
X120522Y243076D01*
X120549Y243146D01*
X120575Y243216D01*
X120592Y243259D01*
X120610Y243303D01*
X120619Y243320D01*
Y243329D01*
X120645Y243390D01*
X120671Y243434D01*
X120697Y243469D01*
X120706Y243504D01*
X120723Y243530D01*
X120732Y243539D01*
X120785Y243583D01*
X120793Y243591D01*
X120802D01*
X120863Y243618D01*
X120881Y243626D01*
X120890D01*
X120933Y243635D01*
X120968D01*
X120994Y243644D01*
X121003D01*
X121047Y243653D01*
X121099D01*
X121134D01*
X121143D01*
X121222D01*
X121283Y243644D01*
X121318Y243635D01*
X121335D01*
X121388Y243626D01*
X121423Y243618D01*
X121449Y243609D01*
X121458D01*
X121510Y243574D01*
X121519Y243565D01*
X121528Y243556D01*
X121545Y243530D01*
X121554Y243504D01*
Y243478D01*
X121545Y243408D01*
X121519Y243338D01*
X121510Y243303D01*
X121493Y243277D01*
X121484Y243259D01*
Y243250D01*
X121431Y243128D01*
X121388Y243006D01*
X121361Y242945D01*
X121353Y242910D01*
X121335Y242875D01*
Y242866D01*
X121283Y242682D01*
X121257Y242595D01*
X121230Y242508D01*
X121213Y242438D01*
X121195Y242376D01*
X121187Y242342D01*
Y242324D01*
X121152Y242079D01*
X121143Y241957D01*
X121134Y241852D01*
X121125Y241747D01*
Y241607D01*
X121134Y241424D01*
X121152Y241258D01*
X121169Y241101D01*
X121195Y240978D01*
X121222Y240873D01*
X121248Y240795D01*
X121257Y240751D01*
X121265Y240733D01*
X121327Y240611D01*
X121397Y240497D01*
X121458Y240401D01*
X121528Y240314D01*
X121589Y240244D01*
X121633Y240200D01*
X121667Y240165D01*
X121676Y240157D01*
X121781Y240078D01*
X121895Y240017D01*
X122000Y239964D01*
X122104Y239921D01*
X122192Y239886D01*
X122262Y239859D01*
X122305Y239851D01*
X122323Y239842D01*
X122620Y239790D01*
X122760Y239772D01*
X122900Y239763D01*
X123013D01*
X123101Y239755D01*
X123136D01*
X123162D01*
X123171D01*
X123179D01*
Y243478D01*
X123188Y243539D01*
X123197Y243591D01*
X123232Y243679D01*
X123249Y243714D01*
X123258Y243740D01*
X123276Y243749D01*
Y243757D01*
X123319Y243801D01*
X123372Y243836D01*
X123433Y243854D01*
X123494Y243871D01*
X123547Y243880D01*
X123582Y243888D01*
X123616D01*
X123625D01*
X123818D01*
X124027Y243880D01*
D02*
G37*
G36*
X126090Y237674D02*
X126125Y237666D01*
X126142D01*
X126204Y237657D01*
X126247Y237639D01*
X126273Y237631D01*
X126282Y237622D01*
X126317Y237604D01*
X126343Y237578D01*
X126352Y237569D01*
X126361Y237561D01*
X126378Y237535D01*
X126387Y237508D01*
Y236022D01*
X127724D01*
X127759D01*
X127785Y236014D01*
X127803Y236005D01*
X127812Y235996D01*
X127838Y235970D01*
X127855Y235944D01*
X127873Y235918D01*
Y235909D01*
X127899Y235865D01*
X127908Y235813D01*
X127917Y235769D01*
Y235752D01*
X127925Y235673D01*
X127934Y235585D01*
Y235393D01*
X127925Y235306D01*
X127917Y235253D01*
Y235236D01*
X127908Y235175D01*
X127890Y235122D01*
X127882Y235087D01*
X127873Y235079D01*
X127855Y235044D01*
X127829Y235017D01*
X127820Y235009D01*
X127812Y235000D01*
X127759Y234982D01*
X127733D01*
X127724D01*
X126387D01*
Y234152D01*
X126378Y234117D01*
X126370Y234100D01*
X126361Y234091D01*
X126335Y234065D01*
X126308Y234047D01*
X126291Y234039D01*
X126282Y234030D01*
X126238Y234012D01*
X126195Y233995D01*
X126160Y233986D01*
X126142D01*
X126081Y233977D01*
X126020D01*
X125968D01*
X125959D01*
X125950D01*
X125871D01*
X125801Y233986D01*
X125749Y233995D01*
X125697Y234004D01*
X125662Y234012D01*
X125635Y234021D01*
X125627Y234030D01*
X125618D01*
X125583Y234056D01*
X125566Y234082D01*
X125531Y234126D01*
X125522Y234161D01*
Y234982D01*
X122209D01*
X122035D01*
X121868Y235000D01*
X121720Y235009D01*
X121598Y235026D01*
X121493Y235044D01*
X121414Y235052D01*
X121370Y235070D01*
X121353D01*
X121222Y235105D01*
X121108Y235149D01*
X121003Y235201D01*
X120924Y235245D01*
X120855Y235288D01*
X120802Y235323D01*
X120767Y235350D01*
X120758Y235358D01*
X120680Y235437D01*
X120601Y235524D01*
X120549Y235612D01*
X120496Y235690D01*
X120461Y235760D01*
X120426Y235822D01*
X120418Y235857D01*
X120409Y235874D01*
X120374Y235996D01*
X120348Y236127D01*
X120322Y236259D01*
X120313Y236372D01*
X120304Y236477D01*
X120295Y236564D01*
Y236634D01*
X120304Y236739D01*
X120313Y236835D01*
Y236870D01*
X120322Y236896D01*
Y236923D01*
X120339Y237028D01*
X120348Y237115D01*
X120356Y237150D01*
X120365Y237176D01*
Y237194D01*
X120383Y237281D01*
X120409Y237360D01*
X120418Y237403D01*
X120426Y237421D01*
X120461Y237491D01*
X120487Y237543D01*
X120514Y237569D01*
X120522Y237578D01*
X120566Y237613D01*
X120619Y237639D01*
X120662Y237648D01*
X120680Y237657D01*
X120776Y237674D01*
X120872Y237683D01*
X120916D01*
X120951D01*
X120968D01*
X120977D01*
X121056D01*
X121108Y237674D01*
X121152Y237666D01*
X121160D01*
X121213Y237657D01*
X121248Y237648D01*
X121274Y237639D01*
X121283D01*
X121309Y237622D01*
X121327Y237613D01*
X121344Y237604D01*
Y237596D01*
X121361Y237552D01*
Y237535D01*
X121353Y237491D01*
X121344Y237456D01*
X121335Y237430D01*
X121327Y237421D01*
X121309Y237368D01*
X121283Y237325D01*
X121274Y237290D01*
X121265Y237272D01*
X121248Y237202D01*
X121230Y237141D01*
X121222Y237089D01*
X121213Y237080D01*
Y237071D01*
X121195Y236984D01*
X121187Y236896D01*
Y236809D01*
X121195Y236652D01*
X121230Y236521D01*
X121283Y236416D01*
X121335Y236328D01*
X121388Y236267D01*
X121440Y236224D01*
X121475Y236197D01*
X121484Y236189D01*
X121606Y236136D01*
X121746Y236092D01*
X121895Y236066D01*
X122035Y236040D01*
X122166Y236031D01*
X122271Y236022D01*
X122314D01*
X122340D01*
X122358D01*
X122367D01*
X125522D01*
Y237473D01*
X125531Y237508D01*
X125539Y237535D01*
X125574Y237587D01*
X125600Y237613D01*
X125618Y237622D01*
X125662Y237639D01*
X125714Y237657D01*
X125828Y237674D01*
X125871Y237683D01*
X125915D01*
X125941D01*
X125950D01*
X126029D01*
X126090Y237674D01*
D02*
G37*
G36*
X122227Y233243D02*
X122349Y233235D01*
X122454Y233208D01*
X122550Y233191D01*
X122620Y233165D01*
X122681Y233138D01*
X122716Y233130D01*
X122725Y233121D01*
X122821Y233068D01*
X122908Y233016D01*
X122978Y232963D01*
X123048Y232911D01*
X123101Y232867D01*
X123136Y232832D01*
X123162Y232806D01*
X123171Y232798D01*
X123302Y232640D01*
X123354Y232561D01*
X123407Y232492D01*
X123442Y232430D01*
X123468Y232378D01*
X123485Y232343D01*
X123494Y232334D01*
X123590Y232142D01*
X123634Y232055D01*
X123669Y231976D01*
X123695Y231906D01*
X123721Y231854D01*
X123730Y231819D01*
X123739Y231810D01*
X123818Y231609D01*
X123852Y231521D01*
X123879Y231443D01*
X123905Y231373D01*
X123922Y231320D01*
X123940Y231286D01*
Y231277D01*
X124019Y231102D01*
X124062Y231023D01*
X124097Y230953D01*
X124123Y230901D01*
X124150Y230857D01*
X124158Y230831D01*
X124167Y230822D01*
X124272Y230691D01*
X124316Y230630D01*
X124368Y230586D01*
X124403Y230551D01*
X124438Y230525D01*
X124455Y230508D01*
X124464Y230499D01*
X124534Y230455D01*
X124604Y230429D01*
X124735Y230394D01*
X124796Y230385D01*
X124840Y230377D01*
X124875D01*
X124884D01*
X125006Y230385D01*
X125111Y230412D01*
X125155Y230420D01*
X125181Y230429D01*
X125198Y230438D01*
X125207D01*
X125312Y230499D01*
X125391Y230560D01*
X125426Y230586D01*
X125452Y230612D01*
X125461Y230621D01*
X125469Y230630D01*
X125548Y230735D01*
X125600Y230849D01*
X125618Y230892D01*
X125635Y230927D01*
X125644Y230953D01*
Y230962D01*
X125679Y231119D01*
X125688Y231198D01*
X125697Y231277D01*
X125705Y231338D01*
Y231539D01*
X125697Y231635D01*
X125688Y231722D01*
X125670Y231801D01*
X125662Y231862D01*
X125644Y231906D01*
X125635Y231941D01*
Y231950D01*
X125609Y232037D01*
X125583Y232116D01*
X125557Y232177D01*
X125531Y232238D01*
X125513Y232291D01*
X125496Y232326D01*
X125478Y232343D01*
Y232352D01*
X125426Y232465D01*
X125373Y232561D01*
X125356Y232588D01*
X125338Y232614D01*
X125329Y232623D01*
Y232631D01*
X125294Y232701D01*
X125277Y232754D01*
X125268Y232789D01*
Y232798D01*
X125277Y232841D01*
X125286Y232859D01*
X125329Y232902D01*
X125347Y232911D01*
X125356D01*
X125399Y232929D01*
X125443Y232937D01*
X125478Y232946D01*
X125487D01*
X125548Y232955D01*
X125609Y232963D01*
X125662D01*
X125670D01*
X125679D01*
X125749D01*
X125801Y232955D01*
X125836Y232946D01*
X125845D01*
X125889Y232937D01*
X125933D01*
X125950Y232929D01*
X125959D01*
X125994Y232920D01*
X126020Y232911D01*
X126037Y232902D01*
X126046Y232894D01*
X126081Y232876D01*
X126107Y232841D01*
X126125Y232815D01*
X126134Y232806D01*
X126177Y232754D01*
X126212Y232684D01*
X126238Y232631D01*
X126247Y232623D01*
Y232614D01*
X126300Y232509D01*
X126335Y232404D01*
X126352Y232361D01*
X126361Y232334D01*
X126370Y232308D01*
Y232299D01*
X126413Y232159D01*
X126439Y232037D01*
X126448Y231976D01*
X126457Y231932D01*
X126466Y231906D01*
Y231897D01*
X126492Y231731D01*
X126501Y231652D01*
Y231583D01*
X126509Y231530D01*
Y231443D01*
X126501Y231259D01*
X126492Y231084D01*
X126466Y230927D01*
X126439Y230796D01*
X126413Y230682D01*
X126396Y230604D01*
X126378Y230551D01*
X126370Y230543D01*
Y230534D01*
X126317Y230394D01*
X126256Y230272D01*
X126186Y230158D01*
X126134Y230071D01*
X126072Y229992D01*
X126037Y229931D01*
X126003Y229896D01*
X125994Y229887D01*
X125906Y229800D01*
X125819Y229721D01*
X125723Y229651D01*
X125644Y229599D01*
X125566Y229555D01*
X125513Y229529D01*
X125478Y229511D01*
X125461Y229503D01*
X125347Y229459D01*
X125233Y229433D01*
X125128Y229406D01*
X125024Y229398D01*
X124945Y229389D01*
X124884Y229380D01*
X124840D01*
X124823D01*
X124691Y229389D01*
X124560Y229398D01*
X124455Y229415D01*
X124359Y229441D01*
X124281Y229468D01*
X124228Y229485D01*
X124185Y229494D01*
X124176Y229503D01*
X124080Y229555D01*
X123992Y229607D01*
X123905Y229660D01*
X123835Y229712D01*
X123783Y229756D01*
X123739Y229791D01*
X123713Y229817D01*
X123704Y229826D01*
X123573Y229983D01*
X123512Y230062D01*
X123468Y230132D01*
X123424Y230193D01*
X123398Y230237D01*
X123380Y230272D01*
X123372Y230280D01*
X123276Y230473D01*
X123241Y230560D01*
X123206Y230639D01*
X123179Y230709D01*
X123153Y230761D01*
X123144Y230796D01*
X123136Y230805D01*
X123057Y230997D01*
X123022Y231084D01*
X122996Y231163D01*
X122961Y231233D01*
X122943Y231277D01*
X122935Y231312D01*
X122926Y231320D01*
X122847Y231495D01*
X122812Y231574D01*
X122777Y231644D01*
X122742Y231696D01*
X122725Y231740D01*
X122707Y231766D01*
X122699Y231775D01*
X122603Y231915D01*
X122550Y231967D01*
X122506Y232011D01*
X122471Y232046D01*
X122436Y232072D01*
X122419Y232089D01*
X122410Y232098D01*
X122349Y232142D01*
X122279Y232177D01*
X122218Y232194D01*
X122148Y232212D01*
X122096Y232221D01*
X122052Y232229D01*
X122017D01*
X122008D01*
X121851Y232212D01*
X121781Y232203D01*
X121720Y232186D01*
X121676Y232168D01*
X121641Y232159D01*
X121615Y232142D01*
X121606D01*
X121493Y232063D01*
X121405Y231985D01*
X121370Y231950D01*
X121344Y231924D01*
X121335Y231906D01*
X121327Y231897D01*
X121257Y231775D01*
X121204Y231652D01*
X121187Y231600D01*
X121169Y231556D01*
X121160Y231530D01*
Y231521D01*
X121134Y231355D01*
X121117Y231277D01*
Y231207D01*
X121108Y231146D01*
Y230918D01*
X121117Y230796D01*
X121134Y230691D01*
X121152Y230604D01*
X121160Y230525D01*
X121178Y230473D01*
X121187Y230429D01*
Y230420D01*
X121222Y230324D01*
X121257Y230237D01*
X121283Y230149D01*
X121309Y230079D01*
X121335Y230027D01*
X121353Y229983D01*
X121370Y229957D01*
Y229948D01*
X121449Y229817D01*
X121475Y229756D01*
X121510Y229712D01*
X121528Y229669D01*
X121545Y229642D01*
X121563Y229625D01*
Y229616D01*
X121615Y229529D01*
X121641Y229468D01*
X121650Y229433D01*
Y229389D01*
X121641Y229363D01*
X121633Y229345D01*
X121624Y229336D01*
X121598Y229310D01*
X121571Y229293D01*
X121554Y229284D01*
X121545Y229275D01*
X121510Y229267D01*
X121466Y229258D01*
X121431Y229249D01*
X121414D01*
X121353Y229240D01*
X121292D01*
X121239D01*
X121230D01*
X121222D01*
X121152D01*
X121091Y229249D01*
X121038D01*
X120986Y229258D01*
X120951D01*
X120924Y229267D01*
X120916D01*
X120907D01*
X120837Y229302D01*
X120785Y229336D01*
X120741Y229363D01*
X120732Y229371D01*
X120688Y229433D01*
X120636Y229511D01*
X120610Y229564D01*
X120592Y229581D01*
Y229590D01*
X120540Y229712D01*
X120487Y229826D01*
X120470Y229878D01*
X120453Y229922D01*
X120444Y229948D01*
Y229957D01*
X120400Y230123D01*
X120374Y230210D01*
X120365Y230280D01*
X120348Y230350D01*
X120339Y230403D01*
X120330Y230438D01*
Y230446D01*
X120304Y230656D01*
X120287Y230752D01*
Y230840D01*
X120278Y230918D01*
Y231023D01*
X120287Y231207D01*
X120295Y231373D01*
X120313Y231521D01*
X120339Y231661D01*
X120365Y231766D01*
X120383Y231854D01*
X120391Y231906D01*
X120400Y231915D01*
Y231924D01*
X120444Y232072D01*
X120505Y232212D01*
X120557Y232326D01*
X120610Y232430D01*
X120662Y232518D01*
X120706Y232579D01*
X120732Y232614D01*
X120741Y232631D01*
X120837Y232736D01*
X120933Y232832D01*
X121029Y232902D01*
X121117Y232972D01*
X121195Y233025D01*
X121265Y233060D01*
X121300Y233077D01*
X121318Y233086D01*
X121449Y233138D01*
X121580Y233182D01*
X121711Y233208D01*
X121834Y233235D01*
X121938Y233243D01*
X122026Y233252D01*
X122078D01*
X122087D01*
X122096D01*
X122227Y233243D01*
D02*
G37*
G36*
X126273Y228497D02*
X126308Y228480D01*
X126335Y228462D01*
X126343Y228454D01*
X126370Y228410D01*
X126387Y228349D01*
X126405Y228305D01*
Y228288D01*
X126413Y228191D01*
X126422Y228104D01*
Y227868D01*
X126413Y227816D01*
Y227728D01*
X126405Y227702D01*
Y227685D01*
X126387Y227615D01*
X126370Y227571D01*
X126361Y227536D01*
X126352Y227527D01*
X126317Y227492D01*
X126265Y227466D01*
X126212Y227449D01*
X126204Y227440D01*
X126195D01*
X121624Y225875D01*
Y225858D01*
X126169Y224241D01*
X126230Y224215D01*
X126265Y224197D01*
X126291Y224189D01*
X126300Y224180D01*
X126335Y224154D01*
X126352Y224119D01*
X126370Y224092D01*
Y224084D01*
X126387Y224031D01*
X126396Y223979D01*
X126405Y223935D01*
Y223918D01*
X126413Y223830D01*
X126422Y223734D01*
Y223489D01*
X126413Y223437D01*
Y223358D01*
X126405Y223332D01*
Y223315D01*
X126387Y223245D01*
X126370Y223201D01*
X126352Y223166D01*
X126343Y223157D01*
X126308Y223131D01*
X126265Y223114D01*
X126238Y223105D01*
X126221D01*
X126160Y223114D01*
X126090Y223131D01*
X126037Y223148D01*
X126020Y223157D01*
X126011D01*
X120601Y225176D01*
X120549Y225194D01*
X120514Y225220D01*
X120479Y225237D01*
X120470Y225246D01*
X120435Y225281D01*
X120418Y225316D01*
X120400Y225342D01*
Y225351D01*
X118434Y224573D01*
X118372Y224547D01*
X118329Y224538D01*
X118294D01*
X118285D01*
X118241Y224556D01*
X118215Y224573D01*
X118198Y224591D01*
X118189Y224599D01*
X118163Y224643D01*
X118145Y224695D01*
X118128Y224730D01*
Y224748D01*
X118119Y224835D01*
X118110Y224923D01*
Y225132D01*
X118119Y225229D01*
X118128Y225307D01*
X118145Y225368D01*
X118154Y225421D01*
X118163Y225456D01*
X118171Y225473D01*
Y225482D01*
X118189Y225535D01*
X118215Y225578D01*
X118241Y225613D01*
X118268Y225639D01*
X118303Y225674D01*
X118320Y225683D01*
X120400Y226435D01*
X126037Y228471D01*
X126116Y228489D01*
X126169Y228506D01*
X126212D01*
X126221D01*
X126273Y228497D01*
D02*
G37*
G36*
X122856Y222414D02*
X123013Y222397D01*
X123162Y222371D01*
X123284Y222344D01*
X123380Y222309D01*
X123459Y222283D01*
X123503Y222266D01*
X123520Y222257D01*
X123651Y222196D01*
X123765Y222126D01*
X123879Y222056D01*
X123966Y221986D01*
X124036Y221925D01*
X124097Y221881D01*
X124132Y221846D01*
X124141Y221837D01*
X124237Y221733D01*
X124324Y221637D01*
X124403Y221532D01*
X124464Y221444D01*
X124517Y221366D01*
X124560Y221296D01*
X124587Y221261D01*
X124595Y221243D01*
X124735Y220999D01*
X124788Y220885D01*
X124840Y220780D01*
X124884Y220693D01*
X124919Y220623D01*
X124936Y220579D01*
X124945Y220562D01*
X125058Y220308D01*
X125111Y220194D01*
X125163Y220090D01*
X125198Y220002D01*
X125233Y219941D01*
X125251Y219897D01*
X125260Y219880D01*
X125321Y219757D01*
X125382Y219644D01*
X125443Y219548D01*
X125496Y219460D01*
X125539Y219390D01*
X125574Y219329D01*
X125600Y219294D01*
X125609Y219285D01*
X125679Y219198D01*
X125758Y219111D01*
X125836Y219041D01*
X125898Y218988D01*
X125959Y218936D01*
X126003Y218901D01*
X126037Y218883D01*
X126046Y218875D01*
X126142Y218822D01*
X126238Y218787D01*
X126343Y218752D01*
X126431Y218735D01*
X126509Y218726D01*
X126579Y218717D01*
X126614D01*
X126632D01*
X126798Y218726D01*
X126868Y218744D01*
X126938Y218761D01*
X126990Y218770D01*
X127034Y218787D01*
X127060Y218796D01*
X127069D01*
X127217Y218866D01*
X127278Y218910D01*
X127331Y218945D01*
X127366Y218988D01*
X127401Y219015D01*
X127418Y219032D01*
X127427Y219041D01*
X127532Y219172D01*
X127611Y219312D01*
X127637Y219364D01*
X127654Y219408D01*
X127672Y219443D01*
Y219451D01*
X127707Y219548D01*
X127724Y219653D01*
X127742Y219749D01*
X127759Y219845D01*
Y219923D01*
X127768Y219985D01*
Y220177D01*
X127751Y220299D01*
X127742Y220413D01*
X127724Y220509D01*
X127707Y220588D01*
X127689Y220649D01*
X127681Y220693D01*
X127672Y220701D01*
X127637Y220806D01*
X127602Y220902D01*
X127567Y220990D01*
X127541Y221068D01*
X127515Y221130D01*
X127488Y221173D01*
X127480Y221199D01*
X127471Y221208D01*
X127401Y221357D01*
X127366Y221418D01*
X127340Y221470D01*
X127313Y221505D01*
X127296Y221540D01*
X127278Y221558D01*
Y221567D01*
X127226Y221663D01*
X127200Y221733D01*
X127191Y221776D01*
Y221785D01*
X127200Y221820D01*
X127209Y221837D01*
X127217Y221855D01*
Y221864D01*
X127243Y221890D01*
X127270Y221907D01*
X127296Y221916D01*
X127305D01*
X127357Y221925D01*
X127401Y221934D01*
X127436Y221942D01*
X127453D01*
X127523Y221951D01*
X127584Y221960D01*
X127637D01*
X127646D01*
X127654D01*
X127733D01*
X127785D01*
X127829Y221951D01*
X127838D01*
X127890Y221942D01*
X127934Y221934D01*
X127960Y221925D01*
X127969D01*
X128013Y221916D01*
X128039Y221907D01*
X128056Y221899D01*
X128065D01*
X128091Y221881D01*
X128126Y221855D01*
X128144Y221829D01*
X128153Y221820D01*
X128179Y221794D01*
X128205Y221759D01*
X128257Y221672D01*
X128275Y221628D01*
X128292Y221602D01*
X128310Y221575D01*
Y221567D01*
X128380Y221427D01*
X128441Y221287D01*
X128467Y221226D01*
X128476Y221182D01*
X128493Y221147D01*
Y221138D01*
X128546Y220955D01*
X128563Y220867D01*
X128581Y220789D01*
X128598Y220727D01*
X128607Y220666D01*
X128616Y220631D01*
Y220623D01*
X128651Y220422D01*
X128659Y220334D01*
Y220247D01*
X128668Y220177D01*
Y220081D01*
X128659Y219888D01*
X128642Y219705D01*
X128624Y219539D01*
X128598Y219390D01*
X128563Y219268D01*
X128546Y219172D01*
X128537Y219137D01*
X128528Y219111D01*
X128520Y219102D01*
Y219093D01*
X128458Y218927D01*
X128397Y218778D01*
X128327Y218647D01*
X128266Y218534D01*
X128205Y218438D01*
X128153Y218368D01*
X128118Y218324D01*
X128109Y218307D01*
X128004Y218193D01*
X127890Y218088D01*
X127777Y218001D01*
X127672Y217931D01*
X127576Y217878D01*
X127506Y217835D01*
X127453Y217808D01*
X127445Y217800D01*
X127436D01*
X127287Y217739D01*
X127130Y217695D01*
X126973Y217660D01*
X126833Y217642D01*
X126710Y217625D01*
X126614Y217616D01*
X126579D01*
X126553D01*
X126536D01*
X126527D01*
X126343Y217625D01*
X126186Y217642D01*
X126037Y217669D01*
X125915Y217695D01*
X125810Y217721D01*
X125732Y217747D01*
X125688Y217765D01*
X125670Y217773D01*
X125539Y217835D01*
X125426Y217904D01*
X125321Y217974D01*
X125233Y218036D01*
X125155Y218097D01*
X125102Y218141D01*
X125058Y218176D01*
X125050Y218184D01*
X124954Y218289D01*
X124866Y218385D01*
X124788Y218481D01*
X124726Y218578D01*
X124674Y218656D01*
X124630Y218717D01*
X124604Y218752D01*
X124595Y218770D01*
X124455Y219015D01*
X124394Y219128D01*
X124342Y219233D01*
X124298Y219320D01*
X124263Y219382D01*
X124246Y219425D01*
X124237Y219443D01*
X124176Y219574D01*
X124123Y219696D01*
X124071Y219810D01*
X124019Y219915D01*
X123984Y220002D01*
X123949Y220063D01*
X123931Y220107D01*
X123922Y220125D01*
X123861Y220247D01*
X123809Y220360D01*
X123748Y220457D01*
X123695Y220544D01*
X123651Y220614D01*
X123616Y220666D01*
X123590Y220701D01*
X123582Y220710D01*
X123512Y220806D01*
X123442Y220885D01*
X123363Y220955D01*
X123302Y221016D01*
X123241Y221068D01*
X123197Y221103D01*
X123162Y221121D01*
X123153Y221130D01*
X123057Y221182D01*
X122961Y221217D01*
X122856Y221252D01*
X122769Y221269D01*
X122681Y221278D01*
X122620Y221287D01*
X122576D01*
X122559D01*
X122445Y221278D01*
X122332Y221269D01*
X122236Y221252D01*
X122148Y221234D01*
X122078Y221208D01*
X122026Y221191D01*
X121991Y221182D01*
X121982Y221173D01*
X121895Y221130D01*
X121816Y221077D01*
X121746Y221016D01*
X121685Y220964D01*
X121633Y220920D01*
X121598Y220876D01*
X121571Y220850D01*
X121563Y220841D01*
X121449Y220675D01*
X121397Y220588D01*
X121361Y220518D01*
X121335Y220448D01*
X121309Y220395D01*
X121300Y220352D01*
X121292Y220343D01*
X121239Y220125D01*
X121222Y220011D01*
X121213Y219915D01*
Y219827D01*
X121204Y219757D01*
Y219696D01*
X121213Y219530D01*
X121222Y219373D01*
X121239Y219233D01*
X121257Y219111D01*
X121274Y219015D01*
X121292Y218936D01*
X121309Y218892D01*
Y218875D01*
X121353Y218752D01*
X121397Y218630D01*
X121431Y218534D01*
X121466Y218446D01*
X121501Y218368D01*
X121528Y218315D01*
X121536Y218280D01*
X121545Y218272D01*
X121589Y218184D01*
X121641Y218097D01*
X121676Y218027D01*
X121711Y217974D01*
X121737Y217922D01*
X121764Y217887D01*
X121772Y217870D01*
X121781Y217861D01*
X121816Y217808D01*
X121851Y217756D01*
X121877Y217677D01*
X121895Y217634D01*
Y217581D01*
X121886Y217546D01*
X121877Y217529D01*
X121868Y217520D01*
X121842Y217494D01*
X121816Y217476D01*
X121790Y217467D01*
X121781Y217459D01*
X121737Y217441D01*
X121694Y217433D01*
X121659Y217424D01*
X121641D01*
X121571Y217415D01*
X121493D01*
X121440D01*
X121423D01*
X121414D01*
X121344D01*
X121283Y217424D01*
X121230D01*
X121178Y217433D01*
X121143D01*
X121117Y217441D01*
X121108D01*
X121099D01*
X121021Y217476D01*
X120959Y217511D01*
X120924Y217537D01*
X120907Y217546D01*
X120881Y217581D01*
X120846Y217625D01*
X120785Y217704D01*
X120758Y217747D01*
X120741Y217782D01*
X120732Y217800D01*
X120723Y217808D01*
X120645Y217957D01*
X120584Y218106D01*
X120549Y218167D01*
X120531Y218219D01*
X120522Y218254D01*
X120514Y218263D01*
X120444Y218481D01*
X120418Y218586D01*
X120391Y218682D01*
X120374Y218770D01*
X120356Y218831D01*
X120348Y218875D01*
Y218892D01*
X120304Y219163D01*
X120295Y219285D01*
X120287Y219408D01*
X120278Y219504D01*
Y219653D01*
X120287Y219871D01*
X120304Y220072D01*
X120330Y220256D01*
X120356Y220422D01*
X120383Y220553D01*
X120400Y220614D01*
X120409Y220658D01*
X120418Y220693D01*
X120426Y220719D01*
X120435Y220736D01*
Y220745D01*
X120496Y220929D01*
X120575Y221095D01*
X120654Y221243D01*
X120723Y221374D01*
X120793Y221479D01*
X120846Y221558D01*
X120881Y221602D01*
X120898Y221619D01*
X121021Y221750D01*
X121152Y221872D01*
X121274Y221969D01*
X121397Y222056D01*
X121501Y222117D01*
X121589Y222170D01*
X121615Y222187D01*
X121641Y222196D01*
X121650Y222205D01*
X121659D01*
X121834Y222274D01*
X122008Y222327D01*
X122174Y222371D01*
X122340Y222397D01*
X122471Y222414D01*
X122533D01*
X122585Y222423D01*
X122629D01*
X122655D01*
X122672D01*
X122681D01*
X122856Y222414D01*
D02*
G37*
G36*
X126064Y213832D02*
X126081D01*
X126142D01*
X126177D01*
X126204Y213823D01*
X126212D01*
X126265Y213806D01*
X126273Y213797D01*
X126282D01*
X126300Y213788D01*
X126317Y213771D01*
X126335Y213753D01*
Y213744D01*
X126361Y213709D01*
X126387Y213666D01*
X126396Y213631D01*
X126405Y213622D01*
Y213613D01*
X126431Y213543D01*
X126448Y213482D01*
X126457Y213430D01*
Y213412D01*
X126474Y213334D01*
X126483Y213264D01*
X126492Y213211D01*
Y213194D01*
X126501Y213124D01*
X126509Y213063D01*
Y213010D01*
X126501Y212879D01*
X126483Y212757D01*
X126474Y212713D01*
X126466Y212678D01*
X126457Y212652D01*
Y212643D01*
X126413Y212512D01*
X126361Y212398D01*
X126335Y212355D01*
X126308Y212320D01*
X126300Y212293D01*
X126291Y212285D01*
X126238Y212215D01*
X126186Y212145D01*
X126072Y212022D01*
X126029Y211970D01*
X125985Y211935D01*
X125959Y211909D01*
X125950Y211900D01*
X125863Y211822D01*
X125775Y211752D01*
X125688Y211673D01*
X125600Y211603D01*
X125522Y211550D01*
X125461Y211507D01*
X125417Y211472D01*
X125399Y211463D01*
X126221D01*
X126256D01*
X126282Y211454D01*
X126300Y211446D01*
X126308Y211437D01*
X126335Y211419D01*
X126352Y211393D01*
X126370Y211376D01*
Y211367D01*
X126387Y211323D01*
X126396Y211271D01*
X126405Y211236D01*
Y211218D01*
X126413Y211149D01*
X126422Y211079D01*
Y210904D01*
X126413Y210825D01*
X126405Y210781D01*
Y210764D01*
X126396Y210703D01*
X126387Y210659D01*
X126378Y210624D01*
X126370Y210615D01*
X126352Y210580D01*
X126326Y210563D01*
X126317Y210545D01*
X126308D01*
X126256Y210528D01*
X126230D01*
X126221D01*
X120557D01*
X120522D01*
X120496Y210537D01*
X120479Y210545D01*
X120470D01*
X120444Y210572D01*
X120426Y210598D01*
X120418Y210615D01*
X120409Y210624D01*
X120400Y210677D01*
X120391Y210729D01*
X120383Y210764D01*
Y210781D01*
X120374Y210869D01*
X120365Y210956D01*
Y211149D01*
X120374Y211227D01*
X120383Y211280D01*
Y211297D01*
X120391Y211367D01*
X120400Y211419D01*
X120409Y211446D01*
Y211454D01*
X120426Y211498D01*
X120453Y211524D01*
X120461Y211533D01*
X120470Y211542D01*
X120496Y211559D01*
X120531Y211568D01*
X120549D01*
X120557D01*
X124281D01*
X124403Y211647D01*
X124517Y211725D01*
X124621Y211787D01*
X124709Y211848D01*
X124770Y211891D01*
X124823Y211935D01*
X124857Y211953D01*
X124866Y211961D01*
X124954Y212031D01*
X125032Y212092D01*
X125093Y212154D01*
X125155Y212206D01*
X125190Y212250D01*
X125225Y212285D01*
X125242Y212302D01*
X125251Y212311D01*
X125347Y212433D01*
X125408Y212538D01*
X125434Y212582D01*
X125452Y212608D01*
X125461Y212626D01*
Y212634D01*
X125504Y212748D01*
X125522Y212844D01*
X125531Y212879D01*
Y213036D01*
X125522Y213115D01*
X125513Y213167D01*
X125504Y213176D01*
Y213185D01*
X125487Y213264D01*
X125461Y213325D01*
X125452Y213369D01*
X125443Y213386D01*
X125426Y213456D01*
X125408Y213508D01*
X125399Y213543D01*
X125391Y213552D01*
X125373Y213604D01*
X125364Y213648D01*
Y213683D01*
X125373Y213709D01*
X125382Y213736D01*
X125391Y213744D01*
Y213753D01*
X125417Y213779D01*
X125443Y213797D01*
X125461Y213806D01*
X125469D01*
X125522Y213814D01*
X125566Y213823D01*
X125600Y213832D01*
X125618D01*
X125697Y213840D01*
X125775D01*
X125801D01*
X125828D01*
X125845D01*
X125854D01*
X125950D01*
X126020D01*
X126064Y213832D01*
D02*
G37*
G36*
X124027Y208937D02*
X124220Y208920D01*
X124394Y208902D01*
X124552Y208876D01*
X124674Y208841D01*
X124726Y208832D01*
X124770Y208824D01*
X124814Y208815D01*
X124840Y208806D01*
X124849Y208797D01*
X124857D01*
X125032Y208736D01*
X125198Y208666D01*
X125338Y208596D01*
X125469Y208526D01*
X125566Y208457D01*
X125644Y208404D01*
X125688Y208369D01*
X125705Y208352D01*
X125836Y208229D01*
X125950Y208107D01*
X126055Y207976D01*
X126134Y207854D01*
X126204Y207749D01*
X126247Y207661D01*
X126265Y207626D01*
X126282Y207600D01*
X126291Y207591D01*
Y207583D01*
X126361Y207399D01*
X126413Y207207D01*
X126457Y207023D01*
X126483Y206840D01*
X126501Y206682D01*
Y206621D01*
X126509Y206560D01*
Y206446D01*
X126501Y206219D01*
X126474Y206009D01*
X126439Y205817D01*
X126405Y205651D01*
X126361Y205511D01*
X126343Y205459D01*
X126326Y205406D01*
X126308Y205371D01*
X126300Y205345D01*
X126291Y205328D01*
Y205319D01*
X126204Y205135D01*
X126099Y204978D01*
X125994Y204830D01*
X125898Y204707D01*
X125801Y204602D01*
X125732Y204524D01*
X125679Y204480D01*
X125670Y204471D01*
X125662Y204462D01*
X125504Y204340D01*
X125338Y204226D01*
X125172Y204139D01*
X125015Y204060D01*
X124884Y203999D01*
X124823Y203973D01*
X124770Y203956D01*
X124735Y203938D01*
X124700Y203929D01*
X124683Y203921D01*
X124674D01*
X124447Y203859D01*
X124220Y203816D01*
X124001Y203781D01*
X123800Y203763D01*
X123704Y203754D01*
X123625Y203746D01*
X123547D01*
X123485Y203737D01*
X123433D01*
X123398D01*
X123372D01*
X123363D01*
X123083Y203746D01*
X122830Y203763D01*
X122594Y203789D01*
X122489Y203807D01*
X122402Y203824D01*
X122314Y203842D01*
X122236Y203859D01*
X122166Y203868D01*
X122113Y203886D01*
X122070Y203894D01*
X122035Y203903D01*
X122017Y203912D01*
X122008D01*
X121799Y203990D01*
X121615Y204078D01*
X121449Y204165D01*
X121309Y204253D01*
X121195Y204331D01*
X121117Y204393D01*
X121064Y204436D01*
X121056Y204454D01*
X121047D01*
X120916Y204593D01*
X120793Y204742D01*
X120697Y204891D01*
X120619Y205030D01*
X120549Y205153D01*
X120505Y205249D01*
X120487Y205284D01*
X120479Y205310D01*
X120470Y205328D01*
Y205336D01*
X120409Y205546D01*
X120356Y205756D01*
X120322Y205957D01*
X120304Y206149D01*
X120295Y206237D01*
X120287Y206324D01*
Y206394D01*
X120278Y206455D01*
Y206717D01*
X120287Y206857D01*
X120295Y206979D01*
X120313Y207093D01*
X120322Y207189D01*
X120330Y207259D01*
X120339Y207303D01*
Y207320D01*
X120365Y207452D01*
X120383Y207574D01*
X120409Y207679D01*
X120426Y207766D01*
X120444Y207845D01*
X120461Y207906D01*
X120470Y207941D01*
Y207950D01*
X120496Y208046D01*
X120522Y208133D01*
X120549Y208203D01*
X120575Y208273D01*
X120592Y208317D01*
X120610Y208360D01*
X120619Y208378D01*
Y208387D01*
X120645Y208448D01*
X120671Y208491D01*
X120697Y208526D01*
X120706Y208561D01*
X120723Y208588D01*
X120732Y208596D01*
X120785Y208640D01*
X120793Y208649D01*
X120802D01*
X120863Y208675D01*
X120881Y208684D01*
X120890D01*
X120933Y208693D01*
X120968D01*
X120994Y208701D01*
X121003D01*
X121047Y208710D01*
X121099D01*
X121134D01*
X121143D01*
X121222D01*
X121283Y208701D01*
X121318Y208693D01*
X121335D01*
X121388Y208684D01*
X121423Y208675D01*
X121449Y208666D01*
X121458D01*
X121510Y208631D01*
X121519Y208623D01*
X121528Y208614D01*
X121545Y208588D01*
X121554Y208561D01*
Y208535D01*
X121545Y208465D01*
X121519Y208395D01*
X121510Y208360D01*
X121493Y208334D01*
X121484Y208317D01*
Y208308D01*
X121431Y208186D01*
X121388Y208063D01*
X121361Y208002D01*
X121353Y207967D01*
X121335Y207932D01*
Y207923D01*
X121283Y207740D01*
X121257Y207652D01*
X121230Y207565D01*
X121213Y207495D01*
X121195Y207434D01*
X121187Y207399D01*
Y207382D01*
X121152Y207137D01*
X121143Y207014D01*
X121134Y206910D01*
X121125Y206805D01*
Y206665D01*
X121134Y206481D01*
X121152Y206315D01*
X121169Y206158D01*
X121195Y206036D01*
X121222Y205931D01*
X121248Y205852D01*
X121257Y205808D01*
X121265Y205791D01*
X121327Y205668D01*
X121397Y205555D01*
X121458Y205459D01*
X121528Y205371D01*
X121589Y205301D01*
X121633Y205258D01*
X121667Y205223D01*
X121676Y205214D01*
X121781Y205135D01*
X121895Y205074D01*
X122000Y205022D01*
X122104Y204978D01*
X122192Y204943D01*
X122262Y204917D01*
X122305Y204908D01*
X122323Y204899D01*
X122620Y204847D01*
X122760Y204830D01*
X122900Y204821D01*
X123013D01*
X123101Y204812D01*
X123136D01*
X123162D01*
X123171D01*
X123179D01*
Y208535D01*
X123188Y208596D01*
X123197Y208649D01*
X123232Y208736D01*
X123249Y208771D01*
X123258Y208797D01*
X123276Y208806D01*
Y208815D01*
X123319Y208859D01*
X123372Y208894D01*
X123433Y208911D01*
X123494Y208928D01*
X123547Y208937D01*
X123582Y208946D01*
X123616D01*
X123625D01*
X123818D01*
X124027Y208937D01*
D02*
G37*
G36*
X126300Y202819D02*
X126308Y202811D01*
X126317Y202802D01*
X126343Y202784D01*
X126361Y202758D01*
X126378Y202741D01*
Y202732D01*
X126396Y202688D01*
X126405Y202636D01*
X126413Y202601D01*
Y202583D01*
X126422Y202505D01*
Y202234D01*
X126413Y202146D01*
X126405Y202094D01*
Y202076D01*
X126396Y202007D01*
X126387Y201954D01*
X126378Y201919D01*
X126370Y201910D01*
X126352Y201875D01*
X126335Y201840D01*
X126317Y201832D01*
X126308Y201823D01*
X126282Y201805D01*
X126247Y201788D01*
X126221Y201779D01*
X126212D01*
X121545Y200433D01*
X121493Y200425D01*
X121545Y200416D01*
X126230Y199061D01*
X126265Y199052D01*
X126291Y199044D01*
X126308Y199035D01*
X126317Y199026D01*
X126343Y199000D01*
X126361Y198974D01*
X126370Y198948D01*
Y198939D01*
X126387Y198895D01*
X126396Y198843D01*
X126405Y198808D01*
Y198790D01*
X126413Y198712D01*
X126422Y198624D01*
Y198432D01*
X126413Y198344D01*
X126405Y198292D01*
Y198275D01*
X126396Y198213D01*
X126387Y198161D01*
X126378Y198135D01*
X126370Y198126D01*
X126352Y198091D01*
X126335Y198065D01*
X126317Y198047D01*
X126308Y198038D01*
X126282Y198021D01*
X126247Y198012D01*
X126221Y198003D01*
X126212D01*
X121545Y196745D01*
X121493Y196736D01*
X121545Y196719D01*
X126212Y195355D01*
X126256Y195338D01*
X126282Y195329D01*
X126300Y195320D01*
X126308Y195312D01*
X126335Y195285D01*
X126352Y195259D01*
X126370Y195233D01*
Y195224D01*
X126387Y195180D01*
X126396Y195128D01*
X126405Y195084D01*
Y195067D01*
X126413Y194980D01*
X126422Y194892D01*
Y194604D01*
X126413Y194551D01*
Y194534D01*
X126405Y194473D01*
X126396Y194420D01*
X126387Y194385D01*
X126378Y194376D01*
X126361Y194342D01*
X126343Y194307D01*
X126335Y194298D01*
X126326Y194289D01*
X126273Y194272D01*
X126247D01*
X126238D01*
X126204D01*
X126169Y194280D01*
X126134D01*
X126125D01*
X126072Y194289D01*
X126020Y194307D01*
X125985Y194315D01*
X125976Y194324D01*
X125968D01*
X120584Y195976D01*
X120540Y195993D01*
X120505Y196020D01*
X120487Y196028D01*
X120479Y196037D01*
X120453Y196072D01*
X120426Y196107D01*
X120418Y196142D01*
X120409Y196151D01*
X120400Y196212D01*
X120391Y196282D01*
X120383Y196334D01*
Y196352D01*
X120374Y196457D01*
X120365Y196561D01*
Y196806D01*
X120374Y196902D01*
Y196937D01*
X120383Y196964D01*
Y196990D01*
X120391Y197077D01*
X120400Y197147D01*
X120409Y197182D01*
Y197199D01*
X120426Y197252D01*
X120444Y197296D01*
X120461Y197313D01*
X120470Y197322D01*
X120514Y197348D01*
X120549Y197365D01*
X120575Y197383D01*
X120584D01*
X124700Y198484D01*
X124761Y198502D01*
X124700Y198519D01*
X120584Y199708D01*
X120540Y199725D01*
X120505Y199743D01*
X120487Y199751D01*
X120479Y199760D01*
X120453Y199795D01*
X120426Y199830D01*
X120418Y199865D01*
X120409Y199874D01*
X120400Y199944D01*
X120391Y200005D01*
X120383Y200066D01*
Y200084D01*
X120374Y200197D01*
X120365Y200302D01*
Y200547D01*
X120374Y200599D01*
Y200678D01*
X120383Y200713D01*
Y200730D01*
X120391Y200809D01*
X120400Y200870D01*
X120409Y200914D01*
Y200923D01*
X120426Y200975D01*
X120444Y201010D01*
X120461Y201028D01*
X120470Y201036D01*
X120514Y201062D01*
X120549Y201089D01*
X120575Y201097D01*
X120584Y201106D01*
X125968Y202767D01*
X126029Y202793D01*
X126081Y202802D01*
X126116Y202811D01*
X126125D01*
X126169Y202819D01*
X126212Y202828D01*
X126230D01*
X126238D01*
X126273D01*
X126300Y202819D01*
D02*
G37*
G36*
X123713Y193363D02*
X123949Y193345D01*
X124167Y193319D01*
X124351Y193284D01*
X124438Y193266D01*
X124508Y193249D01*
X124569Y193240D01*
X124630Y193223D01*
X124665Y193214D01*
X124700Y193205D01*
X124718Y193196D01*
X124726D01*
X124927Y193127D01*
X125120Y193039D01*
X125277Y192952D01*
X125417Y192873D01*
X125531Y192795D01*
X125618Y192733D01*
X125670Y192690D01*
X125688Y192672D01*
X125828Y192541D01*
X125950Y192393D01*
X126055Y192253D01*
X126142Y192113D01*
X126212Y191990D01*
X126265Y191894D01*
X126282Y191859D01*
X126291Y191833D01*
X126300Y191816D01*
Y191807D01*
X126370Y191606D01*
X126422Y191396D01*
X126457Y191195D01*
X126483Y191003D01*
X126501Y190837D01*
Y190767D01*
X126509Y190706D01*
Y190592D01*
X126501Y190330D01*
X126474Y190085D01*
X126431Y189875D01*
X126396Y189683D01*
X126370Y189604D01*
X126352Y189534D01*
X126326Y189473D01*
X126308Y189421D01*
X126300Y189377D01*
X126282Y189351D01*
X126273Y189333D01*
Y189325D01*
X126177Y189132D01*
X126072Y188958D01*
X125959Y188800D01*
X125854Y188669D01*
X125767Y188564D01*
X125688Y188486D01*
X125635Y188442D01*
X125627Y188433D01*
X125618Y188425D01*
X125452Y188302D01*
X125286Y188189D01*
X125120Y188092D01*
X124962Y188022D01*
X124823Y187961D01*
X124761Y187935D01*
X124709Y187918D01*
X124674Y187900D01*
X124639Y187891D01*
X124621Y187883D01*
X124613D01*
X124394Y187821D01*
X124167Y187778D01*
X123949Y187751D01*
X123756Y187734D01*
X123669Y187725D01*
X123590Y187717D01*
X123512D01*
X123450Y187708D01*
X123407D01*
X123372D01*
X123345D01*
X123337D01*
X123075Y187717D01*
X122830Y187734D01*
X122611Y187760D01*
X122428Y187795D01*
X122340Y187804D01*
X122271Y187821D01*
X122209Y187839D01*
X122148Y187848D01*
X122113Y187856D01*
X122078Y187865D01*
X122061Y187874D01*
X122052D01*
X121851Y187944D01*
X121659Y188022D01*
X121493Y188110D01*
X121353Y188197D01*
X121239Y188267D01*
X121152Y188328D01*
X121099Y188372D01*
X121091Y188390D01*
X121082D01*
X120942Y188529D01*
X120820Y188669D01*
X120715Y188818D01*
X120636Y188958D01*
X120566Y189071D01*
X120514Y189167D01*
X120505Y189202D01*
X120487Y189229D01*
X120479Y189246D01*
Y189255D01*
X120409Y189456D01*
X120365Y189666D01*
X120330Y189867D01*
X120304Y190059D01*
X120287Y190225D01*
Y190295D01*
X120278Y190356D01*
Y190470D01*
X120287Y190732D01*
X120313Y190968D01*
X120356Y191186D01*
X120400Y191370D01*
X120418Y191448D01*
X120435Y191518D01*
X120461Y191580D01*
X120479Y191632D01*
X120496Y191676D01*
X120505Y191702D01*
X120514Y191719D01*
Y191728D01*
X120610Y191929D01*
X120715Y192104D01*
X120828Y192261D01*
X120933Y192393D01*
X121021Y192497D01*
X121099Y192576D01*
X121152Y192620D01*
X121160Y192637D01*
X121169D01*
X121335Y192768D01*
X121501Y192882D01*
X121676Y192969D01*
X121834Y193048D01*
X121965Y193109D01*
X122026Y193135D01*
X122078Y193153D01*
X122122Y193170D01*
X122148Y193179D01*
X122166Y193188D01*
X122174D01*
X122402Y193249D01*
X122620Y193293D01*
X122839Y193328D01*
X123031Y193345D01*
X123118Y193354D01*
X123206Y193363D01*
X123276D01*
X123337Y193371D01*
X123380D01*
X123424D01*
X123442D01*
X123450D01*
X123713Y193363D01*
D02*
G37*
G36*
X126326Y186563D02*
X126483Y186554D01*
X126623Y186528D01*
X126745Y186510D01*
X126850Y186484D01*
X126929Y186458D01*
X126973Y186449D01*
X126990Y186441D01*
X127130Y186388D01*
X127261Y186327D01*
X127375Y186266D01*
X127471Y186205D01*
X127549Y186152D01*
X127611Y186108D01*
X127654Y186073D01*
X127663Y186065D01*
X127768Y185969D01*
X127864Y185872D01*
X127952Y185776D01*
X128021Y185689D01*
X128074Y185610D01*
X128118Y185549D01*
X128144Y185505D01*
X128153Y185488D01*
X128222Y185365D01*
X128284Y185243D01*
X128327Y185129D01*
X128362Y185025D01*
X128389Y184937D01*
X128406Y184876D01*
X128423Y184832D01*
Y184815D01*
X128450Y184693D01*
X128467Y184588D01*
X128485Y184483D01*
X128502Y184404D01*
X128511Y184334D01*
Y184282D01*
X128520Y184247D01*
Y184238D01*
X128537Y184055D01*
Y183967D01*
X128546Y183897D01*
Y181992D01*
X128537Y181931D01*
X128528Y181878D01*
X128493Y181782D01*
X128467Y181747D01*
X128450Y181721D01*
X128441Y181703D01*
X128432Y181695D01*
X128389Y181651D01*
X128336Y181616D01*
X128275Y181599D01*
X128214Y181581D01*
X128161Y181572D01*
X128118Y181564D01*
X128083D01*
X128074D01*
X120566D01*
X120531D01*
X120496Y181572D01*
X120479Y181581D01*
X120470D01*
X120444Y181607D01*
X120435Y181633D01*
X120418Y181660D01*
Y181668D01*
X120409Y181721D01*
X120391Y181782D01*
X120383Y181817D01*
Y181834D01*
X120374Y181922D01*
X120365Y182009D01*
Y182210D01*
X120374Y182289D01*
X120383Y182342D01*
Y182359D01*
X120400Y182429D01*
X120409Y182481D01*
X120418Y182516D01*
Y182525D01*
X120435Y182569D01*
X120453Y182595D01*
X120461Y182604D01*
X120470Y182612D01*
X120505Y182630D01*
X120531Y182647D01*
X120557D01*
X120566D01*
X123503D01*
Y183565D01*
X123512Y183836D01*
X123529Y184090D01*
X123564Y184308D01*
X123582Y184413D01*
X123599Y184500D01*
X123608Y184588D01*
X123625Y184658D01*
X123643Y184719D01*
X123660Y184771D01*
X123669Y184815D01*
X123678Y184841D01*
X123686Y184859D01*
Y184867D01*
X123765Y185068D01*
X123852Y185243D01*
X123940Y185400D01*
X124027Y185532D01*
X124106Y185636D01*
X124167Y185715D01*
X124202Y185767D01*
X124220Y185785D01*
X124359Y185916D01*
X124499Y186030D01*
X124639Y186135D01*
X124770Y186213D01*
X124884Y186275D01*
X124980Y186327D01*
X125015Y186344D01*
X125041Y186353D01*
X125050Y186362D01*
X125058D01*
X125251Y186432D01*
X125434Y186484D01*
X125627Y186519D01*
X125793Y186545D01*
X125941Y186563D01*
X126003D01*
X126055Y186572D01*
X126099D01*
X126134D01*
X126151D01*
X126160D01*
X126326Y186563D01*
D02*
G37*
G36*
X172860Y186110D02*
X172958Y186097D01*
X173050Y186084D01*
X173135Y186065D01*
X173201Y186038D01*
X173247Y186025D01*
X173280Y186012D01*
X173293Y186005D01*
X173385Y185966D01*
X173470Y185914D01*
X173549Y185868D01*
X173614Y185822D01*
X173667Y185776D01*
X173706Y185743D01*
X173732Y185717D01*
X173739Y185710D01*
X173805Y185638D01*
X173870Y185559D01*
X173923Y185481D01*
X173969Y185415D01*
X174001Y185350D01*
X174034Y185303D01*
X174047Y185271D01*
X174054Y185258D01*
X174100Y185159D01*
X174133Y185061D01*
X174159Y184962D01*
X174179Y184871D01*
X174192Y184798D01*
X174205Y184733D01*
X174211Y184694D01*
Y184680D01*
X174224D01*
X174251Y184785D01*
X174277Y184877D01*
X174303Y184962D01*
X174336Y185035D01*
X174362Y185094D01*
X174389Y185133D01*
X174402Y185166D01*
X174408Y185172D01*
X174461Y185251D01*
X174520Y185323D01*
X174572Y185382D01*
X174625Y185435D01*
X174671Y185474D01*
X174703Y185507D01*
X174730Y185527D01*
X174736Y185533D01*
X174887Y185632D01*
X174959Y185664D01*
X175025Y185697D01*
X175084Y185723D01*
X175136Y185743D01*
X175162Y185750D01*
X175176Y185756D01*
X175268Y185782D01*
X175366Y185802D01*
X175458Y185815D01*
X175537Y185828D01*
X175609D01*
X175668Y185835D01*
X175700D01*
X175714D01*
X175838Y185828D01*
X175950Y185815D01*
X176055Y185802D01*
X176146Y185782D01*
X176219Y185756D01*
X176278Y185743D01*
X176311Y185730D01*
X176324Y185723D01*
X176422Y185678D01*
X176514Y185632D01*
X176593Y185573D01*
X176665Y185527D01*
X176717Y185474D01*
X176763Y185435D01*
X176789Y185408D01*
X176796Y185402D01*
X176868Y185317D01*
X176927Y185231D01*
X176980Y185140D01*
X177026Y185061D01*
X177058Y184982D01*
X177085Y184923D01*
X177098Y184884D01*
X177104Y184877D01*
Y184871D01*
X177144Y184746D01*
X177170Y184621D01*
X177190Y184490D01*
X177203Y184379D01*
X177209Y184274D01*
X177216Y184234D01*
Y184011D01*
X177209Y183906D01*
X177196Y183814D01*
X177190Y183729D01*
X177176Y183657D01*
X177163Y183605D01*
X177157Y183572D01*
Y183559D01*
X177137Y183460D01*
X177111Y183375D01*
X177085Y183296D01*
X177065Y183231D01*
X177045Y183171D01*
X177026Y183132D01*
X177019Y183099D01*
X177013Y183093D01*
X176986Y183021D01*
X176953Y182955D01*
X176927Y182896D01*
X176901Y182843D01*
X176881Y182804D01*
X176862Y182778D01*
X176855Y182758D01*
X176848Y182752D01*
X176816Y182706D01*
X176789Y182666D01*
X176770Y182640D01*
X176750Y182614D01*
X176724Y182581D01*
X176717Y182575D01*
X176691Y182548D01*
X176665Y182522D01*
X176652Y182516D01*
X176645Y182509D01*
X176593Y182483D01*
X176573Y182476D01*
X176566D01*
X176534Y182470D01*
X176507Y182463D01*
X176481Y182457D01*
X176474D01*
X176435D01*
X176396D01*
X176363D01*
X176356D01*
X176350D01*
X176278D01*
X176225Y182463D01*
X176192D01*
X176179D01*
X176140Y182470D01*
X176107Y182476D01*
X176087Y182483D01*
X176081D01*
X176061Y182496D01*
X176048Y182516D01*
X176035Y182522D01*
Y182529D01*
X176029Y182568D01*
Y182588D01*
X176035Y182607D01*
X176042Y182634D01*
X176068Y182686D01*
X176081Y182712D01*
X176094Y182732D01*
X176107Y182745D01*
Y182752D01*
X176173Y182850D01*
X176225Y182942D01*
X176251Y182988D01*
X176271Y183021D01*
X176278Y183040D01*
X176284Y183047D01*
X176350Y183185D01*
X176383Y183257D01*
X176409Y183316D01*
X176429Y183375D01*
X176448Y183414D01*
X176455Y183440D01*
X176461Y183454D01*
X176488Y183539D01*
X176514Y183631D01*
X176527Y183716D01*
X176534Y183795D01*
X176540Y183860D01*
X176547Y183913D01*
Y184051D01*
X176534Y184136D01*
X176521Y184208D01*
X176507Y184274D01*
X176494Y184326D01*
X176481Y184365D01*
X176474Y184392D01*
X176468Y184398D01*
X176442Y184464D01*
X176409Y184529D01*
X176370Y184582D01*
X176337Y184628D01*
X176311Y184661D01*
X176284Y184694D01*
X176271Y184707D01*
X176265Y184713D01*
X176166Y184792D01*
X176068Y184851D01*
X176029Y184871D01*
X175996Y184884D01*
X175976Y184897D01*
X175969D01*
X175838Y184936D01*
X175779Y184949D01*
X175727Y184956D01*
X175681Y184962D01*
X175641D01*
X175615D01*
X175609D01*
X175510Y184956D01*
X175425Y184949D01*
X175346Y184930D01*
X175274Y184916D01*
X175215Y184897D01*
X175176Y184877D01*
X175143Y184871D01*
X175136Y184864D01*
X175058Y184825D01*
X174992Y184785D01*
X174933Y184739D01*
X174881Y184700D01*
X174835Y184661D01*
X174802Y184628D01*
X174782Y184608D01*
X174776Y184602D01*
X174723Y184536D01*
X174677Y184464D01*
X174638Y184392D01*
X174605Y184326D01*
X174579Y184267D01*
X174559Y184221D01*
X174553Y184195D01*
X174546Y184182D01*
X174520Y184083D01*
X174500Y183992D01*
X174487Y183893D01*
X174480Y183808D01*
X174474Y183736D01*
X174467Y183677D01*
Y183060D01*
X174461Y183034D01*
X174454Y183021D01*
X174448Y183014D01*
X174415Y182975D01*
X174402Y182962D01*
X174395Y182955D01*
X174369Y182935D01*
X174336Y182929D01*
X174316Y182916D01*
X174303D01*
X174257Y182909D01*
X174205Y182903D01*
X174165D01*
X174159D01*
X174152D01*
X174087D01*
X174034Y182909D01*
X174001Y182916D01*
X173988D01*
X173949Y182929D01*
X173916Y182949D01*
X173897Y182955D01*
X173890Y182962D01*
X173851Y183001D01*
X173844Y183014D01*
X173837Y183021D01*
X173831Y183047D01*
X173824Y183073D01*
Y183696D01*
X173818Y183834D01*
X173811Y183965D01*
X173798Y184077D01*
X173785Y184175D01*
X173765Y184260D01*
X173752Y184319D01*
X173746Y184359D01*
X173739Y184372D01*
X173706Y184477D01*
X173673Y184575D01*
X173634Y184661D01*
X173595Y184733D01*
X173562Y184792D01*
X173536Y184831D01*
X173516Y184864D01*
X173509Y184871D01*
X173450Y184943D01*
X173391Y185002D01*
X173332Y185061D01*
X173273Y185100D01*
X173221Y185133D01*
X173181Y185159D01*
X173155Y185172D01*
X173149Y185179D01*
X173070Y185212D01*
X172985Y185238D01*
X172906Y185258D01*
X172834Y185271D01*
X172768Y185277D01*
X172722Y185284D01*
X172689D01*
X172676D01*
X172591Y185277D01*
X172506Y185271D01*
X172434Y185258D01*
X172368Y185245D01*
X172316Y185225D01*
X172270Y185212D01*
X172243Y185205D01*
X172237Y185199D01*
X172165Y185166D01*
X172099Y185126D01*
X172040Y185081D01*
X171987Y185041D01*
X171948Y185008D01*
X171915Y184976D01*
X171896Y184956D01*
X171889Y184949D01*
X171837Y184884D01*
X171791Y184818D01*
X171758Y184746D01*
X171725Y184687D01*
X171699Y184628D01*
X171679Y184582D01*
X171673Y184556D01*
X171666Y184543D01*
X171640Y184451D01*
X171620Y184352D01*
X171607Y184260D01*
X171600Y184175D01*
X171594Y184097D01*
X171587Y184037D01*
Y183985D01*
X171594Y183860D01*
X171600Y183749D01*
X171614Y183650D01*
X171627Y183559D01*
X171640Y183486D01*
X171646Y183427D01*
X171660Y183395D01*
Y183381D01*
X171692Y183283D01*
X171719Y183191D01*
X171745Y183113D01*
X171771Y183047D01*
X171791Y182988D01*
X171810Y182949D01*
X171817Y182916D01*
X171824Y182909D01*
X171856Y182837D01*
X171882Y182778D01*
X171915Y182719D01*
X171935Y182673D01*
X171961Y182634D01*
X171974Y182607D01*
X171981Y182588D01*
X171987Y182581D01*
X172014Y182535D01*
X172033Y182502D01*
X172046Y182470D01*
X172060Y182450D01*
X172066Y182417D01*
Y182391D01*
X172053Y182371D01*
X172033Y182345D01*
X172007Y182325D01*
X172001Y182319D01*
X171994D01*
X171968Y182306D01*
X171929Y182299D01*
X171850Y182292D01*
X171817Y182286D01*
X171784D01*
X171765D01*
X171758D01*
X171692D01*
X171633Y182292D01*
X171600D01*
X171594D01*
X171587D01*
X171541Y182299D01*
X171509Y182306D01*
X171482Y182312D01*
X171476D01*
X171443Y182325D01*
X171417Y182332D01*
X171404Y182345D01*
X171397D01*
X171351Y182378D01*
X171338Y182391D01*
X171332Y182397D01*
X171318Y182417D01*
X171299Y182443D01*
X171266Y182496D01*
X171253Y182522D01*
X171240Y182548D01*
X171233Y182562D01*
X171227Y182568D01*
X171200Y182621D01*
X171174Y182679D01*
X171128Y182791D01*
X171108Y182843D01*
X171095Y182883D01*
X171089Y182909D01*
X171082Y182916D01*
X171036Y183080D01*
X171017Y183158D01*
X171003Y183231D01*
X170990Y183296D01*
X170977Y183342D01*
X170971Y183375D01*
Y183388D01*
X170938Y183591D01*
X170931Y183690D01*
X170925Y183775D01*
X170918Y183854D01*
Y183965D01*
X170925Y184149D01*
X170938Y184319D01*
X170958Y184477D01*
X170984Y184608D01*
X170990Y184667D01*
X171003Y184720D01*
X171017Y184766D01*
X171023Y184798D01*
X171030Y184831D01*
X171036Y184851D01*
X171043Y184864D01*
Y184871D01*
X171095Y185015D01*
X171154Y185146D01*
X171220Y185258D01*
X171279Y185356D01*
X171332Y185441D01*
X171377Y185500D01*
X171404Y185533D01*
X171417Y185546D01*
X171509Y185645D01*
X171607Y185730D01*
X171705Y185802D01*
X171797Y185861D01*
X171876Y185907D01*
X171935Y185940D01*
X171961Y185953D01*
X171981Y185959D01*
X171987Y185966D01*
X171994D01*
X172125Y186019D01*
X172257Y186051D01*
X172388Y186078D01*
X172506Y186097D01*
X172604Y186110D01*
X172650D01*
X172683Y186117D01*
X172716D01*
X172735D01*
X172748D01*
X172755D01*
X172860Y186110D01*
D02*
G37*
G36*
X171463Y181249D02*
X171489Y181243D01*
X171502D01*
X171548Y181230D01*
X171581Y181217D01*
X171600Y181210D01*
X171607Y181203D01*
X171640Y181184D01*
X171660Y181164D01*
X171666Y181144D01*
X171673Y181138D01*
X171686Y181112D01*
X171699Y181092D01*
Y178416D01*
X172709Y179380D01*
X172906Y179570D01*
X173083Y179734D01*
X173247Y179878D01*
X173385Y179997D01*
X173450Y180049D01*
X173503Y180095D01*
X173549Y180128D01*
X173588Y180160D01*
X173621Y180187D01*
X173641Y180206D01*
X173654Y180213D01*
X173660Y180219D01*
X173811Y180331D01*
X173949Y180429D01*
X174080Y180515D01*
X174192Y180580D01*
X174284Y180639D01*
X174349Y180672D01*
X174375Y180685D01*
X174395Y180698D01*
X174402Y180705D01*
X174408D01*
X174533Y180764D01*
X174651Y180810D01*
X174756Y180849D01*
X174854Y180882D01*
X174926Y180902D01*
X174985Y180915D01*
X175025Y180928D01*
X175038D01*
X175149Y180948D01*
X175254Y180961D01*
X175353Y180967D01*
X175438Y180974D01*
X175517Y180981D01*
X175569D01*
X175609D01*
X175622D01*
X175740Y180974D01*
X175858Y180961D01*
X175963Y180948D01*
X176055Y180928D01*
X176127Y180902D01*
X176186Y180889D01*
X176225Y180876D01*
X176238Y180869D01*
X176343Y180823D01*
X176442Y180771D01*
X176527Y180711D01*
X176599Y180659D01*
X176658Y180613D01*
X176704Y180574D01*
X176737Y180547D01*
X176743Y180534D01*
X176822Y180449D01*
X176888Y180357D01*
X176947Y180265D01*
X176993Y180180D01*
X177032Y180102D01*
X177065Y180042D01*
X177078Y179997D01*
X177085Y179990D01*
Y179983D01*
X177130Y179859D01*
X177163Y179727D01*
X177183Y179596D01*
X177203Y179472D01*
X177209Y179367D01*
Y179321D01*
X177216Y179281D01*
Y179104D01*
X177209Y179006D01*
X177196Y178914D01*
X177190Y178835D01*
X177176Y178770D01*
X177163Y178717D01*
X177157Y178684D01*
Y178671D01*
X177137Y178579D01*
X177111Y178494D01*
X177085Y178416D01*
X177065Y178350D01*
X177045Y178291D01*
X177026Y178252D01*
X177019Y178219D01*
X177013Y178212D01*
X176986Y178140D01*
X176953Y178068D01*
X176927Y178009D01*
X176901Y177963D01*
X176881Y177917D01*
X176862Y177891D01*
X176855Y177871D01*
X176848Y177865D01*
X176816Y177819D01*
X176789Y177773D01*
X176770Y177740D01*
X176750Y177714D01*
X176717Y177681D01*
X176711Y177668D01*
X176678Y177628D01*
X176652Y177609D01*
X176638Y177595D01*
X176632Y177589D01*
X176586Y177569D01*
X176566Y177563D01*
X176560D01*
X176534Y177556D01*
X176507Y177550D01*
X176481Y177543D01*
X176474D01*
X176435D01*
X176396D01*
X176363D01*
X176356D01*
X176350D01*
X176284D01*
X176225Y177550D01*
X176192D01*
X176186D01*
X176179D01*
X176133Y177556D01*
X176094Y177563D01*
X176068Y177576D01*
X176061D01*
X176035Y177589D01*
X176015Y177609D01*
X176009Y177615D01*
X176002Y177622D01*
X175989Y177661D01*
Y177681D01*
X175996Y177707D01*
X176002Y177733D01*
X176029Y177792D01*
X176042Y177819D01*
X176055Y177838D01*
X176068Y177851D01*
Y177858D01*
X176127Y177956D01*
X176186Y178048D01*
X176206Y178094D01*
X176225Y178127D01*
X176232Y178147D01*
X176238Y178153D01*
X176311Y178297D01*
X176337Y178370D01*
X176363Y178435D01*
X176383Y178488D01*
X176402Y178534D01*
X176409Y178560D01*
X176416Y178573D01*
X176442Y178665D01*
X176468Y178757D01*
X176481Y178842D01*
X176488Y178927D01*
X176494Y178999D01*
X176501Y179052D01*
Y179104D01*
X176494Y179196D01*
X176488Y179281D01*
X176474Y179360D01*
X176461Y179426D01*
X176442Y179478D01*
X176429Y179518D01*
X176422Y179544D01*
X176416Y179550D01*
X176383Y179623D01*
X176350Y179688D01*
X176311Y179741D01*
X176278Y179787D01*
X176245Y179826D01*
X176225Y179852D01*
X176206Y179872D01*
X176199Y179878D01*
X176094Y179964D01*
X175989Y180029D01*
X175943Y180049D01*
X175910Y180062D01*
X175884Y180075D01*
X175878D01*
X175805Y180102D01*
X175740Y180115D01*
X175674Y180128D01*
X175615Y180141D01*
X175563D01*
X175523Y180147D01*
X175497D01*
X175490D01*
X175340Y180141D01*
X175268Y180134D01*
X175195Y180128D01*
X175143Y180115D01*
X175097Y180108D01*
X175071Y180102D01*
X175058D01*
X174972Y180082D01*
X174881Y180055D01*
X174795Y180023D01*
X174710Y179990D01*
X174644Y179964D01*
X174585Y179938D01*
X174553Y179924D01*
X174546Y179918D01*
X174539D01*
X174434Y179859D01*
X174323Y179800D01*
X174218Y179734D01*
X174119Y179668D01*
X174034Y179610D01*
X173969Y179563D01*
X173942Y179550D01*
X173923Y179537D01*
X173916Y179524D01*
X173910D01*
X173778Y179419D01*
X173647Y179308D01*
X173516Y179196D01*
X173398Y179085D01*
X173293Y178993D01*
X173247Y178947D01*
X173208Y178914D01*
X173175Y178881D01*
X173155Y178862D01*
X173142Y178849D01*
X173135Y178842D01*
X171876Y177622D01*
X171830Y177582D01*
X171797Y177550D01*
X171771Y177530D01*
X171758Y177523D01*
X171719Y177504D01*
X171686Y177484D01*
X171660Y177471D01*
X171646Y177464D01*
X171607Y177451D01*
X171568Y177445D01*
X171535Y177438D01*
X171528D01*
X171522D01*
X171469Y177431D01*
X171417D01*
X171377D01*
X171364D01*
X171358D01*
X171292D01*
X171233Y177438D01*
X171200Y177445D01*
X171194D01*
X171187D01*
X171141Y177464D01*
X171102Y177478D01*
X171082Y177491D01*
X171076Y177497D01*
X171036Y177550D01*
X171030Y177569D01*
X171023Y177576D01*
X171017Y177615D01*
X171010Y177661D01*
Y181072D01*
X171017Y181105D01*
X171023Y181131D01*
X171030Y181144D01*
Y181151D01*
X171049Y181171D01*
X171069Y181190D01*
X171089Y181197D01*
X171095Y181203D01*
X171135Y181223D01*
X171168Y181236D01*
X171194Y181243D01*
X171207D01*
X171259Y181249D01*
X171305Y181256D01*
X171345D01*
X171351D01*
X171358D01*
X171417D01*
X171463Y181249D01*
D02*
G37*
G36*
X174356Y176552D02*
X174605Y176546D01*
X174723Y176533D01*
X174835Y176526D01*
X174940Y176520D01*
X175031Y176507D01*
X175117Y176500D01*
X175195Y176487D01*
X175261Y176480D01*
X175313Y176474D01*
X175359Y176467D01*
X175392Y176461D01*
X175412Y176454D01*
X175418D01*
X175628Y176408D01*
X175819Y176362D01*
X175989Y176303D01*
X176061Y176277D01*
X176127Y176244D01*
X176192Y176218D01*
X176245Y176198D01*
X176291Y176172D01*
X176330Y176152D01*
X176363Y176139D01*
X176383Y176126D01*
X176396Y176113D01*
X176402D01*
X176540Y176015D01*
X176665Y175910D01*
X176770Y175805D01*
X176855Y175706D01*
X176921Y175614D01*
X176967Y175542D01*
X176986Y175516D01*
X176999Y175496D01*
X177006Y175483D01*
Y175477D01*
X177078Y175319D01*
X177130Y175155D01*
X177163Y174998D01*
X177190Y174840D01*
X177196Y174768D01*
X177203Y174703D01*
X177209Y174650D01*
X177216Y174598D01*
Y174499D01*
X177209Y174283D01*
X177183Y174086D01*
X177144Y173909D01*
X177124Y173830D01*
X177104Y173765D01*
X177078Y173699D01*
X177058Y173640D01*
X177039Y173594D01*
X177026Y173548D01*
X177006Y173522D01*
X176999Y173495D01*
X176986Y173482D01*
Y173476D01*
X176894Y173331D01*
X176789Y173200D01*
X176678Y173082D01*
X176573Y172984D01*
X176481Y172912D01*
X176409Y172853D01*
X176376Y172833D01*
X176356Y172820D01*
X176343Y172807D01*
X176337D01*
X176173Y172715D01*
X176002Y172643D01*
X175832Y172577D01*
X175681Y172525D01*
X175609Y172505D01*
X175543Y172485D01*
X175484Y172472D01*
X175432Y172459D01*
X175392Y172452D01*
X175359Y172446D01*
X175340Y172439D01*
X175333D01*
X175110Y172400D01*
X174887Y172374D01*
X174671Y172354D01*
X174566Y172347D01*
X174474Y172341D01*
X174382Y172334D01*
X174303D01*
X174231D01*
X174165Y172328D01*
X174113D01*
X174080D01*
X174054D01*
X174047D01*
X173772Y172334D01*
X173522Y172341D01*
X173405Y172354D01*
X173293Y172361D01*
X173188Y172367D01*
X173096Y172380D01*
X173011Y172387D01*
X172932Y172394D01*
X172866Y172407D01*
X172814Y172413D01*
X172768Y172420D01*
X172735D01*
X172716Y172426D01*
X172709D01*
X172499Y172472D01*
X172309Y172518D01*
X172138Y172577D01*
X172066Y172603D01*
X172001Y172636D01*
X171935Y172662D01*
X171882Y172689D01*
X171837Y172708D01*
X171797Y172728D01*
X171765Y172748D01*
X171745Y172754D01*
X171732Y172767D01*
X171725D01*
X171587Y172866D01*
X171463Y172971D01*
X171358Y173076D01*
X171273Y173174D01*
X171207Y173266D01*
X171161Y173338D01*
X171141Y173364D01*
X171128Y173384D01*
X171122Y173397D01*
Y173404D01*
X171056Y173561D01*
X171003Y173719D01*
X170971Y173883D01*
X170944Y174040D01*
X170938Y174106D01*
X170931Y174171D01*
X170925Y174230D01*
Y174276D01*
X170918Y174322D01*
Y174375D01*
X170925Y174591D01*
X170951Y174794D01*
X170990Y174965D01*
X171010Y175044D01*
X171030Y175116D01*
X171049Y175181D01*
X171069Y175234D01*
X171089Y175286D01*
X171108Y175326D01*
X171122Y175359D01*
X171135Y175378D01*
X171141Y175391D01*
Y175398D01*
X171233Y175549D01*
X171338Y175680D01*
X171450Y175798D01*
X171555Y175897D01*
X171646Y175969D01*
X171719Y176028D01*
X171751Y176047D01*
X171771Y176060D01*
X171784Y176074D01*
X171791D01*
X171955Y176165D01*
X172125Y176244D01*
X172289Y176310D01*
X172447Y176362D01*
X172519Y176382D01*
X172584Y176402D01*
X172643Y176415D01*
X172689Y176428D01*
X172729Y176434D01*
X172762Y176441D01*
X172781Y176447D01*
X172788D01*
X173011Y176487D01*
X173234Y176513D01*
X173450Y176533D01*
X173555Y176539D01*
X173654Y176546D01*
X173746Y176552D01*
X173824D01*
X173897Y176559D01*
X173962D01*
X174008D01*
X174047D01*
X174074D01*
X174080D01*
X174356Y176552D01*
D02*
G37*
G36*
X171463Y171436D02*
X171489Y171429D01*
X171502D01*
X171548Y171416D01*
X171581Y171403D01*
X171600Y171396D01*
X171607Y171390D01*
X171640Y171370D01*
X171660Y171350D01*
X171666Y171331D01*
X171673Y171324D01*
X171686Y171298D01*
X171699Y171278D01*
Y168602D01*
X172709Y169566D01*
X172906Y169756D01*
X173083Y169920D01*
X173247Y170065D01*
X173385Y170183D01*
X173450Y170235D01*
X173503Y170281D01*
X173549Y170314D01*
X173588Y170347D01*
X173621Y170373D01*
X173641Y170393D01*
X173654Y170399D01*
X173660Y170406D01*
X173811Y170517D01*
X173949Y170616D01*
X174080Y170701D01*
X174192Y170767D01*
X174284Y170826D01*
X174349Y170858D01*
X174375Y170871D01*
X174395Y170885D01*
X174402Y170891D01*
X174408D01*
X174533Y170950D01*
X174651Y170996D01*
X174756Y171036D01*
X174854Y171068D01*
X174926Y171088D01*
X174985Y171101D01*
X175025Y171114D01*
X175038D01*
X175149Y171134D01*
X175254Y171147D01*
X175353Y171154D01*
X175438Y171160D01*
X175517Y171167D01*
X175569D01*
X175609D01*
X175622D01*
X175740Y171160D01*
X175858Y171147D01*
X175963Y171134D01*
X176055Y171114D01*
X176127Y171088D01*
X176186Y171075D01*
X176225Y171062D01*
X176238Y171055D01*
X176343Y171009D01*
X176442Y170957D01*
X176527Y170898D01*
X176599Y170845D01*
X176658Y170799D01*
X176704Y170760D01*
X176737Y170734D01*
X176743Y170721D01*
X176822Y170635D01*
X176888Y170544D01*
X176947Y170452D01*
X176993Y170366D01*
X177032Y170288D01*
X177065Y170229D01*
X177078Y170183D01*
X177085Y170176D01*
Y170170D01*
X177130Y170045D01*
X177163Y169914D01*
X177183Y169783D01*
X177203Y169658D01*
X177209Y169553D01*
Y169507D01*
X177216Y169468D01*
Y169291D01*
X177209Y169192D01*
X177196Y169100D01*
X177190Y169022D01*
X177176Y168956D01*
X177163Y168904D01*
X177157Y168871D01*
Y168858D01*
X177137Y168766D01*
X177111Y168681D01*
X177085Y168602D01*
X177065Y168536D01*
X177045Y168477D01*
X177026Y168438D01*
X177019Y168405D01*
X177013Y168398D01*
X176986Y168326D01*
X176953Y168254D01*
X176927Y168195D01*
X176901Y168149D01*
X176881Y168103D01*
X176862Y168077D01*
X176855Y168057D01*
X176848Y168051D01*
X176816Y168005D01*
X176789Y167959D01*
X176770Y167926D01*
X176750Y167900D01*
X176717Y167867D01*
X176711Y167854D01*
X176678Y167815D01*
X176652Y167795D01*
X176638Y167782D01*
X176632Y167775D01*
X176586Y167755D01*
X176566Y167749D01*
X176560D01*
X176534Y167742D01*
X176507Y167736D01*
X176481Y167729D01*
X176474D01*
X176435D01*
X176396D01*
X176363D01*
X176356D01*
X176350D01*
X176284D01*
X176225Y167736D01*
X176192D01*
X176186D01*
X176179D01*
X176133Y167742D01*
X176094Y167749D01*
X176068Y167762D01*
X176061D01*
X176035Y167775D01*
X176015Y167795D01*
X176009Y167801D01*
X176002Y167808D01*
X175989Y167847D01*
Y167867D01*
X175996Y167893D01*
X176002Y167920D01*
X176029Y167979D01*
X176042Y168005D01*
X176055Y168025D01*
X176068Y168038D01*
Y168044D01*
X176127Y168143D01*
X176186Y168234D01*
X176206Y168280D01*
X176225Y168313D01*
X176232Y168333D01*
X176238Y168339D01*
X176311Y168484D01*
X176337Y168556D01*
X176363Y168622D01*
X176383Y168674D01*
X176402Y168720D01*
X176409Y168746D01*
X176416Y168759D01*
X176442Y168851D01*
X176468Y168943D01*
X176481Y169028D01*
X176488Y169114D01*
X176494Y169186D01*
X176501Y169238D01*
Y169291D01*
X176494Y169382D01*
X176488Y169468D01*
X176474Y169546D01*
X176461Y169612D01*
X176442Y169665D01*
X176429Y169704D01*
X176422Y169730D01*
X176416Y169737D01*
X176383Y169809D01*
X176350Y169874D01*
X176311Y169927D01*
X176278Y169973D01*
X176245Y170012D01*
X176225Y170038D01*
X176206Y170058D01*
X176199Y170065D01*
X176094Y170150D01*
X175989Y170215D01*
X175943Y170235D01*
X175910Y170248D01*
X175884Y170262D01*
X175878D01*
X175805Y170288D01*
X175740Y170301D01*
X175674Y170314D01*
X175615Y170327D01*
X175563D01*
X175523Y170334D01*
X175497D01*
X175490D01*
X175340Y170327D01*
X175268Y170320D01*
X175195Y170314D01*
X175143Y170301D01*
X175097Y170294D01*
X175071Y170288D01*
X175058D01*
X174972Y170268D01*
X174881Y170242D01*
X174795Y170209D01*
X174710Y170176D01*
X174644Y170150D01*
X174585Y170124D01*
X174553Y170111D01*
X174546Y170104D01*
X174539D01*
X174434Y170045D01*
X174323Y169986D01*
X174218Y169920D01*
X174119Y169855D01*
X174034Y169796D01*
X173969Y169750D01*
X173942Y169737D01*
X173923Y169723D01*
X173916Y169710D01*
X173910D01*
X173778Y169606D01*
X173647Y169494D01*
X173516Y169382D01*
X173398Y169271D01*
X173293Y169179D01*
X173247Y169133D01*
X173208Y169100D01*
X173175Y169068D01*
X173155Y169048D01*
X173142Y169035D01*
X173135Y169028D01*
X171876Y167808D01*
X171830Y167769D01*
X171797Y167736D01*
X171771Y167716D01*
X171758Y167710D01*
X171719Y167690D01*
X171686Y167670D01*
X171660Y167657D01*
X171646Y167651D01*
X171607Y167638D01*
X171568Y167631D01*
X171535Y167624D01*
X171528D01*
X171522D01*
X171469Y167618D01*
X171417D01*
X171377D01*
X171364D01*
X171358D01*
X171292D01*
X171233Y167624D01*
X171200Y167631D01*
X171194D01*
X171187D01*
X171141Y167651D01*
X171102Y167664D01*
X171082Y167677D01*
X171076Y167683D01*
X171036Y167736D01*
X171030Y167755D01*
X171023Y167762D01*
X171017Y167801D01*
X171010Y167847D01*
Y171259D01*
X171017Y171291D01*
X171023Y171318D01*
X171030Y171331D01*
Y171337D01*
X171049Y171357D01*
X171069Y171377D01*
X171089Y171383D01*
X171095Y171390D01*
X171135Y171409D01*
X171168Y171423D01*
X171194Y171429D01*
X171207D01*
X171259Y171436D01*
X171305Y171442D01*
X171345D01*
X171351D01*
X171358D01*
X171417D01*
X171463Y171436D01*
D02*
G37*
G36*
X177478Y164167D02*
X177491Y164161D01*
X177498Y164154D01*
X177518Y164134D01*
X177537Y164115D01*
X177544Y164095D01*
X177550Y164088D01*
X177564Y164056D01*
X177570Y164016D01*
X177577Y163984D01*
Y163970D01*
X177583Y163911D01*
X177590Y163846D01*
Y163701D01*
X177583Y163636D01*
X177577Y163596D01*
Y163583D01*
X177570Y163538D01*
X177564Y163498D01*
X177557Y163472D01*
X177550Y163465D01*
X177537Y163439D01*
X177518Y163419D01*
X177505Y163413D01*
X177498Y163406D01*
X177459Y163393D01*
X177439D01*
X177432D01*
X171128D01*
X171102D01*
X171082Y163400D01*
X171069Y163406D01*
X171063D01*
X171043Y163426D01*
X171030Y163446D01*
X171023Y163459D01*
X171017Y163465D01*
X171010Y163505D01*
X171003Y163544D01*
X170997Y163570D01*
Y163583D01*
X170990Y163649D01*
X170984Y163715D01*
Y163859D01*
X170990Y163918D01*
X170997Y163957D01*
Y163970D01*
X171003Y164023D01*
X171010Y164062D01*
X171017Y164082D01*
Y164088D01*
X171030Y164121D01*
X171049Y164141D01*
X171056Y164147D01*
X171063Y164154D01*
X171082Y164167D01*
X171108Y164174D01*
X171122D01*
X171128D01*
X177432D01*
X177459D01*
X177478Y164167D01*
D02*
G37*
G36*
X175418Y161943D02*
X175432Y161937D01*
X175438Y161930D01*
X175458Y161911D01*
X175477Y161891D01*
X175484Y161871D01*
X175490Y161865D01*
X175504Y161832D01*
X175510Y161793D01*
X175517Y161760D01*
Y161747D01*
X175523Y161688D01*
X175530Y161622D01*
Y161478D01*
X175523Y161412D01*
X175517Y161373D01*
Y161360D01*
X175510Y161314D01*
X175504Y161274D01*
X175497Y161248D01*
X175490Y161241D01*
X175477Y161215D01*
X175458Y161196D01*
X175445Y161189D01*
X175438Y161182D01*
X175399Y161169D01*
X175386D01*
X175379D01*
X171128D01*
X171102D01*
X171082Y161176D01*
X171069Y161182D01*
X171063D01*
X171043Y161202D01*
X171030Y161222D01*
X171023Y161235D01*
X171017Y161241D01*
X171010Y161281D01*
X171003Y161320D01*
X170997Y161346D01*
Y161360D01*
X170990Y161425D01*
X170984Y161491D01*
Y161635D01*
X170990Y161694D01*
X170997Y161733D01*
Y161747D01*
X171003Y161799D01*
X171010Y161838D01*
X171017Y161858D01*
Y161865D01*
X171030Y161898D01*
X171049Y161917D01*
X171056Y161924D01*
X171063Y161930D01*
X171082Y161943D01*
X171108Y161950D01*
X171122D01*
X171128D01*
X175379D01*
X175405D01*
X175418Y161943D01*
D02*
G37*
G36*
X176914Y162035D02*
X176993Y162029D01*
X177058Y162009D01*
X177104Y161989D01*
X177144Y161970D01*
X177170Y161957D01*
X177183Y161943D01*
X177190Y161937D01*
X177222Y161891D01*
X177249Y161838D01*
X177262Y161773D01*
X177275Y161714D01*
X177281Y161655D01*
X177288Y161609D01*
Y161563D01*
X177281Y161465D01*
X177275Y161386D01*
X177255Y161314D01*
X177235Y161261D01*
X177216Y161222D01*
X177203Y161196D01*
X177190Y161182D01*
X177183Y161176D01*
X177137Y161143D01*
X177085Y161117D01*
X177019Y161104D01*
X176960Y161091D01*
X176901Y161084D01*
X176855Y161077D01*
X176822D01*
X176809D01*
X176717Y161084D01*
X176638Y161091D01*
X176573Y161110D01*
X176527Y161130D01*
X176488Y161143D01*
X176461Y161163D01*
X176448Y161169D01*
X176442Y161176D01*
X176409Y161222D01*
X176389Y161274D01*
X176363Y161399D01*
X176356Y161458D01*
X176350Y161504D01*
Y161550D01*
X176356Y161648D01*
X176363Y161727D01*
X176383Y161799D01*
X176402Y161852D01*
X176416Y161891D01*
X176435Y161917D01*
X176442Y161930D01*
X176448Y161937D01*
X176494Y161970D01*
X176547Y161996D01*
X176612Y162015D01*
X176671Y162029D01*
X176730Y162035D01*
X176776Y162042D01*
X176809D01*
X176822D01*
X176914Y162035D01*
D02*
G37*
G36*
X175261Y160277D02*
X175274D01*
X175320D01*
X175346D01*
X175366Y160271D01*
X175373D01*
X175412Y160257D01*
X175418Y160251D01*
X175425D01*
X175438Y160244D01*
X175451Y160231D01*
X175464Y160218D01*
Y160212D01*
X175484Y160185D01*
X175504Y160152D01*
X175510Y160126D01*
X175517Y160120D01*
Y160113D01*
X175537Y160061D01*
X175550Y160015D01*
X175556Y159975D01*
Y159962D01*
X175569Y159903D01*
X175576Y159851D01*
X175582Y159811D01*
Y159798D01*
X175589Y159746D01*
X175595Y159700D01*
Y159660D01*
X175589Y159562D01*
X175576Y159470D01*
X175569Y159438D01*
X175563Y159411D01*
X175556Y159391D01*
Y159385D01*
X175523Y159287D01*
X175484Y159201D01*
X175464Y159169D01*
X175445Y159142D01*
X175438Y159123D01*
X175432Y159116D01*
X175392Y159063D01*
X175353Y159011D01*
X175268Y158919D01*
X175235Y158880D01*
X175202Y158854D01*
X175182Y158834D01*
X175176Y158827D01*
X175110Y158768D01*
X175045Y158716D01*
X174979Y158657D01*
X174913Y158604D01*
X174854Y158565D01*
X174808Y158532D01*
X174776Y158506D01*
X174762Y158499D01*
X175379D01*
X175405D01*
X175425Y158493D01*
X175438Y158486D01*
X175445Y158480D01*
X175464Y158467D01*
X175477Y158447D01*
X175490Y158434D01*
Y158427D01*
X175504Y158394D01*
X175510Y158355D01*
X175517Y158329D01*
Y158316D01*
X175523Y158263D01*
X175530Y158211D01*
Y158080D01*
X175523Y158020D01*
X175517Y157988D01*
Y157975D01*
X175510Y157929D01*
X175504Y157896D01*
X175497Y157870D01*
X175490Y157863D01*
X175477Y157837D01*
X175458Y157824D01*
X175451Y157811D01*
X175445D01*
X175405Y157798D01*
X175386D01*
X175379D01*
X171128D01*
X171102D01*
X171082Y157804D01*
X171069Y157811D01*
X171063D01*
X171043Y157830D01*
X171030Y157850D01*
X171023Y157863D01*
X171017Y157870D01*
X171010Y157909D01*
X171003Y157948D01*
X170997Y157975D01*
Y157988D01*
X170990Y158053D01*
X170984Y158119D01*
Y158263D01*
X170990Y158322D01*
X170997Y158362D01*
Y158375D01*
X171003Y158427D01*
X171010Y158467D01*
X171017Y158486D01*
Y158493D01*
X171030Y158526D01*
X171049Y158545D01*
X171056Y158552D01*
X171063Y158558D01*
X171082Y158572D01*
X171108Y158578D01*
X171122D01*
X171128D01*
X173923D01*
X174014Y158637D01*
X174100Y158696D01*
X174179Y158742D01*
X174244Y158788D01*
X174290Y158821D01*
X174329Y158854D01*
X174356Y158867D01*
X174362Y158873D01*
X174428Y158926D01*
X174487Y158972D01*
X174533Y159018D01*
X174579Y159057D01*
X174605Y159090D01*
X174631Y159116D01*
X174644Y159129D01*
X174651Y159136D01*
X174723Y159228D01*
X174769Y159306D01*
X174789Y159339D01*
X174802Y159359D01*
X174808Y159372D01*
Y159378D01*
X174841Y159464D01*
X174854Y159536D01*
X174861Y159562D01*
Y159680D01*
X174854Y159739D01*
X174848Y159779D01*
X174841Y159785D01*
Y159792D01*
X174828Y159851D01*
X174808Y159897D01*
X174802Y159930D01*
X174795Y159943D01*
X174782Y159995D01*
X174769Y160034D01*
X174762Y160061D01*
X174756Y160067D01*
X174743Y160107D01*
X174736Y160139D01*
Y160166D01*
X174743Y160185D01*
X174749Y160205D01*
X174756Y160212D01*
Y160218D01*
X174776Y160238D01*
X174795Y160251D01*
X174808Y160257D01*
X174815D01*
X174854Y160264D01*
X174887Y160271D01*
X174913Y160277D01*
X174926D01*
X174985Y160284D01*
X175045D01*
X175064D01*
X175084D01*
X175097D01*
X175103D01*
X175176D01*
X175228D01*
X175261Y160277D01*
D02*
G37*
G36*
X173490Y156617D02*
X173647Y156610D01*
X173798Y156590D01*
X173929Y156577D01*
X174034Y156558D01*
X174080Y156551D01*
X174119Y156538D01*
X174152Y156531D01*
X174172D01*
X174185Y156525D01*
X174192D01*
X174343Y156485D01*
X174480Y156439D01*
X174605Y156387D01*
X174716Y156341D01*
X174802Y156295D01*
X174867Y156256D01*
X174887Y156243D01*
X174907Y156230D01*
X174913Y156223D01*
X174920D01*
X175031Y156144D01*
X175130Y156052D01*
X175215Y155967D01*
X175287Y155882D01*
X175340Y155803D01*
X175379Y155744D01*
X175405Y155705D01*
X175412Y155698D01*
Y155692D01*
X175471Y155567D01*
X175517Y155436D01*
X175550Y155305D01*
X175576Y155180D01*
X175589Y155069D01*
Y155023D01*
X175595Y154983D01*
Y154904D01*
X175589Y154754D01*
X175582Y154688D01*
X175569Y154629D01*
X175563Y154577D01*
X175550Y154537D01*
X175543Y154511D01*
Y154504D01*
X175497Y154367D01*
X175471Y154301D01*
X175451Y154248D01*
X175425Y154196D01*
X175412Y154163D01*
X175399Y154137D01*
X175392Y154130D01*
X175313Y153999D01*
X175274Y153934D01*
X175235Y153881D01*
X175202Y153835D01*
X175176Y153802D01*
X175156Y153776D01*
X175149Y153770D01*
X175038Y153638D01*
X174979Y153573D01*
X174926Y153514D01*
X174881Y153468D01*
X174841Y153428D01*
X174815Y153402D01*
X174808Y153396D01*
X175379D01*
X175412D01*
X175432Y153389D01*
X175445Y153383D01*
X175451Y153376D01*
X175471Y153363D01*
X175484Y153343D01*
X175490Y153323D01*
Y153317D01*
X175504Y153284D01*
X175510Y153251D01*
X175517Y153225D01*
Y153212D01*
X175523Y153159D01*
X175530Y153107D01*
Y152982D01*
X175523Y152936D01*
X175517Y152904D01*
Y152891D01*
X175510Y152845D01*
X175504Y152812D01*
X175497Y152786D01*
X175490Y152779D01*
X175477Y152753D01*
X175464Y152740D01*
X175458Y152727D01*
X175451D01*
X175432Y152720D01*
X175405Y152714D01*
X175386D01*
X175379D01*
X169449D01*
X169422D01*
X169403Y152720D01*
X169390Y152727D01*
X169383D01*
X169363Y152746D01*
X169344Y152766D01*
X169337Y152779D01*
X169331Y152786D01*
X169318Y152825D01*
X169311Y152864D01*
X169305Y152891D01*
Y152904D01*
X169298Y152969D01*
X169291Y153035D01*
Y153179D01*
X169298Y153238D01*
X169305Y153278D01*
Y153291D01*
X169311Y153343D01*
X169318Y153383D01*
X169331Y153402D01*
Y153409D01*
X169350Y153442D01*
X169363Y153461D01*
X169377Y153468D01*
X169383Y153474D01*
X169403Y153488D01*
X169429Y153494D01*
X169442D01*
X169449D01*
X171561D01*
X171450Y153612D01*
X171397Y153665D01*
X171358Y153711D01*
X171318Y153750D01*
X171292Y153783D01*
X171279Y153802D01*
X171273Y153809D01*
X171194Y153920D01*
X171161Y153973D01*
X171128Y154019D01*
X171108Y154058D01*
X171089Y154085D01*
X171082Y154104D01*
X171076Y154111D01*
X171023Y154229D01*
X171003Y154281D01*
X170990Y154327D01*
X170977Y154367D01*
X170964Y154399D01*
X170958Y154419D01*
Y154426D01*
X170938Y154550D01*
X170925Y154609D01*
Y154662D01*
X170918Y154714D01*
Y154780D01*
X170925Y154944D01*
X170944Y155088D01*
X170971Y155226D01*
X171003Y155344D01*
X171030Y155436D01*
X171043Y155475D01*
X171056Y155508D01*
X171069Y155534D01*
X171076Y155554D01*
X171082Y155561D01*
Y155567D01*
X171154Y155692D01*
X171227Y155803D01*
X171312Y155902D01*
X171384Y155987D01*
X171456Y156052D01*
X171509Y156105D01*
X171548Y156131D01*
X171555Y156144D01*
X171561D01*
X171679Y156230D01*
X171810Y156302D01*
X171935Y156361D01*
X172053Y156413D01*
X172158Y156446D01*
X172204Y156466D01*
X172243Y156479D01*
X172270Y156485D01*
X172296Y156492D01*
X172309Y156499D01*
X172316D01*
X172486Y156538D01*
X172663Y156571D01*
X172827Y156590D01*
X172985Y156610D01*
X173057D01*
X173122Y156617D01*
X173175D01*
X173227Y156623D01*
X173267D01*
X173293D01*
X173313D01*
X173319D01*
X173490Y156617D01*
D02*
G37*
G36*
X171181Y151815D02*
X171240Y151802D01*
X171279Y151788D01*
X171292Y151782D01*
X171299D01*
X176973Y149735D01*
X177006Y149722D01*
X177039Y149702D01*
X177052Y149689D01*
X177058Y149683D01*
X177085Y149656D01*
X177098Y149624D01*
X177111Y149598D01*
Y149584D01*
X177124Y149532D01*
X177130Y149486D01*
X177137Y149447D01*
Y149427D01*
X177144Y149348D01*
X177150Y149263D01*
Y149079D01*
X177144Y149040D01*
Y148981D01*
X177137Y148961D01*
Y148942D01*
X177130Y148882D01*
X177124Y148830D01*
X177117Y148804D01*
X177111Y148791D01*
X177098Y148751D01*
X177085Y148725D01*
X177071Y148705D01*
X177065Y148699D01*
X177039Y148679D01*
X177013Y148666D01*
X176986Y148659D01*
X176980Y148653D01*
X171299Y146599D01*
X171233Y146580D01*
X171181Y146567D01*
X171148Y146560D01*
X171135D01*
X171089Y146567D01*
X171063Y146580D01*
X171043Y146586D01*
X171036Y146593D01*
X171017Y146632D01*
X171010Y146672D01*
X170997Y146704D01*
Y146718D01*
X170990Y146790D01*
X170984Y146862D01*
Y147026D01*
X170990Y147098D01*
Y147118D01*
X170997Y147137D01*
Y147151D01*
X171003Y147210D01*
X171010Y147249D01*
X171023Y147275D01*
Y147282D01*
X171036Y147315D01*
X171056Y147334D01*
X171063Y147341D01*
X171069Y147347D01*
X171122Y147380D01*
X171141Y147387D01*
X171148D01*
X172617Y147892D01*
Y150431D01*
X171128Y150955D01*
X171095Y150969D01*
X171076Y150982D01*
X171063Y150995D01*
X171056D01*
X171030Y151041D01*
X171017Y151054D01*
Y151060D01*
X171010Y151100D01*
X171003Y151146D01*
X170997Y151178D01*
Y151191D01*
X170990Y151270D01*
X170984Y151342D01*
Y151526D01*
X170990Y151572D01*
Y151631D01*
X170997Y151651D01*
Y151664D01*
X171003Y151716D01*
X171017Y151756D01*
X171023Y151782D01*
X171030Y151788D01*
X171056Y151808D01*
X171089Y151821D01*
X171115D01*
X171128D01*
X171181Y151815D01*
D02*
G37*
G36*
X318077Y176582D02*
X318208Y176569D01*
X318319Y176556D01*
X318411Y176543D01*
X318477Y176530D01*
X318503Y176523D01*
X318523D01*
X318529Y176516D01*
X318536D01*
X318654Y176484D01*
X318765Y176444D01*
X318864Y176398D01*
X318943Y176359D01*
X319015Y176320D01*
X319061Y176287D01*
X319093Y176261D01*
X319107Y176254D01*
X319192Y176182D01*
X319271Y176110D01*
X319336Y176031D01*
X319389Y175952D01*
X319435Y175887D01*
X319467Y175834D01*
X319487Y175801D01*
X319494Y175795D01*
Y175788D01*
X319539Y175677D01*
X319579Y175552D01*
X319605Y175434D01*
X319618Y175322D01*
X319631Y175224D01*
Y175178D01*
X319638Y175145D01*
Y175073D01*
X319631Y174935D01*
X319612Y174804D01*
X319579Y174686D01*
X319546Y174575D01*
X319507Y174483D01*
X319480Y174411D01*
X319467Y174384D01*
X319454Y174365D01*
X319448Y174358D01*
Y174352D01*
X319369Y174220D01*
X319277Y174089D01*
X319179Y173971D01*
X319087Y173860D01*
X318995Y173768D01*
X318923Y173696D01*
X318897Y173669D01*
X318877Y173656D01*
X318864Y173643D01*
X318857Y173637D01*
X319421D01*
X319448D01*
X319467Y173630D01*
X319480Y173624D01*
X319487Y173617D01*
X319507Y173604D01*
X319520Y173584D01*
X319533Y173571D01*
Y173564D01*
X319546Y173532D01*
X319553Y173492D01*
X319559Y173466D01*
Y173453D01*
X319566Y173400D01*
X319572Y173348D01*
Y173217D01*
X319566Y173158D01*
X319559Y173125D01*
Y173112D01*
X319553Y173066D01*
X319546Y173033D01*
X319539Y173007D01*
X319533Y173000D01*
X319520Y172974D01*
X319500Y172961D01*
X319494Y172948D01*
X319487D01*
X319448Y172935D01*
X319428D01*
X319421D01*
X315171D01*
X315144D01*
X315125Y172941D01*
X315111Y172948D01*
X315105D01*
X315085Y172968D01*
X315072Y172987D01*
X315066Y173000D01*
X315059Y173007D01*
X315053Y173046D01*
X315046Y173085D01*
X315039Y173112D01*
Y173125D01*
X315033Y173190D01*
X315026Y173256D01*
Y173400D01*
X315033Y173459D01*
X315039Y173499D01*
Y173512D01*
X315046Y173564D01*
X315053Y173604D01*
X315059Y173624D01*
Y173630D01*
X315072Y173663D01*
X315092Y173682D01*
X315098Y173689D01*
X315105Y173696D01*
X315125Y173709D01*
X315151Y173715D01*
X315164D01*
X315171D01*
X318142D01*
X318287Y173833D01*
X318405Y173945D01*
X318510Y174050D01*
X318595Y174142D01*
X318667Y174214D01*
X318713Y174273D01*
X318746Y174312D01*
X318752Y174325D01*
X318825Y174437D01*
X318877Y174542D01*
X318910Y174640D01*
X318936Y174725D01*
X318949Y174804D01*
X318962Y174857D01*
Y174909D01*
X318956Y174995D01*
X318949Y175067D01*
X318936Y175139D01*
X318923Y175198D01*
X318903Y175244D01*
X318890Y175277D01*
X318883Y175303D01*
X318877Y175309D01*
X318844Y175368D01*
X318805Y175427D01*
X318759Y175473D01*
X318720Y175513D01*
X318687Y175546D01*
X318654Y175565D01*
X318634Y175578D01*
X318628Y175585D01*
X318503Y175657D01*
X318437Y175690D01*
X318378Y175709D01*
X318326Y175729D01*
X318287Y175742D01*
X318260Y175755D01*
X318247D01*
X318155Y175775D01*
X318063Y175788D01*
X317965Y175801D01*
X317867Y175808D01*
X317788Y175814D01*
X317716D01*
X317690D01*
X317676D01*
X317663D01*
X317657D01*
X315171D01*
X315144D01*
X315125Y175821D01*
X315111Y175828D01*
X315105D01*
X315085Y175847D01*
X315072Y175867D01*
X315066Y175880D01*
X315059Y175887D01*
X315053Y175926D01*
X315046Y175965D01*
X315039Y175992D01*
Y176005D01*
X315033Y176070D01*
X315026Y176136D01*
Y176280D01*
X315033Y176339D01*
X315039Y176379D01*
Y176392D01*
X315046Y176444D01*
X315053Y176484D01*
X315059Y176503D01*
Y176510D01*
X315072Y176543D01*
X315092Y176562D01*
X315098Y176569D01*
X315105Y176576D01*
X315125Y176589D01*
X315151Y176595D01*
X315164D01*
X315171D01*
X317762D01*
X317926D01*
X318077Y176582D01*
D02*
G37*
G36*
X317539Y171780D02*
X317716Y171767D01*
X317880Y171747D01*
X318018Y171721D01*
X318083Y171708D01*
X318136Y171695D01*
X318182Y171688D01*
X318228Y171675D01*
X318254Y171669D01*
X318280Y171662D01*
X318293Y171655D01*
X318300D01*
X318451Y171603D01*
X318595Y171537D01*
X318713Y171472D01*
X318818Y171413D01*
X318903Y171354D01*
X318969Y171308D01*
X319008Y171275D01*
X319021Y171262D01*
X319126Y171163D01*
X319218Y171052D01*
X319297Y170947D01*
X319362Y170842D01*
X319415Y170750D01*
X319454Y170678D01*
X319467Y170652D01*
X319474Y170632D01*
X319480Y170619D01*
Y170612D01*
X319533Y170461D01*
X319572Y170304D01*
X319599Y170153D01*
X319618Y170009D01*
X319631Y169884D01*
Y169832D01*
X319638Y169786D01*
Y169701D01*
X319631Y169504D01*
X319612Y169320D01*
X319579Y169163D01*
X319553Y169018D01*
X319533Y168959D01*
X319520Y168907D01*
X319500Y168861D01*
X319487Y168822D01*
X319480Y168789D01*
X319467Y168769D01*
X319461Y168756D01*
Y168749D01*
X319389Y168605D01*
X319310Y168474D01*
X319225Y168356D01*
X319146Y168257D01*
X319080Y168179D01*
X319021Y168120D01*
X318982Y168087D01*
X318975Y168080D01*
X318969Y168074D01*
X318844Y167982D01*
X318720Y167897D01*
X318595Y167824D01*
X318477Y167772D01*
X318372Y167726D01*
X318326Y167706D01*
X318287Y167693D01*
X318260Y167680D01*
X318234Y167674D01*
X318221Y167667D01*
X318214D01*
X318050Y167621D01*
X317880Y167588D01*
X317716Y167569D01*
X317571Y167555D01*
X317506Y167549D01*
X317447Y167542D01*
X317388D01*
X317342Y167536D01*
X317309D01*
X317283D01*
X317263D01*
X317257D01*
X317060Y167542D01*
X316876Y167555D01*
X316712Y167575D01*
X316574Y167601D01*
X316509Y167608D01*
X316456Y167621D01*
X316410Y167634D01*
X316365Y167641D01*
X316338Y167647D01*
X316312Y167654D01*
X316299Y167660D01*
X316292D01*
X316141Y167713D01*
X315997Y167772D01*
X315873Y167838D01*
X315768Y167903D01*
X315682Y167956D01*
X315617Y168001D01*
X315577Y168034D01*
X315571Y168047D01*
X315564D01*
X315459Y168152D01*
X315367Y168257D01*
X315289Y168369D01*
X315230Y168474D01*
X315177Y168559D01*
X315138Y168631D01*
X315131Y168658D01*
X315118Y168677D01*
X315111Y168690D01*
Y168697D01*
X315059Y168848D01*
X315026Y169005D01*
X315000Y169156D01*
X314980Y169300D01*
X314967Y169425D01*
Y169477D01*
X314961Y169524D01*
Y169609D01*
X314967Y169806D01*
X314987Y169983D01*
X315020Y170147D01*
X315053Y170284D01*
X315066Y170343D01*
X315079Y170396D01*
X315098Y170442D01*
X315111Y170481D01*
X315125Y170514D01*
X315131Y170534D01*
X315138Y170547D01*
Y170553D01*
X315210Y170704D01*
X315289Y170835D01*
X315374Y170954D01*
X315453Y171052D01*
X315518Y171131D01*
X315577Y171190D01*
X315617Y171222D01*
X315623Y171236D01*
X315630D01*
X315754Y171334D01*
X315879Y171419D01*
X316010Y171485D01*
X316128Y171544D01*
X316227Y171590D01*
X316273Y171609D01*
X316312Y171623D01*
X316345Y171636D01*
X316365Y171642D01*
X316378Y171649D01*
X316384D01*
X316555Y171695D01*
X316719Y171728D01*
X316883Y171754D01*
X317027Y171767D01*
X317093Y171774D01*
X317158Y171780D01*
X317211D01*
X317257Y171787D01*
X317289D01*
X317322D01*
X317335D01*
X317342D01*
X317539Y171780D01*
D02*
G37*
G36*
X319461Y166381D02*
X319474Y166375D01*
X319480Y166368D01*
X319500Y166348D01*
X319520Y166329D01*
X319526Y166309D01*
X319533Y166303D01*
X319546Y166270D01*
X319553Y166230D01*
X319559Y166198D01*
Y166184D01*
X319566Y166125D01*
X319572Y166060D01*
Y165916D01*
X319566Y165850D01*
X319559Y165811D01*
Y165797D01*
X319553Y165751D01*
X319546Y165712D01*
X319539Y165686D01*
X319533Y165679D01*
X319520Y165653D01*
X319500Y165633D01*
X319487Y165627D01*
X319480Y165620D01*
X319441Y165607D01*
X319428D01*
X319421D01*
X315171D01*
X315144D01*
X315125Y165614D01*
X315111Y165620D01*
X315105D01*
X315085Y165640D01*
X315072Y165660D01*
X315066Y165673D01*
X315059Y165679D01*
X315053Y165719D01*
X315046Y165758D01*
X315039Y165784D01*
Y165797D01*
X315033Y165863D01*
X315026Y165929D01*
Y166073D01*
X315033Y166132D01*
X315039Y166171D01*
Y166184D01*
X315046Y166237D01*
X315053Y166276D01*
X315059Y166296D01*
Y166303D01*
X315072Y166335D01*
X315092Y166355D01*
X315098Y166361D01*
X315105Y166368D01*
X315125Y166381D01*
X315151Y166388D01*
X315164D01*
X315171D01*
X319421D01*
X319448D01*
X319461Y166381D01*
D02*
G37*
G36*
X320956Y166473D02*
X321035Y166466D01*
X321101Y166447D01*
X321147Y166427D01*
X321186Y166407D01*
X321212Y166394D01*
X321225Y166381D01*
X321232Y166375D01*
X321265Y166329D01*
X321291Y166276D01*
X321304Y166211D01*
X321317Y166152D01*
X321324Y166093D01*
X321330Y166047D01*
Y166001D01*
X321324Y165902D01*
X321317Y165824D01*
X321298Y165751D01*
X321278Y165699D01*
X321258Y165660D01*
X321245Y165633D01*
X321232Y165620D01*
X321225Y165614D01*
X321180Y165581D01*
X321127Y165555D01*
X321061Y165542D01*
X321002Y165528D01*
X320943Y165522D01*
X320897Y165515D01*
X320865D01*
X320851D01*
X320760Y165522D01*
X320681Y165528D01*
X320615Y165548D01*
X320569Y165568D01*
X320530Y165581D01*
X320504Y165601D01*
X320491Y165607D01*
X320484Y165614D01*
X320451Y165660D01*
X320432Y165712D01*
X320405Y165837D01*
X320399Y165896D01*
X320392Y165942D01*
Y165988D01*
X320399Y166086D01*
X320405Y166165D01*
X320425Y166237D01*
X320445Y166289D01*
X320458Y166329D01*
X320478Y166355D01*
X320484Y166368D01*
X320491Y166375D01*
X320537Y166407D01*
X320589Y166434D01*
X320655Y166453D01*
X320714Y166466D01*
X320773Y166473D01*
X320819Y166480D01*
X320851D01*
X320865D01*
X320956Y166473D01*
D02*
G37*
G36*
X319303Y164715D02*
X319317D01*
X319362D01*
X319389D01*
X319408Y164708D01*
X319415D01*
X319454Y164695D01*
X319461Y164689D01*
X319467D01*
X319480Y164682D01*
X319494Y164669D01*
X319507Y164656D01*
Y164649D01*
X319526Y164623D01*
X319546Y164590D01*
X319553Y164564D01*
X319559Y164558D01*
Y164551D01*
X319579Y164498D01*
X319592Y164453D01*
X319599Y164413D01*
Y164400D01*
X319612Y164341D01*
X319618Y164289D01*
X319625Y164249D01*
Y164236D01*
X319631Y164184D01*
X319638Y164138D01*
Y164098D01*
X319631Y164000D01*
X319618Y163908D01*
X319612Y163875D01*
X319605Y163849D01*
X319599Y163829D01*
Y163823D01*
X319566Y163724D01*
X319526Y163639D01*
X319507Y163606D01*
X319487Y163580D01*
X319480Y163560D01*
X319474Y163554D01*
X319435Y163501D01*
X319395Y163449D01*
X319310Y163357D01*
X319277Y163318D01*
X319244Y163292D01*
X319225Y163272D01*
X319218Y163265D01*
X319152Y163206D01*
X319087Y163154D01*
X319021Y163095D01*
X318956Y163042D01*
X318897Y163003D01*
X318851Y162970D01*
X318818Y162944D01*
X318805Y162937D01*
X319421D01*
X319448D01*
X319467Y162931D01*
X319480Y162924D01*
X319487Y162917D01*
X319507Y162904D01*
X319520Y162885D01*
X319533Y162872D01*
Y162865D01*
X319546Y162832D01*
X319553Y162793D01*
X319559Y162767D01*
Y162753D01*
X319566Y162701D01*
X319572Y162649D01*
Y162517D01*
X319566Y162458D01*
X319559Y162425D01*
Y162412D01*
X319553Y162366D01*
X319546Y162334D01*
X319539Y162307D01*
X319533Y162301D01*
X319520Y162275D01*
X319500Y162261D01*
X319494Y162248D01*
X319487D01*
X319448Y162235D01*
X319428D01*
X319421D01*
X315171D01*
X315144D01*
X315125Y162242D01*
X315111Y162248D01*
X315105D01*
X315085Y162268D01*
X315072Y162288D01*
X315066Y162301D01*
X315059Y162307D01*
X315053Y162347D01*
X315046Y162386D01*
X315039Y162412D01*
Y162425D01*
X315033Y162491D01*
X315026Y162557D01*
Y162701D01*
X315033Y162760D01*
X315039Y162800D01*
Y162813D01*
X315046Y162865D01*
X315053Y162904D01*
X315059Y162924D01*
Y162931D01*
X315072Y162963D01*
X315092Y162983D01*
X315098Y162990D01*
X315105Y162996D01*
X315125Y163009D01*
X315151Y163016D01*
X315164D01*
X315171D01*
X317965D01*
X318057Y163075D01*
X318142Y163134D01*
X318221Y163180D01*
X318287Y163226D01*
X318333Y163259D01*
X318372Y163292D01*
X318398Y163305D01*
X318405Y163311D01*
X318470Y163364D01*
X318529Y163409D01*
X318575Y163455D01*
X318621Y163495D01*
X318647Y163528D01*
X318674Y163554D01*
X318687Y163567D01*
X318693Y163574D01*
X318765Y163665D01*
X318811Y163744D01*
X318831Y163777D01*
X318844Y163797D01*
X318851Y163810D01*
Y163816D01*
X318883Y163901D01*
X318897Y163974D01*
X318903Y164000D01*
Y164118D01*
X318897Y164177D01*
X318890Y164216D01*
X318883Y164223D01*
Y164230D01*
X318870Y164289D01*
X318851Y164334D01*
X318844Y164367D01*
X318838Y164380D01*
X318825Y164433D01*
X318811Y164472D01*
X318805Y164498D01*
X318798Y164505D01*
X318785Y164544D01*
X318779Y164577D01*
Y164603D01*
X318785Y164623D01*
X318792Y164643D01*
X318798Y164649D01*
Y164656D01*
X318818Y164676D01*
X318838Y164689D01*
X318851Y164695D01*
X318857D01*
X318897Y164702D01*
X318929Y164708D01*
X318956Y164715D01*
X318969D01*
X319028Y164722D01*
X319087D01*
X319107D01*
X319126D01*
X319139D01*
X319146D01*
X319218D01*
X319271D01*
X319303Y164715D01*
D02*
G37*
G36*
X315223Y161337D02*
X315282Y161323D01*
X315321Y161310D01*
X315335Y161304D01*
X315341D01*
X321016Y159257D01*
X321048Y159244D01*
X321081Y159224D01*
X321094Y159211D01*
X321101Y159205D01*
X321127Y159178D01*
X321140Y159145D01*
X321153Y159119D01*
Y159106D01*
X321166Y159054D01*
X321173Y159008D01*
X321180Y158968D01*
Y158949D01*
X321186Y158870D01*
X321193Y158785D01*
Y158601D01*
X321186Y158562D01*
Y158503D01*
X321180Y158483D01*
Y158463D01*
X321173Y158404D01*
X321166Y158352D01*
X321160Y158326D01*
X321153Y158312D01*
X321140Y158273D01*
X321127Y158247D01*
X321114Y158227D01*
X321107Y158221D01*
X321081Y158201D01*
X321055Y158188D01*
X321029Y158181D01*
X321022Y158175D01*
X315341Y156121D01*
X315276Y156102D01*
X315223Y156089D01*
X315190Y156082D01*
X315177D01*
X315131Y156089D01*
X315105Y156102D01*
X315085Y156108D01*
X315079Y156115D01*
X315059Y156154D01*
X315053Y156193D01*
X315039Y156226D01*
Y156239D01*
X315033Y156312D01*
X315026Y156384D01*
Y156548D01*
X315033Y156620D01*
Y156640D01*
X315039Y156659D01*
Y156672D01*
X315046Y156731D01*
X315053Y156771D01*
X315066Y156797D01*
Y156804D01*
X315079Y156836D01*
X315098Y156856D01*
X315105Y156863D01*
X315111Y156869D01*
X315164Y156902D01*
X315184Y156909D01*
X315190D01*
X316660Y157414D01*
Y159952D01*
X315171Y160477D01*
X315138Y160490D01*
X315118Y160503D01*
X315105Y160517D01*
X315098D01*
X315072Y160563D01*
X315059Y160576D01*
Y160582D01*
X315053Y160622D01*
X315046Y160668D01*
X315039Y160700D01*
Y160713D01*
X315033Y160792D01*
X315026Y160864D01*
Y161048D01*
X315033Y161094D01*
Y161153D01*
X315039Y161173D01*
Y161186D01*
X315046Y161238D01*
X315059Y161277D01*
X315066Y161304D01*
X315072Y161310D01*
X315098Y161330D01*
X315131Y161343D01*
X315157D01*
X315171D01*
X315223Y161337D01*
D02*
G37*
G36*
X366572Y139959D02*
X366598Y139946D01*
X366611Y139933D01*
X366650Y139893D01*
X366677Y139841D01*
X366703Y139802D01*
Y139788D01*
X366729Y139710D01*
X366755Y139631D01*
X366769Y139566D01*
Y139539D01*
X366782Y139421D01*
X366795Y139290D01*
Y139001D01*
X366782Y138883D01*
X366769Y138804D01*
Y138778D01*
X366742Y138673D01*
X366729Y138595D01*
X366716Y138529D01*
X366703Y138516D01*
X366677Y138463D01*
X366650Y138411D01*
X366624Y138398D01*
X366611Y138385D01*
X366572Y138358D01*
X366532Y138345D01*
X366493D01*
X366480D01*
X354764D01*
X354711D01*
X354659Y138358D01*
X354632Y138372D01*
X354619D01*
X354580Y138411D01*
X354567Y138450D01*
X354541Y138490D01*
Y138503D01*
X354527Y138595D01*
X354501Y138673D01*
X354488Y138739D01*
Y138765D01*
X354475Y138896D01*
X354462Y139028D01*
Y139316D01*
X354475Y139434D01*
X354488Y139513D01*
Y139539D01*
X354514Y139644D01*
X354527Y139723D01*
X354541Y139775D01*
Y139788D01*
X354567Y139854D01*
X354593Y139907D01*
X354606Y139920D01*
X354619Y139933D01*
X354672Y139959D01*
X354711Y139972D01*
X354751D01*
X354764D01*
X366480D01*
X366532D01*
X366572Y139959D01*
D02*
G37*
G36*
Y135078D02*
X366598Y135065D01*
X366611Y135052D01*
X366650Y135013D01*
X366677Y134960D01*
X366703Y134921D01*
Y134908D01*
X366729Y134829D01*
X366755Y134750D01*
X366769Y134685D01*
Y134659D01*
X366782Y134540D01*
X366795Y134409D01*
Y134121D01*
X366782Y134003D01*
X366769Y133924D01*
Y133898D01*
X366742Y133793D01*
X366729Y133714D01*
X366716Y133648D01*
X366703Y133635D01*
X366677Y133583D01*
X366650Y133530D01*
X366624Y133517D01*
X366611Y133504D01*
X366572Y133478D01*
X366532Y133465D01*
X366493D01*
X366480D01*
X354764D01*
X354711D01*
X354659Y133478D01*
X354632Y133491D01*
X354619D01*
X354580Y133530D01*
X354567Y133570D01*
X354541Y133609D01*
Y133622D01*
X354527Y133714D01*
X354501Y133793D01*
X354488Y133858D01*
Y133885D01*
X354475Y134016D01*
X354462Y134147D01*
Y134435D01*
X354475Y134554D01*
X354488Y134632D01*
Y134659D01*
X354514Y134764D01*
X354527Y134842D01*
X354541Y134895D01*
Y134908D01*
X354567Y134974D01*
X354593Y135026D01*
X354606Y135039D01*
X354619Y135052D01*
X354672Y135078D01*
X354711Y135092D01*
X354751D01*
X354764D01*
X366480D01*
X366532D01*
X366572Y135078D01*
D02*
G37*
G36*
Y130198D02*
X366598Y130185D01*
X366611Y130172D01*
X366650Y130132D01*
X366677Y130080D01*
X366703Y130040D01*
Y130027D01*
X366729Y129948D01*
X366755Y129870D01*
X366769Y129804D01*
Y129778D01*
X366782Y129660D01*
X366795Y129529D01*
Y129240D01*
X366782Y129122D01*
X366769Y129043D01*
Y129017D01*
X366742Y128912D01*
X366729Y128833D01*
X366716Y128768D01*
X366703Y128755D01*
X366677Y128702D01*
X366650Y128650D01*
X366624Y128637D01*
X366611Y128623D01*
X366572Y128597D01*
X366532Y128584D01*
X366493D01*
X366480D01*
X354764D01*
X354711D01*
X354659Y128597D01*
X354632Y128610D01*
X354619D01*
X354580Y128650D01*
X354567Y128689D01*
X354541Y128728D01*
Y128742D01*
X354527Y128833D01*
X354501Y128912D01*
X354488Y128978D01*
Y129004D01*
X354475Y129135D01*
X354462Y129266D01*
Y129555D01*
X354475Y129673D01*
X354488Y129752D01*
Y129778D01*
X354514Y129883D01*
X354527Y129962D01*
X354541Y130014D01*
Y130027D01*
X354567Y130093D01*
X354593Y130145D01*
X354606Y130158D01*
X354619Y130172D01*
X354672Y130198D01*
X354711Y130211D01*
X354751D01*
X354764D01*
X366480D01*
X366532D01*
X366572Y130198D01*
D02*
G37*
G36*
X354777Y122155D02*
X354855Y122129D01*
X354908Y122103D01*
X354934Y122090D01*
X359120Y119466D01*
X363069Y121945D01*
X363160Y121998D01*
X363239Y122024D01*
X363292Y122037D01*
X363305D01*
X363370D01*
X363423Y121998D01*
X363449Y121972D01*
X363462Y121958D01*
X363502Y121893D01*
X363515Y121801D01*
X363528Y121735D01*
Y121709D01*
X363541Y121565D01*
X363554Y121421D01*
Y121092D01*
X363541Y120961D01*
X363528Y120883D01*
Y120856D01*
X363515Y120765D01*
X363502Y120686D01*
X363489Y120646D01*
X363475Y120633D01*
X363449Y120581D01*
X363423Y120542D01*
X363410Y120515D01*
X363397Y120502D01*
X363331Y120450D01*
X363318Y120437D01*
X363305Y120423D01*
X360130Y118455D01*
X363305Y116514D01*
X363384Y116448D01*
X363397Y116435D01*
X363410Y116422D01*
X363449Y116382D01*
X363475Y116343D01*
X363489Y116304D01*
Y116291D01*
X363502Y116212D01*
X363515Y116120D01*
X363528Y116054D01*
Y116028D01*
X363541Y115897D01*
X363554Y115753D01*
Y115398D01*
X363541Y115307D01*
Y115189D01*
X363528Y115149D01*
Y115110D01*
X363515Y114992D01*
X363489Y114900D01*
X363462Y114847D01*
X363449Y114834D01*
X363397Y114782D01*
X363344Y114755D01*
X363305Y114742D01*
X363292D01*
X363226Y114755D01*
X363147Y114782D01*
X363095Y114808D01*
X363082Y114821D01*
X363069D01*
X359080Y117327D01*
X354934Y114690D01*
X354842Y114637D01*
X354764Y114598D01*
X354711Y114585D01*
X354698D01*
X354646Y114598D01*
X354606Y114624D01*
X354580Y114651D01*
X354567Y114664D01*
X354527Y114742D01*
X354514Y114834D01*
X354488Y114900D01*
Y114926D01*
X354475Y115070D01*
X354462Y115215D01*
Y115543D01*
X354475Y115687D01*
Y115726D01*
X354488Y115766D01*
Y115792D01*
X354501Y115910D01*
X354514Y115989D01*
X354527Y116041D01*
Y116054D01*
X354554Y116120D01*
X354580Y116173D01*
X354593Y116199D01*
X354606Y116212D01*
X354685Y116278D01*
X354711Y116304D01*
X354724D01*
X358096Y118337D01*
X354724Y120371D01*
X354646Y120437D01*
X354619Y120450D01*
X354606Y120463D01*
X354567Y120502D01*
X354554Y120555D01*
X354527Y120594D01*
Y120607D01*
X354514Y120699D01*
X354501Y120778D01*
X354488Y120843D01*
Y120870D01*
X354475Y121014D01*
X354462Y121158D01*
Y121526D01*
X354475Y121604D01*
Y121722D01*
X354488Y121775D01*
Y121801D01*
X354514Y121919D01*
X354541Y122011D01*
X354554Y122063D01*
X354567Y122076D01*
X354606Y122129D01*
X354659Y122155D01*
X354685Y122168D01*
X354698D01*
X354777Y122155D01*
D02*
G37*
G36*
X363305Y112761D02*
X363344Y112748D01*
X363370Y112735D01*
X363384Y112722D01*
X363423Y112683D01*
X363449Y112643D01*
X363475Y112604D01*
Y112591D01*
X363502Y112525D01*
X363515Y112446D01*
X363528Y112381D01*
Y112355D01*
X363541Y112236D01*
X363554Y112118D01*
Y111817D01*
X363541Y111699D01*
X363528Y111620D01*
Y111594D01*
X363515Y111502D01*
X363502Y111423D01*
X363489Y111371D01*
X363475Y111357D01*
X363449Y111305D01*
X363410Y111252D01*
X363397Y111239D01*
X363384Y111226D01*
X363305Y111200D01*
X363265D01*
X363252D01*
X357309D01*
X357020Y110964D01*
X356771Y110728D01*
X356561Y110518D01*
X356391Y110334D01*
X356246Y110190D01*
X356154Y110072D01*
X356102Y109993D01*
X356076Y109980D01*
Y109967D01*
X355944Y109757D01*
X355839Y109547D01*
X355774Y109350D01*
X355721Y109166D01*
X355695Y109022D01*
X355682Y108904D01*
X355669Y108825D01*
Y108799D01*
X355682Y108642D01*
X355695Y108484D01*
X355721Y108353D01*
X355761Y108235D01*
X355787Y108143D01*
X355813Y108078D01*
X355826Y108025D01*
X355839Y108012D01*
X355905Y107894D01*
X355984Y107776D01*
X356063Y107684D01*
X356141Y107605D01*
X356220Y107540D01*
X356273Y107487D01*
X356312Y107461D01*
X356325Y107448D01*
X356587Y107303D01*
X356719Y107251D01*
X356837Y107198D01*
X356942Y107159D01*
X357020Y107146D01*
X357086Y107120D01*
X357099D01*
X357283Y107080D01*
X357480Y107054D01*
X357676Y107041D01*
X357860Y107028D01*
X358031Y107015D01*
X358175D01*
X358227D01*
X358267D01*
X358280D01*
X358293D01*
X363252D01*
X363305D01*
X363344Y107002D01*
X363370Y106989D01*
X363384Y106975D01*
X363423Y106936D01*
X363449Y106897D01*
X363475Y106857D01*
Y106844D01*
X363502Y106765D01*
X363515Y106687D01*
X363528Y106621D01*
Y106595D01*
X363541Y106477D01*
X363554Y106359D01*
Y106070D01*
X363541Y105939D01*
X363528Y105860D01*
Y105834D01*
X363515Y105742D01*
X363502Y105663D01*
X363489Y105611D01*
X363475Y105598D01*
X363449Y105545D01*
X363410Y105493D01*
X363397Y105480D01*
X363384Y105467D01*
X363305Y105440D01*
X363265D01*
X363252D01*
X358083D01*
X357755Y105454D01*
X357453Y105467D01*
X357178Y105493D01*
X356955Y105519D01*
X356771Y105545D01*
X356627Y105558D01*
X356574Y105572D01*
X356535Y105585D01*
X356522D01*
X356509D01*
X356273Y105650D01*
X356063Y105729D01*
X355866Y105821D01*
X355708Y105900D01*
X355564Y105978D01*
X355472Y106044D01*
X355407Y106083D01*
X355380Y106096D01*
X355210Y106241D01*
X355052Y106398D01*
X354921Y106555D01*
X354816Y106713D01*
X354724Y106844D01*
X354659Y106949D01*
X354619Y107015D01*
X354606Y107041D01*
X354514Y107264D01*
X354449Y107513D01*
X354396Y107749D01*
X354370Y107973D01*
X354344Y108169D01*
Y108261D01*
X354331Y108327D01*
Y108471D01*
X354344Y108747D01*
X354383Y109009D01*
X354449Y109245D01*
X354514Y109468D01*
X354580Y109652D01*
X354646Y109796D01*
X354659Y109849D01*
X354685Y109888D01*
X354698Y109901D01*
Y109914D01*
X354855Y110177D01*
X355039Y110439D01*
X355236Y110675D01*
X355433Y110898D01*
X355603Y111082D01*
X355748Y111226D01*
X355800Y111279D01*
X355839Y111318D01*
X355866Y111331D01*
X355879Y111344D01*
X354751D01*
X354698D01*
X354659Y111357D01*
X354632Y111371D01*
X354619D01*
X354580Y111397D01*
X354554Y111436D01*
X354541Y111462D01*
X354527Y111476D01*
X354514Y111554D01*
X354501Y111620D01*
X354488Y111672D01*
Y111699D01*
X354475Y111817D01*
X354462Y111935D01*
Y112184D01*
X354475Y112289D01*
X354488Y112355D01*
Y112381D01*
X354501Y112473D01*
X354514Y112551D01*
X354527Y112591D01*
Y112604D01*
X354554Y112670D01*
X354593Y112709D01*
X354606Y112722D01*
X354619Y112735D01*
X354659Y112761D01*
X354711Y112774D01*
X354737D01*
X354751D01*
X363252D01*
X363305Y112761D01*
D02*
G37*
G36*
X367451Y102580D02*
X367477Y102567D01*
X367490Y102554D01*
X367529Y102515D01*
X367569Y102475D01*
X367582Y102436D01*
X367595Y102423D01*
X367621Y102357D01*
X367634Y102278D01*
X367648Y102213D01*
Y102187D01*
X367661Y102068D01*
X367674Y101937D01*
Y101649D01*
X367661Y101517D01*
X367648Y101439D01*
Y101412D01*
X367634Y101321D01*
X367621Y101242D01*
X367608Y101189D01*
X367595Y101176D01*
X367569Y101124D01*
X367529Y101084D01*
X367503Y101071D01*
X367490Y101058D01*
X367411Y101032D01*
X367372D01*
X367359D01*
X354751D01*
X354698D01*
X354659Y101045D01*
X354632Y101058D01*
X354619D01*
X354580Y101098D01*
X354554Y101137D01*
X354541Y101163D01*
X354527Y101176D01*
X354514Y101255D01*
X354501Y101334D01*
X354488Y101386D01*
Y101412D01*
X354475Y101544D01*
X354462Y101675D01*
Y101963D01*
X354475Y102082D01*
X354488Y102160D01*
Y102187D01*
X354501Y102292D01*
X354514Y102370D01*
X354527Y102410D01*
Y102423D01*
X354554Y102488D01*
X354593Y102528D01*
X354606Y102541D01*
X354619Y102554D01*
X354659Y102580D01*
X354711Y102593D01*
X354737D01*
X354751D01*
X367359D01*
X367411D01*
X367451Y102580D01*
D02*
G37*
G36*
Y98132D02*
X367477Y98119D01*
X367490Y98106D01*
X367529Y98067D01*
X367569Y98027D01*
X367582Y97988D01*
X367595Y97975D01*
X367621Y97909D01*
X367634Y97831D01*
X367648Y97765D01*
Y97739D01*
X367661Y97621D01*
X367674Y97490D01*
Y97201D01*
X367661Y97070D01*
X367648Y96991D01*
Y96965D01*
X367634Y96873D01*
X367621Y96794D01*
X367608Y96742D01*
X367595Y96729D01*
X367569Y96676D01*
X367529Y96637D01*
X367503Y96624D01*
X367490Y96611D01*
X367411Y96584D01*
X367372D01*
X367359D01*
X354751D01*
X354698D01*
X354659Y96597D01*
X354632Y96611D01*
X354619D01*
X354580Y96650D01*
X354554Y96689D01*
X354541Y96715D01*
X354527Y96729D01*
X354514Y96807D01*
X354501Y96886D01*
X354488Y96939D01*
Y96965D01*
X354475Y97096D01*
X354462Y97227D01*
Y97516D01*
X354475Y97634D01*
X354488Y97713D01*
Y97739D01*
X354501Y97844D01*
X354514Y97923D01*
X354527Y97962D01*
Y97975D01*
X354554Y98041D01*
X354593Y98080D01*
X354606Y98093D01*
X354619Y98106D01*
X354659Y98132D01*
X354711Y98146D01*
X354737D01*
X354751D01*
X367359D01*
X367411D01*
X367451Y98132D01*
D02*
G37*
G36*
X359487Y94275D02*
X359841Y94249D01*
X360169Y94210D01*
X360445Y94157D01*
X360576Y94131D01*
X360681Y94105D01*
X360773Y94091D01*
X360864Y94065D01*
X360917Y94052D01*
X360969Y94039D01*
X360996Y94026D01*
X361009D01*
X361311Y93921D01*
X361599Y93790D01*
X361835Y93659D01*
X362045Y93541D01*
X362216Y93422D01*
X362347Y93331D01*
X362426Y93265D01*
X362452Y93239D01*
X362662Y93042D01*
X362846Y92819D01*
X363003Y92609D01*
X363134Y92399D01*
X363239Y92215D01*
X363318Y92071D01*
X363344Y92019D01*
X363357Y91979D01*
X363370Y91953D01*
Y91940D01*
X363475Y91638D01*
X363554Y91323D01*
X363607Y91022D01*
X363646Y90733D01*
X363672Y90484D01*
Y90379D01*
X363685Y90287D01*
Y90116D01*
X363672Y89723D01*
X363633Y89355D01*
X363567Y89040D01*
X363515Y88752D01*
X363475Y88634D01*
X363449Y88529D01*
X363410Y88437D01*
X363384Y88358D01*
X363370Y88292D01*
X363344Y88253D01*
X363331Y88227D01*
Y88214D01*
X363187Y87925D01*
X363029Y87663D01*
X362859Y87427D01*
X362701Y87230D01*
X362570Y87072D01*
X362452Y86954D01*
X362373Y86889D01*
X362360Y86875D01*
X362347Y86862D01*
X362098Y86679D01*
X361848Y86508D01*
X361599Y86364D01*
X361363Y86259D01*
X361153Y86167D01*
X361061Y86128D01*
X360983Y86102D01*
X360930Y86075D01*
X360878Y86062D01*
X360851Y86049D01*
X360838D01*
X360510Y85957D01*
X360169Y85891D01*
X359841Y85852D01*
X359553Y85826D01*
X359421Y85813D01*
X359303Y85800D01*
X359185D01*
X359093Y85787D01*
X359028D01*
X358975D01*
X358936D01*
X358923D01*
X358529Y85800D01*
X358162Y85826D01*
X357834Y85865D01*
X357558Y85918D01*
X357427Y85931D01*
X357322Y85957D01*
X357230Y85983D01*
X357138Y85997D01*
X357086Y86010D01*
X357033Y86023D01*
X357007Y86036D01*
X356994D01*
X356692Y86141D01*
X356404Y86259D01*
X356154Y86390D01*
X355944Y86521D01*
X355774Y86626D01*
X355643Y86718D01*
X355564Y86784D01*
X355551Y86810D01*
X355538D01*
X355328Y87020D01*
X355144Y87230D01*
X354987Y87453D01*
X354869Y87663D01*
X354764Y87833D01*
X354685Y87978D01*
X354672Y88030D01*
X354646Y88069D01*
X354632Y88096D01*
Y88109D01*
X354527Y88411D01*
X354462Y88726D01*
X354409Y89027D01*
X354370Y89316D01*
X354344Y89565D01*
Y89670D01*
X354331Y89762D01*
Y89933D01*
X354344Y90326D01*
X354383Y90680D01*
X354449Y91008D01*
X354514Y91284D01*
X354541Y91402D01*
X354567Y91507D01*
X354606Y91599D01*
X354632Y91677D01*
X354659Y91743D01*
X354672Y91782D01*
X354685Y91809D01*
Y91822D01*
X354829Y92124D01*
X354987Y92386D01*
X355157Y92622D01*
X355315Y92819D01*
X355446Y92976D01*
X355564Y93094D01*
X355643Y93160D01*
X355656Y93186D01*
X355669D01*
X355918Y93383D01*
X356168Y93554D01*
X356430Y93685D01*
X356666Y93803D01*
X356863Y93895D01*
X356955Y93934D01*
X357033Y93960D01*
X357099Y93987D01*
X357138Y94000D01*
X357165Y94013D01*
X357178D01*
X357519Y94105D01*
X357847Y94170D01*
X358175Y94223D01*
X358464Y94249D01*
X358595Y94262D01*
X358726Y94275D01*
X358831D01*
X358923Y94288D01*
X358988D01*
X359054D01*
X359080D01*
X359093D01*
X359487Y94275D01*
D02*
G37*
G36*
X363410Y84068D02*
X363646Y84055D01*
X363856Y84015D01*
X364039Y83989D01*
X364197Y83950D01*
X364315Y83910D01*
X364381Y83897D01*
X364407Y83884D01*
X364617Y83806D01*
X364814Y83714D01*
X364984Y83622D01*
X365128Y83530D01*
X365247Y83451D01*
X365338Y83386D01*
X365404Y83333D01*
X365417Y83320D01*
X365575Y83176D01*
X365719Y83031D01*
X365850Y82887D01*
X365955Y82756D01*
X366034Y82638D01*
X366099Y82546D01*
X366139Y82480D01*
X366152Y82454D01*
X366257Y82270D01*
X366349Y82087D01*
X366414Y81916D01*
X366467Y81759D01*
X366506Y81628D01*
X366532Y81536D01*
X366559Y81470D01*
Y81444D01*
X366598Y81260D01*
X366624Y81103D01*
X366650Y80945D01*
X366677Y80827D01*
X366690Y80722D01*
Y80644D01*
X366703Y80591D01*
Y80578D01*
X366729Y80302D01*
Y80171D01*
X366742Y80066D01*
Y77206D01*
X366729Y77114D01*
X366716Y77036D01*
X366664Y76891D01*
X366624Y76839D01*
X366598Y76799D01*
X366585Y76773D01*
X366572Y76760D01*
X366506Y76694D01*
X366427Y76642D01*
X366336Y76616D01*
X366244Y76590D01*
X366165Y76576D01*
X366099Y76563D01*
X366047D01*
X366034D01*
X354764D01*
X354711D01*
X354659Y76576D01*
X354632Y76590D01*
X354619D01*
X354580Y76629D01*
X354567Y76668D01*
X354541Y76708D01*
Y76721D01*
X354527Y76799D01*
X354501Y76891D01*
X354488Y76944D01*
Y76970D01*
X354475Y77101D01*
X354462Y77232D01*
Y77534D01*
X354475Y77652D01*
X354488Y77731D01*
Y77757D01*
X354514Y77862D01*
X354527Y77941D01*
X354541Y77993D01*
Y78006D01*
X354567Y78072D01*
X354593Y78111D01*
X354606Y78124D01*
X354619Y78138D01*
X354672Y78164D01*
X354711Y78190D01*
X354751D01*
X354764D01*
X359172D01*
Y79568D01*
X359185Y79974D01*
X359211Y80355D01*
X359264Y80683D01*
X359290Y80840D01*
X359316Y80972D01*
X359329Y81103D01*
X359356Y81208D01*
X359382Y81300D01*
X359408Y81378D01*
X359421Y81444D01*
X359434Y81483D01*
X359448Y81510D01*
Y81523D01*
X359566Y81824D01*
X359697Y82087D01*
X359828Y82323D01*
X359959Y82520D01*
X360077Y82677D01*
X360169Y82795D01*
X360222Y82874D01*
X360248Y82900D01*
X360458Y83097D01*
X360668Y83268D01*
X360878Y83425D01*
X361074Y83543D01*
X361245Y83635D01*
X361389Y83714D01*
X361442Y83740D01*
X361481Y83753D01*
X361494Y83766D01*
X361507D01*
X361796Y83871D01*
X362071Y83950D01*
X362360Y84002D01*
X362609Y84042D01*
X362832Y84068D01*
X362924D01*
X363003Y84081D01*
X363069D01*
X363121D01*
X363147D01*
X363160D01*
X363410Y84068D01*
D02*
G37*
%LPC*%
G36*
X127628Y268955D02*
X123162D01*
Y266324D01*
X127628Y268937D01*
Y268955D01*
D02*
G37*
G36*
X124080Y242840D02*
X124019D01*
X123975D01*
X123949D01*
X123940D01*
Y239755D01*
X124062Y239763D01*
X124185Y239772D01*
X124298Y239798D01*
X124394Y239816D01*
X124482Y239833D01*
X124543Y239851D01*
X124578Y239868D01*
X124595D01*
X124709Y239912D01*
X124823Y239964D01*
X124919Y240017D01*
X124997Y240060D01*
X125067Y240104D01*
X125111Y240139D01*
X125146Y240165D01*
X125155Y240174D01*
X125242Y240253D01*
X125321Y240331D01*
X125391Y240410D01*
X125443Y240489D01*
X125487Y240550D01*
X125522Y240611D01*
X125539Y240646D01*
X125548Y240655D01*
X125600Y240768D01*
X125635Y240891D01*
X125662Y241004D01*
X125679Y241109D01*
X125688Y241197D01*
X125697Y241275D01*
Y241336D01*
X125688Y241476D01*
X125679Y241599D01*
X125627Y241835D01*
X125592Y241931D01*
X125548Y242027D01*
X125504Y242114D01*
X125461Y242184D01*
X125417Y242254D01*
X125373Y242315D01*
X125338Y242359D01*
X125294Y242403D01*
X125268Y242429D01*
X125242Y242455D01*
X125233Y242473D01*
X125225D01*
X125137Y242543D01*
X125032Y242595D01*
X124831Y242691D01*
X124613Y242761D01*
X124412Y242805D01*
X124316Y242813D01*
X124228Y242822D01*
X124141Y242831D01*
X124080Y242840D01*
D02*
G37*
G36*
Y207897D02*
X124019D01*
X123975D01*
X123949D01*
X123940D01*
Y204812D01*
X124062Y204821D01*
X124185Y204830D01*
X124298Y204856D01*
X124394Y204873D01*
X124482Y204891D01*
X124543Y204908D01*
X124578Y204926D01*
X124595D01*
X124709Y204969D01*
X124823Y205022D01*
X124919Y205074D01*
X124997Y205118D01*
X125067Y205162D01*
X125111Y205197D01*
X125146Y205223D01*
X125155Y205231D01*
X125242Y205310D01*
X125321Y205389D01*
X125391Y205468D01*
X125443Y205546D01*
X125487Y205607D01*
X125522Y205668D01*
X125539Y205703D01*
X125548Y205712D01*
X125600Y205826D01*
X125635Y205948D01*
X125662Y206062D01*
X125679Y206167D01*
X125688Y206254D01*
X125697Y206333D01*
Y206394D01*
X125688Y206534D01*
X125679Y206656D01*
X125627Y206892D01*
X125592Y206988D01*
X125548Y207084D01*
X125504Y207172D01*
X125461Y207242D01*
X125417Y207312D01*
X125373Y207373D01*
X125338Y207417D01*
X125294Y207460D01*
X125268Y207486D01*
X125242Y207513D01*
X125233Y207530D01*
X125225D01*
X125137Y207600D01*
X125032Y207652D01*
X124831Y207749D01*
X124613Y207819D01*
X124412Y207862D01*
X124316Y207871D01*
X124228Y207880D01*
X124141Y207889D01*
X124080Y207897D01*
D02*
G37*
G36*
X123547Y192296D02*
X123459D01*
X123424D01*
X123398D01*
X123389D01*
X123380D01*
X123206D01*
X123031Y192279D01*
X122882Y192261D01*
X122751Y192244D01*
X122638Y192226D01*
X122550Y192209D01*
X122498Y192200D01*
X122489Y192191D01*
X122480D01*
X122332Y192148D01*
X122201Y192095D01*
X122078Y192043D01*
X121973Y191990D01*
X121886Y191947D01*
X121825Y191903D01*
X121790Y191877D01*
X121772Y191868D01*
X121667Y191781D01*
X121571Y191693D01*
X121493Y191606D01*
X121431Y191518D01*
X121379Y191440D01*
X121344Y191379D01*
X121318Y191335D01*
X121309Y191317D01*
X121257Y191186D01*
X121222Y191055D01*
X121187Y190924D01*
X121169Y190793D01*
X121160Y190688D01*
X121152Y190601D01*
Y190522D01*
X121160Y190347D01*
X121178Y190181D01*
X121204Y190041D01*
X121239Y189919D01*
X121274Y189814D01*
X121300Y189744D01*
X121318Y189700D01*
X121327Y189683D01*
X121397Y189569D01*
X121484Y189456D01*
X121563Y189368D01*
X121641Y189290D01*
X121711Y189229D01*
X121764Y189185D01*
X121799Y189159D01*
X121816Y189150D01*
X121938Y189080D01*
X122061Y189019D01*
X122174Y188966D01*
X122288Y188931D01*
X122384Y188897D01*
X122463Y188879D01*
X122515Y188870D01*
X122524Y188862D01*
X122533D01*
X122839Y188818D01*
X122987Y188800D01*
X123127Y188792D01*
X123241D01*
X123328Y188783D01*
X123363D01*
X123389D01*
X123398D01*
X123407D01*
X123582Y188792D01*
X123756Y188800D01*
X123905Y188818D01*
X124036Y188835D01*
X124150Y188853D01*
X124228Y188862D01*
X124281Y188879D01*
X124298D01*
X124447Y188923D01*
X124587Y188975D01*
X124700Y189028D01*
X124805Y189080D01*
X124892Y189124D01*
X124954Y189167D01*
X124989Y189194D01*
X125006Y189202D01*
X125111Y189290D01*
X125207Y189377D01*
X125286Y189473D01*
X125356Y189561D01*
X125408Y189639D01*
X125452Y189700D01*
X125469Y189735D01*
X125478Y189753D01*
X125531Y189884D01*
X125574Y190015D01*
X125600Y190155D01*
X125627Y190277D01*
X125635Y190382D01*
X125644Y190470D01*
Y190548D01*
X125635Y190732D01*
X125618Y190898D01*
X125583Y191038D01*
X125557Y191160D01*
X125522Y191256D01*
X125487Y191326D01*
X125469Y191370D01*
X125461Y191387D01*
X125391Y191510D01*
X125303Y191615D01*
X125225Y191702D01*
X125146Y191781D01*
X125076Y191842D01*
X125024Y191885D01*
X124989Y191912D01*
X124971Y191920D01*
X124849Y191990D01*
X124726Y192052D01*
X124613Y192104D01*
X124499Y192139D01*
X124403Y192174D01*
X124324Y192191D01*
X124272Y192209D01*
X124263D01*
X124255D01*
X123949Y192261D01*
X123800Y192279D01*
X123660Y192288D01*
X123547Y192296D01*
D02*
G37*
G36*
X126160Y185435D02*
X126125D01*
X126099D01*
X126081D01*
X126072D01*
X125941Y185427D01*
X125810Y185418D01*
X125697Y185400D01*
X125592Y185383D01*
X125513Y185357D01*
X125443Y185339D01*
X125408Y185330D01*
X125391Y185322D01*
X125277Y185278D01*
X125181Y185217D01*
X125085Y185164D01*
X125006Y185112D01*
X124945Y185060D01*
X124901Y185016D01*
X124866Y184990D01*
X124857Y184981D01*
X124779Y184894D01*
X124709Y184806D01*
X124656Y184710D01*
X124604Y184631D01*
X124569Y184553D01*
X124543Y184492D01*
X124525Y184457D01*
X124517Y184439D01*
X124473Y184308D01*
X124447Y184177D01*
X124420Y184037D01*
X124412Y183906D01*
X124403Y183792D01*
X124394Y183705D01*
Y182647D01*
X127654D01*
Y183644D01*
X127646Y183853D01*
X127637Y183950D01*
X127628Y184037D01*
X127619Y184107D01*
X127611Y184159D01*
X127602Y184203D01*
Y184212D01*
X127584Y184325D01*
X127549Y184430D01*
X127515Y184527D01*
X127480Y184605D01*
X127445Y184675D01*
X127418Y184736D01*
X127401Y184771D01*
X127392Y184780D01*
X127322Y184876D01*
X127252Y184972D01*
X127165Y185051D01*
X127086Y185121D01*
X127016Y185173D01*
X126955Y185208D01*
X126920Y185234D01*
X126903Y185243D01*
X126772Y185304D01*
X126632Y185357D01*
X126492Y185392D01*
X126361Y185409D01*
X126247Y185427D01*
X126160Y185435D01*
D02*
G37*
G36*
X174185Y175726D02*
X174139D01*
X174100D01*
X174067D01*
X174041D01*
X174028D01*
X174021D01*
X173897D01*
X173772Y175719D01*
X173667D01*
X173568Y175713D01*
X173483Y175706D01*
X173418D01*
X173378Y175700D01*
X173372D01*
X173365D01*
X173247Y175693D01*
X173142Y175680D01*
X173044Y175667D01*
X172958Y175654D01*
X172886Y175641D01*
X172827Y175628D01*
X172794Y175621D01*
X172781D01*
X172683Y175601D01*
X172591Y175575D01*
X172506Y175549D01*
X172434Y175529D01*
X172374Y175503D01*
X172329Y175490D01*
X172302Y175477D01*
X172289Y175470D01*
X172211Y175431D01*
X172138Y175398D01*
X172073Y175352D01*
X172020Y175319D01*
X171974Y175286D01*
X171935Y175260D01*
X171915Y175241D01*
X171909Y175234D01*
X171856Y175175D01*
X171804Y175116D01*
X171765Y175063D01*
X171732Y175004D01*
X171699Y174958D01*
X171679Y174919D01*
X171673Y174893D01*
X171666Y174886D01*
X171640Y174808D01*
X171620Y174729D01*
X171607Y174650D01*
X171600Y174578D01*
X171594Y174519D01*
X171587Y174466D01*
Y174420D01*
X171594Y174302D01*
X171607Y174191D01*
X171627Y174092D01*
X171653Y174007D01*
X171679Y173935D01*
X171699Y173889D01*
X171712Y173856D01*
X171719Y173843D01*
X171778Y173758D01*
X171843Y173679D01*
X171915Y173614D01*
X171987Y173561D01*
X172053Y173515D01*
X172112Y173476D01*
X172145Y173456D01*
X172158Y173450D01*
X172276Y173397D01*
X172407Y173351D01*
X172538Y173312D01*
X172663Y173279D01*
X172775Y173259D01*
X172821Y173246D01*
X172860Y173240D01*
X172893Y173233D01*
X172919D01*
X172932Y173227D01*
X172939D01*
X173129Y173207D01*
X173326Y173187D01*
X173522Y173174D01*
X173706Y173168D01*
X173792D01*
X173864D01*
X173936Y173161D01*
X173995D01*
X174041D01*
X174074D01*
X174100D01*
X174106D01*
X174297D01*
X174474Y173168D01*
X174631Y173174D01*
X174776Y173187D01*
X174835D01*
X174894Y173194D01*
X174940D01*
X174979Y173200D01*
X175012D01*
X175038Y173207D01*
X175051D01*
X175058D01*
X175222Y173233D01*
X175366Y173259D01*
X175497Y173292D01*
X175615Y173325D01*
X175707Y173358D01*
X175773Y173378D01*
X175799Y173391D01*
X175819Y173397D01*
X175825Y173404D01*
X175832D01*
X175950Y173463D01*
X176055Y173528D01*
X176146Y173594D01*
X176219Y173653D01*
X176278Y173712D01*
X176324Y173758D01*
X176350Y173784D01*
X176356Y173797D01*
X176422Y173902D01*
X176468Y174007D01*
X176501Y174119D01*
X176521Y174224D01*
X176540Y174316D01*
X176547Y174388D01*
Y174532D01*
X176540Y174611D01*
X176527Y174683D01*
X176521Y174742D01*
X176507Y174788D01*
X176494Y174827D01*
X176488Y174854D01*
Y174860D01*
X176461Y174926D01*
X176435Y174991D01*
X176402Y175044D01*
X176370Y175090D01*
X176343Y175129D01*
X176317Y175155D01*
X176304Y175175D01*
X176297Y175181D01*
X176245Y175234D01*
X176192Y175280D01*
X176133Y175319D01*
X176081Y175359D01*
X176035Y175385D01*
X175996Y175405D01*
X175969Y175418D01*
X175963Y175424D01*
X175884Y175463D01*
X175805Y175496D01*
X175727Y175523D01*
X175648Y175549D01*
X175582Y175562D01*
X175530Y175575D01*
X175497Y175588D01*
X175490D01*
X175484D01*
X175379Y175614D01*
X175268Y175634D01*
X175162Y175647D01*
X175058Y175660D01*
X174972Y175673D01*
X174900Y175680D01*
X174874Y175687D01*
X174861D01*
X174848D01*
X174841D01*
X174703Y175700D01*
X174559Y175713D01*
X174421Y175719D01*
X174297D01*
X174185Y175726D01*
D02*
G37*
G36*
X173345Y155816D02*
X173286D01*
X173260D01*
X173240D01*
X173234D01*
X173227D01*
X173116D01*
X173011Y155803D01*
X172913Y155797D01*
X172821Y155783D01*
X172748Y155770D01*
X172689Y155764D01*
X172650Y155751D01*
X172643D01*
X172637D01*
X172532Y155725D01*
X172427Y155698D01*
X172342Y155666D01*
X172263Y155633D01*
X172197Y155606D01*
X172145Y155580D01*
X172119Y155567D01*
X172106Y155561D01*
X172020Y155508D01*
X171948Y155449D01*
X171882Y155390D01*
X171830Y155338D01*
X171784Y155291D01*
X171751Y155252D01*
X171732Y155219D01*
X171725Y155213D01*
X171679Y155134D01*
X171646Y155049D01*
X171620Y154964D01*
X171607Y154885D01*
X171594Y154819D01*
X171587Y154760D01*
Y154714D01*
X171594Y154596D01*
X171620Y154485D01*
X171653Y154380D01*
X171692Y154288D01*
X171725Y154216D01*
X171758Y154157D01*
X171784Y154117D01*
X171791Y154111D01*
Y154104D01*
X171876Y153993D01*
X171974Y153888D01*
X172073Y153783D01*
X172171Y153691D01*
X172257Y153612D01*
X172329Y153547D01*
X172355Y153527D01*
X172374Y153507D01*
X172388Y153501D01*
X172394Y153494D01*
X174087D01*
X174172Y153560D01*
X174251Y153625D01*
X174316Y153684D01*
X174375Y153737D01*
X174421Y153783D01*
X174454Y153815D01*
X174474Y153835D01*
X174480Y153842D01*
X174585Y153960D01*
X174631Y154012D01*
X174671Y154058D01*
X174697Y154098D01*
X174716Y154130D01*
X174730Y154150D01*
X174736Y154157D01*
X174802Y154268D01*
X174828Y154321D01*
X174848Y154367D01*
X174861Y154406D01*
X174874Y154432D01*
X174881Y154452D01*
Y154458D01*
X174907Y154570D01*
X174913Y154622D01*
X174920Y154668D01*
X174926Y154708D01*
Y154760D01*
X174920Y154872D01*
X174907Y154964D01*
X174881Y155055D01*
X174854Y155128D01*
X174828Y155187D01*
X174802Y155226D01*
X174789Y155259D01*
X174782Y155265D01*
X174723Y155338D01*
X174664Y155403D01*
X174598Y155456D01*
X174539Y155501D01*
X174487Y155541D01*
X174441Y155567D01*
X174415Y155580D01*
X174402Y155587D01*
X174310Y155633D01*
X174218Y155666D01*
X174126Y155698D01*
X174041Y155725D01*
X173969Y155738D01*
X173910Y155751D01*
X173870Y155764D01*
X173864D01*
X173857D01*
X173634Y155797D01*
X173522Y155803D01*
X173431Y155810D01*
X173345Y155816D01*
D02*
G37*
G36*
X173267Y150221D02*
Y148095D01*
X176311Y149145D01*
Y149151D01*
X173267Y150221D01*
D02*
G37*
G36*
X317414Y170980D02*
X317349D01*
X317322D01*
X317303D01*
X317296D01*
X317289D01*
X317158D01*
X317027Y170967D01*
X316915Y170954D01*
X316817Y170940D01*
X316732Y170927D01*
X316666Y170914D01*
X316627Y170908D01*
X316620Y170901D01*
X316614D01*
X316502Y170868D01*
X316404Y170829D01*
X316312Y170790D01*
X316233Y170750D01*
X316168Y170717D01*
X316122Y170685D01*
X316095Y170665D01*
X316082Y170658D01*
X316004Y170593D01*
X315932Y170527D01*
X315873Y170461D01*
X315827Y170396D01*
X315787Y170337D01*
X315761Y170291D01*
X315741Y170258D01*
X315735Y170245D01*
X315695Y170147D01*
X315669Y170048D01*
X315643Y169950D01*
X315630Y169851D01*
X315623Y169773D01*
X315617Y169707D01*
Y169648D01*
X315623Y169517D01*
X315636Y169392D01*
X315656Y169287D01*
X315682Y169195D01*
X315708Y169117D01*
X315728Y169064D01*
X315741Y169031D01*
X315748Y169018D01*
X315800Y168933D01*
X315866Y168848D01*
X315925Y168782D01*
X315984Y168723D01*
X316037Y168677D01*
X316076Y168644D01*
X316102Y168625D01*
X316115Y168618D01*
X316207Y168566D01*
X316299Y168520D01*
X316384Y168480D01*
X316469Y168454D01*
X316542Y168428D01*
X316601Y168415D01*
X316640Y168408D01*
X316647Y168402D01*
X316653D01*
X316883Y168369D01*
X316994Y168356D01*
X317099Y168349D01*
X317184D01*
X317250Y168343D01*
X317276D01*
X317296D01*
X317303D01*
X317309D01*
X317440Y168349D01*
X317571Y168356D01*
X317683Y168369D01*
X317781Y168382D01*
X317867Y168395D01*
X317926Y168402D01*
X317965Y168415D01*
X317978D01*
X318090Y168448D01*
X318195Y168487D01*
X318280Y168526D01*
X318359Y168566D01*
X318424Y168598D01*
X318470Y168631D01*
X318496Y168651D01*
X318510Y168658D01*
X318588Y168723D01*
X318660Y168789D01*
X318720Y168861D01*
X318772Y168927D01*
X318811Y168985D01*
X318844Y169031D01*
X318857Y169058D01*
X318864Y169071D01*
X318903Y169169D01*
X318936Y169268D01*
X318956Y169373D01*
X318975Y169464D01*
X318982Y169543D01*
X318988Y169609D01*
Y169668D01*
X318982Y169806D01*
X318969Y169930D01*
X318943Y170035D01*
X318923Y170127D01*
X318897Y170199D01*
X318870Y170252D01*
X318857Y170284D01*
X318851Y170298D01*
X318798Y170389D01*
X318733Y170468D01*
X318674Y170534D01*
X318615Y170593D01*
X318562Y170639D01*
X318523Y170671D01*
X318496Y170691D01*
X318483Y170698D01*
X318391Y170750D01*
X318300Y170796D01*
X318214Y170835D01*
X318129Y170862D01*
X318057Y170888D01*
X317998Y170901D01*
X317959Y170914D01*
X317952D01*
X317945D01*
X317716Y170954D01*
X317604Y170967D01*
X317499Y170973D01*
X317414Y170980D01*
D02*
G37*
G36*
X317309Y159742D02*
Y157617D01*
X320353Y158667D01*
Y158673D01*
X317309Y159742D01*
D02*
G37*
G36*
X359238Y92675D02*
X359106D01*
X359054D01*
X359015D01*
X359001D01*
X358988D01*
X358726D01*
X358464Y92648D01*
X358241Y92622D01*
X358044Y92596D01*
X357873Y92570D01*
X357742Y92543D01*
X357663Y92530D01*
X357650Y92517D01*
X357637D01*
X357414Y92452D01*
X357217Y92373D01*
X357033Y92294D01*
X356876Y92215D01*
X356745Y92150D01*
X356653Y92084D01*
X356600Y92045D01*
X356574Y92032D01*
X356417Y91900D01*
X356273Y91769D01*
X356154Y91638D01*
X356063Y91507D01*
X355984Y91389D01*
X355931Y91297D01*
X355892Y91231D01*
X355879Y91205D01*
X355800Y91008D01*
X355748Y90812D01*
X355695Y90615D01*
X355669Y90418D01*
X355656Y90260D01*
X355643Y90129D01*
Y90011D01*
X355656Y89749D01*
X355682Y89499D01*
X355721Y89290D01*
X355774Y89106D01*
X355826Y88949D01*
X355866Y88844D01*
X355892Y88778D01*
X355905Y88752D01*
X356010Y88581D01*
X356141Y88411D01*
X356259Y88279D01*
X356377Y88161D01*
X356482Y88069D01*
X356561Y88004D01*
X356614Y87964D01*
X356640Y87951D01*
X356823Y87846D01*
X357007Y87755D01*
X357178Y87676D01*
X357348Y87623D01*
X357493Y87571D01*
X357611Y87545D01*
X357689Y87532D01*
X357703Y87518D01*
X357716D01*
X358175Y87453D01*
X358398Y87427D01*
X358608Y87414D01*
X358778D01*
X358910Y87400D01*
X358962D01*
X359001D01*
X359015D01*
X359028D01*
X359290Y87414D01*
X359553Y87427D01*
X359775Y87453D01*
X359972Y87479D01*
X360143Y87505D01*
X360261Y87518D01*
X360340Y87545D01*
X360366D01*
X360589Y87610D01*
X360799Y87689D01*
X360969Y87768D01*
X361127Y87846D01*
X361258Y87912D01*
X361350Y87978D01*
X361402Y88017D01*
X361429Y88030D01*
X361586Y88161D01*
X361730Y88292D01*
X361848Y88437D01*
X361953Y88568D01*
X362032Y88686D01*
X362098Y88778D01*
X362124Y88830D01*
X362137Y88857D01*
X362216Y89053D01*
X362281Y89250D01*
X362321Y89460D01*
X362360Y89644D01*
X362373Y89801D01*
X362386Y89933D01*
Y90051D01*
X362373Y90326D01*
X362347Y90575D01*
X362295Y90785D01*
X362255Y90969D01*
X362203Y91113D01*
X362150Y91218D01*
X362124Y91284D01*
X362111Y91310D01*
X362006Y91494D01*
X361875Y91651D01*
X361757Y91782D01*
X361639Y91900D01*
X361534Y91992D01*
X361455Y92058D01*
X361402Y92097D01*
X361376Y92110D01*
X361192Y92215D01*
X361009Y92307D01*
X360838Y92386D01*
X360668Y92438D01*
X360523Y92491D01*
X360405Y92517D01*
X360327Y92543D01*
X360313D01*
X360300D01*
X359841Y92622D01*
X359618Y92648D01*
X359408Y92661D01*
X359238Y92675D01*
D02*
G37*
G36*
X363160Y82375D02*
X363108D01*
X363069D01*
X363042D01*
X363029D01*
X362832Y82362D01*
X362636Y82349D01*
X362465Y82323D01*
X362308Y82297D01*
X362190Y82257D01*
X362085Y82231D01*
X362032Y82218D01*
X362006Y82205D01*
X361835Y82139D01*
X361691Y82047D01*
X361547Y81969D01*
X361429Y81890D01*
X361337Y81811D01*
X361271Y81746D01*
X361219Y81706D01*
X361206Y81693D01*
X361087Y81562D01*
X360983Y81431D01*
X360904Y81286D01*
X360825Y81168D01*
X360773Y81050D01*
X360733Y80958D01*
X360707Y80906D01*
X360694Y80880D01*
X360628Y80683D01*
X360589Y80486D01*
X360550Y80276D01*
X360537Y80079D01*
X360523Y79909D01*
X360510Y79778D01*
Y78190D01*
X365404D01*
Y79686D01*
X365391Y80001D01*
X365378Y80145D01*
X365365Y80276D01*
X365352Y80381D01*
X365338Y80460D01*
X365325Y80525D01*
Y80539D01*
X365299Y80709D01*
X365247Y80867D01*
X365194Y81011D01*
X365142Y81129D01*
X365089Y81234D01*
X365050Y81326D01*
X365023Y81378D01*
X365010Y81391D01*
X364905Y81536D01*
X364801Y81680D01*
X364669Y81798D01*
X364551Y81903D01*
X364446Y81982D01*
X364354Y82034D01*
X364302Y82074D01*
X364276Y82087D01*
X364079Y82179D01*
X363869Y82257D01*
X363659Y82310D01*
X363462Y82336D01*
X363292Y82362D01*
X363160Y82375D01*
D02*
G37*
%LPD*%
D93*
X163779Y75000D02*
D03*
Y79921D02*
D03*
Y84842D02*
D03*
X353839Y209449D02*
D03*
Y214370D02*
D03*
Y219291D02*
D03*
X296654Y200394D02*
D03*
X291732D02*
D03*
X286811D02*
D03*
X291535Y149606D02*
D03*
X296457D02*
D03*
X301378D02*
D03*
D94*
X163779Y89764D02*
D03*
X353839Y204528D02*
D03*
D95*
X301575Y200394D02*
D03*
X286614Y149606D02*
D03*
D96*
X425197Y186221D02*
D03*
X435039D02*
D03*
X444882D02*
D03*
X454724D02*
D03*
X425197Y174409D02*
D03*
X435039D02*
D03*
X444882D02*
D03*
X454724D02*
D03*
X435039Y251181D02*
D03*
X444882D02*
D03*
X454724D02*
D03*
X444882Y239370D02*
D03*
X454724D02*
D03*
X444882Y229528D02*
D03*
X454724D02*
D03*
X444882Y217717D02*
D03*
X454724D02*
D03*
X444882Y207874D02*
D03*
X454724D02*
D03*
X444882Y196063D02*
D03*
X454724D02*
D03*
X425197Y251181D02*
D03*
Y239370D02*
D03*
Y229528D02*
D03*
Y217717D02*
D03*
Y207874D02*
D03*
Y196063D02*
D03*
X435039D02*
D03*
Y239370D02*
D03*
Y229528D02*
D03*
Y217717D02*
D03*
Y207874D02*
D03*
X438779Y154016D02*
D03*
X448779D02*
D03*
X428780D02*
D03*
Y144016D02*
D03*
X438779D02*
D03*
X448779D02*
D03*
X428780Y134016D02*
D03*
X438779D02*
D03*
X448779D02*
D03*
X428780Y124016D02*
D03*
X438779D02*
D03*
X448779D02*
D03*
X428780Y114016D02*
D03*
X438779D02*
D03*
X448779D02*
D03*
X428780Y104016D02*
D03*
X438779D02*
D03*
X448779D02*
D03*
X428780Y94016D02*
D03*
X438779D02*
D03*
X448779D02*
D03*
X428780Y84016D02*
D03*
X438779D02*
D03*
X448779D02*
D03*
X59055Y148228D02*
D03*
X49213D02*
D03*
X39370D02*
D03*
X29528D02*
D03*
X59055Y160039D02*
D03*
X49213D02*
D03*
X39370D02*
D03*
X29528D02*
D03*
X49213Y83268D02*
D03*
X39370D02*
D03*
X29528D02*
D03*
X39370Y95079D02*
D03*
X29528D02*
D03*
X39370Y104921D02*
D03*
X29528D02*
D03*
X39370Y116732D02*
D03*
X29528D02*
D03*
X39370Y126575D02*
D03*
X29528D02*
D03*
X39370Y138386D02*
D03*
X29528D02*
D03*
X59055Y83268D02*
D03*
Y95079D02*
D03*
Y104921D02*
D03*
Y116732D02*
D03*
Y126575D02*
D03*
Y138386D02*
D03*
X49213D02*
D03*
Y95079D02*
D03*
Y104921D02*
D03*
Y116732D02*
D03*
Y126575D02*
D03*
X45472Y180433D02*
D03*
X35472D02*
D03*
X55472D02*
D03*
Y190433D02*
D03*
X45472D02*
D03*
X35472D02*
D03*
X55472Y200433D02*
D03*
X45472D02*
D03*
X35472D02*
D03*
X55472Y210433D02*
D03*
X45472D02*
D03*
X35472D02*
D03*
X55472Y220433D02*
D03*
X45472D02*
D03*
X35472D02*
D03*
X55472Y230433D02*
D03*
X45472D02*
D03*
X35472D02*
D03*
X55472Y240433D02*
D03*
X45472D02*
D03*
X35472D02*
D03*
X55472Y250433D02*
D03*
X45472D02*
D03*
X35472D02*
D03*
D97*
X227953Y271654D02*
D03*
X256299D02*
D03*
Y61024D02*
D03*
X227953D02*
D03*
D98*
X268701Y295276D02*
D03*
X215551D02*
D03*
Y37402D02*
D03*
X268701D02*
D03*
D99*
X326693Y139139D02*
D03*
X326193Y193539D02*
D03*
D100*
X127953Y10827D02*
D03*
Y321850D02*
D03*
X182087D02*
D03*
X182087Y10827D02*
D03*
X356299Y321850D02*
D03*
X356299Y10827D02*
D03*
X302165Y321850D02*
D03*
X302165Y10827D02*
D03*
D101*
X146653Y21654D02*
D03*
Y40157D02*
D03*
X109252Y21654D02*
D03*
Y40157D02*
D03*
Y311024D02*
D03*
Y292520D02*
D03*
X146653Y311024D02*
D03*
Y292520D02*
D03*
X163386Y311024D02*
D03*
Y292520D02*
D03*
X200787Y311024D02*
D03*
Y292520D02*
D03*
X200787Y21654D02*
D03*
Y40157D02*
D03*
X163386Y21654D02*
D03*
Y40157D02*
D03*
X337598Y311024D02*
D03*
Y292520D02*
D03*
X375000Y311024D02*
D03*
Y292520D02*
D03*
X375000Y21654D02*
D03*
Y40157D02*
D03*
X337598Y21654D02*
D03*
Y40157D02*
D03*
X283465Y311024D02*
D03*
Y292520D02*
D03*
X320866Y311024D02*
D03*
Y292520D02*
D03*
X320866Y21654D02*
D03*
Y40157D02*
D03*
X283465Y21654D02*
D03*
Y40157D02*
D03*
D102*
X127953Y23622D02*
D03*
Y309055D02*
D03*
X182087D02*
D03*
X182087Y23622D02*
D03*
X356299Y309055D02*
D03*
X356299Y23622D02*
D03*
X302165Y309055D02*
D03*
X302165Y23622D02*
D03*
D103*
X127953Y47244D02*
D03*
Y285433D02*
D03*
X182087D02*
D03*
X182087Y47244D02*
D03*
X356299Y285433D02*
D03*
X356299Y47244D02*
D03*
X302165Y285433D02*
D03*
X302165Y47244D02*
D03*
D104*
X321260Y130315D02*
D03*
X180315Y99213D02*
D03*
X176378D02*
D03*
X178347Y102756D02*
D03*
X148425Y84252D02*
D03*
X168110Y74016D02*
D03*
Y77559D02*
D03*
X159055Y77165D02*
D03*
Y81102D02*
D03*
Y85039D02*
D03*
X160236Y133071D02*
D03*
X160433Y197835D02*
D03*
Y189961D02*
D03*
X205118Y156299D02*
D03*
X204331Y131496D02*
D03*
X208661Y131890D02*
D03*
X222441Y131496D02*
D03*
X226378Y127953D02*
D03*
X141732Y134843D02*
D03*
X213386Y132283D02*
D03*
X218110Y131496D02*
D03*
X204724Y102756D02*
D03*
X200787D02*
D03*
X229921Y121260D02*
D03*
X208661Y136811D02*
D03*
X222441Y116142D02*
D03*
X218110D02*
D03*
X206299Y152362D02*
D03*
X213386Y114961D02*
D03*
X261024Y209842D02*
D03*
X126250Y169783D02*
D03*
X120276Y169783D02*
D03*
X125515Y104406D02*
D03*
X120480Y104342D02*
D03*
X105413Y76772D02*
D03*
X363386Y229921D02*
D03*
X358268Y229942D02*
D03*
X359055Y165354D02*
D03*
X363189D02*
D03*
X339075Y256299D02*
D03*
X160433Y213583D02*
D03*
X324803Y105709D02*
D03*
X212992Y94488D02*
D03*
X209055Y96850D02*
D03*
X222260Y90251D02*
D03*
X205118Y99213D02*
D03*
X316929Y255118D02*
D03*
X274449Y257835D02*
D03*
X281323Y256079D02*
D03*
X277461Y266634D02*
D03*
X277362Y262697D02*
D03*
X270768Y262500D02*
D03*
X261611Y255121D02*
D03*
X270768Y267618D02*
D03*
X277714Y275394D02*
D03*
X277615Y271457D02*
D03*
X271260Y248031D02*
D03*
X258268Y244213D02*
D03*
X227362Y247146D02*
D03*
X271260Y242815D02*
D03*
X270669Y256890D02*
D03*
X258268Y248031D02*
D03*
X345768Y159547D02*
D03*
X227362Y243110D02*
D03*
X324803Y82087D02*
D03*
Y89961D02*
D03*
Y97835D02*
D03*
Y121457D02*
D03*
Y113583D02*
D03*
X160433Y245079D02*
D03*
Y237205D02*
D03*
X150591Y245079D02*
D03*
Y221457D02*
D03*
X160433D02*
D03*
X150591Y213583D02*
D03*
X160433Y205709D02*
D03*
X260236Y91535D02*
D03*
X254921Y97342D02*
D03*
X264961Y91535D02*
D03*
X263386Y102362D02*
D03*
X268110D02*
D03*
X227854Y86122D02*
D03*
Y89735D02*
D03*
X155636Y87953D02*
D03*
X152953Y84941D02*
D03*
X127953Y137795D02*
D03*
X158427Y117558D02*
D03*
X127953Y132874D02*
D03*
Y127953D02*
D03*
X343701Y130709D02*
D03*
X338976D02*
D03*
X334646D02*
D03*
X151969Y111417D02*
D03*
X152756Y116929D02*
D03*
X166929Y258268D02*
D03*
X164961Y98425D02*
D03*
X189269Y184747D02*
D03*
X189370Y193701D02*
D03*
X150565Y144266D02*
D03*
X153040Y137795D02*
D03*
X278346Y165354D02*
D03*
Y173622D02*
D03*
Y169291D02*
D03*
X278740Y135039D02*
D03*
X275197Y138583D02*
D03*
X274803Y104675D02*
D03*
X200787Y98425D02*
D03*
X205906Y77953D02*
D03*
X277165Y96063D02*
D03*
X279999Y120079D02*
D03*
X274420Y123640D02*
D03*
X302362Y239764D02*
D03*
X279528Y238189D02*
D03*
X308661Y228740D02*
D03*
X311811Y249213D02*
D03*
X149606Y172047D02*
D03*
X150591Y176181D02*
D03*
X160433Y169291D02*
D03*
X274016Y234252D02*
D03*
X271260Y231496D02*
D03*
X270866Y236221D02*
D03*
X281496Y153150D02*
D03*
X278543Y150591D02*
D03*
Y155512D02*
D03*
X160433Y179134D02*
D03*
Y174213D02*
D03*
X153746Y97829D02*
D03*
X164961Y102362D02*
D03*
X217520Y148622D02*
D03*
X217520Y154528D02*
D03*
X217520Y184055D02*
D03*
X217520Y178150D02*
D03*
X217520Y160433D02*
D03*
X217520Y166339D02*
D03*
X194882Y119291D02*
D03*
X150591Y197835D02*
D03*
X335039Y198425D02*
D03*
X170866Y85827D02*
D03*
X209055Y87402D02*
D03*
X205512Y84646D02*
D03*
X277953Y212513D02*
D03*
X281151Y214961D02*
D03*
X278120Y217319D02*
D03*
X277559Y201181D02*
D03*
X277440Y126792D02*
D03*
X155512Y66142D02*
D03*
X155315Y107779D02*
D03*
X226378Y123622D02*
D03*
Y119291D02*
D03*
X208661Y116142D02*
D03*
X204331D02*
D03*
X229921Y126772D02*
D03*
X200394Y127953D02*
D03*
Y123622D02*
D03*
Y119291D02*
D03*
X277165Y192520D02*
D03*
X268110Y183891D02*
D03*
X223425Y191929D02*
D03*
X127953Y118110D02*
D03*
Y123031D02*
D03*
X339567Y194882D02*
D03*
X326772Y220472D02*
D03*
X336614D02*
D03*
Y224410D02*
D03*
X326772D02*
D03*
X197835Y140748D02*
D03*
X188976Y155512D02*
D03*
Y167323D02*
D03*
Y173228D02*
D03*
Y179134D02*
D03*
X281890Y181496D02*
D03*
X274606Y130905D02*
D03*
X224410Y77756D02*
D03*
X211614D02*
D03*
X277559Y83661D02*
D03*
X273622Y87598D02*
D03*
X269685Y91535D02*
D03*
X280512Y92520D02*
D03*
X273622Y205709D02*
D03*
X279528Y228346D02*
D03*
Y233268D02*
D03*
X206693Y255906D02*
D03*
X211614D02*
D03*
X208661Y224410D02*
D03*
X212598Y232283D02*
D03*
X207677D02*
D03*
X214567Y241142D02*
D03*
X209646D02*
D03*
X204724D02*
D03*
X261811Y151575D02*
D03*
X261811Y157480D02*
D03*
X261811Y163386D02*
D03*
X261811Y169291D02*
D03*
X220472Y163386D02*
D03*
X220472Y169291D02*
D03*
X217520Y172244D02*
D03*
X150591Y186024D02*
D03*
Y168307D02*
D03*
X154637Y121457D02*
D03*
X204724Y220472D02*
D03*
X222441Y244094D02*
D03*
X232283Y232283D02*
D03*
X149606Y87402D02*
D03*
X251969Y146850D02*
D03*
X218110Y141339D02*
D03*
X227953Y94882D02*
D03*
X268898Y224803D02*
D03*
X265786Y227991D02*
D03*
X277953Y196063D02*
D03*
X156693Y259055D02*
D03*
X331693Y143701D02*
D03*
Y149606D02*
D03*
X106102Y195866D02*
D03*
X377953Y143701D02*
D03*
Y149606D02*
D03*
X151575Y259055D02*
D03*
X262992Y231496D02*
D03*
X277440Y101456D02*
D03*
X264173Y174016D02*
D03*
X141732Y115748D02*
D03*
X152362Y105118D02*
D03*
X155219Y102261D02*
D03*
X258661Y141732D02*
D03*
X281102Y219685D02*
D03*
X277953Y222047D02*
D03*
X253937Y189370D02*
D03*
X257087Y191732D02*
D03*
X250394Y187402D02*
D03*
X246850Y189509D02*
D03*
X243701Y192126D02*
D03*
X204095Y175984D02*
D03*
X206299Y166732D02*
D03*
X255512Y144488D02*
D03*
X245276Y141732D02*
D03*
X248425Y144488D02*
D03*
X253543Y114961D02*
D03*
Y74803D02*
D03*
D105*
X230062Y155559D02*
D03*
Y179181D02*
D03*
X230315Y163386D02*
D03*
Y171260D02*
D03*
X253684Y155559D02*
D03*
X253937Y179134D02*
D03*
X246063Y155512D02*
D03*
X238189D02*
D03*
X253937Y163386D02*
D03*
Y171260D02*
D03*
X246063Y179134D02*
D03*
Y163386D02*
D03*
X238189D02*
D03*
Y179134D02*
D03*
X246063Y171260D02*
D03*
X238189D02*
D03*
X437992Y26575D02*
D03*
Y18701D02*
D03*
Y10827D02*
D03*
X445866Y30512D02*
D03*
X390307Y11053D02*
D03*
X398622Y6890D02*
D03*
Y14764D02*
D03*
Y22638D02*
D03*
X390307Y18927D02*
D03*
Y26801D02*
D03*
X406496Y26575D02*
D03*
X422244D02*
D03*
Y18701D02*
D03*
Y10827D02*
D03*
X414370Y6890D02*
D03*
Y14764D02*
D03*
Y22638D02*
D03*
Y30512D02*
D03*
X430118Y6890D02*
D03*
Y14764D02*
D03*
Y22638D02*
D03*
Y30512D02*
D03*
X398622D02*
D03*
X406496Y18701D02*
D03*
Y10827D02*
D03*
X445866Y14764D02*
D03*
Y22638D02*
D03*
Y6890D02*
D03*
X78740Y322835D02*
D03*
Y314961D02*
D03*
Y307087D02*
D03*
X86614Y326772D02*
D03*
X39370Y303150D02*
D03*
Y311024D02*
D03*
Y318898D02*
D03*
X47244Y322835D02*
D03*
X62992D02*
D03*
Y314961D02*
D03*
Y307087D02*
D03*
X55118Y303150D02*
D03*
Y311024D02*
D03*
Y318898D02*
D03*
Y326772D02*
D03*
X70866Y303150D02*
D03*
Y311024D02*
D03*
Y318898D02*
D03*
Y326772D02*
D03*
X39370D02*
D03*
X47244Y314961D02*
D03*
Y307087D02*
D03*
X86614Y311024D02*
D03*
Y318898D02*
D03*
X94488Y307087D02*
D03*
Y322835D02*
D03*
X86614Y303150D02*
D03*
X94488Y314961D02*
D03*
X437992Y321850D02*
D03*
Y313976D02*
D03*
Y306102D02*
D03*
X445866Y325787D02*
D03*
X390307Y306328D02*
D03*
X398622Y302165D02*
D03*
Y310039D02*
D03*
Y317913D02*
D03*
X390307Y314202D02*
D03*
Y322076D02*
D03*
X406496Y321850D02*
D03*
X422244D02*
D03*
Y313976D02*
D03*
Y306102D02*
D03*
X414370Y302165D02*
D03*
Y310039D02*
D03*
Y317913D02*
D03*
Y325787D02*
D03*
X430118Y302165D02*
D03*
Y310039D02*
D03*
Y317913D02*
D03*
Y325787D02*
D03*
X398622D02*
D03*
X406496Y313976D02*
D03*
Y306102D02*
D03*
X445866Y310039D02*
D03*
Y317913D02*
D03*
Y302165D02*
D03*
X38386Y30512D02*
D03*
Y14764D02*
D03*
Y22638D02*
D03*
X77756Y26575D02*
D03*
Y18701D02*
D03*
X85630Y6890D02*
D03*
X54134D02*
D03*
Y14764D02*
D03*
Y22638D02*
D03*
Y30512D02*
D03*
X69882Y6890D02*
D03*
Y14764D02*
D03*
Y22638D02*
D03*
Y30512D02*
D03*
X62008Y26575D02*
D03*
Y18701D02*
D03*
Y10827D02*
D03*
X77756D02*
D03*
X93945Y10601D02*
D03*
Y18475D02*
D03*
X85630Y14764D02*
D03*
Y22638D02*
D03*
Y30512D02*
D03*
X93945Y26349D02*
D03*
X38386Y6890D02*
D03*
X46260Y26575D02*
D03*
Y18701D02*
D03*
Y10827D02*
D03*
D106*
X393701Y166339D02*
D03*
X90551D02*
D03*
X393701Y242126D02*
D03*
Y90551D02*
D03*
X90551Y242126D02*
D03*
X464567Y19685D02*
D03*
Y312992D02*
D03*
X90551Y90551D02*
D03*
X19685Y19685D02*
D03*
Y312992D02*
D03*
D127*
X234055Y37402D02*
D03*
X250197D02*
D03*
D128*
X131693Y89567D02*
D03*
X114370D02*
D03*
X369882Y180118D02*
D03*
X352559D02*
D03*
X114370Y154528D02*
D03*
X131693D02*
D03*
X369882Y245079D02*
D03*
X352559D02*
D03*
D129*
X242126Y78937D02*
D03*
Y96260D02*
D03*
Y236417D02*
D03*
Y253740D02*
D03*
M02*
