G04*
G04 #@! TF.GenerationSoftware,Altium Limited,Altium Designer,21.3.1 (25)*
G04*
G04 Layer_Physical_Order=3*
G04 Layer_Color=16440176*
%FSLAX25Y25*%
%MOIN*%
G70*
G04*
G04 #@! TF.SameCoordinates,B8EFB4BC-30DA-42F7-88CE-EC59C6869F36*
G04*
G04*
G04 #@! TF.FilePolarity,Positive*
G04*
G01*
G75*
%ADD14C,0.00787*%
%ADD104C,0.03150*%
%ADD110C,0.04331*%
%ADD111R,0.04331X0.04331*%
%ADD112R,0.04331X0.04331*%
%ADD113C,0.06319*%
%ADD114C,0.15945*%
%ADD115C,0.10630*%
%ADD116C,0.07874*%
%ADD117C,0.13228*%
%ADD118C,0.13465*%
%ADD119C,0.10039*%
%ADD120C,0.02756*%
%ADD121C,0.05000*%
%ADD122C,0.23622*%
G36*
X482283Y311024D02*
Y21654D01*
X462598Y1969D01*
X21654D01*
X1969Y21654D01*
Y311024D01*
X21654Y330709D01*
X462598D01*
X482283Y311024D01*
D02*
G37*
%LPC*%
G36*
X356843Y325984D02*
X355755D01*
X354704Y325703D01*
X353761Y325158D01*
X352991Y324389D01*
X352447Y323446D01*
X352165Y322395D01*
Y321306D01*
X352447Y320255D01*
X352991Y319312D01*
X353761Y318543D01*
X354704Y317998D01*
X355755Y317717D01*
X356843D01*
X357895Y317998D01*
X358838Y318543D01*
X359607Y319312D01*
X360151Y320255D01*
X360433Y321306D01*
Y322395D01*
X360151Y323446D01*
X359607Y324389D01*
X358838Y325158D01*
X357895Y325703D01*
X356843Y325984D01*
D02*
G37*
G36*
X302710D02*
X301621D01*
X300570Y325703D01*
X299627Y325158D01*
X298857Y324389D01*
X298313Y323446D01*
X298031Y322395D01*
Y321306D01*
X298313Y320255D01*
X298857Y319312D01*
X299627Y318543D01*
X300570Y317998D01*
X301621Y317717D01*
X302710D01*
X303761Y317998D01*
X304704Y318543D01*
X305473Y319312D01*
X306017Y320255D01*
X306299Y321306D01*
Y322395D01*
X306017Y323446D01*
X305473Y324389D01*
X304704Y325158D01*
X303761Y325703D01*
X302710Y325984D01*
D02*
G37*
G36*
X182631D02*
X181542D01*
X180491Y325703D01*
X179548Y325158D01*
X178779Y324389D01*
X178235Y323446D01*
X177953Y322395D01*
Y321306D01*
X178235Y320255D01*
X178779Y319312D01*
X179548Y318543D01*
X180491Y317998D01*
X181542Y317717D01*
X182631D01*
X183682Y317998D01*
X184625Y318543D01*
X185395Y319312D01*
X185939Y320255D01*
X186221Y321306D01*
Y322395D01*
X185939Y323446D01*
X185395Y324389D01*
X184625Y325158D01*
X183682Y325703D01*
X182631Y325984D01*
D02*
G37*
G36*
X128497D02*
X127409D01*
X126357Y325703D01*
X125415Y325158D01*
X124645Y324389D01*
X124101Y323446D01*
X123819Y322395D01*
Y321306D01*
X124101Y320255D01*
X124645Y319312D01*
X125415Y318543D01*
X126357Y317998D01*
X127409Y317717D01*
X128497D01*
X129548Y317998D01*
X130491Y318543D01*
X131261Y319312D01*
X131805Y320255D01*
X132087Y321306D01*
Y322395D01*
X131805Y323446D01*
X131261Y324389D01*
X130491Y325158D01*
X129548Y325703D01*
X128497Y325984D01*
D02*
G37*
G36*
X375748Y318622D02*
X374252D01*
X372784Y318330D01*
X371401Y317757D01*
X370156Y316926D01*
X369098Y315867D01*
X368266Y314623D01*
X367694Y313240D01*
X367402Y311772D01*
Y310275D01*
X367694Y308807D01*
X368266Y307424D01*
X369098Y306180D01*
X370156Y305121D01*
X371401Y304290D01*
X372784Y303717D01*
X374252Y303425D01*
X375748D01*
X377216Y303717D01*
X378599Y304290D01*
X379844Y305121D01*
X380902Y306180D01*
X381734Y307424D01*
X382306Y308807D01*
X382598Y310275D01*
Y311772D01*
X382306Y313240D01*
X381734Y314623D01*
X380902Y315867D01*
X379844Y316926D01*
X378599Y317757D01*
X377216Y318330D01*
X375748Y318622D01*
D02*
G37*
G36*
X338347D02*
X336850D01*
X335382Y318330D01*
X333999Y317757D01*
X332755Y316926D01*
X331696Y315867D01*
X330865Y314623D01*
X330292Y313240D01*
X330000Y311772D01*
Y310275D01*
X330292Y308807D01*
X330865Y307424D01*
X331696Y306180D01*
X332755Y305121D01*
X333999Y304290D01*
X335382Y303717D01*
X336850Y303425D01*
X338347D01*
X339815Y303717D01*
X341198Y304290D01*
X342442Y305121D01*
X343500Y306180D01*
X344332Y307424D01*
X344905Y308807D01*
X345197Y310275D01*
Y311772D01*
X344905Y313240D01*
X344332Y314623D01*
X343500Y315867D01*
X342442Y316926D01*
X341198Y317757D01*
X339815Y318330D01*
X338347Y318622D01*
D02*
G37*
G36*
X321615D02*
X320118D01*
X318650Y318330D01*
X317267Y317757D01*
X316022Y316926D01*
X314964Y315867D01*
X314132Y314623D01*
X313560Y313240D01*
X313268Y311772D01*
Y310275D01*
X313560Y308807D01*
X314132Y307424D01*
X314964Y306180D01*
X316022Y305121D01*
X317267Y304290D01*
X318650Y303717D01*
X320118Y303425D01*
X321615D01*
X323082Y303717D01*
X324465Y304290D01*
X325710Y305121D01*
X326768Y306180D01*
X327600Y307424D01*
X328173Y308807D01*
X328465Y310275D01*
Y311772D01*
X328173Y313240D01*
X327600Y314623D01*
X326768Y315867D01*
X325710Y316926D01*
X324465Y317757D01*
X323082Y318330D01*
X321615Y318622D01*
D02*
G37*
G36*
X284213D02*
X282716D01*
X281248Y318330D01*
X279865Y317757D01*
X278621Y316926D01*
X277562Y315867D01*
X276731Y314623D01*
X276158Y313240D01*
X275866Y311772D01*
Y310275D01*
X276158Y308807D01*
X276731Y307424D01*
X277562Y306180D01*
X278621Y305121D01*
X279865Y304290D01*
X281248Y303717D01*
X282716Y303425D01*
X284213D01*
X285681Y303717D01*
X287064Y304290D01*
X288308Y305121D01*
X289367Y306180D01*
X290198Y307424D01*
X290771Y308807D01*
X291063Y310275D01*
Y311772D01*
X290771Y313240D01*
X290198Y314623D01*
X289367Y315867D01*
X288308Y316926D01*
X287064Y317757D01*
X285681Y318330D01*
X284213Y318622D01*
D02*
G37*
G36*
X201536D02*
X200039D01*
X198571Y318330D01*
X197188Y317757D01*
X195944Y316926D01*
X194885Y315867D01*
X194054Y314623D01*
X193481Y313240D01*
X193189Y311772D01*
Y310275D01*
X193481Y308807D01*
X194054Y307424D01*
X194885Y306180D01*
X195944Y305121D01*
X197188Y304290D01*
X198571Y303717D01*
X200039Y303425D01*
X201536D01*
X203004Y303717D01*
X204387Y304290D01*
X205631Y305121D01*
X206690Y306180D01*
X207521Y307424D01*
X208094Y308807D01*
X208386Y310275D01*
Y311772D01*
X208094Y313240D01*
X207521Y314623D01*
X206690Y315867D01*
X205631Y316926D01*
X204387Y317757D01*
X203004Y318330D01*
X201536Y318622D01*
D02*
G37*
G36*
X164134D02*
X162637D01*
X161169Y318330D01*
X159787Y317757D01*
X158542Y316926D01*
X157484Y315867D01*
X156652Y314623D01*
X156079Y313240D01*
X155787Y311772D01*
Y310275D01*
X156079Y308807D01*
X156652Y307424D01*
X157484Y306180D01*
X158542Y305121D01*
X159787Y304290D01*
X161169Y303717D01*
X162637Y303425D01*
X164134D01*
X165602Y303717D01*
X166985Y304290D01*
X168229Y305121D01*
X169288Y306180D01*
X170120Y307424D01*
X170692Y308807D01*
X170984Y310275D01*
Y311772D01*
X170692Y313240D01*
X170120Y314623D01*
X169288Y315867D01*
X168229Y316926D01*
X166985Y317757D01*
X165602Y318330D01*
X164134Y318622D01*
D02*
G37*
G36*
X147402D02*
X145905D01*
X144437Y318330D01*
X143054Y317757D01*
X141810Y316926D01*
X140752Y315867D01*
X139920Y314623D01*
X139347Y313240D01*
X139055Y311772D01*
Y310275D01*
X139347Y308807D01*
X139920Y307424D01*
X140752Y306180D01*
X141810Y305121D01*
X143054Y304290D01*
X144437Y303717D01*
X145905Y303425D01*
X147402D01*
X148870Y303717D01*
X150253Y304290D01*
X151497Y305121D01*
X152556Y306180D01*
X153387Y307424D01*
X153960Y308807D01*
X154252Y310275D01*
Y311772D01*
X153960Y313240D01*
X153387Y314623D01*
X152556Y315867D01*
X151497Y316926D01*
X150253Y317757D01*
X148870Y318330D01*
X147402Y318622D01*
D02*
G37*
G36*
X110000D02*
X108504D01*
X107036Y318330D01*
X105653Y317757D01*
X104408Y316926D01*
X103350Y315867D01*
X102518Y314623D01*
X101946Y313240D01*
X101654Y311772D01*
Y310275D01*
X101946Y308807D01*
X102518Y307424D01*
X103350Y306180D01*
X104408Y305121D01*
X105653Y304290D01*
X107036Y303717D01*
X108504Y303425D01*
X110000D01*
X111468Y303717D01*
X112851Y304290D01*
X114096Y305121D01*
X115154Y306180D01*
X115986Y307424D01*
X116558Y308807D01*
X116850Y310275D01*
Y311772D01*
X116558Y313240D01*
X115986Y314623D01*
X115154Y315867D01*
X114096Y316926D01*
X112851Y317757D01*
X111468Y318330D01*
X110000Y318622D01*
D02*
G37*
G36*
X357059Y316772D02*
X355539D01*
X354048Y316475D01*
X352644Y315893D01*
X351380Y315049D01*
X350305Y313974D01*
X349461Y312710D01*
X348879Y311306D01*
X348583Y309815D01*
Y308295D01*
X348879Y306804D01*
X349461Y305400D01*
X350305Y304136D01*
X351380Y303061D01*
X352644Y302217D01*
X354048Y301635D01*
X355539Y301339D01*
X357059D01*
X358550Y301635D01*
X359954Y302217D01*
X361218Y303061D01*
X362293Y304136D01*
X363138Y305400D01*
X363719Y306804D01*
X364016Y308295D01*
Y309815D01*
X363719Y311306D01*
X363138Y312710D01*
X362293Y313974D01*
X361218Y315049D01*
X359954Y315893D01*
X358550Y316475D01*
X357059Y316772D01*
D02*
G37*
G36*
X302925D02*
X301405D01*
X299915Y316475D01*
X298510Y315893D01*
X297246Y315049D01*
X296171Y313974D01*
X295327Y312710D01*
X294745Y311306D01*
X294449Y309815D01*
Y308295D01*
X294745Y306804D01*
X295327Y305400D01*
X296171Y304136D01*
X297246Y303061D01*
X298510Y302217D01*
X299915Y301635D01*
X301405Y301339D01*
X302925D01*
X304416Y301635D01*
X305820Y302217D01*
X307084Y303061D01*
X308159Y304136D01*
X309004Y305400D01*
X309585Y306804D01*
X309882Y308295D01*
Y309815D01*
X309585Y311306D01*
X309004Y312710D01*
X308159Y313974D01*
X307084Y315049D01*
X305820Y315893D01*
X304416Y316475D01*
X302925Y316772D01*
D02*
G37*
G36*
X182847D02*
X181327D01*
X179836Y316475D01*
X178431Y315893D01*
X177168Y315049D01*
X176093Y313974D01*
X175248Y312710D01*
X174667Y311306D01*
X174370Y309815D01*
Y308295D01*
X174667Y306804D01*
X175248Y305400D01*
X176093Y304136D01*
X177168Y303061D01*
X178431Y302217D01*
X179836Y301635D01*
X181327Y301339D01*
X182847D01*
X184337Y301635D01*
X185742Y302217D01*
X187006Y303061D01*
X188080Y304136D01*
X188925Y305400D01*
X189507Y306804D01*
X189803Y308295D01*
Y309815D01*
X189507Y311306D01*
X188925Y312710D01*
X188080Y313974D01*
X187006Y315049D01*
X185742Y315893D01*
X184337Y316475D01*
X182847Y316772D01*
D02*
G37*
G36*
X128713D02*
X127193D01*
X125702Y316475D01*
X124298Y315893D01*
X123034Y315049D01*
X121959Y313974D01*
X121115Y312710D01*
X120533Y311306D01*
X120236Y309815D01*
Y308295D01*
X120533Y306804D01*
X121115Y305400D01*
X121959Y304136D01*
X123034Y303061D01*
X124298Y302217D01*
X125702Y301635D01*
X127193Y301339D01*
X128713D01*
X130204Y301635D01*
X131608Y302217D01*
X132872Y303061D01*
X133947Y304136D01*
X134791Y305400D01*
X135373Y306804D01*
X135669Y308295D01*
Y309815D01*
X135373Y311306D01*
X134791Y312710D01*
X133947Y313974D01*
X132872Y315049D01*
X131608Y315893D01*
X130204Y316475D01*
X128713Y316772D01*
D02*
G37*
G36*
X269321Y301575D02*
X268080D01*
X266863Y301333D01*
X265717Y300858D01*
X264685Y300168D01*
X263808Y299291D01*
X263119Y298259D01*
X262644Y297113D01*
X262402Y295896D01*
Y294655D01*
X262644Y293438D01*
X263119Y292292D01*
X263808Y291260D01*
X264685Y290383D01*
X265717Y289693D01*
X266863Y289218D01*
X268080Y288976D01*
X269321D01*
X270538Y289218D01*
X271685Y289693D01*
X272716Y290383D01*
X273594Y291260D01*
X274283Y292292D01*
X274758Y293438D01*
X275000Y294655D01*
Y295896D01*
X274758Y297113D01*
X274283Y298259D01*
X273594Y299291D01*
X272716Y300168D01*
X271685Y300858D01*
X270538Y301333D01*
X269321Y301575D01*
D02*
G37*
G36*
X216172D02*
X214931D01*
X213714Y301333D01*
X212567Y300858D01*
X211536Y300168D01*
X210658Y299291D01*
X209969Y298259D01*
X209494Y297113D01*
X209252Y295896D01*
Y294655D01*
X209494Y293438D01*
X209969Y292292D01*
X210658Y291260D01*
X211536Y290383D01*
X212567Y289693D01*
X213714Y289218D01*
X214931Y288976D01*
X216172D01*
X217389Y289218D01*
X218535Y289693D01*
X219567Y290383D01*
X220444Y291260D01*
X221133Y292292D01*
X221608Y293438D01*
X221850Y294655D01*
Y295896D01*
X221608Y297113D01*
X221133Y298259D01*
X220444Y299291D01*
X219567Y300168D01*
X218535Y300858D01*
X217389Y301333D01*
X216172Y301575D01*
D02*
G37*
G36*
X375748Y300118D02*
X374252D01*
X372784Y299826D01*
X371401Y299253D01*
X370156Y298422D01*
X369098Y297363D01*
X368266Y296119D01*
X367694Y294736D01*
X367402Y293268D01*
Y291771D01*
X367694Y290303D01*
X368266Y288920D01*
X369098Y287676D01*
X370156Y286618D01*
X371401Y285786D01*
X372784Y285213D01*
X374252Y284921D01*
X375748D01*
X377216Y285213D01*
X378599Y285786D01*
X379844Y286618D01*
X380902Y287676D01*
X381734Y288920D01*
X382306Y290303D01*
X382598Y291771D01*
Y293268D01*
X382306Y294736D01*
X381734Y296119D01*
X380902Y297363D01*
X379844Y298422D01*
X378599Y299253D01*
X377216Y299826D01*
X375748Y300118D01*
D02*
G37*
G36*
X338347D02*
X336850D01*
X335382Y299826D01*
X333999Y299253D01*
X332755Y298422D01*
X331696Y297363D01*
X330865Y296119D01*
X330292Y294736D01*
X330000Y293268D01*
Y291771D01*
X330292Y290303D01*
X330865Y288920D01*
X331696Y287676D01*
X332755Y286618D01*
X333999Y285786D01*
X335382Y285213D01*
X336850Y284921D01*
X338347D01*
X339815Y285213D01*
X341198Y285786D01*
X342442Y286618D01*
X343500Y287676D01*
X344332Y288920D01*
X344905Y290303D01*
X345197Y291771D01*
Y293268D01*
X344905Y294736D01*
X344332Y296119D01*
X343500Y297363D01*
X342442Y298422D01*
X341198Y299253D01*
X339815Y299826D01*
X338347Y300118D01*
D02*
G37*
G36*
X321615D02*
X320118D01*
X318650Y299826D01*
X317267Y299253D01*
X316022Y298422D01*
X314964Y297363D01*
X314132Y296119D01*
X313560Y294736D01*
X313268Y293268D01*
Y291771D01*
X313560Y290303D01*
X314132Y288920D01*
X314964Y287676D01*
X316022Y286618D01*
X317267Y285786D01*
X318650Y285213D01*
X320118Y284921D01*
X321615D01*
X323082Y285213D01*
X324465Y285786D01*
X325710Y286618D01*
X326768Y287676D01*
X327600Y288920D01*
X328173Y290303D01*
X328465Y291771D01*
Y293268D01*
X328173Y294736D01*
X327600Y296119D01*
X326768Y297363D01*
X325710Y298422D01*
X324465Y299253D01*
X323082Y299826D01*
X321615Y300118D01*
D02*
G37*
G36*
X284213D02*
X282716D01*
X281248Y299826D01*
X279865Y299253D01*
X278621Y298422D01*
X277562Y297363D01*
X276731Y296119D01*
X276158Y294736D01*
X275866Y293268D01*
Y291771D01*
X276158Y290303D01*
X276731Y288920D01*
X277562Y287676D01*
X278621Y286618D01*
X279865Y285786D01*
X281248Y285213D01*
X282716Y284921D01*
X284213D01*
X285681Y285213D01*
X287064Y285786D01*
X288308Y286618D01*
X289367Y287676D01*
X290198Y288920D01*
X290771Y290303D01*
X291063Y291771D01*
Y293268D01*
X290771Y294736D01*
X290198Y296119D01*
X289367Y297363D01*
X288308Y298422D01*
X287064Y299253D01*
X285681Y299826D01*
X284213Y300118D01*
D02*
G37*
G36*
X201536D02*
X200039D01*
X198571Y299826D01*
X197188Y299253D01*
X195944Y298422D01*
X194885Y297363D01*
X194054Y296119D01*
X193481Y294736D01*
X193189Y293268D01*
Y291771D01*
X193481Y290303D01*
X194054Y288920D01*
X194885Y287676D01*
X195944Y286618D01*
X197188Y285786D01*
X198571Y285213D01*
X200039Y284921D01*
X201536D01*
X203004Y285213D01*
X204387Y285786D01*
X205631Y286618D01*
X206690Y287676D01*
X207521Y288920D01*
X208094Y290303D01*
X208386Y291771D01*
Y293268D01*
X208094Y294736D01*
X207521Y296119D01*
X206690Y297363D01*
X205631Y298422D01*
X204387Y299253D01*
X203004Y299826D01*
X201536Y300118D01*
D02*
G37*
G36*
X164134D02*
X162637D01*
X161169Y299826D01*
X159787Y299253D01*
X158542Y298422D01*
X157484Y297363D01*
X156652Y296119D01*
X156079Y294736D01*
X155787Y293268D01*
Y291771D01*
X156079Y290303D01*
X156652Y288920D01*
X157484Y287676D01*
X158542Y286618D01*
X159787Y285786D01*
X161169Y285213D01*
X162637Y284921D01*
X164134D01*
X165602Y285213D01*
X166985Y285786D01*
X168229Y286618D01*
X169288Y287676D01*
X170120Y288920D01*
X170692Y290303D01*
X170984Y291771D01*
Y293268D01*
X170692Y294736D01*
X170120Y296119D01*
X169288Y297363D01*
X168229Y298422D01*
X166985Y299253D01*
X165602Y299826D01*
X164134Y300118D01*
D02*
G37*
G36*
X147402D02*
X145905D01*
X144437Y299826D01*
X143054Y299253D01*
X141810Y298422D01*
X140752Y297363D01*
X139920Y296119D01*
X139347Y294736D01*
X139055Y293268D01*
Y291771D01*
X139347Y290303D01*
X139920Y288920D01*
X140752Y287676D01*
X141810Y286618D01*
X143054Y285786D01*
X144437Y285213D01*
X145905Y284921D01*
X147402D01*
X148870Y285213D01*
X150253Y285786D01*
X151497Y286618D01*
X152556Y287676D01*
X153387Y288920D01*
X153960Y290303D01*
X154252Y291771D01*
Y293268D01*
X153960Y294736D01*
X153387Y296119D01*
X152556Y297363D01*
X151497Y298422D01*
X150253Y299253D01*
X148870Y299826D01*
X147402Y300118D01*
D02*
G37*
G36*
X110000D02*
X108504D01*
X107036Y299826D01*
X105653Y299253D01*
X104408Y298422D01*
X103350Y297363D01*
X102518Y296119D01*
X101946Y294736D01*
X101654Y293268D01*
Y291771D01*
X101946Y290303D01*
X102518Y288920D01*
X103350Y287676D01*
X104408Y286618D01*
X105653Y285786D01*
X107036Y285213D01*
X108504Y284921D01*
X110000D01*
X111468Y285213D01*
X112851Y285786D01*
X114096Y286618D01*
X115154Y287676D01*
X115986Y288920D01*
X116558Y290303D01*
X116850Y291771D01*
Y293268D01*
X116558Y294736D01*
X115986Y296119D01*
X115154Y297363D01*
X114096Y298422D01*
X112851Y299253D01*
X111468Y299826D01*
X110000Y300118D01*
D02*
G37*
G36*
X356891Y291437D02*
X355708D01*
X354548Y291206D01*
X353455Y290754D01*
X352472Y290097D01*
X351636Y289260D01*
X350979Y288277D01*
X350526Y287184D01*
X350295Y286024D01*
Y284842D01*
X350526Y283682D01*
X350979Y282589D01*
X351636Y281606D01*
X352472Y280769D01*
X353455Y280113D01*
X354548Y279660D01*
X355708Y279429D01*
X356891D01*
X358050Y279660D01*
X359143Y280113D01*
X360126Y280769D01*
X360963Y281606D01*
X361620Y282589D01*
X362072Y283682D01*
X362303Y284842D01*
Y286024D01*
X362072Y287184D01*
X361620Y288277D01*
X360963Y289260D01*
X360126Y290097D01*
X359143Y290754D01*
X358050Y291206D01*
X356891Y291437D01*
D02*
G37*
G36*
X302757D02*
X301574D01*
X300414Y291206D01*
X299321Y290754D01*
X298338Y290097D01*
X297502Y289260D01*
X296845Y288277D01*
X296392Y287184D01*
X296161Y286024D01*
Y284842D01*
X296392Y283682D01*
X296845Y282589D01*
X297502Y281606D01*
X298338Y280769D01*
X299321Y280113D01*
X300414Y279660D01*
X301574Y279429D01*
X302757D01*
X303917Y279660D01*
X305009Y280113D01*
X305993Y280769D01*
X306829Y281606D01*
X307486Y282589D01*
X307939Y283682D01*
X308169Y284842D01*
Y286024D01*
X307939Y287184D01*
X307486Y288277D01*
X306829Y289260D01*
X305993Y290097D01*
X305009Y290754D01*
X303917Y291206D01*
X302757Y291437D01*
D02*
G37*
G36*
X182678D02*
X181495D01*
X180335Y291206D01*
X179243Y290754D01*
X178259Y290097D01*
X177423Y289260D01*
X176766Y288277D01*
X176313Y287184D01*
X176083Y286024D01*
Y284842D01*
X176313Y283682D01*
X176766Y282589D01*
X177423Y281606D01*
X178259Y280769D01*
X179243Y280113D01*
X180335Y279660D01*
X181495Y279429D01*
X182678D01*
X183838Y279660D01*
X184931Y280113D01*
X185914Y280769D01*
X186750Y281606D01*
X187407Y282589D01*
X187860Y283682D01*
X188091Y284842D01*
Y286024D01*
X187860Y287184D01*
X187407Y288277D01*
X186750Y289260D01*
X185914Y290097D01*
X184931Y290754D01*
X183838Y291206D01*
X182678Y291437D01*
D02*
G37*
G36*
X128544D02*
X127361D01*
X126201Y291206D01*
X125109Y290754D01*
X124126Y290097D01*
X123289Y289260D01*
X122632Y288277D01*
X122180Y287184D01*
X121949Y286024D01*
Y284842D01*
X122180Y283682D01*
X122632Y282589D01*
X123289Y281606D01*
X124126Y280769D01*
X125109Y280113D01*
X126201Y279660D01*
X127361Y279429D01*
X128544D01*
X129704Y279660D01*
X130797Y280113D01*
X131780Y280769D01*
X132616Y281606D01*
X133273Y282589D01*
X133726Y283682D01*
X133957Y284842D01*
Y286024D01*
X133726Y287184D01*
X133273Y288277D01*
X132616Y289260D01*
X131780Y290097D01*
X130797Y290754D01*
X129704Y291206D01*
X128544Y291437D01*
D02*
G37*
G36*
X228796Y280217D02*
X227109D01*
X225455Y279888D01*
X223897Y279242D01*
X222494Y278305D01*
X221302Y277112D01*
X220364Y275710D01*
X219719Y274151D01*
X219390Y272497D01*
Y270810D01*
X219719Y269156D01*
X220364Y267597D01*
X221302Y266195D01*
X222494Y265002D01*
X223897Y264065D01*
X225455Y263420D01*
X227109Y263090D01*
X228796D01*
X230451Y263420D01*
X232009Y264065D01*
X233411Y265002D01*
X234604Y266195D01*
X235541Y267597D01*
X236187Y269156D01*
X236516Y270810D01*
Y272497D01*
X236187Y274151D01*
X235541Y275710D01*
X234604Y277112D01*
X233411Y278305D01*
X232009Y279242D01*
X230451Y279888D01*
X228796Y280217D01*
D02*
G37*
G36*
X257181Y280610D02*
X255417D01*
X253687Y280266D01*
X252057Y279591D01*
X250590Y278611D01*
X249342Y277363D01*
X248362Y275896D01*
X247687Y274266D01*
X247342Y272536D01*
Y270771D01*
X247687Y269041D01*
X248362Y267411D01*
X249342Y265944D01*
X250590Y264696D01*
X252057Y263716D01*
X253687Y263041D01*
X255417Y262697D01*
X257181D01*
X258912Y263041D01*
X260542Y263716D01*
X262009Y264696D01*
X263256Y265944D01*
X264236Y267411D01*
X264912Y269041D01*
X265256Y270771D01*
Y272536D01*
X264912Y274266D01*
X264236Y275896D01*
X263256Y277363D01*
X262009Y278611D01*
X260542Y279591D01*
X258912Y280266D01*
X257181Y280610D01*
D02*
G37*
G36*
X278184Y277756D02*
X277244D01*
X276376Y277396D01*
X275711Y276732D01*
X275352Y275864D01*
Y274924D01*
X275711Y274056D01*
X276282Y273484D01*
X276277Y273459D01*
X275613Y272795D01*
X275253Y271927D01*
Y270987D01*
X275613Y270119D01*
X276277Y269454D01*
X276534Y269348D01*
Y268807D01*
X276123Y268636D01*
X275458Y267972D01*
X275098Y267104D01*
Y266164D01*
X275458Y265296D01*
X276029Y264725D01*
X276024Y264699D01*
X275360Y264035D01*
X275000Y263167D01*
Y262227D01*
X275360Y261359D01*
X276024Y260694D01*
X276892Y260335D01*
X277832D01*
X278700Y260694D01*
X279365Y261359D01*
X279724Y262227D01*
Y263167D01*
X279365Y264035D01*
X278794Y264606D01*
X278799Y264631D01*
X279463Y265296D01*
X279823Y266164D01*
Y267104D01*
X279463Y267972D01*
X278799Y268636D01*
X278542Y268743D01*
Y269284D01*
X278954Y269454D01*
X279618Y270119D01*
X279978Y270987D01*
Y271927D01*
X279618Y272795D01*
X279047Y273366D01*
X279052Y273391D01*
X279716Y274056D01*
X280076Y274924D01*
Y275864D01*
X279716Y276732D01*
X279052Y277396D01*
X278184Y277756D01*
D02*
G37*
G36*
X271238Y269980D02*
X270298D01*
X269430Y269621D01*
X268765Y268956D01*
X268406Y268088D01*
Y267148D01*
X268765Y266280D01*
X269430Y265616D01*
X270133Y265324D01*
Y264794D01*
X269430Y264503D01*
X268765Y263838D01*
X268406Y262970D01*
Y262030D01*
X268765Y261162D01*
X269430Y260497D01*
X270298Y260138D01*
X271238D01*
X272106Y260497D01*
X272770Y261162D01*
X273130Y262030D01*
Y262970D01*
X272770Y263838D01*
X272106Y264503D01*
X271402Y264794D01*
Y265324D01*
X272106Y265616D01*
X272770Y266280D01*
X273130Y267148D01*
Y268088D01*
X272770Y268956D01*
X272106Y269621D01*
X271238Y269980D01*
D02*
G37*
G36*
X157163Y261417D02*
X156223D01*
X155355Y261058D01*
X154690Y260393D01*
X154399Y259690D01*
X153869D01*
X153577Y260393D01*
X152913Y261058D01*
X152045Y261417D01*
X151105D01*
X150237Y261058D01*
X149572Y260393D01*
X149213Y259525D01*
Y258585D01*
X149572Y257717D01*
X150237Y257052D01*
X151105Y256693D01*
X152045D01*
X152913Y257052D01*
X153577Y257717D01*
X153869Y258420D01*
X154399D01*
X154690Y257717D01*
X155355Y257052D01*
X156223Y256693D01*
X157163D01*
X158031Y257052D01*
X158695Y257717D01*
X159055Y258585D01*
Y259525D01*
X158695Y260393D01*
X158031Y261058D01*
X157163Y261417D01*
D02*
G37*
G36*
X274919Y260197D02*
X273979D01*
X273111Y259837D01*
X272446Y259173D01*
X272359Y258962D01*
X272007Y258892D01*
X271139Y259252D01*
X270199D01*
X269331Y258892D01*
X268667Y258228D01*
X268307Y257360D01*
Y256420D01*
X268667Y255552D01*
X269331Y254887D01*
X270199Y254528D01*
X271139D01*
X272007Y254887D01*
X272672Y255552D01*
X272759Y255762D01*
X273111Y255832D01*
X273979Y255472D01*
X274919D01*
X275787Y255832D01*
X276451Y256497D01*
X276811Y257365D01*
Y258305D01*
X276451Y259173D01*
X275787Y259837D01*
X274919Y260197D01*
D02*
G37*
G36*
X212084Y258268D02*
X211144D01*
X210276Y257908D01*
X209612Y257244D01*
X209424Y256791D01*
X208883D01*
X208696Y257244D01*
X208031Y257908D01*
X207163Y258268D01*
X206223D01*
X205355Y257908D01*
X204690Y257244D01*
X204331Y256375D01*
Y255436D01*
X204690Y254567D01*
X205355Y253903D01*
X206223Y253543D01*
X207163D01*
X208031Y253903D01*
X208696Y254567D01*
X208883Y255020D01*
X209424D01*
X209612Y254567D01*
X210276Y253903D01*
X211144Y253543D01*
X212084D01*
X212952Y253903D01*
X213617Y254567D01*
X213976Y255436D01*
Y256375D01*
X213617Y257244D01*
X212952Y257908D01*
X212084Y258268D01*
D02*
G37*
G36*
X167399Y260630D02*
X166459D01*
X165591Y260270D01*
X164927Y259606D01*
X164567Y258738D01*
Y257798D01*
X164927Y256930D01*
X165591Y256265D01*
X166459Y255906D01*
X167399D01*
X168267Y256265D01*
X168932Y256930D01*
X169291Y257798D01*
Y258738D01*
X168932Y259606D01*
X168267Y260270D01*
X167399Y260630D01*
D02*
G37*
G36*
X339545Y258661D02*
X338605D01*
X337737Y258302D01*
X337072Y257637D01*
X336713Y256769D01*
Y255829D01*
X337072Y254961D01*
X337737Y254297D01*
X338605Y253937D01*
X339545D01*
X340413Y254297D01*
X341077Y254961D01*
X341437Y255829D01*
Y256769D01*
X341077Y257637D01*
X340413Y258302D01*
X339545Y258661D01*
D02*
G37*
G36*
X281793Y258441D02*
X280853D01*
X279985Y258081D01*
X279320Y257417D01*
X278961Y256549D01*
Y255609D01*
X279320Y254741D01*
X279985Y254076D01*
X280853Y253716D01*
X281793D01*
X282661Y254076D01*
X283325Y254741D01*
X283685Y255609D01*
Y256549D01*
X283325Y257417D01*
X282661Y258081D01*
X281793Y258441D01*
D02*
G37*
G36*
X262081Y257483D02*
X261141D01*
X260273Y257124D01*
X259609Y256459D01*
X259249Y255591D01*
Y254651D01*
X259609Y253783D01*
X260273Y253118D01*
X261141Y252759D01*
X262081D01*
X262949Y253118D01*
X263614Y253783D01*
X263973Y254651D01*
Y255591D01*
X263614Y256459D01*
X262949Y257124D01*
X262081Y257483D01*
D02*
G37*
G36*
X317399Y257480D02*
X316459D01*
X315591Y257121D01*
X314927Y256456D01*
X314567Y255588D01*
Y254648D01*
X314927Y253780D01*
X315591Y253116D01*
X316459Y252756D01*
X317399D01*
X318267Y253116D01*
X318932Y253780D01*
X319291Y254648D01*
Y255588D01*
X318932Y256456D01*
X318267Y257121D01*
X317399Y257480D01*
D02*
G37*
G36*
X455270Y255325D02*
X454179D01*
X453125Y255042D01*
X452180Y254497D01*
X451409Y253725D01*
X450863Y252781D01*
X450581Y251727D01*
Y250636D01*
X450863Y249582D01*
X451409Y248637D01*
X452180Y247865D01*
X453125Y247320D01*
X454179Y247037D01*
X455270D01*
X456324Y247320D01*
X457269Y247865D01*
X458040Y248637D01*
X458586Y249582D01*
X458868Y250636D01*
Y251727D01*
X458586Y252781D01*
X458040Y253725D01*
X457269Y254497D01*
X456324Y255042D01*
X455270Y255325D01*
D02*
G37*
G36*
X445427D02*
X444336D01*
X443283Y255042D01*
X442338Y254497D01*
X441566Y253725D01*
X441021Y252781D01*
X440738Y251727D01*
Y250636D01*
X441021Y249582D01*
X441566Y248637D01*
X442338Y247865D01*
X443283Y247320D01*
X444336Y247037D01*
X445427D01*
X446481Y247320D01*
X447426Y247865D01*
X448198Y248637D01*
X448743Y249582D01*
X449026Y250636D01*
Y251727D01*
X448743Y252781D01*
X448198Y253725D01*
X447426Y254497D01*
X446481Y255042D01*
X445427Y255325D01*
D02*
G37*
G36*
X435585D02*
X434494D01*
X433440Y255042D01*
X432495Y254497D01*
X431724Y253725D01*
X431178Y252781D01*
X430896Y251727D01*
Y250636D01*
X431178Y249582D01*
X431724Y248637D01*
X432495Y247865D01*
X433440Y247320D01*
X434494Y247037D01*
X435585D01*
X436639Y247320D01*
X437584Y247865D01*
X438355Y248637D01*
X438901Y249582D01*
X439183Y250636D01*
Y251727D01*
X438901Y252781D01*
X438355Y253725D01*
X437584Y254497D01*
X436639Y255042D01*
X435585Y255325D01*
D02*
G37*
G36*
X425742D02*
X424651D01*
X423597Y255042D01*
X422653Y254497D01*
X421881Y253725D01*
X421336Y252781D01*
X421053Y251727D01*
Y250636D01*
X421336Y249582D01*
X421881Y248637D01*
X422653Y247865D01*
X423597Y247320D01*
X424651Y247037D01*
X425742D01*
X426796Y247320D01*
X427741Y247865D01*
X428513Y248637D01*
X429058Y249582D01*
X429341Y250636D01*
Y251727D01*
X429058Y252781D01*
X428513Y253725D01*
X427741Y254497D01*
X426796Y255042D01*
X425742Y255325D01*
D02*
G37*
G36*
X312281Y251575D02*
X311341D01*
X310473Y251215D01*
X309808Y250551D01*
X309449Y249682D01*
Y248743D01*
X309808Y247874D01*
X310473Y247210D01*
X311341Y246850D01*
X312281D01*
X313149Y247210D01*
X313814Y247874D01*
X314173Y248743D01*
Y249682D01*
X313814Y250551D01*
X313149Y251215D01*
X312281Y251575D01*
D02*
G37*
G36*
X56018Y254577D02*
X54927D01*
X53873Y254294D01*
X52928Y253749D01*
X52157Y252977D01*
X51611Y252032D01*
X51329Y250979D01*
Y249887D01*
X51611Y248834D01*
X52157Y247889D01*
X52928Y247117D01*
X53873Y246572D01*
X54927Y246289D01*
X56018D01*
X57072Y246572D01*
X58017Y247117D01*
X58788Y247889D01*
X59334Y248834D01*
X59616Y249887D01*
Y250979D01*
X59334Y252032D01*
X58788Y252977D01*
X58017Y253749D01*
X57072Y254294D01*
X56018Y254577D01*
D02*
G37*
G36*
X46018D02*
X44927D01*
X43873Y254294D01*
X42928Y253749D01*
X42157Y252977D01*
X41611Y252032D01*
X41329Y250979D01*
Y249887D01*
X41611Y248834D01*
X42157Y247889D01*
X42928Y247117D01*
X43873Y246572D01*
X44927Y246289D01*
X46018D01*
X47072Y246572D01*
X48017Y247117D01*
X48788Y247889D01*
X49334Y248834D01*
X49616Y249887D01*
Y250979D01*
X49334Y252032D01*
X48788Y252977D01*
X48017Y253749D01*
X47072Y254294D01*
X46018Y254577D01*
D02*
G37*
G36*
X36018D02*
X34927D01*
X33873Y254294D01*
X32928Y253749D01*
X32157Y252977D01*
X31611Y252032D01*
X31329Y250979D01*
Y249887D01*
X31611Y248834D01*
X32157Y247889D01*
X32928Y247117D01*
X33873Y246572D01*
X34927Y246289D01*
X36018D01*
X37072Y246572D01*
X38017Y247117D01*
X38788Y247889D01*
X39334Y248834D01*
X39616Y249887D01*
Y250979D01*
X39334Y252032D01*
X38788Y252977D01*
X38017Y253749D01*
X37072Y254294D01*
X36018Y254577D01*
D02*
G37*
G36*
X227754Y249114D02*
X226971D01*
X226247Y248815D01*
X225693Y248261D01*
X225394Y247537D01*
Y246754D01*
X225693Y246031D01*
X226247Y245477D01*
X226971Y245177D01*
X227754D01*
X228477Y245477D01*
X229031Y246031D01*
X229331Y246754D01*
Y247537D01*
X229031Y248261D01*
X228477Y248815D01*
X227754Y249114D01*
D02*
G37*
G36*
X160903Y247441D02*
X159963D01*
X159095Y247081D01*
X158431Y246417D01*
X158071Y245549D01*
Y244609D01*
X158431Y243741D01*
X159095Y243076D01*
X159963Y242717D01*
X160903D01*
X161771Y243076D01*
X162436Y243741D01*
X162795Y244609D01*
Y245549D01*
X162436Y246417D01*
X161771Y247081D01*
X160903Y247441D01*
D02*
G37*
G36*
X151060D02*
X150121D01*
X149252Y247081D01*
X148588Y246417D01*
X148228Y245549D01*
Y244609D01*
X148588Y243741D01*
X149252Y243076D01*
X150121Y242717D01*
X151060D01*
X151929Y243076D01*
X152593Y243741D01*
X152953Y244609D01*
Y245549D01*
X152593Y246417D01*
X151929Y247081D01*
X151060Y247441D01*
D02*
G37*
G36*
X215037Y243504D02*
X214097D01*
X213229Y243144D01*
X212564Y242480D01*
X212377Y242027D01*
X211836D01*
X211648Y242480D01*
X210984Y243144D01*
X210116Y243504D01*
X209176D01*
X208308Y243144D01*
X207643Y242480D01*
X207456Y242027D01*
X206914D01*
X206727Y242480D01*
X206063Y243144D01*
X205194Y243504D01*
X204255D01*
X203386Y243144D01*
X202722Y242480D01*
X202362Y241612D01*
Y240672D01*
X202722Y239804D01*
X203386Y239139D01*
X204255Y238779D01*
X205194D01*
X206063Y239139D01*
X206727Y239804D01*
X206914Y240256D01*
X207456D01*
X207643Y239804D01*
X208308Y239139D01*
X209176Y238779D01*
X210116D01*
X210984Y239139D01*
X211648Y239804D01*
X211836Y240256D01*
X212377D01*
X212564Y239804D01*
X213229Y239139D01*
X214097Y238779D01*
X215037D01*
X215905Y239139D01*
X216569Y239804D01*
X216929Y240672D01*
Y241612D01*
X216569Y242480D01*
X215905Y243144D01*
X215037Y243504D01*
D02*
G37*
G36*
X258738Y250394D02*
X257798D01*
X256930Y250034D01*
X256265Y249370D01*
X255906Y248501D01*
Y247562D01*
X256265Y246693D01*
X256837Y246122D01*
X256265Y245551D01*
X255906Y244683D01*
Y243743D01*
X256265Y242875D01*
X256930Y242210D01*
X257798Y241850D01*
X258738D01*
X259606Y242210D01*
X260270Y242875D01*
X260630Y243743D01*
Y244683D01*
X260270Y245551D01*
X259699Y246122D01*
X260270Y246693D01*
X260630Y247562D01*
Y248501D01*
X260270Y249370D01*
X259606Y250034D01*
X258738Y250394D01*
D02*
G37*
G36*
X222911Y246457D02*
X221971D01*
X221103Y246097D01*
X220438Y245433D01*
X220079Y244564D01*
Y243625D01*
X220438Y242756D01*
X221103Y242092D01*
X221971Y241732D01*
X222911D01*
X223779Y242092D01*
X224444Y242756D01*
X224803Y243625D01*
Y244564D01*
X224444Y245433D01*
X223779Y246097D01*
X222911Y246457D01*
D02*
G37*
G36*
X271730Y250394D02*
X270790D01*
X269922Y250034D01*
X269257Y249370D01*
X268898Y248501D01*
Y247562D01*
X269257Y246693D01*
X269922Y246029D01*
X270790Y245669D01*
Y245177D01*
X269922Y244817D01*
X269257Y244153D01*
X268898Y243285D01*
Y242345D01*
X269257Y241477D01*
X269922Y240812D01*
X270790Y240453D01*
X271730D01*
X272598Y240812D01*
X273262Y241477D01*
X273622Y242345D01*
Y243285D01*
X273262Y244153D01*
X272598Y244817D01*
X271730Y245177D01*
Y245669D01*
X272598Y246029D01*
X273262Y246693D01*
X273622Y247562D01*
Y248501D01*
X273262Y249370D01*
X272598Y250034D01*
X271730Y250394D01*
D02*
G37*
G36*
X302832Y242126D02*
X301892D01*
X301024Y241766D01*
X300360Y241102D01*
X300000Y240234D01*
Y239294D01*
X300360Y238426D01*
X301024Y237761D01*
X301892Y237402D01*
X302832D01*
X303700Y237761D01*
X304365Y238426D01*
X304724Y239294D01*
Y240234D01*
X304365Y241102D01*
X303700Y241766D01*
X302832Y242126D01*
D02*
G37*
G36*
X56018Y244577D02*
X54927D01*
X53873Y244294D01*
X52928Y243749D01*
X52157Y242977D01*
X51611Y242033D01*
X51329Y240979D01*
Y239887D01*
X51611Y238834D01*
X52157Y237889D01*
X52928Y237117D01*
X53873Y236572D01*
X54927Y236289D01*
X56018D01*
X57072Y236572D01*
X58017Y237117D01*
X58788Y237889D01*
X59334Y238834D01*
X59616Y239887D01*
Y240979D01*
X59334Y242033D01*
X58788Y242977D01*
X58017Y243749D01*
X57072Y244294D01*
X56018Y244577D01*
D02*
G37*
G36*
X46018D02*
X44927D01*
X43873Y244294D01*
X42928Y243749D01*
X42157Y242977D01*
X41611Y242033D01*
X41329Y240979D01*
Y239887D01*
X41611Y238834D01*
X42157Y237889D01*
X42928Y237117D01*
X43873Y236572D01*
X44927Y236289D01*
X46018D01*
X47072Y236572D01*
X48017Y237117D01*
X48788Y237889D01*
X49334Y238834D01*
X49616Y239887D01*
Y240979D01*
X49334Y242033D01*
X48788Y242977D01*
X48017Y243749D01*
X47072Y244294D01*
X46018Y244577D01*
D02*
G37*
G36*
X36018D02*
X34927D01*
X33873Y244294D01*
X32928Y243749D01*
X32157Y242977D01*
X31611Y242033D01*
X31329Y240979D01*
Y239887D01*
X31611Y238834D01*
X32157Y237889D01*
X32928Y237117D01*
X33873Y236572D01*
X34927Y236289D01*
X36018D01*
X37072Y236572D01*
X38017Y237117D01*
X38788Y237889D01*
X39334Y238834D01*
X39616Y239887D01*
Y240979D01*
X39334Y242033D01*
X38788Y242977D01*
X38017Y243749D01*
X37072Y244294D01*
X36018Y244577D01*
D02*
G37*
G36*
X455270Y243514D02*
X454179D01*
X453125Y243231D01*
X452180Y242686D01*
X451409Y241914D01*
X450863Y240969D01*
X450581Y239916D01*
Y238825D01*
X450863Y237771D01*
X451409Y236826D01*
X452180Y236054D01*
X453125Y235509D01*
X454179Y235226D01*
X455270D01*
X456324Y235509D01*
X457269Y236054D01*
X458040Y236826D01*
X458586Y237771D01*
X458868Y238825D01*
Y239916D01*
X458586Y240969D01*
X458040Y241914D01*
X457269Y242686D01*
X456324Y243231D01*
X455270Y243514D01*
D02*
G37*
G36*
X445427D02*
X444336D01*
X443283Y243231D01*
X442338Y242686D01*
X441566Y241914D01*
X441021Y240969D01*
X440738Y239916D01*
Y238825D01*
X441021Y237771D01*
X441566Y236826D01*
X442338Y236054D01*
X443283Y235509D01*
X444336Y235226D01*
X445427D01*
X446481Y235509D01*
X447426Y236054D01*
X448198Y236826D01*
X448743Y237771D01*
X449026Y238825D01*
Y239916D01*
X448743Y240969D01*
X448198Y241914D01*
X447426Y242686D01*
X446481Y243231D01*
X445427Y243514D01*
D02*
G37*
G36*
X435585D02*
X434494D01*
X433440Y243231D01*
X432495Y242686D01*
X431724Y241914D01*
X431178Y240969D01*
X430896Y239916D01*
Y238825D01*
X431178Y237771D01*
X431724Y236826D01*
X432495Y236054D01*
X433440Y235509D01*
X434494Y235226D01*
X435585D01*
X436639Y235509D01*
X437584Y236054D01*
X438355Y236826D01*
X438901Y237771D01*
X439183Y238825D01*
Y239916D01*
X438901Y240969D01*
X438355Y241914D01*
X437584Y242686D01*
X436639Y243231D01*
X435585Y243514D01*
D02*
G37*
G36*
X425742D02*
X424651D01*
X423597Y243231D01*
X422653Y242686D01*
X421881Y241914D01*
X421336Y240969D01*
X421053Y239916D01*
Y238825D01*
X421336Y237771D01*
X421881Y236826D01*
X422653Y236054D01*
X423597Y235509D01*
X424651Y235226D01*
X425742D01*
X426796Y235509D01*
X427741Y236054D01*
X428513Y236826D01*
X429058Y237771D01*
X429341Y238825D01*
Y239916D01*
X429058Y240969D01*
X428513Y241914D01*
X427741Y242686D01*
X426796Y243231D01*
X425742Y243514D01*
D02*
G37*
G36*
X160903Y239567D02*
X159963D01*
X159095Y239207D01*
X158431Y238543D01*
X158071Y237675D01*
Y236735D01*
X158431Y235867D01*
X159095Y235202D01*
X159963Y234842D01*
X160903D01*
X161771Y235202D01*
X162436Y235867D01*
X162795Y236735D01*
Y237675D01*
X162436Y238543D01*
X161771Y239207D01*
X160903Y239567D01*
D02*
G37*
G36*
X213068Y234646D02*
X212129D01*
X211260Y234286D01*
X210596Y233622D01*
X210408Y233169D01*
X209867D01*
X209680Y233622D01*
X209015Y234286D01*
X208147Y234646D01*
X207207D01*
X206339Y234286D01*
X205675Y233622D01*
X205315Y232753D01*
Y231814D01*
X205675Y230945D01*
X206339Y230281D01*
X207207Y229921D01*
X208147D01*
X209015Y230281D01*
X209680Y230945D01*
X209867Y231398D01*
X210408D01*
X210596Y230945D01*
X211260Y230281D01*
X212129Y229921D01*
X213068D01*
X213936Y230281D01*
X214601Y230945D01*
X214961Y231814D01*
Y232753D01*
X214601Y233622D01*
X213936Y234286D01*
X213068Y234646D01*
D02*
G37*
G36*
X232753D02*
X231814D01*
X230945Y234286D01*
X230281Y233622D01*
X229921Y232753D01*
Y231814D01*
X230281Y230945D01*
X230945Y230281D01*
X231814Y229921D01*
X232753D01*
X233622Y230281D01*
X234286Y230945D01*
X234646Y231814D01*
Y232753D01*
X234286Y233622D01*
X233622Y234286D01*
X232753Y234646D01*
D02*
G37*
G36*
X394708Y254921D02*
X392694D01*
X390705Y254606D01*
X388789Y253984D01*
X386995Y253069D01*
X385365Y251886D01*
X383941Y250462D01*
X382757Y248832D01*
X381843Y247038D01*
X381221Y245122D01*
X380906Y243133D01*
Y241119D01*
X381221Y239130D01*
X381843Y237214D01*
X382757Y235420D01*
X383941Y233790D01*
X385365Y232366D01*
X386995Y231183D01*
X388789Y230268D01*
X390705Y229646D01*
X392694Y229331D01*
X394708D01*
X396697Y229646D01*
X398612Y230268D01*
X400407Y231183D01*
X402036Y232366D01*
X403461Y233790D01*
X404644Y235420D01*
X405559Y237214D01*
X406181Y239130D01*
X406496Y241119D01*
Y243133D01*
X406181Y245122D01*
X405559Y247038D01*
X404644Y248832D01*
X403461Y250462D01*
X402036Y251886D01*
X400407Y253069D01*
X398612Y253984D01*
X396697Y254606D01*
X394708Y254921D01*
D02*
G37*
G36*
X91558D02*
X89544D01*
X87555Y254606D01*
X85640Y253984D01*
X83845Y253069D01*
X82216Y251886D01*
X80791Y250462D01*
X79608Y248832D01*
X78693Y247038D01*
X78071Y245122D01*
X77756Y243133D01*
Y241119D01*
X78071Y239130D01*
X78693Y237214D01*
X79608Y235420D01*
X80791Y233790D01*
X82216Y232366D01*
X83845Y231183D01*
X85640Y230268D01*
X87555Y229646D01*
X89544Y229331D01*
X91558D01*
X93547Y229646D01*
X95463Y230268D01*
X97257Y231183D01*
X98887Y232366D01*
X100311Y233790D01*
X101495Y235420D01*
X102409Y237214D01*
X103031Y239130D01*
X103347Y241119D01*
Y243133D01*
X103031Y245122D01*
X102409Y247038D01*
X101495Y248832D01*
X100311Y250462D01*
X98887Y251886D01*
X97257Y253069D01*
X95463Y253984D01*
X93547Y254606D01*
X91558Y254921D01*
D02*
G37*
G36*
X271336Y238583D02*
X270396D01*
X269528Y238223D01*
X268864Y237559D01*
X268504Y236690D01*
Y235751D01*
X268864Y234882D01*
X269528Y234218D01*
X269940Y234047D01*
Y233506D01*
X269922Y233499D01*
X269257Y232834D01*
X268898Y231966D01*
Y231026D01*
X269257Y230158D01*
X269922Y229493D01*
X270790Y229134D01*
X271730D01*
X272598Y229493D01*
X273262Y230158D01*
X273622Y231026D01*
Y231890D01*
X274486D01*
X275354Y232249D01*
X276018Y232914D01*
X276378Y233782D01*
Y234722D01*
X276018Y235590D01*
X275354Y236255D01*
X274486Y236614D01*
X273546D01*
X273110Y236975D01*
X272869Y237559D01*
X272204Y238223D01*
X271336Y238583D01*
D02*
G37*
G36*
X358738Y232304D02*
X357798D01*
X356930Y231945D01*
X356265Y231280D01*
X355906Y230412D01*
Y229472D01*
X356265Y228604D01*
X356930Y227939D01*
X357798Y227580D01*
X358738D01*
X359606Y227939D01*
X360270Y228604D01*
X360562Y229307D01*
X361092Y229287D01*
X361383Y228583D01*
X362048Y227919D01*
X362916Y227559D01*
X363856D01*
X364724Y227919D01*
X365388Y228583D01*
X365748Y229451D01*
Y230391D01*
X365388Y231259D01*
X364724Y231924D01*
X363856Y232283D01*
X362916D01*
X362048Y231924D01*
X361383Y231259D01*
X361092Y230556D01*
X360562Y230577D01*
X360270Y231280D01*
X359606Y231945D01*
X358738Y232304D01*
D02*
G37*
G36*
X309131Y231102D02*
X308192D01*
X307323Y230743D01*
X306659Y230078D01*
X306299Y229210D01*
Y228270D01*
X306659Y227402D01*
X307323Y226738D01*
X308192Y226378D01*
X309131D01*
X309999Y226738D01*
X310664Y227402D01*
X311024Y228270D01*
Y229210D01*
X310664Y230078D01*
X309999Y230743D01*
X309131Y231102D01*
D02*
G37*
G36*
X56018Y234577D02*
X54927D01*
X53873Y234294D01*
X52928Y233749D01*
X52157Y232977D01*
X51611Y232032D01*
X51329Y230979D01*
Y229888D01*
X51611Y228834D01*
X52157Y227889D01*
X52928Y227117D01*
X53873Y226572D01*
X54927Y226289D01*
X56018D01*
X57072Y226572D01*
X58017Y227117D01*
X58788Y227889D01*
X59334Y228834D01*
X59616Y229888D01*
Y230979D01*
X59334Y232032D01*
X58788Y232977D01*
X58017Y233749D01*
X57072Y234294D01*
X56018Y234577D01*
D02*
G37*
G36*
X46018D02*
X44927D01*
X43873Y234294D01*
X42928Y233749D01*
X42157Y232977D01*
X41611Y232032D01*
X41329Y230979D01*
Y229888D01*
X41611Y228834D01*
X42157Y227889D01*
X42928Y227117D01*
X43873Y226572D01*
X44927Y226289D01*
X46018D01*
X47072Y226572D01*
X48017Y227117D01*
X48788Y227889D01*
X49334Y228834D01*
X49616Y229888D01*
Y230979D01*
X49334Y232032D01*
X48788Y232977D01*
X48017Y233749D01*
X47072Y234294D01*
X46018Y234577D01*
D02*
G37*
G36*
X36018D02*
X34927D01*
X33873Y234294D01*
X32928Y233749D01*
X32157Y232977D01*
X31611Y232032D01*
X31329Y230979D01*
Y229888D01*
X31611Y228834D01*
X32157Y227889D01*
X32928Y227117D01*
X33873Y226572D01*
X34927Y226289D01*
X36018D01*
X37072Y226572D01*
X38017Y227117D01*
X38788Y227889D01*
X39334Y228834D01*
X39616Y229888D01*
Y230979D01*
X39334Y232032D01*
X38788Y232977D01*
X38017Y233749D01*
X37072Y234294D01*
X36018Y234577D01*
D02*
G37*
G36*
X279997Y240551D02*
X279058D01*
X278189Y240192D01*
X277525Y239527D01*
X277165Y238659D01*
Y237719D01*
X277525Y236851D01*
X278189Y236186D01*
X278642Y235999D01*
Y235458D01*
X278189Y235270D01*
X277525Y234606D01*
X277165Y233738D01*
Y232798D01*
X277525Y231930D01*
X278189Y231265D01*
X278642Y231078D01*
Y230537D01*
X278189Y230349D01*
X277525Y229684D01*
X277165Y228816D01*
Y227877D01*
X277525Y227008D01*
X278189Y226344D01*
X279058Y225984D01*
X279997D01*
X280866Y226344D01*
X281530Y227008D01*
X281890Y227877D01*
Y228816D01*
X281530Y229684D01*
X280866Y230349D01*
X280413Y230537D01*
Y231078D01*
X280866Y231265D01*
X281530Y231930D01*
X281890Y232798D01*
Y233738D01*
X281530Y234606D01*
X280866Y235270D01*
X280413Y235458D01*
Y235999D01*
X280866Y236186D01*
X281530Y236851D01*
X281890Y237719D01*
Y238659D01*
X281530Y239527D01*
X280866Y240192D01*
X279997Y240551D01*
D02*
G37*
G36*
X455270Y233671D02*
X454179D01*
X453125Y233389D01*
X452180Y232843D01*
X451409Y232072D01*
X450863Y231127D01*
X450581Y230073D01*
Y228982D01*
X450863Y227928D01*
X451409Y226983D01*
X452180Y226212D01*
X453125Y225666D01*
X454179Y225384D01*
X455270D01*
X456324Y225666D01*
X457269Y226212D01*
X458040Y226983D01*
X458586Y227928D01*
X458868Y228982D01*
Y230073D01*
X458586Y231127D01*
X458040Y232072D01*
X457269Y232843D01*
X456324Y233389D01*
X455270Y233671D01*
D02*
G37*
G36*
X445427D02*
X444336D01*
X443283Y233389D01*
X442338Y232843D01*
X441566Y232072D01*
X441021Y231127D01*
X440738Y230073D01*
Y228982D01*
X441021Y227928D01*
X441566Y226983D01*
X442338Y226212D01*
X443283Y225666D01*
X444336Y225384D01*
X445427D01*
X446481Y225666D01*
X447426Y226212D01*
X448198Y226983D01*
X448743Y227928D01*
X449026Y228982D01*
Y230073D01*
X448743Y231127D01*
X448198Y232072D01*
X447426Y232843D01*
X446481Y233389D01*
X445427Y233671D01*
D02*
G37*
G36*
X435585D02*
X434494D01*
X433440Y233389D01*
X432495Y232843D01*
X431724Y232072D01*
X431178Y231127D01*
X430896Y230073D01*
Y228982D01*
X431178Y227928D01*
X431724Y226983D01*
X432495Y226212D01*
X433440Y225666D01*
X434494Y225384D01*
X435585D01*
X436639Y225666D01*
X437584Y226212D01*
X438355Y226983D01*
X438901Y227928D01*
X439183Y228982D01*
Y230073D01*
X438901Y231127D01*
X438355Y232072D01*
X437584Y232843D01*
X436639Y233389D01*
X435585Y233671D01*
D02*
G37*
G36*
X425742D02*
X424651D01*
X423597Y233389D01*
X422653Y232843D01*
X421881Y232072D01*
X421336Y231127D01*
X421053Y230073D01*
Y228982D01*
X421336Y227928D01*
X421881Y226983D01*
X422653Y226212D01*
X423597Y225666D01*
X424651Y225384D01*
X425742D01*
X426796Y225666D01*
X427741Y226212D01*
X428513Y226983D01*
X429058Y227928D01*
X429341Y228982D01*
Y230073D01*
X429058Y231127D01*
X428513Y232072D01*
X427741Y232843D01*
X426796Y233389D01*
X425742Y233671D01*
D02*
G37*
G36*
X263462Y233858D02*
X262522D01*
X261654Y233499D01*
X260990Y232834D01*
X260630Y231966D01*
Y231026D01*
X260990Y230158D01*
X261654Y229493D01*
X262522Y229134D01*
X263161D01*
X263502Y228651D01*
X263424Y228461D01*
Y227521D01*
X263783Y226653D01*
X264448Y225988D01*
X265316Y225628D01*
X266141D01*
X266422Y225375D01*
X266535Y225203D01*
Y224333D01*
X266895Y223465D01*
X267560Y222801D01*
X268428Y222441D01*
X269368D01*
X270236Y222801D01*
X270900Y223465D01*
X271260Y224333D01*
Y225273D01*
X270900Y226141D01*
X270236Y226806D01*
X269368Y227165D01*
X268542D01*
X268261Y227419D01*
X268148Y227591D01*
Y228461D01*
X267789Y229329D01*
X267124Y229993D01*
X266256Y230353D01*
X265617D01*
X265276Y230836D01*
X265354Y231026D01*
Y231966D01*
X264995Y232834D01*
X264330Y233499D01*
X263462Y233858D01*
D02*
G37*
G36*
X209131Y226772D02*
X208192D01*
X207323Y226412D01*
X206659Y225747D01*
X206299Y224879D01*
Y223940D01*
X206659Y223071D01*
X207323Y222407D01*
X208192Y222047D01*
X209131D01*
X209999Y222407D01*
X210664Y223071D01*
X211024Y223940D01*
Y224879D01*
X210664Y225747D01*
X209999Y226412D01*
X209131Y226772D01*
D02*
G37*
G36*
X160903Y223819D02*
X159963D01*
X159095Y223459D01*
X158431Y222795D01*
X158071Y221927D01*
Y220987D01*
X158431Y220119D01*
X159095Y219454D01*
X159963Y219094D01*
X160903D01*
X161771Y219454D01*
X162436Y220119D01*
X162795Y220987D01*
Y221927D01*
X162436Y222795D01*
X161771Y223459D01*
X160903Y223819D01*
D02*
G37*
G36*
X151060D02*
X150121D01*
X149252Y223459D01*
X148588Y222795D01*
X148228Y221927D01*
Y220987D01*
X148588Y220119D01*
X149252Y219454D01*
X150121Y219094D01*
X151060D01*
X151929Y219454D01*
X152593Y220119D01*
X152953Y220987D01*
Y221927D01*
X152593Y222795D01*
X151929Y223459D01*
X151060Y223819D01*
D02*
G37*
G36*
X337084Y226772D02*
X336144D01*
X335276Y226412D01*
X334612Y225747D01*
X334252Y224879D01*
Y223940D01*
X334612Y223071D01*
X335242Y222441D01*
X334612Y221811D01*
X334252Y220942D01*
Y220003D01*
X334612Y219134D01*
X335276Y218470D01*
X336144Y218110D01*
X337084D01*
X337952Y218470D01*
X338617Y219134D01*
X338976Y220003D01*
Y220942D01*
X338617Y221811D01*
X337986Y222441D01*
X338617Y223071D01*
X338976Y223940D01*
Y224879D01*
X338617Y225747D01*
X337952Y226412D01*
X337084Y226772D01*
D02*
G37*
G36*
X327241D02*
X326302D01*
X325434Y226412D01*
X324769Y225747D01*
X324410Y224879D01*
Y223940D01*
X324769Y223071D01*
X325399Y222441D01*
X324769Y221811D01*
X324410Y220942D01*
Y220003D01*
X324769Y219134D01*
X325434Y218470D01*
X326302Y218110D01*
X327241D01*
X328110Y218470D01*
X328774Y219134D01*
X329134Y220003D01*
Y220942D01*
X328774Y221811D01*
X328144Y222441D01*
X328774Y223071D01*
X329134Y223940D01*
Y224879D01*
X328774Y225747D01*
X328110Y226412D01*
X327241Y226772D01*
D02*
G37*
G36*
X205194Y222835D02*
X204255D01*
X203386Y222475D01*
X202722Y221811D01*
X202362Y220942D01*
Y220003D01*
X202722Y219134D01*
X203386Y218470D01*
X204255Y218110D01*
X205194D01*
X206063Y218470D01*
X206727Y219134D01*
X207087Y220003D01*
Y220942D01*
X206727Y221811D01*
X206063Y222475D01*
X205194Y222835D01*
D02*
G37*
G36*
X56018Y224577D02*
X54927D01*
X53873Y224294D01*
X52928Y223749D01*
X52157Y222977D01*
X51611Y222032D01*
X51329Y220979D01*
Y219887D01*
X51611Y218834D01*
X52157Y217889D01*
X52928Y217117D01*
X53873Y216572D01*
X54927Y216289D01*
X56018D01*
X57072Y216572D01*
X58017Y217117D01*
X58788Y217889D01*
X59334Y218834D01*
X59616Y219887D01*
Y220979D01*
X59334Y222032D01*
X58788Y222977D01*
X58017Y223749D01*
X57072Y224294D01*
X56018Y224577D01*
D02*
G37*
G36*
X46018D02*
X44927D01*
X43873Y224294D01*
X42928Y223749D01*
X42157Y222977D01*
X41611Y222032D01*
X41329Y220979D01*
Y219887D01*
X41611Y218834D01*
X42157Y217889D01*
X42928Y217117D01*
X43873Y216572D01*
X44927Y216289D01*
X46018D01*
X47072Y216572D01*
X48017Y217117D01*
X48788Y217889D01*
X49334Y218834D01*
X49616Y219887D01*
Y220979D01*
X49334Y222032D01*
X48788Y222977D01*
X48017Y223749D01*
X47072Y224294D01*
X46018Y224577D01*
D02*
G37*
G36*
X36018D02*
X34927D01*
X33873Y224294D01*
X32928Y223749D01*
X32157Y222977D01*
X31611Y222032D01*
X31329Y220979D01*
Y219887D01*
X31611Y218834D01*
X32157Y217889D01*
X32928Y217117D01*
X33873Y216572D01*
X34927Y216289D01*
X36018D01*
X37072Y216572D01*
X38017Y217117D01*
X38788Y217889D01*
X39334Y218834D01*
X39616Y219887D01*
Y220979D01*
X39334Y222032D01*
X38788Y222977D01*
X38017Y223749D01*
X37072Y224294D01*
X36018Y224577D01*
D02*
G37*
G36*
X455270Y221860D02*
X454179D01*
X453125Y221578D01*
X452180Y221032D01*
X451409Y220261D01*
X450863Y219316D01*
X450581Y218262D01*
Y217171D01*
X450863Y216117D01*
X451409Y215172D01*
X452180Y214401D01*
X453125Y213855D01*
X454179Y213573D01*
X455270D01*
X456324Y213855D01*
X457269Y214401D01*
X458040Y215172D01*
X458586Y216117D01*
X458868Y217171D01*
Y218262D01*
X458586Y219316D01*
X458040Y220261D01*
X457269Y221032D01*
X456324Y221578D01*
X455270Y221860D01*
D02*
G37*
G36*
X445427D02*
X444336D01*
X443283Y221578D01*
X442338Y221032D01*
X441566Y220261D01*
X441021Y219316D01*
X440738Y218262D01*
Y217171D01*
X441021Y216117D01*
X441566Y215172D01*
X442338Y214401D01*
X443283Y213855D01*
X444336Y213573D01*
X445427D01*
X446481Y213855D01*
X447426Y214401D01*
X448198Y215172D01*
X448743Y216117D01*
X449026Y217171D01*
Y218262D01*
X448743Y219316D01*
X448198Y220261D01*
X447426Y221032D01*
X446481Y221578D01*
X445427Y221860D01*
D02*
G37*
G36*
X435585D02*
X434494D01*
X433440Y221578D01*
X432495Y221032D01*
X431724Y220261D01*
X431178Y219316D01*
X430896Y218262D01*
Y217171D01*
X431178Y216117D01*
X431724Y215172D01*
X432495Y214401D01*
X433440Y213855D01*
X434494Y213573D01*
X435585D01*
X436639Y213855D01*
X437584Y214401D01*
X438355Y215172D01*
X438901Y216117D01*
X439183Y217171D01*
Y218262D01*
X438901Y219316D01*
X438355Y220261D01*
X437584Y221032D01*
X436639Y221578D01*
X435585Y221860D01*
D02*
G37*
G36*
X425742D02*
X424651D01*
X423597Y221578D01*
X422653Y221032D01*
X421881Y220261D01*
X421336Y219316D01*
X421053Y218262D01*
Y217171D01*
X421336Y216117D01*
X421881Y215172D01*
X422653Y214401D01*
X423597Y213855D01*
X424651Y213573D01*
X425742D01*
X426796Y213855D01*
X427741Y214401D01*
X428513Y215172D01*
X429058Y216117D01*
X429341Y217171D01*
Y218262D01*
X429058Y219316D01*
X428513Y220261D01*
X427741Y221032D01*
X426796Y221578D01*
X425742Y221860D01*
D02*
G37*
G36*
X160903Y215945D02*
X159963D01*
X159095Y215585D01*
X158431Y214921D01*
X158071Y214053D01*
Y213113D01*
X158431Y212245D01*
X159095Y211580D01*
X159963Y211221D01*
X160903D01*
X161771Y211580D01*
X162436Y212245D01*
X162795Y213113D01*
Y214053D01*
X162436Y214921D01*
X161771Y215585D01*
X160903Y215945D01*
D02*
G37*
G36*
X151060D02*
X150121D01*
X149252Y215585D01*
X148588Y214921D01*
X148228Y214053D01*
Y213113D01*
X148588Y212245D01*
X149252Y211580D01*
X150121Y211221D01*
X151060D01*
X151929Y211580D01*
X152593Y212245D01*
X152953Y213113D01*
Y214053D01*
X152593Y214921D01*
X151929Y215585D01*
X151060Y215945D01*
D02*
G37*
G36*
X278423Y224410D02*
X277483D01*
X276615Y224050D01*
X275950Y223385D01*
X275591Y222517D01*
Y221577D01*
X275950Y220709D01*
X276615Y220045D01*
X276918Y219919D01*
Y219378D01*
X276782Y219321D01*
X276117Y218657D01*
X275758Y217789D01*
Y216849D01*
X276117Y215981D01*
X276782Y215316D01*
X277011Y215221D01*
Y214680D01*
X276615Y214515D01*
X275950Y213851D01*
X275591Y212983D01*
Y212043D01*
X275950Y211175D01*
X276615Y210510D01*
X277483Y210151D01*
X278423D01*
X279291Y210510D01*
X279955Y211175D01*
X280315Y212043D01*
Y212354D01*
X280681Y212598D01*
X281621D01*
X282489Y212958D01*
X283154Y213623D01*
X283513Y214491D01*
Y215430D01*
X283154Y216299D01*
X282489Y216963D01*
X282250Y217062D01*
Y217603D01*
X282440Y217683D01*
X283105Y218347D01*
X283465Y219215D01*
Y220155D01*
X283105Y221023D01*
X282440Y221688D01*
X281572Y222047D01*
X280632D01*
X280315Y222259D01*
Y222517D01*
X279955Y223385D01*
X279291Y224050D01*
X278423Y224410D01*
D02*
G37*
G36*
X261493Y212205D02*
X260554D01*
X259685Y211845D01*
X259021Y211181D01*
X258661Y210312D01*
Y209373D01*
X259021Y208504D01*
X259685Y207840D01*
X260554Y207480D01*
X261493D01*
X262362Y207840D01*
X263026Y208504D01*
X263386Y209373D01*
Y210312D01*
X263026Y211181D01*
X262362Y211845D01*
X261493Y212205D01*
D02*
G37*
G36*
X56018Y214577D02*
X54927D01*
X53873Y214294D01*
X52928Y213749D01*
X52157Y212977D01*
X51611Y212033D01*
X51329Y210979D01*
Y209888D01*
X51611Y208834D01*
X52157Y207889D01*
X52928Y207117D01*
X53873Y206572D01*
X54927Y206289D01*
X56018D01*
X57072Y206572D01*
X58017Y207117D01*
X58788Y207889D01*
X59334Y208834D01*
X59616Y209888D01*
Y210979D01*
X59334Y212033D01*
X58788Y212977D01*
X58017Y213749D01*
X57072Y214294D01*
X56018Y214577D01*
D02*
G37*
G36*
X46018D02*
X44927D01*
X43873Y214294D01*
X42928Y213749D01*
X42157Y212977D01*
X41611Y212033D01*
X41329Y210979D01*
Y209888D01*
X41611Y208834D01*
X42157Y207889D01*
X42928Y207117D01*
X43873Y206572D01*
X44927Y206289D01*
X46018D01*
X47072Y206572D01*
X48017Y207117D01*
X48788Y207889D01*
X49334Y208834D01*
X49616Y209888D01*
Y210979D01*
X49334Y212033D01*
X48788Y212977D01*
X48017Y213749D01*
X47072Y214294D01*
X46018Y214577D01*
D02*
G37*
G36*
X36018D02*
X34927D01*
X33873Y214294D01*
X32928Y213749D01*
X32157Y212977D01*
X31611Y212033D01*
X31329Y210979D01*
Y209888D01*
X31611Y208834D01*
X32157Y207889D01*
X32928Y207117D01*
X33873Y206572D01*
X34927Y206289D01*
X36018D01*
X37072Y206572D01*
X38017Y207117D01*
X38788Y207889D01*
X39334Y208834D01*
X39616Y209888D01*
Y210979D01*
X39334Y212033D01*
X38788Y212977D01*
X38017Y213749D01*
X37072Y214294D01*
X36018Y214577D01*
D02*
G37*
G36*
X455270Y212018D02*
X454179D01*
X453125Y211735D01*
X452180Y211190D01*
X451409Y210418D01*
X450863Y209473D01*
X450581Y208419D01*
Y207329D01*
X450863Y206275D01*
X451409Y205330D01*
X452180Y204558D01*
X453125Y204013D01*
X454179Y203730D01*
X455270D01*
X456324Y204013D01*
X457269Y204558D01*
X458040Y205330D01*
X458586Y206275D01*
X458868Y207329D01*
Y208419D01*
X458586Y209473D01*
X458040Y210418D01*
X457269Y211190D01*
X456324Y211735D01*
X455270Y212018D01*
D02*
G37*
G36*
X445427D02*
X444336D01*
X443283Y211735D01*
X442338Y211190D01*
X441566Y210418D01*
X441021Y209473D01*
X440738Y208419D01*
Y207329D01*
X441021Y206275D01*
X441566Y205330D01*
X442338Y204558D01*
X443283Y204013D01*
X444336Y203730D01*
X445427D01*
X446481Y204013D01*
X447426Y204558D01*
X448198Y205330D01*
X448743Y206275D01*
X449026Y207329D01*
Y208419D01*
X448743Y209473D01*
X448198Y210418D01*
X447426Y211190D01*
X446481Y211735D01*
X445427Y212018D01*
D02*
G37*
G36*
X435585D02*
X434494D01*
X433440Y211735D01*
X432495Y211190D01*
X431724Y210418D01*
X431178Y209473D01*
X430896Y208419D01*
Y207329D01*
X431178Y206275D01*
X431724Y205330D01*
X432495Y204558D01*
X433440Y204013D01*
X434494Y203730D01*
X435585D01*
X436639Y204013D01*
X437584Y204558D01*
X438355Y205330D01*
X438901Y206275D01*
X439183Y207329D01*
Y208419D01*
X438901Y209473D01*
X438355Y210418D01*
X437584Y211190D01*
X436639Y211735D01*
X435585Y212018D01*
D02*
G37*
G36*
X425742D02*
X424651D01*
X423597Y211735D01*
X422653Y211190D01*
X421881Y210418D01*
X421336Y209473D01*
X421053Y208419D01*
Y207329D01*
X421336Y206275D01*
X421881Y205330D01*
X422653Y204558D01*
X423597Y204013D01*
X424651Y203730D01*
X425742D01*
X426796Y204013D01*
X427741Y204558D01*
X428513Y205330D01*
X429058Y206275D01*
X429341Y207329D01*
Y208419D01*
X429058Y209473D01*
X428513Y210418D01*
X427741Y211190D01*
X426796Y211735D01*
X425742Y212018D01*
D02*
G37*
G36*
X160903Y208071D02*
X159963D01*
X159095Y207711D01*
X158431Y207047D01*
X158071Y206178D01*
Y205239D01*
X158431Y204371D01*
X159095Y203706D01*
X159963Y203346D01*
X160903D01*
X161771Y203706D01*
X162436Y204371D01*
X162795Y205239D01*
Y206178D01*
X162436Y207047D01*
X161771Y207711D01*
X160903Y208071D01*
D02*
G37*
G36*
X274092Y208071D02*
X273152D01*
X272284Y207711D01*
X271620Y207047D01*
X271260Y206178D01*
Y205239D01*
X271620Y204371D01*
X272284Y203706D01*
X273152Y203346D01*
X274092D01*
X274960Y203706D01*
X275625Y204371D01*
X275984Y205239D01*
Y206178D01*
X275625Y207047D01*
X274960Y207711D01*
X274092Y208071D01*
D02*
G37*
G36*
X304724Y203543D02*
X298425D01*
Y203508D01*
X297992Y203258D01*
X297869Y203329D01*
X297068Y203543D01*
X296239D01*
X295438Y203329D01*
X294720Y202914D01*
X294193Y202387D01*
X293666Y202914D01*
X292948Y203329D01*
X292147Y203543D01*
X291318D01*
X290517Y203329D01*
X289798Y202914D01*
X289272Y202387D01*
X288745Y202914D01*
X288027Y203329D01*
X287226Y203543D01*
X286396D01*
X285595Y203329D01*
X284877Y202914D01*
X284291Y202328D01*
X283876Y201609D01*
X283661Y200808D01*
Y199979D01*
X283876Y199178D01*
X284291Y198460D01*
X284877Y197873D01*
X285595Y197459D01*
X286396Y197244D01*
X287226D01*
X287816Y197402D01*
X301351Y183867D01*
Y152756D01*
X300963D01*
X300162Y152541D01*
X299444Y152127D01*
X298917Y151600D01*
X298391Y152127D01*
X297672Y152541D01*
X296871Y152756D01*
X296042D01*
X295241Y152541D01*
X294523Y152127D01*
X293996Y151600D01*
X293469Y152127D01*
X292751Y152541D01*
X291950Y152756D01*
X291121D01*
X290320Y152541D01*
X290197Y152470D01*
X289764Y152720D01*
Y152756D01*
X283858D01*
Y153620D01*
X283499Y154488D01*
X282834Y155152D01*
X281966Y155512D01*
X281026D01*
X280906Y155593D01*
Y155982D01*
X280546Y156850D01*
X279881Y157514D01*
X279013Y157874D01*
X278073D01*
X277205Y157514D01*
X276541Y156850D01*
X276181Y155982D01*
Y155042D01*
X276541Y154174D01*
X277205Y153509D01*
X277658Y153322D01*
Y152781D01*
X277205Y152593D01*
X276541Y151929D01*
X276181Y151060D01*
Y150121D01*
X276541Y149252D01*
X277205Y148588D01*
X278073Y148228D01*
X279013D01*
X279881Y148588D01*
X280546Y149252D01*
X280906Y150121D01*
Y150707D01*
X281026Y150787D01*
X281966D01*
X282834Y151147D01*
X283003Y151315D01*
X283465Y151124D01*
Y146457D01*
X287777D01*
X289164Y145070D01*
X289620Y144765D01*
X290158Y144658D01*
X302688D01*
X303226Y144765D01*
X303682Y145070D01*
X305521Y146909D01*
X305826Y147364D01*
X305932Y147902D01*
Y197441D01*
X305826Y197979D01*
X305521Y198434D01*
X304724Y199231D01*
Y203543D01*
D02*
G37*
G36*
X354253Y222441D02*
X353424D01*
X352623Y222226D01*
X351905Y221812D01*
X351318Y221225D01*
X350904Y220507D01*
X350689Y219706D01*
Y218877D01*
X350904Y218076D01*
X351318Y217357D01*
X351845Y216831D01*
X351318Y216304D01*
X350904Y215586D01*
X350689Y214785D01*
Y213955D01*
X350904Y213154D01*
X351318Y212436D01*
X351845Y211910D01*
X351318Y211383D01*
X350904Y210665D01*
X350689Y209863D01*
Y209034D01*
X350904Y208233D01*
X350975Y208110D01*
X350725Y207677D01*
X350689D01*
Y201378D01*
X356988D01*
Y207677D01*
X356953D01*
X356703Y208110D01*
X356773Y208233D01*
X356988Y209034D01*
Y209863D01*
X356773Y210665D01*
X356359Y211383D01*
X355832Y211910D01*
X356359Y212436D01*
X356773Y213154D01*
X356988Y213955D01*
Y214785D01*
X356773Y215586D01*
X356359Y216304D01*
X355832Y216831D01*
X356359Y217357D01*
X356773Y218076D01*
X356988Y218877D01*
Y219706D01*
X356773Y220507D01*
X356359Y221225D01*
X355772Y221812D01*
X355054Y222226D01*
X354253Y222441D01*
D02*
G37*
G36*
X56018Y204577D02*
X54927D01*
X53873Y204294D01*
X52928Y203749D01*
X52157Y202977D01*
X51611Y202032D01*
X51329Y200979D01*
Y199888D01*
X51611Y198834D01*
X52157Y197889D01*
X52928Y197117D01*
X53873Y196572D01*
X54927Y196289D01*
X56018D01*
X57072Y196572D01*
X58017Y197117D01*
X58788Y197889D01*
X59334Y198834D01*
X59616Y199888D01*
Y200979D01*
X59334Y202032D01*
X58788Y202977D01*
X58017Y203749D01*
X57072Y204294D01*
X56018Y204577D01*
D02*
G37*
G36*
X46018D02*
X44927D01*
X43873Y204294D01*
X42928Y203749D01*
X42157Y202977D01*
X41611Y202032D01*
X41329Y200979D01*
Y199888D01*
X41611Y198834D01*
X42157Y197889D01*
X42928Y197117D01*
X43873Y196572D01*
X44927Y196289D01*
X46018D01*
X47072Y196572D01*
X48017Y197117D01*
X48788Y197889D01*
X49334Y198834D01*
X49616Y199888D01*
Y200979D01*
X49334Y202032D01*
X48788Y202977D01*
X48017Y203749D01*
X47072Y204294D01*
X46018Y204577D01*
D02*
G37*
G36*
X36018D02*
X34927D01*
X33873Y204294D01*
X32928Y203749D01*
X32157Y202977D01*
X31611Y202032D01*
X31329Y200979D01*
Y199888D01*
X31611Y198834D01*
X32157Y197889D01*
X32928Y197117D01*
X33873Y196572D01*
X34927Y196289D01*
X36018D01*
X37072Y196572D01*
X38017Y197117D01*
X38788Y197889D01*
X39334Y198834D01*
X39616Y199888D01*
Y200979D01*
X39334Y202032D01*
X38788Y202977D01*
X38017Y203749D01*
X37072Y204294D01*
X36018Y204577D01*
D02*
G37*
G36*
X335509Y200787D02*
X334570D01*
X333701Y200428D01*
X333037Y199763D01*
X332677Y198895D01*
Y197955D01*
X333037Y197087D01*
X333701Y196423D01*
X334570Y196063D01*
X335509D01*
X336377Y196423D01*
X337042Y197087D01*
X337402Y197955D01*
Y198895D01*
X337042Y199763D01*
X336377Y200428D01*
X335509Y200787D01*
D02*
G37*
G36*
X160903Y200197D02*
X159963D01*
X159095Y199837D01*
X158431Y199173D01*
X158071Y198304D01*
Y197365D01*
X158431Y196497D01*
X159095Y195832D01*
X159963Y195473D01*
X160903D01*
X161771Y195832D01*
X162436Y196497D01*
X162795Y197365D01*
Y198304D01*
X162436Y199173D01*
X161771Y199837D01*
X160903Y200197D01*
D02*
G37*
G36*
X151060D02*
X150121D01*
X149252Y199837D01*
X148588Y199173D01*
X148228Y198304D01*
Y197365D01*
X148588Y196497D01*
X149252Y195832D01*
X150121Y195473D01*
X151060D01*
X151929Y195832D01*
X152593Y196497D01*
X152953Y197365D01*
Y198304D01*
X152593Y199173D01*
X151929Y199837D01*
X151060Y200197D01*
D02*
G37*
G36*
X340037Y197244D02*
X339097D01*
X338229Y196885D01*
X337564Y196220D01*
X337205Y195352D01*
Y194412D01*
X337564Y193544D01*
X338229Y192879D01*
X339097Y192520D01*
X340037D01*
X340905Y192879D01*
X341569Y193544D01*
X341929Y194412D01*
Y195352D01*
X341569Y196220D01*
X340905Y196885D01*
X340037Y197244D01*
D02*
G37*
G36*
X455270Y200207D02*
X454179D01*
X453125Y199924D01*
X452180Y199379D01*
X451409Y198607D01*
X450863Y197662D01*
X450581Y196608D01*
Y195518D01*
X450863Y194464D01*
X451409Y193519D01*
X452180Y192747D01*
X453125Y192202D01*
X454179Y191919D01*
X455270D01*
X456324Y192202D01*
X457269Y192747D01*
X458040Y193519D01*
X458586Y194464D01*
X458868Y195518D01*
Y196608D01*
X458586Y197662D01*
X458040Y198607D01*
X457269Y199379D01*
X456324Y199924D01*
X455270Y200207D01*
D02*
G37*
G36*
X445427D02*
X444336D01*
X443283Y199924D01*
X442338Y199379D01*
X441566Y198607D01*
X441021Y197662D01*
X440738Y196608D01*
Y195518D01*
X441021Y194464D01*
X441566Y193519D01*
X442338Y192747D01*
X443283Y192202D01*
X444336Y191919D01*
X445427D01*
X446481Y192202D01*
X447426Y192747D01*
X448198Y193519D01*
X448743Y194464D01*
X449026Y195518D01*
Y196608D01*
X448743Y197662D01*
X448198Y198607D01*
X447426Y199379D01*
X446481Y199924D01*
X445427Y200207D01*
D02*
G37*
G36*
X435585D02*
X434494D01*
X433440Y199924D01*
X432495Y199379D01*
X431724Y198607D01*
X431178Y197662D01*
X430896Y196608D01*
Y195518D01*
X431178Y194464D01*
X431724Y193519D01*
X432495Y192747D01*
X433440Y192202D01*
X434494Y191919D01*
X435585D01*
X436639Y192202D01*
X437584Y192747D01*
X438355Y193519D01*
X438901Y194464D01*
X439183Y195518D01*
Y196608D01*
X438901Y197662D01*
X438355Y198607D01*
X437584Y199379D01*
X436639Y199924D01*
X435585Y200207D01*
D02*
G37*
G36*
X425742D02*
X424651D01*
X423597Y199924D01*
X422653Y199379D01*
X421881Y198607D01*
X421336Y197662D01*
X421053Y196608D01*
Y195518D01*
X421336Y194464D01*
X421881Y193519D01*
X422653Y192747D01*
X423597Y192202D01*
X424651Y191919D01*
X425742D01*
X426796Y192202D01*
X427741Y192747D01*
X428513Y193519D01*
X429058Y194464D01*
X429341Y195518D01*
Y196608D01*
X429058Y197662D01*
X428513Y198607D01*
X427741Y199379D01*
X426796Y199924D01*
X425742Y200207D01*
D02*
G37*
G36*
X278029Y203543D02*
X277089D01*
X276221Y203184D01*
X275556Y202519D01*
X275197Y201651D01*
Y200711D01*
X275556Y199843D01*
X276221Y199179D01*
X277089Y198819D01*
X277127D01*
X277226Y198319D01*
X276615Y198066D01*
X275950Y197401D01*
X275591Y196533D01*
Y195593D01*
X275950Y194725D01*
X275917Y194560D01*
X275827Y194522D01*
X275163Y193858D01*
X274803Y192990D01*
Y192050D01*
X275163Y191182D01*
X275827Y190517D01*
X276695Y190157D01*
X277635D01*
X278503Y190517D01*
X279168Y191182D01*
X279528Y192050D01*
Y192990D01*
X279168Y193858D01*
X279201Y194023D01*
X279291Y194060D01*
X279955Y194725D01*
X280315Y195593D01*
Y196533D01*
X279955Y197401D01*
X279291Y198066D01*
X278423Y198425D01*
X278385D01*
X278286Y198925D01*
X278897Y199179D01*
X279562Y199843D01*
X279921Y200711D01*
Y201651D01*
X279562Y202519D01*
X278897Y203184D01*
X278029Y203543D01*
D02*
G37*
G36*
X223895Y194291D02*
X222955D01*
X222087Y193932D01*
X221423Y193267D01*
X221063Y192399D01*
Y191459D01*
X221423Y190591D01*
X222087Y189927D01*
X222955Y189567D01*
X223895D01*
X224763Y189927D01*
X225428Y190591D01*
X225787Y191459D01*
Y192399D01*
X225428Y193267D01*
X224763Y193932D01*
X223895Y194291D01*
D02*
G37*
G36*
X326841Y198460D02*
X325545D01*
X324293Y198125D01*
X323171Y197477D01*
X322255Y196560D01*
X321607Y195438D01*
X321272Y194186D01*
Y192891D01*
X321607Y191639D01*
X322255Y190517D01*
X323171Y189601D01*
X324293Y188953D01*
X325545Y188617D01*
X326841D01*
X328093Y188953D01*
X329215Y189601D01*
X330131Y190517D01*
X330779Y191639D01*
X331114Y192891D01*
Y194186D01*
X330779Y195438D01*
X330131Y196560D01*
X329215Y197477D01*
X328093Y198125D01*
X326841Y198460D01*
D02*
G37*
G36*
X160903Y192323D02*
X159963D01*
X159095Y191963D01*
X158431Y191299D01*
X158071Y190430D01*
Y189491D01*
X158431Y188623D01*
X159095Y187958D01*
X159963Y187598D01*
X160903D01*
X161771Y187958D01*
X162436Y188623D01*
X162795Y189491D01*
Y190430D01*
X162436Y191299D01*
X161771Y191963D01*
X160903Y192323D01*
D02*
G37*
G36*
X244171Y194488D02*
X243231D01*
X242363Y194129D01*
X241698Y193464D01*
X241339Y192596D01*
Y191656D01*
X241698Y190788D01*
X242363Y190123D01*
X243231Y189764D01*
X244171D01*
X244488Y189552D01*
Y189039D01*
X244848Y188171D01*
X245512Y187506D01*
X246380Y187147D01*
X247320D01*
X247616Y187269D01*
X247966Y187035D01*
X248043Y186905D01*
X248391Y186064D01*
X249056Y185399D01*
X249924Y185039D01*
X250864D01*
X251732Y185399D01*
X252396Y186064D01*
X252696Y186786D01*
X253218Y187111D01*
X253467Y187008D01*
X254407D01*
X255275Y187367D01*
X255940Y188032D01*
X256299Y188900D01*
Y189158D01*
X256617Y189370D01*
X257557D01*
X258425Y189730D01*
X259089Y190394D01*
X259449Y191262D01*
Y192202D01*
X259089Y193070D01*
X258425Y193735D01*
X257557Y194095D01*
X256617D01*
X255749Y193735D01*
X255084Y193070D01*
X254724Y192202D01*
Y191945D01*
X254407Y191732D01*
X253467D01*
X252599Y191373D01*
X251934Y190708D01*
X251635Y189985D01*
X251113Y189661D01*
X250864Y189764D01*
X249924D01*
X249628Y189641D01*
X249278Y189875D01*
X249201Y190006D01*
X248853Y190847D01*
X248188Y191512D01*
X247320Y191871D01*
X246380D01*
X246063Y192083D01*
Y192596D01*
X245703Y193464D01*
X245039Y194129D01*
X244171Y194488D01*
D02*
G37*
G36*
X56018Y194577D02*
X54927D01*
X53873Y194294D01*
X52928Y193749D01*
X52157Y192977D01*
X51611Y192033D01*
X51329Y190979D01*
Y189887D01*
X51611Y188834D01*
X52157Y187889D01*
X52928Y187117D01*
X53873Y186572D01*
X54927Y186289D01*
X56018D01*
X57072Y186572D01*
X58017Y187117D01*
X58788Y187889D01*
X59334Y188834D01*
X59616Y189887D01*
Y190979D01*
X59334Y192033D01*
X58788Y192977D01*
X58017Y193749D01*
X57072Y194294D01*
X56018Y194577D01*
D02*
G37*
G36*
X46018D02*
X44927D01*
X43873Y194294D01*
X42928Y193749D01*
X42157Y192977D01*
X41611Y192033D01*
X41329Y190979D01*
Y189887D01*
X41611Y188834D01*
X42157Y187889D01*
X42928Y187117D01*
X43873Y186572D01*
X44927Y186289D01*
X46018D01*
X47072Y186572D01*
X48017Y187117D01*
X48788Y187889D01*
X49334Y188834D01*
X49616Y189887D01*
Y190979D01*
X49334Y192033D01*
X48788Y192977D01*
X48017Y193749D01*
X47072Y194294D01*
X46018Y194577D01*
D02*
G37*
G36*
X36018D02*
X34927D01*
X33873Y194294D01*
X32928Y193749D01*
X32157Y192977D01*
X31611Y192033D01*
X31329Y190979D01*
Y189887D01*
X31611Y188834D01*
X32157Y187889D01*
X32928Y187117D01*
X33873Y186572D01*
X34927Y186289D01*
X36018D01*
X37072Y186572D01*
X38017Y187117D01*
X38788Y187889D01*
X39334Y188834D01*
X39616Y189887D01*
Y190979D01*
X39334Y192033D01*
X38788Y192977D01*
X38017Y193749D01*
X37072Y194294D01*
X36018Y194577D01*
D02*
G37*
G36*
X151060Y188386D02*
X150121D01*
X149252Y188026D01*
X148588Y187362D01*
X148228Y186494D01*
Y185554D01*
X148588Y184686D01*
X149252Y184021D01*
X150121Y183661D01*
X151060D01*
X151929Y184021D01*
X152593Y184686D01*
X152953Y185554D01*
Y186494D01*
X152593Y187362D01*
X151929Y188026D01*
X151060Y188386D01*
D02*
G37*
G36*
X189840Y196063D02*
X188900D01*
X188032Y195703D01*
X187367Y195039D01*
X187008Y194171D01*
Y193231D01*
X187367Y192363D01*
X187965Y191765D01*
Y188771D01*
X149572Y150377D01*
X149267Y149922D01*
X149160Y149384D01*
Y146201D01*
X148562Y145604D01*
X148203Y144736D01*
Y143796D01*
X148562Y142928D01*
X149227Y142263D01*
X150095Y141903D01*
X151035D01*
X151903Y142263D01*
X152568Y142928D01*
X152927Y143796D01*
Y144736D01*
X152568Y145604D01*
X151970Y146201D01*
Y148802D01*
X186746Y183578D01*
X187236Y183481D01*
X187266Y183409D01*
X187931Y182744D01*
X188799Y182385D01*
X189739D01*
X190607Y182744D01*
X191271Y183409D01*
X191631Y184277D01*
Y185217D01*
X191271Y186085D01*
X190607Y186750D01*
X190558Y186770D01*
X190466Y187349D01*
X190668Y187651D01*
X190775Y188189D01*
Y191765D01*
X191373Y192363D01*
X191732Y193231D01*
Y194171D01*
X191373Y195039D01*
X190708Y195703D01*
X189840Y196063D01*
D02*
G37*
G36*
X455270Y190364D02*
X454179D01*
X453125Y190082D01*
X452180Y189536D01*
X451409Y188765D01*
X450863Y187820D01*
X450581Y186766D01*
Y185675D01*
X450863Y184621D01*
X451409Y183676D01*
X452180Y182905D01*
X453125Y182359D01*
X454179Y182077D01*
X455270D01*
X456324Y182359D01*
X457269Y182905D01*
X458040Y183676D01*
X458586Y184621D01*
X458868Y185675D01*
Y186766D01*
X458586Y187820D01*
X458040Y188765D01*
X457269Y189536D01*
X456324Y190082D01*
X455270Y190364D01*
D02*
G37*
G36*
X445427D02*
X444336D01*
X443283Y190082D01*
X442338Y189536D01*
X441566Y188765D01*
X441021Y187820D01*
X440738Y186766D01*
Y185675D01*
X441021Y184621D01*
X441566Y183676D01*
X442338Y182905D01*
X443283Y182359D01*
X444336Y182077D01*
X445427D01*
X446481Y182359D01*
X447426Y182905D01*
X448198Y183676D01*
X448743Y184621D01*
X449026Y185675D01*
Y186766D01*
X448743Y187820D01*
X448198Y188765D01*
X447426Y189536D01*
X446481Y190082D01*
X445427Y190364D01*
D02*
G37*
G36*
X435585D02*
X434494D01*
X433440Y190082D01*
X432495Y189536D01*
X431724Y188765D01*
X431178Y187820D01*
X430896Y186766D01*
Y185675D01*
X431178Y184621D01*
X431724Y183676D01*
X432495Y182905D01*
X433440Y182359D01*
X434494Y182077D01*
X435585D01*
X436639Y182359D01*
X437584Y182905D01*
X438355Y183676D01*
X438901Y184621D01*
X439183Y185675D01*
Y186766D01*
X438901Y187820D01*
X438355Y188765D01*
X437584Y189536D01*
X436639Y190082D01*
X435585Y190364D01*
D02*
G37*
G36*
X425742D02*
X424651D01*
X423597Y190082D01*
X422653Y189536D01*
X421881Y188765D01*
X421336Y187820D01*
X421053Y186766D01*
Y185675D01*
X421336Y184621D01*
X421881Y183676D01*
X422653Y182905D01*
X423597Y182359D01*
X424651Y182077D01*
X425742D01*
X426796Y182359D01*
X427741Y182905D01*
X428513Y183676D01*
X429058Y184621D01*
X429341Y185675D01*
Y186766D01*
X429058Y187820D01*
X428513Y188765D01*
X427741Y189536D01*
X426796Y190082D01*
X425742Y190364D01*
D02*
G37*
G36*
X217990Y186417D02*
X217050D01*
X216182Y186058D01*
X215517Y185393D01*
X215158Y184525D01*
Y183585D01*
X215517Y182717D01*
X216182Y182053D01*
X217050Y181693D01*
X217990D01*
X218858Y182053D01*
X219522Y182717D01*
X219882Y183585D01*
Y184525D01*
X219522Y185393D01*
X218858Y186058D01*
X217990Y186417D01*
D02*
G37*
G36*
X268580Y186253D02*
X267640D01*
X266772Y185894D01*
X266108Y185229D01*
X265748Y184361D01*
Y183422D01*
X266108Y182553D01*
X266772Y181889D01*
X267640Y181529D01*
X268580D01*
X269448Y181889D01*
X270113Y182553D01*
X270472Y183422D01*
Y184361D01*
X270113Y185229D01*
X269448Y185894D01*
X268580Y186253D01*
D02*
G37*
G36*
X282360Y183858D02*
X281420D01*
X280552Y183499D01*
X279887Y182834D01*
X279528Y181966D01*
Y181026D01*
X279887Y180158D01*
X280552Y179493D01*
X281420Y179134D01*
X282360D01*
X283228Y179493D01*
X283892Y180158D01*
X284252Y181026D01*
Y181966D01*
X283892Y182834D01*
X283228Y183499D01*
X282360Y183858D01*
D02*
G37*
G36*
X189446Y181496D02*
X188506D01*
X187638Y181136D01*
X186974Y180472D01*
X186614Y179604D01*
Y178664D01*
X186974Y177796D01*
X187638Y177131D01*
X188506Y176772D01*
X189446D01*
X190314Y177131D01*
X190979Y177796D01*
X191339Y178664D01*
Y179604D01*
X190979Y180472D01*
X190314Y181136D01*
X189446Y181496D01*
D02*
G37*
G36*
X56018Y184577D02*
X54927D01*
X53873Y184294D01*
X52928Y183749D01*
X52157Y182977D01*
X51611Y182033D01*
X51329Y180979D01*
Y179887D01*
X51611Y178834D01*
X52157Y177889D01*
X52928Y177117D01*
X53873Y176572D01*
X54927Y176289D01*
X56018D01*
X57072Y176572D01*
X58017Y177117D01*
X58788Y177889D01*
X59334Y178834D01*
X59616Y179887D01*
Y180979D01*
X59334Y182033D01*
X58788Y182977D01*
X58017Y183749D01*
X57072Y184294D01*
X56018Y184577D01*
D02*
G37*
G36*
X46018D02*
X44927D01*
X43873Y184294D01*
X42928Y183749D01*
X42157Y182977D01*
X41611Y182033D01*
X41329Y180979D01*
Y179887D01*
X41611Y178834D01*
X42157Y177889D01*
X42928Y177117D01*
X43873Y176572D01*
X44927Y176289D01*
X46018D01*
X47072Y176572D01*
X48017Y177117D01*
X48788Y177889D01*
X49334Y178834D01*
X49616Y179887D01*
Y180979D01*
X49334Y182033D01*
X48788Y182977D01*
X48017Y183749D01*
X47072Y184294D01*
X46018Y184577D01*
D02*
G37*
G36*
X36018D02*
X34927D01*
X33873Y184294D01*
X32928Y183749D01*
X32157Y182977D01*
X31611Y182033D01*
X31329Y180979D01*
Y179887D01*
X31611Y178834D01*
X32157Y177889D01*
X32928Y177117D01*
X33873Y176572D01*
X34927Y176289D01*
X36018D01*
X37072Y176572D01*
X38017Y177117D01*
X38788Y177889D01*
X39334Y178834D01*
X39616Y179887D01*
Y180979D01*
X39334Y182033D01*
X38788Y182977D01*
X38017Y183749D01*
X37072Y184294D01*
X36018Y184577D01*
D02*
G37*
G36*
X217990Y180512D02*
X217050D01*
X216182Y180152D01*
X215517Y179488D01*
X215158Y178620D01*
Y177680D01*
X215517Y176812D01*
X216182Y176147D01*
X217050Y175787D01*
X217990D01*
X218858Y176147D01*
X219522Y176812D01*
X219882Y177680D01*
Y178620D01*
X219522Y179488D01*
X218858Y180152D01*
X217990Y180512D01*
D02*
G37*
G36*
X151060Y178543D02*
X150121D01*
X149252Y178184D01*
X148588Y177519D01*
X148228Y176651D01*
Y175711D01*
X148588Y174843D01*
X149252Y174179D01*
X150121Y173819D01*
X151060D01*
X151929Y174179D01*
X152593Y174843D01*
X152953Y175711D01*
Y176651D01*
X152593Y177519D01*
X151929Y178184D01*
X151060Y178543D01*
D02*
G37*
G36*
X204564Y178347D02*
X203625D01*
X202756Y177987D01*
X202092Y177322D01*
X201732Y176454D01*
Y175514D01*
X202092Y174646D01*
X202756Y173982D01*
X203625Y173622D01*
X204564D01*
X205433Y173982D01*
X206097Y174646D01*
X206457Y175514D01*
Y176454D01*
X206097Y177322D01*
X205433Y177987D01*
X204564Y178347D01*
D02*
G37*
G36*
X264643Y176378D02*
X263703D01*
X262835Y176018D01*
X262171Y175354D01*
X261811Y174486D01*
Y173546D01*
X262171Y172678D01*
X262835Y172013D01*
X263703Y171653D01*
X264643D01*
X265511Y172013D01*
X266176Y172678D01*
X266535Y173546D01*
Y174486D01*
X266176Y175354D01*
X265511Y176018D01*
X264643Y176378D01*
D02*
G37*
G36*
X189446Y175591D02*
X188506D01*
X187638Y175231D01*
X186974Y174566D01*
X186614Y173698D01*
Y172758D01*
X186974Y171890D01*
X187638Y171226D01*
X188506Y170866D01*
X189446D01*
X190314Y171226D01*
X190979Y171890D01*
X191339Y172758D01*
Y173698D01*
X190979Y174566D01*
X190314Y175231D01*
X189446Y175591D01*
D02*
G37*
G36*
X455270Y178553D02*
X454179D01*
X453125Y178271D01*
X452180Y177725D01*
X451409Y176954D01*
X450863Y176009D01*
X450581Y174955D01*
Y173864D01*
X450863Y172810D01*
X451409Y171865D01*
X452180Y171094D01*
X453125Y170548D01*
X454179Y170266D01*
X455270D01*
X456324Y170548D01*
X457269Y171094D01*
X458040Y171865D01*
X458586Y172810D01*
X458868Y173864D01*
Y174955D01*
X458586Y176009D01*
X458040Y176954D01*
X457269Y177725D01*
X456324Y178271D01*
X455270Y178553D01*
D02*
G37*
G36*
X445427D02*
X444336D01*
X443283Y178271D01*
X442338Y177725D01*
X441566Y176954D01*
X441021Y176009D01*
X440738Y174955D01*
Y173864D01*
X441021Y172810D01*
X441566Y171865D01*
X442338Y171094D01*
X443283Y170548D01*
X444336Y170266D01*
X445427D01*
X446481Y170548D01*
X447426Y171094D01*
X448198Y171865D01*
X448743Y172810D01*
X449026Y173864D01*
Y174955D01*
X448743Y176009D01*
X448198Y176954D01*
X447426Y177725D01*
X446481Y178271D01*
X445427Y178553D01*
D02*
G37*
G36*
X435585D02*
X434494D01*
X433440Y178271D01*
X432495Y177725D01*
X431724Y176954D01*
X431178Y176009D01*
X430896Y174955D01*
Y173864D01*
X431178Y172810D01*
X431724Y171865D01*
X432495Y171094D01*
X433440Y170548D01*
X434494Y170266D01*
X435585D01*
X436639Y170548D01*
X437584Y171094D01*
X438355Y171865D01*
X438901Y172810D01*
X439183Y173864D01*
Y174955D01*
X438901Y176009D01*
X438355Y176954D01*
X437584Y177725D01*
X436639Y178271D01*
X435585Y178553D01*
D02*
G37*
G36*
X425742D02*
X424651D01*
X423597Y178271D01*
X422653Y177725D01*
X421881Y176954D01*
X421336Y176009D01*
X421053Y174955D01*
Y173864D01*
X421336Y172810D01*
X421881Y171865D01*
X422653Y171094D01*
X423597Y170548D01*
X424651Y170266D01*
X425742D01*
X426796Y170548D01*
X427741Y171094D01*
X428513Y171865D01*
X429058Y172810D01*
X429341Y173864D01*
Y174955D01*
X429058Y176009D01*
X428513Y176954D01*
X427741Y177725D01*
X426796Y178271D01*
X425742Y178553D01*
D02*
G37*
G36*
X126720Y172146D02*
X125780D01*
X124912Y171786D01*
X124248Y171122D01*
X123888Y170253D01*
Y169314D01*
X124248Y168445D01*
X124912Y167781D01*
X125780Y167421D01*
X126720D01*
X127588Y167781D01*
X128253Y168445D01*
X128612Y169314D01*
Y170253D01*
X128253Y171122D01*
X127588Y171786D01*
X126720Y172146D01*
D02*
G37*
G36*
X120746Y172146D02*
X119806D01*
X118938Y171786D01*
X118273Y171122D01*
X117913Y170253D01*
Y169314D01*
X118273Y168445D01*
X118938Y167781D01*
X119806Y167421D01*
X120746D01*
X121614Y167781D01*
X122278Y168445D01*
X122638Y169314D01*
Y170253D01*
X122278Y171122D01*
X121614Y171786D01*
X120746Y172146D01*
D02*
G37*
G36*
X160903Y181496D02*
X159963D01*
X159095Y181136D01*
X158431Y180472D01*
X158071Y179604D01*
Y178664D01*
X158431Y177796D01*
X159095Y177131D01*
X159547Y176944D01*
Y176403D01*
X159095Y176215D01*
X158431Y175551D01*
X158071Y174682D01*
Y173743D01*
X158431Y172874D01*
X159095Y172210D01*
X159547Y172023D01*
Y171481D01*
X159095Y171294D01*
X158431Y170629D01*
X158071Y169761D01*
Y168822D01*
X158431Y167953D01*
X159095Y167289D01*
X159963Y166929D01*
X160903D01*
X161771Y167289D01*
X162436Y167953D01*
X162795Y168822D01*
Y169761D01*
X162436Y170629D01*
X161771Y171294D01*
X161319Y171481D01*
Y172023D01*
X161771Y172210D01*
X162436Y172874D01*
X162795Y173743D01*
Y174682D01*
X162436Y175551D01*
X161771Y176215D01*
X161319Y176403D01*
Y176944D01*
X161771Y177131D01*
X162436Y177796D01*
X162795Y178664D01*
Y179604D01*
X162436Y180472D01*
X161771Y181136D01*
X160903Y181496D01*
D02*
G37*
G36*
X262281Y171653D02*
X261341D01*
X260473Y171294D01*
X259808Y170629D01*
X259449Y169761D01*
Y168821D01*
X259808Y167953D01*
X260473Y167289D01*
X261341Y166929D01*
X262281D01*
X263149Y167289D01*
X263814Y167953D01*
X264173Y168821D01*
Y169761D01*
X263814Y170629D01*
X263149Y171294D01*
X262281Y171653D01*
D02*
G37*
G36*
X363659Y167717D02*
X362719D01*
X361851Y167357D01*
X361449Y166955D01*
X361122Y166736D01*
X360795Y166955D01*
X360393Y167357D01*
X359525Y167717D01*
X358585D01*
X357717Y167357D01*
X357052Y166692D01*
X356693Y165824D01*
Y164884D01*
X357052Y164016D01*
X357717Y163352D01*
X358585Y162992D01*
X359525D01*
X360393Y163352D01*
X360795Y163754D01*
X361122Y163973D01*
X361449Y163754D01*
X361851Y163352D01*
X362719Y162992D01*
X363659D01*
X364527Y163352D01*
X365192Y164016D01*
X365551Y164884D01*
Y165824D01*
X365192Y166692D01*
X364527Y167357D01*
X363659Y167717D01*
D02*
G37*
G36*
X151060Y170669D02*
X150121D01*
X149252Y170310D01*
X148588Y169645D01*
X148228Y168777D01*
Y167837D01*
X148588Y166969D01*
X149252Y166305D01*
X150121Y165945D01*
X151060D01*
X151929Y166305D01*
X152593Y166969D01*
X152953Y167837D01*
Y168777D01*
X152593Y169645D01*
X151929Y170310D01*
X151060Y170669D01*
D02*
G37*
G36*
X189446Y169685D02*
X188506D01*
X187638Y169325D01*
X186974Y168661D01*
X186614Y167793D01*
Y166853D01*
X186974Y165985D01*
X187638Y165320D01*
X188506Y164961D01*
X189446D01*
X190314Y165320D01*
X190979Y165985D01*
X191339Y166853D01*
Y167793D01*
X190979Y168661D01*
X190314Y169325D01*
X189446Y169685D01*
D02*
G37*
G36*
X206769Y169095D02*
X205829D01*
X204961Y168735D01*
X204297Y168070D01*
X203937Y167202D01*
Y166262D01*
X204297Y165394D01*
X204961Y164730D01*
X205829Y164370D01*
X206769D01*
X207637Y164730D01*
X208302Y165394D01*
X208661Y166262D01*
Y167202D01*
X208302Y168070D01*
X207637Y168735D01*
X206769Y169095D01*
D02*
G37*
G36*
X278816Y175984D02*
X277877D01*
X277008Y175625D01*
X276344Y174960D01*
X275984Y174092D01*
Y173152D01*
X276344Y172284D01*
X276856Y171772D01*
X276956Y171457D01*
X276856Y171141D01*
X276344Y170629D01*
X275984Y169761D01*
Y168822D01*
X276344Y167953D01*
X276974Y167323D01*
X276344Y166692D01*
X275984Y165824D01*
Y164884D01*
X276344Y164016D01*
X277008Y163352D01*
X277877Y162992D01*
X278816D01*
X279684Y163352D01*
X280349Y164016D01*
X280709Y164884D01*
Y165824D01*
X280349Y166692D01*
X279719Y167323D01*
X280349Y167953D01*
X280709Y168822D01*
Y169761D01*
X280349Y170629D01*
X279837Y171141D01*
X279736Y171457D01*
X279837Y171772D01*
X280349Y172284D01*
X280709Y173152D01*
Y174092D01*
X280349Y174960D01*
X279684Y175625D01*
X278816Y175984D01*
D02*
G37*
G36*
X262281Y165748D02*
X261341D01*
X260473Y165388D01*
X259808Y164724D01*
X259449Y163856D01*
Y162916D01*
X259808Y162048D01*
X260473Y161383D01*
X261341Y161024D01*
X262281D01*
X263149Y161383D01*
X263814Y162048D01*
X264173Y162916D01*
Y163856D01*
X263814Y164724D01*
X263149Y165388D01*
X262281Y165748D01*
D02*
G37*
G36*
X217989Y174606D02*
X217050D01*
X216182Y174247D01*
X215517Y173582D01*
X215158Y172714D01*
Y171774D01*
X215517Y170906D01*
X216182Y170241D01*
X217050Y169882D01*
X217648D01*
X218015Y169786D01*
X218110Y169420D01*
Y169163D01*
X218015Y168797D01*
X217648Y168701D01*
X217050D01*
X216182Y168341D01*
X215517Y167677D01*
X215158Y166808D01*
Y165869D01*
X215517Y165000D01*
X216182Y164336D01*
X217050Y163976D01*
X217648D01*
X218015Y163881D01*
X218110Y163514D01*
Y163257D01*
X218015Y162891D01*
X217648Y162795D01*
X217050D01*
X216182Y162436D01*
X215517Y161771D01*
X215158Y160903D01*
Y159963D01*
X215517Y159095D01*
X216182Y158431D01*
X217050Y158071D01*
X217989D01*
X218858Y158431D01*
X219522Y159095D01*
X219882Y159963D01*
Y160562D01*
X219978Y160928D01*
X220344Y161024D01*
X220942D01*
X221811Y161383D01*
X222475Y162048D01*
X222835Y162916D01*
Y163856D01*
X222475Y164724D01*
X221811Y165388D01*
X220942Y165748D01*
X220344D01*
X219978Y165844D01*
X219882Y166210D01*
Y166467D01*
X219978Y166833D01*
X220344Y166929D01*
X220942D01*
X221811Y167289D01*
X222475Y167953D01*
X222835Y168822D01*
Y169761D01*
X222475Y170629D01*
X221811Y171294D01*
X220942Y171653D01*
X220344D01*
X219978Y171749D01*
X219882Y172116D01*
Y172714D01*
X219522Y173582D01*
X218858Y174247D01*
X217989Y174606D01*
D02*
G37*
G36*
X346238Y161909D02*
X345298D01*
X344430Y161550D01*
X343765Y160885D01*
X343406Y160017D01*
Y159077D01*
X343765Y158209D01*
X344430Y157545D01*
X345298Y157185D01*
X346238D01*
X347106Y157545D01*
X347770Y158209D01*
X348130Y159077D01*
Y160017D01*
X347770Y160885D01*
X347106Y161550D01*
X346238Y161909D01*
D02*
G37*
G36*
X59601Y164183D02*
X58510D01*
X57456Y163901D01*
X56511Y163355D01*
X55739Y162584D01*
X55194Y161639D01*
X54911Y160585D01*
Y159494D01*
X55194Y158440D01*
X55739Y157495D01*
X56511Y156724D01*
X57456Y156178D01*
X58510Y155896D01*
X59601D01*
X60654Y156178D01*
X61599Y156724D01*
X62371Y157495D01*
X62916Y158440D01*
X63199Y159494D01*
Y160585D01*
X62916Y161639D01*
X62371Y162584D01*
X61599Y163355D01*
X60654Y163901D01*
X59601Y164183D01*
D02*
G37*
G36*
X49758D02*
X48667D01*
X47613Y163901D01*
X46668Y163355D01*
X45897Y162584D01*
X45351Y161639D01*
X45069Y160585D01*
Y159494D01*
X45351Y158440D01*
X45897Y157495D01*
X46668Y156724D01*
X47613Y156178D01*
X48667Y155896D01*
X49758D01*
X50812Y156178D01*
X51757Y156724D01*
X52528Y157495D01*
X53074Y158440D01*
X53356Y159494D01*
Y160585D01*
X53074Y161639D01*
X52528Y162584D01*
X51757Y163355D01*
X50812Y163901D01*
X49758Y164183D01*
D02*
G37*
G36*
X39916D02*
X38824D01*
X37771Y163901D01*
X36826Y163355D01*
X36054Y162584D01*
X35509Y161639D01*
X35226Y160585D01*
Y159494D01*
X35509Y158440D01*
X36054Y157495D01*
X36826Y156724D01*
X37771Y156178D01*
X38824Y155896D01*
X39916D01*
X40969Y156178D01*
X41914Y156724D01*
X42686Y157495D01*
X43231Y158440D01*
X43514Y159494D01*
Y160585D01*
X43231Y161639D01*
X42686Y162584D01*
X41914Y163355D01*
X40969Y163901D01*
X39916Y164183D01*
D02*
G37*
G36*
X30073D02*
X28982D01*
X27928Y163901D01*
X26983Y163355D01*
X26212Y162584D01*
X25666Y161639D01*
X25384Y160585D01*
Y159494D01*
X25666Y158440D01*
X26212Y157495D01*
X26983Y156724D01*
X27928Y156178D01*
X28982Y155896D01*
X30073D01*
X31127Y156178D01*
X32072Y156724D01*
X32843Y157495D01*
X33389Y158440D01*
X33671Y159494D01*
Y160585D01*
X33389Y161639D01*
X32843Y162584D01*
X32072Y163355D01*
X31127Y163901D01*
X30073Y164183D01*
D02*
G37*
G36*
X262281Y159843D02*
X261341D01*
X260473Y159483D01*
X259808Y158818D01*
X259449Y157950D01*
Y157010D01*
X259808Y156142D01*
X260473Y155478D01*
X261341Y155118D01*
X262281D01*
X263149Y155478D01*
X263813Y156142D01*
X264173Y157010D01*
Y157950D01*
X263813Y158818D01*
X263149Y159483D01*
X262281Y159843D01*
D02*
G37*
G36*
X394708Y179134D02*
X392694D01*
X390705Y178819D01*
X388789Y178196D01*
X386995Y177282D01*
X385365Y176098D01*
X383941Y174674D01*
X382757Y173045D01*
X381843Y171250D01*
X381221Y169335D01*
X380906Y167346D01*
Y165332D01*
X381221Y163342D01*
X381843Y161427D01*
X382757Y159632D01*
X383941Y158003D01*
X385365Y156579D01*
X386995Y155395D01*
X388789Y154481D01*
X390705Y153858D01*
X392694Y153543D01*
X394708D01*
X396697Y153858D01*
X398612Y154481D01*
X400407Y155395D01*
X402036Y156579D01*
X403461Y158003D01*
X404644Y159632D01*
X405559Y161427D01*
X406181Y163342D01*
X406496Y165332D01*
Y167346D01*
X406181Y169335D01*
X405559Y171250D01*
X404644Y173045D01*
X403461Y174674D01*
X402036Y176098D01*
X400407Y177282D01*
X398612Y178196D01*
X396697Y178819D01*
X394708Y179134D01*
D02*
G37*
G36*
X91558D02*
X89544D01*
X87555Y178819D01*
X85640Y178196D01*
X83845Y177282D01*
X82216Y176098D01*
X80791Y174674D01*
X79608Y173045D01*
X78693Y171250D01*
X78071Y169335D01*
X77756Y167346D01*
Y165332D01*
X78071Y163342D01*
X78693Y161427D01*
X79608Y159632D01*
X80791Y158003D01*
X82216Y156579D01*
X83845Y155395D01*
X85640Y154481D01*
X87555Y153858D01*
X89544Y153543D01*
X91558D01*
X93547Y153858D01*
X95463Y154481D01*
X97257Y155395D01*
X98887Y156579D01*
X100311Y158003D01*
X101495Y159632D01*
X102409Y161427D01*
X103031Y163342D01*
X103347Y165332D01*
Y167346D01*
X103031Y169335D01*
X102409Y171250D01*
X101495Y173045D01*
X100311Y174674D01*
X98887Y176098D01*
X97257Y177282D01*
X95463Y178196D01*
X93547Y178819D01*
X91558Y179134D01*
D02*
G37*
G36*
X189446Y157874D02*
X188506D01*
X187638Y157514D01*
X186974Y156850D01*
X186614Y155982D01*
Y155042D01*
X186974Y154174D01*
X187638Y153509D01*
X188506Y153150D01*
X189446D01*
X190314Y153509D01*
X190979Y154174D01*
X191339Y155042D01*
Y155982D01*
X190979Y156850D01*
X190314Y157514D01*
X189446Y157874D01*
D02*
G37*
G36*
X217989Y156890D02*
X217050D01*
X216182Y156530D01*
X215517Y155866D01*
X215157Y154997D01*
Y154058D01*
X215517Y153190D01*
X216182Y152525D01*
X217050Y152165D01*
X217989D01*
X218858Y152525D01*
X219522Y153190D01*
X219882Y154058D01*
Y154997D01*
X219522Y155866D01*
X218858Y156530D01*
X217989Y156890D01*
D02*
G37*
G36*
X205588Y158661D02*
X204648D01*
X203780Y158302D01*
X203116Y157637D01*
X202756Y156769D01*
Y155829D01*
X203116Y154961D01*
X203780Y154297D01*
X204105Y154162D01*
X204240Y153565D01*
X203937Y152832D01*
Y151892D01*
X204297Y151024D01*
X204961Y150360D01*
X205829Y150000D01*
X206769D01*
X207637Y150360D01*
X208302Y151024D01*
X208661Y151892D01*
Y152832D01*
X208302Y153700D01*
X207637Y154365D01*
X207312Y154499D01*
X207177Y155097D01*
X207480Y155829D01*
Y156769D01*
X207121Y157637D01*
X206456Y158302D01*
X205588Y158661D01*
D02*
G37*
G36*
X449325Y158159D02*
X448234D01*
X447180Y157877D01*
X446235Y157332D01*
X445464Y156560D01*
X444918Y155615D01*
X444636Y154561D01*
Y153470D01*
X444918Y152416D01*
X445464Y151471D01*
X446235Y150700D01*
X447180Y150154D01*
X448234Y149872D01*
X449325D01*
X450379Y150154D01*
X451324Y150700D01*
X452095Y151471D01*
X452641Y152416D01*
X452923Y153470D01*
Y154561D01*
X452641Y155615D01*
X452095Y156560D01*
X451324Y157332D01*
X450379Y157877D01*
X449325Y158159D01*
D02*
G37*
G36*
X439325D02*
X438234D01*
X437180Y157877D01*
X436235Y157332D01*
X435464Y156560D01*
X434918Y155615D01*
X434636Y154561D01*
Y153470D01*
X434918Y152416D01*
X435464Y151471D01*
X436235Y150700D01*
X437180Y150154D01*
X438234Y149872D01*
X439325D01*
X440379Y150154D01*
X441324Y150700D01*
X442095Y151471D01*
X442641Y152416D01*
X442923Y153470D01*
Y154561D01*
X442641Y155615D01*
X442095Y156560D01*
X441324Y157332D01*
X440379Y157877D01*
X439325Y158159D01*
D02*
G37*
G36*
X429325D02*
X428234D01*
X427180Y157877D01*
X426235Y157332D01*
X425464Y156560D01*
X424918Y155615D01*
X424636Y154561D01*
Y153470D01*
X424918Y152416D01*
X425464Y151471D01*
X426235Y150700D01*
X427180Y150154D01*
X428234Y149872D01*
X429325D01*
X430379Y150154D01*
X431324Y150700D01*
X432095Y151471D01*
X432641Y152416D01*
X432923Y153470D01*
Y154561D01*
X432641Y155615D01*
X432095Y156560D01*
X431324Y157332D01*
X430379Y157877D01*
X429325Y158159D01*
D02*
G37*
G36*
X262281Y153937D02*
X261341D01*
X260473Y153577D01*
X259808Y152913D01*
X259449Y152045D01*
Y151105D01*
X259808Y150237D01*
X260473Y149572D01*
X261341Y149213D01*
X262281D01*
X263149Y149572D01*
X263813Y150237D01*
X264173Y151105D01*
Y152045D01*
X263813Y152913D01*
X263149Y153577D01*
X262281Y153937D01*
D02*
G37*
G36*
X378423Y151969D02*
X377483D01*
X376615Y151609D01*
X375950Y150944D01*
X375591Y150076D01*
Y149136D01*
X375950Y148268D01*
X376615Y147604D01*
X377483Y147244D01*
X378423D01*
X379291Y147604D01*
X379955Y148268D01*
X380315Y149136D01*
Y150076D01*
X379955Y150944D01*
X379291Y151609D01*
X378423Y151969D01*
D02*
G37*
G36*
X332163D02*
X331223D01*
X330355Y151609D01*
X329690Y150944D01*
X329331Y150076D01*
Y149136D01*
X329690Y148268D01*
X330355Y147604D01*
X331223Y147244D01*
X332163D01*
X333031Y147604D01*
X333696Y148268D01*
X334055Y149136D01*
Y150076D01*
X333696Y150944D01*
X333031Y151609D01*
X332163Y151969D01*
D02*
G37*
G36*
X252438Y149213D02*
X251499D01*
X250630Y148853D01*
X249966Y148188D01*
X249606Y147320D01*
Y147006D01*
X249191Y146728D01*
X248895Y146850D01*
X247955D01*
X247087Y146491D01*
X246423Y145826D01*
X246063Y144958D01*
Y144504D01*
X245745Y144095D01*
X244806D01*
X243937Y143735D01*
X243273Y143070D01*
X242913Y142202D01*
Y141262D01*
X243273Y140394D01*
X243937Y139730D01*
X244806Y139370D01*
X245745D01*
X246614Y139730D01*
X247278Y140394D01*
X247638Y141262D01*
Y141716D01*
X247955Y142126D01*
X248895D01*
X249763Y142486D01*
X250428Y143150D01*
X250787Y144018D01*
Y144333D01*
X251203Y144611D01*
X251499Y144488D01*
X252438D01*
X252734Y144611D01*
X253150Y144333D01*
Y144018D01*
X253509Y143150D01*
X254174Y142486D01*
X255042Y142126D01*
X255982D01*
X256299Y141716D01*
Y141262D01*
X256659Y140394D01*
X257323Y139730D01*
X258192Y139370D01*
X259131D01*
X259999Y139730D01*
X260664Y140394D01*
X261024Y141262D01*
Y142202D01*
X260664Y143070D01*
X259999Y143735D01*
X259131Y144095D01*
X258192D01*
X257874Y144504D01*
Y144958D01*
X257514Y145826D01*
X256850Y146491D01*
X255982Y146850D01*
X255042D01*
X254746Y146728D01*
X254331Y147006D01*
Y147320D01*
X253971Y148188D01*
X253307Y148853D01*
X252438Y149213D01*
D02*
G37*
G36*
X217989Y150984D02*
X217050D01*
X216182Y150625D01*
X215517Y149960D01*
X215157Y149092D01*
Y148152D01*
X215517Y147284D01*
X216182Y146619D01*
X217050Y146260D01*
X217989D01*
X218858Y146619D01*
X219522Y147284D01*
X219882Y148152D01*
Y149092D01*
X219522Y149960D01*
X218858Y150625D01*
X217989Y150984D01*
D02*
G37*
G36*
X59601Y152372D02*
X58510D01*
X57456Y152090D01*
X56511Y151544D01*
X55739Y150773D01*
X55194Y149828D01*
X54911Y148774D01*
Y147683D01*
X55194Y146629D01*
X55739Y145684D01*
X56511Y144913D01*
X57456Y144367D01*
X58510Y144085D01*
X59601D01*
X60654Y144367D01*
X61599Y144913D01*
X62371Y145684D01*
X62916Y146629D01*
X63199Y147683D01*
Y148774D01*
X62916Y149828D01*
X62371Y150773D01*
X61599Y151544D01*
X60654Y152090D01*
X59601Y152372D01*
D02*
G37*
G36*
X49758D02*
X48667D01*
X47613Y152090D01*
X46668Y151544D01*
X45897Y150773D01*
X45351Y149828D01*
X45069Y148774D01*
Y147683D01*
X45351Y146629D01*
X45897Y145684D01*
X46668Y144913D01*
X47613Y144367D01*
X48667Y144085D01*
X49758D01*
X50812Y144367D01*
X51757Y144913D01*
X52528Y145684D01*
X53074Y146629D01*
X53356Y147683D01*
Y148774D01*
X53074Y149828D01*
X52528Y150773D01*
X51757Y151544D01*
X50812Y152090D01*
X49758Y152372D01*
D02*
G37*
G36*
X39916D02*
X38824D01*
X37771Y152090D01*
X36826Y151544D01*
X36054Y150773D01*
X35509Y149828D01*
X35226Y148774D01*
Y147683D01*
X35509Y146629D01*
X36054Y145684D01*
X36826Y144913D01*
X37771Y144367D01*
X38824Y144085D01*
X39916D01*
X40969Y144367D01*
X41914Y144913D01*
X42686Y145684D01*
X43231Y146629D01*
X43514Y147683D01*
Y148774D01*
X43231Y149828D01*
X42686Y150773D01*
X41914Y151544D01*
X40969Y152090D01*
X39916Y152372D01*
D02*
G37*
G36*
X30073D02*
X28982D01*
X27928Y152090D01*
X26983Y151544D01*
X26212Y150773D01*
X25666Y149828D01*
X25384Y148774D01*
Y147683D01*
X25666Y146629D01*
X26212Y145684D01*
X26983Y144913D01*
X27928Y144367D01*
X28982Y144085D01*
X30073D01*
X31127Y144367D01*
X32072Y144913D01*
X32843Y145684D01*
X33389Y146629D01*
X33671Y147683D01*
Y148774D01*
X33389Y149828D01*
X32843Y150773D01*
X32072Y151544D01*
X31127Y152090D01*
X30073Y152372D01*
D02*
G37*
G36*
X332163Y146063D02*
X331223D01*
X330355Y145703D01*
X329690Y145039D01*
X329331Y144171D01*
Y143798D01*
X328898Y143548D01*
X328592Y143725D01*
X327341Y144060D01*
X326045D01*
X324793Y143725D01*
X323671Y143077D01*
X322755Y142160D01*
X322107Y141038D01*
X321772Y139787D01*
Y138491D01*
X322107Y137239D01*
X322755Y136117D01*
X323671Y135201D01*
X324793Y134553D01*
X326045Y134217D01*
X327341D01*
X328592Y134553D01*
X329715Y135201D01*
X330631Y136117D01*
X331279Y137239D01*
X331614Y138491D01*
Y139787D01*
X331332Y140839D01*
X331589Y141269D01*
X331683Y141339D01*
X332163D01*
X333031Y141698D01*
X333696Y142363D01*
X334055Y143231D01*
Y144171D01*
X333696Y145039D01*
X333031Y145703D01*
X332163Y146063D01*
D02*
G37*
G36*
X378423D02*
X377483D01*
X376615Y145703D01*
X375950Y145039D01*
X375591Y144171D01*
Y143231D01*
X375950Y142363D01*
X376615Y141698D01*
X377483Y141339D01*
X378423D01*
X379291Y141698D01*
X379955Y142363D01*
X380315Y143231D01*
Y144171D01*
X379955Y145039D01*
X379291Y145703D01*
X378423Y146063D01*
D02*
G37*
G36*
X449325Y148159D02*
X448234D01*
X447180Y147877D01*
X446235Y147332D01*
X445464Y146560D01*
X444918Y145615D01*
X444636Y144561D01*
Y143470D01*
X444918Y142416D01*
X445464Y141472D01*
X446235Y140700D01*
X447180Y140154D01*
X448234Y139872D01*
X449325D01*
X450379Y140154D01*
X451324Y140700D01*
X452095Y141472D01*
X452641Y142416D01*
X452923Y143470D01*
Y144561D01*
X452641Y145615D01*
X452095Y146560D01*
X451324Y147332D01*
X450379Y147877D01*
X449325Y148159D01*
D02*
G37*
G36*
X439325D02*
X438234D01*
X437180Y147877D01*
X436235Y147332D01*
X435464Y146560D01*
X434918Y145615D01*
X434636Y144561D01*
Y143470D01*
X434918Y142416D01*
X435464Y141472D01*
X436235Y140700D01*
X437180Y140154D01*
X438234Y139872D01*
X439325D01*
X440379Y140154D01*
X441324Y140700D01*
X442095Y141472D01*
X442641Y142416D01*
X442923Y143470D01*
Y144561D01*
X442641Y145615D01*
X442095Y146560D01*
X441324Y147332D01*
X440379Y147877D01*
X439325Y148159D01*
D02*
G37*
G36*
X429325D02*
X428234D01*
X427180Y147877D01*
X426235Y147332D01*
X425464Y146560D01*
X424918Y145615D01*
X424636Y144561D01*
Y143470D01*
X424918Y142416D01*
X425464Y141472D01*
X426235Y140700D01*
X427180Y140154D01*
X428234Y139872D01*
X429325D01*
X430379Y140154D01*
X431324Y140700D01*
X432095Y141472D01*
X432641Y142416D01*
X432923Y143470D01*
Y144561D01*
X432641Y145615D01*
X432095Y146560D01*
X431324Y147332D01*
X430379Y147877D01*
X429325Y148159D01*
D02*
G37*
G36*
X218580Y143701D02*
X217640D01*
X216772Y143341D01*
X216108Y142677D01*
X215748Y141808D01*
Y140869D01*
X216108Y140000D01*
X216772Y139336D01*
X217640Y138976D01*
X218580D01*
X219448Y139336D01*
X220113Y140000D01*
X220472Y140869D01*
Y141808D01*
X220113Y142677D01*
X219448Y143341D01*
X218580Y143701D01*
D02*
G37*
G36*
X198304Y143110D02*
X197365D01*
X196497Y142751D01*
X195832Y142086D01*
X195473Y141218D01*
Y140278D01*
X195832Y139410D01*
X196497Y138745D01*
X197365Y138386D01*
X198304D01*
X199173Y138745D01*
X199837Y139410D01*
X200197Y140278D01*
Y141218D01*
X199837Y142086D01*
X199173Y142751D01*
X198304Y143110D01*
D02*
G37*
G36*
X153509Y140157D02*
X152570D01*
X151701Y139798D01*
X151037Y139133D01*
X150677Y138265D01*
Y137325D01*
X151037Y136457D01*
X151701Y135793D01*
X152570Y135433D01*
X153509D01*
X154378Y135793D01*
X155042Y136457D01*
X155402Y137325D01*
Y138265D01*
X155042Y139133D01*
X154378Y139798D01*
X153509Y140157D01*
D02*
G37*
G36*
X59601Y142529D02*
X58510D01*
X57456Y142247D01*
X56511Y141702D01*
X55739Y140930D01*
X55194Y139985D01*
X54911Y138931D01*
Y137840D01*
X55194Y136786D01*
X55739Y135842D01*
X56511Y135070D01*
X57456Y134525D01*
X58510Y134242D01*
X59601D01*
X60654Y134525D01*
X61599Y135070D01*
X62371Y135842D01*
X62916Y136786D01*
X63199Y137840D01*
Y138931D01*
X62916Y139985D01*
X62371Y140930D01*
X61599Y141702D01*
X60654Y142247D01*
X59601Y142529D01*
D02*
G37*
G36*
X49758D02*
X48667D01*
X47613Y142247D01*
X46668Y141702D01*
X45897Y140930D01*
X45351Y139985D01*
X45069Y138931D01*
Y137840D01*
X45351Y136786D01*
X45897Y135842D01*
X46668Y135070D01*
X47613Y134525D01*
X48667Y134242D01*
X49758D01*
X50812Y134525D01*
X51757Y135070D01*
X52528Y135842D01*
X53074Y136786D01*
X53356Y137840D01*
Y138931D01*
X53074Y139985D01*
X52528Y140930D01*
X51757Y141702D01*
X50812Y142247D01*
X49758Y142529D01*
D02*
G37*
G36*
X39916D02*
X38824D01*
X37771Y142247D01*
X36826Y141702D01*
X36054Y140930D01*
X35509Y139985D01*
X35226Y138931D01*
Y137840D01*
X35509Y136786D01*
X36054Y135842D01*
X36826Y135070D01*
X37771Y134525D01*
X38824Y134242D01*
X39916D01*
X40969Y134525D01*
X41914Y135070D01*
X42686Y135842D01*
X43231Y136786D01*
X43514Y137840D01*
Y138931D01*
X43231Y139985D01*
X42686Y140930D01*
X41914Y141702D01*
X40969Y142247D01*
X39916Y142529D01*
D02*
G37*
G36*
X30073D02*
X28982D01*
X27928Y142247D01*
X26983Y141702D01*
X26212Y140930D01*
X25666Y139985D01*
X25384Y138931D01*
Y137840D01*
X25666Y136786D01*
X26212Y135842D01*
X26983Y135070D01*
X27928Y134525D01*
X28982Y134242D01*
X30073D01*
X31127Y134525D01*
X32072Y135070D01*
X32843Y135842D01*
X33389Y136786D01*
X33671Y137840D01*
Y138931D01*
X33389Y139985D01*
X32843Y140930D01*
X32072Y141702D01*
X31127Y142247D01*
X30073Y142529D01*
D02*
G37*
G36*
X275667Y140945D02*
X274727D01*
X273859Y140585D01*
X273194Y139921D01*
X272835Y139052D01*
Y138113D01*
X273194Y137245D01*
X273859Y136580D01*
X274727Y136221D01*
X275667D01*
X276228Y136453D01*
X276610Y136070D01*
X276378Y135509D01*
Y134570D01*
X276738Y133701D01*
X277402Y133037D01*
X278270Y132677D01*
X279210D01*
X280078Y133037D01*
X280743Y133701D01*
X281102Y134570D01*
Y135509D01*
X280743Y136377D01*
X280078Y137042D01*
X279210Y137402D01*
X278270D01*
X277709Y137169D01*
X277327Y137552D01*
X277559Y138113D01*
Y139052D01*
X277199Y139921D01*
X276535Y140585D01*
X275667Y140945D01*
D02*
G37*
G36*
X142202Y137205D02*
X141262D01*
X140394Y136845D01*
X139730Y136181D01*
X139370Y135312D01*
Y134373D01*
X139730Y133504D01*
X140394Y132840D01*
X141262Y132480D01*
X142202D01*
X143070Y132840D01*
X143735Y133504D01*
X144095Y134373D01*
Y135312D01*
X143735Y136181D01*
X143070Y136845D01*
X142202Y137205D01*
D02*
G37*
G36*
X160706Y135433D02*
X159766D01*
X158898Y135073D01*
X158234Y134409D01*
X157874Y133541D01*
Y132601D01*
X158234Y131733D01*
X158898Y131068D01*
X159766Y130709D01*
X160706D01*
X161574Y131068D01*
X162239Y131733D01*
X162598Y132601D01*
Y133541D01*
X162239Y134409D01*
X161574Y135073D01*
X160706Y135433D01*
D02*
G37*
G36*
X449325Y138159D02*
X448234D01*
X447180Y137877D01*
X446235Y137331D01*
X445464Y136560D01*
X444918Y135615D01*
X444636Y134561D01*
Y133470D01*
X444918Y132416D01*
X445464Y131472D01*
X446235Y130700D01*
X447180Y130154D01*
X448234Y129872D01*
X449325D01*
X450379Y130154D01*
X451324Y130700D01*
X452095Y131472D01*
X452641Y132416D01*
X452923Y133470D01*
Y134561D01*
X452641Y135615D01*
X452095Y136560D01*
X451324Y137331D01*
X450379Y137877D01*
X449325Y138159D01*
D02*
G37*
G36*
X439325D02*
X438234D01*
X437180Y137877D01*
X436235Y137331D01*
X435464Y136560D01*
X434918Y135615D01*
X434636Y134561D01*
Y133470D01*
X434918Y132416D01*
X435464Y131472D01*
X436235Y130700D01*
X437180Y130154D01*
X438234Y129872D01*
X439325D01*
X440379Y130154D01*
X441324Y130700D01*
X442095Y131472D01*
X442641Y132416D01*
X442923Y133470D01*
Y134561D01*
X442641Y135615D01*
X442095Y136560D01*
X441324Y137331D01*
X440379Y137877D01*
X439325Y138159D01*
D02*
G37*
G36*
X429325D02*
X428234D01*
X427180Y137877D01*
X426235Y137331D01*
X425464Y136560D01*
X424918Y135615D01*
X424636Y134561D01*
Y133470D01*
X424918Y132416D01*
X425464Y131472D01*
X426235Y130700D01*
X427180Y130154D01*
X428234Y129872D01*
X429325D01*
X430379Y130154D01*
X431324Y130700D01*
X432095Y131472D01*
X432641Y132416D01*
X432923Y133470D01*
Y134561D01*
X432641Y135615D01*
X432095Y136560D01*
X431324Y137331D01*
X430379Y137877D01*
X429325Y138159D01*
D02*
G37*
G36*
X321730Y132677D02*
X320790D01*
X319922Y132317D01*
X319257Y131653D01*
X318898Y130785D01*
Y129845D01*
X319257Y128977D01*
X319922Y128312D01*
X320790Y127953D01*
X321730D01*
X322598Y128312D01*
X323262Y128977D01*
X323622Y129845D01*
Y130785D01*
X323262Y131653D01*
X322598Y132317D01*
X321730Y132677D01*
D02*
G37*
G36*
X209131Y139173D02*
X208192D01*
X207323Y138814D01*
X206659Y138149D01*
X206299Y137281D01*
Y136341D01*
X206659Y135473D01*
X207323Y134808D01*
X207776Y134621D01*
Y134080D01*
X207323Y133892D01*
X207309Y133878D01*
X202756D01*
X202372Y133801D01*
X202046Y133584D01*
X198503Y130040D01*
X198285Y129715D01*
X198209Y129331D01*
Y128851D01*
X198031Y128423D01*
Y127483D01*
X198209Y127054D01*
Y124521D01*
X198031Y124092D01*
Y123152D01*
X198209Y122723D01*
Y120190D01*
X198031Y119761D01*
Y118822D01*
X198209Y118393D01*
Y117717D01*
X198285Y117332D01*
X198503Y117007D01*
X202046Y113464D01*
X202372Y113246D01*
X202756Y113170D01*
X211153D01*
X211250Y113189D01*
X211349D01*
X211440Y113227D01*
X211537Y113246D01*
X211619Y113301D01*
X211680Y113326D01*
X212048Y112958D01*
X212916Y112598D01*
X213856D01*
X214724Y112958D01*
X215092Y113326D01*
X215153Y113301D01*
X215235Y113246D01*
X215332Y113227D01*
X215423Y113189D01*
X215522D01*
X215619Y113170D01*
X224410D01*
X224794Y113246D01*
X225119Y113464D01*
X228269Y116613D01*
X228486Y116939D01*
X228563Y117323D01*
Y118393D01*
X228680Y118676D01*
X229202Y119001D01*
X229451Y118898D01*
X230391D01*
X231259Y119257D01*
X231924Y119922D01*
X232283Y120790D01*
Y121730D01*
X231924Y122598D01*
X231259Y123262D01*
X230391Y123622D01*
X229451D01*
X229244Y123536D01*
X228811Y123808D01*
X228772Y124223D01*
X229134Y124541D01*
X229451Y124409D01*
X230391D01*
X231259Y124769D01*
X231924Y125434D01*
X232283Y126302D01*
Y127242D01*
X231924Y128110D01*
X231259Y128774D01*
X230391Y129134D01*
X229451D01*
X229063Y128973D01*
X228563Y129307D01*
Y129724D01*
X228486Y130108D01*
X228269Y130434D01*
X225119Y133584D01*
X224794Y133801D01*
X224409Y133878D01*
X215487D01*
X215390Y133858D01*
X215292D01*
X215200Y133820D01*
X215191Y133819D01*
X214724Y134286D01*
X213856Y134646D01*
X212916D01*
X212048Y134286D01*
X211580Y133819D01*
X211572Y133820D01*
X211480Y133858D01*
X211381D01*
X211284Y133878D01*
X210014D01*
X209999Y133892D01*
X209547Y134080D01*
Y134621D01*
X209999Y134808D01*
X210664Y135473D01*
X211024Y136341D01*
Y137281D01*
X210664Y138149D01*
X209999Y138814D01*
X209131Y139173D01*
D02*
G37*
G36*
X59601Y130719D02*
X58510D01*
X57456Y130436D01*
X56511Y129891D01*
X55739Y129119D01*
X55194Y128174D01*
X54911Y127120D01*
Y126029D01*
X55194Y124975D01*
X55739Y124030D01*
X56511Y123259D01*
X57456Y122713D01*
X58510Y122431D01*
X59601D01*
X60654Y122713D01*
X61599Y123259D01*
X62371Y124030D01*
X62916Y124975D01*
X63199Y126029D01*
Y127120D01*
X62916Y128174D01*
X62371Y129119D01*
X61599Y129891D01*
X60654Y130436D01*
X59601Y130719D01*
D02*
G37*
G36*
X49758D02*
X48667D01*
X47613Y130436D01*
X46668Y129891D01*
X45897Y129119D01*
X45351Y128174D01*
X45069Y127120D01*
Y126029D01*
X45351Y124975D01*
X45897Y124030D01*
X46668Y123259D01*
X47613Y122713D01*
X48667Y122431D01*
X49758D01*
X50812Y122713D01*
X51757Y123259D01*
X52528Y124030D01*
X53074Y124975D01*
X53356Y126029D01*
Y127120D01*
X53074Y128174D01*
X52528Y129119D01*
X51757Y129891D01*
X50812Y130436D01*
X49758Y130719D01*
D02*
G37*
G36*
X39916D02*
X38824D01*
X37771Y130436D01*
X36826Y129891D01*
X36054Y129119D01*
X35509Y128174D01*
X35226Y127120D01*
Y126029D01*
X35509Y124975D01*
X36054Y124030D01*
X36826Y123259D01*
X37771Y122713D01*
X38824Y122431D01*
X39916D01*
X40969Y122713D01*
X41914Y123259D01*
X42686Y124030D01*
X43231Y124975D01*
X43514Y126029D01*
Y127120D01*
X43231Y128174D01*
X42686Y129119D01*
X41914Y129891D01*
X40969Y130436D01*
X39916Y130719D01*
D02*
G37*
G36*
X30073D02*
X28982D01*
X27928Y130436D01*
X26983Y129891D01*
X26212Y129119D01*
X25666Y128174D01*
X25384Y127120D01*
Y126029D01*
X25666Y124975D01*
X26212Y124030D01*
X26983Y123259D01*
X27928Y122713D01*
X28982Y122431D01*
X30073D01*
X31127Y122713D01*
X32072Y123259D01*
X32843Y124030D01*
X33389Y124975D01*
X33671Y126029D01*
Y127120D01*
X33389Y128174D01*
X32843Y129119D01*
X32072Y129891D01*
X31127Y130436D01*
X30073Y130719D01*
D02*
G37*
G36*
X275076Y133268D02*
X274136D01*
X273268Y132908D01*
X272604Y132244D01*
X272244Y131375D01*
Y130436D01*
X272604Y129567D01*
X273268Y128903D01*
X274136Y128543D01*
X275076D01*
X275191Y128591D01*
X275475Y128167D01*
X275438Y128130D01*
X275078Y127262D01*
Y126464D01*
X274993Y126256D01*
X274670Y126002D01*
X273950D01*
X273081Y125642D01*
X272417Y124978D01*
X272057Y124109D01*
Y123170D01*
X272417Y122301D01*
X273081Y121637D01*
X273950Y121277D01*
X274889D01*
X275758Y121637D01*
X276422Y122301D01*
X276782Y123170D01*
Y123968D01*
X276867Y124176D01*
X277190Y124430D01*
X277910D01*
X278778Y124790D01*
X279443Y125454D01*
X279802Y126322D01*
Y127262D01*
X279443Y128130D01*
X278778Y128795D01*
X277910Y129154D01*
X276970D01*
X276855Y129106D01*
X276572Y129530D01*
X276609Y129567D01*
X276969Y130436D01*
Y131375D01*
X276609Y132244D01*
X275944Y132908D01*
X275076Y133268D01*
D02*
G37*
G36*
X449325Y128159D02*
X448234D01*
X447180Y127877D01*
X446235Y127331D01*
X445464Y126560D01*
X444918Y125615D01*
X444636Y124561D01*
Y123470D01*
X444918Y122416D01*
X445464Y121472D01*
X446235Y120700D01*
X447180Y120154D01*
X448234Y119872D01*
X449325D01*
X450379Y120154D01*
X451324Y120700D01*
X452095Y121472D01*
X452641Y122416D01*
X452923Y123470D01*
Y124561D01*
X452641Y125615D01*
X452095Y126560D01*
X451324Y127331D01*
X450379Y127877D01*
X449325Y128159D01*
D02*
G37*
G36*
X439325D02*
X438234D01*
X437180Y127877D01*
X436235Y127331D01*
X435464Y126560D01*
X434918Y125615D01*
X434636Y124561D01*
Y123470D01*
X434918Y122416D01*
X435464Y121472D01*
X436235Y120700D01*
X437180Y120154D01*
X438234Y119872D01*
X439325D01*
X440379Y120154D01*
X441324Y120700D01*
X442095Y121472D01*
X442641Y122416D01*
X442923Y123470D01*
Y124561D01*
X442641Y125615D01*
X442095Y126560D01*
X441324Y127331D01*
X440379Y127877D01*
X439325Y128159D01*
D02*
G37*
G36*
X429325D02*
X428234D01*
X427180Y127877D01*
X426235Y127331D01*
X425464Y126560D01*
X424918Y125615D01*
X424636Y124561D01*
Y123470D01*
X424918Y122416D01*
X425464Y121472D01*
X426235Y120700D01*
X427180Y120154D01*
X428234Y119872D01*
X429325D01*
X430379Y120154D01*
X431324Y120700D01*
X432095Y121472D01*
X432641Y122416D01*
X432923Y123470D01*
Y124561D01*
X432641Y125615D01*
X432095Y126560D01*
X431324Y127331D01*
X430379Y127877D01*
X429325Y128159D01*
D02*
G37*
G36*
X325273Y123819D02*
X324333D01*
X323465Y123459D01*
X322801Y122795D01*
X322441Y121927D01*
Y120987D01*
X322801Y120119D01*
X323465Y119454D01*
X324333Y119095D01*
X325273D01*
X326141Y119454D01*
X326806Y120119D01*
X327165Y120987D01*
Y121927D01*
X326806Y122795D01*
X326141Y123459D01*
X325273Y123819D01*
D02*
G37*
G36*
X280469Y122441D02*
X279529D01*
X278661Y122081D01*
X277997Y121417D01*
X277637Y120549D01*
Y119609D01*
X277997Y118741D01*
X278661Y118076D01*
X279529Y117717D01*
X280469D01*
X281337Y118076D01*
X282002Y118741D01*
X282362Y119609D01*
Y120549D01*
X282002Y121417D01*
X281337Y122081D01*
X280469Y122441D01*
D02*
G37*
G36*
X195352Y121653D02*
X194412D01*
X193544Y121294D01*
X192946Y120696D01*
X188583D01*
X188045Y120589D01*
X187589Y120285D01*
X171072Y103767D01*
X166896D01*
X166299Y104365D01*
X165430Y104724D01*
X164491D01*
X163623Y104365D01*
X162958Y103700D01*
X162598Y102832D01*
Y101892D01*
X162958Y101024D01*
X163589Y100394D01*
X162958Y99763D01*
X162598Y98895D01*
Y97955D01*
X162958Y97087D01*
X163623Y96423D01*
X164491Y96063D01*
X165430D01*
X166299Y96423D01*
X166963Y97087D01*
X167323Y97955D01*
Y98895D01*
X166963Y99763D01*
X166333Y100394D01*
X166896Y100957D01*
X171653D01*
X172191Y101064D01*
X172647Y101369D01*
X189165Y117886D01*
X192946D01*
X193544Y117289D01*
X194412Y116929D01*
X195352D01*
X196220Y117289D01*
X196885Y117953D01*
X197244Y118822D01*
Y119761D01*
X196885Y120629D01*
X196220Y121294D01*
X195352Y121653D01*
D02*
G37*
G36*
X128423Y140157D02*
X127483D01*
X126615Y139798D01*
X125950Y139133D01*
X125591Y138265D01*
Y137325D01*
X125950Y136457D01*
X126615Y135793D01*
X127067Y135605D01*
Y135064D01*
X126615Y134877D01*
X125950Y134212D01*
X125591Y133344D01*
Y132404D01*
X125950Y131536D01*
X126615Y130871D01*
X127067Y130684D01*
Y130143D01*
X126615Y129955D01*
X125950Y129291D01*
X125591Y128423D01*
Y127483D01*
X125950Y126615D01*
X126615Y125950D01*
X127067Y125763D01*
Y125222D01*
X126615Y125034D01*
X125950Y124370D01*
X125591Y123501D01*
Y122562D01*
X125950Y121693D01*
X126615Y121029D01*
X127067Y120842D01*
Y120300D01*
X126615Y120113D01*
X125950Y119448D01*
X125591Y118580D01*
Y117640D01*
X125950Y116772D01*
X126615Y116108D01*
X127483Y115748D01*
X128423D01*
X129291Y116108D01*
X129955Y116772D01*
X130315Y117640D01*
Y118580D01*
X129955Y119448D01*
X129291Y120113D01*
X128838Y120300D01*
Y120842D01*
X129291Y121029D01*
X129955Y121693D01*
X130315Y122562D01*
Y123501D01*
X129955Y124370D01*
X129291Y125034D01*
X128838Y125222D01*
Y125763D01*
X129291Y125950D01*
X129955Y126615D01*
X130315Y127483D01*
Y128423D01*
X129955Y129291D01*
X129291Y129955D01*
X128838Y130143D01*
Y130684D01*
X129291Y130871D01*
X129955Y131536D01*
X130315Y132404D01*
Y133344D01*
X129955Y134212D01*
X129291Y134877D01*
X128838Y135064D01*
Y135605D01*
X129291Y135793D01*
X129955Y136457D01*
X130315Y137325D01*
Y138265D01*
X129955Y139133D01*
X129291Y139798D01*
X128423Y140157D01*
D02*
G37*
G36*
X158897Y119920D02*
X157957D01*
X157089Y119560D01*
X156424Y118896D01*
X156064Y118027D01*
Y117088D01*
X156424Y116219D01*
X157089Y115555D01*
X157957Y115195D01*
X158897D01*
X159765Y115555D01*
X160429Y116219D01*
X160789Y117088D01*
Y118027D01*
X160429Y118896D01*
X159765Y119560D01*
X158897Y119920D01*
D02*
G37*
G36*
X155107Y123819D02*
X154167D01*
X153299Y123459D01*
X152635Y122795D01*
X152275Y121926D01*
Y120987D01*
X152635Y120119D01*
X152962Y119791D01*
X152755Y119291D01*
X152286D01*
X151418Y118932D01*
X150753Y118267D01*
X150394Y117399D01*
Y116459D01*
X150753Y115591D01*
X151418Y114927D01*
X152286Y114567D01*
X153226D01*
X154094Y114927D01*
X154759Y115591D01*
X155118Y116459D01*
Y117399D01*
X154759Y118267D01*
X154431Y118595D01*
X154638Y119095D01*
X155107D01*
X155975Y119454D01*
X156640Y120119D01*
X156999Y120987D01*
Y121926D01*
X156640Y122795D01*
X155975Y123459D01*
X155107Y123819D01*
D02*
G37*
G36*
X142202Y118110D02*
X141262D01*
X140394Y117751D01*
X139730Y117086D01*
X139370Y116218D01*
Y115278D01*
X139730Y114410D01*
X140394Y113745D01*
X141262Y113386D01*
X142202D01*
X143070Y113745D01*
X143735Y114410D01*
X144095Y115278D01*
Y116218D01*
X143735Y117086D01*
X143070Y117751D01*
X142202Y118110D01*
D02*
G37*
G36*
X254013Y117323D02*
X253073D01*
X252205Y116963D01*
X251541Y116299D01*
X251181Y115430D01*
Y114491D01*
X251541Y113622D01*
X252205Y112958D01*
X253073Y112598D01*
X254013D01*
X254881Y112958D01*
X255546Y113622D01*
X255906Y114491D01*
Y115430D01*
X255546Y116299D01*
X254881Y116963D01*
X254013Y117323D01*
D02*
G37*
G36*
X59601Y120876D02*
X58510D01*
X57456Y120594D01*
X56511Y120048D01*
X55739Y119277D01*
X55194Y118332D01*
X54911Y117278D01*
Y116187D01*
X55194Y115133D01*
X55739Y114188D01*
X56511Y113417D01*
X57456Y112871D01*
X58510Y112589D01*
X59601D01*
X60654Y112871D01*
X61599Y113417D01*
X62371Y114188D01*
X62916Y115133D01*
X63199Y116187D01*
Y117278D01*
X62916Y118332D01*
X62371Y119277D01*
X61599Y120048D01*
X60654Y120594D01*
X59601Y120876D01*
D02*
G37*
G36*
X49758D02*
X48667D01*
X47613Y120594D01*
X46668Y120048D01*
X45897Y119277D01*
X45351Y118332D01*
X45069Y117278D01*
Y116187D01*
X45351Y115133D01*
X45897Y114188D01*
X46668Y113417D01*
X47613Y112871D01*
X48667Y112589D01*
X49758D01*
X50812Y112871D01*
X51757Y113417D01*
X52528Y114188D01*
X53074Y115133D01*
X53356Y116187D01*
Y117278D01*
X53074Y118332D01*
X52528Y119277D01*
X51757Y120048D01*
X50812Y120594D01*
X49758Y120876D01*
D02*
G37*
G36*
X39916D02*
X38824D01*
X37771Y120594D01*
X36826Y120048D01*
X36054Y119277D01*
X35509Y118332D01*
X35226Y117278D01*
Y116187D01*
X35509Y115133D01*
X36054Y114188D01*
X36826Y113417D01*
X37771Y112871D01*
X38824Y112589D01*
X39916D01*
X40969Y112871D01*
X41914Y113417D01*
X42686Y114188D01*
X43231Y115133D01*
X43514Y116187D01*
Y117278D01*
X43231Y118332D01*
X42686Y119277D01*
X41914Y120048D01*
X40969Y120594D01*
X39916Y120876D01*
D02*
G37*
G36*
X30073D02*
X28982D01*
X27928Y120594D01*
X26983Y120048D01*
X26212Y119277D01*
X25666Y118332D01*
X25384Y117278D01*
Y116187D01*
X25666Y115133D01*
X26212Y114188D01*
X26983Y113417D01*
X27928Y112871D01*
X28982Y112589D01*
X30073D01*
X31127Y112871D01*
X32072Y113417D01*
X32843Y114188D01*
X33389Y115133D01*
X33671Y116187D01*
Y117278D01*
X33389Y118332D01*
X32843Y119277D01*
X32072Y120048D01*
X31127Y120594D01*
X30073Y120876D01*
D02*
G37*
G36*
X325273Y115945D02*
X324333D01*
X323465Y115585D01*
X322801Y114921D01*
X322441Y114053D01*
Y113113D01*
X322801Y112245D01*
X323465Y111580D01*
X324333Y111221D01*
X325273D01*
X326141Y111580D01*
X326806Y112245D01*
X327165Y113113D01*
Y114053D01*
X326806Y114921D01*
X326141Y115585D01*
X325273Y115945D01*
D02*
G37*
G36*
X449325Y118159D02*
X448234D01*
X447180Y117877D01*
X446235Y117332D01*
X445464Y116560D01*
X444918Y115615D01*
X444636Y114561D01*
Y113470D01*
X444918Y112416D01*
X445464Y111471D01*
X446235Y110700D01*
X447180Y110154D01*
X448234Y109872D01*
X449325D01*
X450379Y110154D01*
X451324Y110700D01*
X452095Y111471D01*
X452641Y112416D01*
X452923Y113470D01*
Y114561D01*
X452641Y115615D01*
X452095Y116560D01*
X451324Y117332D01*
X450379Y117877D01*
X449325Y118159D01*
D02*
G37*
G36*
X439325D02*
X438234D01*
X437180Y117877D01*
X436235Y117332D01*
X435464Y116560D01*
X434918Y115615D01*
X434636Y114561D01*
Y113470D01*
X434918Y112416D01*
X435464Y111471D01*
X436235Y110700D01*
X437180Y110154D01*
X438234Y109872D01*
X439325D01*
X440379Y110154D01*
X441324Y110700D01*
X442095Y111471D01*
X442641Y112416D01*
X442923Y113470D01*
Y114561D01*
X442641Y115615D01*
X442095Y116560D01*
X441324Y117332D01*
X440379Y117877D01*
X439325Y118159D01*
D02*
G37*
G36*
X429325D02*
X428234D01*
X427180Y117877D01*
X426235Y117332D01*
X425464Y116560D01*
X424918Y115615D01*
X424636Y114561D01*
Y113470D01*
X424918Y112416D01*
X425464Y111471D01*
X426235Y110700D01*
X427180Y110154D01*
X428234Y109872D01*
X429325D01*
X430379Y110154D01*
X431324Y110700D01*
X432095Y111471D01*
X432641Y112416D01*
X432923Y113470D01*
Y114561D01*
X432641Y115615D01*
X432095Y116560D01*
X431324Y117332D01*
X430379Y117877D01*
X429325Y118159D01*
D02*
G37*
G36*
X125985Y106769D02*
X125045D01*
X124177Y106409D01*
X123512Y105745D01*
X123255Y105123D01*
X122713D01*
X122483Y105680D01*
X121818Y106345D01*
X120950Y106704D01*
X120010D01*
X119142Y106345D01*
X118477Y105680D01*
X118118Y104812D01*
Y103872D01*
X118477Y103004D01*
X119142Y102340D01*
X120010Y101980D01*
X120950D01*
X121818Y102340D01*
X122483Y103004D01*
X122740Y103626D01*
X123281D01*
X123512Y103068D01*
X124177Y102404D01*
X125045Y102044D01*
X125985D01*
X126853Y102404D01*
X127517Y103068D01*
X127877Y103937D01*
Y104876D01*
X127517Y105745D01*
X126853Y106409D01*
X125985Y106769D01*
D02*
G37*
G36*
X205194Y105118D02*
X204255D01*
X203386Y104759D01*
X202756Y104128D01*
X202126Y104759D01*
X201257Y105118D01*
X200318D01*
X199449Y104759D01*
X198785Y104094D01*
X198425Y103226D01*
Y102286D01*
X198785Y101418D01*
X199297Y100906D01*
X199397Y100591D01*
X199297Y100275D01*
X198785Y99763D01*
X198425Y98895D01*
Y97955D01*
X198785Y97087D01*
X199449Y96423D01*
X200318Y96063D01*
X201257D01*
X202126Y96423D01*
X202790Y97087D01*
X202944Y97458D01*
X203434Y97556D01*
X203780Y97210D01*
X204648Y96850D01*
X205588D01*
X206193Y97101D01*
X206693Y96794D01*
Y96381D01*
X207052Y95512D01*
X207717Y94848D01*
X208585Y94488D01*
X209525D01*
X210130Y94739D01*
X210630Y94431D01*
Y94018D01*
X210990Y93150D01*
X211654Y92486D01*
X212522Y92126D01*
X213462D01*
X214330Y92486D01*
X214995Y93150D01*
X215354Y94018D01*
Y94958D01*
X214995Y95826D01*
X214330Y96491D01*
X213462Y96850D01*
X212522D01*
X211917Y96600D01*
X211417Y96907D01*
Y97320D01*
X211058Y98189D01*
X210393Y98853D01*
X209525Y99213D01*
X208585D01*
X207980Y98962D01*
X207480Y99269D01*
Y99682D01*
X207121Y100551D01*
X206490Y101181D01*
X206727Y101418D01*
X207087Y102286D01*
Y103226D01*
X206727Y104094D01*
X206063Y104759D01*
X205194Y105118D01*
D02*
G37*
G36*
X268580Y104724D02*
X267640D01*
X266772Y104365D01*
X266108Y103700D01*
X266019Y103485D01*
X265477D01*
X265388Y103700D01*
X264724Y104365D01*
X263856Y104724D01*
X262916D01*
X262048Y104365D01*
X261383Y103700D01*
X261024Y102832D01*
Y101892D01*
X261383Y101024D01*
X262048Y100360D01*
X262916Y100000D01*
X263856D01*
X264724Y100360D01*
X265388Y101024D01*
X265477Y101239D01*
X266019D01*
X266108Y101024D01*
X266772Y100360D01*
X267640Y100000D01*
X268580D01*
X269448Y100360D01*
X270113Y101024D01*
X270472Y101892D01*
Y102832D01*
X270113Y103700D01*
X269448Y104365D01*
X268580Y104724D01*
D02*
G37*
G36*
X325273Y108071D02*
X324333D01*
X323465Y107711D01*
X322801Y107047D01*
X322441Y106178D01*
Y105239D01*
X322801Y104371D01*
X323465Y103706D01*
X324333Y103347D01*
X325273D01*
X326141Y103706D01*
X326806Y104371D01*
X327165Y105239D01*
Y106178D01*
X326806Y107047D01*
X326141Y107711D01*
X325273Y108071D01*
D02*
G37*
G36*
X59601Y109065D02*
X58510D01*
X57456Y108783D01*
X56511Y108237D01*
X55739Y107466D01*
X55194Y106521D01*
X54911Y105467D01*
Y104376D01*
X55194Y103322D01*
X55739Y102377D01*
X56511Y101605D01*
X57456Y101060D01*
X58510Y100778D01*
X59601D01*
X60654Y101060D01*
X61599Y101605D01*
X62371Y102377D01*
X62916Y103322D01*
X63199Y104376D01*
Y105467D01*
X62916Y106521D01*
X62371Y107466D01*
X61599Y108237D01*
X60654Y108783D01*
X59601Y109065D01*
D02*
G37*
G36*
X49758D02*
X48667D01*
X47613Y108783D01*
X46668Y108237D01*
X45897Y107466D01*
X45351Y106521D01*
X45069Y105467D01*
Y104376D01*
X45351Y103322D01*
X45897Y102377D01*
X46668Y101605D01*
X47613Y101060D01*
X48667Y100778D01*
X49758D01*
X50812Y101060D01*
X51757Y101605D01*
X52528Y102377D01*
X53074Y103322D01*
X53356Y104376D01*
Y105467D01*
X53074Y106521D01*
X52528Y107466D01*
X51757Y108237D01*
X50812Y108783D01*
X49758Y109065D01*
D02*
G37*
G36*
X39916D02*
X38824D01*
X37771Y108783D01*
X36826Y108237D01*
X36054Y107466D01*
X35509Y106521D01*
X35226Y105467D01*
Y104376D01*
X35509Y103322D01*
X36054Y102377D01*
X36826Y101605D01*
X37771Y101060D01*
X38824Y100778D01*
X39916D01*
X40969Y101060D01*
X41914Y101605D01*
X42686Y102377D01*
X43231Y103322D01*
X43514Y104376D01*
Y105467D01*
X43231Y106521D01*
X42686Y107466D01*
X41914Y108237D01*
X40969Y108783D01*
X39916Y109065D01*
D02*
G37*
G36*
X30073D02*
X28982D01*
X27928Y108783D01*
X26983Y108237D01*
X26212Y107466D01*
X25666Y106521D01*
X25384Y105467D01*
Y104376D01*
X25666Y103322D01*
X26212Y102377D01*
X26983Y101605D01*
X27928Y101060D01*
X28982Y100778D01*
X30073D01*
X31127Y101060D01*
X32072Y101605D01*
X32843Y102377D01*
X33389Y103322D01*
X33671Y104376D01*
Y105467D01*
X33389Y106521D01*
X32843Y107466D01*
X32072Y108237D01*
X31127Y108783D01*
X30073Y109065D01*
D02*
G37*
G36*
X449325Y108159D02*
X448234D01*
X447180Y107877D01*
X446235Y107332D01*
X445464Y106560D01*
X444918Y105615D01*
X444636Y104561D01*
Y103470D01*
X444918Y102416D01*
X445464Y101471D01*
X446235Y100700D01*
X447180Y100154D01*
X448234Y99872D01*
X449325D01*
X450379Y100154D01*
X451324Y100700D01*
X452095Y101471D01*
X452641Y102416D01*
X452923Y103470D01*
Y104561D01*
X452641Y105615D01*
X452095Y106560D01*
X451324Y107332D01*
X450379Y107877D01*
X449325Y108159D01*
D02*
G37*
G36*
X439325D02*
X438234D01*
X437180Y107877D01*
X436235Y107332D01*
X435464Y106560D01*
X434918Y105615D01*
X434636Y104561D01*
Y103470D01*
X434918Y102416D01*
X435464Y101471D01*
X436235Y100700D01*
X437180Y100154D01*
X438234Y99872D01*
X439325D01*
X440379Y100154D01*
X441324Y100700D01*
X442095Y101471D01*
X442641Y102416D01*
X442923Y103470D01*
Y104561D01*
X442641Y105615D01*
X442095Y106560D01*
X441324Y107332D01*
X440379Y107877D01*
X439325Y108159D01*
D02*
G37*
G36*
X429325D02*
X428234D01*
X427180Y107877D01*
X426235Y107332D01*
X425464Y106560D01*
X424918Y105615D01*
X424636Y104561D01*
Y103470D01*
X424918Y102416D01*
X425464Y101471D01*
X426235Y100700D01*
X427180Y100154D01*
X428234Y99872D01*
X429325D01*
X430379Y100154D01*
X431324Y100700D01*
X432095Y101471D01*
X432641Y102416D01*
X432923Y103470D01*
Y104561D01*
X432641Y105615D01*
X432095Y106560D01*
X431324Y107332D01*
X430379Y107877D01*
X429325Y108159D01*
D02*
G37*
G36*
X275273Y107037D02*
X274333D01*
X273465Y106678D01*
X272801Y106013D01*
X272441Y105145D01*
Y104205D01*
X272801Y103337D01*
X273465Y102673D01*
X274333Y102313D01*
X274819D01*
X275078Y101926D01*
Y100986D01*
X275438Y100118D01*
X276102Y99453D01*
X276970Y99094D01*
X277910D01*
X278778Y99453D01*
X279443Y100118D01*
X279802Y100986D01*
Y101926D01*
X279443Y102794D01*
X278778Y103459D01*
X277910Y103818D01*
X277424D01*
X277165Y104205D01*
Y105145D01*
X276806Y106013D01*
X276141Y106678D01*
X275273Y107037D01*
D02*
G37*
G36*
X178816Y105118D02*
X177877D01*
X177008Y104759D01*
X176344Y104094D01*
X175984Y103226D01*
Y102286D01*
X176087Y102037D01*
X175763Y101514D01*
X175040Y101215D01*
X174375Y100551D01*
X174016Y99682D01*
Y98743D01*
X174375Y97874D01*
X175040Y97210D01*
X175908Y96850D01*
X176848D01*
X177716Y97210D01*
X178347Y97840D01*
X178977Y97210D01*
X179845Y96850D01*
X180785D01*
X181653Y97210D01*
X182317Y97874D01*
X182677Y98743D01*
Y99682D01*
X182317Y100551D01*
X181653Y101215D01*
X180930Y101514D01*
X180605Y102037D01*
X180709Y102286D01*
Y103226D01*
X180349Y104094D01*
X179684Y104759D01*
X178816Y105118D01*
D02*
G37*
G36*
X325273Y100197D02*
X324333D01*
X323465Y99837D01*
X322801Y99173D01*
X322441Y98304D01*
Y97365D01*
X322801Y96497D01*
X323465Y95832D01*
X324333Y95473D01*
X325273D01*
X326141Y95832D01*
X326806Y96497D01*
X327165Y97365D01*
Y98304D01*
X326806Y99173D01*
X326141Y99837D01*
X325273Y100197D01*
D02*
G37*
G36*
X152438Y113779D02*
X151499D01*
X150630Y113420D01*
X149966Y112755D01*
X149606Y111887D01*
Y110948D01*
X149966Y110079D01*
X150630Y109415D01*
X151499Y109055D01*
X152438D01*
X152809Y109209D01*
X153192Y108826D01*
X152953Y108248D01*
Y107561D01*
X152832Y107480D01*
X151892D01*
X151024Y107121D01*
X150360Y106456D01*
X150000Y105588D01*
Y104648D01*
X150360Y103780D01*
X151024Y103115D01*
X151892Y102756D01*
X152395D01*
X152833Y102732D01*
X152857Y102294D01*
Y101791D01*
X153217Y100923D01*
X153449Y100691D01*
X153276Y100191D01*
X152408Y99831D01*
X151743Y99167D01*
X151384Y98299D01*
Y97359D01*
X151743Y96491D01*
X152408Y95826D01*
X153276Y95467D01*
X154216D01*
X155084Y95826D01*
X155748Y96491D01*
X156108Y97359D01*
Y98299D01*
X155748Y99167D01*
X155517Y99399D01*
X155689Y99899D01*
X156558Y100258D01*
X157222Y100923D01*
X157582Y101791D01*
Y102731D01*
X157222Y103599D01*
X156558Y104263D01*
X155689Y104623D01*
X155186D01*
X155076Y104629D01*
X154867Y105141D01*
X155078Y105416D01*
X155785D01*
X156653Y105776D01*
X157317Y106440D01*
X157677Y107309D01*
Y108248D01*
X157317Y109117D01*
X156653Y109781D01*
X155785Y110141D01*
X154845D01*
X154474Y109987D01*
X154091Y110370D01*
X154331Y110948D01*
Y111887D01*
X153971Y112755D01*
X153307Y113420D01*
X152438Y113779D01*
D02*
G37*
G36*
X255391Y99705D02*
X254451D01*
X253583Y99345D01*
X252919Y98681D01*
X252559Y97812D01*
Y96873D01*
X252919Y96004D01*
X253583Y95340D01*
X254451Y94980D01*
X255391D01*
X256259Y95340D01*
X256924Y96004D01*
X257283Y96873D01*
Y97812D01*
X256924Y98681D01*
X256259Y99345D01*
X255391Y99705D01*
D02*
G37*
G36*
X270155Y93898D02*
X269215D01*
X268347Y93538D01*
X267683Y92874D01*
X267593Y92659D01*
X267052D01*
X266963Y92874D01*
X266299Y93538D01*
X265430Y93898D01*
X264491D01*
X263623Y93538D01*
X262958Y92874D01*
X262869Y92659D01*
X262328D01*
X262239Y92874D01*
X261574Y93538D01*
X260706Y93898D01*
X259766D01*
X258898Y93538D01*
X258234Y92874D01*
X257874Y92005D01*
Y91066D01*
X258234Y90197D01*
X258898Y89533D01*
X259766Y89173D01*
X260706D01*
X261574Y89533D01*
X262239Y90197D01*
X262328Y90412D01*
X262869D01*
X262958Y90197D01*
X263623Y89533D01*
X264491Y89173D01*
X265430D01*
X266299Y89533D01*
X266963Y90197D01*
X267052Y90412D01*
X267593D01*
X267683Y90197D01*
X268347Y89533D01*
X269215Y89173D01*
X270155D01*
X271023Y89533D01*
X271688Y90197D01*
X272047Y91066D01*
Y92005D01*
X271688Y92874D01*
X271023Y93538D01*
X270155Y93898D01*
D02*
G37*
G36*
X228423Y97244D02*
X227483D01*
X226615Y96885D01*
X225950Y96220D01*
X225591Y95352D01*
Y94412D01*
X225950Y93544D01*
X226615Y92879D01*
X227483Y92520D01*
X228423D01*
X229291Y92879D01*
X229955Y93544D01*
X230315Y94412D01*
Y95352D01*
X229955Y96220D01*
X229291Y96885D01*
X228423Y97244D01*
D02*
G37*
G36*
X59601Y99222D02*
X58510D01*
X57456Y98940D01*
X56511Y98395D01*
X55739Y97623D01*
X55194Y96678D01*
X54911Y95624D01*
Y94533D01*
X55194Y93479D01*
X55739Y92535D01*
X56511Y91763D01*
X57456Y91217D01*
X58510Y90935D01*
X59601D01*
X60654Y91217D01*
X61599Y91763D01*
X62371Y92535D01*
X62916Y93479D01*
X63199Y94533D01*
Y95624D01*
X62916Y96678D01*
X62371Y97623D01*
X61599Y98395D01*
X60654Y98940D01*
X59601Y99222D01*
D02*
G37*
G36*
X49758D02*
X48667D01*
X47613Y98940D01*
X46668Y98395D01*
X45897Y97623D01*
X45351Y96678D01*
X45069Y95624D01*
Y94533D01*
X45351Y93479D01*
X45897Y92535D01*
X46668Y91763D01*
X47613Y91217D01*
X48667Y90935D01*
X49758D01*
X50812Y91217D01*
X51757Y91763D01*
X52528Y92535D01*
X53074Y93479D01*
X53356Y94533D01*
Y95624D01*
X53074Y96678D01*
X52528Y97623D01*
X51757Y98395D01*
X50812Y98940D01*
X49758Y99222D01*
D02*
G37*
G36*
X39916D02*
X38824D01*
X37771Y98940D01*
X36826Y98395D01*
X36054Y97623D01*
X35509Y96678D01*
X35226Y95624D01*
Y94533D01*
X35509Y93479D01*
X36054Y92535D01*
X36826Y91763D01*
X37771Y91217D01*
X38824Y90935D01*
X39916D01*
X40969Y91217D01*
X41914Y91763D01*
X42686Y92535D01*
X43231Y93479D01*
X43514Y94533D01*
Y95624D01*
X43231Y96678D01*
X42686Y97623D01*
X41914Y98395D01*
X40969Y98940D01*
X39916Y99222D01*
D02*
G37*
G36*
X30073D02*
X28982D01*
X27928Y98940D01*
X26983Y98395D01*
X26212Y97623D01*
X25666Y96678D01*
X25384Y95624D01*
Y94533D01*
X25666Y93479D01*
X26212Y92535D01*
X26983Y91763D01*
X27928Y91217D01*
X28982Y90935D01*
X30073D01*
X31127Y91217D01*
X32072Y91763D01*
X32843Y92535D01*
X33389Y93479D01*
X33671Y94533D01*
Y95624D01*
X33389Y96678D01*
X32843Y97623D01*
X32072Y98395D01*
X31127Y98940D01*
X30073Y99222D01*
D02*
G37*
G36*
X277635Y98425D02*
X276695D01*
X275827Y98066D01*
X275163Y97401D01*
X274803Y96533D01*
Y95593D01*
X275163Y94725D01*
X275827Y94060D01*
X276695Y93701D01*
X277635D01*
X277958Y93835D01*
X278341Y93452D01*
X278150Y92990D01*
Y92050D01*
X278509Y91182D01*
X279174Y90517D01*
X280042Y90158D01*
X280982D01*
X281850Y90517D01*
X282514Y91182D01*
X282874Y92050D01*
Y92990D01*
X282514Y93858D01*
X281850Y94522D01*
X280982Y94882D01*
X280042D01*
X279719Y94748D01*
X279336Y95131D01*
X279528Y95593D01*
Y96533D01*
X279168Y97401D01*
X278503Y98066D01*
X277635Y98425D01*
D02*
G37*
G36*
X449325Y98159D02*
X448234D01*
X447180Y97877D01*
X446235Y97332D01*
X445464Y96560D01*
X444918Y95615D01*
X444636Y94561D01*
Y93470D01*
X444918Y92416D01*
X445464Y91471D01*
X446235Y90700D01*
X447180Y90154D01*
X448234Y89872D01*
X449325D01*
X450379Y90154D01*
X451324Y90700D01*
X452095Y91471D01*
X452641Y92416D01*
X452923Y93470D01*
Y94561D01*
X452641Y95615D01*
X452095Y96560D01*
X451324Y97332D01*
X450379Y97877D01*
X449325Y98159D01*
D02*
G37*
G36*
X439325D02*
X438234D01*
X437180Y97877D01*
X436235Y97332D01*
X435464Y96560D01*
X434918Y95615D01*
X434636Y94561D01*
Y93470D01*
X434918Y92416D01*
X435464Y91471D01*
X436235Y90700D01*
X437180Y90154D01*
X438234Y89872D01*
X439325D01*
X440379Y90154D01*
X441324Y90700D01*
X442095Y91471D01*
X442641Y92416D01*
X442923Y93470D01*
Y94561D01*
X442641Y95615D01*
X442095Y96560D01*
X441324Y97332D01*
X440379Y97877D01*
X439325Y98159D01*
D02*
G37*
G36*
X429325D02*
X428234D01*
X427180Y97877D01*
X426235Y97332D01*
X425464Y96560D01*
X424918Y95615D01*
X424636Y94561D01*
Y93470D01*
X424918Y92416D01*
X425464Y91471D01*
X426235Y90700D01*
X427180Y90154D01*
X428234Y89872D01*
X429325D01*
X430379Y90154D01*
X431324Y90700D01*
X432095Y91471D01*
X432641Y92416D01*
X432923Y93470D01*
Y94561D01*
X432641Y95615D01*
X432095Y96560D01*
X431324Y97332D01*
X430379Y97877D01*
X429325Y98159D01*
D02*
G37*
G36*
X222730Y92614D02*
X221790D01*
X220922Y92254D01*
X220257Y91590D01*
X219898Y90721D01*
Y89782D01*
X220257Y88914D01*
X220922Y88249D01*
X221790Y87889D01*
X222730D01*
X223598Y88249D01*
X224263Y88914D01*
X224622Y89782D01*
Y90721D01*
X224263Y91590D01*
X223598Y92254D01*
X222730Y92614D01*
D02*
G37*
G36*
X325273Y92323D02*
X324333D01*
X323465Y91963D01*
X322801Y91299D01*
X322441Y90430D01*
Y89491D01*
X322801Y88623D01*
X323465Y87958D01*
X324333Y87598D01*
X325273D01*
X326141Y87958D01*
X326806Y88623D01*
X327165Y89491D01*
Y90430D01*
X326806Y91299D01*
X326141Y91963D01*
X325273Y92323D01*
D02*
G37*
G36*
X166929Y92913D02*
X160630D01*
Y87458D01*
X160130Y87151D01*
X159525Y87402D01*
X158585D01*
X158439Y87341D01*
X157998Y87700D01*
Y88423D01*
X157639Y89291D01*
X156974Y89956D01*
X156106Y90315D01*
X155166D01*
X154298Y89956D01*
X153633Y89291D01*
X153274Y88423D01*
Y87483D01*
X153154Y87303D01*
X152483D01*
X152384Y87262D01*
X151969Y87540D01*
Y87871D01*
X151609Y88740D01*
X150944Y89404D01*
X150076Y89764D01*
X149136D01*
X148268Y89404D01*
X147604Y88740D01*
X147244Y87871D01*
Y86932D01*
X147460Y86409D01*
X147087Y86255D01*
X146423Y85590D01*
X146063Y84722D01*
Y83782D01*
X146423Y82914D01*
X147087Y82249D01*
X147955Y81890D01*
X148895D01*
X149763Y82249D01*
X150428Y82914D01*
X150582Y83285D01*
X151165Y83388D01*
X151615Y82938D01*
X152483Y82579D01*
X153423D01*
X154291Y82938D01*
X154955Y83603D01*
X155315Y84471D01*
Y85411D01*
X155435Y85591D01*
X156106D01*
X156252Y85651D01*
X156693Y85293D01*
Y84570D01*
X157053Y83701D01*
X157683Y83071D01*
X157053Y82440D01*
X156693Y81572D01*
Y80633D01*
X157053Y79764D01*
X157683Y79134D01*
X157053Y78503D01*
X156693Y77635D01*
Y76696D01*
X157053Y75827D01*
X157717Y75163D01*
X158585Y74803D01*
X159525D01*
X160130Y75054D01*
X160630Y74746D01*
Y74585D01*
X160845Y73784D01*
X161259Y73066D01*
X161846Y72480D01*
X162564Y72065D01*
X163365Y71850D01*
X164194D01*
X164995Y72065D01*
X165675Y72457D01*
X166108Y72678D01*
X166772Y72013D01*
X167640Y71653D01*
X168580D01*
X169448Y72013D01*
X170113Y72678D01*
X170472Y73546D01*
Y74486D01*
X170113Y75354D01*
X169679Y75787D01*
X170113Y76221D01*
X170472Y77089D01*
Y78029D01*
X170113Y78897D01*
X169448Y79562D01*
X168580Y79921D01*
X167640D01*
X167345Y79799D01*
X166929Y80077D01*
Y80336D01*
X166715Y81137D01*
X166300Y81855D01*
X165773Y82382D01*
X166300Y82909D01*
X166715Y83627D01*
X166929Y84428D01*
Y85257D01*
X166715Y86058D01*
X166644Y86181D01*
X166893Y86614D01*
X166929D01*
Y92913D01*
D02*
G37*
G36*
X209525Y89764D02*
X208585D01*
X207717Y89404D01*
X207052Y88740D01*
X206693Y87871D01*
Y87255D01*
X206199Y86918D01*
X205982Y87008D01*
X205042D01*
X204174Y86648D01*
X203509Y85984D01*
X203150Y85115D01*
Y84176D01*
X203509Y83308D01*
X204174Y82643D01*
X205042Y82284D01*
X205982D01*
X206850Y82643D01*
X207514Y83308D01*
X207874Y84176D01*
Y84793D01*
X208368Y85129D01*
X208585Y85039D01*
X209525D01*
X210393Y85399D01*
X211058Y86063D01*
X211417Y86932D01*
Y87871D01*
X211058Y88740D01*
X210393Y89404D01*
X209525Y89764D01*
D02*
G37*
G36*
X274092Y89961D02*
X273152D01*
X272284Y89601D01*
X271620Y88937D01*
X271260Y88068D01*
Y87129D01*
X271620Y86260D01*
X272284Y85596D01*
X273152Y85236D01*
X274092D01*
X274960Y85596D01*
X275625Y86260D01*
X275984Y87129D01*
Y88068D01*
X275625Y88937D01*
X274960Y89601D01*
X274092Y89961D01*
D02*
G37*
G36*
X228246Y88090D02*
X227463D01*
X226739Y87791D01*
X226185Y87237D01*
X225886Y86514D01*
Y85730D01*
X226185Y85007D01*
X226739Y84453D01*
X227463Y84153D01*
X228246D01*
X228969Y84453D01*
X229523Y85007D01*
X229823Y85730D01*
Y86514D01*
X229523Y87237D01*
X228969Y87791D01*
X228246Y88090D01*
D02*
G37*
G36*
X171336Y88189D02*
X170396D01*
X169528Y87829D01*
X168864Y87165D01*
X168504Y86297D01*
Y85357D01*
X168864Y84489D01*
X169528Y83824D01*
X170396Y83465D01*
X171336D01*
X172204Y83824D01*
X172869Y84489D01*
X173228Y85357D01*
Y86297D01*
X172869Y87165D01*
X172204Y87829D01*
X171336Y88189D01*
D02*
G37*
G36*
X278029Y86024D02*
X277089D01*
X276221Y85664D01*
X275556Y85000D01*
X275197Y84131D01*
Y83192D01*
X275556Y82323D01*
X276221Y81659D01*
X277089Y81299D01*
X278029D01*
X278897Y81659D01*
X279562Y82323D01*
X279921Y83192D01*
Y84131D01*
X279562Y85000D01*
X278897Y85664D01*
X278029Y86024D01*
D02*
G37*
G36*
X449325Y88160D02*
X448234D01*
X447180Y87877D01*
X446235Y87331D01*
X445464Y86560D01*
X444918Y85615D01*
X444636Y84561D01*
Y83470D01*
X444918Y82416D01*
X445464Y81472D01*
X446235Y80700D01*
X447180Y80154D01*
X448234Y79872D01*
X449325D01*
X450379Y80154D01*
X451324Y80700D01*
X452095Y81472D01*
X452641Y82416D01*
X452923Y83470D01*
Y84561D01*
X452641Y85615D01*
X452095Y86560D01*
X451324Y87331D01*
X450379Y87877D01*
X449325Y88160D01*
D02*
G37*
G36*
X439325D02*
X438234D01*
X437180Y87877D01*
X436235Y87331D01*
X435464Y86560D01*
X434918Y85615D01*
X434636Y84561D01*
Y83470D01*
X434918Y82416D01*
X435464Y81472D01*
X436235Y80700D01*
X437180Y80154D01*
X438234Y79872D01*
X439325D01*
X440379Y80154D01*
X441324Y80700D01*
X442095Y81472D01*
X442641Y82416D01*
X442923Y83470D01*
Y84561D01*
X442641Y85615D01*
X442095Y86560D01*
X441324Y87331D01*
X440379Y87877D01*
X439325Y88160D01*
D02*
G37*
G36*
X429325D02*
X428234D01*
X427180Y87877D01*
X426235Y87331D01*
X425464Y86560D01*
X424918Y85615D01*
X424636Y84561D01*
Y83470D01*
X424918Y82416D01*
X425464Y81472D01*
X426235Y80700D01*
X427180Y80154D01*
X428234Y79872D01*
X429325D01*
X430379Y80154D01*
X431324Y80700D01*
X432095Y81472D01*
X432641Y82416D01*
X432923Y83470D01*
Y84561D01*
X432641Y85615D01*
X432095Y86560D01*
X431324Y87331D01*
X430379Y87877D01*
X429325Y88160D01*
D02*
G37*
G36*
X325273Y84449D02*
X324333D01*
X323465Y84089D01*
X322801Y83425D01*
X322441Y82556D01*
Y81617D01*
X322801Y80748D01*
X323465Y80084D01*
X324333Y79724D01*
X325273D01*
X326141Y80084D01*
X326806Y80748D01*
X327165Y81617D01*
Y82556D01*
X326806Y83425D01*
X326141Y84089D01*
X325273Y84449D01*
D02*
G37*
G36*
X59601Y87411D02*
X58510D01*
X57456Y87129D01*
X56511Y86584D01*
X55739Y85812D01*
X55194Y84867D01*
X54911Y83813D01*
Y82722D01*
X55194Y81668D01*
X55739Y80723D01*
X56511Y79952D01*
X57456Y79406D01*
X58510Y79124D01*
X59601D01*
X60654Y79406D01*
X61599Y79952D01*
X62371Y80723D01*
X62916Y81668D01*
X63199Y82722D01*
Y83813D01*
X62916Y84867D01*
X62371Y85812D01*
X61599Y86584D01*
X60654Y87129D01*
X59601Y87411D01*
D02*
G37*
G36*
X49758D02*
X48667D01*
X47613Y87129D01*
X46668Y86584D01*
X45897Y85812D01*
X45351Y84867D01*
X45069Y83813D01*
Y82722D01*
X45351Y81668D01*
X45897Y80723D01*
X46668Y79952D01*
X47613Y79406D01*
X48667Y79124D01*
X49758D01*
X50812Y79406D01*
X51757Y79952D01*
X52528Y80723D01*
X53074Y81668D01*
X53356Y82722D01*
Y83813D01*
X53074Y84867D01*
X52528Y85812D01*
X51757Y86584D01*
X50812Y87129D01*
X49758Y87411D01*
D02*
G37*
G36*
X39916D02*
X38824D01*
X37771Y87129D01*
X36826Y86584D01*
X36054Y85812D01*
X35509Y84867D01*
X35226Y83813D01*
Y82722D01*
X35509Y81668D01*
X36054Y80723D01*
X36826Y79952D01*
X37771Y79406D01*
X38824Y79124D01*
X39916D01*
X40969Y79406D01*
X41914Y79952D01*
X42686Y80723D01*
X43231Y81668D01*
X43514Y82722D01*
Y83813D01*
X43231Y84867D01*
X42686Y85812D01*
X41914Y86584D01*
X40969Y87129D01*
X39916Y87411D01*
D02*
G37*
G36*
X30073D02*
X28982D01*
X27928Y87129D01*
X26983Y86584D01*
X26212Y85812D01*
X25666Y84867D01*
X25384Y83813D01*
Y82722D01*
X25666Y81668D01*
X26212Y80723D01*
X26983Y79952D01*
X27928Y79406D01*
X28982Y79124D01*
X30073D01*
X31127Y79406D01*
X32072Y79952D01*
X32843Y80723D01*
X33389Y81668D01*
X33671Y82722D01*
Y83813D01*
X33389Y84867D01*
X32843Y85812D01*
X32072Y86584D01*
X31127Y87129D01*
X30073Y87411D01*
D02*
G37*
G36*
X394708Y103347D02*
X392694D01*
X390705Y103031D01*
X388789Y102409D01*
X386995Y101495D01*
X385365Y100311D01*
X383941Y98887D01*
X382757Y97257D01*
X381843Y95463D01*
X381221Y93547D01*
X380906Y91558D01*
Y89544D01*
X381221Y87555D01*
X381843Y85640D01*
X382757Y83845D01*
X383941Y82216D01*
X385365Y80791D01*
X386995Y79608D01*
X388789Y78693D01*
X390705Y78071D01*
X392694Y77756D01*
X394708D01*
X396697Y78071D01*
X398612Y78693D01*
X400407Y79608D01*
X402036Y80791D01*
X403461Y82216D01*
X404644Y83845D01*
X405559Y85640D01*
X406181Y87555D01*
X406496Y89544D01*
Y91558D01*
X406181Y93547D01*
X405559Y95463D01*
X404644Y97257D01*
X403461Y98887D01*
X402036Y100311D01*
X400407Y101495D01*
X398612Y102409D01*
X396697Y103031D01*
X394708Y103347D01*
D02*
G37*
G36*
X91558D02*
X89544D01*
X87555Y103031D01*
X85640Y102409D01*
X83845Y101495D01*
X82216Y100311D01*
X80791Y98887D01*
X79608Y97257D01*
X78693Y95463D01*
X78071Y93547D01*
X77756Y91558D01*
Y89544D01*
X78071Y87555D01*
X78693Y85640D01*
X79608Y83845D01*
X80791Y82216D01*
X82216Y80791D01*
X83845Y79608D01*
X85640Y78693D01*
X87555Y78071D01*
X89544Y77756D01*
X91558D01*
X93547Y78071D01*
X95463Y78693D01*
X97257Y79608D01*
X98887Y80791D01*
X100311Y82216D01*
X101495Y83845D01*
X102409Y85640D01*
X103031Y87555D01*
X103347Y89544D01*
Y91558D01*
X103031Y93547D01*
X102409Y95463D01*
X101495Y97257D01*
X100311Y98887D01*
X98887Y100311D01*
X97257Y101495D01*
X95463Y102409D01*
X93547Y103031D01*
X91558Y103347D01*
D02*
G37*
G36*
X206375Y80315D02*
X205436D01*
X204567Y79955D01*
X203903Y79291D01*
X203543Y78423D01*
Y77483D01*
X203903Y76615D01*
X204567Y75950D01*
X205436Y75591D01*
X206375D01*
X207244Y75950D01*
X207908Y76615D01*
X208268Y77483D01*
Y78423D01*
X207908Y79291D01*
X207244Y79955D01*
X206375Y80315D01*
D02*
G37*
G36*
X224879Y80118D02*
X223940D01*
X223071Y79759D01*
X222407Y79094D01*
X222047Y78226D01*
Y77286D01*
X222407Y76418D01*
X223071Y75753D01*
X223940Y75394D01*
X224879D01*
X225747Y75753D01*
X226412Y76418D01*
X226772Y77286D01*
Y78226D01*
X226412Y79094D01*
X225747Y79759D01*
X224879Y80118D01*
D02*
G37*
G36*
X212084D02*
X211144D01*
X210276Y79759D01*
X209612Y79094D01*
X209252Y78226D01*
Y77286D01*
X209612Y76418D01*
X210276Y75753D01*
X211144Y75394D01*
X212084D01*
X212952Y75753D01*
X213617Y76418D01*
X213976Y77286D01*
Y78226D01*
X213617Y79094D01*
X212952Y79759D01*
X212084Y80118D01*
D02*
G37*
G36*
X105883Y79134D02*
X104944D01*
X104075Y78774D01*
X103411Y78110D01*
X103051Y77241D01*
Y76302D01*
X103411Y75434D01*
X104075Y74769D01*
X104944Y74410D01*
X105883D01*
X106752Y74769D01*
X107416Y75434D01*
X107776Y76302D01*
Y77241D01*
X107416Y78110D01*
X106752Y78774D01*
X105883Y79134D01*
D02*
G37*
G36*
X254013Y77165D02*
X253073D01*
X252205Y76806D01*
X251541Y76141D01*
X251181Y75273D01*
Y74333D01*
X251541Y73465D01*
X252205Y72801D01*
X253073Y72441D01*
X254013D01*
X254881Y72801D01*
X255546Y73465D01*
X255906Y74333D01*
Y75273D01*
X255546Y76141D01*
X254881Y76806D01*
X254013Y77165D01*
D02*
G37*
G36*
X155982Y68504D02*
X155042D01*
X154174Y68144D01*
X153509Y67480D01*
X153150Y66612D01*
Y65672D01*
X153509Y64804D01*
X154174Y64139D01*
X155042Y63779D01*
X155982D01*
X156850Y64139D01*
X157514Y64804D01*
X157874Y65672D01*
Y66612D01*
X157514Y67480D01*
X156850Y68144D01*
X155982Y68504D01*
D02*
G37*
G36*
X257143Y69587D02*
X255456D01*
X253801Y69257D01*
X252243Y68612D01*
X250841Y67675D01*
X249648Y66482D01*
X248711Y65080D01*
X248065Y63521D01*
X247736Y61867D01*
Y60180D01*
X248065Y58526D01*
X248711Y56968D01*
X249648Y55565D01*
X250841Y54372D01*
X252243Y53435D01*
X253801Y52790D01*
X255456Y52461D01*
X257143D01*
X258797Y52790D01*
X260355Y53435D01*
X261758Y54372D01*
X262950Y55565D01*
X263888Y56968D01*
X264533Y58526D01*
X264862Y60180D01*
Y61867D01*
X264533Y63521D01*
X263888Y65080D01*
X262950Y66482D01*
X261758Y67675D01*
X260355Y68612D01*
X258797Y69257D01*
X257143Y69587D01*
D02*
G37*
G36*
X228835Y69980D02*
X227071D01*
X225340Y69636D01*
X223710Y68961D01*
X222243Y67981D01*
X220996Y66733D01*
X220015Y65266D01*
X219340Y63636D01*
X218996Y61906D01*
Y60141D01*
X219340Y58411D01*
X220015Y56781D01*
X220996Y55314D01*
X222243Y54066D01*
X223710Y53086D01*
X225340Y52411D01*
X227071Y52067D01*
X228835D01*
X230565Y52411D01*
X232195Y53086D01*
X233662Y54066D01*
X234910Y55314D01*
X235890Y56781D01*
X236565Y58411D01*
X236910Y60141D01*
Y61906D01*
X236565Y63636D01*
X235890Y65266D01*
X234910Y66733D01*
X233662Y67981D01*
X232195Y68961D01*
X230565Y69636D01*
X228835Y69980D01*
D02*
G37*
G36*
X356891Y53248D02*
X355708D01*
X354548Y53017D01*
X353455Y52565D01*
X352472Y51908D01*
X351636Y51071D01*
X350979Y50088D01*
X350526Y48995D01*
X350295Y47835D01*
Y46653D01*
X350526Y45493D01*
X350979Y44400D01*
X351636Y43417D01*
X352472Y42581D01*
X353455Y41923D01*
X354548Y41471D01*
X355708Y41240D01*
X356891D01*
X358050Y41471D01*
X359143Y41923D01*
X360126Y42581D01*
X360963Y43417D01*
X361620Y44400D01*
X362072Y45493D01*
X362303Y46653D01*
Y47835D01*
X362072Y48995D01*
X361620Y50088D01*
X360963Y51071D01*
X360126Y51908D01*
X359143Y52565D01*
X358050Y53017D01*
X356891Y53248D01*
D02*
G37*
G36*
X302757Y53248D02*
X301574D01*
X300414Y53017D01*
X299321Y52565D01*
X298338Y51908D01*
X297502Y51071D01*
X296845Y50088D01*
X296392Y48995D01*
X296161Y47835D01*
Y46653D01*
X296392Y45493D01*
X296845Y44400D01*
X297502Y43417D01*
X298338Y42581D01*
X299321Y41923D01*
X300414Y41471D01*
X301574Y41240D01*
X302757D01*
X303917Y41471D01*
X305009Y41923D01*
X305993Y42581D01*
X306829Y43417D01*
X307486Y44400D01*
X307939Y45493D01*
X308169Y46653D01*
Y47835D01*
X307939Y48995D01*
X307486Y50088D01*
X306829Y51071D01*
X305993Y51908D01*
X305009Y52565D01*
X303917Y53017D01*
X302757Y53248D01*
D02*
G37*
G36*
X182678D02*
X181495D01*
X180335Y53017D01*
X179243Y52565D01*
X178259Y51908D01*
X177423Y51071D01*
X176766Y50088D01*
X176313Y48995D01*
X176083Y47835D01*
Y46653D01*
X176313Y45493D01*
X176766Y44400D01*
X177423Y43417D01*
X178259Y42581D01*
X179243Y41923D01*
X180335Y41471D01*
X181495Y41240D01*
X182678D01*
X183838Y41471D01*
X184931Y41923D01*
X185914Y42581D01*
X186750Y43417D01*
X187407Y44400D01*
X187860Y45493D01*
X188091Y46653D01*
Y47835D01*
X187860Y48995D01*
X187407Y50088D01*
X186750Y51071D01*
X185914Y51908D01*
X184931Y52565D01*
X183838Y53017D01*
X182678Y53248D01*
D02*
G37*
G36*
X128544D02*
X127361D01*
X126201Y53017D01*
X125109Y52565D01*
X124126Y51908D01*
X123289Y51071D01*
X122632Y50088D01*
X122180Y48995D01*
X121949Y47835D01*
Y46653D01*
X122180Y45493D01*
X122632Y44400D01*
X123289Y43417D01*
X124126Y42581D01*
X125109Y41923D01*
X126201Y41471D01*
X127361Y41240D01*
X128544D01*
X129704Y41471D01*
X130797Y41923D01*
X131780Y42581D01*
X132616Y43417D01*
X133273Y44400D01*
X133726Y45493D01*
X133957Y46653D01*
Y47835D01*
X133726Y48995D01*
X133273Y50088D01*
X132616Y51071D01*
X131780Y51908D01*
X130797Y52565D01*
X129704Y53017D01*
X128544Y53248D01*
D02*
G37*
G36*
X375748Y47756D02*
X374252D01*
X372784Y47464D01*
X371401Y46891D01*
X370156Y46060D01*
X369098Y45001D01*
X368266Y43757D01*
X367694Y42374D01*
X367402Y40906D01*
Y39409D01*
X367694Y37941D01*
X368266Y36558D01*
X369098Y35314D01*
X370156Y34255D01*
X371401Y33424D01*
X372784Y32851D01*
X374252Y32559D01*
X375748D01*
X377216Y32851D01*
X378599Y33424D01*
X379844Y34255D01*
X380902Y35314D01*
X381734Y36558D01*
X382306Y37941D01*
X382598Y39409D01*
Y40906D01*
X382306Y42374D01*
X381734Y43757D01*
X380902Y45001D01*
X379844Y46060D01*
X378599Y46891D01*
X377216Y47464D01*
X375748Y47756D01*
D02*
G37*
G36*
X338347D02*
X336850D01*
X335382Y47464D01*
X333999Y46891D01*
X332755Y46060D01*
X331696Y45001D01*
X330865Y43757D01*
X330292Y42374D01*
X330000Y40906D01*
Y39409D01*
X330292Y37941D01*
X330865Y36558D01*
X331696Y35314D01*
X332755Y34255D01*
X333999Y33424D01*
X335382Y32851D01*
X336850Y32559D01*
X338347D01*
X339815Y32851D01*
X341198Y33424D01*
X342442Y34255D01*
X343500Y35314D01*
X344332Y36558D01*
X344905Y37941D01*
X345197Y39409D01*
Y40906D01*
X344905Y42374D01*
X344332Y43757D01*
X343500Y45001D01*
X342442Y46060D01*
X341198Y46891D01*
X339815Y47464D01*
X338347Y47756D01*
D02*
G37*
G36*
X321615Y47756D02*
X320118D01*
X318650Y47464D01*
X317267Y46891D01*
X316022Y46060D01*
X314964Y45001D01*
X314132Y43757D01*
X313560Y42374D01*
X313268Y40906D01*
Y39409D01*
X313560Y37941D01*
X314132Y36558D01*
X314964Y35314D01*
X316022Y34255D01*
X317267Y33424D01*
X318650Y32851D01*
X320118Y32559D01*
X321615D01*
X323082Y32851D01*
X324465Y33424D01*
X325710Y34255D01*
X326768Y35314D01*
X327600Y36558D01*
X328173Y37941D01*
X328465Y39409D01*
Y40906D01*
X328173Y42374D01*
X327600Y43757D01*
X326768Y45001D01*
X325710Y46060D01*
X324465Y46891D01*
X323082Y47464D01*
X321615Y47756D01*
D02*
G37*
G36*
X284213D02*
X282716D01*
X281248Y47464D01*
X279865Y46891D01*
X278621Y46060D01*
X277562Y45001D01*
X276731Y43757D01*
X276158Y42374D01*
X275866Y40906D01*
Y39409D01*
X276158Y37941D01*
X276731Y36558D01*
X277562Y35314D01*
X278621Y34255D01*
X279865Y33424D01*
X281248Y32851D01*
X282716Y32559D01*
X284213D01*
X285681Y32851D01*
X287064Y33424D01*
X288308Y34255D01*
X289367Y35314D01*
X290198Y36558D01*
X290771Y37941D01*
X291063Y39409D01*
Y40906D01*
X290771Y42374D01*
X290198Y43757D01*
X289367Y45001D01*
X288308Y46060D01*
X287064Y46891D01*
X285681Y47464D01*
X284213Y47756D01*
D02*
G37*
G36*
X201536D02*
X200039D01*
X198571Y47464D01*
X197188Y46891D01*
X195944Y46060D01*
X194885Y45001D01*
X194054Y43757D01*
X193481Y42374D01*
X193189Y40906D01*
Y39409D01*
X193481Y37941D01*
X194054Y36558D01*
X194885Y35314D01*
X195944Y34255D01*
X197188Y33424D01*
X198571Y32851D01*
X200039Y32559D01*
X201536D01*
X203004Y32851D01*
X204387Y33424D01*
X205631Y34255D01*
X206690Y35314D01*
X207521Y36558D01*
X208094Y37941D01*
X208386Y39409D01*
Y40906D01*
X208094Y42374D01*
X207521Y43757D01*
X206690Y45001D01*
X205631Y46060D01*
X204387Y46891D01*
X203004Y47464D01*
X201536Y47756D01*
D02*
G37*
G36*
X164134D02*
X162637D01*
X161170Y47464D01*
X159787Y46891D01*
X158542Y46060D01*
X157484Y45001D01*
X156652Y43757D01*
X156079Y42374D01*
X155787Y40906D01*
Y39409D01*
X156079Y37941D01*
X156652Y36558D01*
X157484Y35314D01*
X158542Y34255D01*
X159787Y33424D01*
X161170Y32851D01*
X162637Y32559D01*
X164134D01*
X165602Y32851D01*
X166985Y33424D01*
X168229Y34255D01*
X169288Y35314D01*
X170120Y36558D01*
X170692Y37941D01*
X170984Y39409D01*
Y40906D01*
X170692Y42374D01*
X170120Y43757D01*
X169288Y45001D01*
X168229Y46060D01*
X166985Y46891D01*
X165602Y47464D01*
X164134Y47756D01*
D02*
G37*
G36*
X147402D02*
X145905D01*
X144437Y47464D01*
X143054Y46891D01*
X141810Y46060D01*
X140752Y45001D01*
X139920Y43757D01*
X139347Y42374D01*
X139055Y40906D01*
Y39409D01*
X139347Y37941D01*
X139920Y36558D01*
X140752Y35314D01*
X141810Y34255D01*
X143054Y33424D01*
X144437Y32851D01*
X145905Y32559D01*
X147402D01*
X148870Y32851D01*
X150253Y33424D01*
X151497Y34255D01*
X152556Y35314D01*
X153387Y36558D01*
X153960Y37941D01*
X154252Y39409D01*
Y40906D01*
X153960Y42374D01*
X153387Y43757D01*
X152556Y45001D01*
X151497Y46060D01*
X150253Y46891D01*
X148870Y47464D01*
X147402Y47756D01*
D02*
G37*
G36*
X110000D02*
X108504D01*
X107036Y47464D01*
X105653Y46891D01*
X104408Y46060D01*
X103350Y45001D01*
X102518Y43757D01*
X101946Y42374D01*
X101654Y40906D01*
Y39409D01*
X101946Y37941D01*
X102518Y36558D01*
X103350Y35314D01*
X104408Y34255D01*
X105653Y33424D01*
X107036Y32851D01*
X108504Y32559D01*
X110000D01*
X111468Y32851D01*
X112851Y33424D01*
X114096Y34255D01*
X115154Y35314D01*
X115986Y36558D01*
X116558Y37941D01*
X116850Y39409D01*
Y40906D01*
X116558Y42374D01*
X115986Y43757D01*
X115154Y45001D01*
X114096Y46060D01*
X112851Y46891D01*
X111468Y47464D01*
X110000Y47756D01*
D02*
G37*
G36*
X269321Y43701D02*
X268080D01*
X266863Y43459D01*
X265717Y42984D01*
X264685Y42294D01*
X263808Y41417D01*
X263119Y40385D01*
X262644Y39239D01*
X262402Y38022D01*
Y36781D01*
X262644Y35564D01*
X263119Y34418D01*
X263808Y33386D01*
X264685Y32509D01*
X265717Y31819D01*
X266863Y31344D01*
X268080Y31102D01*
X269321D01*
X270538Y31344D01*
X271685Y31819D01*
X272716Y32509D01*
X273594Y33386D01*
X274283Y34418D01*
X274758Y35564D01*
X275000Y36781D01*
Y38022D01*
X274758Y39239D01*
X274283Y40385D01*
X273594Y41417D01*
X272716Y42294D01*
X271685Y42984D01*
X270538Y43459D01*
X269321Y43701D01*
D02*
G37*
G36*
X216172D02*
X214931D01*
X213714Y43459D01*
X212567Y42984D01*
X211536Y42294D01*
X210658Y41417D01*
X209969Y40385D01*
X209494Y39239D01*
X209252Y38022D01*
Y36781D01*
X209494Y35564D01*
X209969Y34418D01*
X210658Y33386D01*
X211536Y32509D01*
X212567Y31819D01*
X213714Y31344D01*
X214931Y31102D01*
X216172D01*
X217389Y31344D01*
X218535Y31819D01*
X219567Y32509D01*
X220444Y33386D01*
X221133Y34418D01*
X221608Y35564D01*
X221850Y36781D01*
Y38022D01*
X221608Y39239D01*
X221133Y40385D01*
X220444Y41417D01*
X219567Y42294D01*
X218535Y42984D01*
X217389Y43459D01*
X216172Y43701D01*
D02*
G37*
G36*
X357059Y31339D02*
X355539D01*
X354048Y31042D01*
X352644Y30460D01*
X351380Y29616D01*
X350305Y28541D01*
X349461Y27277D01*
X348879Y25873D01*
X348583Y24382D01*
Y22862D01*
X348879Y21371D01*
X349461Y19967D01*
X350305Y18703D01*
X351380Y17628D01*
X352644Y16784D01*
X354048Y16202D01*
X355539Y15905D01*
X357059D01*
X358550Y16202D01*
X359954Y16784D01*
X361218Y17628D01*
X362293Y18703D01*
X363138Y19967D01*
X363719Y21371D01*
X364016Y22862D01*
Y24382D01*
X363719Y25873D01*
X363138Y27277D01*
X362293Y28541D01*
X361218Y29616D01*
X359954Y30460D01*
X358550Y31042D01*
X357059Y31339D01*
D02*
G37*
G36*
X302925Y31339D02*
X301405D01*
X299915Y31042D01*
X298510Y30460D01*
X297246Y29616D01*
X296171Y28541D01*
X295327Y27277D01*
X294745Y25873D01*
X294449Y24382D01*
Y22862D01*
X294745Y21371D01*
X295327Y19967D01*
X296171Y18703D01*
X297246Y17628D01*
X298510Y16784D01*
X299915Y16202D01*
X301405Y15905D01*
X302925D01*
X304416Y16202D01*
X305820Y16784D01*
X307084Y17628D01*
X308159Y18703D01*
X309004Y19967D01*
X309585Y21371D01*
X309882Y22862D01*
Y24382D01*
X309585Y25873D01*
X309004Y27277D01*
X308159Y28541D01*
X307084Y29616D01*
X305820Y30460D01*
X304416Y31042D01*
X302925Y31339D01*
D02*
G37*
G36*
X182847D02*
X181327D01*
X179836Y31042D01*
X178431Y30460D01*
X177168Y29616D01*
X176093Y28541D01*
X175248Y27277D01*
X174667Y25873D01*
X174370Y24382D01*
Y22862D01*
X174667Y21371D01*
X175248Y19967D01*
X176093Y18703D01*
X177168Y17628D01*
X178431Y16784D01*
X179836Y16202D01*
X181327Y15905D01*
X182847D01*
X184337Y16202D01*
X185742Y16784D01*
X187006Y17628D01*
X188080Y18703D01*
X188925Y19967D01*
X189507Y21371D01*
X189803Y22862D01*
Y24382D01*
X189507Y25873D01*
X188925Y27277D01*
X188080Y28541D01*
X187006Y29616D01*
X185742Y30460D01*
X184337Y31042D01*
X182847Y31339D01*
D02*
G37*
G36*
X128713D02*
X127193D01*
X125702Y31042D01*
X124298Y30460D01*
X123034Y29616D01*
X121959Y28541D01*
X121115Y27277D01*
X120533Y25873D01*
X120236Y24382D01*
Y22862D01*
X120533Y21371D01*
X121115Y19967D01*
X121959Y18703D01*
X123034Y17628D01*
X124298Y16784D01*
X125702Y16202D01*
X127193Y15905D01*
X128713D01*
X130204Y16202D01*
X131608Y16784D01*
X132872Y17628D01*
X133947Y18703D01*
X134791Y19967D01*
X135373Y21371D01*
X135669Y22862D01*
Y24382D01*
X135373Y25873D01*
X134791Y27277D01*
X133947Y28541D01*
X132872Y29616D01*
X131608Y30460D01*
X130204Y31042D01*
X128713Y31339D01*
D02*
G37*
G36*
X375748Y29252D02*
X374252D01*
X372784Y28960D01*
X371401Y28387D01*
X370156Y27556D01*
X369098Y26497D01*
X368266Y25253D01*
X367694Y23870D01*
X367402Y22402D01*
Y20905D01*
X367694Y19437D01*
X368266Y18054D01*
X369098Y16810D01*
X370156Y15752D01*
X371401Y14920D01*
X372784Y14347D01*
X374252Y14055D01*
X375748D01*
X377216Y14347D01*
X378599Y14920D01*
X379844Y15752D01*
X380902Y16810D01*
X381734Y18054D01*
X382306Y19437D01*
X382598Y20905D01*
Y22402D01*
X382306Y23870D01*
X381734Y25253D01*
X380902Y26497D01*
X379844Y27556D01*
X378599Y28387D01*
X377216Y28960D01*
X375748Y29252D01*
D02*
G37*
G36*
X338347D02*
X336850D01*
X335382Y28960D01*
X333999Y28387D01*
X332755Y27556D01*
X331696Y26497D01*
X330865Y25253D01*
X330292Y23870D01*
X330000Y22402D01*
Y20905D01*
X330292Y19437D01*
X330865Y18054D01*
X331696Y16810D01*
X332755Y15752D01*
X333999Y14920D01*
X335382Y14347D01*
X336850Y14055D01*
X338347D01*
X339815Y14347D01*
X341198Y14920D01*
X342442Y15752D01*
X343500Y16810D01*
X344332Y18054D01*
X344905Y19437D01*
X345197Y20905D01*
Y22402D01*
X344905Y23870D01*
X344332Y25253D01*
X343500Y26497D01*
X342442Y27556D01*
X341198Y28387D01*
X339815Y28960D01*
X338347Y29252D01*
D02*
G37*
G36*
X321615Y29252D02*
X320118D01*
X318650Y28960D01*
X317267Y28387D01*
X316022Y27556D01*
X314964Y26497D01*
X314132Y25253D01*
X313560Y23870D01*
X313268Y22402D01*
Y20905D01*
X313560Y19437D01*
X314132Y18054D01*
X314964Y16810D01*
X316022Y15752D01*
X317267Y14920D01*
X318650Y14347D01*
X320118Y14055D01*
X321615D01*
X323082Y14347D01*
X324465Y14920D01*
X325710Y15752D01*
X326768Y16810D01*
X327600Y18054D01*
X328173Y19437D01*
X328465Y20905D01*
Y22402D01*
X328173Y23870D01*
X327600Y25253D01*
X326768Y26497D01*
X325710Y27556D01*
X324465Y28387D01*
X323082Y28960D01*
X321615Y29252D01*
D02*
G37*
G36*
X284213D02*
X282716D01*
X281248Y28960D01*
X279865Y28387D01*
X278621Y27556D01*
X277562Y26497D01*
X276731Y25253D01*
X276158Y23870D01*
X275866Y22402D01*
Y20905D01*
X276158Y19437D01*
X276731Y18054D01*
X277562Y16810D01*
X278621Y15752D01*
X279865Y14920D01*
X281248Y14347D01*
X282716Y14055D01*
X284213D01*
X285681Y14347D01*
X287064Y14920D01*
X288308Y15752D01*
X289367Y16810D01*
X290198Y18054D01*
X290771Y19437D01*
X291063Y20905D01*
Y22402D01*
X290771Y23870D01*
X290198Y25253D01*
X289367Y26497D01*
X288308Y27556D01*
X287064Y28387D01*
X285681Y28960D01*
X284213Y29252D01*
D02*
G37*
G36*
X201536D02*
X200039D01*
X198571Y28960D01*
X197188Y28387D01*
X195944Y27556D01*
X194885Y26497D01*
X194054Y25253D01*
X193481Y23870D01*
X193189Y22402D01*
Y20905D01*
X193481Y19437D01*
X194054Y18054D01*
X194885Y16810D01*
X195944Y15752D01*
X197188Y14920D01*
X198571Y14347D01*
X200039Y14055D01*
X201536D01*
X203004Y14347D01*
X204387Y14920D01*
X205631Y15752D01*
X206690Y16810D01*
X207521Y18054D01*
X208094Y19437D01*
X208386Y20905D01*
Y22402D01*
X208094Y23870D01*
X207521Y25253D01*
X206690Y26497D01*
X205631Y27556D01*
X204387Y28387D01*
X203004Y28960D01*
X201536Y29252D01*
D02*
G37*
G36*
X164134D02*
X162637D01*
X161170Y28960D01*
X159787Y28387D01*
X158542Y27556D01*
X157484Y26497D01*
X156652Y25253D01*
X156079Y23870D01*
X155787Y22402D01*
Y20905D01*
X156079Y19437D01*
X156652Y18054D01*
X157484Y16810D01*
X158542Y15752D01*
X159787Y14920D01*
X161170Y14347D01*
X162637Y14055D01*
X164134D01*
X165602Y14347D01*
X166985Y14920D01*
X168229Y15752D01*
X169288Y16810D01*
X170120Y18054D01*
X170692Y19437D01*
X170984Y20905D01*
Y22402D01*
X170692Y23870D01*
X170120Y25253D01*
X169288Y26497D01*
X168229Y27556D01*
X166985Y28387D01*
X165602Y28960D01*
X164134Y29252D01*
D02*
G37*
G36*
X147402D02*
X145905D01*
X144437Y28960D01*
X143054Y28387D01*
X141810Y27556D01*
X140752Y26497D01*
X139920Y25253D01*
X139347Y23870D01*
X139055Y22402D01*
Y20905D01*
X139347Y19437D01*
X139920Y18054D01*
X140752Y16810D01*
X141810Y15752D01*
X143054Y14920D01*
X144437Y14347D01*
X145905Y14055D01*
X147402D01*
X148870Y14347D01*
X150253Y14920D01*
X151497Y15752D01*
X152556Y16810D01*
X153387Y18054D01*
X153960Y19437D01*
X154252Y20905D01*
Y22402D01*
X153960Y23870D01*
X153387Y25253D01*
X152556Y26497D01*
X151497Y27556D01*
X150253Y28387D01*
X148870Y28960D01*
X147402Y29252D01*
D02*
G37*
G36*
X110000D02*
X108504D01*
X107036Y28960D01*
X105653Y28387D01*
X104408Y27556D01*
X103350Y26497D01*
X102518Y25253D01*
X101946Y23870D01*
X101654Y22402D01*
Y20905D01*
X101946Y19437D01*
X102518Y18054D01*
X103350Y16810D01*
X104408Y15752D01*
X105653Y14920D01*
X107036Y14347D01*
X108504Y14055D01*
X110000D01*
X111468Y14347D01*
X112851Y14920D01*
X114096Y15752D01*
X115154Y16810D01*
X115986Y18054D01*
X116558Y19437D01*
X116850Y20905D01*
Y22402D01*
X116558Y23870D01*
X115986Y25253D01*
X115154Y26497D01*
X114096Y27556D01*
X112851Y28387D01*
X111468Y28960D01*
X110000Y29252D01*
D02*
G37*
G36*
X356843Y14961D02*
X355755D01*
X354704Y14679D01*
X353761Y14135D01*
X352991Y13365D01*
X352447Y12422D01*
X352165Y11371D01*
Y10283D01*
X352447Y9231D01*
X352991Y8288D01*
X353761Y7519D01*
X354704Y6975D01*
X355755Y6693D01*
X356843D01*
X357895Y6975D01*
X358837Y7519D01*
X359607Y8288D01*
X360151Y9231D01*
X360433Y10283D01*
Y11371D01*
X360151Y12422D01*
X359607Y13365D01*
X358837Y14135D01*
X357895Y14679D01*
X356843Y14961D01*
D02*
G37*
G36*
X302710Y14961D02*
X301621D01*
X300570Y14679D01*
X299627Y14135D01*
X298857Y13365D01*
X298313Y12422D01*
X298031Y11371D01*
Y10283D01*
X298313Y9231D01*
X298857Y8288D01*
X299627Y7519D01*
X300570Y6975D01*
X301621Y6693D01*
X302710D01*
X303761Y6975D01*
X304704Y7519D01*
X305473Y8288D01*
X306017Y9231D01*
X306299Y10283D01*
Y11371D01*
X306017Y12422D01*
X305473Y13365D01*
X304704Y14135D01*
X303761Y14679D01*
X302710Y14961D01*
D02*
G37*
G36*
X182631D02*
X181542D01*
X180491Y14679D01*
X179548Y14135D01*
X178779Y13365D01*
X178235Y12422D01*
X177953Y11371D01*
Y10283D01*
X178235Y9231D01*
X178779Y8288D01*
X179548Y7519D01*
X180491Y6975D01*
X181542Y6693D01*
X182631D01*
X183682Y6975D01*
X184625Y7519D01*
X185395Y8288D01*
X185939Y9231D01*
X186221Y10283D01*
Y11371D01*
X185939Y12422D01*
X185395Y13365D01*
X184625Y14135D01*
X183682Y14679D01*
X182631Y14961D01*
D02*
G37*
G36*
X128497D02*
X127409D01*
X126357Y14679D01*
X125415Y14135D01*
X124645Y13365D01*
X124101Y12422D01*
X123819Y11371D01*
Y10283D01*
X124101Y9231D01*
X124645Y8288D01*
X125415Y7519D01*
X126357Y6975D01*
X127409Y6693D01*
X128497D01*
X129548Y6975D01*
X130491Y7519D01*
X131261Y8288D01*
X131805Y9231D01*
X132087Y10283D01*
Y11371D01*
X131805Y12422D01*
X131261Y13365D01*
X130491Y14135D01*
X129548Y14679D01*
X128497Y14961D01*
D02*
G37*
%LPD*%
G36*
X294720Y197873D02*
X295438Y197459D01*
X296239Y197244D01*
X297068D01*
X297869Y197459D01*
X297992Y197530D01*
X298425Y197280D01*
Y197244D01*
X302737D01*
X303123Y196859D01*
Y186722D01*
X302661Y186531D01*
X292398Y196794D01*
X292547Y197351D01*
X292948Y197459D01*
X293666Y197873D01*
X294193Y198400D01*
X294720Y197873D01*
D02*
G37*
G36*
X227559Y129724D02*
Y117323D01*
X224410Y114173D01*
X215619D01*
X215354Y114569D01*
Y115352D01*
X215055Y116076D01*
X214501Y116629D01*
X213777Y116929D01*
X212994D01*
X212271Y116629D01*
X211717Y116076D01*
X211417Y115352D01*
Y114569D01*
X211153Y114173D01*
X202756D01*
X199213Y117717D01*
Y129331D01*
X202756Y132874D01*
X211284D01*
X211417Y132675D01*
Y131892D01*
X211717Y131168D01*
X212271Y130615D01*
X212994Y130315D01*
X213777D01*
X214501Y130615D01*
X215055Y131168D01*
X215354Y131892D01*
Y132675D01*
X215487Y132874D01*
X224409D01*
X227559Y129724D01*
D02*
G37*
D14*
X164961Y102362D02*
X171653D01*
X188583Y119291D02*
X194882D01*
X171653Y102362D02*
X188583Y119291D01*
X150565Y144266D02*
Y149384D01*
X189370Y188189D01*
Y193701D01*
X304528Y147902D02*
Y197441D01*
X301575Y200394D02*
X304528Y197441D01*
X302688Y146063D02*
X304528Y147902D01*
X290158Y146063D02*
X302688D01*
X286614Y149606D02*
X290158Y146063D01*
X301378Y149606D02*
Y150461D01*
X302756Y151839D01*
X286811Y200394D02*
X302756Y184449D01*
Y151839D02*
Y184449D01*
D104*
X127953Y10827D02*
D03*
Y321850D02*
D03*
X182087D02*
D03*
X182087Y10827D02*
D03*
X356299Y321850D02*
D03*
X356299Y10827D02*
D03*
X302165Y321850D02*
D03*
X302165Y10827D02*
D03*
D110*
X163779Y75000D02*
D03*
Y79921D02*
D03*
Y84842D02*
D03*
X353839Y209449D02*
D03*
Y214370D02*
D03*
Y219291D02*
D03*
X296654Y200394D02*
D03*
X291732D02*
D03*
X286811D02*
D03*
X291535Y149606D02*
D03*
X296457D02*
D03*
X301378D02*
D03*
D111*
X163779Y89764D02*
D03*
X353839Y204528D02*
D03*
D112*
X301575Y200394D02*
D03*
X286614Y149606D02*
D03*
D113*
X425197Y186221D02*
D03*
X435039D02*
D03*
X444882D02*
D03*
X454724D02*
D03*
X425197Y174409D02*
D03*
X435039D02*
D03*
X444882D02*
D03*
X454724D02*
D03*
X435039Y251181D02*
D03*
X444882D02*
D03*
X454724D02*
D03*
X444882Y239370D02*
D03*
X454724D02*
D03*
X444882Y229528D02*
D03*
X454724D02*
D03*
X444882Y217717D02*
D03*
X454724D02*
D03*
X444882Y207874D02*
D03*
X454724D02*
D03*
X444882Y196063D02*
D03*
X454724D02*
D03*
X425197Y251181D02*
D03*
Y239370D02*
D03*
Y229528D02*
D03*
Y217717D02*
D03*
Y207874D02*
D03*
Y196063D02*
D03*
X435039D02*
D03*
Y239370D02*
D03*
Y229528D02*
D03*
Y217717D02*
D03*
Y207874D02*
D03*
X438779Y154016D02*
D03*
X448779D02*
D03*
X428780D02*
D03*
Y144016D02*
D03*
X438779D02*
D03*
X448779D02*
D03*
X428780Y134016D02*
D03*
X438779D02*
D03*
X448779D02*
D03*
X428780Y124016D02*
D03*
X438779D02*
D03*
X448779D02*
D03*
X428780Y114016D02*
D03*
X438779D02*
D03*
X448779D02*
D03*
X428780Y104016D02*
D03*
X438779D02*
D03*
X448779D02*
D03*
X428780Y94016D02*
D03*
X438779D02*
D03*
X448779D02*
D03*
X428780Y84016D02*
D03*
X438779D02*
D03*
X448779D02*
D03*
X59055Y148228D02*
D03*
X49213D02*
D03*
X39370D02*
D03*
X29528D02*
D03*
X59055Y160039D02*
D03*
X49213D02*
D03*
X39370D02*
D03*
X29528D02*
D03*
X49213Y83268D02*
D03*
X39370D02*
D03*
X29528D02*
D03*
X39370Y95079D02*
D03*
X29528D02*
D03*
X39370Y104921D02*
D03*
X29528D02*
D03*
X39370Y116732D02*
D03*
X29528D02*
D03*
X39370Y126575D02*
D03*
X29528D02*
D03*
X39370Y138386D02*
D03*
X29528D02*
D03*
X59055Y83268D02*
D03*
Y95079D02*
D03*
Y104921D02*
D03*
Y116732D02*
D03*
Y126575D02*
D03*
Y138386D02*
D03*
X49213D02*
D03*
Y95079D02*
D03*
Y104921D02*
D03*
Y116732D02*
D03*
Y126575D02*
D03*
X45472Y180433D02*
D03*
X35472D02*
D03*
X55472D02*
D03*
Y190433D02*
D03*
X45472D02*
D03*
X35472D02*
D03*
X55472Y200433D02*
D03*
X45472D02*
D03*
X35472D02*
D03*
X55472Y210433D02*
D03*
X45472D02*
D03*
X35472D02*
D03*
X55472Y220433D02*
D03*
X45472D02*
D03*
X35472D02*
D03*
X55472Y230433D02*
D03*
X45472D02*
D03*
X35472D02*
D03*
X55472Y240433D02*
D03*
X45472D02*
D03*
X35472D02*
D03*
X55472Y250433D02*
D03*
X45472D02*
D03*
X35472D02*
D03*
D114*
X227953Y271654D02*
D03*
X256299D02*
D03*
Y61024D02*
D03*
X227953D02*
D03*
D115*
X268701Y295276D02*
D03*
X215551D02*
D03*
Y37402D02*
D03*
X268701D02*
D03*
D116*
X326693Y139139D02*
D03*
X326193Y193539D02*
D03*
D117*
X146653Y21654D02*
D03*
Y40157D02*
D03*
X109252Y21654D02*
D03*
Y40157D02*
D03*
Y311024D02*
D03*
Y292520D02*
D03*
X146653Y311024D02*
D03*
Y292520D02*
D03*
X163386Y311024D02*
D03*
Y292520D02*
D03*
X200787Y311024D02*
D03*
Y292520D02*
D03*
X200787Y21654D02*
D03*
Y40157D02*
D03*
X163386Y21654D02*
D03*
Y40157D02*
D03*
X337598Y311024D02*
D03*
Y292520D02*
D03*
X375000Y311024D02*
D03*
Y292520D02*
D03*
X375000Y21654D02*
D03*
Y40157D02*
D03*
X337598Y21654D02*
D03*
Y40157D02*
D03*
X283465Y311024D02*
D03*
Y292520D02*
D03*
X320866Y311024D02*
D03*
Y292520D02*
D03*
X320866Y21654D02*
D03*
Y40157D02*
D03*
X283465Y21654D02*
D03*
Y40157D02*
D03*
D118*
X127953Y23622D02*
D03*
Y309055D02*
D03*
X182087D02*
D03*
X182087Y23622D02*
D03*
X356299Y309055D02*
D03*
X356299Y23622D02*
D03*
X302165Y309055D02*
D03*
X302165Y23622D02*
D03*
D119*
X127953Y47244D02*
D03*
Y285433D02*
D03*
X182087D02*
D03*
X182087Y47244D02*
D03*
X356299Y285433D02*
D03*
X356299Y47244D02*
D03*
X302165Y285433D02*
D03*
X302165Y47244D02*
D03*
D120*
X321260Y130315D02*
D03*
X180315Y99213D02*
D03*
X176378D02*
D03*
X178347Y102756D02*
D03*
X148425Y84252D02*
D03*
X168110Y74016D02*
D03*
Y77559D02*
D03*
X159055Y77165D02*
D03*
Y81102D02*
D03*
Y85039D02*
D03*
X160236Y133071D02*
D03*
X160433Y197835D02*
D03*
Y189961D02*
D03*
X205118Y156299D02*
D03*
X204331Y131496D02*
D03*
X208661Y131890D02*
D03*
X222441Y131496D02*
D03*
X226378Y127953D02*
D03*
X141732Y134843D02*
D03*
X213386Y132283D02*
D03*
X218110Y131496D02*
D03*
X204724Y102756D02*
D03*
X200787D02*
D03*
X229921Y121260D02*
D03*
X208661Y136811D02*
D03*
X222441Y116142D02*
D03*
X218110D02*
D03*
X206299Y152362D02*
D03*
X213386Y114961D02*
D03*
X261024Y209842D02*
D03*
X126250Y169783D02*
D03*
X120276Y169783D02*
D03*
X125515Y104406D02*
D03*
X120480Y104342D02*
D03*
X105413Y76772D02*
D03*
X363386Y229921D02*
D03*
X358268Y229942D02*
D03*
X359055Y165354D02*
D03*
X363189D02*
D03*
X339075Y256299D02*
D03*
X160433Y213583D02*
D03*
X324803Y105709D02*
D03*
X212992Y94488D02*
D03*
X209055Y96850D02*
D03*
X222260Y90251D02*
D03*
X205118Y99213D02*
D03*
X316929Y255118D02*
D03*
X274449Y257835D02*
D03*
X281323Y256079D02*
D03*
X277461Y266634D02*
D03*
X277362Y262697D02*
D03*
X270768Y262500D02*
D03*
X261611Y255121D02*
D03*
X270768Y267618D02*
D03*
X277714Y275394D02*
D03*
X277615Y271457D02*
D03*
X271260Y248031D02*
D03*
X258268Y244213D02*
D03*
X227362Y247146D02*
D03*
X271260Y242815D02*
D03*
X270669Y256890D02*
D03*
X258268Y248031D02*
D03*
X345768Y159547D02*
D03*
X227362Y243110D02*
D03*
X324803Y82087D02*
D03*
Y89961D02*
D03*
Y97835D02*
D03*
Y121457D02*
D03*
Y113583D02*
D03*
X160433Y245079D02*
D03*
Y237205D02*
D03*
X150591Y245079D02*
D03*
Y221457D02*
D03*
X160433D02*
D03*
X150591Y213583D02*
D03*
X160433Y205709D02*
D03*
X260236Y91535D02*
D03*
X254921Y97342D02*
D03*
X264961Y91535D02*
D03*
X263386Y102362D02*
D03*
X268110D02*
D03*
X227854Y86122D02*
D03*
Y89735D02*
D03*
X155636Y87953D02*
D03*
X152953Y84941D02*
D03*
X127953Y137795D02*
D03*
X158427Y117558D02*
D03*
X127953Y132874D02*
D03*
Y127953D02*
D03*
X343701Y130709D02*
D03*
X338976D02*
D03*
X334646D02*
D03*
X151969Y111417D02*
D03*
X152756Y116929D02*
D03*
X166929Y258268D02*
D03*
X164961Y98425D02*
D03*
X189269Y184747D02*
D03*
X189370Y193701D02*
D03*
X150565Y144266D02*
D03*
X153040Y137795D02*
D03*
X278346Y165354D02*
D03*
Y173622D02*
D03*
Y169291D02*
D03*
X278740Y135039D02*
D03*
X275197Y138583D02*
D03*
X274803Y104675D02*
D03*
X200787Y98425D02*
D03*
X205906Y77953D02*
D03*
X277165Y96063D02*
D03*
X279999Y120079D02*
D03*
X274420Y123640D02*
D03*
X302362Y239764D02*
D03*
X279528Y238189D02*
D03*
X308661Y228740D02*
D03*
X311811Y249213D02*
D03*
X149606Y172047D02*
D03*
X150591Y176181D02*
D03*
X160433Y169291D02*
D03*
X274016Y234252D02*
D03*
X271260Y231496D02*
D03*
X270866Y236221D02*
D03*
X281496Y153150D02*
D03*
X278543Y150591D02*
D03*
Y155512D02*
D03*
X160433Y179134D02*
D03*
Y174213D02*
D03*
X153746Y97829D02*
D03*
X164961Y102362D02*
D03*
X217520Y148622D02*
D03*
X217520Y154528D02*
D03*
X217520Y184055D02*
D03*
X217520Y178150D02*
D03*
X217520Y160433D02*
D03*
X217520Y166339D02*
D03*
X194882Y119291D02*
D03*
X150591Y197835D02*
D03*
X335039Y198425D02*
D03*
X170866Y85827D02*
D03*
X209055Y87402D02*
D03*
X205512Y84646D02*
D03*
X277953Y212513D02*
D03*
X281151Y214961D02*
D03*
X278120Y217319D02*
D03*
X277559Y201181D02*
D03*
X277440Y126792D02*
D03*
X155512Y66142D02*
D03*
X155315Y107779D02*
D03*
X226378Y123622D02*
D03*
Y119291D02*
D03*
X208661Y116142D02*
D03*
X204331D02*
D03*
X229921Y126772D02*
D03*
X200394Y127953D02*
D03*
Y123622D02*
D03*
Y119291D02*
D03*
X277165Y192520D02*
D03*
X268110Y183891D02*
D03*
X223425Y191929D02*
D03*
X127953Y118110D02*
D03*
Y123031D02*
D03*
X339567Y194882D02*
D03*
X326772Y220472D02*
D03*
X336614D02*
D03*
Y224410D02*
D03*
X326772D02*
D03*
X197835Y140748D02*
D03*
X188976Y155512D02*
D03*
Y167323D02*
D03*
Y173228D02*
D03*
Y179134D02*
D03*
X281890Y181496D02*
D03*
X274606Y130905D02*
D03*
X224410Y77756D02*
D03*
X211614D02*
D03*
X277559Y83661D02*
D03*
X273622Y87598D02*
D03*
X269685Y91535D02*
D03*
X280512Y92520D02*
D03*
X273622Y205709D02*
D03*
X279528Y228346D02*
D03*
Y233268D02*
D03*
X206693Y255906D02*
D03*
X211614D02*
D03*
X208661Y224410D02*
D03*
X212598Y232283D02*
D03*
X207677D02*
D03*
X214567Y241142D02*
D03*
X209646D02*
D03*
X204724D02*
D03*
X261811Y151575D02*
D03*
X261811Y157480D02*
D03*
X261811Y163386D02*
D03*
X261811Y169291D02*
D03*
X220472Y163386D02*
D03*
X220472Y169291D02*
D03*
X217520Y172244D02*
D03*
X150591Y186024D02*
D03*
Y168307D02*
D03*
X154637Y121457D02*
D03*
X204724Y220472D02*
D03*
X222441Y244094D02*
D03*
X232283Y232283D02*
D03*
X149606Y87402D02*
D03*
X251969Y146850D02*
D03*
X218110Y141339D02*
D03*
X227953Y94882D02*
D03*
X268898Y224803D02*
D03*
X265786Y227991D02*
D03*
X277953Y196063D02*
D03*
X156693Y259055D02*
D03*
X331693Y143701D02*
D03*
Y149606D02*
D03*
X106102Y195866D02*
D03*
X377953Y143701D02*
D03*
Y149606D02*
D03*
X151575Y259055D02*
D03*
X262992Y231496D02*
D03*
X277440Y101456D02*
D03*
X264173Y174016D02*
D03*
X141732Y115748D02*
D03*
X152362Y105118D02*
D03*
X155219Y102261D02*
D03*
X258661Y141732D02*
D03*
X281102Y219685D02*
D03*
X277953Y222047D02*
D03*
X253937Y189370D02*
D03*
X257087Y191732D02*
D03*
X250394Y187402D02*
D03*
X246850Y189509D02*
D03*
X243701Y192126D02*
D03*
X204095Y175984D02*
D03*
X206299Y166732D02*
D03*
X255512Y144488D02*
D03*
X245276Y141732D02*
D03*
X248425Y144488D02*
D03*
X253543Y114961D02*
D03*
Y74803D02*
D03*
D121*
X230062Y155559D02*
D03*
Y179181D02*
D03*
X230315Y163386D02*
D03*
Y171260D02*
D03*
X253684Y155559D02*
D03*
X253937Y179134D02*
D03*
X246063Y155512D02*
D03*
X238189D02*
D03*
X253937Y163386D02*
D03*
Y171260D02*
D03*
X246063Y179134D02*
D03*
Y163386D02*
D03*
X238189D02*
D03*
Y179134D02*
D03*
X246063Y171260D02*
D03*
X238189D02*
D03*
X437992Y26575D02*
D03*
Y18701D02*
D03*
Y10827D02*
D03*
X445866Y30512D02*
D03*
X390307Y11053D02*
D03*
X398622Y6890D02*
D03*
Y14764D02*
D03*
Y22638D02*
D03*
X390307Y18927D02*
D03*
Y26801D02*
D03*
X406496Y26575D02*
D03*
X422244D02*
D03*
Y18701D02*
D03*
Y10827D02*
D03*
X414370Y6890D02*
D03*
Y14764D02*
D03*
Y22638D02*
D03*
Y30512D02*
D03*
X430118Y6890D02*
D03*
Y14764D02*
D03*
Y22638D02*
D03*
Y30512D02*
D03*
X398622D02*
D03*
X406496Y18701D02*
D03*
Y10827D02*
D03*
X445866Y14764D02*
D03*
Y22638D02*
D03*
Y6890D02*
D03*
X78740Y322835D02*
D03*
Y314961D02*
D03*
Y307087D02*
D03*
X86614Y326772D02*
D03*
X39370Y303150D02*
D03*
Y311024D02*
D03*
Y318898D02*
D03*
X47244Y322835D02*
D03*
X62992D02*
D03*
Y314961D02*
D03*
Y307087D02*
D03*
X55118Y303150D02*
D03*
Y311024D02*
D03*
Y318898D02*
D03*
Y326772D02*
D03*
X70866Y303150D02*
D03*
Y311024D02*
D03*
Y318898D02*
D03*
Y326772D02*
D03*
X39370D02*
D03*
X47244Y314961D02*
D03*
Y307087D02*
D03*
X86614Y311024D02*
D03*
Y318898D02*
D03*
X94488Y307087D02*
D03*
Y322835D02*
D03*
X86614Y303150D02*
D03*
X94488Y314961D02*
D03*
X437992Y321850D02*
D03*
Y313976D02*
D03*
Y306102D02*
D03*
X445866Y325787D02*
D03*
X390307Y306328D02*
D03*
X398622Y302165D02*
D03*
Y310039D02*
D03*
Y317913D02*
D03*
X390307Y314202D02*
D03*
Y322076D02*
D03*
X406496Y321850D02*
D03*
X422244D02*
D03*
Y313976D02*
D03*
Y306102D02*
D03*
X414370Y302165D02*
D03*
Y310039D02*
D03*
Y317913D02*
D03*
Y325787D02*
D03*
X430118Y302165D02*
D03*
Y310039D02*
D03*
Y317913D02*
D03*
Y325787D02*
D03*
X398622D02*
D03*
X406496Y313976D02*
D03*
Y306102D02*
D03*
X445866Y310039D02*
D03*
Y317913D02*
D03*
Y302165D02*
D03*
X38386Y30512D02*
D03*
Y14764D02*
D03*
Y22638D02*
D03*
X77756Y26575D02*
D03*
Y18701D02*
D03*
X85630Y6890D02*
D03*
X54134D02*
D03*
Y14764D02*
D03*
Y22638D02*
D03*
Y30512D02*
D03*
X69882Y6890D02*
D03*
Y14764D02*
D03*
Y22638D02*
D03*
Y30512D02*
D03*
X62008Y26575D02*
D03*
Y18701D02*
D03*
Y10827D02*
D03*
X77756D02*
D03*
X93945Y10601D02*
D03*
Y18475D02*
D03*
X85630Y14764D02*
D03*
Y22638D02*
D03*
Y30512D02*
D03*
X93945Y26349D02*
D03*
X38386Y6890D02*
D03*
X46260Y26575D02*
D03*
Y18701D02*
D03*
Y10827D02*
D03*
D122*
X393701Y166339D02*
D03*
X90551D02*
D03*
X393701Y242126D02*
D03*
Y90551D02*
D03*
X90551Y242126D02*
D03*
X464567Y19685D02*
D03*
Y312992D02*
D03*
X90551Y90551D02*
D03*
X19685Y19685D02*
D03*
Y312992D02*
D03*
M02*
