G04*
G04 #@! TF.GenerationSoftware,Altium Limited,Altium Designer,21.3.1 (25)*
G04*
G04 Layer_Color=16711935*
%FSLAX25Y25*%
%MOIN*%
G70*
G04*
G04 #@! TF.SameCoordinates,B8EFB4BC-30DA-42F7-88CE-EC59C6869F36*
G04*
G04*
G04 #@! TF.FilePolarity,Positive*
G04*
G01*
G75*
%ADD10C,0.01000*%
%ADD11C,0.00394*%
%ADD130C,0.00236*%
D10*
X23622Y332677D02*
X22619Y332656D01*
X21619Y332592D01*
X20622Y332486D01*
X19630Y332337D01*
X18645Y332147D01*
X17670Y331915D01*
X16705Y331642D01*
X15753Y331328D01*
X14814Y330974D01*
X13892Y330580D01*
X12987Y330148D01*
X12102Y329678D01*
X11237Y329170D01*
X10394Y328626D01*
X9576Y328047D01*
X8782Y327434D01*
X8016Y326787D01*
X7277Y326109D01*
X6568Y325400D01*
X5890Y324662D01*
X5243Y323895D01*
X4630Y323102D01*
X4051Y322283D01*
X3507Y321440D01*
X3000Y320575D01*
X2529Y319690D01*
X2097Y318785D01*
X1703Y317863D01*
X1349Y316925D01*
X1035Y315972D01*
X762Y315007D01*
X530Y314032D01*
X340Y313047D01*
X191Y312055D01*
X85Y311058D01*
X21Y310058D01*
X0Y309055D01*
X484252D02*
X484231Y310058D01*
X484167Y311058D01*
X484061Y312055D01*
X483912Y313047D01*
X483722Y314032D01*
X483490Y315007D01*
X483216Y315972D01*
X482903Y316925D01*
X482549Y317863D01*
X482155Y318785D01*
X481723Y319690D01*
X481252Y320575D01*
X480745Y321440D01*
X480201Y322283D01*
X479622Y323102D01*
X479009Y323895D01*
X478362Y324662D01*
X477684Y325400D01*
X476975Y326109D01*
X476236Y326787D01*
X475470Y327434D01*
X474676Y328047D01*
X473858Y328626D01*
X473015Y329170D01*
X472150Y329678D01*
X471265Y330148D01*
X470360Y330580D01*
X469438Y330974D01*
X468499Y331328D01*
X467547Y331642D01*
X466582Y331915D01*
X465607Y332147D01*
X464622Y332337D01*
X463630Y332486D01*
X462633Y332592D01*
X461632Y332656D01*
X460630Y332677D01*
Y0D02*
X461632Y21D01*
X462633Y85D01*
X463630Y191D01*
X464622Y340D01*
X465607Y530D01*
X466582Y762D01*
X467547Y1035D01*
X468499Y1349D01*
X469438Y1703D01*
X470360Y2097D01*
X471265Y2529D01*
X472150Y3000D01*
X473015Y3507D01*
X473858Y4051D01*
X474676Y4630D01*
X475470Y5243D01*
X476236Y5890D01*
X476975Y6568D01*
X477684Y7277D01*
X478362Y8016D01*
X479009Y8782D01*
X479622Y9576D01*
X480201Y10394D01*
X480745Y11237D01*
X481252Y12102D01*
X481723Y12987D01*
X482155Y13892D01*
X482549Y14814D01*
X482903Y15753D01*
X483216Y16705D01*
X483490Y17670D01*
X483722Y18645D01*
X483912Y19630D01*
X484061Y20622D01*
X484167Y21619D01*
X484231Y22619D01*
X484252Y23622D01*
X0D02*
X21Y22619D01*
X85Y21619D01*
X191Y20622D01*
X340Y19630D01*
X530Y18645D01*
X762Y17670D01*
X1035Y16705D01*
X1349Y15753D01*
X1703Y14814D01*
X2097Y13892D01*
X2529Y12987D01*
X3000Y12102D01*
X3507Y11237D01*
X4051Y10394D01*
X4630Y9576D01*
X5243Y8782D01*
X5890Y8016D01*
X6568Y7277D01*
X7277Y6568D01*
X8016Y5890D01*
X8782Y5243D01*
X9576Y4630D01*
X10394Y4051D01*
X11237Y3507D01*
X12102Y3000D01*
X12987Y2529D01*
X13892Y2097D01*
X14814Y1703D01*
X15753Y1349D01*
X16705Y1035D01*
X17670Y762D01*
X18645Y530D01*
X19630Y340D01*
X20622Y191D01*
X21619Y85D01*
X22619Y21D01*
X23622Y0D01*
X460630D01*
X484252Y23622D02*
Y309055D01*
X23622Y332677D02*
X460630D01*
X0Y23622D02*
Y309055D01*
D11*
X180102Y106681D02*
X177806D01*
X177347Y106222D01*
Y105304D01*
X177806Y104844D01*
X180102D01*
X179642Y103926D02*
X180102Y103467D01*
Y102549D01*
X179642Y102089D01*
X179183D01*
X178724Y102549D01*
Y103008D01*
Y102549D01*
X178265Y102089D01*
X177806D01*
X177347Y102549D01*
Y103467D01*
X177806Y103926D01*
D130*
X176485Y206949D02*
X177797D01*
X178059Y207211D01*
Y207736D01*
X177797Y207998D01*
X176485D01*
X178059Y209573D02*
Y208523D01*
X177009Y209573D01*
X176747D01*
X176485Y209310D01*
Y208786D01*
X176747Y208523D01*
M02*
