G04*
G04 #@! TF.GenerationSoftware,Altium Limited,Altium Designer,21.3.1 (25)*
G04*
G04 Layer_Physical_Order=1*
G04 Layer_Color=255*
%FSLAX25Y25*%
%MOIN*%
G70*
G04*
G04 #@! TF.SameCoordinates,B8EFB4BC-30DA-42F7-88CE-EC59C6869F36*
G04*
G04*
G04 #@! TF.FilePolarity,Positive*
G04*
G01*
G75*
%ADD10C,0.01000*%
%ADD14C,0.00787*%
%ADD17R,0.03937X0.03740*%
%ADD18R,0.01968X0.03937*%
%ADD19R,0.03858X0.03071*%
%ADD20R,0.03071X0.03858*%
%ADD21R,0.02362X0.01181*%
%ADD22R,0.01181X0.02362*%
%ADD23R,0.07087X0.04528*%
G04:AMPARAMS|DCode=24|XSize=61.81mil|YSize=74.41mil|CornerRadius=1.85mil|HoleSize=0mil|Usage=FLASHONLY|Rotation=270.000|XOffset=0mil|YOffset=0mil|HoleType=Round|Shape=RoundedRectangle|*
%AMROUNDEDRECTD24*
21,1,0.06181,0.07070,0,0,270.0*
21,1,0.05810,0.07441,0,0,270.0*
1,1,0.00371,-0.03535,-0.02905*
1,1,0.00371,-0.03535,0.02905*
1,1,0.00371,0.03535,0.02905*
1,1,0.00371,0.03535,-0.02905*
%
%ADD24ROUNDEDRECTD24*%
G04:AMPARAMS|DCode=25|XSize=17.72mil|YSize=53.15mil|CornerRadius=1.95mil|HoleSize=0mil|Usage=FLASHONLY|Rotation=0.000|XOffset=0mil|YOffset=0mil|HoleType=Round|Shape=RoundedRectangle|*
%AMROUNDEDRECTD25*
21,1,0.01772,0.04925,0,0,0.0*
21,1,0.01382,0.05315,0,0,0.0*
1,1,0.00390,0.00691,-0.02463*
1,1,0.00390,-0.00691,-0.02463*
1,1,0.00390,-0.00691,0.02463*
1,1,0.00390,0.00691,0.02463*
%
%ADD25ROUNDEDRECTD25*%
G04:AMPARAMS|DCode=26|XSize=25.59mil|YSize=47.24mil|CornerRadius=1.92mil|HoleSize=0mil|Usage=FLASHONLY|Rotation=180.000|XOffset=0mil|YOffset=0mil|HoleType=Round|Shape=RoundedRectangle|*
%AMROUNDEDRECTD26*
21,1,0.02559,0.04341,0,0,180.0*
21,1,0.02175,0.04724,0,0,180.0*
1,1,0.00384,-0.01088,0.02170*
1,1,0.00384,0.01088,0.02170*
1,1,0.00384,0.01088,-0.02170*
1,1,0.00384,-0.01088,-0.02170*
%
%ADD26ROUNDEDRECTD26*%
%ADD27R,0.03937X0.03347*%
%ADD28R,0.04173X0.04173*%
%ADD29R,0.05118X0.07874*%
%ADD30R,0.03937X0.01181*%
%ADD31R,0.04528X0.07087*%
%ADD32R,0.03189X0.21299*%
%ADD33R,0.03937X0.04724*%
%ADD34R,0.03740X0.03937*%
%ADD35R,0.04173X0.04173*%
%ADD36R,0.02362X0.00984*%
%ADD37R,0.03543X0.05315*%
%ADD38R,0.01968X0.04134*%
%ADD39R,0.02362X0.03150*%
%ADD40R,0.01968X0.03150*%
%ADD41R,0.09843X0.02559*%
%ADD42R,0.06004X0.02559*%
%ADD43R,0.05807X0.01772*%
%ADD44R,0.02756X0.07579*%
%ADD45R,0.11614X0.07953*%
%ADD46R,0.04016X0.05787*%
%ADD47R,0.04016X0.07165*%
%ADD48R,0.05787X0.04016*%
%ADD49R,0.05512X0.08268*%
%ADD50R,0.01181X0.05512*%
%ADD51R,0.05512X0.01181*%
%ADD52R,0.02913X0.10984*%
%ADD53R,0.05906X0.01181*%
%ADD54R,0.01181X0.04724*%
%ADD55R,0.04724X0.01181*%
%ADD69R,0.03150X0.03150*%
%ADD104C,0.03150*%
%ADD107C,0.01181*%
%ADD108C,0.01968*%
%ADD109C,0.00591*%
%ADD110C,0.04331*%
%ADD111R,0.04331X0.04331*%
%ADD112R,0.04331X0.04331*%
%ADD113C,0.06319*%
%ADD114C,0.15945*%
%ADD115C,0.10630*%
%ADD116C,0.07874*%
%ADD117C,0.13228*%
%ADD118C,0.13465*%
%ADD119C,0.10039*%
%ADD120C,0.02756*%
%ADD121C,0.05000*%
%ADD122C,0.23622*%
G36*
X379921Y326772D02*
Y316960D01*
X379421Y316735D01*
X378413Y317408D01*
X377101Y317951D01*
X375710Y318228D01*
X374290D01*
X372899Y317951D01*
X371587Y317408D01*
X370407Y316620D01*
X369404Y315616D01*
X368615Y314436D01*
X368072Y313125D01*
X367795Y311733D01*
Y310314D01*
X368072Y308922D01*
X368615Y307611D01*
X369404Y306431D01*
X370407Y305427D01*
X371587Y304639D01*
X372899Y304096D01*
X374290Y303819D01*
X375710D01*
X377101Y304096D01*
X378413Y304639D01*
X379421Y305313D01*
X379921Y305087D01*
Y301181D01*
X377870Y299129D01*
X377101Y299447D01*
X375710Y299724D01*
X374290D01*
X372899Y299447D01*
X371587Y298904D01*
X370407Y298116D01*
X369535Y297244D01*
X343063D01*
X342191Y298116D01*
X341011Y298904D01*
X339700Y299447D01*
X338308Y299724D01*
X336889D01*
X335497Y299447D01*
X334186Y298904D01*
X333006Y298116D01*
X332134Y297244D01*
X326331D01*
X325459Y298116D01*
X324279Y298904D01*
X322968Y299447D01*
X321576Y299724D01*
X320157D01*
X318765Y299447D01*
X317453Y298904D01*
X316273Y298116D01*
X315402Y297244D01*
X297244D01*
X291022Y291022D01*
X290562Y291269D01*
X290669Y291810D01*
Y293229D01*
X290392Y294621D01*
X289849Y295932D01*
X289061Y297112D01*
X288057Y298116D01*
X286877Y298904D01*
X285566Y299447D01*
X284174Y299724D01*
X282755D01*
X281363Y299447D01*
X280052Y298904D01*
X278872Y298116D01*
X277868Y297112D01*
X277080Y295932D01*
X276537Y294621D01*
X276260Y293229D01*
Y291810D01*
X276537Y290418D01*
X277080Y289107D01*
X277868Y287927D01*
X278872Y286923D01*
X280052Y286135D01*
X281363Y285592D01*
X282755Y285315D01*
X284174D01*
X284716Y285423D01*
X284962Y284962D01*
X277362Y277362D01*
X277322D01*
X276599Y277063D01*
X276045Y276509D01*
X275745Y275785D01*
Y275745D01*
X263779Y263779D01*
X233151D01*
X233006Y264258D01*
X233662Y264696D01*
X234910Y265944D01*
X235890Y267411D01*
X236565Y269041D01*
X236910Y270771D01*
Y272536D01*
X236565Y274266D01*
X235890Y275896D01*
X234910Y277363D01*
X233662Y278611D01*
X232195Y279591D01*
X230565Y280266D01*
X228835Y280610D01*
X227071D01*
X225340Y280266D01*
X223710Y279591D01*
X222243Y278611D01*
X220996Y277363D01*
X220015Y275896D01*
X219340Y274266D01*
X218996Y272536D01*
Y270771D01*
X219340Y269041D01*
X220015Y267411D01*
X220996Y265944D01*
X222243Y264696D01*
X222899Y264258D01*
X222754Y263779D01*
X220472D01*
X199290Y284962D01*
X199536Y285423D01*
X200078Y285315D01*
X201497D01*
X202889Y285592D01*
X204200Y286135D01*
X205380Y286923D01*
X206384Y287927D01*
X207172Y289107D01*
X207715Y290418D01*
X207992Y291810D01*
Y293229D01*
X207715Y294621D01*
X207172Y295932D01*
X206384Y297112D01*
X205380Y298116D01*
X204200Y298904D01*
X202889Y299447D01*
X201497Y299724D01*
X200078D01*
X198686Y299447D01*
X197375Y298904D01*
X196195Y298116D01*
X195191Y297112D01*
X194403Y295932D01*
X193860Y294621D01*
X193583Y293229D01*
Y291810D01*
X193690Y291269D01*
X193230Y291022D01*
X187008Y297244D01*
X168850D01*
X167979Y298116D01*
X166798Y298904D01*
X165487Y299447D01*
X164095Y299724D01*
X162676D01*
X161284Y299447D01*
X159973Y298904D01*
X158793Y298116D01*
X157921Y297244D01*
X152118D01*
X151246Y298116D01*
X150066Y298904D01*
X148755Y299447D01*
X147363Y299724D01*
X145944D01*
X144552Y299447D01*
X143241Y298904D01*
X142061Y298116D01*
X141189Y297244D01*
X114717D01*
X113845Y298116D01*
X112665Y298904D01*
X111354Y299447D01*
X109962Y299724D01*
X108542D01*
X107150Y299447D01*
X106382Y299129D01*
X104331Y301181D01*
Y305087D01*
X104831Y305313D01*
X105839Y304639D01*
X107150Y304096D01*
X108542Y303819D01*
X109962D01*
X111354Y304096D01*
X112665Y304639D01*
X113845Y305427D01*
X114848Y306431D01*
X115637Y307611D01*
X116180Y308922D01*
X116457Y310314D01*
Y311733D01*
X116180Y313125D01*
X115637Y314436D01*
X114848Y315616D01*
X113845Y316620D01*
X112665Y317408D01*
X111354Y317951D01*
X109962Y318228D01*
X108542D01*
X107150Y317951D01*
X105839Y317408D01*
X104831Y316735D01*
X104331Y316960D01*
Y326772D01*
X108268Y330709D01*
X375984D01*
X379921Y326772D01*
D02*
G37*
G36*
X185016Y201985D02*
X185016Y201985D01*
X185108Y201524D01*
X185369Y201134D01*
X190438Y196065D01*
X190422Y195934D01*
X189883Y195619D01*
X189762Y195669D01*
X188979D01*
X188255Y195370D01*
X187701Y194816D01*
X187402Y194092D01*
Y193309D01*
X187448Y193198D01*
X186395Y192145D01*
X182874D01*
Y193405D01*
X177756D01*
X177717Y193465D01*
Y193465D01*
X172677D01*
Y189213D01*
X173993D01*
Y187858D01*
X157543D01*
Y189206D01*
X168027Y199690D01*
X168288Y200080D01*
X168379Y200541D01*
Y201699D01*
X174670Y207990D01*
X174932Y208381D01*
X175023Y208841D01*
Y212311D01*
X175212Y212349D01*
X175471Y212522D01*
X175644Y212780D01*
X175704Y213086D01*
Y217426D01*
X175663Y217634D01*
X175846Y217977D01*
X175976Y218134D01*
X178126D01*
Y218209D01*
X179311D01*
Y217323D01*
X179388Y216939D01*
X179414Y216900D01*
Y213086D01*
X179474Y212780D01*
X179648Y212522D01*
X179906Y212349D01*
X180212Y212288D01*
X182387D01*
X182692Y212349D01*
X182951Y212522D01*
X183124Y212780D01*
X183185Y213086D01*
Y217426D01*
X183124Y217731D01*
X183082Y217795D01*
X182874Y218209D01*
Y222736D01*
X178126D01*
Y223205D01*
X175697D01*
Y220669D01*
X175197D01*
Y220169D01*
X172268D01*
Y218134D01*
X172172Y217994D01*
X172167Y217990D01*
X171994Y217731D01*
X171933Y217426D01*
Y213086D01*
X171994Y212780D01*
X172167Y212522D01*
X172426Y212349D01*
X172615Y212311D01*
Y209340D01*
X166324Y203049D01*
X166063Y202659D01*
X165971Y202198D01*
X165971Y202198D01*
Y201040D01*
X155487Y190556D01*
X155226Y190166D01*
X155134Y189705D01*
X155134Y189705D01*
Y187152D01*
X145546Y177564D01*
X145285Y177173D01*
X145193Y176712D01*
X145193Y176712D01*
Y168563D01*
X145193Y168563D01*
X145285Y168103D01*
X145546Y167712D01*
X148548Y164710D01*
X148548Y164710D01*
X148938Y164449D01*
X149399Y164357D01*
X151853D01*
X160507Y155704D01*
X160897Y155443D01*
X161358Y155351D01*
X177520D01*
X177520Y155351D01*
X177980Y155443D01*
X178178Y155574D01*
X178678Y155331D01*
Y137326D01*
X178678Y137326D01*
X178769Y136865D01*
X179030Y136474D01*
X179881Y135623D01*
Y120039D01*
X178779D01*
Y115000D01*
X180297D01*
X180504Y114500D01*
X179605Y113602D01*
X179388Y113276D01*
X179374Y113204D01*
X178935D01*
X178629Y113143D01*
X178369Y112970D01*
X178324D01*
X178064Y113143D01*
X177758Y113204D01*
X176376D01*
X176069Y113143D01*
X175810Y112970D01*
X175765D01*
X175505Y113143D01*
X175199Y113204D01*
X173817D01*
X173511Y113143D01*
X173251Y112970D01*
X173077Y112710D01*
X173042Y112534D01*
X172638Y112303D01*
X167520D01*
Y109195D01*
X164251Y105926D01*
X164033Y105601D01*
X163957Y105217D01*
Y104077D01*
X163846Y104031D01*
X163315Y103500D01*
X163198Y103507D01*
X162815Y103632D01*
Y112576D01*
X164883Y114645D01*
X165100Y114970D01*
X165112Y115029D01*
X167058Y116974D01*
X167520Y116783D01*
Y113681D01*
X172638D01*
Y114182D01*
X172858Y114591D01*
X174894D01*
Y117520D01*
Y120449D01*
X174848D01*
X174427Y120892D01*
Y139778D01*
X174350Y140162D01*
X174133Y140487D01*
X169665Y144955D01*
X169856Y145417D01*
X171547D01*
Y149500D01*
X169039D01*
Y146234D01*
X168577Y146043D01*
X166561Y148059D01*
X166235Y148277D01*
X165851Y148353D01*
X163702D01*
X151897Y160158D01*
X151571Y160376D01*
X151187Y160452D01*
X144488D01*
Y160630D01*
X139370D01*
Y158268D01*
X144488D01*
Y158445D01*
X150771D01*
X162577Y146640D01*
X162902Y146422D01*
X163286Y146346D01*
X165436D01*
X168603Y143178D01*
X168412Y142717D01*
X163285D01*
Y139764D01*
Y137126D01*
X155401D01*
X155008Y137519D01*
Y138187D01*
X154708Y138910D01*
X154155Y139464D01*
X153431Y139764D01*
X152648D01*
X151925Y139464D01*
X151371Y138910D01*
X151071Y138187D01*
Y137404D01*
X151371Y136680D01*
X151925Y136126D01*
X152648Y135827D01*
X153431D01*
X153735Y135953D01*
X154276Y135412D01*
X154601Y135195D01*
X154985Y135118D01*
X163285D01*
Y131606D01*
X162695D01*
X162311Y131530D01*
X161985Y131312D01*
X156171Y125497D01*
X155709Y125689D01*
Y133268D01*
X150019D01*
Y142194D01*
X150173Y142297D01*
X150956D01*
X151680Y142597D01*
X152234Y143151D01*
X152533Y143874D01*
Y144657D01*
X152234Y145381D01*
X151680Y145935D01*
X151568Y145981D01*
Y148858D01*
X151492Y149242D01*
X151275Y149568D01*
X144818Y156025D01*
X144492Y156242D01*
X144488Y156243D01*
Y156693D01*
X139370D01*
Y154331D01*
X142029D01*
X142126Y154311D01*
X143693D01*
X149561Y148443D01*
Y147866D01*
X149061Y147770D01*
X148912Y147993D01*
X144818Y152088D01*
X144492Y152305D01*
X144488Y152306D01*
Y152756D01*
X139370D01*
Y150394D01*
Y146457D01*
X142029D01*
X142126Y146437D01*
X143693D01*
X144443Y145687D01*
Y144882D01*
X139370D01*
Y144432D01*
X139366Y144431D01*
X139040Y144213D01*
X137686Y142859D01*
X137224Y143051D01*
Y160234D01*
X138662Y161672D01*
X138880Y161998D01*
X138905Y162122D01*
X139370Y162205D01*
X139431Y162205D01*
X144488D01*
Y164173D01*
Y168504D01*
X139456D01*
X139370Y168504D01*
X138956Y168712D01*
Y169871D01*
X139370Y170079D01*
X139456Y170079D01*
X144488D01*
Y172047D01*
Y176378D01*
X139370D01*
Y172059D01*
X138895Y171988D01*
X138870Y171993D01*
X138662Y172304D01*
X136241Y174725D01*
X135916Y174943D01*
X135531Y175019D01*
X118110D01*
X117726Y174943D01*
X117401Y174725D01*
X114054Y171379D01*
X113837Y171053D01*
X113760Y170669D01*
Y150197D01*
X113837Y149813D01*
X114054Y149487D01*
X118385Y145157D01*
X118710Y144939D01*
X119095Y144863D01*
X120866D01*
Y142520D01*
X123012D01*
Y141754D01*
X109330Y128072D01*
X109112Y127746D01*
X109036Y127362D01*
Y90197D01*
X109112Y89813D01*
X109330Y89487D01*
X114881Y83936D01*
X115207Y83719D01*
X115591Y83642D01*
X120866D01*
Y79547D01*
X107261D01*
X106877Y79470D01*
X106551Y79253D01*
X105970Y78672D01*
X105805Y78740D01*
X105022D01*
X104791Y78645D01*
X104331Y78989D01*
Y87095D01*
X104375Y87232D01*
X104724Y89436D01*
Y91667D01*
X104375Y93870D01*
X104331Y94008D01*
Y162882D01*
X104375Y163020D01*
X104724Y165223D01*
Y167454D01*
X104375Y169658D01*
X104331Y169795D01*
Y193644D01*
X104831Y193836D01*
X105632Y193504D01*
X106572D01*
X107440Y193864D01*
X107930Y194353D01*
X111464D01*
Y184232D01*
X116621D01*
Y205360D01*
X118302Y207040D01*
X118630Y207531D01*
X118745Y208110D01*
X118745Y208110D01*
Y212165D01*
X120302D01*
Y218307D01*
X118745D01*
Y221181D01*
X120302D01*
Y227323D01*
X114161D01*
Y221181D01*
X115718D01*
Y218307D01*
X114161D01*
Y212165D01*
X115718D01*
Y208737D01*
X114481Y207500D01*
X111464D01*
Y197380D01*
X107930D01*
X107440Y197869D01*
X106572Y198228D01*
X105632D01*
X104831Y197896D01*
X104331Y198088D01*
Y253937D01*
X112205Y261811D01*
X124311D01*
Y257677D01*
X127182D01*
X131894Y252965D01*
X131702Y252503D01*
X128924D01*
Y253976D01*
X123570D01*
Y252503D01*
X119909D01*
Y253976D01*
X114554D01*
Y248622D01*
X119909D01*
Y250095D01*
X123570D01*
Y248622D01*
X128924D01*
Y250095D01*
X132586D01*
Y248622D01*
X137940D01*
Y252273D01*
X139030Y253363D01*
X150617D01*
Y248622D01*
X155972D01*
Y253363D01*
X158714D01*
X168481Y243596D01*
Y211719D01*
X156209Y199447D01*
X155709Y199654D01*
X155709Y199808D01*
Y208241D01*
X155709Y208465D01*
X156094Y208741D01*
X161221D01*
X161604Y208817D01*
X161930Y209034D01*
X165277Y212381D01*
X165494Y212706D01*
X165570Y213090D01*
Y216043D01*
X167126D01*
Y220965D01*
X162008D01*
Y216043D01*
X163563D01*
Y213506D01*
X160805Y210748D01*
X150187D01*
X146956Y213978D01*
Y217913D01*
X141602D01*
Y212559D01*
X145537D01*
X149061Y209034D01*
X149259Y208902D01*
X149403Y208484D01*
X149409Y208342D01*
Y208303D01*
Y199409D01*
X155300D01*
X155464Y199409D01*
X155671Y198909D01*
X146942Y190181D01*
X144488D01*
Y194095D01*
X139578D01*
X139370Y194095D01*
X139078Y194474D01*
Y195366D01*
X136984D01*
Y184216D01*
X139078D01*
Y185448D01*
X139370Y185827D01*
X139578Y185827D01*
X141813D01*
X141929Y185804D01*
X143307D01*
X143307Y185804D01*
X143423Y185827D01*
X144488D01*
Y186486D01*
X145774Y187772D01*
X147441D01*
X147441Y187772D01*
X147902Y187864D01*
X148293Y188125D01*
X170536Y210369D01*
X170537Y210369D01*
X170798Y210760D01*
X170889Y211221D01*
Y244094D01*
X170798Y244555D01*
X170537Y244946D01*
X170536Y244946D01*
X160064Y255418D01*
X159674Y255679D01*
X159213Y255771D01*
X159213Y255771D01*
X155535D01*
X155328Y256271D01*
X156190Y257133D01*
X156301Y257087D01*
X157085D01*
X157808Y257386D01*
X158362Y257940D01*
X158661Y258664D01*
Y259447D01*
X158362Y260170D01*
X157808Y260724D01*
X157085Y261024D01*
X156301D01*
X155578Y260724D01*
X155024Y260170D01*
X154724Y259447D01*
Y258664D01*
X154771Y258552D01*
X154093Y257875D01*
X153717Y257910D01*
X153429Y258388D01*
X153543Y258664D01*
Y259447D01*
X153244Y260170D01*
X152690Y260724D01*
X151966Y261024D01*
X151183D01*
X151072Y260977D01*
X150700Y261349D01*
X150891Y261811D01*
X168454D01*
X168605Y261311D01*
X168449Y261206D01*
X167432Y260190D01*
X167321Y260236D01*
X166538D01*
X165814Y259936D01*
X165260Y259383D01*
X164961Y258659D01*
Y257876D01*
X165260Y257153D01*
X165814Y256599D01*
X166538Y256299D01*
X167321D01*
X168044Y256599D01*
X168598Y257153D01*
X168898Y257876D01*
Y258659D01*
X168851Y258771D01*
X169574Y259493D01*
X172777D01*
Y255851D01*
X175828D01*
Y255786D01*
X175905Y255402D01*
X176113Y255091D01*
X176071Y254872D01*
X175954Y254591D01*
X172777D01*
Y250339D01*
X174193D01*
Y249567D01*
X172677D01*
Y245315D01*
X177717D01*
Y245315D01*
X177756Y245374D01*
X182874D01*
Y249902D01*
X182974Y250005D01*
X182974D01*
Y254532D01*
X179275D01*
X179167Y254640D01*
X179137Y254792D01*
X178919Y255118D01*
X178589Y255448D01*
X178781Y255910D01*
X182974D01*
Y260438D01*
X179275D01*
X178506Y261206D01*
X178349Y261311D01*
X178501Y261811D01*
X185016D01*
Y201985D01*
D02*
G37*
G36*
X100394Y326772D02*
Y301181D01*
X96457Y297244D01*
X45276D01*
X41339Y293307D01*
Y255982D01*
X39616D01*
X39079Y255875D01*
X38623Y255570D01*
X37246Y254194D01*
X37072Y254294D01*
X36018Y254577D01*
X34927D01*
X33873Y254294D01*
X32928Y253749D01*
X32157Y252977D01*
X31611Y252032D01*
X31329Y250979D01*
Y249887D01*
X31611Y248834D01*
X32157Y247889D01*
X32928Y247117D01*
X33873Y246572D01*
X34927Y246289D01*
X36018D01*
X37072Y246572D01*
X38017Y247117D01*
X38788Y247889D01*
X39334Y248834D01*
X39616Y249887D01*
Y250979D01*
X39334Y252032D01*
X39233Y252207D01*
X40198Y253172D01*
X41339D01*
Y251015D01*
X41329Y250979D01*
Y249887D01*
X41339Y249851D01*
Y246680D01*
X40315D01*
X39777Y246574D01*
X39322Y246269D01*
X37246Y244194D01*
X37072Y244294D01*
X36018Y244577D01*
X34927D01*
X33873Y244294D01*
X32928Y243749D01*
X32157Y242977D01*
X31611Y242033D01*
X31329Y240979D01*
Y239887D01*
X31611Y238834D01*
X32157Y237889D01*
X32928Y237117D01*
X33873Y236572D01*
X34927Y236289D01*
X36018D01*
X37072Y236572D01*
X38017Y237117D01*
X38788Y237889D01*
X39334Y238834D01*
X39616Y239887D01*
Y240979D01*
X39334Y242033D01*
X39233Y242207D01*
X40839Y243812D01*
X41339Y243730D01*
Y241015D01*
X41329Y240979D01*
Y239887D01*
X41339Y239851D01*
Y236838D01*
X40472D01*
X39935Y236731D01*
X39479Y236426D01*
X37246Y234194D01*
X37072Y234294D01*
X36018Y234577D01*
X34927D01*
X33873Y234294D01*
X32928Y233749D01*
X32157Y232977D01*
X31611Y232032D01*
X31329Y230979D01*
Y229888D01*
X31611Y228834D01*
X32157Y227889D01*
X32928Y227117D01*
X33873Y226572D01*
X34927Y226289D01*
X36018D01*
X37072Y226572D01*
X38017Y227117D01*
X38788Y227889D01*
X39334Y228834D01*
X39616Y229888D01*
Y230979D01*
X39334Y232032D01*
X39233Y232207D01*
X40839Y233812D01*
X41339Y233605D01*
Y231015D01*
X41329Y230979D01*
Y229888D01*
X41339Y229851D01*
Y226995D01*
X40630D01*
X40092Y226888D01*
X39636Y226584D01*
X37246Y224194D01*
X37072Y224294D01*
X36018Y224577D01*
X34927D01*
X33873Y224294D01*
X32928Y223749D01*
X32157Y222977D01*
X31611Y222032D01*
X31329Y220979D01*
Y219887D01*
X31611Y218834D01*
X32157Y217889D01*
X32928Y217117D01*
X33125Y217004D01*
X33137Y216644D01*
X33081Y216451D01*
X29996Y213366D01*
X29649Y212845D01*
X29526Y212231D01*
X29526Y212231D01*
Y184774D01*
X29526Y184774D01*
X29649Y184159D01*
X29996Y183638D01*
X31609Y182026D01*
X31329Y180979D01*
Y179887D01*
X31611Y178834D01*
X32157Y177889D01*
X32928Y177117D01*
X33873Y176572D01*
X34927Y176289D01*
X36018D01*
X37072Y176572D01*
X38017Y177117D01*
X38788Y177889D01*
X39334Y178834D01*
X39616Y179887D01*
Y180979D01*
X39334Y182033D01*
X38788Y182977D01*
X38017Y183749D01*
X37072Y184294D01*
X36018Y184577D01*
X34927D01*
X33880Y184296D01*
X32737Y185439D01*
Y186650D01*
X33237Y186939D01*
X33873Y186572D01*
X34927Y186289D01*
X36018D01*
X37072Y186572D01*
X38017Y187117D01*
X38788Y187889D01*
X39334Y188834D01*
X39616Y189887D01*
Y190979D01*
X39334Y192033D01*
X39233Y192207D01*
X40839Y193812D01*
X41339Y193730D01*
Y191015D01*
X41329Y190979D01*
Y189887D01*
X41339Y189851D01*
Y181015D01*
X41329Y180979D01*
Y179887D01*
X41339Y179851D01*
X41339Y164200D01*
X40839Y163936D01*
X39916Y164183D01*
X38824D01*
X37771Y163901D01*
X36826Y163355D01*
X36054Y162584D01*
X35509Y161639D01*
X35226Y160585D01*
Y159494D01*
X35509Y158440D01*
X36054Y157495D01*
X36826Y156724D01*
X37771Y156178D01*
X38824Y155896D01*
X39916D01*
X40839Y156143D01*
X41339Y155879D01*
Y152389D01*
X40839Y152125D01*
X39916Y152372D01*
X38824D01*
X37771Y152090D01*
X36826Y151544D01*
X36054Y150773D01*
X35509Y149828D01*
X35226Y148774D01*
Y147683D01*
X35509Y146629D01*
X36054Y145684D01*
X36826Y144913D01*
X37771Y144367D01*
X38824Y144085D01*
X39916D01*
X40839Y144332D01*
X41339Y144068D01*
Y142736D01*
X24626D01*
Y159449D01*
X24549Y159833D01*
X24508Y159895D01*
Y161457D01*
X10925D01*
Y159895D01*
X10884Y159833D01*
X10808Y159449D01*
Y127953D01*
X10884Y127569D01*
X11101Y127243D01*
X17007Y121338D01*
X17333Y121120D01*
X17717Y121044D01*
X27756D01*
X27819Y120879D01*
X27842Y120544D01*
X26983Y120048D01*
X26212Y119277D01*
X25666Y118332D01*
X25384Y117278D01*
Y116187D01*
X25666Y115133D01*
X26212Y114188D01*
X26983Y113417D01*
X27928Y112871D01*
X28982Y112589D01*
X30073D01*
X31127Y112871D01*
X32072Y113417D01*
X32843Y114188D01*
X33389Y115133D01*
X33671Y116187D01*
Y117278D01*
X33389Y118332D01*
X32843Y119277D01*
X32072Y120048D01*
X31213Y120544D01*
X31236Y120879D01*
X31299Y121044D01*
X37598D01*
X37662Y120879D01*
X37684Y120544D01*
X36826Y120048D01*
X36054Y119277D01*
X35509Y118332D01*
X35226Y117278D01*
Y116187D01*
X35509Y115133D01*
X36054Y114188D01*
X36826Y113417D01*
X37771Y112871D01*
X38824Y112589D01*
X39916D01*
X40839Y112836D01*
X41339Y112572D01*
Y109082D01*
X40839Y108818D01*
X39916Y109065D01*
X38824D01*
X37771Y108783D01*
X36826Y108237D01*
X36054Y107466D01*
X35509Y106521D01*
X35226Y105467D01*
Y104376D01*
X35509Y103322D01*
X36054Y102377D01*
X36826Y101605D01*
X37771Y101060D01*
X38824Y100778D01*
X39916D01*
X40839Y101025D01*
X41339Y100761D01*
Y99239D01*
X40839Y98975D01*
X39916Y99222D01*
X38824D01*
X37771Y98940D01*
X36826Y98395D01*
X36054Y97623D01*
X35509Y96678D01*
X35226Y95624D01*
Y94533D01*
X35509Y93479D01*
X36054Y92535D01*
X36826Y91763D01*
X37771Y91217D01*
X38824Y90935D01*
X39916D01*
X40839Y91182D01*
X41339Y90918D01*
Y87428D01*
X40839Y87164D01*
X39916Y87411D01*
X38824D01*
X37771Y87129D01*
X36826Y86584D01*
X36054Y85812D01*
X35509Y84867D01*
X35226Y83813D01*
Y82722D01*
X35509Y81668D01*
X36054Y80723D01*
X36826Y79952D01*
X37771Y79406D01*
X38824Y79124D01*
X39916D01*
X40839Y79371D01*
X41339Y79107D01*
Y39370D01*
X45276Y35433D01*
X96457D01*
X100394Y31496D01*
Y5906D01*
X96457Y1969D01*
X21654D01*
X1969Y21654D01*
X1969Y305118D01*
Y311024D01*
X21654Y330709D01*
X96457D01*
X100394Y326772D01*
D02*
G37*
G36*
X146741Y259129D02*
X146741Y259129D01*
X149599Y256271D01*
X149392Y255771D01*
X138531D01*
X138070Y255679D01*
X137679Y255418D01*
X137679Y255418D01*
X136237Y253976D01*
X134289D01*
X130020Y258246D01*
Y261811D01*
X144059D01*
X146741Y259129D01*
D02*
G37*
G36*
X308839Y254528D02*
X308661D01*
Y253346D01*
X307400D01*
X307283Y253370D01*
X306002D01*
X305807Y253370D01*
X305807Y253370D01*
X305512Y253346D01*
Y253311D01*
X305346Y253278D01*
X304956Y253017D01*
X301250Y249311D01*
X294685D01*
Y243602D01*
X301250D01*
X303814Y241038D01*
X304173Y240798D01*
Y238032D01*
X304898D01*
Y227680D01*
X304898Y227680D01*
X304990Y227219D01*
X305251Y226829D01*
X314937Y217142D01*
Y211636D01*
X314476Y211445D01*
X303164Y222757D01*
X302838Y222974D01*
X302454Y223051D01*
X279668D01*
X279622Y223162D01*
X279068Y223716D01*
X278344Y224016D01*
X277561D01*
X276838Y223716D01*
X276284Y223162D01*
X275984Y222439D01*
Y221656D01*
X276284Y220932D01*
X276838Y220378D01*
X277561Y220079D01*
X278344D01*
X278524Y220153D01*
X278960Y219849D01*
X278955Y219585D01*
X278515Y219286D01*
X278511Y219287D01*
X277728D01*
X277005Y218987D01*
X276451Y218434D01*
X276151Y217710D01*
Y216927D01*
X276451Y216204D01*
X277005Y215650D01*
X277728Y215350D01*
X278511D01*
X278717Y215435D01*
X279107Y215143D01*
X279131Y214624D01*
X278920Y214415D01*
X278747Y214315D01*
X278344Y214481D01*
X277561D01*
X276838Y214182D01*
X276284Y213628D01*
X276091Y213161D01*
X275522Y213022D01*
X269901Y218643D01*
Y223088D01*
X270013Y223134D01*
X270567Y223688D01*
X270866Y224412D01*
Y225195D01*
X270820Y225306D01*
X277875Y232361D01*
X278093Y232687D01*
X278169Y233071D01*
Y240136D01*
X293329Y255296D01*
X308839D01*
Y254528D01*
D02*
G37*
G36*
X482283Y311024D02*
X482283Y27559D01*
Y21654D01*
X462598Y1969D01*
X387795D01*
X383858Y5906D01*
Y31496D01*
X387795Y35433D01*
X438976D01*
X442913Y39370D01*
Y78467D01*
X444636D01*
X445174Y78574D01*
X445629Y78879D01*
X447006Y80255D01*
X447180Y80154D01*
X448234Y79872D01*
X449325D01*
X450379Y80154D01*
X451324Y80700D01*
X452095Y81472D01*
X452641Y82416D01*
X452923Y83470D01*
Y84561D01*
X452641Y85615D01*
X452095Y86560D01*
X451324Y87331D01*
X450379Y87877D01*
X449325Y88160D01*
X448234D01*
X447180Y87877D01*
X446235Y87331D01*
X445464Y86560D01*
X444918Y85615D01*
X444636Y84561D01*
Y83470D01*
X444918Y82416D01*
X445019Y82242D01*
X444054Y81277D01*
X442913D01*
Y83434D01*
X442923Y83470D01*
Y84561D01*
X442913Y84598D01*
Y87571D01*
X443740D01*
X444278Y87678D01*
X444734Y87983D01*
X447006Y90255D01*
X447180Y90154D01*
X448234Y89872D01*
X449325D01*
X450379Y90154D01*
X451324Y90700D01*
X452095Y91471D01*
X452641Y92416D01*
X452923Y93470D01*
Y94561D01*
X452641Y95615D01*
X452095Y96560D01*
X451324Y97332D01*
X450379Y97877D01*
X449325Y98159D01*
X448234D01*
X447180Y97877D01*
X446235Y97332D01*
X445464Y96560D01*
X444918Y95615D01*
X444636Y94561D01*
Y93470D01*
X444918Y92416D01*
X445019Y92242D01*
X443413Y90636D01*
X442913Y90844D01*
Y93433D01*
X442923Y93470D01*
Y94561D01*
X442913Y94598D01*
Y97414D01*
X443583D01*
X444120Y97521D01*
X444576Y97825D01*
X447006Y100255D01*
X447180Y100154D01*
X448234Y99872D01*
X449325D01*
X450379Y100154D01*
X451324Y100700D01*
X452095Y101471D01*
X452641Y102416D01*
X452923Y103470D01*
Y104561D01*
X452641Y105615D01*
X452095Y106560D01*
X451324Y107332D01*
X450379Y107877D01*
X449325Y108159D01*
X448234D01*
X447180Y107877D01*
X446235Y107332D01*
X445464Y106560D01*
X444918Y105615D01*
X444636Y104561D01*
Y103470D01*
X444918Y102416D01*
X445019Y102242D01*
X443413Y100636D01*
X442913Y100844D01*
Y103434D01*
X442923Y103470D01*
Y104561D01*
X442913Y104598D01*
Y107650D01*
X443819D01*
X444356Y107757D01*
X444812Y108062D01*
X447006Y110255D01*
X447180Y110154D01*
X448234Y109872D01*
X449325D01*
X450379Y110154D01*
X451324Y110700D01*
X452095Y111471D01*
X452641Y112416D01*
X452923Y113470D01*
Y114561D01*
X452641Y115615D01*
X452095Y116560D01*
X451324Y117332D01*
X450379Y117877D01*
X449325Y118159D01*
X448234D01*
X447180Y117877D01*
X446235Y117332D01*
X445464Y116560D01*
X444918Y115615D01*
X444636Y114561D01*
Y113470D01*
X444918Y112416D01*
X445019Y112242D01*
X443413Y110636D01*
X442913Y110844D01*
Y113434D01*
X442923Y113470D01*
Y114561D01*
X442913Y114598D01*
Y123433D01*
X442923Y123470D01*
Y124561D01*
X442913Y124598D01*
Y133433D01*
X442923Y133470D01*
Y134561D01*
X442913Y134598D01*
Y137188D01*
X443413Y137395D01*
X445019Y135790D01*
X444918Y135615D01*
X444636Y134561D01*
Y133470D01*
X444918Y132416D01*
X445464Y131472D01*
X446235Y130700D01*
X447180Y130154D01*
X448234Y129872D01*
X449325D01*
X450379Y130154D01*
X451324Y130700D01*
X452095Y131472D01*
X452641Y132416D01*
X452923Y133470D01*
Y134561D01*
X452641Y135615D01*
X452095Y136560D01*
X451324Y137331D01*
X450379Y137877D01*
X449325Y138159D01*
X448234D01*
X447180Y137877D01*
X447006Y137776D01*
X444590Y140193D01*
X444134Y140497D01*
X443596Y140604D01*
X442913D01*
Y143433D01*
X442923Y143470D01*
Y144561D01*
X442913Y144598D01*
Y147368D01*
X443413Y147395D01*
X445019Y145790D01*
X444918Y145615D01*
X444636Y144561D01*
Y143470D01*
X444918Y142416D01*
X445464Y141472D01*
X446235Y140700D01*
X447180Y140154D01*
X448234Y139872D01*
X449325D01*
X450379Y140154D01*
X451324Y140700D01*
X452095Y141472D01*
X452641Y142416D01*
X452923Y143470D01*
Y144561D01*
X452641Y145615D01*
X452095Y146560D01*
X451324Y147332D01*
X450379Y147877D01*
X449325Y148159D01*
X448234D01*
X447180Y147877D01*
X447006Y147776D01*
X444970Y149812D01*
X444514Y150117D01*
X443976Y150224D01*
X442913D01*
Y153434D01*
X442923Y153470D01*
Y154561D01*
X442913Y154598D01*
Y156958D01*
X443375Y157149D01*
X444916Y155608D01*
X444636Y154561D01*
Y153470D01*
X444918Y152416D01*
X445464Y151471D01*
X446235Y150700D01*
X447180Y150154D01*
X448234Y149872D01*
X449325D01*
X450379Y150154D01*
X451324Y150700D01*
X452095Y151471D01*
X452641Y152416D01*
X452923Y153470D01*
Y154561D01*
X452641Y155615D01*
X452095Y156560D01*
X451324Y157332D01*
X450379Y157877D01*
X449325Y158159D01*
X448234D01*
X447187Y157879D01*
X444383Y160683D01*
X443862Y161031D01*
X443248Y161153D01*
X442913Y161485D01*
Y170249D01*
X443413Y170513D01*
X444336Y170266D01*
X445427D01*
X446481Y170548D01*
X447426Y171094D01*
X448198Y171865D01*
X448743Y172810D01*
X449026Y173864D01*
Y174955D01*
X448743Y176009D01*
X448198Y176954D01*
X447426Y177725D01*
X446481Y178271D01*
X445427Y178553D01*
X444336D01*
X443413Y178306D01*
X442913Y178570D01*
Y182060D01*
X443413Y182324D01*
X444336Y182077D01*
X445427D01*
X446481Y182359D01*
X447426Y182905D01*
X448198Y183676D01*
X448743Y184621D01*
X449026Y185675D01*
Y186766D01*
X448743Y187820D01*
X448198Y188765D01*
X447426Y189536D01*
X446481Y190082D01*
X445427Y190364D01*
X444336D01*
X443413Y190117D01*
X442913Y190381D01*
Y191910D01*
X459626D01*
Y173228D01*
X459703Y172844D01*
X459744Y172783D01*
Y171221D01*
X473327D01*
Y172783D01*
X473368Y172844D01*
X473445Y173228D01*
Y204724D01*
X473368Y205108D01*
X473150Y205434D01*
X465277Y213308D01*
X464951Y213526D01*
X464567Y213602D01*
X456885D01*
X456751Y214102D01*
X457269Y214401D01*
X458040Y215172D01*
X458586Y216117D01*
X458868Y217171D01*
Y218262D01*
X458586Y219316D01*
X458040Y220261D01*
X457269Y221032D01*
X456324Y221578D01*
X455270Y221860D01*
X454179D01*
X453125Y221578D01*
X452180Y221032D01*
X451409Y220261D01*
X450863Y219316D01*
X450581Y218262D01*
Y217171D01*
X450863Y216117D01*
X451409Y215172D01*
X452180Y214401D01*
X452698Y214102D01*
X452564Y213602D01*
X447043D01*
X446909Y214102D01*
X447426Y214401D01*
X448198Y215172D01*
X448743Y216117D01*
X449026Y217171D01*
Y218262D01*
X448743Y219316D01*
X448198Y220261D01*
X447426Y221032D01*
X446481Y221578D01*
X445427Y221860D01*
X444336D01*
X443413Y221613D01*
X442913Y221877D01*
Y225367D01*
X443413Y225631D01*
X444336Y225384D01*
X445427D01*
X446481Y225666D01*
X447426Y226212D01*
X448198Y226983D01*
X448743Y227928D01*
X449026Y228982D01*
Y230073D01*
X448743Y231127D01*
X448198Y232072D01*
X447426Y232843D01*
X446481Y233389D01*
X445427Y233671D01*
X444336D01*
X443413Y233424D01*
X442913Y233688D01*
Y235210D01*
X443413Y235474D01*
X444336Y235226D01*
X445427D01*
X446481Y235509D01*
X447426Y236054D01*
X448198Y236826D01*
X448743Y237771D01*
X449026Y238825D01*
Y239916D01*
X448743Y240969D01*
X448198Y241914D01*
X447426Y242686D01*
X446481Y243231D01*
X445427Y243514D01*
X444336D01*
X443413Y243267D01*
X442913Y243531D01*
Y247021D01*
X443413Y247285D01*
X444336Y247037D01*
X445427D01*
X446481Y247320D01*
X447426Y247865D01*
X448198Y248637D01*
X448743Y249582D01*
X449026Y250636D01*
Y251727D01*
X448743Y252781D01*
X448198Y253725D01*
X447426Y254497D01*
X446481Y255042D01*
X445427Y255325D01*
X444336D01*
X443413Y255078D01*
X442913Y255342D01*
Y293307D01*
X438976Y297244D01*
X387795D01*
X383858Y301181D01*
Y326772D01*
X387795Y330709D01*
X462598D01*
X482283Y311024D01*
D02*
G37*
G36*
X275693Y261582D02*
X276247Y261028D01*
X276971Y260728D01*
X277754D01*
X278477Y261028D01*
X279031Y261582D01*
X279077Y261693D01*
X288285D01*
X291612Y258366D01*
X273306Y240060D01*
X273089Y239734D01*
X273012Y239350D01*
Y237490D01*
X272628Y237366D01*
X272512Y237358D01*
X271981Y237889D01*
X271258Y238189D01*
X270475D01*
X269751Y237889D01*
X269197Y237335D01*
X268898Y236612D01*
Y236268D01*
X268398Y236061D01*
X264710Y239749D01*
X264319Y240010D01*
X263858Y240102D01*
X263858Y240102D01*
X225158D01*
X224697Y240010D01*
X224306Y239749D01*
X224306Y239749D01*
X221154Y236597D01*
X220692Y236789D01*
Y247244D01*
X222835D01*
Y254308D01*
X224380D01*
X224380Y254308D01*
X224841Y254399D01*
X225231Y254660D01*
X225568Y254996D01*
X226614D01*
Y253681D01*
X229163D01*
X230095Y252749D01*
Y251969D01*
X230118Y251852D01*
Y250787D01*
X231183D01*
X231299Y250764D01*
X233465D01*
X233581Y250787D01*
X236811D01*
Y252781D01*
X236811Y253150D01*
X236811Y253150D01*
X236787Y253272D01*
X236787D01*
Y255701D01*
X234252D01*
Y256701D01*
X236787D01*
Y258248D01*
X242301D01*
X245847Y254702D01*
Y246850D01*
X245923Y246466D01*
X246141Y246141D01*
X246731Y245550D01*
X247057Y245333D01*
X247441Y245256D01*
Y242913D01*
X254134D01*
Y243080D01*
X254634Y243087D01*
X256580Y241141D01*
X256905Y240923D01*
X257289Y240847D01*
X265079D01*
X265463Y240923D01*
X265788Y241141D01*
X270757Y246109D01*
X270868Y246063D01*
X271651D01*
X272375Y246363D01*
X272929Y246916D01*
X273228Y247640D01*
Y248423D01*
X272929Y249147D01*
X272375Y249700D01*
X271651Y250000D01*
X270868D01*
X270145Y249700D01*
X269591Y249147D01*
X269291Y248423D01*
Y247640D01*
X269338Y247528D01*
X264663Y242854D01*
X260346D01*
X260043Y243354D01*
X260236Y243821D01*
Y244604D01*
X259936Y245328D01*
X259425Y245839D01*
X259402Y246122D01*
X259425Y246405D01*
X259936Y246916D01*
X260236Y247640D01*
Y248423D01*
X259936Y249147D01*
X259383Y249700D01*
X258659Y250000D01*
X257876D01*
X257765Y249954D01*
X255040Y252678D01*
X254715Y252896D01*
X254331Y252972D01*
X254134D01*
Y253150D01*
X247854D01*
Y255118D01*
X247778Y255502D01*
X247560Y255828D01*
X245601Y257786D01*
X245793Y258248D01*
X270860D01*
X271244Y258325D01*
X271570Y258542D01*
X274839Y261811D01*
X275598D01*
X275693Y261582D01*
D02*
G37*
G36*
X314567Y247441D02*
X312598D01*
Y243898D01*
X312399Y243480D01*
X312311D01*
Y240551D01*
Y237622D01*
X313327D01*
Y234825D01*
X309165Y230662D01*
X309053Y230709D01*
X308270D01*
X307807Y230517D01*
X307307Y230822D01*
Y238032D01*
X308425D01*
Y241380D01*
X308448Y241496D01*
X308448Y241496D01*
Y241982D01*
X308814Y242347D01*
X309276Y242156D01*
Y241051D01*
X311311D01*
Y243480D01*
X311223D01*
X311024Y243898D01*
Y244962D01*
X311047Y245079D01*
Y245669D01*
X311024Y245786D01*
Y247441D01*
X309055D01*
Y250984D01*
X314567D01*
Y247441D01*
D02*
G37*
G36*
X200768Y233071D02*
X198842D01*
Y247244D01*
X200768D01*
Y233071D01*
D02*
G37*
G36*
X253170Y234479D02*
X252470Y233780D01*
X250079D01*
Y221909D01*
X239173D01*
Y233780D01*
X235079D01*
Y221909D01*
X230298D01*
X229173Y223033D01*
Y233780D01*
X226940D01*
X226749Y234242D01*
X227449Y234941D01*
X252979D01*
X253170Y234479D01*
D02*
G37*
G36*
X314937Y232944D02*
Y221201D01*
X314476Y221010D01*
X309176Y226310D01*
X309313Y226880D01*
X309776Y227071D01*
X310330Y227625D01*
X310630Y228349D01*
Y229132D01*
X310584Y229243D01*
X314476Y233135D01*
X314937Y232944D01*
D02*
G37*
G36*
X261024Y231762D02*
Y231104D01*
X261323Y230381D01*
X261877Y229827D01*
X262601Y229528D01*
X263384D01*
X263803Y229701D01*
X264366Y229433D01*
X264379Y229368D01*
X264117Y229106D01*
X263817Y228382D01*
Y227599D01*
X264117Y226876D01*
X264671Y226322D01*
X264744Y226291D01*
Y218864D01*
X264283Y218672D01*
X261340Y221615D01*
X261014Y221833D01*
X260630Y221909D01*
X259173D01*
Y233036D01*
X259673Y233112D01*
X261024Y231762D01*
D02*
G37*
G36*
X214798Y256333D02*
X214798Y256333D01*
X214798Y256333D01*
X216142Y254990D01*
Y247244D01*
X218284D01*
Y233228D01*
X218284Y233228D01*
X217833Y233071D01*
X216142D01*
Y223622D01*
X218087D01*
Y213091D01*
X216732D01*
Y212031D01*
X215945D01*
Y213091D01*
X211437D01*
Y218307D01*
X211360Y218691D01*
X211143Y219017D01*
X205118Y225041D01*
Y233071D01*
X202775D01*
Y247244D01*
X205118D01*
Y256693D01*
X198842D01*
Y257654D01*
X213477D01*
X214798Y256333D01*
D02*
G37*
G36*
X209430Y217891D02*
Y213500D01*
X207980D01*
Y210827D01*
X206980D01*
Y213500D01*
X204512D01*
Y213165D01*
X202468D01*
Y210630D01*
X201468D01*
Y213165D01*
X199039D01*
X198842Y213584D01*
Y223622D01*
X203699D01*
X209430Y217891D01*
D02*
G37*
G36*
X252961Y218062D02*
X252713Y217756D01*
X250079D01*
Y206757D01*
X249617Y206566D01*
X249173Y207010D01*
Y217756D01*
X245079D01*
Y205591D01*
X247754D01*
X249438Y203906D01*
X249247Y203445D01*
X242739D01*
X241054Y205129D01*
X241246Y205591D01*
X244173D01*
Y217756D01*
X241539D01*
X241290Y218062D01*
X241492Y218524D01*
X252760D01*
X252961Y218062D01*
D02*
G37*
G36*
X41339Y211015D02*
X41329Y210979D01*
Y209888D01*
X41339Y209851D01*
Y206917D01*
X40551D01*
X40014Y206810D01*
X39558Y206505D01*
X37246Y204194D01*
X37072Y204294D01*
X36018Y204577D01*
X34927D01*
X33873Y204294D01*
X33237Y203927D01*
X32737Y204216D01*
Y206650D01*
X33237Y206939D01*
X33873Y206572D01*
X34927Y206289D01*
X36018D01*
X37072Y206572D01*
X38017Y207117D01*
X38788Y207889D01*
X39334Y208834D01*
X39616Y209888D01*
Y210979D01*
X39334Y212033D01*
X38788Y212977D01*
X38479Y213287D01*
X38670Y213749D01*
X41339D01*
Y211015D01*
D02*
G37*
G36*
X267783Y223134D02*
X267894Y223088D01*
Y218227D01*
X267970Y217843D01*
X268188Y217518D01*
X276265Y209441D01*
X276590Y209223D01*
X276974Y209147D01*
X278931D01*
X279315Y209223D01*
X279641Y209441D01*
X280331Y210131D01*
X303207D01*
X309626Y203712D01*
Y201949D01*
X309126Y201742D01*
X303466Y207402D01*
X303140Y207620D01*
X302756Y207696D01*
X277207D01*
X266752Y218152D01*
Y223534D01*
X267135Y223658D01*
X267252Y223665D01*
X267783Y223134D01*
D02*
G37*
G36*
X255079Y216535D02*
Y205591D01*
X259173D01*
Y208202D01*
X259673Y208409D01*
X259909Y208174D01*
X260632Y207874D01*
X261415D01*
X262139Y208174D01*
X262692Y208727D01*
X262992Y209451D01*
Y210234D01*
X262692Y210958D01*
X262139Y211511D01*
X262027Y211558D01*
Y215487D01*
X262489Y215679D01*
X266319Y211848D01*
Y200782D01*
X265819Y200574D01*
X261865Y204528D01*
X261540Y204746D01*
X261156Y204822D01*
X251401D01*
X251153Y205129D01*
X251354Y205591D01*
X254173D01*
Y216337D01*
X254579Y216742D01*
X255079Y216535D01*
D02*
G37*
G36*
X241613Y201731D02*
X241939Y201514D01*
X242323Y201437D01*
X260150D01*
X261322Y200265D01*
X261130Y199803D01*
X241161D01*
Y200301D01*
X241085Y200685D01*
X240867Y201011D01*
X236749Y205129D01*
X236940Y205591D01*
X237754D01*
X241613Y201731D01*
D02*
G37*
G36*
X41339Y203605D02*
Y201015D01*
X41329Y200979D01*
Y199888D01*
X41339Y199851D01*
Y196680D01*
X40315D01*
X39777Y196574D01*
X39322Y196269D01*
X37246Y194194D01*
X37072Y194294D01*
X36018Y194577D01*
X34927D01*
X33873Y194294D01*
X33237Y193928D01*
X32737Y194216D01*
Y196650D01*
X33237Y196939D01*
X33873Y196572D01*
X34927Y196289D01*
X36018D01*
X37072Y196572D01*
X38017Y197117D01*
X38788Y197889D01*
X39334Y198834D01*
X39616Y199888D01*
Y200979D01*
X39334Y202032D01*
X39233Y202207D01*
X40839Y203812D01*
X41339Y203605D01*
D02*
G37*
G36*
X276838Y194394D02*
X277561Y194095D01*
X278344D01*
X279068Y194394D01*
X279084Y194410D01*
X279764Y193730D01*
Y192469D01*
X279700Y192426D01*
X278085Y190812D01*
X277824Y190421D01*
X277733Y189961D01*
X277733Y189961D01*
Y184519D01*
X277733Y184519D01*
X277733Y184519D01*
Y181440D01*
X277271Y181249D01*
X275920Y182599D01*
X275595Y182817D01*
X275590Y182818D01*
Y187205D01*
X272538D01*
X272441Y187224D01*
X268920D01*
X268326Y187817D01*
Y189767D01*
X269223Y190664D01*
X269685Y190473D01*
Y188779D01*
X272521D01*
X272638Y188756D01*
X272754Y188779D01*
X275590D01*
Y191142D01*
X273842D01*
Y192611D01*
X275788Y194557D01*
X276674D01*
X276838Y194394D01*
D02*
G37*
G36*
X379921Y253937D02*
Y245583D01*
X379877Y245445D01*
X379528Y243241D01*
Y241010D01*
X379877Y238807D01*
X379921Y238669D01*
Y169795D01*
X379877Y169658D01*
X379528Y167454D01*
Y165223D01*
X379877Y163020D01*
X379921Y162882D01*
Y155900D01*
X379459Y155708D01*
X374769Y160399D01*
X374378Y160660D01*
X373917Y160751D01*
X373917Y160751D01*
X367177D01*
X366759Y161031D01*
X366144Y161153D01*
X365650Y161055D01*
X349657D01*
X349414Y161555D01*
X349546Y161752D01*
X349637Y162213D01*
X349637Y162213D01*
Y169110D01*
X350953D01*
Y170032D01*
X352953D01*
Y168110D01*
X355118D01*
Y166339D01*
X355118D01*
X355362Y166021D01*
X355315Y165847D01*
Y164862D01*
X355570Y163911D01*
X356062Y163058D01*
X356759Y162362D01*
X357611Y161869D01*
X358563Y161614D01*
X359547D01*
X360499Y161869D01*
X361122Y162229D01*
X361745Y161869D01*
X362697Y161614D01*
X363681D01*
X364633Y161869D01*
X365486Y162362D01*
X366182Y163058D01*
X366674Y163911D01*
X366929Y164862D01*
Y165847D01*
X366674Y166798D01*
X366182Y167651D01*
X365486Y168347D01*
X364961Y168650D01*
Y176575D01*
X355118D01*
Y174803D01*
X352953D01*
Y172441D01*
X350953D01*
Y173362D01*
X345913D01*
Y169110D01*
X347229D01*
Y162711D01*
X346033Y161516D01*
X345376D01*
X344653Y161216D01*
X344491Y161055D01*
X343012D01*
Y164173D01*
Y168110D01*
Y172047D01*
Y175984D01*
Y180099D01*
X344775D01*
X345159Y180175D01*
X345484Y180393D01*
X349430Y184338D01*
X349648Y184664D01*
X349724Y185048D01*
Y204801D01*
X352159Y207236D01*
X352775Y206881D01*
X353476Y206693D01*
X354201D01*
X354902Y206881D01*
X355531Y207244D01*
X356044Y207757D01*
X356407Y208385D01*
X356594Y209086D01*
Y209812D01*
X356407Y210513D01*
X356044Y211141D01*
X355573Y211612D01*
X355521Y211858D01*
Y211961D01*
X355573Y212207D01*
X356044Y212678D01*
X356407Y213306D01*
X356594Y214007D01*
Y214733D01*
X356407Y215434D01*
X356044Y216062D01*
X355573Y216533D01*
X355521Y216779D01*
Y216882D01*
X355573Y217128D01*
X356044Y217599D01*
X356407Y218228D01*
X356594Y218929D01*
Y219654D01*
X356407Y220355D01*
X356044Y220984D01*
X355531Y221497D01*
X354902Y221859D01*
X354201Y222047D01*
X353476D01*
X352775Y221859D01*
X352146Y221497D01*
X351633Y220984D01*
X351271Y220355D01*
X351083Y219654D01*
Y218929D01*
X351271Y218228D01*
X351302Y218174D01*
X344271Y211143D01*
X344053Y210817D01*
X343977Y210433D01*
Y186043D01*
X343012D01*
Y186221D01*
X335925D01*
Y183858D01*
Y179921D01*
Y175984D01*
Y171940D01*
X335463Y171749D01*
X335059Y172154D01*
Y192295D01*
X341261Y198497D01*
X341478Y198823D01*
X341555Y199207D01*
Y206398D01*
X341478Y206782D01*
X341261Y207107D01*
X340158Y208210D01*
Y211713D01*
X338674D01*
X338632Y212213D01*
X339805Y213386D01*
X341535D01*
Y218504D01*
X338386D01*
Y214805D01*
X336889Y213308D01*
X336671Y212983D01*
X336595Y212598D01*
Y211713D01*
X335039D01*
Y206791D01*
X338738D01*
X339548Y205982D01*
Y205413D01*
X335039D01*
Y204157D01*
X334252D01*
Y205413D01*
X329828D01*
X329637Y205875D01*
X330553Y206791D01*
X334252D01*
Y211713D01*
X330553D01*
X330137Y212128D01*
Y213386D01*
X330709D01*
Y218504D01*
X327559D01*
Y213386D01*
X328130D01*
Y211713D01*
X324746D01*
X322757Y213702D01*
X322715Y213730D01*
X322195Y214250D01*
X322166Y214292D01*
X321379Y215080D01*
X321053Y215297D01*
X320669Y215374D01*
X319882D01*
Y218504D01*
X317346D01*
Y241234D01*
X321520Y245408D01*
X321520Y245408D01*
X323592Y247480D01*
X323780D01*
Y247668D01*
X325129Y249017D01*
X325590Y248826D01*
Y244197D01*
X326949D01*
Y243231D01*
X326927Y243209D01*
X323228D01*
Y238287D01*
X328346D01*
Y241705D01*
X328679Y242020D01*
X329134Y241839D01*
Y238287D01*
X334252D01*
Y241839D01*
X334707Y242020D01*
X335039Y241705D01*
Y238287D01*
X340158D01*
Y243209D01*
X336459D01*
X336437Y243231D01*
Y244197D01*
X337795D01*
Y248826D01*
X338257Y249017D01*
X340940Y246334D01*
Y241812D01*
X340940Y241812D01*
X341032Y241352D01*
X341293Y240961D01*
X345413Y236840D01*
Y234291D01*
X350453D01*
Y235213D01*
X352658D01*
Y233071D01*
X354823D01*
Y231456D01*
X354783Y231386D01*
X354528Y230434D01*
Y229450D01*
X354783Y228498D01*
X355275Y227645D01*
X355971Y226949D01*
X356824Y226457D01*
X357775Y226202D01*
X358760D01*
X359711Y226457D01*
X360564Y226949D01*
X360816Y227201D01*
X361089Y226928D01*
X361942Y226436D01*
X362893Y226181D01*
X363878D01*
X364829Y226436D01*
X365682Y226928D01*
X366379Y227625D01*
X366871Y228478D01*
X367126Y229429D01*
Y230414D01*
X366871Y231365D01*
X366379Y232218D01*
X365682Y232914D01*
X364829Y233406D01*
X364665Y233451D01*
Y241535D01*
X354823D01*
Y239764D01*
X352658D01*
Y237622D01*
X350453D01*
Y238543D01*
X347116D01*
X346728Y238932D01*
X346919Y239394D01*
X347433D01*
Y241429D01*
X345004D01*
Y241309D01*
X344542Y241118D01*
X343349Y242311D01*
Y246833D01*
X343257Y247294D01*
X342996Y247685D01*
X338402Y252278D01*
X338012Y252539D01*
X337558Y252630D01*
X337205Y252983D01*
Y258052D01*
X350273D01*
X352658Y255667D01*
Y250394D01*
X353107D01*
X353108Y250389D01*
X353326Y250064D01*
X356855Y246534D01*
X357181Y246317D01*
X357565Y246241D01*
X362773D01*
X369666Y239348D01*
Y209254D01*
X353621Y193210D01*
X353404Y192884D01*
X353327Y192500D01*
Y192126D01*
X352953D01*
Y185433D01*
X363189D01*
Y192126D01*
X363011D01*
Y192813D01*
X375513Y205314D01*
X375730Y205640D01*
X375807Y206024D01*
Y241732D01*
X375730Y242116D01*
X375513Y242442D01*
X365472Y252483D01*
Y256378D01*
X365396Y256762D01*
X365178Y257087D01*
X360916Y261349D01*
X361108Y261811D01*
X372047D01*
X379921Y253937D01*
D02*
G37*
G36*
X180473Y184360D02*
Y177717D01*
X181867D01*
Y176221D01*
X180473D01*
Y167874D01*
X180063Y167655D01*
X175055D01*
Y171547D01*
X172047D01*
X169039D01*
Y167655D01*
X158501D01*
X153039Y173117D01*
X152548Y173445D01*
X151969Y173561D01*
X151969Y173561D01*
X151434D01*
X150944Y174050D01*
X150076Y174409D01*
X149136D01*
X148268Y174050D01*
X148101Y173883D01*
X147601Y174090D01*
Y176213D01*
X156837Y185449D01*
X169039D01*
Y182390D01*
X172047D01*
X175055D01*
Y185449D01*
X179383D01*
X180473Y184360D01*
D02*
G37*
G36*
X288953Y177848D02*
Y169158D01*
X285307Y165512D01*
X279825D01*
Y162584D01*
X279363Y162393D01*
X276988Y164768D01*
Y176276D01*
X277450Y176468D01*
X279825Y174093D01*
Y171772D01*
X287010D01*
Y175512D01*
X281244D01*
X280074Y176682D01*
X280281Y177182D01*
X284685D01*
X284685Y177182D01*
X285146Y177273D01*
X285537Y177534D01*
X286979Y178976D01*
X287825D01*
X288953Y177848D01*
D02*
G37*
G36*
X276082Y205983D02*
X276407Y205766D01*
X276791Y205689D01*
X302340D01*
X304415Y203615D01*
X304404Y203593D01*
X304404Y203593D01*
X304173Y203150D01*
X303896Y203150D01*
X298819D01*
Y197638D01*
X304331D01*
Y202679D01*
X304331Y202992D01*
X304796Y203234D01*
X307658Y200372D01*
Y187402D01*
X307734Y187018D01*
X307952Y186692D01*
X309626Y185017D01*
Y177095D01*
X309164Y176904D01*
X304508Y181560D01*
X304117Y181821D01*
X303657Y181913D01*
X303657Y181913D01*
X289528D01*
Y184016D01*
X289937Y184079D01*
Y186508D01*
X287402D01*
Y187508D01*
X289937D01*
Y189937D01*
X289937D01*
Y189984D01*
X289937D01*
Y192413D01*
X287402D01*
Y192913D01*
X286902D01*
Y195843D01*
X285236D01*
X280816Y200262D01*
X280491Y200480D01*
X280107Y200556D01*
X279966D01*
X279528Y200994D01*
Y201573D01*
X279228Y202296D01*
X278674Y202850D01*
X277951Y203150D01*
X277168D01*
X276444Y202850D01*
X275890Y202296D01*
X275591Y201573D01*
Y200789D01*
X275860Y200139D01*
X270166Y194446D01*
X269704Y194637D01*
Y211707D01*
X270166Y211899D01*
X276082Y205983D01*
D02*
G37*
G36*
X221260Y193898D02*
X241981D01*
X242189Y193398D01*
X242032Y193241D01*
X241732Y192517D01*
Y191734D01*
X242032Y191011D01*
X242586Y190457D01*
X243309Y190157D01*
X244092D01*
X244521Y190335D01*
X244903Y189952D01*
X244882Y189901D01*
Y189118D01*
X245182Y188394D01*
X245735Y187840D01*
X246459Y187541D01*
X247242D01*
X247940Y187830D01*
X248089Y187774D01*
X248425Y187593D01*
Y187010D01*
X248725Y186286D01*
X249279Y185733D01*
X250002Y185433D01*
X250785D01*
X251509Y185733D01*
X252063Y186286D01*
X252362Y187010D01*
Y187454D01*
X252654Y187611D01*
X252862Y187685D01*
X253545Y187402D01*
X254329D01*
X255052Y187701D01*
X255606Y188255D01*
X255906Y188979D01*
Y189550D01*
X256313Y189883D01*
X256367Y189900D01*
X256695Y189764D01*
X257478D01*
X258202Y190064D01*
X258755Y190617D01*
X259055Y191341D01*
Y192067D01*
X259203Y192184D01*
X259517Y192312D01*
X261989Y189840D01*
Y181496D01*
X262065Y181112D01*
X262282Y180787D01*
X267500Y175569D01*
Y172998D01*
X267000Y172791D01*
X266142Y173649D01*
Y174407D01*
X265842Y175131D01*
X265288Y175685D01*
X264565Y175984D01*
X263782D01*
X263058Y175685D01*
X262504Y175131D01*
X262205Y174407D01*
Y173624D01*
X262504Y172901D01*
X263058Y172347D01*
X263782Y172047D01*
X264565D01*
X264806Y172147D01*
X265518Y171435D01*
Y143329D01*
X261298Y139109D01*
X261081Y138784D01*
X261080Y138779D01*
X257781D01*
X257590Y139242D01*
X258158Y139810D01*
X258270Y139764D01*
X259053D01*
X259776Y140064D01*
X260330Y140617D01*
X260630Y141341D01*
Y142124D01*
X260330Y142847D01*
X259776Y143401D01*
X259053Y143701D01*
X258270D01*
X257772Y143495D01*
X257389Y143877D01*
X257480Y144097D01*
Y144880D01*
X257181Y145603D01*
X256627Y146157D01*
X255903Y146457D01*
X255120D01*
X254397Y146157D01*
X254322Y146083D01*
X253899Y146366D01*
X253937Y146459D01*
Y147242D01*
X253637Y147966D01*
X253084Y148519D01*
X252360Y148819D01*
X251577D01*
X250853Y148519D01*
X250300Y147966D01*
X250000Y147242D01*
Y146459D01*
X250039Y146366D01*
X249615Y146083D01*
X249540Y146157D01*
X248817Y146457D01*
X248034D01*
X247310Y146157D01*
X246756Y145603D01*
X246457Y144880D01*
Y144097D01*
X246548Y143877D01*
X246165Y143495D01*
X245667Y143701D01*
X244884D01*
X244161Y143401D01*
X243607Y142847D01*
X243307Y142124D01*
Y141341D01*
X243607Y140617D01*
X244161Y140064D01*
X244884Y139764D01*
X245667D01*
X245779Y139810D01*
X246347Y139242D01*
X246156Y138779D01*
X229350D01*
Y139527D01*
X229274Y139911D01*
X229056Y140237D01*
X226629Y142664D01*
Y153535D01*
X227129Y153670D01*
X227274Y153419D01*
X227923Y152770D01*
X228717Y152312D01*
X229603Y152074D01*
X230521D01*
X231407Y152312D01*
X232201Y152770D01*
X232850Y153419D01*
X233309Y154214D01*
X233546Y155100D01*
Y156017D01*
X233309Y156903D01*
X232850Y157698D01*
X232201Y158347D01*
X231407Y158805D01*
X230521Y159043D01*
X229603D01*
X228717Y158805D01*
X227923Y158347D01*
X227274Y157698D01*
X227129Y157448D01*
X226629Y157582D01*
Y161836D01*
X227129Y161935D01*
X227527Y161247D01*
X228176Y160598D01*
X228970Y160139D01*
X229856Y159902D01*
X230774D01*
X231660Y160139D01*
X232454Y160598D01*
X233103Y161247D01*
X233562Y162041D01*
X233799Y162927D01*
Y163845D01*
X233562Y164731D01*
X233103Y165525D01*
X232454Y166174D01*
X231660Y166633D01*
X230774Y166870D01*
X229856D01*
X228970Y166633D01*
X228176Y166174D01*
X227527Y165525D01*
X227129Y164837D01*
X226629Y164936D01*
Y169710D01*
X227129Y169809D01*
X227527Y169121D01*
X228176Y168472D01*
X228970Y168013D01*
X229856Y167776D01*
X230774D01*
X231660Y168013D01*
X232454Y168472D01*
X233103Y169121D01*
X233562Y169915D01*
X233799Y170801D01*
Y171719D01*
X233562Y172605D01*
X233103Y173399D01*
X232454Y174048D01*
X231660Y174507D01*
X230774Y174744D01*
X229856D01*
X228970Y174507D01*
X228176Y174048D01*
X227527Y173399D01*
X227129Y172711D01*
X226629Y172810D01*
Y177158D01*
X227129Y177292D01*
X227274Y177041D01*
X227923Y176392D01*
X228717Y175934D01*
X229603Y175696D01*
X230521D01*
X231407Y175934D01*
X232201Y176392D01*
X232850Y177041D01*
X233309Y177836D01*
X233546Y178722D01*
Y179639D01*
X233309Y180526D01*
X232850Y181320D01*
X232201Y181969D01*
X231407Y182427D01*
X230521Y182665D01*
X229603D01*
X228717Y182427D01*
X227923Y181969D01*
X227274Y181320D01*
X227129Y181070D01*
X226629Y181204D01*
Y184191D01*
X226553Y184575D01*
X226335Y184901D01*
X217800Y193436D01*
X217992Y193898D01*
X219685D01*
Y196734D01*
X219708Y196850D01*
X219685Y196967D01*
Y199193D01*
X221260D01*
Y193898D01*
D02*
G37*
G36*
X472441Y204724D02*
Y173228D01*
X460630D01*
Y192913D01*
X397638Y192913D01*
X393701Y196850D01*
Y208661D01*
X397638Y212598D01*
X464567Y212598D01*
X472441Y204724D01*
D02*
G37*
G36*
X156804Y165072D02*
X156804Y165072D01*
X157295Y164744D01*
X157874Y164628D01*
X170945D01*
X171402Y164524D01*
Y161130D01*
X174409D01*
Y160130D01*
X171402D01*
Y157759D01*
X161857D01*
X153203Y166413D01*
X152813Y166674D01*
X152352Y166766D01*
X152352Y166766D01*
X149898D01*
X147601Y169062D01*
Y170004D01*
X148101Y170212D01*
X148268Y170045D01*
X149136Y169685D01*
X150076D01*
X150944Y170045D01*
X151388Y170488D01*
X156804Y165072D01*
D02*
G37*
G36*
X306688Y175974D02*
X306497Y175512D01*
X301179D01*
Y171772D01*
X307751D01*
Y170512D01*
X301179D01*
Y166772D01*
X306945D01*
X307705Y166012D01*
X307635Y165512D01*
X301179D01*
Y164645D01*
X300847D01*
X300462Y164569D01*
X300137Y164351D01*
X288148Y152362D01*
X283858D01*
Y146850D01*
X289370D01*
Y150746D01*
X300717Y162093D01*
X301179Y161902D01*
Y161772D01*
X307754D01*
Y160512D01*
X301179D01*
Y156772D01*
X306668D01*
X306859Y156310D01*
X302621Y152071D01*
X302442Y152174D01*
X301741Y152362D01*
X301015D01*
X300314Y152174D01*
X299686Y151812D01*
X299173Y151298D01*
X298810Y150670D01*
X298622Y149969D01*
Y149243D01*
X298810Y148543D01*
X299173Y147914D01*
X299686Y147401D01*
X300314Y147038D01*
X301015Y146850D01*
X301741D01*
X302442Y147038D01*
X303070Y147401D01*
X303583Y147914D01*
X303946Y148543D01*
X304134Y149243D01*
Y149969D01*
X303970Y150582D01*
X309468Y156080D01*
X309685Y156405D01*
X309761Y156789D01*
Y165781D01*
X310261Y165988D01*
X311394Y164856D01*
Y153355D01*
X311394Y153355D01*
X311486Y152894D01*
X311747Y152503D01*
X320056Y144194D01*
Y131895D01*
X319591Y131430D01*
X319291Y130707D01*
Y129923D01*
X319591Y129200D01*
X320145Y128646D01*
X320868Y128347D01*
X321651D01*
X322375Y128646D01*
X322839Y129111D01*
X326378D01*
X326378Y129111D01*
X326839Y129202D01*
X327229Y129463D01*
X335104Y137337D01*
X335104Y137337D01*
X335365Y137728D01*
X335456Y138189D01*
X335456Y138189D01*
Y155010D01*
X336745Y156299D01*
X339352D01*
X339469Y156276D01*
X339585Y156299D01*
X343012D01*
Y157843D01*
X344738D01*
X345376Y157579D01*
X346159D01*
X346798Y157843D01*
X365578D01*
X369577Y153844D01*
X369386Y153382D01*
X366894D01*
Y142232D01*
X369488D01*
Y141732D01*
X369988D01*
Y130083D01*
X371411D01*
X371602Y129621D01*
X367021Y125039D01*
X363937D01*
Y119685D01*
X365008D01*
Y116024D01*
X363937D01*
Y110669D01*
X365008D01*
Y107008D01*
X363937D01*
Y101654D01*
X369291D01*
Y107008D01*
X368220D01*
Y110669D01*
X369291D01*
Y116024D01*
X368220D01*
Y119685D01*
X369291D01*
Y122769D01*
X371948Y125426D01*
X372410Y125234D01*
Y81078D01*
X368694Y77362D01*
X365256D01*
Y70866D01*
X328919D01*
X310256Y89530D01*
Y114384D01*
X310179Y114768D01*
X309962Y115094D01*
X275920Y149135D01*
X275600Y149349D01*
X275600Y149376D01*
X275693Y149842D01*
X275783Y149860D01*
X276109Y150078D01*
X278177Y152146D01*
X279781D01*
X279827Y152034D01*
X280381Y151481D01*
X281104Y151181D01*
X281888D01*
X282611Y151481D01*
X283165Y152034D01*
X283465Y152758D01*
Y153541D01*
X283165Y154265D01*
X282611Y154818D01*
X281888Y155118D01*
X281104D01*
X280381Y154818D01*
X279827Y154265D01*
X279781Y154153D01*
X277762D01*
X277378Y154077D01*
X277052Y153859D01*
X276052Y152860D01*
X275590Y153051D01*
Y155315D01*
Y159252D01*
Y162620D01*
X276091Y162827D01*
X279825Y159093D01*
Y156772D01*
X287010D01*
Y160512D01*
X281244D01*
X280446Y161310D01*
X280637Y161772D01*
X287010D01*
Y163809D01*
X291009Y167808D01*
X291009Y167808D01*
X291270Y168199D01*
X291362Y168659D01*
X291362Y168659D01*
Y178346D01*
X291362Y178347D01*
X291270Y178807D01*
X291138Y179004D01*
X291382Y179504D01*
X303158D01*
X306688Y175974D01*
D02*
G37*
G36*
X192543Y188492D02*
X195079D01*
Y187492D01*
X192543D01*
Y185516D01*
X192543Y185063D01*
X192543Y184563D01*
Y182587D01*
X195079D01*
X197614D01*
Y184563D01*
X197614Y185016D01*
X197614Y185516D01*
Y188206D01*
X198064Y188381D01*
X198465Y188110D01*
Y185473D01*
X199386D01*
Y184606D01*
X198465D01*
Y179567D01*
X201419D01*
X201535Y179544D01*
X201536Y179544D01*
X202451D01*
X202849Y179146D01*
X202587Y178701D01*
X198465D01*
Y173661D01*
X201297D01*
X201662Y173297D01*
X201471Y172835D01*
X198524D01*
Y167717D01*
X199981D01*
Y166929D01*
X198524D01*
Y161811D01*
X202023D01*
X202312Y161460D01*
X202126Y161024D01*
X198524D01*
Y156884D01*
X198062Y156693D01*
X197146Y157609D01*
Y161024D01*
X197402Y161417D01*
X197539D01*
Y167307D01*
X197555D01*
Y169776D01*
X194685D01*
X191815D01*
Y167307D01*
X191831D01*
Y165883D01*
X188328D01*
X186999Y167212D01*
X186508Y167540D01*
X186067Y167628D01*
X185861Y167755D01*
X185669Y168037D01*
Y176221D01*
X184275D01*
Y177717D01*
X185669D01*
Y184360D01*
X191208Y189898D01*
X192543D01*
Y188492D01*
D02*
G37*
G36*
X207904Y155834D02*
X208230Y155617D01*
X208614Y155540D01*
X208661D01*
Y155315D01*
X214154D01*
Y153740D01*
X211731D01*
X211614Y153763D01*
X207682D01*
X207414Y154031D01*
X206691Y154331D01*
X205908D01*
X205184Y154031D01*
X204630Y153477D01*
X204331Y152754D01*
Y151971D01*
X204408Y151784D01*
X203907Y151282D01*
X203445Y151473D01*
Y155118D01*
X201988D01*
Y155905D01*
X203445D01*
Y157461D01*
X203943D01*
X204327Y157537D01*
X204507Y157658D01*
X206080D01*
X207904Y155834D01*
D02*
G37*
G36*
X320044Y172716D02*
X320370Y172498D01*
X320374Y172497D01*
Y168110D01*
Y164173D01*
Y160236D01*
Y156299D01*
Y151827D01*
X319912Y151636D01*
X316555Y154993D01*
Y167913D01*
X316478Y168297D01*
X316261Y168623D01*
X313602Y171282D01*
Y178451D01*
X314102Y178658D01*
X320044Y172716D01*
D02*
G37*
G36*
X328520Y183947D02*
Y166831D01*
X328520Y166831D01*
X328612Y166370D01*
X328873Y165979D01*
X335752Y159100D01*
X335755Y158931D01*
X335671Y158532D01*
X335372Y158332D01*
X333400Y156360D01*
X333139Y155970D01*
X333048Y155509D01*
X333048Y155509D01*
Y151689D01*
X332548Y151383D01*
X332084Y151575D01*
X331301D01*
X330578Y151275D01*
X330024Y150721D01*
X329978Y150610D01*
X327461D01*
Y152362D01*
Y156299D01*
Y160236D01*
Y164173D01*
Y168110D01*
Y172047D01*
Y175984D01*
Y179921D01*
Y184353D01*
X327923Y184545D01*
X328520Y183947D01*
D02*
G37*
G36*
X379921Y151840D02*
Y151129D01*
X379421Y150922D01*
X379068Y151275D01*
X378344Y151575D01*
X377561D01*
X376838Y151275D01*
X376284Y150721D01*
X376121Y150329D01*
X375621Y150428D01*
Y151676D01*
X375621Y151676D01*
X375499Y152290D01*
X375151Y152811D01*
X370081Y157881D01*
X370273Y158343D01*
X373418D01*
X379921Y151840D01*
D02*
G37*
G36*
X192224Y158969D02*
Y155905D01*
X191930Y155527D01*
X191815D01*
Y153059D01*
X194685D01*
Y152059D01*
X191815D01*
Y149591D01*
X192047D01*
X192543Y149583D01*
Y146405D01*
X192081Y146214D01*
X187585Y150710D01*
X187260Y150927D01*
X186876Y151004D01*
X185669D01*
Y154173D01*
X181086D01*
Y157146D01*
X183307D01*
Y159426D01*
X191768D01*
X192224Y158969D01*
D02*
G37*
G36*
X221866Y182634D02*
Y141107D01*
X221943Y140723D01*
X222160Y140397D01*
X223278Y139279D01*
X223096Y138779D01*
X222101D01*
X221677Y138976D01*
X221585Y139437D01*
X221324Y139828D01*
X220079Y141073D01*
Y141730D01*
X219779Y142454D01*
X219225Y143007D01*
X218502Y143307D01*
X217719D01*
X216995Y143007D01*
X216661Y142673D01*
X216161Y142880D01*
Y163203D01*
X216085Y163587D01*
X215867Y163913D01*
X214897Y164883D01*
X214571Y165100D01*
X214567Y165101D01*
Y167126D01*
Y171457D01*
X211731D01*
X211614Y171480D01*
X209458D01*
X208604Y172334D01*
X208631Y173006D01*
X208661Y173031D01*
X214567D01*
Y176969D01*
Y180905D01*
Y184843D01*
Y189280D01*
X215029Y189471D01*
X221866Y182634D01*
D02*
G37*
G36*
X191849Y143607D02*
X191850Y143607D01*
X192859Y142597D01*
X193185Y142380D01*
X193569Y142304D01*
X201294D01*
X201486Y141842D01*
X193092Y133448D01*
X192874Y133122D01*
X192798Y132738D01*
Y130126D01*
X192612Y129940D01*
X190405D01*
X190308Y129921D01*
X186419D01*
Y126969D01*
Y124409D01*
Y121850D01*
X193407D01*
Y122891D01*
X193412Y122892D01*
X193737Y123109D01*
X196566Y125938D01*
X197028Y125747D01*
Y120561D01*
X196644Y120437D01*
X196528Y120429D01*
X195997Y120960D01*
X195273Y121260D01*
X194490D01*
X193767Y120960D01*
X193213Y120406D01*
X192913Y119683D01*
Y118900D01*
X193213Y118176D01*
X193767Y117622D01*
X194135Y117470D01*
Y116993D01*
X191554D01*
X191400Y117224D01*
X190193Y118431D01*
X189868Y118648D01*
X189484Y118725D01*
X184731D01*
X184347Y118648D01*
X184022Y118431D01*
X183493Y117903D01*
X183031Y118094D01*
Y120039D01*
X182290D01*
Y134918D01*
X186419D01*
Y134646D01*
X193407D01*
Y137205D01*
Y140157D01*
X186419D01*
Y137326D01*
X181584D01*
X181086Y137825D01*
Y145827D01*
X185669D01*
Y148996D01*
X186460D01*
X191849Y143607D01*
D02*
G37*
G36*
X216381Y140369D02*
X216441Y140224D01*
X216995Y139670D01*
X217719Y139370D01*
X218376D01*
X219268Y138478D01*
Y135827D01*
X219291Y135710D01*
Y133465D01*
X214989D01*
X214501Y133952D01*
X213777Y134252D01*
X212994D01*
X212271Y133952D01*
X211783Y133465D01*
X204041D01*
X203850Y133926D01*
X209668Y139744D01*
X214696D01*
X215080Y139821D01*
X215406Y140038D01*
X215810Y140442D01*
X216075Y140447D01*
X216381Y140369D01*
D02*
G37*
G36*
X267500Y141766D02*
Y141603D01*
X267577Y141219D01*
X267794Y140893D01*
X278819Y129868D01*
Y128850D01*
X278319Y128559D01*
X277832Y128761D01*
X277049D01*
X276325Y128461D01*
X275850Y127986D01*
X268268D01*
Y128898D01*
X266952D01*
Y135827D01*
X266929Y135943D01*
Y138779D01*
X264567D01*
Y135943D01*
X264544Y135827D01*
Y128898D01*
X263228D01*
X262815Y129106D01*
Y132874D01*
X262992D01*
Y135927D01*
X263011Y136024D01*
Y137984D01*
X267000Y141973D01*
X267500Y141766D01*
D02*
G37*
G36*
X219291Y132874D02*
X222638D01*
X227559Y127953D01*
Y123795D01*
X227386D01*
Y118724D01*
X227559D01*
Y117323D01*
X224410Y114173D01*
X215619D01*
X215354Y114569D01*
Y115352D01*
X215143Y115863D01*
X215297Y116094D01*
X215374Y116478D01*
Y117717D01*
X218504D01*
Y120256D01*
X219724D01*
Y119134D01*
X224764D01*
Y123386D01*
X219724D01*
Y122263D01*
X218504D01*
Y123622D01*
X213386D01*
Y119191D01*
X213367Y119095D01*
Y116929D01*
X212994D01*
X212271Y116629D01*
X211717Y116076D01*
X211417Y115352D01*
Y114569D01*
X211153Y114173D01*
X201813D01*
X199035Y116951D01*
Y118504D01*
X199213D01*
Y129289D01*
X202994Y133071D01*
X211153D01*
X211417Y132675D01*
Y131892D01*
X211629Y131381D01*
X211474Y131151D01*
X211398Y130766D01*
Y130315D01*
X208268D01*
Y127972D01*
X207047D01*
Y129095D01*
X202008D01*
Y124843D01*
X207047D01*
Y125965D01*
X208268D01*
Y124409D01*
X213386D01*
Y128840D01*
D01*
X213405Y128937D01*
Y130315D01*
X213777D01*
X214501Y130615D01*
X215055Y131168D01*
X215354Y131892D01*
Y132675D01*
D01*
X215470Y132848D01*
X215487Y132874D01*
D01*
X215619Y133071D01*
X219291D01*
Y132874D01*
D02*
G37*
G36*
X260807Y128898D02*
X257323D01*
Y127775D01*
X256634D01*
Y129764D01*
X249665D01*
Y124567D01*
X256634D01*
Y125768D01*
X257323D01*
Y124646D01*
X262362D01*
Y127478D01*
X262521Y127637D01*
X262728Y127948D01*
X262768Y127956D01*
X263228Y127865D01*
Y124646D01*
X268268D01*
Y125578D01*
X275871D01*
X276325Y125123D01*
X276886Y124891D01*
X277063Y124362D01*
X271815Y119114D01*
X269685D01*
X269301Y119037D01*
X269177Y118955D01*
X268677Y119205D01*
Y120760D01*
X265748D01*
Y121260D01*
X265248D01*
Y123795D01*
X263272D01*
X262819Y123795D01*
X262319Y123795D01*
X260343D01*
Y121260D01*
X259343D01*
Y123795D01*
X257043D01*
Y123874D01*
X253650D01*
Y120866D01*
X253150D01*
Y120366D01*
X249256D01*
Y119352D01*
X248794Y119161D01*
X243878Y124077D01*
Y127911D01*
X246773Y130806D01*
X246990Y131132D01*
X247066Y131516D01*
Y132874D01*
X260807D01*
Y128898D01*
D02*
G37*
G36*
X23622Y141732D02*
X86614D01*
X90551Y137795D01*
Y125984D01*
X86614Y122047D01*
X17717D01*
X11811Y127953D01*
Y159449D01*
X23622D01*
Y141732D01*
D02*
G37*
G36*
X272835Y141516D02*
X274191D01*
X297221Y118486D01*
X297014Y117986D01*
X292756D01*
X292756Y117986D01*
X292295Y117894D01*
X291904Y117633D01*
X291904Y117633D01*
X290462Y116191D01*
X288637D01*
X288624Y116254D01*
X288406Y116580D01*
X287692Y117294D01*
X287367Y117512D01*
X286982Y117588D01*
X283411D01*
X283027Y117512D01*
X282702Y117294D01*
X281987Y116580D01*
X281770Y116254D01*
X281757Y116191D01*
X278228D01*
Y108041D01*
X277165D01*
Y116191D01*
X273228D01*
Y108041D01*
X272165D01*
Y116191D01*
X269838D01*
X269647Y116653D01*
X270101Y117107D01*
X272231D01*
X272615Y117183D01*
X272940Y117401D01*
X280532Y124993D01*
X280750Y125318D01*
X280826Y125702D01*
Y130284D01*
X280750Y130668D01*
X280532Y130994D01*
X270453Y141074D01*
X270644Y141535D01*
X272738D01*
X272835Y141516D01*
D02*
G37*
G36*
X143878Y117017D02*
X143494Y116893D01*
X143378Y116886D01*
X142847Y117417D01*
X142736Y117463D01*
Y130928D01*
X142659Y131312D01*
X142442Y131637D01*
X139980Y134099D01*
Y138378D01*
X140165Y138563D01*
X141732D01*
X141829Y138583D01*
X143878D01*
Y117017D01*
D02*
G37*
G36*
X230815Y118724D02*
X232225D01*
Y111063D01*
X221328Y100166D01*
X220866Y100357D01*
Y109055D01*
X214173D01*
Y105334D01*
X210652D01*
X202668Y113318D01*
X202860Y113779D01*
X211783D01*
X212271Y113292D01*
X212994Y112992D01*
X213777D01*
X214501Y113292D01*
X214989Y113779D01*
X224803D01*
X228346Y117323D01*
Y118724D01*
X229815D01*
Y121260D01*
X230815D01*
Y118724D01*
D02*
G37*
G36*
X295490Y106969D02*
X291181Y102660D01*
X279020D01*
X278555Y103125D01*
X278442Y103172D01*
X278542Y103672D01*
X281569D01*
X281953Y103748D01*
X282279Y103966D01*
X284922Y106609D01*
X285140Y106935D01*
X285216Y107319D01*
Y107431D01*
X286757D01*
X286770Y107368D01*
X286987Y107042D01*
X287702Y106328D01*
X288027Y106110D01*
X288411Y106034D01*
X292835D01*
X293219Y106110D01*
X293544Y106328D01*
X294648Y107431D01*
X295298D01*
X295490Y106969D01*
D02*
G37*
G36*
X196644Y118146D02*
X197028Y118022D01*
Y116535D01*
X197104Y116151D01*
X197322Y115826D01*
X208620Y104528D01*
X205274Y101181D01*
X204727D01*
X204003Y100881D01*
X203449Y100328D01*
X203150Y99604D01*
Y98821D01*
X203355Y98326D01*
X203273Y97993D01*
X203184Y97824D01*
X203101Y97739D01*
X202834Y97560D01*
X190399Y85125D01*
X189937Y85317D01*
Y86508D01*
X187508D01*
Y84472D01*
X189093D01*
X189284Y84010D01*
X177537Y72263D01*
X165551D01*
X165417Y72763D01*
X165472Y72795D01*
X165985Y73308D01*
X166348Y73936D01*
X166535Y74637D01*
Y75363D01*
X166348Y76064D01*
X165985Y76692D01*
X165514Y77163D01*
X165462Y77409D01*
Y77512D01*
X165514Y77758D01*
X165985Y78229D01*
X166348Y78857D01*
X166364Y78918D01*
X179860D01*
X180244Y78994D01*
X180570Y79212D01*
X184232Y82874D01*
X184450Y83200D01*
X184526Y83584D01*
Y84472D01*
X186508D01*
Y87008D01*
Y89543D01*
X184480D01*
X184450Y89696D01*
X184252Y89991D01*
X184365Y90169D01*
X184567Y90394D01*
X189527D01*
Y93564D01*
X189547Y93661D01*
Y94132D01*
X191380Y95965D01*
X195079D01*
Y100492D01*
X190067D01*
X189961Y100492D01*
Y100492D01*
X189567D01*
Y100492D01*
X184449D01*
Y96790D01*
X183348Y95689D01*
X182677D01*
X182658Y95685D01*
X181494D01*
X181188Y95624D01*
X180928Y95450D01*
X180754Y95190D01*
X180693Y94884D01*
Y89959D01*
X180754Y89652D01*
X180928Y89392D01*
X180992Y89350D01*
X180840Y88850D01*
X178467D01*
X178271Y89268D01*
Y89357D01*
X178324Y89392D01*
X178498Y89652D01*
X178559Y89959D01*
Y94884D01*
X178498Y95190D01*
X178324Y95450D01*
X178064Y95624D01*
X177758Y95685D01*
X176376D01*
X176069Y95624D01*
X175810Y95450D01*
X175765D01*
X175505Y95624D01*
X175199Y95685D01*
X173817D01*
X173511Y95624D01*
X173316Y95494D01*
X172314D01*
X172244Y95965D01*
X172244Y95965D01*
X172244Y95965D01*
Y100492D01*
X168903D01*
X168712Y100954D01*
X169628Y101870D01*
X172244D01*
Y104486D01*
X174435Y106677D01*
X175199D01*
X175505Y106738D01*
X175765Y106912D01*
X175810D01*
X176069Y106738D01*
X176376Y106677D01*
X176716D01*
X176849Y106477D01*
X178037Y105290D01*
X178363Y105072D01*
X178747Y104996D01*
X184449D01*
Y101870D01*
X189567D01*
Y101870D01*
X189961D01*
Y101870D01*
X195079D01*
Y106398D01*
X195079D01*
X195155Y106820D01*
X195155Y106820D01*
X195155Y106866D01*
Y108855D01*
X192226D01*
Y109855D01*
X195155D01*
Y111559D01*
X195272Y111638D01*
X195849Y112214D01*
X196066Y112540D01*
X196143Y112924D01*
Y117768D01*
X196528Y118154D01*
X196644Y118146D01*
D02*
G37*
G36*
X214173Y99606D02*
X220115D01*
X220307Y99144D01*
X220100Y98938D01*
X220100Y98938D01*
X219016Y97854D01*
X210770D01*
X210724Y97966D01*
X210170Y98519D01*
X209447Y98819D01*
X208664D01*
X207940Y98519D01*
X207590Y98169D01*
X207363Y98182D01*
X207037Y98701D01*
X207087Y98821D01*
Y99604D01*
X206925Y99994D01*
X210258Y103327D01*
X214173D01*
Y99606D01*
D02*
G37*
G36*
X116550Y170329D02*
X116535Y170276D01*
Y169291D01*
X116790Y168340D01*
X117283Y167487D01*
X117979Y166791D01*
X118832Y166298D01*
X119095Y166228D01*
Y158071D01*
X128937D01*
Y159843D01*
X131102D01*
Y162524D01*
X133516D01*
X133707Y162024D01*
X133533Y161763D01*
X133441Y161302D01*
X133441Y161302D01*
Y131890D01*
X133441Y131890D01*
X133533Y131429D01*
X133794Y131038D01*
X134780Y130052D01*
Y97267D01*
X131125D01*
Y98228D01*
X131102Y98345D01*
Y101575D01*
X128937D01*
Y102854D01*
X129000Y102963D01*
X129255Y103914D01*
Y104899D01*
X129000Y105850D01*
X128508Y106703D01*
X127811Y107399D01*
X126958Y107892D01*
X126007Y108147D01*
X125022D01*
X124071Y107892D01*
X123218Y107399D01*
X122965Y107146D01*
X122776Y107335D01*
X121924Y107827D01*
X120972Y108082D01*
X119987D01*
X119036Y107827D01*
X118183Y107335D01*
X117487Y106639D01*
X116995Y105786D01*
X116740Y104835D01*
Y103850D01*
X116995Y102899D01*
X117487Y102046D01*
X118183Y101349D01*
X119036Y100857D01*
X119095Y100841D01*
Y93110D01*
X128937D01*
Y94882D01*
X129805D01*
X129921Y94859D01*
X132126D01*
Y92953D01*
X136565D01*
X136953Y92564D01*
X136762Y92102D01*
X135146D01*
Y90067D01*
X137575D01*
Y91289D01*
X138037Y91481D01*
X142967Y86550D01*
X142967Y86550D01*
X143358Y86289D01*
X143819Y86197D01*
X148027D01*
X148491Y85733D01*
X149215Y85433D01*
X149998D01*
X150585Y85676D01*
X150977Y85361D01*
X150989Y85343D01*
X150984Y85333D01*
Y84549D01*
X151284Y83826D01*
X151838Y83272D01*
X152561Y82972D01*
X153344D01*
X154068Y83272D01*
X154622Y83826D01*
X154921Y84549D01*
Y85333D01*
X154799Y85628D01*
X155182Y86010D01*
X155244Y85984D01*
X156027D01*
X156751Y86284D01*
X157305Y86838D01*
X157604Y87561D01*
Y88344D01*
X157305Y89068D01*
X156892Y89481D01*
Y90084D01*
X162521Y95712D01*
X162738Y96038D01*
X162815Y96422D01*
Y97156D01*
X163198Y97280D01*
X163315Y97287D01*
X163846Y96756D01*
X164569Y96457D01*
X165352D01*
X166076Y96756D01*
X166626Y97307D01*
X166646Y97307D01*
X167126Y97202D01*
Y95965D01*
X168892D01*
X168975Y95840D01*
X170890Y93925D01*
X170686Y93425D01*
X166437D01*
X166053Y93348D01*
X165727Y93131D01*
X165116Y92520D01*
X161024D01*
Y87008D01*
X161394D01*
X161492Y86772D01*
X161559Y86508D01*
X161211Y85906D01*
X161024Y85205D01*
Y84480D01*
X161211Y83779D01*
X161574Y83150D01*
X162045Y82679D01*
X162097Y82434D01*
Y82330D01*
X162045Y82084D01*
X161574Y81613D01*
X161211Y80985D01*
X161024Y80284D01*
Y79558D01*
X161211Y78857D01*
X161574Y78229D01*
X162045Y77758D01*
X162097Y77512D01*
Y77409D01*
X162045Y77163D01*
X161574Y76692D01*
X161211Y76064D01*
X161024Y75363D01*
Y74637D01*
X161211Y73936D01*
X161574Y73308D01*
X162087Y72795D01*
X162142Y72763D01*
X162008Y72263D01*
X134864D01*
X130925Y76203D01*
Y77559D01*
X131102D01*
Y84252D01*
X130925D01*
Y85346D01*
X130848Y85730D01*
X130631Y86055D01*
X128575Y88111D01*
X128249Y88329D01*
X127865Y88405D01*
X117148D01*
X113799Y91754D01*
Y125588D01*
X125119Y136909D01*
X125119Y136909D01*
X128181Y139970D01*
X128283Y140038D01*
X130237Y141993D01*
X130305Y142095D01*
X130434Y142224D01*
X130632Y142520D01*
X131102D01*
Y149213D01*
X120866D01*
Y146870D01*
X119510D01*
X115767Y150612D01*
Y170254D01*
X116101Y170588D01*
X116550Y170329D01*
D02*
G37*
G36*
X152200Y94614D02*
X152526Y94397D01*
X152910Y94320D01*
X153740D01*
X153931Y93859D01*
X150840Y90767D01*
X144099D01*
X138563Y96304D01*
Y107599D01*
X139024Y107790D01*
X152200Y94614D01*
D02*
G37*
G36*
X173016Y89959D02*
X173077Y89652D01*
X173251Y89392D01*
X173511Y89219D01*
X173817Y89158D01*
X175199D01*
X175363Y89190D01*
X175758Y88962D01*
X175780Y88940D01*
X175661Y88440D01*
X173365D01*
Y87031D01*
X172446D01*
X171981Y87496D01*
X171258Y87795D01*
X170475D01*
X169751Y87496D01*
X169197Y86942D01*
X168898Y86218D01*
Y85435D01*
X169197Y84712D01*
X169751Y84158D01*
X170475Y83858D01*
X171258D01*
X171981Y84158D01*
X172446Y84623D01*
X173365D01*
Y83401D01*
X177617D01*
Y86737D01*
X177919Y87039D01*
X177967Y87112D01*
X178467Y86960D01*
Y86421D01*
X181003D01*
Y85421D01*
X178467D01*
Y82991D01*
X180858D01*
X181049Y82529D01*
X179444Y80925D01*
X166364D01*
X166348Y80985D01*
X165985Y81613D01*
X165514Y82084D01*
X165462Y82330D01*
Y82434D01*
X165514Y82679D01*
X165985Y83150D01*
X166348Y83779D01*
X166535Y84480D01*
Y85205D01*
X166348Y85906D01*
X166000Y86508D01*
X166067Y86772D01*
X166165Y87008D01*
X166535D01*
Y91101D01*
X166853Y91418D01*
X173016D01*
Y89959D01*
D02*
G37*
G36*
X255501Y99773D02*
X255373Y99459D01*
X255256Y99311D01*
X254530D01*
X253806Y99011D01*
X253252Y98458D01*
X252953Y97734D01*
Y96951D01*
X253195Y96366D01*
X252960Y95866D01*
X247441D01*
Y95689D01*
X247342D01*
X246958Y95612D01*
X246633Y95395D01*
X245944Y94706D01*
X245726Y94380D01*
X245650Y93996D01*
Y84274D01*
X236198Y74822D01*
X232916D01*
X222208Y85531D01*
X222187Y85634D01*
X221970Y85960D01*
X221393Y86536D01*
X221067Y86754D01*
X220683Y86830D01*
X211515D01*
X211024Y87322D01*
Y87793D01*
X210724Y88517D01*
X210170Y89070D01*
X209447Y89370D01*
X208664D01*
X207940Y89070D01*
X207386Y88517D01*
X207087Y87793D01*
Y87010D01*
X207386Y86286D01*
X207940Y85733D01*
X208664Y85433D01*
X209447D01*
X209890Y85617D01*
X210390Y85117D01*
X210715Y84900D01*
X211099Y84823D01*
X214173D01*
Y81712D01*
X209864D01*
X207434Y84143D01*
X207480Y84254D01*
Y85037D01*
X207181Y85761D01*
X206627Y86314D01*
X205903Y86614D01*
X205120D01*
X204397Y86314D01*
X203843Y85761D01*
X203543Y85037D01*
Y84254D01*
X203843Y83531D01*
X204397Y82977D01*
X205120Y82677D01*
X205903D01*
X206015Y82723D01*
X208739Y79999D01*
X209065Y79782D01*
X209449Y79705D01*
X214173D01*
Y75984D01*
X220866D01*
Y83380D01*
X221328Y83572D01*
X231349Y73551D01*
X231142Y73051D01*
X203905D01*
X203521Y72974D01*
X203196Y72757D01*
X201305Y70866D01*
X183529D01*
X183338Y71328D01*
X202345Y90335D01*
X217817D01*
X218202Y90411D01*
X218527Y90629D01*
X236694Y108796D01*
X236911Y109121D01*
X236988Y109505D01*
Y117633D01*
X237450Y117824D01*
X255501Y99773D01*
D02*
G37*
G36*
X376284Y142586D02*
X376838Y142032D01*
X377561Y141732D01*
X378344D01*
X378456Y141779D01*
X379921Y140313D01*
Y78740D01*
X372047Y70866D01*
X370965D01*
Y75091D01*
X375151Y79278D01*
X375151Y79278D01*
X375499Y79799D01*
X375621Y80413D01*
X375621Y80414D01*
Y129528D01*
Y142879D01*
X376121Y142978D01*
X376284Y142586D01*
D02*
G37*
G36*
X258228Y107431D02*
X261757D01*
X261770Y107368D01*
X261987Y107042D01*
X262702Y106328D01*
X263027Y106110D01*
X263411Y106034D01*
X272725D01*
X273028Y105534D01*
X272835Y105067D01*
Y104284D01*
X273134Y103560D01*
X273688Y103006D01*
X274412Y102707D01*
X275195D01*
X275305Y102752D01*
X275688Y102370D01*
X275472Y101848D01*
Y101064D01*
X275771Y100341D01*
X276325Y99787D01*
X277049Y99488D01*
X277832D01*
X278555Y99787D01*
X279020Y100252D01*
X291679D01*
X291680Y100252D01*
X292140Y100343D01*
X292531Y100604D01*
X300302Y108376D01*
X300764Y108184D01*
Y89134D01*
X299449D01*
Y84882D01*
X304488D01*
Y85959D01*
X304950Y86150D01*
X319772Y71328D01*
X319581Y70866D01*
X297165D01*
Y79089D01*
X293228D01*
Y71748D01*
X292665Y71185D01*
X292165Y71392D01*
Y79089D01*
X290216D01*
Y79201D01*
X290140Y79585D01*
X289922Y79910D01*
X272512Y97321D01*
X272186Y97538D01*
X271802Y97615D01*
X264494D01*
X250976Y111133D01*
X251167Y111595D01*
X258228D01*
Y107431D01*
D02*
G37*
G36*
X262798Y94524D02*
X263123Y94306D01*
X263507Y94230D01*
X270816D01*
X285495Y79550D01*
X285304Y79089D01*
X283228D01*
Y70866D01*
X282165D01*
Y79089D01*
X278228D01*
Y70866D01*
X277165D01*
Y79089D01*
X273228D01*
Y70866D01*
X272165D01*
Y79089D01*
X268228D01*
Y70866D01*
X262165D01*
Y79089D01*
X258228D01*
Y75807D01*
X255258D01*
X255212Y75918D01*
X254658Y76472D01*
X253935Y76772D01*
X253152D01*
X252428Y76472D01*
X251874Y75918D01*
X251575Y75195D01*
Y74412D01*
X251874Y73688D01*
X252428Y73134D01*
X253152Y72835D01*
X253935D01*
X254658Y73134D01*
X255212Y73688D01*
X255258Y73800D01*
X258228D01*
Y70866D01*
X238207D01*
X238051Y71245D01*
X238041Y71366D01*
X251466Y84791D01*
X251684Y85117D01*
X251760Y85501D01*
Y85630D01*
X254134D01*
Y88048D01*
X254138Y88049D01*
X254464Y88267D01*
X257993Y91796D01*
X258211Y92122D01*
X258287Y92506D01*
Y98381D01*
X258749Y98572D01*
X262798Y94524D01*
D02*
G37*
G36*
X123012Y74803D02*
X123089Y74419D01*
X123306Y74094D01*
X126072Y71328D01*
X125880Y70866D01*
X112205D01*
X107179Y75891D01*
X107382Y76380D01*
Y77163D01*
X107693Y77540D01*
X121850D01*
X121947Y77559D01*
X123012D01*
Y74803D01*
D02*
G37*
G36*
X296453Y51972D02*
X296431Y51950D01*
X295624Y50741D01*
X295067Y49397D01*
X294783Y47971D01*
Y46517D01*
X295067Y45091D01*
X295624Y43747D01*
X296431Y42538D01*
X297460Y41510D01*
X298669Y40702D01*
X300012Y40146D01*
X301438Y39862D01*
X302892D01*
X304319Y40146D01*
X305662Y40702D01*
X306871Y41510D01*
X306893Y41532D01*
X312992Y35433D01*
X315402D01*
X316273Y34561D01*
X317453Y33773D01*
X318765Y33230D01*
X320157Y32953D01*
X321576D01*
X322968Y33230D01*
X324279Y33773D01*
X325459Y34561D01*
X326331Y35433D01*
X332134D01*
X333006Y34561D01*
X334186Y33773D01*
X335497Y33230D01*
X336889Y32953D01*
X338308D01*
X339700Y33230D01*
X341011Y33773D01*
X342191Y34561D01*
X343063Y35433D01*
X369535D01*
X370407Y34561D01*
X371587Y33773D01*
X372899Y33230D01*
X374290Y32953D01*
X375710D01*
X377101Y33230D01*
X377870Y33548D01*
X379921Y31496D01*
Y27590D01*
X379421Y27364D01*
X378413Y28038D01*
X377101Y28581D01*
X375710Y28858D01*
X374290D01*
X372899Y28581D01*
X371587Y28038D01*
X370407Y27250D01*
X369404Y26246D01*
X368615Y25066D01*
X368072Y23755D01*
X367795Y22363D01*
Y20944D01*
X368072Y19552D01*
X368615Y18241D01*
X369404Y17061D01*
X370407Y16057D01*
X371587Y15269D01*
X372899Y14726D01*
X374290Y14449D01*
X375710D01*
X377101Y14726D01*
X378413Y15269D01*
X379421Y15943D01*
X379921Y15718D01*
Y5906D01*
X375984Y1969D01*
X108268D01*
X104331Y5906D01*
Y15718D01*
X104831Y15943D01*
X105839Y15269D01*
X107150Y14726D01*
X108542Y14449D01*
X109962D01*
X111354Y14726D01*
X112665Y15269D01*
X113845Y16057D01*
X114848Y17061D01*
X115637Y18241D01*
X116180Y19552D01*
X116457Y20944D01*
Y22363D01*
X116180Y23755D01*
X115637Y25066D01*
X114848Y26246D01*
X113845Y27250D01*
X112665Y28038D01*
X111354Y28581D01*
X109962Y28858D01*
X108542D01*
X107150Y28581D01*
X105839Y28038D01*
X104831Y27364D01*
X104331Y27590D01*
Y31496D01*
X106382Y33548D01*
X107150Y33230D01*
X108542Y32953D01*
X109962D01*
X111354Y33230D01*
X112665Y33773D01*
X113845Y34561D01*
X114717Y35433D01*
X141189D01*
X142061Y34561D01*
X143241Y33773D01*
X144552Y33230D01*
X145944Y32953D01*
X147363D01*
X148755Y33230D01*
X150066Y33773D01*
X151246Y34561D01*
X152118Y35433D01*
X157921D01*
X158793Y34561D01*
X159973Y33773D01*
X161284Y33230D01*
X162676Y32953D01*
X164095D01*
X165487Y33230D01*
X166798Y33773D01*
X167979Y34561D01*
X168850Y35433D01*
X171260D01*
X177359Y41532D01*
X177381Y41510D01*
X178590Y40702D01*
X179933Y40146D01*
X181360Y39862D01*
X182814D01*
X184240Y40146D01*
X185583Y40702D01*
X186792Y41510D01*
X187820Y42538D01*
X188628Y43747D01*
X189185Y45091D01*
X189469Y46517D01*
Y47971D01*
X189185Y49397D01*
X188628Y50741D01*
X187820Y51950D01*
X187799Y51972D01*
X204724Y68898D01*
X251101D01*
X251246Y68419D01*
X250590Y67981D01*
X249342Y66733D01*
X248362Y65266D01*
X247687Y63636D01*
X247342Y61906D01*
Y60141D01*
X247687Y58411D01*
X248362Y56781D01*
X249342Y55314D01*
X250590Y54066D01*
X252057Y53086D01*
X253687Y52411D01*
X255417Y52067D01*
X257181D01*
X258912Y52411D01*
X260542Y53086D01*
X262009Y54066D01*
X263256Y55314D01*
X264236Y56781D01*
X264912Y58411D01*
X265256Y60141D01*
Y61906D01*
X264912Y63636D01*
X264236Y65266D01*
X263256Y66733D01*
X262009Y67981D01*
X261353Y68419D01*
X261498Y68898D01*
X279528D01*
X296453Y51972D01*
D02*
G37*
%LPC*%
G36*
X356792Y325590D02*
X355807D01*
X354856Y325336D01*
X354003Y324843D01*
X353306Y324147D01*
X352814Y323294D01*
X352559Y322343D01*
Y321358D01*
X352814Y320407D01*
X353306Y319554D01*
X354003Y318858D01*
X354856Y318365D01*
X355807Y318110D01*
X356792D01*
X357743Y318365D01*
X358596Y318858D01*
X359292Y319554D01*
X359785Y320407D01*
X360039Y321358D01*
Y322343D01*
X359785Y323294D01*
X359292Y324147D01*
X358596Y324843D01*
X357743Y325336D01*
X356792Y325590D01*
D02*
G37*
G36*
X302658D02*
X301673D01*
X300722Y325336D01*
X299869Y324843D01*
X299172Y324147D01*
X298680Y323294D01*
X298425Y322343D01*
Y321358D01*
X298680Y320407D01*
X299172Y319554D01*
X299869Y318858D01*
X300722Y318365D01*
X301673Y318110D01*
X302658D01*
X303609Y318365D01*
X304462Y318858D01*
X305158Y319554D01*
X305651Y320407D01*
X305906Y321358D01*
Y322343D01*
X305651Y323294D01*
X305158Y324147D01*
X304462Y324843D01*
X303609Y325336D01*
X302658Y325590D01*
D02*
G37*
G36*
X182579D02*
X181594D01*
X180643Y325336D01*
X179790Y324843D01*
X179094Y324147D01*
X178601Y323294D01*
X178347Y322343D01*
Y321358D01*
X178601Y320407D01*
X179094Y319554D01*
X179790Y318858D01*
X180643Y318365D01*
X181594Y318110D01*
X182579D01*
X183530Y318365D01*
X184383Y318858D01*
X185080Y319554D01*
X185572Y320407D01*
X185827Y321358D01*
Y322343D01*
X185572Y323294D01*
X185080Y324147D01*
X184383Y324843D01*
X183530Y325336D01*
X182579Y325590D01*
D02*
G37*
G36*
X128445D02*
X127460D01*
X126509Y325336D01*
X125656Y324843D01*
X124960Y324147D01*
X124468Y323294D01*
X124213Y322343D01*
Y321358D01*
X124468Y320407D01*
X124960Y319554D01*
X125656Y318858D01*
X126509Y318365D01*
X127460Y318110D01*
X128445D01*
X129396Y318365D01*
X130249Y318858D01*
X130946Y319554D01*
X131438Y320407D01*
X131693Y321358D01*
Y322343D01*
X131438Y323294D01*
X130946Y324147D01*
X130249Y324843D01*
X129396Y325336D01*
X128445Y325590D01*
D02*
G37*
G36*
X338308Y318228D02*
X336889D01*
X335497Y317951D01*
X334186Y317408D01*
X333006Y316620D01*
X332002Y315616D01*
X331214Y314436D01*
X330671Y313125D01*
X330394Y311733D01*
Y310314D01*
X330671Y308922D01*
X331214Y307611D01*
X332002Y306431D01*
X333006Y305427D01*
X334186Y304639D01*
X335497Y304096D01*
X336889Y303819D01*
X338308D01*
X339700Y304096D01*
X341011Y304639D01*
X342191Y305427D01*
X343195Y306431D01*
X343983Y307611D01*
X344526Y308922D01*
X344803Y310314D01*
Y311733D01*
X344526Y313125D01*
X343983Y314436D01*
X343195Y315616D01*
X342191Y316620D01*
X341011Y317408D01*
X339700Y317951D01*
X338308Y318228D01*
D02*
G37*
G36*
X321576D02*
X320157D01*
X318765Y317951D01*
X317453Y317408D01*
X316273Y316620D01*
X315270Y315616D01*
X314481Y314436D01*
X313938Y313125D01*
X313661Y311733D01*
Y310314D01*
X313938Y308922D01*
X314481Y307611D01*
X315270Y306431D01*
X316273Y305427D01*
X317453Y304639D01*
X318765Y304096D01*
X320157Y303819D01*
X321576D01*
X322968Y304096D01*
X324279Y304639D01*
X325459Y305427D01*
X326462Y306431D01*
X327251Y307611D01*
X327794Y308922D01*
X328071Y310314D01*
Y311733D01*
X327794Y313125D01*
X327251Y314436D01*
X326462Y315616D01*
X325459Y316620D01*
X324279Y317408D01*
X322968Y317951D01*
X321576Y318228D01*
D02*
G37*
G36*
X284174D02*
X282755D01*
X281363Y317951D01*
X280052Y317408D01*
X278872Y316620D01*
X277868Y315616D01*
X277080Y314436D01*
X276537Y313125D01*
X276260Y311733D01*
Y310314D01*
X276537Y308922D01*
X277080Y307611D01*
X277868Y306431D01*
X278872Y305427D01*
X280052Y304639D01*
X281363Y304096D01*
X282755Y303819D01*
X284174D01*
X285566Y304096D01*
X286877Y304639D01*
X288057Y305427D01*
X289061Y306431D01*
X289849Y307611D01*
X290392Y308922D01*
X290669Y310314D01*
Y311733D01*
X290392Y313125D01*
X289849Y314436D01*
X289061Y315616D01*
X288057Y316620D01*
X286877Y317408D01*
X285566Y317951D01*
X284174Y318228D01*
D02*
G37*
G36*
X201497D02*
X200078D01*
X198686Y317951D01*
X197375Y317408D01*
X196195Y316620D01*
X195191Y315616D01*
X194403Y314436D01*
X193860Y313125D01*
X193583Y311733D01*
Y310314D01*
X193860Y308922D01*
X194403Y307611D01*
X195191Y306431D01*
X196195Y305427D01*
X197375Y304639D01*
X198686Y304096D01*
X200078Y303819D01*
X201497D01*
X202889Y304096D01*
X204200Y304639D01*
X205380Y305427D01*
X206384Y306431D01*
X207172Y307611D01*
X207715Y308922D01*
X207992Y310314D01*
Y311733D01*
X207715Y313125D01*
X207172Y314436D01*
X206384Y315616D01*
X205380Y316620D01*
X204200Y317408D01*
X202889Y317951D01*
X201497Y318228D01*
D02*
G37*
G36*
X164095D02*
X162676D01*
X161284Y317951D01*
X159973Y317408D01*
X158793Y316620D01*
X157790Y315616D01*
X157001Y314436D01*
X156458Y313125D01*
X156181Y311733D01*
Y310314D01*
X156458Y308922D01*
X157001Y307611D01*
X157790Y306431D01*
X158793Y305427D01*
X159973Y304639D01*
X161284Y304096D01*
X162676Y303819D01*
X164095D01*
X165487Y304096D01*
X166798Y304639D01*
X167979Y305427D01*
X168982Y306431D01*
X169771Y307611D01*
X170314Y308922D01*
X170590Y310314D01*
Y311733D01*
X170314Y313125D01*
X169771Y314436D01*
X168982Y315616D01*
X167979Y316620D01*
X166798Y317408D01*
X165487Y317951D01*
X164095Y318228D01*
D02*
G37*
G36*
X147363D02*
X145944D01*
X144552Y317951D01*
X143241Y317408D01*
X142061Y316620D01*
X141057Y315616D01*
X140269Y314436D01*
X139726Y313125D01*
X139449Y311733D01*
Y310314D01*
X139726Y308922D01*
X140269Y307611D01*
X141057Y306431D01*
X142061Y305427D01*
X143241Y304639D01*
X144552Y304096D01*
X145944Y303819D01*
X147363D01*
X148755Y304096D01*
X150066Y304639D01*
X151246Y305427D01*
X152250Y306431D01*
X153038Y307611D01*
X153581Y308922D01*
X153858Y310314D01*
Y311733D01*
X153581Y313125D01*
X153038Y314436D01*
X152250Y315616D01*
X151246Y316620D01*
X150066Y317408D01*
X148755Y317951D01*
X147363Y318228D01*
D02*
G37*
G36*
X269282Y301181D02*
X268119D01*
X266978Y300954D01*
X265903Y300509D01*
X264936Y299863D01*
X264114Y299040D01*
X263467Y298073D01*
X263022Y296998D01*
X262795Y295857D01*
Y294694D01*
X263022Y293553D01*
X263467Y292478D01*
X264114Y291511D01*
X264936Y290688D01*
X265903Y290042D01*
X266978Y289597D01*
X268119Y289370D01*
X269282D01*
X270423Y289597D01*
X271498Y290042D01*
X272465Y290688D01*
X273288Y291511D01*
X273934Y292478D01*
X274379Y293553D01*
X274606Y294694D01*
Y295857D01*
X274379Y296998D01*
X273934Y298073D01*
X273288Y299040D01*
X272465Y299863D01*
X271498Y300509D01*
X270423Y300954D01*
X269282Y301181D01*
D02*
G37*
G36*
X216133D02*
X214969D01*
X213829Y300954D01*
X212754Y300509D01*
X211787Y299863D01*
X210964Y299040D01*
X210318Y298073D01*
X209873Y296998D01*
X209646Y295857D01*
Y294694D01*
X209873Y293553D01*
X210318Y292478D01*
X210964Y291511D01*
X211787Y290688D01*
X212754Y290042D01*
X213829Y289597D01*
X214969Y289370D01*
X216133D01*
X217274Y289597D01*
X218349Y290042D01*
X219316Y290688D01*
X220138Y291511D01*
X220785Y292478D01*
X221230Y293553D01*
X221457Y294694D01*
Y295857D01*
X221230Y296998D01*
X220785Y298073D01*
X220138Y299040D01*
X219316Y299863D01*
X218349Y300509D01*
X217274Y300954D01*
X216133Y301181D01*
D02*
G37*
G36*
X174697Y244465D02*
X172268D01*
Y242429D01*
X174697D01*
Y244465D01*
D02*
G37*
G36*
X178126D02*
X175697D01*
Y241929D01*
X175197D01*
Y241429D01*
X172268D01*
Y239394D01*
X172573D01*
X172677Y238937D01*
X172677D01*
Y234685D01*
X177717D01*
Y234685D01*
X177756Y234744D01*
X182874D01*
Y239272D01*
X182874D01*
Y239469D01*
X182874D01*
Y243996D01*
X178126D01*
Y244465D01*
D02*
G37*
G36*
X174697Y233835D02*
X172268D01*
Y231799D01*
X174697D01*
Y233835D01*
D02*
G37*
G36*
X178126D02*
X175697D01*
Y231299D01*
X175197D01*
Y230799D01*
X172268D01*
Y228764D01*
X172573D01*
X172677Y228307D01*
X172677D01*
Y224055D01*
X177717D01*
Y224055D01*
X177756Y224114D01*
X182874D01*
Y228642D01*
X182874D01*
Y228839D01*
X182874D01*
Y233366D01*
X178126D01*
Y233835D01*
D02*
G37*
G36*
X166732Y232677D02*
X162402D01*
Y228346D01*
X163563D01*
Y227264D01*
X162008D01*
Y222342D01*
X167126D01*
Y227264D01*
X165570D01*
Y228346D01*
X166732D01*
Y232677D01*
D02*
G37*
G36*
X174697Y223205D02*
X172268D01*
Y221169D01*
X174697D01*
Y223205D01*
D02*
G37*
G36*
X137940Y217913D02*
X132586D01*
Y212559D01*
X137940D01*
Y217913D01*
D02*
G37*
G36*
X174697Y199386D02*
X172268D01*
Y197350D01*
X174697D01*
Y199386D01*
D02*
G37*
G36*
X139078Y207516D02*
X136984D01*
Y196366D01*
X139078D01*
Y207516D01*
D02*
G37*
G36*
X135984D02*
X133889D01*
Y196366D01*
X135984D01*
Y207516D01*
D02*
G37*
G36*
X178647Y206610D02*
X176471D01*
X176166Y206549D01*
X175907Y206376D01*
X175734Y206117D01*
X175674Y205812D01*
Y201471D01*
X175734Y201166D01*
X175907Y200907D01*
X176166Y200734D01*
X176471Y200674D01*
X176556D01*
Y199508D01*
X176455Y199386D01*
X175697D01*
Y196850D01*
Y194315D01*
X178126D01*
Y194783D01*
X182874D01*
Y199311D01*
X179175D01*
X178563Y199924D01*
Y200674D01*
X178647D01*
X178952Y200734D01*
X179211Y200907D01*
X179384Y201166D01*
X179445Y201471D01*
Y205812D01*
X179384Y206117D01*
X179211Y206376D01*
X178952Y206549D01*
X178647Y206610D01*
D02*
G37*
G36*
X174697Y196350D02*
X172268D01*
Y194315D01*
X174697D01*
Y196350D01*
D02*
G37*
G36*
X135984Y195366D02*
X133889D01*
Y184216D01*
X135984D01*
Y195366D01*
D02*
G37*
G36*
X144488Y182283D02*
X139370D01*
Y177953D01*
X144488D01*
Y179921D01*
Y182283D01*
D02*
G37*
G36*
X175055Y154583D02*
X172547D01*
Y150500D01*
X175055D01*
Y154583D01*
D02*
G37*
G36*
X171547D02*
X169039D01*
Y150500D01*
X171547D01*
Y154583D01*
D02*
G37*
G36*
X175055Y149500D02*
X172547D01*
Y145417D01*
X175055D01*
Y149500D01*
D02*
G37*
G36*
X177929Y120449D02*
X175894D01*
Y118020D01*
X177929D01*
Y120449D01*
D02*
G37*
G36*
Y117020D02*
X175894D01*
Y114591D01*
X177929D01*
Y117020D01*
D02*
G37*
G36*
X30073Y164183D02*
X28982D01*
X27928Y163901D01*
X26983Y163355D01*
X26212Y162584D01*
X25666Y161639D01*
X25384Y160585D01*
Y159494D01*
X25666Y158440D01*
X26212Y157495D01*
X26983Y156724D01*
X27928Y156178D01*
X28982Y155896D01*
X30073D01*
X31127Y156178D01*
X32072Y156724D01*
X32843Y157495D01*
X33389Y158440D01*
X33671Y159494D01*
Y160585D01*
X33389Y161639D01*
X32843Y162584D01*
X32072Y163355D01*
X31127Y163901D01*
X30073Y164183D01*
D02*
G37*
G36*
Y152372D02*
X28982D01*
X27928Y152090D01*
X26983Y151544D01*
X26212Y150773D01*
X25666Y149828D01*
X25384Y148774D01*
Y147683D01*
X25666Y146629D01*
X26212Y145684D01*
X26983Y144913D01*
X27928Y144367D01*
X28982Y144085D01*
X30073D01*
X31127Y144367D01*
X32072Y144913D01*
X32843Y145684D01*
X33389Y146629D01*
X33671Y147683D01*
Y148774D01*
X33389Y149828D01*
X32843Y150773D01*
X32072Y151544D01*
X31127Y152090D01*
X30073Y152372D01*
D02*
G37*
G36*
Y109065D02*
X28982D01*
X27928Y108783D01*
X26983Y108237D01*
X26212Y107466D01*
X25666Y106521D01*
X25384Y105467D01*
Y104376D01*
X25666Y103322D01*
X26212Y102377D01*
X26983Y101605D01*
X27928Y101060D01*
X28982Y100778D01*
X30073D01*
X31127Y101060D01*
X32072Y101605D01*
X32843Y102377D01*
X33389Y103322D01*
X33671Y104376D01*
Y105467D01*
X33389Y106521D01*
X32843Y107466D01*
X32072Y108237D01*
X31127Y108783D01*
X30073Y109065D01*
D02*
G37*
G36*
Y99222D02*
X28982D01*
X27928Y98940D01*
X26983Y98395D01*
X26212Y97623D01*
X25666Y96678D01*
X25384Y95624D01*
Y94533D01*
X25666Y93479D01*
X26212Y92535D01*
X26983Y91763D01*
X27928Y91217D01*
X28982Y90935D01*
X30073D01*
X31127Y91217D01*
X32072Y91763D01*
X32843Y92535D01*
X33389Y93479D01*
X33671Y94533D01*
Y95624D01*
X33389Y96678D01*
X32843Y97623D01*
X32072Y98395D01*
X31127Y98940D01*
X30073Y99222D01*
D02*
G37*
G36*
Y87411D02*
X28982D01*
X27928Y87129D01*
X26983Y86584D01*
X26212Y85812D01*
X25666Y84867D01*
X25384Y83813D01*
Y82722D01*
X25666Y81668D01*
X26212Y80723D01*
X26983Y79952D01*
X27928Y79406D01*
X28982Y79124D01*
X30073D01*
X31127Y79406D01*
X32072Y79952D01*
X32843Y80723D01*
X33389Y81668D01*
X33671Y82722D01*
Y83813D01*
X33389Y84867D01*
X32843Y85812D01*
X32072Y86584D01*
X31127Y87129D01*
X30073Y87411D01*
D02*
G37*
G36*
X453740Y314880D02*
X453395Y314811D01*
X453101Y314615D01*
X452906Y314322D01*
X452837Y313976D01*
X452906Y313631D01*
X453101Y313338D01*
X453681Y312759D01*
Y310771D01*
X453749Y310425D01*
X453945Y310132D01*
X455613Y308464D01*
X455613Y308464D01*
X455906Y308268D01*
X456251Y308200D01*
X456741D01*
X457086Y308268D01*
X457379Y308464D01*
X457725Y308810D01*
X457921Y309103D01*
X457990Y309449D01*
Y309727D01*
X461811D01*
X462157Y309795D01*
X462450Y309991D01*
X464024Y311566D01*
X464220Y311859D01*
X464289Y312205D01*
X464220Y312550D01*
X464024Y312843D01*
X463731Y313039D01*
X463386Y313108D01*
X463040Y313039D01*
X462747Y312843D01*
X461437Y311533D01*
X457461D01*
X454379Y314615D01*
X454086Y314811D01*
X453740Y314880D01*
D02*
G37*
G36*
X455270Y255325D02*
X454179D01*
X453125Y255042D01*
X452180Y254497D01*
X451409Y253725D01*
X450863Y252781D01*
X450581Y251727D01*
Y250636D01*
X450863Y249582D01*
X451409Y248637D01*
X452180Y247865D01*
X453125Y247320D01*
X454179Y247037D01*
X455270D01*
X456324Y247320D01*
X457269Y247865D01*
X458040Y248637D01*
X458586Y249582D01*
X458868Y250636D01*
Y251727D01*
X458586Y252781D01*
X458040Y253725D01*
X457269Y254497D01*
X456324Y255042D01*
X455270Y255325D01*
D02*
G37*
G36*
Y243514D02*
X454179D01*
X453125Y243231D01*
X452180Y242686D01*
X451409Y241914D01*
X450863Y240969D01*
X450581Y239916D01*
Y238825D01*
X450863Y237771D01*
X451409Y236826D01*
X452180Y236054D01*
X453125Y235509D01*
X454179Y235226D01*
X455270D01*
X456324Y235509D01*
X457269Y236054D01*
X458040Y236826D01*
X458586Y237771D01*
X458868Y238825D01*
Y239916D01*
X458586Y240969D01*
X458040Y241914D01*
X457269Y242686D01*
X456324Y243231D01*
X455270Y243514D01*
D02*
G37*
G36*
Y233671D02*
X454179D01*
X453125Y233389D01*
X452180Y232843D01*
X451409Y232072D01*
X450863Y231127D01*
X450581Y230073D01*
Y228982D01*
X450863Y227928D01*
X451409Y226983D01*
X452180Y226212D01*
X453125Y225666D01*
X454179Y225384D01*
X455270D01*
X456324Y225666D01*
X457269Y226212D01*
X458040Y226983D01*
X458586Y227928D01*
X458868Y228982D01*
Y230073D01*
X458586Y231127D01*
X458040Y232072D01*
X457269Y232843D01*
X456324Y233389D01*
X455270Y233671D01*
D02*
G37*
G36*
Y190364D02*
X454179D01*
X453125Y190082D01*
X452180Y189536D01*
X451409Y188765D01*
X450863Y187820D01*
X450581Y186766D01*
Y185675D01*
X450863Y184621D01*
X451409Y183676D01*
X452180Y182905D01*
X453125Y182359D01*
X454179Y182077D01*
X455270D01*
X456324Y182359D01*
X457269Y182905D01*
X458040Y183676D01*
X458586Y184621D01*
X458868Y185675D01*
Y186766D01*
X458586Y187820D01*
X458040Y188765D01*
X457269Y189536D01*
X456324Y190082D01*
X455270Y190364D01*
D02*
G37*
G36*
Y178553D02*
X454179D01*
X453125Y178271D01*
X452180Y177725D01*
X451409Y176954D01*
X450863Y176009D01*
X450581Y174955D01*
Y173864D01*
X450863Y172810D01*
X451409Y171865D01*
X452180Y171094D01*
X453125Y170548D01*
X454179Y170266D01*
X455270D01*
X456324Y170548D01*
X457269Y171094D01*
X458040Y171865D01*
X458586Y172810D01*
X458868Y173864D01*
Y174955D01*
X458586Y176009D01*
X458040Y176954D01*
X457269Y177725D01*
X456324Y178271D01*
X455270Y178553D01*
D02*
G37*
G36*
X449325Y128159D02*
X448234D01*
X447180Y127877D01*
X446235Y127331D01*
X445464Y126560D01*
X444918Y125615D01*
X444636Y124561D01*
Y123470D01*
X444918Y122416D01*
X445464Y121472D01*
X446235Y120700D01*
X447180Y120154D01*
X448234Y119872D01*
X449325D01*
X450379Y120154D01*
X451324Y120700D01*
X452095Y121472D01*
X452641Y122416D01*
X452923Y123470D01*
Y124561D01*
X452641Y125615D01*
X452095Y126560D01*
X451324Y127331D01*
X450379Y127877D01*
X449325Y128159D01*
D02*
G37*
G36*
X237205Y249606D02*
X229724D01*
Y248823D01*
X229224Y248624D01*
X228700Y249148D01*
X227832Y249508D01*
X226892D01*
X226024Y249148D01*
X225360Y248484D01*
X225000Y247616D01*
Y246676D01*
X225360Y245808D01*
X225713Y245455D01*
X226010Y245128D01*
X225713Y244801D01*
X225360Y244448D01*
X225000Y243580D01*
Y242640D01*
X225360Y241772D01*
X226024Y241108D01*
X226892Y240748D01*
X227832D01*
X228700Y241108D01*
X229365Y241772D01*
X229505Y242111D01*
X229724Y242520D01*
X237205D01*
Y246457D01*
Y249606D01*
D02*
G37*
G36*
X271651Y244783D02*
X270868D01*
X270145Y244484D01*
X269591Y243930D01*
X269291Y243207D01*
Y242423D01*
X269591Y241700D01*
X270145Y241146D01*
X270868Y240846D01*
X271651D01*
X272375Y241146D01*
X272929Y241700D01*
X273228Y242423D01*
Y243207D01*
X272929Y243930D01*
X272375Y244484D01*
X271651Y244783D01*
D02*
G37*
G36*
X311311Y240051D02*
X309276D01*
Y237622D01*
X311311D01*
Y240051D01*
D02*
G37*
G36*
X350862Y244465D02*
X348433D01*
Y242429D01*
X350862D01*
Y244465D01*
D02*
G37*
G36*
X347433D02*
X345004D01*
Y242429D01*
X347433D01*
Y244465D01*
D02*
G37*
G36*
X350862Y241429D02*
X348433D01*
Y239394D01*
X350862D01*
Y241429D01*
D02*
G37*
G36*
X340158Y236909D02*
X335039D01*
Y231988D01*
X336595D01*
Y229724D01*
X336671Y229340D01*
X336889Y229015D01*
X340945Y224959D01*
Y221260D01*
X344094D01*
Y226378D01*
X342364D01*
X338602Y230140D01*
Y231988D01*
X340158D01*
Y236909D01*
D02*
G37*
G36*
X334252D02*
X329134D01*
Y231988D01*
X330689D01*
Y226378D01*
X330118D01*
Y221260D01*
X333268D01*
Y226378D01*
X332696D01*
Y231988D01*
X334252D01*
Y236909D01*
D02*
G37*
G36*
X328346D02*
X323228D01*
Y231988D01*
X324784D01*
Y230140D01*
X321022Y226378D01*
X319291D01*
Y221260D01*
X322441D01*
Y224959D01*
X326497Y229015D01*
X326714Y229340D01*
X326791Y229724D01*
Y231988D01*
X328346D01*
Y236909D01*
D02*
G37*
G36*
X351362Y179283D02*
X348933D01*
Y177248D01*
X351362D01*
Y179283D01*
D02*
G37*
G36*
X347933D02*
X345504D01*
Y177248D01*
X347933D01*
Y179283D01*
D02*
G37*
G36*
X351362Y176248D02*
X348933D01*
Y174213D01*
X351362D01*
Y176248D01*
D02*
G37*
G36*
X347933D02*
X345504D01*
Y174213D01*
X347933D01*
Y176248D01*
D02*
G37*
G36*
X175055Y181390D02*
X172547D01*
Y177307D01*
X175055D01*
Y181390D01*
D02*
G37*
G36*
X171547D02*
X169039D01*
Y177307D01*
X171547D01*
Y181390D01*
D02*
G37*
G36*
X175055Y176630D02*
X172547D01*
Y172547D01*
X175055D01*
Y176630D01*
D02*
G37*
G36*
X171547D02*
X169039D01*
Y172547D01*
X171547D01*
Y176630D01*
D02*
G37*
G36*
X287174Y203150D02*
X286448D01*
X285747Y202962D01*
X285119Y202599D01*
X284606Y202086D01*
X284243Y201457D01*
X284055Y200757D01*
Y200031D01*
X284243Y199330D01*
X284606Y198702D01*
X285119Y198188D01*
X285747Y197826D01*
X286448Y197638D01*
X287174D01*
X287875Y197826D01*
X288503Y198188D01*
X289016Y198702D01*
X289379Y199330D01*
X289567Y200031D01*
Y200757D01*
X289379Y201457D01*
X289016Y202086D01*
X288503Y202599D01*
X287875Y202962D01*
X287174Y203150D01*
D02*
G37*
G36*
X289937Y195843D02*
X287902D01*
Y193413D01*
X289937D01*
Y195843D01*
D02*
G37*
G36*
X254396Y182618D02*
X253478D01*
X252592Y182381D01*
X251798Y181922D01*
X251149Y181273D01*
X250690Y180479D01*
X250453Y179593D01*
Y178675D01*
X250690Y177789D01*
X251149Y176995D01*
X251798Y176346D01*
X252592Y175887D01*
X253478Y175650D01*
X254396D01*
X255282Y175887D01*
X256076Y176346D01*
X256725Y176995D01*
X257184Y177789D01*
X257421Y178675D01*
Y179593D01*
X257184Y180479D01*
X256725Y181273D01*
X256076Y181922D01*
X255282Y182381D01*
X254396Y182618D01*
D02*
G37*
G36*
X246522D02*
X245604D01*
X244718Y182381D01*
X243924Y181922D01*
X243275Y181273D01*
X242816Y180479D01*
X242579Y179593D01*
Y178675D01*
X242816Y177789D01*
X243275Y176995D01*
X243924Y176346D01*
X244718Y175887D01*
X245604Y175650D01*
X246522D01*
X247408Y175887D01*
X248202Y176346D01*
X248851Y176995D01*
X249310Y177789D01*
X249547Y178675D01*
Y179593D01*
X249310Y180479D01*
X248851Y181273D01*
X248202Y181922D01*
X247408Y182381D01*
X246522Y182618D01*
D02*
G37*
G36*
X238648D02*
X237730D01*
X236844Y182381D01*
X236050Y181922D01*
X235401Y181273D01*
X234942Y180479D01*
X234705Y179593D01*
Y178675D01*
X234942Y177789D01*
X235401Y176995D01*
X236050Y176346D01*
X236844Y175887D01*
X237730Y175650D01*
X238648D01*
X239534Y175887D01*
X240328Y176346D01*
X240977Y176995D01*
X241436Y177789D01*
X241673Y178675D01*
Y179593D01*
X241436Y180479D01*
X240977Y181273D01*
X240328Y181922D01*
X239534Y182381D01*
X238648Y182618D01*
D02*
G37*
G36*
X254396Y174744D02*
X253478D01*
X252592Y174507D01*
X251798Y174048D01*
X251149Y173399D01*
X250690Y172605D01*
X250453Y171719D01*
Y170801D01*
X250690Y169915D01*
X251149Y169121D01*
X251798Y168472D01*
X252592Y168013D01*
X253478Y167776D01*
X254396D01*
X255282Y168013D01*
X256076Y168472D01*
X256725Y169121D01*
X257184Y169915D01*
X257421Y170801D01*
Y171719D01*
X257184Y172605D01*
X256725Y173399D01*
X256076Y174048D01*
X255282Y174507D01*
X254396Y174744D01*
D02*
G37*
G36*
X246522D02*
X245604D01*
X244718Y174507D01*
X243924Y174048D01*
X243275Y173399D01*
X242816Y172605D01*
X242579Y171719D01*
Y170801D01*
X242816Y169915D01*
X243275Y169121D01*
X243924Y168472D01*
X244718Y168013D01*
X245604Y167776D01*
X246522D01*
X247408Y168013D01*
X248202Y168472D01*
X248851Y169121D01*
X249310Y169915D01*
X249547Y170801D01*
Y171719D01*
X249310Y172605D01*
X248851Y173399D01*
X248202Y174048D01*
X247408Y174507D01*
X246522Y174744D01*
D02*
G37*
G36*
X238648D02*
X237730D01*
X236844Y174507D01*
X236050Y174048D01*
X235401Y173399D01*
X234942Y172605D01*
X234705Y171719D01*
Y170801D01*
X234942Y169915D01*
X235401Y169121D01*
X236050Y168472D01*
X236844Y168013D01*
X237730Y167776D01*
X238648D01*
X239534Y168013D01*
X240328Y168472D01*
X240977Y169121D01*
X241436Y169915D01*
X241673Y170801D01*
Y171719D01*
X241436Y172605D01*
X240977Y173399D01*
X240328Y174048D01*
X239534Y174507D01*
X238648Y174744D01*
D02*
G37*
G36*
X254396Y166870D02*
X253478D01*
X252592Y166633D01*
X251798Y166174D01*
X251149Y165525D01*
X250690Y164731D01*
X250453Y163845D01*
Y162927D01*
X250690Y162041D01*
X251149Y161247D01*
X251798Y160598D01*
X252592Y160139D01*
X253478Y159902D01*
X254396D01*
X255282Y160139D01*
X256076Y160598D01*
X256725Y161247D01*
X257184Y162041D01*
X257421Y162927D01*
Y163845D01*
X257184Y164731D01*
X256725Y165525D01*
X256076Y166174D01*
X255282Y166633D01*
X254396Y166870D01*
D02*
G37*
G36*
X246522D02*
X245604D01*
X244718Y166633D01*
X243924Y166174D01*
X243275Y165525D01*
X242816Y164731D01*
X242579Y163845D01*
Y162927D01*
X242816Y162041D01*
X243275Y161247D01*
X243924Y160598D01*
X244718Y160139D01*
X245604Y159902D01*
X246522D01*
X247408Y160139D01*
X248202Y160598D01*
X248851Y161247D01*
X249310Y162041D01*
X249547Y162927D01*
Y163845D01*
X249310Y164731D01*
X248851Y165525D01*
X248202Y166174D01*
X247408Y166633D01*
X246522Y166870D01*
D02*
G37*
G36*
X238648D02*
X237730D01*
X236844Y166633D01*
X236050Y166174D01*
X235401Y165525D01*
X234942Y164731D01*
X234705Y163845D01*
Y162927D01*
X234942Y162041D01*
X235401Y161247D01*
X236050Y160598D01*
X236844Y160139D01*
X237730Y159902D01*
X238648D01*
X239534Y160139D01*
X240328Y160598D01*
X240977Y161247D01*
X241436Y162041D01*
X241673Y162927D01*
Y163845D01*
X241436Y164731D01*
X240977Y165525D01*
X240328Y166174D01*
X239534Y166633D01*
X238648Y166870D01*
D02*
G37*
G36*
X254143Y159043D02*
X253225D01*
X252339Y158805D01*
X251544Y158347D01*
X250896Y157698D01*
X250437Y156903D01*
X250200Y156017D01*
Y155100D01*
X250437Y154214D01*
X250896Y153419D01*
X251544Y152770D01*
X252339Y152312D01*
X253225Y152074D01*
X254143D01*
X255029Y152312D01*
X255823Y152770D01*
X256472Y153419D01*
X256931Y154214D01*
X257168Y155100D01*
Y156017D01*
X256931Y156903D01*
X256472Y157698D01*
X255823Y158347D01*
X255029Y158805D01*
X254143Y159043D01*
D02*
G37*
G36*
X246522Y158996D02*
X245604D01*
X244718Y158759D01*
X243924Y158300D01*
X243275Y157651D01*
X242816Y156857D01*
X242579Y155971D01*
Y155053D01*
X242816Y154167D01*
X243275Y153372D01*
X243924Y152724D01*
X244718Y152265D01*
X245604Y152028D01*
X246522D01*
X247408Y152265D01*
X248202Y152724D01*
X248851Y153372D01*
X249310Y154167D01*
X249547Y155053D01*
Y155971D01*
X249310Y156857D01*
X248851Y157651D01*
X248202Y158300D01*
X247408Y158759D01*
X246522Y158996D01*
D02*
G37*
G36*
X238648D02*
X237730D01*
X236844Y158759D01*
X236050Y158300D01*
X235401Y157651D01*
X234942Y156857D01*
X234705Y155971D01*
Y155053D01*
X234942Y154167D01*
X235401Y153372D01*
X236050Y152724D01*
X236844Y152265D01*
X237730Y152028D01*
X238648D01*
X239534Y152265D01*
X240328Y152724D01*
X240977Y153372D01*
X241436Y154167D01*
X241673Y155053D01*
Y155971D01*
X241436Y156857D01*
X240977Y157651D01*
X240328Y158300D01*
X239534Y158759D01*
X238648Y158996D01*
D02*
G37*
G36*
X349626Y153366D02*
X344468D01*
Y141316D01*
X344430Y141122D01*
Y133244D01*
X344171Y133071D01*
X343231D01*
X342373Y132716D01*
X340304D01*
X339446Y133071D01*
X338507D01*
X337649Y132716D01*
X335973D01*
X335116Y133071D01*
X334176D01*
X333308Y132711D01*
X332643Y132047D01*
X332283Y131178D01*
Y130239D01*
X332643Y129371D01*
X333308Y128706D01*
X334176Y128347D01*
X335116D01*
X335973Y128702D01*
X337649D01*
X338507Y128347D01*
X339446D01*
X340304Y128702D01*
X340564D01*
X340756Y128240D01*
X339381Y126865D01*
X338946Y126214D01*
X338793Y125446D01*
Y125433D01*
X336496D01*
Y124369D01*
X333622D01*
Y125433D01*
X327480D01*
Y119291D01*
X333622D01*
Y120355D01*
X336496D01*
Y119291D01*
X342638D01*
Y122802D01*
X342654Y122827D01*
X342807Y123595D01*
Y124614D01*
X346678Y128485D01*
X346703Y128502D01*
X347856Y129655D01*
X348152Y130098D01*
X349626D01*
Y153366D01*
D02*
G37*
G36*
X368988Y141232D02*
X366894D01*
Y130083D01*
X368988D01*
Y141232D01*
D02*
G37*
G36*
X333228Y107008D02*
X327874D01*
Y101654D01*
X333228D01*
Y107008D01*
D02*
G37*
G36*
X321457Y106004D02*
X316339D01*
Y101083D01*
X321457D01*
Y102540D01*
X322222D01*
X327874Y96888D01*
Y92638D01*
X333228D01*
Y97992D01*
X329595D01*
X329568Y98032D01*
X323347Y104253D01*
X323022Y104471D01*
X322638Y104547D01*
X321457D01*
Y106004D01*
D02*
G37*
G36*
Y99705D02*
X316339D01*
Y94784D01*
X316355D01*
X316732Y94488D01*
Y90158D01*
X321063D01*
Y94488D01*
X321441Y94784D01*
X321457D01*
Y99705D01*
D02*
G37*
G36*
X369291Y88976D02*
X363937D01*
Y83622D01*
X369291D01*
Y88976D01*
D02*
G37*
G36*
X197614Y181587D02*
X195079D01*
X192543D01*
Y179610D01*
X192543Y179157D01*
X192543Y178657D01*
Y176681D01*
X195079D01*
X197614D01*
Y178657D01*
X197614Y179110D01*
X197614Y179610D01*
Y181587D01*
D02*
G37*
G36*
Y175681D02*
X195079D01*
X192543D01*
X192543Y173252D01*
X192047Y173244D01*
X191815D01*
Y170776D01*
X194685D01*
X197555D01*
Y172776D01*
X197614Y173252D01*
X197614Y173720D01*
Y175681D01*
D02*
G37*
G36*
X225173Y129307D02*
X222744D01*
Y127272D01*
X225173D01*
Y129307D01*
D02*
G37*
G36*
X221744D02*
X219315D01*
Y127775D01*
Y127272D01*
X221744D01*
Y129307D01*
D02*
G37*
G36*
X225173Y126272D02*
X222744D01*
Y124236D01*
X225173D01*
Y126272D01*
D02*
G37*
G36*
X221744D02*
X219315D01*
Y124236D01*
X221744D01*
Y126272D01*
D02*
G37*
G36*
X207457Y123992D02*
X205028D01*
Y121957D01*
X207457D01*
Y122460D01*
Y123992D01*
D02*
G37*
G36*
X204028D02*
X201598D01*
Y121957D01*
X204028D01*
Y123992D01*
D02*
G37*
G36*
X207457Y120957D02*
X205028D01*
Y118921D01*
X207457D01*
Y120957D01*
D02*
G37*
G36*
X204028D02*
X201598D01*
Y118921D01*
X204028D01*
Y120957D01*
D02*
G37*
G36*
X266248Y123795D02*
Y121760D01*
X268677D01*
Y123795D01*
X266248D01*
D02*
G37*
G36*
X252650Y123874D02*
X249256D01*
Y121366D01*
X252650D01*
Y123874D01*
D02*
G37*
G36*
X189937Y89543D02*
X187508D01*
Y87508D01*
X189937D01*
Y89543D01*
D02*
G37*
G36*
X134146Y92102D02*
X131717D01*
Y90067D01*
X134146D01*
Y92102D01*
D02*
G37*
G36*
X137575Y89067D02*
X135146D01*
Y87032D01*
X137575D01*
Y89067D01*
D02*
G37*
G36*
X134146D02*
X131717D01*
Y87032D01*
X134146D01*
Y89067D01*
D02*
G37*
G36*
X241413Y101945D02*
X239378D01*
Y99516D01*
X241413D01*
Y101945D01*
D02*
G37*
G36*
X238378D02*
X236343D01*
Y99516D01*
X238378D01*
Y101945D01*
D02*
G37*
G36*
X241413Y98516D02*
X239378D01*
Y96087D01*
X241413D01*
Y98516D01*
D02*
G37*
G36*
X235492Y101535D02*
X231240D01*
Y96496D01*
X231023Y96086D01*
X229532D01*
X229068Y96551D01*
X228344Y96850D01*
X227561D01*
X226838Y96551D01*
X226284Y95997D01*
X225984Y95274D01*
Y94490D01*
X226284Y93767D01*
X226838Y93213D01*
X227561Y92913D01*
X228344D01*
X229068Y93213D01*
X229532Y93678D01*
X230118D01*
Y93504D01*
X232812D01*
X233004Y93376D01*
X233465Y93284D01*
X233925Y93376D01*
X234118Y93504D01*
X236811D01*
X236811Y95866D01*
X237220Y96087D01*
X238378D01*
Y98516D01*
X236343D01*
Y96366D01*
X236343Y96087D01*
X235934Y95866D01*
X234570D01*
Y96496D01*
X235492D01*
Y101535D01*
D02*
G37*
G36*
X237205Y92323D02*
X229724D01*
Y91859D01*
X229262Y91667D01*
X229192Y91737D01*
X228324Y92097D01*
X227384D01*
X226516Y91737D01*
X225852Y91073D01*
X225492Y90205D01*
Y89265D01*
X225852Y88397D01*
X226320Y87928D01*
X225852Y87460D01*
X225492Y86592D01*
Y85652D01*
X225852Y84784D01*
X226516Y84119D01*
X227384Y83760D01*
X228324D01*
X229192Y84119D01*
X229857Y84784D01*
X230044Y85236D01*
X237205D01*
Y89173D01*
Y92323D01*
D02*
G37*
G36*
X304898Y84031D02*
X302468D01*
Y81996D01*
X304898D01*
Y84031D01*
D02*
G37*
G36*
X301468D02*
X299039D01*
Y81996D01*
X301468D01*
Y84031D01*
D02*
G37*
G36*
X304898Y80996D02*
X302468D01*
Y78961D01*
X304898D01*
Y80996D01*
D02*
G37*
G36*
X301468D02*
X299039D01*
Y78961D01*
X301468D01*
Y80996D01*
D02*
G37*
G36*
X284174Y47362D02*
X282755D01*
X281363Y47085D01*
X280052Y46542D01*
X278872Y45754D01*
X277868Y44750D01*
X277080Y43570D01*
X276537Y42259D01*
X276260Y40867D01*
Y39448D01*
X276537Y38056D01*
X277080Y36745D01*
X277868Y35565D01*
X278872Y34561D01*
X280052Y33773D01*
X281363Y33230D01*
X282755Y32953D01*
X284174D01*
X285566Y33230D01*
X286877Y33773D01*
X288057Y34561D01*
X289061Y35565D01*
X289849Y36745D01*
X290392Y38056D01*
X290669Y39448D01*
Y40867D01*
X290392Y42259D01*
X289849Y43570D01*
X289061Y44750D01*
X288057Y45754D01*
X286877Y46542D01*
X285566Y47085D01*
X284174Y47362D01*
D02*
G37*
G36*
X201497D02*
X200078D01*
X198686Y47085D01*
X197375Y46542D01*
X196195Y45754D01*
X195191Y44750D01*
X194403Y43570D01*
X193860Y42259D01*
X193583Y40867D01*
Y39448D01*
X193860Y38056D01*
X194403Y36745D01*
X195191Y35565D01*
X196195Y34561D01*
X197375Y33773D01*
X198686Y33230D01*
X200078Y32953D01*
X201497D01*
X202889Y33230D01*
X204200Y33773D01*
X205380Y34561D01*
X206384Y35565D01*
X207172Y36745D01*
X207715Y38056D01*
X207992Y39448D01*
Y40867D01*
X207715Y42259D01*
X207172Y43570D01*
X206384Y44750D01*
X205380Y45754D01*
X204200Y46542D01*
X202889Y47085D01*
X201497Y47362D01*
D02*
G37*
G36*
X269282Y43307D02*
X268119D01*
X266978Y43080D01*
X265903Y42635D01*
X264936Y41989D01*
X264114Y41166D01*
X263467Y40199D01*
X263022Y39124D01*
X262795Y37983D01*
Y36820D01*
X263022Y35679D01*
X263467Y34604D01*
X264114Y33637D01*
X264936Y32814D01*
X265903Y32168D01*
X266978Y31723D01*
X268119Y31496D01*
X269282D01*
X270423Y31723D01*
X271498Y32168D01*
X272465Y32814D01*
X273288Y33637D01*
X273934Y34604D01*
X274379Y35679D01*
X274606Y36820D01*
Y37983D01*
X274379Y39124D01*
X273934Y40199D01*
X273288Y41166D01*
X272465Y41989D01*
X271498Y42635D01*
X270423Y43080D01*
X269282Y43307D01*
D02*
G37*
G36*
X216133D02*
X214969D01*
X213829Y43080D01*
X212754Y42635D01*
X211787Y41989D01*
X210964Y41166D01*
X210318Y40199D01*
X209873Y39124D01*
X209646Y37983D01*
Y36820D01*
X209873Y35679D01*
X210318Y34604D01*
X210964Y33637D01*
X211787Y32814D01*
X212754Y32168D01*
X213829Y31723D01*
X214969Y31496D01*
X216133D01*
X217274Y31723D01*
X218349Y32168D01*
X219316Y32814D01*
X220138Y33637D01*
X220785Y34604D01*
X221230Y35679D01*
X221457Y36820D01*
Y37983D01*
X221230Y39124D01*
X220785Y40199D01*
X220138Y41166D01*
X219316Y41989D01*
X218349Y42635D01*
X217274Y43080D01*
X216133Y43307D01*
D02*
G37*
G36*
X338308Y28858D02*
X336889D01*
X335497Y28581D01*
X334186Y28038D01*
X333006Y27250D01*
X332002Y26246D01*
X331214Y25066D01*
X330671Y23755D01*
X330394Y22363D01*
Y20944D01*
X330671Y19552D01*
X331214Y18241D01*
X332002Y17061D01*
X333006Y16057D01*
X334186Y15269D01*
X335497Y14726D01*
X336889Y14449D01*
X338308D01*
X339700Y14726D01*
X341011Y15269D01*
X342191Y16057D01*
X343195Y17061D01*
X343983Y18241D01*
X344526Y19552D01*
X344803Y20944D01*
Y22363D01*
X344526Y23755D01*
X343983Y25066D01*
X343195Y26246D01*
X342191Y27250D01*
X341011Y28038D01*
X339700Y28581D01*
X338308Y28858D01*
D02*
G37*
G36*
X321576Y28858D02*
X320157D01*
X318765Y28581D01*
X317453Y28038D01*
X316273Y27250D01*
X315270Y26246D01*
X314481Y25066D01*
X313938Y23755D01*
X313661Y22363D01*
Y20944D01*
X313938Y19552D01*
X314481Y18241D01*
X315270Y17061D01*
X316273Y16057D01*
X317453Y15269D01*
X318765Y14726D01*
X320157Y14449D01*
X321576D01*
X322968Y14726D01*
X324279Y15269D01*
X325459Y16057D01*
X326462Y17061D01*
X327251Y18241D01*
X327794Y19552D01*
X328071Y20944D01*
Y22363D01*
X327794Y23755D01*
X327251Y25066D01*
X326462Y26246D01*
X325459Y27250D01*
X324279Y28038D01*
X322968Y28581D01*
X321576Y28858D01*
D02*
G37*
G36*
X284174D02*
X282755D01*
X281363Y28581D01*
X280052Y28038D01*
X278872Y27250D01*
X277868Y26246D01*
X277080Y25066D01*
X276537Y23755D01*
X276260Y22363D01*
Y20944D01*
X276537Y19552D01*
X277080Y18241D01*
X277868Y17061D01*
X278872Y16057D01*
X280052Y15269D01*
X281363Y14726D01*
X282755Y14449D01*
X284174D01*
X285566Y14726D01*
X286877Y15269D01*
X288057Y16057D01*
X289061Y17061D01*
X289849Y18241D01*
X290392Y19552D01*
X290669Y20944D01*
Y22363D01*
X290392Y23755D01*
X289849Y25066D01*
X289061Y26246D01*
X288057Y27250D01*
X286877Y28038D01*
X285566Y28581D01*
X284174Y28858D01*
D02*
G37*
G36*
X201497D02*
X200078D01*
X198686Y28581D01*
X197375Y28038D01*
X196195Y27250D01*
X195191Y26246D01*
X194403Y25066D01*
X193860Y23755D01*
X193583Y22363D01*
Y20944D01*
X193860Y19552D01*
X194403Y18241D01*
X195191Y17061D01*
X196195Y16057D01*
X197375Y15269D01*
X198686Y14726D01*
X200078Y14449D01*
X201497D01*
X202889Y14726D01*
X204200Y15269D01*
X205380Y16057D01*
X206384Y17061D01*
X207172Y18241D01*
X207715Y19552D01*
X207992Y20944D01*
Y22363D01*
X207715Y23755D01*
X207172Y25066D01*
X206384Y26246D01*
X205380Y27250D01*
X204200Y28038D01*
X202889Y28581D01*
X201497Y28858D01*
D02*
G37*
G36*
X164095D02*
X162676D01*
X161284Y28581D01*
X159973Y28038D01*
X158793Y27250D01*
X157790Y26246D01*
X157001Y25066D01*
X156458Y23755D01*
X156181Y22363D01*
Y20944D01*
X156458Y19552D01*
X157001Y18241D01*
X157790Y17061D01*
X158793Y16057D01*
X159973Y15269D01*
X161284Y14726D01*
X162676Y14449D01*
X164095D01*
X165487Y14726D01*
X166798Y15269D01*
X167979Y16057D01*
X168982Y17061D01*
X169771Y18241D01*
X170314Y19552D01*
X170591Y20944D01*
Y22363D01*
X170314Y23755D01*
X169771Y25066D01*
X168982Y26246D01*
X167979Y27250D01*
X166798Y28038D01*
X165487Y28581D01*
X164095Y28858D01*
D02*
G37*
G36*
X147363D02*
X145944D01*
X144552Y28581D01*
X143241Y28038D01*
X142061Y27250D01*
X141057Y26246D01*
X140269Y25066D01*
X139726Y23755D01*
X139449Y22363D01*
Y20944D01*
X139726Y19552D01*
X140269Y18241D01*
X141057Y17061D01*
X142061Y16057D01*
X143241Y15269D01*
X144552Y14726D01*
X145944Y14449D01*
X147363D01*
X148755Y14726D01*
X150066Y15269D01*
X151246Y16057D01*
X152250Y17061D01*
X153038Y18241D01*
X153581Y19552D01*
X153858Y20944D01*
Y22363D01*
X153581Y23755D01*
X153038Y25066D01*
X152250Y26246D01*
X151246Y27250D01*
X150066Y28038D01*
X148755Y28581D01*
X147363Y28858D01*
D02*
G37*
G36*
X356792Y14567D02*
X355807D01*
X354856Y14312D01*
X354003Y13820D01*
X353306Y13123D01*
X352814Y12270D01*
X352559Y11319D01*
Y10334D01*
X352814Y9383D01*
X353306Y8530D01*
X354003Y7834D01*
X354856Y7342D01*
X355807Y7087D01*
X356792D01*
X357743Y7342D01*
X358596Y7834D01*
X359292Y8530D01*
X359785Y9383D01*
X360039Y10334D01*
Y11319D01*
X359785Y12270D01*
X359292Y13123D01*
X358596Y13820D01*
X357743Y14312D01*
X356792Y14567D01*
D02*
G37*
G36*
X302658Y14567D02*
X301673D01*
X300722Y14312D01*
X299869Y13820D01*
X299172Y13123D01*
X298680Y12270D01*
X298425Y11319D01*
Y10334D01*
X298680Y9383D01*
X299172Y8530D01*
X299869Y7834D01*
X300722Y7342D01*
X301673Y7087D01*
X302658D01*
X303609Y7342D01*
X304462Y7834D01*
X305158Y8530D01*
X305651Y9383D01*
X305906Y10334D01*
Y11319D01*
X305651Y12270D01*
X305158Y13123D01*
X304462Y13820D01*
X303609Y14312D01*
X302658Y14567D01*
D02*
G37*
G36*
X182579D02*
X181594D01*
X180643Y14312D01*
X179790Y13820D01*
X179094Y13123D01*
X178601Y12270D01*
X178347Y11319D01*
Y10334D01*
X178601Y9383D01*
X179094Y8530D01*
X179790Y7834D01*
X180643Y7342D01*
X181594Y7087D01*
X182579D01*
X183530Y7342D01*
X184383Y7834D01*
X185080Y8530D01*
X185572Y9383D01*
X185827Y10334D01*
Y11319D01*
X185572Y12270D01*
X185080Y13123D01*
X184383Y13820D01*
X183530Y14312D01*
X182579Y14567D01*
D02*
G37*
G36*
X128445D02*
X127460D01*
X126509Y14312D01*
X125656Y13820D01*
X124960Y13123D01*
X124468Y12270D01*
X124213Y11319D01*
Y10334D01*
X124468Y9383D01*
X124960Y8530D01*
X125656Y7834D01*
X126509Y7342D01*
X127460Y7087D01*
X128445D01*
X129396Y7342D01*
X130249Y7834D01*
X130946Y8530D01*
X131438Y9383D01*
X131693Y10334D01*
Y11319D01*
X131438Y12270D01*
X130946Y13123D01*
X130249Y13820D01*
X129396Y14312D01*
X128445Y14567D01*
D02*
G37*
%LPD*%
D10*
X149606Y172047D02*
X151969D01*
X157874Y166142D01*
X185929D01*
X187701Y164370D01*
X106102Y195866D02*
X114042D01*
X105905Y196063D02*
X106102Y195866D01*
X117232Y215236D02*
Y224252D01*
Y208110D02*
Y215236D01*
X114042Y195866D02*
Y204921D01*
X117232Y208110D01*
X187701Y164370D02*
X194685D01*
D14*
X310630Y170146D02*
X314173Y166603D01*
X312598Y170866D02*
X315551Y167913D01*
Y154578D02*
X320326Y149803D01*
X314173Y154007D02*
X320345Y147835D01*
X315551Y154578D02*
Y167913D01*
X314173Y154007D02*
Y166603D01*
X328231Y198460D02*
X331299Y195392D01*
X328802Y199838D02*
X332677Y195963D01*
X334055Y192711D02*
X340551Y199207D01*
X332677Y171147D02*
X336305Y167520D01*
X332677Y171147D02*
Y195963D01*
X331299Y170557D02*
X336305Y165551D01*
X331299Y170557D02*
Y195392D01*
X334055Y171738D02*
Y192711D01*
Y171738D02*
X336305Y169488D01*
X304194Y212513D02*
X312008Y204699D01*
X313386Y191034D02*
X316043Y188377D01*
X314764Y191605D02*
Y205840D01*
X303281Y217323D02*
X314764Y205840D01*
X302868Y219685D02*
X316142Y206411D01*
Y192176D02*
Y206411D01*
X313386Y191034D02*
Y205270D01*
X312008Y190464D02*
X314665Y187806D01*
X317520Y192747D02*
Y206982D01*
X314764Y191605D02*
X317421Y188948D01*
X302454Y222047D02*
X317520Y206982D01*
X303695Y214961D02*
X313386Y205270D01*
X312008Y190464D02*
Y204699D01*
X316142Y192176D02*
X318799Y189518D01*
X317520Y192747D02*
X321358Y188908D01*
X324311Y207776D02*
X325787Y209252D01*
X322840Y207185D02*
X323431Y207776D01*
X321457Y205801D02*
X322840Y207185D01*
X322840D01*
X323431Y207776D02*
X324311D01*
X315551Y257677D02*
X323557D01*
X313779Y252756D02*
Y255906D01*
X315551Y257677D01*
X268898Y224803D02*
Y230880D01*
X262455Y237323D02*
X268898Y230880D01*
X277762Y153150D02*
X281496D01*
X275399Y150787D02*
X277762Y153150D01*
X235984Y120709D02*
X257283Y99410D01*
X235984Y120709D02*
Y130275D01*
X257283Y92506D02*
Y99410D01*
X235984Y109505D02*
Y120709D01*
X153537Y113189D02*
X157677D01*
X159055Y111811D01*
Y97563D02*
Y111811D01*
X164173Y115354D02*
Y115509D01*
X161811Y96422D02*
Y112992D01*
X160433Y96993D02*
Y113718D01*
X161811Y112992D02*
X164173Y115354D01*
X160433Y113718D02*
X167778Y121063D01*
X206496Y158661D02*
X208614Y156544D01*
X203943Y158465D02*
X204140Y158661D01*
X206496D01*
X200984Y158465D02*
X203943D01*
X198031Y116535D02*
Y129528D01*
X209252Y140748D01*
X214696D01*
X215945Y120669D02*
X216535Y121260D01*
X214370Y119095D02*
X215945Y120669D01*
X151187Y159449D02*
X163286Y147350D01*
X141929Y159449D02*
X151187D01*
X137559Y95889D02*
Y131203D01*
X138976Y133684D02*
X141732Y130928D01*
X138976Y133684D02*
Y138794D01*
X136221Y132542D02*
Y160650D01*
X138976Y109258D02*
Y131735D01*
X136221Y132542D02*
X137559Y131203D01*
X137598Y133113D02*
Y141353D01*
Y133113D02*
X138976Y131735D01*
X141732Y115748D02*
Y130928D01*
X136221Y160650D02*
X137953Y162382D01*
X112795Y91339D02*
Y126004D01*
X124409Y137618D01*
X129921Y75787D02*
Y80905D01*
Y85346D01*
X124409Y137618D02*
Y137618D01*
X111417Y126575D02*
X126969Y142126D01*
X111417Y90768D02*
Y126575D01*
X127756Y95571D02*
X131201Y92126D01*
X127847Y160524D02*
X129078Y159294D01*
X131732Y163917D02*
X132874Y165059D01*
X131732Y160262D02*
Y163917D01*
X130765Y159294D02*
X131732Y160262D01*
X132874Y165059D02*
X133268D01*
X129078Y159294D02*
X130765D01*
X233228Y110647D02*
Y128715D01*
X220810Y98228D02*
X233228Y110647D01*
X228569Y129291D02*
X232652D01*
X219018Y94488D02*
X234606Y110076D01*
X229159Y130669D02*
X233223D01*
X242874Y128327D02*
X246063Y131516D01*
X238740Y121949D02*
X264078Y96611D01*
X240118Y122520D02*
X250040Y112598D01*
X240118Y129468D02*
X242126Y131476D01*
X238740Y121949D02*
Y130039D01*
X240118Y122520D02*
Y129468D01*
X241496Y123091D02*
Y128898D01*
X233223Y130669D02*
X234606Y129286D01*
X232652Y129291D02*
X233228Y128715D01*
X238740Y130039D02*
X240158Y131456D01*
X237362Y121378D02*
Y130610D01*
X242874Y123661D02*
X249213Y117323D01*
X234212Y132047D02*
X235984Y130275D01*
X241496Y123091D02*
X249626Y114961D01*
X242874Y123661D02*
Y128327D01*
X237362Y121378D02*
X263507Y95233D01*
X241496Y128898D02*
X244094Y131496D01*
X237362Y130610D02*
X238189Y131437D01*
X217817Y91339D02*
X235984Y109505D01*
X234606Y110076D02*
Y129286D01*
X224606Y133254D02*
Y135630D01*
Y133254D02*
X228569Y129291D01*
X228543Y133254D02*
X229750Y132047D01*
X226575Y133254D02*
X229159Y130669D01*
X226378Y135827D02*
X226575Y135630D01*
X226181Y136024D02*
X226378Y135827D01*
X229750Y132047D02*
X233400D01*
X228543Y133254D02*
Y135630D01*
X224410Y135827D02*
X224606Y135630D01*
X226575Y133254D02*
Y135630D01*
X233400Y132047D02*
X234212D01*
X213386Y131751D02*
Y132283D01*
X212402Y130766D02*
X213386Y131751D01*
X212402Y128937D02*
Y130766D01*
X210433Y126969D02*
X212402Y128937D01*
X215158Y141209D02*
Y163203D01*
X214696Y140748D02*
X215158Y141209D01*
X204510Y138386D02*
X204510D01*
X208644Y142520D01*
X211417D01*
X208071Y150591D02*
X211614D01*
X204331Y146850D02*
X208071Y150591D01*
X204331Y145216D02*
Y146850D01*
X213386Y114961D02*
Y115493D01*
X261024Y209842D02*
Y216615D01*
X259489Y218150D02*
X261024Y216615D01*
X56411Y205512D02*
X65551Y214652D01*
Y250073D02*
X85753Y270276D01*
X66929Y206030D02*
Y249503D01*
X56175Y195276D02*
X66929Y206030D01*
Y249503D02*
X86324Y268898D01*
X65551Y214652D02*
Y250073D01*
X61024Y252008D02*
X83819Y274803D01*
X40630Y225590D02*
X57087D01*
X40551Y205512D02*
X56411D01*
X61024Y239764D02*
Y252008D01*
X40315Y245276D02*
X56175D01*
X62402Y230906D02*
Y251378D01*
X57087Y225590D02*
X62402Y230906D01*
X59616Y248717D02*
Y252549D01*
X62402Y251378D02*
X84449Y273425D01*
X40472Y235433D02*
X56693D01*
X61024Y239764D01*
X59616Y252549D02*
X83248Y276181D01*
X56175Y245276D02*
X59616Y248717D01*
X86324Y268898D02*
X138392D01*
X140354Y270276D02*
X151575Y259055D01*
X85753Y270276D02*
X140354D01*
X138392Y268898D02*
X147451Y259838D01*
X84449Y273425D02*
X181299D01*
X83248Y276181D02*
X182441D01*
X83819Y274803D02*
X181870D01*
X181299Y273425D02*
X187795Y266929D01*
X82677Y277559D02*
X183011D01*
X59695Y254577D02*
X82677Y277559D01*
X183011D02*
X191929Y268641D01*
X182441Y276181D02*
X190551Y268071D01*
X181870Y274803D02*
X189173Y267500D01*
X35472Y190433D02*
X40315Y195276D01*
X56175D01*
X35472Y200433D02*
X40551Y205512D01*
X35472Y220433D02*
X40630Y225590D01*
X35472Y230433D02*
X40472Y235433D01*
X39616Y254577D02*
X59695D01*
X35472Y240433D02*
X40315Y245276D01*
X35472Y250433D02*
X39616Y254577D01*
X443976Y148819D02*
X448779Y144016D01*
X379273Y148819D02*
X443976D01*
X378485Y149606D02*
X379273Y148819D01*
X377953Y149606D02*
X378485D01*
X443596Y139199D02*
X448779Y134016D01*
X399016Y59252D02*
X421654Y81890D01*
Y105118D02*
X425591Y109055D01*
X424636Y85732D02*
X427880Y88976D01*
X443740D01*
X424636Y80915D02*
Y85732D01*
X427559Y98819D02*
X443583D01*
X399646Y57874D02*
X423228Y81457D01*
X421654Y81890D02*
Y105118D01*
X423228Y94488D02*
X427559Y98819D01*
X423228Y81457D02*
Y94488D01*
X400217Y56496D02*
X424636Y80915D01*
X339114Y59252D02*
X399016D01*
X337972Y56496D02*
X400217D01*
X337402Y55118D02*
X400787D01*
X338543Y57874D02*
X399646D01*
X400787Y55118D02*
X425541Y79872D01*
X305118Y87402D02*
X337402Y55118D01*
X425541Y79872D02*
X444636D01*
X306496Y87972D02*
X337972Y56496D01*
X307874Y88543D02*
X338543Y57874D01*
X443740Y88976D02*
X448779Y94016D01*
X444636Y79872D02*
X448779Y84016D01*
X443819Y109055D02*
X448779Y114016D01*
X425591Y109055D02*
X443819D01*
X443583Y98819D02*
X448779Y104016D01*
X216535Y126772D02*
X222244D01*
X124016Y163189D02*
Y165059D01*
X120276Y169251D02*
Y169783D01*
X122049Y163285D02*
Y167477D01*
X124213Y165256D02*
X125394D01*
X124016Y163189D02*
X124213Y162992D01*
X120276Y169251D02*
X122049Y167477D01*
X124016Y165059D02*
Y167549D01*
X126250Y169783D01*
X124016Y165059D02*
X124213Y165256D01*
X124016Y99705D02*
X124116Y99805D01*
X120480Y103858D02*
Y104342D01*
Y103858D02*
X122047Y102290D01*
X105413Y76772D02*
X105489D01*
X124016Y100784D02*
Y102375D01*
Y98228D02*
Y99705D01*
X125515Y103874D02*
Y104406D01*
X121850Y78543D02*
X122047Y78740D01*
Y98228D02*
Y102290D01*
X124116Y99805D02*
X124213Y99902D01*
X122047Y78740D02*
Y80905D01*
X124213Y99902D02*
X125394D01*
X124116Y99805D02*
Y100784D01*
X124016Y102375D02*
X125515Y103874D01*
X105489Y76772D02*
X107261Y78543D01*
X121850D01*
X360039Y166871D02*
Y169390D01*
X359842Y169193D02*
X360039Y169390D01*
X358760Y169193D02*
X359842D01*
X360039Y169390D02*
Y171457D01*
X354971Y175358D02*
X356306Y174023D01*
X354650Y175358D02*
X354971D01*
X358268Y229942D02*
Y230475D01*
X361713Y231867D02*
X363386Y230194D01*
Y229921D02*
Y230194D01*
X358268Y230475D02*
X359744Y231951D01*
X361713Y231867D02*
Y236417D01*
X359547Y234154D02*
X359744Y234350D01*
Y231951D02*
Y234350D01*
X358465Y234154D02*
X359547D01*
X359744Y234350D02*
Y236417D01*
X353248Y241240D02*
X353754D01*
X356011Y238983D01*
X362008Y167068D02*
Y171457D01*
X359055Y165887D02*
X360039Y166871D01*
X359941Y171555D02*
X360039Y171457D01*
X362008Y167068D02*
X363189Y165887D01*
X359055Y165354D02*
Y165887D01*
X363189Y165354D02*
Y165887D01*
X370669Y208839D02*
Y239764D01*
X372047Y208268D02*
Y240335D01*
X363189Y247244D02*
X370669Y239764D01*
X360039Y193209D02*
X373425Y206594D01*
X364469Y252067D02*
X374803Y241732D01*
X364331Y250000D02*
X373425Y240905D01*
X374803Y206024D02*
Y241732D01*
X354331Y192500D02*
X370669Y208839D01*
X362008Y193228D02*
X374803Y206024D01*
X373425Y206594D02*
Y240905D01*
X370472Y206693D02*
X372047Y208268D01*
X370472Y241909D02*
X372047Y240335D01*
X359547Y253937D02*
X359941Y253543D01*
X360714Y250000D02*
X364331D01*
X356299Y192520D02*
X370472Y206693D01*
X363760Y248622D02*
X370472Y241909D01*
X116732Y87402D02*
X127865D01*
X127756Y81004D02*
Y85562D01*
X123616Y86024D02*
X127295D01*
X127756Y85562D01*
X123616Y86024D02*
X123616Y86024D01*
X127865Y87402D02*
X129921Y85346D01*
X111417Y90768D02*
X116162Y86024D01*
X112795Y91339D02*
X116732Y87402D01*
X116162Y86024D02*
X123616D01*
X110039Y90197D02*
X115591Y84646D01*
X110039Y127362D02*
X124016Y141339D01*
X110039Y90197D02*
Y127362D01*
X115591Y84646D02*
X123046D01*
X123819Y83872D01*
Y81102D02*
Y83872D01*
Y81102D02*
X124016Y80905D01*
Y74803D02*
Y80905D01*
X127756Y81004D02*
X127854Y80905D01*
X137953Y162382D02*
Y171595D01*
X135531Y174016D02*
X137953Y171595D01*
X118110Y174016D02*
X135531D01*
X361614Y248622D02*
X363760D01*
X357565Y247244D02*
X363189D01*
X364469Y252067D02*
Y256378D01*
X149771Y209744D02*
X161221D01*
X164567Y213090D01*
Y218504D01*
X131580Y104626D02*
X132677D01*
X328858Y97008D02*
X330551Y95315D01*
X328858Y97008D02*
Y97323D01*
X322638Y103543D02*
X328858Y97323D01*
X318898Y103543D02*
X322638D01*
X201929Y91339D02*
X217817D01*
X179094Y68504D02*
X201929Y91339D01*
X219432Y96850D02*
X220810Y98228D01*
X209055Y96850D02*
X219432D01*
X220810Y98228D02*
X220810D01*
X203130Y94488D02*
X212992D01*
X212992Y94488D01*
X127854Y75281D02*
Y80905D01*
X178524Y69882D02*
X203130Y94488D01*
X212992Y94488D02*
X219018D01*
X205118Y99606D02*
X209842Y104331D01*
X205118Y99213D02*
Y99606D01*
X203543Y96850D02*
X209055D01*
X177953Y71260D02*
X203543Y96850D01*
X356279Y264567D02*
X364469Y256378D01*
X277714Y275394D02*
X283917D01*
X294744Y264567D01*
X285905Y271457D02*
X294173Y263189D01*
X276482Y268996D02*
X286417D01*
X277461Y266634D02*
X286713D01*
X277362Y262697D02*
X288701D01*
X286713Y266634D02*
X292913Y260433D01*
X351884D01*
X288701Y262697D02*
X292343Y259055D01*
X277615Y271457D02*
X285905D01*
X286417Y268996D02*
X293602Y261811D01*
X274144Y262535D02*
Y266658D01*
X292343Y259055D02*
X350689D01*
X293602Y261811D02*
X354443D01*
X294173Y263189D02*
X355034D01*
X361516Y256707D01*
Y253937D02*
Y256707D01*
Y253937D02*
X361713Y253740D01*
X294744Y264567D02*
X356279D01*
X351884Y260433D02*
X355610Y256707D01*
X350689Y259055D02*
X353839Y255906D01*
X354443Y261811D02*
X359547Y256707D01*
X355610Y253937D02*
X356004Y253543D01*
X359547Y253937D02*
Y256707D01*
X355610Y253937D02*
Y256707D01*
X353839Y253740D02*
Y255906D01*
Y253740D02*
X354035Y253543D01*
X324049Y257185D02*
X327165D01*
X323557Y257677D02*
X324049Y257185D01*
X327953Y256004D02*
Y256398D01*
X327165Y257185D02*
X327953Y256398D01*
X274144Y266658D02*
X276482Y268996D01*
X270860Y259252D02*
X274144Y262535D01*
X242717Y259252D02*
X270860D01*
X216381Y260630D02*
X268898D01*
X270768Y262500D01*
X216951Y262008D02*
X265158D01*
X270768Y267618D01*
X265079Y241850D02*
X271260Y248031D01*
X257289Y241850D02*
X265079D01*
X255809Y246671D02*
X258268Y244213D01*
X250787Y244094D02*
X255045D01*
X257289Y241850D01*
X255809Y246671D02*
Y247748D01*
X250984Y249803D02*
X253754D01*
X250787Y250000D02*
X250984Y249803D01*
X253754D02*
X255809Y247748D01*
X254331Y251969D02*
X258268Y248031D01*
X250787Y251969D02*
X254331D01*
X233465Y246063D02*
Y248031D01*
X228978Y246063D02*
X233465D01*
X227362Y247146D02*
X227895D01*
X228978Y246063D01*
X227895Y243110D02*
X228879Y244094D01*
X233465D01*
X227362Y243110D02*
X227895D01*
X246850Y246850D02*
Y255118D01*
Y246850D02*
X247441Y246260D01*
X242717Y259252D02*
X246850Y255118D01*
X247441Y246260D02*
X250591D01*
X250787Y246063D01*
X215770Y263189D02*
X216951Y262008D01*
X215199Y261811D02*
X216381Y260630D01*
X215810Y259252D02*
X242717D01*
X214629Y260433D02*
X215810Y259252D01*
X359941Y250773D02*
Y253543D01*
X354035Y250773D02*
X357565Y247244D01*
X356004Y250773D02*
X358155Y248622D01*
X359941Y250773D02*
X360714Y250000D01*
X358155Y248622D02*
X361614D01*
X362008Y188779D02*
Y193228D01*
X356299Y188976D02*
Y192520D01*
X354331Y188976D02*
Y192500D01*
X354134Y188779D02*
X354331Y188976D01*
X356102Y188779D02*
X356299Y188976D01*
X360039D02*
Y193209D01*
X356004Y250773D02*
Y253543D01*
X354035Y250773D02*
Y253543D01*
X129724Y142933D02*
Y146073D01*
X344519Y185039D02*
X344980Y185501D01*
X346850Y185127D02*
Y207382D01*
X348721Y185048D02*
Y205217D01*
X339469Y181102D02*
X344775D01*
X339469Y185039D02*
X344519D01*
X344795Y183071D02*
X346850Y185127D01*
X339469Y183071D02*
X344795D01*
X344775Y181102D02*
X348721Y185048D01*
X344980Y185501D02*
Y210433D01*
X144279Y215236D02*
X149771Y209744D01*
X236614Y73819D02*
X246654Y83858D01*
X221260Y85059D02*
X232500Y73819D01*
X236614D01*
X246654Y83858D02*
Y93996D01*
X247342Y94685D01*
X254921Y94081D02*
Y97342D01*
X253754Y92913D02*
X254921Y94081D01*
X250984Y92913D02*
X253754D01*
X253754Y88976D02*
X257283Y92506D01*
X250787Y92716D02*
X250984Y92913D01*
Y88976D02*
X253754D01*
X264078Y96611D02*
X271802D01*
X263507Y95233D02*
X271232D01*
X247342Y94685D02*
X250787D01*
X250834Y86692D02*
X251948D01*
X250757Y85501D02*
Y86614D01*
X237303Y72047D02*
X250757Y85501D01*
X203905Y72047D02*
X237303D01*
X250757Y86614D02*
X250834Y86692D01*
X250787Y88779D02*
X250984Y88976D01*
X233465Y88779D02*
Y90748D01*
X227854Y86122D02*
X228387D01*
X229076Y86811D02*
X233465D01*
X228387Y86122D02*
X229076Y86811D01*
X228387Y89735D02*
X229342Y88779D01*
X233465D01*
X227854Y89735D02*
X228387D01*
X224248Y141677D02*
X226181Y139744D01*
X226181Y136024D02*
Y138257D01*
X226181Y138257D02*
X226181Y138257D01*
X226181Y138257D02*
Y139744D01*
X228346Y135827D02*
Y139527D01*
X225626Y142248D02*
X228346Y139527D01*
Y135827D02*
X228543Y135630D01*
X152953Y84941D02*
Y89512D01*
X160433Y96993D01*
X155636Y87953D02*
X155888Y88205D01*
Y90499D01*
X119095Y145866D02*
X122047D01*
X114764Y150197D02*
X119095Y145866D01*
X127539Y140748D02*
X127573D01*
X126969Y142126D02*
X126982D01*
X129527Y142702D02*
Y142736D01*
X127573Y140748D02*
X129527Y142702D01*
Y142736D02*
X129724Y142933D01*
X127756Y142899D02*
Y145669D01*
X126982Y142126D02*
X127756Y142899D01*
X124409Y137618D02*
X127539Y140748D01*
X127756Y145669D02*
X127953Y145866D01*
X124016Y141339D02*
Y145866D01*
Y74803D02*
X130315Y68504D01*
X127854Y75281D02*
X133254Y69882D01*
X129921Y75787D02*
X134449Y71260D01*
X137559Y95889D02*
X143684Y89764D01*
X138976Y138794D02*
X139750Y139567D01*
X137598Y141353D02*
X139750Y143504D01*
X114764Y150197D02*
Y170669D01*
X118110Y174016D01*
X143684Y89764D02*
X151255D01*
X167778Y121063D02*
X169697D01*
X164173Y115509D02*
X168349Y119685D01*
X170268D01*
X158427Y117558D02*
X158782Y117913D01*
Y120510D02*
X163665Y125394D01*
X158782Y117913D02*
Y120510D01*
X134449Y71260D02*
X177953D01*
X197107Y261811D02*
X215199D01*
X210571Y193307D02*
X214561D01*
X224248Y183621D01*
Y141677D02*
Y183621D01*
X194685Y205596D02*
Y259389D01*
X197107Y261811D01*
X194685Y205596D02*
X202151Y198130D01*
X130315Y68504D02*
X179094D01*
X202151Y198130D02*
X205748D01*
X210571Y193307D01*
X209055Y87402D02*
X209525D01*
X211099Y85827D02*
X220683D01*
X210000Y191929D02*
X213990D01*
X222870Y183050D01*
X224410Y135827D02*
Y139567D01*
X193307Y205026D02*
Y259960D01*
X205177Y196752D02*
X210000Y191929D01*
X209525Y87402D02*
X211099Y85827D01*
X193307Y259960D02*
X196536Y263189D01*
X201581Y196752D02*
X205177D01*
X222870Y141107D02*
Y183050D01*
X221260Y85059D02*
Y85250D01*
X196536Y263189D02*
X215770D01*
X222870Y141107D02*
X224410Y139567D01*
X193307Y205026D02*
X201581Y196752D01*
X220683Y85827D02*
X221260Y85250D01*
X151969Y111417D02*
X155118D01*
X150394Y114438D02*
Y123358D01*
X152913Y113813D02*
X153537Y113189D01*
X150394Y114438D02*
X151018Y113813D01*
X152913D01*
X152267Y107779D02*
X155315D01*
X149016Y111029D02*
X152267Y107779D01*
X155118Y111417D02*
X157677Y108858D01*
X149016Y111029D02*
Y142474D01*
X150394Y123358D02*
X150855Y123819D01*
X155911D01*
X155888Y90499D02*
X161811Y96422D01*
X163665Y125394D02*
X166287D01*
X166779Y125886D01*
X162598Y127953D02*
X166287D01*
X156392Y121746D02*
X162598Y127953D01*
X154637Y121457D02*
X154927Y121746D01*
X156392D01*
X155911Y123819D02*
X162695Y130603D01*
X166378D01*
X166287Y127953D02*
X166779Y128445D01*
X166378Y130603D02*
X166779Y131004D01*
X167272Y138189D02*
X169894D01*
X166779Y138681D02*
X167272Y138189D01*
X169894D02*
X172045Y136038D01*
X169894Y133071D02*
X170667Y132297D01*
Y122033D02*
Y132297D01*
X166779Y133563D02*
X167272Y133071D01*
X169894D01*
X154985Y136122D02*
X166779D01*
X153040Y137795D02*
X153312D01*
X154985Y136122D01*
X193028Y123819D02*
X196557Y127348D01*
X190405Y123819D02*
X193028D01*
X189913Y123327D02*
X190405Y123819D01*
X195179Y128529D02*
Y132167D01*
X193028Y126378D02*
X195179Y128529D01*
X190405Y126378D02*
X193028D01*
X189913Y125886D02*
X190405Y126378D01*
X196557Y130433D02*
X204510Y138386D01*
X196557Y127348D02*
Y130433D01*
X193801Y129710D02*
Y132738D01*
X189913Y128445D02*
X190405Y128937D01*
X211417Y142520D02*
X211614Y142717D01*
X193028Y128937D02*
X193801Y129710D01*
X190405Y128937D02*
X193028D01*
X195179Y132167D02*
X207677Y144665D01*
X211594D01*
X175394Y226378D02*
X180315D01*
X175197Y226181D02*
X175394Y226378D01*
X180315D02*
Y231102D01*
X177559Y199508D02*
X180020Y197047D01*
X180315D01*
X177559Y199508D02*
Y203642D01*
X180315Y217323D02*
X181299Y216339D01*
X180315Y217323D02*
Y220472D01*
X181299Y215256D02*
Y216339D01*
X166929Y258268D02*
X169158Y260497D01*
X177796D01*
X180119Y258174D01*
X180415D01*
X164961Y98425D02*
Y98622D01*
X174508Y108169D01*
Y109941D01*
X186811Y191142D02*
X189370Y193701D01*
X180315Y191142D02*
X186811D01*
X144882Y139632D02*
Y140762D01*
X144108Y149409D02*
X146825Y146693D01*
X145447Y142146D02*
Y146103D01*
X147638Y109843D02*
Y141903D01*
X144108Y151378D02*
X148203Y147284D01*
X145447Y142146D02*
X146260Y141333D01*
X148203Y143287D02*
Y147284D01*
X144882Y106693D02*
Y139632D01*
X144108Y141535D02*
X144882Y140762D01*
X144108Y147441D02*
X145447Y146103D01*
X146825Y142717D02*
X147638Y141903D01*
X146825Y142717D02*
Y146693D01*
X144108Y155315D02*
X150565Y148858D01*
X146260Y107880D02*
Y141333D01*
X148203Y143287D02*
X149016Y142474D01*
X142126Y141535D02*
X144108D01*
X150565Y144266D02*
Y148858D01*
X142126Y155315D02*
X144108D01*
X141929Y155512D02*
X142126Y155315D01*
X274803Y104675D02*
X281569D01*
X284213Y107319D01*
X266880Y115305D02*
X269685Y118110D01*
X272231D02*
X279823Y125702D01*
X266280Y115305D02*
X266880D01*
X279823Y125702D02*
Y130284D01*
X265197Y111811D02*
X266280Y112894D01*
X269685Y118110D02*
X272231D01*
X266280Y112894D02*
Y115305D01*
X308661Y228740D02*
X314331Y234409D01*
Y242888D01*
X313779Y243439D02*
X314331Y242888D01*
X313779Y243439D02*
Y245669D01*
X311811Y252756D02*
Y255818D01*
X309952Y257677D02*
X311811Y255818D01*
X292343Y257677D02*
X309952D01*
X196063Y258819D02*
X197677Y260433D01*
X187795Y202638D02*
X199193Y191240D01*
X189173Y203208D02*
Y267500D01*
X187795Y202638D02*
Y266929D01*
X309252Y89114D02*
X339114Y59252D01*
X309252Y89114D02*
Y114384D01*
X307874Y88543D02*
Y113779D01*
X306496Y87972D02*
Y113203D01*
X197677Y260433D02*
X214629D01*
X196063Y206167D02*
Y258819D01*
X309381Y256299D02*
X309842Y255838D01*
X277165Y240551D02*
X292913Y256299D01*
X274016Y239350D02*
X292343Y257677D01*
X292913Y256299D02*
X309381D01*
X309842Y252756D02*
Y255838D01*
X277165Y233071D02*
Y240551D01*
X274016Y234252D02*
Y239350D01*
X268898Y224803D02*
X277165Y233071D01*
X272835Y150787D02*
X275399D01*
X272638Y150591D02*
X272835Y150787D01*
X144882Y106693D02*
X153746Y97829D01*
Y97829D02*
Y97829D01*
X164961Y102362D02*
Y105217D01*
X169783Y110039D01*
X163779Y89764D02*
X166437Y92421D01*
X174508D01*
X172045Y121463D02*
Y136038D01*
X165851Y147350D02*
X173423Y139778D01*
X169697Y121063D02*
X170667Y122033D01*
X173423Y120892D02*
Y139778D01*
X171653Y119122D02*
X173423Y120892D01*
X170268Y119685D02*
X172045Y121463D01*
X171653Y117224D02*
Y119122D01*
X189312Y112924D02*
Y113154D01*
X195139Y112924D02*
Y119034D01*
X194882Y119291D02*
X195139Y119034D01*
X187108Y115064D02*
X187403D01*
X189312Y113154D01*
Y112924D02*
X189889Y112347D01*
X194562D01*
X195139Y112924D01*
X169783Y110039D02*
X170079D01*
X178747Y105999D02*
X185660D01*
X186121Y105538D01*
Y105507D02*
X187251Y104377D01*
X186121Y105507D02*
Y105538D01*
X177559Y107187D02*
X178747Y105999D01*
X177067Y109941D02*
X177559Y109449D01*
Y107187D02*
Y109449D01*
X183530Y116520D02*
X184731Y117721D01*
X181510Y114087D02*
X182329D01*
X180315Y112892D02*
X181510Y114087D01*
X184731Y117721D02*
X189484D01*
X179626Y111713D02*
X180315Y112402D01*
X182329Y114087D02*
X183530Y115288D01*
Y116520D01*
X180315Y112402D02*
Y112892D01*
X179626Y109941D02*
Y111713D01*
X189484Y117721D02*
X190690Y116515D01*
Y116009D02*
X191832Y114867D01*
X190690Y116009D02*
Y116515D01*
X178210Y254178D02*
Y254408D01*
X176832Y255786D02*
X178210Y254408D01*
X175690Y257977D02*
X176832Y256835D01*
X180119Y252268D02*
X180415D01*
X178210Y254178D02*
X180119Y252268D01*
X176832Y255786D02*
Y256835D01*
X175296Y257977D02*
X175690D01*
X175197Y247441D02*
Y252366D01*
X175296Y252465D01*
X175197Y247441D02*
X175394Y247638D01*
X180315D01*
Y237008D02*
Y241732D01*
X180118Y236811D02*
X180315Y237008D01*
X175197Y236811D02*
X180118D01*
X344980Y210433D02*
X353839Y219291D01*
X352953Y209449D02*
X353839D01*
X348721Y205217D02*
X352953Y209449D01*
X346850Y207382D02*
X353839Y214370D01*
X340551Y199207D02*
Y206398D01*
X337697Y209252D02*
X340551Y206398D01*
X337598Y209252D02*
X337697D01*
X326393Y198460D02*
X328231D01*
X323672Y199838D02*
X328802D01*
X339272Y167520D02*
X339469Y167323D01*
X336305Y167520D02*
X339272D01*
X336305Y165551D02*
X339272D01*
X339469Y165354D01*
X339272Y169488D02*
X339469Y169291D01*
X336305Y169488D02*
X339272D01*
X322835Y200675D02*
X323672Y199838D01*
X322835Y200675D02*
Y205230D01*
X323411Y205807D02*
X328150D01*
X322835Y205230D02*
X323411Y205807D01*
X328150D02*
X331594Y209252D01*
X331693D01*
X329134Y211713D02*
X331594Y209252D01*
X329134Y211713D02*
Y215945D01*
X337598Y212598D02*
X339961Y214961D01*
Y215945D01*
X337598Y209252D02*
Y212598D01*
X275211Y144488D02*
X306496Y113203D01*
X305118Y87402D02*
Y112008D01*
X274606Y142520D02*
X305118Y112008D01*
X275211Y148425D02*
X309252Y114384D01*
X275984Y145669D02*
X307874Y113779D01*
X170079Y115945D02*
X170374D01*
X171653Y117224D01*
X182185Y111713D02*
X184257Y113784D01*
X185828D01*
X163286Y147350D02*
X165851D01*
X183522Y83584D02*
Y89312D01*
X183763Y94685D02*
X187400Y98322D01*
X163779Y75000D02*
Y79921D01*
X179860D01*
X183522Y83584D01*
X182185Y90650D02*
X183522Y89312D01*
X182185Y90650D02*
Y92421D01*
X133254Y69882D02*
X178524D01*
X163779Y84842D02*
Y89764D01*
X205512Y84646D02*
X209449Y80709D01*
X217520D01*
X188543Y94547D02*
X192224Y98228D01*
X188543Y93661D02*
Y94547D01*
X187402Y92520D02*
X188543Y93661D01*
X192224Y98228D02*
X192520D01*
X187008Y92520D02*
X187402D01*
X187008Y104134D02*
X192520D01*
X191832Y114867D02*
X192226D01*
X185828Y113784D02*
X187108Y115064D01*
X182185Y109941D02*
Y111713D01*
X310630Y188583D02*
Y204128D01*
X312598Y170866D02*
Y186614D01*
X310630Y188583D02*
X312598Y186614D01*
X303623Y211135D02*
X310630Y204128D01*
X308661Y187402D02*
X310630Y185433D01*
X308661Y187402D02*
Y200787D01*
X310630Y170146D02*
Y185433D01*
X302756Y206693D02*
X308661Y200787D01*
X276791Y206693D02*
X302756D01*
X321457Y200104D02*
Y205801D01*
Y200104D02*
X323101Y198460D01*
X265748Y217736D02*
X276791Y206693D01*
X265748Y227953D02*
Y232081D01*
X279915Y211135D02*
X303623D01*
X268898Y218227D02*
X276974Y210151D01*
X281102Y219685D02*
X302868D01*
X278124Y217323D02*
X303281D01*
X281151Y214961D02*
X303695D01*
X277953Y222047D02*
X302454D01*
X277953Y212513D02*
X304194D01*
X268898Y218227D02*
Y224410D01*
X276974Y210151D02*
X278931D01*
X278120Y217319D02*
X278124Y217323D01*
X278931Y210151D02*
X279915Y211135D01*
X321358Y185236D02*
Y188908D01*
X323101Y198460D02*
X324788D01*
X317421Y180695D02*
Y188948D01*
X318799Y185222D02*
Y189518D01*
X314665Y179514D02*
Y187806D01*
X321358Y185236D02*
X321555Y185039D01*
X320754Y183268D02*
X323721D01*
X318799Y185222D02*
X320754Y183268D01*
X316043Y180084D02*
Y188377D01*
X321555Y185039D02*
X323917D01*
X276918Y200007D02*
X277559Y200648D01*
Y201181D01*
X280906Y186024D02*
X281890Y187008D01*
X306494Y168642D02*
X308758Y166378D01*
Y156789D02*
Y166378D01*
X301575Y149606D02*
X308758Y156789D01*
X304772Y168642D02*
X306494D01*
X300847Y163642D02*
X304772D01*
X286811Y149606D02*
X300847Y163642D01*
X272835Y148425D02*
X275211D01*
X275984Y145669D02*
Y145683D01*
X275408Y146260D02*
X275984Y145683D01*
X275197Y146457D02*
X275394Y146260D01*
X275408D01*
X272835Y146457D02*
X275197D01*
X268504Y141603D02*
X279823Y130284D01*
X323721Y149803D02*
X323917Y149606D01*
X320326Y149803D02*
X323721D01*
X320345Y147835D02*
X323721D01*
X323917Y147638D01*
X155512Y66142D02*
X198000D01*
X203905Y72047D01*
X169685Y96549D02*
Y98228D01*
X157677Y98134D02*
Y108858D01*
X154867Y95324D02*
X157677Y98134D01*
X151255Y89764D02*
X159055Y97563D01*
X174508Y92421D02*
Y93998D01*
X182185Y92421D02*
Y94193D01*
X187400Y98322D02*
X187696D01*
X182185Y94193D02*
X182677Y94685D01*
X183763D01*
X174016Y94490D02*
X174508Y93998D01*
X169685Y96549D02*
X171744Y94490D01*
X174016D01*
X152910Y95324D02*
X154867D01*
X138976Y109258D02*
X152910Y95324D01*
X191929Y204350D02*
Y268641D01*
Y204350D02*
X200905Y195374D01*
X190551Y203779D02*
Y268071D01*
Y203779D02*
X200334Y193996D01*
X189173Y203208D02*
X199763Y192618D01*
X196063Y206167D02*
X202722Y199508D01*
X214370Y116478D02*
Y119095D01*
X213386Y115493D02*
X214370Y116478D01*
X267323Y190183D02*
X276918Y199778D01*
Y200007D01*
X277559Y201181D02*
X277922D01*
X265748Y190557D02*
X268701Y193510D01*
X264370Y191128D02*
X267323Y194080D01*
X268701Y193510D02*
Y212835D01*
X267323Y194080D02*
Y194842D01*
Y212264D01*
X264370Y182073D02*
Y191128D01*
X267323Y187402D02*
Y190183D01*
X265748Y182663D02*
Y190557D01*
X267323Y187402D02*
X268504Y186221D01*
X268110Y183891D02*
X268192Y183973D01*
X272556D02*
X272638Y184055D01*
X268504Y186221D02*
X272441D01*
X268192Y183973D02*
X272556D01*
X204823Y160433D02*
X206673D01*
X200984Y164272D02*
X204823Y160433D01*
X206673D02*
X208445Y158661D01*
X211417D01*
X211566Y156544D02*
X211614Y156496D01*
X208614Y156544D02*
X211566D01*
X211417Y158661D02*
X211614Y158465D01*
X320669Y214370D02*
X321457Y213583D01*
X324213Y210728D02*
Y210827D01*
X321457Y213569D02*
X322033Y212992D01*
X322047D01*
X318898Y214370D02*
X320669D01*
X324213Y210728D02*
X325689Y209252D01*
X322047Y212992D02*
X324213Y210827D01*
X321457Y213569D02*
Y213583D01*
X275211Y181890D02*
X277362Y179738D01*
Y177974D02*
Y179738D01*
X272638Y182087D02*
X272835Y181890D01*
X275211D01*
X275211Y179921D02*
X275984Y179148D01*
X272835Y179921D02*
X275211D01*
X275984Y164352D02*
Y179148D01*
X277362Y177974D02*
X281695Y173642D01*
X214106Y195276D02*
X214696Y194685D01*
X215132D01*
X206318Y199508D02*
X210551Y195276D01*
X214106D01*
X202722Y199508D02*
X206318D01*
X215132Y194685D02*
X225626Y184191D01*
Y142248D02*
Y184191D01*
X202422Y143307D02*
X204331Y145216D01*
X193569Y143307D02*
X202422D01*
X193801Y132738D02*
X207677Y146614D01*
X211575D01*
X251969Y135827D02*
Y146850D01*
X265748Y217736D02*
Y227953D01*
X265786Y227991D01*
X277922Y201181D02*
X279550Y199553D01*
X280107D02*
X284882Y194778D01*
X279550Y199553D02*
X280107D01*
X284882Y187469D02*
Y194778D01*
X323917Y149606D02*
X331693D01*
X154331Y256693D02*
X156693Y259055D01*
X210236Y104331D02*
X217520D01*
X209842D02*
X210236D01*
X323917Y147638D02*
X327756D01*
X331693Y143701D01*
X377953D02*
X382454Y139199D01*
X443596D01*
X317421Y180695D02*
X320754Y177362D01*
X314665Y179514D02*
X320754Y173425D01*
X316043Y180084D02*
X320734Y175394D01*
X147451Y259838D02*
Y259838D01*
Y259838D02*
X150596Y256693D01*
X154331D01*
X261884Y235945D02*
X265748Y232081D01*
X223307Y234820D02*
X225810Y237323D01*
X223307Y223884D02*
Y234820D01*
X222441Y223018D02*
X223307Y223884D01*
X201772Y228346D02*
Y251969D01*
X227033Y235945D02*
X261884D01*
X225810Y237323D02*
X262455D01*
X224685Y233597D02*
X227033Y235945D01*
X201772Y226969D02*
X210433Y218307D01*
Y207579D02*
Y218307D01*
X201772Y226969D02*
Y228346D01*
X223819Y222447D02*
X224685Y223313D01*
Y233597D01*
X261244Y117323D02*
X262697Y115870D01*
X284213Y110827D02*
X285197Y111811D01*
X262697Y107752D02*
Y115870D01*
X282697Y107752D02*
Y115870D01*
X281982Y107037D02*
X282697Y107752D01*
X287697Y107752D02*
Y115870D01*
X262697Y107752D02*
X263411Y107037D01*
X282697Y115870D02*
X283411Y116585D01*
X286982D02*
X287697Y115870D01*
Y107752D02*
X288411Y107037D01*
X283411Y116585D02*
X286982D01*
X288411Y107037D02*
X292835D01*
X263411D02*
X281982D01*
X284213Y107319D02*
Y110827D01*
X275984Y164352D02*
X281695Y158642D01*
Y173642D02*
X283417D01*
X262992Y181496D02*
X268504Y175984D01*
X264370Y182073D02*
X270065Y176378D01*
X259842Y193405D02*
X262992Y190256D01*
X265748Y182663D02*
X270065Y178347D01*
X262992Y181496D02*
Y190256D01*
X260059Y219528D02*
X267323Y212264D01*
X260630Y220905D02*
X268701Y212835D01*
X272441Y186221D02*
X272638Y186024D01*
X259842Y193405D02*
Y196850D01*
X284421Y187008D02*
X284882Y187469D01*
X281890Y187008D02*
X284421D01*
X264173Y174016D02*
X264356D01*
X266522Y171850D01*
Y142913D02*
Y171850D01*
X268504Y141603D02*
Y175984D01*
X262008Y136024D02*
Y138400D01*
X261811Y135827D02*
X262008Y136024D01*
Y138400D02*
X266522Y142913D01*
X270065Y176378D02*
X272441D01*
X270065Y178347D02*
X272441D01*
X272638Y178150D01*
X272441Y176378D02*
X272638Y176181D01*
X323721Y183268D02*
X323917Y183071D01*
X139750Y139567D02*
X141732D01*
X141929Y139764D01*
X139750Y143504D02*
X141732D01*
X141929Y143701D01*
X146260Y107880D02*
X151879Y102261D01*
X142126Y147441D02*
X144108D01*
X141929Y147638D02*
X142126Y147441D01*
X147638Y109843D02*
X152362Y105118D01*
X151879Y102261D02*
X155219D01*
X142126Y151378D02*
X144108D01*
X141929Y151575D02*
X142126Y151378D01*
X141929Y149606D02*
X142126Y149409D01*
X144108D01*
X141929Y141732D02*
X142126Y141535D01*
X255906Y138976D02*
X258661Y141732D01*
X272835Y142520D02*
X274606D01*
X272638Y142717D02*
X272835Y142520D01*
X320734Y175394D02*
X323721D01*
X320754Y173425D02*
X323721D01*
X320754Y177362D02*
X323721D01*
X323917Y177165D01*
X323721Y175394D02*
X323917Y175197D01*
X222441Y208943D02*
Y223018D01*
X221372Y207874D02*
X222441Y208943D01*
X223819Y207449D02*
Y222447D01*
X222866Y206496D02*
X223819Y207449D01*
X221654Y206496D02*
X222866D01*
X213681Y204921D02*
X216634Y207874D01*
X221358Y206201D02*
X221654Y206496D01*
X216634Y207874D02*
X221372D01*
X219587Y204921D02*
X220866Y206201D01*
X221358D01*
X254567Y218150D02*
X259489D01*
X229764Y219528D02*
X260059D01*
X229882Y220905D02*
X260630D01*
X323721Y173425D02*
X323917Y173228D01*
X253937Y189370D02*
Y196850D01*
X255906Y193307D02*
X257087Y192126D01*
Y191732D02*
Y192126D01*
X250394Y187402D02*
Y192112D01*
X248228Y194277D02*
X250394Y192112D01*
X246063Y190296D02*
Y196850D01*
Y190296D02*
X246850Y189509D01*
X243701Y192126D02*
X244094Y192520D01*
Y196850D01*
X255906Y193307D02*
Y196850D01*
X248228Y194277D02*
Y196653D01*
X248031Y196850D02*
X248228Y196653D01*
X318898Y92323D02*
Y97244D01*
X164567Y224803D02*
Y230512D01*
X211555Y184115D02*
X211614Y184055D01*
X203937Y188248D02*
X208071Y184115D01*
X211555D01*
X208071Y188012D02*
X211594D01*
X211614Y187992D01*
X206693Y189390D02*
Y191339D01*
Y189390D02*
X208071Y188012D01*
X204035Y193996D02*
X206693Y191339D01*
X200334Y193996D02*
X204035D01*
X205315Y188819D02*
Y190768D01*
X199193Y191240D02*
X202894D01*
X203465Y192618D02*
X205315Y190768D01*
X203937Y188248D02*
Y190197D01*
X202894Y191240D02*
X203937Y190197D01*
X199763Y192618D02*
X203465D01*
X272638Y148622D02*
X272835Y148425D01*
X272638Y146653D02*
X272835Y146457D01*
Y144488D02*
X275211D01*
X272638Y144685D02*
X272835Y144488D01*
X198031Y116535D02*
X210236Y104331D01*
X212500Y200197D02*
X229345D01*
X207776Y204921D02*
X212500Y200197D01*
X200905Y195374D02*
X204606D01*
X205512Y171496D02*
Y174034D01*
Y171496D02*
X208504Y168504D01*
X211417D01*
X202958Y173532D02*
X203937Y172553D01*
X204095Y175452D02*
Y175984D01*
X203937Y165557D02*
Y172553D01*
X204095Y175452D02*
X205512Y174034D01*
X206496Y166535D02*
X211417D01*
X206299Y166732D02*
X206496Y166535D01*
X211417D02*
X211614Y166339D01*
X205124Y164370D02*
X211614D01*
X203937Y165557D02*
X205124Y164370D01*
X202846Y173532D02*
X202958D01*
X214187Y164173D02*
X215158Y163203D01*
X204606Y195374D02*
X209646Y190334D01*
Y190157D02*
X209842Y189961D01*
X211614D01*
X209646Y190157D02*
Y190334D01*
X205315Y188819D02*
X208071Y186063D01*
X211575D01*
X211614Y186024D01*
X292835Y107037D02*
X295197Y109400D01*
Y111811D01*
X249213Y117323D02*
X261244D01*
X219587Y204921D02*
X228557D01*
X219291D02*
X219587D01*
X213386D02*
X213681D01*
X253937Y142913D02*
X255512Y144488D01*
X253937Y135827D02*
Y142913D01*
X250000Y135827D02*
Y142913D01*
X248425Y144488D02*
X250000Y142913D01*
X245276Y141732D02*
X248031Y138976D01*
Y135827D02*
Y138976D01*
X255906Y135827D02*
Y138976D01*
X251969Y135827D02*
X251969Y135827D01*
X324788Y198460D02*
X326393D01*
X335433Y242815D02*
X337500Y240748D01*
X337598D01*
X335433Y242815D02*
Y247445D01*
X331693Y240748D02*
Y246854D01*
Y240748D02*
X331693Y240748D01*
X325886D02*
X327953Y242815D01*
Y247445D01*
X325787Y240748D02*
X325886D01*
X337598Y229724D02*
X342520Y224803D01*
Y223819D02*
Y224803D01*
X337598Y229724D02*
Y234449D01*
X331693Y234449D02*
X331693Y234449D01*
X331693Y223819D02*
Y234449D01*
X320866Y223819D02*
Y224803D01*
X325787Y229724D02*
Y234449D01*
X320866Y224803D02*
X325787Y229724D01*
X318307Y214961D02*
X318898Y214370D01*
X318307Y214961D02*
Y215945D01*
X207480Y204921D02*
X207776D01*
X210433Y207579D01*
X211811Y164173D02*
X214187D01*
X211614Y164370D02*
X211811Y164173D01*
X260236Y126772D02*
X261811Y128347D01*
Y135827D01*
X253543Y126772D02*
X259842D01*
X253150Y127165D02*
X253543Y126772D01*
X252126Y211673D02*
Y215709D01*
X254567Y218150D01*
X238990D02*
X239030Y218110D01*
X239724D02*
X242126Y215709D01*
X228040Y217804D02*
X229764Y219528D01*
X234646Y217534D02*
X235262Y218150D01*
X239030Y218110D02*
X239724D01*
X227126Y223661D02*
X229882Y220905D01*
X235262Y218150D02*
X238990D01*
X234646Y205813D02*
Y217534D01*
X227126Y223661D02*
Y227697D01*
Y211673D02*
X228040Y212587D01*
Y217804D01*
X242126Y211673D02*
Y215709D01*
X234646Y205813D02*
X240158Y200301D01*
Y196850D02*
Y200301D01*
X281695Y158642D02*
X283417D01*
X237126Y207638D02*
X242323Y202441D01*
X247126Y207638D02*
X250945Y203819D01*
X261156D02*
X265551Y199423D01*
X260565Y202441D02*
X263583Y199423D01*
X242323Y202441D02*
X260565D01*
X250945Y203819D02*
X261156D01*
X265551Y197047D02*
X265748Y196850D01*
X247126Y207638D02*
Y211673D01*
X265551Y197047D02*
Y199423D01*
X263583Y197047D02*
Y199423D01*
Y197047D02*
X263779Y196850D01*
X237126Y207638D02*
Y211673D01*
X232126Y205276D02*
X234954Y202448D01*
X234968D02*
X237992Y199423D01*
X232126Y205276D02*
Y211673D01*
X234954Y202448D02*
X234968D01*
X237992Y197047D02*
Y199423D01*
Y197047D02*
X238189Y196850D01*
X229935Y201575D02*
X232087Y199423D01*
X230118Y197047D02*
X230315Y196850D01*
X229345Y200197D02*
X230118Y199423D01*
Y197047D02*
Y199423D01*
X213681Y204921D02*
X217028Y201575D01*
X229935D01*
X232087Y197047D02*
X232283Y196850D01*
X232087Y197047D02*
Y199423D01*
X228557Y204921D02*
X234055Y199423D01*
Y197047D02*
Y199423D01*
Y197047D02*
X234252Y196850D01*
X272638Y180118D02*
X272835Y179921D01*
X249626Y114961D02*
X253543D01*
X250040Y112598D02*
X259409D01*
X253543Y74803D02*
X260102D01*
X260197Y74709D01*
X289213Y75693D02*
X290197Y74709D01*
X288411Y69935D02*
X292835D01*
X271232Y95233D02*
X287697Y78768D01*
X295197Y72297D02*
Y74709D01*
X287697Y70649D02*
Y78768D01*
Y70649D02*
X288411Y69935D01*
X289213Y75693D02*
Y79201D01*
X271802Y96611D02*
X289213Y79201D01*
X292835Y69935D02*
X295197Y72297D01*
X259409Y112598D02*
X260197Y111811D01*
X211575Y146614D02*
X211614Y146653D01*
X211594Y144665D02*
X211614Y144685D01*
X246063Y131516D02*
Y135827D01*
X244094Y131496D02*
Y135827D01*
X240158Y131456D02*
Y135827D01*
X238189Y131437D02*
Y135827D01*
X242126Y131476D02*
Y135827D01*
X215945Y127362D02*
X216535Y126772D01*
X210039Y121457D02*
X210827Y120669D01*
X204528Y121457D02*
X210039D01*
X204528Y126969D02*
X210433D01*
X216535Y121260D02*
X222244D01*
X211417Y168504D02*
X211614Y168307D01*
X200591Y175787D02*
X202846Y173532D01*
X200591Y175787D02*
Y176181D01*
X200984Y164272D02*
Y170276D01*
X186876Y150000D02*
X192559Y144317D01*
X183071Y150000D02*
X186876D01*
X192559Y144317D02*
Y144317D01*
Y144317D02*
X193569Y143307D01*
X200984Y152559D02*
Y158465D01*
D17*
X331693Y209252D02*
D03*
Y202953D02*
D03*
X337598Y209252D02*
D03*
Y202953D02*
D03*
X325787Y209252D02*
D03*
Y202953D02*
D03*
X164567Y224803D02*
D03*
Y218504D02*
D03*
X318898Y103543D02*
D03*
Y97244D02*
D03*
X325787Y240748D02*
D03*
Y234449D02*
D03*
X337598Y240748D02*
D03*
Y234449D02*
D03*
X331693Y240748D02*
D03*
Y234449D02*
D03*
D18*
X331693Y223819D02*
D03*
X334252Y215945D02*
D03*
X329134D02*
D03*
X342520Y223819D02*
D03*
X345079Y215945D02*
D03*
X339961D02*
D03*
X320866Y223819D02*
D03*
X323425Y215945D02*
D03*
X318307D02*
D03*
D19*
X348433Y171236D02*
D03*
Y176748D02*
D03*
X133268Y170571D02*
D03*
Y165059D02*
D03*
X134646Y89567D02*
D03*
Y95079D02*
D03*
X347933Y236417D02*
D03*
Y241929D02*
D03*
X321260Y255118D02*
D03*
Y249606D02*
D03*
X187008Y87008D02*
D03*
Y92520D02*
D03*
X192226Y109355D02*
D03*
Y114867D02*
D03*
X175197Y241929D02*
D03*
Y247441D02*
D03*
Y231299D02*
D03*
Y236811D02*
D03*
Y220669D02*
D03*
Y226181D02*
D03*
X175296Y257977D02*
D03*
Y252465D02*
D03*
X175197Y191339D02*
D03*
Y196850D02*
D03*
X301969Y81496D02*
D03*
Y87008D02*
D03*
X265748Y121260D02*
D03*
Y126772D02*
D03*
X230315Y121260D02*
D03*
Y126772D02*
D03*
X222244Y126772D02*
D03*
Y121260D02*
D03*
X204528Y121457D02*
D03*
Y126969D02*
D03*
X259842Y121260D02*
D03*
Y126772D02*
D03*
X201969Y205118D02*
D03*
Y210630D02*
D03*
D20*
X233366Y99016D02*
D03*
X238878D02*
D03*
X234252Y256201D02*
D03*
X228740D02*
D03*
X311811Y240551D02*
D03*
X306299D02*
D03*
X181003Y85921D02*
D03*
X175491D02*
D03*
X281890Y181496D02*
D03*
X287402D02*
D03*
X175394Y117520D02*
D03*
X180905D02*
D03*
X195079Y187992D02*
D03*
X200591D02*
D03*
X195079Y182087D02*
D03*
X200591D02*
D03*
X195079Y176181D02*
D03*
X200591D02*
D03*
X287402Y187008D02*
D03*
X281890D02*
D03*
X287402Y192913D02*
D03*
X281890D02*
D03*
X195079Y146653D02*
D03*
X200591D02*
D03*
D21*
X307283Y252165D02*
D03*
Y250197D02*
D03*
Y248228D02*
D03*
Y246260D02*
D03*
X316339D02*
D03*
Y248228D02*
D03*
Y250197D02*
D03*
Y252165D02*
D03*
D22*
X309842Y245669D02*
D03*
X311811D02*
D03*
X313779D02*
D03*
Y252756D02*
D03*
X311811D02*
D03*
X309842D02*
D03*
D23*
X298819Y234646D02*
D03*
Y246457D02*
D03*
D24*
X178347Y101181D02*
D03*
D25*
X182185Y109941D02*
D03*
Y92421D02*
D03*
X179626Y109941D02*
D03*
X177067D02*
D03*
X179626Y92421D02*
D03*
X177067D02*
D03*
X174508D02*
D03*
Y109941D02*
D03*
D26*
X173819Y215256D02*
D03*
X181299Y203642D02*
D03*
X173819D02*
D03*
X181299Y215256D02*
D03*
X177559Y203642D02*
D03*
D27*
X192520Y104134D02*
D03*
Y98228D02*
D03*
X187008D02*
D03*
Y104134D02*
D03*
X187108Y115064D02*
D03*
Y109158D02*
D03*
X170079Y110039D02*
D03*
Y115945D02*
D03*
X169685Y98228D02*
D03*
Y104134D02*
D03*
X180415Y258174D02*
D03*
Y252268D02*
D03*
X180315Y241732D02*
D03*
Y247638D02*
D03*
Y237008D02*
D03*
Y231102D02*
D03*
Y226378D02*
D03*
Y220472D02*
D03*
Y191142D02*
D03*
Y197047D02*
D03*
X213386Y210827D02*
D03*
Y204921D02*
D03*
X219291Y210827D02*
D03*
Y204921D02*
D03*
X207480Y210827D02*
D03*
Y204921D02*
D03*
D28*
X153295Y251299D02*
D03*
Y242283D02*
D03*
Y233268D02*
D03*
Y224252D02*
D03*
Y215236D02*
D03*
X144279Y251299D02*
D03*
Y242283D02*
D03*
Y233268D02*
D03*
Y224252D02*
D03*
Y215236D02*
D03*
X135263Y251299D02*
D03*
Y242283D02*
D03*
Y233268D02*
D03*
Y224252D02*
D03*
Y215236D02*
D03*
X126247Y251299D02*
D03*
Y242283D02*
D03*
Y233268D02*
D03*
Y224252D02*
D03*
Y215236D02*
D03*
X117232Y251299D02*
D03*
Y242283D02*
D03*
Y233268D02*
D03*
Y224252D02*
D03*
Y215236D02*
D03*
D29*
X152559Y203937D02*
D03*
Y128740D02*
D03*
D30*
X141929Y194882D02*
D03*
Y192913D02*
D03*
Y190945D02*
D03*
Y188976D02*
D03*
Y187008D02*
D03*
Y185039D02*
D03*
Y183071D02*
D03*
Y181102D02*
D03*
Y179134D02*
D03*
Y177165D02*
D03*
Y175197D02*
D03*
Y173228D02*
D03*
Y171260D02*
D03*
Y169291D02*
D03*
Y167323D02*
D03*
Y165354D02*
D03*
Y163386D02*
D03*
Y161417D02*
D03*
Y159449D02*
D03*
Y157480D02*
D03*
Y155512D02*
D03*
Y153543D02*
D03*
Y151575D02*
D03*
Y149606D02*
D03*
Y147638D02*
D03*
Y145669D02*
D03*
Y143701D02*
D03*
Y141732D02*
D03*
Y139764D02*
D03*
Y137795D02*
D03*
D31*
X127165Y261811D02*
D03*
X115354D02*
D03*
X356299Y73228D02*
D03*
X368110D02*
D03*
D32*
X114042Y195866D02*
D03*
X136484D02*
D03*
X369488Y141732D02*
D03*
X347047D02*
D03*
D33*
X210827Y127362D02*
D03*
Y120669D02*
D03*
X215945D02*
D03*
Y127362D02*
D03*
D34*
X200984Y152559D02*
D03*
X194685D02*
D03*
X200984Y170276D02*
D03*
X194685D02*
D03*
Y158465D02*
D03*
X200984D02*
D03*
X194685Y164370D02*
D03*
X200984D02*
D03*
D35*
X366614Y86299D02*
D03*
X357598D02*
D03*
X348583D02*
D03*
X339567D02*
D03*
X330551D02*
D03*
X366614Y95315D02*
D03*
X357598D02*
D03*
X348583D02*
D03*
X339567D02*
D03*
X330551D02*
D03*
X366614Y104331D02*
D03*
X357598D02*
D03*
X348583D02*
D03*
X339567D02*
D03*
X330551D02*
D03*
X366614Y113347D02*
D03*
X357598D02*
D03*
X348583D02*
D03*
X339567D02*
D03*
X330551D02*
D03*
X366614Y122362D02*
D03*
X357598D02*
D03*
X348583D02*
D03*
X339567D02*
D03*
X330551D02*
D03*
D36*
X331693Y251378D02*
D03*
D37*
X335433Y247445D02*
D03*
X327953D02*
D03*
D38*
X331693Y246854D02*
D03*
D39*
X327953Y256004D02*
D03*
X335433D02*
D03*
D40*
X331693D02*
D03*
D41*
Y253150D02*
D03*
D42*
X283417Y173642D02*
D03*
Y168642D02*
D03*
Y163642D02*
D03*
Y158642D02*
D03*
X304772D02*
D03*
Y163642D02*
D03*
Y168642D02*
D03*
Y173642D02*
D03*
D43*
X166779Y123327D02*
D03*
Y125886D02*
D03*
Y128445D02*
D03*
Y131004D02*
D03*
Y133563D02*
D03*
Y136122D02*
D03*
Y138681D02*
D03*
Y141240D02*
D03*
X189913D02*
D03*
Y138681D02*
D03*
Y136122D02*
D03*
Y133563D02*
D03*
Y131004D02*
D03*
Y128445D02*
D03*
Y125886D02*
D03*
Y123327D02*
D03*
D44*
X295197Y111811D02*
D03*
X290197D02*
D03*
X285197D02*
D03*
X280197D02*
D03*
X275197D02*
D03*
X270197D02*
D03*
X265197D02*
D03*
X260197D02*
D03*
Y74709D02*
D03*
X265197D02*
D03*
X270197D02*
D03*
X275197D02*
D03*
X280197D02*
D03*
X285197D02*
D03*
X290197D02*
D03*
X295197D02*
D03*
D45*
X466535Y156496D02*
D03*
Y176181D02*
D03*
X17717D02*
D03*
Y156496D02*
D03*
D46*
X174409Y160630D02*
D03*
X180709D02*
D03*
D47*
X183071Y181890D02*
D03*
X172047D02*
D03*
Y172047D02*
D03*
X183071D02*
D03*
Y150000D02*
D03*
X172047D02*
D03*
D48*
X253150Y127165D02*
D03*
Y120866D02*
D03*
D49*
X219488Y251969D02*
D03*
Y228346D02*
D03*
X201772Y251969D02*
D03*
Y228346D02*
D03*
X217520Y104331D02*
D03*
Y80709D02*
D03*
X199803Y104331D02*
D03*
Y80709D02*
D03*
D50*
X122047Y145866D02*
D03*
X124016D02*
D03*
X125984D02*
D03*
X127953D02*
D03*
X129921D02*
D03*
Y163189D02*
D03*
X127953D02*
D03*
X125984D02*
D03*
X124016D02*
D03*
X122047D02*
D03*
Y80905D02*
D03*
X124016D02*
D03*
X125984D02*
D03*
X127953D02*
D03*
X129921D02*
D03*
Y98228D02*
D03*
X127953D02*
D03*
X125984D02*
D03*
X124016D02*
D03*
X122047D02*
D03*
X361713Y253740D02*
D03*
X359744D02*
D03*
X357776D02*
D03*
X355807D02*
D03*
X353839D02*
D03*
Y236417D02*
D03*
X355807D02*
D03*
X357776D02*
D03*
X359744D02*
D03*
X361713D02*
D03*
X362008Y171457D02*
D03*
X360039D02*
D03*
X358071D02*
D03*
X356102D02*
D03*
X354134D02*
D03*
Y188779D02*
D03*
X356102D02*
D03*
X358071D02*
D03*
X360039D02*
D03*
X362008D02*
D03*
D51*
X233465Y244094D02*
D03*
Y246063D02*
D03*
Y248031D02*
D03*
Y250000D02*
D03*
Y251969D02*
D03*
X250787D02*
D03*
Y250000D02*
D03*
Y248031D02*
D03*
Y246063D02*
D03*
Y244094D02*
D03*
X233465Y86811D02*
D03*
Y88779D02*
D03*
Y90748D02*
D03*
Y92716D02*
D03*
Y94685D02*
D03*
X250787D02*
D03*
Y92716D02*
D03*
Y90748D02*
D03*
Y88779D02*
D03*
Y86811D02*
D03*
D52*
X257126Y227697D02*
D03*
Y211673D02*
D03*
X252126Y227697D02*
D03*
Y211673D02*
D03*
X247126Y227697D02*
D03*
Y211673D02*
D03*
X242126Y227697D02*
D03*
Y211673D02*
D03*
X237126Y227697D02*
D03*
Y211673D02*
D03*
X232126Y227697D02*
D03*
Y211673D02*
D03*
X227126Y227697D02*
D03*
Y211673D02*
D03*
D53*
X339469Y147638D02*
D03*
X323917D02*
D03*
X339469Y149606D02*
D03*
X323917D02*
D03*
X339469Y151575D02*
D03*
X323917D02*
D03*
X339469Y153543D02*
D03*
X323917D02*
D03*
X339469Y155512D02*
D03*
X323917D02*
D03*
X339469Y157480D02*
D03*
X323917D02*
D03*
X339469Y159449D02*
D03*
X323917D02*
D03*
X339469Y161417D02*
D03*
X323917D02*
D03*
X339469Y163386D02*
D03*
X323917D02*
D03*
X339469Y165354D02*
D03*
X323917D02*
D03*
X339469Y167323D02*
D03*
X323917D02*
D03*
X339469Y169291D02*
D03*
X323917D02*
D03*
X339469Y171260D02*
D03*
X323917D02*
D03*
X339469Y173228D02*
D03*
X323917D02*
D03*
X339469Y175197D02*
D03*
X323917D02*
D03*
X339469Y177165D02*
D03*
X323917D02*
D03*
X339469Y179134D02*
D03*
X323917D02*
D03*
X339469Y181102D02*
D03*
X323917D02*
D03*
X339469Y183071D02*
D03*
X323917D02*
D03*
X339469Y185039D02*
D03*
X323917D02*
D03*
D54*
X218504Y196850D02*
D03*
X220472D02*
D03*
X222441D02*
D03*
X224410D02*
D03*
X226378D02*
D03*
X228346D02*
D03*
X230315D02*
D03*
X232283D02*
D03*
X234252D02*
D03*
X236221D02*
D03*
X238189D02*
D03*
X240158D02*
D03*
X242126D02*
D03*
X244094D02*
D03*
X246063D02*
D03*
X248031D02*
D03*
X250000D02*
D03*
X251969D02*
D03*
X253937D02*
D03*
X255906D02*
D03*
X257874D02*
D03*
X259842D02*
D03*
X261811D02*
D03*
X263779D02*
D03*
X265748D02*
D03*
Y135827D02*
D03*
X263779D02*
D03*
X261811D02*
D03*
X259842D02*
D03*
X257874D02*
D03*
X255906D02*
D03*
X253937D02*
D03*
X251969D02*
D03*
X250000D02*
D03*
X248031D02*
D03*
X246063D02*
D03*
X244094D02*
D03*
X242126D02*
D03*
X240158D02*
D03*
X238189D02*
D03*
X236221D02*
D03*
X234252D02*
D03*
X232283D02*
D03*
X230315D02*
D03*
X228346D02*
D03*
X226378D02*
D03*
X224410D02*
D03*
X222441D02*
D03*
X220472D02*
D03*
X218504D02*
D03*
D55*
X272638Y189961D02*
D03*
Y187992D02*
D03*
Y186024D02*
D03*
Y184055D02*
D03*
Y182087D02*
D03*
Y180118D02*
D03*
Y178150D02*
D03*
Y176181D02*
D03*
Y174213D02*
D03*
Y172244D02*
D03*
Y170276D02*
D03*
Y168307D02*
D03*
Y166339D02*
D03*
Y164370D02*
D03*
Y162402D02*
D03*
Y160433D02*
D03*
Y158465D02*
D03*
Y156496D02*
D03*
Y154528D02*
D03*
Y152559D02*
D03*
Y150591D02*
D03*
Y148622D02*
D03*
Y146653D02*
D03*
Y144685D02*
D03*
Y142717D02*
D03*
X211614D02*
D03*
Y144685D02*
D03*
Y146653D02*
D03*
Y148622D02*
D03*
Y150591D02*
D03*
Y152559D02*
D03*
Y154528D02*
D03*
Y156496D02*
D03*
Y158465D02*
D03*
Y160433D02*
D03*
Y162402D02*
D03*
Y164370D02*
D03*
Y166339D02*
D03*
Y168307D02*
D03*
Y170276D02*
D03*
Y172244D02*
D03*
Y174213D02*
D03*
Y176181D02*
D03*
Y178150D02*
D03*
Y180118D02*
D03*
Y182087D02*
D03*
Y184055D02*
D03*
Y186024D02*
D03*
Y187992D02*
D03*
Y189961D02*
D03*
D69*
X164567Y230512D02*
D03*
Y236417D02*
D03*
X318898Y86417D02*
D03*
Y92323D02*
D03*
D104*
X127953Y10827D02*
D03*
Y321850D02*
D03*
X182087D02*
D03*
X182087Y10827D02*
D03*
X356299Y321850D02*
D03*
X356299Y10827D02*
D03*
X302165Y321850D02*
D03*
X302165Y10827D02*
D03*
D107*
X321260Y130315D02*
Y144693D01*
Y130315D02*
X326378D01*
X312598Y153355D02*
X321260Y144693D01*
X326378Y130315D02*
X334252Y138189D01*
X312598Y153355D02*
Y165354D01*
X308955Y168998D02*
X312598Y165354D01*
X326238Y187932D02*
X329724Y184446D01*
Y166831D02*
Y184446D01*
Y166831D02*
X337106Y159449D01*
X316142Y210751D02*
X319291Y207601D01*
X320668Y246260D02*
X322834Y248426D01*
X319291Y193202D02*
X324561Y187932D01*
X322834Y248426D02*
X325835Y251427D01*
X319291Y193202D02*
Y207601D01*
X260118Y234370D02*
X262992Y231496D01*
X254764Y234370D02*
X260118D01*
X262992Y231496D02*
Y231496D01*
X225158Y238898D02*
X263858D01*
X271260Y231496D01*
X179882Y137326D02*
Y158917D01*
Y137326D02*
X181086Y136122D01*
X181086Y118935D02*
Y136122D01*
X181086D02*
X189913D01*
X145276Y188976D02*
X147441D01*
X173819Y208841D02*
Y215256D01*
X156339Y189705D02*
X167175Y200541D01*
X156339Y186653D02*
Y189705D01*
X147441Y188976D02*
X169685Y211221D01*
Y244094D01*
X167175Y202198D02*
X173819Y208841D01*
X167175Y200541D02*
Y202198D01*
X205419Y155998D02*
X206283D01*
X205118Y156299D02*
X205419Y155998D01*
X206283D02*
X207753Y154528D01*
X134646Y131890D02*
Y161302D01*
X135984Y95236D02*
Y130551D01*
X134646Y131890D02*
X135984Y130551D01*
X206299Y152362D02*
X206496Y152559D01*
X207753Y154528D02*
X211614D01*
X206496Y152559D02*
X211614D01*
X373917Y159547D02*
X382283Y151181D01*
X415606D02*
X423972Y159547D01*
X382283Y151181D02*
X415606D01*
X366144Y159547D02*
X373917D01*
X348433Y171236D02*
X354134D01*
X231299Y251969D02*
Y253248D01*
X133268Y170571D02*
X133661D01*
X132874D02*
X133268D01*
X233071Y94882D02*
X233465Y94488D01*
X233366Y94685D02*
Y99016D01*
X135158Y96063D02*
X135984Y95236D01*
X129921Y96063D02*
X135158D01*
X423972Y159547D02*
X443248D01*
X63976Y250726D02*
X85101Y271850D01*
X56532Y215354D02*
X63976Y222798D01*
Y250726D01*
X34255Y215354D02*
X56532D01*
X85101Y271850D02*
X178937D01*
X186221Y264567D01*
X31132Y184774D02*
X35472Y180433D01*
X31132Y212231D02*
X34255Y215354D01*
X31132Y184774D02*
Y212231D01*
X443248Y159547D02*
X448779Y154016D01*
X306102Y240354D02*
X306299Y240551D01*
X306102Y227680D02*
Y240354D01*
X134646Y161302D02*
X136378Y163034D01*
Y167854D01*
X129921Y163189D02*
Y167330D01*
X131929Y169338D01*
Y169626D01*
X132874Y170571D01*
X133661D02*
X136378Y167854D01*
X152352Y165561D02*
X161358Y156555D01*
X177520D01*
X146397Y168563D02*
X149399Y165561D01*
X152352D01*
X146397Y168563D02*
Y176712D01*
X219488Y233228D02*
Y251969D01*
Y228346D02*
Y233228D01*
X225158Y238898D01*
X316929Y255118D02*
X321260D01*
X228740Y255807D02*
X231299Y253248D01*
Y251969D02*
X233465D01*
X228740Y255807D02*
Y256201D01*
X221654Y255512D02*
X224380D01*
X219488Y253346D02*
X221654Y255512D01*
X224380D02*
X225069Y256201D01*
X228740D01*
X219488Y251969D02*
Y253346D01*
X347933Y236417D02*
X353839D01*
X347539D02*
X347933D01*
X342144Y241812D02*
X347539Y236417D01*
X342144Y241812D02*
Y246833D01*
X337551Y251427D02*
X342144Y246833D01*
X337057Y251427D02*
X337551D01*
X354134Y171236D02*
Y171457D01*
X345768Y159547D02*
X348433Y162213D01*
Y171236D01*
X233366Y94685D02*
X233465D01*
X227953Y94882D02*
X233071D01*
X129921Y96063D02*
Y98228D01*
X135984Y95236D02*
X143819Y87402D01*
X164467Y123031D02*
X164762Y123327D01*
X154921Y114764D02*
X159252D01*
X164467Y119978D02*
Y123031D01*
X159252Y114764D02*
X164467Y119978D01*
X152756Y116929D02*
X154921Y114764D01*
X164762Y123327D02*
X166779D01*
X190709Y191102D02*
X191929Y192323D01*
Y196277D01*
X186221Y201985D02*
X191929Y196277D01*
X187206Y109257D02*
X192127D01*
X187108Y109158D02*
X187206Y109257D01*
X192127D02*
X192226Y109355D01*
X316142Y217641D02*
Y241733D01*
Y210751D02*
Y217641D01*
X306102Y227680D02*
X316142Y217641D01*
Y241733D02*
X320668Y246260D01*
X305354Y241890D02*
X306299Y240945D01*
X298819Y246457D02*
X300098D01*
X304665Y241890D01*
X305354D01*
X306299Y240551D02*
Y240945D01*
X300098Y246457D02*
X305807Y252165D01*
X307283D01*
X307244Y242480D02*
X309842Y245079D01*
X307244Y241496D02*
Y242480D01*
X309842Y245079D02*
Y245669D01*
X306299Y240551D02*
X307244Y241496D01*
X146397Y176712D02*
X156339Y186653D01*
X143819Y87402D02*
X149606D01*
X186221Y201985D02*
Y264567D01*
X213976Y258858D02*
X215650Y257185D01*
X215650D01*
X198330Y258858D02*
X213976D01*
X215650Y257185D02*
X219488Y253346D01*
X316339Y246260D02*
X320668D01*
X328051Y253150D02*
X331693D01*
X335335D01*
X326328Y251427D02*
X328051Y253150D01*
X325835Y251427D02*
X326328D01*
X175197Y186653D02*
X179882D01*
X156339D02*
X175197D01*
Y191339D01*
X179882Y186653D02*
X181653Y184882D01*
X181653D02*
X183071Y183465D01*
X181653Y184882D02*
X181653D01*
X287795Y180709D02*
X303657D01*
X308955Y175410D01*
X287795Y180709D02*
X290158Y178347D01*
X285140Y163642D02*
X290158Y168659D01*
Y178347D01*
X335039Y200394D02*
X336221Y201575D01*
X335039Y198425D02*
Y200394D01*
X336221Y201575D02*
Y201673D01*
X337500Y202953D01*
X337106Y159449D02*
X339469D01*
X181003Y85921D02*
Y86314D01*
X179626Y87691D02*
X181003Y86314D01*
X179626Y87691D02*
Y92421D01*
X170866Y85827D02*
X175397D01*
X175491Y85921D01*
Y86314D01*
X177067Y87890D01*
Y92421D01*
X324561Y187932D02*
X326238D01*
X308955Y168998D02*
Y175410D01*
X290197Y114222D02*
X292756Y116781D01*
X297392D02*
X301969Y112205D01*
Y87008D02*
Y111745D01*
X291680Y101456D02*
X301969Y111745D01*
Y112205D01*
X292756Y116781D02*
X297392D01*
X265758Y126782D02*
X277430D01*
X277440Y126792D01*
X265748Y126772D02*
X265758Y126782D01*
X197638Y209055D02*
X201575Y205118D01*
X197638Y209055D02*
Y258166D01*
X218110Y141339D02*
X220472Y138976D01*
Y135827D02*
Y138976D01*
X272638Y189961D02*
Y193110D01*
X275289Y195762D02*
X277651D01*
X272638Y193110D02*
X275289Y195762D01*
X277651D02*
X277953Y196063D01*
X194685Y152559D02*
X195079Y152165D01*
Y146653D02*
Y152165D01*
X339469Y157480D02*
Y159449D01*
Y161417D01*
X278937Y184519D02*
Y189961D01*
X278937Y179078D02*
Y184519D01*
X278937Y184519D02*
X278937Y184519D01*
X279629Y178386D02*
X284685D01*
X278937Y179078D02*
X279629Y178386D01*
X278937Y189961D02*
X280551Y191575D01*
X285394Y184606D02*
X287402Y186614D01*
X283898Y183898D02*
X283914D01*
X281890Y181890D02*
X283898Y183898D01*
X287402Y186614D02*
Y187008D01*
X284623Y184606D02*
X285394D01*
X283914Y183898D02*
X284623Y184606D01*
X281890Y181496D02*
Y181890D01*
Y192913D02*
Y193307D01*
Y192520D02*
Y192913D01*
X197638Y258166D02*
X198330Y258858D01*
X200591Y147047D02*
X201535Y147992D01*
X202320D01*
X205604Y151276D01*
X265748Y126772D02*
X265748Y126772D01*
X277953Y196063D02*
X278254Y195762D01*
X279435D02*
X281890Y193307D01*
X278254Y195762D02*
X279435D01*
X287402Y181102D02*
X287795Y180709D01*
X337500Y202953D02*
X337598D01*
X331693D02*
X337500D01*
X127165Y259397D02*
X135263Y251299D01*
X127165Y259397D02*
Y264173D01*
X334252Y138189D02*
Y155509D01*
X336223Y157480D01*
X252126Y231732D02*
X254764Y234370D01*
X252126Y227697D02*
Y231732D01*
X201575Y205118D02*
X201969D01*
X219291Y210827D02*
Y228150D01*
X219488Y228346D01*
X213386Y210827D02*
X219291D01*
X277440Y101456D02*
X291680D01*
X280551Y191575D02*
X280945D01*
X281890Y192520D01*
X284685Y178386D02*
X287402Y181102D01*
X283417Y163642D02*
X285140D01*
X177520Y156555D02*
X179882Y158917D01*
Y159803D01*
X180709Y160630D01*
X183071Y181890D02*
Y183465D01*
X190709Y191102D01*
X183071Y172047D02*
Y181890D01*
X335335Y253150D02*
X337057Y251427D01*
X325787Y202953D02*
X331693D01*
X141929Y188976D02*
X145276D01*
X143307Y187008D02*
X145276Y188976D01*
X141929Y187008D02*
X143307D01*
X159213Y254567D02*
X169685Y244094D01*
X138531Y254567D02*
X159213D01*
X135263Y251299D02*
X138531Y254567D01*
X126247Y251299D02*
X135263D01*
X117232D02*
X126247D01*
X290197Y111811D02*
Y114222D01*
X194685Y158465D02*
Y158563D01*
Y158366D02*
Y158465D01*
X192618Y160630D02*
X194685Y158563D01*
X180709Y160630D02*
X192618D01*
X197805Y149833D02*
Y155246D01*
Y149833D02*
X200591Y147047D01*
X194685Y158366D02*
X197805Y155246D01*
X200591Y146653D02*
Y147047D01*
Y187992D02*
Y188386D01*
Y187598D02*
Y187992D01*
X190709Y191102D02*
X197103D01*
X199646Y189331D02*
X200591Y188386D01*
X197103Y191102D02*
X198875Y189331D01*
X199646D01*
X200591Y182087D02*
Y187598D01*
X208071Y180118D02*
X211614D01*
X200591Y187598D02*
X208071Y180118D01*
X200591Y181693D02*
Y182087D01*
X201535Y180748D02*
X202950D01*
X207087Y176611D01*
Y172149D02*
Y176611D01*
X200591Y181693D02*
X201535Y180748D01*
X207087Y172149D02*
X208960Y170276D01*
X211614D01*
X206004Y201083D02*
X206971D01*
X203307Y203780D02*
X206004Y201083D01*
X206971D02*
X211203Y196850D01*
X218504D01*
X201969Y205118D02*
X202362D01*
X203307Y204173D01*
Y203780D02*
Y204173D01*
X265748Y126772D02*
Y135827D01*
D108*
X366243Y159449D02*
X374016Y151676D01*
X366144Y159547D02*
X366243Y159449D01*
X345768Y159547D02*
X345866Y159449D01*
X366243D01*
X339469D02*
X345669D01*
X345768Y159547D01*
X338976Y130709D02*
X343701D01*
X334646D02*
X338976D01*
X340800Y125446D02*
X345280Y129925D01*
X343701Y130709D02*
X343851Y130859D01*
X346063Y131074D02*
X346437D01*
X345848Y130859D02*
X346063Y131074D01*
X343851Y130859D02*
X345848D01*
X346437Y131074D02*
Y141122D01*
X345284Y129921D02*
X346437Y131074D01*
Y141122D02*
X347047Y141732D01*
X366614Y113347D02*
Y122362D01*
Y104331D02*
Y113347D01*
X374016Y129528D02*
Y151676D01*
X373780Y129528D02*
X374016D01*
X366614Y122362D02*
X373780Y129528D01*
X374016Y80413D02*
Y129528D01*
X368110Y74508D02*
X374016Y80413D01*
X339567Y122362D02*
X340800Y123595D01*
Y125446D01*
X330551Y122362D02*
X339567D01*
X368110Y73228D02*
Y74508D01*
D109*
X454584Y313133D02*
X457087Y310630D01*
X453740Y313976D02*
X454584Y313133D01*
X457087Y310630D02*
X461811D01*
X463386Y312205D01*
X454584Y310771D02*
Y313133D01*
Y310771D02*
X456251Y309103D01*
X457087Y309449D02*
Y310630D01*
X456251Y309103D02*
X456741D01*
X457087Y309449D01*
D110*
X163779Y75000D02*
D03*
Y79921D02*
D03*
Y84842D02*
D03*
X353839Y209449D02*
D03*
Y214370D02*
D03*
Y219291D02*
D03*
X296654Y200394D02*
D03*
X291732D02*
D03*
X286811D02*
D03*
X291535Y149606D02*
D03*
X296457D02*
D03*
X301378D02*
D03*
D111*
X163779Y89764D02*
D03*
X353839Y204528D02*
D03*
D112*
X301575Y200394D02*
D03*
X286614Y149606D02*
D03*
D113*
X425197Y186221D02*
D03*
X435039D02*
D03*
X444882D02*
D03*
X454724D02*
D03*
X425197Y174409D02*
D03*
X435039D02*
D03*
X444882D02*
D03*
X454724D02*
D03*
X435039Y251181D02*
D03*
X444882D02*
D03*
X454724D02*
D03*
X444882Y239370D02*
D03*
X454724D02*
D03*
X444882Y229528D02*
D03*
X454724D02*
D03*
X444882Y217717D02*
D03*
X454724D02*
D03*
X444882Y207874D02*
D03*
X454724D02*
D03*
X444882Y196063D02*
D03*
X454724D02*
D03*
X425197Y251181D02*
D03*
Y239370D02*
D03*
Y229528D02*
D03*
Y217717D02*
D03*
Y207874D02*
D03*
Y196063D02*
D03*
X435039D02*
D03*
Y239370D02*
D03*
Y229528D02*
D03*
Y217717D02*
D03*
Y207874D02*
D03*
X438779Y154016D02*
D03*
X448779D02*
D03*
X428780D02*
D03*
Y144016D02*
D03*
X438779D02*
D03*
X448779D02*
D03*
X428780Y134016D02*
D03*
X438779D02*
D03*
X448779D02*
D03*
X428780Y124016D02*
D03*
X438779D02*
D03*
X448779D02*
D03*
X428780Y114016D02*
D03*
X438779D02*
D03*
X448779D02*
D03*
X428780Y104016D02*
D03*
X438779D02*
D03*
X448779D02*
D03*
X428780Y94016D02*
D03*
X438779D02*
D03*
X448779D02*
D03*
X428780Y84016D02*
D03*
X438779D02*
D03*
X448779D02*
D03*
X59055Y148228D02*
D03*
X49213D02*
D03*
X39370D02*
D03*
X29528D02*
D03*
X59055Y160039D02*
D03*
X49213D02*
D03*
X39370D02*
D03*
X29528D02*
D03*
X49213Y83268D02*
D03*
X39370D02*
D03*
X29528D02*
D03*
X39370Y95079D02*
D03*
X29528D02*
D03*
X39370Y104921D02*
D03*
X29528D02*
D03*
X39370Y116732D02*
D03*
X29528D02*
D03*
X39370Y126575D02*
D03*
X29528D02*
D03*
X39370Y138386D02*
D03*
X29528D02*
D03*
X59055Y83268D02*
D03*
Y95079D02*
D03*
Y104921D02*
D03*
Y116732D02*
D03*
Y126575D02*
D03*
Y138386D02*
D03*
X49213D02*
D03*
Y95079D02*
D03*
Y104921D02*
D03*
Y116732D02*
D03*
Y126575D02*
D03*
X45472Y180433D02*
D03*
X35472D02*
D03*
X55472D02*
D03*
Y190433D02*
D03*
X45472D02*
D03*
X35472D02*
D03*
X55472Y200433D02*
D03*
X45472D02*
D03*
X35472D02*
D03*
X55472Y210433D02*
D03*
X45472D02*
D03*
X35472D02*
D03*
X55472Y220433D02*
D03*
X45472D02*
D03*
X35472D02*
D03*
X55472Y230433D02*
D03*
X45472D02*
D03*
X35472D02*
D03*
X55472Y240433D02*
D03*
X45472D02*
D03*
X35472D02*
D03*
X55472Y250433D02*
D03*
X45472D02*
D03*
X35472D02*
D03*
D114*
X227953Y271654D02*
D03*
X256299D02*
D03*
Y61024D02*
D03*
X227953D02*
D03*
D115*
X268701Y295276D02*
D03*
X215551D02*
D03*
Y37402D02*
D03*
X268701D02*
D03*
D116*
X326693Y139139D02*
D03*
X326193Y193539D02*
D03*
D117*
X146653Y21654D02*
D03*
Y40157D02*
D03*
X109252Y21654D02*
D03*
Y40157D02*
D03*
Y311024D02*
D03*
Y292520D02*
D03*
X146653Y311024D02*
D03*
Y292520D02*
D03*
X163386Y311024D02*
D03*
Y292520D02*
D03*
X200787Y311024D02*
D03*
Y292520D02*
D03*
X200787Y21654D02*
D03*
Y40157D02*
D03*
X163386Y21654D02*
D03*
Y40157D02*
D03*
X337598Y311024D02*
D03*
Y292520D02*
D03*
X375000Y311024D02*
D03*
Y292520D02*
D03*
X375000Y21654D02*
D03*
Y40157D02*
D03*
X337598Y21654D02*
D03*
Y40157D02*
D03*
X283465Y311024D02*
D03*
Y292520D02*
D03*
X320866Y311024D02*
D03*
Y292520D02*
D03*
X320866Y21654D02*
D03*
Y40157D02*
D03*
X283465Y21654D02*
D03*
Y40157D02*
D03*
D118*
X127953Y23622D02*
D03*
Y309055D02*
D03*
X182087D02*
D03*
X182087Y23622D02*
D03*
X356299Y309055D02*
D03*
X356299Y23622D02*
D03*
X302165Y309055D02*
D03*
X302165Y23622D02*
D03*
D119*
X127953Y47244D02*
D03*
Y285433D02*
D03*
X182087D02*
D03*
X182087Y47244D02*
D03*
X356299Y285433D02*
D03*
X356299Y47244D02*
D03*
X302165Y285433D02*
D03*
X302165Y47244D02*
D03*
D120*
X321260Y130315D02*
D03*
X180315Y99213D02*
D03*
X176378D02*
D03*
X178347Y102756D02*
D03*
X148425Y84252D02*
D03*
X168110Y74016D02*
D03*
Y77559D02*
D03*
X159055Y77165D02*
D03*
Y81102D02*
D03*
Y85039D02*
D03*
X160236Y133071D02*
D03*
X160433Y197835D02*
D03*
Y189961D02*
D03*
X205118Y156299D02*
D03*
X204331Y131496D02*
D03*
X208661Y131890D02*
D03*
X222441Y131496D02*
D03*
X226378Y127953D02*
D03*
X141732Y134843D02*
D03*
X213386Y132283D02*
D03*
X218110Y131496D02*
D03*
X204724Y102756D02*
D03*
X200787D02*
D03*
X229921Y121260D02*
D03*
X208661Y136811D02*
D03*
X222441Y116142D02*
D03*
X218110D02*
D03*
X206299Y152362D02*
D03*
X213386Y114961D02*
D03*
X261024Y209842D02*
D03*
X126250Y169783D02*
D03*
X120276Y169783D02*
D03*
X125515Y104406D02*
D03*
X120480Y104342D02*
D03*
X105413Y76772D02*
D03*
X363386Y229921D02*
D03*
X358268Y229942D02*
D03*
X359055Y165354D02*
D03*
X363189D02*
D03*
X339075Y256299D02*
D03*
X160433Y213583D02*
D03*
X324803Y105709D02*
D03*
X212992Y94488D02*
D03*
X209055Y96850D02*
D03*
X222260Y90251D02*
D03*
X205118Y99213D02*
D03*
X316929Y255118D02*
D03*
X274449Y257835D02*
D03*
X281323Y256079D02*
D03*
X277461Y266634D02*
D03*
X277362Y262697D02*
D03*
X270768Y262500D02*
D03*
X261611Y255121D02*
D03*
X270768Y267618D02*
D03*
X277714Y275394D02*
D03*
X277615Y271457D02*
D03*
X271260Y248031D02*
D03*
X258268Y244213D02*
D03*
X227362Y247146D02*
D03*
X271260Y242815D02*
D03*
X270669Y256890D02*
D03*
X258268Y248031D02*
D03*
X345768Y159547D02*
D03*
X227362Y243110D02*
D03*
X324803Y82087D02*
D03*
Y89961D02*
D03*
Y97835D02*
D03*
Y121457D02*
D03*
Y113583D02*
D03*
X160433Y245079D02*
D03*
Y237205D02*
D03*
X150591Y245079D02*
D03*
Y221457D02*
D03*
X160433D02*
D03*
X150591Y213583D02*
D03*
X160433Y205709D02*
D03*
X260236Y91535D02*
D03*
X254921Y97342D02*
D03*
X264961Y91535D02*
D03*
X263386Y102362D02*
D03*
X268110D02*
D03*
X227854Y86122D02*
D03*
Y89735D02*
D03*
X155636Y87953D02*
D03*
X152953Y84941D02*
D03*
X127953Y137795D02*
D03*
X158427Y117558D02*
D03*
X127953Y132874D02*
D03*
Y127953D02*
D03*
X343701Y130709D02*
D03*
X338976D02*
D03*
X334646D02*
D03*
X151969Y111417D02*
D03*
X152756Y116929D02*
D03*
X166929Y258268D02*
D03*
X164961Y98425D02*
D03*
X189269Y184747D02*
D03*
X189370Y193701D02*
D03*
X150565Y144266D02*
D03*
X153040Y137795D02*
D03*
X278346Y165354D02*
D03*
Y173622D02*
D03*
Y169291D02*
D03*
X278740Y135039D02*
D03*
X275197Y138583D02*
D03*
X274803Y104675D02*
D03*
X200787Y98425D02*
D03*
X205906Y77953D02*
D03*
X277165Y96063D02*
D03*
X279999Y120079D02*
D03*
X274420Y123640D02*
D03*
X302362Y239764D02*
D03*
X279528Y238189D02*
D03*
X308661Y228740D02*
D03*
X311811Y249213D02*
D03*
X149606Y172047D02*
D03*
X150591Y176181D02*
D03*
X160433Y169291D02*
D03*
X274016Y234252D02*
D03*
X271260Y231496D02*
D03*
X270866Y236221D02*
D03*
X281496Y153150D02*
D03*
X278543Y150591D02*
D03*
Y155512D02*
D03*
X160433Y179134D02*
D03*
Y174213D02*
D03*
X153746Y97829D02*
D03*
X164961Y102362D02*
D03*
X217520Y148622D02*
D03*
X217520Y154528D02*
D03*
X217520Y184055D02*
D03*
X217520Y178150D02*
D03*
X217520Y160433D02*
D03*
X217520Y166339D02*
D03*
X194882Y119291D02*
D03*
X150591Y197835D02*
D03*
X335039Y198425D02*
D03*
X170866Y85827D02*
D03*
X209055Y87402D02*
D03*
X205512Y84646D02*
D03*
X277953Y212513D02*
D03*
X281151Y214961D02*
D03*
X278120Y217319D02*
D03*
X277559Y201181D02*
D03*
X277440Y126792D02*
D03*
X155512Y66142D02*
D03*
X155315Y107779D02*
D03*
X226378Y123622D02*
D03*
Y119291D02*
D03*
X208661Y116142D02*
D03*
X204331D02*
D03*
X229921Y126772D02*
D03*
X200394Y127953D02*
D03*
Y123622D02*
D03*
Y119291D02*
D03*
X277165Y192520D02*
D03*
X268110Y183891D02*
D03*
X223425Y191929D02*
D03*
X127953Y118110D02*
D03*
Y123031D02*
D03*
X339567Y194882D02*
D03*
X326772Y220472D02*
D03*
X336614D02*
D03*
Y224410D02*
D03*
X326772D02*
D03*
X197835Y140748D02*
D03*
X188976Y155512D02*
D03*
Y167323D02*
D03*
Y173228D02*
D03*
Y179134D02*
D03*
X281890Y181496D02*
D03*
X274606Y130905D02*
D03*
X224410Y77756D02*
D03*
X211614D02*
D03*
X277559Y83661D02*
D03*
X273622Y87598D02*
D03*
X269685Y91535D02*
D03*
X280512Y92520D02*
D03*
X273622Y205709D02*
D03*
X279528Y228346D02*
D03*
Y233268D02*
D03*
X206693Y255906D02*
D03*
X211614D02*
D03*
X208661Y224410D02*
D03*
X212598Y232283D02*
D03*
X207677D02*
D03*
X214567Y241142D02*
D03*
X209646D02*
D03*
X204724D02*
D03*
X261811Y151575D02*
D03*
X261811Y157480D02*
D03*
X261811Y163386D02*
D03*
X261811Y169291D02*
D03*
X220472Y163386D02*
D03*
X220472Y169291D02*
D03*
X217520Y172244D02*
D03*
X150591Y186024D02*
D03*
Y168307D02*
D03*
X154637Y121457D02*
D03*
X204724Y220472D02*
D03*
X222441Y244094D02*
D03*
X232283Y232283D02*
D03*
X149606Y87402D02*
D03*
X251969Y146850D02*
D03*
X218110Y141339D02*
D03*
X227953Y94882D02*
D03*
X268898Y224803D02*
D03*
X265786Y227991D02*
D03*
X277953Y196063D02*
D03*
X156693Y259055D02*
D03*
X331693Y143701D02*
D03*
Y149606D02*
D03*
X106102Y195866D02*
D03*
X377953Y143701D02*
D03*
Y149606D02*
D03*
X151575Y259055D02*
D03*
X262992Y231496D02*
D03*
X277440Y101456D02*
D03*
X264173Y174016D02*
D03*
X141732Y115748D02*
D03*
X152362Y105118D02*
D03*
X155219Y102261D02*
D03*
X258661Y141732D02*
D03*
X281102Y219685D02*
D03*
X277953Y222047D02*
D03*
X253937Y189370D02*
D03*
X257087Y191732D02*
D03*
X250394Y187402D02*
D03*
X246850Y189509D02*
D03*
X243701Y192126D02*
D03*
X204095Y175984D02*
D03*
X206299Y166732D02*
D03*
X255512Y144488D02*
D03*
X245276Y141732D02*
D03*
X248425Y144488D02*
D03*
X253543Y114961D02*
D03*
Y74803D02*
D03*
D121*
X230062Y155559D02*
D03*
Y179181D02*
D03*
X230315Y163386D02*
D03*
Y171260D02*
D03*
X253684Y155559D02*
D03*
X253937Y179134D02*
D03*
X246063Y155512D02*
D03*
X238189D02*
D03*
X253937Y163386D02*
D03*
Y171260D02*
D03*
X246063Y179134D02*
D03*
Y163386D02*
D03*
X238189D02*
D03*
Y179134D02*
D03*
X246063Y171260D02*
D03*
X238189D02*
D03*
X437992Y26575D02*
D03*
Y18701D02*
D03*
Y10827D02*
D03*
X445866Y30512D02*
D03*
X390307Y11053D02*
D03*
X398622Y6890D02*
D03*
Y14764D02*
D03*
Y22638D02*
D03*
X390307Y18927D02*
D03*
Y26801D02*
D03*
X406496Y26575D02*
D03*
X422244D02*
D03*
Y18701D02*
D03*
Y10827D02*
D03*
X414370Y6890D02*
D03*
Y14764D02*
D03*
Y22638D02*
D03*
Y30512D02*
D03*
X430118Y6890D02*
D03*
Y14764D02*
D03*
Y22638D02*
D03*
Y30512D02*
D03*
X398622D02*
D03*
X406496Y18701D02*
D03*
Y10827D02*
D03*
X445866Y14764D02*
D03*
Y22638D02*
D03*
Y6890D02*
D03*
X78740Y322835D02*
D03*
Y314961D02*
D03*
Y307087D02*
D03*
X86614Y326772D02*
D03*
X39370Y303150D02*
D03*
Y311024D02*
D03*
Y318898D02*
D03*
X47244Y322835D02*
D03*
X62992D02*
D03*
Y314961D02*
D03*
Y307087D02*
D03*
X55118Y303150D02*
D03*
Y311024D02*
D03*
Y318898D02*
D03*
Y326772D02*
D03*
X70866Y303150D02*
D03*
Y311024D02*
D03*
Y318898D02*
D03*
Y326772D02*
D03*
X39370D02*
D03*
X47244Y314961D02*
D03*
Y307087D02*
D03*
X86614Y311024D02*
D03*
Y318898D02*
D03*
X94488Y307087D02*
D03*
Y322835D02*
D03*
X86614Y303150D02*
D03*
X94488Y314961D02*
D03*
X437992Y321850D02*
D03*
Y313976D02*
D03*
Y306102D02*
D03*
X445866Y325787D02*
D03*
X390307Y306328D02*
D03*
X398622Y302165D02*
D03*
Y310039D02*
D03*
Y317913D02*
D03*
X390307Y314202D02*
D03*
Y322076D02*
D03*
X406496Y321850D02*
D03*
X422244D02*
D03*
Y313976D02*
D03*
Y306102D02*
D03*
X414370Y302165D02*
D03*
Y310039D02*
D03*
Y317913D02*
D03*
Y325787D02*
D03*
X430118Y302165D02*
D03*
Y310039D02*
D03*
Y317913D02*
D03*
Y325787D02*
D03*
X398622D02*
D03*
X406496Y313976D02*
D03*
Y306102D02*
D03*
X445866Y310039D02*
D03*
Y317913D02*
D03*
Y302165D02*
D03*
X38386Y30512D02*
D03*
Y14764D02*
D03*
Y22638D02*
D03*
X77756Y26575D02*
D03*
Y18701D02*
D03*
X85630Y6890D02*
D03*
X54134D02*
D03*
Y14764D02*
D03*
Y22638D02*
D03*
Y30512D02*
D03*
X69882Y6890D02*
D03*
Y14764D02*
D03*
Y22638D02*
D03*
Y30512D02*
D03*
X62008Y26575D02*
D03*
Y18701D02*
D03*
Y10827D02*
D03*
X77756D02*
D03*
X93945Y10601D02*
D03*
Y18475D02*
D03*
X85630Y14764D02*
D03*
Y22638D02*
D03*
Y30512D02*
D03*
X93945Y26349D02*
D03*
X38386Y6890D02*
D03*
X46260Y26575D02*
D03*
Y18701D02*
D03*
Y10827D02*
D03*
D122*
X393701Y166339D02*
D03*
X90551D02*
D03*
X393701Y242126D02*
D03*
Y90551D02*
D03*
X90551Y242126D02*
D03*
X464567Y19685D02*
D03*
Y312992D02*
D03*
X90551Y90551D02*
D03*
X19685Y19685D02*
D03*
Y312992D02*
D03*
M02*
