G04*
G04 #@! TF.GenerationSoftware,Altium Limited,Altium Designer,21.3.1 (25)*
G04*
G04 Layer_Color=16711935*
%FSLAX25Y25*%
%MOIN*%
G70*
G04*
G04 #@! TF.SameCoordinates,B8EFB4BC-30DA-42F7-88CE-EC59C6869F36*
G04*
G04*
G04 #@! TF.FilePolarity,Positive*
G04*
G01*
G75*
%ADD11C,0.00394*%
%ADD14C,0.00787*%
D11*
X183815Y104681D02*
X183551Y105665D01*
X182831Y106386D01*
X181846Y106650D01*
X180862Y106386D01*
X180142Y105665D01*
X179878Y104681D01*
X180142Y103697D01*
X180862Y102976D01*
X181846Y102713D01*
X182831Y102976D01*
X183551Y103697D01*
X183815Y104681D01*
X146260Y95669D02*
X167913D01*
X146260Y69095D02*
Y95669D01*
Y69095D02*
X167913D01*
Y95669D01*
X330118Y202953D02*
X333268D01*
Y209252D01*
X330118D02*
X333268D01*
X330118Y202953D02*
Y209252D01*
X336024Y202953D02*
X339173D01*
Y209252D01*
X336024D02*
X339173D01*
X336024Y202953D02*
Y209252D01*
X324213Y202953D02*
X327362D01*
Y209252D01*
X324213D02*
X327362D01*
X324213Y202953D02*
Y209252D01*
X327756Y219980D02*
X330315Y217421D01*
X327756D02*
X335630D01*
Y222342D01*
X327756D02*
X335630D01*
X327756Y217421D02*
Y222342D01*
X338583Y219980D02*
X341142Y217421D01*
X338583D02*
X346457D01*
Y222342D01*
X338583D02*
X346457D01*
X338583Y217421D02*
Y222342D01*
X316929Y219980D02*
X319488Y217421D01*
X316929D02*
X324803D01*
Y222342D01*
X316929D02*
X324803D01*
X316929Y217421D02*
Y222342D01*
X346858Y177142D02*
X350008D01*
X346858Y170843D02*
Y177142D01*
Y170843D02*
X350008D01*
Y177142D01*
X239272Y97441D02*
Y100591D01*
X232972D02*
X239272D01*
X232972Y97441D02*
Y100591D01*
Y97441D02*
X239272D01*
X131693Y164665D02*
X134843D01*
Y170965D01*
X131693D02*
X134843D01*
X131693Y164665D02*
Y170965D01*
X133071Y89173D02*
Y95472D01*
X136221D01*
Y89173D02*
Y95472D01*
X133071Y89173D02*
X136221D01*
X228346Y254626D02*
X234646D01*
X228346D02*
Y257776D01*
X234646D01*
Y254626D02*
Y257776D01*
X346358Y242323D02*
X349508D01*
X346358Y236024D02*
Y242323D01*
Y236024D02*
X349508D01*
Y242323D01*
X319685Y249213D02*
X322835D01*
Y255512D01*
X319685D02*
X322835D01*
X319685Y249213D02*
Y255512D01*
X305906Y238976D02*
Y242126D01*
Y238976D02*
X312205D01*
Y242126D01*
X305906D02*
X312205D01*
X349705Y198622D02*
Y225197D01*
X371358D01*
Y198622D02*
Y225197D01*
X349705Y198622D02*
X371358D01*
X280906Y196260D02*
X307480D01*
X280906D02*
Y217913D01*
X307480D01*
Y196260D02*
Y217913D01*
X280709Y153740D02*
X307283D01*
Y132087D02*
Y153740D01*
X280709Y132087D02*
X307283D01*
X280709D02*
Y153740D01*
X172244Y107283D02*
X184449D01*
X172244Y95079D02*
X184449D01*
Y107283D01*
X172244Y95079D02*
Y107283D01*
X183563Y206004D02*
Y212894D01*
X171555Y206004D02*
Y212894D01*
X183563D01*
X171555Y206004D02*
X183563D01*
X194193Y98079D02*
Y104283D01*
X190847Y98079D02*
X194193D01*
X190847D02*
Y104283D01*
X194193D01*
X185335Y98079D02*
Y104283D01*
X188681D01*
Y98079D02*
Y104283D01*
X185335Y98079D02*
X188681D01*
X185434Y109009D02*
X188781D01*
Y115213D01*
X185434D02*
X188781D01*
X185434Y109009D02*
Y115213D01*
X168405Y116095D02*
X171752D01*
X168405Y109890D02*
Y116095D01*
Y109890D02*
X171752D01*
Y116095D01*
X168012Y98079D02*
X171358D01*
Y104283D01*
X168012D02*
X171358D01*
X168012Y98079D02*
Y104283D01*
X178741Y252119D02*
X182088D01*
Y258324D01*
X178741D02*
X182088D01*
X178741Y252119D02*
Y258324D01*
X178642Y247787D02*
X181988D01*
X178642Y241583D02*
Y247787D01*
Y241583D02*
X181988D01*
Y247787D01*
X178642Y237158D02*
X181988D01*
X178642Y230953D02*
Y237158D01*
Y230953D02*
X181988D01*
Y237158D01*
X178642Y226528D02*
X181988D01*
X178642Y220323D02*
Y226528D01*
Y220323D02*
X181988D01*
Y226528D01*
X178642Y190992D02*
X181988D01*
Y197197D01*
X178642D02*
X181988D01*
X178642Y190992D02*
Y197197D01*
X185433Y86614D02*
Y92913D01*
X188583D01*
Y86614D02*
Y92913D01*
X185433Y86614D02*
X188583D01*
X190651Y108961D02*
Y115261D01*
X193800D01*
Y108961D02*
Y115261D01*
X190651Y108961D02*
X193800D01*
X175097Y84346D02*
Y87495D01*
Y84346D02*
X181396D01*
Y87495D01*
X175097D02*
X181396D01*
X173622Y247835D02*
X176772D01*
X173622Y241535D02*
Y247835D01*
Y241535D02*
X176772D01*
Y247835D01*
X173622Y237205D02*
X176772D01*
X173622Y230906D02*
Y237205D01*
Y230906D02*
X176772D01*
Y237205D01*
X173622Y226575D02*
X176772D01*
X173622Y220276D02*
Y226575D01*
Y220276D02*
X176772D01*
Y226575D01*
X176871Y252072D02*
Y258371D01*
X173722Y252072D02*
X176871D01*
X173722D02*
Y258371D01*
X176871D01*
X173622Y190945D02*
Y197244D01*
X176772D01*
Y190945D02*
Y197244D01*
X173622Y190945D02*
X176772D01*
X287795Y179921D02*
Y183071D01*
X281496D02*
X287795D01*
X281496Y179921D02*
Y183071D01*
Y179921D02*
X287795D01*
X111267Y209272D02*
X159259D01*
Y257264D01*
X111267D02*
X159259D01*
X111267Y209272D02*
Y257264D01*
X166142Y218504D02*
Y224803D01*
X162992Y218504D02*
X166142D01*
X162992D02*
Y224803D01*
X166142D01*
X114042Y205709D02*
X136484D01*
Y186024D02*
Y205709D01*
X114042Y186024D02*
X136484D01*
X114042D02*
Y205709D01*
X317323Y97244D02*
X320472D01*
Y103543D01*
X317323D02*
X320472D01*
X317323Y97244D02*
Y103543D01*
X324213Y234449D02*
X327362D01*
Y240748D01*
X324213D02*
X327362D01*
X324213Y234449D02*
Y240748D01*
X336024Y234449D02*
X339173D01*
Y240748D01*
X336024D02*
X339173D01*
X336024Y234449D02*
Y240748D01*
X330118Y234449D02*
X333268D01*
Y240748D01*
X330118D02*
X333268D01*
X330118Y234449D02*
Y240748D01*
X194685Y150984D02*
X200984D01*
X194685D02*
Y154134D01*
X200984D01*
Y150984D02*
Y154134D01*
X194685Y168701D02*
X200984D01*
X194685D02*
Y171850D01*
X200984D01*
Y168701D02*
Y171850D01*
X194685Y160039D02*
X200984D01*
Y156890D02*
Y160039D01*
X194685Y156890D02*
X200984D01*
X194685D02*
Y160039D01*
Y165945D02*
X200984D01*
Y162795D02*
Y165945D01*
X194685Y162795D02*
X200984D01*
X194685D02*
Y165945D01*
X215059Y204772D02*
Y210976D01*
X211713Y204772D02*
X215059D01*
X211713D02*
Y210976D01*
X215059D01*
X220965Y204772D02*
Y210976D01*
X217618Y204772D02*
X220965D01*
X217618D02*
Y210976D01*
X220965D01*
X209154Y204772D02*
Y210976D01*
X205807Y204772D02*
X209154D01*
X205807D02*
Y210976D01*
X209154D01*
X338189Y247000D02*
Y255858D01*
X325197D02*
X338189D01*
X325197Y247000D02*
Y255858D01*
Y247000D02*
X338189D01*
X286417Y175787D02*
X301772D01*
Y156496D02*
Y175787D01*
X286417Y156496D02*
X301772D01*
X286417D02*
Y175787D01*
Y170787D02*
X291417Y175787D01*
X184449Y122441D02*
X187008Y125000D01*
Y122441D02*
Y142126D01*
X169685D02*
X187008D01*
X169685Y122441D02*
Y142126D01*
Y122441D02*
X187008D01*
X297972Y78496D02*
Y108024D01*
X257421Y78496D02*
X297972D01*
X257421D02*
Y108024D01*
X297972D01*
X292972D02*
X297972Y103024D01*
X461240Y154331D02*
Y178347D01*
X471831D01*
Y154331D02*
Y178347D01*
X461240Y154331D02*
X471831D01*
X23012D02*
Y178347D01*
X12421Y154331D02*
X23012D01*
X12421D02*
Y178347D01*
X23012D01*
X347047Y131890D02*
Y151575D01*
Y131890D02*
X369488D01*
Y151575D01*
X347047D02*
X369488D01*
X181299Y115945D02*
Y119095D01*
X175000D02*
X181299D01*
X175000Y115945D02*
Y119095D01*
Y115945D02*
X181299D01*
X300394Y87402D02*
X303543D01*
X300394Y81102D02*
Y87402D01*
Y81102D02*
X303543D01*
Y87402D01*
X264173Y127165D02*
X267323D01*
X264173Y120866D02*
Y127165D01*
Y120866D02*
X267323D01*
Y127165D01*
X200984Y186417D02*
Y189567D01*
X194685D02*
X200984D01*
X194685Y186417D02*
Y189567D01*
Y186417D02*
X200984D01*
Y180512D02*
Y183661D01*
X194685D02*
X200984D01*
X194685Y180512D02*
Y183661D01*
Y180512D02*
X200984D01*
Y174606D02*
Y177756D01*
X194685D02*
X200984D01*
X194685Y174606D02*
Y177756D01*
Y174606D02*
X200984D01*
X228740Y127165D02*
X231890D01*
X228740Y120866D02*
Y127165D01*
Y120866D02*
X231890D01*
Y127165D01*
X181496Y158169D02*
Y163091D01*
X173622D02*
X181496D01*
X173622Y158169D02*
Y163091D01*
Y158169D02*
X181496D01*
X223819Y120866D02*
Y127165D01*
X220669Y120866D02*
X223819D01*
X220669D02*
Y127165D01*
X223819D01*
X171260Y178740D02*
Y185039D01*
Y178740D02*
X183858D01*
Y185039D01*
X171260D02*
X183858D01*
X250689Y120079D02*
X255610D01*
Y127953D01*
X250689D02*
X255610D01*
X250689Y120079D02*
Y127953D01*
X171260Y175197D02*
X183858D01*
Y168898D02*
Y175197D01*
X171260Y168898D02*
X183858D01*
X171260D02*
Y175197D01*
X202953Y121063D02*
Y127362D01*
X206102D01*
Y121063D02*
Y127362D01*
X202953Y121063D02*
X206102D01*
X171260Y146850D02*
Y153150D01*
Y146850D02*
X183858D01*
Y153150D01*
X171260D02*
X183858D01*
X258268Y127165D02*
X261417D01*
X258268Y120866D02*
Y127165D01*
Y120866D02*
X261417D01*
Y127165D01*
X281496Y185433D02*
Y188583D01*
Y185433D02*
X287795D01*
Y188583D01*
X281496D02*
X287795D01*
X200394Y204724D02*
Y211024D01*
X203543D01*
Y204724D02*
Y211024D01*
X200394Y204724D02*
X203543D01*
X281496Y191339D02*
Y194488D01*
Y191339D02*
X287795D01*
Y194488D01*
X281496D02*
X287795D01*
X200984Y145079D02*
Y148228D01*
X194685D02*
X200984D01*
X194685Y145079D02*
Y148228D01*
Y145079D02*
X200984D01*
X249126Y42646D02*
X252173Y39598D01*
Y32157D02*
Y42646D01*
X232079Y32157D02*
X252173D01*
X232079D02*
Y42646D01*
X252173D01*
X120079Y148622D02*
Y160433D01*
X131890D01*
Y148622D02*
Y160433D01*
X120079Y148622D02*
X131890D01*
X120079Y150591D02*
X122047Y148622D01*
X110531Y83563D02*
Y95571D01*
X135531D01*
Y83563D02*
Y95571D01*
X110531Y83563D02*
X135531D01*
X120079Y83661D02*
Y95473D01*
X131890D01*
Y83661D02*
Y95473D01*
X120079Y83661D02*
X131890D01*
X120079Y85630D02*
X122047Y83661D01*
X363681Y239173D02*
Y250984D01*
X351870Y239173D02*
X363681D01*
X351870D02*
Y250984D01*
X363681D01*
X361713D02*
X363681Y249016D01*
X362008Y186024D02*
X363976Y184055D01*
X352165Y186024D02*
X363976D01*
X352165Y174213D02*
Y186024D01*
Y174213D02*
X363976D01*
Y186024D01*
X246063Y242126D02*
X248031Y244094D01*
Y242126D02*
Y253937D01*
X236221D02*
X248031D01*
X236221Y242126D02*
Y253937D01*
Y242126D02*
X248031D01*
X348721Y186122D02*
X373721D01*
X348721Y174114D02*
Y186122D01*
Y174114D02*
X373721D01*
Y186122D01*
X246063Y84842D02*
X248031Y86811D01*
Y84842D02*
Y96653D01*
X236221D02*
X248031D01*
X236221Y84842D02*
Y96653D01*
Y84842D02*
X248031D01*
X248130Y75098D02*
Y100098D01*
X236122D02*
X248130D01*
X236122Y75098D02*
Y100098D01*
Y75098D02*
X248130D01*
Y232579D02*
Y257579D01*
X236122D02*
X248130D01*
X236122Y232579D02*
Y257579D01*
Y232579D02*
X248130D01*
X110531Y148524D02*
X135531D01*
Y160531D01*
X110531D02*
X135531D01*
X110531Y148524D02*
Y160531D01*
X348721Y251083D02*
X373721D01*
X348721Y239075D02*
Y251083D01*
Y239075D02*
X373721D01*
Y251083D01*
D14*
X305906Y254134D02*
X317717D01*
Y244291D02*
Y254134D01*
X305906Y244291D02*
X317717D01*
X305906D02*
Y254134D01*
X295669Y246850D02*
X301969D01*
X295669Y234252D02*
Y246850D01*
Y234252D02*
X301969D01*
Y246850D01*
X139961Y199803D02*
X143898D01*
X139961D02*
Y203937D01*
X143898D01*
X139961Y132665D02*
X143898D01*
X139961Y128740D02*
Y132665D01*
Y128740D02*
X143898D01*
X159843D01*
Y203937D01*
X143898D02*
X159843D01*
X143898Y128740D02*
Y203937D01*
X114961Y258661D02*
X127559D01*
X114961D02*
Y264961D01*
X127559D01*
Y258661D02*
Y264961D01*
X217323Y119095D02*
Y128937D01*
X209449Y119095D02*
X217323D01*
X209449D02*
Y128937D01*
X217323D01*
X324567Y80354D02*
Y128347D01*
X372559D01*
Y80354D02*
Y128347D01*
X324567Y80354D02*
X372559D01*
X368504Y70079D02*
Y76378D01*
X355906D02*
X368504D01*
X355906Y70079D02*
Y76378D01*
Y70079D02*
X368504D01*
X402362Y287598D02*
X475197D01*
X402362Y46457D02*
Y287598D01*
Y46457D02*
X475197Y46457D01*
Y287598D01*
X222441Y228346D02*
Y251969D01*
X198819Y228346D02*
X222441D01*
X198819D02*
Y251969D01*
X222441D01*
X9055Y46850D02*
X81890D01*
Y287992D01*
X9055Y287992D02*
X81890Y287992D01*
X9055Y46850D02*
Y287992D01*
X211614Y336024D02*
X272638D01*
Y264370D02*
Y336024D01*
X211614Y264370D02*
X272638D01*
X211614D02*
Y336024D01*
X224626Y212933D02*
X259626D01*
X224626D02*
Y226437D01*
X259626D01*
Y212933D02*
Y226437D01*
X321949Y133268D02*
X341437D01*
Y199409D01*
X321949D02*
X341437D01*
X321949Y133268D02*
Y199409D01*
X196850Y80709D02*
X220472D01*
Y104331D01*
X196850D02*
X220472D01*
X196850Y80709D02*
Y104331D01*
X108268Y0D02*
X147638D01*
Y51181D01*
X108268D02*
X147638D01*
X108268Y0D02*
Y51181D01*
Y332677D02*
X147638D01*
X108268Y281496D02*
Y332677D01*
Y281496D02*
X147638D01*
Y332677D01*
X162402D02*
X201772D01*
X162402Y281496D02*
Y332677D01*
Y281496D02*
X201772D01*
Y332677D01*
X162402Y0D02*
X201772D01*
Y51181D01*
X162402D02*
X201772D01*
X162402Y0D02*
Y51181D01*
X336614Y332677D02*
X375984D01*
X336614Y281496D02*
Y332677D01*
Y281496D02*
X375984D01*
Y332677D01*
X336614Y0D02*
X375984D01*
Y51181D01*
X336614D02*
X375984D01*
X336614Y0D02*
Y51181D01*
X282480Y332677D02*
X321850D01*
X282480Y281496D02*
Y332677D01*
Y281496D02*
X321850D01*
Y332677D01*
X282480Y0D02*
X321850D01*
Y51181D01*
X282480D02*
X321850D01*
X282480Y0D02*
Y51181D01*
X211614Y-3347D02*
X272638D01*
X211614D02*
Y68307D01*
X272638D01*
Y-3347D02*
Y68307D01*
M02*
