ISO-10303-21;
HEADER;
FILE_DESCRIPTION (( 'STEP AP214' ),
    '1' );
FILE_NAME ('HSMG-C191.STEP',
    '2023-02-08T01:41:13',
    ( 'ADMIN' ),
    ( '' ),
    'SwSTEP 2.0',
    'SolidWorks 2016',
    '' );
FILE_SCHEMA (( 'AUTOMOTIVE_DESIGN' ));
ENDSEC;

DATA;
#1 = DIRECTION ( 'NONE',  ( -1.000000000000000000, -1.222324245282928100E-016, -0.0000000000000000000 ) ) ;
#2 = CARTESIAN_POINT ( 'NONE',  ( -0.5999999999999998700, 0.4799999999999999800, 0.2999999999999999900 ) ) ;
#3 = EDGE_LOOP ( 'NONE', ( #1266, #1368, #620, #25 ) ) ;
#4 = AXIS2_PLACEMENT_3D ( 'NONE', #471, #366, #1005 ) ;
#5 = DIRECTION ( 'NONE',  ( 1.000000000000000000, -0.0000000000000000000, 0.0000000000000000000 ) ) ;
#6 = COLOUR_RGB ( '',0.9686274509803921600, 0.8784313725490196000, 0.5999999999999999800 ) ;
#7 = FACE_OUTER_BOUND ( 'NONE', #1027, .T. ) ;
#8 = CIRCLE ( 'NONE', #1283, 0.5929241440768355800 ) ;
#9 = EDGE_CURVE ( 'NONE', #808, #1201, #1370, .T. ) ;
#10 = VERTEX_POINT ( 'NONE', #121 ) ;
#11 = VECTOR ( 'NONE', #76, 1000.000000000000000 ) ;
#12 = CLOSED_SHELL ( 'NONE', ( #573, #358, #668, #364, #166, #64 ) ) ;
#13 = ORIENTED_EDGE ( 'NONE', *, *, #151, .F. ) ;
#14 = DIRECTION ( 'NONE',  ( 0.0000000000000000000, 0.0000000000000000000, 1.000000000000000000 ) ) ;
#15 = VERTEX_POINT ( 'NONE', #109 ) ;
#16 = VERTEX_POINT ( 'NONE', #967 ) ;
#17 = LINE ( 'NONE', #457, #572 ) ;
#18 = STYLED_ITEM ( 'NONE', ( #814 ), #1050 ) ;
#19 = VECTOR ( 'NONE', #1049, 1000.000000000000000 ) ;
#20 = EDGE_CURVE ( 'NONE', #808, #1087, #236, .T. ) ;
#21 = EDGE_LOOP ( 'NONE', ( #877, #454, #1181, #538 ) ) ;
#22 = VERTEX_POINT ( 'NONE', #847 ) ;
#23 = AXIS2_PLACEMENT_3D ( 'NONE', #905, #372, #1011 ) ;
#24 = DIRECTION ( 'NONE',  ( -1.210047067506144200E-016, 1.000000000000000000, 0.0000000000000000000 ) ) ;
#25 = ORIENTED_EDGE ( 'NONE', *, *, #113, .F. ) ;
#26 = EDGE_CURVE ( 'NONE', #296, #493, #260, .T. ) ;
#27 = LINE ( 'NONE', #136, #194 ) ;
#28 = LINE ( 'NONE', #650, #876 ) ;
#29 = ORIENTED_EDGE ( 'NONE', *, *, #579, .F. ) ;
#30 = DIRECTION ( 'NONE',  ( 0.0000000000000000000, -1.000000000000000000, -0.0000000000000000000 ) ) ;
#31 = LINE ( 'NONE', #826, #852 ) ;
#32 = DIRECTION ( 'NONE',  ( -1.210047067506144200E-016, 1.000000000000000000, -0.0000000000000000000 ) ) ;
#33 = ORIENTED_EDGE ( 'NONE', *, *, #200, .T. ) ;
#34 = LINE ( 'NONE', #1135, #1142 ) ;
#35 = ORIENTED_EDGE ( 'NONE', *, *, #101, .F. ) ;
#36 = ADVANCED_FACE ( 'NONE', ( #760 ), #613, .F. ) ;
#37 = DIRECTION ( 'NONE',  ( 0.0000000000000000000, -1.000000000000000000, -0.0000000000000000000 ) ) ;
#38 = CLOSED_SHELL ( 'NONE', ( #1206, #153, #999, #148, #374, #1018 ) ) ;
#39 = ORIENTED_EDGE ( 'NONE', *, *, #1022, .F. ) ;
#40 = MECHANICAL_DESIGN_GEOMETRIC_PRESENTATION_REPRESENTATION (  '', ( #1205 ), #125 ) ;
#41 = PLANE ( 'NONE',  #238 ) ;
#42 = EDGE_CURVE ( 'NONE', #1295, #430, #508, .T. ) ;
#43 = ADVANCED_FACE ( 'NONE', ( #1047 ), #532, .F. ) ;
#44 = ORIENTED_EDGE ( 'NONE', *, *, #520, .T. ) ;
#45 = ORIENTED_EDGE ( 'NONE', *, *, #1354, .T. ) ;
#46 = DIRECTION ( 'NONE',  ( -1.000000000000000000, 2.041077998578922300E-016, 0.0000000000000000000 ) ) ;
#47 = CARTESIAN_POINT ( 'NONE',  ( 0.2919601142268621300, 1.000000000000000000, 0.2999999999999999300 ) ) ;
#48 = CARTESIAN_POINT ( 'NONE',  ( -0.4656027761392351700, 0.02099999999999992800, -0.2999999999999999300 ) ) ;
#49 = CARTESIAN_POINT ( 'NONE',  ( -0.1884151312003131400, 0.01999999999999999700, -0.2999999999999999300 ) ) ;
#50 = VECTOR ( 'NONE', #30, 1000.000000000000000 ) ;
#51 = LINE ( 'NONE', #1174, #1153 ) ;
#52 = LINE ( 'NONE', #836, #615 ) ;
#53 = PLANE ( 'NONE',  #1330 ) ;
#54 = DIRECTION ( 'NONE',  ( -1.222324245282928100E-016, 1.000000000000000000, 0.0000000000000000000 ) ) ;
#55 = CARTESIAN_POINT ( 'NONE',  ( -0.4656027761392351700, -0.6409334236568655600, 0.2999999999999999900 ) ) ;
#56 = ADVANCED_FACE ( 'NONE', ( #466 ), #752, .F. ) ;
#57 = DIRECTION ( 'NONE',  ( 1.000000000000000000, 0.0000000000000000000, 0.0000000000000000000 ) ) ;
#58 = ORIENTED_EDGE ( 'NONE', *, *, #469, .F. ) ;
#59 = DIRECTION ( 'NONE',  ( 1.222324245282928100E-016, -1.000000000000000000, -0.0000000000000000000 ) ) ;
#60 = CARTESIAN_POINT ( 'NONE',  ( 0.7800000000000000300, 0.4799999999999999800, 0.2999999999999999900 ) ) ;
#61 = ORIENTED_EDGE ( 'NONE', *, *, #312, .F. ) ;
#62 = PLANE ( 'NONE',  #180 ) ;
#63 = EDGE_CURVE ( 'NONE', #764, #211, #1293, .T. ) ;
#64 = ADVANCED_FACE ( 'NONE', ( #723 ), #1069, .F. ) ;
#65 = CARTESIAN_POINT ( 'NONE',  ( -0.1884151312003131400, 0.02099999999999997700, 0.2999999999999999900 ) ) ;
#66 = DIRECTION ( 'NONE',  ( -0.0000000000000000000, -0.0000000000000000000, -1.000000000000000000 ) ) ;
#67 = VERTEX_POINT ( 'NONE', #427 ) ;
#68 = CARTESIAN_POINT ( 'NONE',  ( 0.7999999999999999300, 0.4999999999999998900, 0.2999999999999999900 ) ) ;
#69 = CYLINDRICAL_SURFACE ( 'NONE', #974, 0.5929241440768355800 ) ;
#70 = CARTESIAN_POINT ( 'NONE',  ( 0.5000000000000000000, -6.123233995736766000E-017, 0.2999999999999999900 ) ) ;
#71 = LINE ( 'NONE', #977, #657 ) ;
#72 = LINE ( 'NONE', #93, #324 ) ;
#73 = DIRECTION ( 'NONE',  ( 1.000000000000000000, -0.0000000000000000000, 0.0000000000000000000 ) ) ;
#74 = DIRECTION ( 'NONE',  ( 1.000000000000000000, 0.0000000000000000000, -0.0000000000000000000 ) ) ;
#75 = CARTESIAN_POINT ( 'NONE',  ( -0.5000000000000000000, -6.123233995736766000E-017, 0.2999999999999999900 ) ) ;
#76 = DIRECTION ( 'NONE',  ( 0.0000000000000000000, -0.0000000000000000000, -1.000000000000000000 ) ) ;
#77 = VERTEX_POINT ( 'NONE', #738 ) ;
#78 = FACE_OUTER_BOUND ( 'NONE', #884, .T. ) ;
#79 = VERTEX_POINT ( 'NONE', #114 ) ;
#80 = ORIENTED_EDGE ( 'NONE', *, *, #736, .T. ) ;
#81 = ORIENTED_EDGE ( 'NONE', *, *, #126, .F. ) ;
#82 = SURFACE_STYLE_USAGE ( .BOTH. , #870 ) ;
#83 = EDGE_CURVE ( 'NONE', #587, #165, #973, .T. ) ;
#84 =( NAMED_UNIT ( * ) PLANE_ANGLE_UNIT ( ) SI_UNIT ( $, .RADIAN. ) );
#85 = SURFACE_STYLE_USAGE ( .BOTH. , #825 ) ;
#86 = CARTESIAN_POINT ( 'NONE',  ( -0.4656027761392351700, 0.01999999999999999700, 0.2999999999999999900 ) ) ;
#87 = DIRECTION ( 'NONE',  ( 0.0000000000000000000, 0.0000000000000000000, 1.000000000000000000 ) ) ;
#88 = DIRECTION ( 'NONE',  ( 0.0000000000000000000, 0.0000000000000000000, 1.000000000000000000 ) ) ;
#89 = PRODUCT_DEFINITION_SHAPE ( 'NONE', 'NONE',  #277 ) ;
#90 = LINE ( 'NONE', #142, #645 ) ;
#91 = AXIS2_PLACEMENT_3D ( 'NONE', #888, #1000, #361 ) ;
#92 = LINE ( 'NONE', #531, #614 ) ;
#93 = CARTESIAN_POINT ( 'NONE',  ( 0.0000000000000000000, -6.123233995736766000E-017, 0.2999999999999999900 ) ) ;
#94 = LINE ( 'NONE', #939, #19 ) ;
#95 = CARTESIAN_POINT ( 'NONE',  ( -0.4656027761392351700, 0.02099999999999992800, 0.2999999999999999900 ) ) ;
#96 = VECTOR ( 'NONE', #722, 1000.000000000000000 ) ;
#97 =( LENGTH_UNIT ( ) NAMED_UNIT ( * ) SI_UNIT ( .MILLI., .METRE. ) );
#98 = CARTESIAN_POINT ( 'NONE',  ( 0.0000000000000000000, 0.4799999999999999800, -2.142281194606295600 ) ) ;
#99 = DIRECTION ( 'NONE',  ( -1.000000000000000000, 0.0000000000000000000, -0.0000000000000000000 ) ) ;
#100 = ORIENTED_EDGE ( 'NONE', *, *, #985, .F. ) ;
#101 = EDGE_CURVE ( 'NONE', #649, #861, #1259, .T. ) ;
#102 = ORIENTED_EDGE ( 'NONE', *, *, #42, .F. ) ;
#103 = UNCERTAINTY_MEASURE_WITH_UNIT (LENGTH_MEASURE( 1.000000000000000100E-005 ), #1254, 'distance_accuracy_value', 'NONE');
#104 =( NAMED_UNIT ( * ) SI_UNIT ( $, .STERADIAN. ) SOLID_ANGLE_UNIT ( ) );
#105 = DIRECTION ( 'NONE',  ( 0.0000000000000000000, 0.0000000000000000000, -1.000000000000000000 ) ) ;
#106 = STYLED_ITEM ( 'NONE', ( #410 ), #444 ) ;
#107 = VERTEX_POINT ( 'NONE', #317 ) ;
#108 =( NAMED_UNIT ( * ) PLANE_ANGLE_UNIT ( ) SI_UNIT ( $, .RADIAN. ) );
#109 = CARTESIAN_POINT ( 'NONE',  ( 0.1499999999999999700, -1.840008740269374800E-016, -0.2999999999999999900 ) ) ;
#110 = VECTOR ( 'NONE', #59, 1000.000000000000000 ) ;
#111 = VECTOR ( 'NONE', #451, 1000.000000000000000 ) ;
#112 = VECTOR ( 'NONE', #306, 1000.000000000000000 ) ;
#113 = EDGE_CURVE ( 'NONE', #79, #858, #129, .T. ) ;
#114 = CARTESIAN_POINT ( 'NONE',  ( -0.7800000000000000300, 0.01999999999999990700, -0.2999999999999999900 ) ) ;
#115 = CARTESIAN_POINT ( 'NONE',  ( -0.1500000000000000200, -0.6708203932499370300, -0.2999999999999999900 ) ) ;
#116 = VERTEX_POINT ( 'NONE', #1066 ) ;
#117 = VECTOR ( 'NONE', #1125, 1000.000000000000000 ) ;
#118 = ORIENTED_EDGE ( 'NONE', *, *, #215, .F. ) ;
#119 = ORIENTED_EDGE ( 'NONE', *, *, #250, .T. ) ;
#120 = VERTEX_POINT ( 'NONE', #845 ) ;
#121 = CARTESIAN_POINT ( 'NONE',  ( -0.1884151312003131400, 0.02000000000000005200, 0.2999999999999999300 ) ) ;
#122 = FILL_AREA_STYLE ('',( #170 ) ) ;
#123 = EDGE_LOOP ( 'NONE', ( #1104, #465, #550, #931 ) ) ;
#124 = ORIENTED_EDGE ( 'NONE', *, *, #594, .F. ) ;
#125 =( GEOMETRIC_REPRESENTATION_CONTEXT ( 3 ) GLOBAL_UNCERTAINTY_ASSIGNED_CONTEXT ( ( #1186 ) ) GLOBAL_UNIT_ASSIGNED_CONTEXT ( ( #1163, #108, #104 ) ) REPRESENTATION_CONTEXT ( 'NONE', 'WORKASPACE' ) );
#126 = EDGE_CURVE ( 'NONE', #416, #455, #683, .T. ) ;
#127 = VECTOR ( 'NONE', #359, 1000.000000000000000 ) ;
#128 = VECTOR ( 'NONE', #1109, 1000.000000000000000 ) ;
#129 = LINE ( 'NONE', #1167, #1217 ) ;
#130 = ORIENTED_EDGE ( 'NONE', *, *, #950, .F. ) ;
#131 = ORIENTED_EDGE ( 'NONE', *, *, #391, .T. ) ;
#132 = CARTESIAN_POINT ( 'NONE',  ( -0.4656027761392351700, 0.01999999999999994500, -0.2999999999999999300 ) ) ;
#133 = EDGE_CURVE ( 'NONE', #662, #1177, #941, .T. ) ;
#134 = CARTESIAN_POINT ( 'NONE',  ( 0.7800000000000000300, 0.01999999999999997300, -0.2999999999999999300 ) ) ;
#135 = ORIENTED_EDGE ( 'NONE', *, *, #436, .F. ) ;
#136 = CARTESIAN_POINT ( 'NONE',  ( -0.1884151312003131400, 0.02000000000000005200, -0.2999999999999999300 ) ) ;
#137 = CARTESIAN_POINT ( 'NONE',  ( 0.7999999999999999300, 0.0000000000000000000, 0.2999999999999999900 ) ) ;
#138 = LINE ( 'NONE', #1032, #1233 ) ;
#139 = LINE ( 'NONE', #60, #1234 ) ;
#140 = ORIENTED_EDGE ( 'NONE', *, *, #411, .T. ) ;
#141 = LINE ( 'NONE', #413, #633 ) ;
#142 = CARTESIAN_POINT ( 'NONE',  ( 0.7800000000000000300, 0.01999999999999990700, -2.142281194606295600 ) ) ;
#143 = ORIENTED_EDGE ( 'NONE', *, *, #1386, .F. ) ;
#144 = ORIENTED_EDGE ( 'NONE', *, *, #1086, .T. ) ;
#145 = ORIENTED_EDGE ( 'NONE', *, *, #751, .F. ) ;
#146 = AXIS2_PLACEMENT_3D ( 'NONE', #266, #1108, #46 ) ;
#147 = CARTESIAN_POINT ( 'NONE',  ( 0.5999999999999998700, 0.0000000000000000000, -0.2999999999999999900 ) ) ;
#148 = ADVANCED_FACE ( 'NONE', ( #1274 ), #1060, .F. ) ;
#149 = PLANE ( 'NONE',  #1326 ) ;
#150 = ORIENTED_EDGE ( 'NONE', *, *, #505, .T. ) ;
#151 = EDGE_CURVE ( 'NONE', #1087, #662, #426, .T. ) ;
#152 = FACE_OUTER_BOUND ( 'NONE', #1324, .T. ) ;
#153 = ADVANCED_FACE ( 'NONE', ( #958 ), #734, .F. ) ;
#154 = PLANE ( 'NONE',  #91 ) ;
#155 = FACE_OUTER_BOUND ( 'NONE', #432, .T. ) ;
#156 = PLANE ( 'NONE',  #146 ) ;
#157 = DIRECTION ( 'NONE',  ( -0.0000000000000000000, -0.0000000000000000000, -1.000000000000000000 ) ) ;
#158 = AXIS2_PLACEMENT_3D ( 'NONE', #1331, #689, #57 ) ;
#159 = ORIENTED_EDGE ( 'NONE', *, *, #239, .F. ) ;
#160 = DIRECTION ( 'NONE',  ( 0.0000000000000000000, -1.000000000000000000, -0.0000000000000000000 ) ) ;
#161 = ORIENTED_EDGE ( 'NONE', *, *, #544, .T. ) ;
#162 = FACE_OUTER_BOUND ( 'NONE', #856, .T. ) ;
#163 = CARTESIAN_POINT ( 'NONE',  ( -0.4656027761392351700, 0.0000000000000000000, 0.2999999999999999900 ) ) ;
#164 = ORIENTED_EDGE ( 'NONE', *, *, #567, .T. ) ;
#165 = VERTEX_POINT ( 'NONE', #622 ) ;
#166 = ADVANCED_FACE ( 'NONE', ( #702 ), #1159, .F. ) ;
#167 = DIRECTION ( 'NONE',  ( 0.0000000000000000000, 1.000000000000000000, 0.0000000000000000000 ) ) ;
#168 = CARTESIAN_POINT ( 'NONE',  ( -0.1500000000000000800, -1.326700699076299200E-016, 0.2999999999999999900 ) ) ;
#169 = EDGE_CURVE ( 'NONE', #1307, #357, #388, .T. ) ;
#170 = FILL_AREA_STYLE_COLOUR ( '', #6 ) ;
#171 = FILL_AREA_STYLE ('',( #1356 ) ) ;
#172 = DIRECTION ( 'NONE',  ( 0.0000000000000000000, 0.0000000000000000000, 1.000000000000000000 ) ) ;
#173 = ORIENTED_EDGE ( 'NONE', *, *, #422, .T. ) ;
#174 = ADVANCED_FACE ( 'NONE', ( #1236 ), #418, .T. ) ;
#175 = CARTESIAN_POINT ( 'NONE',  ( -0.7800000000000000300, 0.0000000000000000000, 0.2999999999999999900 ) ) ;
#176 = VECTOR ( 'NONE', #680, 1000.000000000000000 ) ;
#177 = VECTOR ( 'NONE', #923, 1000.000000000000000 ) ;
#178 = VECTOR ( 'NONE', #1121, 1000.000000000000000 ) ;
#179 = CARTESIAN_POINT ( 'NONE',  ( 0.1500000000000000200, 0.01999999999999994500, 0.2999999999999999900 ) ) ;
#180 = AXIS2_PLACEMENT_3D ( 'NONE', #1116, #793, #54 ) ;
#181 = CARTESIAN_POINT ( 'NONE',  ( -0.1500000000000000200, -1.144826804133203200E-016, -0.2999999999999999900 ) ) ;
#182 = VECTOR ( 'NONE', #953, 1000.000000000000000 ) ;
#183 = PLANE ( 'NONE',  #727 ) ;
#184 = VERTEX_POINT ( 'NONE', #729 ) ;
#185 = EDGE_LOOP ( 'NONE', ( #251, #130, #237, #1334 ) ) ;
#186 = ORIENTED_EDGE ( 'NONE', *, *, #1299, .T. ) ;
#187 = EDGE_CURVE ( 'NONE', #430, #952, #141, .T. ) ;
#188 = ORIENTED_EDGE ( 'NONE', *, *, #1001, .F. ) ;
#189 = CARTESIAN_POINT ( 'NONE',  ( -0.7800000000000000300, 0.4799999999999999800, -2.142281194606295600 ) ) ;
#190 = DIRECTION ( 'NONE',  ( 0.0000000000000000000, 1.000000000000000000, 0.0000000000000000000 ) ) ;
#191 = AXIS2_PLACEMENT_3D ( 'NONE', #817, #399, #1035 ) ;
#192 = ORIENTED_EDGE ( 'NONE', *, *, #1248, .F. ) ;
#193 = CARTESIAN_POINT ( 'NONE',  ( 0.0000000000000000000, 0.0000000000000000000, -0.2999999999999999900 ) ) ;
#194 = VECTOR ( 'NONE', #14, 1000.000000000000000 ) ;
#195 = VECTOR ( 'NONE', #403, 1000.000000000000000 ) ;
#196 = VECTOR ( 'NONE', #1345, 1000.000000000000000 ) ;
#197 = CARTESIAN_POINT ( 'NONE',  ( 0.1499999999999999400, -0.6708203932499370300, -0.2999999999999999900 ) ) ;
#198 = DIRECTION ( 'NONE',  ( -1.000000000000000000, 0.0000000000000000000, -0.0000000000000000000 ) ) ;
#199 = CARTESIAN_POINT ( 'NONE',  ( -0.7999999999999999300, 0.0000000000000000000, 0.2999999999999999900 ) ) ;
#200 = EDGE_CURVE ( 'NONE', #227, #649, #1197, .T. ) ;
#201 = PRODUCT_CONTEXT ( 'NONE', #1043, 'mechanical' ) ;
#202 = ORIENTED_EDGE ( 'NONE', *, *, #1101, .F. ) ;
#203 = VECTOR ( 'NONE', #1, 1000.000000000000000 ) ;
#204 = ORIENTED_EDGE ( 'NONE', *, *, #1151, .T. ) ;
#205 = CARTESIAN_POINT ( 'NONE',  ( -0.1884151312003131400, 0.02099999999999997700, 0.0000000000000000000 ) ) ;
#206 = CARTESIAN_POINT ( 'NONE',  ( -0.5000000000000000000, 0.01999999999999993100, -0.2999999999999999900 ) ) ;
#207 = UNCERTAINTY_MEASURE_WITH_UNIT (LENGTH_MEASURE( 1.000000000000000100E-005 ), #711, 'distance_accuracy_value', 'NONE');
#208 = DIRECTION ( 'NONE',  ( 0.0000000000000000000, 0.0000000000000000000, 1.000000000000000000 ) ) ;
#209 = DIRECTION ( 'NONE',  ( -1.210047067506144200E-016, 1.000000000000000000, 0.0000000000000000000 ) ) ;
#210 = CARTESIAN_POINT ( 'NONE',  ( 0.7800000000000000300, 0.0000000000000000000, 0.2999999999999999900 ) ) ;
#211 = VERTEX_POINT ( 'NONE', #1376 ) ;
#212 = LINE ( 'NONE', #1111, #176 ) ;
#213 = AXIS2_PLACEMENT_3D ( 'NONE', #400, #88, #828 ) ;
#214 = CARTESIAN_POINT ( 'NONE',  ( -0.4656027761392351700, 0.02099999999999994600, 0.2999999999999999900 ) ) ;
#215 = EDGE_CURVE ( 'NONE', #120, #1037, #1173, .T. ) ;
#216 = CARTESIAN_POINT ( 'NONE',  ( 0.0000000000000000000, 0.4799999999999999800, -0.2999999999999999300 ) ) ;
#217 = VECTOR ( 'NONE', #807, 1000.000000000000000 ) ;
#218 = DIRECTION ( 'NONE',  ( 0.0000000000000000000, 0.0000000000000000000, -1.000000000000000000 ) ) ;
#219 = VECTOR ( 'NONE', #1344, 1000.000000000000000 ) ;
#220 = CARTESIAN_POINT ( 'NONE',  ( 0.0000000000000000000, 0.0000000000000000000, 0.2999999999999999900 ) ) ;
#221 = DIRECTION ( 'NONE',  ( 1.000000000000000000, -0.0000000000000000000, 0.0000000000000000000 ) ) ;
#222 = DIRECTION ( 'NONE',  ( 0.0000000000000000000, 0.0000000000000000000, 1.000000000000000000 ) ) ;
#223 = ORIENTED_EDGE ( 'NONE', *, *, #567, .F. ) ;
#224 = AXIS2_PLACEMENT_3D ( 'NONE', #220, #105, #951 ) ;
#225 = EDGE_LOOP ( 'NONE', ( #313, #1359, #393, #470 ) ) ;
#226 = EDGE_LOOP ( 'NONE', ( #713, #509, #663, #528 ) ) ;
#227 = VERTEX_POINT ( 'NONE', #409 ) ;
#228 = DIRECTION ( 'NONE',  ( 1.000000000000000000, 1.129377263005734100E-016, 0.0000000000000000000 ) ) ;
#229 = CARTESIAN_POINT ( 'NONE',  ( -0.7999999999999999300, 0.4999999999999998900, 0.2999999999999999900 ) ) ;
#230 = ORIENTED_EDGE ( 'NONE', *, *, #982, .T. ) ;
#231 = COLOUR_RGB ( '',1.000000000000000000, 1.000000000000000000, 1.000000000000000000 ) ;
#232 = LINE ( 'NONE', #383, #1042 ) ;
#233 = EDGE_CURVE ( 'NONE', #352, #488, #72, .T. ) ;
#234 = DIRECTION ( 'NONE',  ( 1.000000000000000000, 0.0000000000000000000, 0.0000000000000000000 ) ) ;
#235 = ORIENTED_EDGE ( 'NONE', *, *, #965, .T. ) ;
#236 = LINE ( 'NONE', #626, #1323 ) ;
#237 = ORIENTED_EDGE ( 'NONE', *, *, #880, .T. ) ;
#238 = AXIS2_PLACEMENT_3D ( 'NONE', #264, #570, #1328 ) ;
#239 = EDGE_CURVE ( 'NONE', #1201, #1064, #593, .T. ) ;
#240 = FACE_OUTER_BOUND ( 'NONE', #3, .T. ) ;
#241 = VECTOR ( 'NONE', #279, 1000.000000000000000 ) ;
#242 = LINE ( 'NONE', #1034, #1342 ) ;
#243 = CARTESIAN_POINT ( 'NONE',  ( 0.7999999999999999300, 0.4999999999999998900, -0.2999999999999999900 ) ) ;
#244 = ORIENTED_EDGE ( 'NONE', *, *, #1373, .T. ) ;
#245 = ORIENTED_EDGE ( 'NONE', *, *, #1225, .T. ) ;
#246 = PRESENTATION_LAYER_ASSIGNMENT (  '', '', ( #106 ) ) ;
#247 = ORIENTED_EDGE ( 'NONE', *, *, #594, .T. ) ;
#248 = DIRECTION ( 'NONE',  ( 0.0000000000000000000, 1.000000000000000000, 0.0000000000000000000 ) ) ;
#249 = EDGE_CURVE ( 'NONE', #1002, #1141, #31, .T. ) ;
#250 = EDGE_CURVE ( 'NONE', #858, #1307, #916, .T. ) ;
#251 = ORIENTED_EDGE ( 'NONE', *, *, #1305, .F. ) ;
#252 = CARTESIAN_POINT ( 'NONE',  ( 0.0000000000000000000, 0.4799999999999999800, -0.2999999999999999300 ) ) ;
#253 = VERTEX_POINT ( 'NONE', #1251 ) ;
#254 = DIRECTION ( 'NONE',  ( 0.0000000000000000000, -1.000000000000000000, -0.0000000000000000000 ) ) ;
#255 = VECTOR ( 'NONE', #1369, 1000.000000000000000 ) ;
#256 = LINE ( 'NONE', #389, #1074 ) ;
#257 = CARTESIAN_POINT ( 'NONE',  ( -2.566880915094149100E-018, 0.02100000000000000100, -0.2999999999999999300 ) ) ;
#258 = EDGE_LOOP ( 'NONE', ( #759, #842, #124, #919 ) ) ;
#259 = COLOUR_RGB ( '',0.9686274509803921600, 0.8784313725490196000, 0.5999999999999999800 ) ;
#260 = LINE ( 'NONE', #1165, #784 ) ;
#261 = ADVANCED_FACE ( 'NONE', ( #1100 ), #1041, .F. ) ;
#262 = VERTEX_POINT ( 'NONE', #86 ) ;
#263 = EDGE_LOOP ( 'NONE', ( #440, #1348, #524, #13 ) ) ;
#264 = CARTESIAN_POINT ( 'NONE',  ( -0.5000000000000000000, 0.01999999999999994100, 0.2999999999999999900 ) ) ;
#265 = EDGE_CURVE ( 'NONE', #952, #77, #8, .T. ) ;
#266 = CARTESIAN_POINT ( 'NONE',  ( -0.5000000000000000000, -6.123233995736766000E-017, 0.2999999999999999900 ) ) ;
#267 = DIRECTION ( 'NONE',  ( -1.222324245282928100E-016, 1.000000000000000000, 0.0000000000000000000 ) ) ;
#268 = ADVANCED_FACE ( 'NONE', ( #1137 ), #1364, .T. ) ;
#269 = EDGE_LOOP ( 'NONE', ( #1006, #754, #1278, #1180, #733, #525, #1067, #637 ) ) ;
#270 = VECTOR ( 'NONE', #669, 1000.000000000000000 ) ;
#271 = VECTOR ( 'NONE', #1257, 1000.000000000000000 ) ;
#272 = CARTESIAN_POINT ( 'NONE',  ( 0.5000000000000000000, -6.110935607983864900E-017, -0.2999999999999999900 ) ) ;
#273 = FACE_OUTER_BOUND ( 'NONE', #123, .T. ) ;
#274 = ADVANCED_FACE ( 'NONE', ( #557 ), #600, .F. ) ;
#275 = CARTESIAN_POINT ( 'NONE',  ( -0.4656027761392351700, -0.6409334236568655600, -0.2999999999999998800 ) ) ;
#276 = DIRECTION ( 'NONE',  ( -1.000000000000000000, -0.0000000000000000000, 0.0000000000000000000 ) ) ;
#277 = PRODUCT_DEFINITION ( 'UNKNOWN', '', #341, #678 ) ;
#278 = CARTESIAN_POINT ( 'NONE',  ( 0.1500000000000000200, -0.6708203932499370300, -0.2999999999999999900 ) ) ;
#279 = DIRECTION ( 'NONE',  ( 0.0000000000000000000, 0.0000000000000000000, -1.000000000000000000 ) ) ;
#280 = EDGE_CURVE ( 'NONE', #608, #120, #1366, .T. ) ;
#281 = VERTEX_POINT ( 'NONE', #1242 ) ;
#282 = ORIENTED_EDGE ( 'NONE', *, *, #623, .F. ) ;
#283 = CARTESIAN_POINT ( 'NONE',  ( 0.5000000000000000000, 0.01999999999999993100, 0.2999999999999999900 ) ) ;
#284 = DIRECTION ( 'NONE',  ( -1.000000000000000000, 0.0000000000000000000, 0.0000000000000000000 ) ) ;
#285 = CARTESIAN_POINT ( 'NONE',  ( 0.5999999999999998700, 0.4999999999999998900, -0.2999999999999999900 ) ) ;
#286 = ORIENTED_EDGE ( 'NONE', *, *, #505, .F. ) ;
#287 = LINE ( 'NONE', #994, #674 ) ;
#288 = VECTOR ( 'NONE', #1296, 1000.000000000000000 ) ;
#289 = CARTESIAN_POINT ( 'NONE',  ( -0.4656027761392352300, 0.01999999999999994500, -0.2999999999999999300 ) ) ;
#290 = AXIS2_PLACEMENT_3D ( 'NONE', #676, #343, #979 ) ;
#291 = VECTOR ( 'NONE', #503, 1000.000000000000000 ) ;
#292 = CARTESIAN_POINT ( 'NONE',  ( 0.1499999999999999400, 0.02000000000000003500, -0.2999999999999999900 ) ) ;
#293 = ORIENTED_EDGE ( 'NONE', *, *, #1315, .T. ) ;
#294 = EDGE_LOOP ( 'NONE', ( #131, #45, #942, #298 ) ) ;
#295 = DIRECTION ( 'NONE',  ( 0.0000000000000000000, -1.000000000000000000, 0.0000000000000000000 ) ) ;
#296 = VERTEX_POINT ( 'NONE', #592 ) ;
#297 = EDGE_CURVE ( 'NONE', #404, #211, #781, .T. ) ;
#298 = ORIENTED_EDGE ( 'NONE', *, *, #771, .T. ) ;
#299 = FILL_AREA_STYLE ('',( #1261 ) ) ;
#300 = DIRECTION ( 'NONE',  ( 1.000000000000000000, 0.0000000000000000000, -0.0000000000000000000 ) ) ;
#301 = DIRECTION ( 'NONE',  ( -1.000000000000000000, 0.0000000000000000000, 0.0000000000000000000 ) ) ;
#302 = APPLICATION_PROTOCOL_DEFINITION ( 'draft international standard', 'automotive_design', 1998, #936 ) ;
#303 = ORIENTED_EDGE ( 'NONE', *, *, #551, .F. ) ;
#304 = STYLED_ITEM ( 'NONE', ( #978 ), #1290 ) ;
#305 = CARTESIAN_POINT ( 'NONE',  ( -0.4656027761392351700, 0.0000000000000000000, -0.2999999999999999900 ) ) ;
#306 = DIRECTION ( 'NONE',  ( -0.0000000000000000000, 0.0000000000000000000, 1.000000000000000000 ) ) ;
#307 = CARTESIAN_POINT ( 'NONE',  ( 0.7800000000000000300, 0.0000000000000000000, -2.142281194606295600 ) ) ;
#308 = VECTOR ( 'NONE', #1099, 1000.000000000000000 ) ;
#309 = LINE ( 'NONE', #1156, #1114 ) ;
#310 = DIRECTION ( 'NONE',  ( -1.000000000000000000, -1.210047067506144200E-016, 0.0000000000000000000 ) ) ;
#311 = CARTESIAN_POINT ( 'NONE',  ( 0.7999999999999999300, 0.4999999999999998900, 0.2999999999999999900 ) ) ;
#312 = EDGE_CURVE ( 'NONE', #1351, #67, #256, .T. ) ;
#313 = ORIENTED_EDGE ( 'NONE', *, *, #880, .F. ) ;
#314 = DIRECTION ( 'NONE',  ( 0.0000000000000000000, 0.0000000000000000000, 1.000000000000000000 ) ) ;
#315 = DIRECTION ( 'NONE',  ( -0.0000000000000000000, -0.0000000000000000000, 1.000000000000000000 ) ) ;
#316 = MECHANICAL_DESIGN_GEOMETRIC_PRESENTATION_REPRESENTATION (  '', ( #106 ), #382 ) ;
#317 = CARTESIAN_POINT ( 'NONE',  ( -0.4656027761392351700, 0.02099999999999994600, -0.2999999999999999300 ) ) ;
#318 = ORIENTED_EDGE ( 'NONE', *, *, #860, .T. ) ;
#319 = EDGE_CURVE ( 'NONE', #638, #281, #232, .T. ) ;
#320 = CARTESIAN_POINT ( 'NONE',  ( -2.258754526011468600E-018, 0.02000000000000000000, 0.0000000000000000000 ) ) ;
#321 = LINE ( 'NONE', #482, #589 ) ;
#322 = CARTESIAN_POINT ( 'NONE',  ( 0.7800000000000000300, 0.4799999999999999800, -0.2999999999999999900 ) ) ;
#323 = LINE ( 'NONE', #132, #288 ) ;
#324 = VECTOR ( 'NONE', #300, 1000.000000000000000 ) ;
#325 = DIRECTION ( 'NONE',  ( 0.0000000000000000000, -1.000000000000000000, 0.0000000000000000000 ) ) ;
#326 = ORIENTED_EDGE ( 'NONE', *, *, #1164, .T. ) ;
#327 = LINE ( 'NONE', #809, #855 ) ;
#328 = CLOSED_SHELL ( 'NONE', ( #684, #459, #56, #261, #790, #1106, #992, #174, #797, #1110, #890, #693, #672, #1119 ) ) ;
#329 = VERTEX_POINT ( 'NONE', #806 ) ;
#330 = VERTEX_POINT ( 'NONE', #181 ) ;
#331 = AXIS2_PLACEMENT_3D ( 'NONE', #625, #222, #1168 ) ;
#332 = ORIENTED_EDGE ( 'NONE', *, *, #1129, .T. ) ;
#333 = EDGE_CURVE ( 'NONE', #296, #1291, #816, .T. ) ;
#334 = VERTEX_POINT ( 'NONE', #698 ) ;
#335 = LINE ( 'NONE', #147, #862 ) ;
#336 = COLOUR_RGB ( '',0.9686274509803921600, 0.8784313725490196000, 0.5999999999999999800 ) ;
#337 = CYLINDRICAL_SURFACE ( 'NONE', #331, 0.5929241440768355800 ) ;
#338 = ADVANCED_BREP_SHAPE_REPRESENTATION ( 'HSMG-C191', ( #686, #1290, #444, #1050, #788, #213 ), #944 ) ;
#339 = EDGE_LOOP ( 'NONE', ( #247, #971, #922, #564 ) ) ;
#340 = DIRECTION ( 'NONE',  ( -0.0000000000000000000, -1.000000000000000000, 0.0000000000000000000 ) ) ;
#341 = PRODUCT_DEFINITION_FORMATION_WITH_SPECIFIED_SOURCE ( 'ANY', '', #661, .NOT_KNOWN. ) ;
#342 = EDGE_CURVE ( 'NONE', #664, #184, #756, .T. ) ;
#343 = DIRECTION ( 'NONE',  ( 1.000000000000000000, -0.0000000000000000000, 0.0000000000000000000 ) ) ;
#344 = DIRECTION ( 'NONE',  ( 0.0000000000000000000, -0.0000000000000000000, -1.000000000000000000 ) ) ;
#345 = ORIENTED_EDGE ( 'NONE', *, *, #751, .T. ) ;
#346 = AXIS2_PLACEMENT_3D ( 'NONE', #229, #325, #966 ) ;
#347 = LINE ( 'NONE', #380, #479 ) ;
#348 = VECTOR ( 'NONE', #474, 1000.000000000000000 ) ;
#349 = LINE ( 'NONE', #1192, #111 ) ;
#350 = DIRECTION ( 'NONE',  ( -1.000000000000000000, 0.0000000000000000000, -0.0000000000000000000 ) ) ;
#351 = VECTOR ( 'NONE', #1048, 1000.000000000000000 ) ;
#352 = VERTEX_POINT ( 'NONE', #1016 ) ;
#353 = FACE_OUTER_BOUND ( 'NONE', #1160, .T. ) ;
#354 = ORIENTED_EDGE ( 'NONE', *, *, #1317, .F. ) ;
#355 = CARTESIAN_POINT ( 'NONE',  ( -0.4656027761392351700, 0.02099999999999994600, 0.2999999999999999900 ) ) ;
#356 = ORIENTED_EDGE ( 'NONE', *, *, #1232, .F. ) ;
#357 = VERTEX_POINT ( 'NONE', #1229 ) ;
#358 = ADVANCED_FACE ( 'NONE', ( #1289 ), #483, .F. ) ;
#359 = DIRECTION ( 'NONE',  ( 1.000000000000000000, 1.222324245282928100E-016, 0.0000000000000000000 ) ) ;
#360 = EDGE_CURVE ( 'NONE', #1177, #1280, #438, .T. ) ;
#361 = DIRECTION ( 'NONE',  ( 1.000000000000000000, 0.0000000000000000000, -0.0000000000000000000 ) ) ;
#362 = LINE ( 'NONE', #1092, #1183 ) ;
#363 = VECTOR ( 'NONE', #315, 1000.000000000000000 ) ;
#364 = ADVANCED_FACE ( 'NONE', ( #1255 ), #1339, .F. ) ;
#365 = COLOUR_RGB ( '',0.9686274509803921600, 0.8784313725490196000, 0.5999999999999999800 ) ;
#366 = DIRECTION ( 'NONE',  ( 2.041077998578922300E-016, 1.000000000000000000, -0.0000000000000000000 ) ) ;
#367 = PRESENTATION_LAYER_ASSIGNMENT (  '', '', ( #304 ) ) ;
#368 = CARTESIAN_POINT ( 'NONE',  ( -0.7800000000000000300, 0.01999999999999990700, 0.2999999999999999900 ) ) ;
#369 = DIRECTION ( 'NONE',  ( -0.0000000000000000000, -0.0000000000000000000, -1.000000000000000000 ) ) ;
#370 = PLANE ( 'NONE',  #1241 ) ;
#371 = EDGE_LOOP ( 'NONE', ( #820, #902, #1131, #100 ) ) ;
#372 = DIRECTION ( 'NONE',  ( 0.0000000000000000000, 0.0000000000000000000, -1.000000000000000000 ) ) ;
#373 = CARTESIAN_POINT ( 'NONE',  ( 0.0000000000000000000, 0.4999999999999998900, -0.2999999999999999900 ) ) ;
#374 = ADVANCED_FACE ( 'NONE', ( #155 ), #62, .F. ) ;
#375 = CARTESIAN_POINT ( 'NONE',  ( -0.7800000000000000300, 0.4799999999999999800, 0.2999999999999999300 ) ) ;
#376 = EDGE_CURVE ( 'NONE', #773, #541, #675, .T. ) ;
#377 = CARTESIAN_POINT ( 'NONE',  ( -2.420094135012289200E-018, 0.02000000000000000000, -2.142281194606295600 ) ) ;
#378 = DIRECTION ( 'NONE',  ( 0.0000000000000000000, 1.000000000000000000, 0.0000000000000000000 ) ) ;
#379 = DIRECTION ( 'NONE',  ( -1.000000000000000000, -0.0000000000000000000, 0.0000000000000000000 ) ) ;
#380 = CARTESIAN_POINT ( 'NONE',  ( -0.5000000000000000000, -6.123233995736766000E-017, 0.2999999999999999900 ) ) ;
#381 = EDGE_LOOP ( 'NONE', ( #173, #144, #188, #1143 ) ) ;
#382 =( GEOMETRIC_REPRESENTATION_CONTEXT ( 3 ) GLOBAL_UNCERTAINTY_ASSIGNED_CONTEXT ( ( #207 ) ) GLOBAL_UNIT_ASSIGNED_CONTEXT ( ( #711, #1363, #597 ) ) REPRESENTATION_CONTEXT ( 'NONE', 'WORKASPACE' ) );
#383 = CARTESIAN_POINT ( 'NONE',  ( 0.7800000000000000300, 0.0000000000000000000, -0.2999999999999999300 ) ) ;
#384 = DIRECTION ( 'NONE',  ( 0.0000000000000000000, 0.0000000000000000000, 1.000000000000000000 ) ) ;
#385 = VECTOR ( 'NONE', #1346, 1000.000000000000000 ) ;
#386 = DIRECTION ( 'NONE',  ( 1.000000000000000000, -1.210047067506144200E-016, 0.0000000000000000000 ) ) ;
#387 = VECTOR ( 'NONE', #1214, 1000.000000000000000 ) ;
#388 = LINE ( 'NONE', #1380, #660 ) ;
#389 = CARTESIAN_POINT ( 'NONE',  ( -0.1884151312003131400, 0.01999999999999998000, -2.142281194606295600 ) ) ;
#390 = CARTESIAN_POINT ( 'NONE',  ( -0.5999999999999998700, 0.4999999999999998900, 0.2999999999999999900 ) ) ;
#391 = EDGE_CURVE ( 'NONE', #330, #563, #1320, .T. ) ;
#392 = DIRECTION ( 'NONE',  ( -1.000000000000000000, -2.041077998578922300E-016, 0.0000000000000000000 ) ) ;
#393 = ORIENTED_EDGE ( 'NONE', *, *, #720, .F. ) ;
#394 = LINE ( 'NONE', #1347, #117 ) ;
#395 = ORIENTED_EDGE ( 'NONE', *, *, #934, .F. ) ;
#396 = EDGE_LOOP ( 'NONE', ( #356, #159, #1085, #599 ) ) ;
#397 = ORIENTED_EDGE ( 'NONE', *, *, #1386, .T. ) ;
#398 = CARTESIAN_POINT ( 'NONE',  ( -2.420094135012289200E-018, 0.02000000000000000000, -2.142281194606295600 ) ) ;
#399 = DIRECTION ( 'NONE',  ( 0.0000000000000000000, 0.0000000000000000000, -1.000000000000000000 ) ) ;
#400 = CARTESIAN_POINT ( 'NONE',  ( 0.0000000000000000000, 0.0000000000000000000, 0.0000000000000000000 ) ) ;
#401 = PRESENTATION_LAYER_ASSIGNMENT (  '', '', ( #18 ) ) ;
#402 = ORIENTED_EDGE ( 'NONE', *, *, #1112, .F. ) ;
#403 = DIRECTION ( 'NONE',  ( -1.000000000000000000, -1.210047067506144200E-016, 0.0000000000000000000 ) ) ;
#404 = VERTEX_POINT ( 'NONE', #1329 ) ;
#405 = FILL_AREA_STYLE ('',( #1249 ) ) ;
#406 = FACE_OUTER_BOUND ( 'NONE', #225, .T. ) ;
#407 = DIRECTION ( 'NONE',  ( 1.000000000000000000, 0.0000000000000000000, -0.0000000000000000000 ) ) ;
#408 = AXIS2_PLACEMENT_3D ( 'NONE', #307, #1393, #218 ) ;
#409 = CARTESIAN_POINT ( 'NONE',  ( -0.1884151312003131400, 0.02099999999999997400, -0.2999999999999999300 ) ) ;
#410 = PRESENTATION_STYLE_ASSIGNMENT (( #82 ) ) ;
#411 = EDGE_CURVE ( 'NONE', #553, #79, #938, .T. ) ;
#412 = VECTOR ( 'NONE', #629, 1000.000000000000000 ) ;
#413 = CARTESIAN_POINT ( 'NONE',  ( 0.5999999999999998700, 0.4800000000000000400, -2.142281194606295600 ) ) ;
#414 = DIRECTION ( 'NONE',  ( 0.0000000000000000000, 0.0000000000000000000, 1.000000000000000000 ) ) ;
#415 = ORIENTED_EDGE ( 'NONE', *, *, #720, .T. ) ;
#416 = VERTEX_POINT ( 'NONE', #417 ) ;
#417 = CARTESIAN_POINT ( 'NONE',  ( 0.7800000000000000300, 0.01999999999999990700, -0.2999999999999999900 ) ) ;
#418 = PLANE ( 'NONE',  #1199 ) ;
#419 = PRODUCT_RELATED_PRODUCT_CATEGORY ( 'part', '', ( #661 ) ) ;
#420 = CARTESIAN_POINT ( 'NONE',  ( 0.0000000000000000000, 0.0000000000000000000, 0.2999999999999999900 ) ) ;
#421 = ORIENTED_EDGE ( 'NONE', *, *, #1065, .F. ) ;
#422 = EDGE_CURVE ( 'NONE', #563, #116, #1211, .T. ) ;
#423 = DIRECTION ( 'NONE',  ( 1.000000000000000000, 0.0000000000000000000, 0.0000000000000000000 ) ) ;
#424 = LINE ( 'NONE', #373, #177 ) ;
#425 = LINE ( 'NONE', #904, #450 ) ;
#426 = LINE ( 'NONE', #216, #984 ) ;
#427 = CARTESIAN_POINT ( 'NONE',  ( -0.1884151312003131400, 0.01999999999999998000, 0.2999999999999999300 ) ) ;
#428 = ORIENTED_EDGE ( 'NONE', *, *, #1179, .T. ) ;
#429 = ORIENTED_EDGE ( 'NONE', *, *, #297, .F. ) ;
#430 = VERTEX_POINT ( 'NONE', #1385 ) ;
#431 = CARTESIAN_POINT ( 'NONE',  ( -2.566880915094149100E-018, 0.02100000000000000100, 0.2999999999999999900 ) ) ;
#432 = EDGE_LOOP ( 'NONE', ( #883, #596, #1258, #1089 ) ) ;
#433 = AXIS2_PLACEMENT_3D ( 'NONE', #763, #1270, #838 ) ;
#434 = CLOSED_SHELL ( 'NONE', ( #1327, #274, #473, #1213, #1335, #581, #1319, #467, #1008, #899 ) ) ;
#435 = ORIENTED_EDGE ( 'NONE', *, *, #26, .T. ) ;
#436 = EDGE_CURVE ( 'NONE', #488, #329, #970, .T. ) ;
#437 = LINE ( 'NONE', #677, #1253 ) ;
#438 = LINE ( 'NONE', #576, #719 ) ;
#439 = CARTESIAN_POINT ( 'NONE',  ( 0.007075855923164228900, 0.4800000000000000400, 0.2999999999999999300 ) ) ;
#440 = ORIENTED_EDGE ( 'NONE', *, *, #1332, .T. ) ;
#441 = VECTOR ( 'NONE', #1276, 1000.000000000000000 ) ;
#442 = ORIENTED_EDGE ( 'NONE', *, *, #1194, .T. ) ;
#443 = MECHANICAL_DESIGN_GEOMETRIC_PRESENTATION_REPRESENTATION (  '', ( #304 ), #512 ) ;
#444 = MANIFOLD_SOLID_BREP ( 'Boss-Extrude3', #12 ) ;
#445 = EDGE_CURVE ( 'NONE', #15, #1390, #1083, .T. ) ;
#446 = DIRECTION ( 'NONE',  ( 1.000000000000000000, 0.0000000000000000000, -0.0000000000000000000 ) ) ;
#447 = ORIENTED_EDGE ( 'NONE', *, *, #844, .T. ) ;
#448 = SURFACE_STYLE_FILL_AREA ( #795 ) ;
#449 = VECTOR ( 'NONE', #892, 1000.000000000000000 ) ;
#450 = VECTOR ( 'NONE', #691, 1000.000000000000000 ) ;
#451 = DIRECTION ( 'NONE',  ( -0.0000000000000000000, -1.000000000000000000, -0.0000000000000000000 ) ) ;
#452 = ORIENTED_EDGE ( 'NONE', *, *, #644, .F. ) ;
#453 = EDGE_LOOP ( 'NONE', ( #58, #230, #1093, #490 ) ) ;
#454 = ORIENTED_EDGE ( 'NONE', *, *, #832, .F. ) ;
#455 = VERTEX_POINT ( 'NONE', #498 ) ;
#456 = EDGE_CURVE ( 'NONE', #107, #664, #242, .T. ) ;
#457 = CARTESIAN_POINT ( 'NONE',  ( 0.0000000000000000000, -6.123233995736766000E-017, -0.2999999999999999900 ) ) ;
#458 = VERTEX_POINT ( 'NONE', #289 ) ;
#459 = ADVANCED_FACE ( 'NONE', ( #1383 ), #1040, .F. ) ;
#460 = MECHANICAL_DESIGN_GEOMETRIC_PRESENTATION_REPRESENTATION (  '', ( #18 ), #537 ) ;
#461 = PRESENTATION_STYLE_ASSIGNMENT (( #85 ) ) ;
#462 = CARTESIAN_POINT ( 'NONE',  ( -2.566880915094149100E-018, 0.02100000000000000100, 0.0000000000000000000 ) ) ;
#463 = VECTOR ( 'NONE', #1215, 1000.000000000000000 ) ;
#464 = CARTESIAN_POINT ( 'NONE',  ( -0.7800000000000000300, 0.4799999999999999800, -0.2999999999999999300 ) ) ;
#465 = ORIENTED_EDGE ( 'NONE', *, *, #813, .F. ) ;
#466 = FACE_OUTER_BOUND ( 'NONE', #778, .T. ) ;
#467 = ADVANCED_FACE ( 'NONE', ( #1058 ), #1132, .F. ) ;
#468 = ORIENTED_EDGE ( 'NONE', *, *, #1079, .T. ) ;
#469 = EDGE_CURVE ( 'NONE', #881, #1177, #519, .T. ) ;
#470 = ORIENTED_EDGE ( 'NONE', *, *, #1129, .F. ) ;
#471 = CARTESIAN_POINT ( 'NONE',  ( -0.5000000000000000000, -6.123233995736766000E-017, 0.2999999999999999900 ) ) ;
#472 = CARTESIAN_POINT ( 'NONE',  ( -0.5000000000000000000, -6.123233995736766000E-017, 0.2999999999999999900 ) ) ;
#473 = ADVANCED_FACE ( 'NONE', ( #273 ), #914, .F. ) ;
#474 = DIRECTION ( 'NONE',  ( 1.000000000000000000, -0.0000000000000000000, 0.0000000000000000000 ) ) ;
#475 = CARTESIAN_POINT ( 'NONE',  ( -0.7800000000000000300, 0.01999999999999990700, 0.2999999999999999900 ) ) ;
#476 = DIRECTION ( 'NONE',  ( -1.000000000000000000, -0.0000000000000000000, 0.0000000000000000000 ) ) ;
#477 = ORIENTED_EDGE ( 'NONE', *, *, #1264, .T. ) ;
#478 = SURFACE_SIDE_STYLE ('',( #448 ) ) ;
#479 = VECTOR ( 'NONE', #486, 1000.000000000000000 ) ;
#480 = LINE ( 'NONE', #55, #1057 ) ;
#481 = LINE ( 'NONE', #1228, #740 ) ;
#482 = CARTESIAN_POINT ( 'NONE',  ( -0.1884151312003130600, -0.6409334236568655600, 0.2999999999999999300 ) ) ;
#483 = PLANE ( 'NONE',  #1269 ) ;
#484 = ADVANCED_FACE ( 'NONE', ( #767 ), #1023, .F. ) ;
#485 = EDGE_CURVE ( 'NONE', #1037, #455, #1021, .T. ) ;
#486 = DIRECTION ( 'NONE',  ( -0.0000000000000000000, -0.0000000000000000000, -1.000000000000000000 ) ) ;
#487 = EDGE_LOOP ( 'NONE', ( #964, #1284, #1028, #29, #429, #1294, #783, #868 ) ) ;
#488 = VERTEX_POINT ( 'NONE', #804 ) ;
#489 = DIRECTION ( 'NONE',  ( 0.0000000000000000000, -0.0000000000000000000, -1.000000000000000000 ) ) ;
#490 = ORIENTED_EDGE ( 'NONE', *, *, #133, .T. ) ;
#491 = DIRECTION ( 'NONE',  ( 1.000000000000000000, -2.041077998578922300E-016, -0.0000000000000000000 ) ) ;
#492 = ORIENTED_EDGE ( 'NONE', *, *, #249, .T. ) ;
#493 = VERTEX_POINT ( 'NONE', #283 ) ;
#494 = AXIS2_PLACEMENT_3D ( 'NONE', #853, #5, #634 ) ;
#495 = DIRECTION ( 'NONE',  ( -1.000000000000000000, 0.0000000000000000000, 0.0000000000000000000 ) ) ;
#496 = CARTESIAN_POINT ( 'NONE',  ( 0.5999999999999998700, 0.4799999999999999800, 0.2999999999999999900 ) ) ;
#497 = EDGE_LOOP ( 'NONE', ( #972, #1063, #150, #854 ) ) ;
#498 = CARTESIAN_POINT ( 'NONE',  ( 0.7800000000000000300, 0.01999999999999990700, 0.2999999999999999900 ) ) ;
#499 = DIRECTION ( 'NONE',  ( 0.0000000000000000000, 0.0000000000000000000, 1.000000000000000000 ) ) ;
#500 = DIRECTION ( 'NONE',  ( -0.0000000000000000000, 0.0000000000000000000, -1.000000000000000000 ) ) ;
#501 = LINE ( 'NONE', #305, #255 ) ;
#502 = VECTOR ( 'NONE', #1127, 1000.000000000000000 ) ;
#503 = DIRECTION ( 'NONE',  ( -0.0000000000000000000, 0.0000000000000000000, 1.000000000000000000 ) ) ;
#504 = DIRECTION ( 'NONE',  ( -1.210047067506144200E-016, 1.000000000000000000, 0.0000000000000000000 ) ) ;
#505 = EDGE_CURVE ( 'NONE', #1390, #587, #1303, .T. ) ;
#506 = SURFACE_STYLE_USAGE ( .BOTH. , #1148 ) ;
#507 = ORIENTED_EDGE ( 'NONE', *, *, #785, .T. ) ;
#508 = LINE ( 'NONE', #843, #540 ) ;
#509 = ORIENTED_EDGE ( 'NONE', *, *, #342, .F. ) ;
#510 = CARTESIAN_POINT ( 'NONE',  ( -0.5999999999999998700, 0.4799999999999999800, -0.2999999999999999300 ) ) ;
#511 = DIRECTION ( 'NONE',  ( 1.000000000000000000, 0.0000000000000000000, -0.0000000000000000000 ) ) ;
#512 =( GEOMETRIC_REPRESENTATION_CONTEXT ( 3 ) GLOBAL_UNCERTAINTY_ASSIGNED_CONTEXT ( ( #837 ) ) GLOBAL_UNIT_ASSIGNED_CONTEXT ( ( #578, #1341, #694 ) ) REPRESENTATION_CONTEXT ( 'NONE', 'WORKASPACE' ) );
#513 = PLANE ( 'NONE',  #712 ) ;
#514 = DIRECTION ( 'NONE',  ( 0.0000000000000000000, 1.000000000000000000, 0.0000000000000000000 ) ) ;
#515 = LINE ( 'NONE', #1210, #1300 ) ;
#516 = CARTESIAN_POINT ( 'NONE',  ( 0.7999999999999999300, 0.0000000000000000000, 0.2999999999999999900 ) ) ;
#517 = DIRECTION ( 'NONE',  ( -1.000000000000000000, 0.0000000000000000000, -0.0000000000000000000 ) ) ;
#518 = LINE ( 'NONE', #1017, #217 ) ;
#519 = CIRCLE ( 'NONE', #658, 0.5929241440768355800 ) ;
#520 = EDGE_CURVE ( 'NONE', #1351, #664, #481, .T. ) ;
#521 = CARTESIAN_POINT ( 'NONE',  ( -0.4656027761392351700, -0.6409334236568655600, -0.2999999999999999300 ) ) ;
#522 = SURFACE_STYLE_USAGE ( .BOTH. , #1272 ) ;
#523 = ORIENTED_EDGE ( 'NONE', *, *, #456, .T. ) ;
#524 = ORIENTED_EDGE ( 'NONE', *, *, #133, .F. ) ;
#525 = ORIENTED_EDGE ( 'NONE', *, *, #699, .T. ) ;
#526 = CARTESIAN_POINT ( 'NONE',  ( -0.5000000000000000000, 0.01999999999999994100, 0.2999999999999999900 ) ) ;
#527 = DIRECTION ( 'NONE',  ( 0.0000000000000000000, 1.000000000000000000, 0.0000000000000000000 ) ) ;
#528 = ORIENTED_EDGE ( 'NONE', *, *, #312, .T. ) ;
#529 = EDGE_CURVE ( 'NONE', #455, #493, #1273, .T. ) ;
#530 = CARTESIAN_POINT ( 'NONE',  ( -0.5999999999999998700, 0.4999999999999998900, 0.2999999999999999900 ) ) ;
#531 = CARTESIAN_POINT ( 'NONE',  ( 0.0000000000000000000, 1.000000000000000000, 0.2999999999999999900 ) ) ;
#532 = PLANE ( 'NONE',  #346 ) ;
#533 = VECTOR ( 'NONE', #927, 1000.000000000000000 ) ;
#534 = ORIENTED_EDGE ( 'NONE', *, *, #1038, .F. ) ;
#535 = VECTOR ( 'NONE', #1357, 1000.000000000000000 ) ;
#536 =( NAMED_UNIT ( * ) PLANE_ANGLE_UNIT ( ) SI_UNIT ( $, .RADIAN. ) );
#537 =( GEOMETRIC_REPRESENTATION_CONTEXT ( 3 ) GLOBAL_UNCERTAINTY_ASSIGNED_CONTEXT ( ( #940 ) ) GLOBAL_UNIT_ASSIGNED_CONTEXT ( ( #653, #536, #757 ) ) REPRESENTATION_CONTEXT ( 'NONE', 'WORKASPACE' ) );
#538 = ORIENTED_EDGE ( 'NONE', *, *, #319, .T. ) ;
#539 = VECTOR ( 'NONE', #500, 1000.000000000000000 ) ;
#540 = VECTOR ( 'NONE', #957, 1000.000000000000000 ) ;
#541 = VERTEX_POINT ( 'NONE', #1337 ) ;
#542 = ORIENTED_EDGE ( 'NONE', *, *, #736, .F. ) ;
#543 = AXIS2_PLACEMENT_3D ( 'NONE', #390, #827, #87 ) ;
#544 = EDGE_CURVE ( 'NONE', #761, #1037, #139, .T. ) ;
#545 = LINE ( 'NONE', #659, #270 ) ;
#546 = LINE ( 'NONE', #1263, #271 ) ;
#547 = CARTESIAN_POINT ( 'NONE',  ( 0.1499999999999999400, 0.02000000000000005200, -0.2999999999999999900 ) ) ;
#548 = ORIENTED_EDGE ( 'NONE', *, *, #187, .T. ) ;
#549 = SURFACE_SIDE_STYLE ('',( #1096 ) ) ;
#550 = ORIENTED_EDGE ( 'NONE', *, *, #1317, .T. ) ;
#551 = EDGE_CURVE ( 'NONE', #1280, #1201, #425, .T. ) ;
#552 = CARTESIAN_POINT ( 'NONE',  ( 0.0000000000000000000, 0.0000000000000000000, -0.2999999999999999900 ) ) ;
#553 = VERTEX_POINT ( 'NONE', #475 ) ;
#554 = CARTESIAN_POINT ( 'NONE',  ( -0.7999999999999999300, -1.530808498934191500E-017, -0.2999999999999999900 ) ) ;
#555 = CIRCLE ( 'NONE', #1262, 0.5929241440768355800 ) ;
#556 = LINE ( 'NONE', #1379, #533 ) ;
#557 = FACE_OUTER_BOUND ( 'NONE', #667, .T. ) ;
#558 = AXIS2_PLACEMENT_3D ( 'NONE', #214, #310, #1054 ) ;
#559 = ADVANCED_FACE ( 'NONE', ( #956 ), #370, .F. ) ;
#560 = CARTESIAN_POINT ( 'NONE',  ( -0.7800000000000000300, 0.4799999999999999800, 0.2999999999999999900 ) ) ;
#561 = EDGE_LOOP ( 'NONE', ( #1078, #477, #428, #1244 ) ) ;
#562 = LINE ( 'NONE', #1245, #11 ) ;
#563 = VERTEX_POINT ( 'NONE', #1115 ) ;
#564 = ORIENTED_EDGE ( 'NONE', *, *, #333, .T. ) ;
#565 = ORIENTED_EDGE ( 'NONE', *, *, #896, .F. ) ;
#566 = DIRECTION ( 'NONE',  ( 1.222324245282928100E-016, -1.000000000000000000, 0.0000000000000000000 ) ) ;
#567 = EDGE_CURVE ( 'NONE', #77, #1072, #981, .T. ) ;
#568 = ADVANCED_FACE ( 'NONE', ( #913 ), #897, .F. ) ;
#569 = CARTESIAN_POINT ( 'NONE',  ( -0.4656027761392351700, 0.01999999999999992400, 0.2999999999999999300 ) ) ;
#570 = DIRECTION ( 'NONE',  ( 1.210047067506144200E-016, -1.000000000000000000, 0.0000000000000000000 ) ) ;
#571 = ORIENTED_EDGE ( 'NONE', *, *, #832, .T. ) ;
#572 = VECTOR ( 'NONE', #1316, 1000.000000000000000 ) ;
#573 = ADVANCED_FACE ( 'NONE', ( #1196 ), #156, .F. ) ;
#574 = VECTOR ( 'NONE', #619, 1000.000000000000000 ) ;
#575 = UNCERTAINTY_MEASURE_WITH_UNIT (LENGTH_MEASURE( 1.000000000000000100E-005 ), #1367, 'distance_accuracy_value', 'NONE');
#576 = CARTESIAN_POINT ( 'NONE',  ( 0.0000000000000000000, 0.4799999999999999800, 0.2999999999999999900 ) ) ;
#577 = PLANE ( 'NONE',  #1052 ) ;
#578 =( LENGTH_UNIT ( ) NAMED_UNIT ( * ) SI_UNIT ( .MILLI., .METRE. ) );
#579 = EDGE_CURVE ( 'NONE', #211, #773, #349, .T. ) ;
#580 = ORIENTED_EDGE ( 'NONE', *, *, #319, .F. ) ;
#581 = ADVANCED_FACE ( 'NONE', ( #630 ), #1088, .F. ) ;
#582 = DIRECTION ( 'NONE',  ( -1.000000000000000000, -1.210047067506144200E-016, 0.0000000000000000000 ) ) ;
#583 = CARTESIAN_POINT ( 'NONE',  ( 0.1500000000000000200, 0.02000000000000005200, -0.2999999999999999900 ) ) ;
#584 = DIRECTION ( 'NONE',  ( 1.000000000000000000, 0.0000000000000000000, 0.0000000000000000000 ) ) ;
#585 = AXIS2_PLACEMENT_3D ( 'NONE', #398, #709, #591 ) ;
#586 = DIRECTION ( 'NONE',  ( 0.0000000000000000000, 0.0000000000000000000, -1.000000000000000000 ) ) ;
#587 = VERTEX_POINT ( 'NONE', #1306 ) ;
#588 = PLANE ( 'NONE',  #1010 ) ;
#589 = VECTOR ( 'NONE', #696, 1000.000000000000000 ) ;
#590 = VECTOR ( 'NONE', #652, 1000.000000000000000 ) ;
#591 = DIRECTION ( 'NONE',  ( -1.000000000000000000, -1.210047067506144200E-016, 0.0000000000000000000 ) ) ;
#592 = CARTESIAN_POINT ( 'NONE',  ( 0.5000000000000000000, 0.01999999999999993100, -0.2999999999999999900 ) ) ;
#593 = LINE ( 'NONE', #609, #351 ) ;
#594 = EDGE_CURVE ( 'NONE', #1291, #352, #1171, .T. ) ;
#595 = DIRECTION ( 'NONE',  ( -0.0000000000000000000, -1.000000000000000000, -0.0000000000000000000 ) ) ;
#596 = ORIENTED_EDGE ( 'NONE', *, *, #896, .T. ) ;
#597 =( NAMED_UNIT ( * ) SI_UNIT ( $, .STERADIAN. ) SOLID_ANGLE_UNIT ( ) );
#598 = LINE ( 'NONE', #189, #1176 ) ;
#599 = ORIENTED_EDGE ( 'NONE', *, *, #844, .F. ) ;
#600 = PLANE ( 'NONE',  #1123 ) ;
#601 = DIRECTION ( 'NONE',  ( 1.000000000000000000, 0.0000000000000000000, -0.0000000000000000000 ) ) ;
#602 = ORIENTED_EDGE ( 'NONE', *, *, #1038, .T. ) ;
#603 = VERTEX_POINT ( 'NONE', #243 ) ;
#604 = CARTESIAN_POINT ( 'NONE',  ( -0.5000000000000000000, 0.01999999999999994100, 0.2999999999999999900 ) ) ;
#605 = PLANE ( 'NONE',  #679 ) ;
#606 =( NAMED_UNIT ( * ) PLANE_ANGLE_UNIT ( ) SI_UNIT ( $, .RADIAN. ) );
#607 = VERTEX_POINT ( 'NONE', #1301 ) ;
#608 = VERTEX_POINT ( 'NONE', #1191 ) ;
#609 = CARTESIAN_POINT ( 'NONE',  ( 0.0000000000000000000, 0.01999999999999990700, 0.2999999999999999900 ) ) ;
#610 = CARTESIAN_POINT ( 'NONE',  ( -0.5000000000000000000, 0.0000000000000000000, -0.2999999999999999900 ) ) ;
#611 = EDGE_CURVE ( 'NONE', #1045, #1390, #1136, .T. ) ;
#612 = LINE ( 'NONE', #1312, #50 ) ;
#613 = PLANE ( 'NONE',  #224 ) ;
#614 = VECTOR ( 'NONE', #379, 1000.000000000000000 ) ;
#615 = VECTOR ( 'NONE', #99, 1000.000000000000000 ) ;
#616 = SURFACE_STYLE_FILL_AREA ( #171 ) ;
#617 = CARTESIAN_POINT ( 'NONE',  ( 0.0000000000000000000, 0.01999999999999990700, 0.2999999999999999900 ) ) ;
#618 = DIRECTION ( 'NONE',  ( -0.0000000000000000000, -1.000000000000000000, -0.0000000000000000000 ) ) ;
#619 = DIRECTION ( 'NONE',  ( -1.000000000000000000, -0.0000000000000000000, -0.0000000000000000000 ) ) ;
#620 = ORIENTED_EDGE ( 'NONE', *, *, #250, .F. ) ;
#621 = DIRECTION ( 'NONE',  ( 0.0000000000000000000, -0.0000000000000000000, -1.000000000000000000 ) ) ;
#622 = CARTESIAN_POINT ( 'NONE',  ( -0.1500000000000000200, 0.01999999999999996600, 0.2999999999999999900 ) ) ;
#623 = EDGE_CURVE ( 'NONE', #603, #334, #71, .T. ) ;
#624 = DIRECTION ( 'NONE',  ( 0.0000000000000000000, 0.0000000000000000000, 1.000000000000000000 ) ) ;
#625 = CARTESIAN_POINT ( 'NONE',  ( -0.007075855923164209000, 0.4800000000000000400, -2.142281194606295600 ) ) ;
#626 = CARTESIAN_POINT ( 'NONE',  ( -0.7800000000000000300, 0.0000000000000000000, -0.2999999999999999300 ) ) ;
#627 = VERTEX_POINT ( 'NONE', #866 ) ;
#628 = FACE_OUTER_BOUND ( 'NONE', #1325, .T. ) ;
#629 = DIRECTION ( 'NONE',  ( 0.0000000000000000000, -1.000000000000000000, -0.0000000000000000000 ) ) ;
#630 = FACE_OUTER_BOUND ( 'NONE', #339, .T. ) ;
#631 = AXIS2_PLACEMENT_3D ( 'NONE', #320, #960, #228 ) ;
#632 = ORIENTED_EDGE ( 'NONE', *, *, #445, .T. ) ;
#633 = VECTOR ( 'NONE', #834, 1000.000000000000000 ) ;
#634 = DIRECTION ( 'NONE',  ( 0.0000000000000000000, 0.0000000000000000000, -1.000000000000000000 ) ) ;
#635 = ORIENTED_EDGE ( 'NONE', *, *, #333, .F. ) ;
#636 = VECTOR ( 'NONE', #66, 1000.000000000000000 ) ;
#637 = ORIENTED_EDGE ( 'NONE', *, *, #485, .T. ) ;
#638 = VERTEX_POINT ( 'NONE', #134 ) ;
#639 = ORIENTED_EDGE ( 'NONE', *, *, #699, .F. ) ;
#640 = STYLED_ITEM ( 'NONE', ( #461 ), #686 ) ;
#641 = DIRECTION ( 'NONE',  ( 0.0000000000000000000, 0.0000000000000000000, 1.000000000000000000 ) ) ;
#642 = EDGE_CURVE ( 'NONE', #458, #1230, #323, .T. ) ;
#643 = ORIENTED_EDGE ( 'NONE', *, *, #9, .T. ) ;
#644 = EDGE_CURVE ( 'NONE', #608, #761, #28, .T. ) ;
#645 = VECTOR ( 'NONE', #874, 1000.000000000000000 ) ;
#646 = LINE ( 'NONE', #735, #1184 ) ;
#647 = VECTOR ( 'NONE', #621, 1000.000000000000000 ) ;
#648 = VECTOR ( 'NONE', #624, 1000.000000000000000 ) ;
#649 = VERTEX_POINT ( 'NONE', #1189 ) ;
#650 = CARTESIAN_POINT ( 'NONE',  ( 0.0000000000000000000, 0.4799999999999999800, -0.2999999999999999900 ) ) ;
#651 = EDGE_CURVE ( 'NONE', #861, #990, #556, .T. ) ;
#652 = DIRECTION ( 'NONE',  ( 0.0000000000000000000, 0.0000000000000000000, 1.000000000000000000 ) ) ;
#653 =( LENGTH_UNIT ( ) NAMED_UNIT ( * ) SI_UNIT ( .MILLI., .METRE. ) );
#654 = PLANE ( 'NONE',  #887 ) ;
#655 = ORIENTED_EDGE ( 'NONE', *, *, #879, .T. ) ;
#656 = LINE ( 'NONE', #1216, #1195 ) ;
#657 = VECTOR ( 'NONE', #340, 1000.000000000000000 ) ;
#658 = AXIS2_PLACEMENT_3D ( 'NONE', #703, #1352, #584 ) ;
#659 = CARTESIAN_POINT ( 'NONE',  ( -0.7800000000000000300, 0.4799999999999999800, 0.2999999999999999900 ) ) ;
#660 = VECTOR ( 'NONE', #618, 1000.000000000000000 ) ;
#661 = PRODUCT ( 'HSMG-C191', 'HSMG-C191', '', ( #201 ) ) ;
#662 = VERTEX_POINT ( 'NONE', #510 ) ;
#663 = ORIENTED_EDGE ( 'NONE', *, *, #520, .F. ) ;
#664 = VERTEX_POINT ( 'NONE', #945 ) ;
#665 = ORIENTED_EDGE ( 'NONE', *, *, #391, .F. ) ;
#666 = EDGE_CURVE ( 'NONE', #553, #1307, #815, .T. ) ;
#667 = EDGE_LOOP ( 'NONE', ( #635, #726, #1285, #452, #885, #421, #1391, #775 ) ) ;
#668 = ADVANCED_FACE ( 'NONE', ( #7 ), #1162, .F. ) ;
#669 = DIRECTION ( 'NONE',  ( -0.0000000000000000000, -0.0000000000000000000, -1.000000000000000000 ) ) ;
#670 = ORIENTED_EDGE ( 'NONE', *, *, #1225, .F. ) ;
#671 = ORIENTED_EDGE ( 'NONE', *, *, #1012, .T. ) ;
#672 = ADVANCED_FACE ( 'NONE', ( #1097 ), #1059, .F. ) ;
#673 = CARTESIAN_POINT ( 'NONE',  ( 0.5000000000000000000, 0.0000000000000000000, 0.2999999999999999900 ) ) ;
#674 = VECTOR ( 'NONE', #32, 1000.000000000000000 ) ;
#675 = LINE ( 'NONE', #1222, #463 ) ;
#676 = CARTESIAN_POINT ( 'NONE',  ( 0.5000000000000000000, 0.01999999999999994100, 0.2999999999999999900 ) ) ;
#677 = CARTESIAN_POINT ( 'NONE',  ( -0.4656027761392352300, 0.01999999999999994500, 0.2999999999999999900 ) ) ;
#678 = PRODUCT_DEFINITION_CONTEXT ( 'detailed design', #936, 'design' ) ;
#679 = AXIS2_PLACEMENT_3D ( 'NONE', #718, #1147, #504 ) ;
#680 = DIRECTION ( 'NONE',  ( 1.000000000000000000, 0.0000000000000000000, 0.0000000000000000000 ) ) ;
#681 = EDGE_CURVE ( 'NONE', #107, #253, #501, .T. ) ;
#682 = VERTEX_POINT ( 'NONE', #732 ) ;
#683 = LINE ( 'NONE', #741, #648 ) ;
#684 = ADVANCED_FACE ( 'NONE', ( #779 ), #513, .T. ) ;
#685 = CARTESIAN_POINT ( 'NONE',  ( 0.2919601142268620800, 1.000000000000000000, -2.142281194606295600 ) ) ;
#686 = MANIFOLD_SOLID_BREP ( 'Cut-Extrude1', #328 ) ;
#687 = ORIENTED_EDGE ( 'NONE', *, *, #802, .F. ) ;
#688 = DIRECTION ( 'NONE',  ( 1.000000000000000000, -0.0000000000000000000, 0.0000000000000000000 ) ) ;
#689 = DIRECTION ( 'NONE',  ( 0.0000000000000000000, 0.0000000000000000000, 1.000000000000000000 ) ) ;
#690 = DIRECTION ( 'NONE',  ( 0.0000000000000000000, -0.0000000000000000000, 1.000000000000000000 ) ) ;
#691 = DIRECTION ( 'NONE',  ( 0.0000000000000000000, -1.000000000000000000, -0.0000000000000000000 ) ) ;
#692 = DIRECTION ( 'NONE',  ( 1.000000000000000000, 1.222324245282928100E-016, 0.0000000000000000000 ) ) ;
#693 = ADVANCED_FACE ( 'NONE', ( #1073 ), #1046, .T. ) ;
#694 =( NAMED_UNIT ( * ) SI_UNIT ( $, .STERADIAN. ) SOLID_ANGLE_UNIT ( ) );
#695 = ORIENTED_EDGE ( 'NONE', *, *, #1275, .F. ) ;
#696 = DIRECTION ( 'NONE',  ( 1.222324245282928100E-016, -1.000000000000000000, 0.0000000000000000000 ) ) ;
#697 = CARTESIAN_POINT ( 'NONE',  ( 0.7800000000000000300, 0.0000000000000000000, 0.2999999999999999900 ) ) ;
#698 = CARTESIAN_POINT ( 'NONE',  ( 0.7999999999999999300, -1.530808498934191500E-017, -0.2999999999999999900 ) ) ;
#699 = EDGE_CURVE ( 'NONE', #22, #120, #1209, .T. ) ;
#700 = VECTOR ( 'NONE', #491, 1000.000000000000000 ) ;
#701 = VECTOR ( 'NONE', #276, 1000.000000000000000 ) ;
#702 = FACE_OUTER_BOUND ( 'NONE', #294, .T. ) ;
#703 = CARTESIAN_POINT ( 'NONE',  ( -0.007075855923164209000, 0.4800000000000000400, 0.2999999999999999300 ) ) ;
#704 = CARTESIAN_POINT ( 'NONE',  ( -0.1884151312003131400, 0.01999999999999998000, -0.2999999999999999300 ) ) ;
#705 = ORIENTED_EDGE ( 'NONE', *, *, #529, .F. ) ;
#706 = ORIENTED_EDGE ( 'NONE', *, *, #946, .F. ) ;
#707 = ORIENTED_EDGE ( 'NONE', *, *, #239, .T. ) ;
#708 = ORIENTED_EDGE ( 'NONE', *, *, #1315, .F. ) ;
#709 = DIRECTION ( 'NONE',  ( -1.210047067506144200E-016, 1.000000000000000000, 0.0000000000000000000 ) ) ;
#710 = DIRECTION ( 'NONE',  ( 0.0000000000000000000, 0.0000000000000000000, 1.000000000000000000 ) ) ;
#711 =( LENGTH_UNIT ( ) NAMED_UNIT ( * ) SI_UNIT ( .MILLI., .METRE. ) );
#712 = AXIS2_PLACEMENT_3D ( 'NONE', #420, #208, #407 ) ;
#713 = ORIENTED_EDGE ( 'NONE', *, *, #1164, .F. ) ;
#714 = VECTOR ( 'NONE', #1095, 1000.000000000000000 ) ;
#715 =( NAMED_UNIT ( * ) SI_UNIT ( $, .STERADIAN. ) SOLID_ANGLE_UNIT ( ) );
#716 = CARTESIAN_POINT ( 'NONE',  ( 0.0000000000000000000, 0.4799999999999999800, -2.142281194606295600 ) ) ;
#717 = PRESENTATION_STYLE_ASSIGNMENT (( #522 ) ) ;
#718 = CARTESIAN_POINT ( 'NONE',  ( -0.1884151312003131400, 0.02099999999999997700, 0.2999999999999999900 ) ) ;
#719 = VECTOR ( 'NONE', #476, 1000.000000000000000 ) ;
#720 = EDGE_CURVE ( 'NONE', #607, #404, #1318, .T. ) ;
#721 = ORIENTED_EDGE ( 'NONE', *, *, #1081, .T. ) ;
#722 = DIRECTION ( 'NONE',  ( 1.000000000000000000, -2.041077998578922300E-016, -0.0000000000000000000 ) ) ;
#723 = FACE_OUTER_BOUND ( 'NONE', #497, .T. ) ;
#724 = CARTESIAN_POINT ( 'NONE',  ( 0.0000000000000000000, 0.4799999999999999800, 0.2999999999999999900 ) ) ;
#725 = PLANE ( 'NONE',  #543 ) ;
#726 = ORIENTED_EDGE ( 'NONE', *, *, #910, .F. ) ;
#727 = AXIS2_PLACEMENT_3D ( 'NONE', #911, #1025, #386 ) ;
#728 = DIRECTION ( 'NONE',  ( 0.0000000000000000000, 0.0000000000000000000, -1.000000000000000000 ) ) ;
#729 = CARTESIAN_POINT ( 'NONE',  ( -0.1884151312003131400, 0.02099999999999996300, 0.2999999999999999900 ) ) ;
#730 = CARTESIAN_POINT ( 'NONE',  ( -0.7800000000000000300, 0.01999999999999990700, -0.2999999999999999300 ) ) ;
#731 = ORIENTED_EDGE ( 'NONE', *, *, #879, .F. ) ;
#732 = CARTESIAN_POINT ( 'NONE',  ( 0.7800000000000000300, 0.01999999999999995900, 0.2999999999999999300 ) ) ;
#733 = ORIENTED_EDGE ( 'NONE', *, *, #813, .T. ) ;
#734 = PLANE ( 'NONE',  #918 ) ;
#735 = CARTESIAN_POINT ( 'NONE',  ( 0.1499999999999999700, -1.939024098649976400E-016, 0.2999999999999999900 ) ) ;
#736 = EDGE_CURVE ( 'NONE', #116, #15, #646, .T. ) ;
#737 = VECTOR ( 'NONE', #1218, 1000.000000000000000 ) ;
#738 = CARTESIAN_POINT ( 'NONE',  ( 0.2919601142268621300, 1.000000000000000000, -0.2999999999999999300 ) ) ;
#739 = LINE ( 'NONE', #933, #1271 ) ;
#740 = VECTOR ( 'NONE', #378, 1000.000000000000000 ) ;
#741 = CARTESIAN_POINT ( 'NONE',  ( 0.7800000000000000300, 0.01999999999999990700, 0.2999999999999999900 ) ) ;
#742 = CARTESIAN_POINT ( 'NONE',  ( -0.7999999999999999300, 0.4999999999999998900, 0.2999999999999999900 ) ) ;
#743 = EDGE_LOOP ( 'NONE', ( #968, #1349, #33, #671 ) ) ;
#744 = ORIENTED_EDGE ( 'NONE', *, *, #280, .T. ) ;
#745 = ORIENTED_EDGE ( 'NONE', *, *, #1305, .T. ) ;
#746 = AXIS2_PLACEMENT_3D ( 'NONE', #1239, #73, #1030 ) ;
#747 = EDGE_LOOP ( 'NONE', ( #161, #118, #823, #1322 ) ) ;
#748 = CARTESIAN_POINT ( 'NONE',  ( -0.1500000000000000200, 0.01999999999999994500, -0.2999999999999999900 ) ) ;
#749 = ORIENTED_EDGE ( 'NONE', *, *, #651, .F. ) ;
#750 = CARTESIAN_POINT ( 'NONE',  ( -0.7999999999999999300, -3.061616997868383000E-017, 0.2999999999999999900 ) ) ;
#751 = EDGE_CURVE ( 'NONE', #1072, #881, #92, .T. ) ;
#752 = PLANE ( 'NONE',  #494 ) ;
#753 = DIRECTION ( 'NONE',  ( 0.0000000000000000000, 0.0000000000000000000, 1.000000000000000000 ) ) ;
#754 = ORIENTED_EDGE ( 'NONE', *, *, #1212, .T. ) ;
#755 = SURFACE_STYLE_FILL_AREA ( #299 ) ;
#756 = LINE ( 'NONE', #65, #998 ) ;
#757 =( NAMED_UNIT ( * ) SI_UNIT ( $, .STERADIAN. ) SOLID_ANGLE_UNIT ( ) );
#758 = AXIS2_PLACEMENT_3D ( 'NONE', #1314, #688, #728 ) ;
#759 = ORIENTED_EDGE ( 'NONE', *, *, #1101, .T. ) ;
#760 = FACE_OUTER_BOUND ( 'NONE', #487, .T. ) ;
#761 = VERTEX_POINT ( 'NONE', #322 ) ;
#762 = EDGE_CURVE ( 'NONE', #404, #772, #51, .T. ) ;
#763 = CARTESIAN_POINT ( 'NONE',  ( 0.1500000000000000200, -0.6708203932499370300, -0.2999999999999999900 ) ) ;
#764 = VERTEX_POINT ( 'NONE', #1070 ) ;
#765 = LINE ( 'NONE', #163, #1113 ) ;
#766 = LINE ( 'NONE', #75, #700 ) ;
#767 = FACE_OUTER_BOUND ( 'NONE', #848, .T. ) ;
#768 = EDGE_LOOP ( 'NONE', ( #44, #1062, #774, #447, #925, #1026, #192, #1051, #1238, #810, #580, #507 ) ) ;
#769 = CARTESIAN_POINT ( 'NONE',  ( 0.0000000000000000000, 0.4999999999999998900, -0.2999999999999999900 ) ) ;
#770 = CARTESIAN_POINT ( 'NONE',  ( 0.0000000000000000000, 1.000000000000000000, -2.142281194606295600 ) ) ;
#771 = EDGE_CURVE ( 'NONE', #587, #330, #937, .T. ) ;
#772 = VERTEX_POINT ( 'NONE', #750 ) ;
#773 = VERTEX_POINT ( 'NONE', #2 ) ;
#774 = ORIENTED_EDGE ( 'NONE', *, *, #681, .T. ) ;
#775 = ORIENTED_EDGE ( 'NONE', *, *, #1188, .F. ) ;
#776 = PLANE ( 'NONE',  #1182 ) ;
#777 = AXIS2_PLACEMENT_3D ( 'NONE', #521, #314, #948 ) ;
#778 = EDGE_LOOP ( 'NONE', ( #643, #303, #1029, #1145 ) ) ;
#779 = FACE_OUTER_BOUND ( 'NONE', #1102, .T. ) ;
#780 = PRESENTATION_LAYER_ASSIGNMENT (  '', '', ( #640 ) ) ;
#781 = LINE ( 'NONE', #1031, #502 ) ;
#782 = ADVANCED_FACE ( 'NONE', ( #162 ), #1277, .F. ) ;
#783 = ORIENTED_EDGE ( 'NONE', *, *, #950, .T. ) ;
#784 = VECTOR ( 'NONE', #1388, 1000.000000000000000 ) ;
#785 = EDGE_CURVE ( 'NONE', #638, #1351, #863, .T. ) ;
#786 = ORIENTED_EDGE ( 'NONE', *, *, #297, .T. ) ;
#787 = CARTESIAN_POINT ( 'NONE',  ( 0.5000000000000000000, -6.123233995736766000E-017, 0.2999999999999999900 ) ) ;
#788 = MANIFOLD_SOLID_BREP ( 'Boss-Extrude1[2]', #434 ) ;
#789 = DIRECTION ( 'NONE',  ( -1.000000000000000000, -0.0000000000000000000, 0.0000000000000000000 ) ) ;
#790 = ADVANCED_FACE ( 'NONE', ( #1288 ), #337, .T. ) ;
#791 = DIRECTION ( 'NONE',  ( 0.0000000000000000000, 1.000000000000000000, 0.0000000000000000000 ) ) ;
#792 = DIRECTION ( 'NONE',  ( 0.0000000000000000000, -0.0000000000000000000, 1.000000000000000000 ) ) ;
#793 = DIRECTION ( 'NONE',  ( 1.000000000000000000, 1.222324245282928100E-016, -0.0000000000000000000 ) ) ;
#794 = CARTESIAN_POINT ( 'NONE',  ( 0.7800000000000000300, 0.4799999999999999800, 0.2999999999999999900 ) ) ;
#795 = FILL_AREA_STYLE ('',( #900 ) ) ;
#796 = LINE ( 'NONE', #673, #1381 ) ;
#797 = ADVANCED_FACE ( 'NONE', ( #1185 ), #840, .T. ) ;
#798 = VECTOR ( 'NONE', #831, 1000.000000000000000 ) ;
#799 = VECTOR ( 'NONE', #1138, 1000.000000000000000 ) ;
#800 = CARTESIAN_POINT ( 'NONE',  ( 0.0000000000000000000, 0.01999999999999990700, 0.2999999999999999900 ) ) ;
#801 = DIRECTION ( 'NONE',  ( 1.000000000000000000, 0.0000000000000000000, -0.0000000000000000000 ) ) ;
#802 = EDGE_CURVE ( 'NONE', #10, #262, #52, .T. ) ;
#803 = ORIENTED_EDGE ( 'NONE', *, *, #360, .T. ) ;
#804 = CARTESIAN_POINT ( 'NONE',  ( 0.7999999999999999300, -1.530808498934191500E-017, 0.2999999999999999900 ) ) ;
#805 = ORIENTED_EDGE ( 'NONE', *, *, #642, .T. ) ;
#806 = CARTESIAN_POINT ( 'NONE',  ( 0.7999999999999999300, 0.4999999999999998900, 0.2999999999999999900 ) ) ;
#807 = DIRECTION ( 'NONE',  ( -1.000000000000000000, -0.0000000000000000000, 0.0000000000000000000 ) ) ;
#808 = VERTEX_POINT ( 'NONE', #730 ) ;
#809 = CARTESIAN_POINT ( 'NONE',  ( -0.1500000000000000200, -0.6708203932499370300, 0.2999999999999999900 ) ) ;
#810 = ORIENTED_EDGE ( 'NONE', *, *, #1079, .F. ) ;
#811 = DIRECTION ( 'NONE',  ( 0.0000000000000000000, 0.0000000000000000000, 1.000000000000000000 ) ) ;
#812 = CARTESIAN_POINT ( 'NONE',  ( 0.0000000000000000000, 0.02099999999999994600, 0.2999999999999999900 ) ) ;
#813 = EDGE_CURVE ( 'NONE', #329, #22, #864, .T. ) ;
#814 = PRESENTATION_STYLE_ASSIGNMENT (( #1304 ) ) ;
#815 = LINE ( 'NONE', #617, #1362 ) ;
#816 = LINE ( 'NONE', #908, #196 ) ;
#817 = CARTESIAN_POINT ( 'NONE',  ( 0.0000000000000000000, 0.0000000000000000000, -0.2999999999999999900 ) ) ;
#818 = DIRECTION ( 'NONE',  ( -1.000000000000000000, -1.222324245282928100E-016, 0.0000000000000000000 ) ) ;
#819 =( NAMED_UNIT ( * ) SI_UNIT ( $, .STERADIAN. ) SOLID_ANGLE_UNIT ( ) );
#820 = ORIENTED_EDGE ( 'NONE', *, *, #63, .T. ) ;
#821 = LINE ( 'NONE', #926, #539 ) ;
#822 = ORIENTED_EDGE ( 'NONE', *, *, #1179, .F. ) ;
#823 = ORIENTED_EDGE ( 'NONE', *, *, #280, .F. ) ;
#824 = EDGE_LOOP ( 'NONE', ( #293, #943, #286, #867 ) ) ;
#825 = SURFACE_SIDE_STYLE ('',( #755 ) ) ;
#826 = CARTESIAN_POINT ( 'NONE',  ( 0.0000000000000000000, -6.123233995736766000E-017, -0.2999999999999999900 ) ) ;
#827 = DIRECTION ( 'NONE',  ( -1.000000000000000000, 0.0000000000000000000, 0.0000000000000000000 ) ) ;
#828 = DIRECTION ( 'NONE',  ( 1.000000000000000000, 0.0000000000000000000, 0.0000000000000000000 ) ) ;
#829 = DIRECTION ( 'NONE',  ( 1.000000000000000000, -0.0000000000000000000, 0.0000000000000000000 ) ) ;
#830 = AXIS2_PLACEMENT_3D ( 'NONE', #1252, #1365, #586 ) ;
#831 = DIRECTION ( 'NONE',  ( -0.0000000000000000000, -1.000000000000000000, -0.0000000000000000000 ) ) ;
#832 = EDGE_CURVE ( 'NONE', #682, #1295, #1155, .T. ) ;
#833 = LINE ( 'NONE', #257, #127 ) ;
#834 = DIRECTION ( 'NONE',  ( -0.0000000000000000000, -0.0000000000000000000, -1.000000000000000000 ) ) ;
#835 = LINE ( 'NONE', #199, #241 ) ;
#836 = CARTESIAN_POINT ( 'NONE',  ( -0.1884151312003130600, 0.02000000000000005200, 0.2999999999999999900 ) ) ;
#837 = UNCERTAINTY_MEASURE_WITH_UNIT (LENGTH_MEASURE( 1.000000000000000100E-005 ), #578, 'distance_accuracy_value', 'NONE');
#838 = DIRECTION ( 'NONE',  ( 1.210047067506144200E-016, -1.000000000000000000, 0.0000000000000000000 ) ) ;
#839 = CARTESIAN_POINT ( 'NONE',  ( -0.1499999999999999400, -0.6708203932499371400, -0.2999999999999999900 ) ) ;
#840 = PLANE ( 'NONE',  #408 ) ;
#841 = ORIENTED_EDGE ( 'NONE', *, *, #101, .T. ) ;
#842 = ORIENTED_EDGE ( 'NONE', *, *, #233, .F. ) ;
#843 = CARTESIAN_POINT ( 'NONE',  ( 0.0000000000000000000, 0.4799999999999999800, 0.2999999999999999900 ) ) ;
#844 = EDGE_CURVE ( 'NONE', #253, #808, #309, .T. ) ;
#845 = CARTESIAN_POINT ( 'NONE',  ( 0.5999999999999998700, 0.4799999999999999800, 0.2999999999999999900 ) ) ;
#846 = FILL_AREA_STYLE ('',( #1068 ) ) ;
#847 = CARTESIAN_POINT ( 'NONE',  ( 0.5999999999999998700, 0.4999999999999998900, 0.2999999999999999900 ) ) ;
#848 = EDGE_LOOP ( 'NONE', ( #822, #186, #140, #1279 ) ) ;
#849 = DIRECTION ( 'NONE',  ( -0.0000000000000000000, -1.000000000000000000, -0.0000000000000000000 ) ) ;
#850 = LINE ( 'NONE', #275, #110 ) ;
#851 = VECTOR ( 'NONE', #1084, 1000.000000000000000 ) ;
#852 = VECTOR ( 'NONE', #198, 1000.000000000000000 ) ;
#853 = CARTESIAN_POINT ( 'NONE',  ( -0.7800000000000000300, 0.0000000000000000000, -2.142281194606295600 ) ) ;
#854 = ORIENTED_EDGE ( 'NONE', *, *, #83, .T. ) ;
#855 = VECTOR ( 'NONE', #1360, 1000.000000000000000 ) ;
#856 = EDGE_LOOP ( 'NONE', ( #119, #1172, #745, #731 ) ) ;
#857 = MECHANICAL_DESIGN_GEOMETRIC_PRESENTATION_REPRESENTATION (  '', ( #640 ), #928 ) ;
#858 = VERTEX_POINT ( 'NONE', #206 ) ;
#859 = ORIENTED_EDGE ( 'NONE', *, *, #469, .T. ) ;
#860 = EDGE_CURVE ( 'NONE', #227, #1230, #546, .T. ) ;
#861 = VERTEX_POINT ( 'NONE', #95 ) ;
#862 = VECTOR ( 'NONE', #254, 1000.000000000000000 ) ;
#863 = LINE ( 'NONE', #1377, #195 ) ;
#864 = LINE ( 'NONE', #311, #574 ) ;
#865 = AXIS2_PLACEMENT_3D ( 'NONE', #1130, #284, #1355 ) ;
#866 = CARTESIAN_POINT ( 'NONE',  ( -0.7800000000000000300, 0.4799999999999999800, -0.2999999999999999900 ) ) ;
#867 = ORIENTED_EDGE ( 'NONE', *, *, #445, .F. ) ;
#868 = ORIENTED_EDGE ( 'NONE', *, *, #169, .F. ) ;
#869 = EDGE_CURVE ( 'NONE', #22, #962, #94, .T. ) ;
#870 = SURFACE_SIDE_STYLE ('',( #616 ) ) ;
#871 = DIRECTION ( 'NONE',  ( 0.0000000000000000000, 0.0000000000000000000, 1.000000000000000000 ) ) ;
#872 = ORIENTED_EDGE ( 'NONE', *, *, #422, .F. ) ;
#873 = VECTOR ( 'NONE', #1020, 1000.000000000000000 ) ;
#874 = DIRECTION ( 'NONE',  ( 0.0000000000000000000, 0.0000000000000000000, -1.000000000000000000 ) ) ;
#875 = FACE_OUTER_BOUND ( 'NONE', #987, .T. ) ;
#876 = VECTOR ( 'NONE', #446, 1000.000000000000000 ) ;
#877 = ORIENTED_EDGE ( 'NONE', *, *, #1394, .F. ) ;
#878 = VECTOR ( 'NONE', #511, 1000.000000000000000 ) ;
#879 = EDGE_CURVE ( 'NONE', #858, #1002, #1382, .T. ) ;
#880 = EDGE_CURVE ( 'NONE', #772, #1141, #835, .T. ) ;
#881 = VERTEX_POINT ( 'NONE', #1247 ) ;
#882 = SHAPE_DEFINITION_REPRESENTATION ( #89, #338 ) ;
#883 = ORIENTED_EDGE ( 'NONE', *, *, #1081, .F. ) ;
#884 = EDGE_LOOP ( 'NONE', ( #435, #705, #81, #1298 ) ) ;
#885 = ORIENTED_EDGE ( 'NONE', *, *, #1158, .F. ) ;
#886 = ADVANCED_FACE ( 'NONE', ( #1340 ), #725, .F. ) ;
#887 = AXIS2_PLACEMENT_3D ( 'NONE', #770, #983, #344 ) ;
#888 = CARTESIAN_POINT ( 'NONE',  ( 0.0000000000000000000, 0.0000000000000000000, 0.2999999999999999900 ) ) ;
#889 = ORIENTED_EDGE ( 'NONE', *, *, #342, .T. ) ;
#890 = ADVANCED_FACE ( 'NONE', ( #1082 ), #605, .F. ) ;
#891 = FACE_OUTER_BOUND ( 'NONE', #768, .T. ) ;
#892 = DIRECTION ( 'NONE',  ( 1.000000000000000000, 0.0000000000000000000, -0.0000000000000000000 ) ) ;
#893 = VECTOR ( 'NONE', #955, 1000.000000000000000 ) ;
#894 = DIRECTION ( 'NONE',  ( -0.0000000000000000000, 1.000000000000000000, 0.0000000000000000000 ) ) ;
#895 = VECTOR ( 'NONE', #1256, 1000.000000000000000 ) ;
#896 = EDGE_CURVE ( 'NONE', #262, #861, #480, .T. ) ;
#897 = PLANE ( 'NONE',  #4 ) ;
#898 = CARTESIAN_POINT ( 'NONE',  ( 0.5999999999999998700, 0.0000000000000000000, 0.2999999999999999900 ) ) ;
#899 = ADVANCED_FACE ( 'NONE', ( #1302 ), #1223, .F. ) ;
#900 = FILL_AREA_STYLE_COLOUR ( '', #1268 ) ;
#901 = EDGE_LOOP ( 'NONE', ( #744, #639, #1267, #1350 ) ) ;
#902 = ORIENTED_EDGE ( 'NONE', *, *, #579, .T. ) ;
#903 = CARTESIAN_POINT ( 'NONE',  ( 0.1499999999999999400, 0.02000000000000000700, 0.2999999999999999900 ) ) ;
#904 = CARTESIAN_POINT ( 'NONE',  ( -0.7800000000000000300, 0.0000000000000000000, 0.2999999999999999900 ) ) ;
#905 = CARTESIAN_POINT ( 'NONE',  ( 0.1500000000000000200, -0.6708203932499370300, 0.2999999999999999900 ) ) ;
#906 = DIRECTION ( 'NONE',  ( -1.210047067506144200E-016, 1.000000000000000000, 0.0000000000000000000 ) ) ;
#907 = DIRECTION ( 'NONE',  ( 0.0000000000000000000, 0.0000000000000000000, 1.000000000000000000 ) ) ;
#908 = CARTESIAN_POINT ( 'NONE',  ( 0.5000000000000000000, 0.0000000000000000000, -0.2999999999999999900 ) ) ;
#909 = ORIENTED_EDGE ( 'NONE', *, *, #200, .F. ) ;
#910 = EDGE_CURVE ( 'NONE', #416, #296, #518, .T. ) ;
#911 = CARTESIAN_POINT ( 'NONE',  ( 0.5000000000000000000, 0.01999999999999994100, 0.2999999999999999900 ) ) ;
#912 = FACE_OUTER_BOUND ( 'NONE', #747, .T. ) ;
#913 = FACE_OUTER_BOUND ( 'NONE', #185, .T. ) ;
#914 = PLANE ( 'NONE',  #959 ) ;
#915 = DIRECTION ( 'NONE',  ( -1.000000000000000000, 0.0000000000000000000, -0.0000000000000000000 ) ) ;
#916 = LINE ( 'NONE', #604, #291 ) ;
#917 = DIRECTION ( 'NONE',  ( -0.0000000000000000000, -0.0000000000000000000, 1.000000000000000000 ) ) ;
#918 = AXIS2_PLACEMENT_3D ( 'NONE', #1387, #1265, #517 ) ;
#919 = ORIENTED_EDGE ( 'NONE', *, *, #1188, .T. ) ;
#920 = DIRECTION ( 'NONE',  ( 1.000000000000000000, 1.222324245282928100E-016, 0.0000000000000000000 ) ) ;
#921 = LINE ( 'NONE', #1231, #636 ) ;
#922 = ORIENTED_EDGE ( 'NONE', *, *, #26, .F. ) ;
#923 = DIRECTION ( 'NONE',  ( 1.000000000000000000, -0.0000000000000000000, 0.0000000000000000000 ) ) ;
#924 = EDGE_LOOP ( 'NONE', ( #1055, #39, #442, #318 ) ) ;
#925 = ORIENTED_EDGE ( 'NONE', *, *, #20, .T. ) ;
#926 = CARTESIAN_POINT ( 'NONE',  ( 0.7800000000000000300, 0.4799999999999999800, -2.142281194606295600 ) ) ;
#927 = DIRECTION ( 'NONE',  ( 0.0000000000000000000, -0.0000000000000000000, -1.000000000000000000 ) ) ;
#928 =( GEOMETRIC_REPRESENTATION_CONTEXT ( 3 ) GLOBAL_UNCERTAINTY_ASSIGNED_CONTEXT ( ( #1333 ) ) GLOBAL_UNIT_ASSIGNED_CONTEXT ( ( #97, #932, #715 ) ) REPRESENTATION_CONTEXT ( 'NONE', 'WORKASPACE' ) );
#929 = DIRECTION ( 'NONE',  ( 0.0000000000000000000, -0.0000000000000000000, -1.000000000000000000 ) ) ;
#930 = APPLICATION_PROTOCOL_DEFINITION ( 'draft international standard', 'automotive_design', 1998, #1043 ) ;
#931 = ORIENTED_EDGE ( 'NONE', *, *, #1065, .T. ) ;
#932 =( NAMED_UNIT ( * ) PLANE_ANGLE_UNIT ( ) SI_UNIT ( $, .RADIAN. ) );
#933 = CARTESIAN_POINT ( 'NONE',  ( 0.0000000000000000000, 0.01999999999999998000, 0.2999999999999999900 ) ) ;
#934 = EDGE_CURVE ( 'NONE', #1175, #184, #1019, .T. ) ;
#935 = FACE_OUTER_BOUND ( 'NONE', #1190, .T. ) ;
#936 = APPLICATION_CONTEXT ( 'automotive_design' ) ;
#937 = LINE ( 'NONE', #115, #412 ) ;
#938 = LINE ( 'NONE', #368, #647 ) ;
#939 = CARTESIAN_POINT ( 'NONE',  ( 0.5999999999999998700, 0.4999999999999998900, 0.2999999999999999900 ) ) ;
#940 = UNCERTAINTY_MEASURE_WITH_UNIT (LENGTH_MEASURE( 1.000000000000000100E-005 ), #653, 'distance_accuracy_value', 'NONE');
#941 = LINE ( 'NONE', #1392, #182 ) ;
#942 = ORIENTED_EDGE ( 'NONE', *, *, #83, .F. ) ;
#943 = ORIENTED_EDGE ( 'NONE', *, *, #771, .F. ) ;
#944 =( GEOMETRIC_REPRESENTATION_CONTEXT ( 3 ) GLOBAL_UNCERTAINTY_ASSIGNED_CONTEXT ( ( #575 ) ) GLOBAL_UNIT_ASSIGNED_CONTEXT ( ( #1367, #84, #819 ) ) REPRESENTATION_CONTEXT ( 'NONE', 'WORKASPACE' ) );
#945 = CARTESIAN_POINT ( 'NONE',  ( -0.1884151312003131400, 0.02099999999999997700, -0.2999999999999999300 ) ) ;
#946 = EDGE_CURVE ( 'NONE', #67, #682, #739, .T. ) ;
#947 = DIRECTION ( 'NONE',  ( 1.000000000000000000, 1.210047067506144200E-016, -0.0000000000000000000 ) ) ;
#948 = DIRECTION ( 'NONE',  ( 1.000000000000000000, 0.0000000000000000000, -0.0000000000000000000 ) ) ;
#949 = DIRECTION ( 'NONE',  ( -0.0000000000000000000, -0.0000000000000000000, -1.000000000000000000 ) ) ;
#950 = EDGE_CURVE ( 'NONE', #772, #357, #766, .T. ) ;
#951 = DIRECTION ( 'NONE',  ( -1.000000000000000000, 0.0000000000000000000, -0.0000000000000000000 ) ) ;
#952 = VERTEX_POINT ( 'NONE', #1117 ) ;
#953 = DIRECTION ( 'NONE',  ( -0.0000000000000000000, 0.0000000000000000000, 1.000000000000000000 ) ) ;
#954 = LINE ( 'NONE', #1133, #385 ) ;
#955 = DIRECTION ( 'NONE',  ( -0.0000000000000000000, 1.000000000000000000, 0.0000000000000000000 ) ) ;
#956 = FACE_OUTER_BOUND ( 'NONE', #561, .T. ) ;
#957 = DIRECTION ( 'NONE',  ( -1.000000000000000000, -0.0000000000000000000, 0.0000000000000000000 ) ) ;
#958 = FACE_OUTER_BOUND ( 'NONE', #961, .T. ) ;
#959 = AXIS2_PLACEMENT_3D ( 'NONE', #68, #1235, #489 ) ;
#960 = DIRECTION ( 'NONE',  ( 1.129377263005734100E-016, -1.000000000000000000, 0.0000000000000000000 ) ) ;
#961 = EDGE_LOOP ( 'NONE', ( #687, #1107, #841, #565 ) ) ;
#962 = VERTEX_POINT ( 'NONE', #285 ) ;
#963 = EDGE_LOOP ( 'NONE', ( #1378, #102, #989, #468 ) ) ;
#964 = ORIENTED_EDGE ( 'NONE', *, *, #666, .F. ) ;
#965 = EDGE_CURVE ( 'NONE', #541, #627, #138, .T. ) ;
#966 = DIRECTION ( 'NONE',  ( 0.0000000000000000000, -0.0000000000000000000, -1.000000000000000000 ) ) ;
#967 = CARTESIAN_POINT ( 'NONE',  ( -0.2919601142268621900, 1.000000000000000000, -0.2999999999999999300 ) ) ;
#968 = ORIENTED_EDGE ( 'NONE', *, *, #1053, .F. ) ;
#969 = VECTOR ( 'NONE', #871, 1000.000000000000000 ) ;
#970 = LINE ( 'NONE', #516, #895 ) ;
#971 = ORIENTED_EDGE ( 'NONE', *, *, #1212, .F. ) ;
#972 = ORIENTED_EDGE ( 'NONE', *, *, #1001, .T. ) ;
#973 = LINE ( 'NONE', #748, #441 ) ;
#974 = AXIS2_PLACEMENT_3D ( 'NONE', #1128, #384, #1353 ) ;
#975 = EDGE_CURVE ( 'NONE', #607, #764, #424, .T. ) ;
#976 = ORIENTED_EDGE ( 'NONE', *, *, #551, .T. ) ;
#977 = CARTESIAN_POINT ( 'NONE',  ( 0.7999999999999999300, 0.0000000000000000000, -0.2999999999999999900 ) ) ;
#978 = PRESENTATION_STYLE_ASSIGNMENT (( #1226 ) ) ;
#979 = DIRECTION ( 'NONE',  ( 0.0000000000000000000, 0.0000000000000000000, -1.000000000000000000 ) ) ;
#980 = FACE_OUTER_BOUND ( 'NONE', #743, .T. ) ;
#981 = LINE ( 'NONE', #685, #387 ) ;
#982 = EDGE_CURVE ( 'NONE', #881, #16, #954, .T. ) ;
#983 = DIRECTION ( 'NONE',  ( 0.0000000000000000000, -1.000000000000000000, 0.0000000000000000000 ) ) ;
#984 = VECTOR ( 'NONE', #423, 1000.000000000000000 ) ;
#985 = EDGE_CURVE ( 'NONE', #764, #541, #656, .T. ) ;
#986 = EDGE_LOOP ( 'NONE', ( #889, #395, #397, #523 ) ) ;
#987 = EDGE_LOOP ( 'NONE', ( #805, #1150, #1260, #721 ) ) ;
#988 = DIRECTION ( 'NONE',  ( 0.0000000000000000000, 0.0000000000000000000, -1.000000000000000000 ) ) ;
#989 = ORIENTED_EDGE ( 'NONE', *, *, #1394, .T. ) ;
#990 = VERTEX_POINT ( 'NONE', #48 ) ;
#991 = CARTESIAN_POINT ( 'NONE',  ( -0.1884151312003131400, 0.0000000000000000000, 0.2999999999999999900 ) ) ;
#992 = ADVANCED_FACE ( 'NONE', ( #628 ), #69, .T. ) ;
#993 = CLOSED_SHELL ( 'NONE', ( #1098, #268, #568, #36, #43, #1224, #484, #559, #886, #782 ) ) ;
#994 = CARTESIAN_POINT ( 'NONE',  ( 0.1500000000000000200, -0.6708203932499370300, 0.2999999999999999900 ) ) ;
#995 = CARTESIAN_POINT ( 'NONE',  ( -0.7800000000000000300, 0.01999999999999990700, 0.2999999999999999300 ) ) ;
#996 = LINE ( 'NONE', #769, #714 ) ;
#997 = SURFACE_STYLE_FILL_AREA ( #846 ) ;
#998 = VECTOR ( 'NONE', #1124, 1000.000000000000000 ) ;
#999 = ADVANCED_FACE ( 'NONE', ( #980 ), #577, .F. ) ;
#1000 = DIRECTION ( 'NONE',  ( 0.0000000000000000000, 0.0000000000000000000, 1.000000000000000000 ) ) ;
#1001 = EDGE_CURVE ( 'NONE', #165, #1045, #1170, .T. ) ;
#1002 = VERTEX_POINT ( 'NONE', #1227 ) ;
#1003 = PRESENTATION_STYLE_ASSIGNMENT (( #506 ) ) ;
#1004 = VECTOR ( 'NONE', #1282, 1000.000000000000000 ) ;
#1005 = DIRECTION ( 'NONE',  ( -1.000000000000000000, 2.041077998578922300E-016, 0.0000000000000000000 ) ) ;
#1006 = ORIENTED_EDGE ( 'NONE', *, *, #529, .T. ) ;
#1007 = CARTESIAN_POINT ( 'NONE',  ( 0.0000000000000000000, 0.4799999999999999800, 0.2999999999999999900 ) ) ;
#1008 = ADVANCED_FACE ( 'NONE', ( #912 ), #1120, .F. ) ;
#1009 = CARTESIAN_POINT ( 'NONE',  ( -0.7800000000000000300, 0.4799999999999999800, 0.2999999999999999900 ) ) ;
#1010 = AXIS2_PLACEMENT_3D ( 'NONE', #70, #1033, #392 ) ;
#1011 = DIRECTION ( 'NONE',  ( -1.000000000000000000, 0.0000000000000000000, -0.0000000000000000000 ) ) ;
#1012 = EDGE_CURVE ( 'NONE', #649, #10, #321, .T. ) ;
#1013 = CARTESIAN_POINT ( 'NONE',  ( -0.5000000000000000000, 0.01999999999999993100, 0.2999999999999999900 ) ) ;
#1014 = ORIENTED_EDGE ( 'NONE', *, *, #63, .F. ) ;
#1015 = LINE ( 'NONE', #1007, #737 ) ;
#1016 = CARTESIAN_POINT ( 'NONE',  ( 0.5000000000000000000, -6.117084801860314800E-017, 0.2999999999999999900 ) ) ;
#1017 = CARTESIAN_POINT ( 'NONE',  ( 0.0000000000000000000, 0.01999999999999990700, -0.2999999999999999900 ) ) ;
#1018 = ADVANCED_FACE ( 'NONE', ( #875 ), #53, .F. ) ;
#1019 = LINE ( 'NONE', #812, #449 ) ;
#1020 = DIRECTION ( 'NONE',  ( -0.0000000000000000000, -1.000000000000000000, -0.0000000000000000000 ) ) ;
#1021 = LINE ( 'NONE', #697, #219 ) ;
#1022 = EDGE_CURVE ( 'NONE', #990, #458, #850, .T. ) ;
#1023 = PLANE ( 'NONE',  #1091 ) ;
#1024 = DIRECTION ( 'NONE',  ( 1.222324245282928100E-016, -1.000000000000000000, 0.0000000000000000000 ) ) ;
#1025 = DIRECTION ( 'NONE',  ( -1.210047067506144200E-016, -1.000000000000000000, 0.0000000000000000000 ) ) ;
#1026 = ORIENTED_EDGE ( 'NONE', *, *, #151, .T. ) ;
#1027 = EDGE_LOOP ( 'NONE', ( #80, #632, #1308, #1313 ) ) ;
#1028 = ORIENTED_EDGE ( 'NONE', *, *, #1264, .F. ) ;
#1029 = ORIENTED_EDGE ( 'NONE', *, *, #1332, .F. ) ;
#1030 = DIRECTION ( 'NONE',  ( 0.0000000000000000000, 0.0000000000000000000, -1.000000000000000000 ) ) ;
#1031 = CARTESIAN_POINT ( 'NONE',  ( 0.0000000000000000000, 0.4999999999999998900, 0.2999999999999999900 ) ) ;
#1032 = CARTESIAN_POINT ( 'NONE',  ( 0.0000000000000000000, 0.4799999999999999800, -0.2999999999999999900 ) ) ;
#1033 = DIRECTION ( 'NONE',  ( -2.041077998578922300E-016, 1.000000000000000000, 0.0000000000000000000 ) ) ;
#1034 = CARTESIAN_POINT ( 'NONE',  ( -2.565653197316470500E-018, 0.02100000000000000100, -0.2999999999999999300 ) ) ;
#1035 = DIRECTION ( 'NONE',  ( -1.000000000000000000, 0.0000000000000000000, -0.0000000000000000000 ) ) ;
#1036 = CARTESIAN_POINT ( 'NONE',  ( -2.565653197316470500E-018, 0.02100000000000000100, 0.0000000000000000000 ) ) ;
#1037 = VERTEX_POINT ( 'NONE', #794 ) ;
#1038 = EDGE_CURVE ( 'NONE', #430, #1072, #555, .T. ) ;
#1039 = VECTOR ( 'NONE', #160, 1000.000000000000000 ) ;
#1040 = PLANE ( 'NONE',  #585 ) ;
#1041 = PLANE ( 'NONE',  #1361 ) ;
#1042 = VECTOR ( 'NONE', #190, 1000.000000000000000 ) ;
#1043 = APPLICATION_CONTEXT ( 'automotive_design' ) ;
#1044 = AXIS2_PLACEMENT_3D ( 'NONE', #1090, #24, #1309 ) ;
#1045 = VERTEX_POINT ( 'NONE', #903 ) ;
#1046 = PLANE ( 'NONE',  #1146 ) ;
#1047 = FACE_OUTER_BOUND ( 'NONE', #1281, .T. ) ;
#1048 = DIRECTION ( 'NONE',  ( 1.000000000000000000, 0.0000000000000000000, -0.0000000000000000000 ) ) ;
#1049 = DIRECTION ( 'NONE',  ( 0.0000000000000000000, -0.0000000000000000000, -1.000000000000000000 ) ) ;
#1050 = MANIFOLD_SOLID_BREP ( 'Boss-Extrude1[1]', #993 ) ;
#1051 = ORIENTED_EDGE ( 'NONE', *, *, #1275, .T. ) ;
#1052 = AXIS2_PLACEMENT_3D ( 'NONE', #1358, #818, #1343 ) ;
#1053 = EDGE_CURVE ( 'NONE', #1230, #10, #27, .T. ) ;
#1054 = DIRECTION ( 'NONE',  ( 1.210047067506144200E-016, -1.000000000000000000, 0.0000000000000000000 ) ) ;
#1055 = ORIENTED_EDGE ( 'NONE', *, *, #642, .F. ) ;
#1056 = CIRCLE ( 'NONE', #158, 0.5929241440768355800 ) ;
#1057 = VECTOR ( 'NONE', #267, 1000.000000000000000 ) ;
#1058 = FACE_OUTER_BOUND ( 'NONE', #1105, .T. ) ;
#1059 = PLANE ( 'NONE',  #558 ) ;
#1060 = PLANE ( 'NONE',  #777 ) ;
#1061 = CARTESIAN_POINT ( 'NONE',  ( -0.7800000000000000300, 0.01999999999999990700, -2.142281194606295600 ) ) ;
#1062 = ORIENTED_EDGE ( 'NONE', *, *, #456, .F. ) ;
#1063 = ORIENTED_EDGE ( 'NONE', *, *, #611, .T. ) ;
#1064 = VERTEX_POINT ( 'NONE', #569 ) ;
#1065 = EDGE_CURVE ( 'NONE', #603, #962, #996, .T. ) ;
#1066 = CARTESIAN_POINT ( 'NONE',  ( 0.1499999999999999700, -2.111059283390750900E-016, 0.2999999999999999900 ) ) ;
#1067 = ORIENTED_EDGE ( 'NONE', *, *, #215, .T. ) ;
#1068 = FILL_AREA_STYLE_COLOUR ( '', #336 ) ;
#1069 = PLANE ( 'NONE',  #631 ) ;
#1070 = CARTESIAN_POINT ( 'NONE',  ( -0.5999999999999998700, 0.4999999999999998900, -0.2999999999999999900 ) ) ;
#1071 = AXIS2_PLACEMENT_3D ( 'NONE', #839, #947, #209 ) ;
#1072 = VERTEX_POINT ( 'NONE', #47 ) ;
#1073 = FACE_OUTER_BOUND ( 'NONE', #986, .T. ) ;
#1074 = VECTOR ( 'NONE', #710, 1000.000000000000000 ) ;
#1075 = ORIENTED_EDGE ( 'NONE', *, *, #785, .F. ) ;
#1076 = VECTOR ( 'NONE', #753, 1000.000000000000000 ) ;
#1077 = ORIENTED_EDGE ( 'NONE', *, *, #681, .F. ) ;
#1078 = ORIENTED_EDGE ( 'NONE', *, *, #376, .F. ) ;
#1079 = EDGE_CURVE ( 'NONE', #281, #952, #1134, .T. ) ;
#1080 = FACE_OUTER_BOUND ( 'NONE', #1243, .T. ) ;
#1081 = EDGE_CURVE ( 'NONE', #262, #458, #437, .T. ) ;
#1082 = FACE_OUTER_BOUND ( 'NONE', #226, .T. ) ;
#1083 = LINE ( 'NONE', #197, #799 ) ;
#1084 = DIRECTION ( 'NONE',  ( -0.0000000000000000000, -0.0000000000000000000, -1.000000000000000000 ) ) ;
#1085 = ORIENTED_EDGE ( 'NONE', *, *, #9, .F. ) ;
#1086 = EDGE_CURVE ( 'NONE', #116, #1045, #287, .T. ) ;
#1087 = VERTEX_POINT ( 'NONE', #464 ) ;
#1088 = PLANE ( 'NONE',  #290 ) ;
#1089 = ORIENTED_EDGE ( 'NONE', *, *, #1022, .T. ) ;
#1090 = CARTESIAN_POINT ( 'NONE',  ( -2.420094135012289200E-018, 0.02000000000000000000, -2.142281194606295600 ) ) ;
#1091 = AXIS2_PLACEMENT_3D ( 'NONE', #1126, #495, #907 ) ;
#1092 = CARTESIAN_POINT ( 'NONE',  ( -0.7999999999999999300, 0.0000000000000000000, -0.2999999999999999900 ) ) ;
#1093 = ORIENTED_EDGE ( 'NONE', *, *, #1248, .T. ) ;
#1094 = PLANE ( 'NONE',  #758 ) ;
#1095 = DIRECTION ( 'NONE',  ( -1.000000000000000000, -0.0000000000000000000, 0.0000000000000000000 ) ) ;
#1096 = SURFACE_STYLE_FILL_AREA ( #122 ) ;
#1097 = FACE_OUTER_BOUND ( 'NONE', #1161, .T. ) ;
#1098 = ADVANCED_FACE ( 'NONE', ( #406 ), #1094, .F. ) ;
#1099 = DIRECTION ( 'NONE',  ( 0.0000000000000000000, -1.000000000000000000, -0.0000000000000000000 ) ) ;
#1100 = FACE_OUTER_BOUND ( 'NONE', #263, .T. ) ;
#1101 = EDGE_CURVE ( 'NONE', #334, #488, #1208, .T. ) ;
#1102 = EDGE_LOOP ( 'NONE', ( #976, #707, #245, #1250, #326, #1144, #571, #1311, #602, #345, #859, #803 ) ) ;
#1103 = ORIENTED_EDGE ( 'NONE', *, *, #982, .F. ) ;
#1104 = ORIENTED_EDGE ( 'NONE', *, *, #869, .F. ) ;
#1105 = EDGE_LOOP ( 'NONE', ( #1122, #1207, #1198, #204 ) ) ;
#1106 = ADVANCED_FACE ( 'NONE', ( #935 ), #654, .F. ) ;
#1107 = ORIENTED_EDGE ( 'NONE', *, *, #1012, .F. ) ;
#1108 = DIRECTION ( 'NONE',  ( 2.041077998578922300E-016, 1.000000000000000000, -0.0000000000000000000 ) ) ;
#1109 = DIRECTION ( 'NONE',  ( 0.0000000000000000000, 0.0000000000000000000, 1.000000000000000000 ) ) ;
#1110 = ADVANCED_FACE ( 'NONE', ( #152 ), #1193, .F. ) ;
#1111 = CARTESIAN_POINT ( 'NONE',  ( 0.0000000000000000000, 1.000000000000000000, -0.2999999999999999300 ) ) ;
#1112 = EDGE_CURVE ( 'NONE', #682, #638, #90, .T. ) ;
#1113 = VECTOR ( 'NONE', #894, 1000.000000000000000 ) ;
#1114 = VECTOR ( 'NONE', #1149, 1000.000000000000000 ) ;
#1115 = CARTESIAN_POINT ( 'NONE',  ( -0.1500000000000000200, -1.415877347254579300E-016, 0.2999999999999999900 ) ) ;
#1116 = CARTESIAN_POINT ( 'NONE',  ( -0.4656027761392351700, -0.6409334236568655600, 0.2999999999999999900 ) ) ;
#1117 = CARTESIAN_POINT ( 'NONE',  ( 0.5999999999999998700, 0.4799999999999999800, -0.2999999999999999300 ) ) ;
#1118 = CARTESIAN_POINT ( 'NONE',  ( 0.7800000000000000300, 0.4799999999999999800, 0.2999999999999999300 ) ) ;
#1119 = ADVANCED_FACE ( 'NONE', ( #891 ), #776, .T. ) ;
#1120 = PLANE ( 'NONE',  #1187 ) ;
#1121 = DIRECTION ( 'NONE',  ( -1.000000000000000000, -0.0000000000000000000, 0.0000000000000000000 ) ) ;
#1122 = ORIENTED_EDGE ( 'NONE', *, *, #126, .T. ) ;
#1123 = AXIS2_PLACEMENT_3D ( 'NONE', #193, #811, #74 ) ;
#1124 = DIRECTION ( 'NONE',  ( 0.0000000000000000000, 0.0000000000000000000, 1.000000000000000000 ) ) ;
#1125 = DIRECTION ( 'NONE',  ( -1.000000000000000000, 2.041077998578922300E-016, 0.0000000000000000000 ) ) ;
#1126 = CARTESIAN_POINT ( 'NONE',  ( -0.7800000000000000300, 0.01999999999999990700, 0.2999999999999999900 ) ) ;
#1127 = DIRECTION ( 'NONE',  ( 1.000000000000000000, -0.0000000000000000000, 0.0000000000000000000 ) ) ;
#1128 = CARTESIAN_POINT ( 'NONE',  ( 0.007075855923164228900, 0.4800000000000000400, -2.142281194606295600 ) ) ;
#1129 = EDGE_CURVE ( 'NONE', #1141, #607, #362, .T. ) ;
#1130 = CARTESIAN_POINT ( 'NONE',  ( 0.7999999999999999300, 0.0000000000000000000, 0.2999999999999999900 ) ) ;
#1131 = ORIENTED_EDGE ( 'NONE', *, *, #376, .T. ) ;
#1132 = PLANE ( 'NONE',  #746 ) ;
#1133 = CARTESIAN_POINT ( 'NONE',  ( -0.2919601142268621300, 1.000000000000000000, -2.142281194606295600 ) ) ;
#1134 = LINE ( 'NONE', #252, #1286 ) ;
#1135 = CARTESIAN_POINT ( 'NONE',  ( -0.7800000000000000300, 0.0000000000000000000, -0.2999999999999999900 ) ) ;
#1136 = LINE ( 'NONE', #547, #851 ) ;
#1137 = FACE_OUTER_BOUND ( 'NONE', #1219, .T. ) ;
#1138 = DIRECTION ( 'NONE',  ( -0.0000000000000000000, 1.000000000000000000, 0.0000000000000000000 ) ) ;
#1139 = DIRECTION ( 'NONE',  ( 1.000000000000000000, 0.0000000000000000000, 0.0000000000000000000 ) ) ;
#1140 = DIRECTION ( 'NONE',  ( -0.0000000000000000000, -1.000000000000000000, -0.0000000000000000000 ) ) ;
#1141 = VERTEX_POINT ( 'NONE', #554 ) ;
#1142 = VECTOR ( 'NONE', #595, 1000.000000000000000 ) ;
#1143 = ORIENTED_EDGE ( 'NONE', *, *, #1354, .F. ) ;
#1144 = ORIENTED_EDGE ( 'NONE', *, *, #946, .T. ) ;
#1145 = ORIENTED_EDGE ( 'NONE', *, *, #20, .F. ) ;
#1146 = AXIS2_PLACEMENT_3D ( 'NONE', #1036, #1024, #692 ) ;
#1147 = DIRECTION ( 'NONE',  ( 1.000000000000000000, 1.210047067506144200E-016, -0.0000000000000000000 ) ) ;
#1148 = SURFACE_SIDE_STYLE ('',( #1292 ) ) ;
#1149 = DIRECTION ( 'NONE',  ( -1.000000000000000000, -1.210047067506144200E-016, 0.0000000000000000000 ) ) ;
#1150 = ORIENTED_EDGE ( 'NONE', *, *, #1053, .T. ) ;
#1151 = EDGE_CURVE ( 'NONE', #761, #416, #612, .T. ) ;
#1152 = LINE ( 'NONE', #991, #308 ) ;
#1153 = VECTOR ( 'NONE', #849, 1000.000000000000000 ) ;
#1154 = DIRECTION ( 'NONE',  ( 0.0000000000000000000, -0.0000000000000000000, 1.000000000000000000 ) ) ;
#1155 = LINE ( 'NONE', #210, #893 ) ;
#1156 = CARTESIAN_POINT ( 'NONE',  ( -2.420094135012289200E-018, 0.02000000000000000000, -0.2999999999999999300 ) ) ;
#1157 = STYLED_ITEM ( 'NONE', ( #1003 ), #338 ) ;
#1158 = EDGE_CURVE ( 'NONE', #962, #608, #335, .T. ) ;
#1159 = PLANE ( 'NONE',  #1071 ) ;
#1160 = EDGE_LOOP ( 'NONE', ( #354, #135, #202, #282 ) ) ;
#1161 = EDGE_LOOP ( 'NONE', ( #1077, #143, #670, #1310 ) ) ;
#1162 = PLANE ( 'NONE',  #433 ) ;
#1163 =( LENGTH_UNIT ( ) NAMED_UNIT ( * ) SI_UNIT ( .MILLI., .METRE. ) );
#1164 = EDGE_CURVE ( 'NONE', #184, #67, #1152, .T. ) ;
#1165 = CARTESIAN_POINT ( 'NONE',  ( 0.5000000000000000000, 0.01999999999999994100, 0.2999999999999999900 ) ) ;
#1166 = EDGE_LOOP ( 'NONE', ( #542, #872, #665, #708 ) ) ;
#1167 = CARTESIAN_POINT ( 'NONE',  ( 0.0000000000000000000, 0.01999999999999990700, -0.2999999999999999900 ) ) ;
#1168 = DIRECTION ( 'NONE',  ( 1.000000000000000000, 0.0000000000000000000, 0.0000000000000000000 ) ) ;
#1169 = LINE ( 'NONE', #175, #873 ) ;
#1170 = LINE ( 'NONE', #179, #348 ) ;
#1171 = LINE ( 'NONE', #787, #590 ) ;
#1172 = ORIENTED_EDGE ( 'NONE', *, *, #169, .T. ) ;
#1173 = LINE ( 'NONE', #724, #878 ) ;
#1174 = CARTESIAN_POINT ( 'NONE',  ( -0.7999999999999999300, 0.0000000000000000000, 0.2999999999999999900 ) ) ;
#1175 = VERTEX_POINT ( 'NONE', #355 ) ;
#1176 = VECTOR ( 'NONE', #917, 1000.000000000000000 ) ;
#1177 = VERTEX_POINT ( 'NONE', #1204 ) ;
#1178 = VERTEX_POINT ( 'NONE', #560 ) ;
#1179 = EDGE_CURVE ( 'NONE', #1178, #627, #545, .T. ) ;
#1180 = ORIENTED_EDGE ( 'NONE', *, *, #436, .T. ) ;
#1181 = ORIENTED_EDGE ( 'NONE', *, *, #1112, .T. ) ;
#1182 = AXIS2_PLACEMENT_3D ( 'NONE', #552, #988, #350 ) ;
#1183 = VECTOR ( 'NONE', #248, 1000.000000000000000 ) ;
#1184 = VECTOR ( 'NONE', #949, 1000.000000000000000 ) ;
#1185 = FACE_OUTER_BOUND ( 'NONE', #21, .T. ) ;
#1186 = UNCERTAINTY_MEASURE_WITH_UNIT (LENGTH_MEASURE( 1.000000000000000100E-005 ), #1163, 'distance_accuracy_value', 'NONE');
#1187 = AXIS2_PLACEMENT_3D ( 'NONE', #1336, #791, #690 ) ;
#1188 = EDGE_CURVE ( 'NONE', #1291, #334, #17, .T. ) ;
#1189 = CARTESIAN_POINT ( 'NONE',  ( -0.1884151312003131400, 0.02099999999999997400, 0.2999999999999999300 ) ) ;
#1190 = EDGE_LOOP ( 'NONE', ( #1103, #145, #223, #695 ) ) ;
#1191 = CARTESIAN_POINT ( 'NONE',  ( 0.5999999999999998700, 0.4799999999999999800, -0.2999999999999999900 ) ) ;
#1192 = CARTESIAN_POINT ( 'NONE',  ( -0.5999999999999998700, 0.0000000000000000000, 0.2999999999999999900 ) ) ;
#1193 = PLANE ( 'NONE',  #1044 ) ;
#1194 = EDGE_CURVE ( 'NONE', #990, #227, #833, .T. ) ;
#1195 = VECTOR ( 'NONE', #1140, 1000.000000000000000 ) ;
#1196 = FACE_OUTER_BOUND ( 'NONE', #1166, .T. ) ;
#1197 = LINE ( 'NONE', #205, #112 ) ;
#1198 = ORIENTED_EDGE ( 'NONE', *, *, #544, .F. ) ;
#1199 = AXIS2_PLACEMENT_3D ( 'NONE', #98, #514, #1154 ) ;
#1200 = FACE_OUTER_BOUND ( 'NONE', #258, .T. ) ;
#1201 = VERTEX_POINT ( 'NONE', #995 ) ;
#1202 = ORIENTED_EDGE ( 'NONE', *, *, #1194, .F. ) ;
#1203 = ORIENTED_EDGE ( 'NONE', *, *, #113, .T. ) ;
#1204 = CARTESIAN_POINT ( 'NONE',  ( -0.5999999999999998700, 0.4799999999999999800, 0.2999999999999999300 ) ) ;
#1205 = STYLED_ITEM ( 'NONE', ( #717 ), #788 ) ;
#1206 = ADVANCED_FACE ( 'NONE', ( #1080 ), #149, .F. ) ;
#1207 = ORIENTED_EDGE ( 'NONE', *, *, #485, .F. ) ;
#1208 = LINE ( 'NONE', #137, #969 ) ;
#1209 = LINE ( 'NONE', #898, #1039 ) ;
#1210 = CARTESIAN_POINT ( 'NONE',  ( -0.4656027761392351700, 0.01999999999999994500, -2.142281194606295600 ) ) ;
#1211 = LINE ( 'NONE', #472, #96 ) ;
#1212 = EDGE_CURVE ( 'NONE', #493, #352, #796, .T. ) ;
#1213 = ADVANCED_FACE ( 'NONE', ( #1338 ), #154, .T. ) ;
#1214 = DIRECTION ( 'NONE',  ( -0.0000000000000000000, 0.0000000000000000000, 1.000000000000000000 ) ) ;
#1215 = DIRECTION ( 'NONE',  ( -0.0000000000000000000, 0.0000000000000000000, -1.000000000000000000 ) ) ;
#1216 = CARTESIAN_POINT ( 'NONE',  ( -0.5999999999999998700, 0.0000000000000000000, -0.2999999999999999900 ) ) ;
#1217 = VECTOR ( 'NONE', #221, 1000.000000000000000 ) ;
#1218 = DIRECTION ( 'NONE',  ( -1.000000000000000000, 0.0000000000000000000, -0.0000000000000000000 ) ) ;
#1219 = EDGE_LOOP ( 'NONE', ( #244, #1203, #655, #492, #332, #1240, #1372, #235 ) ) ;
#1220 = DIRECTION ( 'NONE',  ( -0.0000000000000000000, -0.0000000000000000000, 1.000000000000000000 ) ) ;
#1221 = PRESENTATION_LAYER_ASSIGNMENT (  '', '', ( #1157 ) ) ;
#1222 = CARTESIAN_POINT ( 'NONE',  ( -0.5999999999999998700, 0.4799999999999999800, 0.2999999999999999900 ) ) ;
#1223 = PLANE ( 'NONE',  #830 ) ;
#1224 = ADVANCED_FACE ( 'NONE', ( #240 ), #41, .F. ) ;
#1225 = EDGE_CURVE ( 'NONE', #1064, #1175, #765, .T. ) ;
#1226 = SURFACE_STYLE_USAGE ( .BOTH. , #478 ) ;
#1227 = CARTESIAN_POINT ( 'NONE',  ( -0.5000000000000000000, -6.110935607983864900E-017, -0.2999999999999999900 ) ) ;
#1228 = CARTESIAN_POINT ( 'NONE',  ( -0.1884151312003131400, 0.0000000000000000000, -0.2999999999999999900 ) ) ;
#1229 = CARTESIAN_POINT ( 'NONE',  ( -0.5000000000000000000, -6.117084801860314800E-017, 0.2999999999999999900 ) ) ;
#1230 = VERTEX_POINT ( 'NONE', #49 ) ;
#1231 = CARTESIAN_POINT ( 'NONE',  ( 0.7999999999999999300, 0.4999999999999998900, 0.2999999999999999900 ) ) ;
#1232 = EDGE_CURVE ( 'NONE', #1064, #253, #515, .T. ) ;
#1233 = VECTOR ( 'NONE', #915, 1000.000000000000000 ) ;
#1234 = VECTOR ( 'NONE', #1220, 1000.000000000000000 ) ;
#1235 = DIRECTION ( 'NONE',  ( 0.0000000000000000000, -1.000000000000000000, 0.0000000000000000000 ) ) ;
#1236 = FACE_OUTER_BOUND ( 'NONE', #963, .T. ) ;
#1237 = PLANE ( 'NONE',  #865 ) ;
#1238 = ORIENTED_EDGE ( 'NONE', *, *, #265, .F. ) ;
#1239 = CARTESIAN_POINT ( 'NONE',  ( 0.7800000000000000300, 0.01999999999999990700, 0.2999999999999999900 ) ) ;
#1240 = ORIENTED_EDGE ( 'NONE', *, *, #975, .T. ) ;
#1241 = AXIS2_PLACEMENT_3D ( 'NONE', #1009, #167, #792 ) ;
#1242 = CARTESIAN_POINT ( 'NONE',  ( 0.7800000000000000300, 0.4799999999999999800, -0.2999999999999999300 ) ) ;
#1243 = EDGE_LOOP ( 'NONE', ( #909, #1202, #749, #35 ) ) ;
#1244 = ORIENTED_EDGE ( 'NONE', *, *, #965, .F. ) ;
#1245 = CARTESIAN_POINT ( 'NONE',  ( -0.4656027761392351700, 0.02099999999999994600, 0.0000000000000000000 ) ) ;
#1246 = CARTESIAN_POINT ( 'NONE',  ( 0.007075855923164228900, 0.4800000000000000400, -0.2999999999999999300 ) ) ;
#1247 = CARTESIAN_POINT ( 'NONE',  ( -0.2919601142268621900, 1.000000000000000000, 0.2999999999999999300 ) ) ;
#1248 = EDGE_CURVE ( 'NONE', #16, #662, #1056, .T. ) ;
#1249 = FILL_AREA_STYLE_COLOUR ( '', #259 ) ;
#1250 = ORIENTED_EDGE ( 'NONE', *, *, #934, .T. ) ;
#1251 = CARTESIAN_POINT ( 'NONE',  ( -0.4656027761392351700, 0.01999999999999994500, -0.2999999999999999300 ) ) ;
#1252 = CARTESIAN_POINT ( 'NONE',  ( 0.5999999999999998700, 0.4999999999999998900, 0.2999999999999999900 ) ) ;
#1253 = VECTOR ( 'NONE', #157, 1000.000000000000000 ) ;
#1254 =( LENGTH_UNIT ( ) NAMED_UNIT ( * ) SI_UNIT ( .MILLI., .METRE. ) );
#1255 = FACE_OUTER_BOUND ( 'NONE', #381, .T. ) ;
#1256 = DIRECTION ( 'NONE',  ( 0.0000000000000000000, 1.000000000000000000, -0.0000000000000000000 ) ) ;
#1257 = DIRECTION ( 'NONE',  ( 0.0000000000000000000, -1.000000000000000000, -0.0000000000000000000 ) ) ;
#1258 = ORIENTED_EDGE ( 'NONE', *, *, #651, .T. ) ;
#1259 = LINE ( 'NONE', #431, #203 ) ;
#1260 = ORIENTED_EDGE ( 'NONE', *, *, #802, .T. ) ;
#1261 = FILL_AREA_STYLE_COLOUR ( '', #231 ) ;
#1262 = AXIS2_PLACEMENT_3D ( 'NONE', #439, #641, #234 ) ;
#1263 = CARTESIAN_POINT ( 'NONE',  ( -0.1884151312003131400, -0.6409334236568655600, -0.2999999999999999300 ) ) ;
#1264 = EDGE_CURVE ( 'NONE', #773, #1178, #1015, .T. ) ;
#1265 = DIRECTION ( 'NONE',  ( 0.0000000000000000000, 0.0000000000000000000, -1.000000000000000000 ) ) ;
#1266 = ORIENTED_EDGE ( 'NONE', *, *, #411, .F. ) ;
#1267 = ORIENTED_EDGE ( 'NONE', *, *, #869, .T. ) ;
#1268 = COLOUR_RGB ( '',0.0000000000000000000, 1.000000000000000000, 0.0000000000000000000 ) ;
#1269 = AXIS2_PLACEMENT_3D ( 'NONE', #278, #172, #801 ) ;
#1270 = DIRECTION ( 'NONE',  ( -1.000000000000000000, -1.210047067506144200E-016, 0.0000000000000000000 ) ) ;
#1271 = VECTOR ( 'NONE', #601, 1000.000000000000000 ) ;
#1272 = SURFACE_SIDE_STYLE ('',( #997 ) ) ;
#1273 = LINE ( 'NONE', #800, #701 ) ;
#1274 = FACE_OUTER_BOUND ( 'NONE', #924, .T. ) ;
#1275 = EDGE_CURVE ( 'NONE', #16, #77, #212, .T. ) ;
#1276 = DIRECTION ( 'NONE',  ( 0.0000000000000000000, 0.0000000000000000000, 1.000000000000000000 ) ) ;
#1277 = PLANE ( 'NONE',  #1287 ) ;
#1278 = ORIENTED_EDGE ( 'NONE', *, *, #233, .T. ) ;
#1279 = ORIENTED_EDGE ( 'NONE', *, *, #1373, .F. ) ;
#1280 = VERTEX_POINT ( 'NONE', #375 ) ;
#1281 = EDGE_LOOP ( 'NONE', ( #415, #786, #1014, #1389 ) ) ;
#1282 = DIRECTION ( 'NONE',  ( -0.0000000000000000000, 0.0000000000000000000, 1.000000000000000000 ) ) ;
#1283 = AXIS2_PLACEMENT_3D ( 'NONE', #1246, #499, #1139 ) ;
#1284 = ORIENTED_EDGE ( 'NONE', *, *, #1299, .F. ) ;
#1285 = ORIENTED_EDGE ( 'NONE', *, *, #1151, .F. ) ;
#1286 = VECTOR ( 'NONE', #789, 1000.000000000000000 ) ;
#1287 = AXIS2_PLACEMENT_3D ( 'NONE', #526, #301, #414 ) ;
#1288 = FACE_OUTER_BOUND ( 'NONE', #453, .T. ) ;
#1289 = FACE_OUTER_BOUND ( 'NONE', #824, .T. ) ;
#1290 = MANIFOLD_SOLID_BREP ( 'Boss-Extrude4', #38 ) ;
#1291 = VERTEX_POINT ( 'NONE', #272 ) ;
#1292 = SURFACE_STYLE_FILL_AREA ( #405 ) ;
#1293 = LINE ( 'NONE', #530, #1004 ) ;
#1294 = ORIENTED_EDGE ( 'NONE', *, *, #762, .T. ) ;
#1295 = VERTEX_POINT ( 'NONE', #1118 ) ;
#1296 = DIRECTION ( 'NONE',  ( 1.000000000000000000, 0.0000000000000000000, -0.0000000000000000000 ) ) ;
#1297 = MECHANICAL_DESIGN_GEOMETRIC_PRESENTATION_REPRESENTATION (  '', ( #1157 ), #1384 ) ;
#1298 = ORIENTED_EDGE ( 'NONE', *, *, #910, .T. ) ;
#1299 = EDGE_CURVE ( 'NONE', #1178, #553, #1169, .T. ) ;
#1300 = VECTOR ( 'NONE', #369, 1000.000000000000000 ) ;
#1301 = CARTESIAN_POINT ( 'NONE',  ( -0.7999999999999999300, 0.4999999999999998900, -0.2999999999999999900 ) ) ;
#1302 = FACE_OUTER_BOUND ( 'NONE', #901, .T. ) ;
#1303 = LINE ( 'NONE', #583, #178 ) ;
#1304 = SURFACE_STYLE_USAGE ( .BOTH. , #549 ) ;
#1305 = EDGE_CURVE ( 'NONE', #357, #1002, #347, .T. ) ;
#1306 = CARTESIAN_POINT ( 'NONE',  ( -0.1500000000000000200, 0.01999999999999999000, -0.2999999999999999900 ) ) ;
#1307 = VERTEX_POINT ( 'NONE', #1013 ) ;
#1308 = ORIENTED_EDGE ( 'NONE', *, *, #611, .F. ) ;
#1309 = DIRECTION ( 'NONE',  ( -1.000000000000000000, -1.210047067506144200E-016, 0.0000000000000000000 ) ) ;
#1310 = ORIENTED_EDGE ( 'NONE', *, *, #1232, .T. ) ;
#1311 = ORIENTED_EDGE ( 'NONE', *, *, #42, .T. ) ;
#1312 = CARTESIAN_POINT ( 'NONE',  ( 0.7800000000000000300, 0.0000000000000000000, -0.2999999999999999900 ) ) ;
#1313 = ORIENTED_EDGE ( 'NONE', *, *, #1086, .F. ) ;
#1314 = CARTESIAN_POINT ( 'NONE',  ( -0.7999999999999999300, 0.0000000000000000000, 0.2999999999999999900 ) ) ;
#1315 = EDGE_CURVE ( 'NONE', #15, #330, #394, .T. ) ;
#1316 = DIRECTION ( 'NONE',  ( 1.000000000000000000, 0.0000000000000000000, -0.0000000000000000000 ) ) ;
#1317 = EDGE_CURVE ( 'NONE', #329, #603, #921, .T. ) ;
#1318 = LINE ( 'NONE', #742, #363 ) ;
#1319 = ADVANCED_FACE ( 'NONE', ( #78 ), #183, .F. ) ;
#1320 = LINE ( 'NONE', #168, #128 ) ;
#1321 = DIRECTION ( 'NONE',  ( 1.000000000000000000, 1.222324245282928100E-016, 0.0000000000000000000 ) ) ;
#1322 = ORIENTED_EDGE ( 'NONE', *, *, #644, .T. ) ;
#1323 = VECTOR ( 'NONE', #527, 1000.000000000000000 ) ;
#1324 = EDGE_LOOP ( 'NONE', ( #61, #1075, #402, #706 ) ) ;
#1325 = EDGE_LOOP ( 'NONE', ( #164, #534, #548, #1374 ) ) ;
#1326 = AXIS2_PLACEMENT_3D ( 'NONE', #462, #566, #1321 ) ;
#1327 = ADVANCED_FACE ( 'NONE', ( #353 ), #1237, .F. ) ;
#1328 = DIRECTION ( 'NONE',  ( 1.000000000000000000, 1.210047067506144200E-016, 0.0000000000000000000 ) ) ;
#1329 = CARTESIAN_POINT ( 'NONE',  ( -0.7999999999999999300, 0.4999999999999998900, 0.2999999999999999900 ) ) ;
#1330 = AXIS2_PLACEMENT_3D ( 'NONE', #377, #906, #582 ) ;
#1331 = CARTESIAN_POINT ( 'NONE',  ( -0.007075855923164209000, 0.4800000000000000400, -0.2999999999999999300 ) ) ;
#1332 = EDGE_CURVE ( 'NONE', #1087, #1280, #598, .T. ) ;
#1333 = UNCERTAINTY_MEASURE_WITH_UNIT (LENGTH_MEASURE( 1.000000000000000100E-005 ), #97, 'distance_accuracy_value', 'NONE');
#1334 = ORIENTED_EDGE ( 'NONE', *, *, #249, .F. ) ;
#1335 = ADVANCED_FACE ( 'NONE', ( #1200 ), #588, .F. ) ;
#1336 = CARTESIAN_POINT ( 'NONE',  ( 0.7800000000000000300, 0.4799999999999999800, 0.2999999999999999900 ) ) ;
#1337 = CARTESIAN_POINT ( 'NONE',  ( -0.5999999999999998700, 0.4799999999999999800, -0.2999999999999999900 ) ) ;
#1338 = FACE_OUTER_BOUND ( 'NONE', #269, .T. ) ;
#1339 = PLANE ( 'NONE',  #23 ) ;
#1340 = FACE_OUTER_BOUND ( 'NONE', #371, .T. ) ;
#1341 =( NAMED_UNIT ( * ) PLANE_ANGLE_UNIT ( ) SI_UNIT ( $, .RADIAN. ) );
#1342 = VECTOR ( 'NONE', #920, 1000.000000000000000 ) ;
#1343 = DIRECTION ( 'NONE',  ( 1.222324245282928100E-016, -1.000000000000000000, 0.0000000000000000000 ) ) ;
#1344 = DIRECTION ( 'NONE',  ( 0.0000000000000000000, -1.000000000000000000, -0.0000000000000000000 ) ) ;
#1345 = DIRECTION ( 'NONE',  ( 0.0000000000000000000, -1.000000000000000000, -0.0000000000000000000 ) ) ;
#1346 = DIRECTION ( 'NONE',  ( -0.0000000000000000000, -0.0000000000000000000, -1.000000000000000000 ) ) ;
#1347 = CARTESIAN_POINT ( 'NONE',  ( -0.5000000000000000000, -6.123233995736766000E-017, -0.2999999999999999900 ) ) ;
#1348 = ORIENTED_EDGE ( 'NONE', *, *, #360, .F. ) ;
#1349 = ORIENTED_EDGE ( 'NONE', *, *, #860, .F. ) ;
#1350 = ORIENTED_EDGE ( 'NONE', *, *, #1158, .T. ) ;
#1351 = VERTEX_POINT ( 'NONE', #704 ) ;
#1352 = DIRECTION ( 'NONE',  ( 0.0000000000000000000, 0.0000000000000000000, 1.000000000000000000 ) ) ;
#1353 = DIRECTION ( 'NONE',  ( 1.000000000000000000, 0.0000000000000000000, 0.0000000000000000000 ) ) ;
#1354 = EDGE_CURVE ( 'NONE', #563, #165, #327, .T. ) ;
#1355 = DIRECTION ( 'NONE',  ( 0.0000000000000000000, 0.0000000000000000000, 1.000000000000000000 ) ) ;
#1356 = FILL_AREA_STYLE_COLOUR ( '', #365 ) ;
#1357 = DIRECTION ( 'NONE',  ( 0.0000000000000000000, -0.0000000000000000000, 1.000000000000000000 ) ) ;
#1358 = CARTESIAN_POINT ( 'NONE',  ( -0.1884151312003130600, -0.6409334236568655600, -0.2999999999999999300 ) ) ;
#1359 = ORIENTED_EDGE ( 'NONE', *, *, #762, .F. ) ;
#1360 = DIRECTION ( 'NONE',  ( 0.0000000000000000000, 1.000000000000000000, 0.0000000000000000000 ) ) ;
#1361 = AXIS2_PLACEMENT_3D ( 'NONE', #716, #295, #929 ) ;
#1362 = VECTOR ( 'NONE', #829, 1000.000000000000000 ) ;
#1363 =( NAMED_UNIT ( * ) PLANE_ANGLE_UNIT ( ) SI_UNIT ( $, .RADIAN. ) );
#1364 = PLANE ( 'NONE',  #191 ) ;
#1365 = DIRECTION ( 'NONE',  ( 1.000000000000000000, -0.0000000000000000000, 0.0000000000000000000 ) ) ;
#1366 = LINE ( 'NONE', #496, #535 ) ;
#1367 =( LENGTH_UNIT ( ) NAMED_UNIT ( * ) SI_UNIT ( .MILLI., .METRE. ) );
#1368 = ORIENTED_EDGE ( 'NONE', *, *, #666, .T. ) ;
#1369 = DIRECTION ( 'NONE',  ( -0.0000000000000000000, -1.000000000000000000, -0.0000000000000000000 ) ) ;
#1370 = LINE ( 'NONE', #1061, #1076 ) ;
#1371 = PRESENTATION_LAYER_ASSIGNMENT (  '', '', ( #1205 ) ) ;
#1372 = ORIENTED_EDGE ( 'NONE', *, *, #985, .T. ) ;
#1373 = EDGE_CURVE ( 'NONE', #627, #79, #34, .T. ) ;
#1374 = ORIENTED_EDGE ( 'NONE', *, *, #265, .T. ) ;
#1375 =( NAMED_UNIT ( * ) SI_UNIT ( $, .STERADIAN. ) SOLID_ANGLE_UNIT ( ) );
#1376 = CARTESIAN_POINT ( 'NONE',  ( -0.5999999999999998700, 0.4999999999999998900, 0.2999999999999999900 ) ) ;
#1377 = CARTESIAN_POINT ( 'NONE',  ( -2.420094135012289200E-018, 0.02000000000000000000, -0.2999999999999999300 ) ) ;
#1378 = ORIENTED_EDGE ( 'NONE', *, *, #187, .F. ) ;
#1379 = CARTESIAN_POINT ( 'NONE',  ( -0.4656027761392351700, 0.02099999999999994600, 0.0000000000000000000 ) ) ;
#1380 = CARTESIAN_POINT ( 'NONE',  ( -0.5000000000000000000, 0.0000000000000000000, 0.2999999999999999900 ) ) ;
#1381 = VECTOR ( 'NONE', #37, 1000.000000000000000 ) ;
#1382 = LINE ( 'NONE', #610, #798 ) ;
#1383 = FACE_OUTER_BOUND ( 'NONE', #396, .T. ) ;
#1384 =( GEOMETRIC_REPRESENTATION_CONTEXT ( 3 ) GLOBAL_UNCERTAINTY_ASSIGNED_CONTEXT ( ( #103 ) ) GLOBAL_UNIT_ASSIGNED_CONTEXT ( ( #1254, #606, #1375 ) ) REPRESENTATION_CONTEXT ( 'NONE', 'WORKASPACE' ) );
#1385 = CARTESIAN_POINT ( 'NONE',  ( 0.5999999999999998700, 0.4799999999999999800, 0.2999999999999999300 ) ) ;
#1386 = EDGE_CURVE ( 'NONE', #1175, #107, #562, .T. ) ;
#1387 = CARTESIAN_POINT ( 'NONE',  ( -0.1884151312003130600, -0.6409334236568655600, 0.2999999999999999900 ) ) ;
#1388 = DIRECTION ( 'NONE',  ( -0.0000000000000000000, -0.0000000000000000000, 1.000000000000000000 ) ) ;
#1389 = ORIENTED_EDGE ( 'NONE', *, *, #975, .F. ) ;
#1390 = VERTEX_POINT ( 'NONE', #292 ) ;
#1391 = ORIENTED_EDGE ( 'NONE', *, *, #623, .T. ) ;
#1392 = CARTESIAN_POINT ( 'NONE',  ( -0.5999999999999998700, 0.4799999999999999800, -2.142281194606295600 ) ) ;
#1393 = DIRECTION ( 'NONE',  ( 1.000000000000000000, -0.0000000000000000000, 0.0000000000000000000 ) ) ;
#1394 = EDGE_CURVE ( 'NONE', #1295, #281, #821, .T. ) ;
ENDSEC;
END-ISO-10303-21;
