G04*
G04 #@! TF.GenerationSoftware,Altium Limited,Altium Designer,25.5.2 (35)*
G04*
G04 Layer_Color=16711935*
%FSLAX44Y44*%
%MOMM*%
G71*
G04*
G04 #@! TF.SameCoordinates,B89C7759-DA74-4ABB-81A3-D326D7ADCFB2*
G04*
G04*
G04 #@! TF.FilePolarity,Negative*
G04*
G01*
G75*
%ADD70R,0.9000X1.4000*%
%ADD71R,1.1500X1.0000*%
%ADD72R,0.9500X1.1000*%
%ADD73R,0.8500X0.8500*%
%ADD74R,0.9300X1.1400*%
%ADD75R,0.8500X0.8500*%
%ADD78R,1.1400X0.9300*%
%ADD79R,0.8000X0.8500*%
%ADD80R,0.8500X0.8000*%
%ADD81R,0.8000X2.1000*%
%ADD82R,3.0500X0.9500*%
%ADD111R,3.9500X1.9500*%
%ADD114R,1.1000X0.9500*%
G04:AMPARAMS|DCode=116|XSize=1.4mm|YSize=0.7mm|CornerRadius=0.225mm|HoleSize=0mm|Usage=FLASHONLY|Rotation=90.000|XOffset=0mm|YOffset=0mm|HoleType=Round|Shape=RoundedRectangle|*
%AMROUNDEDRECTD116*
21,1,1.4000,0.2500,0,0,90.0*
21,1,0.9500,0.7000,0,0,90.0*
1,1,0.4500,0.1250,0.4750*
1,1,0.4500,0.1250,-0.4750*
1,1,0.4500,-0.1250,-0.4750*
1,1,0.4500,-0.1250,0.4750*
%
%ADD116ROUNDEDRECTD116*%
%ADD123C,0.9000*%
%ADD124R,2.1000X2.1000*%
%ADD125C,2.1000*%
%ADD126O,1.3000X1.8000*%
%ADD127O,1.3000X2.2000*%
%ADD128C,2.8500*%
G04:AMPARAMS|DCode=129|XSize=6.15mm|YSize=4.2mm|CornerRadius=1.0875mm|HoleSize=0mm|Usage=FLASHONLY|Rotation=270.000|XOffset=0mm|YOffset=0mm|HoleType=Round|Shape=RoundedRectangle|*
%AMROUNDEDRECTD129*
21,1,6.1500,2.0250,0,0,270.0*
21,1,3.9750,4.2000,0,0,270.0*
1,1,2.1750,-1.0125,-1.9875*
1,1,2.1750,-1.0125,1.9875*
1,1,2.1750,1.0125,1.9875*
1,1,2.1750,1.0125,-1.9875*
%
%ADD129ROUNDEDRECTD129*%
%ADD130C,5.6500*%
%ADD178R,1.4000X0.9000*%
%ADD179R,0.7250X0.5000*%
%ADD180R,0.7250X0.4000*%
%ADD181R,0.7250X0.9000*%
%ADD182R,0.4500X0.7250*%
%ADD183R,0.4000X0.7250*%
%ADD184R,0.5750X0.4000*%
%ADD185R,0.7250X0.8250*%
%ADD186R,1.6750X0.8000*%
%ADD187R,0.9800X1.2200*%
%ADD188R,0.8000X1.0500*%
%ADD189R,4.1100X4.1100*%
%ADD190R,2.1500X2.6500*%
%ADD191R,1.3000X0.7500*%
%ADD192R,1.3000X0.5500*%
%ADD193R,1.2200X0.9800*%
%ADD194R,0.8250X0.7250*%
%ADD195R,0.7500X1.2000*%
%ADD196R,0.5500X1.0500*%
%ADD197R,2.3000X2.3500*%
%ADD198R,0.4000X1.5000*%
%ADD199R,1.9000X0.5500*%
%ADD200R,3.3300X3.3300*%
G04:AMPARAMS|DCode=201|XSize=1.4mm|YSize=0.7mm|CornerRadius=0.225mm|HoleSize=0mm|Usage=FLASHONLY|Rotation=180.000|XOffset=0mm|YOffset=0mm|HoleType=Round|Shape=RoundedRectangle|*
%AMROUNDEDRECTD201*
21,1,1.4000,0.2500,0,0,180.0*
21,1,0.9500,0.7000,0,0,180.0*
1,1,0.4500,-0.4750,0.1250*
1,1,0.4500,0.4750,0.1250*
1,1,0.4500,0.4750,-0.1250*
1,1,0.4500,-0.4750,-0.1250*
%
%ADD201ROUNDEDRECTD201*%
%ADD202R,1.3000X0.9500*%
G36*
X900250Y652500D02*
X889250D01*
Y661250D01*
X894250D01*
Y660000D01*
X895250D01*
Y661250D01*
X900250D01*
Y652500D01*
D02*
G37*
G36*
X888250D02*
X877250D01*
Y661250D01*
X882250D01*
Y660000D01*
X883250D01*
Y661250D01*
X888250D01*
Y652500D01*
D02*
G37*
G36*
X909000D02*
X903750D01*
X901250Y655000D01*
Y661250D01*
X909000D01*
Y652500D01*
D02*
G37*
G36*
X900250Y610750D02*
X895250D01*
Y612000D01*
X894250D01*
Y610750D01*
X889250D01*
Y619500D01*
X900250D01*
Y610750D01*
D02*
G37*
G36*
X888250D02*
X883250D01*
Y612000D01*
X882250D01*
Y610750D01*
X877250D01*
Y619500D01*
X888250D01*
Y610750D01*
D02*
G37*
G36*
X934250Y546000D02*
X931750Y543500D01*
X925500D01*
X925500Y551250D01*
X934250Y551250D01*
Y546000D01*
D02*
G37*
G36*
Y531500D02*
X925500Y531500D01*
X925500Y536500D01*
X926750Y536500D01*
Y537500D01*
X925500Y537500D01*
Y542500D01*
X934250Y542500D01*
X934250Y531500D01*
D02*
G37*
G36*
X976000Y537500D02*
X974750Y537500D01*
X974750Y536500D01*
X976000D01*
Y531500D01*
X967250Y531500D01*
X967250Y542500D01*
X976000Y542500D01*
X976000Y537500D01*
D02*
G37*
G36*
X976000Y525500D02*
X974750Y525500D01*
Y524500D01*
X976000Y524500D01*
Y519500D01*
X967250Y519500D01*
X967250Y530500D01*
X976000Y530500D01*
X976000Y525500D01*
D02*
G37*
G36*
X934250Y530500D02*
X934250Y519500D01*
X925500Y519500D01*
X925500Y524500D01*
X926750Y524500D01*
X926750Y525500D01*
X925500D01*
Y530500D01*
X934250Y530500D01*
D02*
G37*
G36*
X740131Y508993D02*
X740259Y508968D01*
X740384Y508926D01*
X740501Y508868D01*
X740610Y508795D01*
X740709Y508709D01*
X740795Y508610D01*
X740868Y508501D01*
X740926Y508383D01*
X740968Y508259D01*
X740993Y508131D01*
X741002Y508000D01*
X740993Y507869D01*
X740968Y507741D01*
X740926Y507617D01*
X740868Y507499D01*
X740795Y507390D01*
X740709Y507291D01*
X735417Y502000D01*
X740709Y496709D01*
X740755Y496656D01*
X740795Y496610D01*
X740868Y496501D01*
X740926Y496384D01*
X740968Y496259D01*
X740993Y496131D01*
X741002Y496000D01*
X740993Y495869D01*
X740968Y495741D01*
X740926Y495616D01*
X740868Y495499D01*
X740795Y495390D01*
X740709Y495291D01*
X740610Y495205D01*
X740501Y495132D01*
X740384Y495074D01*
X740259Y495032D01*
X740131Y495006D01*
X740000Y494998D01*
X731500D01*
X731369Y495006D01*
X731241Y495032D01*
X731116Y495074D01*
X730999Y495132D01*
X730890Y495205D01*
X730791Y495291D01*
X730705Y495390D01*
X730632Y495499D01*
X730574Y495616D01*
X730532Y495741D01*
X730506Y495869D01*
X730498Y496000D01*
Y508000D01*
X730506Y508131D01*
X730532Y508259D01*
X730574Y508383D01*
X730632Y508501D01*
X730705Y508610D01*
X730791Y508709D01*
X730890Y508795D01*
X730999Y508868D01*
X731116Y508926D01*
X731241Y508968D01*
X731369Y508993D01*
X731500Y509002D01*
X740000D01*
X740131Y508993D01*
D02*
G37*
G36*
X697131D02*
X697259Y508968D01*
X697383Y508926D01*
X697501Y508868D01*
X697610Y508795D01*
X697709Y508709D01*
X697795Y508610D01*
X697868Y508501D01*
X697926Y508383D01*
X697968Y508259D01*
X697993Y508131D01*
X698002Y508000D01*
X697993Y507869D01*
X697968Y507741D01*
X697926Y507617D01*
X697868Y507499D01*
X697795Y507390D01*
X697709Y507291D01*
X692417Y502000D01*
X697709Y496709D01*
X697755Y496656D01*
X697795Y496610D01*
X697868Y496501D01*
X697926Y496384D01*
X697968Y496259D01*
X697993Y496131D01*
X698002Y496000D01*
X697993Y495869D01*
X697968Y495741D01*
X697926Y495616D01*
X697868Y495499D01*
X697795Y495390D01*
X697709Y495291D01*
X697610Y495205D01*
X697501Y495132D01*
X697383Y495074D01*
X697259Y495032D01*
X697131Y495006D01*
X697000Y494998D01*
X688500D01*
X688369Y495006D01*
X688241Y495032D01*
X688117Y495074D01*
X687999Y495132D01*
X687890Y495205D01*
X687791Y495291D01*
X687705Y495390D01*
X687632Y495499D01*
X687574Y495616D01*
X687532Y495741D01*
X687506Y495869D01*
X687498Y496000D01*
Y508000D01*
X687506Y508131D01*
X687532Y508259D01*
X687574Y508383D01*
X687632Y508501D01*
X687705Y508610D01*
X687791Y508709D01*
X687890Y508795D01*
X687999Y508868D01*
X688117Y508926D01*
X688241Y508968D01*
X688369Y508993D01*
X688500Y509002D01*
X697000D01*
X697131Y508993D01*
D02*
G37*
G36*
X654131D02*
X654259Y508968D01*
X654383Y508926D01*
X654501Y508868D01*
X654610Y508795D01*
X654709Y508709D01*
X654795Y508610D01*
X654868Y508501D01*
X654926Y508383D01*
X654968Y508259D01*
X654994Y508131D01*
X655002Y508000D01*
X654994Y507869D01*
X654968Y507741D01*
X654926Y507617D01*
X654868Y507499D01*
X654795Y507390D01*
X654709Y507291D01*
X649417Y502000D01*
X654709Y496709D01*
X654755Y496656D01*
X654795Y496610D01*
X654868Y496501D01*
X654926Y496384D01*
X654968Y496259D01*
X654994Y496131D01*
X655002Y496000D01*
X654994Y495869D01*
X654968Y495741D01*
X654926Y495616D01*
X654868Y495499D01*
X654795Y495390D01*
X654709Y495291D01*
X654610Y495205D01*
X654501Y495132D01*
X654383Y495074D01*
X654259Y495032D01*
X654131Y495006D01*
X654000Y494998D01*
X645500D01*
X645369Y495006D01*
X645241Y495032D01*
X645117Y495074D01*
X644999Y495132D01*
X644890Y495205D01*
X644791Y495291D01*
X644705Y495390D01*
X644632Y495499D01*
X644574Y495616D01*
X644532Y495741D01*
X644506Y495869D01*
X644498Y496000D01*
Y508000D01*
X644506Y508131D01*
X644532Y508259D01*
X644574Y508383D01*
X644632Y508501D01*
X644705Y508610D01*
X644791Y508709D01*
X644890Y508795D01*
X644999Y508868D01*
X645117Y508926D01*
X645241Y508968D01*
X645369Y508993D01*
X645500Y509002D01*
X654000D01*
X654131Y508993D01*
D02*
G37*
G36*
X611131D02*
X611259Y508968D01*
X611384Y508926D01*
X611501Y508868D01*
X611610Y508795D01*
X611709Y508709D01*
X611795Y508610D01*
X611868Y508501D01*
X611926Y508383D01*
X611968Y508259D01*
X611993Y508131D01*
X612002Y508000D01*
X611993Y507869D01*
X611968Y507741D01*
X611926Y507617D01*
X611868Y507499D01*
X611795Y507390D01*
X611709Y507291D01*
X606417Y502000D01*
X611709Y496709D01*
X611755Y496656D01*
X611795Y496610D01*
X611868Y496501D01*
X611926Y496384D01*
X611968Y496259D01*
X611993Y496131D01*
X612002Y496000D01*
X611993Y495869D01*
X611968Y495741D01*
X611926Y495616D01*
X611868Y495499D01*
X611795Y495390D01*
X611709Y495291D01*
X611610Y495205D01*
X611501Y495132D01*
X611384Y495074D01*
X611259Y495032D01*
X611131Y495006D01*
X611000Y494998D01*
X602500D01*
X602369Y495006D01*
X602241Y495032D01*
X602117Y495074D01*
X601999Y495132D01*
X601890Y495205D01*
X601791Y495291D01*
X601705Y495390D01*
X601632Y495499D01*
X601574Y495616D01*
X601532Y495741D01*
X601506Y495869D01*
X601498Y496000D01*
Y508000D01*
X601506Y508131D01*
X601532Y508259D01*
X601574Y508383D01*
X601632Y508501D01*
X601705Y508610D01*
X601791Y508709D01*
X601890Y508795D01*
X601999Y508868D01*
X602117Y508926D01*
X602241Y508968D01*
X602369Y508993D01*
X602500Y509002D01*
X611000D01*
X611131Y508993D01*
D02*
G37*
G36*
X568131D02*
X568259Y508968D01*
X568383Y508926D01*
X568501Y508868D01*
X568610Y508795D01*
X568709Y508709D01*
X568795Y508610D01*
X568868Y508501D01*
X568926Y508383D01*
X568968Y508259D01*
X568993Y508131D01*
X569002Y508000D01*
X568993Y507869D01*
X568968Y507741D01*
X568926Y507617D01*
X568868Y507499D01*
X568795Y507390D01*
X568709Y507291D01*
X563417Y502000D01*
X568709Y496709D01*
X568755Y496656D01*
X568795Y496610D01*
X568868Y496501D01*
X568926Y496384D01*
X568968Y496259D01*
X568993Y496131D01*
X569002Y496000D01*
X568993Y495869D01*
X568968Y495741D01*
X568926Y495616D01*
X568868Y495499D01*
X568795Y495390D01*
X568709Y495291D01*
X568610Y495205D01*
X568501Y495132D01*
X568383Y495074D01*
X568259Y495032D01*
X568131Y495006D01*
X568000Y494998D01*
X559500D01*
X559369Y495006D01*
X559241Y495032D01*
X559117Y495074D01*
X558999Y495132D01*
X558890Y495205D01*
X558791Y495291D01*
X558705Y495390D01*
X558632Y495499D01*
X558574Y495616D01*
X558532Y495741D01*
X558506Y495869D01*
X558498Y496000D01*
Y508000D01*
X558506Y508131D01*
X558532Y508259D01*
X558574Y508383D01*
X558632Y508501D01*
X558705Y508610D01*
X558791Y508709D01*
X558890Y508795D01*
X558999Y508868D01*
X559117Y508926D01*
X559241Y508968D01*
X559369Y508993D01*
X559500Y509002D01*
X568000D01*
X568131Y508993D01*
D02*
G37*
G36*
X525131D02*
X525259Y508968D01*
X525383Y508926D01*
X525501Y508868D01*
X525610Y508795D01*
X525709Y508709D01*
X525795Y508610D01*
X525868Y508501D01*
X525926Y508383D01*
X525968Y508259D01*
X525993Y508131D01*
X526002Y508000D01*
X525993Y507869D01*
X525968Y507741D01*
X525926Y507617D01*
X525868Y507499D01*
X525795Y507390D01*
X525709Y507291D01*
X520417Y502000D01*
X525709Y496709D01*
X525755Y496656D01*
X525795Y496610D01*
X525868Y496501D01*
X525926Y496384D01*
X525968Y496259D01*
X525993Y496131D01*
X526002Y496000D01*
X525993Y495869D01*
X525968Y495741D01*
X525926Y495616D01*
X525868Y495499D01*
X525795Y495390D01*
X525709Y495291D01*
X525610Y495205D01*
X525501Y495132D01*
X525383Y495074D01*
X525259Y495032D01*
X525131Y495006D01*
X525000Y494998D01*
X516500D01*
X516369Y495006D01*
X516241Y495032D01*
X516116Y495074D01*
X515999Y495132D01*
X515890Y495205D01*
X515791Y495291D01*
X515705Y495390D01*
X515632Y495499D01*
X515574Y495616D01*
X515532Y495741D01*
X515506Y495869D01*
X515498Y496000D01*
Y508000D01*
X515506Y508131D01*
X515532Y508259D01*
X515574Y508383D01*
X515632Y508501D01*
X515705Y508610D01*
X515791Y508709D01*
X515890Y508795D01*
X515999Y508868D01*
X516116Y508926D01*
X516241Y508968D01*
X516369Y508993D01*
X516500Y509002D01*
X525000D01*
X525131Y508993D01*
D02*
G37*
G36*
X482131D02*
X482259Y508968D01*
X482383Y508926D01*
X482501Y508868D01*
X482610Y508795D01*
X482709Y508709D01*
X482795Y508610D01*
X482868Y508501D01*
X482926Y508383D01*
X482968Y508259D01*
X482994Y508131D01*
X483002Y508000D01*
X482994Y507869D01*
X482968Y507741D01*
X482926Y507617D01*
X482868Y507499D01*
X482795Y507390D01*
X482709Y507291D01*
X477417Y502000D01*
X482709Y496709D01*
X482755Y496656D01*
X482795Y496610D01*
X482868Y496501D01*
X482926Y496384D01*
X482968Y496259D01*
X482994Y496131D01*
X483002Y496000D01*
X482994Y495869D01*
X482968Y495741D01*
X482926Y495616D01*
X482868Y495499D01*
X482795Y495390D01*
X482709Y495291D01*
X482610Y495205D01*
X482501Y495132D01*
X482383Y495074D01*
X482259Y495032D01*
X482131Y495006D01*
X482000Y494998D01*
X473500D01*
X473369Y495006D01*
X473241Y495032D01*
X473116Y495074D01*
X472999Y495132D01*
X472890Y495205D01*
X472791Y495291D01*
X472705Y495390D01*
X472632Y495499D01*
X472574Y495616D01*
X472532Y495741D01*
X472506Y495869D01*
X472498Y496000D01*
Y508000D01*
X472506Y508131D01*
X472532Y508259D01*
X472574Y508383D01*
X472632Y508501D01*
X472705Y508610D01*
X472791Y508709D01*
X472890Y508795D01*
X472999Y508868D01*
X473116Y508926D01*
X473241Y508968D01*
X473369Y508993D01*
X473500Y509002D01*
X482000D01*
X482131Y508993D01*
D02*
G37*
G36*
X439131D02*
X439259Y508968D01*
X439384Y508926D01*
X439501Y508868D01*
X439610Y508795D01*
X439709Y508709D01*
X439795Y508610D01*
X439868Y508501D01*
X439926Y508383D01*
X439968Y508259D01*
X439994Y508131D01*
X440002Y508000D01*
X439994Y507869D01*
X439968Y507741D01*
X439926Y507617D01*
X439868Y507499D01*
X439795Y507390D01*
X439709Y507291D01*
X434417Y502000D01*
X439709Y496709D01*
X439755Y496656D01*
X439795Y496610D01*
X439868Y496501D01*
X439926Y496384D01*
X439968Y496259D01*
X439994Y496131D01*
X440002Y496000D01*
X439994Y495869D01*
X439968Y495741D01*
X439926Y495616D01*
X439868Y495499D01*
X439795Y495390D01*
X439709Y495291D01*
X439610Y495205D01*
X439501Y495132D01*
X439384Y495074D01*
X439259Y495032D01*
X439131Y495006D01*
X439000Y494998D01*
X430500D01*
X430369Y495006D01*
X430241Y495032D01*
X430117Y495074D01*
X429999Y495132D01*
X429890Y495205D01*
X429791Y495291D01*
X429705Y495390D01*
X429632Y495499D01*
X429574Y495616D01*
X429532Y495741D01*
X429506Y495869D01*
X429498Y496000D01*
Y508000D01*
X429506Y508131D01*
X429532Y508259D01*
X429574Y508383D01*
X429632Y508501D01*
X429705Y508610D01*
X429791Y508709D01*
X429890Y508795D01*
X429999Y508868D01*
X430117Y508926D01*
X430241Y508968D01*
X430369Y508993D01*
X430500Y509002D01*
X439000D01*
X439131Y508993D01*
D02*
G37*
G36*
X746131D02*
X746259Y508968D01*
X746384Y508926D01*
X746501Y508868D01*
X746610Y508795D01*
X746709Y508709D01*
X746795Y508610D01*
X746868Y508501D01*
X746926Y508383D01*
X746968Y508259D01*
X746993Y508131D01*
X747002Y508000D01*
Y496000D01*
X746993Y495869D01*
X746968Y495741D01*
X746926Y495616D01*
X746868Y495499D01*
X746795Y495390D01*
X746709Y495291D01*
X746610Y495205D01*
X746501Y495132D01*
X746384Y495074D01*
X746259Y495032D01*
X746131Y495006D01*
X746000Y494998D01*
X743000D01*
X742869Y495006D01*
X742741Y495032D01*
X742617Y495074D01*
X742499Y495132D01*
X742390Y495205D01*
X742291Y495291D01*
X736291Y501291D01*
X736205Y501390D01*
X736132Y501499D01*
X736074Y501617D01*
X736032Y501741D01*
X736006Y501869D01*
X735998Y502000D01*
X736006Y502131D01*
X736032Y502259D01*
X736074Y502383D01*
X736132Y502501D01*
X736205Y502610D01*
X736291Y502709D01*
X742291Y508709D01*
X742390Y508795D01*
X742499Y508868D01*
X742617Y508926D01*
X742741Y508968D01*
X742869Y508993D01*
X743000Y509002D01*
X746000D01*
X746131Y508993D01*
D02*
G37*
G36*
X703131D02*
X703259Y508968D01*
X703383Y508926D01*
X703501Y508868D01*
X703610Y508795D01*
X703709Y508709D01*
X703795Y508610D01*
X703868Y508501D01*
X703926Y508383D01*
X703968Y508259D01*
X703994Y508131D01*
X704002Y508000D01*
Y496000D01*
X703994Y495869D01*
X703968Y495741D01*
X703926Y495616D01*
X703868Y495499D01*
X703795Y495390D01*
X703709Y495291D01*
X703610Y495205D01*
X703501Y495132D01*
X703383Y495074D01*
X703259Y495032D01*
X703131Y495006D01*
X703000Y494998D01*
X700000D01*
X699869Y495006D01*
X699741Y495032D01*
X699616Y495074D01*
X699499Y495132D01*
X699390Y495205D01*
X699291Y495291D01*
X693291Y501291D01*
X693205Y501390D01*
X693132Y501499D01*
X693074Y501617D01*
X693032Y501741D01*
X693006Y501869D01*
X692998Y502000D01*
X693006Y502131D01*
X693032Y502259D01*
X693074Y502383D01*
X693132Y502501D01*
X693205Y502610D01*
X693291Y502709D01*
X699291Y508709D01*
X699390Y508795D01*
X699499Y508868D01*
X699616Y508926D01*
X699741Y508968D01*
X699869Y508993D01*
X700000Y509002D01*
X703000D01*
X703131Y508993D01*
D02*
G37*
G36*
X660131D02*
X660259Y508968D01*
X660384Y508926D01*
X660501Y508868D01*
X660610Y508795D01*
X660709Y508709D01*
X660795Y508610D01*
X660868Y508501D01*
X660926Y508383D01*
X660968Y508259D01*
X660993Y508131D01*
X661002Y508000D01*
Y496000D01*
X660993Y495869D01*
X660968Y495741D01*
X660926Y495616D01*
X660868Y495499D01*
X660795Y495390D01*
X660709Y495291D01*
X660610Y495205D01*
X660501Y495132D01*
X660384Y495074D01*
X660259Y495032D01*
X660131Y495006D01*
X660000Y494998D01*
X657000D01*
X656869Y495006D01*
X656741Y495032D01*
X656617Y495074D01*
X656499Y495132D01*
X656390Y495205D01*
X656291Y495291D01*
X650291Y501291D01*
X650205Y501390D01*
X650132Y501499D01*
X650074Y501617D01*
X650032Y501741D01*
X650006Y501869D01*
X649998Y502000D01*
X650006Y502131D01*
X650032Y502259D01*
X650074Y502383D01*
X650132Y502501D01*
X650205Y502610D01*
X650291Y502709D01*
X656291Y508709D01*
X656390Y508795D01*
X656499Y508868D01*
X656617Y508926D01*
X656741Y508968D01*
X656869Y508993D01*
X657000Y509002D01*
X660000D01*
X660131Y508993D01*
D02*
G37*
G36*
X617131D02*
X617259Y508968D01*
X617383Y508926D01*
X617501Y508868D01*
X617610Y508795D01*
X617709Y508709D01*
X617795Y508610D01*
X617868Y508501D01*
X617926Y508383D01*
X617968Y508259D01*
X617994Y508131D01*
X618002Y508000D01*
Y496000D01*
X617994Y495869D01*
X617968Y495741D01*
X617926Y495616D01*
X617868Y495499D01*
X617795Y495390D01*
X617709Y495291D01*
X617610Y495205D01*
X617501Y495132D01*
X617383Y495074D01*
X617259Y495032D01*
X617131Y495006D01*
X617000Y494998D01*
X614000D01*
X613869Y495006D01*
X613741Y495032D01*
X613616Y495074D01*
X613499Y495132D01*
X613390Y495205D01*
X613291Y495291D01*
X607291Y501291D01*
X607205Y501390D01*
X607132Y501499D01*
X607074Y501617D01*
X607032Y501741D01*
X607006Y501869D01*
X606998Y502000D01*
X607006Y502131D01*
X607032Y502259D01*
X607074Y502383D01*
X607132Y502501D01*
X607205Y502610D01*
X607291Y502709D01*
X613291Y508709D01*
X613390Y508795D01*
X613499Y508868D01*
X613616Y508926D01*
X613741Y508968D01*
X613869Y508993D01*
X614000Y509002D01*
X617000D01*
X617131Y508993D01*
D02*
G37*
G36*
X574131D02*
X574259Y508968D01*
X574384Y508926D01*
X574501Y508868D01*
X574610Y508795D01*
X574709Y508709D01*
X574795Y508610D01*
X574868Y508501D01*
X574926Y508383D01*
X574968Y508259D01*
X574994Y508131D01*
X575002Y508000D01*
Y496000D01*
X574994Y495869D01*
X574968Y495741D01*
X574926Y495616D01*
X574868Y495499D01*
X574795Y495390D01*
X574709Y495291D01*
X574610Y495205D01*
X574501Y495132D01*
X574384Y495074D01*
X574259Y495032D01*
X574131Y495006D01*
X574000Y494998D01*
X571000D01*
X570869Y495006D01*
X570741Y495032D01*
X570616Y495074D01*
X570499Y495132D01*
X570390Y495205D01*
X570291Y495291D01*
X564291Y501291D01*
X564205Y501390D01*
X564132Y501499D01*
X564074Y501617D01*
X564032Y501741D01*
X564006Y501869D01*
X563998Y502000D01*
X564006Y502131D01*
X564032Y502259D01*
X564074Y502383D01*
X564132Y502501D01*
X564205Y502610D01*
X564291Y502709D01*
X570291Y508709D01*
X570390Y508795D01*
X570499Y508868D01*
X570616Y508926D01*
X570741Y508968D01*
X570869Y508993D01*
X571000Y509002D01*
X574000D01*
X574131Y508993D01*
D02*
G37*
G36*
X531131D02*
X531259Y508968D01*
X531384Y508926D01*
X531501Y508868D01*
X531610Y508795D01*
X531709Y508709D01*
X531795Y508610D01*
X531868Y508501D01*
X531926Y508383D01*
X531968Y508259D01*
X531993Y508131D01*
X532002Y508000D01*
Y496000D01*
X531993Y495869D01*
X531968Y495741D01*
X531926Y495616D01*
X531868Y495499D01*
X531795Y495390D01*
X531709Y495291D01*
X531610Y495205D01*
X531501Y495132D01*
X531384Y495074D01*
X531259Y495032D01*
X531131Y495006D01*
X531000Y494998D01*
X528000D01*
X527869Y495006D01*
X527741Y495032D01*
X527617Y495074D01*
X527499Y495132D01*
X527390Y495205D01*
X527291Y495291D01*
X521291Y501291D01*
X521205Y501390D01*
X521132Y501499D01*
X521074Y501617D01*
X521032Y501741D01*
X521006Y501869D01*
X520998Y502000D01*
X521006Y502131D01*
X521032Y502259D01*
X521074Y502383D01*
X521132Y502501D01*
X521205Y502610D01*
X521291Y502709D01*
X527291Y508709D01*
X527390Y508795D01*
X527499Y508868D01*
X527617Y508926D01*
X527741Y508968D01*
X527869Y508993D01*
X528000Y509002D01*
X531000D01*
X531131Y508993D01*
D02*
G37*
G36*
X488131D02*
X488259Y508968D01*
X488383Y508926D01*
X488501Y508868D01*
X488610Y508795D01*
X488709Y508709D01*
X488795Y508610D01*
X488868Y508501D01*
X488926Y508383D01*
X488968Y508259D01*
X488993Y508131D01*
X489002Y508000D01*
Y496000D01*
X488993Y495869D01*
X488968Y495741D01*
X488926Y495616D01*
X488868Y495499D01*
X488795Y495390D01*
X488709Y495291D01*
X488610Y495205D01*
X488501Y495132D01*
X488383Y495074D01*
X488259Y495032D01*
X488131Y495006D01*
X488000Y494998D01*
X485000D01*
X484869Y495006D01*
X484741Y495032D01*
X484617Y495074D01*
X484499Y495132D01*
X484390Y495205D01*
X484291Y495291D01*
X478291Y501291D01*
X478205Y501390D01*
X478132Y501499D01*
X478074Y501617D01*
X478032Y501741D01*
X478006Y501869D01*
X477998Y502000D01*
X478006Y502131D01*
X478032Y502259D01*
X478074Y502383D01*
X478132Y502501D01*
X478205Y502610D01*
X478291Y502709D01*
X484291Y508709D01*
X484390Y508795D01*
X484499Y508868D01*
X484617Y508926D01*
X484741Y508968D01*
X484869Y508993D01*
X485000Y509002D01*
X488000D01*
X488131Y508993D01*
D02*
G37*
G36*
X445131D02*
X445259Y508968D01*
X445383Y508926D01*
X445501Y508868D01*
X445610Y508795D01*
X445709Y508709D01*
X445795Y508610D01*
X445868Y508501D01*
X445926Y508383D01*
X445968Y508259D01*
X445993Y508131D01*
X446002Y508000D01*
Y496000D01*
X445993Y495869D01*
X445968Y495741D01*
X445926Y495616D01*
X445868Y495499D01*
X445795Y495390D01*
X445709Y495291D01*
X445610Y495205D01*
X445501Y495132D01*
X445383Y495074D01*
X445259Y495032D01*
X445131Y495006D01*
X445000Y494998D01*
X442000D01*
X441869Y495006D01*
X441741Y495032D01*
X441617Y495074D01*
X441499Y495132D01*
X441390Y495205D01*
X441291Y495291D01*
X435291Y501291D01*
X435205Y501390D01*
X435132Y501499D01*
X435074Y501617D01*
X435032Y501741D01*
X435006Y501869D01*
X434998Y502000D01*
X435006Y502131D01*
X435032Y502259D01*
X435074Y502383D01*
X435132Y502501D01*
X435205Y502610D01*
X435291Y502709D01*
X441291Y508709D01*
X441390Y508795D01*
X441499Y508868D01*
X441617Y508926D01*
X441741Y508968D01*
X441869Y508993D01*
X442000Y509002D01*
X445000D01*
X445131Y508993D01*
D02*
G37*
G36*
X408631Y502590D02*
X408759Y502564D01*
X408884Y502522D01*
X409001Y502464D01*
X409110Y502391D01*
X409209Y502305D01*
X409295Y502206D01*
X409368Y502097D01*
X409426Y501979D01*
X409468Y501855D01*
X409493Y501727D01*
X409502Y501596D01*
Y489596D01*
X409493Y489465D01*
X409468Y489337D01*
X409426Y489213D01*
X409368Y489095D01*
X409295Y488986D01*
X409209Y488887D01*
X409110Y488801D01*
X409001Y488728D01*
X408884Y488670D01*
X408759Y488628D01*
X408631Y488602D01*
X408500Y488594D01*
X400000D01*
X399869Y488602D01*
X399741Y488628D01*
X399617Y488670D01*
X399499Y488728D01*
X399390Y488801D01*
X399291Y488887D01*
X399205Y488986D01*
X399132Y489095D01*
X399074Y489212D01*
X399032Y489337D01*
X399006Y489465D01*
X398998Y489596D01*
X399006Y489727D01*
X399032Y489855D01*
X399074Y489980D01*
X399132Y490097D01*
X399205Y490206D01*
X399291Y490305D01*
X404583Y495596D01*
X399291Y500887D01*
X399245Y500940D01*
X399205Y500986D01*
X399132Y501095D01*
X399074Y501213D01*
X399032Y501337D01*
X399006Y501465D01*
X398998Y501596D01*
X399006Y501727D01*
X399032Y501855D01*
X399074Y501979D01*
X399132Y502097D01*
X399205Y502206D01*
X399291Y502305D01*
X399390Y502391D01*
X399499Y502464D01*
X399617Y502522D01*
X399741Y502564D01*
X399869Y502590D01*
X400000Y502598D01*
X408500D01*
X408631Y502590D01*
D02*
G37*
G36*
X397131Y502590D02*
X397259Y502564D01*
X397383Y502522D01*
X397501Y502464D01*
X397610Y502391D01*
X397709Y502305D01*
X403709Y496305D01*
X403795Y496206D01*
X403868Y496097D01*
X403926Y495980D01*
X403968Y495855D01*
X403994Y495727D01*
X404002Y495596D01*
X403993Y495465D01*
X403968Y495337D01*
X403926Y495213D01*
X403868Y495095D01*
X403795Y494986D01*
X403709Y494887D01*
X397709Y488887D01*
X397610Y488801D01*
X397501Y488728D01*
X397383Y488670D01*
X397259Y488628D01*
X397131Y488602D01*
X397000Y488594D01*
X394000D01*
X393869Y488602D01*
X393741Y488628D01*
X393616Y488670D01*
X393499Y488728D01*
X393390Y488801D01*
X393291Y488887D01*
X393205Y488986D01*
X393132Y489095D01*
X393074Y489213D01*
X393032Y489337D01*
X393006Y489465D01*
X392998Y489596D01*
Y501596D01*
X393006Y501727D01*
X393032Y501855D01*
X393074Y501979D01*
X393132Y502097D01*
X393205Y502206D01*
X393291Y502305D01*
X393390Y502391D01*
X393499Y502464D01*
X393616Y502522D01*
X393741Y502564D01*
X393869Y502590D01*
X394000Y502598D01*
X397000D01*
X397131Y502590D01*
D02*
G37*
G36*
X360131Y491090D02*
X360259Y491064D01*
X360383Y491022D01*
X360501Y490964D01*
X360610Y490891D01*
X360709Y490805D01*
X360795Y490706D01*
X360868Y490597D01*
X360926Y490480D01*
X360968Y490355D01*
X360993Y490227D01*
X361002Y490096D01*
Y481596D01*
X360993Y481465D01*
X360968Y481337D01*
X360926Y481213D01*
X360868Y481095D01*
X360795Y480986D01*
X360709Y480887D01*
X360610Y480801D01*
X360501Y480728D01*
X360383Y480670D01*
X360259Y480628D01*
X360131Y480602D01*
X360000Y480594D01*
X359869Y480602D01*
X359741Y480628D01*
X359617Y480670D01*
X359499Y480728D01*
X359390Y480801D01*
X359291Y480887D01*
X354000Y486179D01*
X348709Y480887D01*
X348656Y480841D01*
X348610Y480801D01*
X348501Y480728D01*
X348383Y480670D01*
X348259Y480628D01*
X348131Y480602D01*
X348000Y480594D01*
X347869Y480602D01*
X347741Y480628D01*
X347617Y480670D01*
X347499Y480728D01*
X347390Y480801D01*
X347291Y480887D01*
X347205Y480986D01*
X347132Y481095D01*
X347074Y481213D01*
X347032Y481337D01*
X347006Y481465D01*
X346998Y481596D01*
Y490096D01*
X347006Y490227D01*
X347032Y490355D01*
X347074Y490480D01*
X347132Y490597D01*
X347205Y490706D01*
X347291Y490805D01*
X347390Y490891D01*
X347499Y490964D01*
X347617Y491022D01*
X347741Y491064D01*
X347869Y491090D01*
X348000Y491098D01*
X360000D01*
X360131Y491090D01*
D02*
G37*
G36*
X740131Y492994D02*
X740259Y492968D01*
X740384Y492926D01*
X740501Y492868D01*
X740610Y492795D01*
X740709Y492709D01*
X740795Y492610D01*
X740868Y492501D01*
X740926Y492383D01*
X740968Y492259D01*
X740993Y492131D01*
X741002Y492000D01*
X740993Y491869D01*
X740968Y491741D01*
X740926Y491617D01*
X740868Y491499D01*
X740795Y491390D01*
X740709Y491291D01*
X735417Y486000D01*
X740709Y480709D01*
X740755Y480656D01*
X740795Y480610D01*
X740868Y480501D01*
X740926Y480383D01*
X740968Y480259D01*
X740993Y480131D01*
X741002Y480000D01*
X740993Y479869D01*
X740968Y479741D01*
X740926Y479617D01*
X740868Y479499D01*
X740795Y479390D01*
X740709Y479291D01*
X740610Y479205D01*
X740501Y479132D01*
X740384Y479074D01*
X740259Y479032D01*
X740131Y479006D01*
X740000Y478998D01*
X731500D01*
X731369Y479007D01*
X731241Y479032D01*
X731116Y479074D01*
X730999Y479132D01*
X730890Y479205D01*
X730791Y479291D01*
X730705Y479390D01*
X730632Y479499D01*
X730574Y479617D01*
X730532Y479741D01*
X730506Y479869D01*
X730498Y480000D01*
Y492000D01*
X730506Y492131D01*
X730532Y492259D01*
X730574Y492383D01*
X730632Y492501D01*
X730705Y492610D01*
X730791Y492709D01*
X730890Y492795D01*
X730999Y492868D01*
X731116Y492926D01*
X731241Y492968D01*
X731369Y492994D01*
X731500Y493002D01*
X740000D01*
X740131Y492994D01*
D02*
G37*
G36*
X697131D02*
X697259Y492968D01*
X697383Y492926D01*
X697501Y492868D01*
X697610Y492795D01*
X697709Y492709D01*
X697795Y492610D01*
X697868Y492501D01*
X697926Y492383D01*
X697968Y492259D01*
X697993Y492131D01*
X698002Y492000D01*
X697993Y491869D01*
X697968Y491741D01*
X697926Y491617D01*
X697868Y491499D01*
X697795Y491390D01*
X697709Y491291D01*
X692417Y486000D01*
X697709Y480709D01*
X697755Y480656D01*
X697795Y480610D01*
X697868Y480501D01*
X697926Y480383D01*
X697968Y480259D01*
X697993Y480131D01*
X698002Y480000D01*
X697993Y479869D01*
X697968Y479741D01*
X697926Y479617D01*
X697868Y479499D01*
X697795Y479390D01*
X697709Y479291D01*
X697610Y479205D01*
X697501Y479132D01*
X697383Y479074D01*
X697259Y479032D01*
X697131Y479006D01*
X697000Y478998D01*
X688500D01*
X688369Y479007D01*
X688241Y479032D01*
X688117Y479074D01*
X687999Y479132D01*
X687890Y479205D01*
X687791Y479291D01*
X687705Y479390D01*
X687632Y479499D01*
X687574Y479617D01*
X687532Y479741D01*
X687506Y479869D01*
X687498Y480000D01*
Y492000D01*
X687506Y492131D01*
X687532Y492259D01*
X687574Y492383D01*
X687632Y492501D01*
X687705Y492610D01*
X687791Y492709D01*
X687890Y492795D01*
X687999Y492868D01*
X688117Y492926D01*
X688241Y492968D01*
X688369Y492994D01*
X688500Y493002D01*
X697000D01*
X697131Y492994D01*
D02*
G37*
G36*
X654131D02*
X654259Y492968D01*
X654383Y492926D01*
X654501Y492868D01*
X654610Y492795D01*
X654709Y492709D01*
X654795Y492610D01*
X654868Y492501D01*
X654926Y492383D01*
X654968Y492259D01*
X654994Y492131D01*
X655002Y492000D01*
X654994Y491869D01*
X654968Y491741D01*
X654926Y491617D01*
X654868Y491499D01*
X654795Y491390D01*
X654709Y491291D01*
X649417Y486000D01*
X654709Y480709D01*
X654755Y480656D01*
X654795Y480610D01*
X654868Y480501D01*
X654926Y480383D01*
X654968Y480259D01*
X654994Y480131D01*
X655002Y480000D01*
X654994Y479869D01*
X654968Y479741D01*
X654926Y479617D01*
X654868Y479499D01*
X654795Y479390D01*
X654709Y479291D01*
X654610Y479205D01*
X654501Y479132D01*
X654383Y479074D01*
X654259Y479032D01*
X654131Y479006D01*
X654000Y478998D01*
X645500D01*
X645369Y479007D01*
X645241Y479032D01*
X645117Y479074D01*
X644999Y479132D01*
X644890Y479205D01*
X644791Y479291D01*
X644705Y479390D01*
X644632Y479499D01*
X644574Y479617D01*
X644532Y479741D01*
X644506Y479869D01*
X644498Y480000D01*
Y492000D01*
X644506Y492131D01*
X644532Y492259D01*
X644574Y492383D01*
X644632Y492501D01*
X644705Y492610D01*
X644791Y492709D01*
X644890Y492795D01*
X644999Y492868D01*
X645117Y492926D01*
X645241Y492968D01*
X645369Y492994D01*
X645500Y493002D01*
X654000D01*
X654131Y492994D01*
D02*
G37*
G36*
X611131D02*
X611259Y492968D01*
X611384Y492926D01*
X611501Y492868D01*
X611610Y492795D01*
X611709Y492709D01*
X611795Y492610D01*
X611868Y492501D01*
X611926Y492383D01*
X611968Y492259D01*
X611993Y492131D01*
X612002Y492000D01*
X611993Y491869D01*
X611968Y491741D01*
X611926Y491617D01*
X611868Y491499D01*
X611795Y491390D01*
X611709Y491291D01*
X606417Y486000D01*
X611709Y480709D01*
X611755Y480656D01*
X611795Y480610D01*
X611868Y480501D01*
X611926Y480383D01*
X611968Y480259D01*
X611993Y480131D01*
X612002Y480000D01*
X611993Y479869D01*
X611968Y479741D01*
X611926Y479617D01*
X611868Y479499D01*
X611795Y479390D01*
X611709Y479291D01*
X611610Y479205D01*
X611501Y479132D01*
X611384Y479074D01*
X611259Y479032D01*
X611131Y479006D01*
X611000Y478998D01*
X602500D01*
X602369Y479007D01*
X602241Y479032D01*
X602117Y479074D01*
X601999Y479132D01*
X601890Y479205D01*
X601791Y479291D01*
X601705Y479390D01*
X601632Y479499D01*
X601574Y479617D01*
X601532Y479741D01*
X601506Y479869D01*
X601498Y480000D01*
Y492000D01*
X601506Y492131D01*
X601532Y492259D01*
X601574Y492383D01*
X601632Y492501D01*
X601705Y492610D01*
X601791Y492709D01*
X601890Y492795D01*
X601999Y492868D01*
X602117Y492926D01*
X602241Y492968D01*
X602369Y492994D01*
X602500Y493002D01*
X611000D01*
X611131Y492994D01*
D02*
G37*
G36*
X568131D02*
X568259Y492968D01*
X568383Y492926D01*
X568501Y492868D01*
X568610Y492795D01*
X568709Y492709D01*
X568795Y492610D01*
X568868Y492501D01*
X568926Y492383D01*
X568968Y492259D01*
X568993Y492131D01*
X569002Y492000D01*
X568993Y491869D01*
X568968Y491741D01*
X568926Y491617D01*
X568868Y491499D01*
X568795Y491390D01*
X568709Y491291D01*
X563417Y486000D01*
X568709Y480709D01*
X568755Y480656D01*
X568795Y480610D01*
X568868Y480501D01*
X568926Y480383D01*
X568968Y480259D01*
X568993Y480131D01*
X569002Y480000D01*
X568993Y479869D01*
X568968Y479741D01*
X568926Y479617D01*
X568868Y479499D01*
X568795Y479390D01*
X568709Y479291D01*
X568610Y479205D01*
X568501Y479132D01*
X568383Y479074D01*
X568259Y479032D01*
X568131Y479006D01*
X568000Y478998D01*
X559500D01*
X559369Y479007D01*
X559241Y479032D01*
X559117Y479074D01*
X558999Y479132D01*
X558890Y479205D01*
X558791Y479291D01*
X558705Y479390D01*
X558632Y479499D01*
X558574Y479617D01*
X558532Y479741D01*
X558506Y479869D01*
X558498Y480000D01*
Y492000D01*
X558506Y492131D01*
X558532Y492259D01*
X558574Y492383D01*
X558632Y492501D01*
X558705Y492610D01*
X558791Y492709D01*
X558890Y492795D01*
X558999Y492868D01*
X559117Y492926D01*
X559241Y492968D01*
X559369Y492994D01*
X559500Y493002D01*
X568000D01*
X568131Y492994D01*
D02*
G37*
G36*
X525131D02*
X525259Y492968D01*
X525383Y492926D01*
X525501Y492868D01*
X525610Y492795D01*
X525709Y492709D01*
X525795Y492610D01*
X525868Y492501D01*
X525926Y492383D01*
X525968Y492259D01*
X525993Y492131D01*
X526002Y492000D01*
X525993Y491869D01*
X525968Y491741D01*
X525926Y491617D01*
X525868Y491499D01*
X525795Y491390D01*
X525709Y491291D01*
X520417Y486000D01*
X525709Y480709D01*
X525755Y480656D01*
X525795Y480610D01*
X525868Y480501D01*
X525926Y480383D01*
X525968Y480259D01*
X525993Y480131D01*
X526002Y480000D01*
X525993Y479869D01*
X525968Y479741D01*
X525926Y479617D01*
X525868Y479499D01*
X525795Y479390D01*
X525709Y479291D01*
X525610Y479205D01*
X525501Y479132D01*
X525383Y479074D01*
X525259Y479032D01*
X525131Y479006D01*
X525000Y478998D01*
X516500D01*
X516369Y479007D01*
X516241Y479032D01*
X516116Y479074D01*
X515999Y479132D01*
X515890Y479205D01*
X515791Y479291D01*
X515705Y479390D01*
X515632Y479499D01*
X515574Y479617D01*
X515532Y479741D01*
X515506Y479869D01*
X515498Y480000D01*
Y492000D01*
X515506Y492131D01*
X515532Y492259D01*
X515574Y492383D01*
X515632Y492501D01*
X515705Y492610D01*
X515791Y492709D01*
X515890Y492795D01*
X515999Y492868D01*
X516116Y492926D01*
X516241Y492968D01*
X516369Y492994D01*
X516500Y493002D01*
X525000D01*
X525131Y492994D01*
D02*
G37*
G36*
X482131D02*
X482259Y492968D01*
X482383Y492926D01*
X482501Y492868D01*
X482610Y492795D01*
X482709Y492709D01*
X482795Y492610D01*
X482868Y492501D01*
X482926Y492383D01*
X482968Y492259D01*
X482994Y492131D01*
X483002Y492000D01*
X482994Y491869D01*
X482968Y491741D01*
X482926Y491617D01*
X482868Y491499D01*
X482795Y491390D01*
X482709Y491291D01*
X477417Y486000D01*
X482709Y480709D01*
X482755Y480656D01*
X482795Y480610D01*
X482868Y480501D01*
X482926Y480383D01*
X482968Y480259D01*
X482994Y480131D01*
X483002Y480000D01*
X482994Y479869D01*
X482968Y479741D01*
X482926Y479617D01*
X482868Y479499D01*
X482795Y479390D01*
X482709Y479291D01*
X482610Y479205D01*
X482501Y479132D01*
X482383Y479074D01*
X482259Y479032D01*
X482131Y479006D01*
X482000Y478998D01*
X473500D01*
X473369Y479007D01*
X473241Y479032D01*
X473116Y479074D01*
X472999Y479132D01*
X472890Y479205D01*
X472791Y479291D01*
X472705Y479390D01*
X472632Y479499D01*
X472574Y479617D01*
X472532Y479741D01*
X472506Y479869D01*
X472498Y480000D01*
Y492000D01*
X472506Y492131D01*
X472532Y492259D01*
X472574Y492383D01*
X472632Y492501D01*
X472705Y492610D01*
X472791Y492709D01*
X472890Y492795D01*
X472999Y492868D01*
X473116Y492926D01*
X473241Y492968D01*
X473369Y492994D01*
X473500Y493002D01*
X482000D01*
X482131Y492994D01*
D02*
G37*
G36*
X439131D02*
X439259Y492968D01*
X439384Y492926D01*
X439501Y492868D01*
X439610Y492795D01*
X439709Y492709D01*
X439795Y492610D01*
X439868Y492501D01*
X439926Y492383D01*
X439968Y492259D01*
X439994Y492131D01*
X440002Y492000D01*
X439994Y491869D01*
X439968Y491741D01*
X439926Y491617D01*
X439868Y491499D01*
X439795Y491390D01*
X439709Y491291D01*
X434417Y486000D01*
X439709Y480709D01*
X439755Y480656D01*
X439795Y480610D01*
X439868Y480501D01*
X439926Y480383D01*
X439968Y480259D01*
X439994Y480131D01*
X440002Y480000D01*
X439994Y479869D01*
X439968Y479741D01*
X439926Y479617D01*
X439868Y479499D01*
X439795Y479390D01*
X439709Y479291D01*
X439610Y479205D01*
X439501Y479132D01*
X439384Y479074D01*
X439259Y479032D01*
X439131Y479006D01*
X439000Y478998D01*
X430500D01*
X430369Y479007D01*
X430241Y479032D01*
X430117Y479074D01*
X429999Y479132D01*
X429890Y479205D01*
X429791Y479291D01*
X429705Y479390D01*
X429632Y479499D01*
X429574Y479617D01*
X429532Y479741D01*
X429506Y479869D01*
X429498Y480000D01*
Y492000D01*
X429506Y492131D01*
X429532Y492259D01*
X429574Y492383D01*
X429632Y492501D01*
X429705Y492610D01*
X429791Y492709D01*
X429890Y492795D01*
X429999Y492868D01*
X430117Y492926D01*
X430241Y492968D01*
X430369Y492994D01*
X430500Y493002D01*
X439000D01*
X439131Y492994D01*
D02*
G37*
G36*
X746131D02*
X746259Y492968D01*
X746384Y492926D01*
X746501Y492868D01*
X746610Y492795D01*
X746709Y492709D01*
X746795Y492610D01*
X746868Y492501D01*
X746926Y492383D01*
X746968Y492259D01*
X746993Y492131D01*
X747002Y492000D01*
Y480000D01*
X746993Y479869D01*
X746968Y479741D01*
X746926Y479617D01*
X746868Y479499D01*
X746795Y479390D01*
X746709Y479291D01*
X746610Y479205D01*
X746501Y479132D01*
X746384Y479074D01*
X746259Y479032D01*
X746131Y479006D01*
X746000Y478998D01*
X743000D01*
X742869Y479006D01*
X742741Y479032D01*
X742617Y479074D01*
X742499Y479132D01*
X742390Y479205D01*
X742291Y479291D01*
X736291Y485291D01*
X736205Y485390D01*
X736132Y485499D01*
X736074Y485616D01*
X736032Y485741D01*
X736006Y485869D01*
X735998Y486000D01*
X736006Y486131D01*
X736032Y486259D01*
X736074Y486384D01*
X736132Y486501D01*
X736205Y486610D01*
X736291Y486709D01*
X742291Y492709D01*
X742390Y492795D01*
X742499Y492868D01*
X742617Y492926D01*
X742741Y492968D01*
X742869Y492994D01*
X743000Y493002D01*
X746000D01*
X746131Y492994D01*
D02*
G37*
G36*
X703131D02*
X703259Y492968D01*
X703383Y492926D01*
X703501Y492868D01*
X703610Y492795D01*
X703709Y492709D01*
X703795Y492610D01*
X703868Y492501D01*
X703926Y492383D01*
X703968Y492259D01*
X703994Y492131D01*
X704002Y492000D01*
Y480000D01*
X703994Y479869D01*
X703968Y479741D01*
X703926Y479617D01*
X703868Y479499D01*
X703795Y479390D01*
X703709Y479291D01*
X703610Y479205D01*
X703501Y479132D01*
X703383Y479074D01*
X703259Y479032D01*
X703131Y479006D01*
X703000Y478998D01*
X700000D01*
X699869Y479006D01*
X699741Y479032D01*
X699616Y479074D01*
X699499Y479132D01*
X699390Y479205D01*
X699291Y479291D01*
X693291Y485291D01*
X693205Y485390D01*
X693132Y485499D01*
X693074Y485616D01*
X693032Y485741D01*
X693006Y485869D01*
X692998Y486000D01*
X693006Y486131D01*
X693032Y486259D01*
X693074Y486384D01*
X693132Y486501D01*
X693205Y486610D01*
X693291Y486709D01*
X699291Y492709D01*
X699390Y492795D01*
X699499Y492868D01*
X699616Y492926D01*
X699741Y492968D01*
X699869Y492994D01*
X700000Y493002D01*
X703000D01*
X703131Y492994D01*
D02*
G37*
G36*
X660131D02*
X660259Y492968D01*
X660384Y492926D01*
X660501Y492868D01*
X660610Y492795D01*
X660709Y492709D01*
X660795Y492610D01*
X660868Y492501D01*
X660926Y492383D01*
X660968Y492259D01*
X660993Y492131D01*
X661002Y492000D01*
Y480000D01*
X660993Y479869D01*
X660968Y479741D01*
X660926Y479617D01*
X660868Y479499D01*
X660795Y479390D01*
X660709Y479291D01*
X660610Y479205D01*
X660501Y479132D01*
X660384Y479074D01*
X660259Y479032D01*
X660131Y479006D01*
X660000Y478998D01*
X657000D01*
X656869Y479006D01*
X656741Y479032D01*
X656617Y479074D01*
X656499Y479132D01*
X656390Y479205D01*
X656291Y479291D01*
X650291Y485291D01*
X650205Y485390D01*
X650132Y485499D01*
X650074Y485616D01*
X650032Y485741D01*
X650006Y485869D01*
X649998Y486000D01*
X650006Y486131D01*
X650032Y486259D01*
X650074Y486384D01*
X650132Y486501D01*
X650205Y486610D01*
X650291Y486709D01*
X656291Y492709D01*
X656390Y492795D01*
X656499Y492868D01*
X656617Y492926D01*
X656741Y492968D01*
X656869Y492994D01*
X657000Y493002D01*
X660000D01*
X660131Y492994D01*
D02*
G37*
G36*
X617131D02*
X617259Y492968D01*
X617383Y492926D01*
X617501Y492868D01*
X617610Y492795D01*
X617709Y492709D01*
X617795Y492610D01*
X617868Y492501D01*
X617926Y492383D01*
X617968Y492259D01*
X617994Y492131D01*
X618002Y492000D01*
Y480000D01*
X617994Y479869D01*
X617968Y479741D01*
X617926Y479617D01*
X617868Y479499D01*
X617795Y479390D01*
X617709Y479291D01*
X617610Y479205D01*
X617501Y479132D01*
X617383Y479074D01*
X617259Y479032D01*
X617131Y479006D01*
X617000Y478998D01*
X614000D01*
X613869Y479006D01*
X613741Y479032D01*
X613616Y479074D01*
X613499Y479132D01*
X613390Y479205D01*
X613291Y479291D01*
X607291Y485291D01*
X607205Y485390D01*
X607132Y485499D01*
X607074Y485616D01*
X607032Y485741D01*
X607006Y485869D01*
X606998Y486000D01*
X607006Y486131D01*
X607032Y486259D01*
X607074Y486384D01*
X607132Y486501D01*
X607205Y486610D01*
X607291Y486709D01*
X613291Y492709D01*
X613390Y492795D01*
X613499Y492868D01*
X613616Y492926D01*
X613741Y492968D01*
X613869Y492994D01*
X614000Y493002D01*
X617000D01*
X617131Y492994D01*
D02*
G37*
G36*
X574131D02*
X574259Y492968D01*
X574384Y492926D01*
X574501Y492868D01*
X574610Y492795D01*
X574709Y492709D01*
X574795Y492610D01*
X574868Y492501D01*
X574926Y492383D01*
X574968Y492259D01*
X574994Y492131D01*
X575002Y492000D01*
Y480000D01*
X574994Y479869D01*
X574968Y479741D01*
X574926Y479617D01*
X574868Y479499D01*
X574795Y479390D01*
X574709Y479291D01*
X574610Y479205D01*
X574501Y479132D01*
X574384Y479074D01*
X574259Y479032D01*
X574131Y479006D01*
X574000Y478998D01*
X571000D01*
X570869Y479006D01*
X570741Y479032D01*
X570616Y479074D01*
X570499Y479132D01*
X570390Y479205D01*
X570291Y479291D01*
X564291Y485291D01*
X564205Y485390D01*
X564132Y485499D01*
X564074Y485616D01*
X564032Y485741D01*
X564006Y485869D01*
X563998Y486000D01*
X564006Y486131D01*
X564032Y486259D01*
X564074Y486384D01*
X564132Y486501D01*
X564205Y486610D01*
X564291Y486709D01*
X570291Y492709D01*
X570390Y492795D01*
X570499Y492868D01*
X570616Y492926D01*
X570741Y492968D01*
X570869Y492994D01*
X571000Y493002D01*
X574000D01*
X574131Y492994D01*
D02*
G37*
G36*
X531131D02*
X531259Y492968D01*
X531384Y492926D01*
X531501Y492868D01*
X531610Y492795D01*
X531709Y492709D01*
X531795Y492610D01*
X531868Y492501D01*
X531926Y492383D01*
X531968Y492259D01*
X531993Y492131D01*
X532002Y492000D01*
Y480000D01*
X531993Y479869D01*
X531968Y479741D01*
X531926Y479617D01*
X531868Y479499D01*
X531795Y479390D01*
X531709Y479291D01*
X531610Y479205D01*
X531501Y479132D01*
X531384Y479074D01*
X531259Y479032D01*
X531131Y479006D01*
X531000Y478998D01*
X528000D01*
X527869Y479006D01*
X527741Y479032D01*
X527617Y479074D01*
X527499Y479132D01*
X527390Y479205D01*
X527291Y479291D01*
X521291Y485291D01*
X521205Y485390D01*
X521132Y485499D01*
X521074Y485616D01*
X521032Y485741D01*
X521006Y485869D01*
X520998Y486000D01*
X521006Y486131D01*
X521032Y486259D01*
X521074Y486384D01*
X521132Y486501D01*
X521205Y486610D01*
X521291Y486709D01*
X527291Y492709D01*
X527390Y492795D01*
X527499Y492868D01*
X527617Y492926D01*
X527741Y492968D01*
X527869Y492994D01*
X528000Y493002D01*
X531000D01*
X531131Y492994D01*
D02*
G37*
G36*
X488131D02*
X488259Y492968D01*
X488383Y492926D01*
X488501Y492868D01*
X488610Y492795D01*
X488709Y492709D01*
X488795Y492610D01*
X488868Y492501D01*
X488926Y492383D01*
X488968Y492259D01*
X488993Y492131D01*
X489002Y492000D01*
Y480000D01*
X488993Y479869D01*
X488968Y479741D01*
X488926Y479617D01*
X488868Y479499D01*
X488795Y479390D01*
X488709Y479291D01*
X488610Y479205D01*
X488501Y479132D01*
X488383Y479074D01*
X488259Y479032D01*
X488131Y479006D01*
X488000Y478998D01*
X485000D01*
X484869Y479006D01*
X484741Y479032D01*
X484617Y479074D01*
X484499Y479132D01*
X484390Y479205D01*
X484291Y479291D01*
X478291Y485291D01*
X478205Y485390D01*
X478132Y485499D01*
X478074Y485616D01*
X478032Y485741D01*
X478006Y485869D01*
X477998Y486000D01*
X478006Y486131D01*
X478032Y486259D01*
X478074Y486384D01*
X478132Y486501D01*
X478205Y486610D01*
X478291Y486709D01*
X484291Y492709D01*
X484390Y492795D01*
X484499Y492868D01*
X484617Y492926D01*
X484741Y492968D01*
X484869Y492994D01*
X485000Y493002D01*
X488000D01*
X488131Y492994D01*
D02*
G37*
G36*
X445131D02*
X445259Y492968D01*
X445383Y492926D01*
X445501Y492868D01*
X445610Y492795D01*
X445709Y492709D01*
X445795Y492610D01*
X445868Y492501D01*
X445926Y492383D01*
X445968Y492259D01*
X445993Y492131D01*
X446002Y492000D01*
Y480000D01*
X445993Y479869D01*
X445968Y479741D01*
X445926Y479617D01*
X445868Y479499D01*
X445795Y479390D01*
X445709Y479291D01*
X445610Y479205D01*
X445501Y479132D01*
X445383Y479074D01*
X445259Y479032D01*
X445131Y479006D01*
X445000Y478998D01*
X442000D01*
X441869Y479006D01*
X441741Y479032D01*
X441617Y479074D01*
X441499Y479132D01*
X441390Y479205D01*
X441291Y479291D01*
X435291Y485291D01*
X435205Y485390D01*
X435132Y485499D01*
X435074Y485616D01*
X435032Y485741D01*
X435006Y485869D01*
X434998Y486000D01*
X435006Y486131D01*
X435032Y486259D01*
X435074Y486384D01*
X435132Y486501D01*
X435205Y486610D01*
X435291Y486709D01*
X441291Y492709D01*
X441390Y492795D01*
X441499Y492868D01*
X441617Y492926D01*
X441741Y492968D01*
X441869Y492994D01*
X442000Y493002D01*
X445000D01*
X445131Y492994D01*
D02*
G37*
G36*
X354131Y485590D02*
X354259Y485564D01*
X354384Y485522D01*
X354501Y485464D01*
X354610Y485391D01*
X354709Y485305D01*
X360709Y479305D01*
X360795Y479206D01*
X360868Y479097D01*
X360926Y478979D01*
X360968Y478855D01*
X360993Y478727D01*
X361002Y478596D01*
Y475596D01*
X360993Y475465D01*
X360968Y475337D01*
X360926Y475213D01*
X360868Y475095D01*
X360795Y474986D01*
X360709Y474887D01*
X360610Y474801D01*
X360501Y474728D01*
X360383Y474670D01*
X360259Y474628D01*
X360131Y474603D01*
X360000Y474594D01*
X348000D01*
X347869Y474603D01*
X347741Y474628D01*
X347617Y474670D01*
X347499Y474728D01*
X347390Y474801D01*
X347291Y474887D01*
X347205Y474986D01*
X347132Y475095D01*
X347074Y475213D01*
X347032Y475337D01*
X347006Y475465D01*
X346998Y475596D01*
Y478596D01*
X347006Y478727D01*
X347032Y478855D01*
X347074Y478980D01*
X347132Y479097D01*
X347205Y479206D01*
X347291Y479305D01*
X353291Y485305D01*
X353390Y485391D01*
X353499Y485464D01*
X353616Y485522D01*
X353741Y485564D01*
X353869Y485590D01*
X354000Y485598D01*
X354131Y485590D01*
D02*
G37*
G36*
X408631Y486590D02*
X408759Y486564D01*
X408884Y486522D01*
X409001Y486464D01*
X409110Y486391D01*
X409209Y486305D01*
X409295Y486206D01*
X409368Y486097D01*
X409426Y485979D01*
X409468Y485855D01*
X409493Y485727D01*
X409502Y485596D01*
Y473596D01*
X409493Y473465D01*
X409468Y473337D01*
X409426Y473213D01*
X409368Y473095D01*
X409295Y472986D01*
X409209Y472887D01*
X409110Y472801D01*
X409001Y472728D01*
X408884Y472670D01*
X408759Y472628D01*
X408631Y472603D01*
X408500Y472594D01*
X400000D01*
X399869Y472603D01*
X399741Y472628D01*
X399617Y472670D01*
X399499Y472728D01*
X399390Y472801D01*
X399291Y472887D01*
X399205Y472986D01*
X399132Y473095D01*
X399074Y473213D01*
X399032Y473337D01*
X399006Y473465D01*
X398998Y473596D01*
X399006Y473727D01*
X399032Y473855D01*
X399074Y473980D01*
X399132Y474097D01*
X399205Y474206D01*
X399291Y474305D01*
X404583Y479596D01*
X399291Y484887D01*
X399245Y484940D01*
X399205Y484986D01*
X399132Y485095D01*
X399074Y485213D01*
X399032Y485337D01*
X399006Y485465D01*
X398998Y485596D01*
X399006Y485727D01*
X399032Y485855D01*
X399074Y485979D01*
X399132Y486097D01*
X399205Y486206D01*
X399291Y486305D01*
X399390Y486391D01*
X399499Y486464D01*
X399617Y486522D01*
X399741Y486564D01*
X399869Y486590D01*
X400000Y486598D01*
X408500D01*
X408631Y486590D01*
D02*
G37*
G36*
X397131Y486590D02*
X397259Y486564D01*
X397383Y486522D01*
X397501Y486464D01*
X397610Y486391D01*
X397709Y486305D01*
X403709Y480305D01*
X403795Y480206D01*
X403868Y480097D01*
X403926Y479980D01*
X403968Y479855D01*
X403994Y479727D01*
X404002Y479596D01*
X403993Y479465D01*
X403968Y479337D01*
X403926Y479212D01*
X403868Y479095D01*
X403795Y478986D01*
X403709Y478887D01*
X397709Y472887D01*
X397610Y472801D01*
X397501Y472728D01*
X397383Y472670D01*
X397259Y472628D01*
X397131Y472603D01*
X397000Y472594D01*
X394000D01*
X393869Y472603D01*
X393741Y472628D01*
X393616Y472670D01*
X393499Y472728D01*
X393390Y472801D01*
X393291Y472887D01*
X393205Y472986D01*
X393132Y473095D01*
X393074Y473213D01*
X393032Y473337D01*
X393006Y473465D01*
X392998Y473596D01*
Y485596D01*
X393006Y485727D01*
X393032Y485855D01*
X393074Y485979D01*
X393132Y486097D01*
X393205Y486206D01*
X393291Y486305D01*
X393390Y486391D01*
X393499Y486464D01*
X393616Y486522D01*
X393741Y486564D01*
X393869Y486590D01*
X394000Y486598D01*
X397000D01*
X397131Y486590D01*
D02*
G37*
G36*
X740131Y476993D02*
X740259Y476968D01*
X740384Y476926D01*
X740501Y476868D01*
X740610Y476795D01*
X740709Y476709D01*
X740795Y476610D01*
X740868Y476501D01*
X740926Y476384D01*
X740968Y476259D01*
X740993Y476131D01*
X741002Y476000D01*
X740993Y475869D01*
X740968Y475741D01*
X740926Y475616D01*
X740868Y475499D01*
X740795Y475390D01*
X740709Y475291D01*
X735417Y470000D01*
X740709Y464709D01*
X740755Y464656D01*
X740795Y464610D01*
X740868Y464501D01*
X740926Y464384D01*
X740968Y464259D01*
X740993Y464131D01*
X741002Y464000D01*
X740993Y463869D01*
X740968Y463741D01*
X740926Y463616D01*
X740868Y463499D01*
X740795Y463390D01*
X740709Y463291D01*
X740610Y463205D01*
X740501Y463132D01*
X740384Y463074D01*
X740259Y463032D01*
X740131Y463006D01*
X740000Y462998D01*
X731500D01*
X731369Y463007D01*
X731241Y463032D01*
X731116Y463074D01*
X730999Y463132D01*
X730890Y463205D01*
X730791Y463291D01*
X730705Y463390D01*
X730632Y463499D01*
X730574Y463616D01*
X730532Y463741D01*
X730506Y463869D01*
X730498Y464000D01*
Y476000D01*
X730506Y476131D01*
X730532Y476259D01*
X730574Y476384D01*
X730632Y476501D01*
X730705Y476610D01*
X730791Y476709D01*
X730890Y476795D01*
X730999Y476868D01*
X731116Y476926D01*
X731241Y476968D01*
X731369Y476993D01*
X731500Y477002D01*
X740000D01*
X740131Y476993D01*
D02*
G37*
G36*
X697131D02*
X697259Y476968D01*
X697383Y476926D01*
X697501Y476868D01*
X697610Y476795D01*
X697709Y476709D01*
X697795Y476610D01*
X697868Y476501D01*
X697926Y476384D01*
X697968Y476259D01*
X697993Y476131D01*
X698002Y476000D01*
X697993Y475869D01*
X697968Y475741D01*
X697926Y475616D01*
X697868Y475499D01*
X697795Y475390D01*
X697709Y475291D01*
X692417Y470000D01*
X697709Y464709D01*
X697755Y464656D01*
X697795Y464610D01*
X697868Y464501D01*
X697926Y464384D01*
X697968Y464259D01*
X697993Y464131D01*
X698002Y464000D01*
X697993Y463869D01*
X697968Y463741D01*
X697926Y463616D01*
X697868Y463499D01*
X697795Y463390D01*
X697709Y463291D01*
X697610Y463205D01*
X697501Y463132D01*
X697383Y463074D01*
X697259Y463032D01*
X697131Y463006D01*
X697000Y462998D01*
X688500D01*
X688369Y463007D01*
X688241Y463032D01*
X688117Y463074D01*
X687999Y463132D01*
X687890Y463205D01*
X687791Y463291D01*
X687705Y463390D01*
X687632Y463499D01*
X687574Y463616D01*
X687532Y463741D01*
X687506Y463869D01*
X687498Y464000D01*
Y476000D01*
X687506Y476131D01*
X687532Y476259D01*
X687574Y476384D01*
X687632Y476501D01*
X687705Y476610D01*
X687791Y476709D01*
X687890Y476795D01*
X687999Y476868D01*
X688117Y476926D01*
X688241Y476968D01*
X688369Y476993D01*
X688500Y477002D01*
X697000D01*
X697131Y476993D01*
D02*
G37*
G36*
X654131D02*
X654259Y476968D01*
X654383Y476926D01*
X654501Y476868D01*
X654610Y476795D01*
X654709Y476709D01*
X654795Y476610D01*
X654868Y476501D01*
X654926Y476384D01*
X654968Y476259D01*
X654994Y476131D01*
X655002Y476000D01*
X654994Y475869D01*
X654968Y475741D01*
X654926Y475616D01*
X654868Y475499D01*
X654795Y475390D01*
X654709Y475291D01*
X649417Y470000D01*
X654709Y464709D01*
X654755Y464656D01*
X654795Y464610D01*
X654868Y464501D01*
X654926Y464384D01*
X654968Y464259D01*
X654994Y464131D01*
X655002Y464000D01*
X654994Y463869D01*
X654968Y463741D01*
X654926Y463616D01*
X654868Y463499D01*
X654795Y463390D01*
X654709Y463291D01*
X654610Y463205D01*
X654501Y463132D01*
X654383Y463074D01*
X654259Y463032D01*
X654131Y463006D01*
X654000Y462998D01*
X645500D01*
X645369Y463007D01*
X645241Y463032D01*
X645117Y463074D01*
X644999Y463132D01*
X644890Y463205D01*
X644791Y463291D01*
X644705Y463390D01*
X644632Y463499D01*
X644574Y463616D01*
X644532Y463741D01*
X644506Y463869D01*
X644498Y464000D01*
Y476000D01*
X644506Y476131D01*
X644532Y476259D01*
X644574Y476384D01*
X644632Y476501D01*
X644705Y476610D01*
X644791Y476709D01*
X644890Y476795D01*
X644999Y476868D01*
X645117Y476926D01*
X645241Y476968D01*
X645369Y476993D01*
X645500Y477002D01*
X654000D01*
X654131Y476993D01*
D02*
G37*
G36*
X611131D02*
X611259Y476968D01*
X611384Y476926D01*
X611501Y476868D01*
X611610Y476795D01*
X611709Y476709D01*
X611795Y476610D01*
X611868Y476501D01*
X611926Y476384D01*
X611968Y476259D01*
X611993Y476131D01*
X612002Y476000D01*
X611993Y475869D01*
X611968Y475741D01*
X611926Y475616D01*
X611868Y475499D01*
X611795Y475390D01*
X611709Y475291D01*
X606417Y470000D01*
X611709Y464709D01*
X611755Y464656D01*
X611795Y464610D01*
X611868Y464501D01*
X611926Y464384D01*
X611968Y464259D01*
X611993Y464131D01*
X612002Y464000D01*
X611993Y463869D01*
X611968Y463741D01*
X611926Y463616D01*
X611868Y463499D01*
X611795Y463390D01*
X611709Y463291D01*
X611610Y463205D01*
X611501Y463132D01*
X611384Y463074D01*
X611259Y463032D01*
X611131Y463006D01*
X611000Y462998D01*
X602500D01*
X602369Y463007D01*
X602241Y463032D01*
X602117Y463074D01*
X601999Y463132D01*
X601890Y463205D01*
X601791Y463291D01*
X601705Y463390D01*
X601632Y463499D01*
X601574Y463616D01*
X601532Y463741D01*
X601506Y463869D01*
X601498Y464000D01*
Y476000D01*
X601506Y476131D01*
X601532Y476259D01*
X601574Y476384D01*
X601632Y476501D01*
X601705Y476610D01*
X601791Y476709D01*
X601890Y476795D01*
X601999Y476868D01*
X602117Y476926D01*
X602241Y476968D01*
X602369Y476993D01*
X602500Y477002D01*
X611000D01*
X611131Y476993D01*
D02*
G37*
G36*
X568131D02*
X568259Y476968D01*
X568383Y476926D01*
X568501Y476868D01*
X568610Y476795D01*
X568709Y476709D01*
X568795Y476610D01*
X568868Y476501D01*
X568926Y476384D01*
X568968Y476259D01*
X568993Y476131D01*
X569002Y476000D01*
X568993Y475869D01*
X568968Y475741D01*
X568926Y475616D01*
X568868Y475499D01*
X568795Y475390D01*
X568709Y475291D01*
X563417Y470000D01*
X568709Y464709D01*
X568755Y464656D01*
X568795Y464610D01*
X568868Y464501D01*
X568926Y464384D01*
X568968Y464259D01*
X568993Y464131D01*
X569002Y464000D01*
X568993Y463869D01*
X568968Y463741D01*
X568926Y463616D01*
X568868Y463499D01*
X568795Y463390D01*
X568709Y463291D01*
X568610Y463205D01*
X568501Y463132D01*
X568383Y463074D01*
X568259Y463032D01*
X568131Y463006D01*
X568000Y462998D01*
X559500D01*
X559369Y463007D01*
X559241Y463032D01*
X559117Y463074D01*
X558999Y463132D01*
X558890Y463205D01*
X558791Y463291D01*
X558705Y463390D01*
X558632Y463499D01*
X558574Y463616D01*
X558532Y463741D01*
X558506Y463869D01*
X558498Y464000D01*
Y476000D01*
X558506Y476131D01*
X558532Y476259D01*
X558574Y476384D01*
X558632Y476501D01*
X558705Y476610D01*
X558791Y476709D01*
X558890Y476795D01*
X558999Y476868D01*
X559117Y476926D01*
X559241Y476968D01*
X559369Y476993D01*
X559500Y477002D01*
X568000D01*
X568131Y476993D01*
D02*
G37*
G36*
X525131D02*
X525259Y476968D01*
X525383Y476926D01*
X525501Y476868D01*
X525610Y476795D01*
X525709Y476709D01*
X525795Y476610D01*
X525868Y476501D01*
X525926Y476384D01*
X525968Y476259D01*
X525993Y476131D01*
X526002Y476000D01*
X525993Y475869D01*
X525968Y475741D01*
X525926Y475616D01*
X525868Y475499D01*
X525795Y475390D01*
X525709Y475291D01*
X520417Y470000D01*
X525709Y464709D01*
X525755Y464656D01*
X525795Y464610D01*
X525868Y464501D01*
X525926Y464384D01*
X525968Y464259D01*
X525993Y464131D01*
X526002Y464000D01*
X525993Y463869D01*
X525968Y463741D01*
X525926Y463616D01*
X525868Y463499D01*
X525795Y463390D01*
X525709Y463291D01*
X525610Y463205D01*
X525501Y463132D01*
X525383Y463074D01*
X525259Y463032D01*
X525131Y463006D01*
X525000Y462998D01*
X516500D01*
X516369Y463007D01*
X516241Y463032D01*
X516116Y463074D01*
X515999Y463132D01*
X515890Y463205D01*
X515791Y463291D01*
X515705Y463390D01*
X515632Y463499D01*
X515574Y463616D01*
X515532Y463741D01*
X515506Y463869D01*
X515498Y464000D01*
Y476000D01*
X515506Y476131D01*
X515532Y476259D01*
X515574Y476384D01*
X515632Y476501D01*
X515705Y476610D01*
X515791Y476709D01*
X515890Y476795D01*
X515999Y476868D01*
X516116Y476926D01*
X516241Y476968D01*
X516369Y476993D01*
X516500Y477002D01*
X525000D01*
X525131Y476993D01*
D02*
G37*
G36*
X482131D02*
X482259Y476968D01*
X482383Y476926D01*
X482501Y476868D01*
X482610Y476795D01*
X482709Y476709D01*
X482795Y476610D01*
X482868Y476501D01*
X482926Y476384D01*
X482968Y476259D01*
X482994Y476131D01*
X483002Y476000D01*
X482994Y475869D01*
X482968Y475741D01*
X482926Y475616D01*
X482868Y475499D01*
X482795Y475390D01*
X482709Y475291D01*
X477417Y470000D01*
X482709Y464709D01*
X482755Y464656D01*
X482795Y464610D01*
X482868Y464501D01*
X482926Y464384D01*
X482968Y464259D01*
X482994Y464131D01*
X483002Y464000D01*
X482994Y463869D01*
X482968Y463741D01*
X482926Y463616D01*
X482868Y463499D01*
X482795Y463390D01*
X482709Y463291D01*
X482610Y463205D01*
X482501Y463132D01*
X482383Y463074D01*
X482259Y463032D01*
X482131Y463006D01*
X482000Y462998D01*
X473500D01*
X473369Y463007D01*
X473241Y463032D01*
X473116Y463074D01*
X472999Y463132D01*
X472890Y463205D01*
X472791Y463291D01*
X472705Y463390D01*
X472632Y463499D01*
X472574Y463616D01*
X472532Y463741D01*
X472506Y463869D01*
X472498Y464000D01*
Y476000D01*
X472506Y476131D01*
X472532Y476259D01*
X472574Y476384D01*
X472632Y476501D01*
X472705Y476610D01*
X472791Y476709D01*
X472890Y476795D01*
X472999Y476868D01*
X473116Y476926D01*
X473241Y476968D01*
X473369Y476993D01*
X473500Y477002D01*
X482000D01*
X482131Y476993D01*
D02*
G37*
G36*
X439131D02*
X439259Y476968D01*
X439384Y476926D01*
X439501Y476868D01*
X439610Y476795D01*
X439709Y476709D01*
X439795Y476610D01*
X439868Y476501D01*
X439926Y476384D01*
X439968Y476259D01*
X439994Y476131D01*
X440002Y476000D01*
X439994Y475869D01*
X439968Y475741D01*
X439926Y475616D01*
X439868Y475499D01*
X439795Y475390D01*
X439709Y475291D01*
X434417Y470000D01*
X439709Y464709D01*
X439755Y464656D01*
X439795Y464610D01*
X439868Y464501D01*
X439926Y464384D01*
X439968Y464259D01*
X439994Y464131D01*
X440002Y464000D01*
X439994Y463869D01*
X439968Y463741D01*
X439926Y463616D01*
X439868Y463499D01*
X439795Y463390D01*
X439709Y463291D01*
X439610Y463205D01*
X439501Y463132D01*
X439384Y463074D01*
X439259Y463032D01*
X439131Y463006D01*
X439000Y462998D01*
X430500D01*
X430369Y463007D01*
X430241Y463032D01*
X430117Y463074D01*
X429999Y463132D01*
X429890Y463205D01*
X429791Y463291D01*
X429705Y463390D01*
X429632Y463499D01*
X429574Y463616D01*
X429532Y463741D01*
X429506Y463869D01*
X429498Y464000D01*
Y476000D01*
X429506Y476131D01*
X429532Y476259D01*
X429574Y476384D01*
X429632Y476501D01*
X429705Y476610D01*
X429791Y476709D01*
X429890Y476795D01*
X429999Y476868D01*
X430117Y476926D01*
X430241Y476968D01*
X430369Y476993D01*
X430500Y477002D01*
X439000D01*
X439131Y476993D01*
D02*
G37*
G36*
X746131D02*
X746259Y476968D01*
X746384Y476926D01*
X746501Y476868D01*
X746610Y476795D01*
X746709Y476709D01*
X746795Y476610D01*
X746868Y476501D01*
X746926Y476384D01*
X746968Y476259D01*
X746993Y476131D01*
X747002Y476000D01*
Y464000D01*
X746993Y463869D01*
X746968Y463741D01*
X746926Y463616D01*
X746868Y463499D01*
X746795Y463390D01*
X746709Y463291D01*
X746610Y463205D01*
X746501Y463132D01*
X746384Y463074D01*
X746259Y463032D01*
X746131Y463006D01*
X746000Y462998D01*
X743000D01*
X742869Y463006D01*
X742741Y463032D01*
X742617Y463074D01*
X742499Y463132D01*
X742390Y463205D01*
X742291Y463291D01*
X736291Y469291D01*
X736205Y469390D01*
X736132Y469499D01*
X736074Y469617D01*
X736032Y469741D01*
X736006Y469869D01*
X735998Y470000D01*
X736006Y470131D01*
X736032Y470259D01*
X736074Y470383D01*
X736132Y470501D01*
X736205Y470610D01*
X736291Y470709D01*
X742291Y476709D01*
X742390Y476795D01*
X742499Y476868D01*
X742617Y476926D01*
X742741Y476968D01*
X742869Y476993D01*
X743000Y477002D01*
X746000D01*
X746131Y476993D01*
D02*
G37*
G36*
X703131D02*
X703259Y476968D01*
X703383Y476926D01*
X703501Y476868D01*
X703610Y476795D01*
X703709Y476709D01*
X703795Y476610D01*
X703868Y476501D01*
X703926Y476384D01*
X703968Y476259D01*
X703994Y476131D01*
X704002Y476000D01*
Y464000D01*
X703994Y463869D01*
X703968Y463741D01*
X703926Y463616D01*
X703868Y463499D01*
X703795Y463390D01*
X703709Y463291D01*
X703610Y463205D01*
X703501Y463132D01*
X703383Y463074D01*
X703259Y463032D01*
X703131Y463006D01*
X703000Y462998D01*
X700000D01*
X699869Y463006D01*
X699741Y463032D01*
X699616Y463074D01*
X699499Y463132D01*
X699390Y463205D01*
X699291Y463291D01*
X693291Y469291D01*
X693205Y469390D01*
X693132Y469499D01*
X693074Y469617D01*
X693032Y469741D01*
X693006Y469869D01*
X692998Y470000D01*
X693006Y470131D01*
X693032Y470259D01*
X693074Y470383D01*
X693132Y470501D01*
X693205Y470610D01*
X693291Y470709D01*
X699291Y476709D01*
X699390Y476795D01*
X699499Y476868D01*
X699616Y476926D01*
X699741Y476968D01*
X699869Y476993D01*
X700000Y477002D01*
X703000D01*
X703131Y476993D01*
D02*
G37*
G36*
X660131D02*
X660259Y476968D01*
X660384Y476926D01*
X660501Y476868D01*
X660610Y476795D01*
X660709Y476709D01*
X660795Y476610D01*
X660868Y476501D01*
X660926Y476384D01*
X660968Y476259D01*
X660993Y476131D01*
X661002Y476000D01*
Y464000D01*
X660993Y463869D01*
X660968Y463741D01*
X660926Y463616D01*
X660868Y463499D01*
X660795Y463390D01*
X660709Y463291D01*
X660610Y463205D01*
X660501Y463132D01*
X660384Y463074D01*
X660259Y463032D01*
X660131Y463006D01*
X660000Y462998D01*
X657000D01*
X656869Y463006D01*
X656741Y463032D01*
X656617Y463074D01*
X656499Y463132D01*
X656390Y463205D01*
X656291Y463291D01*
X650291Y469291D01*
X650205Y469390D01*
X650132Y469499D01*
X650074Y469617D01*
X650032Y469741D01*
X650006Y469869D01*
X649998Y470000D01*
X650006Y470131D01*
X650032Y470259D01*
X650074Y470383D01*
X650132Y470501D01*
X650205Y470610D01*
X650291Y470709D01*
X656291Y476709D01*
X656390Y476795D01*
X656499Y476868D01*
X656617Y476926D01*
X656741Y476968D01*
X656869Y476993D01*
X657000Y477002D01*
X660000D01*
X660131Y476993D01*
D02*
G37*
G36*
X617131D02*
X617259Y476968D01*
X617383Y476926D01*
X617501Y476868D01*
X617610Y476795D01*
X617709Y476709D01*
X617795Y476610D01*
X617868Y476501D01*
X617926Y476384D01*
X617968Y476259D01*
X617994Y476131D01*
X618002Y476000D01*
Y464000D01*
X617994Y463869D01*
X617968Y463741D01*
X617926Y463616D01*
X617868Y463499D01*
X617795Y463390D01*
X617709Y463291D01*
X617610Y463205D01*
X617501Y463132D01*
X617383Y463074D01*
X617259Y463032D01*
X617131Y463006D01*
X617000Y462998D01*
X614000D01*
X613869Y463006D01*
X613741Y463032D01*
X613616Y463074D01*
X613499Y463132D01*
X613390Y463205D01*
X613291Y463291D01*
X607291Y469291D01*
X607205Y469390D01*
X607132Y469499D01*
X607074Y469617D01*
X607032Y469741D01*
X607006Y469869D01*
X606998Y470000D01*
X607006Y470131D01*
X607032Y470259D01*
X607074Y470383D01*
X607132Y470501D01*
X607205Y470610D01*
X607291Y470709D01*
X613291Y476709D01*
X613390Y476795D01*
X613499Y476868D01*
X613616Y476926D01*
X613741Y476968D01*
X613869Y476993D01*
X614000Y477002D01*
X617000D01*
X617131Y476993D01*
D02*
G37*
G36*
X574131D02*
X574259Y476968D01*
X574384Y476926D01*
X574501Y476868D01*
X574610Y476795D01*
X574709Y476709D01*
X574795Y476610D01*
X574868Y476501D01*
X574926Y476384D01*
X574968Y476259D01*
X574994Y476131D01*
X575002Y476000D01*
Y464000D01*
X574994Y463869D01*
X574968Y463741D01*
X574926Y463616D01*
X574868Y463499D01*
X574795Y463390D01*
X574709Y463291D01*
X574610Y463205D01*
X574501Y463132D01*
X574384Y463074D01*
X574259Y463032D01*
X574131Y463006D01*
X574000Y462998D01*
X571000D01*
X570869Y463006D01*
X570741Y463032D01*
X570616Y463074D01*
X570499Y463132D01*
X570390Y463205D01*
X570291Y463291D01*
X564291Y469291D01*
X564205Y469390D01*
X564132Y469499D01*
X564074Y469617D01*
X564032Y469741D01*
X564006Y469869D01*
X563998Y470000D01*
X564006Y470131D01*
X564032Y470259D01*
X564074Y470383D01*
X564132Y470501D01*
X564205Y470610D01*
X564291Y470709D01*
X570291Y476709D01*
X570390Y476795D01*
X570499Y476868D01*
X570616Y476926D01*
X570741Y476968D01*
X570869Y476993D01*
X571000Y477002D01*
X574000D01*
X574131Y476993D01*
D02*
G37*
G36*
X531131D02*
X531259Y476968D01*
X531384Y476926D01*
X531501Y476868D01*
X531610Y476795D01*
X531709Y476709D01*
X531795Y476610D01*
X531868Y476501D01*
X531926Y476384D01*
X531968Y476259D01*
X531993Y476131D01*
X532002Y476000D01*
Y464000D01*
X531993Y463869D01*
X531968Y463741D01*
X531926Y463616D01*
X531868Y463499D01*
X531795Y463390D01*
X531709Y463291D01*
X531610Y463205D01*
X531501Y463132D01*
X531384Y463074D01*
X531259Y463032D01*
X531131Y463006D01*
X531000Y462998D01*
X528000D01*
X527869Y463006D01*
X527741Y463032D01*
X527617Y463074D01*
X527499Y463132D01*
X527390Y463205D01*
X527291Y463291D01*
X521291Y469291D01*
X521205Y469390D01*
X521132Y469499D01*
X521074Y469617D01*
X521032Y469741D01*
X521006Y469869D01*
X520998Y470000D01*
X521006Y470131D01*
X521032Y470259D01*
X521074Y470383D01*
X521132Y470501D01*
X521205Y470610D01*
X521291Y470709D01*
X527291Y476709D01*
X527390Y476795D01*
X527499Y476868D01*
X527617Y476926D01*
X527741Y476968D01*
X527869Y476993D01*
X528000Y477002D01*
X531000D01*
X531131Y476993D01*
D02*
G37*
G36*
X488131D02*
X488259Y476968D01*
X488383Y476926D01*
X488501Y476868D01*
X488610Y476795D01*
X488709Y476709D01*
X488795Y476610D01*
X488868Y476501D01*
X488926Y476384D01*
X488968Y476259D01*
X488993Y476131D01*
X489002Y476000D01*
Y464000D01*
X488993Y463869D01*
X488968Y463741D01*
X488926Y463616D01*
X488868Y463499D01*
X488795Y463390D01*
X488709Y463291D01*
X488610Y463205D01*
X488501Y463132D01*
X488383Y463074D01*
X488259Y463032D01*
X488131Y463006D01*
X488000Y462998D01*
X485000D01*
X484869Y463006D01*
X484741Y463032D01*
X484617Y463074D01*
X484499Y463132D01*
X484390Y463205D01*
X484291Y463291D01*
X478291Y469291D01*
X478205Y469390D01*
X478132Y469499D01*
X478074Y469617D01*
X478032Y469741D01*
X478006Y469869D01*
X477998Y470000D01*
X478006Y470131D01*
X478032Y470259D01*
X478074Y470383D01*
X478132Y470501D01*
X478205Y470610D01*
X478291Y470709D01*
X484291Y476709D01*
X484390Y476795D01*
X484499Y476868D01*
X484617Y476926D01*
X484741Y476968D01*
X484869Y476993D01*
X485000Y477002D01*
X488000D01*
X488131Y476993D01*
D02*
G37*
G36*
X445131D02*
X445259Y476968D01*
X445383Y476926D01*
X445501Y476868D01*
X445610Y476795D01*
X445709Y476709D01*
X445795Y476610D01*
X445868Y476501D01*
X445926Y476384D01*
X445968Y476259D01*
X445993Y476131D01*
X446002Y476000D01*
Y464000D01*
X445993Y463869D01*
X445968Y463741D01*
X445926Y463616D01*
X445868Y463499D01*
X445795Y463390D01*
X445709Y463291D01*
X445610Y463205D01*
X445501Y463132D01*
X445383Y463074D01*
X445259Y463032D01*
X445131Y463006D01*
X445000Y462998D01*
X442000D01*
X441869Y463006D01*
X441741Y463032D01*
X441617Y463074D01*
X441499Y463132D01*
X441390Y463205D01*
X441291Y463291D01*
X435291Y469291D01*
X435205Y469390D01*
X435132Y469499D01*
X435074Y469617D01*
X435032Y469741D01*
X435006Y469869D01*
X434998Y470000D01*
X435006Y470131D01*
X435032Y470259D01*
X435074Y470383D01*
X435132Y470501D01*
X435205Y470610D01*
X435291Y470709D01*
X441291Y476709D01*
X441390Y476795D01*
X441499Y476868D01*
X441617Y476926D01*
X441741Y476968D01*
X441869Y476993D01*
X442000Y477002D01*
X445000D01*
X445131Y476993D01*
D02*
G37*
G36*
X594881Y319993D02*
X595009Y319968D01*
X595134Y319926D01*
X595251Y319868D01*
X595360Y319795D01*
X595459Y319709D01*
X595545Y319610D01*
X595618Y319501D01*
X595676Y319384D01*
X595718Y319259D01*
X595744Y319131D01*
X595752Y319000D01*
Y307000D01*
X595744Y306869D01*
X595718Y306741D01*
X595676Y306616D01*
X595618Y306499D01*
X595545Y306390D01*
X595459Y306291D01*
X595360Y306205D01*
X595251Y306132D01*
X595134Y306074D01*
X595009Y306032D01*
X594881Y306007D01*
X594750Y305998D01*
X586250D01*
X586119Y306007D01*
X585991Y306032D01*
X585867Y306074D01*
X585749Y306132D01*
X585640Y306205D01*
X585541Y306291D01*
X585455Y306390D01*
X585382Y306499D01*
X585324Y306616D01*
X585282Y306741D01*
X585257Y306869D01*
X585248Y307000D01*
X585257Y307131D01*
X585282Y307259D01*
X585324Y307383D01*
X585382Y307501D01*
X585455Y307610D01*
X585541Y307709D01*
X590833Y313000D01*
X585541Y318291D01*
X585495Y318344D01*
X585455Y318390D01*
X585382Y318499D01*
X585324Y318617D01*
X585282Y318741D01*
X585257Y318869D01*
X585248Y319000D01*
X585257Y319131D01*
X585282Y319259D01*
X585324Y319384D01*
X585382Y319501D01*
X585455Y319610D01*
X585541Y319709D01*
X585640Y319795D01*
X585749Y319868D01*
X585867Y319926D01*
X585991Y319968D01*
X586119Y319994D01*
X586250Y320002D01*
X594750D01*
X594881Y319993D01*
D02*
G37*
G36*
X583381Y319994D02*
X583509Y319968D01*
X583633Y319926D01*
X583751Y319868D01*
X583860Y319795D01*
X583959Y319709D01*
X589959Y313709D01*
X590045Y313610D01*
X590118Y313501D01*
X590176Y313384D01*
X590218Y313259D01*
X590244Y313131D01*
X590252Y313000D01*
X590244Y312869D01*
X590218Y312741D01*
X590176Y312617D01*
X590118Y312499D01*
X590045Y312390D01*
X589959Y312291D01*
X583959Y306291D01*
X583860Y306205D01*
X583751Y306132D01*
X583633Y306074D01*
X583509Y306032D01*
X583381Y306007D01*
X583250Y305998D01*
X580250D01*
X580119Y306007D01*
X579991Y306032D01*
X579866Y306074D01*
X579749Y306132D01*
X579640Y306205D01*
X579541Y306291D01*
X579455Y306390D01*
X579382Y306499D01*
X579324Y306616D01*
X579282Y306741D01*
X579257Y306869D01*
X579248Y307000D01*
Y319000D01*
X579257Y319131D01*
X579282Y319259D01*
X579324Y319384D01*
X579382Y319501D01*
X579455Y319610D01*
X579541Y319709D01*
X579640Y319795D01*
X579749Y319868D01*
X579866Y319926D01*
X579991Y319968D01*
X580119Y319994D01*
X580250Y320002D01*
X583250D01*
X583381Y319994D01*
D02*
G37*
D70*
X586750Y313000D02*
D03*
X739501Y470001D02*
D03*
X739501Y486001D02*
D03*
Y502001D02*
D03*
X696501Y470001D02*
D03*
Y486001D02*
D03*
Y502001D02*
D03*
X653500Y470000D02*
D03*
Y486000D02*
D03*
Y502000D02*
D03*
X610501Y470000D02*
D03*
Y486001D02*
D03*
Y502001D02*
D03*
X567501Y470001D02*
D03*
X567501Y486001D02*
D03*
Y502001D02*
D03*
X524501Y470001D02*
D03*
Y486001D02*
D03*
Y502001D02*
D03*
X481501Y470001D02*
D03*
X481501Y486001D02*
D03*
Y502001D02*
D03*
X438501Y470001D02*
D03*
Y486001D02*
D03*
Y502001D02*
D03*
X400500Y495596D02*
D03*
Y479595D02*
D03*
D71*
X494000Y326500D02*
D03*
Y341500D02*
D03*
X224000Y370500D02*
D03*
Y355500D02*
D03*
D72*
X367750Y479846D02*
D03*
Y494596D02*
D03*
X365000Y277000D02*
D03*
X349000D02*
D03*
X365000Y292000D02*
D03*
X349000D02*
D03*
X365000Y307000D02*
D03*
X349000D02*
D03*
X365000Y322000D02*
D03*
X349000D02*
D03*
X365000Y337000D02*
D03*
X349000D02*
D03*
X1000000Y633000D02*
D03*
X984000D02*
D03*
X967000D02*
D03*
X951000D02*
D03*
X383750Y494596D02*
D03*
Y479846D02*
D03*
D73*
X860750Y532499D02*
D03*
X904500Y536000D02*
D03*
X1012529Y557389D02*
D03*
X1012529Y571389D02*
D03*
X904500Y550000D02*
D03*
X860750Y546499D02*
D03*
X937750Y651250D02*
D03*
Y637250D02*
D03*
X223000Y400000D02*
D03*
Y386000D02*
D03*
D74*
X839000Y555250D02*
D03*
X825000D02*
D03*
X585000Y84000D02*
D03*
X951500Y447750D02*
D03*
X937500D02*
D03*
X599000Y84000D02*
D03*
X349000Y505000D02*
D03*
X335000D02*
D03*
X811000Y557000D02*
D03*
X797000D02*
D03*
X743000D02*
D03*
X729000D02*
D03*
X675000D02*
D03*
X661000D02*
D03*
X607000D02*
D03*
X593000D02*
D03*
X539000D02*
D03*
X525000D02*
D03*
X471000D02*
D03*
X457000D02*
D03*
X403000D02*
D03*
X389000D02*
D03*
X335000D02*
D03*
X321000D02*
D03*
X267000D02*
D03*
X253000D02*
D03*
X199000Y557000D02*
D03*
X185000D02*
D03*
X757000Y557000D02*
D03*
X771000D02*
D03*
X689000D02*
D03*
X703000D02*
D03*
X621000D02*
D03*
X635000D02*
D03*
X553000D02*
D03*
X567000D02*
D03*
X485000D02*
D03*
X499000D02*
D03*
X417000D02*
D03*
X431000D02*
D03*
X349000D02*
D03*
X363000D02*
D03*
X281000D02*
D03*
X295000D02*
D03*
X213000Y557000D02*
D03*
X227000D02*
D03*
D75*
X876263Y603675D02*
D03*
X374250Y433500D02*
D03*
X896402Y524282D02*
D03*
X623000Y86000D02*
D03*
X944750Y559000D02*
D03*
X930750D02*
D03*
X609000Y86000D02*
D03*
X882402Y524282D02*
D03*
X890263Y603675D02*
D03*
X888463Y667000D02*
D03*
X902463D02*
D03*
X388250Y433500D02*
D03*
X749250Y388844D02*
D03*
X735250D02*
D03*
X706250D02*
D03*
X692250D02*
D03*
X663250D02*
D03*
X649250D02*
D03*
X620250D02*
D03*
X606250D02*
D03*
X577250D02*
D03*
X563250D02*
D03*
X534250D02*
D03*
X520250D02*
D03*
X491250D02*
D03*
X477250D02*
D03*
X448250D02*
D03*
X434250D02*
D03*
D78*
X878067Y475451D02*
D03*
X1013229Y596239D02*
D03*
X1013229Y582239D02*
D03*
X878067Y461451D02*
D03*
X228000Y512000D02*
D03*
Y498000D02*
D03*
X227000Y473500D02*
D03*
Y487500D02*
D03*
D79*
X907250Y517000D02*
D03*
X920750D02*
D03*
X859000Y667000D02*
D03*
X872500D02*
D03*
D80*
X968000Y459500D02*
D03*
Y446000D02*
D03*
D81*
X543200Y103500D02*
D03*
X530500D02*
D03*
X555900D02*
D03*
X606700D02*
D03*
X568600D02*
D03*
X581300D02*
D03*
X594000D02*
D03*
X619400D02*
D03*
Y198000D02*
D03*
X606700D02*
D03*
X594000D02*
D03*
X581300D02*
D03*
X568600D02*
D03*
X555900D02*
D03*
X543200D02*
D03*
X530500D02*
D03*
D82*
X87000Y571000D02*
D03*
Y466000D02*
D03*
X1020119Y507825D02*
D03*
Y492825D02*
D03*
Y522825D02*
D03*
Y537825D02*
D03*
X87000Y451000D02*
D03*
Y556000D02*
D03*
D111*
X1067119Y466825D02*
D03*
Y563825D02*
D03*
X40000Y492000D02*
D03*
Y425000D02*
D03*
Y597000D02*
D03*
Y530000D02*
D03*
D114*
X349750Y449596D02*
D03*
X508000Y327000D02*
D03*
Y311000D02*
D03*
X349750Y465596D02*
D03*
D116*
X580250Y313000D02*
D03*
X594750D02*
D03*
X731500Y470000D02*
D03*
X746000D02*
D03*
X731500Y486000D02*
D03*
X746000D02*
D03*
X731500Y502000D02*
D03*
X746000D02*
D03*
X703000Y470000D02*
D03*
X688500D02*
D03*
X703000Y486000D02*
D03*
X688500D02*
D03*
X703000Y502000D02*
D03*
X688500D02*
D03*
X645500Y470000D02*
D03*
X660000D02*
D03*
X645500Y486000D02*
D03*
X660000D02*
D03*
X645500Y502000D02*
D03*
X660000D02*
D03*
X617000Y470000D02*
D03*
X602500D02*
D03*
X617000Y486000D02*
D03*
X602500D02*
D03*
X617000Y502000D02*
D03*
X602500D02*
D03*
X559500Y470000D02*
D03*
X574000D02*
D03*
X559500Y486000D02*
D03*
X574000D02*
D03*
X559500Y502000D02*
D03*
X574000D02*
D03*
X531000Y470000D02*
D03*
X516500D02*
D03*
X531000Y486000D02*
D03*
X516500D02*
D03*
X531000Y502000D02*
D03*
X516500D02*
D03*
X473500Y470000D02*
D03*
X488000D02*
D03*
X473500Y486000D02*
D03*
X488000D02*
D03*
X473500Y502000D02*
D03*
X488000D02*
D03*
X445000Y470000D02*
D03*
X430500D02*
D03*
X445000Y486000D02*
D03*
X430500D02*
D03*
X445000Y502000D02*
D03*
X430500D02*
D03*
X394000Y495596D02*
D03*
X408500D02*
D03*
Y479596D02*
D03*
X394000D02*
D03*
D123*
X1037500Y577000D02*
D03*
X860250Y611000D02*
D03*
X996250Y541000D02*
D03*
X914750Y529500D02*
D03*
X216000Y280000D02*
D03*
X770500Y412500D02*
D03*
X677000Y482500D02*
D03*
Y469500D02*
D03*
X923500Y568750D02*
D03*
X210000Y304000D02*
D03*
X251500Y511500D02*
D03*
X239250Y510250D02*
D03*
X386750Y412250D02*
D03*
Y400750D02*
D03*
X368750Y394000D02*
D03*
X386750Y385750D02*
D03*
X368750Y379750D02*
D03*
X386750Y371500D02*
D03*
X368750Y364750D02*
D03*
X386750Y357250D02*
D03*
X412000Y407000D02*
D03*
X368000Y424000D02*
D03*
X695000Y310000D02*
D03*
X967500Y592500D02*
D03*
X860250Y624500D02*
D03*
X167000Y430500D02*
D03*
X195000Y452000D02*
D03*
X178000Y494000D02*
D03*
X540000Y276000D02*
D03*
X860000Y159000D02*
D03*
X907000Y341250D02*
D03*
X691750Y111000D02*
D03*
X803000Y288000D02*
D03*
X574000Y132750D02*
D03*
X902750Y564500D02*
D03*
X297000Y360000D02*
D03*
X286000D02*
D03*
X308000D02*
D03*
X319000D02*
D03*
X655000Y87000D02*
D03*
X767244Y280175D02*
D03*
D124*
X1065750Y600000D02*
D03*
D125*
X1040350D02*
D03*
D126*
X1011700Y617750D02*
D03*
X925300D02*
D03*
D127*
X1011700Y657750D02*
D03*
X925300D02*
D03*
D128*
X990000Y224000D02*
D03*
Y89000D02*
D03*
X1000000Y280000D02*
D03*
Y415000D02*
D03*
X110000Y229000D02*
D03*
Y94000D02*
D03*
D129*
X930000Y120500D02*
D03*
Y192500D02*
D03*
X940000Y311500D02*
D03*
Y383500D02*
D03*
X170000Y125500D02*
D03*
Y197500D02*
D03*
D130*
X35000Y645000D02*
D03*
Y35000D02*
D03*
X1065000Y645000D02*
D03*
Y35000D02*
D03*
D178*
X354001Y482095D02*
D03*
D179*
X995370Y599250D02*
D03*
X987130D02*
D03*
D180*
X976960Y585033D02*
D03*
Y580033D02*
D03*
X1001710D02*
D03*
Y585033D02*
D03*
D181*
X976960Y572533D02*
D03*
X1001710D02*
D03*
D182*
X982830Y565163D02*
D03*
X989330D02*
D03*
X995830D02*
D03*
D183*
X994330Y589913D02*
D03*
X989330D02*
D03*
X984330D02*
D03*
D184*
X890130Y536000D02*
D03*
X873370D02*
D03*
Y541000D02*
D03*
X890130D02*
D03*
Y546000D02*
D03*
X873370D02*
D03*
Y551000D02*
D03*
X890130D02*
D03*
D185*
X872375Y615125D02*
D03*
X905125D02*
D03*
X872375Y656875D02*
D03*
D186*
X898130Y499050D02*
D03*
X952370Y473650D02*
D03*
Y460950D02*
D03*
X898130D02*
D03*
X952370Y486350D02*
D03*
Y499050D02*
D03*
X898130Y486350D02*
D03*
Y473650D02*
D03*
D187*
X876063Y589674D02*
D03*
X890463D02*
D03*
D188*
X891000Y563499D02*
D03*
X862000Y575750D02*
D03*
X876500D02*
D03*
X876500Y563499D02*
D03*
D189*
X77760Y318000D02*
D03*
D190*
X762000Y315000D02*
D03*
X612000D02*
D03*
D191*
X406000Y324000D02*
D03*
X380000Y333500D02*
D03*
Y324000D02*
D03*
Y314500D02*
D03*
X406000D02*
D03*
Y333500D02*
D03*
D192*
X365500Y451596D02*
D03*
X390500Y445096D02*
D03*
Y451596D02*
D03*
Y458096D02*
D03*
Y464596D02*
D03*
X365500D02*
D03*
Y458096D02*
D03*
Y445096D02*
D03*
D193*
X964500Y558050D02*
D03*
X964500Y572450D02*
D03*
X983500Y523300D02*
D03*
Y537700D02*
D03*
D194*
X929875Y514625D02*
D03*
X971625Y547375D02*
D03*
X971625Y514625D02*
D03*
D195*
X1001000Y454750D02*
D03*
X1010500Y476750D02*
D03*
X991500D02*
D03*
D196*
X977750Y470500D02*
D03*
X969750D02*
D03*
X977750Y487500D02*
D03*
X969750D02*
D03*
D197*
X990000Y381750D02*
D03*
Y337750D02*
D03*
X991500Y135750D02*
D03*
Y179750D02*
D03*
D198*
X732250Y407000D02*
D03*
X737250D02*
D03*
X742250D02*
D03*
X747250D02*
D03*
X752250D02*
D03*
Y451000D02*
D03*
X747250D02*
D03*
X742250D02*
D03*
X737250D02*
D03*
X732250D02*
D03*
X689250D02*
D03*
X694250D02*
D03*
X699250D02*
D03*
X704250D02*
D03*
X709250D02*
D03*
Y407000D02*
D03*
X704250D02*
D03*
X699250D02*
D03*
X694250D02*
D03*
X689250D02*
D03*
X646250D02*
D03*
X651250D02*
D03*
X656250D02*
D03*
X661250D02*
D03*
X666250D02*
D03*
Y451000D02*
D03*
X661250D02*
D03*
X656250D02*
D03*
X651250D02*
D03*
X646250D02*
D03*
X603250D02*
D03*
X608250D02*
D03*
X613250D02*
D03*
X618250D02*
D03*
X623250D02*
D03*
Y407000D02*
D03*
X618250D02*
D03*
X613250D02*
D03*
X608250D02*
D03*
X603250D02*
D03*
X560250D02*
D03*
X565250D02*
D03*
X570250D02*
D03*
X575250D02*
D03*
X580250D02*
D03*
Y451000D02*
D03*
X575250D02*
D03*
X570250D02*
D03*
X565250D02*
D03*
X560250D02*
D03*
X517250D02*
D03*
X522250D02*
D03*
X527250D02*
D03*
X532250D02*
D03*
X537250D02*
D03*
Y407000D02*
D03*
X532250D02*
D03*
X527250D02*
D03*
X522250D02*
D03*
X517250D02*
D03*
X474250D02*
D03*
X479250D02*
D03*
X484250D02*
D03*
X489250D02*
D03*
X494250D02*
D03*
Y451000D02*
D03*
X489250D02*
D03*
X484250D02*
D03*
X479250D02*
D03*
X474250D02*
D03*
X431250D02*
D03*
X436250D02*
D03*
X441250D02*
D03*
X446250D02*
D03*
X451250D02*
D03*
Y407000D02*
D03*
X446250D02*
D03*
X441250D02*
D03*
X436250D02*
D03*
X431250D02*
D03*
D199*
X317750Y387000D02*
D03*
Y393500D02*
D03*
Y400000D02*
D03*
Y406500D02*
D03*
Y413000D02*
D03*
Y419500D02*
D03*
Y426000D02*
D03*
Y432500D02*
D03*
Y439000D02*
D03*
Y445500D02*
D03*
Y452000D02*
D03*
Y458500D02*
D03*
Y465000D02*
D03*
Y471500D02*
D03*
Y478000D02*
D03*
Y484500D02*
D03*
Y491000D02*
D03*
Y497500D02*
D03*
X246750D02*
D03*
Y491000D02*
D03*
Y484500D02*
D03*
Y478000D02*
D03*
Y471500D02*
D03*
Y465000D02*
D03*
Y458500D02*
D03*
Y452000D02*
D03*
Y445500D02*
D03*
Y439000D02*
D03*
Y432500D02*
D03*
Y426000D02*
D03*
Y419500D02*
D03*
Y413000D02*
D03*
Y406500D02*
D03*
Y400000D02*
D03*
Y393500D02*
D03*
Y387000D02*
D03*
D200*
X77760Y239300D02*
D03*
Y396700D02*
D03*
D201*
X354000Y475596D02*
D03*
Y490096D02*
D03*
D202*
X834500Y614000D02*
D03*
X799500D02*
D03*
X766500D02*
D03*
X731500D02*
D03*
X698500D02*
D03*
X663500D02*
D03*
X630500D02*
D03*
X595500D02*
D03*
X562500D02*
D03*
X527500D02*
D03*
X494500D02*
D03*
X459500D02*
D03*
X426500D02*
D03*
X391500D02*
D03*
X358500D02*
D03*
X323500D02*
D03*
X290500D02*
D03*
X255500D02*
D03*
X222500Y614000D02*
D03*
X187500D02*
D03*
X834500Y580000D02*
D03*
X799500D02*
D03*
X766500D02*
D03*
X731500D02*
D03*
X698500D02*
D03*
X663500D02*
D03*
X630500D02*
D03*
X595500D02*
D03*
X562500D02*
D03*
X527500D02*
D03*
X494500D02*
D03*
X459500D02*
D03*
X426500D02*
D03*
X391500D02*
D03*
X358500D02*
D03*
X323500D02*
D03*
X290500D02*
D03*
X255500D02*
D03*
X222500Y580000D02*
D03*
X187500D02*
D03*
M02*
