G04*
G04 #@! TF.GenerationSoftware,Altium Limited,Altium Designer,25.5.2 (35)*
G04*
G04 Layer_Color=8421504*
%FSLAX44Y44*%
%MOMM*%
G71*
G04*
G04 #@! TF.SameCoordinates,B89C7759-DA74-4ABB-81A3-D326D7ADCFB2*
G04*
G04*
G04 #@! TF.FilePolarity,Positive*
G04*
G01*
G75*
%ADD18R,1.0000X0.8500*%
%ADD19R,0.8000X0.9500*%
%ADD20R,0.7000X0.7000*%
%ADD21R,0.7800X0.9900*%
%ADD22R,0.7000X0.7000*%
%ADD23R,2.0200X2.9500*%
%ADD24R,1.8200X1.0700*%
%ADD25R,0.9900X0.7800*%
%ADD26R,0.6500X0.7000*%
%ADD27R,0.7000X0.6500*%
%ADD28R,0.6500X1.9500*%
%ADD29R,2.9000X0.8000*%
%ADD30R,0.9500X0.9500*%
%ADD31R,0.8500X1.0000*%
%ADD32R,1.6000X1.1000*%
%ADD33R,1.0000X1.6000*%
%ADD34R,0.6200X1.4700*%
%ADD35R,2.7900X0.7400*%
%ADD36R,1.8000X0.3000*%
%ADD37R,1.4250X0.3000*%
%ADD38R,1.7530X2.9470*%
%ADD39R,0.3000X1.4250*%
%ADD40R,2.9470X1.7530*%
%ADD41R,0.3000X1.4750*%
%ADD42R,1.4750X0.3000*%
%ADD43R,0.8500X0.3000*%
%ADD44R,1.7000X0.4500*%
%ADD45R,0.5500X1.0000*%
%ADD46R,0.5400X0.9400*%
%ADD47R,1.6000X1.0000*%
%ADD48R,1.4000X1.0000*%
%ADD49R,1.5000X4.0000*%
%ADD50R,3.3000X2.4500*%
%ADD51R,1.2700X0.7600*%
%ADD52R,1.4000X1.1500*%
%ADD53R,0.6000X1.1500*%
%ADD54R,0.3000X1.1500*%
%ADD55R,1.2800X1.3000*%
%ADD56R,0.5340X0.6900*%
%ADD57R,4.0500X0.7000*%
%ADD58R,6.8200X3.8500*%
%ADD59R,3.8000X1.8000*%
%ADD60R,2.7000X5.4500*%
%ADD61R,0.9500X0.9500*%
%ADD62R,0.9500X0.8000*%
%ADD63R,1.0500X0.6000*%
%ADD64R,1.6700X1.1000*%
%ADD65R,0.7000X0.6000*%
%ADD66R,0.7000X1.0000*%
%ADD67R,1.8000X1.0000*%
%ADD68R,3.2000X1.7500*%
%ADD69R,0.9500X1.7500*%
D18*
X923000Y594500D02*
D03*
Y579500D02*
D03*
X220000Y486500D02*
D03*
Y501500D02*
D03*
X204000Y486500D02*
D03*
Y501500D02*
D03*
X190000Y478500D02*
D03*
Y493500D02*
D03*
X827000Y561500D02*
D03*
Y576500D02*
D03*
X759000Y561500D02*
D03*
Y576500D02*
D03*
X691000Y561500D02*
D03*
Y576500D02*
D03*
X623000Y561500D02*
D03*
Y576500D02*
D03*
X555000Y561500D02*
D03*
Y576500D02*
D03*
X487000Y561500D02*
D03*
Y576500D02*
D03*
X419000Y561500D02*
D03*
Y576500D02*
D03*
X351000D02*
D03*
Y561500D02*
D03*
X283000Y576500D02*
D03*
Y561500D02*
D03*
X215000Y576500D02*
D03*
Y561500D02*
D03*
X354000Y371500D02*
D03*
Y386500D02*
D03*
D19*
X624000Y82000D02*
D03*
X649250Y358250D02*
D03*
X703250Y380000D02*
D03*
Y393250D02*
D03*
Y413500D02*
D03*
X736244Y275175D02*
D03*
X867463Y658517D02*
D03*
X628000Y282000D02*
D03*
X612000D02*
D03*
X628000Y301000D02*
D03*
X612000D02*
D03*
X883463Y658517D02*
D03*
X896421D02*
D03*
X912421D02*
D03*
X752244Y275175D02*
D03*
X937000Y464000D02*
D03*
X953000D02*
D03*
X966000Y464000D02*
D03*
X982000D02*
D03*
X687250Y413500D02*
D03*
Y393250D02*
D03*
Y380000D02*
D03*
X665250Y358250D02*
D03*
X612000Y319000D02*
D03*
X628000D02*
D03*
X612000Y337000D02*
D03*
X628000D02*
D03*
X640000Y82000D02*
D03*
D20*
X341750Y399000D02*
D03*
X592500Y376000D02*
D03*
X686000Y334000D02*
D03*
X445450Y333000D02*
D03*
X771000Y468000D02*
D03*
X686000Y348000D02*
D03*
X592500Y390000D02*
D03*
X771000Y454000D02*
D03*
X445450Y319000D02*
D03*
X341750Y385000D02*
D03*
D21*
X487000Y178000D02*
D03*
X183000Y438000D02*
D03*
X473000Y178000D02*
D03*
X902250Y443000D02*
D03*
X916250D02*
D03*
X197000Y438000D02*
D03*
D22*
X605000Y143000D02*
D03*
X176000Y331000D02*
D03*
X488000Y424000D02*
D03*
X551500Y277000D02*
D03*
X484000D02*
D03*
X487000Y194000D02*
D03*
X717244Y336175D02*
D03*
X292000Y213000D02*
D03*
X473000Y194000D02*
D03*
X498000Y277000D02*
D03*
X474000Y424000D02*
D03*
X565500Y277000D02*
D03*
X901500Y457000D02*
D03*
X915500D02*
D03*
X306000Y213000D02*
D03*
X769000Y339000D02*
D03*
X755000D02*
D03*
X703244Y336175D02*
D03*
X190000Y331000D02*
D03*
X591000Y143000D02*
D03*
X643000Y149000D02*
D03*
X657000D02*
D03*
D23*
X186000Y267750D02*
D03*
X187000Y304000D02*
D03*
X137000D02*
D03*
X136000Y267750D02*
D03*
D24*
X861000Y597800D02*
D03*
Y570200D02*
D03*
D25*
X221000Y467000D02*
D03*
X208000D02*
D03*
X446500Y393000D02*
D03*
Y353000D02*
D03*
X583000Y94000D02*
D03*
X695250Y285250D02*
D03*
X432950Y333000D02*
D03*
X770750Y426250D02*
D03*
Y440250D02*
D03*
X432950Y319000D02*
D03*
X779500Y329250D02*
D03*
Y315250D02*
D03*
X695250Y299250D02*
D03*
X583000Y108000D02*
D03*
X446500Y367000D02*
D03*
Y379000D02*
D03*
X208000Y453000D02*
D03*
X221000D02*
D03*
X666000Y122000D02*
D03*
X666000Y136000D02*
D03*
D26*
X551250Y265000D02*
D03*
X564750D02*
D03*
X889750Y564000D02*
D03*
X876250D02*
D03*
D27*
X605500Y376250D02*
D03*
Y389750D02*
D03*
D28*
X411250Y159250D02*
D03*
X398550D02*
D03*
X423950D02*
D03*
X474750D02*
D03*
X436650D02*
D03*
X449350D02*
D03*
X462050D02*
D03*
X487450D02*
D03*
Y64750D02*
D03*
X474750D02*
D03*
X462050D02*
D03*
X449350D02*
D03*
X436650D02*
D03*
X423950D02*
D03*
X411250D02*
D03*
X398550D02*
D03*
D29*
X87000Y556000D02*
D03*
X1020750Y522500D02*
D03*
Y537500D02*
D03*
Y507500D02*
D03*
Y492500D02*
D03*
X86000Y298000D02*
D03*
Y448000D02*
D03*
Y433000D02*
D03*
Y418000D02*
D03*
Y403000D02*
D03*
Y388000D02*
D03*
Y373000D02*
D03*
Y358000D02*
D03*
Y343000D02*
D03*
Y328000D02*
D03*
Y313000D02*
D03*
X87000Y571000D02*
D03*
D30*
X657500Y337500D02*
D03*
Y319500D02*
D03*
Y301500D02*
D03*
Y283500D02*
D03*
X642500D02*
D03*
Y301500D02*
D03*
Y319500D02*
D03*
Y337500D02*
D03*
D31*
X398000Y191000D02*
D03*
X583000Y83000D02*
D03*
X398000Y176000D02*
D03*
X552500Y99000D02*
D03*
X568000Y83000D02*
D03*
X567500Y99000D02*
D03*
X911500Y643000D02*
D03*
X896500D02*
D03*
X754500Y352000D02*
D03*
X769500D02*
D03*
X778744Y287175D02*
D03*
X793744D02*
D03*
X778744Y302175D02*
D03*
X793744D02*
D03*
X681500Y94000D02*
D03*
X666500D02*
D03*
X681500Y109000D02*
D03*
X666500D02*
D03*
X383000Y191000D02*
D03*
Y176000D02*
D03*
X207500Y331000D02*
D03*
X222500D02*
D03*
X657000Y166000D02*
D03*
X642000D02*
D03*
D32*
X273000Y228500D02*
D03*
Y265500D02*
D03*
X327000Y228500D02*
D03*
Y265500D02*
D03*
D33*
X446500Y448750D02*
D03*
X411500D02*
D03*
X429000Y425750D02*
D03*
D34*
X865000Y641749D02*
D03*
X885000D02*
D03*
D35*
X278000Y309300D02*
D03*
Y322000D02*
D03*
Y334700D02*
D03*
X318700D02*
D03*
Y322000D02*
D03*
Y309300D02*
D03*
X278000Y296600D02*
D03*
X318700D02*
D03*
X278000Y283900D02*
D03*
X318700D02*
D03*
D36*
X246000Y385000D02*
D03*
Y390000D02*
D03*
Y395000D02*
D03*
Y400000D02*
D03*
Y425000D02*
D03*
Y470000D02*
D03*
Y475000D02*
D03*
X317000Y385000D02*
D03*
Y390000D02*
D03*
Y395000D02*
D03*
Y400000D02*
D03*
Y405000D02*
D03*
Y410000D02*
D03*
Y415000D02*
D03*
Y420000D02*
D03*
Y425000D02*
D03*
Y430000D02*
D03*
Y435000D02*
D03*
Y440000D02*
D03*
Y445000D02*
D03*
Y450000D02*
D03*
Y455000D02*
D03*
Y460000D02*
D03*
Y465000D02*
D03*
Y470000D02*
D03*
Y475000D02*
D03*
Y480000D02*
D03*
Y485000D02*
D03*
Y490000D02*
D03*
Y495000D02*
D03*
Y500000D02*
D03*
X246000D02*
D03*
Y495000D02*
D03*
Y490000D02*
D03*
Y485000D02*
D03*
Y480000D02*
D03*
Y465000D02*
D03*
Y460000D02*
D03*
Y455000D02*
D03*
Y450000D02*
D03*
Y445000D02*
D03*
Y440000D02*
D03*
Y435000D02*
D03*
Y430000D02*
D03*
Y420000D02*
D03*
Y415000D02*
D03*
Y410000D02*
D03*
Y405000D02*
D03*
D37*
X711624Y288675D02*
D03*
X599380Y95500D02*
D03*
Y130500D02*
D03*
Y125500D02*
D03*
Y120500D02*
D03*
Y115500D02*
D03*
Y110500D02*
D03*
Y105500D02*
D03*
Y100500D02*
D03*
X643620Y95500D02*
D03*
Y100500D02*
D03*
Y105500D02*
D03*
Y110500D02*
D03*
Y115500D02*
D03*
Y120500D02*
D03*
Y125500D02*
D03*
Y130500D02*
D03*
X755864Y323675D02*
D03*
Y318675D02*
D03*
Y313675D02*
D03*
Y308675D02*
D03*
Y303675D02*
D03*
Y298675D02*
D03*
Y293675D02*
D03*
Y288675D02*
D03*
X711624Y293675D02*
D03*
Y298675D02*
D03*
Y303675D02*
D03*
Y308675D02*
D03*
Y313675D02*
D03*
Y318675D02*
D03*
Y323675D02*
D03*
D38*
X733744Y306175D02*
D03*
X621500Y113000D02*
D03*
D39*
X874500Y623119D02*
D03*
X909500Y578879D02*
D03*
X904500D02*
D03*
X899500D02*
D03*
X894500D02*
D03*
X889500D02*
D03*
X884500D02*
D03*
X879500D02*
D03*
X874500D02*
D03*
X879500Y623119D02*
D03*
X884500D02*
D03*
X889500D02*
D03*
X894500D02*
D03*
X899500D02*
D03*
X904500D02*
D03*
X909500D02*
D03*
D40*
X892000Y600999D02*
D03*
D41*
X489002Y405381D02*
D03*
X554002Y290621D02*
D03*
X489002D02*
D03*
X494002D02*
D03*
X484002Y405381D02*
D03*
X559002Y290621D02*
D03*
X499002Y405381D02*
D03*
X494002D02*
D03*
X484002Y290621D02*
D03*
X499002D02*
D03*
X504002D02*
D03*
X509002D02*
D03*
X514002D02*
D03*
X519002D02*
D03*
X524002D02*
D03*
X529002D02*
D03*
X534002D02*
D03*
X539002D02*
D03*
X544002D02*
D03*
X549002D02*
D03*
X559002Y405381D02*
D03*
X554002D02*
D03*
X549002D02*
D03*
X544002D02*
D03*
X539002D02*
D03*
X534002D02*
D03*
X529002D02*
D03*
X524002D02*
D03*
X519002D02*
D03*
X514002D02*
D03*
X509002D02*
D03*
X504002D02*
D03*
D42*
X578882Y380501D02*
D03*
X464122Y330501D02*
D03*
X578882Y385501D02*
D03*
X464122D02*
D03*
Y380501D02*
D03*
Y375501D02*
D03*
Y370501D02*
D03*
Y365501D02*
D03*
Y360501D02*
D03*
Y355501D02*
D03*
Y350501D02*
D03*
Y345501D02*
D03*
Y340501D02*
D03*
Y335501D02*
D03*
Y325501D02*
D03*
Y320501D02*
D03*
Y315501D02*
D03*
Y310501D02*
D03*
X578882D02*
D03*
Y315501D02*
D03*
Y320501D02*
D03*
Y325501D02*
D03*
Y330501D02*
D03*
Y335501D02*
D03*
Y340501D02*
D03*
Y345501D02*
D03*
Y350501D02*
D03*
Y355501D02*
D03*
Y360501D02*
D03*
Y365501D02*
D03*
Y370501D02*
D03*
Y375501D02*
D03*
D43*
X728750Y349500D02*
D03*
Y354500D02*
D03*
Y364500D02*
D03*
X697250Y349500D02*
D03*
Y354500D02*
D03*
Y359500D02*
D03*
Y364500D02*
D03*
X728750Y359500D02*
D03*
D44*
X788659Y485600D02*
D03*
Y446600D02*
D03*
Y453100D02*
D03*
Y440100D02*
D03*
Y459600D02*
D03*
Y466100D02*
D03*
Y472600D02*
D03*
Y479100D02*
D03*
X884159Y485600D02*
D03*
Y479100D02*
D03*
Y472600D02*
D03*
Y466100D02*
D03*
Y459600D02*
D03*
Y453100D02*
D03*
Y446600D02*
D03*
Y440100D02*
D03*
D45*
X995750Y561000D02*
D03*
X983250D02*
D03*
D46*
X954000Y450000D02*
D03*
X970000D02*
D03*
D47*
X941500Y504000D02*
D03*
X978500D02*
D03*
Y486500D02*
D03*
Y521500D02*
D03*
X941500Y486500D02*
D03*
Y521500D02*
D03*
D48*
X392750Y324000D02*
D03*
X418750D02*
D03*
D49*
X891750Y532000D02*
D03*
X855750D02*
D03*
D50*
X731000Y614500D02*
D03*
Y566500D02*
D03*
X255000Y614500D02*
D03*
Y566500D02*
D03*
X799000D02*
D03*
Y614500D02*
D03*
X663000Y566500D02*
D03*
Y614500D02*
D03*
X595000Y566500D02*
D03*
Y614500D02*
D03*
X527000Y566500D02*
D03*
Y614500D02*
D03*
X459000Y566500D02*
D03*
Y614500D02*
D03*
X391000Y566500D02*
D03*
Y614500D02*
D03*
X323000Y566500D02*
D03*
Y614500D02*
D03*
X187000Y566500D02*
D03*
Y614500D02*
D03*
D51*
X666500Y379000D02*
D03*
Y391700D02*
D03*
Y404400D02*
D03*
Y417100D02*
D03*
X625500Y379000D02*
D03*
Y391700D02*
D03*
Y404400D02*
D03*
Y417100D02*
D03*
D52*
X907000Y330750D02*
D03*
Y307250D02*
D03*
X886000Y152750D02*
D03*
Y176250D02*
D03*
D53*
X1000500Y612000D02*
D03*
X992500D02*
D03*
X944500D02*
D03*
X936500D02*
D03*
D54*
X986000D02*
D03*
X981000D02*
D03*
X976000D02*
D03*
X971000D02*
D03*
X966000D02*
D03*
X961000D02*
D03*
X956000D02*
D03*
X951000D02*
D03*
D55*
X770000Y134450D02*
D03*
X750000D02*
D03*
X730000D02*
D03*
X710000D02*
D03*
X821000Y304950D02*
D03*
X841000D02*
D03*
X861000D02*
D03*
X881000D02*
D03*
X876000Y134450D02*
D03*
X856000D02*
D03*
X836000D02*
D03*
X816000D02*
D03*
X881000Y328000D02*
D03*
X861000D02*
D03*
X841000D02*
D03*
X821000D02*
D03*
D56*
X709720Y63500D02*
D03*
X770280D02*
D03*
X881280Y234000D02*
D03*
X820720D02*
D03*
X815720Y63500D02*
D03*
X876280D02*
D03*
X820720Y398950D02*
D03*
X881280D02*
D03*
D57*
X718250Y56550D02*
D03*
X761750D02*
D03*
X872750Y227050D02*
D03*
X829250D02*
D03*
X824250Y56550D02*
D03*
X867750D02*
D03*
X829250Y405900D02*
D03*
X872750D02*
D03*
D58*
X740000Y86200D02*
D03*
X851000Y256700D02*
D03*
X846000Y86200D02*
D03*
X851000Y376250D02*
D03*
D59*
X1067750Y563500D02*
D03*
Y466500D02*
D03*
X39000Y474000D02*
D03*
Y272000D02*
D03*
X40000Y530000D02*
D03*
Y597000D02*
D03*
D60*
X699744Y237175D02*
D03*
X782744D02*
D03*
X677500Y35000D02*
D03*
X594500D02*
D03*
D61*
X907000Y279750D02*
D03*
Y294750D02*
D03*
X885500Y193750D02*
D03*
Y208750D02*
D03*
D62*
X825000Y524000D02*
D03*
Y540000D02*
D03*
X757000Y524000D02*
D03*
Y540000D02*
D03*
X689000Y524000D02*
D03*
Y540000D02*
D03*
X621000Y524000D02*
D03*
Y540000D02*
D03*
X553000Y524000D02*
D03*
Y540000D02*
D03*
X485000Y524000D02*
D03*
Y540000D02*
D03*
X417000Y524000D02*
D03*
Y540000D02*
D03*
X349000Y524000D02*
D03*
Y540000D02*
D03*
X281000Y524000D02*
D03*
Y540000D02*
D03*
X213000Y524000D02*
D03*
Y540000D02*
D03*
X841000Y561000D02*
D03*
Y577000D02*
D03*
X773000Y561000D02*
D03*
Y577000D02*
D03*
X705000Y561000D02*
D03*
Y577000D02*
D03*
X637000Y561000D02*
D03*
Y577000D02*
D03*
X569000Y561000D02*
D03*
Y577000D02*
D03*
X501000Y561000D02*
D03*
Y577000D02*
D03*
X433000Y561000D02*
D03*
Y577000D02*
D03*
X365000Y561000D02*
D03*
Y577000D02*
D03*
X297000Y561000D02*
D03*
Y577000D02*
D03*
X229000Y561000D02*
D03*
Y577000D02*
D03*
D63*
X788000Y534000D02*
D03*
X810000Y543500D02*
D03*
Y524500D02*
D03*
X720000Y534000D02*
D03*
X742000Y543500D02*
D03*
Y524500D02*
D03*
X652000Y534000D02*
D03*
X674000Y543500D02*
D03*
Y524500D02*
D03*
X584000Y534000D02*
D03*
X606000Y543500D02*
D03*
Y524500D02*
D03*
X516000Y534000D02*
D03*
X538000Y543500D02*
D03*
Y524500D02*
D03*
X448000Y534000D02*
D03*
X470000Y543500D02*
D03*
Y524500D02*
D03*
X380000Y534000D02*
D03*
X402000Y543500D02*
D03*
Y524500D02*
D03*
X312000Y534000D02*
D03*
X334000Y543500D02*
D03*
Y524500D02*
D03*
X244000Y534000D02*
D03*
X266000Y543500D02*
D03*
Y524500D02*
D03*
X176000Y534000D02*
D03*
X198000Y543500D02*
D03*
Y524500D02*
D03*
D64*
X833000Y592050D02*
D03*
Y621250D02*
D03*
X765000Y592050D02*
D03*
Y621250D02*
D03*
X697000Y592050D02*
D03*
Y621250D02*
D03*
X629000Y592050D02*
D03*
Y621250D02*
D03*
X561000Y592050D02*
D03*
Y621250D02*
D03*
X493000Y592050D02*
D03*
Y621250D02*
D03*
X425000Y592050D02*
D03*
Y621250D02*
D03*
X357000Y592050D02*
D03*
Y621250D02*
D03*
X289000Y592050D02*
D03*
Y621250D02*
D03*
X221000Y621250D02*
D03*
Y592050D02*
D03*
X156000Y611600D02*
D03*
Y582400D02*
D03*
D65*
X955986Y589620D02*
D03*
Y570620D02*
D03*
X935986D02*
D03*
D66*
Y587620D02*
D03*
D67*
X428000Y384500D02*
D03*
Y359500D02*
D03*
D68*
X198000Y351500D02*
D03*
D69*
X175000Y414500D02*
D03*
X198000D02*
D03*
X221000D02*
D03*
M02*
