G04*
G04 #@! TF.GenerationSoftware,Altium Limited,Altium Designer,25.4.2 (15)*
G04*
G04 Layer_Color=8388736*
%FSLAX44Y44*%
%MOMM*%
G71*
G04*
G04 #@! TF.SameCoordinates,B377764B-0E44-46CC-84FE-BC893214EEA5*
G04*
G04*
G04 #@! TF.FilePolarity,Negative*
G04*
G01*
G75*
%ADD66R,0.9000X1.4000*%
%ADD67R,0.9500X0.4000*%
%ADD68R,0.7000X1.2500*%
%ADD69R,0.4000X1.2500*%
%ADD70R,1.5750X0.4000*%
%ADD71R,0.4000X1.5750*%
%ADD72R,3.0970X1.9030*%
%ADD73R,0.4000X1.5250*%
%ADD74R,1.5250X0.4000*%
%ADD75R,1.9030X3.0970*%
%ADD76R,1.9000X0.4000*%
%ADD77R,1.1400X0.9300*%
%ADD78R,0.8500X0.8500*%
%ADD79R,0.8500X0.8500*%
%ADD80R,2.9400X0.8900*%
%ADD81R,1.4200X0.9100*%
%ADD82R,0.9500X1.1000*%
%ADD83R,1.0000X1.1500*%
%ADD84R,1.4300X1.4500*%
%ADD85R,0.6840X0.8400*%
%ADD86R,4.2000X0.8500*%
%ADD87R,6.9700X4.0000*%
%ADD88R,3.9500X1.9500*%
%ADD89R,3.0500X0.9500*%
%ADD90R,0.8000X0.8500*%
%ADD91R,1.1000X0.9500*%
%ADD92R,0.7700X1.6200*%
%ADD93R,2.8500X5.6000*%
%ADD94R,1.1000X1.1000*%
%ADD95R,1.7500X1.1500*%
%ADD96R,1.1500X1.7500*%
%ADD97R,1.7500X1.2500*%
%ADD98R,1.1500X1.0000*%
%ADD99R,3.4500X2.6000*%
%ADD100R,1.2000X0.7500*%
%ADD101R,1.1000X1.1000*%
%ADD102R,1.8500X2.3500*%
G04:AMPARAMS|DCode=103|XSize=1.4mm|YSize=0.7mm|CornerRadius=0.225mm|HoleSize=0mm|Usage=FLASHONLY|Rotation=90.000|XOffset=0mm|YOffset=0mm|HoleType=Round|Shape=RoundedRectangle|*
%AMROUNDEDRECTD103*
21,1,1.4000,0.2500,0,0,90.0*
21,1,0.9500,0.7000,0,0,90.0*
1,1,0.4500,0.1250,0.4750*
1,1,0.4500,0.1250,-0.4750*
1,1,0.4500,-0.1250,-0.4750*
1,1,0.4500,-0.1250,0.4750*
%
%ADD103ROUNDEDRECTD103*%
%ADD104R,0.8000X2.1000*%
%ADD105R,1.8200X1.2500*%
%ADD106R,2.1700X3.1000*%
%ADD107R,0.8500X0.7500*%
%ADD108R,0.8500X1.1500*%
%ADD109R,0.6900X1.0900*%
%ADD110R,0.8500X0.8000*%
%ADD111R,0.9300X1.1400*%
%ADD112R,1.9700X1.2200*%
%ADD113R,1.9500X1.1500*%
%ADD114R,3.3500X1.9000*%
%ADD115R,1.1000X1.9000*%
%ADD116C,0.9000*%
%ADD117O,1.3000X1.8000*%
%ADD118O,1.3000X2.2000*%
%ADD119C,2.8500*%
G04:AMPARAMS|DCode=120|XSize=6.15mm|YSize=4.2mm|CornerRadius=1.0875mm|HoleSize=0mm|Usage=FLASHONLY|Rotation=270.000|XOffset=0mm|YOffset=0mm|HoleType=Round|Shape=RoundedRectangle|*
%AMROUNDEDRECTD120*
21,1,6.1500,2.0250,0,0,270.0*
21,1,3.9750,4.2000,0,0,270.0*
1,1,2.1750,-1.0125,-1.9875*
1,1,2.1750,-1.0125,1.9875*
1,1,2.1750,1.0125,1.9875*
1,1,2.1750,1.0125,-1.9875*
%
%ADD120ROUNDEDRECTD120*%
%ADD121C,5.6500*%
G36*
X220881Y443993D02*
X221009Y443968D01*
X221133Y443926D01*
X221251Y443868D01*
X221360Y443795D01*
X221459Y443709D01*
X221545Y443610D01*
X221618Y443501D01*
X221676Y443383D01*
X221718Y443259D01*
X221744Y443131D01*
X221752Y443000D01*
Y431000D01*
X221744Y430869D01*
X221718Y430741D01*
X221676Y430616D01*
X221618Y430499D01*
X221545Y430390D01*
X221459Y430291D01*
X221360Y430205D01*
X221251Y430132D01*
X221133Y430074D01*
X221009Y430032D01*
X220881Y430006D01*
X220750Y429998D01*
X217750D01*
X217619Y430006D01*
X217491Y430032D01*
X217367Y430074D01*
X217249Y430132D01*
X217140Y430205D01*
X217041Y430291D01*
X211041Y436291D01*
X210955Y436390D01*
X210882Y436499D01*
X210824Y436617D01*
X210782Y436741D01*
X210756Y436869D01*
X210748Y437000D01*
X210756Y437131D01*
X210782Y437259D01*
X210824Y437383D01*
X210882Y437501D01*
X210955Y437610D01*
X211041Y437709D01*
X217041Y443709D01*
X217140Y443795D01*
X217249Y443868D01*
X217367Y443926D01*
X217491Y443968D01*
X217619Y443993D01*
X217750Y444002D01*
X220750D01*
X220881Y443993D01*
D02*
G37*
G36*
X214881D02*
X215009Y443968D01*
X215133Y443926D01*
X215251Y443868D01*
X215360Y443795D01*
X215459Y443709D01*
X215545Y443610D01*
X215618Y443501D01*
X215676Y443383D01*
X215718Y443259D01*
X215744Y443131D01*
X215752Y443000D01*
X215744Y442869D01*
X215718Y442741D01*
X215676Y442617D01*
X215618Y442499D01*
X215545Y442390D01*
X215505Y442344D01*
X215459Y442291D01*
X210167Y437000D01*
X215459Y431709D01*
X215545Y431610D01*
X215618Y431501D01*
X215676Y431384D01*
X215718Y431259D01*
X215744Y431131D01*
X215752Y431000D01*
X215744Y430869D01*
X215718Y430741D01*
X215676Y430616D01*
X215618Y430499D01*
X215545Y430390D01*
X215459Y430291D01*
X215360Y430205D01*
X215251Y430132D01*
X215133Y430074D01*
X215009Y430032D01*
X214881Y430006D01*
X214750Y429998D01*
X206250D01*
X206119Y430006D01*
X205991Y430032D01*
X205867Y430074D01*
X205749Y430132D01*
X205640Y430205D01*
X205541Y430291D01*
X205455Y430390D01*
X205382Y430499D01*
X205324Y430616D01*
X205282Y430741D01*
X205256Y430869D01*
X205248Y431000D01*
Y443000D01*
X205256Y443131D01*
X205282Y443259D01*
X205324Y443383D01*
X205382Y443501D01*
X205455Y443610D01*
X205541Y443709D01*
X205640Y443795D01*
X205749Y443868D01*
X205867Y443926D01*
X205991Y443968D01*
X206119Y443993D01*
X206250Y444002D01*
X214750D01*
X214881Y443993D01*
D02*
G37*
D66*
X214250Y437000D02*
D03*
D67*
X697250Y349500D02*
D03*
Y354500D02*
D03*
Y359500D02*
D03*
Y364500D02*
D03*
X728750D02*
D03*
Y359500D02*
D03*
Y354500D02*
D03*
Y349500D02*
D03*
D68*
X1000500Y612000D02*
D03*
X992500D02*
D03*
X944500D02*
D03*
X936500D02*
D03*
D69*
X986000D02*
D03*
X981000D02*
D03*
X976000D02*
D03*
X971000D02*
D03*
X966000D02*
D03*
X961000D02*
D03*
X956000D02*
D03*
X951000D02*
D03*
D70*
X464122Y385501D02*
D03*
Y380501D02*
D03*
Y375501D02*
D03*
Y370501D02*
D03*
Y365501D02*
D03*
Y360501D02*
D03*
Y355501D02*
D03*
Y350501D02*
D03*
Y345501D02*
D03*
Y340501D02*
D03*
Y335501D02*
D03*
Y330501D02*
D03*
Y325501D02*
D03*
Y320501D02*
D03*
Y315501D02*
D03*
Y310501D02*
D03*
X578882D02*
D03*
Y315501D02*
D03*
Y320501D02*
D03*
Y325501D02*
D03*
Y330501D02*
D03*
Y335501D02*
D03*
Y340501D02*
D03*
Y345501D02*
D03*
Y350501D02*
D03*
Y355501D02*
D03*
Y360501D02*
D03*
Y365501D02*
D03*
Y370501D02*
D03*
Y375501D02*
D03*
Y380501D02*
D03*
Y385501D02*
D03*
D71*
X484002Y290621D02*
D03*
X489002D02*
D03*
X494002D02*
D03*
X499002D02*
D03*
X504002D02*
D03*
X509002D02*
D03*
X514002D02*
D03*
X519002D02*
D03*
X524002D02*
D03*
X529002D02*
D03*
X534002D02*
D03*
X539002D02*
D03*
X544002D02*
D03*
X549002D02*
D03*
X554002D02*
D03*
X559002D02*
D03*
Y405381D02*
D03*
X554002D02*
D03*
X549002D02*
D03*
X544002D02*
D03*
X539002D02*
D03*
X534002D02*
D03*
X529002D02*
D03*
X524002D02*
D03*
X519002D02*
D03*
X514002D02*
D03*
X509002D02*
D03*
X504002D02*
D03*
X499002D02*
D03*
X494002D02*
D03*
X489002D02*
D03*
X484002D02*
D03*
D72*
X892000Y600999D02*
D03*
D73*
X909500Y578879D02*
D03*
X904500D02*
D03*
X899500D02*
D03*
X894500D02*
D03*
X889500D02*
D03*
X884500D02*
D03*
X879500D02*
D03*
X874500D02*
D03*
Y623119D02*
D03*
X879500D02*
D03*
X884500D02*
D03*
X889500D02*
D03*
X894500D02*
D03*
X899500D02*
D03*
X904500D02*
D03*
X909500D02*
D03*
D74*
X599380Y130500D02*
D03*
Y125500D02*
D03*
Y120500D02*
D03*
Y115500D02*
D03*
Y110500D02*
D03*
Y105500D02*
D03*
Y100500D02*
D03*
Y95500D02*
D03*
X643620D02*
D03*
Y100500D02*
D03*
Y105500D02*
D03*
Y110500D02*
D03*
Y115500D02*
D03*
Y120500D02*
D03*
Y125500D02*
D03*
Y130500D02*
D03*
X755864Y323675D02*
D03*
Y318675D02*
D03*
Y313675D02*
D03*
Y308675D02*
D03*
Y303675D02*
D03*
Y298675D02*
D03*
Y293675D02*
D03*
Y288675D02*
D03*
X711624D02*
D03*
Y293675D02*
D03*
Y298675D02*
D03*
Y303675D02*
D03*
Y308675D02*
D03*
Y313675D02*
D03*
Y318675D02*
D03*
Y323675D02*
D03*
D75*
X621500Y113000D02*
D03*
X733744Y306175D02*
D03*
D76*
X317000Y385000D02*
D03*
Y390000D02*
D03*
Y395000D02*
D03*
Y400000D02*
D03*
Y405000D02*
D03*
Y410000D02*
D03*
Y415000D02*
D03*
Y420000D02*
D03*
Y425000D02*
D03*
Y430000D02*
D03*
Y435000D02*
D03*
Y440000D02*
D03*
Y445000D02*
D03*
Y450000D02*
D03*
Y455000D02*
D03*
Y460000D02*
D03*
Y465000D02*
D03*
Y470000D02*
D03*
Y475000D02*
D03*
Y480000D02*
D03*
Y485000D02*
D03*
Y490000D02*
D03*
Y495000D02*
D03*
Y500000D02*
D03*
X246000D02*
D03*
Y495000D02*
D03*
Y490000D02*
D03*
Y485000D02*
D03*
Y480000D02*
D03*
Y475000D02*
D03*
Y470000D02*
D03*
Y465000D02*
D03*
Y460000D02*
D03*
Y455000D02*
D03*
Y450000D02*
D03*
Y445000D02*
D03*
Y440000D02*
D03*
Y435000D02*
D03*
Y430000D02*
D03*
Y425000D02*
D03*
Y420000D02*
D03*
Y415000D02*
D03*
Y410000D02*
D03*
Y405000D02*
D03*
Y400000D02*
D03*
Y395000D02*
D03*
Y390000D02*
D03*
Y385000D02*
D03*
D77*
X432950Y319000D02*
D03*
Y333000D02*
D03*
X778244Y329175D02*
D03*
Y315175D02*
D03*
X695250Y299250D02*
D03*
Y285250D02*
D03*
X583000Y94000D02*
D03*
Y108000D02*
D03*
X446500Y367000D02*
D03*
Y353000D02*
D03*
Y379000D02*
D03*
Y393000D02*
D03*
X208000Y453000D02*
D03*
Y467000D02*
D03*
X221000Y453000D02*
D03*
Y467000D02*
D03*
X666000Y122000D02*
D03*
X666000Y136000D02*
D03*
D78*
X445450Y333000D02*
D03*
Y319000D02*
D03*
X686000Y334000D02*
D03*
Y348000D02*
D03*
X592500Y390000D02*
D03*
Y376000D02*
D03*
X339000Y385000D02*
D03*
Y399000D02*
D03*
D79*
X306000Y213000D02*
D03*
X292000D02*
D03*
X769000Y339000D02*
D03*
X755000D02*
D03*
X717244Y336175D02*
D03*
X703244D02*
D03*
X487000Y194000D02*
D03*
X473000D02*
D03*
X498000Y277000D02*
D03*
X484000D02*
D03*
X565500D02*
D03*
X551500D02*
D03*
X474000Y424000D02*
D03*
X488000D02*
D03*
X190000Y331000D02*
D03*
X176000D02*
D03*
X591000Y143000D02*
D03*
X605000D02*
D03*
X643000Y149000D02*
D03*
X657000D02*
D03*
D80*
X278000Y334700D02*
D03*
X318700D02*
D03*
X278000Y322000D02*
D03*
X318700D02*
D03*
X278000Y309300D02*
D03*
X318700D02*
D03*
X278000Y296600D02*
D03*
X318700D02*
D03*
X278000Y283900D02*
D03*
X318700D02*
D03*
D81*
X797500Y477050D02*
D03*
Y464350D02*
D03*
Y451650D02*
D03*
Y438950D02*
D03*
X838500Y477050D02*
D03*
Y464350D02*
D03*
Y451650D02*
D03*
Y438950D02*
D03*
D82*
X628000Y282000D02*
D03*
X612000D02*
D03*
X628000Y301000D02*
D03*
X612000D02*
D03*
X867463Y658517D02*
D03*
X883463D02*
D03*
X896421D02*
D03*
X912421D02*
D03*
X752244Y275175D02*
D03*
X736244D02*
D03*
X937000Y464000D02*
D03*
X953000D02*
D03*
X966000Y464000D02*
D03*
X982000D02*
D03*
X864000Y480000D02*
D03*
X880000D02*
D03*
X864000Y465000D02*
D03*
X880000D02*
D03*
X864000Y450000D02*
D03*
X880000D02*
D03*
X864000Y435000D02*
D03*
X880000D02*
D03*
X612000Y319000D02*
D03*
X628000D02*
D03*
X612000Y337000D02*
D03*
X628000D02*
D03*
X624000Y82000D02*
D03*
X640000D02*
D03*
D83*
X568000Y83000D02*
D03*
X583000D02*
D03*
X552500Y99000D02*
D03*
X567500D02*
D03*
X911500Y643000D02*
D03*
X896500D02*
D03*
X754500Y352000D02*
D03*
X769500D02*
D03*
X778744Y287175D02*
D03*
X793744D02*
D03*
X778744Y302175D02*
D03*
X793744D02*
D03*
X681500Y94000D02*
D03*
X666500D02*
D03*
X681500Y109000D02*
D03*
X666500D02*
D03*
X383000Y191000D02*
D03*
X398000D02*
D03*
Y176000D02*
D03*
X383000D02*
D03*
X207500Y331000D02*
D03*
X222500D02*
D03*
X657000Y166000D02*
D03*
X642000D02*
D03*
D84*
X770000Y134450D02*
D03*
X750000D02*
D03*
X730000D02*
D03*
X710000D02*
D03*
X821000Y304950D02*
D03*
X841000D02*
D03*
X861000D02*
D03*
X881000D02*
D03*
X876000Y134450D02*
D03*
X856000D02*
D03*
X836000D02*
D03*
X816000D02*
D03*
X881000Y328000D02*
D03*
X861000D02*
D03*
X841000D02*
D03*
X821000D02*
D03*
D85*
X709720Y63500D02*
D03*
X770280D02*
D03*
X881280Y234000D02*
D03*
X820720D02*
D03*
X815720Y63500D02*
D03*
X876280D02*
D03*
X820720Y398950D02*
D03*
X881280D02*
D03*
D86*
X718250Y56550D02*
D03*
X761750D02*
D03*
X872750Y227050D02*
D03*
X829250D02*
D03*
X824250Y56550D02*
D03*
X867750D02*
D03*
X829250Y405900D02*
D03*
X872750D02*
D03*
D87*
X740000Y86200D02*
D03*
X851000Y256700D02*
D03*
X846000Y86200D02*
D03*
X851000Y376250D02*
D03*
D88*
X1067750Y563500D02*
D03*
Y466500D02*
D03*
X39000Y474000D02*
D03*
Y272000D02*
D03*
X40000Y530000D02*
D03*
Y597000D02*
D03*
D89*
X1020750Y537500D02*
D03*
Y522500D02*
D03*
Y507500D02*
D03*
Y492500D02*
D03*
X86000Y298000D02*
D03*
Y448000D02*
D03*
Y433000D02*
D03*
Y418000D02*
D03*
Y403000D02*
D03*
Y388000D02*
D03*
Y373000D02*
D03*
Y358000D02*
D03*
Y343000D02*
D03*
Y328000D02*
D03*
Y313000D02*
D03*
X87000Y556000D02*
D03*
Y571000D02*
D03*
D90*
X889750Y564000D02*
D03*
X876250D02*
D03*
X564750Y265000D02*
D03*
X551250D02*
D03*
D91*
X923000Y595000D02*
D03*
Y579000D02*
D03*
X907000Y327000D02*
D03*
Y311000D02*
D03*
X886000Y174000D02*
D03*
Y158000D02*
D03*
X825000Y524000D02*
D03*
Y540000D02*
D03*
X757000Y524000D02*
D03*
Y540000D02*
D03*
X689000Y524000D02*
D03*
Y540000D02*
D03*
X621000Y524000D02*
D03*
Y540000D02*
D03*
X553000Y524000D02*
D03*
Y540000D02*
D03*
X485000Y524000D02*
D03*
Y540000D02*
D03*
X417000Y524000D02*
D03*
Y540000D02*
D03*
X349000Y524000D02*
D03*
Y540000D02*
D03*
X281000Y524000D02*
D03*
Y540000D02*
D03*
X213000Y524000D02*
D03*
Y540000D02*
D03*
X841000Y561000D02*
D03*
Y577000D02*
D03*
X773000Y561000D02*
D03*
Y577000D02*
D03*
X705000Y561000D02*
D03*
Y577000D02*
D03*
X637000Y561000D02*
D03*
Y577000D02*
D03*
X569000Y561000D02*
D03*
Y577000D02*
D03*
X501000Y561000D02*
D03*
Y577000D02*
D03*
X433000Y561000D02*
D03*
Y577000D02*
D03*
X365000Y561000D02*
D03*
Y577000D02*
D03*
X297000Y561000D02*
D03*
Y577000D02*
D03*
X229000Y561000D02*
D03*
Y577000D02*
D03*
D92*
X865000Y641749D02*
D03*
X885000D02*
D03*
D93*
X699744Y237175D02*
D03*
X782744D02*
D03*
X677500Y35000D02*
D03*
X594500D02*
D03*
D94*
X906902Y283101D02*
D03*
Y298101D02*
D03*
X885500Y189500D02*
D03*
Y204500D02*
D03*
D95*
X978500Y486500D02*
D03*
Y504000D02*
D03*
Y521500D02*
D03*
X941500Y486500D02*
D03*
Y504000D02*
D03*
Y521500D02*
D03*
D96*
X411500Y453500D02*
D03*
X429000Y430500D02*
D03*
X446500Y453500D02*
D03*
D97*
X327000Y228500D02*
D03*
Y265500D02*
D03*
X273000D02*
D03*
Y228500D02*
D03*
D98*
X220000Y486500D02*
D03*
Y501500D02*
D03*
X204000Y486500D02*
D03*
Y501500D02*
D03*
X190000Y478500D02*
D03*
Y493500D02*
D03*
X827000Y561500D02*
D03*
Y576500D02*
D03*
X759000Y561500D02*
D03*
Y576500D02*
D03*
X691000Y561500D02*
D03*
Y576500D02*
D03*
X623000Y561500D02*
D03*
Y576500D02*
D03*
X555000Y561500D02*
D03*
Y576500D02*
D03*
X487000Y561500D02*
D03*
Y576500D02*
D03*
X419000Y561500D02*
D03*
Y576500D02*
D03*
X351000D02*
D03*
Y561500D02*
D03*
X283000Y576500D02*
D03*
Y561500D02*
D03*
X215000Y576500D02*
D03*
Y561500D02*
D03*
X354000Y371500D02*
D03*
Y386500D02*
D03*
D99*
X799000Y566500D02*
D03*
Y614500D02*
D03*
X731000Y566500D02*
D03*
Y614500D02*
D03*
X663000Y566500D02*
D03*
Y614500D02*
D03*
X595000Y566500D02*
D03*
Y614500D02*
D03*
X527000Y566500D02*
D03*
Y614500D02*
D03*
X459000Y566500D02*
D03*
Y614500D02*
D03*
X391000Y566500D02*
D03*
Y614500D02*
D03*
X323000Y566500D02*
D03*
Y614500D02*
D03*
X255000Y566500D02*
D03*
Y614500D02*
D03*
X187000Y566500D02*
D03*
Y614500D02*
D03*
D100*
X788000Y534000D02*
D03*
X810000Y543500D02*
D03*
Y524500D02*
D03*
X720000Y534000D02*
D03*
X742000Y543500D02*
D03*
Y524500D02*
D03*
X652000Y534000D02*
D03*
X674000Y543500D02*
D03*
Y524500D02*
D03*
X584000Y534000D02*
D03*
X606000Y543500D02*
D03*
Y524500D02*
D03*
X516000Y534000D02*
D03*
X538000Y543500D02*
D03*
Y524500D02*
D03*
X448000Y534000D02*
D03*
X470000Y543500D02*
D03*
Y524500D02*
D03*
X380000Y534000D02*
D03*
X402000Y543500D02*
D03*
Y524500D02*
D03*
X312000Y534000D02*
D03*
X334000Y543500D02*
D03*
Y524500D02*
D03*
X244000Y534000D02*
D03*
X266000Y543500D02*
D03*
Y524500D02*
D03*
X176000Y534000D02*
D03*
X198000Y543500D02*
D03*
Y524500D02*
D03*
D101*
X642500Y283500D02*
D03*
X657500D02*
D03*
X642500Y301500D02*
D03*
X657500D02*
D03*
X642500Y319500D02*
D03*
X657500D02*
D03*
X642500Y337500D02*
D03*
X657500D02*
D03*
D102*
X906500Y526000D02*
D03*
X853500D02*
D03*
D103*
X220750Y437000D02*
D03*
X206250D02*
D03*
D104*
X398550Y159250D02*
D03*
X411250D02*
D03*
X423950D02*
D03*
X436650D02*
D03*
X449350D02*
D03*
X462050D02*
D03*
X474750D02*
D03*
X487450D02*
D03*
Y64750D02*
D03*
X474750D02*
D03*
X462050D02*
D03*
X449350D02*
D03*
X436650D02*
D03*
X423950D02*
D03*
X411250D02*
D03*
X398550D02*
D03*
D105*
X833000Y592050D02*
D03*
Y621250D02*
D03*
X765000Y592050D02*
D03*
Y621250D02*
D03*
X697000Y592050D02*
D03*
Y621250D02*
D03*
X629000Y592050D02*
D03*
Y621250D02*
D03*
X561000Y592050D02*
D03*
Y621250D02*
D03*
X493000Y592050D02*
D03*
Y621250D02*
D03*
X425000Y592050D02*
D03*
Y621250D02*
D03*
X357000Y592050D02*
D03*
Y621250D02*
D03*
X289000Y592050D02*
D03*
Y621250D02*
D03*
X221000Y621250D02*
D03*
Y592050D02*
D03*
X156000Y611600D02*
D03*
Y582400D02*
D03*
D106*
X187000Y304000D02*
D03*
X137000D02*
D03*
X136000Y270000D02*
D03*
X186000D02*
D03*
D107*
X979000Y589500D02*
D03*
Y570500D02*
D03*
X959000D02*
D03*
D108*
Y587500D02*
D03*
D109*
X970000Y450000D02*
D03*
X954000D02*
D03*
D110*
X605500Y389750D02*
D03*
Y376250D02*
D03*
D111*
X197000Y438000D02*
D03*
X183000D02*
D03*
X473000Y178000D02*
D03*
X487000D02*
D03*
D112*
X861000Y597800D02*
D03*
Y570200D02*
D03*
D113*
X428000Y384500D02*
D03*
Y359500D02*
D03*
D114*
X198000Y351500D02*
D03*
D115*
X175000Y414500D02*
D03*
X198000D02*
D03*
X221000D02*
D03*
D116*
X210000Y304000D02*
D03*
X216000Y280000D02*
D03*
X251500Y511500D02*
D03*
X239250Y510250D02*
D03*
X386750Y412250D02*
D03*
Y400750D02*
D03*
X368750Y394000D02*
D03*
X386750Y385750D02*
D03*
X368750Y379750D02*
D03*
X386750Y371500D02*
D03*
X368750Y364750D02*
D03*
X386750Y357250D02*
D03*
X412000Y407000D02*
D03*
X368000Y424000D02*
D03*
X695000Y310000D02*
D03*
X990000Y593000D02*
D03*
X982000Y555000D02*
D03*
X866000Y622000D02*
D03*
X928000Y554000D02*
D03*
X167000Y430500D02*
D03*
X195000Y452000D02*
D03*
X178000Y494000D02*
D03*
X540000Y276000D02*
D03*
X860000Y159000D02*
D03*
X907000Y338250D02*
D03*
X894000Y138000D02*
D03*
X803000Y288000D02*
D03*
X574000Y132750D02*
D03*
X916250Y605250D02*
D03*
X902750Y564500D02*
D03*
X297000Y360000D02*
D03*
X286000D02*
D03*
X308000D02*
D03*
X319000D02*
D03*
X677000Y469500D02*
D03*
Y482500D02*
D03*
X655000Y87000D02*
D03*
X767244Y280175D02*
D03*
D117*
X1011700Y617750D02*
D03*
X925300D02*
D03*
D118*
X1011700Y657750D02*
D03*
X925300D02*
D03*
D119*
X990000Y224000D02*
D03*
Y89000D02*
D03*
X1000000Y280000D02*
D03*
Y415000D02*
D03*
X110000Y229000D02*
D03*
Y94000D02*
D03*
D120*
X930000Y120500D02*
D03*
Y192500D02*
D03*
X940000Y311500D02*
D03*
Y383500D02*
D03*
X170000Y125500D02*
D03*
Y197500D02*
D03*
D121*
X35000Y645000D02*
D03*
Y35000D02*
D03*
X1065000Y645000D02*
D03*
Y35000D02*
D03*
M02*
